ply
format ascii 1.0
element vertex 64
comment vertices
property float x
property float y
property float z
end_header
-1.99909615516662598 -0.0601202771067619324 0.147668033838272095
-1.41087889671325684 -1.41754043102264404 0.11675417423248291
-0.724480211734771729 -1.86416959762573242 0.181488841772079468
1.44615447521209717 -1.38153445720672607 0.505326151847839355
0.223861142992973328 -1.98743200302124023 0.451472759246826172
0.00423927837982773781 1.99999547004699707 0.390386283397674561
-4.35090017318725586 -4.13154506683349609 0.141455814242362976
-3.64539980888366699 -4.76561212539672852 0.349123686552047729
1.15463125705718994 1.63304221630096436 0.359497904777526855
1.83093667030334473 -0.804780125617980957 0.129107654094696045
-1.77969264984130859 0.91252058744430542 0.393075048923492432
3.5309302806854248 -4.85103416442871094 0.29275849461555481
-1.39266812801361084 1.43543565273284912 0.125082507729530334
-3.04844808578491211 5.16787815093994141 0.115112222731113434
-5.51909589767456055 2.35363149642944336 0.0519516430795192719
3.31670284271240234 4.99994802474975586 0.0666112154722213745
0 0 0
0 0 0
0 0 0
0 0 0
0 0 0
0 0 0
0 0 0
0 0 0
0 0 0
0 0 0
0 0 0
0 0 0
0 0 0
0 0 0
0 0 0
0 0 0
0 0 0
0 0 0
0 0 0
0 0 0
0 0 0
0 0 0
0 0 0
0 0 0
0 0 0
0 0 0
0 0 0
0 0 0
0 0 0
0 0 0
0 0 0
0 0 0
0 0 0
0 0 0
0 0 0
0 0 0
0 0 0
0 0 0
0 0 0
0 0 0
0 0 0
0 0 0
0 0 0
0 0 0
0 0 0
0 0 0
0 0 0
0 0 0
