ply
format ascii 1.0
element vertex 256
comment vertices
property float x
property float y
property float z
end_header
1.74928271770477295 0.871846854686737061 0.214733541011810303
-5.63361454010009766 -2.1155550479888916 0.129321694374084473
-0.201956093311309814 -6.02029514312744141 0.121948137879371643
-1.97635459899902344 5.75449562072753906 0.251198291778564453
3.72194457054138184 -4.73466920852661133 0.188405141234397888
-1.5927884578704834 -1.48069858551025391 0.276214361190795898
1.07115590572357178 -1.66774928569793701 0.284120500087738037
0.571107804775238037 6.0040278434753418 0.728316009044647217
-1.8022911548614502 1.00203192234039307 0.296297550201416016
0.0664794296026229858 2.24869251251220703 0.39923703670501709
-1.9563288688659668 -0.274464190006256104 0.109394878149032593
1.83559072017669678 -0.82259291410446167 0.538884520530700684
2.03039288520812988 0.107252329587936401 0.675190985202789307
0.443642973899841309 -2.0426185131072998 0.0382522121071815491
-0.914165914058685303 -1.66346538066864014 0.384203672409057617
1.47186815738677979 -1.33866977691650391 0.388469427824020386
-5.31448125839233398 -1.93469607830047607 0.430008113384246826
-0.178180962800979614 1.98507428169250488 0.142344310879707336
1.42037129402160645 -0.928859710693359375 0.54677426815032959
-1.63697266578674316 -0.197635427117347717 0.383103668689727783
1.42550969123840332 -1.56404793262481689 0.0512979403138160706
2.00683236122131348 0.175178632140159607 0.275047123432159424
0.760436952114105225 -1.830849289894104 0.122998327016830444
-1.5288463830947876 -1.17202520370483398 0.479186505079269409
-1.26994478702545166 -1.5410231351852417 0.411489337682723999
3.6157371997833252 -5.02323436737060547 0.295502603054046631
-1.75892841815948486 0.823701858520507812 0.557476341724395752
0.439772903919219971 5.95985937118530273 0.456188172101974487
1.33645224571228027 -1.61244416236877441 0.327692419290542603
-1.79819130897521973 5.58758831024169922 0.256310462951660156
1.19550132751464844 -1.51804745197296143 0.143386289477348328
-0.314104139804840088 -5.84589958190917969 0.230762511491775513
3.5027005672454834 -4.80622196197509766 0.206649303436279297
-1.42840075492858887 -1.3843233585357666 0.455987930297851562
1.70067131519317627 -0.907780468463897705 0.386423289775848389
2.04403996467590332 0.0549829378724098206 0.465380191802978516
0.358496993780136108 5.97926616668701172 0.713724315166473389
-1.804709792137146 -0.248947277665138245 0.260164976119995117
-0.000276744365692138672 2.11999368667602539 0.242877930402755737
0.892618834972381592 -1.6597524881362915 0.170519769191741943
-5.48464155197143555 -1.92893838882446289 0.307212799787521362
-1.11176967620849609 -1.7116241455078125 0.416158109903335571
0.573626875877380371 -1.88839232921600342 0.062733873724937439
1.20457088947296143 -1.47503077983856201 0.358473360538482666
-1.04810643196105957 -1.54161667823791504 0.336232155561447144
-1.87970089912414551 5.69124317169189453 0.396653234958648682
-1.41189157962799072 -1.60221648216247559 0.309553682804107666
2.1019291877746582 0.0170876346528530121 0.288964807987213135
1.6862947940826416 -0.909852981567382812 0.601752638816833496
1.91722369194030762 0.937361061573028564 0.247356966137886047
-1.43903267383575439 -1.38509738445281982 0.2706412672996521
1.8126218318939209 -1.00407326221466064 0.488988578319549561
-1.57757759094238281 -1.29895162582397461 0.369592279195785522
1.76823008060455322 0.886273741722106934 0.385887116193771362
1.04148256778717041 -1.52439212799072266 0.37593686580657959
0.912663102149963379 -1.74954068660736084 0.314782232046127319
-1.71980738639831543 0.92401885986328125 0.424111843109130859
0.22082972526550293 2.18242645263671875 0.392302870750427246
3.66957521438598633 -4.9086613655090332 0.185562968254089355
3.58425784111022949 -4.69604635238647461 0.101228900253772736
0.587502419948577881 5.98535823822021484 0.568699240684509277
-5.32631778717041016 -2.02465391159057617 0.299160510301589966
-1.04480648040771484 -1.58797049522399902 0.488502293825149536
2.11808371543884277 0.195541784167289734 0.385364353656768799
-0.350312471389770508 -5.97329092025756836 0.0979024320840835571
-1.43232548236846924 -1.24517631530761719 0.362546533346176147
1.32422471046447754 -1.65961050987243652 0.180595144629478455
-1.9433295726776123 5.61402559280395508 0.195242196321487427
-1.05523228645324707 -1.68967437744140625 0.279548943042755127
1.95698225498199463 0.0362157002091407776 0.318633139133453369
0.659907937049865723 -1.9536815881729126 0.165098816156387329
1.41678500175476074 -1.495749831199646 0.286659777164459229
0.519707441329956055 -1.98711287975311279 0.151217997074127197
1.19248473644256592 -1.58635306358337402 0.270310848951339722
0.8939475417137146 -1.80714404582977295 0.164903521537780762
3.65129613876342773 -4.61841678619384766 0.224707692861557007
0.436198115348815918 5.96835660934448242 0.596219301223754883
-1.95433592796325684 -0.413392484188079834 0.105307906866073608
-1.75683939456939697 -0.147462472319602966 0.338690727949142456
1.351021409034729 -1.52404236793518066 0.158882394433021545
1.10267984867095947 -1.48572039604187012 0.257413953542709351
3.53688263893127441 -4.94435882568359375 0.219076156616210938
1.77080464363098145 0.98433387279510498 0.284080207347869873
0.512175440788269043 -1.94871950149536133 -0.0379179306328296661
1.03967380523681641 -1.58008444309234619 0.189164131879806519
-0.284616351127624512 -5.97025346755981445 0.223116487264633179
1.99503934383392334 0.133067667484283447 0.553128063678741455
-1.36374294757843018 -1.48524069786071777 0.304766267538070679
1.54568612575531006 -0.920049607753753662 0.561177730560302734
-1.82840955257415771 5.70451927185058594 0.220255687832832336
1.39544260501861572 -1.34543013572692871 0.488145947456359863
-0.161800086498260498 2.09239482879638672 0.0790069252252578735
-1.27787661552429199 -1.41749954223632812 0.41168057918548584
-0.127117037773132324 2.07574057579040527 0.208094358444213867
-1.13521122932434082 -1.49984061717987061 0.406549245119094849
-1.93364334106445312 5.62024402618408203 0.319145619869232178
-1.47705113887786865 -1.51060211658477783 0.274186700582504272
-1.6524043083190918 0.858154296875 0.493884295225143433
1.81901884078979492 0.824225246906280518 0.294450640678405762
1.01946675777435303 -1.68720448017120361 0.151784852147102356
3.60918855667114258 -4.76252651214599609 0.191438257694244385
-5.58377885818481445 -2.02453804016113281 0.177362591028213501
0.0100004300475120544 2.16048097610473633 0.34839358925819397
1.4260934591293335 -1.60474312305450439 0.185730725526809692
-1.5730292797088623 -1.27453839778900146 0.49926304817199707
-1.55954110622406006 -1.3718799352645874 0.284899652004241943
0.58597874641418457 -2.00630307197570801 0.063744276762008667
-1.55945873260498047 -1.48348057270050049 0.382459104061126709
1.3907005786895752 -1.35840964317321777 0.315086841583251953
0.972351968288421631 -1.59727680683135986 0.329626709222793579
-1.93057966232299805 -0.296586573123931885 0.21390223503112793
-0.264696657657623291 -5.91517972946166992 0.131575196981430054
2.02650713920593262 0.177862241864204407 0.459503829479217529
0.140337586402893066 2.21106886863708496 0.325716137886047363
-1.0128328800201416 -1.72128510475158691 0.458690524101257324
-1.16986179351806641 -1.62672519683837891 0.383065879344940186
-5.30221939086914062 -1.90784001350402832 0.326228171586990356
-1.83290696144104004 5.60240554809570312 0.356975525617599487
-1.8694000244140625 0.95336383581161499 0.364231497049331665
-0.301980942487716675 -6.05942249298095703 0.13060528039932251
3.58656072616577148 -4.86115169525146484 0.253181040287017822
-5.4146122932434082 -2.02041411399841309 0.34955170750617981
1.84649956226348877 0.948718070983886719 0.340386688709259033
1.25738072395324707 -1.52002251148223877 0.23194606602191925
-0.99069744348526001 -1.72276425361633301 0.357877284288406372
-1.89104032516479492 5.72686529159545898 0.296168327331542969
0.42673337459564209 -2.01973438262939453 0.136277347803115845
1.33446240425109863 -1.5965125560760498 0.0739274919033050537
-1.85107159614562988 5.63949441909790039 0.148775562644004822
2.03220057487487793 0.124484293162822723 0.356431692838668823
0.535793304443359375 6.01810693740844727 0.491497069597244263
-1.77460432052612305 0.910335838794708252 0.317881464958190918
1.49131953716278076 -1.42075252532958984 0.339472144842147827
2.13354635238647461 0.107915200293064117 0.346358388662338257
0.482294380664825439 5.97078800201416016 0.681198537349700928
1.48097324371337891 -0.948332071304321289 0.474635303020477295
0.471112489700317383 -1.95486021041870117 0.0747625529766082764
-1.75614786148071289 0.835452377796173096 0.423058152198791504
1.86399257183074951 0.864259004592895508 0.217197537422180176
-1.51374256610870361 -1.34715449810028076 0.476333349943161011
2.05209207534790039 0.0578582845628261566 0.59691154956817627
1.3397064208984375 -1.56867170333862305 0.243618130683898926
1.78442096710205078 0.8333091139793396 0.135934293270111084
1.79964733123779297 -0.908616304397583008 0.552620887756347656
-1.06738507747650146 -1.63026607036590576 0.402462303638458252
3.61326146125793457 -4.98582124710083008 0.185788050293922424
0.21131548285484314 2.21946239471435547 0.476947486400604248
-1.40310943126678467 -1.45323765277862549 0.399393975734710693
0.524244248867034912 -2.04779767990112305 -0.00559680908918380737
-1.69775772094726562 -0.211153730750083923 0.30922931432723999
3.60377264022827148 -4.69504213333129883 0.252980440855026245
1.72215282917022705 0.953067958354949951 0.182515412569046021
1.17185473442077637 -1.60084652900695801 0.182790771126747131
1.00880599021911621 -1.725044846534729 0.252506643533706665
-0.203033417463302612 -5.95597219467163086 0.187473639845848083
0.661931455135345459 -1.8738257884979248 0.0565293505787849426
-1.62144577503204346 -1.37190103530883789 0.397898852825164795
2.07660126686096191 0.152956649661064148 0.583989143371582031
0.891832172870635986 -1.67771899700164795 0.26588168740272522
-0.961277306079864502 -1.59063220024108887 0.363614439964294434
3.53674054145812988 -4.8527684211730957 0.138721674680709839
0.0823135673999786377 2.14063072204589844 0.394121944904327393
0.682307958602905273 -1.85137522220611572 0.156911075115203857
1.96155309677124023 0.0816247463226318359 0.477459132671356201
-1.73454904556274414 0.97875523567199707 0.35755467414855957
3.66604161262512207 -4.72033214569091797 0.11922755092382431
1.76227712631225586 0.889402568340301514 0.299163728952407837
0.99177020788192749 -1.68065798282623291 0.334190726280212402
3.61393141746520996 -4.93761777877807617 0.280567824840545654
-1.49604308605194092 -1.24770021438598633 0.457662463188171387
-1.88039922714233398 5.62688255310058594 0.253012001514434814
-1.91851329803466797 -0.365310311317443848 0.165257573127746582
-1.79965651035308838 0.960960566997528076 0.410764515399932861
0.0674490705132484436 2.18496942520141602 0.291994154453277588
0.502075076103210449 -2.05740451812744141 0.0963536351919174194
2.05020284652709961 -0.0271329134702682495 0.337165415287017822
1.82411825656890869 0.934030532836914062 0.24437965452671051
-1.82567751407623291 5.66661691665649414 0.301625072956085205
-1.35077834129333496 -1.58162713050842285 0.360612720251083374
0.154961258172988892 2.25092983245849609 0.396130621433258057
-1.20865368843078613 -1.59978985786437988 0.450208127498626709
0.546895146369934082 6.00191259384155273 0.641854763031005859
-1.71570265293121338 0.912925541400909424 0.505041003227233887
1.05323922634124756 -1.59809410572052002 0.340997785329818726
0.540212929248809814 -1.90918183326721191 0.157049492001533508
-1.98985862731933594 5.68775272369384766 0.208353698253631592
-5.37055206298828125 -1.93648219108581543 0.356376945972442627
1.96463871002197266 0.0912360101938247681 0.6141243577003479
1.39393007755279541 -1.34866952896118164 0.401059865951538086
-1.52445995807647705 -1.44743704795837402 0.253213644027709961
1.42873001098632812 -1.53002572059631348 0.145050540566444397
-1.63403534889221191 -1.39558792114257812 0.277703702449798584
2.081298828125 0.119741365313529968 0.487734615802764893
1.69804227352142334 0.928170144557952881 0.252083033323287964
3.61559319496154785 -4.64876270294189453 0.154264718294143677
1.40998530387878418 -1.59213864803314209 0.340717464685440063
1.46660530567169189 -0.876065194606781006 0.496705770492553711
0.514600992202758789 5.96141386032104492 0.438648730516433716
-0.951480686664581299 -1.6766890287399292 0.469298481941223145
0.479665100574493408 5.99573278427124023 0.538020193576812744
1.14922714233398438 -1.53712666034698486 0.308388441801071167
-1.71720576286315918 -0.158010527491569519 0.402329236268997192
0.580524444580078125 -1.83823931217193604 0.118995174765586853
3.68471622467041016 -4.66738224029541016 0.178902164101600647
-1.51671135425567627 -1.53231644630432129 0.345840394496917725
-1.45018517971038818 -1.39811491966247559 0.342511832714080811
0.642686069011688232 -1.96607697010040283 0.0944012552499771118
0.810188472270965576 -1.801841139793396 0.16807854175567627
-1.0907127857208252 -1.56609392166137695 0.428529262542724609
2.04916000366210938 0.0550226606428623199 0.341773241758346558
-0.286094963550567627 -6.03109455108642578 0.0660401955246925354
-1.07985150814056396 -1.67672622203826904 0.470563352108001709
-1.94624483585357666 5.67042112350463867 0.262908667325973511
1.11018085479736328 -1.60784447193145752 0.27629697322845459
0.418581187725067139 5.98245429992675781 0.751903414726257324
1.19111144542694092 -1.49725377559661865 0.243849813938140869
-1.02741920948028564 -1.60823667049407959 0.322754323482513428
-1.83126521110534668 5.72592735290527344 0.339982151985168457
-0.278546988964080811 -5.99140834808349609 0.156146124005317688
-1.05855214595794678 -1.75575292110443115 0.403063833713531494
1.77705919742584229 -0.835476815700531006 0.502099037170410156
-1.21002137660980225 -1.53008913993835449 0.445419788360595703
0.508332729339599609 -1.98579895496368408 0.0220213904976844788
-1.92302799224853516 -0.35267794132232666 0.0918213352560997009
0.627432823181152344 -1.91276609897613525 0.0107468031346797943
-1.76271569728851318 -0.224263757467269897 0.328812181949615479
2.06487655639648438 0.142066791653633118 0.41487547755241394
-1.01160025596618652 -1.64545631408691406 0.45886954665184021
1.76820063591003418 -0.958778500556945801 0.514712333679199219
3.65118932723999023 -4.99534273147583008 0.241887181997299194
0.489146411418914795 -2.00861930847167969 -0.0614602267742156982
0.999537110328674316 -1.74644351005554199 0.319907844066619873
-1.12255275249481201 -1.61679768562316895 0.33616936206817627
3.70435500144958496 -4.96589422225952148 0.188615486025810242
-1.39265918731689453 -1.4197918176651001 0.30432543158531189
3.67083454132080078 -4.6918950080871582 0.23966507613658905
1.71720039844512939 -0.918155431747436523 0.450076639652252197
2.01296854019165039 0.0413108617067337036 0.545793890953063965
1.10084927082061768 -1.59589087963104248 0.209343329071998596
-0.986058592796325684 -1.6558082103729248 0.34273451566696167
1.09548795223236084 -1.51469326019287109 0.338612109422683716
-1.91375637054443359 5.76006412506103516 0.232648313045501709
0.649017155170440674 -1.90418219566345215 0.11283334344625473
-1.56401252746582031 -1.26751410961151123 0.435475617647171021
1.01511669158935547 -1.63710379600524902 0.207349330186843872
-1.82886588573455811 5.63384056091308594 0.209211289882659912
1.28522133827209473 -1.56103265285491943 0.19059087336063385
0.695300817489624023 -1.83012008666992188 0.0899931192398071289
1.75478684902191162 0.890411019325256348 0.15357285737991333
1.66274762153625488 -0.914812147617340088 0.542445719242095947
2.05930805206298828 0.0936926007270812988 0.54189598560333252
-1.08053863048553467 -1.67190778255462646 0.355756878852844238
0.884996771812438965 -1.62616086006164551 0.228821948170661926
-1.605185866355896 -1.39533066749572754 0.334652423858642578
3.56204819679260254 -4.81215000152587891 0.185346275568008423
1.76099240779876709 0.936342477798461914 0.229326128959655762
