ply
format ascii 1.0
element vertex 221
comment vertices
property float x
property float y
property float z
end_header
0.257739156484603882 -1.95159566402435303 0.440151184797286987
-2.94257736206054688 5.12833547592163086 0.0932202786207199097
-4.22558498382568359 -4.04378366470336914 0.166071131825447083
3.56163477897644043 -4.77001237869262695 0.274862736463546753
0.0980539917945861816 2.04560208320617676 0.318600773811340332
-5.39643764495849609 2.40466737747192383 0.125431045889854431
-1.89897048473358154 0.0298379510641098022 0.13008233904838562
1.89267408847808838 -0.693990647792816162 0.0989290028810501099
-1.36742198467254639 -1.26168942451477051 0.0965217575430870056
-1.28843927383422852 1.56647384166717529 0.0691429898142814636
1.2581411600112915 1.68915677070617676 0.307992339134216309
-3.57107853889465332 -4.72598123550415039 0.381854355335235596
1.48331856727600098 -1.37715673446655273 0.417454302310943604
-0.624407172203063965 -1.77841567993164062 0.184749022126197815
-1.75163090229034424 0.925027787685394287 0.442079126834869385
3.45502614974975586 5.10676765441894531 0.165384933352470398
-0.954866230487823486 -1.71055388450622559 0.121685296297073364
0.0440093502402305603 2.02972984313964844 0.372704952955245972
-1.7380375862121582 0.947072982788085938 0.305441677570343018
-3.03941726684570312 5.21576976776123047 0.123598761856555939
-1.31393265724182129 -1.2554401159286499 0.0884569734334945679
-3.6390688419342041 -4.71315097808837891 0.325339674949645996
3.60881543159484863 -4.85901260375976562 0.273839026689529419
-4.26261711120605469 -4.03509664535522461 0.139980018138885498
1.250679612159729 1.64003992080688477 0.312946826219558716
1.20663988590240479 1.70723903179168701 0.307421237230300903
1.55098116397857666 -1.31074702739715576 0.392869740724563599
-0.710176765918731689 -1.85636305809020996 0.181751102209091187
1.5513845682144165 -1.3142552375793457 0.360277473926544189
1.83718204498291016 -0.697299957275390625 0.0984397977590560913
3.62131476402282715 -4.80644941329956055 0.269613742828369141
-1.32120490074157715 1.52302396297454834 0.0775896534323692322
0.112356342375278473 2.03884267807006836 0.325507909059524536
-1.34789860248565674 1.50328230857849121 0.16006353497505188
1.50484240055084229 -1.2955777645111084 0.421967387199401855
-0.610969483852386475 -1.80561399459838867 0.205612406134605408
-1.63432848453521729 1.01886832714080811 0.357446491718292236
-3.54546093940734863 -4.71212387084960938 0.345266222953796387
1.28180801868438721 1.63550496101379395 0.287891089916229248
-2.97240614891052246 5.23253059387207031 0.117940068244934082
1.89522242546081543 -0.677054166793823242 0.0842344760894775391
-1.36461818218231201 -1.26082527637481689 0.0766894072294235229
-1.28507280349731445 1.57884776592254639 0.0417538061738014221
-1.90254664421081543 0.0636258423328399658 0.0993647053837776184
-1.94068813323974609 -0.00508572161197662354 0.123199068009853363
-4.25520896911621094 -4.01711177825927734 0.130375698208808899
-2.9721074104309082 5.20614767074584961 0.0615686625242233276
-2.96139168739318848 5.18109798431396484 0.116659477353096008
0.0866181105375289917 2.00658178329467773 0.343869924545288086
3.58580684661865234 -4.79781103134155273 0.261910796165466309
1.23723626136779785 1.69257092475891113 0.332352876663208008
-1.32441496849060059 -1.25899696350097656 0.0915999710559844971
-3.61103153228759766 -4.73301410675048828 0.386241376399993896
-1.75724446773529053 0.96045231819152832 0.370011329650878906
3.58512592315673828 -4.81543302536010742 0.26350751519203186
-0.664544880390167236 -1.7735055685043335 0.16697143018245697
-1.9164125919342041 0.0399809107184410095 0.0945594832301139832
1.4928210973739624 -1.35072684288024902 0.404377609491348267
3.60419273376464844 -4.84189128875732422 0.267371058464050293
1.81102800369262695 -0.881901919841766357 0.127645015716552734
-4.23859453201293945 -4.00138235092163086 0.141461268067359924
-0.766266286373138428 -1.86998975276947021 0.120108827948570251
0.128361895680427551 1.99564695358276367 0.352488845586776733
1.2576904296875 1.66569101810455322 0.32343977689743042
-1.35515475273132324 1.50797772407531738 0.136135771870613098
-5.36480093002319336 2.43156909942626953 0.140930205583572388
0.0888746678829193115 2.04447698593139648 0.332372069358825684
3.49429631233215332 5.13367033004760742 0.150033712387084961
-4.26882839202880859 -4.03285598754882812 0.146274149417877197
3.55392217636108398 -4.80827474594116211 0.282048583030700684
-1.31423509120941162 -1.31779575347900391 0.105979189276695251
-3.58983230590820312 -4.67064285278320312 0.363666683435440063
1.87181448936462402 -0.684753179550170898 0.102366529405117035
-1.33055520057678223 -1.27960574626922607 0.0766361430287361145
-0.661124169826507568 -1.7856442928314209 0.164061486721038818
1.89395439624786377 -0.699983775615692139 0.107153281569480896
3.6448829174041748 -4.87263154983520508 0.29063725471496582
0.241460666060447693 -1.96926319599151611 0.396389901638031006
-1.30862176418304443 1.56879222393035889 0.0738790631294250488
-3.60153365135192871 -4.76179742813110352 0.345317423343658447
-4.25901031494140625 -4.02559185028076172 0.153386399149894714
-1.34585678577423096 1.50607144832611084 0.0985386818647384644
1.26552224159240723 1.6683802604675293 0.312584072351455688
-1.92770266532897949 0.0232229828834533691 0.156705811619758606
-1.69758403301239014 1.03030872344970703 0.339962571859359741
0.276927769184112549 -1.96623110771179199 0.495065182447433472
-0.690115451812744141 -1.77384865283966064 0.168775707483291626
3.61091494560241699 -4.79565620422363281 0.230842545628547668
-3.59908294677734375 -4.70191526412963867 0.338279366493225098
-1.29642295837402344 -1.26984226703643799 0.0892774462699890137
-4.23262691497802734 -4.02503442764282227 0.152497187256813049
-2.97324562072753906 5.1912989616394043 0.0869453847408294678
1.51845872402191162 -1.31366157531738281 0.383626818656921387
1.51276183128356934 -1.35100531578063965 0.418924033641815186
1.23626017570495605 1.69297194480895996 0.337317526340484619
3.57707881927490234 -4.85691118240356445 0.250114262104034424
1.48727083206176758 -1.38741230964660645 0.445988237857818604
-1.71857130527496338 0.965943217277526855 0.393246948719024658
-0.80647963285446167 -1.74533569812774658 0.145268738269805908
1.90716207027435303 -0.716078698635101318 0.0841755494475364685
-1.90722382068634033 0.0448656827211380005 0.0926747620105743408
-2.97365474700927734 5.26071262359619141 0.115175515413284302
-2.96549510955810547 5.16625690460205078 0.0760640203952789307
0.113120630383491516 2.01666402816772461 0.341228246688842773
1.25652837753295898 1.66785895824432373 0.318763136863708496
0.111839406192302704 2.00207257270812988 0.331717401742935181
-0.600430011749267578 -1.76641237735748291 0.210330948233604431
3.58584117889404297 -4.80194425582885742 0.249871298670768738
-1.31378579139709473 1.61457514762878418 0.0973816812038421631
0.0843545645475387573 2.02738571166992188 0.352658301591873169
1.25368988513946533 1.66541910171508789 0.333602249622344971
1.48598361015319824 -1.34491360187530518 0.425487637519836426
-3.64117932319641113 -4.70476579666137695 0.360461235046386719
1.53014779090881348 -1.309348464012146 0.387089639902114868
-1.27992594242095947 -1.32677459716796875 0.0586281716823577881
1.28131020069122314 1.64768874645233154 0.300268858671188354
1.5376584529876709 -1.29832625389099121 0.37296101450920105
3.4663238525390625 5.11278915405273438 0.153111889958381653
-1.31815409660339355 1.5722278356552124 0.0750812962651252747
-2.96472787857055664 5.2357945442199707 0.124818146228790283
3.58664131164550781 -4.8523411750793457 0.277807414531707764
-2.96212005615234375 5.17767810821533203 0.0692332535982131958
-1.34842133522033691 -1.26564550399780273 0.099752083420753479
0.293792784214019775 -1.96303725242614746 0.419110000133514404
1.27270770072937012 1.66650927066802979 0.298629999160766602
-0.62301713228225708 -1.74705517292022705 0.182859435677528381
-4.23653411865234375 -4.01988983154296875 0.140438109636306763
-4.25657081604003906 -4.01904439926147461 0.155014872550964355
-1.9095684289932251 0.0463469550013542175 0.15111839771270752
-4.2580103874206543 -4.00799369812011719 0.140505075454711914
-3.5906684398651123 -4.73144960403442383 0.350935578346252441
0.0915992110967636108 2.0227811336517334 0.348332524299621582
-4.28121042251586914 -4.04665470123291016 0.144019231200218201
0.105255559086799622 2.04342079162597656 0.34606635570526123
-0.652661442756652832 -1.75178837776184082 0.161853641271591187
-1.7189253568649292 0.960899055004119873 0.351308196783065796
-2.99823474884033203 5.19373273849487305 0.0959334522485733032
-1.29899144172668457 -1.27057754993438721 0.0960096493363380432
-1.30157220363616943 1.57880282402038574 0.0669120848178863525
-1.33869266510009766 -1.2646486759185791 0.0821129083633422852
0.0803057253360748291 2.06376051902770996 0.347541242837905884
-0.615554571151733398 -1.79267346858978271 0.199037998914718628
1.85206305980682373 -0.756357312202453613 0.129335254430770874
-4.25399875640869141 -4.03660964965820312 0.142562240362167358
-1.2931140661239624 1.56962549686431885 0.0465234518051147461
1.92698538303375244 -0.723197638988494873 0.0968884304165840149
-0.600961625576019287 -1.7715456485748291 0.188791155815124512
0.107895746827125549 2.04515933990478516 0.323920965194702148
-1.3091127872467041 1.53385162353515625 0.0885159075260162354
1.4986565113067627 -1.37828302383422852 0.426388412714004517
-3.00361132621765137 5.21730709075927734 0.121535763144493103
-3.56664824485778809 -4.68547677993774414 0.343367874622344971
-4.23975753784179688 -4.01365947723388672 0.138632342219352722
-3.60977077484130859 -4.70310449600219727 0.368868917226791382
-2.96155476570129395 5.12913274765014648 0.0956182032823562622
0.0979329794645309448 2.02010393142700195 0.336800843477249146
-1.9308164119720459 0.0324954241514205933 0.108527690172195435
0.0436857119202613831 2.04472851753234863 0.364517241716384888
-0.631119787693023682 -1.7907862663269043 0.196052879095077515
-1.34382903575897217 1.49039602279663086 0.125937536358833313
-1.89271926879882812 0.0453169085085391998 0.125698164105415344
-0.783618390560150146 -1.75330781936645508 0.137659430503845215
1.25023603439331055 1.69144260883331299 0.313319474458694458
-0.66207653284072876 -1.8342965841293335 0.161484867334365845
1.54652130603790283 -1.30638444423675537 0.388769805431365967
1.85638022422790527 -0.712384283542633057 0.0866367965936660767
-4.26654291152954102 -4.04433393478393555 0.140786841511726379
1.28203773498535156 1.64417779445648193 0.299915611743927002
-3.61480498313903809 -4.73619270324707031 0.357134819030761719
-3.60435199737548828 -4.7275843620300293 0.338163256645202637
3.59991216659545898 -4.82588100433349609 0.253194242715835571
-0.790610432624816895 -1.75817573070526123 0.136465966701507568
1.56090664863586426 -1.30363130569458008 0.35219922661781311
1.89663517475128174 -0.686640024185180664 0.100007504224777222
1.8359140157699585 -0.687224328517913818 0.100541077554225922
-1.74628722667694092 0.94499129056930542 0.35069739818572998
1.2464604377746582 1.68282854557037354 0.325084507465362549
3.55348348617553711 -4.7987818717956543 0.278303921222686768
1.26662909984588623 1.65652263164520264 0.294751912355422974
1.48903393745422363 -1.36244368553161621 0.413602352142333984
-3.62340211868286133 -4.69261360168457031 0.363675206899642944
-1.34391438961029053 1.53409016132354736 0.15370999276638031
-1.90825772285461426 0.0393092259764671326 0.11088988184928894
3.60261750221252441 -4.85159015655517578 0.254125416278839111
-1.33828997611999512 -1.26230525970458984 0.0904353633522987366
3.60083222389221191 -4.80371952056884766 0.251643449068069458
-1.35031247138977051 -1.26224410533905029 0.0888925939798355103
-4.25403070449829102 -4.02384710311889648 0.150190100073814392
-2.9655606746673584 5.20462703704833984 0.0885958820581436157
1.8991549015045166 -0.706080257892608643 0.090311199426651001
0.269367843866348267 -1.95810675621032715 0.403908699750900269
3.57570505142211914 -4.81417083740234375 0.278421878814697266
1.26468026638031006 1.66887164115905762 0.294538795948028564
-1.30253899097442627 1.56989836692810059 0.0629956945776939392
-1.3178868293762207 -1.26808702945709229 0.0858947634696960449
-1.68314731121063232 0.960246741771697998 0.343412101268768311
-4.23552274703979492 -4.02665519714355469 0.150300756096839905
1.26282918453216553 1.65057516098022461 0.309575676918029785
-1.60741591453552246 1.04129898548126221 0.31943938136100769
-1.71952474117279053 0.93961101770401001 0.437048196792602539
-1.92303264141082764 0.0179339945316314697 0.133798539638519287
-0.749838531017303467 -1.86387085914611816 0.164661228656768799
1.26468265056610107 1.6799476146697998 0.308831334114074707
0.249209925532341003 -1.95227158069610596 0.480076789855957031
1.49472260475158691 -1.35344314575195312 0.415446460247039795
-4.26287126541137695 -4.00185585021972656 0.143186137080192566
-1.35117506980895996 1.51274394989013672 0.125862658023834229
-4.27457904815673828 -4.0317234992980957 0.121620796620845795
-0.686815798282623291 -1.72259747982025146 0.18969060480594635
1.23775410652160645 1.69842934608459473 0.336538493633270264
-5.38640880584716797 2.4140312671661377 0.138507872819900513
-4.23410415649414062 -4.02808856964111328 0.164648100733757019
0.0822830945253372192 2.01739716529846191 0.337653219699859619
-3.62007570266723633 -4.71226072311401367 0.342569410800933838
-4.25097560882568359 -4.00730228424072266 0.142055600881576538
-1.331870436668396 -1.25733304023742676 0.0678199902176856995
-1.36742496490478516 -1.26381301879882812 0.0721402466297149658
-1.28964400291442871 1.56174385547637939 0.0767649561166763306
1.26378333568572998 1.67741298675537109 0.316715896129608154
1.25108242034912109 1.66981267929077148 0.321723639965057373
1.85835278034210205 -0.701784253120422363 0.0976297259330749512
