ply
format ascii 1.0
element vertex 165
comment vertices
property float x
property float y
property float z
end_header
1.18309259414672852 1.83637261390686035 0.221546560525894165
-2.55221891403198242 -1.10171806812286377 0.338981866836547852
-0.258171707391738892 0.923531532287597656 0.341750413179397583
-1.52898716926574707 -1.03406453132629395 0.334709823131561279
-0.918564081192016602 -2.63408493995666504 0.0837256312370300293
0.203799217939376831 1.0687791109085083 0.103514716029167175
-0.361317455768585205 -0.646875917911529541 0.228809073567390442
0.824933886528015137 0.755958199501037598 0.0392501950263977051
-2.74841809272766113 -1.25066745281219482 0.45598137378692627
-0.719986438751220703 -1.56753134727478027 0.540990948677062988
-0.807281374931335449 -2.91549491882324219 0.123165376484394073
-1.45435428619384766 -1.10275554656982422 0.33901745080947876
-0.832621574401855469 -1.56248319149017334 0.195018351078033447
0.106923967599868774 -1.85658502578735352 0.284520000219345093
0.604139268398284912 0.923162519931793213 0.144978150725364685
-0.507595300674438477 -0.683978557586669922 0.18688686192035675
-0.11108669638633728 1.00990533828735352 0.465967416763305664
0.788080215454101562 0.740503191947937012 0.361343085765838623
-2.55209112167358398 -1.22900056838989258 0.40595284104347229
-1.40587532520294189 -1.16989219188690186 0.326069921255111694
0.171346262097358704 0.98754352331161499 0.296136409044265747
1.15930414199829102 1.88284158706665039 0.214619219303131104
-2.66186380386352539 -1.13064837455749512 0.260748505592346191
0.237762391567230225 -1.87568759918212891 -0.0064983665943145752
-0.330028831958770752 -0.672837674617767334 0.252466171979904175
-0.783756792545318604 -1.54398524761199951 0.430216670036315918
-0.501077651977539062 -0.790612399578094482 0.226781964302062988
-1.46296095848083496 -1.14166009426116943 0.271858006715774536
1.28945684432983398 1.81475579738616943 0.208423405885696411
0.784859538078308105 0.85788118839263916 0.416095137596130371
-0.083857707679271698 -1.92366886138916016 0.182778194546699524
-2.65983176231384277 -1.16005969047546387 0.357796013355255127
-0.116891823709011078 0.952419519424438477 0.358779847621917725
0.371363580226898193 0.980759859085083008 0.238297849893569946
1.1134483814239502 1.92130625247955322 0.205443486571311951
0.510551035404205322 0.871508359909057617 0.209465593099594116
-0.9954872727394104 -2.93684959411621094 0.249044910073280334
-1.59114885330200195 -1.10087060928344727 0.298411965370178223
0.681054592132568359 0.653065204620361328 0.0453960895538330078
-0.708771646022796631 -1.43211603164672852 0.504077672958374023
0.259506702423095703 -1.82214117050170898 0.0902135297656059265
-2.68836116790771484 -1.19615507125854492 0.474955528974533081
0.0366794019937515259 -1.83892953395843506 0.174941658973693848
0.89709240198135376 0.720148682594299316 0.056097865104675293
-0.339050352573394775 -0.686514317989349365 0.24610687792301178
-2.64270496368408203 -1.29226088523864746 0.446854233741760254
-1.53979456424713135 -1.18012857437133789 0.296621382236480713
0.703966617584228516 0.718786776065826416 0.216414466500282288
1.16074252128601074 1.88102889060974121 0.187695622444152832
-0.0755225792527198792 0.947024047374725342 0.300800323486328125
1.21834707260131836 1.74709963798522949 0.211306780576705933
-1.35536015033721924 -1.12267923355102539 0.296792924404144287
-0.123346135020256042 1.05783116817474365 0.462352782487869263
-0.877883493900299072 -1.48240280151367188 0.375130355358123779
0.172143206000328064 1.01661598682403564 0.272224575281143188
-0.996430039405822754 -3.07324767112731934 0.147092327475547791
0.252655446529388428 0.950665414333343506 0.259064853191375732
-0.0469497404992580414 -1.867026686668396 0.344353437423706055
1.07258319854736328 1.67882692813873291 0.0958120971918106079
0.769392788410186768 0.781835496425628662 0.363806813955307007
0.416275262832641602 0.960733592510223389 0.0767363458871841431
0.369012981653213501 0.956823170185089111 0.179721862077713013
-1.51238250732421875 -1.24940979480743408 0.189926207065582275
-2.60260629653930664 -1.26059937477111816 0.360387206077575684
1.15717244148254395 1.76116466522216797 0.150571033358573914
-2.57766962051391602 -1.20951473712921143 0.427825391292572021
0.0854056179523468018 -1.87719917297363281 0.222904473543167114
0.341073155403137207 -1.8040168285369873 -0.0722085535526275635
-0.227126851677894592 0.973047614097595215 0.457652390003204346
0.889623522758483887 0.774499416351318359 0.215659603476524353
-0.0996595397591590881 0.995037078857421875 0.341945230960845947
-1.55717825889587402 -1.10339844226837158 0.295718282461166382
0.155306875705718994 1.12601041793823242 0.310521960258483887
0.0465072505176067352 0.95814359188079834 0.256586581468582153
0.15432700514793396 1.03507697582244873 0.203568726778030396
-0.918203651905059814 -1.64415240287780762 0.309387534856796265
-0.375747114419937134 -0.71477210521697998 0.157011911273002625
-0.180271580815315247 -1.97322869300842285 0.331839144229888916
-0.320761561393737793 0.963669061660766602 0.406854748725891113
0.622867166996002197 0.69078528881072998 0.333018243312835693
0.254962503910064697 -1.82007932662963867 -0.0539866536855697632
-1.55468761920928955 -1.10372757911682129 0.349823981523513794
1.19315779209136963 1.79994523525238037 0.165089458227157593
0.0636403486132621765 1.09398436546325684 0.411544263362884521
-2.64217567443847656 -1.24417638778686523 0.393689781427383423
-2.71774578094482422 -1.00149250030517578 0.378990054130554199
-0.937091350555419922 -3.08479022979736328 0.284099668264389038
0.747702538967132568 0.73713374137878418 0.354569822549819946
-2.71623659133911133 -1.24944460391998291 0.312773257493972778
0.134134680032730103 1.04269087314605713 0.258635848760604858
-2.65307164192199707 -1.25351238250732422 0.436313033103942871
0.789186000823974609 0.636976718902587891 -0.00510953366756439209
-0.784258246421813965 -1.53850841522216797 0.515918135643005371
1.08388662338256836 1.96195602416992188 0.152623489499092102
-1.54287385940551758 -1.15217483043670654 0.342896103858947754
-1.45109200477600098 -1.24550139904022217 0.258499860763549805
0.736740708351135254 0.760531306266784668 0.214043557643890381
-0.408351987600326538 -0.664274454116821289 0.240480720996856689
-0.0808491483330726624 -1.93163871765136719 0.150367170572280884
-0.843153238296508789 -1.47677755355834961 0.505746901035308838
-1.54380989074707031 -1.11922991275787354 0.241946399211883545
0.737470865249633789 0.697508275508880615 0.0839233249425888062
-0.770081579685211182 -1.45882892608642578 0.44020688533782959
-1.49785184860229492 -1.01509380340576172 0.318683862686157227
0.263671934604644775 -1.83654677867889404 0.00963732413947582245
-0.0732056871056556702 1.01532471179962158 0.446051061153411865
-0.890288293361663818 -2.87987470626831055 0.186395168304443359
-0.399145722389221191 -0.696941673755645752 0.319049239158630371
0.298760652542114258 1.15320491790771484 0.289625942707061768
0.59261476993560791 0.918032169342041016 0.248956412076950073
0.0369580686092376709 -1.82832717895507812 0.246979072690010071
-1.59627676010131836 -1.08690977096557617 0.262951701879501343
1.23461723327636719 1.71606731414794922 0.0989995747804641724
0.159050017595291138 1.002197265625 0.281568586826324463
0.11155351996421814 1.07446885108947754 0.376731932163238525
-0.820175409317016602 -2.73493218421936035 0.0879561975598335266
1.1517174243927002 1.78510034084320068 0.170844376087188721
-0.0916667208075523376 1.08965098857879639 0.539689958095550537
-2.65748214721679688 -1.29798507690429688 0.397624939680099487
-0.375786483287811279 -0.729927778244018555 0.232340097427368164
0.71806025505065918 0.920236289501190186 0.26314130425453186
-1.41422581672668457 -1.18820023536682129 0.305674761533737183
-0.480027556419372559 -0.689443469047546387 0.256080478429794312
-2.62016963958740234 -1.2126694917678833 0.335928827524185181
-0.341401547193527222 -0.660819053649902344 0.235367059707641602
1.11536741256713867 1.87299680709838867 0.193005472421646118
-2.7327883243560791 -1.13703811168670654 0.399210363626480103
0.772439837455749512 0.899159550666809082 0.348001331090927124
1.2888258695602417 1.78322386741638184 0.255840271711349487
-2.70749402046203613 -1.04958581924438477 0.300168097019195557
0.172808289527893066 1.10702848434448242 0.364563941955566406
0.29638180136680603 0.948754370212554932 0.220318228006362915
1.13837563991546631 1.81846046447753906 0.205702662467956543
-2.63563966751098633 -1.25101065635681152 0.332716584205627441
0.912573516368865967 0.63539278507232666 -0.00136692076921463013
0.81895822286605835 0.70676267147064209 0.216010332107543945
0.411954879760742188 0.947236895561218262 0.130319714546203613
1.11352622509002686 1.73816251754760742 0.185192212462425232
-1.05548644065856934 -3.06829977035522461 0.254532277584075928
0.00329772382974624634 1.10435652732849121 0.483148455619812012
1.11987185478210449 1.9189990758895874 0.162327945232391357
0.0932814702391624451 -1.86336910724639893 0.0808363407850265503
-0.310303241014480591 -0.685100972652435303 0.275225818157196045
-1.5537254810333252 -1.11942744255065918 0.296504676342010498
-2.76299858093261719 -1.26814532279968262 0.50065380334854126
0.809933245182037354 0.795147716999053955 0.104925423860549927
-1.41202688217163086 -1.17497086524963379 0.310145139694213867
-0.820895135402679443 -1.52386665344238281 0.439218133687973022
-0.2554282546043396 1.03018569946289062 0.43225407600402832
-2.69357991218566895 -1.23119401931762695 0.401578843593597412
-0.187943398952484131 1.0031057596206665 0.351997643709182739
0.267426252365112305 0.937623083591461182 0.107784584164619446
0.310291379690170288 -1.84243786334991455 -0.109979219734668732
0.859098911285400391 0.749506711959838867 0.0817085504531860352
0.0817120820283889771 -1.88040637969970703 0.213128864765167236
-0.07440175861120224 0.974603056907653809 0.420031726360321045
0.759337007999420166 0.715543687343597412 0.395165473222732544
0.877691149711608887 0.76230621337890625 0.211086094379425049
0.220214784145355225 1.00757110118865967 0.315927654504776001
-0.0106969177722930908 -1.82222330570220947 0.282814145088195801
1.20639431476593018 1.84081816673278809 0.193311780691146851
0.750007927417755127 0.727750837802886963 0.224024653434753418
-0.35183289647102356 -0.622248649597167969 0.243106156587600708
-0.931549668312072754 -2.85570216178894043 0.163259193301200867
-2.63730072975158691 -1.23609733581542969 0.439014852046966553
