ply
format ascii 1.0
element vertex 256
comment vertices
property float x
property float y
property float z
end_header
-1.16116607189178467 0.107494257390499115 0.482163548469543457
0.70649796724319458 -0.633743822574615479 0.251423299312591553
0.695651710033416748 0.710044980049133301 0.313038825988769531
-0.43937450647354126 -0.747704505920410156 0.325527012348175049
0.649606764316558838 -0.437317937612533569 0.60085064172744751
0.617772161960601807 0.426641315221786499 0.472333729267120361
-0.68239516019821167 -0.641510486602783203 0.631894707679748535
0.800682961940765381 -0.484370231628417969 0.512487828731536865
0.771046817302703857 0.682497262954711914 0.552638709545135498
-0.647222995758056641 -0.534258484840393066 0.36324542760848999
0.536430001258850098 0.495538771152496338 0.456984758377075195
0.633228957653045654 -0.617330074310302734 0.723514080047607422
0.982019245624542236 0.987289309501647949 0.0859347730875015259
-0.497863411903381348 -0.642678260803222656 0.337300032377243042
-1.21725308895111084 -0.195259436964988708 0.235541030764579773
-1.00243175029754639 0.110631495714187622 0.291430115699768066
-0.988141953945159912 0.222362682223320007 0.331380486488342285
-0.526433348655700684 -0.581593513488769531 0.593141615390777588
0.768619000911712646 -0.6181754469871521 0.480958104133605957
-1.03279829025268555 0.0590610504150390625 0.50865858793258667
0.818846046924591064 0.661408364772796631 0.469099611043930054
0.533153772354125977 0.528842687606811523 0.594326615333557129
0.819212377071380615 0.7987479567527771 0.525443851947784424
0.729207396507263184 -0.666636526584625244 0.398415118455886841
0.606967568397521973 0.612234532833099365 0.518072426319122314
-1.17400908470153809 0.197708770632743835 0.447165071964263916
-1.20668888092041016 0.126353994011878967 0.235214024782180786
-0.68223494291305542 -0.532132387161254883 0.411456763744354248
0.713913679122924805 -0.526386439800262451 0.522370219230651855
-0.490212917327880859 -0.533236145973205566 0.468346148729324341
0.670983791351318359 -0.454776108264923096 0.458663463592529297
0.818200588226318359 0.415445566177368164 0.509842216968536377
-1.03336882591247559 0.114681661128997803 0.379638046026229858
0.724817931652069092 0.907249271869659424 0.455940127372741699
0.708673655986785889 0.517090082168579102 0.490157723426818848
0.647500157356262207 0.754929542541503906 0.529561460018157959
0.764972329139709473 -0.458653718233108521 0.487895041704177856
-1.03630435466766357 0.0936530828475952148 0.486838102340698242
0.79390406608581543 0.55416405200958252 0.539324760437011719
-0.522398650646209717 -0.602820515632629395 0.443115949630737305
-1.1234440803527832 0.229853183031082153 0.379786163568496704
0.826211929321289062 0.746428370475769043 0.445781320333480835
0.683035492897033691 -0.700165271759033203 0.61139756441116333
0.751328229904174805 -0.551754355430603027 0.404820710420608521
-0.626248776912689209 -0.831088840961456299 0.210045069456100464
-1.15718424320220947 0.118462681770324707 0.360035449266433716
0.713059544563293457 0.742143094539642334 0.421192049980163574
-1.03369033336639404 0.0788185819983482361 0.269811570644378662
0.762762963771820068 -0.549930214881896973 0.628533303737640381
-1.10588884353637695 0.162367716431617737 0.569783687591552734
0.615671157836914062 0.564429044723510742 0.412548363208770752
-0.369145601987838745 -0.659262418746948242 0.290486246347427368
-0.466251552104949951 -0.623978674411773682 0.476081252098083496
-0.7040213942527771 -0.686302423477172852 0.666822433471679688
-0.553493738174438477 -0.523066401481628418 0.510230541229248047
-1.10080158710479736 0.153982341289520264 0.298826813697814941
0.771058201789855957 -0.560461103916168213 0.576617658138275146
-0.613970100879669189 -0.477979272603988647 0.519019842147827148
0.707206010818481445 0.417466908693313599 0.51781463623046875
0.796917378902435303 0.690961778163909912 0.468205124139785767
0.798994898796081543 0.502116262912750244 0.498761475086212158
-0.634602785110473633 -1.09267580509185791 0.106909886002540588
-0.518864154815673828 -0.538450181484222412 0.397529959678649902
0.640022158622741699 -0.557820618152618408 0.693965673446655273
0.799454092979431152 -0.60939490795135498 0.565396547317504883
-1.06461310386657715 0.101062089204788208 0.412370800971984863
0.641255736351013184 -0.46752697229385376 0.507217943668365479
0.688451528549194336 0.559942364692687988 0.456939578056335449
-0.472793042659759521 -0.573095798492431641 0.385552585124969482
0.746595621109008789 0.700408220291137695 0.419118016958236694
-1.12094318866729736 0.107075393199920654 0.432491779327392578
0.849814891815185547 0.638620436191558838 0.513714134693145752
0.599179625511169434 0.682497501373291016 0.441772818565368652
0.604010701179504395 0.457395315170288086 0.374744266271591187
-0.981683313846588135 0.143824175000190735 0.458333700895309448
0.533816874027252197 0.391709089279174805 0.389078259468078613
-0.536025404930114746 -0.960552513599395752 0.23321494460105896
-0.520711839199066162 -0.57613074779510498 0.486669182777404785
-1.19884657859802246 0.198947310447692871 0.518581151962280273
0.872724533081054688 0.618414521217346191 0.450780898332595825
-1.13553321361541748 0.147625178098678589 0.472499251365661621
0.743089079856872559 0.644959032535552979 0.503791093826293945
0.680918097496032715 -0.635408639907836914 0.497345507144927979
-0.708438277244567871 -0.572202205657958984 0.558774352073669434
0.753003358840942383 -0.552679061889648438 0.576684474945068359
-0.527884721755981445 -0.643127262592315674 0.414054930210113525
0.715293407440185547 -0.563713014125823975 0.598382115364074707
0.747213006019592285 -0.526460647583007812 0.474005907773971558
0.765647649765014648 0.564673304557800293 0.341071903705596924
0.731281638145446777 -0.620084404945373535 0.376127511262893677
0.625052988529205322 -0.308957517147064209 0.561672389507293701
-1.01863753795623779 0.0553156584501266479 0.178870812058448792
-0.596055984497070312 -0.565827846527099609 0.691976666450500488
0.687798738479614258 -0.658817470073699951 0.39530867338180542
0.781296849250793457 0.8479347825050354 0.368044227361679077
0.642528653144836426 -0.444650471210479736 0.586496829986572266
0.717002391815185547 -0.552338898181915283 0.338021755218505859
0.800226271152496338 -0.582937896251678467 0.482515722513198853
0.805732190608978271 -0.544340133666992188 0.447516679763793945
-0.644211292266845703 -0.520920753479003906 0.416459798812866211
0.860998868942260742 -0.518675625324249268 0.337833166122436523
0.865974903106689453 0.746436595916748047 0.484930694103240967
-0.999740839004516602 0.110069319605827332 0.464683800935745239
0.605663180351257324 0.624425530433654785 0.480528116226196289
0.805777370929718018 -0.54508596658706665 0.535315454006195068
-1.14614498615264893 0.13489493727684021 0.456133842468261719
0.707114279270172119 -0.413252353668212891 0.442893087863922119
-0.432314932346343994 -0.67827373743057251 0.527048230171203613
-1.1207730770111084 0.126318410038948059 0.374356567859649658
-0.612588882446289062 -0.562052905559539795 0.422230660915374756
0.703037023544311523 0.48969992995262146 0.458116322755813599
0.779177367687225342 -0.615462779998779297 0.623864412307739258
0.67217022180557251 0.486325651407241821 0.413939327001571655
0.568433284759521484 0.481131792068481445 0.528351902961730957
0.806784987449645996 -0.545482158660888672 0.467374891042709351
0.633897602558135986 0.555400490760803223 0.410433471202850342
0.793150067329406738 0.553593337535858154 0.408456236124038696
0.73414081335067749 0.803368330001831055 0.379978418350219727
0.759191989898681641 0.584173500537872314 0.554278194904327393
-1.05807745456695557 0.154870510101318359 0.444731593132019043
-0.483386129140853882 -0.520617425441741943 0.377438992261886597
-0.43332827091217041 -0.528815865516662598 0.458168655633926392
-0.519041597843170166 -0.493204116821289062 0.575822710990905762
0.721512675285339355 0.714502811431884766 0.449261844158172607
0.663593173027038574 -0.705629885196685791 0.612108826637268066
0.887755930423736572 -0.472210526466369629 0.473998188972473145
0.836479365825653076 -0.414019942283630371 0.508252143859863281
-0.591307461261749268 -0.658114790916442871 0.573264539241790771
-0.983374059200286865 0.0852934271097183228 0.393860816955566406
0.745150506496429443 0.449073702096939087 0.523733258247375488
0.580432593822479248 0.777685880661010742 0.401182383298873901
0.889321088790893555 0.850409746170043945 0.24761083722114563
-0.613309860229492188 -0.558908462524414062 0.604931354522705078
0.768081903457641602 0.520644307136535645 0.604481160640716553
0.80941319465637207 -0.469285547733306885 0.518326401710510254
-1.05072760581970215 0.144560739398002625 0.472985237836837769
0.636920690536499023 0.721151649951934814 0.504758715629577637
-0.483361631631851196 -0.590948343276977539 0.354816794395446777
0.7254180908203125 0.573085188865661621 0.411319315433502197
-1.06899559497833252 0.141050562262535095 0.273548811674118042
-0.615652859210968018 -0.549206137657165527 0.527485489845275879
-1.19330298900604248 0.149970307946205139 0.451827108860015869
0.85878521203994751 0.738624870777130127 0.409784823656082153
-1.13361775875091553 0.0783732086420059204 0.501795768737792969
0.821397304534912109 0.660105705261230469 0.503219425678253174
0.712210714817047119 -0.627821564674377441 0.81739962100982666
-1.22105252742767334 0.132869824767112732 0.42289319634437561
-0.655802786350250244 -0.682925701141357422 0.721498489379882812
0.759258270263671875 -0.618315577507019043 0.507802426815032959
0.669147193431854248 -0.454969465732574463 0.585874617099761963
-0.545093238353729248 -0.542720615863800049 0.469382315874099731
0.610045254230499268 0.495293468236923218 0.479079455137252808
0.699968218803405762 -0.472559034824371338 0.453912317752838135
-1.09720706939697266 0.177063092589378357 0.269238680601119995
0.75876384973526001 0.659546732902526855 0.524247229099273682
-1.03988742828369141 0.123451597988605499 0.466871887445449829
0.855806589126586914 -0.594670653343200684 0.483548820018768311
-1.12812864780426025 0.117208033800125122 0.4547385573387146
0.896906614303588867 -0.514048993587493896 0.526777029037475586
0.60710453987121582 0.506671905517578125 0.458797723054885864
-0.442701011896133423 -0.729635477066040039 0.402249932289123535
0.668291926383972168 -0.535750031471252441 0.538337290287017822
-1.11277401447296143 0.154665082693099976 0.444963335990905762
0.80206531286239624 -0.554720044136047363 0.526363611221313477
0.75751262903213501 0.611908793449401855 0.476382911205291748
-1.12135815620422363 0.169188797473907471 0.432669907808303833
0.627355217933654785 0.600693881511688232 0.452662408351898193
0.708830714225769043 0.622741818428039551 0.474651217460632324
0.707879126071929932 0.704656600952148438 0.42898106575012207
0.73355334997177124 -0.598218202590942383 0.534890949726104736
-0.724160850048065186 -0.626379251480102539 0.610664010047912598
-1.12062251567840576 0.157064586877822876 0.269423991441726685
-0.54061424732208252 -0.54528498649597168 0.603993654251098633
0.703856766223907471 0.657954514026641846 0.450209110975265503
0.696600914001464844 0.575636684894561768 0.432692289352416992
0.722325563430786133 0.776585936546325684 0.380119591951370239
0.743224084377288818 -0.615521669387817383 0.386899203062057495
0.687505424022674561 -0.469536036252975464 0.613161861896514893
-0.525666177272796631 -0.586894452571868896 0.510964095592498779
-0.509056568145751953 -0.68775564432144165 0.389380574226379395
-1.18273282051086426 0.161166861653327942 0.458435148000717163
0.831329882144927979 0.550752639770507812 0.455532371997833252
0.840974569320678711 0.657628476619720459 0.424926608800888062
0.633649289608001709 -0.663535475730895996 0.62939155101776123
0.78244858980178833 0.777579963207244873 0.411442339420318604
-0.420812666416168213 -0.620481967926025391 0.412774085998535156
0.681025087833404541 -0.636911988258361816 0.436184108257293701
0.821138501167297363 -0.558710694313049316 0.51736605167388916
0.649092793464660645 -0.686284899711608887 0.597548842430114746
-0.6045035719871521 -0.47795337438583374 0.485651731491088867
0.771536290645599365 -0.594978094100952148 0.426111102104187012
-0.625265240669250488 -0.530446410179138184 0.486886709928512573
-0.989509940147399902 0.143496245145797729 0.361601412296295166
0.781865298748016357 -0.552508771419525146 0.450261771678924561
-0.562912166118621826 -0.472231626510620117 0.420754581689834595
0.74511343240737915 -0.569604456424713135 0.509236812591552734
0.71646350622177124 -0.586286306381225586 0.534056663513183594
0.810282230377197266 0.609552621841430664 0.55298382043838501
-0.584736168384552002 -0.511732697486877441 0.459902703762054443
0.832463920116424561 0.533373892307281494 0.399952590465545654
0.495926558971405029 0.471934884786605835 0.50087505578994751
-1.0540691614151001 0.114022687077522278 0.520984947681427002
-0.939990341663360596 0.11747470498085022 0.181373447179794312
0.57498776912689209 0.458154827356338501 0.438244253396987915
0.673875689506530762 -0.518594980239868164 0.536532819271087646
0.743744254112243652 -0.605106592178344727 0.68656623363494873
0.669193148612976074 0.679154276847839355 0.393844842910766602
-1.1178818941116333 0.0882727950811386108 0.467674881219863892
-1.09564018249511719 0.0941288471221923828 0.366990387439727783
-1.05956411361694336 0.127451092004776001 0.387600362300872803
0.798841178417205811 0.70132678747177124 0.461197346448898315
-0.667100191116333008 -0.533323585987091064 0.588798582553863525
0.679851114749908447 -0.536067306995391846 0.590218186378479004
0.804692983627319336 -0.702181696891784668 0.632525324821472168
-0.47236323356628418 -0.540495932102203369 0.340737462043762207
0.853645622730255127 -0.543667435646057129 0.444726288318634033
0.623227715492248535 -0.686375439167022705 0.475845694541931152
0.65157783031463623 -0.623727321624755859 0.485893905162811279
0.62670522928237915 -0.445561796426773071 0.572247862815856934
-0.447377711534500122 -0.614411532878875732 0.510232686996459961
-0.62718433141708374 -0.590438485145568848 0.583597004413604736
-1.12479889392852783 0.132189467549324036 0.5237235426902771
-1.06916999816894531 0.150044873356819153 0.440356433391571045
-0.516127705574035645 -0.543562114238739014 0.626980781555175781
0.743869364261627197 -0.60454326868057251 0.477219164371490479
-1.17918908596038818 0.107640266418457031 0.488783657550811768
-0.564278483390808105 -0.515116095542907715 0.489422827959060669
0.715613961219787598 -0.473262131214141846 0.611899852752685547
-0.57799917459487915 -0.568374156951904297 0.491189181804656982
-1.06895351409912109 0.182241916656494141 0.440346121788024902
-0.516506671905517578 -0.649097681045532227 0.444166004657745361
0.65477442741394043 -0.716069519519805908 0.523222923278808594
-1.15668070316314697 0.139937922358512878 0.511893749237060547
-1.047760009765625 0.154807284474372864 0.39702683687210083
-1.05174601078033447 0.147529557347297668 0.462781220674514771
-1.1205136775970459 0.135469868779182434 0.366019606590270996
0.698645591735839844 -0.55928647518157959 0.376472711563110352
0.671371519565582275 0.690644264221191406 0.492163032293319702
0.81219935417175293 0.638767838478088379 0.496100366115570068
-0.450833439826965332 -0.644384384155273438 0.343442857265472412
0.861785054206848145 -0.613016664981842041 0.448369920253753662
0.814303815364837646 0.776650488376617432 0.449876606464385986
0.667295455932617188 0.428881227970123291 0.561416983604431152
0.740702927112579346 0.682130813598632812 0.453054070472717285
0.857862114906311035 0.629600107669830322 0.518899083137512207
0.638559997081756592 0.302530586719512939 0.424291312694549561
-1.1356041431427002 0.121290124952793121 0.447723388671875
0.77244943380355835 0.615810275077819824 0.507221817970275879
0.741116106510162354 0.620070815086364746 0.336268812417984009
0.716971039772033691 -0.529922962188720703 0.381363272666931152
1.01841771602630615 -0.5398445725440979 0.550672531127929688
0.72383415699005127 0.689146935939788818 0.408685922622680664
0.739162325859069824 0.680254817008972168 0.455510050058364868
-1.06598556041717529 0.12672068178653717 0.558667302131652832
0.900912046432495117 1.01417815685272217 0.322143495082855225
0.745577037334442139 0.508802890777587891 0.686170339584350586
