ply
format ascii 1.0
element vertex 256
comment vertices
property float x
property float y
property float z
end_header
1.03838491439819336 -0.278994500637054443 0.287702620029449463
-1.26556301116943359 1.88652276992797852 0.673981845378875732
-1.71386504173278809 -1.75091719627380371 0.638915777206420898
0.975041866302490234 -3.08638739585876465 0.384653151035308838
-0.770549297332763672 -0.241796031594276428 0.904413223266601562
0.010474279522895813 -1.7171255350112915 0.360459029674530029
-0.444686204195022583 0.837076425552368164 -0.142460361123085022
-0.598895907402038574 -0.989693045616149902 0.195246860384941101
0.192419663071632385 -2.87574052810668945 -0.0638683512806892395
-0.789952635765075684 1.61036396026611328 -0.00753670372068881989
0.493720859289169312 -0.857123613357543945 0.288932442665100098
-1.289328932762146 -1.25669097900390625 0.1776256263256073
0.951295077800750732 -0.492422968149185181 0.988382160663604736
-0.96808314323425293 -0.277957022190093994 0.214744925498962402
-0.836480677127838135 1.33203637599945068 0.643260478973388672
-0.225722819566726685 -1.01515865325927734 0.770335018634796143
0.363182395696640015 -2.29291224479675293 0.344596207141876221
-0.191855445504188538 -2.15884518623352051 0.781487584114074707
-0.145341113209724426 -2.10659265518188477 -0.101068943738937378
-0.0667815208435058594 -0.89361804723739624 0.1090889573097229
-0.723549962043762207 0.724143862724304199 0.307722091674804688
0.556438207626342773 -2.80236148834228516 0.281889081001281738
-0.242138132452964783 0.460006684064865112 0.129277899861335754
-1.24980628490447998 1.77582228183746338 0.0795895606279373169
-0.779893338680267334 1.80309903621673584 0.571209192276000977
-0.975319325923919678 1.21139407157897949 -0.150073960423469543
0.784451186656951904 -0.570208907127380371 0.567896604537963867
-1.66514444351196289 -1.33139383792877197 0.47299271821975708
0.805104374885559082 -0.578307032585144043 0.083487488329410553
-0.467936962842941284 -1.2867656946182251 0.472269892692565918
0.260130167007446289 -1.84045147895812988 0.0378488600254058838
-0.906791865825653076 2.01744866371154785 -0.0377551205456256866
0.251642405986785889 -2.25537896156311035 -0.038961995393037796
-1.00741064548492432 -0.329879045486450195 0.600638270378112793
-0.587252616882324219 -0.934776425361633301 0.586138427257537842
-0.0199362039566040039 -2.09585285186767578 0.357961386442184448
1.27877640724182129 -0.0463566258549690247 0.148775771260261536
-0.952541589736938477 1.66793549060821533 0.300804942846298218
0.117992274463176727 -2.07970952987670898 0.871367752552032471
-1.39886784553527832 -1.85274100303649902 0.664408504962921143
-0.711109519004821777 -0.203831017017364502 0.409647077322006226
-0.572404026985168457 0.562228083610534668 0.0622715167701244354
0.266180872917175293 -1.94453537464141846 0.404429137706756592
-0.17231769859790802 -1.14413928985595703 0.283656060695648193
-0.836660385131835938 0.984741508960723877 0.0258770585060119629
-1.13800573348999023 1.29795420169830322 0.56706923246383667
-1.01794755458831787 1.58311426639556885 0.665313243865966797
0.721473634243011475 -3.02966618537902832 0.1497478187084198
-1.61984825134277344 -1.44021987915039062 0.187172979116439819
-0.487178027629852295 -1.16498649120330811 0.754694104194641113
-0.485736459493637085 0.849852323532104492 0.172586932778358459
-1.50071752071380615 -1.54189443588256836 0.636964619159698486
-1.12419676780700684 1.3570939302444458 0.0563676655292510986
0.287227481603622437 -2.88169145584106445 0.230899423360824585
-0.705584526062011719 1.29165709018707275 -0.193811848759651184
0.75472259521484375 -0.835619807243347168 0.198614448308944702
-0.758750319480895996 1.54155850410461426 0.482280522584915161
-0.718266963958740234 -1.28614568710327148 0.36086389422416687
-1.75042104721069336 -1.59590661525726318 0.368545383214950562
0.0329574942588806152 -1.96892035007476807 0.109598889946937561
-0.234486967325210571 0.750965714454650879 -0.00255956500768661499
-0.401878207921981812 -1.20060265064239502 0.161645710468292236
0.0921392589807510376 -2.32796907424926758 0.294938325881958008
1.00339651107788086 -0.111784480512142181 0.0903924331068992615
0.676268935203552246 -0.591427028179168701 0.30938836932182312
-0.200450927019119263 -2.08477210998535156 0.174359843134880066
0.383833527565002441 -1.7549816370010376 0.279113441705703735
-1.11120295524597168 1.59429275989532471 -0.020060807466506958
1.30809462070465088 -0.144935399293899536 0.375079989433288574
0.658160924911499023 -0.382517516613006592 0.468688547611236572
1.06395637989044189 -0.457923263311386108 0.455077707767486572
0.387633860111236572 -2.09673547744750977 0.0914552211761474609
-0.3481559157371521 -0.876678228378295898 0.610409975051879883
-1.01042437553405762 1.83627986907958984 0.641397655010223389
-0.979340434074401855 -0.357395768165588379 0.839294314384460449
0.840476334095001221 -0.601160764694213867 0.807737827301025391
0.611051440238952637 -0.78361964225769043 0.476444065570831299
-1.4593583345413208 -1.3415827751159668 0.318992644548416138
-0.760972738265991211 0.775096595287322998 0.0874974653124809265
0.840359210968017578 -0.393440425395965576 0.292624950408935547
0.76558840274810791 -2.99508881568908691 0.393358111381530762
-0.97907102108001709 -0.456527233123779297 0.415092349052429199
-0.440117120742797852 -1.06942617893218994 0.42102736234664917
-0.969002962112426758 1.74351859092712402 0.0584281161427497864
-0.357942342758178711 0.570320069789886475 -0.0279709286987781525
-0.279591172933578491 -1.21073555946350098 0.68609994649887085
-1.59070777893066406 -1.69289255142211914 0.472943872213363647
0.0431953296065330505 -2.27078080177307129 -0.0348532237112522125
-0.757224321365356445 0.577760577201843262 0.149297237396240234
-0.351148337125778198 -1.0121694803237915 0.245732992887496948
-0.658733367919921875 -1.08278477191925049 0.464670747518539429
-0.948766350746154785 -0.330307543277740479 1.03834891319274902
0.442623138427734375 -2.8694150447845459 0.101606778800487518
-0.829363107681274414 -0.347891569137573242 0.693662583827972412
0.0897202789783477783 -1.89762604236602783 0.28711971640586853
0.386119753122329712 -2.09717655181884766 0.347283124923706055
-0.133821651339530945 -2.09984159469604492 0.603521227836608887
0.293077945709228516 -1.93780124187469482 0.210641264915466309
-0.686273038387298584 1.45829319953918457 -0.0730551630258560181
-0.309446036815643311 -2.07951807975769043 0.000517221051268279552
-0.553437530994415283 0.934346616268157959 -0.0150565654039382935
0.18474985659122467 -2.16232132911682129 0.326171278953552246
-0.815725564956665039 1.58691859245300293 0.194163650274276733
-0.473252952098846436 0.732005417346954346 0.0134257487952709198
-0.895669400691986084 1.3720695972442627 -0.202488109469413757
1.14032876491546631 -0.115531250834465027 0.30019184947013855
-0.914257943630218506 -0.22282823920249939 0.383889377117156982
-0.820948898792266846 1.5125434398651123 0.680450737476348877
-0.440505683422088623 -1.04277241230010986 0.626840710639953613
0.956570982933044434 -0.511286020278930664 0.159574598073959351
-0.180717915296554565 -0.947662591934204102 0.246500179171562195
1.00577628612518311 -0.302119433879852295 0.528262495994567871
-0.170302748680114746 -0.843651652336120605 0.62473452091217041
0.203608319163322449 -1.75004482269287109 0.298570185899734497
-0.899932503700256348 1.63918626308441162 0.536597073078155518
-1.53976356983184814 -1.7116243839263916 0.682152152061462402
0.161610186100006104 -2.2223660945892334 0.112953491508960724
-0.908069968223571777 1.44458103179931641 0.499862790107727051
-1.50683951377868652 -1.9007335901260376 0.53121107816696167
0.272954344749450684 -2.77441763877868652 0.0909315645694732666
0.845567226409912109 -0.690708279609680176 0.240292727947235107
-1.62278568744659424 -1.46438193321228027 0.365801036357879639
-0.654951095581054688 0.893800735473632812 0.184681162238121033
-0.544214725494384766 0.674301683902740479 0.192502811551094055
1.12834799289703369 -0.230480104684829712 0.10665971040725708
-1.61156940460205078 -1.1850736141204834 0.397647380828857422
0.0189669057726860046 -1.97668969631195068 0.774001121520996094
0.713866949081420898 -2.89630341529846191 0.26187470555305481
-0.00745479390025138855 -2.12029194831848145 0.181058198213577271
-1.02837705612182617 1.41166698932647705 0.653505265712738037
0.676733136177062988 -0.683850347995758057 0.12520955502986908
-0.384957373142242432 0.88609611988067627 0.0389016196131706238
0.554846048355102539 -0.705921053886413574 0.329374313354492188
0.433183848857879639 -2.8741917610168457 0.37010270357131958
-0.0675154775381088257 -1.97059619426727295 0.257558226585388184
0.204692944884300232 -2.30338621139526367 0.41591346263885498
-0.0429617427289485931 -1.9705357551574707 -0.0391738489270210266
-0.860507011413574219 -0.292308449745178223 0.524471282958984375
0.628089249134063721 -0.54514080286026001 0.530109882354736328
0.1338605135679245 -1.97663187980651855 -0.0172944739460945129
-0.365426778793334961 -0.938509583473205566 0.798630714416503906
-0.876232683658599854 1.52352058887481689 -0.111745566129684448
-0.133592113852500916 -2.01202893257141113 0.742023944854736328
0.913026332855224609 -3.00206470489501953 0.263893157243728638
-0.546219825744628906 -1.17443346977233887 0.606998562812805176
0.905586719512939453 -0.385734736919403076 0.43796125054359436
0.295862793922424316 -1.79256963729858398 0.436714142560958862
-0.481298208236694336 -1.2087702751159668 0.29754793643951416
-0.435007303953170776 0.520489215850830078 0.126246020197868347
-0.213968038558959961 0.61172717809677124 0.100962191820144653
-0.861950814723968506 1.80238401889801025 0.703006982803344727
-0.331450343132019043 -1.33723342418670654 0.616846561431884766
-0.693037569522857666 -0.280053615570068359 0.54104989767074585
0.872525513172149658 -0.645273387432098389 0.664699673652648926
-0.380226850509643555 -1.14818656444549561 0.537885904312133789
0.602245569229125977 -0.866070330142974854 0.185232728719711304
-0.0622339546680450439 -2.02976799011230469 0.491690158843994141
-1.0601348876953125 -0.331528633832931519 0.461877107620239258
-0.939476370811462402 1.57951259613037109 0.112882852554321289
1.12256360054016113 -0.302679866552352905 0.407386332750320435
-0.312980741262435913 -2.09126543998718262 0.7296333909034729
-0.841930627822875977 1.71866738796234131 0.426331222057342529
-1.7388385534286499 -1.68352961540222168 0.486717075109481812
-0.216849237680435181 0.538829624652862549 -0.0455968677997589111
-0.47982516884803772 -0.862267553806304932 0.527289032936096191
-0.252666383981704712 -0.968541383743286133 0.126524955034255981
-0.60281836986541748 0.764882802963256836 0.0567002668976783752
0.312723696231842041 -2.92123246192932129 -0.00759707391262054443
0.419484585523605347 -2.78867459297180176 0.213635191321372986
-0.903628945350646973 -0.200363725423812866 0.895883083343505859
-0.980359435081481934 -0.396212607622146606 0.287350773811340332
0.297583788633346558 -2.18408560752868652 0.250135540962219238
0.938712358474731445 -0.486928492784500122 0.351583123207092285
-1.07782638072967529 1.72569656372070312 0.597509145736694336
-1.67628669738769531 -1.81267225742340088 0.523328125476837158
-0.838923454284667969 1.76922798156738281 0.0895983874797821045
0.737282812595367432 -0.625593185424804688 0.453241020441055298
1.20992398262023926 -0.0301026403903961182 0.379449039697647095
-0.685942530632019043 -1.22710371017456055 0.243351951241493225
-1.49955511093139648 -1.43272185325622559 0.410668462514877319
0.0722871944308280945 -2.03194665908813477 0.283141493797302246
-0.142725437879562378 -2.02451777458190918 0.0707330703735351562
-0.836349904537200928 0.768925309181213379 0.195733919739723206
0.195363402366638184 -2.92348575592041016 0.0590692833065986633
0.721672892570495605 -0.506346940994262695 0.402213037014007568
0.935725688934326172 -0.253740429878234863 0.211776956915855408
0.700651407241821289 -0.718137383460998535 0.32592475414276123
0.151740044355392456 -1.79586195945739746 0.408325821161270142
-1.62039780616760254 -1.59897470474243164 0.557122111320495605
0.787710011005401611 -0.394068390130996704 0.487952172756195068
1.2278820276260376 -0.148410901427268982 0.207417085766792297
-0.475044280290603638 -0.923465907573699951 0.65859609842300415
0.257656514644622803 -2.13724851608276367 0.0104227559641003609
0.271507382392883301 -2.02589130401611328 0.306060165166854858
-0.64748692512512207 0.619385182857513428 0.243260890245437622
0.972044885158538818 -0.386511802673339844 0.272502779960632324
-0.503920912742614746 -1.16680431365966797 0.479275673627853394
-1.69486677646636963 -1.43717479705810547 0.533221006393432617
0.000895407982170581818 -1.97685015201568604 0.390164077281951904
-0.383448511362075806 -1.13874602317810059 0.682970523834228516
0.595398187637329102 -0.652441680431365967 0.434116899967193604
-0.808195710182189941 1.43350386619567871 0.573154449462890625
-0.308024793863296509 -1.03344392776489258 0.679173827171325684
-0.380552232265472412 0.697034597396850586 -0.0591467581689357758
0.879928112030029297 -2.96886253356933594 0.423681318759918213
-1.54647433757781982 -1.26331007480621338 0.462933242321014404
0.52767181396484375 -2.78448390960693359 0.161690294742584229
0.211840793490409851 -2.33248615264892578 0.288154751062393188
-0.4785633385181427 0.638094842433929443 0.099188975989818573
-0.811771810054779053 1.51046454906463623 0.0545379519462585449
-1.58453261852264404 -1.80439424514770508 0.599590182304382324
-1.64158689975738525 -1.70499265193939209 0.743471741676330566
-0.831242561340332031 -0.253658890724182129 0.803076207637786865
-0.574649572372436523 0.830899357795715332 -0.0690875053405761719
0.0383167602121829987 -2.18372440338134766 0.270149052143096924
-0.729390621185302734 0.702715516090393066 0.175192490220069885
0.758941888809204102 -0.621596872806549072 0.183074772357940674
0.282572031021118164 -1.83619248867034912 0.268477022647857666
0.809453248977661133 -3.05842447280883789 0.221677646040916443
-0.961750388145446777 1.73687648773193359 0.586615920066833496
-0.354971230030059814 -0.985269606113433838 0.568710923194885254
-0.638521075248718262 0.751323282718658447 0.233050912618637085
-0.830911040306091309 1.64366674423217773 0.338552474975585938
-0.00539156049489974976 -2.03614377975463867 0.870259940624237061
-0.581118464469909668 -1.00120854377746582 0.680568456649780273
-0.794329702854156494 0.967236518859863281 0.131835222244262695
-0.899957895278930664 1.53359246253967285 0.252311676740646362
-0.334939241409301758 0.749288260936737061 0.0530849620699882507
-0.494245439767837524 0.856260538101196289 0.0528379455208778381
-0.365627110004425049 0.46116986870765686 0.0583673007786273956
-0.0447167903184890747 -1.87374043464660645 0.202462524175643921
0.64773869514465332 -2.9432523250579834 0.145011037588119507
-0.518892467021942139 -0.956170380115509033 0.26738700270652771
-0.88649672269821167 1.67312586307525635 0.180587232112884521
-0.918727219104766846 1.53718316555023193 0.579544723033905029
1.01906931400299072 -0.243526116013526917 0.12618061900138855
0.677251100540161133 -2.80029559135437012 0.305616319179534912
0.533659875392913818 -0.75407642126083374 0.231010198593139648
0.314836859703063965 -2.89583086967468262 0.123951032757759094
-1.73346614837646484 -1.64297604560852051 0.658000707626342773
-0.0736485868692398071 -2.02959895133972168 0.163554444909095764
-0.672662973403930664 -0.923354625701904297 0.516374409198760986
-0.861603498458862305 1.60284340381622314 0.436639755964279175
0.177612483501434326 -1.98121559619903564 0.349633932113647461
1.22381389141082764 -0.20751267671585083 0.408679336309432983
-0.721937179565429688 0.866455137729644775 0.0406758226454257965
0.267984747886657715 -2.15680074691772461 0.148635342717170715
0.941587269306182861 -0.605023741722106934 0.848728537559509277
0.23357488214969635 -1.84912919998168945 0.36307796835899353
-0.867411017417907715 1.70501959323883057 0.00865896511822938919
1.31430506706237793 -0.11228402704000473 0.259129732847213745
-0.810078144073486328 1.30473864078521729 -0.212611615657806396
-0.804139912128448486 1.68652200698852539 0.541443765163421631
-0.934833645820617676 -0.335253000259399414 0.744673848152160645
-0.481524050235748291 0.748107492923736572 0.140336483716964722
0.0816962346434593201 -1.9084402322769165 0.404319524765014648
