ply
format ascii 1.0
element vertex 64
comment vertices
property float x
property float y
property float z
end_header
1.22620081901550293 -0.515103340148925781 0.367539703845977783
0.474570035934448242 -1.24245047569274902 0.342301726341247559
1.65032458305358887 -2.62290096282958984 0.296242207288742065
0.242257013916969299 1.30775058269500732 0.0593742020428180695
-1.22061097621917725 0.528212964534759521 0.359207004308700562
1.97616863250732422 2.38703560829162598 0.102154597640037537
1.11935079097747803 0.718299210071563721 0.177286356687545776
2.47139167785644531 1.86960017681121826 0.341746270656585693
3.05061483383178711 -0.54491269588470459 0.0899255797266960144
3.5302741527557373 4.15408468246459961 0.0576109439134597778
-0.788198530673980713 1.0712810754776001 0.359065741300582886
-0.911342799663543701 -0.968686938285827637 0.412138760089874268
2.69892525672912598 1.52282106876373291 0.342727363109588623
0.426154822111129761 3.0694582462310791 0.386031568050384521
-0.444481551647186279 -1.25352942943572998 0.482394129037857056
2.77917790412902832 -1.37089455127716064 0.329785555601119995
0 0 0
0 0 0
0 0 0
0 0 0
0 0 0
0 0 0
0 0 0
0 0 0
0 0 0
0 0 0
0 0 0
0 0 0
0 0 0
0 0 0
0 0 0
0 0 0
0 0 0
0 0 0
0 0 0
0 0 0
0 0 0
0 0 0
0 0 0
0 0 0
0 0 0
0 0 0
0 0 0
0 0 0
0 0 0
0 0 0
0 0 0
0 0 0
0 0 0
0 0 0
0 0 0
0 0 0
0 0 0
0 0 0
0 0 0
0 0 0
0 0 0
0 0 0
0 0 0
0 0 0
0 0 0
0 0 0
0 0 0
0 0 0
