ply
format ascii 1.0
element vertex 256
comment vertices
property float x
property float y
property float z
end_header
2.61275029182434082 -5.36048746109008789 0.339735507965087891
-6.09706354141235352 -0.288093507289886475 0.349467724561691284
0.977521359920501709 1.87952065467834473 0.39797818660736084
-1.42936944961547852 -1.48512184619903564 0.531610727310180664
5.04613780975341797 -3.26558756828308105 0.49547886848449707
1.55447995662689209 -1.29233348369598389 0.187642365694046021
2.00691103935241699 0.655656039714813232 0.308917135000228882
0.156639516353607178 -2.04197001457214355 0.391985595226287842
-2.0097496509552002 -0.0254697389900684357 0.315825343132019043
1.21723318099975586 -5.93130588531494141 0.0842777937650680542
3.93497443199157715 -4.64624357223510742 0.134675800800323486
-5.75735378265380859 -1.20407450199127197 0.51082921028137207
2.0697627067565918 -0.452233165502548218 0.196215212345123291
1.68915319442749023 1.4273219108581543 0.41225665807723999
-1.75513219833374023 -0.62328869104385376 0.171607732772827148
1.1890486478805542 -1.59653854370117188 0.497277945280075073
1.31820559501647949 1.54928731918334961 0.331099271774291992
-2.01498985290527344 -0.350710213184356689 0.118984714150428772
1.39974665641784668 1.18748617172241211 0.444946378469467163
1.01352667808532715 1.66683244705200195 0.120874874293804169
1.73785126209259033 -0.457800328731536865 0.288599550724029541
1.53289735317230225 -1.29136836528778076 0.515105366706848145
1.7033158540725708 0.72620689868927002 0.388762921094894409
3.64125442504882812 -4.71853065490722656 0.0447190478444099426
1.45864987373352051 -5.77431106567382812 0.207467079162597656
1.31834602355957031 -1.45651638507843018 0.272467911243438721
4.83418035507202148 -3.43894457817077637 0.470462262630462646
-1.96080541610717773 -0.287113666534423828 0.374858379364013672
-5.9500279426574707 -0.390790700912475586 0.176583334803581238
-5.9981083869934082 -1.19047641754150391 0.484972476959228516
-1.96111893653869629 -0.625800907611846924 0.0552918463945388794
1.43213295936584473 1.38959121704101562 0.553533375263214111
-1.32063591480255127 -1.35337197780609131 0.376978754997253418
1.14918673038482666 1.69947302341461182 0.306107759475708008
-1.3758547306060791 -1.28218519687652588 0.593770980834960938
1.64828503131866455 1.22267770767211914 0.448377877473831177
-1.84057879447937012 -0.378029704093933105 0.225536063313484192
3.76904606819152832 -4.73758983612060547 0.213237524032592773
1.21268320083618164 -1.40315747261047363 0.453161656856536865
1.53821849822998047 -1.40482234954833984 0.352108895778656006
1.88389801979064941 -0.520687520503997803 0.1713581383228302
0.934815645217895508 1.70826387405395508 0.290723532438278198
-5.82849693298339844 -1.21034812927246094 0.333481580018997192
1.51476526260375977 1.33462905883789062 0.378450989723205566
2.72341227531433105 -5.46330928802490234 0.447010457515716553
3.73310065269470215 -4.58503484725952148 0.124225623905658722
5.02869033813476562 -3.43282485008239746 0.457300513982772827
1.19356441497802734 -1.56698000431060791 0.296774089336395264
1.87607884407043457 -0.513742268085479736 0.366007983684539795
1.34120559692382812 -5.84557723999023438 0.0129820778965950012
0.213100969791412354 -1.88972985744476318 0.429496467113494873
-1.834877610206604 -0.474768161773681641 0.0936271399259567261
1.20406866073608398 -5.83271455764770508 0.214054673910140991
-1.92522406578063965 -0.560886025428771973 0.198678299784660339
-1.96216261386871338 -0.125124365091323853 0.433460742235183716
-2.00203180313110352 -0.192112654447555542 0.253123581409454346
1.83498573303222656 0.710044026374816895 0.30810171365737915
1.43341195583343506 1.51120567321777344 0.460532724857330322
-5.94671010971069336 -0.298670530319213867 0.329443037509918213
-1.48583030700683594 -1.37665975093841553 0.447402656078338623
1.34426474571228027 -5.87409877777099609 0.158199235796928406
1.05932354927062988 1.58487582206726074 0.279945164918899536
1.52130126953125 -1.4347076416015625 0.181863114237785339
1.01916134357452393 1.79314029216766357 0.206623867154121399
-6.0272517204284668 -0.426846742630004883 0.295305699110031128
3.79472613334655762 -4.73960208892822266 0.0699662044644355774
4.94146966934204102 -3.31006979942321777 0.404863595962524414
0.191270947456359863 -1.93922257423400879 0.298560619354248047
2.71225905418395996 -5.26723003387451172 0.376002788543701172
-2.0065312385559082 -0.388980746269226074 0.252062559127807617
3.8390657901763916 -4.62037801742553711 0.233402937650680542
-6.08594036102294922 -0.324636876583099365 0.221849605441093445
1.30204105377197266 -1.58425760269165039 0.371712327003479004
1.37312746047973633 -1.37700438499450684 0.36377638578414917
4.92021417617797852 -3.26206541061401367 0.537132501602172852
1.29872262477874756 -1.49299156665802002 0.498445332050323486
-5.88666248321533203 -1.14845681190490723 0.536598801612854004
1.39921247959136963 1.39270782470703125 0.368960291147232056
1.53893959522247314 1.3027808666229248 0.501154303550720215
1.73390662670135498 1.30378937721252441 0.398248732089996338
3.65438318252563477 -4.77260351181030273 0.172656640410423279
1.43622064590454102 -1.37430894374847412 0.253282427787780762
1.14311408996582031 1.74157476425170898 0.188111588358879089
-1.47751665115356445 -1.35291266441345215 0.613368034362792969
1.21031618118286133 -1.44847702980041504 0.336525410413742065
1.06004178524017334 1.78292787075042725 0.324710071086883545
2.69789290428161621 -5.44023513793945312 0.302338361740112305
1.93742179870605469 0.648488461971282959 0.209915012121200562
-1.33539342880249023 -1.37185859680175781 0.523512125015258789
-1.36585664749145508 -1.39046990871429443 0.643411099910736084
1.97274768352508545 -0.46314886212348938 0.319144308567047119
-1.78320837020874023 -0.480105221271514893 0.199971199035644531
1.39832580089569092 1.30278003215789795 0.468559026718139648
2.67073583602905273 -5.28163623809814453 0.269010215997695923
-1.94141817092895508 -0.513574421405792236 0.0722245573997497559
1.65392076969146729 1.24079489707946777 0.335437506437301636
0.920869886875152588 1.76868808269500732 0.153937578201293945
-1.40983223915100098 -1.29635322093963623 0.41942441463470459
2.66258144378662109 -5.52366733551025391 0.368162930011749268
1.4172598123550415 -5.8071441650390625 0.106756716966629028
4.9243016242980957 -3.367401123046875 0.502361536026000977
1.23343253135681152 -5.93803930282592773 0.198190346360206604
-5.83913660049438477 -1.16480863094329834 0.438283711671829224
1.89174306392669678 0.611630439758300781 0.303062647581100464
1.76622104644775391 -0.503837049007415771 0.193620979785919189
1.50192630290985107 1.2276540994644165 0.394581615924835205
1.03756082057952881 1.69154763221740723 0.258793830871582031
1.52740609645843506 -1.29813826084136963 0.406654834747314453
-1.97594189643859863 -0.295384407043457031 0.203903466463088989
-5.91151237487792969 -0.386837959289550781 0.277181565761566162
5.02454996109008789 -3.36190485954284668 0.364885151386260986
-1.9898984432220459 -0.0903129726648330688 0.229466885328292847
2.61487293243408203 -5.42538738250732422 0.421557128429412842
1.5068364143371582 -1.28616440296173096 0.279528766870498657
1.62527894973754883 1.35031843185424805 0.385581642389297485
3.81967949867248535 -4.64653396606445312 0.136465221643447876
-1.92191517353057861 -0.431064426898956299 0.127681583166122437
1.48837566375732422 1.41559743881225586 0.43254774808883667
1.13179337978363037 1.63104605674743652 0.227671489119529724
3.86796355247497559 -4.75479269027709961 0.208334982395172119
-6.03361940383911133 -0.255990594625473022 0.272666305303573608
1.85494482517242432 -0.45701974630355835 0.28624647855758667
0.962189376354217529 1.80193412303924561 0.321388065814971924
-1.85502052307128906 -0.58984905481338501 0.134059622883796692
1.97572362422943115 -0.484583169221878052 0.223006635904312134
1.27516472339630127 -5.80408573150634766 0.152444571256637573
-1.90648531913757324 -0.468585193157196045 0.222892895340919495
3.69816780090332031 -4.6745600700378418 0.138035550713539124
4.88096761703491211 -3.41746044158935547 0.388416945934295654
-1.35405957698822021 -1.443817138671875 0.375965386629104614
1.30694222450256348 -1.40055751800537109 0.436109334230422974
1.43232452869415283 -5.86378192901611328 0.228914469480514526
1.79732692241668701 -0.410491257905960083 0.346779465675354004
-2.0292360782623291 -0.0618083477020263672 0.401961147785186768
1.27302730083465576 -1.54142177104949951 0.250951290130615234
1.24644529819488525 -1.54207503795623779 0.435633987188339233
-1.49335455894470215 -1.41664028167724609 0.532217144966125488
1.89992964267730713 0.687009036540985107 0.370371222496032715
-1.44340646266937256 -1.32786250114440918 0.513936817646026611
-1.98929917812347412 -0.130724519491195679 0.320300757884979248
-1.43226253986358643 -1.37387180328369141 0.373082846403121948
-6.00498485565185547 -0.344697177410125732 0.259243220090866089
-5.91150426864624023 -0.312344640493392944 0.201829448342323303
1.28013360500335693 -1.47246229648590088 0.388362526893615723
1.42520225048065186 1.47730350494384766 0.355475306510925293
1.43247628211975098 -1.4375300407409668 0.336773842573165894
2.62603521347045898 -5.40693187713623047 0.263401687145233154
5.05417776107788086 -3.3610992431640625 0.501155257225036621
1.39091622829437256 1.41360604763031006 0.480069547891616821
4.94699764251708984 -3.45071196556091309 0.511414051055908203
0.978224873542785645 1.73473465442657471 0.373805820941925049
1.32717812061309814 -1.4599449634552002 0.187236636877059937
1.80026984214782715 0.667781352996826172 0.37406584620475769
-6.10381078720092773 -0.390735775232315063 0.282045841217041016
0.155534297227859497 -1.93193817138671875 0.382354557514190674
2.6290137767791748 -5.27869510650634766 0.357688367366790771
-1.82412326335906982 -0.554304897785186768 0.205908477306365967
3.75693964958190918 -4.6410984992980957 0.227206200361251831
1.29454576969146729 -5.87814855575561523 0.0753555893898010254
-1.93747162818908691 -0.643347561359405518 0.186492860317230225
1.47310185432434082 1.25097715854644775 0.509847879409790039
1.29322004318237305 -1.38944494724273682 0.344201624393463135
0.170892491936683655 -1.94720339775085449 0.472361594438552856
-5.90832090377807617 -1.17901289463043213 0.395224869251251221
2.69199991226196289 -5.35805940628051758 0.29526752233505249
-1.38308548927307129 -1.39119625091552734 0.458906352519989014
4.95447206497192383 -3.39081120491027832 0.415516257286071777
0.983801424503326416 1.5883643627166748 0.247125834226608276
1.17646515369415283 1.61057603359222412 0.29354482889175415
-1.3028106689453125 -1.36033737659454346 0.600805878639221191
1.18578124046325684 -1.51459574699401855 0.388201624155044556
3.67609953880310059 -4.64752626419067383 0.0639819502830505371
1.47591102123260498 1.31661486625671387 0.447511553764343262
0.97861778736114502 1.71769297122955322 0.209521830081939697
1.84566545486450195 -0.44392433762550354 0.206808686256408691
1.34997045993804932 1.44899606704711914 0.399987757205963135
1.09984970092773438 1.77202987670898438 0.255095869302749634
1.58179271221160889 1.24532401561737061 0.408441781997680664
3.83636975288391113 -4.69912242889404297 0.257467031478881836
-1.3967207670211792 -1.42026317119598389 0.566097259521484375
-5.91426610946655273 -1.21999847888946533 0.512856125831604004
4.85702323913574219 -3.32408356666564941 0.502448797225952148
1.44548654556274414 1.27390265464782715 0.361746400594711304
1.48496007919311523 -1.33973515033721924 0.200421124696731567
1.23431134223937988 -1.61695408821105957 0.396109551191329956
5.03105401992797852 -3.30633330345153809 0.429524153470993042
1.22252345085144043 -5.87411355972290039 0.138268038630485535
-1.96021628379821777 -0.240109160542488098 0.299350947141647339
0.215280845761299133 -1.99154758453369141 0.406003952026367188
1.35303795337677002 -5.80356311798095703 0.190760180354118347
1.08369743824005127 1.75359272956848145 0.393174856901168823
-1.93836832046508789 -0.396638572216033936 0.195327073335647583
1.90205323696136475 -0.535215139389038086 0.296218693256378174
3.91391634941101074 -4.72033357620239258 0.138643980026245117
1.54750621318817139 -1.36559844017028809 0.500895023345947266
2.68241381645202637 -5.34638547897338867 0.37060210108757019
3.93865680694580078 -4.65710353851318359 0.210464745759963989
4.98854923248291016 -3.23417139053344727 0.555924892425537109
1.69031071662902832 1.28248190879821777 0.469543933868408203
3.70171737670898438 -4.76912784576416016 0.113414682447910309
-6.02238941192626953 -0.357955306768417358 0.331826955080032349
-5.9872746467590332 -0.325801610946655273 0.186057642102241516
-5.9657135009765625 -0.255874991416931152 0.388253390789031982
-2.00842761993408203 -0.424487024545669556 0.1317768394947052
1.2540130615234375 -1.60403037071228027 0.533607006072998047
1.08130025863647461 1.69644713401794434 0.130373075604438782
1.03477466106414795 1.65413343906402588 0.194634079933166504
1.80107367038726807 -0.498970299959182739 0.315039634704589844
-1.92122936248779297 -0.579981207847595215 0.103550389409065247
1.52554857730865479 1.27233195304870605 0.34169459342956543
-5.90743160247802734 -1.15636003017425537 0.467278808355331421
2.68429660797119141 -5.45453548431396484 0.374402463436126709
1.91523933410644531 -0.447270393371582031 0.186123639345169067
0.946287572383880615 1.76902282238006592 0.249375373125076294
1.40196061134338379 -1.40512728691101074 0.198566451668739319
-6.05587863922119141 -0.391653150320053101 0.229113221168518066
3.84488868713378906 -4.71037626266479492 0.111528597772121429
1.35523366928100586 -5.83945846557617188 0.0926272422075271606
3.85205817222595215 -4.68903589248657227 0.183503001928329468
1.68503046035766602 1.34357309341430664 0.434314906597137451
3.75532698631286621 -4.68207883834838867 0.097240641713142395
1.43823230266571045 -1.44182515144348145 0.266656428575515747
-1.87556064128875732 -0.525518059730529785 0.14733453094959259
1.35376608371734619 -1.43362796306610107 0.326759457588195801
3.78045034408569336 -4.7501978874206543 0.147215873003005981
1.01112604141235352 1.73720359802246094 0.153410598635673523
1.2193446159362793 -1.46463644504547119 0.271485507488250732
1.01678717136383057 1.68529081344604492 0.322746336460113525
1.22395193576812744 -1.4692617654800415 0.44626927375793457
3.70114946365356445 -4.62438869476318359 0.182706654071807861
-5.82032203674316406 -1.1425241231918335 0.544573545455932617
-1.41123867034912109 -1.35539150238037109 0.574180305004119873
-1.3268120288848877 -1.4028480052947998 0.421588480472564697
1.70558905601501465 1.24451231956481934 0.409940779209136963
1.49984371662139893 -1.35174190998077393 0.341359943151473999
1.29344582557678223 -5.91204404830932617 0.177561923861503601
-5.85286378860473633 -1.23685872554779053 0.38903343677520752
0.144448235630989075 -1.9864267110824585 0.347043335437774658
1.94607031345367432 0.680317401885986328 0.303707361221313477
-1.96351945400238037 -0.400894582271575928 0.0873467698693275452
1.9139401912689209 -0.533159315586090088 0.232028365135192871
-6.06246232986450195 -0.318470269441604614 0.299163103103637695
-1.87379240989685059 -0.402020275592803955 0.160175025463104248
1.37152159214019775 1.54711318016052246 0.366966307163238525
1.27077484130859375 -1.44979643821716309 0.31561616063117981
1.25673937797546387 -1.36165356636047363 0.428647130727767944
4.88826179504394531 -3.32248044013977051 0.437649190425872803
1.88303756713867188 0.671769976615905762 0.286259829998016357
-1.87448477745056152 -0.589186429977416992 0.222504943609237671
1.08097612857818604 1.73785543441772461 0.205995276570320129
-1.44750607013702393 -1.41609287261962891 0.477575004100799561
4.87299585342407227 -3.3682558536529541 0.543848514556884766
-5.82940912246704102 -1.22928035259246826 0.446576118469238281
1.41429531574249268 1.23894751071929932 0.412434667348861694
5.01551055908203125 -3.40599250793457031 0.520362675189971924
0.910484671592712402 1.65239310264587402 0.277880251407623291
