ply
format ascii 1.0
element vertex 256
comment vertices
property float x
property float y
property float z
end_header
-1.18383491039276123 0.0897905081510543823 0.428840875625610352
0.987452328205108643 -0.930628478527069092 0.146396547555923462
0.602096676826477051 1.01970922946929932 0.365579128265380859
-0.38948667049407959 -1.00790023803710938 0.309884250164031982
0.570661425590515137 -0.406001538038253784 0.690103828907012939
0.828665733337402344 0.255039513111114502 0.19125773012638092
-0.762762188911437988 -0.663032412528991699 0.773453950881958008
0.951498270034790039 -0.439096748828887939 0.318352550268173218
0.861901760101318359 0.641539573669433594 0.591795086860656738
-0.804003238677978516 -0.735617518424987793 0.201319411396980286
0.385085999965667725 0.406063348054885864 0.376764982938766479
0.730288922786712646 -0.870603859424591064 0.649677038192749023
0.943921804428100586 0.916742026805877686 0.0438939109444618225
-0.421301275491714478 -0.560639739036560059 0.443970561027526855
-1.15327548980712891 -0.310704886913299561 0.21442684531211853
-0.956658124923706055 0.0695655941963195801 0.0443668700754642487
-0.842831969261169434 0.24831002950668335 0.536228537559509277
-0.497848570346832275 -0.895207881927490234 0.662625491619110107
0.706965744495391846 -0.696859598159790039 0.219283625483512878
-1.00906610488891602 -0.211620211601257324 0.532240569591522217
0.784566879272460938 0.659573853015899658 0.243609786033630371
0.638901352882385254 0.320462077856063843 0.573927760124206543
0.980071604251861572 0.948099017143249512 0.556696057319641113
0.961451232433319092 -0.771070599555969238 0.444486767053604126
0.547270774841308594 0.66911613941192627 0.523706793785095215
-1.21720433235168457 0.298274785280227661 0.188081055879592896
-1.33532583713531494 -0.0593609511852264404 0.167126521468162537
-0.765810310840606689 -0.494557887315750122 0.517038822174072266
0.787145256996154785 -0.580216705799102783 0.589496612548828125
-0.605854153633117676 -0.78445589542388916 0.42447894811630249
0.661739766597747803 -0.347090542316436768 0.431454658508300781
0.949914515018463135 0.381274491548538208 0.552515268325805664
-0.927756607532501221 -0.0240693539381027222 0.347174167633056641
0.669789493083953857 0.916148662567138672 0.133974656462669373
0.608214974403381348 0.391114711761474609 0.21680779755115509
0.703794300556182861 0.865119814872741699 0.586924076080322266
1.00563037395477295 -0.433189123868942261 0.569282710552215576
-1.00671684741973877 0.207864880561828613 0.305437713861465454
0.783456146717071533 0.466687679290771484 0.395281881093978882
-0.44353330135345459 -0.566888630390167236 0.685545802116394043
-1.07910871505737305 0.291069954633712769 0.569467306137084961
0.952215790748596191 0.806212782859802246 0.334931999444961548
0.670708656311035156 -0.814147770404815674 0.432713925838470459
0.931901156902313232 -0.652477800846099854 0.199781849980354309
-0.663685142993927002 -0.905862808227539062 0.158953920006752014
-1.31872475147247314 -0.0885355472564697266 0.40812152624130249
0.629584252834320068 0.797603726387023926 0.328103184700012207
-1.17203915119171143 0.0637550055980682373 -0.0103081054985523224
0.624071717262268066 -0.571582794189453125 0.440974175930023193
-0.981078028678894043 0.091421276330947876 0.602412879467010498
0.574066340923309326 0.579287588596343994 0.320307940244674683
-0.354371428489685059 -0.794847190380096436 0.288101851940155029
-0.3680267333984375 -0.800423979759216309 0.518946230411529541
-0.681280434131622314 -0.886083245277404785 0.766962885856628418
-0.656012773513793945 -0.660309195518493652 0.584080874919891357
-1.17072963714599609 0.0933190286159515381 0.226214274764060974
0.81588280200958252 -0.602968096733093262 0.385187774896621704
-0.804281115531921387 -0.709059655666351318 0.39519035816192627
0.843415677547454834 0.258777856826782227 0.443591445684432983
0.749598681926727295 0.69117438793182373 0.44128650426864624
0.760376513004302979 0.468406766653060913 0.592553913593292236
-0.555437088012695312 -1.05609214305877686 0.205921098589897156
-0.536644279956817627 -0.435499429702758789 0.526736259460449219
0.638089179992675781 -0.692446410655975342 0.59429621696472168
0.921518445014953613 -0.953255534172058105 0.442214757204055786
-1.12528061866760254 -0.0552653968334197998 0.326750963926315308
0.791700839996337891 -0.398438811302185059 0.599517941474914551
0.607976198196411133 0.485206961631774902 0.502483665943145752
-0.524685263633728027 -0.6542472243309021 0.336772680282592773
0.761921226978302002 0.886119246482849121 0.423011600971221924
-1.16502785682678223 -0.0896282494068145752 0.493671447038650513
0.897897303104400635 0.598206639289855957 0.401106417179107666
0.50126957893371582 0.873791754245758057 0.417340755462646484
0.710382163524627686 0.315999150276184082 0.0805313289165496826
-0.926763415336608887 0.131805986166000366 0.437479883432388306
0.588408887386322021 0.23590444028377533 0.283103913068771362
-0.430674552917480469 -0.971896827220916748 0.128934621810913086
-0.547260284423828125 -0.705259859561920166 0.698302865028381348
-1.13807165622711182 0.132824957370758057 0.585082173347473145
1.01027178764343262 0.52195054292678833 0.490946650505065918
-1.28532958030700684 0.17590603232383728 0.306565701961517334
0.88513714075088501 0.793614804744720459 0.542127728462219238
0.856136858463287354 -0.725828170776367188 0.59142458438873291
-0.813277125358581543 -0.588521242141723633 0.641437172889709473
0.757776498794555664 -0.47237744927406311 0.454071760177612305
-0.449533611536026001 -0.673852384090423584 0.565786063671112061
0.700783491134643555 -0.489750504493713379 0.71556466817855835
0.918200492858886719 -0.568444967269897461 0.498293638229370117
0.75750356912612915 0.431836575269699097 0.173844277858734131
0.836839079856872559 -0.743182361125946045 0.115914672613143921
0.536079049110412598 -0.33974379301071167 0.521575868129730225
-0.983160912990570068 -0.0722751617431640625 0.211166024208068848
-0.647129535675048828 -0.902821958065032959 0.617384910583496094
0.833631455898284912 -0.930211901664733887 0.147189050912857056
0.825971484184265137 0.807056844234466553 0.239596560597419739
0.636516213417053223 -0.451630681753158569 0.560919642448425293
1.0188521146774292 -0.774663984775543213 0.222533047199249268
0.831559896469116211 -0.76783287525177002 0.367820411920547485
1.00556707382202148 -0.657447099685668945 0.330565720796585083
-0.769336521625518799 -0.558902263641357422 0.381663411855697632
1.00749492645263672 -0.442231923341751099 0.181167185306549072
0.900831937789916992 0.98284071683883667 0.436734437942504883
-0.949959158897399902 -0.0816913247108459473 0.480842769145965576
0.626071035861968994 0.950258612632751465 0.495362043380737305
0.683265984058380127 -0.83951723575592041 0.246058359742164612
-1.13066506385803223 0.233385056257247925 0.380347162485122681
0.788054227828979492 -0.320316672325134277 0.361355721950531006
-0.540696799755096436 -0.913428544998168945 0.4074554443359375
-1.03468906879425049 0.287175416946411133 0.187031462788581848
-0.634479224681854248 -0.553207457065582275 0.488924682140350342
0.642639279365539551 0.45810467004776001 0.36332094669342041
0.765796542167663574 -0.700075447559356689 0.479920029640197754
0.723182201385498047 0.334806740283966064 0.283984065055847168
0.640434861183166504 0.282478600740432739 0.408773273229598999
0.724307656288146973 -0.564124822616577148 0.269030004739761353
0.476680517196655273 0.422739595174789429 0.262185573577880859
0.833142518997192383 0.52894747257232666 0.279422491788864136
0.706643760204315186 0.977040529251098633 0.281919240951538086
0.699165165424346924 0.58897244930267334 0.558533310890197754
-1.0412437915802002 0.0560180917382240295 0.343284845352172852
-0.646570265293121338 -0.798475384712219238 0.292886584997177124
-0.459565997123718262 -0.737099051475524902 0.437553822994232178
-0.588085532188415527 -0.779422640800476074 0.588857769966125488
0.593349814414978027 0.782575130462646484 0.459871679544448853
0.792928457260131836 -0.873235106468200684 0.528875470161437988
0.813323497772216797 -0.423687666654586792 0.278554826974868774
1.02347052097320557 -0.520818591117858887 0.395702064037322998
-0.640793740749359131 -0.731194078922271729 0.789368808269500732
-0.894175052642822266 0.162893593311309814 0.251099169254302979
0.882517099380493164 0.362740814685821533 0.372117459774017334
0.592862904071807861 0.767912387847900391 0.205111414194107056
0.851287722587585449 0.861847162246704102 0.123827330768108368
-0.710429191589355469 -0.786057889461517334 0.633908927440643311
0.825133740901947021 0.345653027296066284 0.545185446739196777
0.938550591468811035 -0.398924738168716431 0.440879285335540771
-0.975805461406707764 0.253698080778121948 0.421558022499084473
0.668560147285461426 0.742358565330505371 0.584619045257568359
-0.50749814510345459 -0.752973973751068115 0.258017838001251221
0.692216694355010986 0.637226462364196777 0.341477543115615845
-1.03965198993682861 0.149663627147674561 0.0977826490998268127
-0.609679639339447021 -0.552571535110473633 0.63190007209777832
-1.16776525974273682 0.222769632935523987 0.501337528228759766
0.838736355304718018 0.786986708641052246 0.408283263444900513
-1.04204845428466797 0.111402004957199097 0.479952573776245117
0.929045319557189941 0.696904540061950684 0.469014257192611694
0.752299129962921143 -0.740582525730133057 0.65540015697479248
-1.297660231590271 0.0554521381855010986 0.39912492036819458
-0.724324464797973633 -0.808405458927154541 0.851036965847015381
0.904113411903381348 -0.882844626903533936 0.343818932771682739
0.675309121608734131 -0.336787492036819458 0.563739895820617676
-0.580346405506134033 -0.660164117813110352 0.473853349685668945
0.560755550861358643 0.374585777521133423 0.492592662572860718
0.829974532127380371 -0.352650642395019531 0.495376467704772949
-1.08467459678649902 0.0101714432239532471 0.224722892045974731
0.786921560764312744 0.733054399490356445 0.57493668794631958
-0.877791345119476318 0.0211510136723518372 0.444280862808227539
0.866200923919677734 -0.583612322807312012 0.266520708799362183
-1.0452570915222168 -0.0248196274042129517 0.447416305541992188
0.854989886283874512 -0.46497112512588501 0.391569733619689941
0.686380147933959961 0.368032068014144897 0.471834629774093628
-0.454869568347930908 -0.900695681571960449 0.216205298900604248
0.66209101676940918 -0.545955538749694824 0.620960831642150879
-1.14201724529266357 0.252213537693023682 0.261299937963485718
0.694603204727172852 -0.500779628753662109 0.363027870655059814
0.642059147357940674 0.635206937789916992 0.470179080963134766
-1.2505490779876709 0.0470439791679382324 0.296281725168228149
0.537415623664855957 0.517786622047424316 0.42022937536239624
0.807950437068939209 0.932473897933959961 0.515408635139465332
0.633583664894104004 0.913512825965881348 0.385384917259216309
0.754626274108886719 -0.586495578289031982 0.482025831937789917
-0.805219411849975586 -0.765666723251342773 0.763005316257476807
-1.27119529247283936 0.0688138604164123535 0.184371650218963623
-0.597605526447296143 -0.839188277721405029 0.710375726222991943
0.718592584133148193 0.794358134269714355 0.500381946563720703
0.729988336563110352 0.444914668798446655 0.287090778350830078
0.708975315093994141 0.867717385292053223 0.268880605697631836
0.879092216491699219 -0.686578452587127686 0.310842543840408325
0.899230360984802246 -0.459996163845062256 0.564114212989807129
-0.46334075927734375 -0.7935371994972229 0.57138216495513916
-0.366156846284866333 -0.698624610900878906 0.630832791328430176
-1.23152267932891846 -0.0133246928453445435 0.45046570897102356
0.856779932975769043 0.471538364887237549 0.543286442756652832
0.900497734546661377 0.880317807197570801 0.40245211124420166
0.601563215255737305 -0.766198098659515381 0.500479698181152344
0.873962759971618652 0.660500109195709229 0.303228855133056641
-0.444892853498458862 -0.830388486385345459 0.386426806449890137
0.912464320659637451 -0.772274196147918701 0.209381580352783203
0.91976630687713623 -0.580244600772857666 0.372085422277450562
0.699438273906707764 -0.79176032543182373 0.532958149909973145
-0.829173147678375244 -0.645629048347473145 0.314962416887283325
0.745139956474304199 -0.675187051296234131 0.356930911540985107
-0.76494896411895752 -0.634714961051940918 0.457120954990386963
-0.954239249229431152 0.0864494144916534424 0.289202332496643066
0.918264269828796387 -0.678797125816345215 0.407255470752716064
-0.677288234233856201 -0.446382313966751099 0.490066766738891602
0.736384689807891846 -0.481304913759231567 0.555674493312835693
0.883563101291656494 -0.666606664657592773 0.511018991470336914
0.736945807933807373 0.513709187507629395 0.499282389879226685
-0.556032717227935791 -0.64125514030456543 0.599001407623291016
0.882513165473937988 0.34229615330696106 0.195643886923789978
0.561789870262145996 0.276612758636474609 0.521762371063232422
-0.973617136478424072 0.175308048725128174 0.545110464096069336
-0.974940240383148193 -0.0102294385433197021 0.130947589874267578
0.591830313205718994 0.336436152458190918 0.300640255212783813
0.682169795036315918 -0.417861849069595337 0.64494621753692627
0.756677031517028809 -0.62115943431854248 0.677125334739685059
0.573437631130218506 0.678447961807250977 0.334625512361526489
-1.06141102313995361 0.236821398138999939 0.487477958202362061
-1.09517812728881836 -0.11582300066947937 0.399703860282897949
-0.977021098136901855 0.208215683698654175 0.168858125805854797
0.938218772411346436 0.794440269470214844 0.453019887208938599
-0.706368923187255859 -0.705267429351806641 0.703682422637939453
0.733123838901519775 -0.665367841720581055 0.589904725551605225
0.766416549682617188 -0.830306112766265869 0.415929496288299561
-0.493097394704818726 -0.472384989261627197 0.446862578392028809
0.917853236198425293 -0.473672956228256226 0.232936084270477295
0.87878727912902832 -0.763845324516296387 0.499392837285995483
0.670645177364349365 -0.612833142280578613 0.333867073059082031
0.578388690948486328 -0.527192890644073486 0.541869580745697021
-0.46803361177444458 -0.868634462356567383 0.472071468830108643
-0.696856260299682617 -0.797408819198608398 0.728978097438812256
-1.069083571434021 0.301848948001861572 0.353881806135177612
-1.11763513088226318 0.115473143756389618 0.364598602056503296
-0.643863260746002197 -0.792226493358612061 0.512646675109863281
0.842962503433227539 -0.516532301902770996 0.472031891345977783
-1.10385167598724365 0.0319322161376476288 0.496251553297042847
-0.537711679935455322 -0.717848062515258789 0.535236775875091553
0.697768509387969971 -0.408578574657440186 0.504550635814666748
-0.616761565208435059 -0.488285630941390991 0.564165353775024414
-0.880024254322052002 0.285929769277572632 0.459450066089630127
-0.422002553939819336 -0.585767984390258789 0.576630949974060059
0.790794670581817627 -0.774540126323699951 0.546876072883605957
-1.12162041664123535 0.29707828164100647 0.450789213180541992
-1.12369322776794434 0.0398503541946411133 0.304054230451583862
-1.02064752578735352 0.16990835964679718 0.411581218242645264
-1.00864076614379883 -0.064280778169631958 0.327994018793106079
0.980779349803924561 -0.597371339797973633 0.265779793262481689
0.815805971622467041 0.853491365909576416 0.560935020446777344
0.826599240303039551 0.701291680335998535 0.499107420444488525
-0.373092472553253174 -0.730730533599853516 0.40910029411315918
0.791217982769012451 -0.726099729537963867 0.297023653984069824
0.893272995948791504 0.703052282333374023 0.38137894868850708
0.673386633396148682 0.259840548038482666 0.261335641145706177
0.709127902984619141 0.959963083267211914 0.405071407556533813
0.894515693187713623 0.612655937671661377 0.512143254280090332
0.858211755752563477 0.206536352634429932 0.371022969484329224
-1.13811028003692627 0.0163942277431488037 0.402178019285202026
0.819137752056121826 0.630470156669616699 0.431562662124633789
0.822597503662109375 0.610133230686187744 0.178286746144294739
0.964000165462493896 -0.848716914653778076 0.176104456186294556
0.77650374174118042 -0.505647957324981689 0.313720345497131348
0.72321164608001709 0.899142026901245117 0.503360390663146973
0.643027424812316895 0.852156281471252441 0.488229453563690186
-0.91591566801071167 0.0566400736570358276 0.551421582698822021
0.905280411243438721 0.924783885478973389 0.15777452290058136
0.750536441802978516 0.379933685064315796 0.582897961139678955
