ply
format ascii 1.0
element vertex 256
comment vertices
property float x
property float y
property float z
end_header
0.419669806957244873 -1.24746370315551758 0.409820854663848877
4.51513528823852539 3.18926095962524414 0.227608382701873779
-2.96842312812805176 0.884338676929473877 0.0791667550802230835
1.74342989921569824 2.64831376075744629 0.374435335397720337
-0.419530034065246582 1.22928440570831299 0.399225503206253052
-1.12913346290588379 -2.91457509994506836 0.338151246309280396
1.95523726940155029 -2.51498079299926758 0.226155936717987061
-1.32397723197937012 -0.632051229476928711 0.124660581350326538
1.35705554485321045 -0.0606716014444828033 0.321604490280151367
0.837706029415130615 1.09646999835968018 0.00037356838583946228
2.58816027641296387 1.67061913013458252 0.416810691356658936
-1.24697625637054443 0.543331503868103027 0.395958155393600464
1.09006273746490479 -0.822913587093353271 0.0933033749461174011
-0.670234441757202148 -1.11893761157989502 0.308347791433334351
2.20373368263244629 2.21585559844970703 0.653484582901000977
0.852149426937103271 -1.08184123039245605 0.396960586309432983
1.16419196128845215 -0.391546726226806641 0.0661692172288894653
-0.992151439189910889 -0.805728554725646973 0.169735059142112732
1.92317211627960205 2.38910293579101562 0.572859287261962891
-1.04041957855224609 0.618323087692260742 0.595641851425170898
-0.449789047241210938 1.18803393840789795 0.112760171294212341
1.35548543930053711 -0.319683164358139038 0.246345549821853638
2.10405755043029785 2.24134969711303711 0.404940247535705566
0.681705713272094727 -1.25934863090515137 0.494410157203674316
0.307951897382736206 -1.39250850677490234 0.229850888252258301
-0.889381706714630127 -1.01491177082061768 0.279805690050125122
-1.1007840633392334 -0.551751792430877686 0.0748225003480911255
1.16199898719787598 -0.615569472312927246 0.191855400800704956
-2.88524699211120605 0.67323833703994751 0.157316774129867554
1.35210824012756348 -0.235932961106300354 0.484657883644104004
-1.09279298782348633 0.700101017951965332 0.304192632436752319
4.29806852340698242 3.26007318496704102 0.218085408210754395
0.964267909526824951 -0.974777102470397949 0.231288105249404907
1.91470861434936523 2.5978996753692627 0.497429192066192627
1.86084175109863281 2.48021435737609863 0.33879581093788147
2.58742904663085938 1.77937257289886475 0.24550841748714447
1.88192975521087646 -2.3650815486907959 0.114935792982578278
-1.20207118988037109 0.736551165580749512 0.464393138885498047
-0.938812017440795898 -2.92363786697387695 0.383361458778381348
0.677553236484527588 -1.16779935359954834 0.32812073826789856
0.697824239730834961 1.02844405174255371 0.108796395361423492
1.24983453750610352 -0.171182990074157715 0.212333738803863525
-1.1618506908416748 -0.720994055271148682 0.109579801559448242
1.13116621971130371 -0.56868356466293335 0.0214044563472270966
-0.551664054393768311 1.17719900608062744 0.257464855909347534
4.40826797485351562 3.10271239280700684 0.339087218046188354
-0.768793702125549316 -1.08578050136566162 0.168259680271148682
2.04685163497924805 2.32120347023010254 0.675285160541534424
-1.08434212207794189 -2.85848474502563477 0.496168136596679688
1.86119163036346436 -2.44781160354614258 0.354278147220611572
1.29529619216918945 -0.455504447221755981 0.159459769725799561
1.96188819408416748 -2.33720946311950684 0.260043054819107056
0.302126109600067139 -1.23666596412658691 0.292851954698562622
-1.11492860317230225 0.592792809009552002 0.462574660778045654
-2.8663790225982666 0.836928665637969971 0.177582353353500366
1.29949140548706055 -0.215914815664291382 0.346558630466461182
1.95442628860473633 2.46557974815368652 0.450946509838104248
-0.40558934211730957 1.1884385347366333 0.250620096921920776
1.18513238430023193 -0.696874678134918213 0.0770998075604438782
-1.03486776351928711 -2.81014919281005859 0.351672828197479248
4.3862457275390625 3.14312076568603516 0.202965468168258667
2.08355140686035156 2.30442571640014648 0.542278587818145752
-2.99424839019775391 0.751284539699554443 0.122797124087810516
2.08372354507446289 2.37577104568481445 0.386369884014129639
0.538628876209259033 -1.25006842613220215 0.34267076849937439
0.646688401699066162 -1.12959384918212891 0.473235160112380981
-1.23315942287445068 -0.532465100288391113 0.0846877694129943848
2.55846500396728516 1.83310878276824951 0.362697690725326538
1.07426261901855469 -0.9163818359375 0.190630853176116943
0.359788417816162109 -1.34407711029052734 0.340733647346496582
-1.22102117538452148 0.603309154510498047 0.534509539604187012
0.726610958576202393 1.13935816287994385 0.0468010008335113525
-1.02803635597229004 -2.98945784568786621 0.446315497159957886
1.27462315559387207 -0.122552916407585144 0.428670018911361694
0.345202356576919556 -1.22150039672851562 0.508065998554229736
1.80005717277526855 2.55153417587280273 0.431080341339111328
-0.792963564395904541 -1.12208044528961182 0.333513081073760986
0.755307793617248535 -1.0037609338760376 0.381886899471282959
-0.474942475557327271 1.27760481834411621 0.197571799159049988
-2.86412262916564941 0.788316786289215088 0.0632699877023696899
1.06957900524139404 -0.728464365005493164 0.170720368623733521
0.962484836578369141 -0.942047476768493652 0.350149780511856079
1.36850988864898682 -0.359028100967407227 0.131522148847579956
1.08762109279632568 -0.510438263416290283 0.119272142648696899
-1.25811874866485596 0.674777209758758545 0.377389580011367798
2.2016756534576416 2.25625085830688477 0.540590882301330566
1.39159560203552246 -0.157654181122779846 0.403539776802062988
-1.08771181106567383 0.696953415870666504 0.519548535346984863
1.36088120937347412 -0.16497763991355896 0.259289562702178955
-2.98270654678344727 0.691724777221679688 0.220946848392486572
4.3871607780456543 3.24406218528747559 0.286725014448165894
-0.827422738075256348 -0.946165263652801514 0.214718043804168701
1.85118746757507324 -2.47101140022277832 0.232488200068473816
0.744126319885253906 -1.14018702507019043 0.415311336517333984
-1.13360786437988281 -0.724201738834381104 0.21876150369644165
0.39354395866394043 -1.17581582069396973 0.317855119705200195
1.21877050399780273 -0.547816634178161621 0.0886674821376800537
1.06475818157196045 -0.725015878677368164 0.0450648218393325806
-0.466754257678985596 1.09545266628265381 0.238206148147583008
-1.13251698017120361 -0.64831465482711792 0.0282674413174390793
1.86006784439086914 2.49070000648498535 0.505181193351745605
1.79645335674285889 2.43801617622375488 0.419708311557769775
-1.0263901948928833 -2.9544377326965332 0.320555418729782104
1.96757817268371582 -2.45467257499694824 0.321855634450912476
-1.00223886966705322 0.634756743907928467 0.486385136842727661
1.2639538049697876 -0.117063209414482117 0.311983734369277954
1.27535367012023926 -0.251569509506225586 0.143991008400917053
-1.0437626838684082 0.705198109149932861 0.400255203247070312
-0.487695097923278809 1.26607406139373779 0.303470760583877563
0.717672526836395264 -1.26467275619506836 0.314975738525390625
1.27298378944396973 -0.359935462474822998 0.197468623518943787
2.6024470329284668 1.72986304759979248 0.334306448698043823
1.01724064350128174 -0.815347552299499512 0.179831385612487793
-1.22854447364807129 -0.638930380344390869 0.0899060741066932678
0.898506820201873779 -1.07987380027770996 0.309700667858123779
1.10145127773284912 -0.637941062450408936 0.11712116003036499
-0.682811617851257324 -1.09845113754272461 0.21027684211730957
-2.87458515167236328 0.894407033920288086 0.0993581265211105347
-1.02268469333648682 -2.87514543533325195 0.421211600303649902
4.43300533294677734 3.21974992752075195 0.169697120785713196
-1.18007087707519531 0.735972404479980469 0.319315522909164429
-0.819623231887817383 -1.07068860530853271 0.24854925274848938
-1.12209343910217285 0.654815495014190674 0.387261658906936646
1.87688004970550537 -2.37734150886535645 0.207040488719940186
-2.92219805717468262 0.753657221794128418 0.182188406586647034
1.1192328929901123 -0.423581242561340332 0.139498442411422729
-1.21245253086090088 0.64384382963180542 0.45071566104888916
4.46720457077026367 3.11696338653564453 0.270889103412628174
0.660520255565643311 -1.2037968635559082 0.422254413366317749
2.01248049736022949 2.40215301513671875 0.567263960838317871
1.39721822738647461 -0.237099528312683105 0.360912531614303589
2.00383710861206055 2.29430723190307617 0.600978493690490723
1.22384321689605713 -0.447276204824447632 0.106285296380519867
0.722501933574676514 1.05351316928863525 0.0223816931247711182
-1.13871848583221436 0.601036190986633301 0.569063186645507812
1.97561359405517578 2.54050803184509277 0.525782406330108643
2.15758752822875977 2.29868245124816895 0.4775887131690979
2.56167173385620117 1.79608094692230225 0.442178964614868164
-0.729283571243286133 -1.06155192852020264 0.274422407150268555
0.900272727012634277 -1.0123063325881958 0.37790149450302124
0.352570891380310059 -1.31138765811920166 0.262214243412017822
-0.993538141250610352 -0.763709068298339844 0.243937492370605469
0.754960060119628906 -1.07211601734161377 0.331445276737213135
1.10066103935241699 -0.647287487983703613 0.0337301008403301239
-0.548184812068939209 1.22756505012512207 0.190678626298904419
-2.9922945499420166 0.667746305465698242 0.122275739908218384
1.98589742183685303 -2.41147112846374512 0.232660382986068726
2.1191868782043457 2.28927016258239746 0.614508450031280518
-1.06140303611755371 -0.765151262283325195 0.198145389556884766
2.1236112117767334 2.21237444877624512 0.6698150634765625
1.14462113380432129 -0.763196349143981934 0.104969911277294159
-0.47607952356338501 1.18626499176025391 0.314045965671539307
-2.93417954444885254 0.828655540943145752 0.13352552056312561
1.87307560443878174 2.55926036834716797 0.397863090038299561
-0.825510382652282715 -1.02438914775848389 0.183265268802642822
1.99884617328643799 2.38358831405639648 0.686254739761352539
-0.436277151107788086 1.1448826789855957 0.183943212032318115
1.36177706718444824 -0.25036323070526123 0.291319191455841064
-0.443687885999679565 1.161346435546875 0.431957036256790161
4.552703857421875 3.13983678817749023 0.276100069284439087
1.26585018634796143 -0.219907462596893311 0.417357385158538818
-0.483369588851928711 1.19354116916656494 0.223037630319595337
2.02531599998474121 2.28447198867797852 0.494195044040679932
1.09134054183959961 -0.793655037879943848 0.0194356627762317657
1.87544548511505127 2.48368096351623535 0.416701734066009521
-1.22842741012573242 0.54354172945022583 0.485172063112258911
0.721938550472259521 -1.16840600967407227 0.484221398830413818
-2.91740751266479492 0.730505406856536865 0.108301199972629547
-0.411033749580383301 1.26499283313751221 0.295534104108810425
0.460260689258575439 -1.17659103870391846 0.356278449296951294
0.786684632301330566 1.11378622055053711 0.0870199501514434814
1.23923754692077637 -0.64668041467666626 0.092295624315738678
-1.24802982807159424 -0.621492743492126465 0.160117268562316895
0.82094883918762207 -1.02311015129089355 0.352194309234619141
1.9185783863067627 -2.39714646339416504 0.269687354564666748
-0.977501034736633301 -2.92836117744445801 0.447414159774780273
-0.768214643001556396 -1.12443864345550537 0.250214993953704834
-1.18316042423248291 0.580214619636535645 0.386603116989135742
4.30899810791015625 3.23015618324279785 0.285209774971008301
0.983455359935760498 -1.00979173183441162 0.328243553638458252
-1.06913697719573975 -2.92566251754760742 0.394911974668502808
0.615960180759429932 -1.18989014625549316 0.365626931190490723
1.30544042587280273 -0.0489654950797557831 0.372222661972045898
1.94184005260467529 -2.39991092681884766 0.137780666351318359
2.25896596908569336 2.21905207633972168 0.606482625007629395
0.289887666702270508 -1.30982983112335205 0.226056843996047974
0.983901619911193848 -0.9106903076171875 0.20496504008769989
1.31088995933532715 -0.126045539975166321 0.366636067628860474
-1.25420308113098145 0.574097275733947754 0.331398546695709229
4.45207881927490234 3.12151694297790527 0.183983504772186279
0.598942339420318604 -1.17616820335388184 0.446679294109344482
1.35036385059356689 -0.130397781729698181 0.197426259517669678
-1.06517910957336426 0.64691537618637085 0.435512959957122803
-1.14836621284484863 -0.607132315635681152 0.0841018408536911011
1.78029465675354004 2.49112606048583984 0.375929415225982666
-1.01111185550689697 -2.87603616714477539 0.348336160182952881
1.90783035755157471 -2.4854271411895752 0.301965832710266113
0.370545864105224609 -1.24105679988861084 0.306972146034240723
4.41882705688476562 3.18568110466003418 0.2647055983543396
-1.08051717281341553 0.625863015651702881 0.513599991798400879
-0.489146202802658081 1.20587146282196045 0.403756886720657349
0.38235434889793396 -1.19103264808654785 0.396220147609710693
1.34206068515777588 -0.176922500133514404 0.450799316167831421
1.3948819637298584 -0.184959575533866882 0.315269589424133301
1.06012058258056641 -0.764032959938049316 0.110881023108959198
1.97592496871948242 2.41652917861938477 0.631227254867553711
0.835735917091369629 -1.10005068778991699 0.321631878614425659
1.83287501335144043 2.54096484184265137 0.335339248180389404
-1.09063923358917236 -2.84662747383117676 0.351168930530548096
-2.87681078910827637 0.777479410171508789 0.139693811535835266
1.84794116020202637 2.59722661972045898 0.446265369653701782
2.58110427856445312 1.70743238925933838 0.275522142648696899
-2.9115450382232666 0.849753737449645996 0.0673787370324134827
1.24573349952697754 -0.0847789868712425232 0.366815447807312012
-1.16773474216461182 -0.540958642959594727 0.0856229811906814575
-0.978997468948364258 -2.97475385665893555 0.372610628604888916
1.26722335815429688 -0.172469660639762878 0.276467978954315186
1.28950667381286621 -0.520730257034301758 0.16426202654838562
0.713083803653717041 -1.06191253662109375 0.380724221467971802
-0.479859113693237305 1.2388615608215332 0.140708357095718384
-1.15499866008758545 0.617792904376983643 0.508202075958251953
0.769575357437133789 1.09412062168121338 0.00305715575814247131
4.3564453125 3.16928648948669434 0.255909383296966553
2.07617616653442383 2.33867955207824707 0.487631231546401978
4.39810514450073242 3.24464845657348633 0.218277230858802795
1.06658077239990234 -0.862149417400360107 0.156107306480407715
1.126975417137146 -0.709937393665313721 0.0404444970190525055
-1.19988203048706055 0.70199739933013916 0.410518467426300049
0.686809420585632324 -1.11188840866088867 0.413606584072113037
1.31153392791748047 -0.290410816669464111 0.178761661052703857
0.9395599365234375 -1.06846761703491211 0.356585979461669922
2.06327700614929199 2.26437115669250488 0.44775921106338501
0.644456565380096436 -1.20974588394165039 0.506023645401000977
-0.737111747264862061 -1.13576793670654297 0.307649731636047363
1.09210777282714844 -0.596128225326538086 0.0715603530406951904
1.90761864185333252 2.45022130012512207 0.50318378210067749
0.461223095655441284 -1.24015331268310547 0.363749682903289795
-1.13240194320678711 0.654690682888031006 0.463733404874801636
2.60352492332458496 1.72777998447418213 0.398457705974578857
1.13079965114593506 -0.52888941764831543 0.0790490061044692993
0.725297868251800537 1.08732271194458008 0.0800560265779495239
0.806050956249237061 -1.11277854442596436 0.423941582441329956
-1.21795403957366943 -0.595399677753448486 0.047713838517665863
1.87248384952545166 -2.39923691749572754 0.318313568830490112
-0.710226476192474365 -1.14474654197692871 0.249208897352218628
-0.484020978212356567 1.2572253942489624 0.370488405227661133
-0.551991641521453857 1.22740054130554199 0.29281914234161377
2.54550719261169434 1.73981916904449463 0.354997754096984863
1.9376596212387085 -2.38587450981140137 0.204926863312721252
2.18159246444702148 2.2578895092010498 0.598048686981201172
0.938356935977935791 -0.962462782859802246 0.28497016429901123
2.57804417610168457 1.78502440452575684 0.327416270971298218
-0.442153781652450562 1.23661351203918457 0.250628113746643066
1.99546432495117188 -2.38242459297180176 0.284801453351974487
-1.09831118583679199 0.69586491584777832 0.424798846244812012
-0.872509181499481201 -0.958282291889190674 0.252479285001754761
