ply
format ascii 1.0
element vertex 256
comment vertices
property float x
property float y
property float z
end_header
-2.0578150749206543 -2.33656024932861328 0.407384753227233887
1.12411761283874512 2.94924187660217285 0.462225437164306641
2.90081524848937988 -1.4639894962310791 0.132124543190002441
-3.09641218185424805 0.358925580978393555 0.229058355093002319
-4.40284967422485352 -3.3888552188873291 0.0754396542906761169
2.92427182197570801 0.863639354705810547 0.197622060775756836
0.891510367393493652 -0.909611284732818604 0.132708653807640076
0.63914722204208374 1.06723880767822266 0.029577033594250679
-1.18011915683746338 0.0356543660163879395 0.373254537582397461
1.71559333801269531 -2.65130829811096191 0.609609067440032959
-3.21044254302978516 -4.39589214324951172 0.817880153656005859
-0.699900209903717041 -1.12252473831176758 0.00636965781450271606
3.05567288398742676 -0.371845543384552002 0.530571579933166504
1.35587644577026367 -0.152496322989463806 0.204649388790130615
-2.37588906288146973 -1.8199317455291748 0.180702686309814453
2.47888898849487305 -1.79697775840759277 0.0355657562613487244
-4.26555204391479492 -3.28680944442749023 0.581747293472290039
2.81070208549499512 -1.09096229076385498 0.479468613862991333
1.1798940896987915 -0.57815021276473999 0.189285978674888611
-3.37944769859313965 -4.39312076568603516 0.465499192476272583
-2.44310808181762695 -1.9629131555557251 0.510367274284362793
2.93532538414001465 -1.11150515079498291 0.19562162458896637
1.2088017463684082 -0.878795266151428223 0.194284230470657349
3.13886857032775879 -0.569475293159484863 0.320681869983673096
-1.83351194858551025 -2.52858495712280273 0.360994637012481689
2.99168825149536133 -1.31992852687835693 0.423227250576019287
-2.99130511283874512 0.0821478366851806641 0.238796025514602661
-1.46185433864593506 0.0918959453701972961 0.374171435832977295
1.70910656452178955 -2.64711284637451172 0.323324829339981079
3.02397894859313965 0.629397153854370117 0.119029715657234192
1.89086377620697021 -2.50222015380859375 0.477067053318023682
-2.17301726341247559 -1.92877483367919922 0.310912668704986572
0.729408323764801025 1.25141668319702148 0.136169657111167908
0.99599754810333252 2.80911970138549805 0.333101123571395874
-3.16239142417907715 -4.34915494918823242 0.599775552749633789
1.249733567237854 -0.354395210742950439 0.203555941581726074
-4.26715850830078125 -3.39293026924133301 0.257837504148483276
3.10459303855895996 0.830640017986297607 0.0624063163995742798
1.04231870174407959 -0.747009873390197754 0.123844772577285767
-4.3730463981628418 -3.17686128616333008 0.0319249182939529419
-1.29586410522460938 0.200816333293914795 0.460853785276412964
-2.93797993659973145 0.291869103908538818 0.0989488512277603149
2.62544822692871094 -1.64552021026611328 0.0804249197244644165
2.77625584602355957 -1.23839008808135986 0.265118390321731567
1.05136823654174805 -1.02531850337982178 0.217056974768638611
-2.40634536743164062 -2.00584197044372559 0.303786426782608032
-3.36297106742858887 -4.4554743766784668 0.660961389541625977
-1.87925088405609131 -2.39404845237731934 0.505271673202514648
-0.833528757095336914 -1.03126275539398193 0.122072353959083557
-1.31984686851501465 0.120946548879146576 0.240426957607269287
2.9426577091217041 -1.24987149238586426 0.578521728515625
1.1531444787979126 2.81446290016174316 0.572196602821350098
2.76558661460876465 -1.25765514373779297 0.43906867504119873
-3.0247492790222168 0.226987168192863464 0.33066973090171814
-4.27068376541137695 -3.3025357723236084 0.410131901502609253
3.02647805213928223 -0.517370820045471191 0.44590294361114502
2.90976953506469727 -1.34064507484436035 0.273134440183639526
1.18183326721191406 2.79630422592163086 0.407905519008636475
1.05899631977081299 -0.920271635055541992 0.0941692888736724854
2.9608614444732666 -1.14025008678436279 0.351074337959289551
0.58696901798248291 1.00620436668395996 0.167886659502983093
1.80431663990020752 -2.64230012893676758 0.478163927793502808
3.03360652923583984 0.745496392250061035 0.22551611065864563
-4.2765045166015625 -3.29825019836425781 0.0607584938406944275
0.984207272529602051 -1.05490481853485107 0.0814206972718238831
2.75527238845825195 -1.46977615356445312 0.179132312536239624
1.79469919204711914 -2.51645183563232422 0.59337913990020752
-2.43374013900756836 -1.85203063488006592 0.317081600427627563
1.00644135475158691 -0.818850219249725342 0.252341926097869873
-1.92938137054443359 -2.41604089736938477 0.331563353538513184
-3.31623220443725586 -4.33030557632446289 0.60471343994140625
1.35588240623474121 -0.171548381447792053 0.061095505952835083
3.08697724342346191 -0.400846689939498901 0.386263012886047363
-3.02937793731689453 0.180220454931259155 0.141199082136154175
-4.38270473480224609 -3.31995344161987305 0.215537756681442261
0.717103362083435059 1.0992506742477417 0.144394189119338989
2.5621497631072998 -1.84022605419158936 0.139862582087516785
1.28982663154602051 -0.517556428909301758 0.126796841621398926
1.40571057796478271 -0.276415556669235229 0.1630258709192276
1.77582192420959473 -2.49126696586608887 0.398518919944763184
-1.95258247852325439 -2.49710488319396973 0.446087360382080078
0.994130253791809082 2.94292497634887695 0.415603816509246826
2.93770790100097656 -1.27023541927337646 0.16163790225982666
-2.95581936836242676 0.2912711501121521 0.23456534743309021
1.05682945251464844 2.73393988609313965 0.42407071590423584
2.93852758407592773 0.729873299598693848 0.131341978907585144
-1.19119846820831299 0.0752065107226371765 0.498874127864837646
-1.30115270614624023 0.0935175120830535889 0.386718541383743286
-0.860599637031555176 -1.07227158546447754 0.00190829671919345856
1.06210935115814209 -0.674537539482116699 0.228780627250671387
2.88047075271606445 -1.26344704627990723 0.367715984582901001
1.16576576232910156 -0.766379833221435547 0.132458478212356567
0.930596590042114258 -0.98372805118560791 0.224612489342689514
-2.37307214736938477 -1.9436347484588623 0.204384788870811462
-2.36706399917602539 -1.9867088794708252 0.415250778198242188
-0.729988515377044678 -1.13013803958892822 0.121416375041007996
-3.1924281120300293 -4.30164241790771484 0.748078763484954834
1.25212454795837402 -0.207884237170219421 0.212762326002120972
2.52773475646972656 -1.68918013572692871 0.0326964408159255981
1.09585368633270264 -0.850565731525421143 0.180067941546440125
-3.07618880271911621 0.165847793221473694 0.247455194592475891
1.20727479457855225 -0.459653317928314209 0.189101293683052063
2.97279763221740723 0.854701459407806396 0.0944863557815551758
-1.82591927051544189 -2.49102020263671875 0.478519797325134277
3.05255651473999023 0.738395392894744873 0.102101176977157593
2.90273427963256836 -1.22771215438842773 0.472121715545654297
-4.39197874069213867 -3.28258752822875977 -2.68453732132911682e-06
2.8130648136138916 -1.35779345035552979 0.219827935099601746
-2.99431514739990234 0.390724152326583862 0.266490757465362549
-3.26936054229736328 -4.40034961700439453 0.454368174076080322
-2.04081964492797852 -2.27675318717956543 0.498402208089828491
-4.339874267578125 -3.32200431823730469 0.508592426776885986
0.607229053974151611 1.11291670799255371 0.151849463582038879
1.07937479019165039 2.83584332466125488 0.457861959934234619
2.8799738883972168 -1.06671011447906494 0.354935735464096069
1.1599118709564209 -0.888678610324859619 0.0698435753583908081
3.12982964515686035 -0.515982985496520996 0.476382911205291748
1.01832234859466553 -0.923723757266998291 0.204528450965881348
0.632957577705383301 1.22321832180023193 0.17418476939201355
-1.33684170246124268 0.183707714080810547 0.342500925064086914
1.11245048046112061 2.84981942176818848 0.348368257284164429
3.08820176124572754 -0.464183777570724487 0.570161581039428711
0.98227304220199585 -0.828267276287078857 0.0936080813407897949
0.676462650299072266 1.15723693370819092 -0.0107468143105506897
-2.50814938545227051 -1.98519313335418701 0.314456462860107422
-1.19244158267974854 0.137365967035293579 0.384528428316116333
-1.26838481426239014 -0.00419038534164428711 0.339601218700408936
2.76883196830749512 -1.16426360607147217 0.397588372230529785
-1.37641167640686035 0.100049056112766266 0.455606162548065186
-0.65534675121307373 -1.06904840469360352 0.0929885655641555786
1.26443839073181152 -0.275168687105178833 0.140854567289352417
2.57575464248657227 -1.7782595157623291 0.0269674025475978851
-2.3605339527130127 -1.90752136707305908 0.353469312191009521
-0.772089123725891113 -1.05051171779632568 0.0474593304097652435
-1.83855438232421875 -2.43630194664001465 0.393733203411102295
3.04724884033203125 -0.546544432640075684 0.343276292085647583
1.08484840393066406 -0.827223718166351318 0.067441202700138092
-1.96099174022674561 -2.33842897415161133 0.401574224233627319
2.89281296730041504 -1.3226553201675415 0.466204613447189331
-3.08217215538024902 0.254020631313323975 0.211250811815261841
1.05576205253601074 -0.580119073390960693 0.218225151300430298
3.12071132659912109 0.751643836498260498 0.189503788948059082
0.707304000854492188 1.23043835163116455 0.0481765531003475189
-1.28139853477478027 0.0865191146731376648 0.479619383811950684
1.78564262390136719 -2.60398697853088379 0.647957384586334229
1.12910783290863037 -0.925840616226196289 0.221561133861541748
-2.31115484237670898 -1.86678230762481689 0.226577669382095337
1.1873706579208374 2.84155917167663574 0.491057336330413818
1.33938932418823242 -0.363745808601379395 0.222350627183914185
1.81946289539337158 -2.57049703598022461 0.409741073846817017
-2.26119756698608398 -1.91678166389465332 0.294933617115020752
-2.44750070571899414 -1.95030367374420166 0.396220564842224121
-2.46246123313903809 -1.97327685356140137 0.237667888402938843
1.05010628700256348 -1.00619089603424072 0.119057521224021912
1.81043696403503418 -2.59897255897521973 0.55617600679397583
1.05685842037200928 -0.659777522087097168 0.112758032977581024
2.57835555076599121 -1.62338137626647949 0.000593753764405846596
-3.02437281608581543 0.295277506113052368 0.0780668482184410095
2.55281710624694824 -1.73506844043731689 0.104574069380760193
-4.37220191955566406 -3.30899763107299805 0.0988149270415306091
1.21386623382568359 -0.379089564085006714 0.279376029968261719
-2.96856546401977539 0.205086171627044678 0.237955451011657715
-2.44186949729919434 -1.87194430828094482 0.1995353102684021
-1.26188755035400391 0.112507842481136322 0.303351789712905884
1.29513776302337646 -0.291389644145965576 0.239870816469192505
-4.22469425201416016 -3.27683186531066895 0.507379770278930664
-0.776435554027557373 -1.14153242111206055 0.0384435653686523438
0.678859055042266846 1.13290894031524658 0.0763519853353500366
-3.33324861526489258 -4.42846584320068359 0.526118338108062744
3.02510976791381836 -0.409296184778213501 0.442319899797439575
0.933427035808563232 -1.00099408626556396 0.143509209156036377
1.73870730400085449 -2.59175300598144531 0.477418333292007446
0.966898798942565918 -1.05419480800628662 0.200945034623146057
-4.21393918991088867 -3.35191226005554199 0.377158373594284058
3.0037229061126709 0.851969361305236816 0.211274102330207825
-3.05760717391967773 0.0841226428747177124 0.285789936780929565
-1.36297369003295898 0.0877089723944664001 0.334522336721420288
2.87393069267272949 -1.34369432926177979 0.366195648908615112
-0.687313199043273926 -1.04998445510864258 -0.024303218349814415
-4.26186704635620117 -3.34869170188903809 0.53179556131362915
0.666864573955535889 1.03889679908752441 0.133361369371414185
1.871925950050354 -2.50962305068969727 0.607728362083435059
-2.41659307479858398 -1.91203784942626953 0.269537687301635742
3.10863327980041504 -0.372481316328048706 0.455591708421707153
1.05196845531463623 2.80293536186218262 0.389203011989593506
2.79380702972412109 -1.31186163425445557 0.391547858715057373
2.98967218399047852 0.784927546977996826 0.149464935064315796
-3.04061794281005859 0.329446554183959961 0.273353785276412964
-1.90349805355072021 -2.49763250350952148 0.386668801307678223
-4.31040334701538086 -3.23027396202087402 0.0504645630717277527
3.03264570236206055 -0.507487893104553223 0.540869474411010742
1.02126646041870117 2.87695622444152832 0.35416412353515625
0.962911367416381836 -0.926252782344818115 0.148845985531806946
3.08178615570068359 -0.491365194320678711 0.402914673089981079
2.85313129425048828 -1.14383041858673096 0.44821929931640625
1.33179569244384766 -0.284384280443191528 0.175301477313041687
3.00943732261657715 0.706695377826690674 0.166737139225006104
1.22708272933959961 -0.633398711681365967 0.174397677183151245
1.85094535350799561 -2.56709718704223633 0.476795434951782227
2.93448495864868164 -1.27097415924072266 0.417764782905578613
-2.37975692749023438 -1.84628653526306152 0.266774773597717285
0.691118121147155762 1.16209495067596436 0.173042967915534973
-4.34015369415283203 -3.3063957691192627 0.433591008186340332
-1.90642023086547852 -2.4254302978515625 0.419561982154846191
2.94326329231262207 -1.10064733028411865 0.267758399248123169
1.0503695011138916 -0.746736705303192139 0.233599156141281128
1.11102771759033203 2.90570664405822754 0.40495532751083374
-3.35980439186096191 -4.42194414138793945 0.596132397651672363
-2.98514795303344727 0.253815233707427979 0.179145514965057373
2.93067669868469238 -1.29595434665679932 0.522585272789001465
1.17158031463623047 -0.529203653335571289 0.242630571126937866
-2.46695613861083984 -1.92721283435821533 0.329541832208633423
1.01205527782440186 2.85054779052734375 0.435418188571929932
1.76922976970672607 -2.68123698234558105 0.527500689029693604
2.88037633895874023 -1.27670514583587646 0.287646859884262085
2.8491973876953125 -1.2557063102722168 0.433228850364685059
1.05952394008636475 2.91999435424804688 0.469768881797790527
-1.22126674652099609 -0.00667816400527954102 0.411947369575500488
2.61486649513244629 -1.71214079856872559 0.0620851218700408936
2.90284824371337891 -1.20722126960754395 0.333492130041122437
2.97129559516906738 0.775610387325286865 0.222919762134552002
-3.03280782699584961 0.235226631164550781 0.26256716251373291
-1.24490690231323242 0.0567123964428901672 0.361972391605377197
-4.38213586807250977 -3.38521170616149902 0.193416833877563477
-1.85034286975860596 -2.48985409736633301 0.306549906730651855
-4.20447778701782227 -3.3188164234161377 0.435906827449798584
3.0718235969543457 0.780850887298583984 0.152603462338447571
1.15474104881286621 -0.816920101642608643 0.182041093707084656
-3.00666713714599609 0.156163379549980164 0.210499271750450134
1.84550654888153076 -2.58130216598510742 0.611441314220428467
1.12936687469482422 -0.667586326599121094 0.228868380188941956
2.9851071834564209 0.751100361347198486 0.0878868028521537781
-2.34120774269104004 -1.9805445671081543 0.353591769933700562
-1.90655779838562012 -2.52081155776977539 0.488354951143264771
1.14971721172332764 2.84864425659179688 0.433293908834457397
-0.718917310237884521 -1.07902312278747559 0.0748854950070381165
3.01773262023925781 0.811031699180603027 0.0737594962120056152
0.638170421123504639 1.16490495204925537 0.116995379328727722
-3.18923354148864746 -4.38156414031982422 0.757465958595275879
0.886516451835632324 -0.944252550601959229 0.196861207485198975
-3.37339568138122559 -4.45562934875488281 0.483720600605010986
1.13808298110961914 -0.853968143463134766 0.131588250398635864
2.85686230659484863 -1.0682072639465332 0.4146537184715271
-2.39793920516967773 -1.95279443264007568 0.466340333223342896
3.06127095222473145 0.671851813793182373 0.153384491801261902
1.0858079195022583 -0.725668549537658691 0.18511316180229187
-1.22101688385009766 0.0394643023610115051 0.455464631319046021
1.00308799743652344 -0.987373054027557373 0.201637282967567444
-2.35570526123046875 -1.92602229118347168 0.274163097143173218
1.35879206657409668 -0.190707385540008545 0.155198380351066589
2.88197898864746094 -1.1904141902923584 0.517162322998046875
-0.837342619895935059 -1.0906989574432373 0.104740649461746216
-3.08635044097900391 0.221167862415313721 0.332464396953582764
1.07481551170349121 2.86619138717651367 0.302038669586181641
2.49412965774536133 -1.73693954944610596 0.0532001443207263947
1.85180091857910156 -2.49730849266052246 0.524755477905273438
