ply
format ascii 1.0
element vertex 224
comment vertices
property float x
property float y
property float z
end_header
1.19035828113555908 -0.0669829472899436951 -0.0911950021982192993
-1.58914589881896973 -1.27441203594207764 0.0654763057827949524
0.590115547180175781 -1.11534309387207031 -0.21777556836605072
0.584312856197357178 -0.719099521636962891 0.130127757787704468
-1.32579255104064941 -1.41359364986419678 -0.0455881096422672272
-0.876424312591552734 -0.607089400291442871 0.362263023853302002
-0.734506309032440186 -0.642006456851959229 0.194096237421035767
0.258373767137527466 -0.893431961536407471 -0.0186606794595718384
-1.54793035984039307 -1.30995261669158936 0.1404285728931427
0.614318490028381348 -0.823531985282897949 -0.108108602464199066
-0.804431438446044922 -0.544540286064147949 0.339243799448013306
-1.64566385746002197 -1.14216804504394531 0.0972177013754844666
0.904938697814941406 -0.0626245290040969849 0.0290153883397579193
-1.47881364822387695 -1.33991098403930664 -0.0298265516757965088
-1.31689453125 -1.35132861137390137 0.0936350822448730469
-0.903502702713012695 -0.702900528907775879 0.310421943664550781
-1.64040517807006836 -1.26762962341308594 0.272548675537109375
-0.807980716228485107 -0.59234309196472168 0.297176986932754517
-1.52356934547424316 -1.33142149448394775 0.120724059641361237
0.976950287818908691 -0.238202854990959167 -0.105285570025444031
0.476654052734375 -0.766931653022766113 -0.0795080512762069702
-0.747725009918212891 -0.726286172866821289 0.45489269495010376
-0.828415393829345703 -0.63076317310333252 0.417330920696258545
-0.750514686107635498 -0.663041472434997559 0.460782557725906372
0.399721264839172363 -0.84220653772354126 0.100392356514930725
-0.950936317443847656 -0.581739902496337891 0.310434192419052124
-1.57590854167938232 -1.17450368404388428 0.0149495974183082581
-1.52990412712097168 -1.1920323371887207 0.113144554197788239
0.478959560394287109 -0.998309195041656494 -0.0114624723792076111
-1.30516636371612549 -1.33877849578857422 0.0913852304220199585
-0.803659439086914062 -0.721993207931518555 0.389754682779312134
-0.806359648704528809 -0.665453910827636719 0.179119765758514404
0.694642424583435059 -0.757230162620544434 -0.0551027841866016388
-1.47443473339080811 -1.18366503715515137 0.190431192517280579
-0.799285769462585449 -0.686687052249908447 0.357728272676467896
0.690063595771789551 -0.905163586139678955 -0.0666235089302062988
0.956942141056060791 -0.028564058244228363 0.00439358875155448914
-0.786154627799987793 -0.697097599506378174 0.371239125728607178
-1.62271618843078613 -1.21090269088745117 0.128045707941055298
-1.4997255802154541 -1.32245981693267822 0.0737176313996315002
0.506830334663391113 -0.981029331684112549 -0.230710536241531372
-0.641276776790618896 -0.750348448753356934 0.424691885709762573
0.799255669116973877 -0.201769113540649414 -0.0366452150046825409
-1.56265449523925781 -1.25841724872589111 0.13323839008808136
1.22648954391479492 -0.273348689079284668 -0.00893475115299224854
-0.805619001388549805 -0.549719393253326416 0.281589090824127197
-0.818834006786346436 -0.601723551750183105 0.350871741771697998
-0.858915448188781738 -0.604558885097503662 0.277791351079940796
-0.795758605003356934 -0.722303807735443115 0.277185648679733276
-1.6585381031036377 -1.10342264175415039 0.0916601121425628662
-1.48124778270721436 -1.33871400356292725 0.264187008142471313
0.24216538667678833 -0.868048369884490967 0.0926952734589576721
-0.761412262916564941 -0.642532229423522949 0.416720181703567505
-1.35415387153625488 -1.47194361686706543 0.050254330039024353
1.14829647541046143 0.0257222652435302734 -0.0484727025032043457
-1.48010146617889404 -1.24666857719421387 0.0402275212109088898
-0.856504082679748535 -0.598125457763671875 0.412824749946594238
-1.59151363372802734 -1.31175911426544189 0.103183567523956299
-0.786998450756072998 -0.713934957981109619 0.231816321611404419
-0.888926684856414795 -0.559070289134979248 0.327117919921875
-0.828075885772705078 -0.551432013511657715 0.321591734886169434
-0.740977108478546143 -0.696221590042114258 0.351922273635864258
0.448778033256530762 -0.872561931610107422 -0.134652420878410339
-1.60200369358062744 -1.09280586242675781 0.215313166379928589
-1.53584051132202148 -1.15182530879974365 0.127493888139724731
0.324387878179550171 -0.938952863216400146 0.0180016160011291504
-0.85510629415512085 -0.660560250282287598 0.226964265108108521
0.311816692352294922 -0.758760213851928711 0.101772084832191467
-0.794249475002288818 -0.647091090679168701 0.31253284215927124
-1.56356298923492432 -1.2598726749420166 0.142887800931930542
0.960997641086578369 -0.143763482570648193 -0.0426942333579063416
-1.5472947359085083 -1.19088888168334961 0.104800507426261902
1.21348321437835693 -0.0264828652143478394 0.00431548058986663818
-0.917198777198791504 -0.638636767864227295 0.153192460536956787
-1.54602551460266113 -1.24748086929321289 0.165814101696014404
-0.890198051929473877 -0.546709299087524414 0.370625734329223633
-0.898635268211364746 -0.635477662086486816 0.360478460788726807
-1.34416282176971436 -1.31700801849365234 0.0795665904879570007
-1.31184649467468262 -1.39361834526062012 0.0973813235759735107
-0.698747098445892334 -0.675041317939758301 0.410718202590942383
-0.742171645164489746 -0.70947796106338501 0.198231965303421021
1.02058291435241699 -0.221956521272659302 -0.0143964886665344238
0.475140601396560669 -0.83408820629119873 -0.042484767735004425
1.3360297679901123 -0.198382794857025146 -0.0399543456733226776
-1.57519650459289551 -1.3030925989151001 0.123044580221176147
0.534936666488647461 -0.768203437328338623 0.00733235850930213928
0.649359524250030518 -0.911645650863647461 -0.178835839033126831
-0.859246015548706055 -0.640510499477386475 0.248881071805953979
0.903461933135986328 -0.183646351099014282 -0.128611862659454346
-1.58743631839752197 -1.2406078577041626 0.105313502252101898
1.28441512584686279 -0.0872365161776542664 -0.192526906728744507
-0.733156383037567139 -0.647835493087768555 0.327070534229278564
-0.786131560802459717 -0.726245224475860596 0.281088173389434814
-1.63629841804504395 -1.21351635456085205 0.062588915228843689
-0.935190856456756592 -0.602228283882141113 0.257463365793228149
1.12497472763061523 -0.182896524667739868 -0.0971676334738731384
-0.897191464900970459 -0.530397534370422363 0.372705906629562378
-0.877875566482543945 -0.58659815788269043 0.334183156490325928
-0.744098782539367676 -0.769361615180969238 0.233647555112838745
-0.826046228408813477 -0.593825340270996094 0.374433577060699463
-0.813095211982727051 -0.685572206974029541 0.371299147605895996
-0.847537755966186523 -0.57764965295791626 0.261411786079406738
0.860598862171173096 -0.0919530019164085388 -0.0515116006135940552
1.03490769863128662 -0.056484125554561615 0.000984275713562965393
-1.48443591594696045 -1.2454524040222168 0.1218080073595047
-0.76490318775177002 -0.659045398235321045 0.417940258979797363
-1.5814439058303833 -1.25904965400695801 0.0323252305388450623
-0.829823136329650879 -0.765962481498718262 0.213120639324188232
0.85884779691696167 -0.0965300798416137695 0.0550286881625652313
-0.793799161911010742 -0.64450305700302124 0.370250225067138672
0.44302290678024292 -0.77073436975479126 0.132759571075439453
-0.814818918704986572 -0.632747471332550049 0.282708346843719482
0.60521543025970459 -0.817260444164276123 -0.161650687456130981
-0.813207626342773438 -0.609881401062011719 0.253663867712020874
1.18876874446868896 -0.136046275496482849 0.021744750440120697
-0.630704104900360107 -0.798869669437408447 0.433285892009735107
-1.45794558525085449 -1.21352303028106689 0.133207514882087708
0.650076210498809814 -0.810306668281555176 -0.0581484138965606689
-1.45473217964172363 -1.28886628150939941 0.148253545165061951
-1.58050286769866943 -1.15078508853912354 0.046983327716588974
-0.714981615543365479 -0.694565653800964355 0.379548490047454834
-1.60919284820556641 -1.20117223262786865 0.14089164137840271
-0.882085263729095459 -0.722409427165985107 0.19430580735206604
-1.60350191593170166 -1.10466432571411133 0.169413000345230103
0.872926592826843262 -0.188281208276748657 -0.0487004593014717102
-1.38525271415710449 -1.34232485294342041 0.100248120725154877
-0.772501707077026367 -0.561222434043884277 0.276317834854125977
1.32801449298858643 -0.186579927802085876 -0.126434937119483948
-1.36728465557098389 -1.37868571281433105 0.0750953108072280884
0.264617711305618286 -0.817814946174621582 0.0274469926953315735
-0.890349447727203369 -0.562115669250488281 0.332298099994659424
-0.865830540657043457 -0.567190766334533691 0.266637325286865234
0.797616660594940186 -0.119212299585342407 0.0165202617645263672
-1.37665390968322754 -1.32930684089660645 0.0258391350507736206
-0.780390262603759766 -0.621527373790740967 0.473073452711105347
0.581399023532867432 -0.869904637336730957 -0.0280521586537361145
1.11569440364837646 -0.0168669335544109344 -0.0101351328194141388
-1.60634827613830566 -1.23128139972686768 0.0853462964296340942
0.503705799579620361 -1.02864181995391846 -0.134749904274940491
-1.58366930484771729 -1.27749896049499512 0.189282923936843872
-1.67426836490631104 -1.12736928462982178 0.16191565990447998
-0.825928688049316406 -0.590638935565948486 0.221858024597167969
-0.884361565113067627 -0.621361255645751953 0.307391256093978882
0.391202658414840698 -0.813234567642211914 -0.00627854466438293457
-0.738914072513580322 -0.752143561840057373 0.326839566230773926
-0.850289225578308105 -0.553752660751342773 0.298162728548049927
-1.53704929351806641 -1.26082754135131836 0.199088484048843384
0.656664013862609863 -0.711779117584228516 0.0291797444224357605
0.453852921724319458 -0.903204739093780518 0.0722671598196029663
-0.805195629596710205 -0.655846476554870605 0.369890034198760986
-0.844218432903289795 -0.683431506156921387 0.38204270601272583
-0.823601007461547852 -0.593789100646972656 0.305864542722702026
-0.752007842063903809 -0.684766769409179688 0.221261739730834961
-1.54371523857116699 -1.29839599132537842 0.130985841155052185
-1.56529831886291504 -1.09973347187042236 0.0720463022589683533
1.03796720504760742 -0.293274760246276855 -0.0716379433870315552
-0.832277357578277588 -0.673481285572052002 0.18742862343788147
-1.53198695182800293 -1.23946845531463623 0.0480974391102790833
0.539863705635070801 -0.929152131080627441 -0.134260952472686768
-0.710672974586486816 -0.605263173580169678 0.343716681003570557
0.721712946891784668 -0.816119372844696045 -0.0936354398727416992
-0.845843076705932617 -0.627456188201904297 0.305357873439788818
-1.57136106491088867 -1.21118736267089844 0.174836620688438416
-0.827398180961608887 -0.549027323722839355 0.269643723964691162
-0.774824976921081543 -0.729879856109619141 0.357103496789932251
-1.43005847930908203 -1.31678879261016846 0.0399330146610736847
0.555028438568115234 -0.988175511360168457 -0.0833237692713737488
-1.54158151149749756 -1.09229576587677002 0.24253353476524353
-0.832648754119873047 -0.599578022956848145 0.263564407825469971
-0.841865062713623047 -0.746107220649719238 0.294497132301330566
0.780111968517303467 -0.148841589689254761 0.0162026062607765198
0.476992040872573853 -0.817927122116088867 -0.0898172631859779358
1.0812685489654541 -0.00791553780436515808 0.0537646301090717316
-1.38072371482849121 -1.30312776565551758 0.0846917703747749329
0.660502314567565918 -0.823013663291931152 -0.132681608200073242
-1.5183260440826416 -1.35515832901000977 0.123924098908901215
-0.819920599460601807 -0.598089158535003662 0.342900276184082031
1.25960195064544678 -0.0713024362921714783 -0.0345237031579017639
-1.50963461399078369 -1.32375490665435791 0.139584943652153015
-1.51324129104614258 -1.29992055892944336 -0.0398082435131072998
-0.752532601356506348 -0.663570523262023926 0.370030999183654785
-1.61096811294555664 -1.21277785301208496 0.10881766676902771
-0.731180071830749512 -0.698928356170654297 0.357544571161270142
-0.899373531341552734 -0.512499690055847168 0.389274865388870239
-1.59713304042816162 -1.16510820388793945 0.096576884388923645
0.42877468466758728 -0.958247005939483643 -0.0571450367569923401
-0.82874220609664917 -0.580682933330535889 0.348402529954910278
-0.74539637565612793 -0.673505067825317383 0.378558903932571411
-0.814021527767181396 -0.673505008220672607 0.208593294024467468
0.63214719295501709 -0.794479548931121826 0.015816371887922287
0.554817676544189453 -0.847103118896484375 0.00608655065298080444
-0.697647273540496826 -0.685553014278411865 0.367378979921340942
-1.55114138126373291 -1.26920592784881592 0.125504761934280396
-1.47425806522369385 -1.35870635509490967 0.194906100630760193
-0.808802366256713867 -0.682784318923950195 0.395060271024703979
-0.885717093944549561 -0.565450131893157959 0.361071884632110596
-1.59419167041778564 -1.23084330558776855 0.192047953605651855
1.27197515964508057 -0.0343124344944953918 -0.145689725875854492
-0.837770283222198486 -0.568996191024780273 0.400820076465606689
-0.785774290561676025 -0.651935338973999023 0.39329904317855835
-0.710092782974243164 -0.696742653846740723 0.415466487407684326
-0.892637968063354492 -0.670235991477966309 0.263081282377243042
-0.81608814001083374 -0.669616580009460449 0.263041406869888306
1.17046952247619629 0.101294316351413727 0.0713160708546638489
0.651409506797790527 -0.89757835865020752 -0.0647616684436798096
-0.829328000545501709 -0.607590794563293457 0.230495095252990723
0.901616573333740234 -0.0933150649070739746 -0.0298814252018928528
1.16537141799926758 -0.0675301328301429749 -9.04798507690429688e-05
-1.33059036731719971 -1.40118467807769775 0.0619575232267379761
-1.55075860023498535 -1.29417932033538818 0.131032288074493408
-0.913255810737609863 -0.605657517910003662 0.302761942148208618
-0.837309718132019043 -0.63059532642364502 0.305678308010101318
-0.799787044525146484 -0.66353154182434082 0.366914480924606323
0.54323810338973999 -0.771213352680206299 -0.0804669782519340515
-1.46524536609649658 -1.24020826816558838 0.158352196216583252
-1.58101534843444824 -1.10411953926086426 0.221514523029327393
-0.853210806846618652 -0.578931272029876709 0.293980419635772705
0.502867758274078369 -0.910589158535003662 -0.199001669883728027
-1.39303457736968994 -1.26106381416320801 0.123452074825763702
1.2171403169631958 -0.209011465311050415 -0.111138805747032166
-1.38425993919372559 -1.37607383728027344 0.100682303309440613
-0.918830573558807373 -0.561681032180786133 0.346437156200408936
-1.639198899269104 -1.18649029731750488 0.0775646492838859558
-0.866627991199493408 -0.561158359050750732 0.255398213863372803
