ply
format ascii 1.0
element vertex 126
comment vertices
property float x
property float y
property float z
end_header
-1.87155365943908691 1.02514433860778809 0.569286882877349854
-0.939126670360565186 0.584557533264160156 0.423493862152099609
-0.633769094944000244 0.690105795860290527 0.41173166036605835
-0.113742679357528687 -1.09744477272033691 0.496504038572311401
-1.71823239326477051 1.32131481170654297 0.482398539781570435
-0.305718600749969482 -0.856462478637695312 0.238385856151580811
-0.890817046165466309 0.576065421104431152 0.478082984685897827
-0.815905928611755371 0.627156317234039307 0.552941560745239258
-0.303798675537109375 -1.14722263813018799 0.305886030197143555
-1.98624694347381592 1.09733033180236816 0.307988196611404419
-0.23016907274723053 -1.0243452787399292 0.605200409889221191
0.00285297632217407227 -1.02384388446807861 0.291322231292724609
-0.797778785228729248 0.824418902397155762 0.32053905725479126
-0.69272458553314209 0.730317234992980957 0.115341141819953918
-0.817366480827331543 0.599616646766662598 0.229393988847732544
-0.935897171497344971 0.621255755424499512 0.607274711132049561
-0.0132559165358543396 -0.926309168338775635 0.433067142963409424
0.0698238462209701538 -1.01632845401763916 0.603146672248840332
-0.926684319972991943 0.859163641929626465 0.361258327960968018
-1.880531907081604 1.07029223442077637 0.366012006998062134
0.332167148590087891 1.05874085426330566 0.000705391168594360352
-0.758850038051605225 0.610557377338409424 0.513688027858734131
-0.102175362408161163 -0.895918369293212891 0.486403465270996094
-0.132046937942504883 -1.06929028034210205 0.149805530905723572
-0.921531558036804199 0.787163674831390381 0.710559427738189697
-0.204678326845169067 -1.14463543891906738 0.475083142518997192
-1.76433742046356201 1.18567168712615967 0.573434114456176758
-0.981786251068115234 0.631646811962127686 0.370872199535369873
-0.055573001503944397 -0.798476576805114746 0.566305875778198242
-0.330218523740768433 -1.01009392738342285 0.331918269395828247
-0.797064423561096191 0.667249202728271484 0.602341890335083008
-1.988350510597229 1.00827324390411377 0.437284290790557861
-1.86402404308319092 1.14883220195770264 0.462141156196594238
-0.809775710105895996 0.644891738891601562 0.396596938371658325
-0.224036172032356262 -1.025795578956604 0.307115495204925537
-0.679510354995727539 0.742466330528259277 0.502409815788269043
-1.81999719142913818 1.23306953907012939 0.335480690002441406
0.0565534383058547974 -1.12738120555877686 0.378833025693893433
-0.208390966057777405 -0.956348657608032227 0.607562839984893799
-0.712180852890014648 0.656974077224731445 0.302707016468048096
-0.932575821876525879 0.626912713050842285 0.547100484371185303
-0.254029303789138794 -0.953875958919525146 0.444208830595016479
-0.841452121734619141 0.614004135131835938 0.604169487953186035
-0.253676772117614746 -1.01965141296386719 0.432840883731842041
-0.862903714179992676 0.808383524417877197 0.475059568881988525
-0.907952010631561279 0.555959939956665039 0.519756197929382324
-0.0813546478748321533 -1.16076040267944336 0.350890517234802246
-0.138365060091018677 -1.07964920997619629 0.551816403865814209
-0.145230814814567566 -0.973573029041290283 0.379721760749816895
0.028994143009185791 -0.961449801921844482 0.225215122103691101
-0.133995294570922852 -1.00008189678192139 0.61164247989654541
-0.0337968654930591583 -0.843040883541107178 0.495187371969223022
-0.895701348781585693 0.66791003942489624 0.712866008281707764
-0.150739878416061401 -1.08738410472869873 0.430977284908294678
0.252140820026397705 1.00462806224822998 -0.0128479599952697754
-1.95140016078948975 1.08795154094696045 0.508737444877624512
-0.844924747943878174 0.712190210819244385 0.737815439701080322
-0.35370182991027832 -1.20017409324645996 0.326020300388336182
-0.239119797945022583 -0.884929835796356201 0.528411984443664551
-0.836300253868103027 0.644448518753051758 0.320746541023254395
-0.859268367290496826 0.935111880302429199 0.30019611120223999
-0.20145106315612793 -1.04238414764404297 0.477042406797409058
-0.232839703559875488 -0.995938479900360107 0.558615624904632568
-1.73366439342498779 1.35844409465789795 0.556951999664306641
-0.736957848072052002 0.598787367343902588 0.467215001583099365
-0.149434730410575867 -1.11904573440551758 0.340496659278869629
-0.890809357166290283 0.813387453556060791 0.676133573055267334
-0.980394363403320312 0.642983794212341309 0.547642886638641357
-0.832955121994018555 0.578268826007843018 0.553431868553161621
-1.78498828411102295 1.18948161602020264 0.40994793176651001
-0.868796169757843018 0.664846479892730713 0.534349203109741211
-0.707181930541992188 0.620831429958343506 0.47732996940612793
-0.740774989128112793 0.733175337314605713 0.320055663585662842
-1.80836355686187744 1.12952721118927002 0.402150541543960571
-0.883835196495056152 0.762446701526641846 0.636279404163360596
-0.225165292620658875 -0.751504242420196533 0.361952066421508789
-0.942661762237548828 0.606084942817687988 0.543056607246398926
-0.0896767526865005493 -1.03421449661254883 0.200031772255897522
-0.947357594966888428 0.854230701923370361 0.582355082035064697
-0.0675117224454879761 -0.964048385620117188 0.242125093936920166
0.0260690599679946899 -1.04079222679138184 0.457515537738800049
-1.82338452339172363 1.21595275402069092 0.522817909717559814
-1.92424523830413818 1.09168565273284912 0.295812338590621948
-0.686953544616699219 0.963879704475402832 0.229304566979408264
-0.965281009674072266 0.680381894111633301 0.482538700103759766
-0.0154926478862762451 -0.940326690673828125 0.399568855762481689
-0.120383903384208679 -0.999287426471710205 0.502244830131530762
-0.849597930908203125 0.529516518115997314 0.340832918882369995
-0.2966136634349823 -1.1953054666519165 0.346194595098495483
-0.27822759747505188 -0.953383505344390869 0.598622381687164307
-0.914607882499694824 0.699069857597351074 0.306584298610687256
-0.717216789722442627 0.895609855651855469 0.485394895076751709
-0.159631475806236267 -0.943691849708557129 0.461633592844009399
-0.218013375997543335 -0.926353573799133301 0.640864729881286621
-0.309206575155258179 -0.965507745742797852 0.52985072135925293
-0.0994240939617156982 -0.820730388164520264 0.492521047592163086
-0.946691215038299561 0.611954808235168457 0.453159689903259277
-0.10865078866481781 -1.00168585777282715 0.41238740086555481
-0.939279317855834961 0.61507880687713623 0.491865932941436768
-0.127334043383598328 -0.887443304061889648 0.499117612838745117
-0.0555711090564727783 -1.07293713092803955 0.259613990783691406
-0.0482871681451797485 -0.738874733448028564 0.539747416973114014
-0.288941860198974609 -1.01399719715118408 0.255926012992858887
-1.84991812705993652 1.01161873340606689 0.465706616640090942
-0.269362032413482666 -1.09200489521026611 0.394109785556793213
-0.259948313236236572 -1.11981534957885742 0.335947155952453613
-0.243479803204536438 -1.01653742790222168 0.519530951976776123
-0.835415363311767578 0.784845709800720215 0.28070533275604248
-0.906932950019836426 0.693540573120117188 0.653654932975769043
-1.89181029796600342 1.14219355583190918 0.241207897663116455
-0.0836747884750366211 -1.0158991813659668 0.363024890422821045
-0.140905857086181641 -0.941922605037689209 0.526186883449554443
-0.190344572067260742 -0.947127044200897217 0.568198740482330322
-0.169575750827789307 -0.7923775315284729 0.490644931793212891
-1.91775107383728027 1.00045943260192871 0.383561998605728149
-0.286646902561187744 -1.19575822353363037 0.357054799795150757
-0.847253680229187012 0.603623569011688232 0.54294973611831665
-0.937720417976379395 0.590964853763580322 0.597936928272247314
-0.933341622352600098 0.604526877403259277 0.34022986888885498
-0.362893372774124146 -1.0929492712020874 0.246655464172363281
-1.84782075881958008 1.15117871761322021 0.351988136768341064
-0.831871271133422852 0.643395483493804932 0.271914482116699219
-0.877695083618164062 0.769889414310455322 0.521377682685852051
-0.853888094425201416 0.828522145748138428 0.657178401947021484
0.00515626370906829834 -0.998336553573608398 0.378969252109527588
0.0651317983865737915 -0.996096789836883545 0.386259138584136963
