ply
format ascii 1.0
element vertex 256
comment vertices
property float x
property float y
property float z
end_header
1.91837143898010254 0.925285935401916504 0.18677869439125061
0.352424442768096924 -1.03181648254394531 0.471632897853851318
0.817002773284912109 0.33731997013092041 0.119139552116394043
1.26717019081115723 -0.622957944869995117 0.0416764803230762482
0.738052487373352051 -0.296164900064468384 0.624480783939361572
0.498952955007553101 -0.912604331970214844 -0.203450471162796021
1.30709648132324219 0.383113563060760498 -0.0988368988037109375
0.724077582359313965 -0.522129356861114502 0.153172552585601807
1.19131851196289062 -0.399524718523025513 0.440732508897781372
0.252508401870727539 -0.931102156639099121 0.114457964897155762
1.04441499710083008 0.526234030723571777 0.363340377807617188
0.848736345767974854 -0.178131163120269775 0.257303416728973389
0.971406698226928711 -0.647128820419311523 0.37940177321434021
0.404490530490875244 -0.657179594039916992 0.135253041982650757
0.437654614448547363 -0.734058499336242676 0.463703066110610962
1.06897056102752686 -0.434823274612426758 0.173997104167938232
1.05854320526123047 -0.529456734657287598 -0.144631117582321167
1.07718431949615479 0.467793822288513184 0.0804638266563415527
0.89592278003692627 -0.761127471923828125 0.13319358229637146
0.667666971683502197 -0.471705079078674316 0.412151336669921875
0.515332698822021484 -0.970734119415283203 0.109613090753555298
1.29033565521240234 -0.605074405670166016 0.312677383422851562
0.985643744468688965 -0.252509146928787231 0.556166470050811768
1.70575213432312012 0.916377484798431396 0.054258495569229126
0.902485847473144531 -0.406175613403320312 0.348364591598510742
1.88772678375244141 0.974743783473968506 0.418668389320373535
1.11996579170227051 -0.217243164777755737 0.154087066650390625
0.626487314701080322 -1.06323492527008057 -0.101194389164447784
0.928920149803161621 -0.575436830520629883 0.0317801013588905334
2.09228658676147461 0.991453826427459717 0.290303558111190796
1.1043548583984375 -0.686544239521026611 0.151924312114715576
1.15397548675537109 0.474265396595001221 -0.186023563146591187
1.32245492935180664 -0.489792734384536743 -0.090069405734539032
0.787668168544769287 -0.60202491283416748 0.330825924873352051
1.95274603366851807 0.869054198265075684 0.00346216559410095215
1.04313361644744873 -0.27363237738609314 0.323801904916763306
0.352724730968475342 -0.939555644989013672 -0.0789909958839416504
0.291168063879013062 -0.920361220836639404 0.327858090400695801
0.844194769859313965 -0.474216997623443604 0.516987264156341553
0.821378707885742188 -0.248085051774978638 0.432720988988876343
1.1199268102645874 -0.53705286979675293 0.344797462224960327
0.974036157131195068 0.411251544952392578 0.21816486120223999
1.84296751022338867 0.765543758869171143 0.217893317341804504
1.00941669940948486 0.377300262451171875 -0.0579402297735214233
1.15466582775115967 -0.441471099853515625 0.0214453637599945068
0.916192948818206787 -0.532528042793273926 0.22937379777431488
1.20840787887573242 -0.377002477645874023 0.270263433456420898
2.02640771865844727 0.823753595352172852 0.272257238626480103
0.921715736389160156 -0.414926350116729736 0.0828407332301139832
0.771192252635955811 -0.6556662917137146 0.0729786157608032227
0.469218194484710693 -1.06949996948242188 -0.136678725481033325
0.463022112846374512 -0.824209332466125488 0.0893652439117431641
0.751675188541412354 -0.376390755176544189 0.321464300155639648
1.80265629291534424 0.925435781478881836 0.298981606960296631
0.580216646194458008 -0.920312941074371338 -0.0682572871446609497
1.20746421813964844 0.424393177032470703 0.00821822881698608398
0.932381331920623779 0.427975863218307495 0.060710906982421875
0.307385057210922241 -0.892006456851959229 0.500378847122192383
0.729191899299621582 -0.367077767848968506 0.49339216947555542
1.13756227493286133 0.378217130899429321 0.170569702982902527
0.950116515159606934 -0.381840795278549194 0.516359210014343262
1.83720755577087402 0.96175837516784668 0.0790703892707824707
0.827212274074554443 -0.189369291067123413 0.620398521423339844
1.1306149959564209 -0.253090560436248779 0.428290098905563354
1.12882113456726074 -0.544394969940185547 0.121705204248428345
1.04657626152038574 -0.443415910005569458 0.405892461538314819
0.415462911128997803 -0.93834453821182251 0.0343386232852935791
1.2133709192276001 -0.565656602382659912 0.217246830463409424
1.08490514755249023 0.479249447584152222 0.229733526706695557
0.685945034027099609 -0.52581322193145752 0.275591611862182617
1.02584779262542725 -0.653467357158660889 0.247751340270042419
0.85896986722946167 -0.344978868961334229 0.59855574369430542
0.821691215038299561 -0.610260725021362305 0.193549484014511108
1.85979437828063965 0.838997602462768555 0.0998108983039855957
1.90475773811340332 0.846468031406402588 0.295629382133483887
0.850416719913482666 -0.509886860847473145 0.12054935097694397
1.75335252285003662 0.932297170162200928 0.165151000022888184
0.299484461545944214 -0.837796926498413086 0.175859779119491577
0.841216742992401123 -0.514002621173858643 0.403592765331268311
1.1252446174621582 0.369665026664733887 -0.0880983471870422363
0.986677765846252441 -0.310526013374328613 0.422295331954956055
0.813782930374145508 -0.472031980752944946 0.287748456001281738
0.859849214553833008 0.414554715156555176 0.249641537666320801
0.953204333782196045 -0.515359997749328613 0.340274125337600708
0.926117956638336182 -0.36646735668182373 0.240595757961273193
1.28992152214050293 -0.447058975696563721 0.316558718681335449
0.446304112672805786 -0.869484782218933105 -0.0811873972415924072
0.747559666633605957 -0.172363728284835815 0.389581769704818726
1.20126914978027344 -0.530367136001586914 -0.0324219092726707458
1.01770997047424316 -0.56489187479019165 0.109736181795597076
0.841831445693969727 -0.500940203666687012 0.00786381959915161133
1.07309889793395996 -0.330193519592285156 0.217147529125213623
1.10714840888977051 0.375131100416183472 0.0229451954364776611
1.09414541721343994 -0.281429946422576904 0.562424302101135254
0.93472743034362793 -0.265259057283401489 0.29986649751663208
0.924389243125915527 0.315523087978363037 0.128070712089538574
1.04679882526397705 -0.477379500865936279 0.288443505764007568
1.16584515571594238 -0.2756003737449646 0.23929828405380249
1.19126856327056885 -0.651969313621520996 0.305557489395141602
1.09166264533996582 -0.5683937668800354 0.232738107442855835
1.13819479942321777 -0.431237846612930298 0.351813703775405884
1.22130763530731201 -0.489186942577362061 0.393249273300170898
0.844165921211242676 -0.351199299097061157 0.427667707204818726
0.6770668625831604 -0.354373037815093994 0.392959028482437134
1.01072573661804199 0.38617357611656189 0.115109056234359741
0.732930302619934082 -0.267127931118011475 0.511338114738464355
1.21095085144042969 -0.635140180587768555 0.143525093793869019
0.887565493583679199 0.407295167446136475 0.152923434972763062
2.00991225242614746 0.922372996807098389 0.28323701024055481
0.84430927038192749 0.393747955560684204 0.0269387960433959961
0.807226359844207764 -0.295542746782302856 0.336383640766143799
1.06319916248321533 -0.472476780414581299 0.0829893723130226135
0.772418081760406494 -0.424958109855651855 0.426633834838867188
0.527588784694671631 -1.00281596183776855 -0.0746832787990570068
1.81567025184631348 0.870375216007232666 0.207730293273925781
1.14127278327941895 -0.486412316560745239 0.21206393837928772
1.77063870429992676 0.850551307201385498 0.0266261696815490723
0.300334006547927856 -0.963403582572937012 0.412566512823104858
1.03185522556304932 -0.574159562587738037 0.388582080602645874
0.865957975387573242 -0.684840977191925049 0.084975019097328186
0.840889513492584229 -0.367810606956481934 0.285986840724945068
1.18485629558563232 -0.449934124946594238 0.110335439443588257
0.947585701942443848 -0.626227974891662598 0.112346328794956207
1.11052632331848145 -0.353681027889251709 0.44035261869430542
0.412805080413818359 -0.952847838401794434 -0.148493260145187378
0.98065340518951416 -0.407561838626861572 0.166909322142601013
1.0450056791305542 -0.360746443271636963 0.353112459182739258
0.40730440616607666 -1.02118468284606934 -0.0880589485168457031
0.439697027206420898 -0.843776166439056396 -0.168588906526565552
1.07278847694396973 -0.624466240406036377 0.32002905011177063
0.335979044437408447 -0.963635087013244629 0.0990253686904907227
1.08274972438812256 -0.609555959701538086 0.0660689771175384521
0.273515850305557251 -0.932506859302520752 0.200734972953796387
1.91112828254699707 0.90585482120513916 0.368322908878326416
1.92027699947357178 0.949225425720214844 0.0210776813328266144
0.849548995494842529 -0.627968192100524902 0.274463146924972534
0.773240983486175537 -0.542077243328094482 0.254880785942077637
1.17744183540344238 -0.574409902095794678 0.398810863494873047
1.87220501899719238 0.88558584451675415 -0.02262113057076931
0.730936706066131592 -0.452400028705596924 0.282409727573394775
1.03763830661773682 -0.516625165939331055 0.176923483610153198
0.96845555305480957 -0.236695557832717896 0.372428357601165771
1.83778238296508789 0.951549112796783447 0.188829660415649414
0.376510828733444214 -0.950744330883026123 0.471029281616210938
0.778109967708587646 -0.367911666631698608 0.597035109996795654
1.88415002822875977 0.83053135871887207 0.179917842149734497
1.81194961071014404 0.96443331241607666 0.385096102952957153
0.961712479591369629 -0.459081143140792847 0.279208064079284668
0.795163094997406006 -0.295520424842834473 0.558694720268249512
1.18961107730865479 0.430047273635864258 0.0889859795570373535
0.799224853515625 -0.573488831520080566 0.107107885181903839
0.900696158409118652 -0.441752910614013672 0.422792285680770874
0.886173605918884277 -0.309064328670501709 0.484773337841033936
0.892585217952728271 -0.624671220779418945 -0.0226233862340450287
1.93662989139556885 0.800962150096893311 0.236381888389587402
1.01743841171264648 -0.318505793809890747 0.521676003932952881
1.77429473400115967 0.895962238311767578 0.0962516069412231445
0.893220961093902588 -0.56821751594543457 0.347569137811660767
1.04974269866943359 0.356847286224365234 0.177322015166282654
0.845686137676239014 -0.477351188659667969 0.192405462265014648
0.732405960559844971 -0.476719588041305542 0.470841348171234131
0.811501145362854004 -0.386934846639633179 0.489954531192779541
0.957512140274047852 -0.381215125322341919 0.403179198503494263
0.777060151100158691 -0.6487160325050354 0.252460837364196777
1.94551181793212891 0.924710333347320557 0.113086894154548645
0.765201151371002197 -0.304722964763641357 0.450556635856628418
0.439545512199401855 -0.797008395195007324 0.509896516799926758
0.924839615821838379 -0.526255607604980469 0.103617966175079346
1.16872620582580566 -0.586954414844512939 0.010074228048324585
1.22267401218414307 -0.493400037288665771 0.0315426811575889587
1.26989531517028809 0.422117620706558228 -0.0366463065147399902
0.739886343479156494 -0.483580082654953003 0.388818025588989258
0.903266608715057373 -0.687515616416931152 0.153467088937759399
1.00077188014984131 -0.314657062292098999 0.274801105260848999
0.999416589736938477 0.412504136562347412 0.0271247327327728271
0.871933519840240479 0.345073342323303223 0.220657885074615479
1.11118769645690918 -0.547768831253051758 0.424366623163223267
1.13793814182281494 -0.60204768180847168 0.168989077210426331
1.01322567462921143 -0.450207889080047607 0.225284099578857422
0.881860733032226562 -0.478176862001419067 0.349997282028198242
0.659330964088439941 -0.416185677051544189 0.461646676063537598
1.07872653007507324 0.411599397659301758 0.133276596665382385
0.481049060821533203 -0.953974604606628418 -0.117805629968643188
0.887468159198760986 0.369291841983795166 0.0885663628578186035
0.989371776580810547 -0.47254025936126709 0.0724516361951828003
1.13608384132385254 -0.371399641036987305 0.253830611705780029
1.04556930065155029 -0.59965980052947998 0.184184402227401733
1.22057485580444336 -0.582361757755279541 0.320940107107162476
1.97195792198181152 0.869743883609771729 0.248036235570907593
0.994247198104858398 -0.453275620937347412 0.345072329044342041
0.96036607027053833 -0.325856417417526245 0.335366755723953247
0.844123482704162598 -0.545749425888061523 0.235036373138427734
1.11559700965881348 -0.425894170999526978 0.434615820646286011
0.545957386493682861 -1.05838871002197266 -0.117615997791290283
0.774397492408752441 -0.237635299563407898 0.595734357833862305
0.787256121635437012 -0.530596613883972168 0.325884103775024414
0.835694015026092529 -0.41767546534538269 0.396452844142913818
1.20657134056091309 0.409046798944473267 -0.0641292184591293335
1.91188323497772217 0.891393065452575684 0.0592498481273651123
1.13515019416809082 -0.620734333992004395 0.2791767418384552
1.88410913944244385 0.877890825271606445 0.230611950159072876
0.723897695541381836 -0.40927809476852417 0.375815510749816895
1.04357194900512695 0.422664850950241089 0.197034105658531189
1.04646468162536621 -0.246139109134674072 0.38685181736946106
1.798042893409729 0.918875575065612793 0.0362022221088409424
1.08088016510009766 -0.482437461614608765 0.357226341962814331
1.14299702644348145 0.438261419534683228 -0.129618450999259949
0.754658043384552002 -0.344849348068237305 0.397025823593139648
0.374630749225616455 -0.729021072387695312 0.487926065921783447
0.881612956523895264 -0.622602581977844238 0.0644383057951927185
0.41972506046295166 -0.927593529224395752 -0.0317437499761581421
0.904668867588043213 -0.445203006267547607 0.246775448322296143
0.9432944655418396 0.367327243089675903 0.166080519556999207
0.901389122009277344 -0.348689436912536621 0.314909160137176514
1.0633082389831543 0.404616177082061768 -0.0305784549564123154
0.906339526176452637 -0.502464532852172852 0.293682754039764404
1.18946409225463867 -0.462628781795501709 0.324761718511581421
1.14589130878448486 0.414225071668624878 -0.0130603089928627014
1.13619720935821533 -0.435220927000045776 0.171254068613052368
1.14210987091064453 0.460956782102584839 0.122101783752441406
0.874738216400146484 -0.287456631660461426 0.571699142456054688
0.822364330291748047 -0.232569038867950439 0.327592730522155762
1.26207554340362549 -0.59575951099395752 0.24844011664390564
1.15147686004638672 -0.602053999900817871 0.101542718708515167
0.849079906940460205 -0.566915154457092285 0.154161319136619568
0.843982696533203125 -0.406375527381896973 0.542254805564880371
1.75989019870758057 0.955519318580627441 0.0768737494945526123
1.84048616886138916 0.906963944435119629 0.142672717571258545
0.301545679569244385 -0.955726265907287598 0.495376169681549072
0.267612665891647339 -0.915667295455932617 0.268433541059494019
1.8303753137588501 0.859885036945343018 0.0471908450126647949
0.371808350086212158 -0.879341185092926025 -0.0707274079322814941
1.06175196170806885 -0.641071677207946777 0.117184914648532867
0.81468433141708374 -0.660347104072570801 0.11910015344619751
0.826933562755584717 0.391070783138275146 0.158858418464660645
0.862756788730621338 -0.350921720266342163 0.368045121431350708
0.90800398588180542 -0.563190698623657227 0.174428731203079224
1.08804857730865479 -0.398472785949707031 0.225333243608474731
0.804438650608062744 -0.408864319324493408 0.322170734405517578
1.06443476676940918 -0.529655218124389648 0.316503852605819702
1.02872669696807861 -0.506863892078399658 0.379896938800811768
0.710230350494384766 -0.331613510847091675 0.540341794490814209
0.542730271816253662 -0.980336308479309082 -0.0191372185945510864
0.84267735481262207 -0.533571422100067139 0.29898640513420105
1.13914251327514648 0.463259071111679077 0.0605778992176055908
1.06744277477264404 0.388783097267150879 -0.0974186211824417114
0.919660389423370361 -0.409185111522674561 0.162099584937095642
0.507730662822723389 -0.964698731899261475 -0.171541124582290649
0.456523656845092773 -0.911576926708221436 -0.156931057572364807
1.19571435451507568 -0.491381973028182983 0.238301292061805725
1.04912424087524414 0.396932840347290039 0.0579475313425064087
1.25088214874267578 -0.646883904933929443 0.294112920761108398
1.03536820411682129 -0.30924457311630249 0.382529795169830322
0.781720399856567383 -0.52109062671661377 0.13048158586025238
0.952807247638702393 0.385222405195236206 0.100124359130859375
0.973216056823730469 -0.393628180027008057 0.346996545791625977
