ply
format ascii 1.0
element vertex 256
comment vertices
property float x
property float y
property float z
end_header
-4.80389547348022461 -13.0137720108032227 0.115530729293823242
1.99727439880371094 5.92356300354003906 0.339088737964630127
-4.41087913513183594 -4.01718711853027344 0.0585912317037582397
-5.29204988479614258 2.94223833084106445 0.134620577096939087
1.16567611694335938 -1.47541439533233643 -0.0188795551657676697
-1.60350358486175537 1.28720641136169434 0.122021682560443878
1.72121119499206543 1.05714905261993408 0.288499027490615845
-1.18384134769439697 -1.60566031932830811 0.26089024543762207
3.87914156913757324 4.63773345947265625 -0.0278112888336181641
-2.62517857551574707 -5.31374168395996094 -0.0498423464596271515
0.368559807538986206 2.05511665344238281 0.320976406335830688
0.247497335076332092 -1.88723289966583252 0.317672669887542725
1.05418705940246582 1.70306038856506348 0.0635227113962173462
-3.31095099449157715 -5.04290056228637695 0.120230652391910553
1.31229567527770996 5.8537602424621582 0.256776273250579834
1.95763754844665527 5.72694253921508789 0.276312053203582764
1.32889914512634277 5.91965103149414062 0.443631261587142944
0.439994692802429199 -1.88173508644104004 0.194447129964828491
-2.9949333667755127 -5.19211483001708984 0.037099100649356842
-1.62105131149291992 1.16846609115600586 0.295035421848297119
1.01328837871551514 -1.53873705863952637 -0.0068036206066608429
1.02130162715911865 1.79411816596984863 0.0378420501947402954
-1.70801055431365967 1.1107938289642334 0.122323140501976013
1.87236177921295166 5.73442363739013672 0.23319399356842041
-5.0118870735168457 -13.0607900619506836 0.107517451047897339
0.402330905199050903 2.03156733512878418 0.175782397389411926
-1.12005031108856201 -1.53360843658447266 0.236827120184898376
-4.45124912261962891 -4.00844430923461914 0.109011381864547729
1.68325579166412354 1.03803908824920654 0.385230839252471924
-5.26137304306030273 3.0054776668548584 0.0837383642792701721
0.2810707688331604 -1.89591050148010254 0.290973573923110962
1.02661323547363281 1.68946456909179688 0.0773012936115264893
3.8589479923248291 4.69145011901855469 -0.0236339736729860306
1.09362506866455078 -1.48377931118011475 -0.009082794189453125
-2.74343228340148926 -5.25018167495727539 -0.0725192949175834656
-3.2335810661315918 -4.94775056838989258 0.15741237998008728
-4.44100761413574219 -4.04192781448364258 0.0498196333646774292
1.96018326282501221 5.73546934127807617 0.281144469976425171
1.41014492511749268 5.90726327896118164 0.201429799199104309
-4.79687166213989258 -12.9701175689697266 0.114519298076629639
-1.60102748870849609 1.16354799270629883 0.184087216854095459
0.250684767961502075 -1.86909258365631104 0.284745693206787109
-2.68012690544128418 -5.24868106842041016 -0.0617460161447525024
-5.23822259902954102 2.99524950981140137 0.0755544751882553101
1.31548547744750977 5.95627737045288086 0.423156231641769409
-4.8686985969543457 -13.0761623382568359 0.0795702114701271057
-1.57367956638336182 1.30510103702545166 0.305231302976608276
-1.16061556339263916 -1.58558118343353271 0.271743237972259521
1.02640271186828613 1.77769303321838379 0.0343938395380973816
1.72299849987030029 1.08723878860473633 0.334418296813964844
-1.15928804874420166 -1.57191658020019531 0.22702711820602417
-1.65512728691101074 1.17396414279937744 0.196867287158966064
1.33530938625335693 5.89718008041381836 0.420769184827804565
2.00206899642944336 5.76695537567138672 0.288801372051239014
-1.14075875282287598 -1.58187413215637207 0.254884064197540283
1.169624924659729 -1.48372697830200195 -0.0379855483770370483
-5.28968095779418945 3.00320696830749512 0.0981844514608383179
-3.26635360717773438 -4.98209762573242188 0.14606882631778717
0.389264285564422607 2.01048994064331055 0.301238328218460083
-1.66599380970001221 1.15964365005493164 0.160932436585426331
1.3466649055480957 5.8394627571105957 0.336834162473678589
-1.63928055763244629 1.26147449016571045 0.22717583179473877
1.0261918306350708 1.71762943267822266 0.0767256468534469604
0.281583189964294434 -1.87775373458862305 0.354651480913162231
1.77657592296600342 1.06294071674346924 0.300795555114746094
-4.44446182250976562 -4.05089616775512695 0.0280405431985855103
-4.729339599609375 -13.0461559295654297 0.12685568630695343
0.301065623760223389 -1.84977447986602783 0.297213584184646606
-3.32699894905090332 -4.99947261810302734 0.162331745028495789
1.95202124118804932 5.73094558715820312 0.283863723278045654
-4.44167327880859375 -4.06768417358398438 0.0416714400053024292
-2.57764077186584473 -5.28133964538574219 -0.038384515792131424
-2.94324159622192383 -5.18927145004272461 0.024304024875164032
-3.21546053886413574 -4.97934770584106445 0.159660965204238892
-4.46122217178344727 -4.02418136596679688 0.0840186327695846558
-4.92182540893554688 -13.0079555511474609 0.126679182052612305
1.9680551290512085 5.71528244018554688 0.281612217426300049
0.230415210127830505 -1.87165641784667969 0.311484098434448242
1.2855827808380127 5.95004415512084961 0.416946113109588623
1.15510106086730957 -1.43827319145202637 -0.0217210222035646439
1.01489579677581787 1.73431873321533203 0.0738068744540214539
-2.62436270713806152 -5.26884841918945312 -0.0263836383819580078
1.72735083103179932 1.05403447151184082 0.295796185731887817
-5.26751470565795898 3.00897479057312012 0.111459217965602875
1.98688280582427979 5.73638296127319336 0.276868671178817749
1.70823192596435547 1.0555340051651001 0.361306130886077881
3.85423135757446289 4.63776874542236328 -0.0166702903807163239
-3.2897801399230957 -4.957550048828125 0.123371422290802002
-4.39687395095825195 -4.04252815246582031 0.0753285139799118042
-4.75066947937011719 -13.053924560546875 0.148348808288574219
-2.76816940307617188 -5.28915929794311523 -0.0467716231942176819
1.10206103324890137 -1.45720064640045166 -0.0202128104865550995
1.95241153240203857 5.72392654418945312 0.244598746299743652
1.73015177249908447 1.06885361671447754 0.317875117063522339
0.377510666847229004 2.05659055709838867 0.23330986499786377
1.15851211547851562 -1.48719668388366699 -0.0151828229427337646
1.06200850009918213 1.73205959796905518 0.044819958508014679
1.00179827213287354 1.71470725536346436 0.067416265606880188
1.0049898624420166 1.75310230255126953 0.0331856235861778259
1.02762937545776367 1.72143566608428955 0.0699349269270896912
0.333017289638519287 -1.94572544097900391 0.257724583148956299
0.278999835252761841 -1.8583824634552002 0.307599484920501709
0.394631385803222656 -1.90225124359130859 0.195853009819984436
-2.7761683464050293 -5.26518821716308594 -0.0722300410270690918
1.36921489238739014 5.86929941177368164 0.254623383283615112
1.94199061393737793 5.6782679557800293 0.239298179745674133
-2.61977124214172363 -5.27696657180786133 -0.047273583710193634
-4.75963687896728516 -13.0506105422973633 0.131248980760574341
3.89088940620422363 4.66164731979370117 -0.0333748906850814819
-4.84780311584472656 -12.9945926666259766 0.0894776806235313416
-5.27968168258666992 3.00680184364318848 0.0984886288642883301
-4.85146284103393555 -13.0517635345458984 0.115593031048774719
1.0424579381942749 1.77335655689239502 0.0557029247283935547
-1.12964212894439697 -1.58947598934173584 0.247526586055755615
-1.66851925849914551 1.15012764930725098 0.143767505884170532
-3.23547124862670898 -4.98601865768432617 0.152074441313743591
-1.60388660430908203 1.25015461444854736 0.11001056432723999
-2.85355114936828613 -5.20847511291503906 -0.00419452786445617676
-4.75737380981445312 -12.9879112243652344 0.123711884021759033
1.97403323650360107 5.72775888442993164 0.257514983415603638
1.30793440341949463 5.92230796813964844 0.41281658411026001
-1.17632853984832764 -1.57829391956329346 0.254028767347335815
-1.65410435199737549 1.19198143482208252 0.268559873104095459
0.273421168327331543 -1.8388599157333374 0.338675737380981445
-4.86122417449951172 -13.0458869934082031 0.0672525539994239807
-2.64308762550354004 -5.24984169006347656 -0.0862618908286094666
1.31583428382873535 5.9515843391418457 0.457347840070724487
1.92183852195739746 5.76073312759399414 0.280206680297851562
-1.65922462940216064 1.209236741065979 0.165298923850059509
1.32805788516998291 5.93430328369140625 0.261480987071990967
-5.28572273254394531 2.96387696266174316 0.102440699934959412
1.04054617881774902 1.7508777379989624 0.0649545192718505859
1.96406006813049316 5.74239444732666016 0.261406630277633667
-4.44909334182739258 -4.0206913948059082 0.0265959799289703369
-4.87296247482299805 -13.0311870574951172 0.0744519084692001343
-1.69600653648376465 1.15053749084472656 0.159570693969726562
1.32624197006225586 5.93235301971435547 0.404287487268447876
-1.17852497100830078 -1.60040223598480225 0.226206496357917786
-3.28953695297241211 -4.96740198135375977 0.177532568573951721
1.70791435241699219 1.07885026931762695 0.342335820198059082
-5.29443550109863281 3.00812244415283203 0.107909254729747772
1.02604734897613525 1.71483743190765381 0.0506922975182533264
0.306850165128707886 -1.89841687679290771 0.272400856018066406
1.00281774997711182 1.70570707321166992 0.076946943998336792
-4.42397451400756836 -4.05499887466430664 0.0755432099103927612
-1.15158414840698242 -1.58153510093688965 0.273473441600799561
1.3338620662689209 5.83822107315063477 0.281579881906509399
1.00197923183441162 1.70266819000244141 0.0697755515575408936
-2.65350890159606934 -5.26494979858398438 -0.0665425285696983337
-5.25218105316162109 3.01206016540527344 0.058496326208114624
-2.84955382347106934 -5.26349973678588867 -0.032935798168182373
0.385294854640960693 1.99696564674377441 0.367253720760345459
-2.59007167816162109 -5.29848861694335938 -0.0518774092197418213
-1.15868353843688965 -1.57312917709350586 0.266639083623886108
-3.24562454223632812 -4.95165061950683594 0.149720132350921631
1.71406030654907227 1.07908344268798828 0.358547389507293701
1.10509002208709717 -1.51062989234924316 -0.0392331629991531372
1.78492474555969238 1.02724897861480713 0.296192198991775513
-5.29836320877075195 2.99329376220703125 0.0889962241053581238
0.244666203856468201 -1.84123671054840088 0.311864614486694336
-4.77665472030639648 -12.9716148376464844 0.124564215540885925
1.16805434226989746 -1.48891663551330566 -0.02918282151222229
0.271420925855636597 -1.85590362548828125 0.2837810218334198
-1.69069600105285645 1.11560356616973877 0.119098052382469177
-3.00740814208984375 -5.12064933776855469 0.0742669627070426941
1.16778171062469482 -1.45821571350097656 -0.0359208136796951294
1.94661545753479004 5.71986007690429688 0.247417524456977844
-5.01830148696899414 -13.0488777160644531 0.125319674611091614
1.33430898189544678 5.93348836898803711 0.386607348918914795
-4.824371337890625 -13.0094928741455078 0.118525654077529907
-1.6711115837097168 1.12320637702941895 0.122382625937461853
1.73533320426940918 1.05751407146453857 0.309391379356384277
-4.43486738204956055 -4.05519199371337891 0.067592523992061615
-5.25644493103027344 3.00176358222961426 0.0811489969491958618
-1.16214847564697266 -1.58635818958282471 0.231131494045257568
-4.43146848678588867 -4.06738805770874023 0.0718621909618377686
-4.47166061401367188 -4.03798723220825195 0.0370722264051437378
-3.28591775894165039 -4.94503927230834961 0.166844546794891357
-3.21387982368469238 -4.96429777145385742 0.15582236647605896
0.257867783308029175 -1.91368007659912109 0.267057538032531738
-2.80518269538879395 -5.26344585418701172 -0.0485222041606903076
-3.25249147415161133 -4.967620849609375 0.14169330894947052
-1.62816143035888672 1.21432483196258545 0.289385586977005005
-1.16047430038452148 -1.59089028835296631 0.257173240184783936
1.68694519996643066 1.0507735013961792 0.342778682708740234
-1.63276731967926025 1.25890731811523438 0.169451236724853516
-2.64501619338989258 -5.25932788848876953 -0.0646674409508705139
1.96708333492279053 5.68550729751586914 0.257683455944061279
1.72143912315368652 1.07148635387420654 0.318683534860610962
-1.13449597358703613 -1.57360446453094482 0.243580624461174011
1.0770263671875 -1.53795063495635986 -0.0351907014846801758
0.279231905937194824 -1.86346006393432617 0.342539966106414795
-5.27256441116333008 3.01419973373413086 0.0776112675666809082
-4.90071535110473633 -12.9819087982177734 0.13992193341255188
1.18464243412017822 -1.48370230197906494 -0.0265085399150848389
-4.42248964309692383 -4.04076480865478516 0.059456750750541687
1.30527102947235107 5.91750001907348633 0.435878336429595947
-4.90179347991943359 -13.0041284561157227 0.130856782197952271
1.98962366580963135 5.72021961212158203 0.273587614297866821
1.02128779888153076 1.80568313598632812 0.0316465571522712708
-4.74210596084594727 -13.0258903503417969 0.121646389365196228
1.17552626132965088 -1.48469996452331543 -0.0432190895080566406
-1.6500849723815918 1.1756519079208374 0.225324541330337524
0.373496890068054199 2.06095504760742188 0.273622035980224609
-2.68772673606872559 -5.23560476303100586 -0.0661749988794326782
-1.63231742382049561 1.27068638801574707 0.250129044055938721
0.299679666757583618 -1.90401828289031982 0.271531462669372559
-4.97368288040161133 -13.1094493865966797 0.122788220643997192
1.0182119607925415 1.7330707311630249 0.0613405033946037292
-2.99732112884521484 -5.13049793243408203 0.108342230319976807
1.32934284210205078 5.9096522331237793 0.409791231155395508
3.88127255439758301 4.7020869255065918 -0.0193977206945419312
-3.27541089057922363 -4.99872255325317383 0.130770906805992126
3.87808847427368164 4.62565803527832031 -0.0389540344476699829
1.70367670059204102 1.07706475257873535 0.321912884712219238
-3.22258114814758301 -4.96229362487792969 0.167273163795471191
0.987037897109985352 1.70324313640594482 0.0929693058133125305
-2.68281888961791992 -5.24536943435668945 -0.0608510635793209076
1.97868585586547852 5.70990276336669922 0.270207345485687256
-5.28733587265014648 2.97814488410949707 0.0994161888957023621
0.453838557004928589 -1.86319839954376221 0.190062806010246277
-1.15875113010406494 -1.57703733444213867 0.256172835826873779
-2.87441396713256836 -5.19070959091186523 0.014742780476808548
1.04140818119049072 1.69679105281829834 0.0645598098635673523
1.71065890789031982 1.03558588027954102 0.400245785713195801
3.85927367210388184 4.62180709838867188 -0.0329435095191001892
1.71661508083343506 1.07363951206207275 0.314122766256332397
-5.29271030426025391 3.00484251976013184 0.0941025540232658386
1.03728127479553223 1.77603888511657715 0.0410482585430145264
-4.81441497802734375 -12.9516801834106445 0.130103275179862976
1.15117180347442627 -1.45754075050354004 -0.0168762654066085815
-1.17289185523986816 -1.5903695821762085 0.239114150404930115
1.0018843412399292 1.7188190221786499 0.0656326338648796082
1.15652370452880859 -1.4411691427230835 -0.0342175625264644623
-4.82616472244262695 -13.0424947738647461 0.156076550483703613
1.02633130550384521 1.68675839900970459 0.0724673420190811157
-4.39650821685791016 -4.0428166389465332 0.0865119844675064087
-4.77963495254516602 -13.058995246887207 0.139937639236450195
3.86640048027038574 4.66972780227661133 -0.0211370103061199188
-4.42878913879394531 -4.04497766494750977 0.0543092489242553711
-1.1717839241027832 -1.59485340118408203 0.297191023826599121
-5.2582850456237793 3.02736854553222656 0.0978050827980041504
0.2509784996509552 -1.84394848346710205 0.31218641996383667
-4.44449996948242188 -4.03382205963134766 0.0654208660125732422
0.251535683870315552 -1.86138761043548584 0.289985805749893188
-2.60577034950256348 -5.29346084594726562 -0.0263857021927833557
-4.43402576446533203 -4.03782129287719727 0.025358930230140686
-4.88650226593017578 -13.0396604537963867 0.0933233499526977539
0.250722348690032959 -1.83192539215087891 0.33607134222984314
1.02350997924804688 1.71188628673553467 0.0610282085835933685
-1.69697248935699463 1.15620291233062744 0.145254805684089661
1.96311378479003906 5.72863101959228516 0.276008039712905884
1.16019105911254883 -1.45466578006744385 -0.0275553911924362183
1.95062196254730225 5.75201702117919922 0.255810648202896118
-1.68480527400970459 1.15834939479827881 0.169821575284004211
1.7106853723526001 1.06541574001312256 0.301120549440383911
