ply
format ascii 1.0
element vertex 256
comment vertices
property float x
property float y
property float z
end_header
1.00852000713348389 1.8464730978012085 0.196036189794540405
-0.912894845008850098 0.250438481569290161 0.484926760196685791
0.105820000171661377 0.925063610076904297 0.0269293114542961121
-0.401654839515686035 0.829041540622711182 0.584886491298675537
-0.555346488952636719 0.754483044147491455 -0.0939685851335525513
0.389262557029724121 1.49631679058074951 0.240230292081832886
0.238549336791038513 1.0334324836730957 0.580426275730133057
0.995725154876708984 2.08874750137329102 -0.214537888765335083
0.00215177983045578003 0.597159326076507568 0.348955333232879639
-0.892118215560913086 0.681265950202941895 0.663980424404144287
-0.494069993495941162 0.407300353050231934 0.442064374685287476
-0.834317922592163086 0.562839984893798828 0.189955621957778931
0.00801554322242736816 1.31877803802490234 0.343626528978347778
0.677523910999298096 1.99773764610290527 0.101775228977203369
0.723467469215393066 1.45751380920410156 0.0928212851285934448
-0.238496586680412292 1.03177225589752197 0.094447210431098938
-0.103136077523231506 0.981637835502624512 0.451904892921447754
0.0769293606281280518 1.24762177467346191 -0.0126008838415145874
-0.6453208327293396 0.675579309463500977 0.470748662948608398
0.186924740672111511 0.876646459102630615 0.319937437772750854
-0.494184195995330811 0.544947564601898193 0.104076549410820007
0.81344836950302124 1.82811188697814941 -0.094445548951625824
0.314983516931533813 1.27297306060791016 0.41196906566619873
0.922687113285064697 2.13750791549682617 0.0606939494609832764
-0.278805911540985107 0.782344698905944824 0.333548814058303833
-0.972397446632385254 0.604933381080627441 0.417587101459503174
1.09502327442169189 1.8862992525100708 -0.0735266134142875671
-0.00869300961494445801 1.08586454391479492 0.207374751567840576
0.769474029541015625 1.70718050003051758 0.150514394044876099
-0.693223655223846436 0.332621455192565918 0.591472208499908447
-0.0431662127375602722 0.781811714172363281 0.169324755668640137
-0.713805198669433594 0.364940285682678223 0.115847840905189514
-0.7681732177734375 0.467858582735061646 0.405081033706665039
0.4812774658203125 1.50816500186920166 0.0273585841059684753
0.166109398007392883 1.28007006645202637 0.585882604122161865
0.204842209815979004 1.09991586208343506 0.131654977798461914
-0.709908127784729004 0.702725648880004883 0.068903803825378418
0.0703423097729682922 1.11612522602081299 0.410013377666473389
0.0115954428911209106 0.775622904300689697 0.47277367115020752
-0.949548184871673584 0.681009352207183838 0.0545487254858016968
0.128877982497215271 0.663353800773620605 0.194808065891265869
-0.0572295784950256348 1.02907335758209229 -0.0475275143980979919
-0.746394991874694824 0.723473787307739258 0.272282153367996216
-0.850664138793945312 0.489736706018447876 0.62896960973739624
-0.361653298139572144 0.941060066223144531 0.408669501543045044
0.915672898292541504 1.92698967456817627 0.0362091809511184692
0.773904323577880859 2.03170204162597656 -0.0594733357429504395
-0.0896368622779846191 1.20267379283905029 0.0825951471924781799
-0.136568009853363037 1.16264152526855469 0.411243796348571777
-0.227623820304870605 0.824179172515869141 0.507432341575622559
-0.752909183502197266 0.783514499664306641 0.595021426677703857
-0.0105085000395774841 0.879658102989196777 0.321500688791275024
0.128184914588928223 0.916135787963867188 0.488917946815490723
0.327426761388778687 1.35582208633422852 0.144674360752105713
0.313084840774536133 1.09246182441711426 0.409833908081054688
-0.644324541091918945 0.59199213981628418 0.18995627760887146
-0.108959034085273743 0.733972907066345215 0.348976790904998779
-0.692918241024017334 0.553175210952758789 0.587887585163116455
1.02564084529876709 2.07901477813720703 0.1826762855052948
-0.458312690258026123 0.571911215782165527 0.436307966709136963
-0.827329516410827637 0.60749506950378418 0.498660385608673096
0.585473895072937012 1.47827303409576416 0.18071448802947998
0.0556392073631286621 0.768566250801086426 0.0218062736093997955
0.146580204367637634 1.19093704223632812 0.254643410444259644
-0.155276745557785034 1.0569998025894165 0.272334575653076172
0.940618157386779785 1.75365364551544189 0.0821408703923225403
0.936186909675598145 1.97021985054016113 -0.122930005192756653
0.15686403214931488 1.27589106559753418 0.407465487718582153
0.0371069908142089844 1.04829680919647217 0.548889577388763428
-0.939110815525054932 0.461910277605056763 0.473758012056350708
1.01936745643615723 2.09493112564086914 -0.0617500655353069305
0.0909874439239501953 0.974960207939147949 0.248225316405296326
-0.0357858762145042419 0.941448748111724854 0.162281453609466553
0.219425827264785767 1.12509286403656006 -0.0181054826825857162
0.756258368492126465 1.94692444801330566 0.221697390079498291
-0.165301531553268433 0.88319164514541626 0.324105560779571533
0.267570227384567261 0.869685590267181396 0.526813626289367676
-0.606296420097351074 0.505290091037750244 0.473238050937652588
0.058750644326210022 0.746541500091552734 0.333590328693389893
-0.79219818115234375 0.413181900978088379 0.233561009168624878
-0.831054627895355225 0.368299663066864014 0.517567217350006104
0.0258749425411224365 1.12091279029846191 0.0399036407470703125
0.738623380661010742 1.7783811092376709 0.0296100117266178131
0.217511877417564392 1.16268074512481689 0.488082408905029297
-0.718055844306945801 0.561790168285369873 0.307048380374908447
-0.63972097635269165 0.565340638160705566 0.0529765933752059937
-0.0395513549447059631 1.17598474025726318 0.510427117347717285
0.107729092240333557 1.20339298248291016 0.123993478715419769
-0.0393399894237518311 1.06051266193389893 0.350206494331359863
-0.517950654029846191 0.806600987911224365 0.517989575862884521
-0.839263677597045898 0.588295340538024902 0.361200779676437378
0.0961596369743347168 0.840258419513702393 0.131688147783279419
0.00414413213729858398 1.19816160202026367 0.283160150051116943
0.744710683822631836 2.13506865501403809 0.0213927030563354492
0.324439287185668945 1.27320051193237305 0.249486878514289856
-0.790997505187988281 0.593849778175354004 0.068708568811416626
-0.0395444631576538086 1.17119812965393066 -0.0632796362042427063
-0.611081957817077637 0.365122377872467041 0.493753015995025635
-0.0906313210725784302 1.07052743434906006 0.0733577534556388855
0.0852211117744445801 0.975001394748687744 0.38083648681640625
0.879735708236694336 2.01423025131225586 0.124203130602836609
0.289247304201126099 1.41695559024810791 0.255325436592102051
0.00907620787620544434 0.923429489135742188 0.537969410419464111
0.255404263734817505 1.15923452377319336 0.309144914150238037
-0.837297976016998291 0.679678559303283691 0.144216194748878479
-0.639700353145599365 0.8054085373878479 0.534469723701477051
0.83659815788269043 1.84963130950927734 0.0895476490259170532
0.423370540142059326 1.34661328792572021 0.0695132464170455933
0.833566784858703613 2.15056753158569336 -0.0607363656163215637
-0.743345022201538086 0.450732946395874023 0.529386281967163086
0.903151273727416992 2.11403965950012207 0.186454355716705322
0.890363931655883789 2.05141353607177734 -0.0148591659963130951
-0.022646728903055191 0.957909107208251953 0.047132052481174469
-0.878458738327026367 0.341827452182769775 0.414953738451004028
1.00119984149932861 1.85093271732330322 0.0224146321415901184
-0.685661137104034424 0.425310134887695312 0.336799293756484985
-0.32150501012802124 0.938695549964904785 0.516587972640991211
1.00521135330200195 2.02531051635742188 0.0268740858882665634
-0.0850418359041213989 1.1779407262802124 0.192642807960510254
-0.147141247987747192 0.954934179782867432 0.17016226053237915
-0.0242502093315124512 1.19230759143829346 0.400728404521942139
-0.609210491180419922 0.749128997325897217 0.0542598739266395569
-0.176902279257774353 0.994267880916595459 0.368867278099060059
0.211473315954208374 0.887681782245635986 0.211616665124893188
0.0594047531485557556 0.861480891704559326 0.405632168054580688
-0.725953102111816406 0.324336528778076172 0.485929042100906372
-0.704542398452758789 0.555899739265441895 0.474207401275634766
0.222719773650169373 1.05402290821075439 0.360799461603164673
0.0680365711450576782 1.08577215671539307 0.304860174655914307
-0.32605278491973877 0.790555059909820557 0.473471701145172119
1.07538831233978271 1.9767533540725708 -0.131338015198707581
0.0531398952007293701 0.873875021934509277 0.232905685901641846
0.217651426792144775 0.985459804534912109 0.485398590564727783
-0.753844738006591797 0.682794690132141113 0.473462909460067749
-0.057682916522026062 1.07792401313781738 0.468570709228515625
-0.792602419853210449 0.614924788475036621 0.599643230438232422
0.89900505542755127 2.07044458389282227 -0.11964714527130127
-0.897458136081695557 0.580940604209899902 0.599565982818603516
0.167936861515045166 1.02463161945343018 0.0660159885883331299
0.761103153228759766 1.97739601135253906 0.030982334166765213
0.185052931308746338 0.804505228996276855 0.39766499400138855
-0.105423688888549805 0.877466022968292236 0.457140326499938965
0.833521842956542969 1.93576323986053467 -0.0305684506893157959
0.158721268177032471 1.08193063735961914 0.452049732208251953
-0.542827606201171875 0.661626100540161133 0.474704504013061523
0.0775283277034759521 1.08432137966156006 0.150129839777946472
-0.107278339564800262 1.05027198791503906 0.181390553712844849
-0.734575748443603516 0.718227744102478027 0.3744468092918396
-0.259959757328033447 0.928397178649902344 0.415485382080078125
0.102705813944339752 1.18371129035949707 0.480091869831085205
0.0836477130651473999 0.768151342868804932 0.203077405691146851
-0.841157197952270508 0.721153497695922852 0.58661121129989624
0.0466182678937911987 1.28302669525146484 0.0762914940714836121
-0.449671298265457153 0.869552433490753174 0.480110079050064087
-0.680694222450256348 0.685535848140716553 0.563739299774169922
-0.764423608779907227 0.508754312992095947 0.143389061093330383
-0.0238913968205451965 0.96392524242401123 0.269665241241455078
-0.827220320701599121 0.496864557266235352 0.480167865753173828
-0.1546601802110672 1.06725394725799561 0.450167238712310791
0.925535738468170166 1.79479098320007324 0.181725651025772095
-0.698803544044494629 0.620306015014648438 0.399909347295761108
-0.067968122661113739 0.778677403926849365 0.271577358245849609
-0.932913422584533691 0.349722862243652344 0.496388375759124756
0.208116516470909119 0.934298276901245117 0.396248579025268555
0.0378594845533370972 1.03650188446044922 -0.00715080834925174713
0.974824905395507812 1.97643876075744629 0.105101056396961212
0.072730429470539093 1.2038729190826416 0.369849860668182373
0.151181221008300781 1.03767168521881104 0.206450983881950378
0.319573730230331421 1.1532745361328125 0.48400348424911499
-0.494620561599731445 0.500571370124816895 0.489192306995391846
0.00576253235340118408 1.19904899597167969 0.171500593423843384
0.983195841312408447 1.94472146034240723 -0.0440311320126056671
0.133255302906036377 1.13395154476165771 0.02063727006316185
-0.705330193042755127 0.458715617656707764 0.0897421017289161682
-0.0902727246284484863 0.885637998580932617 0.267215192317962646
-0.316800236701965332 0.851275980472564697 0.550177574157714844
0.128719508647918701 0.757416307926177979 0.104668036103248596
-0.103842020034790039 1.13095736503601074 0.294636666774749756
0.0416211932897567749 0.974160313606262207 0.122924059629440308
-0.684880614280700684 0.445790112018585205 0.438761532306671143
-0.0203948765993118286 0.968396902084350586 0.413059979677200317
0.185773462057113647 1.31858301162719727 0.50484919548034668
0.776484072208404541 1.86670148372650146 -0.0110523328185081482
-0.892250418663024902 0.393975943326950073 0.580707788467407227
-0.179077014327049255 1.04770505428314209 0.0267248507589101791
0.806638836860656738 1.9366987943649292 0.146069318056106567
0.100700154900550842 1.01540672779083252 0.493287444114685059
-0.0121262073516845703 1.09419107437133789 0.117487147450447083
-0.187592029571533203 0.78326946496963501 0.438508450984954834
0.242204338312149048 1.17957484722137451 0.40456584095954895
-0.70680767297744751 0.64314955472946167 0.274611920118331909
-0.604543864727020264 0.58883899450302124 0.500738918781280518
-0.0545035228133201599 0.764112293720245361 0.410376995801925659
0.986476302146911621 2.03935337066650391 -0.140451520681381226
0.144984453916549683 0.959656238555908203 0.319209277629852295
-0.368027687072753906 0.756219983100891113 0.551317691802978516
-0.616372942924499512 0.594327092170715332 0.590100228786468506
-0.774304866790771484 0.521522998809814453 0.568352103233337402
-0.0189378745853900909 0.850236058235168457 0.441729843616485596
-0.78726494312286377 0.354940235614776611 0.433912873268127441
-0.576435446739196777 0.507376909255981445 0.0483045205473899841
-0.746401309967041016 0.584661483764648438 0.665365457534790039
-0.811766088008880615 0.584601700305938721 0.280340135097503662
0.0759891271591186523 0.892829656600952148 0.312922924757003784
-0.559376239776611328 0.591811120510101318 0.0430953316390514374
-0.784369111061096191 0.311010897159576416 0.555798768997192383
1.02478647232055664 1.9286426305770874 0.039006449282169342
-0.724158525466918945 0.579658210277557373 0.0220267530530691147
0.00810308381915092468 1.04335892200469971 0.432347863912582397
-0.650103926658630371 0.615044355392456055 0.326476633548736572
0.934546232223510742 2.03541207313537598 0.181071147322654724
-0.109536685049533844 1.02002203464508057 0.330956220626831055
-0.0770906507968902588 1.00159060955047607 0.123632349073886871
0.367936313152313232 1.45690059661865234 0.172592192888259888
-0.885831773281097412 0.671478450298309326 0.540684700012207031
0.980974495410919189 1.81904721260070801 0.107862606644630432
0.345120906829833984 1.42838060855865479 0.312616735696792603
-0.216215625405311584 0.819765090942382812 0.36825793981552124
0.935536384582519531 1.88531982898712158 0.102774575352668762
0.174919009208679199 1.1812666654586792 0.328780204057693481
0.138430133461952209 1.30974221229553223 0.337441086769104004
0.0377606749534606934 0.785800755023956299 0.134660974144935608
-0.197844922542572021 0.955400526523590088 0.108487382531166077
0.192927360534667969 0.875417888164520264 0.46611437201499939
0.848516523838043213 2.00900983810424805 -0.117501623928546906
-0.907683253288269043 0.492873072624206543 0.539557993412017822
-0.731054127216339111 0.38259926438331604 0.288581520318984985
0.0415145531296730042 1.01202297210693359 0.311868518590927124
-0.762184619903564453 0.668670117855072021 0.218125313520431519
-0.755920112133026123 0.54502493143081665 0.412206977605819702
-0.784589827060699463 0.629725098609924316 0.424696922302246094
0.3173636794090271 1.34490656852722168 0.442858219146728516
0.111311949789524078 0.821112751960754395 0.448044419288635254
-0.668261170387268066 0.472279608249664307 0.53387981653213501
0.111879244446754456 1.13854551315307617 0.345372974872589111
0.91944730281829834 1.8515019416809082 0.0173323806375265121
0.947675466537475586 2.0223696231842041 -0.066238701343536377
0.930714130401611328 2.03147554397583008 0.0679359585046768188
-0.718511402606964111 0.787382245063781738 0.525364220142364502
-0.771000862121582031 0.509783744812011719 0.329977303743362427
0.176636472344398499 1.20634722709655762 0.438924401998519897
-0.756982803344726562 0.715804517269134521 0.557996451854705811
0.131729155778884888 0.915382504463195801 0.396737873554229736
-0.0586319565773010254 0.956464886665344238 0.55302584171295166
-0.580219745635986328 0.661495208740234375 0.541676163673400879
0.0603518784046173096 0.871618568897247314 0.0716532394289970398
-0.0604465454816818237 0.833505809307098389 0.356764554977416992
-0.196002990007400513 0.887517392635345459 0.397114336490631104
-0.704515814781188965 0.715122342109680176 0.629625976085662842
0.931791305541992188 2.10701704025268555 -0.0458521135151386261
0.105250686407089233 1.21357429027557373 -0.0742856264114379883
-0.434511542320251465 0.897043466567993164 0.548783183097839355
-0.0966425240039825439 1.1275559663772583 0.519936859607696533
-0.8520163893699646 0.442235767841339111 0.524927496910095215
0.901959896087646484 1.95908713340759277 -0.0573297105729579926
-0.0947175696492195129 1.05697488784790039 0.4067363440990448
