ply
format ascii 1.0
element vertex 256
comment vertices
property float x
property float y
property float z
end_header
-0.145392894744873047 0.811028122901916504 0.530387401580810547
-1.31704115867614746 -0.204198062419891357 0.26938021183013916
-1.03598368167877197 2.1037752628326416 0.472518682479858398
1.14680743217468262 0.125201582908630371 0.333025127649307251
-1.00372433662414551 1.11117029190063477 0.0130781494081020355
-0.489711284637451172 -0.445322901010513306 0.326948374509811401
0.794750094413757324 0.470649600028991699 0.805724680423736572
-0.793372809886932373 0.0434806197881698608 0.415543228387832642
-0.695008277893066406 0.881385326385498047 0.40997430682182312
-0.967218399047851562 1.89068973064422607 -0.0194575749337673187
-0.958508074283599854 -0.518972277641296387 0.330952048301696777
-1.01398372650146484 -0.033212415874004364 -0.0235658753663301468
-0.588349342346191406 0.994414329528808594 -0.0189812853932380676
1.20727896690368652 0.391255766153335571 0.667613506317138672
-0.67230600118637085 1.84081447124481201 0.287628769874572754
0.762909471988677979 0.283605575561523438 0.363556265830993652
0.851496338844299316 0.646873831748962402 0.460162609815597534
-0.459311097860336304 0.888381361961364746 0.691264808177947998
-0.684229910373687744 -0.419646620750427246 0.0243172608315944672
-1.02729690074920654 1.77696466445922852 0.331141829490661621
0.811062157154083252 -0.0557985454797744751 0.330907940864562988
0.961455166339874268 0.141065031290054321 0.620339512825012207
-0.837817788124084473 0.803801298141479492 0.119367614388465881
-0.620167791843414307 -0.134850233793258667 0.208942070603370667
-1.0976635217666626 0.0311168991029262543 0.293805301189422607
-0.336155146360397339 0.983360052108764648 0.359386354684829712
-0.778207957744598389 1.25498759746551514 0.158737450838088989
-0.906351089477539062 -0.21047818660736084 0.274254918098449707
1.01609349250793457 0.40013277530670166 0.43633386492729187
-0.911327958106994629 2.02508544921875 0.229831963777542114
-0.693695187568664551 -0.635617613792419434 0.369684755802154541
-0.783595263957977295 1.1163865327835083 0.460750281810760498
-1.0960763692855835 -0.29080122709274292 0.418914645910263062
-0.432901978492736816 0.864154994487762451 0.163347750902175903
-0.735724687576293945 -0.394901037216186523 0.331836849451065063
-0.777260184288024902 -0.189793378114700317 0.028296617791056633
-0.38017117977142334 0.750710129737854004 0.501397013664245605
-0.683349013328552246 1.02364838123321533 0.202002093195915222
0.814891219139099121 0.345821678638458252 0.588310718536376953
1.02568674087524414 0.534447789192199707 0.618955135345458984
0.931446552276611328 0.300227582454681396 0.770986080169677734
-0.671132326126098633 -0.204799950122833252 0.419382572174072266
-0.185600534081459045 1.01500725746154785 0.591639220714569092
-0.70229494571685791 2.06958913803100586 0.20103907585144043
0.845538079738616943 0.168404072523117065 0.201516956090927124
-0.528375506401062012 -0.31861075758934021 0.144655391573905945
-0.864928841590881348 -0.280741006135940552 0.471452802419662476
-0.652805328369140625 0.811438322067260742 0.604898929595947266
-0.85253143310546875 2.00461673736572266 0.450108110904693604
-0.523563981056213379 0.98350757360458374 0.473541051149368286
1.16993069648742676 0.189141064882278442 0.689208030700683594
-0.619444847106933594 0.790243744850158691 0.142549127340316772
-0.823683500289916992 -0.0295287817716598511 0.138231724500656128
-0.858646154403686523 1.77168369293212891 0.227830857038497925
-0.820348024368286133 1.04987668991088867 0.0301648899912834167
-1.1227954626083374 -0.20299685001373291 0.24940761923789978
-0.866234421730041504 -0.418105602264404297 0.195714175701141357
1.08954942226409912 0.247063219547271729 0.520488142967224121
0.67968374490737915 0.467898935079574585 0.636997520923614502
-0.339552372694015503 0.928719639778137207 0.547069072723388672
-0.976291239261627197 -0.0426940582692623138 0.404236465692520142
-0.956041276454925537 0.828396379947662354 -0.00952423922717571259
0.800796568393707275 0.115431152284145355 0.379761576652526855
-0.661880135536193848 -0.483923256397247314 0.182936295866966248
-0.796066641807556152 1.90905070304870605 0.153514772653579712
-1.20445632934570312 -0.158977091312408447 0.389376461505889893
0.861564338207244873 0.418098717927932739 0.376809418201446533
-0.927980303764343262 1.02264010906219482 0.1540079265832901
-0.55926048755645752 -0.329283773899078369 0.422523677349090576
-1.08289146423339844 -0.0379374772310256958 0.126124739646911621
-0.471846610307693481 0.872848331928253174 0.363522827625274658
-0.853689253330230713 1.84739959239959717 0.373459786176681519
0.968502223491668701 0.382031381130218506 0.631489753723144531
0.844787955284118652 0.508078336715698242 0.54509890079498291
0.898857235908508301 0.240333989262580872 0.49928438663482666
-0.241804927587509155 0.687625527381896973 0.567066073417663574
-0.78573143482208252 -0.0581579506397247314 0.296829551458358765
-0.324421286582946777 0.816634654998779297 0.654894828796386719
-1.11149275302886963 -0.152790725231170654 -0.00478438287973403931
0.993903875350952148 0.0813212469220161438 0.480565518140792847
-0.734440326690673828 -0.248396605253219604 0.279957950115203857
0.775922596454620361 0.324661463499069214 0.759402751922607422
-0.237920686602592468 0.888378560543060303 0.431021541357040405
1.16254162788391113 0.429723352193832397 0.473183572292327881
-0.711745500564575195 1.99262917041778564 0.333686113357543945
-0.616578400135040283 -0.626293778419494629 0.218150392174720764
-0.918021678924560547 -0.37453991174697876 0.362293362617492676
-0.948052406311035156 -0.0737010836601257324 0.214537560939788818
1.18739283084869385 0.536048531532287598 0.708509325981140137
-0.947011947631835938 2.03755569458007812 0.00842356495559215546
-0.689758479595184326 0.905673384666442871 0.0788969472050666809
-0.688196301460266113 1.11343920230865479 0.0505276024341583252
-0.569353342056274414 -0.245785772800445557 0.291407346725463867
-0.750214576721191406 1.07126295566558838 0.324804216623306274
-0.997802257537841797 2.00217866897583008 0.373309701681137085
-0.983932852745056152 1.90095436573028564 0.203475654125213623
-1.20730936527252197 -0.079683154821395874 0.190064042806625366
-0.539718866348266602 0.95774531364440918 0.135700076818466187
1.05293929576873779 0.385448813438415527 0.744507133960723877
-1.20714914798736572 -0.320715427398681641 0.337854862213134766
-0.840698838233947754 1.11977255344390869 0.203734785318374634
-0.948939204216003418 1.9398949146270752 0.527513265609741211
-0.788296520709991455 -0.12912750244140625 0.423631638288497925
-0.274111032485961914 1.03432357311248779 0.484420478343963623
0.884905815124511719 0.482912838459014893 0.677657008171081543
-0.331479966640472412 0.949098467826843262 0.688532173633575439
-0.857165336608886719 1.17462456226348877 0.0716323927044868469
-0.777910232543945312 -0.523810744285583496 0.322313815355300903
-1.05619847774505615 -0.321790009737014771 0.292684942483901978
1.09240102767944336 0.407501935958862305 0.587674558162689209
1.18378365039825439 0.175296783447265625 0.450806498527526855
0.873672127723693848 0.209861919283866882 0.693530023097991943
-0.947363674640655518 0.952301502227783203 0.0357188880443572998
-1.06278109550476074 1.01045477390289307 0.0749444141983985901
-1.00032615661621094 -0.203404292464256287 0.366842597723007202
-0.714588403701782227 1.01541447639465332 -0.0389679819345474243
1.05332887172698975 0.254531115293502808 0.644533753395080566
1.1418602466583252 0.31777721643447876 0.412918239831924438
-0.557196438312530518 -0.156419247388839722 0.382743716239929199
-1.07691836357116699 -0.0998363792896270752 0.348831832408905029
-0.551302671432495117 0.826282024383544922 0.528396010398864746
1.19734835624694824 0.306933820247650146 0.571985185146331787
-0.931379318237304688 2.09760856628417969 0.127399221062660217
-0.802112460136413574 -0.291324377059936523 0.100303336977958679
0.938916921615600586 0.183538228273391724 0.816489458084106445
-0.934726595878601074 1.95167124271392822 0.0988428890705108643
-0.671798288822174072 1.06148397922515869 0.450879216194152832
-0.83789902925491333 1.91942322254180908 0.270604968070983887
-0.436951994895935059 0.843670368194580078 0.575041532516479492
-1.052986741065979 1.89455926418304443 0.402132749557495117
0.892510533332824707 0.375463575124740601 0.496562451124191284
-0.834999680519104004 0.926907837390899658 0.130233943462371826
-0.780608177185058594 -0.157989487051963806 0.210112690925598145
-0.831958532333374023 -0.288631647825241089 0.350827127695083618
-0.73678433895111084 -0.442708373069763184 0.443773627281188965
-0.626163899898529053 -0.247438549995422363 0.146403834223747253
-0.649677276611328125 -0.476428508758544922 0.310743898153305054
0.970746159553527832 0.502647995948791504 0.517415761947631836
-0.91338658332824707 -0.10062059760093689 0.32581135630607605
-0.252205193042755127 0.845415472984313965 0.553803324699401855
0.788812696933746338 0.269509613513946533 0.488421618938446045
-0.748180627822875977 0.830223798751831055 0.0167677793651819229
-1.2614438533782959 -0.21422278881072998 0.170900464057922363
1.05663371086120605 0.206560954451560974 0.746694087982177734
-1.04537546634674072 1.99091577529907227 0.272482752799987793
-0.903845667839050293 2.05903220176696777 0.351935446262359619
0.945477902889251709 0.258201450109481812 0.599004089832305908
-0.923987388610839844 1.82642471790313721 0.147151216864585876
-0.743218719959259033 1.01992547512054443 0.108913935720920563
-0.37039107084274292 0.913062095642089844 0.442096829414367676
1.14398324489593506 0.296267777681350708 0.692701458930969238
-0.668174803256988525 -0.339241147041320801 0.0980196744203567505
-0.929017424583435059 1.85053479671478271 0.293028295040130615
-0.72757565975189209 0.775763928890228271 0.157916128635406494
0.979531347751617432 0.40999951958656311 0.821575522422790527
-0.168143510818481445 0.888842463493347168 0.607218563556671143
-0.630857467651367188 -0.374612540006637573 0.354742556810379028
1.00310015678405762 0.298768877983093262 0.482533395290374756
0.992466926574707031 0.188407987356185913 0.490530461072921753
-0.881807923316955566 -0.22923809289932251 0.0639378726482391357
-0.68238532543182373 -0.0863842368125915527 0.292461127042770386
1.06470322608947754 0.15138128399848938 0.594153046607971191
-0.856676697731018066 0.857663512229919434 0.0292897094041109085
-0.816971480846405029 2.06272506713867188 0.260513126850128174
0.804539501667022705 0.414190173149108887 0.676173985004425049
-0.992604494094848633 -0.256762534379959106 0.234856337308883667
-0.523472785949707031 -0.340646028518676758 0.289721190929412842
-0.74963831901550293 1.1581040620803833 0.128765910863876343
-0.937964677810668945 0.9055747389793396 0.135868370532989502
-0.883864402770996094 -0.15182793140411377 0.185367479920387268
-0.554157435894012451 0.801376581192016602 0.0617855861783027649
-0.116599664092063904 0.910243213176727295 0.516148805618286133
-0.913586616516113281 -0.18766370415687561 0.422276586294174194
0.764288365840911865 0.451264023780822754 0.51156318187713623
-0.425585925579071045 0.951790690422058105 0.616847813129425049
-0.886072874069213867 -0.0882717669010162354 0.426653861999511719
-1.04933011531829834 -0.104061879217624664 0.197286099195480347
-0.851184964179992676 -0.352948486804962158 0.273145556449890137
0.891113340854644775 0.37931486964225769 0.721351027488708496
-0.783524096012115479 0.927246510982513428 0.391749709844589233
0.856440603733062744 0.616414487361907959 0.556353986263275146
-0.768737494945526123 -0.211689502000808716 0.368915379047393799
-0.874559879302978516 -0.530070722103118896 0.385903656482696533
-0.914545953273773193 1.87920534610748291 0.454962491989135742
1.07836699485778809 0.473770022392272949 0.505058169364929199
-0.649722456932067871 -0.107462137937545776 0.409007608890533447
-1.1646418571472168 -0.0309990867972373962 0.334872663021087646
0.783436775207519531 0.380282163619995117 0.42627716064453125
-0.59376072883605957 1.02556061744689941 0.0872440710663795471
1.04251527786254883 0.320421218872070312 0.570955038070678711
0.874392509460449219 0.428755909204483032 0.595813274383544922
-0.56440281867980957 0.857107698917388916 0.620084285736083984
-0.779636502265930176 1.84246468544006348 0.260464668273925781
-0.788234949111938477 -0.434593379497528076 0.250721067190170288
1.12462818622589111 0.470402359962463379 0.741744399070739746
0.842431247234344482 0.373954117298126221 0.808599114418029785
-0.664995670318603516 -0.270086616277694702 0.348965376615524292
-0.845039844512939453 0.957930505275726318 0.0169220380485057831
-0.58023536205291748 -0.504090070724487305 0.370915114879608154
-0.66373288631439209 0.979522585868835449 0.401899039745330811
1.11723160743713379 0.513374984264373779 0.637391328811645508
-0.760481595993041992 1.85219430923461914 0.353431880474090576
-0.915186762809753418 1.05811882019042969 0.0245511401444673538
-0.906891345977783203 1.94832682609558105 0.329531222581863403
-1.10812258720397949 -0.142005130648612976 0.428087443113327026
-0.245165109634399414 0.947184503078460693 0.61852264404296875
-0.734889507293701172 -0.428863704204559326 0.161322861909866333
-0.678554117679595947 0.832663297653198242 0.214318841695785522
-0.34371522068977356 0.837326228618621826 0.526834189891815186
-1.11411476135253906 0.00560341402888298035 0.0503294765949249268
-0.816453456878662109 -0.41196441650390625 0.117901146411895752
-0.512694299221038818 0.905517697334289551 0.560907721519470215
1.14622259140014648 0.234513625502586365 0.597468435764312744
-0.998261094093322754 1.92023050785064697 0.331507205963134766
-1.00315380096435547 2.08395147323608398 0.33204960823059082
-1.07583999633789062 -0.025959312915802002 0.402960926294326782
0.87489783763885498 0.528722465038299561 0.461113691329956055
-0.647761940956115723 -0.397082149982452393 0.207644239068031311
-0.942822694778442383 -0.271738052368164062 0.401684224605560303
-0.948274731636047363 1.83758580684661865 0.381025791168212891
-0.178642496466636658 0.779314637184143066 0.608630895614624023
-0.857896327972412109 1.86301589012145996 0.201288729906082153
1.12906074523925781 0.340096056461334229 0.523033738136291504
0.804358363151550293 0.51578599214553833 0.624698340892791748
-0.810667991638183594 -0.152520298957824707 0.293961256742477417
0.722483694553375244 0.395759642124176025 0.756894171237945557
-0.96402972936630249 -0.297458022832870483 0.308353602886199951
0.915007293224334717 0.112496167421340942 0.505320191383361816
1.13708865642547607 0.121773287653923035 0.635157942771911621
-0.241379067301750183 0.918617606163024902 0.348277181386947632
-0.678099274635314941 -0.315836340188980103 0.273424506187438965
-0.811567425727844238 1.94539034366607666 0.400165319442749023
1.06152129173278809 0.354476004838943481 0.663351714611053467
0.968826532363891602 0.418855667114257812 0.71031951904296875
-0.770712018013000488 0.95147550106048584 0.063597559928894043
-0.815757870674133301 -0.253561675548553467 0.250763803720474243
0.878236174583435059 0.0949590802192687988 0.348573565483093262
-1.18328452110290527 -0.241063535213470459 0.375175803899765015
-0.962608873844146729 -0.428828656673431396 0.31302189826965332
-0.823602378368377686 -0.202894449234008789 0.447782069444656372
-0.796606004238128662 1.09391653537750244 0.0993282198905944824
-1.0395047664642334 -0.375133007764816284 0.356450587511062622
-0.313131153583526611 0.765738487243652344 0.588304042816162109
-0.774700045585632324 1.99085426330566406 0.274141877889633179
-1.27185285091400146 -0.14286254346370697 0.233185529708862305
0.853876709938049316 0.28164258599281311 0.626546323299407959
-0.737749814987182617 0.842586696147918701 0.107664734125137329
-0.841498136520385742 -0.0200201719999313354 0.34676516056060791
-0.73345947265625 0.995594918727874756 0.358393639326095581
-0.809585392475128174 -0.354632854461669922 0.200547188520431519
-0.335105091333389282 1.00896310806274414 0.569267928600311279
-0.694396734237670898 -0.162768423557281494 0.234589993953704834
-0.737224817276000977 0.938352108001708984 0.139010012149810791
-0.982376158237457275 -0.34356313943862915 0.4147835373878479
-1.08294773101806641 -0.206685692071914673 0.372448176145553589
-0.858256876468658447 -0.177433252334594727 0.356927067041397095
