ply
format ascii 1.0
element vertex 256
comment vertices
property float x
property float y
property float z
end_header
-1.21360480785369873 -1.56964385509490967 0.356563031673431396
12.2296810150146484 -7.12465620040893555 0.288309663534164429
2.43732500076293945 5.83820533752441406 0.419485986232757568
5.56375741958618164 -2.53817367553710938 0.184607669711112976
-5.44627904891967773 -2.78803062438964844 0.349610209465026855
1.49083137512207031 1.52862131595611572 0.593617260456085205
-2.95274543762207031 -5.27996110916137695 0.320957183837890625
-1.66569554805755615 1.25519895553588867 0.431649208068847656
4.57082414627075195 4.07190561294555664 0.343573302030563354
1.47441959381103516 -1.43124568462371826 0.529276013374328613
3.8578495979309082 -4.59178829193115234 0.167172402143478394
0.221522077918052673 -1.93425333499908447 0.0662086755037307739
-3.93031549453735352 -4.3626093864440918 0.538064002990722656
2.21486449241638184 -0.328086256980895996 0.567172348499298096
0.635987699031829834 1.93326866626739502 0.60065007209777832
-1.57934129238128662 -0.750879943370819092 0.298146307468414307
-1.78500068187713623 0.539657056331634521 0.452029138803482056
1.81630814075469971 -0.816223084926605225 0.223796918988227844
2.32866024971008301 5.217620849609375 0.472207695245742798
1.480552077293396 1.20026469230651855 0.250965684652328491
-1.55279099941253662 -1.16965663433074951 0.190060600638389587
-5.29779767990112305 -2.40689373016357422 0.383909612894058228
-3.92701959609985352 -4.69505500793457031 0.316497743129730225
1.24317669868469238 -1.59625935554504395 0.252976715564727783
-1.84443962574005127 0.928691387176513672 0.506713271141052246
2.0831606388092041 -0.560442030429840088 0.277136296033859253
1.18671464920043945 1.38964188098907471 0.370535582304000854
2.48362970352172852 5.50616121292114258 0.383982717990875244
4.29856586456298828 4.09931564331054688 0.536051511764526367
11.9780187606811523 -7.29085206985473633 0.279848188161849976
-2.87966370582580566 -5.08413410186767578 0.125366106629371643
0.802064120769500732 1.81117582321166992 0.403049737215042114
1.23450469970703125 -1.56302201747894287 0.515947997570037842
1.45857977867126465 1.43379378318786621 0.339431613683700562
-1.34327006340026855 -1.47807157039642334 0.171243846416473389
4.04311847686767578 -4.44465732574462891 0.113951846957206726
2.25990629196166992 5.44249725341796875 0.430425405502319336
-1.38352274894714355 -1.41911458969116211 0.418931961059570312
4.36051702499389648 3.98481535911560059 0.29200407862663269
-4.04075384140014648 -4.502838134765625 0.392309457063674927
0.386659592390060425 -2.01996755599975586 0.196061298251152039
-1.76008009910583496 1.0924537181854248 0.634711384773254395
-2.89589333534240723 -5.09442996978759766 0.427763611078262329
-1.68349170684814453 0.735732197761535645 0.456734746694564819
12.01361083984375 -7.15537214279174805 0.109571926295757294
-1.69276630878448486 -1.00285255908966064 0.162841528654098511
5.37269496917724609 -2.47202873229980469 0.100880429148674011
-3.07877850532531738 -5.14362382888793945 0.184573858976364136
1.91528177261352539 -0.637742757797241211 0.158112794160842896
1.32629537582397461 1.38223719596862793 0.532202661037445068
-5.27402019500732422 -2.54864263534545898 0.533719420433044434
-1.40245652198791504 -1.64470350742340088 0.355190008878707886
2.18720316886901855 -0.431867778301239014 0.397440433502197266
1.39843201637268066 -1.56899142265319824 0.401504546403884888
-5.34010553359985352 -2.6256868839263916 0.368642568588256836
12.0522727966308594 -7.08536624908447266 0.304417550563812256
1.24513769149780273 -1.44865942001342773 0.359239041805267334
12.1250743865966797 -7.2415623664855957 0.367407351732254028
2.386871337890625 5.35218334197998047 0.358657151460647583
-3.89644813537597656 -4.55586576461791992 0.467541217803955078
-5.30023288726806641 -2.86569905281066895 0.382668137550354004
3.86968278884887695 -4.42491436004638672 0.151685059070587158
0.818830311298370361 1.86062741279602051 0.562206029891967773
-1.55445897579193115 -0.914144456386566162 0.183023914694786072
-2.94888591766357422 -5.04665756225585938 0.279028505086898804
-1.83957588672637939 0.735345065593719482 0.410287559032440186
1.3158944845199585 -1.39730072021484375 0.54095149040222168
1.25383782386779785 1.51739287376403809 0.480063676834106445
1.43667197227478027 -1.55404698848724365 0.245645403861999512
5.41936826705932617 -2.61709880828857422 0.146093934774398804
4.49991512298583984 4.14156913757324219 0.467390000820159912
-1.30779099464416504 -1.62275147438049316 0.224331051111221313
5.44344902038574219 -2.43363618850708008 0.236921936273574829
-1.77891421318054199 1.08260178565979004 0.48090246319770813
4.4314422607421875 3.9711153507232666 0.427286744117736816
4.41477060317993164 4.08160972595214844 0.187454119324684143
4.01211071014404297 -4.58443450927734375 0.165321886539459229
2.38300299644470215 5.70153236389160156 0.454467356204986572
-1.72627639770507812 0.863259255886077881 0.572185754776000977
12.1546859741210938 -7.1912689208984375 0.145757034420967102
2.53306245803833008 5.40116500854492188 0.478051245212554932
-1.69029426574707031 -0.84746706485748291 0.282036006450653076
-4.01729822158813477 -4.63597297668457031 0.449551582336425781
4.29460525512695312 4.06893587112426758 0.388682633638381958
-1.30490565299987793 -1.48632502555847168 0.518421769142150879
1.4003598690032959 1.27807962894439697 0.338526904582977295
0.23252512514591217 -1.9858856201171875 0.196891546249389648
1.22331106662750244 -1.63898360729217529 0.400541484355926514
-3.02465105056762695 -5.16406536102294922 0.308519721031188965
1.31800580024719238 1.42713570594787598 0.367957383394241333
0.339305222034454346 -1.88328814506530762 0.104737445712089539
0.70803070068359375 1.90429794788360596 0.408879518508911133
1.41717863082885742 1.4233018159866333 0.615765094757080078
1.43017733097076416 1.44090092182159424 0.466071963310241699
2.48547792434692383 5.61669063568115234 0.452178686857223511
4.41717672348022461 4.10729551315307617 0.314427107572555542
-1.40054810047149658 -1.5453953742980957 0.442325025796890259
2.34909296035766602 5.53589630126953125 0.421417295932769775
1.91919755935668945 -0.559905529022216797 0.260204166173934937
-3.95073986053466797 -4.55419063568115234 0.316956281661987305
-1.81857526302337646 0.77093815803527832 0.531024396419525146
-2.91492891311645508 -5.16425132751464844 0.244821488857269287
-1.33951699733734131 -1.5236809253692627 0.294234752655029297
2.02621054649353027 -0.489436149597167969 0.362825512886047363
-5.36581802368164062 -2.51619434356689453 0.317257821559906006
2.37434720993041992 5.41726970672607422 0.465219497680664062
3.93518519401550293 -4.49869203567504883 0.0834903493523597717
-1.76483607292175293 0.980461239814758301 0.576786458492279053
-1.77262485027313232 0.829497575759887695 0.433755666017532349
0.30650058388710022 -2.01504683494567871 0.111845791339874268
12.1263666152954102 -7.18728303909301758 0.258246690034866333
-5.29142332077026367 -2.52235126495361328 0.402403056621551514
5.49163627624511719 -2.48322343826293945 0.117280945181846619
4.38273382186889648 4.09510421752929688 0.453967154026031494
0.307366669178009033 -1.95373106002807617 0.27461695671081543
-1.77951729297637939 1.18575584888458252 0.437078922986984253
1.3122488260269165 -1.54100430011749268 0.335616409778594971
-3.91063094139099121 -4.66295003890991211 0.430431991815567017
-5.39863824844360352 -2.71173524856567383 0.283750653266906738
-1.30654633045196533 -1.499642014503479 0.404500573873519897
-1.29597342014312744 -1.66148734092712402 0.328620314598083496
-1.74373543262481689 0.978926718235015869 0.468504011631011963
1.31680262088775635 1.33371603488922119 0.42335626482963562
12.1596050262451172 -7.04250764846801758 0.284632325172424316
2.3360445499420166 5.80123662948608398 0.418990105390548706
5.45712947845458984 -2.54024696350097656 0.234005257487297058
1.39262974262237549 -1.46864199638366699 0.438508540391921997
1.49182331562042236 1.331290602684021 0.348765075206756592
1.49385464191436768 1.52531182765960693 0.475543200969696045
1.22876501083374023 1.50599610805511475 0.377611786127090454
-1.65231692790985107 -0.931430459022521973 0.228633299469947815
3.97019839286804199 -4.48206710815429688 0.179180115461349487
4.4673309326171875 4.01746368408203125 0.316536426544189453
1.14467215538024902 -1.5820385217666626 0.434499889612197876
3.85680913925170898 -4.51033973693847656 0.229112699627876282
11.9695005416870117 -7.19335651397705078 0.250028014183044434
1.36468398571014404 1.50576686859130859 0.509039700031280518
-1.5875248908996582 -0.845019757747650146 0.335295647382736206
1.28427767753601074 -1.53896856307983398 0.432715833187103271
5.5081791877746582 -2.58648896217346191 0.112079307436943054
0.271671473979949951 -1.89716958999633789 0.181161627173423767
-1.59674537181854248 -0.824332177639007568 0.235440373420715332
2.39220142364501953 5.28612852096557617 0.501732110977172852
1.3915095329284668 -1.60977935791015625 0.31270444393157959
-5.36944770812988281 -2.5597984790802002 0.44721454381942749
0.801929295063018799 1.90642082691192627 0.425678491592407227
4.4669194221496582 4.06309986114501953 0.399399101734161377
-1.62596786022186279 -1.11164665222167969 0.201940476894378662
-2.95676231384277344 -5.13636302947998047 0.138551086187362671
-4.02815961837768555 -4.53714275360107422 0.478548884391784668
1.41024601459503174 1.36052584648132324 0.424483984708786011
1.16417396068572998 -1.57887506484985352 0.343968898057937622
0.697356164455413818 1.91934561729431152 0.499437540769577026
12.0971593856811523 -7.07071161270141602 0.223882690072059631
1.4350510835647583 1.37350666522979736 0.527603685855865479
-3.0010683536529541 -5.11709499359130859 0.223718583583831787
4.06241083145141602 -4.54321956634521484 0.102423161268234253
-3.96672511100769043 -4.62816190719604492 0.365516424179077148
-1.26201522350311279 -1.55356156826019287 0.258687734603881836
0.383174210786819458 -1.92402935028076172 0.17156471312046051
12.0525808334350586 -7.21804285049438477 0.298770487308502197
1.8319934606552124 -0.653325080871582031 0.186563193798065186
2.34584975242614746 5.43147087097167969 0.381882041692733765
1.32121539115905762 -1.61243009567260742 0.391445308923721313
-3.04175591468811035 -5.28076505661010742 0.322201669216156006
-5.35998106002807617 -2.80389785766601562 0.336753785610198975
4.37345123291015625 4.03078269958496094 0.379149496555328369
5.39280843734741211 -2.53355216979980469 0.174469009041786194
-1.25335431098937988 -1.48382270336151123 0.336420834064483643
-1.70059823989868164 0.560202240943908691 0.446426600217819214
-5.38080739974975586 -2.70599055290222168 0.368577927350997925
-1.41174685955047607 -1.49910318851470947 0.369872331619262695
2.29055356979370117 5.36468982696533203 0.451494902372360229
-1.62594175338745117 -0.88997960090637207 0.141381055116653442
-1.70946609973907471 1.17550992965698242 0.485777944326400757
1.44630575180053711 -1.40331220626831055 0.448990702629089355
0.713845372200012207 1.82211494445800781 0.39042818546295166
3.8321526050567627 -4.53722190856933594 0.109237350523471832
-3.90717864036560059 -4.52430868148803711 0.381649702787399292
12.0520076751708984 -7.14346742630004883 0.244425922632217407
1.21942567825317383 -1.52997267246246338 0.307441651821136475
2.09723591804504395 -0.455839425325393677 0.386287689208984375
5.42554569244384766 -2.41556692123413086 0.128051534295082092
2.4311830997467041 5.57840347290039062 0.404273539781570435
3.93597555160522461 -4.56927585601806641 0.124352753162384033
2.43444633483886719 5.41142654418945312 0.386441051959991455
-1.75420570373535156 0.703640401363372803 0.476638168096542358
-1.2917182445526123 -1.58263015747070312 0.36787337064743042
12.1341972351074219 -7.11698818206787109 0.29861864447593689
-3.97095060348510742 -4.56154966354370117 0.43035435676574707
0.306093752384185791 -2.00937008857727051 0.209589049220085144
-1.78156459331512451 0.610146820545196533 0.485407114028930664
-1.5784069299697876 -0.975447356700897217 0.141922101378440857
12.1549282073974609 -7.25930690765380859 0.257290244102478027
-1.7447277307510376 0.812798440456390381 0.516980528831481934
0.787093460559844971 1.92991316318511963 0.573186099529266357
1.31859517097473145 1.47738373279571533 0.426269114017486572
-2.97634029388427734 -5.20781946182250977 0.260418415069580078
0.644166231155395508 1.85858500003814697 0.584376692771911621
1.39842748641967773 -1.50510275363922119 0.290563970804214478
-1.32509851455688477 -1.43498742580413818 0.231798022985458374
-1.78146088123321533 0.884577810764312744 0.523689866065979004
5.43774652481079102 -2.61534285545349121 0.220099955797195435
12.0290040969848633 -7.11209583282470703 0.170285791158676147
-1.67924010753631592 0.682590782642364502 0.510801792144775391
0.35120081901550293 -1.96208798885345459 0.0808665826916694641
-1.62408840656280518 -0.887490034103393555 0.284211724996566772
1.24871015548706055 1.39047563076019287 0.412726461887359619
4.41718053817749023 3.94208335876464844 0.315717250108718872
0.201693683862686157 -1.92348134517669678 0.169575080275535583
1.39155924320220947 1.43243110179901123 0.539568305015563965
1.42112016677856445 1.49473488330841064 0.633884072303771973
1.27749419212341309 -1.62667214870452881 0.448764562606811523
5.40942573547363281 -2.53490877151489258 0.0966372638940811157
-2.93517446517944336 -5.08511257171630859 0.339270561933517456
-1.39408934116363525 -1.60373067855834961 0.296178191900253296
0.769611835479736328 1.86370611190795898 0.474070817232131958
-5.40407276153564453 -2.62475728988647461 0.401176691055297852
1.23766732215881348 -1.52033793926239014 0.382269799709320068
1.2130424976348877 -1.56589376926422119 0.445792078971862793
4.55414772033691406 4.10932636260986328 0.436988741159439087
-2.99516177177429199 -5.10140275955200195 0.298108696937561035
0.276405930519104004 -1.8869701623916626 0.074192345142364502
2.15749335289001465 -0.466422557830810547 0.344282567501068115
-3.88749384880065918 -4.64911413192749023 0.365853965282440186
2.01610374450683594 -0.560994267463684082 0.296944886445999146
2.4173893928527832 5.50991535186767578 0.407150745391845703
12.1060810089111328 -7.18186473846435547 0.324827045202255249
0.247868120670318604 -1.99784469604492188 0.0758555978536605835
-2.95252275466918945 -5.07111883163452148 0.204789072275161743
-1.36836051940917969 -1.496254563331604 0.233399763703346252
4.41513633728027344 4.03460168838500977 0.462571024894714355
-1.84883654117584229 0.832832217216491699 0.535283207893371582
-1.36919331550598145 -1.59591734409332275 0.40732043981552124
-2.88323712348937988 -5.10523128509521484 0.229357317090034485
2.34796261787414551 5.77408218383789062 0.480865746736526489
-1.75717306137084961 0.764122962951660156 0.419888138771057129
1.40089499950408936 1.36190104484558105 0.590137660503387451
1.28216397762298584 -1.4971468448638916 0.292500436305999756
1.38034379482269287 -1.61092495918273926 0.245166078209877014
1.37056899070739746 1.38608932495117188 0.480290830135345459
3.90589785575866699 -4.55055141448974609 0.192305713891983032
12.0972042083740234 -7.16387176513671875 0.198266714811325073
-5.39353132247924805 -2.78729104995727539 0.280326128005981445
-1.37449193000793457 -1.48594856262207031 0.424408644437789917
-1.27677905559539795 -1.5581214427947998 0.193208664655685425
0.767770230770111084 1.86545515060424805 0.383109152317047119
5.42899322509765625 -2.46668505668640137 0.18044126033782959
-1.85166585445404053 0.770135641098022461 0.473134726285934448
-4.02086734771728516 -4.59073877334594727 0.374377995729446411
3.88946080207824707 -4.51758098602294922 0.136422738432884216
4.44834566116333008 4.02243566513061523 0.253503322601318359
4.02397584915161133 -4.51368951797485352 0.157943129539489746
0.75580519437789917 1.84986698627471924 0.535986661911010742
1.39383435249328613 1.43101072311401367 0.337682604789733887
4.36740303039550781 3.98532390594482422 0.424584656953811646
