ply
format ascii 1.0
element vertex 256
comment vertices
property float x
property float y
property float z
end_header
0.913360118865966797 1.44406402111053467 0.653409898281097412
-2.4465029239654541 -0.601182460784912109 0.797956347465515137
-1.05488991737365723 0.934844017028808594 0.590787410736083984
0.316168844699859619 2.98064255714416504 0.225438475608825684
-1.57584023475646973 -0.141505837440490723 0.133351728320121765
-0.11039578914642334 2.24958300590515137 1.02389788627624512
-2.00512099266052246 0.296415030956268311 0.912151813507080078
0.80018913745880127 2.2488853931427002 0.343174934387207031
-0.202425986528396606 1.06573688983917236 0.5669289231300354
0.172925233840942383 1.63612771034240723 0.766636013984680176
0.457496821880340576 2.64657258987426758 0.797932863235473633
-1.4505922794342041 0.402704954147338867 0.534827113151550293
-1.90103352069854736 -0.389080405235290527 0.639791011810302734
0.270838320255279541 2.13426113128662109 0.565537333488464355
-0.601441919803619385 0.727509856224060059 0.795846283435821533
-2.31929397583007812 -0.14044170081615448 1.03445971012115479
0.461816072463989258 1.57211554050445557 0.33909490704536438
-0.0223053693771362305 2.62071919441223145 0.678710043430328369
-1.94371414184570312 0.192844390869140625 0.432847082614898682
0.711349308490753174 2.7274482250213623 0.317411065101623535
-1.68474030494689941 -0.0216082334518432617 0.758045554161071777
0.516660332679748535 1.42586588859558105 0.762852907180786133
0.988669872283935547 1.6538693904876709 0.332476586103439331
-2.20547962188720703 -0.560119152069091797 0.466414779424667358
0.318486511707305908 2.64572334289550781 0.452308118343353271
0.0868951082229614258 2.56390571594238281 1.03748619556427002
0.348047375679016113 2.29135847091674805 0.891059517860412598
0.066486358642578125 1.98749053478240967 0.835344433784484863
-2.04289531707763672 -0.0816340446472167969 0.803031563758850098
-0.707294285297393799 0.999992728233337402 0.599566817283630371
0.567404627799987793 2.04603743553161621 0.18207259476184845
0.594848990440368652 2.01896190643310547 0.557844281196594238
-1.30109870433807373 0.6304207444190979 0.324760407209396362
-0.422269880771636963 0.837938368320465088 0.435327053070068359
-1.77115714550018311 0.469848394393920898 0.336342424154281616
0.593137621879577637 1.28136134147644043 0.465085864067077637
-2.16364312171936035 -0.222221732139587402 0.525880932807922363
-1.8030468225479126 0.399554967880249023 0.671119093894958496
-0.0712209939956665039 2.02379870414733887 0.547322094440460205
0.0397640466690063477 2.30668973922729492 0.74911653995513916
0.699320971965789795 1.65304327011108398 0.54790043830871582
0.624837875366210938 2.49579381942749023 0.515419900417327881
-2.1650397777557373 -0.38200804591178894 0.901645302772521973
-1.56394362449645996 0.118171565234661102 0.512914776802062988
0.22781836986541748 1.87160098552703857 0.42748531699180603
-1.82812178134918213 -0.373120784759521484 0.357563883066177368
-0.418589264154434204 0.944983601570129395 0.766247034072875977
-2.14306187629699707 0.15035209059715271 0.676521122455596924
0.49269479513168335 2.22058463096618652 0.39029461145401001
0.336862087249755859 1.95192670822143555 0.766949057579040527
-0.864155292510986328 0.817438006401062012 0.8089560866355896
-2.19256401062011719 0.113397270441055298 0.992762207984924316
0.796690106391906738 1.42200767993927002 0.353058338165283203
0.414823949337005615 2.38393259048461914 0.644205689430236816
-0.166873812675476074 2.50808215141296387 0.874248981475830078
0.298737168312072754 2.91097688674926758 0.484492838382720947
-2.4213874340057373 -0.415391862392425537 0.98682701587677002
0.205849528312683105 2.52842950820922852 0.802861511707305908
-1.52458739280700684 -0.176381766796112061 0.617868542671203613
0.414059937000274658 1.70434069633483887 0.707252204418182373
0.296425044536590576 1.45311522483825684 0.632970631122589111
-2.31568717956542969 -0.400183618068695068 0.694524526596069336
1.12245738506317139 1.47624611854553223 0.458138406276702881
-1.89902973175048828 -0.0638599470257759094 0.596634209156036377
-1.47686600685119629 0.370871514081954956 0.299840539693832397
-1.8000483512878418 0.20024457573890686 0.797305464744567871
0.205724835395812988 2.69756317138671875 0.646300017833709717
-1.93287539482116699 0.056420445442199707 0.950174689292907715
-0.0492265224456787109 2.6972651481628418 0.915908336639404297
0.451976418495178223 2.83696532249450684 0.629563689231872559
0.634615898132324219 2.3863523006439209 0.283485382795333862
-2.09739589691162109 -0.486170053482055664 0.641932487487792969
0.544320404529571533 2.73489522933959961 0.4573250412940979
0.22067183256149292 2.14430427551269531 0.792713165283203125
-2.28951239585876465 -0.018751293420791626 0.853322625160217285
0.287991523742675781 1.65177679061889648 0.54201817512512207
0.534964859485626221 1.51757323741912842 0.556261837482452393
0.35088646411895752 2.51594877243041992 0.95579761266708374
-0.798621833324432373 0.800023198127746582 0.609257102012634277
0.915316104888916016 1.31357038021087646 0.486290276050567627
-1.6376039981842041 0.313732713460922241 0.554070889949798584
0.495622754096984863 2.08101177215576172 0.733328461647033691
0.12434077262878418 2.38370466232299805 0.92255401611328125
0.183434009552001953 2.69938969612121582 0.911044597625732422
-0.523739159107208252 0.815309524536132812 0.608767092227935791
-2.053314208984375 -0.382263481616973877 0.470462590456008911
0.35922849178314209 2.78537321090698242 0.253349930047988892
-2.2491919994354248 -0.568158209323883057 0.82221907377243042
0.0541597604751586914 2.16318702697753906 0.933028101921081543
0.723201632499694824 1.4883042573928833 0.701363205909729004
-2.1309657096862793 -0.190426364541053772 0.948106527328491211
-1.88728725910186768 0.369989246129989624 0.496053397655487061
-2.36798381805419922 -0.271480083465576172 0.868279039859771729
0.461437880992889404 2.57749128341674805 0.619476556777954102
0.359422981739044189 1.9694671630859375 0.526796400547027588
0.851565539836883545 2.41168093681335449 0.257675200700759888
-0.679081916809082031 0.897791266441345215 0.758781790733337402
-2.32653379440307617 -0.597208082675933838 0.60851520299911499
-0.455067992210388184 0.990666747093200684 0.543962180614471436
0.204302191734313965 2.29049444198608398 0.655542373657226562
-1.99582946300506592 -0.256550192832946777 0.736643314361572266
-1.9013671875 0.0390026867389678955 0.764155209064483643
0.684832096099853516 2.09388375282287598 0.410173892974853516
0.0924668312072753906 2.44871783256530762 0.638395965099334717
-1.52430546283721924 0.172355398535728455 0.687417447566986084
0.0965320467948913574 2.06641983985900879 0.611681163311004639
0.657896757125854492 1.53331446647644043 0.391603767871856689
0.592526257038116455 2.59138107299804688 0.356953829526901245
0.434371888637542725 2.20377540588378906 0.603161811828613281
0.832504153251647949 1.54217088222503662 0.495379924774169922
0.997236967086791992 1.47505414485931396 0.306476473808288574
-2.08147192001342773 0.145664900541305542 0.848514199256896973
-1.8434295654296875 -0.0809484720230102539 0.881205439567565918
-2.05041313171386719 0.27675667405128479 0.546258687973022461
-0.335859596729278564 0.869487881660461426 0.590485215187072754
-0.07292938232421875 2.07102394104003906 0.768885612487792969
-0.132426619529724121 2.25302505493164062 0.852671265602111816
-2.17232561111450195 -0.219319403171539307 0.784078717231750488
0.300531625747680664 2.54129719734191895 0.596730232238769531
0.0483435392379760742 2.56214570999145508 0.843507766723632812
-0.165949702262878418 2.56414222717285156 1.02992725372314453
-2.09790301322937012 -0.650741696357727051 0.626535475254058838
0.135050058364868164 1.89458930492401123 0.71763145923614502
-0.464286714792251587 0.723155796527862549 0.886560738086700439
-1.7754065990447998 0.0706849992275238037 0.894521474838256836
-1.97401213645935059 0.178971618413925171 0.651614487171173096
0.666277229785919189 1.37177610397338867 0.578755736351013184
-1.6589430570602417 0.260025382041931152 0.710061550140380859
-0.0645456314086914062 2.4203498363494873 0.962772488594055176
0.0737197995185852051 2.23381567001342773 0.582298040390014648
-1.90639257431030273 0.320048630237579346 0.760148882865905762
-1.90883779525756836 -0.442730069160461426 0.488285958766937256
-0.950409531593322754 1.03370285034179688 0.526765167713165283
1.00329875946044922 1.56835412979125977 0.503085672855377197
0.390061378479003906 2.22833824157714844 0.754284024238586426
0.255408883094787598 1.86963260173797607 0.585769891738891602
-0.662503421306610107 0.821464478969573975 0.538110733032226562
-0.609582185745239258 1.03370797634124756 0.741483211517333984
0.314357876777648926 2.27733612060546875 0.530688047409057617
-0.0691022872924804688 2.47511911392211914 0.66790008544921875
0.322058677673339844 1.99319934844970703 0.380196869373321533
0.383875489234924316 1.39940404891967773 0.520871996879577637
-1.7021256685256958 0.179966926574707031 0.516963422298431396
-1.41207337379455566 0.536905407905578613 0.367584973573684692
-2.0334773063659668 -0.0615799427032470703 0.952693581581115723
0.585765838623046875 2.6532893180847168 0.582813024520874023
0.850852251052856445 1.31341099739074707 0.682667315006256104
-2.02863430976867676 -0.526123642921447754 0.488675355911254883
-2.11557221412658691 -0.384251952171325684 0.764522135257720947
-2.14742422103881836 0.00156824290752410889 0.88741147518157959
-1.9366614818572998 0.185503900051116943 0.847134709358215332
-0.742927074432373047 0.761367201805114746 0.866962313652038574
0.514655649662017822 1.90514779090881348 0.515896320343017578
0.224419116973876953 2.00400638580322266 0.684822797775268555
-1.93577384948730469 -0.509541153907775879 0.710526108741760254
-1.60354709625244141 0.102572575211524963 0.783944606781005859
-0.86668628454208374 0.909393846988677979 0.699455499649047852
0.640326917171478271 2.1678922176361084 0.296296358108520508
0.31006234884262085 2.40207505226135254 0.739600419998168945
0.61537778377532959 2.83269858360290527 0.324238806962966919
-0.518378078937530518 0.841619908809661865 0.777074575424194336
0.346834480762481689 1.59440743923187256 0.765575230121612549
0.163191795349121094 2.29418492317199707 0.816474616527557373
0.311550796031951904 2.58964323997497559 0.734426259994506836
0.459067761898040771 2.45669198036193848 0.753694534301757812
-1.79788398742675781 0.00219121575355529785 0.66475987434387207
-0.573091030120849609 0.969544768333435059 0.611083149909973145
0.376969218254089355 2.14166116714477539 0.479902058839797974
0.449045658111572266 2.07050895690917969 0.581832647323608398
0.757247328758239746 1.41686582565307617 0.482711344957351685
-1.80111861228942871 0.243557512760162354 0.668990790843963623
-0.261116325855255127 1.10732400417327881 0.452934741973876953
-2.0722653865814209 0.0416754335165023804 0.711427986621856689
-2.21458339691162109 -0.394984185695648193 0.606472611427307129
-0.533356368541717529 0.720647454261779785 0.514174222946166992
0.574778079986572266 2.15085697174072266 0.570991218090057373
-0.928143560886383057 0.79329383373260498 0.575664877891540527
0.145783364772796631 2.41308021545410156 0.755487680435180664
0.433018088340759277 1.48426485061645508 0.677168786525726318
0.31931149959564209 2.09484696388244629 0.705241262912750244
0.266229987144470215 2.3977363109588623 0.559208154678344727
-2.35131072998046875 -0.486518144607543945 0.800025701522827148
-0.646201014518737793 0.804022490978240967 0.671473681926727295
0.467735588550567627 1.61444592475891113 0.626656115055084229
0.559423089027404785 2.45730495452880859 0.623430430889129639
0.67080843448638916 2.40368485450744629 0.433020055294036865
-2.18380451202392578 0.0640918910503387451 0.775065302848815918
0.465121567249298096 2.57460260391235352 0.378239274024963379
0.911092042922973633 1.55218970775604248 0.365707725286483765
0.128952383995056152 2.16651487350463867 0.687201201915740967
-0.843925714492797852 0.991340041160583496 0.585911571979522705
-0.47503972053527832 0.723541200160980225 0.750033318996429443
-0.0999990701675415039 2.64992856979370117 0.776886224746704102
-2.2274169921875 -0.12376914918422699 0.893851399421691895
0.267830371856689453 1.85601544380187988 0.716848373413085938
0.42766183614730835 1.92109012603759766 0.681868910789489746
0.671859145164489746 1.39658915996551514 0.389756679534912109
-2.04187822341918945 -0.263351380825042725 0.515923559665679932
-2.30853843688964844 -0.641985177993774414 0.726695835590362549
-2.25004816055297852 -0.319905012845993042 0.781978130340576172
0.27015531063079834 2.6176753044128418 0.955191433429718018
-1.48632550239562988 0.354903370141983032 0.646879434585571289
0.226441502571105957 2.49341273307800293 0.923044264316558838
0.722793638706207275 1.61317265033721924 0.666000127792358398
0.538113057613372803 1.51842391490936279 0.429686367511749268
0.386071324348449707 2.88004279136657715 0.398264288902282715
0.570925056934356689 1.41153049468994141 0.650055587291717529
0.95785069465637207 1.45307719707489014 0.485153466463088989
0.0429213047027587891 1.96770477294921875 0.556580245494842529
-0.317524313926696777 1.01933372020721436 0.551463842391967773
0.0672476291656494141 2.28631806373596191 0.975439548492431641
0.397745251655578613 2.53461885452270508 0.827850162982940674
0.0151380300521850586 2.0166175365447998 0.690350770950317383
-0.765606880187988281 0.982753157615661621 0.735491931438446045
0.580000102519989014 1.52242600917816162 0.719379782676696777
0.210312604904174805 2.02250432968139648 0.808924734592437744
-2.14673614501953125 -0.131801024079322815 0.701125919818878174
0.264940559864044189 2.82773184776306152 0.400580823421478271
0.342324137687683105 3.01604056358337402 0.438027679920196533
-1.87864923477172852 0.174041688442230225 0.534355401992797852
0.546326577663421631 2.63661789894104004 0.696403682231903076
-1.38254141807556152 0.50060582160949707 0.512215256690979004
0.031787872314453125 2.44207644462585449 0.84566652774810791
-2.01292610168457031 0.0488304197788238525 0.826225399971008301
0.667802751064300537 1.54040956497192383 0.577563047409057617
-0.0658826828002929688 2.12945818901062012 0.874032735824584961
-0.765776157379150391 0.913060307502746582 0.539107680320739746
0.647418081760406494 2.20680093765258789 0.425912857055664062
-0.0504070520401000977 2.53965973854064941 1.04904985427856445
0.860608339309692383 1.39399504661560059 0.55581742525100708
-0.730315268039703369 0.761617422103881836 0.748340070247650146
-0.00920116901397705078 2.25596117973327637 0.889246940612792969
-2.01473617553710938 0.231805920600891113 0.770859003067016602
0.650989115238189697 2.7010800838470459 0.418356031179428101
0.58535081148147583 1.39988529682159424 0.497352421283721924
0.21133267879486084 2.67847561836242676 0.76238703727722168
0.0809058547019958496 2.16286468505859375 0.818848311901092529
-2.23650646209716797 -0.474794864654541016 0.902295708656311035
-2.22539281845092773 -0.0883218646049499512 0.783313453197479248
0.768854141235351562 1.31553339958190918 0.53646385669708252
-2.05899763107299805 0.0582373254001140594 0.93081212043762207
-1.73611259460449219 0.128248453140258789 0.73753809928894043
0.0965006351470947266 2.66939234733581543 0.639866352081298828
0.483485758304595947 2.66157341003417969 0.535694420337677002
-2.20721960067749023 0.000843182206153869629 0.982888460159301758
-0.0577107667922973633 2.35991954803466797 0.767507016658782959
0.286800861358642578 2.08764338493347168 0.429532229900360107
-0.143913865089416504 2.40427589416503906 0.838691949844360352
0.0456154346466064453 2.61852169036865234 0.940208077430725098
-0.533586204051971436 0.830126285552978516 0.491367042064666748
0.507732987403869629 2.03059530258178711 0.4887428879737854
-2.03903722763061523 -0.226295992732048035 0.835149168968200684
0.799188137054443359 1.41073751449584961 0.664507746696472168
0.581144511699676514 1.36449861526489258 0.829516172409057617
-2.15510034561157227 -0.10295366495847702 1.01143395900726318
-1.6941075325012207 0.382328689098358154 0.676751434803009033
