ply
format ascii 1.0
element vertex 129
comment vertices
property float x
property float y
property float z
end_header
4.21503448486328125 -3.80956411361694336 0.326361864805221558
3.01080965995788574 1.92785000801086426 -0.0126738250255584717
-0.508054018020629883 3.26926422119140625 0.114527814090251923
-2.8116912841796875 1.13470840454101562 0.0927680134773254395
1.12332558631896973 0.630919933319091797 0.450814902782440186
3.12992501258850098 -4.52375268936157227 0.279243677854537964
1.92707991600036621 2.44626164436340332 0.0509163364768028259
-0.642601490020751953 -3.04959845542907715 0.120221242308616638
1.65221738815307617 0.251768946647644043 0.187651067972183228
-1.26294708251953125 0.342628896236419678 0.526610136032104492
2.62410187721252441 1.64595866203308105 0.496106624603271484
-2.47185230255126953 1.57613945007324219 -0.0672197863459587097
-1.06286299228668213 -3.02553319931030273 -0.0161134451627731323
4.06357002258300781 -3.43619799613952637 0.504649221897125244
1.15625810623168945 1.02664124965667725 -0.0370541214942932129
4.1796722412109375 -3.37312793731689453 0.0300557911396026611
-2.5860295295715332 0.841544270515441895 -0.0386020839214324951
-0.212356060743331909 -1.31703197956085205 0.484357655048370361
2.14818358421325684 -2.5403282642364502 -0.0187406092882156372
-0.154001399874687195 1.308571457862854 0.248272955417633057
-0.737607240676879883 -0.819065630435943604 0.159678637981414795
1.4146416187286377 0.791848957538604736 0.240382641553878784
0.837460041046142578 -1.09788095951080322 0.146233096718788147
0.960640907287597656 -0.390177339315414429 0.157276660203933716
2.6551964282989502 1.56475198268890381 0.390640676021575928
1.95882201194763184 -2.46431946754455566 0.00663131475448608398
-0.236947923898696899 -1.3731464147567749 0.432521730661392212
1.16568183898925781 -1.29731404781341553 0.101625874638557434
2.59816479682922363 1.48365187644958496 0.151395529508590698
3.10615229606628418 -4.54896116256713867 0.547629654407501221
1.03353047370910645 -0.955234706401824951 0.268736004829406738
4.52374792098999023 -3.81859493255615234 0.00287672877311706543
3.02290987968444824 1.40282547473907471 0.047851860523223877
-2.91577529907226562 1.44304656982421875 0.243933051824569702
1.06906998157501221 0.339333593845367432 0.232780098915100098
3.17513775825500488 -4.34656810760498047 0.112983614206314087
2.05297994613647461 2.68494033813476562 0.00326580554246902466
-0.550327062606811523 -2.79998874664306641 0.0734596103429794312
2.09023475646972656 2.2467343807220459 0.030366361141204834
-0.290108203887939453 -1.47390937805175781 0.0618333220481872559
4.49828004837036133 -3.28568887710571289 -0.0332555472850799561
4.12213802337646484 -3.64336705207824707 0.317000150680541992
0.838611721992492676 -1.01160430908203125 -0.0177901387214660645
2.83289670944213867 1.67538225650787354 0.316775977611541748
4.06633996963500977 -3.74652600288391113 0.107776015996932983
-0.690167665481567383 -1.4416269063949585 0.200546145439147949
0.11707499623298645 2.98256444931030273 0.101455032825469971
1.65431904792785645 1.16787397861480713 -0.16366228461265564
1.96643280982971191 -2.35596990585327148 0.0510176420211791992
1.56407999992370605 -0.271056711673736572 0.249670475721359253
-0.681463003158569336 -1.22388017177581787 0.0693315863609313965
1.34742105007171631 0.296190768480300903 0.285659074783325195
-0.587583601474761963 -1.14738106727600098 0.0917100384831428528
1.22088181972503662 0.693051695823669434 0.377879351377487183
2.08192038536071777 2.45259428024291992 0.0215566158294677734
-2.85609793663024902 1.3794325590133667 -0.0391041412949562073
1.36530518531799316 -1.5267338752746582 -0.0332912057638168335
2.62313032150268555 1.89488315582275391 -0.0929548144340515137
1.13903617858886719 0.863309323787689209 0.47969287633895874
-1.31893539428710938 0.296326428651809692 0.251701325178146362
-0.231366813182830811 2.94959425926208496 0.0389427989721298218
0.811948955059051514 -0.330376863479614258 -0.03241749107837677
4.17609024047851562 -3.58000493049621582 0.39334985613822937
-0.99717557430267334 -2.83228254318237305 0.00279227644205093384
1.21205484867095947 -0.0355754494667053223 0.300918340682983398
-0.711147725582122803 -0.809449911117553711 -0.103143095970153809
-2.88479733467102051 1.1170731782913208 0.166219130158424377
1.97865605354309082 2.35771417617797852 -0.00709226727485656738
2.05205059051513672 2.38802313804626465 0.051630951464176178
-0.471839845180511475 -1.24600839614868164 0.030318140983581543
0.149857461452484131 3.16773724555969238 0.142977312207221985
-2.90284967422485352 1.41194915771484375 -0.121153056621551514
-1.2816765308380127 0.353317975997924805 0.156822144985198975
-2.83045792579650879 0.95508497953414917 0.142618149518966675
-0.564304351806640625 -3.10316324234008789 0.0561829209327697754
-0.644636869430541992 -0.958400368690490723 -0.0409987345337867737
-0.746412336826324463 -3.07682514190673828 0.0990674495697021484
3.08711934089660645 -4.46816825866699219 0.605674207210540771
1.34727704524993896 -0.0479454845190048218 0.528925716876983643
4.39271211624145508 -3.66645193099975586 0.325775384902954102
-0.23634965717792511 1.35929107666015625 0.192698806524276733
-2.88362407684326172 1.09974861145019531 0.143794536590576172
-2.85883283615112305 0.932182729244232178 0.0362256839871406555
3.18907332420349121 -4.59763097763061523 0.230567485094070435
3.05755352973937988 -4.40725421905517578 0.165252536535263062
-0.0792711824178695679 3.05115294456481934 0.0911616384983062744
-0.234993338584899902 -1.40926563739776611 0.123830720782279968
-2.4750370979309082 0.9575234055519104 -0.0534891188144683838
1.87139797210693359 -2.10882019996643066 -0.0293396040797233582
3.02655029296875 -4.48108100891113281 0.592904150485992432
2.61535406112670898 1.59990954399108887 0.355154693126678467
0.836349129676818848 -1.15160417556762695 0.132248416543006897
-0.53711014986038208 -1.29415297508239746 0.078975483775138855
4.05235719680786133 -3.56386113166809082 0.371979176998138428
0.801075160503387451 -1.01235866546630859 0.273952305316925049
2.01856756210327148 -2.39373636245727539 0.0926265642046928406
-1.34584355354309082 0.365639328956604004 0.273535579442977905
-2.65752840042114258 1.2077862024307251 0.0357813611626625061
1.57506346702575684 0.225158005952835083 0.348498404026031494
4.13777923583984375 -3.59731101989746094 0.399248629808425903
-0.29153907299041748 -1.286659836769104 0.439294308423995972
1.15437459945678711 0.709793686866760254 0.348995327949523926
1.38232564926147461 -0.202130123972892761 0.445446670055389404
1.13937830924987793 -0.264327168464660645 0.400081276893615723
-0.248300835490226746 -1.30566740036010742 0.412009537220001221
-0.668484926223754883 -1.28019118309020996 -0.00150059163570404053
3.09031772613525391 -4.44356107711791992 0.493199944496154785
-0.870508015155792236 -3.14484071731567383 0.0490896403789520264
-0.611053586006164551 -1.24322021007537842 0.0756564140319824219
-0.0338205695152282715 3.11501741409301758 0.142452120780944824
3.02632927894592285 1.39709365367889404 0.227453663945198059
-0.6488037109375 -1.39993524551391602 0.0568380653858184814
-0.644450008869171143 -1.2646181583404541 0.0644145011901855469
-0.180106401443481445 1.35049271583557129 0.205354467034339905
-0.676147043704986572 -1.00417482852935791 0.000466227531433105469
-2.83037447929382324 1.44873619079589844 0.117812842130661011
-0.752422988414764404 -3.07000064849853516 0.142395913600921631
-0.604826569557189941 -3.15650010108947754 0.0415636636316776276
-2.85650014877319336 1.21398782730102539 0.160968780517578125
0.949290931224822998 0.559553205966949463 0.370961487293243408
-0.251666516065597534 3.09535694122314453 0.0984293669462203979
-0.755230486392974854 -0.943872928619384766 0.0740004181861877441
1.58344686031341553 0.937429428100585938 0.15235583484172821
-2.84808874130249023 1.24330174922943115 0.0841414928436279297
2.6970670223236084 1.59667563438415527 0.418584585189819336
-0.194099634885787964 1.3924945592880249 0.249649912118911743
1.1490330696105957 0.955354213714599609 0.18719463050365448
-0.31882774829864502 3.13277935981750488 0.0567470788955688477
1.10987329483032227 0.638958871364593506 0.343174755573272705
