ply
format ascii 1.0
element vertex 64
comment vertices
property float x
property float y
property float z
end_header
1.28167641162872314 0.355254173278808594 0.163626909255981445
-0.0641421526670455933 -1.32845234870910645 0.434110403060913086
1.24508130550384521 -0.467624247074127197 0.0593742020428180695
-0.0597598664462566376 -3.09832382202148438 0.602861762046813965
-0.815598547458648682 1.05057072639465332 0.184539496898651123
-0.282953351736068726 -3.08595514297485352 0.305009931325912476
-1.30743157863616943 -0.243972375988960266 0.154759988188743591
-2.26257419586181641 2.11753129959106445 0.437635421752929688
0.690842986106872559 -1.13650166988372803 0.102041855454444885
-2.59476733207702637 -1.69421482086181641 0.0731710642576217651
-1.3299936056137085 -0.00413630856201052666 0.405197709798812866
2.9725792407989502 0.875758647918701172 0.119364432990550995
-3.0828850269317627 0.314644306898117065 0.350067049264907837
-0.944458365440368652 -2.95147085189819336 0.388658642768859863
-1.47303974628448486 -5.24875307083129883 0.0908633694052696228
0.709195554256439209 1.12514078617095947 0.0385240986943244934
0 0 0
0 0 0
0 0 0
0 0 0
0 0 0
0 0 0
0 0 0
0 0 0
0 0 0
0 0 0
0 0 0
0 0 0
0 0 0
0 0 0
0 0 0
0 0 0
0 0 0
0 0 0
0 0 0
0 0 0
0 0 0
0 0 0
0 0 0
0 0 0
0 0 0
0 0 0
0 0 0
0 0 0
0 0 0
0 0 0
0 0 0
0 0 0
0 0 0
0 0 0
0 0 0
0 0 0
0 0 0
0 0 0
0 0 0
0 0 0
0 0 0
0 0 0
0 0 0
0 0 0
0 0 0
0 0 0
0 0 0
0 0 0
