ply
format ascii 1.0
element vertex 47
comment vertices
property float x
property float y
property float z
end_header
-4.48247480392456055 -3.04906249046325684 0.0415263473987579346
0.980974912643432617 0.836533486843109131 0.332484424114227295
1.31251215934753418 -0.141081288456916809 0.135963648557662964
-0.00932839512825012207 -1.26972222328186035 0.0529168173670768738
-2.8442990779876709 -1.2540740966796875 0.370330721139907837
1.57260596752166748 -5.23538923263549805 0.447404652833938599
-2.27251172065734863 -2.11998987197875977 0.118971310555934906
-3.86826801300048828 -3.78874945640563965 0.0377140752971172333
-6.24454450607299805 -5.83225440979003906 0.217076331377029419
1.32030582427978516 -2.84342122077941895 0.0664286017417907715
-1.26549255847930908 -0.315283209085464478 0.254016995429992676
0.383315682411193848 -1.27146375179290771 0.162364035844802856
-0.290818393230438232 -1.28390717506408691 0.0973504930734634399
-3.9171299934387207 -3.7983391284942627 0.039706643670797348
0.985754787921905518 -0.896338284015655518 0.376249551773071289
-5.04002952575683594 -2.28824400901794434 0.318882584571838379
1.58539998531341553 -5.21944236755371094 0.518879950046539307
-2.85323834419250488 -1.25395810604095459 0.294854044914245605
-0.591512322425842285 -1.12123787403106689 0.0763356015086174011
-4.9462132453918457 -2.24055123329162598 0.305164843797683716
-1.30403804779052734 -0.238454416394233704 0.28781360387802124
-0.774158895015716553 0.988335609436035156 0.388599514961242676
1.28682196140289307 -2.83590555191040039 0.0584727823734283447
-2.23355269432067871 -2.09218740463256836 0.12369382381439209
0.568044662475585938 -1.29131829738616943 0.173754096031188965
0.0277096405625343323 -1.387290358543396 0.123201645910739899
-1.26511728763580322 -0.315847992897033691 0.225451931357383728
-6.30525732040405273 -5.84862661361694336 0.223687812685966492
-6.23415946960449219 -5.75496196746826172 0.184546679258346558
-2.21489620208740234 -2.16796493530273438 0.125173836946487427
-0.764979004859924316 1.00554049015045166 0.387609660625457764
1.36121761798858643 -0.156681180000305176 0.15238577127456665
1.33926820755004883 -0.145232006907463074 0.138394400477409363
0.978052973747253418 0.842141687870025635 0.355729848146438599
0.854695379734039307 -0.86859506368637085 0.491032242774963379
-6.18139791488647461 -5.75168275833129883 0.257149636745452881
-4.52090311050415039 -2.96393513679504395 0.0852599814534187317
-2.26098823547363281 -2.14133548736572266 0.221250787377357483
-0.0679040849208831787 -1.33219194412231445 0.0546457506716251373
-0.790835916996002197 1.01599252223968506 0.362073570489883423
-1.2890164852142334 -0.310832202434539795 0.228560000658035278
-2.8352961540222168 -1.28330183029174805 0.336211442947387695
0.985459446907043457 0.826085567474365234 0.332611769437789917
-3.91613173484802246 -3.77756595611572266 0.0669257193803787231
-0.50571894645690918 -1.15811514854431152 0.0875398144125938416
1.58983170986175537 -5.24162912368774414 0.447365045547485352
-0.482160031795501709 -1.22117245197296143 0.0284196995198726654
