ply
format ascii 1.0
element vertex 114
comment vertices
property float x
property float y
property float z
end_header
-1.18330907821655273 0.636274516582489014 0.290772080421447754
-0.610602498054504395 -1.29290270805358887 0.205543607473373413
0.807708263397216797 -1.28985965251922607 0.152642935514450073
1.00046777725219727 0.830847859382629395 0.0756110548973083496
3.05455923080444336 0.180233806371688843 0.105296790599822998
2.3925316333770752 -2.05819797515869141 0.447006702423095703
-1.52297532558441162 2.6961677074432373 0.114157170057296753
-3.4372861385345459 4.1991724967956543 0.403150767087936401
-2.13700532913208008 2.1794438362121582 0.4363289475440979
0.255398392677307129 1.28319287300109863 0.300210893154144287
1.98222672939300537 2.30866408348083496 0.230301439762115479
-0.589247584342956543 1.17736136913299561 0.0667373687028884888
3.02109241485595703 0.924907267093658447 0.117305517196655273
-1.44597029685974121 0.370299935340881348 0.543487250804901123
-1.18232941627502441 0.215600207448005676 0.515304267406463623
3.07817983627319336 0.163228780031204224 0.206619977951049805
1.99212169647216797 2.39185047149658203 0.20302879810333252
2.31942176818847656 -2.10441970825195312 0.450738757848739624
-3.47175884246826172 4.19274568557739258 0.451175481081008911
-2.68175792694091797 -1.66058719158172607 0.394539028406143188
-1.51605033874511719 2.64674043655395508 0.11701732873916626
1.26058220863342285 0.331102311611175537 0.154480040073394775
0.771292269229888916 -1.06812918186187744 0.228687405586242676
3.0160365104675293 0.912428617477416992 0.169101089239120483
0.945997357368469238 0.970572292804718018 0.0479651391506195068
-1.33365440368652344 0.187146902084350586 0.459667712450027466
-2.0805060863494873 2.41294717788696289 0.295977234840393066
-0.657441914081573486 -1.19229865074157715 0.103414177894592285
-2.55215597152709961 -1.66614627838134766 0.35287177562713623
1.11650896072387695 0.639801442623138428 0.114359810948371887
1.93271028995513916 2.30496811866760254 0.0978840813040733337
3.04509592056274414 0.845533013343811035 0.0640536844730377197
-1.65281820297241211 2.66054773330688477 0.105933308601379395
1.98479592800140381 2.40005707740783691 0.169528573751449585
0.756408810615539551 -1.10351133346557617 0.13177509605884552
1.13232076168060303 0.881472468376159668 0.118958890438079834
2.0180516242980957 2.35179281234741211 0.175026506185531616
-0.518172860145568848 1.18679797649383545 0.0654219686985015869
-2.16565656661987305 2.16230416297912598 0.424072504043579102
0.23805469274520874 1.22170865535736084 0.306299567222595215
-3.41014385223388672 4.15995216369628906 0.429424703121185303
-2.15835356712341309 2.14842510223388672 0.389601945877075195
-1.18011796474456787 0.554321527481079102 0.453562676906585693
0.907746672630310059 0.85982745885848999 0.0693750455975532532
3.04050254821777344 0.911259293556213379 0.0768772661685943604
2.27597212791442871 -2.01783132553100586 0.459769368171691895
0.736762523651123047 -1.16975879669189453 0.071659281849861145
1.03871297836303711 0.846387982368469238 0.134549379348754883
3.06360864639282227 0.826773643493652344 0.0963265150785446167
-0.610050797462463379 -1.13145697116851807 0.206581339240074158
-0.561017632484436035 -1.2086719274520874 0.12976604700088501
2.25697112083435059 -2.07859206199645996 0.439045727252960205
0.706658244132995605 -1.21186482906341553 0.169587820768356323
1.27629446983337402 0.283164501190185547 0.129696130752563477
-1.22526764869689941 0.330019921064376831 0.412915229797363281
-1.48394346237182617 2.69303584098815918 0.117691695690155029
-1.56333887577056885 2.65422487258911133 0.117331318557262421
3.07735943794250488 0.244265526533126831 0.230082899332046509
-0.559010565280914307 1.18599140644073486 0.0860504433512687683
-3.40896749496459961 4.17842864990234375 0.42273867130279541
-0.716749787330627441 -1.2958294153213501 0.18767644464969635
-2.68592524528503418 -1.71322417259216309 0.489509493112564087
-3.36181402206420898 4.23539304733276367 0.412419348955154419
-1.81204414367675781 2.55275893211364746 0.0830891430377960205
-2.11537885665893555 2.21668338775634766 0.34185454249382019
-2.59042215347290039 -1.66666638851165771 0.378152370452880859
1.01428210735321045 0.926834583282470703 0.0982567369937896729
1.04202699661254883 0.848244190216064453 0.0801725834608078003
-1.42170369625091553 0.0139961391687393188 0.424350857734680176
2.3358159065246582 -2.08511924743652344 0.452859818935394287
2.04853320121765137 2.39147496223449707 0.152777299284934998
3.01879048347473145 0.913706183433532715 0.144540965557098389
0.701480865478515625 -1.14091873168945312 0.116197168827056885
-1.31754946708679199 0.366401731967926025 0.412712216377258301
1.26328122615814209 0.222440481185913086 0.145210087299346924
1.98764145374298096 2.28820228576660156 0.185948401689529419
1.10974323749542236 0.835891067981719971 0.121346801519393921
-0.57367551326751709 1.0994410514831543 0.0518058463931083679
-1.25624847412109375 0.207653835415840149 0.489272117614746094
0.715203344821929932 -0.997623205184936523 0.0729520469903945923
-0.670355081558227539 -1.26860010623931885 0.171589210629463196
-2.15252399444580078 2.16928720474243164 0.405858635902404785
-0.606584787368774414 -1.19494473934173584 0.235227137804031372
2.01849794387817383 2.39913558959960938 0.184055477380752563
-1.34501063823699951 0.151573494076728821 0.481502532958984375
1.17022538185119629 0.497125744819641113 0.185184776782989502
2.03793430328369141 2.30740833282470703 0.263108134269714355
-1.58663511276245117 2.71802830696105957 0.120086774230003357
1.11859619617462158 0.755658209323883057 0.226156026124954224
-1.51823949813842773 2.69295692443847656 0.11538802832365036
0.24908272922039032 1.30411171913146973 0.241709217429161072
-1.31074965000152588 0.471221417188644409 0.29997628927230835
-2.58396410942077637 -1.67469453811645508 0.38143584132194519
-2.13934087753295898 2.23800563812255859 0.394861340522766113
-1.51192581653594971 2.6929168701171875 0.0733748525381088257
-2.62546443939208984 -1.68754756450653076 0.328392982482910156
-0.671041011810302734 -1.39134955406188965 0.225368738174438477
2.02036762237548828 2.33398675918579102 0.143514961004257202
-2.68841147422790527 -1.65779757499694824 0.433427512645721436
0.748677670955657959 -1.02495622634887695 0.110224276781082153
2.97075676918029785 0.936416387557983398 0.138487741351127625
0.827340602874755859 0.932169556617736816 0.092631414532661438
-1.69126105308532715 2.62285614013671875 0.140002459287643433
-2.160797119140625 2.21656107902526855 0.332544863224029541
-1.54258894920349121 2.67736077308654785 0.101205825805664062
2.00308656692504883 2.34714651107788086 0.137466266751289368
-3.51464128494262695 4.27937936782836914 0.349849790334701538
1.00759506225585938 0.797465801239013672 0.108224600553512573
0.743003427982330322 -1.17182385921478271 0.131634250283241272
-1.08859694004058838 0.458272427320480347 0.416477710008621216
1.97350311279296875 2.30128049850463867 0.240905463695526123
-2.64232110977172852 -1.63148808479309082 0.360816001892089844
1.26249837875366211 0.156792402267456055 0.142498105764389038
2.04610061645507812 2.34886598587036133 0.181210726499557495
