ply
format ascii 1.0
element vertex 256
comment vertices
property float x
property float y
property float z
end_header
2.9024360179901123 -0.982366383075714111 0.10198771208524704
-2.73035407066345215 -2.24985456466674805 0.063283190131187439
-1.50918066501617432 2.84937453269958496 0.425438344478607178
1.64935994148254395 2.99505019187927246 0.0288557708263397217
-1.0278475284576416 -0.495201855897903442 0.113318696618080139
0.888634383678436279 -3.05784749984741211 0.315367251634597778
0.696033000946044922 1.12594115734100342 0.309881240129470825
3.41339850425720215 0.486834228038787842 -0.0550340116024017334
0.682495355606079102 -1.31025063991546631 0.078978121280670166
-2.2366793155670166 -1.12282633781433105 -0.0184350013732910156
1.29271101951599121 2.84296512603759766 0.471902370452880859
2.19347810745239258 -3.02282142639160156 0.114610075950622559
-1.26104307174682617 0.245524942874908447 0.437102437019348145
1.28996121883392334 -0.276828199625015259 0.461901724338531494
-1.57483851909637451 2.68438863754272461 0.409530758857727051
-0.581429183483123779 1.22261738777160645 0.0123026221990585327
-0.0566514879465103149 -1.69264447689056396 0.284649133682250977
2.94735527038574219 0.365688890218734741 0.177972614765167236
0.692171990871429443 1.14398765563964844 0.202941656112670898
2.67792773246765137 -1.57332909107208252 0.327891051769256592
1.23863792419433594 -0.250720322132110596 0.259440749883651733
0.37396615743637085 -1.00607454776763916 0.109424054622650146
-2.52635073661804199 -1.81436097621917725 0.191396892070770264
2.054962158203125 -2.0479588508605957 0.00486110150814056396
-2.55048394203186035 -1.60544836521148682 0.242660731077194214
0.501449406147003174 -1.51701080799102783 0.0910759568214416504
3.1199641227722168 -1.79545819759368896 0.131535559892654419
-1.36243963241577148 0.229588806629180908 0.450789451599121094
0.753291726112365723 -2.91440296173095703 -0.0156139582395553589
1.28936827182769775 2.72828936576843262 0.433862835168838501
3.58216762542724609 -0.27188485860824585 -0.0883132368326187134
2.94824337959289551 -0.999992191791534424 0.495514273643493652
3.11900663375854492 0.103876166045665741 0.131608530879020691
-1.22221028804779053 -0.574850738048553467 0.103794097900390625
1.84697961807250977 -2.54843044281005859 0.203636527061462402
0.470492541790008545 -0.838066339492797852 -0.130074679851531982
-0.564382672309875488 1.207999587059021 0.233577430248260498
2.96058988571166992 -0.0219140946865081787 0.259271025657653809
-0.00303412973880767822 -1.41722500324249268 0.389089465141296387
-1.56344664096832275 2.69864892959594727 0.393376141786575317
1.24483978748321533 2.75811195373535156 0.370667964220046997
1.2509162425994873 -0.705856621265411377 0.265453815460205078
0.488408118486404419 -1.30434393882751465 0.128620505332946777
1.83362579345703125 -2.53632450103759766 0.266529858112335205
1.84867286682128906 -2.24329543113708496 0.309414535760879517
1.66134953498840332 2.55327177047729492 0.247983768582344055
-1.2680976390838623 0.313000619411468506 0.377420306205749512
0.478573620319366455 1.15480470657348633 0.35370299220085144
-1.44354510307312012 -0.576379239559173584 0.0842240229249000549
1.72800934314727783 -2.9713752269744873 0.0731852054595947266
0.7885245680809021 -1.59526538848876953 -0.0377676710486412048
1.37741482257843018 2.9874267578125 0.0500109493732452393
2.70706510543823242 -1.48748469352722168 0.379952847957611084
-2.63575935363769531 -1.74315965175628662 0.190150454640388489
-2.75631189346313477 -1.06456363201141357 -0.116425037384033203
-2.17093920707702637 -2.33700919151306152 0.11265033483505249
-1.11438834667205811 -0.592882156372070312 0.0638733580708503723
1.26564538478851318 2.6418759822845459 0.155772268772125244
1.04413104057312012 -0.930326759815216064 0.390024244785308838
-2.59790468215942383 -1.69111025333404541 0.201200813055038452
1.0493931770324707 -0.798071563243865967 0.327778220176696777
1.26243996620178223 -0.246633797883987427 0.349632859230041504
2.63329887390136719 -1.37600183486938477 0.146043971180915833
0.0946414098143577576 -1.58541703224182129 0.256168127059936523
-0.0331371277570724487 -0.745735347270965576 -0.0324553549289703369
1.96858406066894531 -2.79541492462158203 0.192843645811080933
2.9792170524597168 0.256094276905059814 0.0374991074204444885
-1.17815804481506348 -0.581787228584289551 0.0497386045753955841
2.89728975296020508 -1.00733089447021484 -0.0150458812713623047
-0.050890505313873291 -0.858651340007781982 0.224705487489700317
-2.37738966941833496 -2.23794841766357422 0.206847026944160461
0.889743804931640625 -2.98532795906066895 0.237324625253677368
1.70292580127716064 -1.82943081855773926 -0.153808474540710449
2.91242599487304688 -1.46568560600280762 0.2350044846534729
3.23652887344360352 0.160273745656013489 0.0665333420038223267
0.879885673522949219 -0.590279042720794678 0.399064481258392334
-1.31257498264312744 0.242960289120674133 0.325283348560333252
1.32192254066467285 2.78931546211242676 0.385957509279251099
3.0491337776184082 0.042515188455581665 0.111349605023860931
1.08121693134307861 -0.9144783616065979 0.343482673168182373
0.546950697898864746 -1.31040406227111816 0.103395737707614899
0.804953396320343018 -2.9787285327911377 0.329781949520111084
2.60759186744689941 -1.37558639049530029 0.286335766315460205
-0.598381161689758301 1.15804183483123779 0.230851322412490845
1.25709736347198486 2.78783488273620605 0.386379480361938477
1.31089425086975098 2.73699688911437988 0.416188746690750122
-1.46929478645324707 2.66796422004699707 0.199980318546295166
0.234638452529907227 -1.313484787940979 0.2722797691822052
1.42397701740264893 -1.07973170280456543 0.236557647585868835
1.30395066738128662 -0.45820993185043335 0.233944684267044067
-2.63052010536193848 -1.34904563426971436 0.160292014479637146
3.15490603446960449 0.416401892900466919 0.0576233565807342529
0.489908218383789062 -1.2472531795501709 0.109025701880455017
3.05369210243225098 0.112538799643516541 0.140683740377426147
-1.31483674049377441 -0.597409665584564209 0.0668509155511856079
2.78953361511230469 -1.53097307682037354 0.259215354919433594
1.86150884628295898 -2.53362607955932617 0.235991835594177246
1.48048019409179688 2.86845874786376953 0.355060219764709473
0.687434613704681396 1.10320091247558594 0.313946425914764404
0.0211191475391387939 -1.41586971282958984 0.369514018297195435
0.70984649658203125 -1.10254049301147461 0.16722947359085083
1.05428862571716309 -0.534475147724151611 0.060855180025100708
2.80159497261047363 -1.45312714576721191 0.308666735887527466
1.79376256465911865 -2.58574819564819336 0.25062522292137146
3.24720120429992676 0.112415313720703125 0.167902171611785889
0.0129161961376667023 -0.880365371704101562 0.139878958463668823
2.64883565902709961 -1.50080835819244385 0.3603476881980896
3.0766444206237793 0.1382293701171875 0.15779721736907959
2.50202155113220215 -1.44730103015899658 0.277923941612243652
-1.13000941276550293 -0.585451722145080566 0.0934400707483291626
0.856305241584777832 -3.01281523704528809 0.26709282398223877
-1.55979406833648682 2.6165015697479248 0.455106735229492188
1.04646825790405273 -0.844330251216888428 0.4170188307762146
-2.56448841094970703 -1.72723031044006348 0.19559788703918457
1.78600776195526123 -2.06322693824768066 0.122516423463821411
0.282314598560333252 1.21712350845336914 0.307045310735702515
2.94579625129699707 -1.09297013282775879 0.0978342592716217041
-2.60941791534423828 -2.04494500160217285 0.196102634072303772
1.84164166450500488 -2.80829834938049316 0.274413466453552246
1.29597878456115723 -0.309626311063766479 0.302615344524383545
1.16046476364135742 -0.847205042839050293 0.360937446355819702
1.18963909149169922 -0.299396157264709473 0.310040682554244995
3.06205010414123535 0.09201774001121521 0.221077263355255127
-1.19298434257507324 -0.555675804615020752 0.127496927976608276
1.3533937931060791 2.75398516654968262 0.431181013584136963
-2.47353172302246094 -1.3457343578338623 0.220095068216323853
-1.25480818748474121 -0.603263497352600098 0.0522066652774810791
2.81355881690979004 -1.62699007987976074 0.273112505674362183
0.956625640392303467 -1.63424170017242432 -0.0507669858634471893
-1.29414129257202148 -0.639129221439361572 0.134762227535247803
2.62915587425231934 -1.54320883750915527 0.385612189769744873
-1.39451396465301514 0.265720903873443604 0.449502646923065186
0.628347814083099365 1.10168707370758057 0.249806433916091919
0.372525006532669067 -0.905454277992248535 0.068468242883682251
-0.0111621692776679993 -1.27379441261291504 0.319243162870407104
0.828935146331787109 -3.0422360897064209 0.201248258352279663
-2.57941699028015137 -1.76642525196075439 0.192733794450759888
0.58093559741973877 -1.22561264038085938 0.137051045894622803
-2.41296219825744629 -2.18828558921813965 0.238060727715492249
1.8680957555770874 -2.46663522720336914 0.243041843175888062
1.33724141120910645 2.85803556442260742 0.438167393207550049
0.000257521867752075195 -1.70435798168182373 0.387041598558425903
1.86855554580688477 -2.52862954139709473 0.240329891443252563
2.41451501846313477 -1.96515953540802002 0.311112731695175171
-1.55687797069549561 2.72173476219177246 0.325498998165130615
-0.915482044219970703 -0.762466132640838623 0.0815623030066490173
-0.587638616561889648 1.13661372661590576 0.178045004606246948
3.01289582252502441 -0.975075244903564453 0.373780012130737305
-2.58779621124267578 -1.71021246910095215 0.2701302170753479
2.64409017562866211 -1.47356319427490234 0.437409639358520508
0.0815809518098831177 -1.83614492416381836 0.101657778024673462
3.09057807922363281 -0.0438264906406402588 0.189034551382064819
-1.41517794132232666 2.62542104721069336 0.432245492935180664
1.44903934001922607 -2.47763967514038086 0.344878137111663818
-1.26125311851501465 -0.5850791335105896 0.11201263964176178
1.16320705413818359 -0.763859450817108154 0.374645709991455078
2.6577153205871582 -1.5383143424987793 0.239896714687347412
0.708202064037322998 -2.98740983009338379 0.195314854383468628
1.17806601524353027 2.78270578384399414 0.316217154264450073
-1.13049077987670898 -0.580626547336578369 0.110525272786617279
1.09447526931762695 1.00326025485992432 0.393010050058364868
1.33178913593292236 2.71658682823181152 0.4547463059425354
-1.60057628154754639 2.70845317840576172 0.379860639572143555
3.11495614051818848 0.248987987637519836 0.0987906530499458313
0.497049868106842041 -1.43337380886077881 0.153933942317962646
2.88312911987304688 -0.995736241340637207 -0.0381299182772636414
-2.57290744781494141 -1.67969977855682373 0.232132494449615479
0.410025089979171753 -1.30206012725830078 0.138279467821121216
0.0886735022068023682 -1.40974140167236328 0.237896054983139038
0.441974222660064697 -1.19321954250335693 0.211350977420806885
1.37753665447235107 2.7290799617767334 0.446582019329071045
0.463623106479644775 -1.34544634819030762 0.135756105184555054
2.77367591857910156 -1.64530813694000244 0.271043062210083008
-2.51823639869689941 -1.64524745941162109 0.169351339340209961
1.32320082187652588 -0.269995748996734619 0.226787924766540527
1.67941749095916748 2.55896449089050293 0.065500795841217041
0.850080788135528564 -2.99855732917785645 0.296943515539169312
0.636423170566558838 -1.21645760536193848 0.127373874187469482
-0.138434082269668579 -1.74913263320922852 0.0568332970142364502
1.26670646667480469 2.93685102462768555 0.470420360565185547
-2.76848483085632324 -1.1544719934463501 0.091722734272480011
3.02618932723999023 0.477800250053405762 0.201778799295425415
-1.16474580764770508 -0.670500099658966064 0.142670288681983948
-1.1838146448135376 -0.609978616237640381 0.0850857794284820557
1.33211863040924072 2.80834865570068359 0.425824612379074097
1.03914475440979004 -0.787655055522918701 0.339891701936721802
-1.17459893226623535 -0.593148648738861084 0.084208361804485321
3.17095112800598145 -0.0162490308284759521 0.0338367745280265808
2.71754145622253418 -1.62940752506256104 0.177178651094436646
0.551069974899291992 -1.28883457183837891 0.145425379276275635
1.32482707500457764 -0.370568305253982544 0.253113090991973877
3.25136208534240723 0.418216079473495483 -0.0300852879881858826
1.0019843578338623 -0.940956056118011475 0.233636558055877686
1.04007244110107422 -3.02630901336669922 0.238204449415206909
3.14058375358581543 0.160375535488128662 0.156558007001876831
1.3878248929977417 2.85870528221130371 0.366875886917114258
0.51450347900390625 -1.2431107759475708 0.178814515471458435
1.96009349822998047 -2.90274310111999512 0.192330807447433472
3.02452754974365234 0.0952093824744224548 0.112083852291107178
-2.50752162933349609 -1.55350053310394287 0.287734448909759521
1.25252950191497803 2.74133944511413574 0.389336735010147095
0.847585141658782959 -3.02978968620300293 0.337567627429962158
-1.13399291038513184 -0.573679924011230469 0.0384645462036132812
1.14481306076049805 -0.833425700664520264 0.314189106225967407
0.674522995948791504 1.15302503108978271 0.324982672929763794
0.716240406036376953 -1.03984451293945312 0.258038103580474854
1.25513744354248047 -0.239062950015068054 0.309215456247329712
1.48818397521972656 2.55473184585571289 0.361257821321487427
-0.501311719417572021 -0.800748646259307861 0.0761461704969406128
-1.25661158561706543 0.249703049659729004 0.313339412212371826
-2.54705977439880371 -1.96090900897979736 0.250596791505813599
1.33431434631347656 2.79625082015991211 0.420559942722320557
0.120849788188934326 1.14759922027587891 0.270059406757354736
0.0511980950832366943 -1.43425095081329346 0.367981195449829102
-2.32329726219177246 -1.28982949256896973 0.150945559144020081
0.955799520015716553 -0.871307432651519775 0.366097569465637207
2.89650177955627441 -1.15162909030914307 0.146779268980026245
0.640699505805969238 -1.25056648254394531 0.168607369065284729
0.855044305324554443 -0.859401822090148926 0.184077262878417969
2.57792901992797852 -1.42506468296051025 0.303631067276000977
0.672488510608673096 1.12920618057250977 0.34087979793548584
1.20070803165435791 -0.894900977611541748 0.324233472347259521
2.80821919441223145 -1.38906919956207275 0.282842189073562622
3.05528569221496582 0.0840512365102767944 0.15520399808883667
0.0292419195175170898 -1.52001070976257324 0.266365855932235718
3.17446088790893555 0.170862346887588501 0.0414185747504234314
3.14409089088439941 0.16916772723197937 0.10848158597946167
-1.21767175197601318 -0.615807056427001953 0.095150485634803772
0.850837588310241699 -2.97513389587402344 0.303220421075820923
-0.559659481048583984 1.16502082347869873 0.24082590639591217
1.63778340816497803 2.98933649063110352 0.141236439347267151
0.46106681227684021 -1.37955617904663086 0.27830660343170166
3.11517119407653809 0.300620585680007935 0.128030598163604736
1.01159369945526123 -0.806469917297363281 0.387862414121627808
3.33361697196960449 0.0917030870914459229 0.132136091589927673
-1.29096472263336182 -0.582459330558776855 -0.0219590812921524048
1.84193766117095947 -2.50888609886169434 0.188470855355262756
-2.61827182769775391 -1.77780163288116455 0.199924945831298828
0.538953542709350586 1.15159189701080322 0.259829878807067871
-1.33348345756530762 -0.658851027488708496 0.037526935338973999
-1.241607666015625 -0.656616806983947754 -0.0339609235525131226
1.84885597229003906 -2.54121828079223633 0.242477133870124817
1.31860566139221191 2.74930739402770996 0.384891241788864136
0.618027210235595703 -1.40174245834350586 0.11415882408618927
1.26180136203765869 2.84958410263061523 0.275263428688049316
0.0316795408725738525 -1.36822450160980225 0.357290327548980713
1.84213113784790039 -2.4161992073059082 0.238616213202476501
-1.13817119598388672 -0.612403631210327148 0.116702757775783539
2.66827893257141113 -1.56406319141387939 0.265002965927124023
0.61262202262878418 -1.2889169454574585 0.144082292914390564
0.381464093923568726 -0.929851651191711426 0.022660084068775177
1.11030006408691406 -0.76210474967956543 0.305222898721694946
0.469469785690307617 -1.1861112117767334 0.134252637624740601
1.83124852180480957 -1.97374212741851807 0.191623285412788391
2.78699636459350586 -1.59375405311584473 0.215884506702423096
1.54388260841369629 -1.20252132415771484 0.0821338146924972534
