ply
format ascii 1.0
element vertex 41
comment vertices
property float x
property float y
property float z
end_header
-3.05260515213012695 -0.34234321117401123 0.069842800498008728
-3.06965422630310059 0.520928621292114258 0.462680667638778687
3.01798391342163086 0.601895987987518311 0.463016211986541748
0.758102774620056152 1.00343728065490723 0.464796543121337891
-0.605239450931549072 -1.23830866813659668 0.135725945234298706
3.53897738456726074 -4.16960048675537109 0.147161766886711121
-0.657533168792724609 2.99599361419677734 0.0869189351797103882
0.0873318314552307129 1.3142087459564209 0.0750882998108863831
-2.40110969543457031 2.12674832344055176 0.0962115004658699036
-1.70724034309387207 2.59367704391479492 0.0441951379179954529
-1.25357341766357422 -0.370080143213272095 0.507691144943237305
1.27927911281585693 0.417479753494262695 0.474105387926101685
-1.64110326766967773 2.57258701324462891 0.0805932134389877319
0.471870779991149902 -1.26800727844238281 0.0749198272824287415
1.56042897701263428 -2.75473928451538086 0.0651520267128944397
-1.28402328491210938 0.385427594184875488 0.0817894041538238525
-3.05901408195495605 -0.391784518957138062 0.0602215602993965149
1.10532307624816895 0.560047030448913574 0.465254098176956177
0.444004207849502563 1.25372982025146484 0.342842042446136475
-0.643190681934356689 3.04048895835876465 0.0664876252412796021
3.55647540092468262 -4.17580080032348633 0.165930658578872681
-3.02868533134460449 -0.344001114368438721 0.0861894041299819946
0.0498421266674995422 1.306427001953125 0.0586295127868652344
-2.33613920211791992 2.13023591041564941 0.180606245994567871
-2.35053038597106934 2.10077643394470215 0.18525184690952301
0.0581096075475215912 1.32545673847198486 0.0506199449300765991
3.57327699661254883 -4.14185094833374023 0.185965850949287415
1.22519397735595703 0.462063997983932495 0.448905408382415771
3.56132936477661133 -4.12632417678833008 0.140763595700263977
0.504772067070007324 1.22831249237060547 0.270583122968673706
-1.64089119434356689 2.59786486625671387 0.0664299726486206055
1.56694900989532471 -2.72733020782470703 0.0798182189464569092
-0.642708539962768555 3.05719804763793945 0.0984374210238456726
-1.22623205184936523 0.381022900342941284 0.105936594307422638
-3.04025077819824219 -0.404668956995010376 0.0757726579904556274
-1.61229395866394043 2.59527993202209473 0.0896593779325485229
0.440475642681121826 -1.22836697101593018 0.102743141353130341
1.22993874549865723 0.497367888689041138 0.429773271083831787
3.03397297859191895 0.563314437866210938 0.515814423561096191
-0.550381243228912354 -1.31812512874603271 0.0663498789072036743
-1.21340799331665039 0.396112024784088135 0.0783918499946594238
