ply
format ascii 1.0
element vertex 256
comment vertices
property float x
property float y
property float z
end_header
2.95501089096069336 -0.928011059761047363 0.172013983130455017
-3.04215240478515625 -2.58401322364807129 -0.163684502243995667
-1.58405888080596924 2.89621520042419434 1.26207995414733887
1.77098751068115234 3.08252811431884766 -0.374639421701431274
-0.51659548282623291 -0.237779110670089722 0.0525784902274608612
0.751662552356719971 -3.02746367454528809 0.61824411153793335
1.25113630294799805 1.11422312259674072 0.69949650764465332
3.79970932006835938 0.773808836936950684 -0.099049203097820282
1.1183164119720459 -1.30838608741760254 -0.0940143465995788574
-2.13322091102600098 -0.983626246452331543 -0.242983758449554443
1.08368301391601562 2.78475785255432129 1.25062000751495361
2.22717022895812988 -3.13986563682556152 -0.208345383405685425
-1.24604976177215576 0.238063544034957886 1.44396746158599854
1.29959237575531006 -0.310320615768432617 1.45881271362304688
-1.65330588817596436 2.73865890502929688 -0.333790838718414307
-1.14286494255065918 1.20385205745697021 -0.111520580947399139
-0.191637367010116577 -2.02785491943359375 -0.138082981109619141
2.63448786735534668 0.462614715099334717 0.742215752601623535
0.281107455492019653 1.08859264850616455 -0.247567325830459595
2.46054983139038086 -1.7794189453125 1.08016443252563477
1.26986896991729736 -0.0394142158329486847 0.0214941203594207764
0.428318798542022705 -0.685312628746032715 0.681506454944610596
-2.09562420845031738 -2.0756831169128418 0.252194881439208984
2.13340234756469727 -1.84927773475646973 -0.129732266068458557
-2.99652504920959473 -1.40292859077453613 0.244136780500411987
0.503265321254730225 -1.75707602500915527 0.683924436569213867
3.19002580642700195 -1.94740819931030273 -0.213607072830200195
-1.4098668098449707 0.221302703022956848 0.357426702976226807
0.121267110109329224 -3.03046894073486328 -0.215290412306785583
1.16438019275665283 2.40933060646057129 0.300423145294189453
3.78198623657226562 -0.411431193351745605 -0.0829579532146453857
2.91617369651794434 -1.01537013053894043 1.48725128173828125
3.00542640686035156 0.176323279738426208 -0.115143731236457825
-1.35802829265594482 -0.790889739990234375 0.287189096212387085
1.53521490097045898 -2.68116378784179688 0.232731610536575317
0.421020686626434326 -0.526265144348144531 -0.213729918003082275
-0.251013636589050293 1.19519495964050293 0.44422382116317749
2.63664150238037109 -0.380308181047439575 0.715220808982849121
-0.213008686900138855 -1.16202235221862793 0.482561022043228149
-1.5369570255279541 2.70972681045532227 0.461361736059188843
1.39657652378082275 3.15363621711730957 0.357965201139450073
1.53552746772766113 -0.75192415714263916 0.262563407421112061
0.34299856424331665 -1.39868044853210449 -0.0899064838886260986
2.28972864151000977 -2.45174551010131836 0.31592482328414917
1.52399396896362305 -1.87774002552032471 0.302816838026046753
1.82868921756744385 2.39132785797119141 -0.0340037792921066284
-1.35246050357818604 0.285076260566711426 -0.381171286106109619
0.483345210552215576 1.10002231597900391 0.478466212749481201
-1.8440554141998291 -0.325102508068084717 -0.00905138254165649414
1.52035689353942871 -3.22144269943237305 -0.251912295818328857
0.847059905529022217 -1.96009469032287598 -0.113844573497772217
1.07324612140655518 3.15095138549804688 -0.337392926216125488
2.47251105308532715 -1.47905075550079346 0.347306251525878906
-2.79224872589111328 -2.16909599304199219 0.304656267166137695
-2.95387578010559082 -0.95573723316192627 -0.256392717361450195
-2.13376641273498535 -2.51273465156555176 -0.253856629133224487
-0.711224615573883057 -0.863213121891021729 0.0358416587114334106
1.14251279830932617 2.40467381477355957 -0.349162280559539795
0.709748804569244385 -1.13431632518768311 1.05257892608642578
-2.3524012565612793 -1.38425266742706299 0.228084951639175415
0.913707554340362549 -0.594392657279968262 0.191293776035308838
1.31430304050445557 -0.281541228294372559 0.820887982845306396
2.5012214183807373 -1.09110593795776367 -0.245773091912269592
-0.0868312343955039978 -2.1245722770690918 0.480931460857391357
-0.222088158130645752 -0.629132509231567383 -0.350944787263870239
1.91881358623504639 -3.2899320125579834 0.325144350528717041
3.08220267295837402 0.786891579627990723 -0.0544898957014083862
-1.24482631683349609 -0.265662908554077148 -0.0439598299562931061
2.91138529777526855 -0.971327483654022217 0.7702484130859375
-0.221835851669311523 -0.529958605766296387 0.469022214412689209
-2.44615697860717773 -2.62733173370361328 0.285814523696899414
0.598478972911834717 -2.92845678329467773 0.0836977958679199219
1.52441585063934326 -1.74516403675079346 -0.243875101208686829
3.28826475143432617 -1.37896239757537842 0.151217743754386902
3.75427865982055664 0.147499501705169678 -0.0919913798570632935
0.713563740253448486 -0.479076981544494629 1.10584008693695068
-1.39336490631103516 0.223809212446212769 0.914803922176361084
1.08265435695648193 2.3995356559753418 0.862000226974487305
2.86641883850097656 -0.287502050399780273 0.120638616383075714
0.902013480663299561 -1.17520987987518311 0.377062022686004639
0.404624342918395996 -1.8560791015625 0.170003414154052734
1.36388111114501953 -3.00893592834472656 0.608515739440917969
2.47531723976135254 -1.25938308238983154 1.00173544883728027
-0.681280970573425293 1.15103471279144287 0.146861404180526733
1.75596368312835693 2.67866277694702148 0.394868075847625732
1.07837212085723877 2.93509316444396973 0.707702279090881348
-1.57455742359161377 2.44667816162109375 1.00014710426330566
0.297874391078948975 -1.20566475391387939 0.496684670448303223
1.60301601886749268 -1.24175834655761719 0.0292418748140335083
1.52720415592193604 -0.528311073780059814 -0.187550127506256104
-2.73828601837158203 -0.977059721946716309 0.244080007076263428
2.78956055641174316 0.72170102596282959 0.341029196977615356
0.328362703323364258 -0.894636571407318115 0.116371676325798035
2.77039599418640137 0.193177595734596252 0.357709705829620361
-1.88099837303161621 -0.775120019912719727 0.17756807804107666
2.59027457237243652 -1.86589932441711426 0.0373918116092681885
1.97529160976409912 -2.09010100364685059 0.282102286815643311
1.80608749389648438 3.05752968788146973 0.105548813939094543
0.941678285598754883 1.1203840970993042 0.334195464849472046
-0.145451679825782776 -1.62713980674743652 0.467211246490478516
0.738435745239257812 -0.892082810401916504 -0.121755450963973999
0.812951385974884033 -0.32723546028137207 -0.339603960514068604
2.84853291511535645 -1.46546709537506104 0.0648300349712371826
2.08973550796508789 -2.8682105541229248 0.330261200666427612
3.28980088233947754 -0.345397502183914185 -0.0344743728637695312
0.0353530198335647583 -0.55786442756652832 0.0945122092962265015
2.5157625675201416 -1.87399065494537354 0.5502663254737854
3.39557433128356934 0.400468349456787109 -0.0452134609222412109
2.51618051528930664 -1.06660819053649902 0.200688198208808899
-0.951578974723815918 -0.470376312732696533 0.206161126494407654
1.01778531074523926 -2.97227358818054199 0.19578869640827179
-1.53832161426544189 2.53611207008361816 0.0704747885465621948
0.826137781143188477 -0.814125001430511475 0.615885257720947266
-2.49831104278564453 -1.77647173404693604 0.282245159149169922
1.89327049255371094 -1.68473351001739502 0.302901983261108398
0.21273466944694519 1.2335357666015625 0.19744303822517395
3.10997247695922852 -1.1715388298034668 -0.156710892915725708
-3.01012468338012695 -2.50889205932617188 0.249177470803260803
1.52600562572479248 -3.2442939281463623 0.232214838266372681
1.33063137531280518 -0.306395947933197021 0.314249515533447266
1.29107534885406494 -1.19609427452087402 0.285637885332107544
1.24485063552856445 -0.25720512866973877 -0.310819298028945923
2.63734340667724609 0.0140061378479003906 0.746203064918518066
-1.09946680068969727 -0.885795235633850098 -0.0292721018195152283
1.19975519180297852 2.79245257377624512 0.215042576193809509
-2.34304213523864746 -0.992018342018127441 0.245674654841423035
-1.6203160285949707 -0.895346760749816895 -0.0902931094169616699
3.15637421607971191 -1.86799490451812744 0.169386148452758789
1.18205380439758301 -1.7507636547088623 -0.0538035966455936432
-1.5523834228515625 -0.367225348949432373 0.239827275276184082
2.51717543601989746 -1.53314530849456787 0.727301836013793945
-1.29379367828369141 0.18197062611579895 -0.00546506047248840332
0.570821464061737061 1.16096925735473633 0.103464961051940918
0.395869284868240356 -0.551511883735656738 0.254256695508956909
-0.00474792346358299255 -0.83249354362487793 0.495611488819122314
0.406854510307312012 -3.03363299369812012 0.386003375053405762
-2.94239449501037598 -1.76984727382659912 0.234458610415458679
0.62950974702835083 -1.66226553916931152 -0.0932840406894683838
-2.12735271453857422 -2.45630908012390137 0.221041783690452576
1.62444078922271729 -2.21643519401550293 0.204364672303199768
1.52395415306091309 2.40130162239074707 0.259439527988433838
0.110292524099349976 -2.06311297416687012 0.177040964365005493
1.83286952972412109 -2.51408839225769043 0.34478992223739624
2.2857363224029541 -1.84335052967071533 0.276010215282440186
-1.55618107318878174 2.78332138061523438 0.877788901329040527
-0.410845011472702026 -0.564344286918640137 0.148361548781394958
-1.03683567047119141 1.1655956506729126 0.223200187087059021
2.93373823165893555 -0.975061118602752686 1.13769769668579102
-2.15185689926147461 -1.71341526508331299 0.289358049631118774
2.48614358901977539 -1.18751990795135498 0.541864395141601562
0.0815930068492889404 -1.95564627647399902 -0.345223128795623779
2.78992533683776855 -0.468627452850341797 0.404601126909255981
-1.57331466674804688 2.46368837356567383 1.3434065580368042
1.72459685802459717 -2.97818803787231445 0.308059036731719971
-1.48843121528625488 -0.507716536521911621 -0.0624740235507488251
1.20121753215789795 -0.664410293102264404 0.356481581926345825
2.50582027435302734 -1.49119746685028076 0.0138615071773529053
0.254870742559432983 -2.93538856506347656 0.104071669280529022
1.13392126560211182 3.16898894309997559 0.15103486180305481
-0.859723210334777832 -0.258094578981399536 -0.0351814106106758118
1.58222413063049316 1.13316035270690918 0.698066473007202148
1.18574047088623047 2.61403918266296387 0.631194233894348145
-1.54367947578430176 2.86407566070556641 0.0233205109834671021
2.87107491493225098 0.453713983297348022 0.169018447399139404
0.370646893978118896 -1.43107283115386963 0.724468111991882324
2.83075380325317383 -0.991584956645965576 -0.125424057245254517
-2.68474626541137695 -1.30339646339416504 0.224864199757575989
0.264059841632843018 -1.47915434837341309 0.216350078582763672
0.142314434051513672 -1.75098502635955811 0.558429121971130371
0.339181423187255859 -1.0631864070892334 0.786581039428710938
1.07725369930267334 2.46745634078979492 1.18063735961914062
0.345655173063278198 -1.85153603553771973 -0.148153036832809448
3.13015079498291016 -1.66430449485778809 -0.0746205300092697144
-2.4956047534942627 -2.28618383407592773 0.302044212818145752
1.32067739963531494 -0.253967136144638062 1.13847875595092773
1.8049933910369873 2.37311267852783203 -0.350082278251647949
1.0537341833114624 -2.9500432014465332 0.583612382411956787
0.807867050170898438 -1.26674830913543701 -0.0850122645497322083
-0.208735540509223938 -1.87624537944793701 -0.42223280668258667
1.09183621406555176 3.06287169456481934 1.11865711212158203
-2.98954558372497559 -0.969799280166625977 0.0691893696784973145
2.67829489707946777 0.742682158946990967 0.624289035797119141
-0.860458791255950928 -0.612729489803314209 -0.0469655804336071014
-0.985274553298950195 -0.840778589248657227 0.247159317135810852
1.09935784339904785 3.10346341133117676 0.457913696765899658
0.805648565292358398 -0.514628827571868896 0.640085041522979736
-1.25316059589385986 -0.467813313007354736 0.17904527485370636
3.01795053482055664 -0.465122640132904053 -0.0798661261796951294
2.5486447811126709 -1.87430810928344727 -0.259129524230957031
0.382323026657104492 -1.08249008655548096 -0.110426157712936401
1.3613966703414917 -0.364097356796264648 0.0231702923774719238
3.50742936134338379 0.820960044860839844 -0.0984768569469451904
0.996633946895599365 -1.10084760189056396 0.10721752792596817
1.65724921226501465 -3.02482318878173828 0.638511002063751221
3.4769442081451416 0.0494154766201972961 -0.0686020180583000183
1.1562964916229248 2.49442696571350098 -0.0688656270503997803
0.281536459922790527 -1.19004225730895996 0.175745517015457153
2.17445898056030273 -3.20154404640197754 0.214113369584083557
2.78812479972839355 -0.0992221012711524963 0.328247308731079102
-2.1250910758972168 -1.18310070037841797 0.270254015922546387
1.72186684608459473 2.99162387847900391 0.374565601348876953
0.760215222835540771 -3.01881170272827148 0.318749815225601196
-0.69341045618057251 -0.597870171070098877 0.19740062952041626
1.12901508808135986 -0.941488862037658691 0.326323330402374268
0.910063445568084717 1.16951274871826172 0.615978479385375977
0.988720834255218506 -1.00659489631652832 -0.203521877527236938
1.31563985347747803 -0.160313323140144348 0.565498769283294678
1.83389997482299805 2.37989020347595215 0.247641041874885559
-0.195333912968635559 -0.504493892192840576 -0.0996865183115005493
-1.38720917701721191 0.232011526823043823 1.19610714912414551
-2.72992801666259766 -2.52548694610595703 0.265985757112503052
1.40922415256500244 2.64262914657592773 0.3463917076587677
0.102066218852996826 1.14163076877593994 0.436941981315612793
0.0765098258852958679 -1.31996321678161621 0.621274411678314209
-2.11231803894042969 -1.04197967052459717 0.0305019393563270569
0.742070317268371582 -0.869387924671173096 0.973191440105438232
3.09270071983337402 -1.18222439289093018 0.131444573402404785
0.900170028209686279 -1.60118508338928223 -0.0966224819421768188
0.800331711769104004 -0.640453338623046875 -0.218610852956771851
2.51087665557861328 -1.48765575885772705 1.15340447425842285
0.678791522979736328 1.24400818347930908 0.346549510955810547
1.55628287792205811 -1.12915194034576416 0.317951858043670654
2.82864975929260254 -1.22171986103057861 0.188786789774894714
2.96900534629821777 -0.154059723019599915 -0.0904370173811912537
0.157714366912841797 -2.01231527328491211 0.501509785652160645
3.67958688735961914 0.535318076610565186 -0.120263375341892242
2.97334885597229004 0.512967407703399658 -0.0693544745445251465
-1.38854694366455078 -0.772749722003936768 -0.0536026805639266968
0.435905575752258301 -3.02481555938720703 -0.101363599300384521
-0.473499387502670288 1.14131259918212891 0.3062247633934021
1.77382242679595947 3.18697309494018555 -0.11942724883556366
0.455084949731826782 -1.64716958999633789 0.4526938796043396
2.75458693504333496 0.427227705717086792 0.463858753442764282
0.774758040904998779 -1.03103184700012207 0.743813633918762207
3.58309102058410645 -0.251594781875610352 -0.102493390440940857
-1.60304880142211914 -0.262759417295455933 -0.0669614747166633606
2.21289944648742676 -2.10958433151245117 0.191385120153427124
-2.34666347503662109 -2.07180142402648926 0.290966898202896118
0.316166132688522339 1.0894848108291626 0.0025676041841506958
-1.86981058120727539 -0.664331197738647461 -0.0471221283078193665
-1.77795720100402832 -0.549528241157531738 0.211749628186225891
2.06018209457397461 -2.3238213062286377 0.303688585758209229
1.50584137439727783 2.94696974754333496 0.259780347347259521
0.570650279521942139 -1.92811691761016846 -0.0757659226655960083
1.0862891674041748 3.04358625411987305 -0.114630132913589478
-0.236379384994506836 -0.913564085960388184 0.474761068820953369
1.73914849758148193 -2.01221895217895508 0.279052317142486572
-1.11730599403381348 -0.53268122673034668 -0.0142429247498512268
2.51576924324035645 -1.90084373950958252 0.792958915233612061
0.597047686576843262 -1.38308036327362061 -0.125229910016059875
0.325476586818695068 -0.541747748851776123 0.0103108435869216919
1.39962136745452881 -0.950525820255279541 0.225047886371612549
0.34778296947479248 -0.753880023956298828 -0.16776469349861145
1.61224615573883057 -1.65108895301818848 0.313136875629425049
2.91026616096496582 -1.69889593124389648 0.0431087538599967957
1.64223372936248779 -1.31968724727630615 -0.196128860116004944
