ply
format ascii 1.0
element vertex 114
comment vertices
property float x
property float y
property float z
end_header
-0.642556667327880859 -1.21969842910766602 0.030023038387298584
0.753087818622589111 -1.06023681163787842 0.60793536901473999
-0.191286236047744751 1.41116988658905029 0.168361157178878784
0.0214375704526901245 3.15692853927612305 0.147512912750244141
2.03029394149780273 2.37037420272827148 0.045905381441116333
2.6551964282989502 1.56475198268890381 0.390640676021575928
-2.90596699714660645 1.21950781345367432 0.117812424898147583
-0.0281955599784851074 1.23295092582702637 0.180386394262313843
-0.236947923898696899 -1.3731464147567749 0.432521730661392212
-0.754114091396331787 -2.99861598014831543 0.122331701219081879
-1.3111344575881958 0.315957605838775635 0.296009570360183716
4.10774850845336914 -3.64041495323181152 0.442784219980239868
1.06699657440185547 0.744001150131225586 0.347413450479507446
-0.677081108093261719 -1.2164461612701416 0.0790162235498428345
1.41528093814849854 0.0745978355407714844 0.494056642055511475
3.10615229606628418 -4.54896116256713867 0.547629654407501221
1.03353047370910645 -0.955234706401824951 0.268736004829406738
-0.793008327484130859 -3.08432817459106445 0.0693876966834068298
-0.204515844583511353 1.30114734172821045 0.178451269865036011
-0.272372841835021973 -1.30790352821350098 0.438199609518051147
1.12221837043762207 0.67775803804397583 0.355289995670318604
2.66542649269104004 1.59888172149658203 0.380155503749847412
-0.164311230182647705 3.11478781700134277 0.116449572145938873
4.14724445343017578 -3.57341670989990234 0.346169650554656982
1.96643280982971191 -2.35596990585327148 0.0510176420211791992
3.07617282867431641 -4.32735252380371094 0.540770232677459717
1.24264001846313477 -0.0831533297896385193 0.398719668388366699
-0.109008103609085083 3.04437446594238281 0.132181078195571899
-0.206782147288322449 1.32189106941223145 0.195505127310752869
-0.587583601474761963 -1.14738106727600098 0.0917100384831428528
-0.133109241724014282 1.33739686012268066 0.220138370990753174
0.712885618209838867 -1.21895122528076172 0.612033307552337646
1.22088181972503662 0.693051695823669434 0.377879351377487183
0.646628320217132568 -1.07220804691314697 0.625411510467529297
-2.80024003982543945 1.13680124282836914 0.153379350900650024
-1.31893539428710938 0.296326428651809692 0.251701325178146362
-0.796703457832336426 -3.02725505828857422 0.113034799695014954
4.08093118667602539 -3.5458228588104248 0.369985759258270264
1.19784641265869141 0.000339169986546039581 0.602713108062744141
-0.697985649108886719 -3.0110936164855957 0.103486448526382446
4.17609024047851562 -3.58000493049621582 0.39334985613822937
1.01144790649414062 -0.960424184799194336 0.276767075061798096
2.62344098091125488 1.58158576488494873 0.360464692115783691
-2.88479733467102051 1.1170731782913208 0.166219130158424377
-0.229002863168716431 1.27463078498840332 0.190478414297103882
3.10080122947692871 -4.65357160568237305 0.607496976852416992
-0.62415003776550293 -1.27313101291656494 0.038423687219619751
2.05205059051513672 2.38802313804626465 0.051630951464176178
4.08796167373657227 -3.69177365303039551 0.420496135950088501
0.92033761739730835 -0.92881852388381958 0.182077303528785706
2.62766194343566895 1.62575125694274902 0.346436500549316406
-0.746412336826324463 -3.07682514190673828 0.0990674495697021484
-0.0623491629958152771 3.10920071601867676 0.191103219985961914
-0.175686091184616089 3.07351517677307129 0.105346396565437317
3.08711934089660645 -4.46816825866699219 0.605674207210540771
1.34727704524993896 -0.0479454845190048218 0.528925716876983643
-0.597160100936889648 -1.12734329700469971 0.095713399350643158
-0.712212204933166504 -3.04645752906799316 0.11283661425113678
-0.23634965717792511 1.35929107666015625 0.192698806524276733
-2.88362407684326172 1.09974861145019531 0.143794536590576172
-2.84554028511047363 1.13369071483612061 0.102399177849292755
-0.166077107191085815 1.30225396156311035 0.239667311310768127
-0.0792711824178695679 3.05115294456481934 0.0911616384983062744
0.835028350353240967 -1.10714185237884521 0.524114489555358887
2.06768703460693359 2.35891318321228027 0.072030872106552124
0.977975726127624512 -0.947027981281280518 0.24811573326587677
3.02655029296875 -4.48108100891113281 0.592904150485992432
0.671999156475067139 -1.146126389503479 0.544121742248535156
-0.17233586311340332 1.35657107830047607 0.0986223891377449036
1.04495871067047119 -0.577576279640197754 0.212502598762512207
0.787213981151580811 -1.08365201950073242 0.587915003299713135
0.801075160503387451 -1.01235866546630859 0.273952305316925049
-2.87709951400756836 1.0899120569229126 0.138006657361984253
-0.852380275726318359 -3.01730036735534668 0.0288006290793418884
2.01856756210327148 -2.39373636245727539 0.0926265642046928406
1.16064703464508057 0.67860180139541626 0.371511191129684448
-1.34584355354309082 0.365639328956604004 0.273535579442977905
4.13777923583984375 -3.59731101989746094 0.399248629808425903
2.02373385429382324 2.33707809448242188 0.0116486586630344391
-0.29153907299041748 -1.286659836769104 0.439294308423995972
1.15437459945678711 0.709793686866760254 0.348995327949523926
0.927290201187133789 -1.01913738250732422 0.145586296916007996
-0.81798553466796875 -3.10652065277099609 0.121702685952186584
1.34183418750762939 0.0808159112930297852 0.4677143394947052
4.07420492172241211 -3.62459754943847656 0.409330368041992188
3.09031772613525391 -4.44356107711791992 0.493199944496154785
-1.33040511608123779 0.345029622316360474 0.183097571134567261
-0.690015316009521484 -3.03686761856079102 0.104165986180305481
0.728137016296386719 -1.12018060684204102 0.567737340927124023
-0.202859878540039062 1.21917557716369629 0.172011762857437134
-2.87353730201721191 1.07957613468170166 0.119677066802978516
-0.611053586006164551 -1.24322021007537842 0.0756564140319824219
-0.102489463984966278 3.08486270904541016 0.0907300636172294617
-0.180106401443481445 1.35049271583557129 0.205354467034339905
-0.124843448400497437 3.03801798820495605 0.170700997114181519
0.708464860916137695 -1.19872641563415527 0.569076776504516602
2.62369084358215332 1.67853593826293945 0.364764094352722168
1.30769670009613037 0.0131189748644828796 0.511750578880310059
2.02991056442260742 -2.4346468448638916 0.0280812419950962067
-0.489806115627288818 -1.35392534732818604 0.130151122808456421
-0.752422988414764404 -3.07000064849853516 0.142395913600921631
-2.94529318809509277 1.16660177707672119 0.115376539528369904
-0.731469213962554932 -3.00102949142456055 0.10189586877822876
-2.77225494384765625 1.03777658939361572 0.111229963600635529
1.96496880054473877 2.38351678848266602 0.0706502646207809448
2.65729475021362305 1.6183704137802124 0.405122250318527222
-0.741995871067047119 -1.19668185710906982 0.100191980600357056
0.919132828712463379 -0.961879432201385498 0.247179746627807617
0.848862528800964355 -1.09083950519561768 0.251410305500030518
2.6970670223236084 1.59667563438415527 0.418584585189819336
3.0475773811340332 -4.58226585388183594 0.622683286666870117
-0.194099634885787964 1.3924945592880249 0.249649912118911743
1.18677735328674316 0.70249783992767334 0.370972335338592529
2.56536269187927246 1.60610318183898926 0.38113519549369812
