ply
format ascii 1.0
element vertex 256
comment vertices
property float x
property float y
property float z
end_header
-1.19705533981323242 0.699857592582702637 0.0843807607889175415
2.6869206428527832 -2.75330877304077148 0.473796814680099487
-3.80965161323547363 4.65348243713378906 1.09706616401672363
2.71412944793701172 2.43289017677307129 0.232875525951385498
-2.95117020606994629 -2.07510566711425781 0.951129794120788574
1.54353499412536621 -0.146350622177124023 -0.0545646883547306061
-2.34006285667419434 2.8850257396697998 0.13259635865688324
-0.436367601156234741 -1.56559765338897705 0.215009197592735291
3.12251710891723633 0.184029534459114075 1.49119889736175537
0.341486513614654541 1.32202637195587158 1.43815147876739502
-2.11958909034729004 -1.18944358825683594 -0.381238967180252075
3.79520654678344727 0.949925422668457031 0.0215569809079170227
-2.85657382011413574 4.7288355827331543 -0.405653476715087891
0.25218626856803894 1.50865471363067627 -0.279792875051498413
-0.725574016571044922 2.83935689926147461 -0.0486385747790336609
2.10197210311889648 -1.60115432739257812 -0.4089030921459198
0.714998424053192139 -1.05621933937072754 1.10328233242034912
-1.17017436027526855 0.645777285099029541 1.61312031745910645
-2.28820466995239258 1.9597630500793457 1.25115156173706055
2.38797187805175781 0.967384219169616699 0.353548020124435425
1.31635177135467529 2.35283970832824707 0.212667196989059448
-3.67970895767211914 3.72164630889892578 0.0538558363914489746
-1.8102872371673584 1.81709444522857666 -0.398885250091552734
0.848799586296081543 -1.63691818714141846 0.0213555097579956055
-2.98460149765014648 -2.02911043167114258 -0.253035753965377808
-1.50060200691223145 -0.225705116987228394 0.785196244716644287
2.65080404281616211 -1.38482928276062012 0.630337953567504883
0.957621395587921143 0.781102538108825684 0.37593570351600647
3.00370335578918457 0.0931584686040878296 -0.0986948013305664062
0.350220441818237305 -0.671305060386657715 -0.00692811980843544006
-2.85679507255554199 -1.13308835029602051 0.38730284571647644
-1.533730149269104 -0.149780720472335815 -0.3978385329246521
-0.673627793788909912 1.67692101001739502 0.0717382356524467468
-2.11801624298095703 -2.09612488746643066 0.448471605777740479
-3.81818366050720215 4.60673284530639648 -0.415217876434326172
-0.826970815658569336 -0.706868827342987061 -0.0831642448902130127
0.903603196144104004 -0.104118920862674713 0.693924188613891602
1.98283994197845459 -2.04601478576660156 0.565492749214172363
-1.53892600536346436 2.45448422431945801 0.329456329345703125
1.5287245512008667 1.2916332483291626 -0.114128902554512024
-3.7987360954284668 3.74890232086181641 1.07940351963043213
2.53500914573669434 -2.38082718849182129 -0.423387438058853149
-2.91347074508666992 3.76328682899475098 -0.399454832077026367
-3.31466412544250488 4.64258050918579102 0.318487763404846191
-2.28076457977294922 1.93551218509674072 0.4219169020652771
0.269893348217010498 1.35623311996459961 0.528043866157531738
2.05192899703979492 1.98508691787719727 0.132406428456306458
1.1818920373916626 -0.915150642395019531 0.00921744853258132935
2.30462503433227539 2.32994890213012695 0.88540184497833252
1.94092333316802979 -2.69917750358581543 -0.0399245619773864746
-0.321698397397994995 0.994391143321990967 -0.0126060955226421356
3.14451003074645996 1.08503127098083496 0.420881450176239014
-1.46780550479888916 0.534855961799621582 0.824648380279541016
-2.09923100471496582 -1.14081716537475586 0.440168708562850952
1.92931914329528809 0.519223570823669434 -0.0480501838028430939
-2.13373899459838867 -1.937095046043396 -0.296840161085128784
-0.865317344665527344 0.0911379754543304443 0.350976526737213135
3.08695697784423828 0.173211455345153809 0.621119856834411621
0.288437634706497192 0.619930803775787354 0.0808010399341583252
-2.83722758293151855 -1.25290131568908691 -0.416917145252227783
-0.719926714897155762 -1.17035079002380371 0.731533467769622803
2.00892734527587891 -1.2523193359375 0.388032793998718262
2.77173805236816406 -1.50860095024108887 -0.233673065900802612
-2.9396512508392334 3.95403695106506348 0.261492818593978882
-2.93585300445556641 -1.3650977611541748 1.0277327299118042
1.92887496948242188 2.63360285758972168 0.212117582559585571
2.68689537048339844 -2.10634064674377441 0.587099194526672363
-0.263605237007141113 -0.696916460990905762 0.243723094463348389
2.01260828971862793 -2.71590280532836914 0.597375333309173584
-3.71592879295349121 4.17030715942382812 0.603256702423095703
-2.97693252563476562 -1.83106112480163574 0.363235175609588623
-1.36602044105529785 2.98429369926452637 0.023235417902469635
0.160647034645080566 -1.27039492130279541 0.0829624682664871216
1.6852877140045166 2.44726300239562988 0.870814502239227295
1.0688549280166626 0.292260944843292236 -0.00527948886156082153
-2.31079506874084473 2.55010747909545898 -0.381473422050476074
0.668816685676574707 -1.21746826171875 0.4193992018699646
-2.33010435104370117 2.44670629501342773 0.901712477207183838
-1.42049968242645264 0.444804847240447998 -0.408749938011169434
3.00023841857910156 0.677573502063751221 -0.0207488276064395905
0.679389894008636475 1.07326364517211914 -0.048452131450176239
-1.1705629825592041 -1.05150699615478516 0.229859679937362671
-0.927626371383666992 -0.0929945483803749084 -0.181089594960212708
-1.15476119518280029 1.41725802421569824 0.124840296804904938
-1.05447220802307129 2.41360998153686523 -0.125097945332527161
-1.51559543609619141 0.145470708608627319 0.389872610569000244
-2.05243468284606934 2.28656125068664551 0.000243879854679107666
-0.545891404151916504 -1.15349817276000977 -0.104068070650100708
2.41624069213867188 1.16522657871246338 -0.128840446472167969
1.01325058937072754 -0.291168570518493652 0.222489476203918457
-2.51011466979980469 -1.60644447803497314 0.379866957664489746
1.43275976181030273 0.662784934043884277 -0.0817063301801681519
-0.942480683326721191 -1.57717406749725342 0.289784699678421021
-2.25132155418395996 1.85124039649963379 -0.145509421825408936
-1.4999004602432251 0.158374518156051636 1.14510929584503174
0.94159698486328125 0.379848957061767578 0.758971631526947021
2.20454740524291992 2.40213489532470703 -0.11902511864900589
2.90101957321166992 1.1511005163192749 -0.0182585939764976501
1.64552128314971924 2.32223820686340332 -0.137697845697402954
-1.87778639793395996 2.92827916145324707 0.259855121374130249
2.26586341857910156 2.36504888534545898 0.405993998050689697
3.45241165161132812 0.642882406711578369 0.126989096403121948
0.683329582214355469 -1.10462033748626709 -0.0383292287588119507
1.27283763885498047 1.11229360103607178 0.264982879161834717
1.70949161052703857 2.19599270820617676 0.416667759418487549
1.97236001491546631 -0.324532091617584229 -0.0931566506624221802
-0.779484272003173828 0.501140773296356201 0.0743686109781265259
-0.763668060302734375 1.17304897308349609 0.0992448106408119202
-3.73553705215454102 3.71709561347961426 -0.403913825750350952
-1.84860897064208984 1.87996578216552734 0.272937089204788208
0.261696606874465942 1.22541308403015137 0.0824591219425201416
-3.38636183738708496 3.96745133399963379 0.361803501844406128
1.98016452789306641 -1.33134067058563232 -0.0633696168661117554
2.55930709838867188 0.657116532325744629 -0.111401110887527466
-2.29861354827880859 2.41211843490600586 0.456746339797973633
-1.14561223983764648 0.694022655487060547 0.561978936195373535
0.74957120418548584 0.609202742576599121 0.0230975598096847534
-2.2114720344543457 -1.29781711101531982 0.037790343165397644
-2.55279874801635742 -2.10486268997192383 0.383450418710708618
2.78579902648925781 0.733616650104522705 0.358670532703399658
2.10547637939453125 -2.45752930641174316 -0.443334460258483887
2.29776287078857422 -1.64020073413848877 0.619309604167938232
-3.72537398338317871 3.74019169807434082 0.653173744678497314
3.09460234642028809 0.15333952009677887 1.05215370655059814
-1.1391444206237793 0.770080208778381348 -0.401582151651382446
1.16061151027679443 -1.3447113037109375 -0.0140512920916080475
-2.93805909156799316 4.62003135681152344 0.116435915231704712
-2.36420559883117676 1.99734115600585938 0.831611275672912598
-1.16697072982788086 0.643296718597412109 1.19157803058624268
1.05305874347686768 0.889467895030975342 -0.0408773645758628845
-1.33027362823486328 -0.0738020613789558411 -0.0431624650955200195
-3.78894448280334473 4.23837471008300781 1.08366584777832031
-3.71088838577270508 4.58824872970581055 -0.0147404670715332031
3.31592273712158203 1.15540623664855957 -0.022933177649974823
2.45193362236022949 2.06842899322509766 0.0785910561680793762
0.903767943382263184 -0.608537197113037109 -0.0152879655361175537
-0.689064443111419678 -0.939228534698486328 0.222845941781997681
-0.199068516492843628 -1.19590520858764648 0.251682460308074951
2.72649574279785156 -1.29181194305419922 0.244651973247528076
2.30582451820373535 -2.44153618812561035 0.621687769889831543
-2.7965238094329834 -1.16747236251831055 -0.0310715585947036743
0.338397771120071411 1.31277799606323242 0.916801393032073975
0.455444872379302979 -1.50259625911712646 -0.0327996015548706055
0.966284096240997314 0.136603459715843201 0.393113672733306885
2.67142343521118164 -2.58281588554382324 -0.120237722992897034
-2.13065147399902344 -1.62130284309387207 0.457525819540023804
1.70393288135528564 0.20721745491027832 -0.0900483801960945129
-1.19778215885162354 0.349595487117767334 0.311612069606781006
-3.64628505706787109 4.64940118789672852 0.512330532073974609
-1.19134902954101562 2.56130480766296387 0.201730117201805115
2.20663571357727051 0.782588779926300049 -0.0163862705230712891
-1.70071053504943848 2.64734601974487305 0.0398421585559844971
3.14963150024414062 0.248080670833587646 0.252221941947937012
-2.16795206069946289 -1.96797859668731689 0.0780660808086395264
-0.321807324886322021 1.3681793212890625 0.0261975433677434921
-3.52640271186828613 4.31413698196411133 0.316933989524841309
-0.772973060607910156 -1.49178504943847656 -0.0263831429183483124
-0.988001823425292969 2.96051836013793945 0.180059313774108887
-2.87762594223022461 -1.61433601379394531 0.763237833976745605
0.494627684354782104 0.854144275188446045 0.274342894554138184
-1.07700467109680176 -0.185282334685325623 0.237417325377464294
1.71519708633422852 1.0002666711807251 0.00583672523498535156
-3.11632633209228516 4.3452911376953125 0.267620980739593506
-0.752398967742919922 2.45117783546447754 0.0679278969764709473
-2.08471202850341797 2.63524079322814941 0.0854821503162384033
1.60927748680114746 2.53311586380004883 0.369634509086608887
-1.09732723236083984 1.05345702171325684 0.107159875333309174
-1.97316980361938477 2.32507729530334473 0.349614769220352173
-2.32591462135314941 2.44454145431518555 1.25374722480773926
2.6565859317779541 -1.73170661926269531 0.615188956260681152
-2.49877214431762695 -1.26002359390258789 0.369304955005645752
-2.97395491600036621 -1.17834806442260742 0.739496111869812012
0.839432895183563232 1.09904646873474121 0.256327003240585327
1.28288447856903076 -0.370836049318313599 -0.0733513534069061279
1.1776432991027832 1.23277103900909424 -0.0432231053709983826
-2.89351511001586914 -2.07639813423156738 0.0755483955144882202
-1.50240564346313477 -0.182013526558876038 1.18070745468139648
-1.46911680698394775 -0.169243723154067993 0.263681173324584961
2.34679174423217773 -2.09360909461975098 0.598967492580413818
0.648091256618499756 -1.10460364818572998 0.734931409358978271
-0.957534551620483398 0.531300544738769531 -0.257250308990478516
2.26784992218017578 -1.30961370468139648 0.617342233657836914
-2.83069896697998047 -2.05588984489440918 0.643065869808197021
2.20089125633239746 1.17430496215820312 0.175227731466293335
2.31872034072875977 2.62303328514099121 0.0963974148035049438
2.7454829216003418 1.10416686534881592 0.266644477844238281
0.878989458084106445 -0.976461350917816162 0.188407167792320251
-2.92378878593444824 3.7781531810760498 -0.0120430439710617065
-1.0133901834487915 -1.16742181777954102 -0.0293140485882759094
3.5711522102355957 1.14247584342956543 0.176976501941680908
-1.42251110076904297 0.56677556037902832 0.457286268472671509
1.35854959487915039 0.176259368658065796 -0.0849190875887870789
-1.99090933799743652 2.91438794136047363 -0.0402528867125511169
1.65594983100891113 2.02352499961853027 0.152490541338920593
1.39691758155822754 1.00168716907501221 -0.0894678235054016113
-0.648505151271820068 0.881657660007476807 0.0458131283521652222
-0.0296499431133270264 1.14744174480438232 -0.0135184898972511292
-0.126861155033111572 -1.09949684143066406 -0.0405915863811969757
2.6304924488067627 -2.46349811553955078 0.579819321632385254
2.57915592193603516 -1.60819017887115479 -0.460147261619567871
-0.392492711544036865 -0.80824732780456543 -0.0171096213161945343
2.35894227027893066 -2.7483363151550293 0.612507820129394531
-0.916722714900970459 -0.585108280181884766 0.188045114278793335
-1.17145180702209473 0.0581899285316467285 0.413811445236206055
0.331502377986907959 -0.978708624839782715 -0.0100701693445444107
-0.724768221378326416 -1.24095916748046875 0.172915637493133545
-2.42794632911682129 2.10570621490478516 0.213000446557998657
-0.570834100246429443 -1.1256709098815918 0.467275381088256836
1.89629793167114258 2.48125648498535156 0.473398268222808838
2.51495099067687988 0.661545217037200928 0.240723535418510437
-1.50357294082641602 0.255105704069137573 0.711462318897247314
1.03313028812408447 0.511008322238922119 0.500726401805877686
1.90256845951080322 2.2956397533416748 0.204963251948356628
-1.68709707260131836 2.955322265625 0.0263927951455116272
1.18144428730010986 0.71139836311340332 0.166394546627998352
-1.48285770416259766 2.35946083068847656 0.0489560067653656006
-1.10820579528808594 -0.125407099723815918 -0.419637948274612427
-2.17878222465515137 2.7563328742980957 0.351665019989013672
0.274080753326416016 1.52413535118103027 0.0621151179075241089
-1.42060208320617676 0.508716881275177002 0.0402455180883407593
-2.32163190841674805 -1.83352816104888916 0.355294287204742432
1.9717252254486084 -2.70781612396240234 0.254475951194763184
-2.12341570854187012 2.03642392158508301 0.19254477322101593
-1.12602519989013672 2.73383402824401855 -0.0280042700469493866
-2.72623491287231445 -1.7954639196395874 0.510596036911010742
-1.25779378414154053 1.16545271873474121 0.324222147464752197
-0.34729081392288208 -1.52061891555786133 -0.0591156519949436188
1.72433221340179443 2.57951521873474121 -0.0296638011932373047
3.59038281440734863 0.706429541110992432 -0.119521237909793854
2.62869811058044434 -2.65651607513427734 0.154415860772132874
-2.98676061630249023 -1.56051647663116455 0.458424419164657593
0.587612509727478027 -0.831424355506896973 -0.0242146588861942291
3.35806393623352051 0.937058150768280029 0.304419666528701782
-1.7979278564453125 1.89657998085021973 -0.0049988478422164917
0.547520875930786133 0.800971627235412598 -0.0204279646277427673
-1.77731204032897949 2.33037853240966797 0.0399032533168792725
3.79443144798278809 0.679228484630584717 0.0975243300199508667
-2.29721164703369141 2.46001338958740234 0.138944104313850403
-1.66598689556121826 2.70311546325683594 0.330167859792709351
-3.09961938858032227 3.72531437873840332 0.255691021680831909
1.94173216819763184 2.13142776489257812 -0.0782241076231002808
-3.58033180236816406 4.64571237564086914 0.224517464637756348
-0.0202650129795074463 -0.986274898052215576 0.224296212196350098
0.696247518062591553 0.690055966377258301 0.376417756080627441
-2.28838801383972168 1.79481732845306396 -0.412381500005722046
3.61602258682250977 1.1224515438079834 -0.0954569205641746521
-2.98895096778869629 -1.30489468574523926 0.218275666236877441
-2.96071410179138184 -1.63859331607818604 1.03284776210784912
0.875338971614837646 -1.30036437511444092 -0.037698846310377121
-0.952590703964233398 0.468399643898010254 0.340522795915603638
2.52965307235717773 2.24327445030212402 0.3035145103931427
2.13214898109436035 2.44145798683166504 0.17959710955619812
-2.72824835777282715 -1.48490405082702637 0.486354827880859375
1.10033106803894043 0.0298026427626609802 -0.0613820850849151611
1.63487446308135986 2.38213562965393066 0.147188723087310791
0.280103445053100586 1.20315098762512207 -0.185948029160499573
