ply
format ascii 1.0
element vertex 32
comment vertices
property float x
property float y
property float z
end_header
-1.64195072650909424 0.18799099326133728 0.36955416202545166
1.01210117340087891 0.300756096839904785 0.299698889255523682
-0.656056582927703857 -1.7649160623550415 0.272613883018493652
0.478557080030441284 -0.956541299819946289 0.416527748107910156
-0.252026528120040894 1.0520855188369751 0.446449786424636841
-0.912834048271179199 0.185982748866081238 0.32673230767250061
-0.10143677145242691 -0.809051811695098877 0.317419588565826416
0.873855769634246826 -0.518278121948242188 0.386258184909820557
-1.2297666072845459 -1.59371757507324219 0.291110008955001831
-0.201897770166397095 0.903216361999511719 0.470126479864120483
1.02465605735778809 0.0477890819311141968 0.264389485120773315
0.417009323835372925 -0.953422486782073975 0.376004129648208618
0.944899678230285645 0.26105305552482605 0.361264050006866455
-1.17030191421508789 0.193990692496299744 0.420932561159133911
-0.528812646865844727 -0.929518043994903564 0.2371540367603302
-2.14121341705322266 -0.0155978258699178696 0.209114342927932739
0.808367729187011719 -0.567189812660217285 0.234119296073913574
-0.272211700677871704 0.986576855182647705 0.399692654609680176
-0.926435470581054688 -1.80735456943511963 0.261883020401000977
0.438015222549438477 -0.871018171310424805 0.383541136980056763
0.8783835768699646 0.162240117788314819 0.276858389377593994
1.10830271244049072 -0.0888209417462348938 0.394292712211608887
-1.1125868558883667 0.189264610409736633 0.317882061004638672
0.784186184406280518 -0.310742825269699097 0.344821542501449585
-0.735479950904846191 -1.5420072078704834 0.384491175413131714
1.13359963893890381 0.469458818435668945 0.409269541501998901
-1.57467174530029297 0.00508182495832443237 0.258151412010192871
0.981469392776489258 -0.539762914180755615 0.303871899843215942
-1.91408097743988037 -0.14410419762134552 0.182205647230148315
-1.99960970878601074 0.233091145753860474 0.368604868650436401
-0.32806280255317688 -1.04564821720123291 0.330219417810440063
-0.189274221658706665 -1.01436889171600342 0.29628443717956543
