ply
format ascii 1.0
element vertex 9
comment vertices
property float x
property float y
property float z
end_header
0.855674028396606445 -0.536772072315216064 0.0630106180906295776
2.67008185386657715 -1.41286301612854004 0.084590226411819458
-0.0138154942542314529 0.993841111660003662 0.0817814916372299194
2.66987442970275879 -1.41176068782806396 0.0911664143204689026
-0.0154259074479341507 0.993875384330749512 0.0795012116432189941
0.856075167655944824 -0.53908073902130127 0.061530236154794693
2.66322898864746094 -1.40628516674041748 0.0800827294588088989
-0.0059617999941110611 0.994118809700012207 0.0854628235101699829
2.66914653778076172 -1.41762351989746094 0.0861455276608467102
