ply
format ascii 1.0
element vertex 7
comment vertices
property float x
property float y
property float z
end_header
0.674230635166168213 1.88473296165466309 0.406889051198959351
0.682790398597717285 1.88383293151855469 0.403568625450134277
0.674496650695800781 1.89734017848968506 0.404904603958129883
0.674862205982208252 1.87238609790802002 0.409932315349578857
0.674236655235290527 1.88210022449493408 0.409719020128250122
0.684960365295410156 1.88806843757629395 0.408882468938827515
0.677383363246917725 1.88512706756591797 0.405740946531295776
