ply
format ascii 1.0
element vertex 32
comment vertices
property float x
property float y
property float z
end_header
0.858407020568847656 -0.530971944332122803 0.0655309855937957764
2.66040802001953125 -1.40902626514434814 0.0729068964719772339
-0.0399915128946304321 1.01249170303344727 0.0614429861307144165
-0.0357635468244552612 -1.98563826084136963 0.129399210214614868
-0.451557755470275879 -0.917494416236877441 0.452787101268768311
1.73963391780853271 -1.05992782115936279 0.100694723427295685
0.583136081695556641 0.836061060428619385 0.401493310928344727
0.90665203332901001 0.24641650915145874 0.377102911472320557
0.429772019386291504 0.770961761474609375 0.412198781967163086
-0.385321140289306641 -0.913181185722351074 0.284630507230758667
1.72994399070739746 -0.952002644538879395 0.143185049295425415
1.76763880252838135 -0.961194396018981934 0.12737901508808136
-0.0049686133861541748 -1.99581766128540039 0.159515202045440674
2.64630746841430664 -1.41146385669708252 0.0968917608261108398
-0.386634945869445801 -0.899957239627838135 0.276046276092529297
-0.0451645851135253906 1.0169755220413208 0.0560496076941490173
0.858561158180236816 -0.544290125370025635 0.0602048560976982117
1.03071439266204834 0.230439186096191406 0.340168893337249756
-0.00740718841552734375 -1.96874368190765381 0.109093807637691498
-0.46123841404914856 -0.96069866418838501 0.366061747074127197
1.70075857639312744 -1.00774765014648438 0.15821346640586853
1.7390066385269165 -1.01377213001251221 0.10833422839641571
0.0335713028907775879 -2.05100178718566895 0.125166445970535278
0.522675812244415283 0.824420034885406494 0.366201102733612061
2.61176848411560059 -1.3830636739730835 0.0749294683337211609
0.981378912925720215 0.246373489499092102 0.375524669885635376
-0.0240938961505889893 0.993821263313293457 0.0987921059131622314
1.74198281764984131 -1.00932872295379639 0.0670722797513008118
-0.382667362689971924 -0.890939474105834961 0.370841473340988159
2.64681172370910645 -1.44806516170501709 0.0762906521558761597
-0.375995159149169922 -0.898578464984893799 0.284678041934967041
-0.409615874290466309 -0.929266810417175293 0.437287986278533936
