ply
format ascii 1.0
element vertex 256
comment vertices
property float x
property float y
property float z
end_header
-1.8879401683807373 -0.667851746082305908 0.393517613410949707
0.633930087089538574 2.03057503700256348 0.375300288200378418
-1.85906791687011719 2.34961843490600586 0.3942737877368927
0.325493752956390381 -0.958202898502349854 0.0612707547843456268
-1.08313643932342529 -1.72298479080200195 0.31775394082069397
0.218770146369934082 0.98898392915725708 0.361340790987014771
-1.24649918079376221 1.59317052364349365 0.0993486642837524414
-0.623453021049499512 -0.766880393028259277 0.302760541439056396
-0.877502202987670898 0.495512187480926514 0.377376168966293335
-2.16382455825805664 0.15962567925453186 0.19618670642375946
0.265629440546035767 0.965163886547088623 0.337569236755371094
-1.87229299545288086 2.33328747749328613 0.368368327617645264
-1.10379695892333984 -1.60458588600158691 0.345141887664794922
-0.869842171669006348 0.474864155054092407 0.356005430221557617
-1.98799240589141846 -0.0503347478806972504 0.206153750419616699
-1.9319310188293457 -0.722523927688598633 0.409870266914367676
-0.664309084415435791 -0.763328790664672852 0.325425654649734497
0.67977452278137207 1.87437260150909424 0.307632356882095337
-1.88403153419494629 -0.661065220832824707 0.385969281196594238
-1.08549833297729492 -1.64047694206237793 0.33605194091796875
0.226733312010765076 0.957163572311401367 0.349947988986968994
0.321339219808578491 -0.953895926475524902 0.066971123218536377
-2.03681588172912598 0.0699538439512252808 0.248765915632247925
-1.8725888729095459 2.34377384185791016 0.367887228727340698
0.221732884645462036 0.975933551788330078 0.352489084005355835
-1.22968387603759766 1.55831050872802734 0.0629684478044509888
0.663766622543334961 1.82531774044036865 0.312133908271789551
-1.1324152946472168 -1.75344192981719971 0.34271007776260376
-1.86282896995544434 -0.64577794075012207 0.404184460639953613
-0.876893877983093262 0.497127890586853027 0.35189393162727356
0.250053226947784424 0.975031852722167969 0.349534332752227783
-1.07851529121398926 -1.69995057582855225 0.314968377351760864
-0.657531976699829102 -0.764666914939880371 0.30209466814994812
-0.883780062198638916 0.480258435010910034 0.35899624228477478
-1.87326765060424805 2.34077835083007812 0.385607987642288208
-1.90085816383361816 -0.663962423801422119 0.382117807865142822
0.671058535575866699 1.9266057014465332 0.310264497995376587
-1.87886214256286621 -0.703142762184143066 0.423784494400024414
-1.87770366668701172 2.34646224975585938 0.349747985601425171
0.296150177717208862 -0.973433971405029297 0.0683818906545639038
-1.07327151298522949 -1.75937736034393311 0.36210218071937561
0.66390228271484375 1.89880108833312988 0.31207844614982605
0.283178091049194336 -0.946787536144256592 0.0837075188755989075
-0.635053038597106934 -0.779061973094940186 0.265498608350753784
-0.876222074031829834 0.474550008773803711 0.359911739826202393
-1.23020637035369873 1.56923425197601318 0.0419336408376693726
0.227893203496932983 0.972161471843719482 0.334510207176208496
-2.08379817008972168 0.10244731605052948 0.203547954559326172
-1.08090877532958984 -1.55581855773925781 0.394891589879989624
-1.84346187114715576 2.359527587890625 0.372702896595001221
-1.92778825759887695 -0.52122962474822998 0.379028022289276123
-1.24145913124084473 1.57270729541778564 0.0631837770342826843
-2.02655458450317383 0.0331953912973403931 0.195925280451774597
-0.86768186092376709 0.480920851230621338 0.363557994365692139
-1.07724034786224365 -1.64963972568511963 0.324978947639465332
-1.87426912784576416 2.33702516555786133 0.382889986038208008
0.683366894721984863 1.78568315505981445 0.316885650157928467
-0.660197973251342773 -0.767805337905883789 0.309536993503570557
-1.08490955829620361 -1.7284085750579834 0.32116621732711792
0.231934398412704468 0.977452099323272705 0.363231658935546875
-0.890443801879882812 0.495739102363586426 0.370263189077377319
-1.88334691524505615 -0.462279647588729858 0.367453306913375854
-1.09794461727142334 -1.69893431663513184 0.315687239170074463
0.225401997566223145 0.977178633213043213 0.368593156337738037
-1.87887907028198242 -0.680465281009674072 0.412603527307510376
0.225528046488761902 0.952508926391601562 0.342962920665740967
0.646356105804443359 1.76733064651489258 0.359144717454910278
0.238857239484786987 0.982046246528625488 0.348236560821533203
-0.648816347122192383 -0.768259286880493164 0.291019082069396973
0.303475737571716309 -0.956921696662902832 0.125331535935401917
-0.617064058780670166 -0.764160513877868652 0.314213395118713379
-0.891198158264160156 0.466625690460205078 0.363362282514572144
0.652062654495239258 1.97308683395385742 0.344475775957107544
-1.86451578140258789 2.34190082550048828 0.396228402853012085
-0.861186623573303223 0.467995405197143555 0.371538758277893066
-1.2494891881942749 1.55617213249206543 0.121418163180351257
-1.07763063907623291 -1.66689598560333252 0.324685633182525635
-0.891124963760375977 0.499724924564361572 0.382938355207443237
0.682126820087432861 1.866874098777771 0.30587652325630188
-1.87006938457489014 2.33945798873901367 0.395572304725646973
0.662283122539520264 1.92388439178466797 0.309870541095733643
-0.874061703681945801 0.469991594552993774 0.372887611389160156
-2.14649319648742676 0.139918148517608643 0.175422653555870056
-1.87076854705810547 -0.677607059478759766 0.397601902484893799
-2.13653755187988281 0.118497997522354126 0.199777483940124512
-1.95163547992706299 -0.0436962693929672241 0.206648364663124084
-1.87163233757019043 2.3413383960723877 0.364978641271591187
-2.02460002899169922 -0.0295348241925239563 0.186585992574691772
-1.88240575790405273 -0.651883780956268311 0.392684996128082275
-1.91344976425170898 -0.682431280612945557 0.376568645238876343
0.218853026628494263 0.975824356079101562 0.34626305103302002
-1.1175696849822998 -1.70541834831237793 0.300242811441421509
-0.660486519336700439 -0.777706801891326904 0.31817471981048584
-1.96550047397613525 -0.680977940559387207 0.404600590467453003
-1.88102316856384277 -0.675281882286071777 0.383301734924316406
0.660459995269775391 1.88557183742523193 0.299554795026779175
-1.87519621849060059 2.35126686096191406 0.381424158811569214
-0.862961471080780029 0.477350741624832153 0.366109728813171387
0.654708266258239746 1.77857065200805664 0.349128365516662598
-1.86395931243896484 -0.689535379409790039 0.413669466972351074
-2.11509799957275391 0.11131817102432251 0.169659271836280823
-0.63457256555557251 -0.770695626735687256 0.287448883056640625
-0.613327205181121826 -0.761400818824768066 0.296528130769729614
-1.98366010189056396 0.117090046405792236 0.211467862129211426
0.238499045372009277 0.988206386566162109 0.341607272624969482
-1.92383337020874023 -0.680383920669555664 0.371114939451217651
-0.647672951221466064 -0.765848994255065918 0.307238459587097168
-1.99545681476593018 0.0691359043121337891 0.235158488154411316
-1.23871564865112305 1.57248139381408691 0.161299049854278564
-0.653955519199371338 -0.742094159126281738 0.311063438653945923
-1.07784605026245117 -1.73539590835571289 0.338692128658294678
-2.0174567699432373 -0.0237110257148742676 0.219536095857620239
-1.87977862358093262 2.33823680877685547 0.384178131818771362
-1.88027119636535645 2.34484624862670898 0.34968113899230957
-0.639084100723266602 -0.766722321510314941 0.333156079053878784
-2.15018773078918457 0.1403217613697052 0.206804245710372925
-0.868641793727874756 0.483702301979064941 0.366684973239898682
0.322283685207366943 -0.95786970853805542 0.0760390833020210266
-1.87199234962463379 2.34138798713684082 0.368907123804092407
0.31498187780380249 -0.962041020393371582 0.0803850889205932617
0.247389763593673706 0.964950442314147949 0.33496519923210144
0.228334754705429077 0.989062130451202393 0.348217874765396118
-1.8597487211227417 2.34172654151916504 0.352946281433105469
-2.0710146427154541 0.121489107608795166 0.184271186590194702
-1.07089626789093018 -1.63134777545928955 0.308198213577270508
-0.874360024929046631 0.491858243942260742 0.37228858470916748
-1.24157857894897461 1.5965651273727417 0.072010330855846405
0.674723982810974121 1.83903396129608154 0.298704683780670166
-1.09652817249298096 -1.62387251853942871 0.35660630464553833
-0.870532810688018799 0.488391786813735962 0.37783348560333252
-1.06948411464691162 -1.63896799087524414 0.319389820098876953
-0.881056666374206543 0.48301050066947937 0.371401369571685791
-1.87566566467285156 2.35715651512145996 0.389827370643615723
-0.646508574485778809 -0.777485251426696777 0.287898421287536621
-0.887272655963897705 0.483911901712417603 0.375133991241455078
-1.97947287559509277 0.0573400706052780151 0.194918319582939148
0.23673015832901001 0.971872687339782715 0.362988084554672241
-1.88400697708129883 2.34841799736022949 0.355643987655639648
-1.09376668930053711 -1.70392167568206787 0.326846987009048462
-1.87516379356384277 2.34248995780944824 0.366264075040817261
-1.88184881210327148 -0.683747172355651855 0.390074282884597778
-1.09166204929351807 -1.74534308910369873 0.324742496013641357
-1.8765181303024292 2.34463810920715332 0.378210723400115967
0.218103677034378052 0.98883289098739624 0.34415137767791748
-1.09150683879852295 -1.62716031074523926 0.326438575983047485
0.227905035018920898 0.981349647045135498 0.348534494638442993
-0.645313143730163574 -0.766816020011901855 0.306931763887405396
-1.89433145523071289 -0.678406357765197754 0.403910785913467407
-1.87525010108947754 2.35623931884765625 0.354754120111465454
0.238881230354309082 0.98430180549621582 0.356445848941802979
-0.650181412696838379 -0.765304267406463623 0.301892727613449097
-1.09442317485809326 -1.70996201038360596 0.320527046918869019
0.661531686782836914 1.93597114086151123 0.334800183773040771
-1.0817878246307373 -1.67613101005554199 0.298926234245300293
-1.0909581184387207 -1.65886890888214111 0.317456662654876709
0.240579158067703247 0.978419482707977295 0.346985369920730591
0.685916781425476074 1.84041929244995117 0.303552150726318359
-1.08547043800354004 -1.73719179630279541 0.321502745151519775
0.228082045912742615 0.990400314331054688 0.348894238471984863
-1.87904942035675049 -0.668239712715148926 0.392987817525863647
0.214758530259132385 0.975162088871002197 0.357968151569366455
-1.96734845638275146 -0.0538263469934463501 0.216782227158546448
-1.84991335868835449 -0.587698817253112793 0.39830249547958374
-1.88531172275543213 -0.689898669719696045 0.394078373908996582
-2.05706667900085449 -0.0118310824036598206 0.205063492059707642
-0.644602119922637939 -0.767644286155700684 0.298789650201797485
-0.870772898197174072 0.469382911920547485 0.353537857532501221
0.246102839708328247 0.970040440559387207 0.353765785694122314
-2.02331256866455078 0.0291341915726661682 0.192207396030426025
-1.08842873573303223 -1.72529029846191406 0.327936887741088867
0.231027364730834961 0.969804286956787109 0.360656082630157471
0.688013076782226562 1.88697540760040283 0.308488935232162476
-0.652533173561096191 -0.766396701335906982 0.310050249099731445
-1.98099672794342041 -0.00955562666058540344 0.202821701765060425
0.312523305416107178 -0.93082892894744873 0.071718260645866394
0.213255792856216431 0.972413599491119385 0.342289835214614868
-1.87133216857910156 2.34332776069641113 0.384034335613250732
0.67413330078125 1.92283344268798828 0.292781978845596313
-1.88616442680358887 -0.650373637676239014 0.39520263671875
0.309361845254898071 -0.952794671058654785 0.0823284685611724854
-1.88643467426300049 2.34483623504638672 0.368325591087341309
-1.87607550621032715 -0.686566293239593506 0.379859060049057007
-1.2514948844909668 1.57343006134033203 0.0811720564961433411
-2.13174843788146973 0.1337299644947052 0.16826474666595459
0.672080516815185547 1.81968951225280762 0.330403506755828857
-1.86779356002807617 2.34582042694091797 0.370674073696136475
0.675734162330627441 1.92474567890167236 0.316199600696563721
-1.93516778945922852 0.128633350133895874 0.195670366287231445
-2.02111721038818359 0.0549268871545791626 0.281277179718017578
-1.09683454036712646 -1.6702960729598999 0.316041409969329834
0.225910946726799011 0.974049925804138184 0.361520677804946899
-1.07611370086669922 -1.69597983360290527 0.320683836936950684
-1.24337506294250488 1.60176348686218262 0.106789238750934601
0.655422806739807129 1.84304165840148926 0.301800966262817383
-1.08352959156036377 -1.69730591773986816 0.344601452350616455
-0.869458019733428955 0.490530610084533691 0.364815354347229004
-1.23750936985015869 1.5717853307723999 0.088945537805557251
-0.868853926658630371 0.485519707202911377 0.360263645648956299
-1.8733527660369873 2.35521769523620605 0.394901573657989502
0.663686633110046387 1.87742757797241211 0.306265294551849365
-1.8789438009262085 -0.671678841114044189 0.399160981178283691
0.224480569362640381 0.979531764984130859 0.359473884105682373
-1.87141895294189453 -0.67519688606262207 0.398510098457336426
0.231950715184211731 0.987683355808258057 0.356224030256271362
0.666306376457214355 1.93100690841674805 0.299599826335906982
-0.662137985229492188 -0.777689337730407715 0.328565299510955811
-2.17492818832397461 0.153092116117477417 0.193947881460189819
0.685345590114593506 1.87741672992706299 0.310966968536376953
-2.10926628112792969 0.156405895948410034 0.210705369710922241
-0.631522715091705322 -0.760286808013916016 0.291294395923614502
0.322006046772003174 -0.969363749027252197 0.0638058632612228394
0.320275366306304932 -0.936219394207000732 0.0772829055786132812
-1.87909066677093506 2.34933686256408691 0.357042312622070312
-1.24343883991241455 1.58097934722900391 0.0615266487002372742
-0.890295982360839844 0.495417296886444092 0.35817950963973999
0.656434237957000732 1.93162178993225098 0.302036702632904053
-2.1363520622253418 0.136164769530296326 0.200366482138633728
-1.96151447296142578 -0.0537160485982894897 0.215753823518753052
-1.86980736255645752 2.34438562393188477 0.372243493795394897
-1.87292373180389404 2.35070443153381348 0.394537240266799927
-1.86425089836120605 2.34715080261230469 0.37205776572227478
-2.12510299682617188 0.0985449850559234619 0.182054877281188965
0.322742879390716553 -0.945865631103515625 0.0656441673636436462
-2.02075672149658203 -0.015572965145111084 0.21915493905544281
-0.874228537082672119 0.489699780941009521 0.371527820825576782
-1.86290895938873291 -0.674214363098144531 0.395755589008331299
-1.09835314750671387 -1.66230082511901855 0.323075532913208008
-0.871366739273071289 0.478065729141235352 0.365878880023956299
-1.23600542545318604 1.56486248970031738 0.063265576958656311
0.322316288948059082 -0.951634645462036133 0.0542791858315467834
-1.91298604011535645 -0.669261932373046875 0.384696483612060547
-1.08939313888549805 -1.71535277366638184 0.306799530982971191
0.236885488033294678 0.9821586012840271 0.350607603788375854
-1.09007632732391357 -1.74292123317718506 0.350826948881149292
-1.91371750831604004 -0.653519153594970703 0.373505979776382446
-0.660227537155151367 -0.75607597827911377 0.322174668312072754
0.228258222341537476 0.973525047302246094 0.349177777767181396
-1.97888195514678955 -0.0345448404550552368 0.232501327991485596
0.238313779234886169 0.974359869956970215 0.346697449684143066
-1.1026684045791626 -1.72388172149658203 0.323840290307998657
-2.0648496150970459 -0.0456902980804443359 0.257215917110443115
0.238500520586967468 0.967374742031097412 0.341331422328948975
-2.0608210563659668 0.115204304456710815 0.173262044787406921
-0.627171337604522705 -0.754410266876220703 0.3053264319896698
-0.876792669296264648 0.479483187198638916 0.364984124898910522
-0.638532161712646484 -0.768466651439666748 0.269724637269973755
0.228316396474838257 0.982776403427124023 0.347114980220794678
-1.90642654895782471 -0.672513306140899658 0.375157147645950317
-1.87644112110137939 2.33344149589538574 0.391237556934356689
-1.88034772872924805 -0.665054082870483398 0.384352266788482666
-0.880201399326324463 0.468723595142364502 0.363883852958679199
-1.99781215190887451 0.117382258176803589 0.199869394302368164
-0.874189853668212891 0.488094091415405273 0.364739209413528442
0.251220703125 0.958817183971405029 0.352448552846908569
0.224423065781593323 0.975193977355957031 0.353535592555999756
-0.649021804332733154 -0.766934216022491455 0.290590167045593262
