ply
format ascii 1.0
element vertex 256
comment vertices
property float x
property float y
property float z
end_header
0.896193087100982666 0.408697426319122314 0.335973620414733887
-2.86876463890075684 0.846072554588317871 0.346873492002487183
-1.40942668914794922 2.6403648853302002 0.429181993007659912
-0.947697699069976807 -0.406329244375228882 0.248336777091026306
0.0722493603825569153 1.98314929008483887 0.184386029839515686
-1.63677740097045898 1.14765763282775879 0.0435149818658828735
1.90053844451904297 0.632017135620117188 0.394964039325714111
0.252103447914123535 0.969469308853149414 0.174749299883842468
-1.40717768669128418 2.6521763801574707 0.392824023962020874
-0.788164973258972168 0.603524506092071533 0.0515061840415000916
-2.87336349487304688 0.826587438583374023 0.347600936889648438
1.91093873977661133 0.634824693202972412 0.395065426826477051
-1.15613126754760742 1.63809370994567871 0.171759873628616333
0.250882625579833984 0.964406788349151611 0.176200434565544128
-1.15574741363525391 1.6355433464050293 0.170645996928215027
-1.61609697341918945 1.16477274894714355 0.0450659915804862976
-0.957164168357849121 -0.166470706462860107 0.268927395343780518
0.0679311156272888184 1.97778332233428955 0.177059352397918701
-2.87194347381591797 0.840548515319824219 0.350416362285614014
0.897602438926696777 0.414256095886230469 0.338645339012145996
1.90337085723876953 0.634640157222747803 0.401476502418518066
0.909408032894134521 0.403782844543457031 0.335692644119262695
-0.796575665473937988 0.605756998062133789 0.0547970645129680634
-0.80544281005859375 0.601708054542541504 0.0539527349174022675
0.900274157524108887 0.414339363574981689 0.340836465358734131
-1.15840029716491699 1.62875843048095703 0.174527987837791443
-2.86375689506530762 0.833659052848815918 0.347620308399200439
-0.949859321117401123 -0.484177708625793457 0.25039207935333252
-1.4208989143371582 2.64585590362548828 0.397736251354217529
0.90611952543258667 0.403287053108215332 0.329946190118789673
0.0652718245983123779 1.98594939708709717 0.171930119395256042
0.0709919854998588562 1.97383201122283936 0.182275846600532532
0.252415716648101807 0.967000842094421387 0.17468126118183136
-2.86526226997375488 0.841987431049346924 0.348048388957977295
1.90152549743652344 0.632303833961486816 0.394398212432861328
-1.62384283542633057 1.16062843799591064 0.0375972948968410492
-1.60843062400817871 1.17097222805023193 0.047732912003993988
-0.776851892471313477 0.604284346103668213 0.0535118728876113892
0.895212769508361816 0.414561867713928223 0.332994312047958374
1.90244829654693604 0.633176028728485107 0.395298898220062256
-2.86095952987670898 0.843158245086669922 0.335126191377639771
1.90299093723297119 0.63307267427444458 0.396332502365112305
-1.15024924278259277 1.63589704036712646 0.172467425465583801
-0.96747279167175293 -0.173739731311798096 0.277133703231811523
-2.87057876586914062 0.841755986213684082 0.350819319486618042
-1.15323340892791748 1.63530385494232178 0.174697160720825195
1.90603256225585938 0.633288085460662842 0.391327887773513794
0.257046282291412354 0.972683310508728027 0.175923019647598267
-0.955346286296844482 -0.425713896751403809 0.242584690451622009
-2.87338900566101074 0.830680251121520996 0.352986454963684082
-0.975155949592590332 -0.160602673888206482 0.256303548812866211
0.907897770404815674 0.406198978424072266 0.339597791433334351
0.0740555226802825928 1.97859489917755127 0.186864018440246582
-1.62586307525634766 1.16064739227294922 0.0412222258746623993
0.898761272430419922 0.40576016902923584 0.336241632699966431
-0.789959430694580078 0.604885339736938477 0.0565084517002105713
0.0650845319032669067 1.99229526519775391 0.173100635409355164
0.0698357522487640381 1.98528468608856201 0.18069833517074585
-0.94884723424911499 -0.417264163494110107 0.267411142587661743
0.0712623223662376404 1.97545289993286133 0.183374777436256409
-2.86770963668823242 0.835459232330322266 0.344368726015090942
0.899266898632049561 0.418135762214660645 0.339349925518035889
-2.8629004955291748 0.839703857898712158 0.345938444137573242
0.90991055965423584 0.40423882007598877 0.334136992692947388
-0.955427706241607666 -0.423023968935012817 0.238909348845481873
1.90177571773529053 0.633313119411468506 0.397661894559860229
-1.15809023380279541 1.63543236255645752 0.170515969395637512
-1.15244638919830322 1.63342607021331787 0.176327764987945557
-1.62030816078186035 1.16828584671020508 0.0567932873964309692
-0.975832879543304443 -0.158939093351364136 0.258169472217559814
0.899566352367401123 0.406670898199081421 0.326929986476898193
-1.4236454963684082 2.64532041549682617 0.400611251592636108
0.248922362923622131 0.973295986652374268 0.175910606980323792
0.0688793957233428955 1.98178255558013916 0.179321900010108948
0.899966239929199219 0.405877023935317993 0.33536839485168457
0.255072057247161865 0.97009587287902832 0.176539957523345947
-1.159018874168396 1.62726831436157227 0.192238017916679382
1.90200984477996826 0.632373631000518799 0.396164178848266602
-1.41904056072235107 2.63810038566589355 0.424475252628326416
0.0705405622720718384 1.97929942607879639 0.175570249557495117
0.894894242286682129 0.413764715194702148 0.336465716361999512
-2.87210774421691895 0.842407822608947754 0.34688258171081543
0.904927313327789307 0.402222186326980591 0.334437370300292969
-1.15480077266693115 1.63522899150848389 0.178126707673072815
-2.85863518714904785 0.844482779502868652 0.346278011798858643
1.90493583679199219 0.63497161865234375 0.404012739658355713
0.249755293130874634 0.965089321136474609 0.178363919258117676
-0.788865447044372559 0.606659352779388428 0.0585208572447299957
1.90561032295227051 0.633395373821258545 0.396170854568481445
-1.15562331676483154 1.63278806209564209 0.17098727822303772
0.0716712400317192078 1.98275148868560791 0.183876097202301025
1.90605843067169189 0.634107530117034912 0.396546393632888794
0.0661394000053405762 1.9733656644821167 0.170500278472900391
1.89936304092407227 0.63301163911819458 0.404812663793563843
-1.15537142753601074 1.63265562057495117 0.17125353217124939
0.0686110109090805054 1.9915158748626709 0.17686094343662262
0.253946393728256226 0.969151675701141357 0.175944417715072632
-1.15648901462554932 1.63275623321533203 0.171442702412605286
-1.16011619567871094 1.63110649585723877 0.176418274641036987
-0.953331530094146729 -0.480701744556427002 0.253844231367111206
0.924953460693359375 0.411148011684417725 0.308644473552703857
-0.956693649291992188 -0.471117794513702393 0.243901878595352173
-1.61619889736175537 1.13816189765930176 0.027258012443780899
0.900199830532073975 0.405275464057922363 0.334257394075393677
1.90015542507171631 0.631830811500549316 0.395177543163299561
-0.95276254415512085 -0.479589939117431641 0.255308836698532104
0.895555615425109863 0.413889825344085693 0.330897927284240723
0.0733560770750045776 1.9753793478012085 0.186261937022209167
-1.41477108001708984 2.64605545997619629 0.419547021389007568
-1.62049281597137451 1.1606982946395874 0.0433656424283981323
-0.970094740390777588 -0.256585896015167236 0.233067512512207031
-1.15441811084747314 1.63540971279144287 0.171782702207565308
0.89591294527053833 0.408190757036209106 0.334611415863037109
-0.93131178617477417 -0.119847893714904785 0.285371929407119751
1.9072955846786499 0.633937239646911621 0.39467284083366394
-0.960005402565002441 -0.186315372586250305 0.2789020836353302
0.897479116916656494 0.407036244869232178 0.331500023603439331
-1.15706837177276611 1.63279485702514648 0.169869184494018555
0.905307292938232422 0.40268939733505249 0.335330426692962646
0.0663075447082519531 1.9826960563659668 0.172076195478439331
-1.63431239128112793 1.15261077880859375 0.0404717251658439636
0.0660445317625999451 1.98727178573608398 0.174494266510009766
-2.8637392520904541 0.840079367160797119 0.345159709453582764
-1.15643918514251709 1.63615500926971436 0.170343711972236633
-0.944412112236022949 -0.423119187355041504 0.274654388427734375
0.250269442796707153 0.970702230930328369 0.176878869533538818
-2.86965823173522949 0.830662548542022705 0.345388591289520264
0.901694536209106445 0.376438319683074951 0.339467793703079224
0.256841272115707397 0.976662635803222656 0.177543506026268005
0.908896744251251221 0.406074076890945435 0.335322141647338867
0.0677936673164367676 1.98450839519500732 0.176008462905883789
-2.86648416519165039 0.843818068504333496 0.349826276302337646
-2.86352038383483887 0.840259134769439697 0.34609454870223999
1.90273153781890869 0.633854389190673828 0.398564636707305908
-1.418060302734375 2.64824748039245605 0.391969144344329834
-2.8722224235534668 0.840650260448455811 0.351012289524078369
0.0702463090419769287 1.98170948028564453 0.182108506560325623
1.90004825592041016 0.632186949253082275 0.396118283271789551
-1.16093325614929199 1.62989068031311035 0.181358680129051208
-2.86306214332580566 0.842792749404907227 0.349581241607666016
-1.63377797603607178 1.14265477657318115 0.0330346152186393738
0.895937085151672363 0.408959388732910156 0.335400521755218506
1.90137124061584473 0.632500588893890381 0.394891411066055298
-0.942336916923522949 -0.178183406591415405 0.282328367233276367
0.899492204189300537 0.40449175238609314 0.331915676593780518
-0.957906723022460938 -0.473321497440338135 0.249972984194755554
0.25154075026512146 0.972490370273590088 0.175301283597946167
0.907612979412078857 0.407345712184906006 0.336955010890960693
0.251058876514434814 0.960805892944335938 0.175249636173248291
0.895250797271728516 0.418881207704544067 0.337667465209960938
-0.790950298309326172 0.605144381523132324 0.0575362034142017365
0.0635219886898994446 1.9939262866973877 0.173018604516983032
0.252269625663757324 0.966782867908477783 0.172431111335754395
-2.86824584007263184 0.832953214645385742 0.344654679298400879
-0.796264410018920898 0.60500800609588623 0.0561110787093639374
-2.86436772346496582 0.84165191650390625 0.348992317914962769
0.899217128753662109 0.405069887638092041 0.329067409038543701
-0.797148585319519043 0.604056656360626221 0.0559755191206932068
-1.6239851713180542 1.16008532047271729 0.0428563728928565979
-1.40977632999420166 2.64953994750976562 0.411595314741134644
-1.41114342212677002 2.6450200080871582 0.41318175196647644
1.90727853775024414 0.634481191635131836 0.397587627172470093
0.0694146081805229187 1.98262858390808105 0.18129342794418335
0.0639923587441444397 1.97949588298797607 0.166649490594863892
0.0741924643516540527 1.97958493232727051 0.1862526535987854
-0.981960535049438477 -0.1668272465467453 0.257115215063095093
-0.958727359771728516 -0.161755979061126709 0.263961255550384521
-2.85843968391418457 0.846122980117797852 0.343416512012481689
-0.957029104232788086 -0.0944004803895950317 0.247798830270767212
-1.15537500381469727 1.63558387756347656 0.169245019555091858
1.91069364547729492 0.634634971618652344 0.391947239637374878
-1.15828657150268555 1.63889718055725098 0.171252429485321045
-2.86825370788574219 0.836414575576782227 0.34756895899772644
0.251062482595443726 0.971264362335205078 0.175701111555099487
0.0695905834436416626 1.98349165916442871 0.181195124983787537
-1.40942370891571045 2.64218449592590332 0.427966594696044922
-1.15314030647277832 1.63414871692657471 0.169409573078155518
-0.955915570259094238 -0.421734333038330078 0.247992545366287231
0.901905596256256104 0.404409646987915039 0.331710398197174072
-1.15152585506439209 1.63243293762207031 0.174041673541069031
1.90798282623291016 0.632635354995727539 0.390937238931655884
1.90339314937591553 0.633639693260192871 0.397524654865264893
-1.61686229705810547 1.17110562324523926 0.0442850403487682343
-1.15946507453918457 1.6284337043762207 0.175979956984519958
-1.15552985668182373 1.63289952278137207 0.171325117349624634
0.251883447170257568 0.970489501953125 0.174823254346847534
-1.61979389190673828 1.16415917873382568 0.0432263724505901337
-0.957920432090759277 -0.472890198230743408 0.258851379156112671
1.90508782863616943 0.634162604808807373 0.398066908121109009
1.89830148220062256 0.632862627506256104 0.402362227439880371
-1.42273855209350586 2.63887214660644531 0.408615410327911377
-1.61996102333068848 1.15993332862854004 0.0450619533658027649
-1.1619112491607666 1.63798463344573975 0.176777586340904236
0.0680396407842636108 1.99060714244842529 0.176716715097427368
0.899057567119598389 0.407515347003936768 0.327567368745803833
1.9075087308883667 0.633834421634674072 0.39270821213722229
-2.87187838554382324 0.840514183044433594 0.350462824106216431
0.0661095529794692993 1.98824691772460938 0.175095170736312866
0.0710325837135314941 1.98304784297943115 0.182468071579933167
0.9034385085105896 0.403801172971725464 0.335307657718658447
-1.15834486484527588 1.6299591064453125 0.172542184591293335
0.897117137908935547 0.410525977611541748 0.330068200826644897
-1.41850972175598145 2.64542579650878906 0.409265369176864624
0.0709071308374404907 1.98362839221954346 0.182307824492454529
0.897530257701873779 0.407761603593826294 0.328437983989715576
-2.86277675628662109 0.840989470481872559 0.345515429973602295
-0.94900435209274292 -0.414852917194366455 0.263939738273620605
-2.86798954010009766 0.838820993900299072 0.346994787454605103
-1.2130434513092041 1.37168967723846436 0.195372581481933594
0.252046793699264526 0.970012307167053223 0.174612775444984436
0.0653742104768753052 1.97748076915740967 0.16893865168094635
0.8980521559715271 0.406347453594207764 0.332674026489257812
0.902779579162597656 0.404968470335006714 0.335415065288543701
-0.794005274772644043 0.607059121131896973 0.0565586350858211517
0.0714716389775276184 1.98845541477203369 0.181485876441001892
0.89991295337677002 0.405583083629608154 0.335431426763534546
-1.15771603584289551 1.63180100917816162 0.169952273368835449
-1.14864981174468994 1.63470327854156494 0.171624109148979187
0.89463883638381958 0.418394923210144043 0.335838913917541504
0.0690663903951644897 1.98367989063262939 0.176422938704490662
0.0686471909284591675 1.98004364967346191 0.178391158580780029
-1.62660372257232666 1.16097414493560791 0.0424197651445865631
0.0661603063344955444 1.97909188270568848 0.172029018402099609
-2.86447286605834961 0.841790854930877686 0.346098244190216064
1.9069061279296875 0.633810698986053467 0.394378960132598877
0.898420751094818115 0.405050039291381836 0.33042442798614502
-1.41756129264831543 2.6455845832824707 0.40959814190864563
0.06798582524061203 1.98445415496826172 0.176898077130317688
0.0721154212951660156 1.97150874137878418 0.182375073432922363
1.90465259552001953 0.63418281078338623 0.397947102785110474
0.904209733009338379 0.404634028673171997 0.325106918811798096
-2.87030410766601562 0.844846248626708984 0.345093727111816406
-0.788398385047912598 0.60742485523223877 0.0578578934073448181
-0.979140281677246094 -0.171882197260856628 0.261847853660583496
0.897993147373199463 0.409203499555587769 0.331061631441116333
0.251319408416748047 0.972800970077514648 0.175085976719856262
1.905464768409729 0.633340418338775635 0.394458204507827759
1.89959001541137695 0.632020652294158936 0.396132498979568481
1.90600037574768066 0.633468449115753174 0.392772972583770752
0.900465726852416992 0.406312704086303711 0.337905019521713257
1.91298127174377441 0.635533809661865234 0.392456680536270142
-0.943439066410064697 -0.324411123991012573 0.244121238589286804
-2.85712790489196777 0.845028519630432129 0.346461594104766846
0.900874912738800049 0.405578941106796265 0.328776448965072632
1.90354073047637939 0.633470594882965088 0.398377686738967896
-2.87130546569824219 0.841904342174530029 0.350580930709838867
1.90473389625549316 0.634156525135040283 0.397632449865341187
0.899359643459320068 0.405782401561737061 0.33665814995765686
-2.86729335784912109 0.840889990329742432 0.349568843841552734
0.251238256692886353 0.969537854194641113 0.17602202296257019
0.0712317079305648804 1.98520314693450928 0.182139649987220764
-1.15647101402282715 1.63344681262969971 0.168085828423500061
0.251424074172973633 0.968550443649291992 0.174205735325813293
0.0678056776523590088 1.98448371887207031 0.177042707800865173
0.0690703988075256348 1.98799800872802734 0.179203823208808899
-2.8648369312286377 0.83792722225189209 0.344687283039093018
