ply
format ascii 1.0
element vertex 256
comment vertices
property float x
property float y
property float z
end_header
-0.31622922420501709 1.94595849514007568 0.395706325769424438
0.765193581581115723 -1.89905261993408203 0.333711594343185425
-1.70084500312805176 -1.00169932842254639 0.0391624495387077332
-1.55089974403381348 1.26046371459960938 0.273790568113327026
-0.629600048065185547 -1.87751173973083496 0.392735838890075684
0.297499120235443115 -1.00140929222106934 0.342443853616714478
1.52062118053436279 -1.30570316314697266 0.446361124515533447
-0.283177196979522705 0.975434660911560059 0.075190030038356781
0.257338643074035645 1.94788789749145508 0.317359566688537598
-0.838543713092803955 -0.519439935684204102 0.0597679205238819122
-1.53725850582122803 1.29348611831665039 0.287073343992233276
0.799013674259185791 -1.8096461296081543 0.317327499389648438
1.54303944110870361 -1.29214036464691162 0.426528811454772949
-0.581395983695983887 -1.94548177719116211 0.380028843879699707
-0.282306790351867676 1.99932372570037842 0.433858305215835571
0.294718027114868164 2.01849770545959473 0.388338983058929443
-1.74656045436859131 -0.997633397579193115 0.0468725450336933136
1.46400773525238037 -1.24461257457733154 0.488922864198684692
1.47714364528656006 -1.28186929225921631 0.444486021995544434
-0.0978061109781265259 1.94256067276000977 0.289962202310562134
0.78544151782989502 -1.83640265464782715 0.325618863105773926
-1.54866445064544678 1.2894672155380249 0.268687307834625244
-0.600960850715637207 -1.89889693260192871 0.425500303506851196
-1.55831027030944824 1.26919388771057129 0.286769568920135498
0.328669190406799316 1.94430994987487793 0.384762316942214966
0.263557374477386475 -0.960261106491088867 0.334688186645507812
0.312233597040176392 -0.92018204927444458 0.336651265621185303
-0.267598479986190796 0.957695364952087402 0.0729405879974365234
-0.838316082954406738 -0.527521073818206787 0.0609798207879066467
1.49880409240722656 -1.32674551010131836 0.464380264282226562
-0.84397423267364502 -0.521003484725952148 0.0623857155442237854
-0.620154380798339844 -1.90526223182678223 0.360081672668457031
-1.72903752326965332 -0.994013428688049316 0.0408369265496730804
-0.309731215238571167 1.97288239002227783 0.454466849565505981
-0.633683443069458008 -1.92405557632446289 0.389247924089431763
0.775846898555755615 -1.84501993656158447 0.326330393552780151
1.5145108699798584 -1.31903219223022461 0.474349737167358398
1.46816301345825195 -1.28680956363677979 0.48941570520401001
-0.308181524276733398 1.94387233257293701 0.408205032348632812
-1.54795622825622559 1.27509593963623047 0.30039939284324646
1.49041688442230225 -1.29189705848693848 0.48600354790687561
-0.276974469423294067 0.959548354148864746 0.0695953667163848877
-0.0218706876039505005 1.99672746658325195 0.326704740524291992
0.77518540620803833 -1.90275752544403076 0.343567848205566406
-0.283947944641113281 2.02502751350402832 0.423451811075210571
0.284734487533569336 -0.960092067718505859 0.397047340869903564
0.335192561149597168 1.95666098594665527 0.333533138036727905
0.310043126344680786 -0.987005114555358887 0.348440945148468018
-0.609563887119293213 -1.91784751415252686 0.389738738536834717
-0.846925258636474609 -0.51062387228012085 0.0746143162250518799
-0.609643638134002686 -1.9072185754776001 0.38939058780670166
-0.290733158588409424 0.961423575878143311 0.0703225657343864441
0.313575983047485352 1.98186051845550537 0.401116609573364258
0.301657289266586304 1.96043145656585693 0.371091783046722412
0.282714366912841797 -0.996227025985717773 0.34584575891494751
0.800266087055206299 -1.85265207290649414 0.321585357189178467
-0.306498974561691284 1.9380723237991333 0.414921283721923828
1.49516105651855469 -1.32342708110809326 0.512433052062988281
-1.73823463916778564 -1.00797891616821289 0.0461437106132507324
0.280250340700149536 -1.00637459754943848 0.357909321784973145
-1.54580926895141602 1.28645563125610352 0.288508504629135132
-1.72605597972869873 -0.998359203338623047 0.048829294741153717
0.78886646032333374 -1.75993144512176514 0.344411194324493408
-1.54119634628295898 1.27095472812652588 0.290651947259902954
-0.628117263317108154 -1.89701235294342041 0.378478646278381348
0.320869803428649902 -1.01839542388916016 0.341625720262527466
0.285262197256088257 1.94276857376098633 0.31147494912147522
-1.54828953742980957 1.22556805610656738 0.26682436466217041
-1.53929448127746582 1.29070436954498291 0.288120836019515991
0.805276572704315186 -1.83142769336700439 0.31549873948097229
-0.620073318481445312 -1.89034140110015869 0.362992227077484131
-0.644508540630340576 -1.88755154609680176 0.39656338095664978
0.746551036834716797 -1.77105605602264404 0.284754902124404907
-1.54284191131591797 1.26607728004455566 0.275436908006668091
0.328802376985549927 1.95032739639282227 0.417116403579711914
-0.848431646823883057 -0.523842990398406982 0.0671767145395278931
0.266908109188079834 -0.973636627197265625 0.346751570701599121
-1.55629312992095947 1.28173363208770752 0.263172835111618042
0.325939655303955078 -0.937517642974853516 0.347400188446044922
0.293399393558502197 -0.950190186500549316 0.381097286939620972
1.50168776512145996 -1.2894432544708252 0.454665005207061768
1.47919237613677979 -1.27172350883483887 0.44746282696723938
-0.279243141412734985 0.962063968181610107 0.0723394900560379028
0.296536475419998169 1.96365904808044434 0.373484432697296143
-0.311597228050231934 1.96442437171936035 0.422954559326171875
0.798981308937072754 -1.87442755699157715 0.320249766111373901
0.786738574504852295 -1.80021429061889648 0.306708216667175293
1.50191497802734375 -1.29301905632019043 0.467190831899642944
-0.837449014186859131 -0.525315999984741211 0.0594760626554489136
1.51143908500671387 -1.29188191890716553 0.479005753993988037
1.49186217784881592 -1.34420037269592285 0.442768633365631104
-0.316562086343765259 1.98987579345703125 0.436124324798583984
1.47450411319732666 -1.31991481781005859 0.437557250261306763
-0.604382216930389404 -1.90253818035125732 0.409366399049758911
0.800981640815734863 -1.85302829742431641 0.321444422006607056
-0.276931792497634888 0.964188814163208008 0.0682208165526390076
0.298934400081634521 -0.962033331394195557 0.395471364259719849
-0.628995060920715332 -1.90752291679382324 0.379565626382827759
-0.305421590805053711 1.97638237476348877 0.470089256763458252
1.49463832378387451 -1.24666070938110352 0.49494469165802002
0.321439504623413086 2.00933361053466797 0.348810970783233643
-1.53128015995025635 1.27478504180908203 0.285103976726531982
-0.315685093402862549 1.99209022521972656 0.400815755128860474
-1.54330849647521973 1.27647173404693604 0.266403883695602417
1.49837493896484375 -1.27976012229919434 0.499839544296264648
0.285726964473724365 1.95139586925506592 0.295342952013015747
1.46493101119995117 -1.2659151554107666 0.442099213600158691
0.792515277862548828 -1.78846216201782227 0.316236257553100586
-0.304478198289871216 1.98569989204406738 0.405281573534011841
0.324795931577682495 -1.00480949878692627 0.340005934238433838
0.300291895866394043 1.96644794940948486 0.371607720851898193
1.56236732006072998 -1.30313646793365479 0.441713064908981323
-0.635935187339782715 -1.89891266822814941 0.385152369737625122
1.51134419441223145 -1.32089066505432129 0.470811426639556885
0.807039916515350342 -1.85337185859680176 0.292596191167831421
0.256550371646881104 1.97809743881225586 0.300728380680084229
0.328785717487335205 1.94346320629119873 0.368972897529602051
0.319323539733886719 1.95361554622650146 0.389995336532592773
0.794845163822174072 -1.90488708019256592 0.305724382400512695
0.280480265617370605 1.96968638896942139 0.363365411758422852
-1.53613424301147461 1.25889182090759277 0.270961999893188477
0.298564791679382324 1.99772107601165771 0.391332924365997314
1.49150931835174561 -1.29742336273193359 0.46860167384147644
-0.60508805513381958 -1.9200439453125 0.354064464569091797
0.283323764801025391 -0.918416738510131836 0.372263193130493164
0.286360085010528564 -0.999515533447265625 0.393573552370071411
0.289341568946838379 -0.993795275688171387 0.354080379009246826
-0.611851334571838379 -1.94558548927307129 0.361515402793884277
0.297966986894607544 1.94737732410430908 0.380110025405883789
-1.54607188701629639 1.23484694957733154 0.279001086950302124
0.261360824108123779 -0.96329796314239502 0.350397646427154541
0.790832400321960449 -1.84115457534790039 0.288125872611999512
1.49865102767944336 -1.24986028671264648 0.506048440933227539
-1.53733611106872559 1.24377977848052979 0.290731728076934814
-0.84171593189239502 -0.513017356395721436 0.0612441003322601318
-0.304230272769927979 1.97125697135925293 0.416992247104644775
-0.283303439617156982 1.94760560989379883 0.371455550193786621
-0.599139392375946045 -1.90356302261352539 0.39594036340713501
-0.604466795921325684 -1.90048873424530029 0.425018399953842163
-0.606778144836425781 -1.91385984420776367 0.381433397531509399
0.793247044086456299 -1.84699559211730957 0.306761294603347778
-0.841791749000549316 -0.523710846900939941 0.0638231784105300903
1.49070775508880615 -1.29857289791107178 0.46360701322555542
-0.296711742877960205 2.01335477828979492 0.437402963638305664
0.775081336498260498 -1.7938309907913208 0.299001783132553101
1.51060628890991211 -1.30221164226531982 0.46991845965385437
-1.72358179092407227 -0.997562944889068604 0.0458678752183914185
1.48892545700073242 -1.26938760280609131 0.469659209251403809
-1.74711954593658447 -1.00339484214782715 0.04642452672123909
0.285309284925460815 -0.991476237773895264 0.335274338722229004
0.318215131759643555 -1.01401615142822266 0.348185837268829346
1.49581277370452881 -1.32523560523986816 0.467085361480712891
-1.72986972332000732 -0.992301225662231445 0.0407357178628444672
-0.627558887004852295 -1.89646410942077637 0.391974061727523804
0.778275847434997559 -1.84785771369934082 0.321305930614471436
-1.56574952602386475 1.26053965091705322 0.258343964815139771
-1.73199450969696045 -1.00277566909790039 0.0433893799781799316
-0.281175225973129272 0.979114174842834473 0.077568352222442627
1.50535345077514648 -1.29633593559265137 0.486814171075820923
-1.549721360206604 1.28361868858337402 0.276190817356109619
-0.634279191493988037 -1.91278457641601562 0.376327574253082275
-0.313362210988998413 1.97692191600799561 0.438933849334716797
-0.317855179309844971 1.97883892059326172 0.39198729395866394
-1.54562366008758545 1.28754293918609619 0.269548386335372925
-1.57418215274810791 1.25813782215118408 0.263902664184570312
0.274372488260269165 1.97540616989135742 0.309050887823104858
-1.71238231658935547 -0.987552464008331299 0.0458975434303283691
-0.649589121341705322 -1.884194016456604 0.421479463577270508
1.50971364974975586 -1.31208705902099609 0.450807392597198486
-0.628206133842468262 -1.90221130847930908 0.390218764543533325
-1.54520189762115479 1.30059218406677246 0.277531862258911133
1.47115552425384521 -1.26618385314941406 0.469785571098327637
1.51495015621185303 -1.2985309362411499 0.429300457239151001
-0.280010998249053955 1.99620592594146729 0.43087315559387207
0.803558349609375 -1.8348236083984375 0.334366530179977417
0.312555968761444092 -0.947077810764312744 0.366564273834228516
-0.285643815994262695 0.966039896011352539 0.0714116096496582031
-0.845859169960021973 -0.521826088428497314 0.0605535544455051422
-0.309225916862487793 1.93901515007019043 0.392890483140945435
-1.54595565795898438 1.28110396862030029 0.263665914535522461
-0.254126161336898804 1.94839787483215332 0.455678671598434448
-0.278231143951416016 0.959539353847503662 0.0706810653209686279
0.808226168155670166 -1.82399535179138184 0.302731096744537354
-1.55548393726348877 1.23996317386627197 0.260352283716201782
0.303992569446563721 1.96449947357177734 0.373891353607177734
1.4996645450592041 -1.28079879283905029 0.441992521286010742
0.257003813982009888 -0.956308901309967041 0.409080624580383301
1.49986898899078369 -1.27656006813049316 0.485972285270690918
0.301232784986495972 -0.972372770309448242 0.378400743007659912
-0.617990374565124512 -1.91207194328308105 0.43117070198059082
1.46488273143768311 -1.25087904930114746 0.487677901983261108
0.806299030780792236 -1.82661044597625732 0.297592043876647949
-0.263635069131851196 0.956655263900756836 0.0641247034072875977
0.301635503768920898 -0.954028725624084473 0.366488814353942871
-0.846650242805480957 -0.523159921169281006 0.0645449459552764893
-0.262814819812774658 1.95679044723510742 0.425646811723709106
0.800850510597229004 -1.83242523670196533 0.323702454566955566
-0.304995745420455933 1.98692965507507324 0.457918405532836914
1.49458193778991699 -1.32318675518035889 0.448990225791931152
-0.840253591537475586 -0.517840743064880371 0.0620454326272010803
0.775857031345367432 -1.80255126953125 0.333682894706726074
0.299782723188400269 1.96395742893218994 0.410171657800674438
-0.276740670204162598 0.965902745723724365 0.0718352794647216797
0.301459461450576782 1.96610498428344727 0.404098212718963623
0.28087306022644043 1.93121862411499023 0.26602405309677124
-1.54452812671661377 1.28100907802581787 0.284886360168457031
0.288371682167053223 -0.976524055004119873 0.395199954509735107
0.308411300182342529 -0.996390700340270996 0.345787614583969116
-1.54269957542419434 1.26469051837921143 0.29214051365852356
1.52604913711547852 -1.31908023357391357 0.470994949340820312
0.300291180610656738 1.99611508846282959 0.380465537309646606
-0.308970212936401367 1.96946585178375244 0.39175713062286377
-0.276474088430404663 0.961956381797790527 0.0703301727771759033
1.50353336334228516 -1.29621171951293945 0.448088318109512329
-0.327010393142700195 2.01100873947143555 0.431793153285980225
1.46737360954284668 -1.26495981216430664 0.425273627042770386
-0.284164875745773315 0.961147785186767578 0.0640288442373275757
0.79438471794128418 -1.88513684272766113 0.324794083833694458
-0.632731318473815918 -1.888968825340271 0.379925638437271118
-1.55531418323516846 1.27997541427612305 0.271056115627288818
-1.56709444522857666 1.27925324440002441 0.257996201515197754
1.4808279275894165 -1.34341108798980713 0.417763710021972656
1.52672028541564941 -1.31361269950866699 0.496911168098449707
1.50245356559753418 -1.27886104583740234 0.477977156639099121
0.7967643141746521 -1.84451937675476074 0.317941606044769287
-1.55756723880767822 1.28845477104187012 0.304290771484375
0.266292154788970947 -0.935579895973205566 0.351060777902603149
-1.54488134384155273 1.26967167854309082 0.257660150527954102
0.306165516376495361 -0.993737161159515381 0.381216466426849365
0.291240155696868896 -0.978912949562072754 0.33977845311164856
-0.314849406480789185 1.95275211334228516 0.405875205993652344
-1.55248153209686279 1.26368653774261475 0.275883287191390991
0.305866986513137817 1.95660877227783203 0.37644156813621521
0.786250114440917969 -1.88366842269897461 0.316363215446472168
1.49360811710357666 -1.27195298671722412 0.491396307945251465
0.308096140623092651 -0.97359466552734375 0.410891950130462646
1.46466004848480225 -1.23934054374694824 0.486913293600082397
-0.623066842555999756 -1.89737415313720703 0.415600061416625977
-1.54569494724273682 1.2688441276550293 0.271946728229522705
0.286851704120635986 -0.947189807891845703 0.382943838834762573
-0.615559637546539307 -1.92180955410003662 0.386915355920791626
-1.71416151523590088 -0.999312758445739746 0.0368320122361183167
-0.639402151107788086 -1.87865042686462402 0.385099232196807861
0.304651916027069092 2.01405477523803711 0.390005707740783691
-0.332436144351959229 1.99231922626495361 0.411500334739685059
-0.832394957542419434 -0.520626485347747803 0.0608623065054416656
0.267840325832366943 -0.988384246826171875 0.345084249973297119
-0.315426796674728394 1.97234857082366943 0.439298003911972046
-0.62575840950012207 -1.90893375873565674 0.369379788637161255
-1.53082609176635742 1.26491951942443848 0.275393635034561157
1.50787234306335449 -1.32474029064178467 0.468176513910293579
0.789409935474395752 -1.86571788787841797 0.330238938331604004
-1.53173828125 1.28158915042877197 0.276065260171890259
-0.859003186225891113 -0.522574901580810547 0.0611101984977722168
0.792488336563110352 -1.86120820045471191 0.337340384721755981
-0.301998347043991089 2.00974225997924805 0.425147265195846558
