ply
format ascii 1.0
element vertex 256
comment vertices
property float x
property float y
property float z
end_header
-0.316647887229919434 1.98318600654602051 0.415856212377548218
0.756736218929290771 -1.9451909065246582 0.378124892711639404
-1.70927560329437256 -1.00338840484619141 0.043741278350353241
-1.52921295166015625 1.23602843284606934 0.289728730916976929
-0.620808660984039307 -1.90547657012939453 0.402437865734100342
0.298776149749755859 -0.963636517524719238 0.3695639967918396
1.50753152370452881 -1.28024947643280029 0.486783385276794434
-0.281516790390014648 0.982509613037109375 0.108276531100273132
0.271032214164733887 1.94426500797271729 0.401657760143280029
-0.842203199863433838 -0.535038411617279053 0.114994645118713379
-1.57296335697174072 1.31317055225372314 0.310970425605773926
0.7947731614112854 -1.77603340148925781 0.33136025071144104
1.51472687721252441 -1.31913089752197266 0.453723251819610596
-0.613493084907531738 -1.90306746959686279 0.40514141321182251
-0.280198156833648682 1.97319614887237549 0.425430268049240112
0.303725183010101318 1.98184025287628174 0.39677661657333374
-1.75736415386199951 -0.995280861854553223 0.0569495931267738342
1.48839139938354492 -1.27686333656311035 0.493049383163452148
1.46499037742614746 -1.27679479122161865 0.468847572803497314
-0.257920801639556885 1.96927773952484131 0.424329519271850586
0.801305234432220459 -1.84857678413391113 0.330371081829071045
-1.56166195869445801 1.34022021293640137 0.306301742792129517
-0.613605737686157227 -1.91429626941680908 0.415161609649658203
-1.58268356323242188 1.24919664859771729 0.302060753107070923
0.300159752368927002 1.96681702136993408 0.403538376092910767
0.278892666101455688 -0.960286080837249756 0.373530387878417969
0.291403412818908691 -0.948088228702545166 0.366114348173141479
-0.273589789867401123 0.938603043556213379 0.0872876942157745361
-0.864953279495239258 -0.525383472442626953 0.0878716632723808289
1.5116732120513916 -1.30701041221618652 0.486255824565887451
-0.842430830001831055 -0.508043646812438965 0.102683380246162415
-0.632958769798278809 -1.89788281917572021 0.412154614925384521
-1.73175704479217529 -0.985048532485961914 0.0470850765705108643
-0.318078964948654175 1.98018372058868408 0.439452856779098511
-0.621427178382873535 -1.89869987964630127 0.400906234979629517
0.757304787635803223 -1.85001695156097412 0.332995951175689697
1.50207209587097168 -1.28986847400665283 0.492713958024978638
1.43399310111999512 -1.33359146118164062 0.485482335090637207
-0.306933820247650146 1.98257148265838623 0.444131463766098022
-1.56811714172363281 1.27255308628082275 0.287137538194656372
1.48735809326171875 -1.29929196834564209 0.506542980670928955
-0.26864546537399292 0.959601223468780518 0.0724108368158340454
-0.188824325799942017 1.98252451419830322 0.443305701017379761
0.780029416084289551 -1.92529618740081787 0.351787060499191284
-0.277193367481231689 1.97839975357055664 0.427601367235183716
0.2927226722240448 -0.959485411643981934 0.372356832027435303
0.296064794063568115 1.96609401702880859 0.409982889890670776
0.291483759880065918 -0.964444816112518311 0.368465662002563477
-0.613950133323669434 -1.89691555500030518 0.396177083253860474
-0.845684051513671875 -0.512399494647979736 0.0631068795919418335
-0.63710319995880127 -1.8931128978729248 0.384122192859649658
-0.299353599548339844 0.965667426586151123 0.0750826895236968994
0.296891927719116211 1.98427629470825195 0.406867682933807373
0.310445696115493774 1.9856797456741333 0.403619736433029175
0.285787820816040039 -0.96222996711730957 0.372065275907516479
0.793267369270324707 -1.87918961048126221 0.336905896663665771
-0.32113984227180481 1.97952747344970703 0.450254648923873901
1.49702680110931396 -1.30322098731994629 0.496012002229690552
-1.74753379821777344 -1.02043449878692627 0.0552307739853858948
0.27748379111289978 -0.969174683094024658 0.380193203687667847
-1.54958605766296387 1.31890213489532471 0.291704744100570679
-1.73293066024780273 -1.00225543975830078 0.102397389709949493
0.790472090244293213 -1.70495390892028809 0.357786685228347778
-1.53725743293762207 1.24101448059082031 0.292084753513336182
-0.625944137573242188 -1.8961033821105957 0.406064331531524658
0.29090571403503418 -0.950632452964782715 0.383075714111328125
0.280367165803909302 1.95967066287994385 0.380719989538192749
-1.55656671524047852 1.22088479995727539 0.326354354619979858
-1.567787766456604 1.34278655052185059 0.34385603666305542
0.808124303817749023 -1.79899144172668457 0.345320016145706177
-0.613808214664459229 -1.89455223083496094 0.407530486583709717
-0.63635021448135376 -1.89525401592254639 0.39972233772277832
0.731441080570220947 -1.72012591361999512 0.351648449897766113
-1.58312535285949707 1.29125189781188965 0.28285592794418335
0.292549997568130493 1.96574294567108154 0.41910979151725769
-0.843283236026763916 -0.53551638126373291 0.140349999070167542
0.282640516757965088 -0.96348273754119873 0.378302276134490967
-1.5429985523223877 1.2734750509262085 0.284167289733886719
0.292848259210586548 -0.954468667507171631 0.38188779354095459
0.293865472078323364 -0.968217611312866211 0.371077090501785278
1.50169777870178223 -1.30179214477539062 0.496109098196029663
1.47736191749572754 -1.28849685192108154 0.476556062698364258
-0.274980843067169189 0.9690399169921875 0.118589520454406738
0.29991564154624939 1.97647809982299805 0.395218133926391602
-0.30603453516960144 1.97907376289367676 0.428950130939483643
0.80903393030166626 -1.89818835258483887 0.330961883068084717
0.771375060081481934 -1.77033042907714844 0.323673158884048462
1.49583196640014648 -1.29380810260772705 0.484901070594787598
-0.848443031311035156 -0.527365267276763916 0.13987123966217041
1.508544921875 -1.29543983936309814 0.492715001106262207
1.51061058044433594 -1.31376743316650391 0.480502277612686157
-0.305951744318008423 1.96923542022705078 0.446740061044692993
1.49168562889099121 -1.30123698711395264 0.453853011131286621
-0.626328051090240479 -1.90045905113220215 0.394176065921783447
0.811490535736083984 -1.84666335582733154 0.32013934850692749
-0.268323987722396851 0.959790229797363281 0.124958023428916931
0.280543088912963867 -0.959830164909362793 0.377135157585144043
-0.616159915924072266 -1.9032210111618042 0.403105854988098145
-0.306564450263977051 1.96990513801574707 0.444530129432678223
1.48545670509338379 -1.29997336864471436 0.498290657997131348
0.30712437629699707 1.97683608531951904 0.365452170372009277
-1.54982519149780273 1.27252388000488281 0.286753922700881958
-0.292995750904083252 1.97946012020111084 0.422658145427703857
-1.53078854084014893 1.3053133487701416 0.265188276767730713
1.49526357650756836 -1.30038690567016602 0.518032431602478027
0.265486568212509155 1.97748804092407227 0.413717716932296753
1.47084975242614746 -1.30631852149963379 0.484372615814208984
0.8024483323097229 -1.7436453104019165 0.337529093027114868
-0.315023928880691528 1.98972201347351074 0.431893348693847656
0.295402944087982178 -0.971426963806152344 0.372862577438354492
0.286459863185882568 1.97595953941345215 0.378629863262176514
1.50184535980224609 -1.27045357227325439 0.449177950620651245
-0.617632031440734863 -1.90245449542999268 0.404783666133880615
1.50864231586456299 -1.30385124683380127 0.489484012126922607
0.783543586730957031 -1.86384034156799316 0.330386728048324585
0.234132051467895508 1.95509278774261475 0.396472185850143433
0.297001361846923828 1.96438741683959961 0.412601709365844727
0.303591996431350708 1.97196435928344727 0.395654052495956421
0.786125063896179199 -1.90628170967102051 0.345975339412689209
0.295975208282470703 1.97146940231323242 0.390701860189437866
-1.56166672706604004 1.29317784309387207 0.296590864658355713
0.30052262544631958 1.98523521423339844 0.399497002363204956
1.48711037635803223 -1.29522514343261719 0.486662030220031738
-0.623514294624328613 -1.90171420574188232 0.396251440048217773
0.291761159896850586 -0.954596877098083496 0.380229413509368896
0.285805970430374146 -0.962185978889465332 0.375665992498397827
0.300197482109069824 -0.966344654560089111 0.373877167701721191
-0.611571907997131348 -1.89669036865234375 0.384121537208557129
0.296434730291366577 1.96862387657165527 0.397584527730941772
-1.55827128887176514 1.23341858386993408 0.295766174793243408
0.272123724222183228 -0.963125884532928467 0.37766718864440918
0.789254546165466309 -1.80814266204833984 0.315770745277404785
1.49841070175170898 -1.28337681293487549 0.511965632438659668
-1.55825901031494141 1.26596462726593018 0.271107971668243408
-0.85166633129119873 -0.525113344192504883 0.0700330883264541626
-0.306302487850189209 1.97510850429534912 0.441680908203125
-0.314798802137374878 1.9725334644317627 0.42466050386428833
-0.625695943832397461 -1.90260982513427734 0.401552289724349976
-0.614519655704498291 -1.89831304550170898 0.396591842174530029
-0.619587242603302002 -1.90162384510040283 0.407854437828063965
0.803119421005249023 -1.87246215343475342 0.32707291841506958
-0.85313105583190918 -0.524950921535491943 0.0689020231366157532
1.50581109523773193 -1.29960274696350098 0.502472400665283203
-0.300575315952301025 1.99333572387695312 0.433325767517089844
0.754121363162994385 -1.74935555458068848 0.340521454811096191
1.49893748760223389 -1.29369831085205078 0.49363863468170166
-1.71123993396759033 -0.99965512752532959 0.0669023394584655762
1.49399209022521973 -1.29066431522369385 0.491972088813781738
-1.76334071159362793 -0.998603940010070801 0.0685564726591110229
0.285386592149734497 -0.962754487991333008 0.372653663158416748
0.284152209758758545 -0.965453207492828369 0.376589298248291016
1.50404214859008789 -1.3104403018951416 0.48177221417427063
-1.71425735950469971 -0.973841190338134766 0.0599134936928749084
-0.633098304271697998 -1.8929593563079834 0.403063863515853882
0.770006775856018066 -1.88099253177642822 0.331634372472763062
-1.576027512550354 1.25992977619171143 0.281274110078811646
-1.72330570220947266 -1.02075004577636719 0.0656912773847579956
-0.280956476926803589 0.981398284435272217 0.0842018425464630127
1.49439680576324463 -1.29174292087554932 0.503839731216430664
-1.5668632984161377 1.30600571632385254 0.3069571852684021
-0.622819781303405762 -1.89540755748748779 0.404459387063980103
-0.32660377025604248 1.98377776145935059 0.453355252742767334
-0.303909420967102051 1.98031711578369141 0.421020001173019409
-1.53838825225830078 1.28216326236724854 0.291665792465209961
-1.5473787784576416 1.24891090393066406 0.282707780599594116
0.252884864807128906 1.97378981113433838 0.384059339761734009
-1.71658241748809814 -0.979267597198486328 0.0481535196304321289
-0.623712241649627686 -1.90271925926208496 0.401149660348892212
1.51174354553222656 -1.30268371105194092 0.484824389219284058
-0.629150211811065674 -1.89862632751464844 0.389813005924224854
-1.53668045997619629 1.31695210933685303 0.295213937759399414
1.48300981521606445 -1.28581082820892334 0.479389309883117676
1.50672698020935059 -1.27266895771026611 0.434585988521575928
-0.296475619077682495 1.98607659339904785 0.462929457426071167
0.822460293769836426 -1.82972121238708496 0.331788063049316406
0.287914514541625977 -0.946695148944854736 0.387201666831970215
-0.309072703123092651 0.96853029727935791 0.0961081609129905701
-0.868507087230682373 -0.522714316844940186 0.0880634263157844543
-0.307154655456542969 1.97297525405883789 0.412570774555206299
-1.53630661964416504 1.26653957366943359 0.289956569671630859
-0.301957815885543823 1.98549747467041016 0.441526800394058228
-0.293889462947845459 0.960606276988983154 0.0750126242637634277
0.805850386619567871 -1.79467856884002686 0.311386346817016602
-1.57727468013763428 1.22312068939208984 0.298640668392181396
0.29834786057472229 1.97529792785644531 0.400233745574951172
1.48350834846496582 -1.28998613357543945 0.486412912607192993
0.285069793462753296 -0.963649749755859375 0.364596098661422729
1.47722733020782471 -1.30069243907928467 0.465727269649505615
0.2801990807056427 -0.952931642532348633 0.382359683513641357
-0.625793635845184326 -1.90366518497467041 0.4050942063331604
1.48199737071990967 -1.28710579872131348 0.495785146951675415
0.790785551071166992 -1.82294905185699463 0.319682091474533081
-0.279456168413162231 0.948083758354187012 0.0745017156004905701
0.281458169221878052 -0.960824131965637207 0.376608401536941528
-0.852912306785583496 -0.528765678405761719 0.137518018484115601
-0.281867951154708862 1.98103833198547363 0.431649893522262573
0.79929882287979126 -1.85117173194885254 0.327569127082824707
-0.30510866641998291 1.97017371654510498 0.43730047345161438
1.50503230094909668 -1.30063211917877197 0.469229936599731445
-0.844538569450378418 -0.523583292961120605 0.12490825355052948
0.758388400077819824 -1.77725732326507568 0.336434930562973022
0.293420284986495972 1.97959816455841064 0.390500843524932861
-0.279642105102539062 0.954377889633178711 0.108193770051002502
0.293787866830825806 1.96564102172851562 0.411084771156311035
0.269167184829711914 1.95689725875854492 0.39120909571647644
-1.54526746273040771 1.26009023189544678 0.297802358865737915
0.283448219299316406 -0.961735367774963379 0.376408874988555908
0.292662560939788818 -0.966058969497680664 0.371051788330078125
-1.54344534873962402 1.26598954200744629 0.300382554531097412
1.50257253646850586 -1.29265499114990234 0.511011779308319092
0.305163681507110596 1.97285592555999756 0.405568152666091919
-0.294319987297058105 1.98556482791900635 0.417100638151168823
-0.271355479955673218 0.934561431407928467 0.0819503664970397949
1.50692629814147949 -1.30003559589385986 0.505752086639404297
-0.308708906173706055 1.97237133979797363 0.425511300563812256
1.46203970909118652 -1.28665590286254883 0.437689810991287231
-0.297778129577636719 0.948696136474609375 0.132405385375022888
0.790833830833435059 -1.88949787616729736 0.340558707714080811
-0.626146554946899414 -1.90267205238342285 0.401320874691009521
-1.54757726192474365 1.26791739463806152 0.286621749401092529
-1.55099737644195557 1.25820016860961914 0.280866563320159912
1.48645544052124023 -1.3100132942199707 0.455635726451873779
1.50248026847839355 -1.31202805042266846 0.499265015125274658
1.4903799295425415 -1.29648184776306152 0.510014355182647705
0.775614321231842041 -1.83248507976531982 0.309128820896148682
-1.54502689838409424 1.32561397552490234 0.312385380268096924
0.280225634574890137 -0.966799378395080566 0.378884971141815186
-1.57850825786590576 1.32344317436218262 0.319344550371170044
0.285569489002227783 -0.96600651741027832 0.378309786319732666
0.289715409278869629 -0.969419121742248535 0.369076550006866455
-0.307501733303070068 1.97948288917541504 0.446378409862518311
-1.55603861808776855 1.28515124320983887 0.276774704456329346
0.30519866943359375 1.98062515258789062 0.404182910919189453
0.801072120666503906 -1.8863062858581543 0.337480396032333374
1.50168204307556152 -1.2914879322052002 0.49605095386505127
0.287523567676544189 -0.961449027061462402 0.383892178535461426
1.47842252254486084 -1.28387558460235596 0.476434022188186646
-0.622885346412658691 -1.89680981636047363 0.398327857255935669
-1.5434037446975708 1.29062783718109131 0.27985072135925293
0.28881758451461792 -0.956344842910766602 0.376008391380310059
-0.608443975448608398 -1.90487003326416016 0.403525680303573608
-1.72084462642669678 -1.00149023532867432 0.0445473641157150269
-0.619192719459533691 -1.89418578147888184 0.40324065089225769
0.295017480850219727 1.98691403865814209 0.384049743413925171
-0.307903468608856201 1.97602200508117676 0.42201310396194458
-0.847396135330200195 -0.520933806896209717 0.0690911263227462769
0.279426395893096924 -0.960426747798919678 0.372129499912261963
-0.315183579921722412 1.97424852848052979 0.435212224721908569
-0.615171134471893311 -1.89635801315307617 0.398317247629165649
-1.56440556049346924 1.28919696807861328 0.284939676523208618
1.50488317012786865 -1.30709993839263916 0.473336786031723022
0.793964862823486328 -1.88150525093078613 0.327043294906616211
-1.55088376998901367 1.2750016450881958 0.297499656677246094
-0.853944480419158936 -0.516544640064239502 0.104421108961105347
0.808238744735717773 -1.8827134370803833 0.337066650390625
-0.313555717468261719 1.99492847919464111 0.436125904321670532
