ply
format ascii 1.0
element vertex 256
comment vertices
property float x
property float y
property float z
end_header
1.57596325874328613 2.18186855316162109 1.96382331848144531
0.407511800527572632 -1.45202147960662842 0.451850682497024536
-0.158096164464950562 4.80103969573974609 1.56432855129241943
-1.23000454902648926 2.08326053619384766 0.512900114059448242
1.97094082832336426 0.661691069602966309 -0.0529678836464881897
1.00847673416137695 2.00830745697021484 0.186173424124717712
0.593272805213928223 0.31984245777130127 1.42192745208740234
0.370668172836303711 3.22145295143127441 1.90778172016143799
0.00251645594835281372 3.93687891960144043 2.65535998344421387
1.266396164894104 -0.589339613914489746 1.13841414451599121
0.605052828788757324 0.999006032943725586 0.425882846117019653
0.698830962181091309 3.0511620044708252 0.582239866256713867
-0.450759649276733398 2.29359674453735352 1.38939929008483887
2.04514646530151367 2.27836322784423828 0.258679717779159546
1.78016209602355957 0.986867547035217285 1.33250927925109863
0.858854830265045166 2.36260509490966797 1.13633632659912109
-0.338517308235168457 3.21818780899047852 0.932748317718505859
0.436568766832351685 -1.23617124557495117 1.7789161205291748
1.48624300956726074 -0.313962966203689575 0.563355565071105957
1.04053926467895508 3.54676675796508789 1.58295142650604248
0.832536458969116211 1.32887363433837891 1.25722193717956543
-0.47901076078414917 2.60840272903442383 -0.0382881015539169312
1.87628316879272461 3.41367197036743164 1.42938828468322754
-0.00879187136888504028 1.77736055850982666 0.199898898601531982
0.891092479228973389 2.99620532989501953 1.76439905166625977
1.89499533176422119 0.230001300573348999 0.913304388523101807
1.43416774272918701 0.888779044151306152 0.854141354560852051
1.56414735317230225 1.99863243103027344 0.723173022270202637
0.505402088165283203 4.37883472442626953 2.27929568290710449
0.78721928596496582 -0.195193350315093994 1.27324509620666504
0.926681756973266602 -0.833369731903076172 0.737510800361633301
-0.958173036575317383 2.93732690811157227 1.26218867301940918
-0.190307438373565674 2.61280298233032227 1.43810415267944336
0.59353870153427124 0.148472487926483154 1.01584064960479736
-0.128136485815048218 2.39624500274658203 1.18365597724914551
2.23557758331298828 2.4670860767364502 0.622320115566253662
0.470643132925033569 3.63537454605102539 1.20031142234802246
0.445269942283630371 2.71396827697753906 0.0134231746196746826
1.98881316184997559 1.01648616790771484 0.807258188724517822
-0.610777020454406738 2.09254074096679688 1.3127371072769165
1.16603648662567139 2.13723969459533691 0.536271512508392334
0.793259382247924805 0.304009824991226196 1.2312389612197876
1.00316345691680908 3.40254473686218262 2.18174409866333008
1.21506357192993164 -0.0509638935327529907 0.182366088032722473
1.54961633682250977 2.16051721572875977 1.45923340320587158
-1.01357364654541016 2.50780582427978516 0.613910436630249023
0.531743764877319336 -1.3450160026550293 1.21478211879730225
0.886867105960845947 -1.36396825313568115 0.202198058366775513
0.432033658027648926 2.06464242935180664 0.700381636619567871
0.550441265106201172 3.4797360897064209 2.41243958473205566
0.78606712818145752 2.21396017074584961 1.19219017028808594
0.864899873733520508 0.815519928932189941 1.63690388202667236
0.843511104583740234 3.33370780944824219 1.09429287910461426
0.419174849987030029 4.69656848907470703 2.72735786437988281
0.784837245941162109 -0.413948357105255127 1.54831945896148682
0.417522549629211426 1.00415647029876709 0.849842548370361328
0.263062775135040283 1.85374879837036133 0.30222010612487793
1.57885110378265381 0.289118558168411255 0.421748489141464233
0.418887823820114136 2.51801562309265137 1.01176369190216064
0.336713880300521851 3.56725478172302246 1.8278120756149292
0.389245420694351196 3.70210075378417969 1.17823386192321777
1.95240318775177002 2.41008973121643066 1.6691596508026123
0.725152492523193359 3.95946311950683594 1.9716264009475708
1.05917465686798096 0.117511466145515442 0.98515784740447998
0.314573138952255249 2.61419868469238281 0.913065612316131592
0.812108457088470459 -1.21848773956298828 1.23443794250488281
0.251570612192153931 -0.881458163261413574 0.967121660709381104
-0.593181908130645752 1.90496087074279785 0.901312291622161865
1.24066257476806641 2.96085143089294434 1.26909255981445312
2.01521849632263184 2.13087177276611328 0.83093947172164917
0.166007906198501587 3.77473115921020508 1.520346999168396
1.42706549167633057 2.98547554016113281 1.87129604816436768
0.727765321731567383 2.07038593292236328 0.651416540145874023
1.92339587211608887 0.73824763298034668 1.33043181896209717
-0.762032806873321533 2.38273477554321289 1.30750858783721924
-0.740134596824645996 2.66991138458251953 1.33301496505737305
0.117377415299415588 2.76801252365112305 1.22212862968444824
1.62052953243255615 2.1481635570526123 1.45339596271514893
0.443967819213867188 -0.499641776084899902 0.815110623836517334
0.461133450269699097 0.429818987846374512 1.53262734413146973
1.07989931106567383 -0.084483802318572998 1.10689067840576172
1.19669103622436523 2.71049308776855469 0.182236224412918091
1.56987190246582031 0.398941934108734131 1.03866493701934814
0.781500518321990967 0.0200095921754837036 1.05899953842163086
-0.180372178554534912 4.17472076416015625 2.0083310604095459
0.535439968109130859 2.70959830284118652 1.90441977977752686
1.3951488733291626 0.465650677680969238 0.854378700256347656
0.705858469009399414 -0.762920916080474854 1.05480325222015381
1.72771227359771729 1.1482386589050293 0.92211604118347168
1.58141279220581055 0.369492113590240479 0.275355994701385498
2.27634119987487793 3.03545999526977539 1.14364850521087646
0.764866828918457031 -1.12146759033203125 0.692472219467163086
0.53109896183013916 4.20870304107666016 1.48501718044281006
0.564214169979095459 -0.675508856773376465 1.32545351982116699
0.358834296464920044 0.251565843820571899 0.667065739631652832
1.64516377449035645 2.70749711990356445 1.86318111419677734
-1.01357924938201904 2.16069555282592773 0.0686512589454650879
1.74399101734161377 0.501953959465026855 0.455572545528411865
0.539176344871520996 2.44359803199768066 0.978323161602020264
-1.32124602794647217 2.51988029479980469 1.06232714653015137
2.17276310920715332 3.19306731224060059 1.84585976600646973
0.588693737983703613 3.6248011589050293 1.69919216632843018
1.81991839408874512 2.27891921997070312 0.554795801639556885
0.832313656806945801 0.060758739709854126 0.546150267124176025
0.0555031076073646545 3.83504748344421387 2.47584176063537598
0.728737354278564453 0.95467984676361084 1.00190830230712891
2.21807575225830078 0.471085429191589355 0.268627822399139404
0.89389878511428833 4.20799827575683594 2.28504514694213867
1.18472957611083984 3.1058194637298584 0.69558948278427124
0.876337289810180664 2.03695535659790039 1.00737404823303223
0.288237452507019043 3.3534393310546875 0.418000012636184692
-0.393124163150787354 2.37027692794799805 1.66264188289642334
1.14273810386657715 1.44938015937805176 1.56321287155151367
2.24267315864562988 1.02560520172119141 1.11404991149902344
0.9220733642578125 0.197930574417114258 0.791460156440734863
0.177176937460899353 3.27994132041931152 1.38939094543457031
1.71684384346008301 2.03974246978759766 1.1711573600769043
1.32010805606842041 2.34949111938476562 1.04985558986663818
-0.203450009226799011 2.92511272430419922 0.954547345638275146
0.601364612579345703 3.20957851409912109 1.68392562866210938
1.54700732231140137 0.37282717227935791 1.06539201736450195
0.571837186813354492 2.18895387649536133 0.418278396129608154
0.687989950180053711 -0.676550626754760742 1.21976876258850098
1.10183513164520264 -1.07793176174163818 0.953121185302734375
0.7505837082862854 1.87151551246643066 0.472808837890625
0.915832042694091797 3.00530481338500977 0.730161428451538086
0.670634865760803223 2.7605588436126709 1.11571383476257324
0.812122344970703125 4.14754009246826172 1.99189186096191406
0.508440256118774414 -1.19198334217071533 0.964290499687194824
0.62111663818359375 3.13996648788452148 1.6849815845489502
-0.555762410163879395 2.16844749450683594 1.28452146053314209
1.2376173734664917 -1.2302854061126709 1.22809934616088867
0.846140027046203613 0.302185475826263428 0.885721743106842041
-0.695154249668121338 2.07394909858703613 1.76463353633880615
0.223864853382110596 3.43996405601501465 1.1919175386428833
1.71434545516967773 0.103625833988189697 1.16683816909790039
0.557896137237548828 2.83515167236328125 1.69415616989135742
1.80453598499298096 2.68426275253295898 1.35720813274383545
-0.168401509523391724 1.55498099327087402 1.28347241878509521
2.01952815055847168 2.11523723602294922 1.24027073383331299
0.905742824077606201 0.945086181163787842 1.50286471843719482
1.50520110130310059 2.60413455963134766 1.85427343845367432
0.817320406436920166 0.467546761035919189 1.41428303718566895
2.28420042991638184 0.880576491355895996 1.12070238590240479
0.855343997478485107 2.26062631607055664 1.41511344909667969
1.7573082447052002 2.31997919082641602 1.54021763801574707
0.349134325981140137 -1.13065493106842041 1.3089369535446167
1.06869244575500488 0.779591679573059082 0.562410414218902588
1.47556352615356445 2.75723981857299805 1.10876035690307617
0.451171219348907471 0.687264919281005859 0.932345807552337646
-0.0694191679358482361 2.82723379135131836 0.692740380764007568
0.921793639659881592 -0.809443235397338867 1.41635358333587646
0.31073296070098877 3.13737010955810547 0.836620628833770752
-0.562359452247619629 1.72787332534790039 1.32343864440917969
0.404433161020278931 0.689476609230041504 1.42402482032775879
0.536309361457824707 3.80616331100463867 1.28661024570465088
0.662697732448577881 1.14705026149749756 1.29281365871429443
0.102927923202514648 3.3672032356262207 1.77144062519073486
-0.771943449974060059 2.81035017967224121 0.896247625350952148
-0.964412271976470947 2.85255670547485352 1.1903994083404541
0.865768551826477051 -1.14917504787445068 0.72842717170715332
1.88974118232727051 0.897469878196716309 1.07448232173919678
1.71408939361572266 0.275065183639526367 0.796250104904174805
-0.787152707576751709 1.80411386489868164 1.31167340278625488
0.513898909091949463 0.835247993469238281 1.25575196743011475
-0.429477006196975708 2.75584125518798828 0.645354568958282471
0.525146603584289551 1.74262130260467529 0.599945306777954102
0.402112394571304321 4.59420442581176758 2.16620445251464844
0.57247692346572876 -0.713289856910705566 1.27983379364013672
-1.13796675205230713 2.61285400390625 1.10852515697479248
0.345944315195083618 1.91118347644805908 0.798644185066223145
0.290262281894683838 2.89291524887084961 1.73976266384124756
0.435431092977523804 4.38361835479736328 2.34407711029052734
0.2158241868019104 3.98718523979187012 1.6045149564743042
0.215975731611251831 -0.50186467170715332 1.0937577486038208
0.665886878967285156 3.8449547290802002 2.17895007133483887
0.45519903302192688 2.34741616249084473 0.957400977611541748
0.306018412113189697 2.72821927070617676 0.692205309867858887
0.33127903938293457 3.74261045455932617 2.08830952644348145
-1.06224346160888672 2.25693511962890625 1.56942105293273926
2.00403356552124023 0.963155269622802734 1.12073111534118652
0.88124239444732666 1.99472534656524658 0.966423511505126953
0.23934638500213623 3.82419610023498535 2.19163227081298828
2.03591513633728027 1.20233631134033203 1.10732018947601318
0.998541474342346191 1.24051558971405029 1.34341192245483398
1.76870107650756836 2.43607091903686523 1.79457855224609375
0.301483899354934692 4.07799434661865234 2.54816460609436035
0.908210635185241699 2.21309900283813477 1.28853428363800049
0.593753635883331299 0.36416289210319519 1.07451951503753662
0.665251076221466064 2.30829334259033203 0.684170722961425781
0.980701148509979248 -0.733753800392150879 0.975020170211791992
0.964748263359069824 0.871383070945739746 0.689716160297393799
0.785468757152557373 3.06434392929077148 1.33292067050933838
1.72299289703369141 0.706398725509643555 0.668385922908782959
2.19591569900512695 0.992613852024078369 -0.233507752418518066
-0.468720853328704834 2.95628166198730469 0.32552182674407959
0.348724901676177979 2.82560253143310547 2.00878286361694336
0.658773064613342285 3.52835512161254883 2.01076960563659668
0.681060850620269775 -0.574370503425598145 0.96064382791519165
0.732761621475219727 0.853018760681152344 1.2704319953918457
1.58772766590118408 2.71304512023925781 1.74603843688964844
-0.145723015069961548 2.84903931617736816 1.37372195720672607
1.63150870800018311 2.09677219390869141 1.01300048828125
0.176299571990966797 3.159698486328125 1.42284536361694336
0.457007020711898804 1.92726767063140869 1.25642120838165283
2.04960727691650391 0.535032391548156738 0.939119935035705566
0.824976503849029541 -0.575723409652709961 1.20065641403198242
0.373960733413696289 -0.905760645866394043 0.831245839595794678
1.11045491695404053 2.54947471618652344 1.05243372917175293
0.734738528728485107 -1.26365125179290771 1.66115236282348633
0.646684885025024414 1.89960217475891113 0.711163043975830078
1.27890288829803467 0.584359407424926758 1.43760263919830322
-0.386614143848419189 2.21048808097839355 1.53412151336669922
1.14237773418426514 0.0512155890464782715 0.85012739896774292
0.411550849676132202 -0.139542117714881897 0.758639216423034668
1.66791188716888428 1.91585791110992432 0.84803462028503418
0.413381040096282959 2.98158168792724609 1.61299550533294678
0.588477492332458496 1.96790421009063721 0.643685221672058105
0.568377494812011719 1.72436785697937012 0.284442424774169922
0.524366021156311035 3.35181236267089844 1.46119832992553711
1.04307544231414795 -0.71014249324798584 0.59876561164855957
0.483049988746643066 0.501135706901550293 1.15405845642089844
0.444388538599014282 4.22845315933227539 2.53854036331176758
0.303668439388275146 -1.20951783657073975 1.05734002590179443
0.702482998371124268 2.2181093692779541 0.362619459629058838
0.379286825656890869 3.10301589965820312 0.445478707551956177
-0.0305258631706237793 4.42192363739013672 1.99783730506896973
-0.389920562505722046 2.52130699157714844 0.825870811939239502
1.80635499954223633 2.40534424781799316 0.929560422897338867
0.52695620059967041 -0.790619790554046631 1.45720005035400391
0.496702045202255249 3.88440179824829102 1.71157550811767578
-0.498501241207122803 2.05011749267578125 1.1682593822479248
0.959564924240112305 0.314959138631820679 0.539777874946594238
0.54918670654296875 4.56325912475585938 2.5645294189453125
1.76459527015686035 2.45394659042358398 1.99441838264465332
0.728966712951660156 -0.375076532363891602 0.927428603172302246
1.55800116062164307 0.367869257926940918 1.14131176471710205
1.56388604640960693 1.05377376079559326 1.19548165798187256
-0.423015594482421875 2.25570893287658691 1.16313111782073975
1.87308073043823242 2.74893379211425781 1.46625721454620361
1.19754648208618164 2.18395400047302246 0.554842770099639893
1.72419333457946777 0.762275159358978271 0.563917756080627441
0.334365189075469971 3.06130170822143555 1.1072922945022583
0.288174867630004883 2.2049872875213623 0.11664794385433197
1.44742918014526367 2.41957831382751465 0.540415167808532715
1.78700518608093262 2.33661413192749023 1.34403121471405029
0.299582481384277344 3.11562848091125488 1.70375609397888184
0.573218345642089844 3.80713224411010742 1.78802728652954102
0.654232025146484375 -0.973366856575012207 0.843263924121856689
1.9467923641204834 2.68934392929077148 1.61656665802001953
1.99220335483551025 2.41085529327392578 1.46196281909942627
-1.23711466789245605 2.57908248901367188 1.12137269973754883
2.01851749420166016 0.986368000507354736 1.24857962131500244
0.824973821640014648 0.815873801708221436 1.43229770660400391
1.31617414951324463 0.31464850902557373 0.892087996006011963
0.760109961032867432 3.2372584342956543 1.61724698543548584
