ply
format ascii 1.0
element vertex 256
comment vertices
property float x
property float y
property float z
end_header
-0.498075425624847412 0.308019310235977173 0.699022531509399414
1.62522506713867188 -2.33104085922241211 -0.12568962574005127
2.06743860244750977 1.40243864059448242 0.672999262809753418
0.868997752666473389 -1.57332408428192139 1.51662087440490723
1.13971662521362305 -0.0601995587348937988 -0.0975575447082519531
0.391533225774765015 1.85764980316162109 0.619253635406494141
-0.880457758903503418 1.51329207420349121 0.0157180856913328171
0.744062900543212891 0.76055455207824707 0.878454804420471191
-1.18810045719146729 -0.550677120685577393 1.10866057872772217
0.958112597465515137 -1.32302558422088623 0.3848724365234375
0.643948137760162354 -0.309144198894500732 0.839227139949798584
1.4182436466217041 -2.43736457824707031 1.25501155853271484
-1.16480469703674316 -0.332349181175231934 0.12709064781665802
0.0984642505645751953 1.04501652717590332 0.256635993719100952
-0.349957317113876343 -0.60035097599029541 0.502146244049072266
0.820729732513427734 0.783224344253540039 -0.24903559684753418
1.70163750648498535 1.1093754768371582 1.44815516471862793
1.7581484317779541 -1.83983838558197021 0.732135534286499023
-0.475345313549041748 1.2080390453338623 0.843032419681549072
-0.538152456283569336 -0.0016161799430847168 1.47122311592102051
1.22140729427337646 1.18697988986968994 0.388046383857727051
-1.30224967002868652 1.2604978084564209 0.615015506744384766
-0.579177618026733398 0.824992358684539795 0.02319350466132164
1.84436178207397461 0.918235182762145996 0.0925604701042175293
1.10435616970062256 -2.08680629730224609 0.55733489990234375
1.15994024276733398 0.190094888210296631 0.571257591247558594
0.379230201244354248 1.34831762313842773 1.09699201583862305
0.0096130073070526123 -0.285351037979125977 1.10420453548431396
-0.357337296009063721 1.73343086242675781 0.436357945203781128
0.939472615718841553 -1.1207737922668457 1.01144278049468994
1.32223331928253174 0.593129158020019531 0.0614628158509731293
-0.964446365833282471 0.246082097291946411 0.165859758853912354
1.76334142684936523 -1.96980834007263184 -0.60079878568649292
0.954306960105895996 -0.726956665515899658 0.549374520778656006
0.643258750438690186 -0.159411489963531494 0.272804200649261475
-0.665688097476959229 -0.235412567853927612 0.814378976821899414
0.959349453449249268 -1.94108378887176514 1.09734845161437988
0.924417734146118164 1.27514898777008057 0.881260931491851807
0.8367767333984375 1.5921100378036499 0.45582503080368042
0.82227790355682373 0.16311703622341156 1.00292682647705078
1.86486876010894775 0.763655781745910645 1.08728361129760742
-0.986381947994232178 -0.618551135063171387 0.528803229331970215
-1.09694981575012207 1.03798091411590576 0.0548386946320533752
1.16091263294219971 -1.54643630981445312 0.82499396800994873
-0.431402415037155151 1.2382969856262207 0.317979872226715088
-0.621758222579956055 -0.121345460414886475 0.255533397197723389
0.159907177090644836 1.41166460514068604 0.644416153430938721
0.90856778621673584 0.694131910800933838 0.327425569295883179
0.546465635299682617 1.18183982372283936 0.429158300161361694
0.727195918560028076 1.05878758430480957 1.3028186559677124
0.0809733569622039795 1.52840352058410645 0.159269511699676514
1.24255752563476562 -1.63274753093719482 0.15346449613571167
1.8035663366317749 0.769943535327911377 0.547101974487304688
1.50022351741790771 -2.08586692810058594 0.292616039514541626
-0.758568704128265381 1.20855522155761719 -0.318952977657318115
-0.586344242095947266 -0.464237511157989502 1.495430588722229
0.279509246349334717 0.984829425811767578 0.841815769672393799
-0.330247759819030762 0.857368111610412598 0.544040679931640625
1.02724814414978027 -0.262186169624328613 0.470262020826339722
-0.849099278450012207 1.1596604585647583 0.39805874228477478
2.08542084693908691 1.23320949077606201 0.258998781442642212
-0.311115086078643799 -0.117417722940444946 0.632513105869293213
-1.21529579162597656 -0.12208518385887146 0.481536567211151123
1.05930280685424805 0.297996878623962402 0.188035905361175537
-0.240199834108352661 -0.556905627250671387 0.89529651403427124
1.71888625621795654 1.19323945045471191 0.624409735202789307
0.468967914581298828 0.781401515007019043 0.422270834445953369
-0.817129850387573242 0.0952726602554321289 0.560724020004272461
1.26096940040588379 -1.2115333080291748 0.623834431171417236
0.623483419418334961 1.51883220672607422 0.792561531066894531
1.76028108596801758 -1.90479540824890137 -0.211203157901763916
-0.100310325622558594 1.01269841194152832 0.944184601306915283
1.77894842624664307 1.41058075428009033 0.946731686592102051
-0.479973554611206055 0.122127234935760498 1.10867786407470703
-0.676485061645507812 1.9387505054473877 0.380739092826843262
0.831827521324157715 0.390263378620147705 0.694942951202392578
1.35517787933349609 0.0589484572410583496 0.198455974459648132
1.44088244438171387 -2.04726195335388184 0.742482483386993408
-0.216244876384735107 0.919461190700531006 0.0476531535387039185
0.894671916961669922 -1.68480229377746582 0.605318844318389893
1.07559430599212646 0.873472809791564941 0.606441378593444824
-0.43910747766494751 1.57610940933227539 0.111608915030956268
0.986230134963989258 -0.149538159370422363 0.903100430965423584
-0.145753681659698486 1.21469485759735107 0.541234672069549561
-0.682785987854003906 0.847006380558013916 0.419610381126403809
1.34108078479766846 -2.12526202201843262 1.36914312839508057
-0.636516988277435303 1.27998602390289307 -0.0153615586459636688
2.03430914878845215 1.00970256328582764 0.519127726554870605
1.34666872024536133 -1.64004695415496826 0.564067661762237549
0.615429162979125977 1.0808035135269165 0.737817347049713135
1.27588963508605957 0.726752221584320068 0.361373633146286011
0.0206858515739440918 1.8518829345703125 0.184654772281646729
1.78238201141357422 -1.95160913467407227 0.422758221626281738
-1.25657927989959717 -0.447880744934082031 0.808536291122436523
0.902724623680114746 -0.312464296817779541 0.152280867099761963
-0.184436023235321045 1.46611952781677246 0.344284713268280029
1.02472209930419922 0.73350822925567627 -0.00561136007308959961
0.366036832332611084 1.56174957752227783 0.450995683670043945
-0.887777388095855713 -0.387658923864364624 0.335599392652511597
-0.632048666477203369 -0.438265621662139893 0.579828858375549316
-0.159062802791595459 1.65469610691070557 0.661806464195251465
1.05243062973022461 0.481786608695983887 0.499127119779586792
1.43785655498504639 -2.33988285064697266 0.13794727623462677
-0.806215226650238037 0.983861565589904785 0.143731147050857544
-0.573283553123474121 0.265816301107406616 0.414914339780807495
1.78249883651733398 1.10600960254669189 0.349184483289718628
0.999524950981140137 -0.502759993076324463 0.732557833194732666
0.890898287296295166 -1.84641194343566895 1.36304354667663574
0.97877955436706543 -1.28373587131500244 0.776707768440246582
0.44681200385093689 1.07168340682983398 1.1386568546295166
1.861533522605896 1.47602522373199463 0.486013442277908325
-0.978838205337524414 -0.0619544833898544312 0.329297006130218506
-0.613676011562347412 1.45911967754364014 0.313259690999984741
-0.401559293270111084 -0.346562385559082031 0.7784157395362854
-0.0499811768531799316 1.27782666683197021 0.157205298542976379
1.09891676902770996 -0.969156086444854736 0.556694984436035156
0.917963385581970215 -1.59263885021209717 0.312944173812866211
-0.472865432500839233 0.96464461088180542 0.242742419242858887
0.414162993431091309 1.26988351345062256 0.690334439277648926
1.0042572021484375 0.462436974048614502 -0.0732327103614807129
-0.975825190544128418 1.2942662239074707 -0.129844009876251221
-0.328218966722488403 0.873429477214813232 0.872339963912963867
-1.13839662075042725 -0.393278121948242188 0.452011346817016602
0.717424273490905762 1.74318969249725342 0.66845327615737915
0.788145601749420166 0.579233229160308838 -0.426737368106842041
1.02194905281066895 -1.62588834762573242 1.04428911209106445
-0.653758406639099121 1.7206956148147583 0.223163813352584839
1.10674786567687988 -0.050063788890838623 0.323831945657730103
-0.129725992679595947 -0.0925381779670715332 0.830002665519714355
-0.213977783918380737 1.00174069404602051 0.304151773452758789
0.764914870262145996 1.4183192253112793 1.0423743724822998
1.10297751426696777 -1.48105835914611816 0.543931484222412109
-0.569018185138702393 1.17989897727966309 0.595605134963989258
1.0165557861328125 0.962180256843566895 0.362698912620544434
0.00173994898796081543 1.15920031070709229 0.748167872428894043
-0.354430675506591797 1.13907325267791748 0.0552513450384140015
0.784447669982910156 0.636160910129547119 -0.0017229914665222168
-0.502494156360626221 0.0505799651145935059 0.7249298095703125
0.710714578628540039 0.614983975887298584 0.654825806617736816
-0.393542289733886719 -0.713143587112426758 0.763770341873168945
1.17169189453125 0.521112680435180664 0.255497753620147705
-0.620100319385528564 -0.145347714424133301 0.504002630710601807
1.11872327327728271 -1.77095997333526611 0.320076495409011841
0.776555895805358887 1.17490696907043457 1.0882265567779541
1.27300679683685303 0.958051502704620361 0.282255709171295166
-0.787791609764099121 0.110076278448104858 0.266149580478668213
-1.35727524757385254 -0.161152422428131104 0.286520600318908691
1.96516883373260498 1.24559617042541504 0.517851650714874268
1.24792289733886719 0.315954446792602539 0.384315997362136841
0.384332239627838135 1.52867436408996582 0.820887207984924316
0.484453827142715454 -0.235418617725372314 0.435617685317993164
1.47939777374267578 -2.12651181221008301 0.0375079512596130371
1.40309798717498779 -2.15422439575195312 1.1398550271987915
0.836864173412322998 -0.675935745239257812 0.760039687156677246
1.84562087059020996 0.837684214115142822 0.321967184543609619
0.516615033149719238 1.2758023738861084 0.915717244148254395
0.233982294797897339 1.07107853889465332 0.624359130859375
1.82064354419708252 1.39221382141113281 0.705805957317352295
-0.160858064889907837 -0.126491785049438477 1.14781534671783447
0.211703643202781677 1.42456161975860596 0.325111091136932373
0.157937735319137573 1.25136017799377441 0.475654929876327515
1.09966254234313965 -1.85749006271362305 0.589844822883605957
-0.385058820247650146 -0.375388294458389282 0.544755101203918457
-0.0186868831515312195 0.855255365371704102 0.313092291355133057
0.758831024169921875 1.3845294713973999 0.516953945159912109
0.524874210357666016 1.51914119720458984 1.14202868938446045
1.28281259536743164 0.786890387535095215 -0.0539475679397583008
-0.686343729496002197 0.422115325927734375 0.64040684700012207
-0.63829493522644043 1.1199805736541748 0.243199199438095093
1.3388209342956543 -2.02038383483886719 0.54285883903503418
1.26333737373352051 -1.76564311981201172 0.730762124061584473
1.13210499286651611 -1.43855786323547363 0.303970187902450562
-0.451066404581069946 -0.514375388622283936 0.322562098503112793
0.943492114543914795 -1.49806034564971924 0.729581117630004883
-0.125442922115325928 1.40611720085144043 0.650945127010345459
-0.32715839147567749 1.34814715385437012 0.479395508766174316
0.549497365951538086 0.659072220325469971 0.798070788383483887
0.572671294212341309 1.74779725074768066 0.503403306007385254
-0.926216721534729004 1.29937028884887695 0.0833195745944976807
0.449166387319564819 1.62691593170166016 0.639248847961425781
-0.0684667229652404785 -0.356872051954269409 0.916791141033172607
1.58522439002990723 -2.00949239730834961 -0.487308382987976074
1.86627364158630371 1.30314171314239502 0.334027647972106934
0.598431587219238281 0.868543744087219238 0.767677903175354004
-0.418139666318893433 0.679811000823974609 0.4680805504322052
-0.48506927490234375 -0.120660066604614258 0.845402717590332031
1.97389185428619385 1.04028308391571045 0.295289754867553711
-0.125168025493621826 1.50169539451599121 0.140369981527328491
0.997947990894317627 0.681791186332702637 0.518071293830871582
0.711231589317321777 1.22543144226074219 0.867138147354125977
0.94544607400894165 -0.905362844467163086 0.43554764986038208
-0.804083287715911865 1.4901270866394043 0.205161452293395996
-0.477525919675827026 1.05603063106536865 0.425845801830291748
-0.646848440170288086 -0.438285529613494873 0.831480264663696289
-0.524671554565429688 -0.590780854225158691 0.66740185022354126
-0.453881680965423584 0.954780340194702148 0.672954797744750977
-0.0936055183410644531 1.64737129211425781 0.355468451976776123
-0.78124922513961792 1.03340625762939453 -0.220035865902900696
-0.823591828346252441 -0.187284395098686218 0.300794899463653564
-0.514460563659667969 1.64548730850219727 0.346473008394241333
-1.0003281831741333 0.896779179573059082 -0.0493907183408737183
0.913292169570922852 0.586716771125793457 -0.274716019630432129
1.74139165878295898 1.03691434860229492 0.741106271743774414
-0.115913957357406616 1.07716155052185059 0.15238422155380249
1.00226032733917236 -0.452626943588256836 0.433348476886749268
0.767010211944580078 1.03798890113830566 0.867330551147460938
-0.535592436790466309 1.87113666534423828 0.249040454626083374
-0.605434715747833252 1.29105997085571289 0.443671643733978271
0.133090466260910034 1.39878654479980469 0.0283244401216506958
-0.678116738796234131 0.225325345993041992 0.572785735130310059
1.17247867584228516 0.163642227649688721 0.297851264476776123
0.350922465324401855 1.42497694492340088 0.582317352294921875
-0.22171485424041748 1.20093584060668945 0.367592006921768188
-0.878320932388305664 1.30748414993286133 0.26698729395866394
-0.84703516960144043 1.04860603809356689 -0.0427183546125888824
0.886846303939819336 -1.43842017650604248 0.516946911811828613
-1.02660512924194336 -0.260669469833374023 0.325127333402633667
0.840613126754760742 0.551151394844055176 0.155899226665496826
1.0569007396697998 -1.27990520000457764 0.60701519250869751
-0.612465500831604004 1.41704010963439941 0.108638182282447815
-0.263501167297363281 1.06495630741119385 0.87117236852645874
0.690520048141479492 1.34009313583374023 0.722387254238128662
1.07350373268127441 0.803265690803527832 0.285213291645050049
0.0621189475059509277 1.44004321098327637 0.434053510427474976
-0.7599295973777771 1.05084609985351562 0.518560469150543213
1.07813525199890137 0.589097976684570312 0.110943973064422607
1.77475869655609131 0.952467441558837891 0.450327396392822266
1.37612509727478027 -1.47873544692993164 0.481323897838592529
0.98727869987487793 0.165977299213409424 0.292518526315689087
-0.286673694849014282 1.01821684837341309 0.619169771671295166
2.00285029411315918 1.13871371746063232 0.6608734130859375
0.779425501823425293 1.50466716289520264 0.699059247970581055
0.0970484614372253418 1.27631282806396484 0.305792868137359619
1.91604983806610107 1.53001618385314941 0.955215513706207275
-0.332115858793258667 1.34622764587402344 0.210622817277908325
1.12898576259613037 -1.61832380294799805 0.427986651659011841
1.34385538101196289 0.255985498428344727 0.246536299586296082
1.46189403533935547 -2.34326410293579102 -0.0553230643272399902
-0.22469562292098999 0.823872566223144531 0.404981851577758789
-0.643421649932861328 0.0569809675216674805 0.529333770275115967
1.47484111785888672 -2.24241399765014648 0.371033728122711182
1.63855600357055664 -2.13811826705932617 0.11100836843252182
-0.633482515811920166 0.998728275299072266 0.116441287100315094
-1.26229572296142578 -0.342538654804229736 0.668645858764648438
-0.455456316471099854 0.94709247350692749 0.0328762233257293701
-1.00427472591400146 -0.432477295398712158 0.555456042289733887
0.982209205627441406 -0.169739782810211182 0.0942540764808654785
0.278196513652801514 1.14758658409118652 0.900083422660827637
-1.11677825450897217 -0.414944946765899658 0.282326400279998779
-0.440006464719772339 -0.55617678165435791 0.817134857177734375
1.08265864849090576 -1.69588232040405273 0.857043266296386719
-0.648515939712524414 0.710246503353118896 0.321968019008636475
0.559606552124023438 1.07958579063415527 1.27329576015472412
0.561595320701599121 1.86455392837524414 0.638118863105773926
0.99333113431930542 -1.7816624641418457 0.98418736457824707
-0.234044879674911499 -0.450696617364883423 0.532925844192504883
