ply
format ascii 1.0
element vertex 48
comment vertices
property float x
property float y
property float z
end_header
-0.629828095436096191 -0.72708284854888916 0.404941737651824951
-0.882542669773101807 0.472110569477081299 0.362128973007202148
-1.25149619579315186 1.62154304981231689 0.0863628536462783813
-0.880556702613830566 0.474391788244247437 0.368321865797042847
0.326179087162017822 -0.945003867149353027 0.0746123641729354858
-1.22165238857269287 1.62228274345397949 0.070182308554649353
-0.877655267715454102 0.502890467643737793 0.380404770374298096
0.293576151132583618 -0.95244133472442627 0.0764322280883789062
-1.22933864593505859 1.63458013534545898 0.0801663994789123535
0.300583451986312866 -0.961815536022186279 0.0666913837194442749
0.325914829969406128 -0.954452037811279297 0.0625133737921714783
-1.2128603458404541 1.63304579257965088 0.0645071715116500854
-0.881038129329681396 0.469585388898849487 0.360322445631027222
-0.881214797496795654 0.472109735012054443 0.371923685073852539
-1.94595885276794434 -0.719752252101898193 0.36905023455619812
-0.888839364051818848 0.475172430276870728 0.367817580699920654
-0.886247634887695312 0.463012963533401489 0.374695241451263428
-0.86561274528503418 0.477737933397293091 0.368912160396575928
0.322130560874938965 -0.95284724235534668 0.0644046887755393982
-1.21913063526153564 1.62402951717376709 0.0732617080211639404
-0.858124136924743652 0.500784337520599365 0.359132528305053711
-0.874034345149993896 0.46897578239440918 0.365889072418212891
-0.891618728637695312 0.513358354568481445 0.368712544441223145
-0.893590629100799561 0.469734400510787964 0.387257039546966553
-1.21800243854522705 1.62562286853790283 0.0711162984371185303
0.292439818382263184 -0.948471248149871826 0.0790413320064544678
-0.847326457500457764 0.466081142425537109 0.368189036846160889
-1.23398339748382568 1.64139962196350098 0.0760906562209129333
-1.23017096519470215 1.59109973907470703 0.0623484104871749878
-0.889230430126190186 0.472878813743591309 0.372210323810577393
0.291491955518722534 -0.948787450790405273 0.0775552466511726379
-0.871375799179077148 0.480149328708648682 0.373657256364822388
-0.872290372848510742 0.476076841354370117 0.374173134565353394
-0.8954734206199646 0.468793034553527832 0.367490828037261963
0.321362435817718506 -0.952184438705444336 0.0621186494827270508
-0.867968201637268066 0.46525883674621582 0.362246334552764893
0.316564977169036865 -0.947465002536773682 0.0667950659990310669
0.314807295799255371 -0.940537154674530029 0.0702139437198638916
-1.214516282081604 1.63339877128601074 0.0627248287200927734
-1.22688388824462891 1.63519537448883057 0.0761256366968154907
0.307201743125915527 -0.941769242286682129 0.0747421532869338989
0.313512831926345825 -0.953075587749481201 0.0657425001263618469
0.290431559085845947 -0.94317936897277832 0.0798934400081634521
-1.21737480163574219 1.63264501094818115 0.0711271315813064575
-0.887923121452331543 0.503670454025268555 0.384233206510543823
-0.889572858810424805 0.477460622787475586 0.362018108367919922
-1.22249102592468262 1.62833261489868164 0.0722437798976898193
0.324795931577682495 -0.954101920127868652 0.0654372274875640869
