ply
format ascii 1.0
element vertex 256
comment vertices
property float x
property float y
property float z
end_header
0.463191181421279907 1.97386980056762695 0.129481285810470581
0.278957188129425049 -1.60487711429595947 0.269726097583770752
0.609039187431335449 -1.86691272258758545 0.333197176456451416
-0.782704174518585205 0.587160706520080566 0.113989204168319702
0.596655428409576416 0.652677953243255615 0.243109524250030518
0.161458536982536316 -0.89657747745513916 0.132882833480834961
-1.03640997409820557 -1.44065344333648682 0.0920672714710235596
1.22679305076599121 -1.6568981409072876 0.434388458728790283
0.672923088073730469 0.720224261283874512 0.145245969295501709
1.39561295509338379 -1.31332767009735107 0.50278240442276001
0.267379820346832275 -1.84561324119567871 0.229695707559585571
0.353301674127578735 -0.969195008277893066 0.106252320110797882
0.646033883094787598 0.774271488189697266 0.0705845654010772705
-0.463338851928710938 -0.886160612106323242 0.11941075325012207
-0.0487660132348537445 -2.00482797622680664 0.136411219835281372
-0.752285778522491455 0.653038084506988525 0.0692646205425262451
1.37150847911834717 -1.54903173446655273 0.444041430950164795
1.1875464916229248 -1.47223126888275146 0.445036947727203369
0.603938698768615723 0.691996395587921143 0.166987985372543335
-0.710562586784362793 0.538069725036621094 0.0609347522258758545
0.444897323846817017 1.96155846118927002 0.154300451278686523
0.760254859924316406 0.767418920993804932 0.118056297302246094
1.38234603404998779 -1.37502074241638184 0.482167303562164307
0.298365175724029541 -0.928235054016113281 0.114840269088745117
-1.13251578807830811 -1.61657345294952393 0.123046189546585083
1.38847970962524414 -1.67197918891906738 0.441191911697387695
0.815528750419616699 -1.98494958877563477 0.27078557014465332
0.644636809825897217 0.662249922752380371 0.184695720672607422
-0.850632607936859131 -1.70826971530914307 0.0775277614593505859
1.38497984409332275 -1.32371914386749268 0.517762124538421631
1.33028042316436768 -1.46237695217132568 0.440115690231323242
0.528855383396148682 -1.74562036991119385 0.317202717065811157
0.370500326156616211 -0.961393892765045166 0.122262679040431976
1.16681516170501709 -1.60130500793457031 0.454813331365585327
0.624357402324676514 0.725673377513885498 0.153797626495361328
-0.863038778305053711 0.67549586296081543 0.0842690169811248779
0.273887425661087036 -0.984501838684082031 0.134738385677337646
0.697451174259185791 0.827467679977416992 0.264388710260391235
0.744268953800201416 0.755904674530029297 0.273163080215454102
1.11334621906280518 -1.45905649662017822 0.393922954797744751
1.15763366222381592 -1.64059484004974365 0.469810783863067627
-1.07626187801361084 -1.54482889175415039 0.07537117600440979
0.454548656940460205 1.9929959774017334 0.131261914968490601
0.665090084075927734 0.70139467716217041 0.196428164839744568
0.471558690071105957 1.98499798774719238 0.149970024824142456
-1.14247334003448486 -1.59774971008300781 0.0355369448661804199
-1.1378486156463623 -1.75380396842956543 0.0852608680725097656
1.31901693344116211 -1.5225214958190918 0.390205740928649902
0.705554604530334473 0.759447932243347168 0.309842735528945923
0.537712335586547852 -1.94964516162872314 0.286219805479049683
1.22942113876342773 -1.49345564842224121 0.484917163848876953
0.200090646743774414 -0.956089496612548828 0.115416213870048523
0.279979288578033447 -1.99961590766906738 0.232358992099761963
1.27640199661254883 -1.47284865379333496 0.506914973258972168
0.755506396293640137 0.772485077381134033 0.12650105357170105
0.423397183418273926 2.00736761093139648 0.152842208743095398
0.508485972881317139 0.725306034088134766 0.204500198364257812
0.44858473539352417 0.744612276554107666 0.276132494211196899
1.33451807498931885 -1.44461822509765625 0.414639532566070557
0.171974271535873413 -1.00757277011871338 0.134565621614456177
0.748699307441711426 -1.90285265445709229 0.304809898138046265
0.621592402458190918 0.739093661308288574 0.147842109203338623
1.36329460144042969 -1.73117613792419434 0.370465248823165894
0.600827336311340332 -1.83035516738891602 0.278964459896087646
-0.828403770923614502 -1.6989750862121582 0.0329687893390655518
0.457904905080795288 1.95802247524261475 0.12847369909286499
0.327195167541503906 -0.966059744358062744 0.119770444929599762
0.645364105701446533 0.686054110527038574 0.183743387460708618
1.20050573348999023 -1.57624423503875732 0.449931114912033081
0.683196842670440674 0.756610453128814697 0.266755044460296631
0.469266682863235474 2.00499725341796875 0.15651211142539978
1.23644828796386719 -1.47550427913665771 0.481224596500396729
0.30142676830291748 -0.969906449317932129 0.129482656717300415
0.771787762641906738 0.778773248195648193 0.164442121982574463
0.733598649501800537 0.717148661613464355 0.232443630695343018
0.540056228637695312 0.722385704517364502 0.171098977327346802
0.399343341588973999 -1.83241236209869385 0.269621908664703369
0.33606332540512085 -0.963869929313659668 0.120314367115497589
-1.14793670177459717 -1.59016323089599609 0.075113147497177124
0.468009769916534424 2.00735020637512207 0.150020420551300049
0.4615650475025177 1.97732234001159668 0.139027148485183716
1.2007753849029541 -1.49344992637634277 0.440423965454101562
0.279617488384246826 -0.982297539710998535 0.131283491849899292
0.263190478086471558 -1.86250972747802734 0.29221460223197937
0.66664421558380127 0.744383931159973145 0.195920512080192566
0.330114483833312988 -0.950378954410552979 0.121364392340183258
-0.206570997834205627 -1.95796847343444824 0.13764655590057373
-1.0768507719039917 -1.60064804553985596 0.0566657781600952148
0.528182446956634521 0.783604681491851807 0.220370978116989136
1.3640294075012207 -1.53181242942810059 0.416872709989547729
0.315518677234649658 -0.978653609752655029 0.120809987187385559
0.460214614868164062 2.00398063659667969 0.155816987156867981
0.118927367031574249 -0.921883165836334229 0.127246931195259094
-0.451563537120819092 -0.90908503532409668 0.11571049690246582
0.458596646785736084 1.94537711143493652 0.144633203744888306
0.745258688926696777 1.0845712423324585 0.200066089630126953
0.624810099601745605 0.752445220947265625 0.169714838266372681
0.461516916751861572 1.97201800346374512 0.133934259414672852
0.735934972763061523 0.754114508628845215 0.259124100208282471
-0.476527571678161621 -0.889566898345947266 0.10089188814163208
0.322433710098266602 -0.968308687210083008 0.120247267186641693
0.494915187358856201 -1.89249730110168457 0.261701643466949463
-0.754696846008300781 0.589217722415924072 0.11036112904548645
0.971293330192565918 -1.63277840614318848 0.489384472370147705
0.573788464069366455 0.738692283630371094 0.18868120014667511
0.673456311225891113 0.842203378677368164 0.168926775455474854
0.461066216230392456 1.98232579231262207 0.151954531669616699
-1.12279593944549561 -1.6477123498916626 0.0629648864269256592
0.215444743633270264 -0.97140800952911377 0.129876703023910522
0.453354299068450928 2.00858116149902344 0.143516898155212402
0.731201052665710449 0.629351258277893066 0.236450940370559692
-0.8352242112159729 -1.41481375694274902 0.105308681726455688
0.570019185543060303 0.774725735187530518 0.172463864088058472
0.280660092830657959 -0.987080097198486328 0.132757693529129028
1.25448405742645264 -1.60758531093597412 0.478550732135772705
0.788818120956420898 -1.72616279125213623 0.42898675799369812
0.886759519577026367 -1.72873449325561523 0.507520198822021484
0.485100746154785156 0.675633728504180908 0.278666555881500244
0.572750508785247803 0.73440253734588623 0.213220745325088501
0.46507948637008667 1.98246312141418457 0.143535509705543518
0.224370300769805908 -0.985215544700622559 0.128110587596893311
0.716335415840148926 0.762992382049560547 0.240412086248397827
0.367638170719146729 -0.954901218414306641 0.117762483656406403
0.334024041891098022 -0.96333843469619751 0.118703126907348633
1.2333451509475708 -1.46846246719360352 0.483772814273834229
0.455026566982269287 1.96902644634246826 0.141728371381759644
0.679041385650634766 0.822617292404174805 0.300903499126434326
-0.794481992721557617 0.583770990371704102 0.0869079232215881348
0.286104083061218262 -0.974200785160064697 0.128125756978988647
0.731928348541259766 0.755103886127471924 0.128708094358444214
0.535199284553527832 0.807878196239471436 0.215153902769088745
1.19539523124694824 -1.59476864337921143 0.447256565093994141
0.626825928688049316 0.819173276424407959 0.231438010931015015
1.07681632041931152 -1.46721756458282471 0.386829972267150879
-0.426049232482910156 -1.70427155494689941 0.0567666292190551758
0.456641167402267456 1.95513153076171875 0.132036536931991577
-1.12825071811676025 -1.70421433448791504 0.0463449954986572266
-0.08116903156042099 -1.9393157958984375 0.243263572454452515
1.35174798965454102 -1.50050365924835205 0.389543205499649048
0.0500542372465133667 -0.964189231395721436 0.115009039640426636
0.0873481631278991699 -1.87237370014190674 0.242048531770706177
0.602711677551269531 0.761125504970550537 0.192988693714141846
0.558978736400604248 0.813269913196563721 0.234784185886383057
-0.752273201942443848 0.579822540283203125 0.0939154326915740967
0.747277259826660156 0.74130094051361084 0.260295391082763672
0.781936049461364746 0.794196069240570068 0.166863679885864258
1.22538137435913086 -1.48091208934783936 0.446727663278579712
0.622504949569702148 0.686226487159729004 0.23729570209980011
0.362893402576446533 -2.0151982307434082 0.240899592638015747
0.470933914184570312 2.0491330623626709 0.149769708514213562
0.402872383594512939 -1.9367668628692627 0.251796245574951172
1.37167489528656006 -1.68115437030792236 0.427574425935745239
0.355316579341888428 -1.95137250423431396 0.239192098379135132
0.194286420941352844 -1.0096285343170166 0.134729191660881042
0.885797858238220215 -1.81657624244689941 0.306659519672393799
0.294708967208862305 -0.969088256359100342 0.132699400186538696
0.655508875846862793 0.792265832424163818 0.245549276471138
0.571090400218963623 0.673874378204345703 0.187913060188293457
0.432587206363677979 1.98722124099731445 0.138352766633033752
1.21233320236206055 -1.44122302532196045 0.537528872489929199
0.634727120399475098 -1.6091313362121582 0.356397926807403564
0.468883693218231201 2.003662109375 0.141352921724319458
0.308904409408569336 -2.01823568344116211 0.247306525707244873
0.448788255453109741 2.00890278816223145 0.15188029408454895
0.626773357391357422 -1.84454548358917236 0.297914087772369385
0.690047979354858398 0.779640793800354004 0.143529757857322693
-0.768966913223266602 0.613086402416229248 0.0992686152458190918
0.736100316047668457 -1.87771284580230713 0.485850870609283447
0.279426395893096924 -0.977670490741729736 0.129017949104309082
1.09103083610534668 -1.65724658966064453 0.502499282360076904
0.678000450134277344 0.78345644474029541 0.0680873990058898926
-1.09366536140441895 -1.67956733703613281 0.0875666141510009766
0.671963214874267578 0.703063488006591797 0.217646747827529907
0.364278137683868408 -0.967267334461212158 0.120392836630344391
1.3852919340133667 -1.37273859977722168 0.478617727756500244
0.356327146291732788 -0.957728862762451172 0.109957367181777954
0.837218403816223145 -1.86930131912231445 0.293471276760101318
0.459375202655792236 1.97096109390258789 0.133323773741722107
0.287762224674224854 -0.979897797107696533 0.135386943817138672
0.459403961896896362 1.9930194616317749 0.130441635847091675
-0.389045894145965576 -1.63531410694122314 0.0897127389907836914
0.620460927486419678 0.735987186431884766 0.21758270263671875
1.19451487064361572 -1.49693310260772705 0.428768843412399292
0.539637446403503418 0.822080135345458984 0.220311954617500305
-0.0816378146409988403 -0.925024509429931641 0.0817545056343078613
0.470395028591156006 1.99663734436035156 0.153143614530563354
0.319976449012756348 -0.95387643575668335 0.120257414877414703
0.322090417146682739 -0.967879891395568848 0.119507953524589539
0.618358850479125977 0.779141068458557129 0.242776304483413696
1.38049602508544922 -1.37028706073760986 0.483409106731414795
1.07878446578979492 -1.4432675838470459 0.361320585012435913
0.618600547313690186 0.646255195140838623 0.153652101755142212
0.913347482681274414 -1.36876678466796875 0.425486952066421509
1.33643007278442383 -1.47279322147369385 0.421724945306777954
1.02814102172851562 -1.54544806480407715 0.405666381120681763
0.617360889911651611 0.662981808185577393 0.217159867286682129
-0.175801247358322144 0.553446769714355469 0.0974555313587188721
0.447596520185470581 1.96726131439208984 0.138552069664001465
-0.78243488073348999 0.61317521333694458 0.092164844274520874
-0.281200438737869263 -1.93665647506713867 0.0396379530429840088
-0.352935999631881714 -1.9249415397644043 0.042904585599899292
-0.772917509078979492 -1.20499765872955322 0.0463938415050506592
0.65413588285446167 0.810058355331420898 0.261180102825164795
0.42816925048828125 1.99757540225982666 0.146700590848922729
0.642877876758575439 0.626348257064819336 0.269181966781616211
0.372023165225982666 -0.960056960582733154 0.122975945472717285
0.282613515853881836 -0.974436700344085693 0.130299925804138184
0.298933357000350952 -0.992711722850799561 0.126042097806930542
0.487675935029983521 2.07238531112670898 0.150974690914154053
-0.844751060009002686 -1.72037804126739502 0.045830070972442627
0.667769312858581543 0.793476223945617676 0.0550378262996673584
0.786918282508850098 0.770540952682495117 0.165499776601791382
0.461140990257263184 1.98062074184417725 0.147252142429351807
0.617994725704193115 0.797973215579986572 0.259134680032730103
0.329486101865768433 -0.960983395576477051 0.12010541558265686
0.337278395891189575 -0.986253619194030762 0.108303308486938477
0.580460071563720703 0.686300039291381836 0.151724904775619507
0.51077425479888916 0.801653087139129639 0.227347671985626221
0.196256861090660095 -0.897243857383728027 0.13924330472946167
0.447316199541091919 1.97010612487792969 0.146392717957496643
0.464516788721084595 2.00330924987792969 0.151495039463043213
-0.429354548454284668 -0.967167973518371582 0.138786613941192627
0.36179816722869873 -0.972109675407409668 0.118370920419692993
0.626894235610961914 0.853498935699462891 0.124705076217651367
0.739079594612121582 0.768515110015869141 0.131761372089385986
0.570655524730682373 0.673706293106079102 0.197047889232635498
0.565701484680175781 0.741854667663574219 0.171944886445999146
0.467672973871231079 2.01252317428588867 0.145746618509292603
0.37022814154624939 -0.970925092697143555 0.120150364935398102
0.411577582359313965 0.696442604064941406 0.255220115184783936
0.329321891069412231 -0.973724663257598877 0.113051705062389374
0.688527107238769531 0.790872395038604736 0.200716465711593628
0.531654536724090576 0.804230391979217529 0.223839744925498962
1.19018173217773438 -1.50285458564758301 0.467705577611923218
0.274305611848831177 -0.978378653526306152 0.131725192070007324
0.707753837108612061 0.765584230422973633 0.0878688693046569824
0.280591636896133423 -0.962003767490386963 0.128174275159835815
0.729897856712341309 0.754111111164093018 0.262081921100616455
0.75979083776473999 -1.95789539813995361 0.268463194370269775
0.465717315673828125 1.99388611316680908 0.137124717235565186
-1.10630416870117188 -1.68237757682800293 0.141854912042617798
1.03028535842895508 -1.56665539741516113 0.406946182250976562
0.442274957895278931 1.96894419193267822 0.133913084864616394
0.33820614218711853 -0.963484406471252441 0.118743598461151123
0.117084667086601257 -0.930070936679840088 0.122132554650306702
-0.465565919876098633 -1.00207924842834473 0.0473184585571289062
1.34234607219696045 -1.77844715118408203 0.372110098600387573
-0.513242602348327637 -0.900733828544616699 0.100588709115982056
0.652497231960296631 0.765751183032989502 0.14296683669090271
0.357099682092666626 -0.952653408050537109 0.109981149435043335
0.135259717702865601 -0.91623920202255249 0.128952071070671082
0.451268106698989868 1.95783710479736328 0.143457964062690735
0.433763176202774048 1.99538612365722656 0.152538180351257324
0.610205173492431641 0.858381032943725586 0.233765006065368652
0.466397732496261597 2.00127315521240234 0.145836323499679565
1.20532488822937012 -1.5296865701675415 0.474462240934371948
