ply
format ascii 1.0
element vertex 175
comment vertices
property float x
property float y
property float z
end_header
-0.12791973352432251 -1.85120558738708496 0.356614470481872559
-1.75791788101196289 -1.00467085838317871 0.0488398820161819458
-0.32519260048866272 1.92045843601226807 0.436791777610778809
-0.268864870071411133 0.968206524848937988 0.0527422875165939331
0.714285314083099365 -1.8941882848739624 0.307482481002807617
-0.311981409788131714 1.9821021556854248 0.427182525396347046
-0.837690353393554688 -0.503694772720336914 0.0715999305248260498
1.52848505973815918 -1.31507551670074463 0.486840277910232544
0.312460780143737793 -0.952292144298553467 0.3966045081615448
-0.333596408367156982 1.96036195755004883 0.414334923028945923
0.309236317873001099 -0.953263938426971436 0.398550152778625488
-0.204444512724876404 2.0970301628112793 0.447998702526092529
-1.63502776622772217 -0.960624456405639648 0.0461802780628204346
0.247156828641891479 -0.946493327617645264 0.412022292613983154
-0.253580987453460693 0.938635110855102539 0.0877415388822555542
1.308510422706604 -1.3756176233291626 0.493424415588378906
-0.598972976207733154 -1.93890166282653809 0.370327383279800415
0.315406054258346558 -0.932530999183654785 0.381841838359832764
-1.44676923751831055 1.34336757659912109 0.261290162801742554
-0.381059587001800537 2.04869270324707031 0.425993502140045166
-1.76122391223907471 -1.00319135189056396 0.0500408262014389038
-0.267175257205963135 0.962263107299804688 0.0570049285888671875
0.315257519483566284 -0.94492948055267334 0.408737540245056152
0.67254263162612915 -1.83897721767425537 0.334678918123245239
0.374113082885742188 -0.99765479564666748 0.364594906568527222
0.407479822635650635 -0.86950528621673584 0.366306543350219727
0.324161112308502197 -0.946107327938079834 0.414517581462860107
1.46133899688720703 -1.37109196186065674 0.466315746307373047
-0.335128188133239746 1.92717075347900391 0.435343772172927856
-0.116948306560516357 2.04614162445068359 0.408976942300796509
-0.247480154037475586 0.919260084629058838 0.0691004693508148193
0.800135016441345215 -1.89888548851013184 0.357905060052871704
-1.70985937118530273 -0.998470783233642578 0.0441422462463378906
-0.617708504199981689 -1.87495255470275879 0.355575710535049438
-0.354985296726226807 1.92904019355773926 0.418216317892074585
0.325782805681228638 -1.01892495155334473 0.378124058246612549
-0.861965954303741455 -0.51656043529510498 0.0716126561164855957
-0.568769514560699463 -1.89229071140289307 0.316137582063674927
1.3616325855255127 -1.32481491565704346 0.443430155515670776
0.331741094589233398 -0.966538429260253906 0.393143028020858765
0.842674732208251953 -0.966850876808166504 0.428923606872558594
0.349515974521636963 -0.826102614402770996 0.389836609363555908
-0.854903459548950195 -0.506352365016937256 0.0705462098121643066
0.0635030865669250488 2.11911201477050781 0.377740621566772461
-0.866033375263214111 -0.493313372135162354 0.074303746223449707
0.333879351615905762 -0.956394791603088379 0.386781841516494751
-1.73498082160949707 -1.00981307029724121 0.0347469747066497803
-1.51376187801361084 1.25824058055877686 0.269708335399627686
0.314523041248321533 -1.02274429798126221 0.411722153425216675
0.557208001613616943 -1.11011147499084473 0.386910498142242432
-0.26050412654876709 0.949137628078460693 0.0473226830363273621
0.336067378520965576 -0.971774041652679443 0.396975159645080566
-1.4627070426940918 1.31133079528808594 0.280669093132019043
-0.844471573829650879 -0.521274268627166748 0.0866740942001342773
0.31834295392036438 -0.950610041618347168 0.402005434036254883
-1.53532147407531738 1.26501858234405518 0.26724010705947876
0.331239998340606689 -1.0291978120803833 0.410643875598907471
-0.569293975830078125 -1.86573219299316406 0.380577653646469116
-0.0213996171951293945 2.05618190765380859 0.440418988466262817
1.14955985546112061 -1.38583517074584961 0.350682884454727173
-0.193530872464179993 1.98663365840911865 0.395020872354507446
-0.328795880079269409 1.99388504028320312 0.421830594539642334
-0.0742007344961166382 2.11929607391357422 0.412681221961975098
0.329251468181610107 -0.930116355419158936 0.389131903648376465
1.37181007862091064 -1.29564297199249268 0.423465073108673096
-0.273719489574432373 2.13665437698364258 0.41958966851234436
-1.46539163589477539 1.30539846420288086 0.270199984312057495
0.739518880844116211 -1.78744626045227051 0.234517514705657959
-0.252529233694076538 2.10960769653320312 0.390557706356048584
1.43834257125854492 -1.3577117919921875 0.466842591762542725
0.333681344985961914 -1.09528207778930664 0.399669557809829712
0.231225445866584778 -0.957545876502990723 0.416254609823226929
1.29530632495880127 -1.38557195663452148 0.501808524131774902
1.31992030143737793 -1.40648949146270752 0.447880029678344727
0.63138890266418457 -1.6862342357635498 0.329257786273956299
0.268033087253570557 -0.969583451747894287 0.417451292276382446
-1.53272545337677002 1.12206470966339111 0.340640008449554443
-0.560446262359619141 -1.89371001720428467 0.379291385412216187
0.352560162544250488 -0.972296476364135742 0.406998097896575928
0.114139586687088013 2.05731415748596191 0.36313319206237793
-0.560627758502960205 -1.82273423671722412 0.375967174768447876
-0.862915396690368652 -0.509678125381469727 0.0714846998453140259
-1.45433211326599121 1.2942664623260498 0.267385661602020264
-0.258963435888290405 0.944978773593902588 0.0728790983557701111
-0.845948338508605957 -0.481801867485046387 0.077334083616733551
0.304678261280059814 -0.989301443099975586 0.410728573799133301
-0.00730174779891967773 2.06715178489685059 0.405818074941635132
0.202851593494415283 2.00516462326049805 0.358703583478927612
0.340157598257064819 -0.90514671802520752 0.399260997772216797
-1.4619605541229248 1.32965850830078125 0.270249366760253906
-0.654358983039855957 -1.8940359354019165 0.3818245530128479
-0.334568202495574951 2.09672880172729492 0.425527304410934448
0.368034154176712036 -1.13440203666687012 0.404835313558578491
0.367439061403274536 -1.09352445602416992 0.368393242359161377
0.327684015035629272 -1.0597536563873291 0.366699337959289551
-0.861723363399505615 -0.491804987192153931 0.0771242305636405945
-1.72310507297515869 -1.0043635368347168 0.0411386787891387939
0.908411562442779541 -1.2375413179397583 0.429756641387939453
0.852676689624786377 -1.80113565921783447 0.34853208065032959
-0.596413135528564453 -1.87124645709991455 0.361618965864181519
0.322224318981170654 -0.945815920829772949 0.397099047899246216
0.326746106147766113 -1.04796648025512695 0.391588151454925537
-0.266953706741333008 0.956939637660980225 0.0602506697177886963
0.342352867126464844 -0.970691025257110596 0.399060547351837158
-1.72424781322479248 -1.00493693351745605 0.0505575984716415405
0.331710159778594971 -0.942962646484375 0.388722628355026245
-0.31865200400352478 1.96429038047790527 0.434091359376907349
-0.264376372098922729 0.946132659912109375 0.0750433355569839478
-1.44987154006958008 1.27985453605651855 0.261194914579391479
-0.264307290315628052 0.954086244106292725 0.0631848722696304321
0.605234622955322266 -1.69625568389892578 0.300980597734451294
0.314281970262527466 -1.0994492769241333 0.393468886613845825
-1.73023426532745361 -0.99739307165145874 0.0370368510484695435
-1.74266505241394043 -1.00400793552398682 0.0443703532218933105
1.30733716487884521 -1.37824034690856934 0.443304151296615601
1.38969981670379639 -1.29223263263702393 0.457765728235244751
-0.257052332162857056 2.12673091888427734 0.40168076753616333
0.313907831907272339 -0.956799685955047607 0.393884569406509399
-0.268914341926574707 0.969670236110687256 0.0565603524446487427
-0.280537456274032593 1.95334374904632568 0.436266690492630005
0.339228898286819458 -1.08013677597045898 0.384415209293365479
0.329922646284103394 -0.936388552188873291 0.374141216278076172
0.62051844596862793 -1.80460941791534424 0.329224944114685059
1.41252517700195312 -1.32207918167114258 0.496646463871002197
-0.85087740421295166 -0.519448220729827881 0.0725770294666290283
-0.861809313297271729 -0.514634668827056885 0.0656422674655914307
1.46775412559509277 -1.34759974479675293 0.452200353145599365
-0.299812734127044678 1.96842086315155029 0.424850761890411377
-0.254910111427307129 0.93491661548614502 0.0790612474083900452
0.318069577217102051 -0.948402762413024902 0.403698205947875977
-0.335609614849090576 1.97488152980804443 0.394518911838531494
-1.3390498161315918 1.11463356018066406 0.266748160123825073
0.358594059944152832 -1.468314528465271 0.304055154323577881
-1.43374764919281006 1.23021292686462402 0.279627531766891479
-0.862885415554046631 -0.516898274421691895 0.0695624127984046936
-0.574131488800048828 -1.86242413520812988 0.388405740261077881
0.3049355149269104 -0.950623095035552979 0.386922359466552734
-0.332450389862060547 1.97715020179748535 0.418004155158996582
0.328619599342346191 -1.06970441341400146 0.380659520626068115
0.349937021732330322 -1.02111828327178955 0.388401925563812256
1.58734679222106934 -1.18796801567077637 0.496313959360122681
-1.4481428861618042 1.3268740177154541 0.263931214809417725
-0.652901589870452881 -1.87390673160552979 0.345907807350158691
-0.856360673904418945 -0.521123170852661133 0.0715622901916503906
0.347909092903137207 -0.860740423202514648 0.399599254131317139
1.37898433208465576 -1.29130709171295166 0.422334849834442139
-0.434443175792694092 -1.85525810718536377 0.413223028182983398
0.259462803602218628 -1.00743639469146729 0.35592573881149292
-0.0577515363693237305 2.06590032577514648 0.398354142904281616
0.136342883110046387 2.13269996643066406 0.322110265493392944
-0.263727396726608276 0.952249050140380859 0.0605161786079406738
1.5128709077835083 -1.27067506313323975 0.49080049991607666
-1.20925462245941162 1.50438296794891357 0.305746227502822876
-1.45603752136230469 1.2989044189453125 0.267865180969238281
-0.579872548580169678 -1.87669169902801514 0.353453516960144043
-0.335740208625793457 1.93229198455810547 0.432254314422607422
0.515327692031860352 -0.691576480865478516 0.350642859935760498
-0.855430841445922852 -0.505289137363433838 0.065788760781288147
-1.66893768310546875 -0.977703452110290527 0.0342231094837188721
-1.71350538730621338 -1.00621879100799561 0.0415633469820022583
-0.261300086975097656 2.04119491577148438 0.435659021139144897
-0.588525176048278809 -1.87106204032897949 0.374909579753875732
0.332390785217285156 -1.02284252643585205 0.379239678382873535
-0.263731300830841064 0.954248726367950439 0.06515531986951828
1.28514385223388672 -1.40817439556121826 0.457419216632843018
0.262916505336761475 -0.942414999008178711 0.405370891094207764
0.280563890933990479 -1.01337683200836182 0.415572792291641235
-0.261160552501678467 0.958074808120727539 0.0484331920742988586
0.206684291362762451 1.96989047527313232 0.351975470781326294
0.229069113731384277 -1.69059908390045166 0.339037507772445679
-0.852298259735107422 -0.505823016166687012 0.0728089660406112671
-0.339815318584442139 1.93268108367919922 0.430175185203552246
0.558608293533325195 -0.896226882934570312 0.406576484441757202
0.323900938034057617 -1.01265430450439453 0.362795919179916382
-0.599755764007568359 -1.85770201683044434 0.397330522537231445
