ply
format ascii 1.0
element vertex 64
comment vertices
property float x
property float y
property float z
end_header
-0.232622787356376648 -1.30949866771697998 0.389548569917678833
-1.94193780422210693 -2.41496562957763672 0.124046474695205688
0.530054211616516113 1.21981251239776611 0.153850570321083069
-1.16615104675292969 -2.87110996246337891 0.144898161292076111
-0.975415050983428955 0.904137969017028809 0.457287371158599854
1.17475998401641846 -0.623569607734680176 0.349123686552047729
-1.18313217163085938 -0.607534468173980713 0.0651561841368675232
1.54155218601226807 2.68827056884765625 0.193704560399055481
2.32258987426757812 2.05152559280395508 0.264391601085662842
-2.30650806427001953 -2.06958961486816406 0.468592375516891479
-2.26078367233276367 2.11944293975830078 0.325039267539978027
2.92813372611999512 -1.01450216770172119 0.131708130240440369
4.0230097770690918 3.67894673347473145 0.0562223196029663086
-2.84053921699523926 1.23875701427459717 0.101610228419303894
-2.68391609191894531 1.54912102222442627 0.340403616428375244
0.122304238379001617 3.09648561477661133 0.0892749205231666565
0 0 0
0 0 0
0 0 0
0 0 0
0 0 0
0 0 0
0 0 0
0 0 0
0 0 0
0 0 0
0 0 0
0 0 0
0 0 0
0 0 0
0 0 0
0 0 0
0 0 0
0 0 0
0 0 0
0 0 0
0 0 0
0 0 0
0 0 0
0 0 0
0 0 0
0 0 0
0 0 0
0 0 0
0 0 0
0 0 0
0 0 0
0 0 0
0 0 0
0 0 0
0 0 0
0 0 0
0 0 0
0 0 0
0 0 0
0 0 0
0 0 0
0 0 0
0 0 0
0 0 0
0 0 0
0 0 0
0 0 0
0 0 0
