ply
format ascii 1.0
element vertex 256
comment vertices
property float x
property float y
property float z
end_header
0.525863409042358398 1.20999038219451904 0.135247111320495605
-1.16638278961181641 -2.99643969535827637 0.129985898733139038
4.19232988357543945 3.6663210391998291 0.0458372943103313446
-2.97382712364196777 1.33888781070709229 0.0585433654487133026
3.06715679168701172 -1.10652399063110352 0.129617661237716675
-1.13781177997589111 -0.553402423858642578 0.0918438732624053955
2.37606120109558105 2.15223550796508789 0.153313949704170227
0.162851229310035706 3.24752545356750488 0.106151193380355835
1.16941916942596436 -0.643729686737060547 0.465260207653045654
-1.10036242008209229 1.03164100646972656 0.58547675609588623
-2.341552734375 -2.09603977203369141 0.435373634099960327
-0.267542421817779541 -1.50537014007568359 0.346947848796844482
-2.25887036323547363 2.24374175071716309 0.328793495893478394
1.46205604076385498 2.6821742057800293 0.203207775950431824
-1.86285769939422607 -2.60360956192016602 0.118102908134460449
-2.41681194305419922 1.55249857902526855 0.317413419485092163
-2.11551880836486816 -2.25040817260742188 0.117279261350631714
2.32035541534423828 1.82865667343139648 0.304549187421798706
-1.52044558525085449 -2.71311330795288086 0.131321772933006287
-2.76698803901672363 1.48595404624938965 0.322099447250366211
-0.919670522212982178 0.803107142448425293 0.393680721521377563
2.86588549613952637 -0.843913853168487549 0.0776358544826507568
-0.18592207133769989 -1.22312808036804199 0.320078581571578979
-2.70607089996337891 1.27264976501464844 0.0317486003041267395
1.70700275897979736 2.57409954071044922 0.232744738459587097
-2.18421554565429688 1.9875335693359375 0.33061787486076355
-0.837742209434509277 0.975191950798034668 0.567203700542449951
1.3023841381072998 -0.590125441551208496 0.25521281361579895
-1.25731289386749268 -2.77266716957092285 0.0595823638141155243
0.134906798601150513 2.99871039390563965 0.104955613613128662
-2.25936579704284668 -2.28756260871887207 0.316247344017028809
-2.01311898231506348 -2.44217443466186523 0.0184214264154434204
-2.82981300354003906 1.277290940284729 0.233253508806228638
2.94877004623413086 -0.98834681510925293 0.287180334329605103
2.8485875129699707 -1.09388327598571777 0.0599348582327365875
2.43992424011230469 1.86316287517547607 0.135618299245834351
-1.02619993686676025 -2.86148643493652344 0.207546770572662354
-1.25766777992248535 -2.85315728187561035 0.245764285326004028
0.455328285694122314 1.30105102062225342 0.291493088006973267
-1.68242406845092773 -2.57758140563964844 0.181282997131347656
3.0600428581237793 -0.915374040603637695 0.122311398386955261
-0.97955477237701416 1.01357948780059814 0.441999465227127075
2.42559027671813965 1.99554204940795898 0.264278948307037354
1.5335313081741333 2.51378941535949707 0.201161518692970276
-2.61620926856994629 1.39006614685058594 0.298613101243972778
-2.77382540702819824 1.42481040954589844 0.148637175559997559
-1.97851121425628662 -2.29531073570251465 0.217852368950843811
4.04417896270751953 3.5779416561126709 0.0682639032602310181
0.354625940322875977 1.22939050197601318 0.145714715123176575
-0.998123705387115479 0.888628780841827393 0.559288620948791504
0.266847014427185059 3.11392664909362793 0.0822416022419929504
1.60121238231658936 2.65443706512451172 0.339432597160339355
-0.266725242137908936 -1.35712122917175293 0.260887861251831055
-1.88434088230133057 -2.45153188705444336 0.17890891432762146
-2.37926936149597168 -2.18378305435180664 0.27352064847946167
0.0461047366261482239 3.13556528091430664 0.0786928907036781311
-2.20937585830688477 -2.0799095630645752 0.344460546970367432
0.495498299598693848 1.15079307556152344 0.288558810949325562
-2.08133316040039062 -2.40883660316467285 0.153128117322921753
1.31655418872833252 -0.654271721839904785 0.4243430495262146
-2.62616276741027832 1.53605008125305176 0.352385908365249634
-0.179805681109428406 -1.39548051357269287 0.401806354522705078
-0.296297609806060791 -1.30498993396759033 0.398468434810638428
1.17544996738433838 -0.64252007007598877 0.318309396505355835
-2.22340559959411621 -2.32799196243286133 0.17957790195941925
-1.72075426578521729 -2.7111201286315918 0.136289522051811218
-2.24866795539855957 2.12572932243347168 0.243660986423492432
-2.20939540863037109 -2.11603021621704102 0.492680847644805908
2.9429931640625 -1.01336491107940674 0.144063681364059448
-1.11773395538330078 -2.88691163063049316 0.04771452397108078
2.28783392906188965 2.03360342979431152 0.242567256093025208
-1.98686695098876953 -2.30977773666381836 0.0697244256734848022
0.144982874393463135 3.13996362686157227 0.19882868230342865
0.158161282539367676 3.17152190208435059 -0.014925740659236908
-2.80407047271728516 1.19880425930023193 0.104459300637245178
-1.34250319004058838 -2.76850223541259766 0.172163024544715881
-1.87586212158203125 -2.4153587818145752 0.0464502647519111633
-0.873682260513305664 0.930458664894104004 0.43639102578163147
-1.1118851900100708 -0.676017224788665771 0.0445469655096530914
-2.84631085395812988 1.32443451881408691 0.0937320813536643982
-1.09994781017303467 0.954790890216827393 0.477662265300750732
-2.21527791023254395 2.09060549736022949 0.406911849975585938
2.27329897880554199 2.17715144157409668 0.230512291193008423
4.10454559326171875 3.68035173416137695 0.140867516398429871
-2.51356840133666992 1.46728146076202393 0.333563446998596191
0.453393995761871338 1.13213729858398438 0.0614673756062984467
-1.92769360542297363 -2.53920912742614746 0.0211497023701667786
2.78840923309326172 -0.986940443515777588 0.0973329618573188782
1.57965469360351562 2.68421602249145508 0.153925389051437378
2.39913177490234375 2.0055229663848877 0.141851618885993958
-1.1595454216003418 -2.92985343933105469 0.234493851661682129
-2.31900191307067871 -2.2081754207611084 0.389598220586776733
-1.13884127140045166 -0.630449831485748291 0.187140479683876038
-0.136043727397918701 -1.32896816730499268 0.295171678066253662
2.46730184555053711 1.8841252326965332 0.255068421363830566
-2.92030715942382812 1.21051931381225586 0.0881519988179206848
4.09129905700683594 3.72866058349609375 0.0344740822911262512
1.35796093940734863 -0.67480701208114624 0.314703911542892456
-2.70863151550292969 1.35699629783630371 0.21864791214466095
-1.21911263465881348 -0.648262202739715576 0.0802780836820602417
0.398231029510498047 1.20690739154815674 0.254349052906036377
2.35863065719604492 1.91245198249816895 0.218629956245422363
-0.915775656700134277 0.821210682392120361 0.515137314796447754
2.87363862991333008 -0.906514286994934082 0.172388672828674316
-2.19629740715026855 -2.19047141075134277 0.361819356679916382
-2.10887718200683594 -2.26714515686035156 0.227506682276725769
-1.18157017230987549 -2.8517305850982666 0.157845914363861084
-0.960915863513946533 0.992137610912322998 0.553438246250152588
2.94642734527587891 -1.13302803039550781 0.0905451700091362
0.610503256320953369 1.23470973968505859 0.199540510773658752
1.57743966579437256 2.55611109733581543 0.301442712545394897
2.37222027778625488 2.09044718742370605 0.274213105440139771
0.162034302949905396 3.10347437858581543 0.081145942211151123
1.23334217071533203 -0.723823428153991699 0.351889431476593018
1.68084728717803955 2.6738283634185791 0.25370362401008606
-1.77921199798583984 -2.5482947826385498 0.153813228011131287
1.46892869472503662 2.58967757225036621 0.251482665538787842
-0.195347383618354797 -1.28545939922332764 0.416666984558105469
-1.95766282081604004 -2.22960877418518066 0.139436841011047363
-1.06618261337280273 -2.94943451881408691 0.168841272592544556
-2.75777864456176758 1.28302407264709473 0.142291814088821411
-2.67196226119995117 1.45093452930450439 0.388673245906829834
-1.62286841869354248 -2.71355891227722168 0.165886461734771729
-0.881789624691009521 1.04355907440185547 0.44024813175201416
-1.95393991470336914 -2.39758729934692383 0.108718588948249817
1.20334196090698242 -0.557731330394744873 0.361328065395355225
-2.4002685546875 -2.15789175033569336 0.365745186805725098
1.5670468807220459 2.64622926712036133 0.242953881621360779
-1.06626260280609131 -0.624711990356445312 0.113122358918190002
1.29685366153717041 -0.588885307312011719 0.351702004671096802
-1.27703320980072021 -2.84052395820617676 0.150282382965087891
-2.175445556640625 2.09391283988952637 0.319730192422866821
-0.189820468425750732 -1.41420626640319824 0.26320183277130127
-1.75794029235839844 -2.62556982040405273 0.104377537965774536
0.0903806388378143311 3.21390581130981445 0.155438855290412903
-2.88230538368225098 1.34997224807739258 0.175869256258010864
-1.38345491886138916 -2.74337458610534668 0.0924647301435470581
-1.19718563556671143 -2.92171168327331543 0.0803068578243255615
2.28123784065246582 2.05182433128356934 0.152596563100814819
-2.30412507057189941 -2.14333343505859375 0.307855188846588135
1.62482774257659912 2.50359487533569336 0.198569416999816895
-1.94537639617919922 -2.49419236183166504 0.0986033380031585693
-0.217148900032043457 -1.32435429096221924 0.3379477858543396
-1.02545404434204102 0.940747082233428955 0.414262831211090088
0.449782282114028931 1.15956258773803711 0.147183850407600403
4.10608053207397461 3.64219880104064941 0.0549574941396713257
-2.20085978507995605 2.1994788646697998 0.262512505054473877
-2.82152175903320312 1.41338586807250977 0.0738421976566314697
-2.05276250839233398 -2.34343647956848145 0.207450911402702332
-2.46157217025756836 1.51066291332244873 0.390295267105102539
-0.262897670269012451 -1.39672911167144775 0.372788965702056885
-2.21151065826416016 2.01660823822021484 0.252283304929733276
-0.329457879066467285 -1.26218712329864502 0.330376982688903809
2.95063519477844238 -0.834783494472503662 0.0944112539291381836
-1.05738437175750732 0.873699545860290527 0.49769476056098938
-2.26568794250488281 -2.13214612007141113 0.384775996208190918
1.25014376640319824 -0.679218709468841553 0.279696166515350342
-1.09761369228363037 -2.86765670776367188 0.145959526300430298
-0.917173564434051514 0.929399013519287109 0.510876357555389404
-2.05928659439086914 -2.32574558258056641 0.11365470290184021
2.4002835750579834 1.85577976703643799 0.321133941411972046
1.22284543514251709 -0.635982036590576172 0.398342937231063843
-1.22384381294250488 -2.94164776802062988 0.17910301685333252
2.39595484733581543 1.82268404960632324 0.196588754653930664
-1.00715517997741699 0.950772941112518311 0.617055594921112061
-2.03831315040588379 -2.23599505424499512 0.191321372985839844
0.536417305469512939 1.16106593608856201 0.216347455978393555
-2.89141154289245605 1.26644372940063477 0.142811179161071777
0.59351801872253418 1.26383721828460693 0.123824991285800934
-2.78537511825561523 1.28731775283813477 0.049619767814874649
-2.75253152847290039 1.42636823654174805 0.26734238862991333
-2.32721757888793945 -2.24496197700500488 0.29802393913269043
-0.998558521270751953 0.949745833873748779 0.494351476430892944
-2.2517542839050293 2.14038252830505371 0.323262721300125122
-0.948182880878448486 0.93059927225112915 0.392276763916015625
-2.1618344783782959 -2.30776762962341309 0.273241728544235229
0.182331889867782593 3.05043840408325195 0.144505545496940613
-2.55249285697937012 1.53561186790466309 0.317372500896453857
-2.26377177238464355 -2.05046200752258301 0.395586103200912476
2.85466742515563965 -1.06270003318786621 0.133374765515327454
-1.03630352020263672 1.00883233547210693 0.532555162906646729
-2.8024294376373291 1.35043060779571533 0.217077389359474182
3.01027083396911621 -0.989600718021392822 0.179218590259552002
3.07233834266662598 -0.964596867561340332 0.0617299526929855347
0.19879622757434845 3.1679835319519043 0.107421830296516418
-2.24008440971374512 2.01711153984069824 0.416186064481735229
1.15610671043395996 -0.581552267074584961 0.418450534343719482
-2.21152544021606445 -2.23204565048217773 0.290006935596466064
-2.27350425720214844 -2.15230607986450195 0.468204230070114136
-2.70298910140991211 1.48498857021331787 0.278662204742431641
0.496751874685287476 1.28224313259124756 0.229184716939926147
1.62746107578277588 2.60381913185119629 0.220697075128555298
2.31412458419799805 1.96924293041229248 0.275096923112869263
-0.284490108489990234 -1.4583890438079834 0.288811385631561279
1.55556762218475342 2.70553946495056152 0.305225729942321777
3.09488344192504883 -1.04359889030456543 0.0959792137145996094
-0.94285118579864502 0.885076522827148438 0.454324245452880859
2.36639237403869629 2.05933499336242676 0.205236151814460754
-1.68321621417999268 -2.63514018058776855 0.111448943614959717
0.46782982349395752 1.22744143009185791 0.293817192316055298
-2.15306901931762695 -2.33463644981384277 0.157075658440589905
1.2545013427734375 -0.528768062591552734 0.316179513931274414
-2.74889302253723145 1.47665834426879883 0.393056422472000122
0.144062668085098267 3.21971535682678223 0.0404147356748580933
-0.305156230926513672 -1.36134910583496094 0.32429051399230957
-1.13386261463165283 -2.93243861198425293 0.115399479866027832
-2.90515780448913574 1.3158491849899292 0.0498249977827072144
-1.18308639526367188 -2.8507080078125 0.0822661668062210083
-1.05751204490661621 0.929498195648193359 0.559296488761901855
2.99849605560302734 -1.11240160465240479 0.149678975343704224
2.34090709686279297 2.08955073356628418 0.139872625470161438
-0.88804781436920166 0.990519225597381592 0.48769676685333252
3.0453794002532959 -1.09194386005401611 0.0634881854057312012
1.47945964336395264 2.55569791793823242 0.182151302695274353
-1.64090752601623535 -2.63394737243652344 0.16944393515586853
3.00064301490783691 -0.921270489692687988 0.16298288106918335
0.487988144159317017 1.21764218807220459 0.201888322830200195
0.593484699726104736 1.19066596031188965 0.13353981077671051
-1.93395721912384033 -2.33397603034973145 0.131097942590713501
-2.16820549964904785 -2.23238325119018555 0.212796613574028015
-1.31419181823730469 -2.74599790573120117 0.104096382856369019
0.550724565982818604 1.26673984527587891 0.182576894760131836
1.24113249778747559 -0.619447886943817139 0.32278791069984436
2.34066104888916016 2.13923978805541992 0.235649555921554565
-1.69672179222106934 -2.68093776702880859 0.193892493844032288
-2.81363344192504883 1.18206691741943359 0.0379030928015708923
4.10387945175170898 3.60187435150146484 0.111259110271930695
-1.11781573295593262 -0.564915239810943604 0.0265859439969062805
-1.80210614204406738 -2.67868351936340332 0.108082383871078491
2.83082032203674316 -0.87749016284942627 0.127207100391387939
-2.81115460395812988 1.3442528247833252 0.148981913924217224
1.1404421329498291 -0.578083395957946777 0.344938695430755615
-2.68498945236206055 1.54016637802124023 0.386430889368057251
2.97923469543457031 -1.04681825637817383 0.198529034852981567
-2.28072237968444824 -2.04732918739318848 0.329958498477935791
2.3512885570526123 1.88778293132781982 0.287080645561218262
2.8331449031829834 -0.985383033752441406 0.147609904408454895
2.8957829475402832 -0.99427330493927002 0.246162697672843933
2.3177485466003418 2.16719794273376465 0.123328134417533875
-1.94232177734375 -2.46736717224121094 0.0373162925243377686
0.100968442857265472 3.15766119956970215 0.109894707798957825
-2.87754988670349121 1.26069152355194092 0.077214069664478302
-2.70200133323669434 1.436653733253479 0.22632482647895813
-0.943001151084899902 0.814454555511474609 0.455540120601654053
2.34563946723937988 1.98287487030029297 0.21906714141368866
-2.74035000801086426 1.32756626605987549 0.0751948133111000061
-2.69022083282470703 1.42538809776306152 0.30286109447479248
1.63893425464630127 2.55073165893554688 0.279951274394989014
-1.14233624935150146 -0.637367367744445801 0.0873455256223678589
0.161451995372772217 3.05741071701049805 0.0350543856620788574
-2.33734464645385742 -2.15806388854980469 0.454848557710647583
-0.200565442442893982 -1.42674994468688965 0.34864962100982666
-2.21779012680053711 -2.14750051498413086 0.435355126857757568
-1.27709317207336426 -2.80383872985839844 0.203741192817687988
-1.09005475044250488 -0.511839389801025391 0.105453997850418091
-2.26114082336425781 2.19380831718444824 0.285366475582122803
