ply
format ascii 1.0
element vertex 32
comment vertices
property float x
property float y
property float z
end_header
0.641766190528869629 0.74288254976272583 0.37729218602180481
-1.35555243492126465 1.44842970371246338 0.436045438051223755
-0.575687766075134277 -0.854750335216522217 0.152184590697288513
1.35867297649383545 2.66160845756530762 0.239315405488014221
0.820250749588012695 -0.498075753450393677 0.337197005748748779
-0.791463792324066162 0.465904951095581055 0.0789049863815307617
0.802278816699981689 1.66583096981048584 0.110589027404785156
-0.22792583703994751 0.977729678153991699 0.411570280790328979
0.854100704193115234 -0.471475273370742798 0.381842583417892456
0.583458781242370605 0.697611153125762939 0.380950659513473511
1.3507077693939209 2.61825275421142578 0.19892197847366333
-0.460864990949630737 -0.844651699066162109 0.143712788820266724
0.960468411445617676 1.76478922367095947 0.0528798550367355347
-0.805101990699768066 0.461495727300643921 0.0824177935719490051
-0.239704281091690063 0.955056905746459961 0.355413377285003662
-1.3562852144241333 1.4695512056350708 0.455453395843505859
0.664696037769317627 0.74612116813659668 0.366860747337341309
0.870537340641021729 -0.478900641202926636 0.328476637601852417
-1.36627054214477539 1.46343564987182617 0.435950398445129395
1.34850597381591797 2.65878772735595703 0.213849484920501709
0.654971003532409668 0.747348487377166748 0.370705544948577881
0.910473167896270752 1.73739027976989746 0.037858862429857254
-0.242314055562019348 0.966005444526672363 0.362929403781890869
-0.539299547672271729 -0.864282190799713135 0.152030587196350098
0.92754828929901123 1.75275576114654541 0.0375471264123916626
-0.798585355281829834 0.465825259685516357 0.0796049460768699646
-0.823579847812652588 0.445191919803619385 0.0799598395824432373
0.748564004898071289 0.733203351497650146 0.365201413631439209
0.631098508834838867 0.733702301979064941 0.359537035226821899
1.36224532127380371 2.68337702751159668 0.194095298647880554
-0.232267394661903381 0.958017170429229736 0.354954183101654053
-1.33437299728393555 1.43602883815765381 0.416041076183319092
