ply
format ascii 1.0
element vertex 32
comment vertices
property float x
property float y
property float z
end_header
0.723631858825683594 0.659606039524078369 0.407632917165756226
-1.12210416793823242 -1.71544528007507324 0.11433371901512146
-1.15531289577484131 1.65106046199798584 0.367051422595977783
0.614409089088439941 -0.748857855796813965 0.0446741655468940735
-0.913514912128448486 0.36420777440071106 0.127454519271850586
-0.553912520408630371 0.813794255256652832 0.0655381828546524048
0.0194903016090393066 -1.02669787406921387 0.0814142972230911255
0.853490114212036133 0.058551490306854248 0.311243712902069092
-1.14446175098419189 1.69987356662750244 0.242847517132759094
-1.04897725582122803 -1.66363465785980225 0.124742433428764343
0.925142645835876465 0.58473658561706543 0.32731744647026062
-1.18547844886779785 -1.71129441261291504 0.134291112422943115
-0.859475016593933105 0.574673116207122803 0.119713515043258667
-0.608908295631408691 0.842975914478302002 0.125191032886505127
-1.06043946743011475 -1.63446164131164551 0.106705605983734131
0.935272693634033203 0.230352684855461121 0.401785224676132202
-0.0810547545552253723 -0.98288494348526001 0.0861607566475868225
0.637759089469909668 -0.819200277328491211 0.0774281620979309082
0.725987434387207031 0.655750155448913574 0.335381895303726196
-1.14251518249511719 -1.70423603057861328 0.121869541704654694
-1.19760310649871826 -1.71054542064666748 0.161095380783081055
-0.888609588146209717 0.457859992980957031 0.110752448439598083
0.923600912094116211 0.157571643590927124 0.322132855653762817
0.797194004058837891 0.788669705390930176 0.353733181953430176
0.082006402313709259 -0.973990082740783691 0.0927986577153205872
0.615673184394836426 -0.748318731784820557 0.118910506367683411
0.941247224807739258 0.46977156400680542 0.37906232476234436
-0.883131027221679688 0.370079725980758667 0.129618376493453979
-0.760653138160705566 0.713200032711029053 0.133732318878173828
-1.1332242488861084 1.67296600341796875 0.237624377012252808
-0.600584149360656738 0.86625295877456665 0.085192456841468811
-1.1026235818862915 -1.71338582038879395 0.120053045451641083
