ply
format ascii 1.0
element vertex 32
comment vertices
property float x
property float y
property float z
end_header
-0.617795348167419434 0.776591122150421143 0.389359593391418457
1.93650627136230469 -0.78477776050567627 0.313430547714233398
0.0108297895640134811 -1.02487969398498535 0.102658800780773163
-1.80074238777160645 -0.89107668399810791 0.220779985189437866
0.93130183219909668 0.344256728887557983 0.389185398817062378
0.693799853324890137 -0.732735753059387207 0.357138246297836304
-0.917930305004119873 -0.344843804836273193 0.162104368209838867
-0.198973387479782104 1.01173281669616699 0.439249485731124878
0.889945328235626221 0.376846224069595337 0.416928768157958984
-0.249775737524032593 0.986324608325958252 0.553097128868103027
1.76885581016540527 -0.889019608497619629 0.277340173721313477
0.497148394584655762 -0.790770292282104492 0.237427681684494019
0.592716217041015625 -0.875652551651000977 0.223780572414398193
-1.777496337890625 -0.859228372573852539 0.229830324649810791
1.80016636848449707 -0.858630061149597168 0.21722094714641571
-1.01820480823516846 -0.278216838836669922 0.199009180068969727
-0.412873774766921997 0.789421558380126953 0.437160491943359375
-0.125551134347915649 -0.90546262264251709 0.0746780186891555786
-0.873963475227355957 0.727618813514709473 0.536914646625518799
-0.135586366057395935 -0.984787046909332275 0.262274324893951416
0.863829612731933594 0.366815745830535889 0.238138198852539062
-0.552089512348175049 0.876778721809387207 0.44900745153427124
0.727381408214569092 -0.921332001686096191 0.29979214072227478
0.475632578134536743 -0.963999152183532715 0.302896499633789062
1.72332453727722168 -0.924715042114257812 0.313457906246185303
0.558481752872467041 -0.805078506469726562 0.199590757489204407
1.83843839168548584 -0.841248273849487305 0.218561351299285889
-1.77918446063995361 -0.880423545837402344 0.238105535507202148
-0.748195648193359375 0.713603556156158447 0.555041849613189697
1.96883654594421387 -0.833896279335021973 0.341193914413452148
-0.34015345573425293 0.932120144367218018 0.487613052129745483
-0.961440682411193848 -0.308893859386444092 0.141227349638938904
