ply
format ascii 1.0
element vertex 32
comment vertices
property float x
property float y
property float z
end_header
-0.756539583206176758 -0.651867151260375977 0.0487965047359466553
1.65564608573913574 1.01079034805297852 0.409027725458145142
0.317046076059341431 -1.98925745487213135 0.0904666334390640259
0.628913402557373047 -0.758763372898101807 0.410684883594512939
0.736983537673950195 0.670013368129730225 0.127594023942947388
-0.758916318416595459 0.693466663360595703 0.134634464979171753
-1.53820884227752686 -1.27248620986938477 0.0640298277139663696
-0.984104335308074951 0.172116190195083618 0.397329092025756836
0.765717208385467529 -0.707864522933959961 0.307444661855697632
-0.79129791259765625 0.547036886215209961 0.10730879008769989
-1.57116973400115967 -1.25166034698486328 0.0483482629060745239
-0.83932650089263916 0.614197909832000732 0.0596296004951000214
0.727365732192993164 0.669933676719665527 0.115195855498313904
0.290162265300750732 -1.97836911678314209 0.060316920280456543
-0.815858840942382812 -0.649885773658752441 0.0867147147655487061
-0.889131486415863037 0.265481293201446533 0.250170648097991943
0.677424967288970947 -0.756926536560058594 0.363805711269378662
-0.80799400806427002 0.631222307682037354 0.136443346738815308
1.77047860622406006 1.08660447597503662 0.384722799062728882
0.337938189506530762 -1.94052672386169434 0.0651080161333084106
0.609403014183044434 -0.773423910140991211 0.369357705116271973
0.656410455703735352 -0.729803979396820068 0.314635515213012695
-1.56767833232879639 -1.26723742485046387 0.0675937831401824951
0.710346341133117676 0.688029110431671143 0.130125105381011963
0.714349150657653809 0.680104970932006836 0.102643899619579315
-0.823828279972076416 0.607532739639282227 0.100077025592327118
1.7879023551940918 1.06487059593200684 0.423866450786590576
0.284711211919784546 -1.96170806884765625 0.0953202992677688599
-0.745710194110870361 -0.6136893630027771 0.0495606958866119385
-0.807539522647857666 -0.671083807945251465 0.0856877490878105164
0.69978022575378418 -0.702205181121826172 0.338526934385299683
-1.55948340892791748 -1.25397717952728271 0.0524950176477432251
