ply
format ascii 1.0
element vertex 64
comment vertices
property float x
property float y
property float z
end_header
-1.12075400352478027 0.71610790491104126 0.123854629695415497
-0.777056872844696045 -1.07938992977142334 0.33594396710395813
1.32622504234313965 0.100135780870914459 0.225243359804153442
0.938274383544921875 0.94262462854385376 0.369257062673568726
-1.30741453170776367 -0.244063809514045715 0.110303744673728943
0.663211643695831299 -1.15284442901611328 0.293077617883682251
-0.116773344576358795 1.32486379146575928 0.345611035823822021
-0.00737420935183763504 -1.3299795389175415 0.339717000722885132
1.24684929847717285 -0.462889671325683594 0.429287493228912354
2.61274600028991699 -1.66635501384735107 0.0932178571820259094
-0.781972825527191162 1.07583391666412354 0.466912060976028442
0.547547340393066406 1.21206104755401611 0.46760249137878418
3.08913612365722656 0.245803683996200562 0.110194779932498932
1.72134160995483398 2.57685160636901855 0.127260461449623108
3.60014891624450684 4.09367609024047852 0.0611903928220272064
1.0675424337387085 -0.793254733085632324 0.434110403060913086
0 0 0
0 0 0
0 0 0
0 0 0
0 0 0
0 0 0
0 0 0
0 0 0
0 0 0
0 0 0
0 0 0
0 0 0
0 0 0
0 0 0
0 0 0
0 0 0
0 0 0
0 0 0
0 0 0
0 0 0
0 0 0
0 0 0
0 0 0
0 0 0
0 0 0
0 0 0
0 0 0
0 0 0
0 0 0
0 0 0
0 0 0
0 0 0
0 0 0
0 0 0
0 0 0
0 0 0
0 0 0
0 0 0
0 0 0
0 0 0
0 0 0
0 0 0
0 0 0
0 0 0
0 0 0
0 0 0
0 0 0
0 0 0
