ply
format ascii 1.0
element vertex 64
comment vertices
property float x
property float y
property float z
end_header
1.07457089424133301 -0.78370743989944458 0.445253849029541016
-0.741339266300201416 1.10422646999359131 0.416284769773483276
0.535683810710906982 1.21735072135925293 0.300817430019378662
-1.28656971454620361 -0.337102979421615601 0.122625738382339478
-1.27853643894195557 0.366393923759460449 0.0545576512813568115
-2.2532351016998291 2.12746644020080566 0.456779509782791138
0.923199653625488281 0.957393527030944824 0.30487668514251709
1.17072105407714844 0.631119787693023682 0.131708130240440369
-0.326050251722335815 3.08169960975646973 0.180129677057266235
0.857842385768890381 1.01636922359466553 0.352892786264419556
0.722096383571624756 3.0135955810546875 0.181488841772079468
-0.937503039836883545 -0.943391799926757812 0.100380100309848785
2.6141202449798584 -1.66419851779937744 0.0646050423383712769
-2.60815930366516113 -1.67352533340454102 0.528927206993103027
0.654813587665557861 -1.15763521194458008 0.0899255797266960144
-3.09635066986083984 -0.125673338770866394 0.435820668935775757
0 0 0
0 0 0
0 0 0
0 0 0
0 0 0
0 0 0
0 0 0
0 0 0
0 0 0
0 0 0
0 0 0
0 0 0
0 0 0
0 0 0
0 0 0
0 0 0
0 0 0
0 0 0
0 0 0
0 0 0
0 0 0
0 0 0
0 0 0
0 0 0
0 0 0
0 0 0
0 0 0
0 0 0
0 0 0
0 0 0
0 0 0
0 0 0
0 0 0
0 0 0
0 0 0
0 0 0
0 0 0
0 0 0
0 0 0
0 0 0
0 0 0
0 0 0
0 0 0
0 0 0
0 0 0
0 0 0
0 0 0
0 0 0
