ply
format ascii 1.0
element vertex 256
comment vertices
property float x
property float y
property float z
end_header
-0.147023648023605347 0.722791492938995361 0.250050097703933716
0.959019720554351807 -0.919000804424285889 0.497425556182861328
-0.831371605396270752 0.150907635688781738 0.223176956176757812
0.455148398876190186 -0.344540894031524658 0.183589324355125427
0.869455337524414062 -0.325541973114013672 0.898088634014129639
1.08633816242218018 -0.447675108909606934 0.146967336535453796
-0.331232428550720215 0.234966158866882324 0.348839730024337769
-0.535676002502441406 0.889607846736907959 0.47556990385055542
0.17683759331703186 0.975267529487609863 0.483411729335784912
0.58621668815612793 -0.531852364540100098 0.566015660762786865
0.733915567398071289 -0.697808802127838135 0.170001611113548279
0.92603534460067749 -0.327191710472106934 0.494463086128234863
-0.647886753082275391 0.430645138025283813 0.361607134342193604
-0.520762801170349121 -0.0485995709896087646 0.269652247428894043
-0.514043092727661133 0.706841826438903809 0.198464691638946533
-0.345499902963638306 0.545730829238891602 0.421882569789886475
0.986644864082336426 -0.641356050968170166 0.358042895793914795
-0.539463341236114502 0.281171500682830811 0.127628207206726074
0.80429530143737793 -0.356357812881469727 0.166960805654525757
-0.0469099879264831543 0.519152045249938965 0.440725058317184448
-0.257050693035125732 0.971801698207855225 0.472977161407470703
0.72742694616317749 -0.753439545631408691 0.455535709857940674
-0.389047592878341675 0.0528933852910995483 0.059207569807767868
-0.32377287745475769 0.436693251132965088 0.156625792384147644
-0.087133750319480896 0.770336151123046875 0.499091506004333496
0.803218483924865723 -0.490739405155181885 0.695427179336547852
-0.706494569778442383 0.459899455308914185 0.0954733267426490784
-0.0115735530853271484 1.00210797786712646 0.331176131963729858
0.532033622264862061 -0.536441326141357422 0.0551964268088340759
0.691569328308105469 -0.288420915603637695 0.542254626750946045
0.757284641265869141 -0.458711475133895874 0.382565915584564209
1.01501762866973877 -0.571631193161010742 0.564661741256713867
0.168409287929534912 0.780969738960266113 0.569201648235321045
-0.546113491058349609 0.685496628284454346 0.418128550052642822
0.921533703804016113 -0.58031010627746582 0.167454376816749573
0.612318098545074463 -0.607946336269378662 0.351325154304504395
0.546649336814880371 -0.387685835361480713 0.419047921895980835
-0.539652347564697266 0.184140801429748535 0.312307208776473999
0.916547536849975586 -0.775783777236938477 0.103044025599956512
0.988164663314819336 -0.353461384773254395 0.30237269401550293
0.649458050727844238 -0.471572309732437134 0.213820561766624451
-0.202181398868560791 0.428032755851745605 0.356477588415145874
-0.450695991516113281 0.387131392955780029 0.328150331974029541
-0.388736516237258911 0.807427644729614258 0.38387453556060791
-0.338124364614486694 0.648866713047027588 0.262902557849884033
0.0603515654802322388 0.751947462558746338 0.382726550102233887
0.989085972309112549 -0.465368866920471191 0.889432072639465332
0.90481489896774292 -0.732972681522369385 0.499443233013153076
0.0202315002679824829 0.924339711666107178 0.557131409645080566
0.836680173873901367 -0.536967337131500244 0.523647189140319824
-0.272056370973587036 0.843479514122009277 0.226200371980667114
-0.671312034130096436 0.298222452402114868 0.253373652696609497
-0.137815117835998535 0.530207395553588867 0.234042197465896606
-0.122470080852508545 0.86072462797164917 0.348676532506942749
0.819685757160186768 -0.62641376256942749 0.29956352710723877
-0.363434374332427979 0.277981191873550415 0.192163452506065369
-0.158966600894927979 0.639831185340881348 0.107759244740009308
0.42906874418258667 -0.500503182411193848 0.230395391583442688
1.06241762638092041 -0.775082409381866455 0.516971707344055176
-0.656867027282714844 0.20416654646396637 0.0536819323897361755
-0.532081007957458496 0.489450335502624512 0.238683626055717468
0.798691689968109131 -0.892545580863952637 0.433355003595352173
0.579851448535919189 -0.659789025783538818 0.207167670130729675
-0.613837838172912598 0.128798454999923706 0.18835236132144928
-0.106806010007858276 0.668107509613037109 0.386300951242446899
0.702924072742462158 -0.434403896331787109 0.575590312480926514
0.61235278844833374 -0.668867349624633789 0.499937891960144043
1.09684884548187256 -0.592777252197265625 0.180291309952735901
0.90653759241104126 -0.475669890642166138 0.323124319314956665
0.828463613986968994 -0.336943089962005615 0.31208154559135437
-0.416070789098739624 0.113527089357376099 0.342019081115722656
-0.0126182436943054199 1.04525899887084961 0.485172361135482788
0.933049917221069336 -0.407898068428039551 0.127212628722190857
0.692029595375061035 -0.272311568260192871 0.14895002543926239
0.92366260290145874 -0.456697404384613037 0.629780411720275879
-0.467611819505691528 0.435385763645172119 0.45907127857208252
-0.242525458335876465 0.699216842651367188 0.367680668830871582
-0.483919203281402588 0.136919841170310974 0.135614454746246338
0.813378572463989258 -0.49077528715133667 0.206556528806686401
0.70435786247253418 -0.539339661598205566 0.105371154844760895
0.695848047733306885 -0.558996438980102539 0.455017030239105225
-0.323784500360488892 0.389815360307693481 0.405880749225616455
-0.775619029998779297 0.398780196905136108 0.325098812580108643
0.640215456485748291 -0.719784975051879883 0.0770430266857147217
1.06648170948028564 -0.480237871408462524 0.274632364511489868
0.530469059944152832 -0.404190719127655029 0.274584323167800903
-0.465157508850097656 0.385267794132232666 0.193687126040458679
0.937214672565460205 -0.431539952754974365 1.00524997711181641
0.821893632411956787 -0.445630162954330444 0.919768869876861572
0.826297163963317871 -0.396158903837203979 0.554124891757965088
-0.225339651107788086 0.845379769802093506 0.460897654294967651
0.743638217449188232 -0.659801006317138672 0.542720556259155273
0.00884939730167388916 0.886565566062927246 0.384265929460525513
-0.385625839233398438 0.689330577850341797 0.435093879699707031
0.850175619125366211 -0.378017783164978027 0.726239264011383057
0.785159647464752197 -0.640076279640197754 0.421451449394226074
0.0595188923180103302 0.829084515571594238 0.482950866222381592
0.804829776287078857 -0.754283607006072998 0.253946870565414429
0.95378565788269043 -0.432064563035964966 0.428467869758605957
0.94135814905166626 -0.244470566511154175 0.404333561658859253
-0.349344402551651001 0.510289251804351807 0.251649200916290283
-0.550039827823638916 0.327990025281906128 0.290607571601867676
0.546371519565582275 -0.394427388906478882 0.540150880813598633
0.727682232856750488 -0.559928357601165771 0.25340580940246582
-0.446236491203308105 0.0596665441989898682 0.239788085222244263
-0.380091369152069092 0.792610406875610352 0.227780833840370178
-0.236047446727752686 0.580785274505615234 0.369515895843505859
-0.233142852783203125 0.64794999361038208 0.208209604024887085
0.902395904064178467 -0.620756328105926514 0.467188894748687744
0.785784006118774414 -0.230851709842681885 0.504704296588897705
1.01076281070709229 -0.672987163066864014 0.496198654174804688
0.571515858173370361 -0.553650557994842529 0.164981737732887268
0.819357395172119141 -0.472286760807037354 0.80852121114730835
-0.430295974016189575 0.253859728574752808 0.296216845512390137
-0.373092949390411377 0.846705794334411621 0.489159911870956421
-0.425193607807159424 0.72074514627456665 0.321034282445907593
1.05498051643371582 -0.37240976095199585 0.391483932733535767
0.920507252216339111 -0.660951793193817139 0.264086067676544189
-0.707384586334228516 0.193590432405471802 0.236182928085327148
-0.440391898155212402 0.901298999786376953 0.41852647066116333
0.743393957614898682 -0.567338347434997559 0.604280233383178711
0.804403245449066162 -0.778828442096710205 0.141633749008178711
-0.00123587250709533691 0.637006103992462158 0.397955179214477539
0.60515141487121582 -0.498149305582046509 0.447194278240203857
-0.511594533920288086 0.214630931615829468 0.209561556577682495
-0.724351227283477783 0.164684891700744629 0.129759877920150757
-0.560334146022796631 0.0776148289442062378 0.268096119165420532
0.942048966884613037 -0.460800468921661377 0.221415892243385315
-0.464552938938140869 0.536133706569671631 0.420625269412994385
0.848646223545074463 -0.648352503776550293 0.128848075866699219
-0.0756179988384246826 0.882210254669189453 0.448548674583435059
0.625497579574584961 -0.616587042808532715 0.0965906232595443726
-0.356688380241394043 0.371908307075500488 0.282901167869567871
-0.494037598371505737 0.761882603168487549 0.468026399612426758
-0.431790918111801147 0.574778318405151367 0.245282337069511414
0.615513324737548828 -0.392167121171951294 0.334194809198379517
0.704053938388824463 -0.423330008983612061 0.139281094074249268
-0.178341209888458252 0.758658051490783691 0.428260982036590576
0.828031539916992188 -0.801052570343017578 0.471471220254898071
-0.516337275505065918 0.386818349361419678 0.105393067002296448
0.728347241878509521 -0.591288626194000244 0.350456774234771729
0.705019891262054443 -0.423217892646789551 0.462415158748626709
-0.0324957072734832764 0.792130351066589355 0.416273891925811768
0.981646418571472168 -0.545271992683410645 0.382156878709793091
-0.680827736854553223 0.400106221437454224 0.273267090320587158
0.985195159912109375 -0.473354935646057129 0.554046690464019775
0.909680843353271484 -0.872253358364105225 0.425603806972503662
0.175938859581947327 0.788648605346679688 0.472108572721481323
-0.201684862375259399 0.798807144165039062 0.277596592903137207
-0.0647377371788024902 0.732094526290893555 0.326556533575057983
0.958574235439300537 -0.338827341794967651 0.392636239528656006
-0.553573429584503174 0.180426165461540222 0.086307913064956665
-0.420757919549942017 0.191477417945861816 0.191663756966590881
-0.357604414224624634 0.938017308712005615 0.448198288679122925
0.000409290194511413574 0.953475296497344971 0.46530449390411377
0.881583929061889648 -0.459857672452926636 0.492698162794113159
-0.658562839031219482 0.274613618850708008 0.116200581192970276
-0.278001368045806885 0.290350228548049927 0.403246700763702393
0.877744853496551514 -0.55192643404006958 0.370137244462966919
0.554939150810241699 -0.334138244390487671 0.216788306832313538
-0.385059386491775513 0.309977859258651733 0.364515781402587891
1.13782048225402832 -0.432745218276977539 0.237005695700645447
-0.427796602249145508 -0.0484455078840255737 0.274953961372375488
0.747246801853179932 -0.50462806224822998 0.534301280975341797
0.587933063507080078 -0.322903573513031006 0.470881462097167969
-0.11393466591835022 0.520026683807373047 0.322874486446380615
0.638854026794433594 -0.705917298793792725 0.419405996799468994
0.0347610563039779663 0.740344047546386719 0.479842483997344971
-0.310892790555953979 0.461349964141845703 0.349618911743164062
0.858802318572998047 -0.541954100131988525 0.112338878214359283
0.642345070838928223 -0.362776756286621094 0.563470900058746338
-0.570946931838989258 0.406773030757904053 0.232271820306777954
0.0853875428438186646 0.913829028606414795 0.459836632013320923
0.880786597728729248 -0.370097845792770386 0.427185952663421631
0.826556742191314697 -0.652216434478759766 0.506934940814971924
0.862936139106750488 -0.536818146705627441 0.273195266723632812
0.640361249446868896 -0.579621493816375732 0.262886613607406616
0.933215796947479248 -0.561207175254821777 0.529092133045196533
0.699831724166870117 -0.59656989574432373 0.174167558550834656
-0.363323807716369629 0.887589097023010254 0.352991461753845215
0.955340266227722168 -0.79721367359161377 0.463126480579376221
0.706574440002441406 -0.480170786380767822 0.287843853235244751
1.03411030769348145 -0.852553784847259521 0.482746720314025879
-0.369864314794540405 0.461378186941146851 0.435355663299560547
-0.486319005489349365 0.538347423076629639 0.304822057485580444
-0.512562751770019531 0.0930758193135261536 0.340441256761550903
-0.216094702482223511 0.860001623630523682 0.374831885099411011
-0.111618071794509888 0.597747325897216797 0.437696278095245361
-0.164681553840637207 0.906705737113952637 0.457176089286804199
-0.63635098934173584 0.328875720500946045 0.325610160827636719
-0.449358135461807251 0.662012338638305664 0.263273805379867554
1.03457248210906982 -0.409608423709869385 0.203831851482391357
1.016609787940979 -0.564117908477783203 0.170499980449676514
-0.0312879234552383423 0.692952632904052734 0.454184830188751221
-0.155711591243743896 0.593627452850341797 0.32577812671661377
-0.74794924259185791 0.26375269889831543 0.263543844223022461
0.849326610565185547 -0.422431379556655884 0.355275809764862061
0.845715701580047607 -0.392471760511398315 0.250928938388824463
0.836037695407867432 -0.465675473213195801 0.622302472591400146
0.566758215427398682 -0.457506537437438965 0.216476336121559143
0.680727601051330566 -0.518367230892181396 0.383343607187271118
-0.4154319167137146 0.531477451324462891 0.34830021858215332
0.774160504341125488 -0.537087857723236084 0.436830878257751465
-0.513105273246765137 0.935642242431640625 0.397873848676681519
-0.41136661171913147 0.6165352463722229 0.405418932437896729
0.903915941715240479 -0.633955776691436768 0.554084181785583496
0.608363509178161621 -0.43588864803314209 0.5778999924659729
-0.451169192790985107 0.833669483661651611 0.50950777530670166
-0.612971186637878418 0.183568611741065979 0.276412457227706909
-0.334787100553512573 0.729157209396362305 0.385189712047576904
0.610304653644561768 -0.482855796813964844 0.143121570348739624
-0.405228555202484131 0.387927323579788208 0.406005561351776123
-0.167940914630889893 0.703830718994140625 0.335310935974121094
-0.459351956844329834 0.280501097440719604 0.141049221158027649
-0.45176851749420166 0.484806358814239502 0.229535892605781555
0.896459460258483887 -0.319393426179885864 0.27231249213218689
0.652474761009216309 -0.747492313385009766 0.487023651599884033
0.179787874221801758 0.895455002784729004 0.490971148014068604
-0.230329632759094238 0.727546274662017822 0.216597840189933777
-0.0967434793710708618 0.739548206329345703 0.420616477727890015
0.57766413688659668 -0.530844032764434814 0.245707839727401733
-0.250951111316680908 0.510453522205352783 0.403905272483825684
-0.19379270076751709 0.593717575073242188 0.249484866857528687
0.797542750835418701 -0.726767539978027344 0.479297161102294922
0.500985622406005859 -0.479340165853500366 0.253205627202987671
0.936900138854980469 -0.500133514404296875 0.153902634978294373
0.776418149471282959 -0.393461644649505615 0.450325369834899902
-0.138576328754425049 0.588633477687835693 0.16306990385055542
0.785571515560150146 -0.525676250457763672 0.355981230735778809
-0.51916658878326416 0.407757103443145752 0.298584103584289551
-0.159253448247909546 0.794209480285644531 0.362017214298248291
0.917556583881378174 -0.582199752330780029 0.302529007196426392
-0.0309400260448455811 0.596968650817871094 0.456318765878677368
0.957672715187072754 -0.422282308340072632 0.287512540817260742
0.643396615982055664 -0.512541115283966064 0.511923789978027344
1.04128408432006836 -0.64004814624786377 0.157536059617996216
0.6093100905418396 -0.404266864061355591 0.250507891178131104
-0.202464282512664795 0.517106890678405762 0.344862818717956543
0.64726632833480835 -0.513979077339172363 0.0626901388168334961
0.724261045455932617 -0.354761779308319092 0.527788400650024414
0.751923441886901855 -0.529915452003479004 0.188627138733863831
-0.410134077072143555 0.16490541398525238 0.287845969200134277
0.784306228160858154 -0.458247274160385132 0.486731290817260742
0.811609148979187012 -0.583707928657531738 0.23879241943359375
-0.408280462026596069 0.424154341220855713 0.231348797678947449
-0.125529706478118896 0.696160793304443359 0.14353606104850769
-0.691946864128112793 0.114771366119384766 0.174298793077468872
-0.0308750569820404053 0.565217733383178711 0.384872227907180786
0.107763200998306274 0.850688338279724121 0.428503543138504028
0.972786545753479004 -0.441785752773284912 0.357186168432235718
-0.482084810733795166 0.31152421236038208 0.266842544078826904
0.746078610420227051 -0.434982717037200928 0.198624566197395325
-0.267079204320907593 0.913908064365386963 0.517305552959442139
-0.406134307384490967 0.617724776268005371 0.303066998720169067
0.683645069599151611 -0.331126272678375244 0.191707372665405273
-0.449494063854217529 0.722360908985137939 0.42220604419708252
