ply
format ascii 1.0
element vertex 135
comment vertices
property float x
property float y
property float z
end_header
-3.16132926940917969 0.04840068519115448 0.357455432415008545
-0.325301140546798706 -0.637160360813140869 0.237524926662445068
-1.97305333614349365 0.0545340031385421753 -0.163608595728874207
-0.675402164459228516 -0.321834921836853027 0.290411055088043213
-0.253495454788208008 0.840736865997314453 0.427944779396057129
-0.38014066219329834 0.996091723442077637 0.293852746486663818
-3.12950015068054199 0.0666349083185195923 0.389818578958511353
-2.95118355751037598 -0.0767522156238555908 0.526040554046630859
-0.417568445205688477 0.856585264205932617 0.619554102420806885
-0.638660430908203125 -0.654021382331848145 0.290068924427032471
-2.04131436347961426 -0.11963045597076416 -0.0713948607444763184
-1.96436905860900879 0.215736895799636841 0.366837620735168457
-2.82797622680664062 0.00400766730308532715 0.353120774030685425
-0.461672484874725342 1.00702500343322754 0.285242050886154175
-3.06757736206054688 0.126861467957496643 0.405663430690765381
-0.307257741689682007 1.02552735805511475 0.359325110912322998
-1.85889208316802979 -0.131593853235244751 -0.0283033847808837891
-0.27609822154045105 0.833047389984130859 0.486168056726455688
-0.173815041780471802 0.885748147964477539 0.506898403167724609
-3.15293455123901367 -0.0579410828649997711 0.668060421943664551
-3.03028225898742676 0.149653345346450806 0.332756608724594116
-2.97529196739196777 0.0743355751037597656 0.430654346942901611
-2.93100953102111816 0.0544709376990795135 0.315485745668411255
-2.82677865028381348 -0.0348841175436973572 0.414419472217559814
-3.01253151893615723 0.0502118058502674103 0.476105600595474243
-1.94550418853759766 0.0620718151330947876 0.0396293550729751587
-3.15665698051452637 0.0867710486054420471 0.534509003162384033
-0.479781597852706909 -0.524273991584777832 0.176072746515274048
-0.31333884596824646 1.03093814849853516 0.258678615093231201
-0.222916781902313232 0.971758365631103516 0.263154059648513794
-3.05461263656616211 -0.0240444093942642212 0.48801836371421814
-0.448721021413803101 1.00881826877593994 0.349698036909103394
-0.378447771072387695 1.04450929164886475 0.09913644939661026
-0.394164323806762695 0.87856590747833252 0.425707966089248657
-1.97659122943878174 -0.0705440938472747803 -0.205025970935821533
-1.89395391941070557 -0.186143279075622559 -0.109418109059333801
-3.16779255867004395 0.195697396993637085 0.363682359457015991
-0.277640223503112793 0.875371634960174561 0.518126487731933594
-3.09809064865112305 0.171733185648918152 0.477726131677627563
-0.291047990322113037 1.05439245700836182 0.304948955774307251
-0.46904224157333374 -0.683519363403320312 0.266310840845108032
-2.98757600784301758 0.11941857635974884 0.32704085111618042
-3.02662563323974609 -0.0103424564003944397 0.437717437744140625
-0.670613288879394531 -0.500012040138244629 0.318673968315124512
-0.33665698766708374 0.979640722274780273 0.426366686820983887
-0.312589287757873535 0.986126482486724854 0.298647403717041016
-0.427739769220352173 0.976530671119689941 0.465263903141021729
-0.377164155244827271 1.00707459449768066 0.309672176837921143
-2.89557671546936035 0.0715281739830970764 0.4994068443775177
-0.193968206644058228 0.794412612915039062 0.487788975238800049
-3.15757274627685547 -0.0138329863548278809 0.437126278877258301
-2.03644394874572754 0.0019423067569732666 -0.149468168616294861
-0.126140907406806946 0.849308311939239502 0.434289753437042236
-1.93733882904052734 -0.0928533226251602173 0.0682249218225479126
-1.91412317752838135 0.00866569578647613525 0.00930964946746826172
-3.12940001487731934 0.0988809764385223389 0.369512259960174561
-0.424302220344543457 0.927367031574249268 0.475488573312759399
-0.309319913387298584 1.03443038463592529 0.317296445369720459
-0.234459042549133301 1.02947819232940674 0.311244487762451172
-1.87021553516387939 0.256605386734008789 0.319552809000015259
-3.01583671569824219 0.0538973882794380188 0.334487587213516235
-3.03036189079284668 0.0647566616535186768 0.599700272083282471
-0.476471155881881714 1.05028212070465088 0.307066440582275391
-0.200888931751251221 0.961169242858886719 0.389947444200515747
-3.11855721473693848 0.0508533641695976257 0.554323136806488037
-3.18848991394042969 0.112524963915348053 0.442002356052398682
-0.28982505202293396 0.908972501754760742 0.478295832872390747
-3.02355265617370605 0.0701554864645004272 0.390492022037506104
-1.88078129291534424 -0.0733197331428527832 -0.123824402689933777
-0.475148856639862061 0.957010149955749512 0.390197426080703735
-2.93623590469360352 0.0334313660860061646 0.392442643642425537
-0.318347275257110596 0.882438182830810547 0.477143794298171997
-0.302383214235305786 0.816082596778869629 0.531477570533752441
-0.156823858618736267 0.645927786827087402 0.349221795797348022
-2.84453487396240234 0.130117475986480713 0.355870157480239868
-0.332706332206726074 0.911461532115936279 0.253713726997375488
-3.09108805656433105 0.0995547398924827576 0.338403671979904175
-0.3691444993019104 1.00741565227508545 0.358778208494186401
-0.281251132488250732 0.931058287620544434 0.322275847196578979
-2.03118896484375 0.0838767290115356445 -0.178322553634643555
-0.372003376483917236 0.926989436149597168 0.447813153266906738
-0.258678644895553589 0.865984618663787842 0.532582461833953857
-0.321672588586807251 0.836618602275848389 0.498443394899368286
-1.9695969820022583 -0.0849253535270690918 -0.157075285911560059
-1.99464702606201172 -0.00708981603384017944 0.0013548731803894043
-0.349517852067947388 0.944208621978759766 0.389957457780838013
-0.458519905805587769 1.08927106857299805 0.173076361417770386
-3.03602313995361328 0.0579991787672042847 0.541051864624023438
-2.8976747989654541 0.0741398483514785767 0.380245119333267212
-0.371597498655319214 1.00572669506072998 0.415232956409454346
-3.06368732452392578 0.0472574904561042786 0.554333806037902832
-0.286798328161239624 1.10132205486297607 0.259955823421478271
-1.93742668628692627 -0.0193453282117843628 0.0302359312772750854
-0.305013358592987061 0.980917513370513916 0.447218835353851318
-0.285789549350738525 0.818067550659179688 0.499579817056655884
-1.98446118831634521 -0.144039928913116455 0.00275015830993652344
-3.03829216957092285 0.208531320095062256 0.305694818496704102
-2.06842732429504395 -0.0412179827690124512 -0.144941225647926331
-3.04232573509216309 0.0319076105952262878 0.450328648090362549
-3.17316532135009766 0.0577784925699234009 0.556594192981719971
-0.149207577109336853 0.821053266525268555 0.48730430006980896
-1.88220024108886719 -0.16373366117477417 -0.0723185092210769653
-3.06160736083984375 0.123607486486434937 0.429314970970153809
-0.227874636650085449 0.73018258810043335 0.525790035724639893
-2.93722963333129883 -0.00700989365577697754 0.322083741426467896
-3.00996994972229004 -0.0440936535596847534 0.557763934135437012
-1.91972792148590088 0.00781905651092529297 -0.137422278523445129
-0.394208312034606934 1.00724506378173828 0.384593158960342407
-0.346490144729614258 0.927517950534820557 0.4436207115650177
-0.236273884773254395 1.04488301277160645 0.277514100074768066
-3.06612682342529297 0.0785183385014533997 0.350127696990966797
-1.87049698829650879 0.216755762696266174 0.396348029375076294
-0.114587254822254181 0.721030771732330322 0.538402676582336426
-0.319392234086990356 1.09077298641204834 0.252780377864837646
-2.89282703399658203 0.0608365908265113831 0.440143197774887085
-3.13335275650024414 0.0186611413955688477 0.49506804347038269
-0.507917523384094238 -0.605003476142883301 0.211622446775436401
-3.12604546546936035 0.173998713493347168 0.478127479553222656
-3.13918948173522949 0.101111926138401031 0.363179981708526611
-2.01149392127990723 -0.106714121997356415 0.0278066545724868774
-0.153369158506393433 0.841668009757995605 0.592435598373413086
-3.16846275329589844 0.182868123054504395 0.474684983491897583
-0.357365697622299194 0.832921624183654785 0.51150965690612793
-2.91555881500244141 0.127868577837944031 0.297874987125396729
-0.453437507152557373 0.95517575740814209 0.33498227596282959
-1.78356266021728516 -0.0889032483100891113 -0.134317964315414429
-0.312434792518615723 0.975775957107543945 0.312827736139297485
-3.13715457916259766 0.0935544371604919434 0.617272078990936279
-1.88582432270050049 -0.146870791912078857 -0.162076756358146667
-3.05152487754821777 0.0961421281099319458 0.386691510677337646
-2.03900265693664551 -0.0466659441590309143 -0.0107395201921463013
-2.99771881103515625 0.135054931044578552 0.388587445020675659
-0.348984003067016602 0.807353854179382324 0.468247771263122559
-1.81570982933044434 -0.0707909166812896729 -0.246391639113426208
-3.15142250061035156 0.151241779327392578 0.37140655517578125
