ply
format ascii 1.0
element vertex 64
comment vertices
property float x
property float y
property float z
end_header
0.999804854393005371 -0.0197547152638435364 0.354810208082199097
-0.248904034495353699 -0.968528151512145996 0.0685349032282829285
0.838346183300018311 0.545138239860534668 0.244769483804702759
0.544410109519958496 -0.838819205760955811 0.061452966183423996
0 0 0
0 0 0
0 0 0
0 0 0
0 0 0
0 0 0
0 0 0
0 0 0
0 0 0
0 0 0
0 0 0
0 0 0
0 0 0
0 0 0
0 0 0
0 0 0
0 0 0
0 0 0
0 0 0
0 0 0
0 0 0
0 0 0
0 0 0
0 0 0
0 0 0
0 0 0
0 0 0
0 0 0
0 0 0
0 0 0
0 0 0
0 0 0
0 0 0
0 0 0
0 0 0
0 0 0
0 0 0
0 0 0
0 0 0
0 0 0
0 0 0
0 0 0
0 0 0
0 0 0
0 0 0
0 0 0
0 0 0
0 0 0
0 0 0
0 0 0
0 0 0
0 0 0
0 0 0
0 0 0
0 0 0
0 0 0
0 0 0
0 0 0
0 0 0
0 0 0
