ply
format ascii 1.0
element vertex 118
comment vertices
property float x
property float y
property float z
end_header
-2.75542235374450684 -1.29817438125610352 0.412307292222976685
-0.249762460589408875 -0.52188265323638916 0.345691591501235962
0.529355108737945557 -0.299132764339447021 -0.113690361380577087
0.174219518899917603 -0.931654274463653564 0.353006124496459961
-1.43373453617095947 -1.5074009895324707 0.00303769856691360474
-2.7568509578704834 -1.22426772117614746 -0.00820569694042205811
0.517820179462432861 -0.777692079544067383 0.321322500705718994
-2.76456642150878906 -1.14143359661102295 0.509375870227813721
-1.69452178478240967 -1.25152206420898438 -0.0191798955202102661
-2.70704889297485352 -1.36498236656188965 0.018120981752872467
0.350234925746917725 -1.02486109733581543 0.334286659955978394
-1.64629387855529785 -1.4223250150680542 0.115597940981388092
0.527345776557922363 -0.881943702697753906 0.218680337071418762
-1.56756651401519775 -1.32262849807739258 -0.0847642943263053894
-0.860426485538482666 -0.615288197994232178 0.052511557936668396
0.424617499113082886 -0.764778614044189453 0.447218716144561768
-1.44906175136566162 -1.33675670623779297 0.0969536751508712769
0.452555090188980103 -0.786872506141662598 0.391365170478820801
-2.82261896133422852 -1.31627428531646729 0.550864994525909424
-2.65083980560302734 -1.35299324989318848 0.158841893076896667
-2.81594371795654297 -1.22181665897369385 0.409722656011581421
0.517308831214904785 -0.899148404598236084 0.348855108022689819
0.431707024574279785 -0.929304897785186768 0.238152429461479187
0.456050068140029907 -1.0149843692779541 0.273571759462356567
-2.76312637329101562 -1.17894697189331055 0.54241102933883667
-1.23105692863464355 -1.33404242992401123 -0.122946575284004211
0.583867549896240234 -0.722193598747253418 0.332298457622528076
-1.47182607650756836 -1.4364621639251709 0.0577237606048583984
-0.866413116455078125 -0.668609201908111572 0.200222119688987732
-1.61750519275665283 -1.24718368053436279 0.174773573875427246
-1.55948364734649658 -1.53336989879608154 0.148360311985015869
-2.64367222785949707 -1.38556289672851562 0.131268441677093506
-1.50486969947814941 -1.17697238922119141 -0.0104030221700668335
-2.77917337417602539 -1.27790725231170654 0.492570459842681885
-1.70536398887634277 -1.36586523056030273 0.117928400635719299
-1.28991341590881348 -1.60130786895751953 0.0254050232470035553
-1.44212126731872559 -1.27377831935882568 -0.00617624819278717041
-2.66088724136352539 -1.29630351066589355 0.175914600491523743
0.57491379976272583 -0.755577147006988525 0.299860268831253052
-2.70328187942504883 -1.40871071815490723 0.478587955236434937
0.515025198459625244 -0.849611461162567139 0.377864599227905273
0.420171886682510376 -0.901099562644958496 0.360840976238250732
0.406867384910583496 -0.838419973850250244 0.438451051712036133
-1.56547963619232178 -1.40034282207489014 0.120595887303352356
0.590786099433898926 -0.72819674015045166 0.516946852207183838
-1.39006888866424561 -1.29927921295166016 0.0674776732921600342
0.405213803052902222 -0.777980446815490723 0.392216622829437256
0.564412832260131836 -0.648126363754272461 0.472332626581192017
-2.62793493270874023 -1.31824576854705811 0.343205422163009644
-1.66609776020050049 -1.36630821228027344 0.181826561689376831
0.468512356281280518 -0.842579901218414307 0.304846376180648804
-2.64783573150634766 -1.35377943515777588 0.480163693428039551
-1.48800468444824219 -1.39186179637908936 0.0275791287422180176
-1.59888863563537598 -1.29298603534698486 0.0756862461566925049
-2.69602632522583008 -1.38009536266326904 0.34577217698097229
-2.67107701301574707 -1.33911967277526855 0.102481722831726074
0.340825557708740234 -0.852128326892852783 0.393318444490432739
-0.716570198535919189 -0.658781588077545166 0.163366928696632385
-1.40459120273590088 -1.56540560722351074 0.12050434947013855
0.572292208671569824 -0.793602287769317627 0.298020690679550171
0.386513948440551758 -0.956372499465942383 0.271329283714294434
0.473433196544647217 -0.693796515464782715 0.454301118850708008
-2.71108508110046387 -1.17550897598266602 0.185237765312194824
0.543653309345245361 -0.779114007949829102 0.370187938213348389
-2.69454789161682129 -1.31625187397003174 0.135506525635719299
0.612873196601867676 -0.419298946857452393 -0.0773614645004272461
0.47953912615776062 -0.775542020797729492 0.406547278165817261
-2.77860784530639648 -1.23875761032104492 0.53070366382598877
-2.75875616073608398 -1.18076491355895996 0.516522765159606934
-1.35755050182342529 -1.40925681591033936 -0.193396136164665222
0.383694916963577271 -0.981809735298156738 0.322410315275192261
-2.76266193389892578 -1.27532672882080078 0.428471386432647705
0.529016256332397461 -0.640264332294464111 0.495695412158966064
0.533496677875518799 -0.733467221260070801 0.408548682928085327
-1.52973580360412598 -1.53519868850708008 0.135993838310241699
-2.66584658622741699 -1.26577460765838623 0.10390414297580719
-1.56073296070098877 -1.19514715671539307 0.11212746798992157
-1.51275086402893066 -1.44883847236633301 0.187145397067070007
-1.50653719902038574 -1.22575473785400391 0.149459078907966614
-2.68925786018371582 -1.23812782764434814 0.224666878581047058
-1.55005109310150146 -1.20752251148223877 0.0996369123458862305
0.299758255481719971 -0.957188427448272705 0.316352009773254395
0.506343305110931396 -0.81265723705291748 0.377997130155563354
-1.31814455986022949 -1.43467140197753906 0.0425991788506507874
0.440202176570892334 -0.865876555442810059 0.398248344659805298
-2.68070578575134277 -1.4089430570602417 0.182928010821342468
0.449258685111999512 -0.837907195091247559 0.309788942337036133
-2.60169720649719238 -1.28922772407531738 0.049923531711101532
-1.68627762794494629 -1.32249271869659424 0.193651244044303894
-1.45754408836364746 -1.48271381855010986 0.0533167123794555664
-1.48895776271820068 -1.53149640560150146 0.0428288951516151428
0.415291726589202881 -0.775734245777130127 0.366620481014251709
-2.80262088775634766 -1.27239561080932617 0.510492920875549316
-2.6992943286895752 -1.35334229469299316 0.472535818815231323
0.44125095009803772 -0.907165288925170898 0.245223060250282288
0.59047091007232666 -0.942747056484222412 0.281337380409240723
-2.7576751708984375 -1.2566903829574585 0.413817346096038818
-2.72814488410949707 -1.34625709056854248 0.495302796363830566
-1.33385944366455078 -1.34272563457489014 -0.0528466776013374329
0.551886975765228271 -0.791250288486480713 0.280068755149841309
-1.51656627655029297 -1.28598928451538086 -0.00303534418344497681
-2.655059814453125 -1.31425905227661133 0.159643560647964478
-2.64310860633850098 -1.31650137901306152 0.469747334718704224
0.391578495502471924 -0.88116222620010376 0.371017366647720337
-1.53807425498962402 -1.44621419906616211 0.0958653241395950317
0.581075549125671387 -0.657738924026489258 0.430411934852600098
-2.8050382137298584 -1.26512598991394043 0.494668662548065186
-1.57613801956176758 -1.36255085468292236 0.058708488941192627
-1.37007296085357666 -1.2305675745010376 -0.0527919232845306396
-1.4946448802947998 -1.41187930107116699 0.0365401655435562134
-1.65086829662322998 -1.5114436149597168 0.118532568216323853
-1.65030503273010254 -1.35429060459136963 0.182646796107292175
-2.68385839462280273 -1.30825960636138916 0.513695180416107178
-1.35999393463134766 -1.60450947284698486 0.0093316882848739624
-2.70271062850952148 -1.42033505439758301 0.325008809566497803
0.590201199054718018 -0.818639159202575684 0.370892882347106934
0.479296416044235229 -0.913799524307250977 0.190068483352661133
-2.70809531211853027 -1.36662125587463379 0.45119360089302063
