ply
format ascii 1.0
element vertex 256
comment vertices
property float x
property float y
property float z
end_header
0.170173510909080505 -0.97124248743057251 0.236676126718521118
-0.933011174201965332 1.85869491100311279 0.182979971170425415
-0.71728825569152832 0.192311972379684448 0.173810094594955444
0.995706021785736084 -0.70908355712890625 0.206039384007453918
-1.08561456203460693 1.15531039237976074 0.0376354753971099854
0.558861613273620605 -0.549263298511505127 0.118282146751880646
0.743765771389007568 -0.676452040672302246 0.118167757987976074
0.334447503089904785 -0.759889960289001465 0.0360048376023769379
-0.576701104640960693 0.618545770645141602 -0.0256058275699615479
-0.617208182811737061 1.44909214973449707 0.152519881725311279
-1.29327571392059326 1.53542280197143555 0.082495957612991333
-0.961612105369567871 0.49260219931602478 0.0530641078948974609
0.611300289630889893 -0.502174198627471924 0.0899979472160339355
0.705843508243560791 -0.590750992298126221 0.224515944719314575
0.373572677373886108 -0.769832491874694824 0.328584790229797363
0.128178387880325317 -0.821759700775146484 0.295123577117919922
-0.919535517692565918 1.51910483837127686 -0.105897799134254456
1.00413346290588379 -0.785009026527404785 0.0472228527069091797
-0.665122687816619873 0.594126224517822266 0.290270149707794189
-0.366390049457550049 0.338072299957275391 0.190739423036575317
0.32711300253868103 -0.973257124423980713 0.267815768718719482
-0.988631069660186768 1.4926154613494873 0.250685602426528931
0.827522575855255127 -0.653306126594543457 0.130527198314666748
0.164623871445655823 -0.85295712947845459 0.273873627185821533
0.572204649448394775 -0.555817544460296631 0.178281381726264954
-0.818840265274047852 0.418158352375030518 0.28202289342880249
0.243868380784988403 -0.980522274971008301 0.13049614429473877
0.273066520690917969 -1.04239284992218018 0.37829241156578064
0.213402926921844482 -0.899122536182403564 0.366116076707839966
0.860792160034179688 -0.691081702709197998 0.171750947833061218
-0.719240128993988037 0.481068551540374756 0.0719498097896575928
0.639869272708892822 -0.525592207908630371 0.174356743693351746
0.257406473159790039 -0.997410297393798828 0.181254982948303223
0.663892030715942383 -0.551333785057067871 0.125230222940444946
-1.12063443660736084 1.33392608165740967 0.190217047929763794
-1.18265795707702637 1.57317507266998291 0.237666726112365723
-0.767869234085083008 1.44162929058074951 0.376615345478057861
0.357340872287750244 -0.853698372840881348 0.154526472091674805
0.812940716743469238 -0.577823400497436523 0.164747923612594604
0.660830318927764893 -0.63155895471572876 0.128403156995773315
0.107520908117294312 -1.01135933399200439 0.328972727060317993
-0.6290244460105896 0.42307707667350769 0.254339694976806641
-0.807414770126342773 1.32797896862030029 0.0306379199028015137
0.0832116454839706421 -0.873746097087860107 0.285919278860092163
0.667049586772918701 -0.626315951347351074 0.134442925453186035
-0.872524678707122803 1.61948812007904053 -0.0211448371410369873
0.766255021095275879 -0.661886215209960938 0.0776201561093330383
0.124443016946315765 -0.976593255996704102 0.265069484710693359
0.358239948749542236 -0.89885324239730835 0.217637121677398682
-0.532504260540008545 0.346507281064987183 0.0624496340751647949
0.14341244101524353 -0.954227030277252197 0.356964766979217529
0.974608540534973145 -0.677427589893341064 0.187885493040084839
0.562181055545806885 -0.695036172866821289 0.0758507773280143738
-0.862244367599487305 1.6606757640838623 0.287752747535705566
-0.850852727890014648 0.331168830394744873 0.129715263843536377
-1.09832417964935303 1.60518431663513184 0.13529592752456665
0.135143816471099854 -1.03175997734069824 0.209275245666503906
0.0441403910517692566 -0.903798520565032959 0.214172273874282837
0.552486181259155273 -0.615479469299316406 -0.0525235272943973541
0.738224685192108154 -0.585796713829040527 0.181199833750724792
0.487531542778015137 -0.524863600730895996 0.285402506589889526
0.101748138666152954 -0.953907668590545654 0.298129796981811523
-1.11348474025726318 1.40654563903808594 0.00939452648162841797
-0.959775626659393311 1.27074849605560303 0.0612727701663970947
-0.772943794727325439 1.45391058921813965 0.0876167714595794678
0.196324080228805542 -0.997726261615753174 0.34648507833480835
-0.7939797043800354 0.526686131954193115 0.127986431121826172
0.595465898513793945 -0.720457196235656738 0.0921069234609603882
0.801248371601104736 -0.643711090087890625 0.117797434329986572
0.514918267726898193 -0.491750836372375488 0.100695341825485229
0.221978425979614258 -0.991487860679626465 0.275758147239685059
-0.837872505187988281 1.3507918119430542 0.215000897645950317
-1.28786098957061768 1.4170985221862793 0.0734327137470245361
-0.419324308633804321 0.387762933969497681 0.0780474543571472168
0.317373394966125488 -0.73517686128616333 0.256501853466033936
0.657683908939361572 -0.649064302444458008 0.135787785053253174
-1.26669561862945557 1.40105748176574707 0.228157103061676025
0.716478407382965088 -0.628061234951019287 0.0819068253040313721
0.0881260782480239868 -0.964571595191955566 0.292375534772872925
-1.00327789783477783 1.5601266622543335 0.01257285475730896
-0.763370633125305176 0.275970280170440674 0.26851990818977356
0.821776330471038818 -0.657607376575469971 0.222652792930603027
0.898511111736297607 -0.68662261962890625 0.153115332126617432
0.19397050142288208 -0.988187491893768311 0.302779108285903931
0.274462342262268066 -0.897318780422210693 0.223604649305343628
0.161333739757537842 -0.924569427967071533 0.256679415702819824
0.190211594104766846 -0.963295400142669678 0.29397273063659668
0.0314276143908500671 -1.08123970031738281 0.300766915082931519
0.533244311809539795 -0.458510905504226685 0.234086304903030396
-1.11806273460388184 1.44945895671844482 0.0775808393955230713
-0.979884862899780273 1.38856816291809082 0.17319151759147644
0.740056872367858887 -0.693967342376708984 0.14860081672668457
1.0542830228805542 -0.813268661499023438 -0.00722599029541015625
0.184157073497772217 -0.991811573505401611 0.255923658609390259
-1.07773137092590332 1.50388157367706299 0.294358402490615845
0.678330898284912109 -0.534235656261444092 0.119048446416854858
-0.971664786338806152 1.47759854793548584 0.0418617427349090576
-0.726315021514892578 0.465308547019958496 0.224406927824020386
-0.626730084419250488 0.644805014133453369 0.233836889266967773
1.07941651344299316 -0.696565449237823486 0.0978104323148727417
-0.863096177577972412 1.60212945938110352 0.172770500183105469
-0.585187375545501709 0.43864971399307251 0.13294336199760437
0.569446086883544922 -0.490319043397903442 0.0232401490211486816
0.250982671976089478 -1.01168704032897949 0.323566854000091553
0.738391995429992676 -0.540038824081420898 0.134919509291648865
0.0892122909426689148 -0.882938027381896973 0.243286147713661194
0.671918749809265137 -0.49165421724319458 0.181705713272094727
0.108758978545665741 -1.05093026161193848 0.326797842979431152
0.248878881335258484 -0.872417986392974854 0.2413434237241745
-0.771203100681304932 1.47585523128509521 0.206137925386428833
0.62333369255065918 -0.565826833248138428 0.064721323549747467
0.765161514282226562 -0.609021186828613281 0.170592352747917175
0.704570651054382324 -0.625761985778808594 0.1760244220495224
-0.977672934532165527 1.69700038433074951 0.143147766590118408
0.74745255708694458 -0.699980616569519043 0.204638123512268066
0.807309806346893311 -0.651984333992004395 0.100700482726097107
-1.17544150352478027 1.4882657527923584 0.203012555837631226
0.845832884311676025 -0.652500152587890625 0.163611829280853271
0.660986065864562988 -0.590585410594940186 0.0980630367994308472
0.712782382965087891 -0.59964597225189209 0.152659624814987183
0.855861186981201172 -0.612121284008026123 0.282507538795471191
0.101420409977436066 -0.853873252868652344 0.221459105610847473
-0.705171883106231689 1.4045100212097168 0.199078649282455444
0.898562610149383545 -0.647227644920349121 0.21234498918056488
-0.73170095682144165 0.313181549310684204 0.151754915714263916
-0.493883997201919556 0.290026038885116577 0.197156965732574463
-0.925242125988006592 1.50180304050445557 0.139094024896621704
-0.86157071590423584 0.467174649238586426 0.229504525661468506
0.480692654848098755 -0.655171573162078857 0.0699699223041534424
0.681267917156219482 -0.548683762550354004 0.0923696383833885193
0.65891563892364502 -0.678860962390899658 0.0961779281497001648
0.859752118587493896 -0.557240784168243408 0.151693910360336304
0.765894412994384766 -0.609033644199371338 0.126809865236282349
0.110708840191364288 -0.948670566082000732 0.243804425001144409
0.59920048713684082 -0.656474947929382324 0.0709440112113952637
0.10438382625579834 -0.96611475944519043 0.376437187194824219
0.25833052396774292 -0.881639599800109863 0.131228834390640259
0.783900141716003418 -0.602056562900543213 0.142835944890975952
0.553213953971862793 -0.609200239181518555 0.172842741012573242
0.162120938301086426 -0.976077079772949219 0.316513568162918091
0.0792449414730072021 -0.917833685874938965 0.360433995723724365
0.0422961041331291199 -1.00658929347991943 0.296659708023071289
-1.04230368137359619 1.30104506015777588 0.119666844606399536
1.04558384418487549 -0.677168309688568115 0.106466427445411682
0.697271406650543213 -0.564786672592163086 0.235390692949295044
-0.717202663421630859 0.441212654113769531 0.1665802001953125
0.197814688086509705 -0.913356006145477295 0.406314283609390259
0.290440678596496582 -0.980920255184173584 0.363536030054092407
0.335189640522003174 -0.804899811744689941 0.202302604913711548
-0.922132790088653564 0.419385164976119995 0.0200154483318328857
0.191084057092666626 -0.968141853809356689 0.235948562622070312
-0.469263702630996704 0.382701098918914795 0.16941523551940918
0.469668179750442505 -0.646002411842346191 0.259488224983215332
0.730040371417999268 -0.511516571044921875 0.166496396064758301
0.230657309293746948 -0.931675553321838379 0.37403455376625061
-0.631223857402801514 0.428784430027008057 0.0763147175312042236
0.681589722633361816 -0.658406257629394531 0.130406379699707031
0.17605571448802948 -0.965596377849578857 0.286050707101821899
0.16367630660533905 -1.02065134048461914 0.243573665618896484
0.664633631706237793 -0.619573831558227539 -0.0052051544189453125
0.169399738311767578 -0.979411005973815918 0.254113614559173584
1.01875185966491699 -0.721547305583953857 0.139125421643257141
-0.663913607597351074 0.545869290828704834 0.244228512048721313
0.348877698183059692 -0.819136261940002441 0.24735809862613678
0.642174959182739258 -0.646980524063110352 0.0731149464845657349
0.520556986331939697 -0.500551462173461914 0.260222852230072021
0.0586761943995952606 -0.956992983818054199 0.334248185157775879
-1.03286600112915039 1.13062143325805664 0.105873554944992065
0.341423749923706055 -0.906002700328826904 0.301186889410018921
0.154889374971389771 -0.90893864631652832 0.265785634517669678
0.0859481841325759888 -0.893061161041259766 0.259175568819046021
-0.863323092460632324 0.431267619132995605 0.201057583093643188
-1.18516981601715088 1.57158291339874268 0.18134114146232605
0.694825410842895508 -0.561705350875854492 0.0293490886688232422
0.727317214012145996 -0.656054019927978516 0.160449519753456116
0.337931305170059204 -0.93722158670425415 0.246457904577255249
0.888745009899139404 -0.649289608001708984 0.187510937452316284
0.622227907180786133 -0.618526697158813477 0.131546497344970703
0.733970046043395996 -0.646584033966064453 0.16090644896030426
-0.864425778388977051 0.424486517906188965 0.0962747633457183838
-1.09149610996246338 1.52029609680175781 0.0863250792026519775
-1.28004622459411621 1.52003693580627441 0.201085656881332397
0.80888521671295166 -0.583255410194396973 0.133667692542076111
-0.839420676231384277 0.328013807535171509 0.23803362250328064
0.349452286958694458 -0.612301111221313477 0.140416204929351807
-0.996899247169494629 1.53830504417419434 0.286091387271881104
0.0323986858129501343 -0.993905127048492432 0.333770334720611572
0.754155635833740234 -0.58335798978805542 0.108658455312252045
0.940748810768127441 -0.701045513153076172 0.269073486328125
-0.733952701091766357 0.348874151706695557 0.30627867579460144
0.648532092571258545 -0.585075080394744873 0.111127749085426331
0.270048677921295166 -0.859827876091003418 0.106140054762363434
-0.951943099498748779 1.66865193843841553 0.224929541349411011
-1.00929439067840576 1.4543921947479248 0.128986835479736328
0.739305794239044189 -0.662856042385101318 0.198915570974349976
-0.742580533027648926 0.405930757522583008 0.232550829648971558
0.0953793302178382874 -0.973080277442932129 0.342559128999710083
0.899357199668884277 -0.717069864273071289 0.232152298092842102
-0.76418381929397583 0.415344417095184326 0.091308295726776123
0.121113747358322144 -0.970684528350830078 0.295683324337005615
0.0515768080949783325 -0.955649137496948242 0.26604229211807251
0.594015717506408691 -0.533137142658233643 0.0584654062986373901
-1.08047771453857422 1.57784104347229004 0.222446531057357788
0.618772447109222412 -0.556221246719360352 0.106955245137214661
0.278604269027709961 -0.895261526107788086 0.18776896595954895
0.632155299186706543 -0.496276140213012695 0.107182599604129791
0.937968254089355469 -0.68597644567489624 0.198359251022338867
-0.710892975330352783 1.49924921989440918 0.270954281091690063
0.506107449531555176 -0.758411765098571777 0.259502291679382324
0.171276196837425232 -0.952329099178314209 0.25493505597114563
0.187516719102859497 -0.999971866607666016 0.220134317874908447
0.608029842376708984 -0.666728556156158447 0.0497578755021095276
-0.861844956874847412 1.46063196659088135 0.247423678636550903
0.79081261157989502 -0.651999413967132568 0.14803016185760498
-0.922601640224456787 1.57632827758789062 0.221133440732955933
-0.856630325317382812 1.50729537010192871 0.0664826035499572754
0.12871202826499939 -0.937564969062805176 0.255792111158370972
0.550355076789855957 -0.494109392166137695 0.181334882974624634
-1.13076639175415039 1.42224252223968506 0.217169255018234253
0.201445445418357849 -1.05635881423950195 0.3101615309715271
0.17468009889125824 -0.976192474365234375 0.174125790596008301
0.731833994388580322 -0.522407293319702148 0.0788655877113342285
-0.904930233955383301 1.45078325271606445 0.1193256676197052
0.118444100022315979 -1.0022817850112915 0.28175780177116394
0.185594215989112854 -0.898661971092224121 0.379523903131484985
-1.05414855480194092 1.35744094848632812 0.147261619567871094
-0.882839977741241455 1.47076106071472168 0.0272969603538513184
-0.742172062397003174 0.469438552856445312 0.150852501392364502
0.547993242740631104 -0.546382129192352295 0.201132148504257202
0.727891385555267334 -0.566914916038513184 0.0904719233512878418
0.907388687133789062 -0.639800310134887695 0.179195314645767212
-1.21890509128570557 1.54219913482666016 0.120660543441772461
0.750028908252716064 -0.528650104999542236 0.16181434690952301
0.640537023544311523 -0.543843209743499756 0.117452725768089294
-0.575554907321929932 0.591724395751953125 0.306250333786010742
-0.655818581581115723 0.468356668949127197 0.252120792865753174
-0.506476044654846191 0.401999771595001221 0.238704949617385864
0.807857811450958252 -0.6613006591796875 0.181847497820854187
0.292390435934066772 -0.806770682334899902 0.113962307572364807
0.177468568086624146 -0.945897579193115234 0.191757127642631531
0.0708030387759208679 -0.918924093246459961 0.264583975076675415
0.824800372123718262 -0.622805774211883545 0.173176124691963196
0.799919247627258301 -0.658797979354858398 0.030591912567615509
-0.94127190113067627 0.435601532459259033 0.0739470422267913818
1.01652860641479492 -0.677639007568359375 0.0955861881375312805
0.276964485645294189 -0.905637800693511963 0.232216730713844299
0.15433599054813385 -0.967740058898925781 0.269151389598846436
-0.932460367679595947 1.58474230766296387 -0.0949937254190444946
-0.821308791637420654 0.239065170288085938 0.217440202832221985
-0.598841071128845215 0.500872254371643066 0.269876420497894287
0.689405083656311035 -0.525693297386169434 0.149765282869338989
0.674888014793395996 -0.556631088256835938 0.111733861267566681
-0.785393714904785156 1.58356833457946777 0.297049254179000854
-1.04232072830200195 1.54044127464294434 0.145063579082489014
-0.595408499240875244 0.388004928827285767 0.189778566360473633
-0.726485669612884521 0.349084198474884033 0.230451315641403198
