ply
format ascii 1.0
element vertex 256
comment vertices
property float x
property float y
property float z
end_header
2.5463411808013916 2.06285762786865234 0.0535405166447162628
-1.50813472270965576 -0.263721287250518799 0.457077443599700928
1.35160279273986816 -1.68677699565887451 -0.0795725584030151367
0.208047300577163696 1.26801574230194092 0.655945301055908203
-0.103851102292537689 -1.05412232875823975 0.283772081136703491
1.8496023416519165 0.768694758415222168 0.317041158676147461
1.2696528434753418 2.07323646545410156 0.229391112923622131
0.853198707103729248 0.0870456323027610779 0.405740499496459961
1.93493270874023438 1.47531437873840332 0.586349070072174072
1.61220741271972656 1.39345419406890869 -0.170805066823959351
0.87057960033416748 -1.43709206581115723 0.217456459999084473
-0.810733258724212646 -0.691955864429473877 0.419659614562988281
0.925231814384460449 0.573017418384552002 0.214316695928573608
1.10576367378234863 -1.94086980819702148 0.32493630051612854
0.291036993265151978 0.367036819458007812 0.391524016857147217
0.532859683036804199 1.94347834587097168 0.447729945182800293
-0.717294812202453613 -1.04884910583496094 0.190716549754142761
-1.09627830982208252 0.10870128870010376 0.544155418872833252
2.31358790397644043 1.50168788433074951 -0.0248281843960285187
-1.18161821365356445 -0.459109634160995483 0.287965238094329834
0.654020488262176514 0.700729131698608398 0.530251085758209229
2.92175579071044922 1.94437801837921143 0.489392101764678955
0.593535840511322021 1.07462751865386963 0.242005631327629089
1.62524187564849854 1.20547783374786377 0.232357025146484375
1.23579978942871094 1.35106551647186279 0.0184113979339599609
-0.122010186314582825 1.04506194591522217 0.446536660194396973
1.29153823852539062 -1.5513007640838623 0.19410434365272522
0.230638444423675537 -1.09674787521362305 0.160816609859466553
-0.01861533522605896 0.946470081806182861 0.651479840278625488
-0.31148865818977356 -0.788038969039916992 0.298939883708953857
-0.586370229721069336 -1.1741328239440918 0.314072519540786743
1.42467832565307617 -1.25223672389984131 0.107901781797409058
1.63988792896270752 1.89283609390258789 0.0434616953134536743
2.20954346656799316 1.3238985538482666 0.207088500261306763
0.168780922889709473 1.34593665599822998 0.31646043062210083
2.70698356628417969 1.60241186618804932 0.234774291515350342
2.30356478691101074 2.14921307563781738 0.286710232496261597
-0.433282732963562012 -0.919067144393920898 0.530131816864013672
1.19576096534729004 0.195300057530403137 0.360269665718078613
1.27114558219909668 1.80540263652801514 0.194468289613723755
1.3609619140625 2.16606569290161133 -0.0518579632043838501
0.926548659801483154 -1.2113654613494873 0.113289102911949158
1.85306787490844727 1.04853355884552002 0.505027651786804199
0.628036379814147949 1.53382730484008789 0.283982157707214355
0.753634393215179443 0.375421494245529175 0.305222153663635254
1.96947395801544189 1.03277397155761719 0.063197597861289978
-1.1779484748840332 -0.258649349212646484 0.47574925422668457
-1.10119330883026123 -0.204145506024360657 0.320778489112854004
0.939850330352783203 1.98620772361755371 0.333437055349349976
-0.0905068367719650269 1.37453150749206543 0.706281006336212158
0.888389945030212402 -1.70629143714904785 0.424032598733901978
-0.163381621241569519 -1.05574464797973633 0.0260191112756729126
0.83146977424621582 0.391126543283462524 0.54673236608505249
1.92620551586151123 1.49357926845550537 0.0970524027943611145
-0.695012688636779785 -0.911707639694213867 0.243215203285217285
-0.7286376953125 -0.759356975555419922 0.458811402320861816
-1.29437994956970215 -0.0911480188369750977 0.579909324645996094
0.463066369295120239 -1.24867832660675049 0.224011838436126709
0.313850671052932739 0.894578814506530762 0.380337566137313843
2.36349892616271973 1.86177957057952881 0.0201058462262153625
1.04065799713134766 -1.76339185237884521 0.214462384581565857
-1.3848116397857666 -0.395181238651275635 0.260642647743225098
1.32694292068481445 -1.7442622184753418 0.150689154863357544
1.3350985050201416 1.92879331111907959 -0.0675315260887145996
0.656631827354431152 1.32925581932067871 0.428254783153533936
-0.608166158199310303 -0.984633028507232666 0.324278831481933594
-0.0513952597975730896 1.21033644676208496 0.724958181381225586
-1.24726307392120361 0.0381959229707717896 0.702521741390228271
0.25915217399597168 -1.1226189136505127 0.308342218399047852
2.7039794921875 1.95064926147460938 0.328258097171783447
0.58968740701675415 0.437756747007369995 0.471794962882995605
1.22298789024353027 0.488735467195510864 0.313828021287918091
1.52525126934051514 1.40771806240081787 0.00300480425357818604
0.602129220962524414 1.86623334884643555 0.242415249347686768
1.95242989063262939 1.58765041828155518 0.315141290426254272
1.27103924751281738 1.88422560691833496 0.33330419659614563
1.60779774188995361 2.14039492607116699 0.250784635543823242
1.89738774299621582 1.29485142230987549 0.420203149318695068
0.17432636022567749 1.11967825889587402 0.494678974151611328
-0.677913665771484375 -0.739462852478027344 0.660599291324615479
-0.611539900302886963 -0.901257872581481934 0.274192392826080322
1.17012524604797363 2.19427871704101562 0.45813944935798645
0.552382826805114746 0.937436699867248535 0.548671305179595947
1.08267879486083984 -1.45120155811309814 0.165175348520278931
-0.00580152124166488647 -1.1225966215133667 0.0515756607055664062
1.61631262302398682 1.01687753200531006 0.413584440946578979
2.56546759605407715 1.77831447124481201 0.15953613817691803
1.10641849040985107 -1.27918756008148193 0.231102123856544495
1.738311767578125 1.60234308242797852 0.58863365650177002
-0.0646359175443649292 -0.783117353916168213 0.160584747791290283
-1.03633582592010498 -0.21162848174571991 0.402966618537902832
2.6293179988861084 2.10889077186584473 0.212355345487594604
1.82560837268829346 1.07358002662658691 0.289465129375457764
1.26924920082092285 -1.2429194450378418 0.115553021430969238
-1.53168606758117676 -0.29365915060043335 0.531546235084533691
-0.996557354927062988 -0.18035319447517395 0.531012773513793945
2.27827310562133789 2.06911182403564453 -0.0186599418520927429
0.407777875661849976 1.2417219877243042 0.461271405220031738
1.00115120410919189 2.08394360542297363 0.2300262451171875
0.963441133499145508 0.297297924757003784 0.318415522575378418
1.32219552993774414 1.42347967624664307 -0.0213898196816444397
1.46160328388214111 2.01901793479919434 0.129979074001312256
-0.379853218793869019 -1.16947102546691895 0.390727341175079346
1.07753860950469971 1.86047542095184326 0.297275930643081665
-0.911453068256378174 -0.805941581726074219 0.299616307020187378
-0.658976554870605469 -0.878884077072143555 0.315272688865661621
0.816763043403625488 -1.35954272747039795 0.209140419960021973
0.373801201581954956 0.741978049278259277 0.573912382125854492
0.343603700399398804 1.36071300506591797 0.448073267936706543
1.0871727466583252 -1.47941195964813232 0.326999068260192871
0.761068820953369141 1.89540588855743408 0.319085597991943359
1.64078366756439209 1.42033183574676514 0.369649112224578857
0.180965244770050049 0.859322428703308105 0.485024243593215942
1.22204363346099854 -1.13931369781494141 0.0806165412068367004
0.200473830103874207 1.2173687219619751 0.381541252136230469
-0.697180747985839844 -1.04755711555480957 0.260888397693634033
1.25571274757385254 -1.63147497177124023 0.232718706130981445
1.26478660106658936 -1.51572740077972412 0.258962690830230713
0.889292478561401367 -1.65103697776794434 0.327386260032653809
0.527838408946990967 0.433732181787490845 0.292820006608963013
0.359530597925186157 0.270967483520507812 0.407469451427459717
-0.916802406311035156 -0.878532946109771729 0.465980023145675659
-1.32855236530303955 0.103110149502754211 0.556645095348358154
2.18040657043457031 1.63343453407287598 -0.00911687314510345459
-1.28565728664398193 -0.121448919177055359 0.577254056930541992
0.117354549467563629 1.29105138778686523 0.558884561061859131
1.83212864398956299 1.54679977893829346 0.138153046369552612
0.929600834846496582 -1.44396066665649414 0.215314626693725586
-0.637247383594512939 -0.79117739200592041 0.423900842666625977
0.252453625202178955 0.986816942691802979 0.643399477005004883
1.71565008163452148 1.52709770202636719 -0.029654383659362793
1.44929826259613037 2.14188861846923828 -0.000205785036087036133
0.647463560104370117 0.344079256057739258 0.361613363027572632
2.37005281448364258 1.9236304759979248 0.269141167402267456
2.13097929954528809 1.3816152811050415 0.681926310062408447
2.62393283843994141 1.90241408348083496 -0.0732901841402053833
0.137307792901992798 -0.958773136138916016 0.109684109687805176
1.98210382461547852 1.17883801460266113 0.0796329677104949951
1.15863609313964844 -1.87057757377624512 0.284579217433929443
-1.39991629123687744 -0.089450150728225708 0.66892552375793457
-1.30033838748931885 -0.256173968315124512 0.449564605951309204
0.350021690130233765 1.11168301105499268 0.389282941818237305
0.327643305063247681 1.41439926624298096 0.231204509735107422
2.44827461242675781 2.04838871955871582 0.055626995861530304
-1.04507195949554443 -0.0418608374893665314 0.518759965896606445
-1.19852304458618164 -0.330337345600128174 0.322015166282653809
0.0165217220783233643 1.25018477439880371 0.566414117813110352
1.22549057006835938 1.91814756393432617 0.172491401433944702
1.98490715026855469 1.1974790096282959 0.344735890626907349
-0.333690166473388672 -0.986703872680664062 0.311387836933135986
1.63434946537017822 1.74410021305084229 -0.12175394594669342
1.72124052047729492 0.901082277297973633 0.351639926433563232
1.11497795581817627 -1.33726978302001953 0.098911188542842865
1.58799457550048828 1.11018133163452148 0.301856577396392822
-1.13511598110198975 -0.0450812950730323792 0.419461429119110107
0.441610842943191528 1.00119864940643311 0.375554859638214111
1.99238348007202148 1.29089415073394775 0.617253780364990234
0.0832725092768669128 1.08343601226806641 0.561340630054473877
0.526669025421142578 1.28789007663726807 0.210683956742286682
0.712586045265197754 1.37433969974517822 0.346778690814971924
-1.04476988315582275 -0.383923739194869995 0.414088845252990723
-0.632014870643615723 -1.0463249683380127 0.193933725357055664
1.38930332660675049 1.94849479198455811 0.348804473876953125
0.938373684883117676 -1.30513429641723633 0.126409754157066345
2.0171058177947998 1.28137731552124023 0.160089761018753052
-1.07336187362670898 -0.430073082447052002 0.301221698522567749
0.53251725435256958 1.41426503658294678 0.642321944236755371
-1.38485884666442871 -0.239991173148155212 0.500409841537475586
-0.126536160707473755 -1.02775454521179199 0.187527835369110107
-1.44499528408050537 -0.373275160789489746 0.45215606689453125
-0.0138757601380348206 1.33731722831726074 0.662979066371917725
-0.541645586490631104 -0.886169016361236572 0.501088857650756836
1.98451673984527588 1.43801760673522949 0.162134230136871338
1.44437193870544434 1.87957727909088135 -0.0129053816199302673
1.05579233169555664 -1.85107910633087158 0.36826556921005249
-0.700919985771179199 -0.985472619533538818 0.315755337476730347
-1.11457657814025879 0.0450259298086166382 0.611020565032958984
1.11164569854736328 0.438807874917984009 0.26205974817276001
0.171451687812805176 -1.0585026741027832 0.117299690842628479
0.835103452205657959 0.451643526554107666 0.370381534099578857
0.709007978439331055 0.500133991241455078 0.280413180589675903
1.8795166015625 0.933549761772155762 0.12292170524597168
-1.01844453811645508 -0.534026443958282471 0.474355220794677734
-0.728693544864654541 -0.875966548919677734 0.312285006046295166
2.48964619636535645 2.16776943206787109 0.171597331762313843
1.18411850929260254 0.624331116676330566 0.242706835269927979
1.32325470447540283 2.17526602745056152 0.0275922343134880066
0.486462175846099854 1.67673087120056152 0.207193613052368164
1.1161423921585083 1.8249061107635498 0.213946163654327393
0.604088842868804932 0.827892184257507324 0.651502132415771484
1.03040814399719238 -1.56348443031311035 0.271556496620178223
0.839413046836853027 -1.29113984107971191 0.141581803560256958
-0.639961302280426025 -0.65240943431854248 0.527294397354125977
2.5883021354675293 1.90009391307830811 0.104403287172317505
0.0953471586108207703 -1.06636273860931396 0.332808911800384521
0.676829516887664795 0.495218664407730103 0.409386426210403442
0.433198422193527222 0.90482097864151001 0.27195855975151062
1.68521559238433838 1.30606687068939209 0.363956212997436523
-0.533438563346862793 -0.957730531692504883 0.292101234197616577
0.900267362594604492 0.48631402850151062 0.241273373365402222
-1.16325604915618896 -0.0266946554183959961 0.617833316326141357
1.57645988464355469 1.58939409255981445 -0.181610196828842163
-0.733262062072753906 -0.843722641468048096 0.326403230428695679
0.299973219633102417 -1.16166019439697266 0.146564096212387085
0.784008979797363281 -1.41195023059844971 0.314309984445571899
-0.348532736301422119 -1.18283772468566895 0.296600192785263062
0.500275611877441406 1.20508980751037598 0.55136573314666748
0.934228181838989258 -1.18207728862762451 0.104095444083213806
0.476423770189285278 0.373125940561294556 0.430620849132537842
0.328533083200454712 1.26160717010498047 0.411867797374725342
1.3219139575958252 1.30611538887023926 -0.0875591784715652466
-1.21120607852935791 -0.00265562906861305237 0.314469367265701294
1.91350269317626953 1.36457455158233643 0.567486166954040527
0.49925762414932251 0.370274573564529419 0.335338771343231201
-0.630880475044250488 -1.04933643341064453 0.207149088382720947
0.0659629926085472107 -1.13197505474090576 0.220251500606536865
0.746322929859161377 1.99386084079742432 0.407691329717636108
0.023469775915145874 1.03784656524658203 0.621249854564666748
-0.59503704309463501 -0.831144630908966064 0.344789475202560425
-0.163757681846618652 -1.04494905471801758 0.0385383963584899902
0.775328159332275391 0.277413845062255859 0.32520216703414917
2.3528130054473877 1.73366963863372803 0.000234037637710571289
1.47561264038085938 -1.55418527126312256 0.14195290207862854
0.757656633853912354 0.247518569231033325 0.213469892740249634
-0.683627426624298096 -0.851817190647125244 0.326268583536148071
0.603788256645202637 1.66195976734161377 0.271403700113296509
-0.685520827770233154 -0.989135205745697021 0.18740999698638916
2.48790860176086426 2.05108499526977539 0.352787166833877563
2.6962888240814209 1.93914997577667236 0.427210956811904907
1.12524986267089844 -1.32268714904785156 0.209968537092208862
0.588408350944519043 1.85193908214569092 0.428429216146469116
-0.0840525180101394653 -1.0245133638381958 0.0979872047901153564
1.1979224681854248 -1.38334238529205322 0.107613340020179749
-1.38478422164916992 -0.148519277572631836 0.453310340642929077
0.574724793434143066 0.450823426246643066 0.389576762914657593
1.75320959091186523 1.14275074005126953 0.29810488224029541
-0.717465698719024658 -0.747430324554443359 0.545179188251495361
-0.783277392387390137 -0.822748959064483643 0.440354287624359131
-0.249808475375175476 -0.971048712730407715 0.485374152660369873
1.11123073101043701 -1.71299219131469727 0.39293786883354187
0.103275090456008911 1.19190645217895508 0.567497730255126953
0.0477624610066413879 1.15018224716186523 0.653428435325622559
0.0676257312297821045 1.09822392463684082 0.460418462753295898
-1.01684236526489258 -0.272339969873428345 0.238528817892074585
1.84668195247650146 1.48691177368164062 0.401664227247238159
1.3059765100479126 2.24063730239868164 0.199302345514297485
0.646848142147064209 0.825995683670043945 0.511938273906707764
0.642304658889770508 1.11503922939300537 0.590854525566101074
1.58539879322052002 1.82375478744506836 0.205822855234146118
0.0463921055197715759 1.04915404319763184 0.710954010486602783
-1.37886440753936768 -0.266960471868515015 0.590339422225952148
1.23710012435913086 -1.76765704154968262 0.176522910594940186
1.47230315208435059 2.09032535552978516 0.396224260330200195
-0.37905353307723999 -0.845129668712615967 0.625243008136749268
-1.09546995162963867 -0.236221134662628174 0.472953885793685913
0.722491741180419922 0.405545681715011597 0.395348489284515381
