ply
format ascii 1.0
element vertex 256
comment vertices
property float x
property float y
property float z
end_header
-0.713095307350158691 -1.00513160228729248 0.35635983943939209
1.44842767715454102 -3.27589106559753418 0.578524410724639893
1.34166216850280762 0.894134998321533203 0.682057201862335205
-3.08955025672912598 -1.35864937305450439 0.197742491960525513
1.35779190063476562 -1.36662411689758301 0.272079437971115112
-1.96736240386962891 -0.544601917266845703 0.874814152717590332
0.322490036487579346 -2.14611172676086426 0.337315648794174194
-2.06676602363586426 -2.0819549560546875 0.496578961610794067
0.483664780855178833 -0.577749788761138916 0.452772736549377441
-1.70784854888916016 -1.17606973648071289 0.103839397430419922
0.456718236207962036 0.651119470596313477 0.262347996234893799
1.07818865776062012 -2.47248578071594238 0.284695833921432495
-1.281899094581604 -1.67804884910583496 0.579531311988830566
-2.45483922958374023 -1.44718146324157715 0.787438750267028809
1.6972116231918335 -1.93523406982421875 0.702123165130615234
1.16940653324127197 -0.66669619083404541 0.784001052379608154
0.940884172916412354 -1.90071964263916016 0.665977716445922852
-1.28922629356384277 -1.00946533679962158 0.739917635917663574
-2.84891295433044434 -1.95379257202148438 0.430430799722671509
0.525434672832489014 -1.12412381172180176 0.852155447006225586
-2.07067155838012695 -0.626622617244720459 0.226257726550102234
-2.49599123001098633 -1.1019059419631958 0.201022222638130188
-1.15963530540466309 -0.574522256851196289 0.27659115195274353
0.732273101806640625 0.951016902923583984 0.781951785087585449
-0.950287222862243652 -1.70515799522399902 0.0667957812547683716
1.66652572154998779 -2.73209881782531738 0.614543735980987549
1.01179265975952148 -0.584550976753234863 0.198612779378890991
-1.85334217548370361 -1.06915688514709473 0.717937707901000977
0.364343494176864624 -0.869144260883331299 0.0207973122596740723
1.01537597179412842 0.649269223213195801 0.33868834376335144
-0.668421387672424316 -0.496063828468322754 0.413181215524673462
0.827104866504669189 -0.973772108554840088 0.472332179546356201
-1.23357319831848145 -1.29165077209472656 0.305638283491134644
-2.407196044921875 -1.67729640007019043 0.378308027982711792
0.628715276718139648 -1.79819023609161377 0.320792347192764282
1.19780600070953369 -1.79502987861633301 0.237519413232803345
0.744851589202880859 1.01423072814941406 0.331106066703796387
1.25343334674835205 -2.96600174903869629 0.324692130088806152
0.683227121829986572 -0.709990501403808594 0.831217765808105469
-1.56497550010681152 -0.744660496711730957 0.257913321256637573
-1.67735493183135986 -1.50044155120849609 0.518766283988952637
0.263087660074234009 -0.94881892204284668 0.443608909845352173
-2.65651226043701172 -1.10408210754394531 0.634330987930297852
0.900936722755432129 -2.32184600830078125 0.659216821193695068
-2.01903200149536133 -1.20908284187316895 0.362181365489959717
-1.45833754539489746 -1.74771952629089355 0.221844762563705444
-2.72634148597717285 -1.39452815055847168 0.366329371929168701
-2.18536972999572754 -0.812277436256408691 0.685420334339141846
1.58334314823150635 -1.6319049596786499 0.449114680290222168
1.48595404624938965 -2.5714104175567627 0.308292478322982788
0.782713651657104492 0.475247681140899658 0.596581459045410156
-1.83229875564575195 -0.710786700248718262 0.573088407516479492
0.68120187520980835 -0.729691624641418457 0.129002660512924194
-0.973899960517883301 -0.726301252841949463 0.547957897186279297
0.800403237342834473 0.489438891410827637 0.102929718792438507
-1.59522247314453125 -1.07671594619750977 0.475616216659545898
0.651231527328491211 -2.23164772987365723 0.434008598327636719
-2.13524937629699707 -0.946981608867645264 0.173165053129196167
0.525152802467346191 0.830482125282287598 0.55592048168182373
1.47569608688354492 -1.98853158950805664 0.46498793363571167
-2.32103466987609863 -1.24831533432006836 0.564767181873321533
0.934313654899597168 -0.960060477256774902 0.780555069446563721
1.0315546989440918 0.798276662826538086 0.67687302827835083
0.794956386089324951 -0.495288878679275513 0.439285308122634888
-0.689746379852294922 -0.832500994205474854 0.0919211432337760925
-1.58058595657348633 -0.925502359867095947 0.82698976993560791
-1.51792025566101074 -1.4460752010345459 0.168739646673202515
-2.17378067970275879 -1.56149041652679443 0.716601788997650146
-1.05294609069824219 -1.48865342140197754 0.464667648077011108
-1.00419366359710693 -0.794077098369598389 0.12727317214012146
0.467734038829803467 -0.856310069561004639 0.66924750804901123
1.00584113597869873 1.04797816276550293 0.505677163600921631
0.551217496395111084 -1.09356701374053955 0.445367038249969482
-1.34959685802459717 -0.967659235000610352 0.339474022388458252
-2.52004051208496094 -1.92392337322235107 0.506551623344421387
-1.43051886558532715 -1.31206178665161133 0.550122737884521484
1.16293048858642578 -2.98160123825073242 0.606750309467315674
0.264415979385375977 -0.719577789306640625 0.259948253631591797
1.83215069770812988 -1.67610812187194824 0.719947695732116699
0.937237799167633057 -0.693251192569732666 0.611592411994934082
1.38980495929718018 -2.65656685829162598 0.570959091186523438
0.377932578325271606 -1.8923417329788208 0.464852958917617798
-2.85606265068054199 -1.13748836517333984 0.3513202965259552
-2.03806090354919434 -1.04439008235931396 0.935461640357971191
-1.82660305500030518 -0.95570218563079834 0.3635234534740448
0.746361851692199707 0.761033892631530762 0.202723801136016846
-1.20183134078979492 -1.63451945781707764 0.171493709087371826
1.53187704086303711 -3.04179859161376953 0.710300147533416748
-2.12168979644775391 -0.945052266120910645 0.455726414918899536
-0.603877544403076172 -0.766291439533233643 0.424503594636917114
1.07539260387420654 -1.07316875457763672 0.473839014768600464
0.676885545253753662 -0.759184122085571289 0.426793396472930908
-0.845364570617675781 -0.631537556648254395 0.263759642839431763
0.764438986778259277 -1.99101400375366211 0.440848827362060547
-1.34308671951293945 -1.52973198890686035 0.36864161491394043
0.790531635284423828 0.738200545310974121 0.576270580291748047
-2.46784186363220215 -1.3712838888168335 0.327029287815093994
-2.96253609657287598 -1.49832236766815186 0.379594624042510986
-1.07511186599731445 -0.861486911773681641 0.359644979238510132
-2.30664205551147461 -2.04052972793579102 0.432931959629058838
-2.57944726943969727 -1.32920753955841064 0.557964682579040527
-1.91285288333892822 -0.780576586723327637 0.109713286161422729
1.07611536979675293 -0.573855161666870117 0.446203410625457764
0.760294318199157715 -1.14730215072631836 0.781802773475646973
1.5695040225982666 -1.72181034088134766 0.677345156669616699
0.609499514102935791 0.471655815839767456 0.328842371702194214
0.57537466287612915 -0.509031713008880615 0.12006455659866333
0.447767347097396851 -1.93336367607116699 0.226283162832260132
-1.75931310653686523 -1.43955338001251221 0.297528475522994995
1.43645215034484863 -3.01260542869567871 0.478467315435409546
-1.96911585330963135 -0.77166438102722168 0.962394237518310547
1.36112380027770996 -1.58641409873962402 0.529216289520263672
0.986315071582794189 0.559290766716003418 0.693003654479980469
-1.81337153911590576 -1.22213482856750488 0.485801488161087036
-1.52556180953979492 -1.62041127681732178 0.659995079040527344
-1.54375028610229492 -0.758854091167449951 0.495685696601867676
1.23837935924530029 -2.48278665542602539 0.512670397758483887
-0.988070487976074219 -1.70861244201660156 0.527332603931427002
1.03702998161315918 -1.80144453048706055 0.412032544612884521
-2.63995981216430664 -1.7449876070022583 0.409202218055725098
0.477020919322967529 -0.814718365669250488 0.316466987133026123
-1.44506192207336426 -1.20257186889648438 0.267413020133972168
1.45096516609191895 -1.779960036277771 0.331534326076507568
0.746023118495941162 -2.10179972648620605 0.240567579865455627
0.90002751350402832 0.85409313440322876 0.414325237274169922
-2.43100357055664062 -1.65094172954559326 0.694615423679351807
1.34652209281921387 -1.59638750553131104 0.2540569007396698
-1.88915348052978516 -1.06054186820983887 0.175462499260902405
0.558392226696014404 0.613832950592041016 0.509184479713439941
0.831320345401763916 0.490329205989837646 0.342379093170166016
-1.49512016773223877 -1.67928457260131836 0.433698207139968872
0.533442556858062744 0.875115633010864258 0.338081121444702148
-2.32098889350891113 -1.20438051223754883 0.317812532186508179
-1.93184030055999756 -0.843862831592559814 0.720922946929931641
0.698631525039672852 -0.854410529136657715 0.62617337703704834
-1.6184542179107666 -1.38463926315307617 0.697347462177276611
-1.27114057540893555 -1.16260802745819092 0.530971884727478027
-2.64790630340576172 -1.15878331661224365 0.422764807939529419
1.02494072914123535 -0.884733736515045166 0.377315372228622437
-2.1114959716796875 -0.613561153411865234 0.437578380107879639
-1.303153395652771 -1.45721244812011719 0.641233742237091064
-2.78329849243164062 -1.59545612335205078 0.321724534034729004
-2.82998275756835938 -1.25477540493011475 0.17688453197479248
0.796051323413848877 0.964804410934448242 0.560090303421020508
1.24686610698699951 -2.5893864631652832 0.33138158917427063
1.1838538646697998 -0.681780517101287842 0.264589160680770874
-1.59364414215087891 -1.16055464744567871 0.663146853446960449
0.818290233612060547 -2.37884926795959473 0.480965673923492432
0.729453802108764648 -0.97202301025390625 0.882137894630432129
-2.08419108390808105 -1.08290159702301025 0.741843461990356445
-1.71647727489471436 -0.864434301853179932 0.633134961128234863
0.800699114799499512 -0.571522533893585205 0.252835094928741455
-1.97795510292053223 -0.807703495025634766 0.427817106246948242
0.298736244440078735 -0.914518892765045166 0.228508234024047852
1.55371832847595215 -2.05642199516296387 0.636536240577697754
0.573103666305541992 -0.646890163421630859 0.275978624820709229
-1.6528249979019165 -1.30215120315551758 0.390882611274719238
-1.29301846027374268 -1.73100101947784424 0.328111261129379272
-0.886359512805938721 -0.804722189903259277 0.348422318696975708
0.539464175701141357 -1.03650033473968506 0.633133172988891602
1.39493823051452637 -2.82356905937194824 0.447153776884078979
1.10259354114532471 -0.865232110023498535 0.747399091720581055
-1.58611452579498291 -1.06724607944488525 0.278680652379989624
0.316050678491592407 -0.673611640930175781 0.480636447668075562
0.621463894844055176 0.617651462554931641 0.160772576928138733
0.681205332279205322 0.739916503429412842 0.415288269519805908
0.534276723861694336 -0.88035285472869873 0.488965272903442383
0.609817326068878174 1.00235533714294434 0.642898678779602051
-1.20199453830718994 -1.4425886869430542 0.172949150204658508
0.750047922134399414 -0.600772500038146973 0.591784834861755371
-2.27554607391357422 -1.4638671875 0.588574707508087158
-1.83916544914245605 -0.674871206283569336 0.38761565089225769
-1.93824291229248047 -1.07796132564544678 0.552739918231964111
0.850076735019683838 -0.651390910148620605 0.773757338523864746
-1.47264432907104492 -1.02594101428985596 0.717224657535552979
0.962635934352874756 -2.07984161376953125 0.632966458797454834
0.826190829277038574 0.761492371559143066 0.754100799560546875
0.871437370777130127 0.628883540630340576 0.214897915720939636
-0.813589751720428467 -0.670806527137756348 0.484042376279830933
0.66917872428894043 -0.976642131805419922 0.373343795537948608
0.353843003511428833 -0.979664921760559082 0.604405641555786133
1.46475613117218018 -1.49943315982818604 0.159561067819595337
-1.54205513000488281 -1.28202879428863525 0.105365484952926636
-2.65631437301635742 -1.53417062759399414 0.44890400767326355
0.918209612369537354 -0.62333369255065918 0.373446822166442871
0.435967087745666504 -2.05524587631225586 0.497765719890594482
-1.44679248332977295 -1.52454054355621338 0.535522878170013428
0.542303502559661865 -0.70578378438949585 0.557493388652801514
1.51757264137268066 -2.8415677547454834 0.571179211139678955
-1.6548619270324707 -0.879201591014862061 0.435209751129150391
-1.39756333827972412 -1.37032556533813477 0.273685812950134277
-0.745018601417541504 -0.860732197761535645 0.263488113880157471
-1.29958879947662354 -0.859254837036132812 0.212805181741714478
-1.15919649600982666 -1.28500485420227051 0.46286165714263916
-1.83595335483551025 -1.16624581813812256 0.301861464977264404
0.915350377559661865 0.852800607681274414 0.241889342665672302
-2.58511209487915039 -1.46993756294250488 0.676583707332611084
0.225631803274154663 -0.815399765968322754 0.54577326774597168
-1.19986963272094727 -1.57650518417358398 0.450853914022445679
-1.1338801383972168 -1.44292688369750977 0.617960691452026367
0.392379999160766602 -0.682879626750946045 0.634298205375671387
0.88368678092956543 -0.658665239810943604 0.115755297243595123
-2.69850516319274902 -1.34406876564025879 0.680670201778411865
0.927698016166687012 0.699420332908630371 0.477459371089935303
0.604395031929016113 -0.915671825408935547 0.783015906810760498
-1.79876995086669922 -0.98504108190536499 0.529925525188446045
0.84680640697479248 -0.834573328495025635 0.705073118209838867
-2.04695510864257812 -0.783932089805603027 0.592896342277526855
1.40151488780975342 -1.75004351139068604 0.519535720348358154
1.72385299205780029 -1.72448396682739258 0.455119192600250244
-2.0024561882019043 -0.930862784385681152 0.274634301662445068
0.419129043817520142 -0.703790009021759033 0.197687476873397827
-2.10531711578369141 -1.10253357887268066 0.508166790008544922
-1.04318678379058838 -1.58710181713104248 0.183630764484405518
0.569378256797790527 0.853776097297668457 0.713525295257568359
0.766414225101470947 -1.88777434825897217 0.303744047880172729
-2.99231767654418945 -1.23018693923950195 0.358703017234802246
1.15203022956848145 -0.502987325191497803 0.783405065536499023
1.36141908168792725 -1.74063301086425781 0.17914775013923645
1.43069672584533691 -2.89221525192260742 0.304344117641448975
-1.43628525733947754 -0.939519286155700684 0.473646730184555054
-2.12286520004272461 -0.7723580002784729 0.364299595355987549
-1.95969939231872559 -0.610294103622436523 0.727521657943725586
0.716620147228240967 0.995269775390625 0.173317983746528625
1.00892949104309082 -0.864302575588226318 0.536539137363433838
-0.822123527526855469 -0.492899477481842041 0.364289194345474243
1.55477118492126465 -1.48048639297485352 0.402990728616714478
-1.77548408508300781 -0.749593436717987061 0.728491723537445068
-2.76894354820251465 -1.45071005821228027 0.222813397645950317
-1.5747143030166626 -1.52839052677154541 0.399441510438919067
1.12984037399291992 -0.699564278125762939 0.527331531047821045
0.774450182914733887 -0.993873536586761475 0.628442466259002686
0.632466495037078857 -0.524927616119384766 0.437190145254135132
-1.04274916648864746 -0.699112236499786377 0.248183086514472961
0.838573753833770752 -0.851006746292114258 0.372826337814331055
-2.60817050933837891 -1.29395759105682373 0.337632954120635986
0.622984468936920166 0.976359724998474121 0.423502951860427856
-2.07049989700317383 -0.758950293064117432 0.778213858604431152
-0.575737953186035156 -0.883004903793334961 0.187126696109771729
0.761386513710021973 0.858476102352142334 0.341825485229492188
-2.45238876342773438 -1.2873835563659668 0.477097541093826294
0.786017417907714844 1.06725144386291504 0.677412331104278564
-2.50907731056213379 -1.6117788553237915 0.476623833179473877
0.788252413272857666 -2.09052944183349609 0.558555901050567627
-1.72849392890930176 -1.06773436069488525 0.217848703265190125
-2.71109914779663086 -1.28939723968505859 0.487833082675933838
1.56282758712768555 -2.63327527046203613 0.558026313781738281
-1.2440800666809082 -1.41007542610168457 0.491456747055053711
0.403127491474151611 -0.798867583274841309 0.495447307825088501
0.598481595516204834 -2.08807516098022461 0.433269202709197998
0.668049275875091553 -1.04282867908477783 0.525808811187744141
0.673629045486450195 0.625739932060241699 0.301483005285263062
-2.38519477844238281 -1.49313724040985107 0.29886704683303833
-1.04042494297027588 -0.663977324962615967 0.0622811019420623779
-1.88297533988952637 -0.84802091121673584 0.543304264545440674
0.588885903358459473 -1.91556668281555176 0.403664708137512207
