ply
format ascii 1.0
element vertex 254
comment vertices
property float x
property float y
property float z
end_header
-0.506613612174987793 -0.802202582359313965 0.438917726278305054
3.08258414268493652 1.11894690990447998 -0.0770511627197265625
0.26302376389503479 2.21414685249328613 0.0308547616004943848
-1.75025022029876709 1.31509518623352051 0.374229699373245239
1.71815812587738037 -0.352936536073684692 0.166391551494598389
0.414631634950637817 0.602484226226806641 0.189099341630935669
-1.92644190788269043 0.0725462734699249268 0.146260291337966919
-0.694177448749542236 0.383724361658096313 0.250918179750442505
-0.822009503841400146 1.48295831680297852 0.385540306568145752
1.23424065113067627 0.388342320919036865 0.364033311605453491
2.0816957950592041 0.340926110744476318 0.263660192489624023
-1.12894034385681152 -0.824744939804077148 0.0726450085639953613
-1.2810828685760498 0.942105770111083984 0.00396662577986717224
2.77076816558837891 0.766676127910614014 0.325054049491882324
-0.291485518217086792 -0.0382507666945457458 0.458730965852737427
0.23741576075553894 1.57616746425628662 0.392650872468948364
0.790694713592529297 0.295091301202774048 0.297116339206695557
-1.29798388481140137 1.70778024196624756 0.513829827308654785
2.73354220390319824 1.05846667289733887 -0.0133965164422988892
2.10956048965454102 -0.159726396203041077 0.125729113817214966
-0.864751994609832764 0.38455277681350708 0.478691846132278442
-2.22156667709350586 0.392437160015106201 0.0704093202948570251
-0.691595077514648438 -0.815145432949066162 0.00409976765513420105
1.12780284881591797 0.10271444171667099 0.528926074504852295
0.570849895477294922 1.86094021797180176 0.375437051057815552
-1.2603226900100708 1.34134101867675781 0.363903015851974487
-0.924589812755584717 -1.11643481254577637 0.160289347171783447
-0.879602611064910889 -0.60650712251663208 0.407650291919708252
2.90191483497619629 0.841567575931549072 0.0168940722942352295
1.86315023899078369 -0.00520002096891403198 0.21495017409324646
-0.835649073123931885 1.26834392547607422 0.466610491275787354
-1.69156169891357422 0.258372038602828979 0.153740644454956055
2.61229586601257324 0.635760903358459473 0.0979859605431556702
0.828407645225524902 0.510894417762756348 0.286154061555862427
-1.0455249547958374 0.303496360778808594 0.346010446548461914
-1.40026795864105225 1.22585678100585938 0.428133845329284668
-0.73860466480255127 0.0710551440715789795 0.338790923357009888
2.96338105201721191 1.06428420543670654 0.154144614934921265
0.669880568981170654 2.18443632125854492 0.21547091007232666
1.80176985263824463 0.145367741584777832 0.133569478988647461
1.91624391078948975 -0.416022658348083496 0.184311985969543457
-0.510657966136932373 -0.99275362491607666 0.196548387408256531
-0.957828700542449951 1.80224597454071045 0.417893052101135254
-1.50659477710723877 1.21707022190093994 0.401660889387130737
0.470173746347427368 0.41150367259979248 0.248884499073028564
2.82659649848937988 1.19562792778015137 -0.0453168228268623352
0.971719324588775635 0.356469452381134033 0.397374510765075684
1.73224747180938721 -0.0958614945411682129 0.203848481178283691
0.345756381750106812 1.99940133094787598 0.0988772660493850708
0.319399058818817139 1.99824786186218262 0.346053957939147949
2.0971977710723877 0.0761156529188156128 0.285961717367172241
-1.06079769134521484 1.72141921520233154 0.403560936450958252
-1.94882881641387939 0.355292290449142456 0.0398420989513397217
2.0101935863494873 -0.461844861507415771 0.156703591346740723
-2.10262799263000488 0.310443580150604248 0.0870750248432159424
-0.820735812187194824 -0.879796504974365234 0.233361095190048218
-0.619653224945068359 -0.492979109287261963 0.436931699514389038
0.516344308853149414 0.38444855809211731 0.238911300897598267
-0.657512843608856201 0.00842136144638061523 0.421521306037902832
1.03326451778411865 0.33457869291305542 0.316717952489852905
-0.59215092658996582 -0.647180557250976562 0.735535860061645508
-0.764152646064758301 0.265516281127929688 0.44622039794921875
-1.10688328742980957 1.20803368091583252 0.324817180633544922
0.471600055694580078 2.25565814971923828 0.261158525943756104
-1.12561142444610596 1.43460643291473389 0.385253429412841797
-1.2839047908782959 1.76459169387817383 0.468130022287368774
-0.60892021656036377 0.247138768434524536 0.493073403835296631
0.219462931156158447 2.03998565673828125 -0.0141466110944747925
2.83898210525512695 0.753329753875732422 0.115010231733322144
0.894282162189483643 0.196264609694480896 0.425239592790603638
-1.06201493740081787 -0.596330761909484863 0.20986330509185791
-0.48564755916595459 0.0962710082530975342 0.450286448001861572
-0.486346662044525146 -0.978400886058807373 0.39064142107963562
2.7281801700592041 0.912602424621582031 0.233231931924819946
1.93295133113861084 0.100187338888645172 0.192741125822067261
-0.890235602855682373 0.0749401524662971497 0.491261482238769531
-2.30018877983093262 0.229487568140029907 0.0350035727024078369
1.78298819065093994 -0.196315914392471313 0.152455031871795654
2.98504042625427246 1.00916612148284912 -0.0314128994941711426
1.00056934356689453 0.378759056329727173 0.45972481369972229
-0.786860346794128418 1.47901499271392822 0.454773485660552979
-0.763027966022491455 -0.71263575553894043 0.521188259124755859
0.330199778079986572 0.407848775386810303 0.183989793062210083
0.998683393001556396 0.487828612327575684 0.20340651273727417
1.84227180480957031 -0.322789967060089111 0.211845636367797852
-0.956846415996551514 -1.02502918243408203 0.0987893268465995789
-0.960420012474060059 0.326171278953552246 0.183272242546081543
2.66063547134399414 0.816728830337524414 0.0281045734882354736
-0.70264047384262085 -0.025087989866733551 0.190995186567306519
-1.97565162181854248 0.21539461612701416 0.00889620184898376465
-1.39046645164489746 1.23948848247528076 0.325749486684799194
-0.896880149841308594 -0.761854648590087891 0.0650564134120941162
2.03323531150817871 0.0649063214659690857 0.208372622728347778
-0.442146271467208862 0.121794238686561584 0.57785332202911377
-0.608797371387481689 -0.741094589233398438 0.246830672025680542
0.46922612190246582 0.431256890296936035 0.112897336483001709
0.486922025680541992 1.72236835956573486 0.39757925271987915
0.890509128570556641 0.405179858207702637 0.347460120916366577
2.98897480964660645 1.14325010776519775 -0.126945868134498596
-1.22214770317077637 1.14351236820220947 0.312525033950805664
-0.57910078763961792 -0.847931802272796631 0.195462077856063843
0.171256422996520996 1.75174403190612793 0.214780524373054504
0.511967182159423828 2.21230673789978027 0.0423798710107803345
-0.360364317893981934 -0.944825112819671631 0.398038625717163086
-1.39838027954101562 1.30022263526916504 0.411279022693634033
-1.71084141731262207 0.107275918126106262 0.069057852029800415
0.376187443733215332 2.10559177398681641 0.174306541681289673
2.85745644569396973 0.891337454319000244 0.231606900691986084
2.83586025238037109 0.959381341934204102 0.0623679682612419128
-0.840996146202087402 -0.72166752815246582 0.280660510063171387
-0.998175203800201416 0.230450868606567383 0.527889013290405273
-0.915041446685791016 1.44834363460540771 0.415527880191802979
-1.60164046287536621 1.26942539215087891 0.296821802854537964
0.925036847591400146 0.316409766674041748 0.402577906847000122
1.0804215669631958 0.573146939277648926 0.23536960780620575
-0.694495618343353271 0.15876498818397522 0.406803131103515625
-0.475317299365997314 -0.979992389678955078 0.0929335355758666992
-2.10626029968261719 0.434338867664337158 0.0658367276191711426
2.76973485946655273 1.05876350402832031 0.120115339756011963
0.291563153266906738 2.06454658508300781 0.0428688302636146545
0.654622793197631836 1.96979427337646484 0.225735604763031006
-0.58591616153717041 0.284642130136489868 0.270616531372070312
0.293284475803375244 2.12077951431274414 0.11603856086730957
0.545778632164001465 0.531276524066925049 0.309592902660369873
-1.18842458724975586 1.7285466194152832 0.487276941537857056
-1.02950465679168701 -0.668344795703887939 0.15626130998134613
-1.45638000965118408 1.40816974639892578 0.370477825403213501
-1.24281966686248779 1.46613764762878418 0.419000983238220215
0.628261744976043701 0.448656052350997925 0.225690454244613647
1.93854129314422607 -0.0584469959139823914 0.142305463552474976
-0.707361519336700439 -1.00817990303039551 0.222297757863998413
1.03852510452270508 0.455163091421127319 0.347015231847763062
1.92814552783966064 0.347913146018981934 0.241257309913635254
1.83565628528594971 -0.414269089698791504 0.232445567846298218
-2.11990094184875488 0.227290242910385132 0.0751848965883255005
-1.79042613506317139 0.253292202949523926 0.0275196433067321777
-0.938773393630981445 -0.94218522310256958 0.144310712814331055
-1.21006655693054199 1.28789877891540527 0.364259392023086548
0.480290055274963379 2.34658145904541016 0.129690647125244141
-1.45140790939331055 1.11734569072723389 0.172399699687957764
2.97017860412597656 0.946712017059326172 0.0654091536998748779
-0.571107566356658936 -0.646734654903411865 0.497542858123779297
-0.984168708324432373 0.303680062294006348 0.510831773281097412
0.752588093280792236 0.383837312459945679 0.407699435949325562
2.87583279609680176 1.16665422916412354 -0.0529665350914001465
-1.12133622169494629 1.16543972492218018 0.202199459075927734
2.67895007133483887 0.677633464336395264 0.273642897605895996
-0.665752172470092773 -0.703880906105041504 0.129913792014122009
-0.565113961696624756 0.110149003565311432 0.464869201183319092
2.69591712951660156 0.895626246929168701 0.00138288736343383789
-0.879354357719421387 -0.612434983253479004 0.324540406465530396
-0.765899777412414551 -0.620427727699279785 0.631998181343078613
0.282163143157958984 2.04461383819580078 0.134576678276062012
-0.663026690483093262 0.0749314650893211365 0.632389605045318604
-0.732856035232543945 0.304863810539245605 0.320881694555282593
-0.802247107028961182 -0.873540639877319336 0.0693839564919471741
1.82990002632141113 0.155874878168106079 0.146710008382797241
-0.632653236389160156 -0.797269821166992188 0.312092512845993042
1.05006718635559082 0.453338772058486938 0.441289424896240234
-1.18933475017547607 1.08277750015258789 0.125450745224952698
2.6287388801574707 0.827513277530670166 0.0137012079358100891
-1.12348616123199463 1.27409207820892334 0.517596721649169922
3.02831244468688965 1.21091437339782715 -0.0995255559682846069
1.83436071872711182 0.022524222731590271 0.129022210836410522
-1.24328315258026123 1.71455800533294678 0.466836839914321899
0.394759535789489746 2.038604736328125 0.351770132780075073
1.04893326759338379 0.416832089424133301 0.424309074878692627
0.366152375936508179 0.624120712280273438 0.138233035802841187
3.07233309745788574 1.18888461589813232 -0.0601632297039031982
-1.39473044872283936 1.27844548225402832 0.405211389064788818
-1.20649337768554688 1.76754164695739746 0.431607276201248169
-1.23331594467163086 1.54517900943756104 0.385182887315750122
1.06246590614318848 0.270009428262710571 0.470815658569335938
-0.445138633251190186 -0.653988122940063477 0.577646613121032715
-2.05241107940673828 0.200350761413574219 0.0740910470485687256
2.86075091361999512 0.747032105922698975 0.409053683280944824
1.79751133918762207 -0.139926761388778687 0.1155814528465271
3.00107717514038086 1.10525751113891602 -0.0086307823657989502
2.85728621482849121 0.940833568572998047 0.177241325378417969
-1.14926612377166748 1.77011501789093018 0.436046898365020752
0.422397375106811523 1.8614736795425415 0.394791185855865479
1.89015078544616699 -0.265607267618179321 0.117253959178924561
2.88556694984436035 0.875998437404632568 0.158868655562400818
-0.72459876537322998 -0.68504256010055542 0.222864776849746704
-0.897586166858673096 1.62956106662750244 0.321762293577194214
0.411628544330596924 1.88496851921081543 0.322930127382278442
-0.586802840232849121 -0.723389744758605957 0.487732857465744019
2.77725744247436523 0.939300835132598877 0.0283466577529907227
2.1804955005645752 0.219968229532241821 0.230756849050521851
-0.699794113636016846 -1.03472626209259033 0.147186368703842163
0.650624871253967285 1.96643269062042236 0.171608418226242065
0.884536206722259521 0.312760710716247559 0.419054150581359863
-0.943618953227996826 0.318969964981079102 0.504427552223205566
-0.76246035099029541 0.185010433197021484 0.421144157648086548
2.0419464111328125 -0.0140486657619476318 0.256670147180557251
1.09941637516021729 0.505141079425811768 0.374766439199447632
-0.779075324535369873 1.32880401611328125 0.481959074735641479
-1.96026694774627686 0.329781591892242432 0.0147951841354370117
-1.13222455978393555 1.22243630886077881 0.349561125040054321
-1.46306860446929932 1.05658769607543945 0.348869562149047852
1.94603490829467773 0.111899048089981079 0.130388170480728149
-0.522687971591949463 -0.95335686206817627 0.335689723491668701
0.485430300235748291 0.726166844367980957 0.207695484161376953
-1.40812122821807861 1.25847089290618896 0.389733374118804932
1.82371711730957031 -0.4458426833152771 0.223820760846138
-1.87289190292358398 0.0703769102692604065 0.147288590669631958
0.394347220659255981 2.10953330993652344 0.0940578058362007141
1.88335680961608887 0.151028275489807129 0.146028280258178711
0.870344638824462891 0.278450876474380493 0.374721795320510864
-1.28043031692504883 1.61444473266601562 0.460032641887664795
1.88805532455444336 0.064416050910949707 0.120714813470840454
-0.473567962646484375 0.00247564911842346191 0.401545673608779907
0.387636452913284302 1.96396028995513916 0.399906724691390991
-0.790074825286865234 0.22390282154083252 0.135951906442642212
1.63050389289855957 -0.395955651998519897 0.318622589111328125
-2.12350893020629883 0.343218863010406494 0.0838915109634399414
1.85241496562957764 -0.332445591688156128 0.210143327713012695
0.51357734203338623 2.18071079254150391 0.231573283672332764
-0.658685982227325439 0.143947631120681763 0.340791881084442139
0.490647882223129272 2.10501575469970703 0.333187341690063477
-0.972413301467895508 -0.77438122034072876 0.205751270055770874
0.510931253433227539 0.434643715620040894 0.11930394172668457
-0.830114305019378662 0.214634895324707031 0.481551021337509155
-0.987052261829376221 1.7924952507019043 0.310512751340866089
2.73620295524597168 0.682542026042938232 0.129443168640136719
-1.28619122505187988 1.1746135950088501 0.430977344512939453
-0.989867687225341797 -0.619745016098022461 0.282397985458374023
-0.493696361780166626 0.0463745780289173126 0.470860600471496582
2.8305513858795166 1.10806787014007568 0.0675256699323654175
2.84289908409118652 0.755299150943756104 0.330309182405471802
0.895692706108093262 0.438944041728973389 0.235331505537033081
0.571409821510314941 2.263336181640625 0.302672088146209717
-0.768031299114227295 0.323213756084442139 0.513810276985168457
1.87381350994110107 -0.177580893039703369 0.207906663417816162
-0.6649361252784729 0.00789024680852890015 0.549654126167297363
0.224144548177719116 2.2398993968963623 0.0247878283262252808
0.27140498161315918 2.03831648826599121 0.0408108383417129517
-0.931483566761016846 -0.78952944278717041 0.182102575898170471
2.97801518440246582 1.22965896129608154 -0.0723335742950439453
0.199491113424301147 1.94719338417053223 0.22568964958190918
-0.669019222259521484 -0.80732572078704834 0.221724778413772583
-1.94649851322174072 0.314780473709106445 0.0356337130069732666
-1.03155696392059326 1.62280261516571045 0.476516306400299072
-0.662593722343444824 -0.898113429546356201 0.210234075784683228
0.371167093515396118 1.93328702449798584 0.34312736988067627
-1.30923914909362793 1.25076448917388916 0.409037739038467407
-1.60853195190429688 1.28057420253753662 0.345263123512268066
0.846901357173919678 0.364169299602508545 0.384130746126174927
0.318159699440002441 1.82279586791992188 0.336931318044662476
-0.840779602527618408 -0.617004036903381348 0.629770994186401367
-0.889664947986602783 -1.06655168533325195 0.142278820276260376
2.7290489673614502 0.875212311744689941 -0.042613789439201355
0.956025183200836182 0.363052308559417725 0.412163466215133667
1.86213624477386475 -0.0311669260263442993 0.137364864349365234
