ply
format ascii 1.0
element vertex 82
comment vertices
property float x
property float y
property float z
end_header
-0.694177448749542236 0.383724361658096313 0.250918179750442505
0.790694713592529297 0.295091301202774048 0.297116339206695557
-1.29798388481140137 1.70778024196624756 0.513829827308654785
-2.22156667709350586 0.392437160015106201 0.0704093202948570251
-0.691595077514648438 -0.815145432949066162 0.00409976765513420105
-1.2603226900100708 1.34134101867675781 0.363903015851974487
-0.879602611064910889 -0.60650712251663208 0.407650291919708252
2.90191483497619629 0.841567575931549072 0.0168940722942352295
0.828407645225524902 0.510894417762756348 0.286154061555862427
-1.0455249547958374 0.303496360778808594 0.346010446548461914
-0.510657966136932373 -0.99275362491607666 0.196548387408256531
-1.50659477710723877 1.21707022190093994 0.401660889387130737
0.345756381750106812 1.99940133094787598 0.0988772660493850708
-1.94882881641387939 0.355292290449142456 0.0398420989513397217
1.03326451778411865 0.33457869291305542 0.316717952489852905
-0.764152646064758301 0.265516281127929688 0.44622039794921875
2.83898210525512695 0.753329753875732422 0.115010231733322144
0.894282162189483643 0.196264609694480896 0.425239592790603638
-1.06201493740081787 -0.596330761909484863 0.20986330509185791
1.93295133113861084 0.100187338888645172 0.192741125822067261
1.00056934356689453 0.378759056329727173 0.45972481369972229
-1.97565162181854248 0.21539461612701416 0.00889620184898376465
-0.608797371387481689 -0.741094589233398438 0.246830672025680542
0.890509128570556641 0.405179858207702637 0.347460120916366577
2.98897480964660645 1.14325010776519775 -0.126945868134498596
-0.57910078763961792 -0.847931802272796631 0.195462077856063843
2.83586025238037109 0.959381341934204102 0.0623679682612419128
-0.840996146202087402 -0.72166752815246582 0.280660510063171387
-0.998175203800201416 0.230450868606567383 0.527889013290405273
0.925036847591400146 0.316409766674041748 0.402577906847000122
-0.475317299365997314 -0.979992389678955078 0.0929335355758666992
0.291563153266906738 2.06454658508300781 0.0428688302636146545
0.545778632164001465 0.531276524066925049 0.309592902660369873
-1.02950465679168701 -0.668344795703887939 0.15626130998134613
1.93854129314422607 -0.0584469959139823914 0.142305463552474976
1.03852510452270508 0.455163091421127319 0.347015231847763062
-2.11990094184875488 0.227290242910385132 0.0751848965883255005
-1.79042613506317139 0.253292202949523926 0.0275196433067321777
-0.938773393630981445 -0.94218522310256958 0.144310712814331055
-1.21006655693054199 1.28789877891540527 0.364259392023086548
2.97017860412597656 0.946712017059326172 0.0654091536998748779
-0.984168708324432373 0.303680062294006348 0.510831773281097412
2.67895007133483887 0.677633464336395264 0.273642897605895996
2.69591712951660156 0.895626246929168701 0.00138288736343383789
-0.879354357719421387 -0.612434983253479004 0.324540406465530396
0.282163143157958984 2.04461383819580078 0.134576678276062012
-0.732856035232543945 0.304863810539245605 0.320881694555282593
-0.802247107028961182 -0.873540639877319336 0.0693839564919471741
1.83436071872711182 0.022524222731590271 0.129022210836410522
-1.24328315258026123 1.71455800533294678 0.466836839914321899
-1.39473044872283936 1.27844548225402832 0.405211389064788818
-1.23331594467163086 1.54517900943756104 0.385182887315750122
2.88556694984436035 0.875998437404632568 0.158868655562400818
-0.72459876537322998 -0.68504256010055542 0.222864776849746704
0.411628544330596924 1.88496851921081543 0.322930127382278442
2.77725744247436523 0.939300835132598877 0.0283466577529907227
-0.699794113636016846 -1.03472626209259033 0.147186368703842163
0.884536206722259521 0.312760710716247559 0.419054150581359863
-0.943618953227996826 0.318969964981079102 0.504427552223205566
-0.76246035099029541 0.185010433197021484 0.421144157648086548
-1.96026694774627686 0.329781591892242432 0.0147951841354370117
0.394347220659255981 2.10953330993652344 0.0940578058362007141
1.88335680961608887 0.151028275489807129 0.146028280258178711
0.870344638824462891 0.278450876474380493 0.374721795320510864
-0.972413301467895508 -0.77438122034072876 0.205751270055770874
-0.830114305019378662 0.214634895324707031 0.481551021337509155
-0.989867687225341797 -0.619745016098022461 0.282397985458374023
2.8305513858795166 1.10806787014007568 0.0675256699323654175
2.84289908409118652 0.755299150943756104 0.330309182405471802
0.895692706108093262 0.438944041728973389 0.235331505537033081
-0.768031299114227295 0.323213756084442139 0.513810276985168457
0.27140498161315918 2.03831648826599121 0.0408108383417129517
-0.931483566761016846 -0.78952944278717041 0.182102575898170471
0.199491113424301147 1.94719338417053223 0.22568964958190918
-0.669019222259521484 -0.80732572078704834 0.221724778413772583
-1.94649851322174072 0.314780473709106445 0.0356337130069732666
-0.662593722343444824 -0.898113429546356201 0.210234075784683228
0.371167093515396118 1.93328702449798584 0.34312736988067627
0.846901357173919678 0.364169299602508545 0.384130746126174927
2.7290489673614502 0.875212311744689941 -0.042613789439201355
0.956025183200836182 0.363052308559417725 0.412163466215133667
1.86213624477386475 -0.0311669260263442993 0.137364864349365234
