ply
format ascii 1.0
element vertex 256
comment vertices
property float x
property float y
property float z
end_header
-2.85974287986755371 0.100338146090507507 0.413829267024993896
0.0646977722644805908 1.1398165225982666 0.172751754522323608
-0.890083253383636475 -0.521718502044677734 0.418741136789321899
-1.72032344341278076 0.315747261047363281 0.570046603679656982
-0.765303373336791992 1.16548383235931396 0.313339173793792725
-0.33227384090423584 0.724110424518585205 0.717554688453674316
-1.83154153823852539 -0.215770050883293152 0.0761027038097381592
-0.337445348501205444 -0.489590048789978027 0.552932441234588623
-0.504200398921966553 0.766017496585845947 0.0196428541094064713
-3.27771830558776855 0.0330475009977817535 0.748541772365570068
-0.304225236177444458 1.33310127258300781 0.45122230052947998
-1.85397660732269287 0.283176779747009277 0.0975256413221359253
-0.631843864917755127 -0.116962447762489319 0.584885835647583008
-0.396223992109298706 1.17388653755187988 0.0466438084840774536
-0.143244221806526184 0.85683751106262207 0.370154470205307007
-3.2275998592376709 0.225339680910110474 0.344180762767791748
-1.60486769676208496 0.0168844163417816162 0.29946821928024292
-0.474929332733154297 0.978230297565460205 0.491281688213348389
-3.21555733680725098 -0.133058607578277588 0.397636473178863525
-2.88083505630493164 -0.217429816722869873 0.561712741851806641
-0.87317502498626709 -0.19771614670753479 0.33309561014175415
-1.89645707607269287 0.0232224464416503906 0.445707142353057861
-0.180610597133636475 1.0384221076965332 0.633435249328613281
-0.647248208522796631 -0.491064667701721191 0.601376235485076904
-2.02225255966186523 -0.0148693770170211792 0.17031840980052948
-3.03084206581115723 0.181148216128349304 0.634756863117218018
-1.93700146675109863 0.446263581514358521 0.682977080345153809
-2.8961024284362793 0.269842475652694702 0.202911928296089172
-0.191767245531082153 1.21190571784973145 0.230774641036987305
-2.80988597869873047 -0.11742815375328064 0.261437296867370605
-0.476931333541870117 0.957249999046325684 0.231515467166900635
-3.14575815200805664 -0.181588515639305115 0.765116214752197266
-0.817300319671630859 -0.324083328247070312 0.55730205774307251
-0.118776924908161163 0.69395524263381958 0.544606626033782959
-0.445023000240325928 1.24364292621612549 0.270070493221282959
-0.708612680435180664 -0.364719361066818237 0.325230032205581665
-2.95764040946960449 0.314407378435134888 0.459450721740722656
0.103320546448230743 0.928476810455322266 0.257307112216949463
-3.04341530799865723 -0.00523205101490020752 0.500310659408569336
-0.249958440661430359 1.07381534576416016 0.420870661735534668
-1.81641900539398193 0.0710456520318984985 0.204234212636947632
-0.375695466995239258 1.18183588981628418 0.595519959926605225
-0.0255169160664081573 1.220650315284729 0.375483870506286621
-0.31680220365524292 0.813392460346221924 0.487234205007553101
-3.23149013519287109 0.135229498147964478 0.536506533622741699
-0.0118019832298159599 1.02140331268310547 0.506185531616210938
-0.46202811598777771 0.743474185466766357 0.222912013530731201
-2.92318153381347656 -0.0242723859846591949 0.668583035469055176
-3.03912353515625 0.131627485156059265 0.318932652473449707
-3.02784180641174316 -0.204846322536468506 0.400871992111206055
-3.15190005302429199 0.32429233193397522 0.502304315567016602
-0.100624009966850281 0.851165652275085449 0.664411306381225586
-1.61130249500274658 0.124098755419254303 0.461245179176330566
-2.78001737594604492 0.268932640552520752 0.376575589179992676
-0.0442362017929553986 1.25378036499023438 0.0667372420430183411
-2.91310429573059082 0.0727717131376266479 0.189569100737571716
-1.76994717121124268 -0.148832947015762329 0.242445811629295349
-2.78519153594970703 -0.0859656259417533875 0.445097297430038452
-3.08225893974304199 -0.0465899519622325897 0.281527876853942871
-1.80189752578735352 0.19639885425567627 0.456078678369522095
-1.68921124935150146 0.207675844430923462 0.126758530735969543
-1.93684530258178711 0.203410103917121887 0.241158649325370789
-0.090368807315826416 1.18104338645935059 0.56598895788192749
-3.11789703369140625 0.0227503553032875061 0.665852069854736328
-0.473708122968673706 -0.382565438747406006 0.512212812900543213
-0.240849897265434265 0.984209537506103516 0.2737388014793396
-0.0586132705211639404 1.05544924736022949 0.342495232820510864
-3.22830033302307129 0.207872346043586731 0.688050150871276855
-3.02476644515991211 -0.141136571764945984 0.601822972297668457
-0.45053023099899292 1.12335479259490967 0.41157454252243042
-0.318409144878387451 1.338553786277771 0.218984499573707581
-0.329641997814178467 1.08614873886108398 0.1695517897605896
-0.314171850681304932 0.989723086357116699 0.550540924072265625
-0.952939748764038086 -0.376981586217880249 0.389347106218338013
-2.75547885894775391 0.186480537056922913 0.242565512657165527
-0.166276425123214722 1.25481152534484863 0.445529580116271973
-1.92684853076934814 -0.137919068336486816 0.225721657276153564
-1.88764691352844238 0.134987011551856995 0.0542466901242733002
-1.85272693634033203 -0.023020915687084198 0.0860138237476348877
-0.789327859878540039 -0.477649092674255371 0.540143907070159912
-0.00575558841228485107 1.08761274814605713 0.0467216372489929199
-3.09621191024780273 0.178174793720245361 0.478263795375823975
-0.12812371551990509 0.898617029190063477 0.516954362392425537
-0.900459766387939453 -0.219867676496505737 0.483808517456054688
-1.69521307945251465 -0.0076954960823059082 0.167172417044639587
-3.16173505783081055 0.026022002100944519 0.417294472455978394
-0.301099151372909546 1.18780672550201416 0.325851768255233765
-0.705463767051696777 -0.287579953670501709 0.469958245754241943
-1.64263427257537842 0.157922893762588501 0.302170425653457642
-0.473386138677597046 -0.533872306346893311 0.551341235637664795
-2.94179987907409668 0.00829889252781867981 0.313906580209732056
-2.89314365386962891 0.0556365698575973511 0.554158270359039307
-0.687315940856933594 -0.357003748416900635 0.627292871475219727
-1.8348768949508667 0.38760337233543396 0.529227256774902344
-0.228018432855606079 1.31748223304748535 0.32392120361328125
-0.51043391227722168 1.13352024555206299 0.213407516479492188
-0.0483196377754211426 0.746553301811218262 0.436036229133605957
-0.799457073211669922 -0.380871862173080444 0.430206477642059326
-0.242233335971832275 0.925566315650939941 0.437401443719863892
-0.406390726566314697 0.896674156188964844 0.404768615961074829
-0.212192147970199585 0.759351074695587158 0.668546438217163086
-0.429644167423248291 1.05969905853271484 0.586621105670928955
-0.362181097269058228 0.90035557746887207 0.261861473321914673
-2.90630578994750977 0.221392467617988586 0.644502401351928711
-2.91209864616394043 -0.119427807629108429 0.481869399547576904
-0.543420612812042236 0.839421093463897705 0.190753787755966187
-0.389833837747573853 1.2617412805557251 0.38656461238861084
-0.176919668912887573 0.785559654235839844 0.471396386623382568
-2.93797826766967773 0.199979484081268311 0.403226166963577271
-1.98834967613220215 0.131277903914451599 0.131465360522270203
-0.007185325026512146 0.939945816993713379 0.349600672721862793
-0.668759763240814209 -0.431501328945159912 0.491912364959716797
-1.92540168762207031 0.0264069586992263794 0.250192254781723022
-3.00312590599060059 -0.103618234395980835 0.724402844905853271
-0.384256482124328613 1.20306360721588135 0.169060647487640381
-1.82027459144592285 0.195287391543388367 0.204326704144477844
-1.63605916500091553 0.101613506674766541 0.15594559907913208
-2.99653506278991699 0.0977545306086540222 0.454914450645446777
-0.282381683588027954 1.18133234977722168 0.518305361270904541
-0.712585091590881348 -0.241178184747695923 0.602552056312561035
-0.173590019345283508 1.12291598320007324 0.341282248497009277
-0.687333643436431885 1.21068096160888672 0.391904205083847046
-0.158383786678314209 0.980399489402770996 0.373978734016418457
-1.82626497745513916 0.469035923480987549 0.648649513721466064
-2.90391302108764648 -0.00595626980066299438 0.438207834959030151
-2.99572229385375977 0.0693942680954933167 0.644695878028869629
-0.444360822439193726 0.992697358131408691 0.348728001117706299
-0.0930600762367248535 1.1165393590927124 0.469787240028381348
-0.924207687377929688 -0.454926192760467529 0.506393074989318848
-3.15871381759643555 -0.0125063881278038025 0.564369082450866699
-3.20956635475158691 -0.0460499823093414307 0.672764599323272705
-0.101427339017391205 1.16182458400726318 0.090489216148853302
-3.22950339317321777 0.138645187020301819 0.426420927047729492
-0.146601095795631409 1.24322283267974854 0.326165378093719482
-0.291069775819778442 1.20533382892608643 0.0437123328447341919
-1.75905275344848633 -0.018031582236289978 0.255818456411361694
-0.122820444405078888 1.26596105098724365 0.141675025224685669
-3.21798610687255859 0.235912054777145386 0.496912002563476562
-0.149332106113433838 1.00220751762390137 0.491354674100875854
-3.02021002769470215 0.244481548666954041 0.34845423698425293
-2.85725140571594238 0.165116563439369202 0.181317001581192017
-0.417088925838470459 0.734170079231262207 0.651595711708068848
-1.78984034061431885 0.136634305119514465 0.119733616709709167
-0.751997888088226318 -0.4710865318775177 0.397112607955932617
-0.38837006688117981 1.10477125644683838 0.498626410961151123
-0.56804579496383667 -0.53222578763961792 0.502110779285430908
-2.85770273208618164 -0.183364748954772949 0.418249458074569702
-0.401786267757415771 0.796089231967926025 0.546519458293914795
-1.88631665706634521 -0.126143857836723328 0.0769193023443222046
-3.09723615646362305 0.295549988746643066 0.587138593196868896
-3.19850587844848633 0.0998644232749938965 0.734774231910705566
-2.76256299018859863 0.171091094613075256 0.408722788095474243
-0.22642168402671814 0.870084702968597412 0.527387738227844238
-0.146107465028762817 0.695603251457214355 0.43211442232131958
-2.78828620910644531 -0.0388863012194633484 0.323001384735107422
-0.449278861284255981 0.857390642166137695 0.225088715553283691
-3.12560462951660156 0.0617709904909133911 0.329256027936935425
-3.14936661720275879 0.150324821472167969 0.66181027889251709
-0.456290930509567261 1.12813198566436768 0.113510273396968842
-0.337908029556274414 1.11432671546936035 0.392998248338699341
-3.0553431510925293 0.270434916019439697 0.499120324850082397
-0.830201983451843262 -0.50742948055267334 0.339161217212677002
-0.4477558434009552 0.870302557945251465 0.496532142162322998
-1.94772899150848389 0.256747245788574219 0.074210047721862793
-0.332079589366912842 1.08203113079071045 0.585514426231384277
-0.0308566689491271973 0.909993767738342285 0.537494957447052002
-2.90510940551757812 0.236422300338745117 0.316450953483581543
-0.184583768248558044 0.958369791507720947 0.575330495834350586
-1.69860291481018066 0.0239710360765457153 0.329934895038604736
-1.95871973037719727 0.0188088715076446533 0.103576570749282837
-2.0053718090057373 0.0813757926225662231 0.247148826718330383
-0.250174552202224731 1.20985019207000732 0.427956998348236084
-0.415481686592102051 1.16046679019927979 0.309247076511383057
-0.0363506153225898743 1.14280986785888672 0.308980643749237061
-1.65586972236633301 -0.0568372085690498352 0.266391605138778687
-3.0248720645904541 -0.0976498275995254517 0.51478654146194458
-0.343919903039932251 1.25770878791809082 0.261893600225448608
-0.860399127006530762 -0.317168325185775757 0.395400911569595337
-2.84359121322631836 0.215975061058998108 0.428570091724395752
-0.345167815685272217 0.924695134162902832 0.470268487930297852
-2.95153594017028809 -0.0151219908148050308 0.57090604305267334
-0.016485307365655899 1.04378604888916016 0.260201126337051392
-0.290775924921035767 1.14104938507080078 0.246122792363166809
-1.67729854583740234 0.0885021388530731201 0.252318531274795532
-1.88612842559814453 0.134764641523361206 0.18245244026184082
-0.195933237671852112 1.10555899143218994 0.4879799485206604
-0.260930478572845459 0.740734577178955078 0.486413061618804932
-1.93971109390258789 -0.0478817671537399292 0.192549288272857666
-3.07286620140075684 0.0467876344919204712 0.420902788639068604
-2.0689995288848877 0.089351356029510498 0.125607982277870178
-0.804308652877807617 -0.271410316228866577 0.484215855598449707
-0.814167022705078125 -0.556370973587036133 0.452343106269836426
-2.80991864204406738 0.0328722521662712097 0.445924282073974609
-3.11278676986694336 -0.0644171983003616333 0.686343550682067871
-0.0141251049935817719 0.961629033088684082 0.439702868461608887
-1.85538029670715332 -0.120686039328575134 0.177005529403686523
-3.29477405548095703 0.101279839873313904 0.695439398288726807
-1.84630608558654785 -0.0212992280721664429 0.173627108335494995
-3.1127166748046875 -0.0494324564933776855 0.469407975673675537
-1.72791647911071777 -0.0893710926175117493 0.30416417121887207
-0.0997186005115509033 0.821564614772796631 0.453001827001571655
-2.73011445999145508 0.171987026929855347 0.324557185173034668
-2.91852116584777832 0.0876715779304504395 0.680408000946044922
-0.305066585540771484 1.16972076892852783 0.15618559718132019
-2.88037872314453125 0.119792446494102478 0.25452190637588501
-2.94307875633239746 -0.155477523803710938 0.577360987663269043
-1.97622430324554443 -0.138534456491470337 0.155079558491706848
-1.77758896350860596 0.252305179834365845 0.12238137423992157
-0.368734300136566162 1.29156017303466797 0.167515307664871216
-0.312043219804763794 1.03559553623199463 0.478226363658905029
-0.23358115553855896 0.981792151927947998 0.509260833263397217
-0.624144375324249268 -0.373644202947616577 0.572507739067077637
-0.106672562658786774 0.990193367004394531 0.307252824306488037
0.0207140371203422546 1.15128469467163086 0.101570501923561096
-2.95507931709289551 0.0537414178252220154 0.396007418632507324
-0.715279519557952881 -0.384000241756439209 0.434134036302566528
-0.164953380823135376 1.29013943672180176 0.258603930473327637
-1.86482226848602295 0.456966280937194824 0.724952161312103271
-0.0717939436435699463 0.664665937423706055 0.456439495086669922
-0.154831796884536743 0.790825068950653076 0.552074670791625977
-0.140404090285301208 1.13911545276641846 0.266068458557128906
-2.81824207305908203 0.118587441742420197 0.48424142599105835
-2.92672204971313477 0.208236470818519592 0.4856986403465271
-0.513282060623168945 -0.454419165849685669 0.527265846729278564
-0.228217780590057373 1.23984158039093018 0.54176706075668335
-3.15924978256225586 0.172691315412521362 0.552501678466796875
-2.78812932968139648 0.119877278804779053 0.185143649578094482
-0.310024857521057129 1.31250345706939697 0.316963434219360352
-0.764677107334136963 -0.330157727003097534 0.635834217071533203
-3.05562210083007812 0.139482244849205017 0.416196227073669434
-1.99145770072937012 -0.0345296859741210938 0.254514813423156738
-0.269529044628143311 0.814851045608520508 0.651092469692230225
-0.884180605411529541 -0.387788265943527222 0.530025184154510498
-0.717170655727386475 -0.37419012188911438 0.55339360237121582
-3.15524601936340332 0.12305767834186554 0.479365408420562744
-0.25762474536895752 0.991570591926574707 0.608137249946594238
-0.264928132295608521 1.22893846035003662 0.267106026411056519
-3.2238612174987793 0.149028599262237549 0.632057905197143555
-3.11579704284667969 0.254555165767669678 0.449039667844772339
-2.87691116333007812 0.00929614901542663574 0.267266213893890381
-0.412504404783248901 1.02979207038879395 0.486909478902816772
-0.423865973949432373 1.14176642894744873 0.200390726327896118
-1.71299839019775391 0.143877357244491577 0.166784942150115967
-0.777170717716217041 -0.479096144437789917 0.617989480495452881
-0.233444809913635254 1.24057221412658691 0.339614808559417725
-3.02988648414611816 -0.0409386754035949707 0.685117483139038086
-1.80516016483306885 0.0669839009642601013 0.0868111997842788696
-2.96325182914733887 0.143328264355659485 0.302494704723358154
-1.97465837001800537 0.0555844008922576904 0.171061277389526367
-1.7642357349395752 -0.0637996792793273926 0.192336782813072205
-2.99656343460083008 0.000557780265808105469 0.437852084636688232
0.0326887220144271851 0.961532890796661377 0.250897765159606934
-0.155625998973846436 0.874813318252563477 0.44494900107383728
-1.7189946174621582 0.178872480988502502 0.0612841062247753143
-3.18473410606384277 0.198957279324531555 0.402627617120742798
-2.82381606101989746 0.18484063446521759 0.277162700891494751
