ply
format ascii 1.0
element vertex 86
comment vertices
property float x
property float y
property float z
end_header
0.667815446853637695 -0.853796839714050293 0.184372752904891968
1.25745463371276855 -1.77249133586883545 0.108153857290744781
0.56371074914932251 0.857650458812713623 0.595798790454864502
1.28051614761352539 -1.33701443672180176 0.0281426310539245605
0.683993399143218994 -1.13509285449981689 0.0908194705843925476
0.62541121244430542 0.765974462032318115 0.129392191767692566
1.06559586524963379 -0.78781437873840332 0.0778467506170272827
1.07337296009063721 -1.42843818664550781 0.017576172947883606
0.44339287281036377 0.712267756462097168 0.456722915172576904
0.835071802139282227 -0.432545602321624756 0.110259950160980225
0.370719254016876221 0.871006131172180176 0.503373265266418457
0.48227393627166748 0.982377588748931885 0.495462805032730103
0.753013432025909424 -0.64894026517868042 0.0435393601655960083
0.351038426160812378 0.963261723518371582 0.455787718296051025
0.666450321674346924 -0.74875175952911377 0.375985264778137207
0.48089483380317688 -0.714791774749755859 0.213830128312110901
1.27062082290649414 -1.57756185531616211 0.03005189448595047
0.516809403896331787 -0.893352806568145752 0.14392465353012085
0.933518350124359131 -0.814022362232208252 0.279593586921691895
0.418642103672027588 0.955652177333831787 0.639914274215698242
0.562748432159423828 0.827797055244445801 0.569741189479827881
1.09733915328979492 -0.702951967716217041 0.217068344354629517
0.521811246871948242 -0.624205052852630615 0.247102946043014526
0.608053147792816162 -0.712190091609954834 0.167518541216850281
0.767938554286956787 -0.680979013442993164 0.267853021621704102
0.613030552864074707 -0.865570127964019775 0.26305234432220459
0.403987497091293335 0.864186108112335205 0.380905747413635254
0.841265320777893066 -0.485253661870956421 0.0185561478137969971
0.955861985683441162 -0.856379985809326172 0.134825915098190308
1.21044623851776123 -1.40684640407562256 0.0260553807020187378
0.980743706226348877 -0.608825325965881348 0.0272357463836669922
0.45451703667640686 0.693236947059631348 0.547027647495269775
1.33941030502319336 -1.69473898410797119 0.0974252074956893921
0.571882963180541992 0.749061048030853271 0.55840533971786499
0.716267585754394531 -0.768580257892608643 -0.00839480757713317871
0.899030804634094238 -0.755802035331726074 0.13776843249797821
0.637222647666931152 -0.930430054664611816 0.286117434501647949
0.372360289096832275 0.922490060329437256 0.504615128040313721
0.57342904806137085 -0.666073918342590332 0.269604861736297607
1.20398199558258057 -1.56236803531646729 0.0815539658069610596
0.91349261999130249 -0.668591618537902832 0.168025389313697815
0.481555640697479248 0.733677446842193604 0.320914804935455322
0.392048925161361694 1.05971848964691162 0.604192614555358887
1.28546345233917236 -1.65839064121246338 0.12593512237071991
0.528143942356109619 0.832598328590393066 0.520301342010498047
0.947360634803771973 -0.872499287128448486 0.196266472339630127
0.80684506893157959 -0.809566259384155273 0.284409523010253906
0.953999340534210205 -0.655057907104492188 0.0457313656806945801
1.30671119689941406 -1.4286034107208252 0.103672832250595093
0.52536463737487793 0.864407718181610107 0.300674378871917725
0.559749245643615723 -0.760596394538879395 0.292133748531341553
1.05061972141265869 -0.814055800437927246 0.240239113569259644
1.13912975788116455 -1.5901331901550293 0.0306039750576019287
0.71754223108291626 -0.901085555553436279 0.107524417340755463
0.453732073307037354 0.896523118019104004 0.408935308456420898
0.837051331996917725 -0.815903067588806152 0.275854825973510742
0.508682787418365479 0.86778789758682251 0.651661276817321777
0.371802747249603271 0.77020561695098877 0.221820265054702759
0.789222359657287598 -0.843668997287750244 0.156342655420303345
0.333602219820022583 0.832918107509613037 0.375456869602203369
1.26316165924072266 -1.61296689510345459 0.16098254919052124
0.928945541381835938 -0.70426332950592041 0.341770082712173462
0.497642815113067627 0.955535233020782471 0.58363807201385498
1.31812751293182373 -1.48717749118804932 0.139391332864761353
0.453856587409973145 0.917061924934387207 0.475997030735015869
1.1358259916305542 -1.46032583713531494 0.136812597513198853
0.40280526876449585 -0.708250999450683594 0.181720316410064697
1.18692851066589355 -1.28918123245239258 0.00765950232744216919
0.453238934278488159 0.844389140605926514 0.614404916763305664
0.919619083404541016 -0.825672447681427002 0.0610463321208953857
0.459709465503692627 0.863403856754302979 0.464409977197647095
0.87494128942489624 -0.847605109214782715 0.229747503995895386
0.976817786693572998 -0.65119469165802002 0.036061212420463562
0.562745332717895508 0.836425662040710449 0.579260289669036865
1.03535521030426025 -0.680991530418395996 0.120126873254776001
1.1050572395324707 -0.764879763126373291 0.201765209436416626
1.19778573513031006 -1.66089868545532227 0.0183833539485931396
0.465111106634140015 0.693762004375457764 0.558355629444122314
0.560577929019927979 -0.736726880073547363 0.227563798427581787
1.09660041332244873 -0.788933277130126953 0.181342959403991699
0.874251365661621094 -0.758118152618408203 0.0750507712364196777
0.525242328643798828 -0.759530425071716309 0.190964162349700928
0.42868080735206604 0.71091383695602417 0.470757633447647095
1.32688510417938232 -1.59372127056121826 0.112321972846984863
0.932619154453277588 -0.763585209846496582 0.0624628663063049316
1.31541776657104492 -1.47826695442199707 0.0486302599310874939
