ply
format ascii 1.0
element vertex 115
comment vertices
property float x
property float y
property float z
end_header
-0.752808332443237305 0.361254334449768066 -0.107799097895622253
0.28954005241394043 1.13342952728271484 0.343129575252532959
0.235847935080528259 1.98701715469360352 0.216706857085227966
0.286552578210830688 0.948137283325195312 -0.0532033070921897888
-0.69356614351272583 -0.817096233367919922 0.343720048666000366
0.45487406849861145 1.92597472667694092 0.339617609977722168
0.474836081266403198 0.846575498580932617 0.325438797473907471
-0.724041461944580078 -0.6109466552734375 0.40825316309928894
0.365544676780700684 0.808426141738891602 0.134487047791481018
-0.755552768707275391 0.067919611930847168 -0.152996629476547241
-0.967049896717071533 -0.588823139667510986 0.498199582099914551
0.407352030277252197 1.97349953651428223 0.16658608615398407
0.341423153877258301 0.94825214147567749 0.248375177383422852
-0.704316318035125732 -0.762599289417266846 0.418189585208892822
-0.607393383979797363 -0.81260073184967041 0.291085779666900635
0.391031712293624878 1.94819355010986328 0.266643166542053223
0.291164875030517578 2.01140713691711426 0.305224478244781494
0.351542145013809204 0.924382150173187256 0.0956173092126846313
0.527281582355499268 1.9351654052734375 0.337127476930618286
-0.785261034965515137 -0.750481009483337402 0.421369373798370361
-0.876900553703308105 -0.642935872077941895 0.339304417371749878
0.360316872596740723 0.983322620391845703 0.127303376793861389
-0.811442434787750244 -0.622803688049316406 0.373696208000183105
0.405729591846466064 2.07829594612121582 0.34994739294052124
-0.664286375045776367 -0.866198062896728516 0.393607050180435181
-0.682496964931488037 -0.926779031753540039 0.368735134601593018
0.33094438910484314 0.835213243961334229 0.313246965408325195
0.470941334962844849 1.83499681949615479 0.23660692572593689
0.314630240201950073 0.795014560222625732 0.0968056991696357727
-0.733509838581085205 -0.790268182754516602 0.453095406293869019
0.369701355695724487 0.854825973510742188 0.191895768046379089
-0.873056232929229736 -0.655753374099731445 0.292921900749206543
0.389917671680450439 0.851776838302612305 0.359437018632888794
0.506899893283843994 1.94822049140930176 0.286875724792480469
-0.813923001289367676 -0.667132318019866943 0.398266881704330444
0.397861868143081665 1.74380087852478027 0.163202762603759766
0.270820051431655884 0.872620344161987305 0.00708255358040332794
0.38001742959022522 1.96123313903808594 0.217067509889602661
0.416075199842453003 0.834852993488311768 0.266605645418167114
0.336895883083343506 0.685887932777404785 0.225709587335586548
-0.860541343688964844 0.190299764275550842 -0.161249831318855286
-0.7081717848777771 -0.789079070091247559 0.313385814428329468
0.380719244480133057 2.00551390647888184 0.327958881855010986
-0.906458497047424316 -0.678147673606872559 0.312725663185119629
-0.654163181781768799 0.197184145450592041 -0.196754053235054016
0.263260513544082642 2.06509709358215332 0.157918006181716919
0.340994328260421753 0.925643682479858398 0.149027913808822632
0.27588498592376709 1.04600012302398682 0.11124875396490097
0.29667016863822937 1.99482083320617676 0.402651339769363403
-0.821512401103973389 -0.685567557811737061 0.320289492607116699
0.380379617214202881 0.929925203323364258 0.217420637607574463
0.268531680107116699 0.891485691070556641 0.130961418151855469
0.4468403160572052 0.875056922435760498 0.256803005933761597
0.445655643939971924 1.88042986392974854 0.187303304672241211
0.380713582038879395 0.927880167961120605 0.220775574445724487
-0.81538623571395874 -0.702518165111541748 0.596443116664886475
-0.662656009197235107 -0.939586281776428223 0.260955452919006348
0.285350441932678223 1.90553522109985352 0.296687781810760498
-0.756412804126739502 -0.766822218894958496 0.360751330852508545
-0.805929601192474365 -0.60935211181640625 0.226225852966308594
-1.01509201526641846 -0.539574027061462402 0.378231406211853027
0.414753854274749756 1.93244671821594238 0.187399476766586304
0.358493030071258545 0.982705891132354736 0.270527958869934082
0.408966183662414551 1.88134980201721191 0.300451129674911499
-0.68437957763671875 -0.91844940185546875 0.299558967351913452
0.262279719114303589 1.95265638828277588 0.235078200697898865
-0.641631960868835449 -0.813096284866333008 0.256505221128463745
0.370235741138458252 0.789084553718566895 0.187161475419998169
0.389762639999389648 2.03334474563598633 0.379634350538253784
0.371167153120040894 0.93132483959197998 0.122454553842544556
0.543461620807647705 1.79014527797698975 0.220804318785667419
-0.619209229946136475 0.265697956085205078 -0.134634703397750854
0.362868309020996094 2.0029599666595459 0.298813849687576294
-0.697297453880310059 -0.747941315174102783 0.316664248704910278
0.461857616901397705 0.86790013313293457 0.375774502754211426
0.369979441165924072 0.851647078990936279 0.143986880779266357
0.415931820869445801 0.76040804386138916 0.244304552674293518
0.450982213020324707 1.97366642951965332 0.364876449108123779
-0.678401708602905273 0.367811769247055054 -0.201791852712631226
0.376119613647460938 0.875497102737426758 0.233239948749542236
0.167304456233978271 0.990000009536743164 -0.00509698688983917236
0.38110312819480896 0.755081057548522949 0.207301229238510132
-0.666490614414215088 -0.88970184326171875 0.422506570816040039
0.429159700870513916 0.933285295963287354 0.272336483001708984
0.40038764476776123 0.878762602806091309 0.256320923566818237
-0.732126116752624512 -0.78756028413772583 0.432103872299194336
0.281504929065704346 0.823106229305267334 0.260444521903991699
0.473453521728515625 0.691263079643249512 0.239847168326377869
0.46274721622467041 1.90166223049163818 0.269846916198730469
0.454036504030227661 1.87305796146392822 0.250200152397155762
0.369959592819213867 0.88807988166809082 0.221833124756813049
-0.881011724472045898 -0.588691890239715576 0.324821263551712036
-0.896081507205963135 -0.736279785633087158 0.437458246946334839
0.48027801513671875 1.86180329322814941 0.252644121646881104
-0.676227569580078125 -0.823899924755096436 0.299740910530090332
0.31803131103515625 0.935662925243377686 0.153410553932189941
0.459732413291931152 1.08557033538818359 0.240266501903533936
0.401286929845809937 1.83561837673187256 0.183751553297042847
0.379193961620330811 2.03708195686340332 0.324702441692352295
-0.629113852977752686 -0.797341287136077881 0.291316837072372437
0.274231702089309692 2.03971219062805176 0.229540392756462097
0.314183354377746582 0.826396942138671875 0.254156410694122314
0.316318362951278687 0.8944663405418396 0.151686012744903564
0.422628253698348999 0.723613500595092773 0.109173998236656189
-0.727311372756958008 -0.74601292610168457 0.270499080419540405
-0.623295903205871582 -0.891122937202453613 0.338052034378051758
0.322817206382751465 0.880557060241699219 0.279116451740264893
0.326519787311553955 0.81969141960144043 0.168969929218292236
-0.695823311805725098 -0.81935572624206543 0.353070437908172607
0.317988961935043335 0.808092355728149414 0.199988633394241333
0.452429592609405518 0.886762142181396484 0.227394133806228638
-0.914807379245758057 -0.625439226627349854 0.372435927391052246
0.360328972339630127 0.922700643539428711 0.117116302251815796
0.418692439794540405 0.987438023090362549 0.377147674560546875
0.357717394828796387 2.06117916107177734 0.359743118286132812
