ply
format ascii 1.0
element vertex 256
comment vertices
property float x
property float y
property float z
end_header
-0.908375263214111328 0.498363018035888672 0.338402479887008667
-1.01879680156707764 -0.297707676887512207 0.402844130992889404
-1.32724285125732422 1.7971189022064209 0.446107655763626099
-0.356426358222961426 0.714367032051086426 0.441778242588043213
-1.03828310966491699 -1.00206232070922852 0.450540155172348022
-1.2847062349319458 -0.69527590274810791 0.430079609155654907
-0.645469188690185547 -0.750505208969116211 0.338604509830474854
-0.77617180347442627 0.743840396404266357 0.440768122673034668
0.0870202779769897461 1.01362431049346924 0.319678574800491333
-1.46452677249908447 0.654155313968658447 0.356105059385299683
-0.809859812259674072 -0.481851786375045776 0.431617170572280884
-1.619232177734375 1.84296095371246338 0.403826236724853516
-0.616544902324676514 -0.752596139907836914 0.297387301921844482
-0.986560702323913574 -1.20054590702056885 0.374398082494735718
-1.11646223068237305 0.0762699544429779053 0.350804775953292847
0.189265713095664978 0.960519492626190186 0.352291971445083618
-0.862685561180114746 0.387455105781555176 0.439214795827865601
-0.742215573787689209 -0.612054884433746338 0.421176314353942871
-0.190131306648254395 -0.389220833778381348 0.400026112794876099
-0.0682379752397537231 0.93130570650100708 0.3767261803150177
-1.04654026031494141 -0.326709926128387451 0.414755731821060181
-1.35210132598876953 -0.91557919979095459 0.416280597448348999
-1.03763556480407715 -0.296019852161407471 0.379027485847473145
-1.80322873592376709 1.91028404235839844 0.392207920551300049
-1.1259300708770752 0.758885800838470459 0.417845070362091064
-0.920661449432373047 0.416999727487564087 0.348078131675720215
-0.894600749015808105 0.531678438186645508 0.376203477382659912
-0.954483270645141602 -1.59885859489440918 0.447794735431671143
0.124341122806072235 1.0351259708404541 0.38735044002532959
-1.10090720653533936 1.03599977493286133 0.378258258104324341
-0.44065520167350769 0.465337991714477539 0.511240601539611816
-1.20174336433410645 -0.468428194522857666 0.3821219801902771
-0.655095100402832031 -0.76900714635848999 0.283014804124832153
-1.5479048490524292 2.06309318542480469 0.346731275320053101
-0.893088757991790771 -0.95546036958694458 0.440747499465942383
0.232542827725410461 1.04221606254577637 0.336913704872131348
-0.704504787921905518 0.389020681381225586 0.498511046171188354
-0.798236608505249023 0.523330569267272949 0.465652734041213989
-0.947640299797058105 -0.669437587261199951 0.370580077171325684
-0.877429604530334473 0.580427765846252441 0.303691774606704712
-0.950794816017150879 -0.651936709880828857 0.422663092613220215
-0.377742648124694824 -0.640360832214355469 0.403710454702377319
-0.77525782585144043 -0.641529083251953125 0.335479944944381714
0.202166050672531128 0.973794698715209961 0.321305274963378906
-1.06526708602905273 -0.412833213806152344 0.41113966703414917
-1.59729611873626709 1.78782105445861816 0.406378686428070068
-0.986513137817382812 0.977441489696502686 0.44576069712638855
-1.45426654815673828 1.77495384216308594 0.422371208667755127
-0.811583995819091797 0.519817531108856201 0.426724731922149658
-1.59536433219909668 -0.699187576770782471 0.467376381158828735
-1.64694809913635254 -0.571900486946105957 0.374897122383117676
0.138441741466522217 0.974811971187591553 0.367420196533203125
-0.915826559066772461 0.472553938627243042 0.347440242767333984
-1.15666007995605469 0.576131582260131836 0.49636918306350708
-0.94237130880355835 1.40570616722106934 0.3330727219581604
-0.65503007173538208 -0.753135561943054199 0.287617653608322144
-1.43498694896697998 1.44486331939697266 0.428348749876022339
-0.806420743465423584 0.474197328090667725 0.374004542827606201
-1.67394661903381348 1.92045187950134277 0.415787667036056519
-1.0077667236328125 -0.310105800628662109 0.395517408847808838
-1.12502825260162354 -0.701369225978851318 0.393640071153640747
-0.64152681827545166 -0.410940349102020264 0.452604115009307861
-0.200192302465438843 0.838110446929931641 0.45801892876625061
0.166365236043930054 0.980300962924957275 0.374608039855957031
-1.41741681098937988 -0.0853352174162864685 0.443563401699066162
-0.790551900863647461 0.544412791728973389 0.370646417140960693
-1.03864145278930664 -0.36547437310218811 0.417480885982513428
-0.659827589988708496 -0.0585588216781616211 0.543634891510009766
-0.83423149585723877 0.468357682228088379 0.303285419940948486
-0.579999446868896484 0.56460106372833252 0.485489547252655029
-1.42710232734680176 2.11195731163024902 0.386719733476638794
-1.76732444763183594 1.91074204444885254 0.37826913595199585
-1.05867218971252441 -0.695545196533203125 0.568545937538146973
-0.874844491481781006 0.411304831504821777 0.323797762393951416
-0.837163329124450684 -0.511164665222167969 0.427310973405838013
-0.622241199016571045 -0.765300631523132324 0.272838741540908813
-1.11200857162475586 0.201524645090103149 0.407383203506469727
-1.23694133758544922 0.859749734401702881 0.400329023599624634
-1.14768564701080322 -1.00818419456481934 0.410457223653793335
-0.913771092891693115 0.501151561737060547 0.342726588249206543
0.135130062699317932 0.970904946327209473 0.307324767112731934
-0.214865744113922119 0.938467025756835938 0.3552093505859375
-0.701123416423797607 -0.728103816509246826 0.279315143823623657
-1.61170303821563721 1.96209490299224854 0.38052678108215332
0.0608767792582511902 0.95551067590713501 0.43045380711555481
-0.0514247417449951172 -0.226314187049865723 0.405072212219238281
-1.07026195526123047 0.216546446084976196 0.360701829195022583
-0.918776035308837891 0.427942007780075073 0.311933517456054688
-0.628057181835174561 -0.730258584022521973 0.288080602884292603
-0.3856964111328125 0.354724884033203125 0.416959136724472046
-0.913416028022766113 0.614160776138305664 0.423863381147384644
-0.659822940826416016 -0.748264312744140625 0.284650951623916626
-0.657107114791870117 -0.76257169246673584 0.269594877958297729
-1.14705729484558105 0.967595934867858887 0.471252351999282837
0.124743729829788208 0.967189610004425049 0.428025245666503906
-1.5095219612121582 1.58344650268554688 0.425403177738189697
-1.4271702766418457 -0.732130646705627441 0.441116988658905029
-1.16271042823791504 -1.1181786060333252 0.455948859453201294
-1.12016820907592773 -0.111071683466434479 0.473301708698272705
-0.649429559707641602 0.721976637840270996 0.463282912969589233
-0.730150580406188965 -0.711535751819610596 0.350136339664459229
-1.02910697460174561 0.966456055641174316 0.431730747222900391
-0.779167354106903076 -0.467484354972839355 0.408127695322036743
-0.941959738731384277 -0.65651237964630127 0.387237966060638428
-0.877467453479766846 0.464285194873809814 0.336999088525772095
-1.64002561569213867 1.86159420013427734 0.393114566802978516
-1.5352168083190918 1.61549043655395508 0.368624001741409302
-0.958596587181091309 0.80456244945526123 0.424184024333953857
-1.50392818450927734 -0.695836722850799561 0.453561156988143921
-0.739178180694580078 0.38797450065612793 0.520630419254302979
-1.35138821601867676 -0.367885351181030273 0.419805943965911865
-0.622436702251434326 -0.745383381843566895 0.294396132230758667
-0.842180252075195312 0.460800528526306152 0.421817898750305176
-0.678502023220062256 -0.64310002326965332 0.323114216327667236
-0.880699872970581055 0.587745070457458496 0.406897395849227905
-1.60922205448150635 -0.484728395938873291 0.316232770681381226
0.0483597218990325928 0.957787871360778809 0.321264982223510742
-0.767443358898162842 -0.466923713684082031 0.385477930307388306
-0.836169600486755371 0.475638628005981445 0.340609937906265259
-0.841173768043518066 -0.524034976959228516 0.385468453168869019
0.172553762793540955 0.958196938037872314 0.354948043823242188
0.122391380369663239 1.03953886032104492 0.365150183439254761
-0.749703288078308105 -0.526310384273529053 0.400899410247802734
-0.0638969540596008301 -0.243513226509094238 0.375132620334625244
-0.616329789161682129 -0.416736841201782227 0.382288515567779541
-1.04443037509918213 -0.360319316387176514 0.442016780376434326
-0.865255773067474365 0.516568362712860107 0.324034601449966431
-1.4581601619720459 -0.246235638856887817 0.3783760666847229
-1.11817681789398193 -0.223663926124572754 0.425305604934692383
-0.584412217140197754 1.00690710544586182 0.441076397895812988
-1.46932542324066162 1.63319289684295654 0.386024385690689087
-1.24906301498413086 0.762634634971618652 0.441108942031860352
0.0846983268857002258 0.994529247283935547 0.426263540983200073
-0.209469512104988098 1.10178303718566895 0.397488385438919067
-0.848501980304718018 0.494658917188644409 0.380063802003860474
-0.885802328586578369 0.548049092292785645 0.347433656454086304
-1.42923092842102051 1.60514211654663086 0.392724424600601196
-1.52903532981872559 -0.772588610649108887 0.424019396305084229
-0.502842187881469727 -0.26222527027130127 0.432282030582427979
-1.27898871898651123 -0.63644176721572876 0.381624281406402588
-0.966755390167236328 -0.633450806140899658 0.39593091607093811
-0.656963706016540527 -0.765586733818054199 0.276194095611572266
-1.47806882858276367 1.63457787036895752 0.428138494491577148
0.160250067710876465 1.12413346767425537 0.366100698709487915
-1.02427411079406738 -1.56195259094238281 0.449321269989013672
-1.60163962841033936 1.87931931018829346 0.417842954397201538
-0.448310494422912598 -0.356218636035919189 0.440551191568374634
-1.20237600803375244 0.99239504337310791 0.422862231731414795
-0.725100874900817871 0.759425818920135498 0.429164022207260132
-1.11625385284423828 0.281538486480712891 0.450437307357788086
-0.922726213932037354 -0.667140305042266846 0.383438050746917725
-1.25601887702941895 -0.760389566421508789 0.460995495319366455
-0.845014274120330811 0.489810705184936523 0.463239490985870361
-1.11316275596618652 -0.711911857128143311 0.370017975568771362
-1.21133565902709961 0.164531230926513672 0.376177966594696045
-1.64396584033966064 1.85416126251220703 0.418796390295028687
-1.59644067287445068 1.88356339931488037 0.390703290700912476
-1.22914886474609375 -0.950503230094909668 0.427046060562133789
-1.46977972984313965 1.79731559753417969 0.381116956472396851
-0.568383097648620605 0.600593805313110352 0.45865243673324585
0.122883260250091553 1.08199143409729004 0.366982698440551758
-1.53548431396484375 -0.755334734916687012 0.416871428489685059
-1.08380818367004395 0.415811657905578613 0.49228966236114502
-0.845527291297912598 -0.739004015922546387 0.386475145816802979
0.084566071629524231 0.995404660701751709 0.347445547580718994
-1.28647935390472412 -0.42974245548248291 0.4011726975440979
-1.35964608192443848 -0.53250962495803833 0.396062880754470825
-0.697175979614257812 -0.246192812919616699 0.443644046783447266
-0.644510924816131592 -0.760714590549468994 0.278955399990081787
0.0565674901008605957 0.976926147937774658 0.342573583126068115
-1.11551773548126221 -1.17457127571105957 0.415646970272064209
-0.866932868957519531 0.441497564315795898 0.393473535776138306
-0.816734731197357178 -0.640123367309570312 0.408303707838058472
-1.59126102924346924 1.74569249153137207 0.389135450124740601
-0.512238979339599609 0.364219307899475098 0.496715962886810303
-1.03330826759338379 -0.273048162460327148 0.419047564268112183
-1.81131362915039062 1.99973797798156738 0.330797970294952393
-0.791311264038085938 0.591205120086669922 0.476181983947753906
-1.28667473793029785 -0.661282896995544434 0.449295729398727417
-0.412446886301040649 0.539708614349365234 0.471208691596984863
-1.0994267463684082 0.697448790073394775 0.44595038890838623
-0.653551220893859863 -0.750173211097717285 0.266326218843460083
-0.991390347480773926 -1.11836349964141846 0.450043767690658569
-0.924882173538208008 0.133680596947669983 0.388047784566879272
-0.6419181227684021 -0.794487833976745605 0.273685842752456665
-0.0192744433879852295 0.943059384822845459 0.352116018533706665
-0.415639638900756836 0.341262698173522949 0.517783641815185547
-0.747477173805236816 -0.366485476493835449 0.445699632167816162
-0.888440847396850586 0.532952666282653809 0.381681144237518311
-0.514284431934356689 0.521058559417724609 0.49226030707359314
-0.812075674533843994 0.796950638294219971 0.458414405584335327
0.254065871238708496 1.04779529571533203 0.362227112054824829
-1.27751278877258301 -0.259359478950500488 0.454300671815872192
0.203722909092903137 1.00862956047058105 0.409115821123123169
-0.884814739227294922 0.478303253650665283 0.30789262056350708
0.149470731616020203 0.974173963069915771 0.368555635213851929
-0.649873614311218262 -0.757134795188903809 0.276146858930587769
0.109277628362178802 1.03491353988647461 0.401857286691665649
-1.6842193603515625 -0.66231924295425415 0.428358495235443115
-0.967485547065734863 0.73549419641494751 0.433213591575622559
-0.740503907203674316 -0.327376127243041992 0.413041085004806519
-1.69804573059082031 1.95911526679992676 0.364367187023162842
-0.348909318447113037 0.844121217727661133 0.419720053672790527
-0.013599693775177002 -0.211116313934326172 0.433119714260101318
-1.639739990234375 2.14556980133056641 0.373415708541870117
-1.02485072612762451 0.204971626400947571 0.400255203247070312
-0.652799725532531738 -0.72858119010925293 0.304053694009780884
0.171502456068992615 1.02542722225189209 0.364124298095703125
-1.43737959861755371 -0.906849026679992676 0.455449879169464111
-0.534011602401733398 0.257851243019104004 0.434631049633026123
-0.713712692260742188 -0.806017220020294189 0.273563653230667114
-1.4203944206237793 -0.525525450706481934 0.432038635015487671
-1.53815293312072754 1.79019010066986084 0.387913405895233154
-0.868306577205657959 0.452279508113861084 0.322682321071624756
0.167034238576889038 0.954722404479980469 0.401145458221435547
-1.83242404460906982 -0.86595606803894043 0.464903265237808228
-1.15275847911834717 -0.574076592922210693 0.396021991968154907
-0.917575597763061523 0.791612029075622559 0.420430421829223633
-0.875694870948791504 0.495020151138305664 0.333861589431762695
-0.777090311050415039 0.436793714761734009 0.489424824714660645
-0.718544840812683105 -0.442063450813293457 0.43128591775894165
-0.633437693119049072 -0.77826923131942749 0.260419011116027832
-0.738156020641326904 -0.788039922714233398 0.272660672664642334
-1.34747576713562012 -0.5363006591796875 0.347910583019256592
-1.28714501857757568 -0.0660744085907936096 0.45883217453956604
-0.898147225379943848 -0.59386366605758667 0.421186894178390503
-0.810609936714172363 0.552685797214508057 0.425955891609191895
-0.832563698291778564 -0.482092797756195068 0.41994127631187439
0.0846327543258666992 0.968416213989257812 0.322645246982574463
-0.85321497917175293 0.462796032428741455 0.340118318796157837
-0.948823332786560059 -0.424858570098876953 0.438623756170272827
-0.924653947353363037 0.96780472993850708 0.419428765773773193
-1.49054980278015137 1.41549468040466309 0.406495571136474609
-0.698878049850463867 -0.803110480308532715 0.240765482187271118
-0.766101717948913574 0.867846846580505371 0.470112532377243042
0.143072426319122314 0.988997220993041992 0.377200931310653687
-1.07705044746398926 0.337838530540466309 0.45966455340385437
0.184943661093711853 1.02077078819274902 0.367417991161346436
-0.917468726634979248 0.440547049045562744 0.348567813634872437
0.111486777663230896 0.967940092086791992 0.344123303890228271
-0.587027072906494141 0.331809878349304199 0.434524983167648315
-0.723188817501068115 -0.491974145174026489 0.403904050588607788
-0.872829794883728027 0.514024615287780762 0.331147223711013794
-1.5119631290435791 -0.424468040466308594 0.339289069175720215
-1.82621479034423828 1.95527791976928711 0.417693436145782471
-0.858279109001159668 0.395657002925872803 0.440350323915481567
-0.856032192707061768 -0.624738335609436035 0.313429176807403564
-1.20927619934082031 -1.31111669540405273 0.450892746448516846
-0.81180119514465332 -0.546569108963012695 0.421837657690048218
-1.62298941612243652 1.82272255420684814 0.41138225793838501
-0.61035311222076416 -0.418615221977233887 0.399416565895080566
-0.570807039737701416 0.510140776634216309 0.47660905122756958
-1.06587469577789307 -0.500421524047851562 0.389667242765426636
-0.661613404750823975 -0.792581558227539062 0.279286891222000122
-0.89818871021270752 -0.653332948684692383 0.351269513368606567
-0.856893599033355713 0.494162470102310181 0.427422046661376953
