ply
format ascii 1.0
element vertex 256
comment vertices
property float x
property float y
property float z
end_header
-0.192486241459846497 0.921795308589935303 0.366952896118164062
-0.173930943012237549 -1.22568690776824951 0.0839166343212127686
-2.02320289611816406 0.00837609358131885529 0.097849234938621521
0.576450467109680176 0.863283514976501465 0.0535084307193756104
-0.942068755626678467 -0.498842447996139526 0.0976649373769760132
-0.819351434707641602 -0.571755409240722656 0.036549985408782959
0.021038055419921875 -1.52809548377990723 0.235650181770324707
-0.813981771469116211 -0.57762521505355835 0.0434387028217315674
0.532978713512420654 0.66159212589263916 0.154088065028190613
-1.09655368328094482 0.135046094655990601 0.458740830421447754
-0.0147523880004882812 -1.63552498817443848 0.23287045955657959
0.0751061439514160156 -2.06969261169433594 0.400238037109375
-2.04175543785095215 -0.0281341485679149628 0.103886686265468597
0.101535066962242126 0.967961370944976807 0.2228240966796875
-0.0867640078067779541 1.1899644136428833 0.292792737483978271
-0.941890120506286621 -0.120936661958694458 0.403848260641098022
-0.301625251770019531 -0.665895700454711914 0.0938429534435272217
-1.11415576934814453 -1.48722255229949951 0.270928472280502319
1.38507306575775146 1.56049764156341553 0.193281352519989014
-0.256908237934112549 0.950939178466796875 0.354983359575271606
-0.811721086502075195 -0.583705782890319824 0.0269565284252166748
0.0562164783477783203 -1.97063183784484863 0.359732508659362793
0.0218819379806518555 -2.06359052658081055 0.384905874729156494
-0.969437360763549805 -0.00479428470134735107 0.47530171275138855
1.21059501171112061 1.39845621585845947 0.254760771989822388
-0.234419703483581543 0.888837218284606934 0.353519231081008911
-0.962316572666168213 0.290973275899887085 0.384818017482757568
1.01422774791717529 1.30431652069091797 0.193938016891479492
-0.837931215763092041 -0.572007060050964355 0.0712236762046813965
-0.637947797775268555 -0.641088008880615234 0.0450851917266845703
-2.0261223316192627 -0.0238551795482635498 0.100838117301464081
0.26763617992401123 -1.11561775207519531 0.105175137519836426
0.641605377197265625 0.787362337112426758 0.084515988826751709
-0.0662718415260314941 -0.806149065494537354 0.0744158327579498291
-0.0608487576246261597 0.944343090057373047 0.315542042255401611
0.143300056457519531 -0.959444761276245117 0.0186865329742431641
0.536258220672607422 0.68932807445526123 0.0713134706020355225
1.40506064891815186 1.38377833366394043 0.157721340656280518
-0.77667766809463501 -0.575673162937164307 0.0271079838275909424
-0.826827526092529297 -0.537943720817565918 0.063551098108291626
-0.854245245456695557 -0.58499300479888916 0.0675008594989776611
-0.26560521125793457 0.959018170833587646 0.336431413888931274
-0.196791589260101318 -0.735994338989257812 0.0624022483825683594
-0.153763622045516968 0.890816688537597656 0.263687998056411743
0.150938093662261963 -0.961083769798278809 0.0211544334888458252
-0.932937920093536377 -1.69339108467102051 0.295727044343948364
-0.18179747462272644 0.893816888332366943 0.338987261056900024
0.109859466552734375 -2.07103252410888672 0.40757867693901062
-1.00782692432403564 0.0686300396919250488 0.459311962127685547
-0.913834989070892334 0.218560248613357544 0.214395999908447266
-0.12641182541847229 -2.10004496574401855 0.392274200916290283
-0.0171505790203809738 0.987716913223266602 0.257625788450241089
-2.04469823837280273 -0.0693140476942062378 0.114246606826782227
-0.912680566310882568 0.112075597047805786 0.358768284320831299
-0.00242221355438232422 -1.10069775581359863 0.105617523193359375
-0.213090330362319946 0.901218950748443604 0.348800033330917358
-0.708569765090942383 -0.570966660976409912 0.102615177631378174
0.0361999869346618652 -0.934693336486816406 0.136956214904785156
0.532836377620697021 0.610569357872009277 0.0751650333404541016
-0.173805132508277893 0.863955259323120117 0.376876801252365112
0.677503108978271484 0.812634706497192383 0.0782802700996398926
-0.270723581314086914 0.940031051635742188 0.330382078886032104
-2.02063298225402832 -0.0266387313604354858 0.0912452191114425659
-0.00749707221984863281 -0.896987199783325195 0.141858190298080444
-0.253942012786865234 0.959375679492950439 0.351870059967041016
0.0562623143196105957 -1.96870636940002441 0.383138388395309448
-1.55753421783447266 -1.2677994966506958 0.188719242811203003
0.0202466249465942383 -2.11271309852600098 0.392652750015258789
0.46569359302520752 1.13583040237426758 0.248582914471626282
-0.0831629037857055664 -2.14170360565185547 0.397609174251556396
-0.00555223226547241211 -2.01499271392822266 0.379041761159896851
-2.0326683521270752 -0.0333692729473114014 0.0921697542071342468
-2.0124514102935791 -0.00963860750198364258 0.0924279019236564636
-0.819329142570495605 -0.583297193050384521 0.0497166812419891357
-1.04096698760986328 0.0223712921142578125 0.450553387403488159
-0.879626214504241943 0.428066730499267578 0.389499366283416748
-0.801491498947143555 -1.81400299072265625 0.294592440128326416
-0.856084167957305908 -1.75994467735290527 0.318821877241134644
0.0795247554779052734 -1.91413426399230957 0.334332525730133057
1.3361201286315918 1.52625930309295654 0.158953562378883362
1.33742570877075195 1.52183246612548828 0.17144167423248291
0.14764481782913208 -0.951149642467498779 0.0170153677463531494
-1.06758832931518555 -0.0438550561666488647 0.311131179332733154
1.38979828357696533 1.33593273162841797 0.172990858554840088
-0.819111347198486328 -1.8232874870300293 0.30902591347694397
-2.00993084907531738 -0.0129401758313179016 0.101155869662761688
-1.90066194534301758 -0.19521719217300415 0.155718237161636353
-0.27102622389793396 0.887849867343902588 0.305615782737731934
0.519416451454162598 0.855818212032318115 0.030700385570526123
0.0445119291543960571 0.926861166954040527 0.214209645986557007
-0.0218384861946105957 -2.01304030418395996 0.359167158603668213
-0.797069787979125977 -1.80411434173583984 0.308337986469268799
-2.02349042892456055 -0.0802707374095916748 0.102297112345695496
-1.07441329956054688 -0.661769390106201172 0.0105772316455841064
0.668364763259887695 0.67776191234588623 0.103942066431045532
0.135937094688415527 -1.04735338687896729 0.107674300670623779
0.1539267897605896 -0.976206541061401367 0.0245943069458007812
0.0638153553009033203 -1.02452278137207031 0.0818127989768981934
-0.817421138286590576 -0.586986660957336426 0.0457626879215240479
-1.04648232460021973 0.0652472227811813354 0.472712546586990356
-1.18306803703308105 0.340756505727767944 0.326337039470672607
-0.245378494262695312 -1.91203677654266357 0.355883240699768066
-0.107603073120117188 -0.761360764503479004 0.0804558992385864258
-0.233186826109886169 0.992769598960876465 0.211546182632446289
0.0205577611923217773 -2.11275148391723633 0.401696264743804932
-0.599247336387634277 -0.570716798305511475 0.0869289934635162354
-2.00688743591308594 -0.0163720790296792984 0.0931733474135398865
-0.153707623481750488 0.857561290264129639 0.38188520073890686
-0.0657721757888793945 -2.06283426284790039 0.392999470233917236
0.105991959571838379 -1.96078300476074219 0.416181564331054688
-0.252463817596435547 0.954944968223571777 0.32423749566078186
-2.05374002456665039 -0.0727341175079345703 0.111354857683181763
-0.847288608551025391 -1.45088517665863037 0.278332173824310303
-0.842584013938903809 -1.93067324161529541 0.301611393690109253
-0.108098581433296204 0.881141543388366699 0.234712928533554077
-0.82859957218170166 -0.609217166900634766 0.0551127195358276367
-2.01788854598999023 -0.0169604867696762085 0.0925763100385665894
-0.56139063835144043 -1.75264692306518555 0.282050102949142456
-0.234604775905609131 -0.703372478485107422 0.0917070508003234863
-0.799076199531555176 -0.574194908142089844 0.0490666627883911133
-1.00823307037353516 0.116815552115440369 0.464869260787963867
-1.00090456008911133 0.00826475024223327637 0.45045626163482666
-0.791019439697265625 -0.681349635124206543 0.109144061803817749
-0.827207684516906738 -0.546429097652435303 0.0861496627330780029
0.0540000796318054199 -1.11832904815673828 0.08856162428855896
-1.68684136867523193 -0.749261021614074707 0.150510236620903015
-1.25722634792327881 -0.0297043323516845703 0.323507338762283325
-0.246741130948066711 0.901119351387023926 0.297590702772140503
1.31563305854797363 1.41903281211853027 0.182531610131263733
-0.215654075145721436 0.938344597816467285 0.316189110279083252
-2.04349827766418457 -0.0717786327004432678 0.116272047162055969
-2.03948783874511719 -0.0292278788983821869 0.103601008653640747
0.826732277870178223 1.06527328491210938 0.0830877721309661865
-0.747534811496734619 -0.155106067657470703 0.358889371156692505
-2.01892185211181641 -0.01705218106508255 0.0932665392756462097
-2.02265167236328125 -0.0223231017589569092 0.0977408364415168762
0.573166072368621826 0.857753872871398926 0.115316569805145264
0.750238180160522461 1.03924369812011719 0.0704407691955566406
-0.0992698371410369873 -1.94245314598083496 0.336799860000610352
0.671672165393829346 1.24390959739685059 0.220108360052108765
-0.0232399702072143555 -1.96168303489685059 0.408430337905883789
0.549245297908782959 0.84376990795135498 0.0927742123603820801
-0.0495489239692687988 -2.01726150512695312 0.359622538089752197
-1.78681743144989014 -0.711185932159423828 0.134644061326980591
-0.237732052803039551 0.902419805526733398 0.352453500032424927
-0.859469175338745117 -1.72545969486236572 0.305711328983306885
0.581483423709869385 0.76887977123260498 0.0998253226280212402
0.0744617581367492676 -1.94705092906951904 0.388659507036209106
-0.178736954927444458 0.917035937309265137 0.324754148721694946
0.0926517248153686523 -1.32355678081512451 0.173557817935943604
-1.07941257953643799 0.0333812534809112549 0.472976475954055786
-2.12098550796508789 -0.95923924446105957 0.165707617998123169
-0.825014770030975342 -0.581346809864044189 0.0434699058532714844
-0.850298881530761719 -1.74898362159729004 0.317634522914886475
0.479754894971847534 0.569094419479370117 0.11808227002620697
-0.461789250373840332 -0.614307641983032227 0.0879517793655395508
-0.310931146144866943 -0.69312596321105957 0.0923112034797668457
-1.86158382892608643 -0.241585448384284973 0.177403867244720459
0.484395295381546021 1.0347907543182373 0.160325318574905396
-0.0675934553146362305 -0.788897931575775146 0.0685062110424041748
-2.01440167427062988 -0.0100321955978870392 0.0901656150817871094
-0.253827065229415894 0.93706810474395752 0.327087640762329102
-0.333892226219177246 -1.85117447376251221 0.327564775943756104
-1.76159572601318359 -0.739789485931396484 0.146675571799278259
-2.02337145805358887 -0.0302953366190195084 0.0923248082399368286
0.354831993579864502 0.844831168651580811 0.152374699711799622
-0.137387990951538086 0.84888768196105957 0.321382254362106323
-0.894450604915618896 -0.246294796466827393 0.257929503917694092
-0.644290626049041748 -1.89713108539581299 0.35815507173538208
-2.00227761268615723 -0.281865030527114868 0.164255321025848389
-0.0527724027633666992 -1.98925173282623291 0.381575465202331543
-0.309324383735656738 -0.757733702659606934 0.116889685392379761
-0.858904540538787842 -0.545755863189697266 0.085148543119430542
-1.80388116836547852 -0.559439539909362793 0.33095020055770874
-0.176908031105995178 0.878092348575592041 0.357425898313522339
0.0781655311584472656 -1.94993960857391357 0.417431086301803589
-0.916838765144348145 -0.567036151885986328 0.0618169009685516357
0.634692609310150146 0.741856694221496582 0.134475022554397583
-0.0433378219604492188 -0.883120715618133545 0.0787475407123565674
-0.275794684886932373 0.895070195198059082 0.310385793447494507
-2.03379273414611816 -0.0735387727618217468 0.110349208116531372
-0.274078547954559326 0.967373490333557129 0.332190662622451782
-2.02145648002624512 -0.0190721414983272552 0.0922167971730232239
-0.86916959285736084 -1.85731983184814453 0.299810230731964111
-1.71790003776550293 -0.75332951545715332 0.135924011468887329
-0.1103057861328125 -2.06317353248596191 0.383039563894271851
1.39799487590789795 1.48973774909973145 0.164364531636238098
-0.876354336738586426 -1.75713324546813965 0.300420463085174561
-0.219454079866409302 0.924190878868103027 0.359631747007369995
-0.41518247127532959 -0.605229616165161133 0.0804240107536315918
-2.02202129364013672 0.00146688148379325867 0.101136237382888794
-0.849069118499755859 -0.491598904132843018 0.108385264873504639
0.0292208194732666016 -2.02725577354431152 0.410178780555725098
-0.302733659744262695 -0.694289088249206543 0.0907514691352844238
-1.99354612827301025 -0.00563821103423833847 0.105144888162612915
-0.685407698154449463 -1.86484813690185547 0.333716779947280884
-0.0191782116889953613 -1.45991778373718262 0.211030110716819763
-0.895148754119873047 -1.46017181873321533 0.240906059741973877
-0.869883298873901367 -1.81007218360900879 0.299305140972137451
-1.88148093223571777 -0.171401411294937134 0.137122184038162231
-0.834660470485687256 -0.579378604888916016 0.0399237275123596191
-0.0154933929443359375 -1.99549484252929688 0.368484824895858765
0.0346557162702083588 1.02792179584503174 0.252588182687759399
-2.03075194358825684 -0.030988616868853569 0.0961054936051368713
-0.0643390417098999023 -2.06598401069641113 0.368733644485473633
-2.01734638214111328 -0.0174207165837287903 0.0966861024498939514
-0.890218496322631836 -1.75609838962554932 0.301239222288131714
-2.0213162899017334 -0.0181218013167381287 0.0903344675898551941
-0.107096672058105469 -0.970964133739471436 0.0793138742446899414
0.022282719612121582 -2.07515501976013184 0.411957919597625732
-2.04314231872558594 -0.0243842899799346924 0.105991199612617493
-2.04779767990112305 -0.0390322282910346985 0.0974432602524757385
0.022082984447479248 -1.62163448333740234 0.23867468535900116
-0.81628727912902832 -1.81072819232940674 0.307806313037872314
0.905400335788726807 1.03753840923309326 0.16604238748550415
-0.126566171646118164 -1.0117182731628418 0.13036656379699707
0.619861841201782227 0.733061730861663818 0.111452221870422363
-0.00179696083068847656 -2.11811637878417969 0.391542583703994751
0.12715226411819458 -0.985960900783538818 0.0223678350448608398
-0.928609967231750488 -0.0749816447496414185 0.458273231983184814
-2.02958273887634277 -0.0264560692012310028 0.0916525796055793762
-2.01959657669067383 -0.0162904486060142517 0.100433781743049622
0.00119644403457641602 -1.0972139835357666 0.0883384346961975098
-0.574156761169433594 -1.65685200691223145 0.290873676538467407
-0.107683539390563965 -0.60210108757019043 0.186692297458648682
0.596508026123046875 0.713853955268859863 0.117598861455917358
0.371765553951263428 0.856836080551147461 0.146058648824691772
-0.85159146785736084 -1.77391958236694336 0.320712924003601074
-0.193880856037139893 -0.698397457599639893 0.0868600904941558838
1.40266180038452148 1.36177992820739746 0.187967985868453979
-0.775133311748504639 -0.581678509712219238 0.0874910503625869751
0.559740245342254639 0.642792284488677979 0.103295862674713135
0.0170186758041381836 -2.04510354995727539 0.413286715745925903
-1.37624931335449219 -0.719252109527587891 0.00361284613609313965
-0.256113499402999878 0.959222614765167236 0.355607360601425171
-0.927665889263153076 -1.79356205463409424 0.294023424386978149
0.52696382999420166 1.17002415657043457 0.252176403999328613
-0.486161649227142334 -0.599871933460235596 0.0836143195629119873
-0.586638689041137695 -1.85029053688049316 0.337615519762039185
-0.762723922729492188 -0.636651396751403809 0.0482298731803894043
-1.01182520389556885 -1.46833145618438721 0.248653411865234375
0.1355743408203125 -1.84150099754333496 0.309185922145843506
-0.694307148456573486 -0.666803300380706787 0.0496201217174530029
-1.32831883430480957 -1.33585822582244873 0.213667288422584534
-2.01106810569763184 -0.0217924751341342926 0.0943031609058380127
-0.233258575201034546 0.903893351554870605 0.338485807180404663
0.188946425914764404 0.956658005714416504 0.219587728381156921
-1.54221916198730469 -0.913255214691162109 0.167273461818695068
-0.0163053274154663086 -1.97864294052124023 0.342390209436416626
-1.98120760917663574 -0.262212455272674561 0.156738430261611938
0.453598678112030029 0.823419511318206787 0.171224012970924377
-1.61686813831329346 -0.848234236240386963 0.144177332520484924
-2.01707983016967773 -0.00113843195140361786 0.0980957075953483582
-0.0194035470485687256 -2.04467868804931641 0.364281535148620605
-0.154139161109924316 0.843092620372772217 0.380487620830535889
-0.430465579032897949 0.26687583327293396 0.332242846488952637
