ply
format ascii 1.0
element vertex 107
comment vertices
property float x
property float y
property float z
end_header
-0.894211888313293457 0.526037454605102539 0.371760070323944092
-0.65398329496383667 -0.736864089965820312 0.317005366086959839
-0.878171443939208984 0.535403251647949219 0.380576550960540771
0.229112818837165833 0.969860434532165527 0.362906515598297119
-0.651452362537384033 -0.733013153076171875 0.317110776901245117
0.210676535964012146 0.978559672832489014 0.355144351720809937
-0.901955068111419678 0.5193442702293396 0.367525160312652588
-0.650882363319396973 -0.763657093048095703 0.312362849712371826
0.191552206873893738 0.97465890645980835 0.373657435178756714
-0.884278714656829834 0.523932576179504395 0.366749018430709839
-0.894873082637786865 0.525158464908599854 0.370706498622894287
0.302887797355651855 -1.00087761878967285 0.0825255513191223145
0.233242958784103394 0.972426176071166992 0.353897571563720703
-0.652950167655944824 -0.731164455413818359 0.316658675670623779
0.228950262069702148 0.967509984970092773 0.357359319925308228
-0.892793416976928711 0.50681912899017334 0.35879594087600708
-0.898489654064178467 0.526031851768493652 0.360838413238525391
-0.898742496967315674 0.5150146484375 0.373956173658370972
-0.652482986450195312 -0.747006833553314209 0.31396058201789856
0.212126448750495911 0.977922439575195312 0.358745843172073364
-0.894412696361541748 0.527430891990661621 0.366489320993423462
-1.86994850635528564 -0.682371139526367188 0.328410118818283081
0.222224801778793335 0.971888244152069092 0.354443371295928955
-0.892790853977203369 0.525429069995880127 0.366168767213821411
-0.655119359493255615 -0.732074856758117676 0.318636208772659302
-0.884536802768707275 0.525938332080841064 0.364317208528518677
0.217812836170196533 0.974322080612182617 0.353384405374526978
-0.890379667282104492 0.517382919788360596 0.368409484624862671
-0.885626077651977539 0.523979127407073975 0.359651356935501099
-0.880823075771331787 0.526140451431274414 0.355962544679641724
-0.649103403091430664 -0.729296505451202393 0.31317564845085144
-0.892558634281158447 0.525626659393310547 0.376313000917434692
0.21996249258518219 0.969702839851379395 0.362736046314239502
-0.6555824875831604 -0.730515480041503906 0.32196962833404541
0.224692970514297485 0.960602939128875732 0.358205616474151611
-0.884102463722229004 0.523230552673339844 0.361533164978027344
-0.655044257640838623 -0.7351493239402771 0.318041682243347168
-0.895492315292358398 0.511911630630493164 0.367516636848449707
-0.655976474285125732 -0.731845736503601074 0.319118738174438477
-0.652897000312805176 -0.728899598121643066 0.316171407699584961
0.222293615341186523 0.965453445911407471 0.351111084222793579
-0.64015662670135498 -0.748878777027130127 0.310324162244796753
-0.890437006950378418 0.529041528701782227 0.365652918815612793
-0.889646947383880615 0.507023036479949951 0.355689644813537598
-0.653057575225830078 -0.733940780162811279 0.317457288503646851
-0.899903476238250732 0.525710821151733398 0.367341786623001099
-0.647906601428985596 -0.752941906452178955 0.308470308780670166
-0.892335116863250732 0.51857835054397583 0.364831775426864624
0.218668922781944275 0.95096057653427124 0.362830132246017456
-0.884905338287353516 0.52700197696685791 0.363263696432113647
0.212205857038497925 0.977316319942474365 0.354842215776443481
0.233282655477523804 0.973317146301269531 0.356046587228775024
-0.658670663833618164 -0.757780313491821289 0.316152781248092651
-0.892780482769012451 0.522215008735656738 0.367879420518875122
0.231272220611572266 0.962897002696990967 0.350976169109344482
-0.89399409294128418 0.528953075408935547 0.368302851915359497
-0.897958278656005859 0.520242154598236084 0.373868227005004883
-0.653066515922546387 -0.729981005191802979 0.316404551267623901
0.22447514533996582 0.96363377571105957 0.354825794696807861
0.218036532402038574 -1.00660240650177002 0.0923250913619995117
-0.906617224216461182 0.528227090835571289 0.361108601093292236
0.226627185940742493 0.972595870494842529 0.35590246319770813
-0.907396674156188965 0.518183350563049316 0.379789382219314575
-0.63513493537902832 -0.770421147346496582 0.315482228994369507
0.230301573872566223 0.965353250503540039 0.359816700220108032
-0.652381300926208496 -0.730476915836334229 0.316016554832458496
0.222052291035652161 0.961062133312225342 0.361150950193405151
-0.899083614349365234 0.527031302452087402 0.3685283362865448
-0.646663784980773926 -0.756351232528686523 0.323744505643844604
-0.893231630325317383 0.51505810022354126 0.365440070629119873
-0.653673350811004639 -0.728648126125335693 0.316788256168365479
-0.648040235042572021 -0.730353295803070068 0.311502397060394287
0.21145281195640564 0.962028563022613525 0.370701789855957031
-0.895395755767822266 0.525564253330230713 0.369780093431472778
0.224392697215080261 0.966243505477905273 0.355808138847351074
0.220165550708770752 0.97094118595123291 0.350561171770095825
-0.888443946838378906 0.526027321815490723 0.366350173950195312
0.220121294260025024 0.974100470542907715 0.354277640581130981
-0.653196573257446289 -0.730180025100708008 0.316516220569610596
0.230821430683135986 0.972275793552398682 0.3545055091381073
-1.85292220115661621 -0.62072300910949707 0.332038402557373047
-0.906749844551086426 0.529820680618286133 0.375464558601379395
-0.652775883674621582 -0.733821988105773926 0.31219106912612915
0.230590492486953735 0.971145510673522949 0.353035271167755127
-0.654622077941894531 -0.733232617378234863 0.3227882981300354
-0.885953903198242188 0.527580380439758301 0.362970948219299316
0.212843164801597595 0.975423038005828857 0.351394146680831909
-2.21126604080200195 -0.117654681205749512 0.271646678447723389
-0.891802608966827393 0.528370857238769531 0.367389082908630371
-0.903409481048583984 0.520485222339630127 0.361500442028045654
-0.647821903228759766 -0.727836787700653076 0.310836464166641235
-0.649154722690582275 -0.734312236309051514 0.327441126108169556
-0.892563819885253906 0.523268043994903564 0.367002040147781372
0.226486817002296448 0.95755922794342041 0.360080122947692871
-0.886977314949035645 0.527929008007049561 0.363674044609069824
-0.647423386573791504 -0.729526817798614502 0.317750990390777588
0.224144697189331055 0.972322702407836914 0.353926688432693481
-0.896982014179229736 0.486528545618057251 0.374201297760009766
0.227758154273033142 0.97121739387512207 0.352908998727798462
-0.889891862869262695 0.5248604416847229 0.363840490579605103
0.224240556359291077 0.96473395824432373 0.358373969793319702
-0.893744170665740967 0.52407371997833252 0.368479490280151367
-0.901667773723602295 0.519984960556030273 0.366597473621368408
-0.657793700695037842 -0.758207857608795166 0.323122382164001465
-0.650592505931854248 -0.731213092803955078 0.313906997442245483
-0.662153124809265137 -0.769191443920135498 0.333333522081375122
-0.902197003364562988 0.530590713024139404 0.366920351982116699
