ply
format ascii 1.0
element vertex 64
comment vertices
property float x
property float y
property float z
end_header
-1.25290286540985107 -0.446244627237319946 0.317842960357666016
1.31993520259857178 0.163312762975692749 0.109919235110282898
0.289508581161499023 -1.29810810089111328 0.204779565334320068
3.08698415756225586 -0.271496802568435669 0.412806063890457153
1.05374491214752197 0.811493456363677979 0.12712465226650238
0.662949264049530029 1.15299534797668457 0.503474533557891846
-0.295275390148162842 -1.29680860042572021 0.457308918237686157
0.483725965023040771 -3.0609133243560791 0.18127894401550293
2.72384738922119141 1.47778105735778809 0.0666112154722213745
0.9412422776222229 -0.939661085605621338 0.344579726457595825
-1.04657936096191406 0.820714056491851807 0.231766104698181152
2.00593137741088867 2.36207962036132812 0.468112796545028687
-0.10289803147315979 1.32601356506347656 0.181488841772079468
3.01052737236022949 0.734783351421356201 0.253732204437255859
-0.778410017490386963 -1.07841455936431885 0.11675417423248291
-1.32348060607910156 0.13152584433555603 0.332351118326187134
0 0 0
0 0 0
0 0 0
0 0 0
0 0 0
0 0 0
0 0 0
0 0 0
0 0 0
0 0 0
0 0 0
0 0 0
0 0 0
0 0 0
0 0 0
0 0 0
0 0 0
0 0 0
0 0 0
0 0 0
0 0 0
0 0 0
0 0 0
0 0 0
0 0 0
0 0 0
0 0 0
0 0 0
0 0 0
0 0 0
0 0 0
0 0 0
0 0 0
0 0 0
0 0 0
0 0 0
0 0 0
0 0 0
0 0 0
0 0 0
0 0 0
0 0 0
0 0 0
0 0 0
0 0 0
0 0 0
0 0 0
0 0 0
