ply
format ascii 1.0
element vertex 64
comment vertices
property float x
property float y
property float z
end_header
-0.741904973983764648 -1.10384643077850342 0.261420011520385742
1.3272627592086792 0.085285671055316925 0.0559618361294269562
-2.02870392799377441 -2.34255027770996094 0.344579726457595825
1.10937952995300293 -0.733605444431304932 0.148647665977478027
-2.5345456600189209 -1.78304791450500488 0.198147520422935486
1.2076181173324585 -2.85391664505004883 0.162482813000679016
-0.504502236843109131 -1.23060047626495361 0.373483061790466309
3.00431156158447266 0.759798109531402588 0.395684242248535156
-4.16678476333618164 -3.51527500152587891 0.291315764188766479
0.926868915557861328 0.953841686248779297 0.113070234656333923
0.00170328142121434212 -1.32999885082244873 0.346827149391174316
5.29207372665405273 1.30889761447906494 0.170246705412864685
0.353806853294372559 -1.28207671642303467 0.108215831220149994
-1.17135798931121826 0.629936814308166504 0.396532118320465088
-0.35063818097114563 1.28294694423675537 0.124123074114322662
0.298220604658126831 -3.08451700210571289 0.412079185247421265
0 0 0
0 0 0
0 0 0
0 0 0
0 0 0
0 0 0
0 0 0
0 0 0
0 0 0
0 0 0
0 0 0
0 0 0
0 0 0
0 0 0
0 0 0
0 0 0
0 0 0
0 0 0
0 0 0
0 0 0
0 0 0
0 0 0
0 0 0
0 0 0
0 0 0
0 0 0
0 0 0
0 0 0
0 0 0
0 0 0
0 0 0
0 0 0
0 0 0
0 0 0
0 0 0
0 0 0
0 0 0
0 0 0
0 0 0
0 0 0
0 0 0
0 0 0
0 0 0
0 0 0
0 0 0
0 0 0
0 0 0
0 0 0
