ply
format ascii 1.0
element vertex 256
comment vertices
property float x
property float y
property float z
end_header
1.87744832038879395 2.37291264533996582 0.575965464115142822
0.522634506225585938 -3.11856675148010254 0.262188047170639038
-1.46338701248168945 0.19892410933971405 0.35059705376625061
3.13648867607116699 -0.370083868503570557 0.585487008094787598
0.918680787086486816 -0.827176213264465332 0.174128144979476929
0.142190217971801758 1.3036353588104248 0.204847812652587891
2.80507040023803711 1.16510426998138428 0.0158320628106594086
-0.675046741962432861 -1.16754698753356934 0.107008486986160278
1.16404128074645996 0.422315090894699097 0.163805022835731506
-0.834424734115600586 0.884018540382385254 0.261379539966583252
0.182765692472457886 -1.27946579456329346 0.333425819873809814
-1.20272302627563477 -0.569076418876647949 0.362588346004486084
3.03227925300598145 0.415126562118530273 0.215205222368240356
0.776757359504699707 1.06819748878479004 0.620489895343780518
2.20141243934631348 2.54258584976196289 0.0149285914376378059
-0.362465530633926392 -1.27945756912231445 0.654078066349029541
0.974500834941864014 0.953127861022949219 0.0881460756063461304
1.85887408256530762 2.16588902473449707 0.079623095691204071
2.93035721778869629 -0.0893765091896057129 0.228513777256011963
0.889981448650360107 -0.96310114860534668 0.621296286582946777
2.84046006202697754 1.62070071697235107 0.0749774202704429626
-0.227260008454322815 -1.30175685882568359 0.124702006578445435
1.36174988746643066 0.00830530747771263123 0.126190930604934692
2.82335543632507324 0.792494475841522217 0.324629664421081543
-0.271863877773284912 1.35308778285980225 0.0947296619415283203
0.539911746978759766 -1.01810812950134277 0.222088485956192017
-0.880072355270385742 -0.815901756286621094 0.261002600193023682
0.606464087963104248 1.13476681709289551 0.244505196809768677
1.81887340545654297 2.57573699951171875 -0.0169624369591474533
-1.1277928352355957 0.838200151920318604 0.0803049206733703613
0.662710845470428467 -2.89973640441894531 0.0448691323399543762
1.18936705589294434 0.826306462287902832 0.31065678596496582
-0.132417231798171997 -1.23745536804199219 0.435284525156021118
0.353425323963165283 -1.20064973831176758 0.0420643612742424011
-1.17168164253234863 0.109085842967033386 0.406686842441558838
1.08968436717987061 -0.784233033657073975 0.465079456567764282
3.12494635581970215 0.738379836082458496 0.276349335908889771
3.13249945640563965 -0.31813502311706543 0.182589903473854065
2.16152024269104004 2.25081849098205566 0.104034394025802612
0.957694888114929199 0.652298927307128906 0.114174321293830872
-0.0755167528986930847 1.26526737213134766 0.403063386678695679
1.92546319961547852 2.49283766746520996 0.314864814281463623
0.866133689880371094 -1.10606145858764648 0.192478910088539124
1.12213766574859619 0.138763606548309326 0.163437813520431519
-1.24508821964263916 -0.329577744007110596 0.241839379072189331
3.16956782341003418 -0.105965547263622284 0.543141186237335205
2.95403838157653809 -0.319764673709869385 0.384482860565185547
0.803085148334503174 1.26507389545440674 0.438899368047714233
2.72663640975952148 1.03363490104675293 0.234801679849624634
-0.884537279605865479 -1.08194160461425781 0.264150440692901611
1.22706997394561768 0.761881470680236816 0.0610367096960544586
0.762194335460662842 0.853641152381896973 0.1915016770362854
0.433769375085830688 -1.30125081539154053 0.287889927625656128
1.33977293968200684 0.225181400775909424 0.259047567844390869
-0.0541185736656188965 1.25161540508270264 0.0241342950612306595
0.363391906023025513 -3.02721595764160156 0.104260414838790894
-0.484444916248321533 -1.33028709888458252 0.453571498394012451
0.003322649747133255 -1.28004729747772217 0.176147013902664185
0.22056145966053009 -1.07317566871643066 0.227302595973014832
-0.739503026008605957 -0.938025057315826416 0.120827950537204742
0.7809714674949646 1.04050028324127197 0.383833885192871094
2.82678389549255371 0.907448410987854004 0.0683723241090774536
-0.445298641920089722 -1.1669076681137085 0.134135007858276367
0.532948672771453857 -2.88818788528442383 0.258864074945449829
3.03539133071899414 0.656507730484008789 0.0806428492069244385
0.566533505916595459 1.09914302825927734 0.467825412750244141
0.937369346618652344 -0.978293001651763916 0.366663753986358643
2.77575159072875977 1.41770756244659424 0.149843364953994751
1.40146267414093018 0.199015617370605469 0.0212392378598451614
-0.999201834201812744 0.739418864250183105 0.263190120458602905
2.01442551612854004 2.53685522079467773 0.615019381046295166
2.9398500919342041 0.981753408908843994 0.237748458981513977
2.90390682220458984 0.574662446975708008 0.283728122711181641
1.98214876651763916 2.47177386283874512 0.0782493427395820618
0.941253542900085449 -0.751821637153625488 0.599277019500732422
2.0284271240234375 2.320709228515625 0.341043770313262939
2.16858792304992676 2.42182016372680664 0.211620450019836426
-0.0757487267255783081 1.45343410968780518 0.33150637149810791
0.927685022354125977 0.932992935180664062 0.281173408031463623
3.11305785179138184 -0.202907592058181763 0.355803757905960083
-1.21495199203491211 -0.370045363903045654 0.430119693279266357
0.195994466543197632 -1.27010083198547363 0.130439028143882751
-0.337521910667419434 -1.20831537246704102 0.447083353996276855
-0.0527950376272201538 1.32119536399841309 0.197284474968910217
0.676954746246337891 -3.03549027442932129 0.199293047189712524
-1.33331537246704102 0.088046245276927948 0.291086465120315552
1.03406262397766113 0.794574737548828125 0.195886373519897461
-0.836643457412719727 -1.09634721279144287 0.0769171938300132751
0.924279987812042236 -0.787878155708312988 0.397404491901397705
1.34009826183319092 0.3515511155128479 0.133138254284858704
2.6775200366973877 1.56147480010986328 0.107817284762859344
2.89212131500244141 -0.260991513729095459 0.21957668662071228
1.21184265613555908 0.155641913414001465 0.0142957661300897598
0.411618739366531372 -1.06404566764831543 0.330992937088012695
0.534114837646484375 -3.03102588653564453 0.0880641192197799683
0.677387595176696777 1.20657896995544434 0.540982723236083984
1.22836041450500488 -6.06551766395568848e-05 0.229136750102043152
0.324551999568939209 -1.3574148416519165 0.40206262469291687
1.13458561897277832 0.907386898994445801 0.0759226381778717041
0.0311931632459163666 -1.26046395301818848 0.436934113502502441
3.04329991340637207 -0.246119797229766846 0.529113411903381348
-0.254822999238967896 -1.3315279483795166 0.512899994850158691
0.704466581344604492 1.27845597267150879 0.310777008533477783
1.07389485836029053 0.350001275539398193 0.0503135919570922852
-0.130340814590454102 -1.24795365333557129 0.274629503488540649
2.84502863883972168 1.46586871147155762 0.0130126457661390305
0.553493022918701172 -1.15333652496337891 0.307721167802810669
-0.907943785190582275 -0.955974698066711426 0.167617246508598328
-0.606580674648284912 -1.03475689888000488 0.162102684378623962
-0.177427545189857483 1.27463960647583008 0.282590150833129883
2.9786221981048584 0.818149447441101074 0.333399951457977295
0.296704232692718506 -1.16997218132019043 0.350449025630950928
1.09292018413543701 0.654309511184692383 0.231605350971221924
2.08275365829467773 2.41274309158325195 0.559952974319458008
1.02639639377593994 -0.904070913791656494 0.247056245803833008
1.91376996040344238 2.34027504920959473 0.244755923748016357
0.374538660049438477 -3.02647662162780762 0.254179060459136963
2.71707725524902344 0.888091444969177246 0.202851474285125732
3.05726242065429688 -0.193782299757003784 0.148936629295349121
0.833804011344909668 0.723509907722473145 0.178118020296096802
1.02026653289794922 0.743448495864868164 0.0163531284779310226
1.45611703395843506 0.0997838899493217468 0.193291023373603821
-1.21978461742401123 -0.463685333728790283 0.189022690057754517
0.470501482486724854 -1.22672402858734131 0.125546425580978394
1.22247815132141113 0.269747108221054077 0.105362243950366974
0.742129325866699219 0.990854442119598389 0.252749860286712646
-1.31279575824737549 0.2194175124168396 0.345518171787261963
2.90352940559387207 -0.186320036649703979 0.372844219207763672
0.627739191055297852 -2.99184322357177734 0.326428323984146118
0.125423267483711243 -1.14478778839111328 0.305440455675125122
2.88293766975402832 1.11020517349243164 0.225586891174316406
0.320121228694915771 -1.09647798538208008 0.131036847829818726
3.00449872016906738 -0.370044231414794922 0.200722217559814453
2.82646775245666504 1.2904888391494751 0.128296375274658203
0.829729437828063965 1.12206530570983887 0.50562673807144165
-1.03627157211303711 0.863712072372436523 0.179358035326004028
-0.958427488803863525 0.87024986743927002 0.318431556224822998
0.232294827699661255 1.36927974224090576 0.284519225358963013
0.33538016676902771 -1.2532191276550293 0.167059510946273804
1.99262762069702148 2.3552703857421875 0.646654307842254639
0.86119544506072998 -0.969977974891662598 0.189244449138641357
1.05741989612579346 -0.898351788520812988 0.398689359426498413
1.25365638732910156 0.111580401659011841 0.151228427886962891
2.72993755340576172 0.707998275756835938 0.277005136013031006
1.94124972820281982 2.47223043441772461 0.511887490749359131
0.886788845062255859 0.835411489009857178 0.130929529666900635
0.660278141498565674 1.0924069881439209 0.371474206447601318
2.90655112266540527 0.736358404159545898 0.238971024751663208
0.0821043550968170166 1.35077261924743652 0.097462482750415802
3.10108733177185059 0.634765088558197021 0.192432120442390442
1.01057195663452148 -0.752588331699371338 0.304710417985916138
-0.23824995756149292 -1.19536375999450684 0.532124578952789307
0.943001031875610352 -0.956185638904571533 0.501512110233306885
2.74939703941345215 1.10317730903625488 0.116523765027523041
0.0147169623523950577 -1.21293246746063232 0.314571976661682129
2.86735200881958008 0.881743788719177246 0.196514308452606201
-0.359671294689178467 -1.35807907581329346 0.433927744626998901
1.07094573974609375 0.22036367654800415 0.0771472230553627014
1.33288705348968506 0.0909415632486343384 0.00988658517599105835
0.517534196376800537 -2.90783190727233887 0.117881372570991516
1.99628221988677979 2.35036134719848633 0.114964671432971954
1.20618152618408203 0.660419225692749023 0.13528558611869812
0.0267930328845977783 1.32253468036651611 0.354856908321380615
1.89187335968017578 2.47466850280761719 0.166729643940925598
0.803981184959411621 1.20109021663665771 0.315262466669082642
3.17004203796386719 -0.194394052028656006 0.243638172745704651
-0.200122565031051636 1.37151062488555908 0.207250490784645081
0.448959946632385254 -2.97292017936706543 0.018552534282207489
2.7232513427734375 1.46862506866455078 0.0353307873010635376
1.18424463272094727 0.217429980635643005 0.236020654439926147
-0.0915006250143051147 -1.35575127601623535 0.154126003384590149
1.08477199077606201 0.616012930870056152 0.114975146949291229
-1.21813154220581055 -0.433045387268066406 0.308144152164459229
3.02836036682128906 -0.115215122699737549 0.354079931974411011
2.14725518226623535 2.3704993724822998 0.0867470875382423401
3.02776479721069336 -0.260108292102813721 0.291155248880386353
0.296105653047561646 -1.28603875637054443 0.275776594877243042
2.00823783874511719 2.36194038391113281 0.451347321271896362
3.07137274742126465 -0.313937127590179443 0.404428541660308838
1.25795280933380127 0.358627289533615112 0.0353900343179702759
1.24565744400024414 0.122263550758361816 0.270765483379364014
1.90803217887878418 2.31398630142211914 0.359839826822280884
0.0994321107864379883 -1.21754610538482666 0.202400177717208862
0.00905247032642364502 1.23122429847717285 0.237472623586654663
1.36477720737457275 0.127510815858840942 0.120827876031398773
-0.268631786108016968 -1.19477546215057373 0.643220067024230957
1.18443882465362549 0.690602302551269531 0.291171044111251831
-0.887137174606323242 0.82125091552734375 0.181027308106422424
0.928068339824676514 -0.868934452533721924 0.29439622163772583
0.535638689994812012 -3.01065349578857422 0.226025670766830444
-1.43380439281463623 0.188773751258850098 0.240539848804473877
-0.171225771307945251 1.32022655010223389 0.0515857189893722534
1.08946812152862549 0.88830411434173584 0.230395004153251648
0.946647047996520996 0.737663865089416504 0.242219492793083191
0.823460519313812256 -0.974535644054412842 0.363000720739364624
1.85578751564025879 2.27969789505004883 0.0792564079165458679
0.618503749370574951 -2.93743658065795898 0.160138428211212158
0.846838235855102539 0.797960877418518066 0.262318253517150879
0.789123773574829102 1.19368338584899902 0.58290553092956543
0.696771144866943359 1.17989587783813477 0.432768106460571289
0.557234346866607666 -2.95553398132324219 -0.00138174206949770451
-0.808720827102661133 -1.01876771450042725 0.153473585844039917
3.1422417163848877 -0.243214398622512817 0.578484714031219482
2.97792959213256836 0.639213383197784424 0.173087865114212036
0.867128968238830566 0.946372270584106445 0.108485773205757141
0.506355941295623779 -1.13442301750183105 0.210776001214981079
0.839374184608459473 0.928234398365020752 0.217931076884269714
3.00334620475769043 0.780395925045013428 0.219813510775566101
-1.22349393367767334 -0.593705475330352783 0.259869158267974854
1.40715599060058594 0.209998935461044312 0.176561564207077026
1.24264001846313477 0.349402546882629395 0.17847771942615509
0.960452735424041748 0.99890512228012085 0.203078478574752808
1.0898749828338623 0.769807398319244385 0.108212217688560486
2.89922118186950684 1.50810813903808594 0.0946910083293914795
0.940308153629302979 -0.846347033977508545 0.485118746757507324
0.943189918994903564 -0.858176767826080322 0.600752055644989014
1.11693668365478516 0.27090182900428772 0.158583313226699829
-0.147999584674835205 1.26055848598480225 0.182186111807823181
-1.27931356430053711 0.100609973073005676 0.380563408136367798
-0.051052778959274292 -1.2789161205291748 0.363561391830444336
0.761404097080230713 1.03122711181640625 0.486750572919845581
3.01356816291809082 -0.373790860176086426 0.316727370023727417
-0.536859035491943359 -1.11207854747772217 0.148472219705581665
3.06785821914672852 -0.167212843894958496 0.249254524707794189
1.01549601554870605 0.832802534103393555 0.0717045515775680542
1.32535815238952637 0.238173902034759521 0.0800013467669487
-0.0692729875445365906 1.35287034511566162 0.307168573141098022
2.80349922180175781 0.638537585735321045 0.255068361759185791
1.8653641939163208 2.42057561874389648 0.357857465744018555
-0.838447213172912598 -0.988575339317321777 0.247324749827384949
-1.02984464168548584 0.850068628787994385 0.0511193759739398956
2.12004351615905762 2.32865238189697266 0.176481485366821289
1.26668524742126465 0.0265624430030584335 0.0919492989778518677
1.35484445095062256 0.110557518899440765 0.221374154090881348
0.38194882869720459 -1.17873787879943848 0.294631153345108032
0.454757869243621826 -2.98535442352294922 0.16893497109413147
2.08004450798034668 2.44651913642883301 0.094182915985584259
2.78122282028198242 1.11716592311859131 0.215931013226509094
-1.08057105541229248 0.825656294822692871 0.261930584907531738
-0.714647173881530762 -1.0747368335723877 0.102488838136196136
0.0716269314289093018 1.24156284332275391 0.158977299928665161
3.07348418235778809 0.654257059097290039 0.294526398181915283
0.177775666117668152 -1.27947127819061279 0.233386844396591187
3.08936643600463867 -0.147506847977638245 0.585495412349700928
-0.00587223190814256668 1.19904732704162598 0.379445016384124756
0.0130456928163766861 -1.1639854907989502 0.443863511085510254
-0.855111300945281982 -1.12631845474243164 0.168819472193717957
-0.0698461979627609253 1.23934102058410645 0.12644253671169281
0.314029663801193237 -1.10707926750183105 0.277003496885299683
0.996436178684234619 0.847164273262023926 0.269531071186065674
-0.345849156379699707 -1.33143138885498047 0.549169719219207764
1.83555030822753906 2.30180001258850098 0.523606419563293457
3.01848936080932617 0.458555549383163452 0.301247537136077881
2.8510277271270752 1.3735044002532959 0.0841112732887268066
1.96956074237823486 2.35055351257324219 0.552756845951080322
0.889518976211547852 -0.897050976753234863 0.385366439819335938
