ply
format ascii 1.0
element vertex 256
comment vertices
property float x
property float y
property float z
end_header
-1.17268693447113037 0.388707339763641357 0.133187353610992432
5.43667888641357422 -1.34425973892211914 0.161209702491760254
-3.89163732528686523 -4.07517385482788086 0.341467857360839844
1.58410251140594482 2.74219346046447754 0.418583542108535767
2.26756763458251953 -1.77700710296630859 0.203120127320289612
-2.59422731399536133 -1.82771086692810059 0.0624604225158691406
0.0801197439432144165 -1.47808623313903809 0.132791966199874878
0.994343221187591553 0.795040607452392578 0.0788565576076507568
1.31761622428894043 -0.656867384910583496 0.138146325945854187
-0.153732419013977051 1.4733814001083374 0.127219364047050476
-3.15216541290283203 -0.690839409828186035 0.17037905752658844
-1.04434335231781006 -1.02963721752166748 0.0341331064701080322
2.98637890815734863 -1.00601708889007568 0.160359561443328857
0.685853481292724609 -1.08083152770996094 0.613689899444580078
-0.49129176139831543 -0.962359905242919922 0.452960312366485596
1.08539509773254395 -1.3408581018447876 0.221724957227706909
0.342358291149139404 1.12392771244049072 0.113306537270545959
0.991714894771575928 -0.159580081701278687 0.235358446836471558
-1.16697251796722412 -0.441724628210067749 0.00234650750644505024
2.54812121391296387 -1.65499782562255859 0.626996040344238281
-1.24710071086883545 0.73648989200592041 0.475093454122543335
2.70038342475891113 -1.35187447071075439 0.00985003262758255005
0.307206213474273682 -1.09144258499145508 0.260841310024261475
1.0201801061630249 -0.707046568393707275 0.492127180099487305
-2.92988491058349609 -1.04645013809204102 0.0257079955190420151
-0.788492143154144287 -1.22781240940093994 0.312488377094268799
-1.10422277450561523 -0.0318603515625 0.0833319872617721558
-0.123800396919250488 -1.14213049411773682 0.281059145927429199
1.18706727027893066 -0.355114281177520752 0.565885066986083984
-1.10138332843780518 -0.643543004989624023 0.310658395290374756
2.65041923522949219 -1.7882000207901001 0.293080925941467285
5.09908533096313477 -1.41698801517486572 0.0796929076313972473
-3.7340850830078125 -3.86811017990112305 0.578439772129058838
0.195591315627098083 1.4608302116394043 0.160039782524108887
1.31858837604522705 -0.165775448083877563 0.242393821477890015
-1.28164517879486084 -0.746309936046600342 0.0217155665159225464
1.34251654148101807 2.83733463287353516 0.235623478889465332
-1.35799491405487061 0.148191049695014954 0.0399902015924453735
-0.0524039119482040405 1.25517570972442627 -0.0637168511748313904
1.18399369716644287 -0.881649017333984375 0.278587192296981812
0.593516647815704346 -1.12712526321411133 0.329860091209411621
-3.89173698425292969 -3.77235150337219238 0.3477020263671875
-3.16439247131347656 -0.892753720283508301 -0.0592467114329338074
5.20727729797363281 -1.1765892505645752 0.196902453899383545
1.36371695995330811 -0.682253658771514893 0.416953682899475098
0.941335082054138184 -1.00603282451629639 0.520312011241912842
-1.0821831226348877 0.557948529720306396 0.346674472093582153
0.954423964023590088 -1.35091555118560791 0.462419182062149048
-2.87920784950256348 -0.713115453720092773 0.167063325643539429
-0.998461604118347168 -0.75882798433303833 0.0852273032069206238
1.41286933422088623 2.82588744163513184 0.610774397850036621
-0.11783955991268158 -1.3076934814453125 0.0656497031450271606
-3.04541897773742676 -0.923654437065124512 0.242091715335845947
1.17137563228607178 -0.45655396580696106 0.232553273439407349
-1.00694370269775391 -1.25649845600128174 0.174063548445701599
2.74316906929016113 -1.09129905700683594 0.138232886791229248
0.259904593229293823 -1.30737495422363281 0.0973388776183128357
0.0417009741067886353 1.48704409599304199 -0.0585699193179607391
-0.0019741542637348175 1.34025478363037109 0.2733115553855896
-1.2449113130569458 0.635596990585327148 0.178675234317779541
2.91150307655334473 -1.22915446758270264 0.0123397614806890488
0.81565558910369873 0.955850839614868164 0.119020164012908936
1.35825479030609131 2.66550683975219727 0.405314505100250244
-0.725195825099945068 -1.15775537490844727 0.0977626144886016846
2.57689142227172852 -1.6049877405166626 0.176406934857368469
2.43338847160339355 -1.78870260715484619 0.490567862987518311
0.117616996169090271 1.27226948738098145 0.078960031270980835
-0.0521138012409210205 -1.35466670989990234 0.267971843481063843
5.26716470718383789 -1.29470944404602051 0.0149669107049703598
1.1029508113861084 -0.514467239379882812 0.430814623832702637
-1.22994434833526611 0.400660067796707153 0.338029086589813232
0.787417709827423096 -1.10706186294555664 0.421410858631134033
1.16341614723205566 -0.25795513391494751 0.386109054088592529
-3.00860309600830078 -0.79054337739944458 0.0283013954758644104
5.27349376678466797 -1.47234785556793213 0.169837743043899536
0.893437027931213379 -1.2090601921081543 0.594165146350860596
-0.642853021621704102 -1.11770069599151611 0.400780797004699707
-1.13475358486175537 -0.61846625804901123 0.108236432075500488
-1.16743886470794678 0.192630410194396973 0.131065726280212402
2.39024257659912109 -1.67480671405792236 0.316462457180023193
2.43911147117614746 -1.86473202705383301 0.193566009402275085
-3.76247859001159668 -4.03907060623168945 0.495886236429214478
0.1280936598777771 -1.26199424266815186 0.228313222527503967
-0.856463909149169922 -1.02477347850799561 0.0699050202965736389
-3.2075803279876709 -0.88231050968170166 0.155885592103004456
-1.22348976135253906 0.545470952987670898 0.468840807676315308
0.412049084901809692 -1.24100100994110107 0.297697186470031738
1.04373717308044434 0.958405911922454834 0.150922283530235291
2.87068724632263184 -1.21094560623168945 0.199118345975875854
-2.89984965324401855 -1.0388035774230957 0.20409509539604187
2.6526024341583252 -1.75173759460449219 0.469997018575668335
2.86960768699645996 -1.04318070411682129 0.0185421481728553772
-3.1985619068145752 -0.718353867530822754 -0.0356254130601882935
-0.999436259269714355 -1.01967513561248779 0.206379219889640808
-3.90539813041687012 -3.90696096420288086 0.581001758575439453
1.14963889122009277 -0.629088521003723145 0.219023913145065308
1.07202804088592529 -0.87434685230255127 0.408761262893676758
0.0527218431234359741 -1.30705940723419189 0.0501857884228229523
-0.00975121650844812393 1.39300858974456787 0.0811284482479095459
-3.77672743797302246 -3.93833327293395996 0.3582286536693573
-0.182288423180580139 1.27987658977508545 0.0390249043703079224
1.01891410350799561 -0.850167214870452881 0.5775604248046875
5.2924036979675293 -1.31699621677398682 0.238463744521141052
2.56535649299621582 -1.65635037422180176 0.33800351619720459
-0.755051314830780029 -1.21406388282775879 0.468663156032562256
1.18258023262023926 -0.641915202140808105 0.486264407634735107
1.45277607440948486 2.76687049865722656 0.326078236103057861
0.663075745105743408 -1.17641317844390869 0.490154057741165161
0.375717639923095703 -1.13374900817871094 0.406395524740219116
-2.48766398429870605 -1.71902096271514893 0.0402549430727958679
-3.06749129295349121 -0.942042708396911621 0.0491179525852203369
0.790031909942626953 -0.989062070846557617 0.525432765483856201
1.11953186988830566 -0.737724900245666504 0.365269780158996582
-1.3048241138458252 0.219743773341178894 0.185757964849472046
2.83530282974243164 -0.957500636577606201 0.137037873268127441
-1.21296334266662598 -0.0843007564544677734 -0.00464527308940887451
-3.01335620880126953 -0.78588557243347168 0.177288934588432312
-0.920005261898040771 -1.142189621925354 0.226387158036231995
1.31915915012359619 2.80635619163513184 0.423399239778518677
-1.06653702259063721 -0.546188294887542725 -0.0205646678805351257
5.32651901245117188 -1.43124890327453613 0.041035674512386322
1.13158154487609863 0.836935460567474365 0.0635898932814598083
-1.2368394136428833 0.633608222007751465 0.355660080909729004
-1.25971794128417969 0.498900651931762695 0.23800976574420929
0.973921895027160645 0.832773685455322266 0.215268269181251526
5.15166997909545898 -1.28772532939910889 0.108814358711242676
-1.0857471227645874 -0.804359793663024902 -0.0168167464435100555
-0.028013184666633606 1.5405421257019043 0.0522359386086463928
-0.0712927281856536865 -1.18819141387939453 0.122532151639461517
2.31902503967285156 -1.78865861892700195 0.355912744998931885
-3.83855962753295898 -3.84459400177001953 0.475492179393768311
-1.20704936981201172 0.0560639649629592896 0.0527384839951992035
1.08127641677856445 -0.331535637378692627 0.481213361024856567
1.10856413841247559 -0.336721599102020264 0.257188171148300171
-0.0510523691773414612 -1.4224543571472168 0.0992731153964996338
-0.995459556579589844 -0.613294720649719238 0.074460737407207489
-1.17428421974182129 -0.739630222320556641 0.15612107515335083
1.18786907196044922 -0.390599727630615234 0.404199481010437012
2.83116054534912109 -1.33035778999328613 -0.0269717574119567871
2.49789309501647949 -1.67083334922790527 0.493477821350097656
2.72902536392211914 -1.20428264141082764 0.0670848190784454346
0.102856487035751343 1.37150287628173828 0.196393787860870361
-0.986547410488128662 -1.14063489437103271 0.0804745256900787354
-1.27088713645935059 -0.524856686592102051 0.00350631400942802429
1.19428336620330811 -0.496759861707687378 0.525139451026916504
-0.825568974018096924 -1.22431015968322754 0.182959973812103271
-2.89236640930175781 -0.845619738101959229 0.0589240714907646179
-1.24604105949401855 0.219136565923690796 0.0281940456479787827
-0.949385881423950195 -0.948333919048309326 -0.00854481756687164307
-2.45605635643005371 -1.84623825550079346 0.0249041691422462463
1.4673994779586792 2.79983615875244141 0.494085460901260376
-1.11961758136749268 0.335115283727645874 0.239773228764533997
2.90068435668945312 -1.10923242568969727 0.125351905822753906
2.56730079650878906 -1.85455095767974854 0.192196428775787354
0.0981558859348297119 1.52942895889282227 0.111693844199180603
-0.0624754726886749268 1.41233193874359131 -0.0344561487436294556
-0.00724780559539794922 1.47382605075836182 0.180927664041519165
5.32996749877929688 -1.20595729351043701 0.174559295177459717
-3.87490415573120117 -4.00576591491699219 0.446825563907623291
-3.1336667537689209 -0.77836155891418457 0.0810635238885879517
2.50351476669311523 -1.70514464378356934 0.195370316505432129
-2.92717933654785156 -0.948516130447387695 0.121990285813808441
0.119184225797653198 -1.35282051563262939 0.143973842263221741
-1.19236016273498535 -0.599412798881530762 0.214042767882347107
-1.0477592945098877 -0.710577785968780518 0.185647472739219666
0.0129285529255867004 1.29926967620849609 0.155419349670410156
0.620006918907165527 -1.06455981731414795 0.508354127407073975
-2.62027120590209961 -1.71426618099212646 0.0915162190794944763
-2.95948648452758789 -0.932400941848754883 0.00302349776029586792
0.353273063898086548 1.20662903785705566 0.196287602186203003
-1.16138350963592529 -0.509033024311065674 0.141554594039916992
-1.03935611248016357 -0.597447693347930908 0.222396254539489746
-3.09955239295959473 -0.778597176074981689 0.256463408470153809
-0.0348895341157913208 -1.23915731906890869 0.263486653566360474
5.13648653030395508 -1.38385963439941406 0.185288861393928528
-0.00848317146301269531 -1.30920827388763428 0.149435162544250488
1.12811362743377686 -0.789686381816864014 0.23461836576461792
-0.798033475875854492 -1.11198592185974121 0.194356217980384827
-3.71893954277038574 -3.92418193817138672 0.47784125804901123
5.22871112823486328 -1.3738178014755249 0.0977995842695236206
1.44765472412109375 -0.696401238441467285 0.33852696418762207
0.931335330009460449 0.890122473239898682 0.092106550931930542
-0.0619554668664932251 1.27469015121459961 0.0490347668528556824
-3.01260995864868164 -1.04305648803710938 0.223930090665817261
1.25875818729400635 -0.724483907222747803 0.401085883378982544
-2.93552660942077637 -0.896355509757995605 0.227118641138076782
2.67618036270141602 -1.64214026927947998 0.316453635692596436
1.0264507532119751 0.955716133117675781 0.0388935022056102753
0.760708212852478027 -1.13079428672790527 0.545645177364349365
-2.9160010814666748 -0.73394399881362915 0.0591230094432830811
0.932452559471130371 -0.944295644760131836 0.613823950290679932
0.122582703828811646 1.49021780490875244 0.238788291811943054
5.36822175979614258 -1.27458226680755615 0.0569860935211181641
-1.28457522392272949 0.514548659324645996 0.345264166593551636
-0.1667928546667099 -1.20693254470825195 0.0690268054604530334
-0.143582388758659363 1.38330841064453125 0.0384202376008033752
0.0127222761511802673 1.32934069633483887 -0.0106677412986755371
-3.81731486320495605 -3.95259261131286621 0.531004011631011963
1.41479253768920898 2.68137812614440918 0.271947860717773438
-3.06814289093017578 -0.875444293022155762 0.133761703968048096
1.23459708690643311 -0.563445866107940674 0.434546709060668945
2.82461237907409668 -1.243766188621521 0.0931596383452415466
2.8168184757232666 -1.18031406402587891 0.0076162293553352356
0.552874505519866943 -1.16905450820922852 0.240630120038986206
0.100675448775291443 1.37702751159667969 0.0803983733057975769
5.26569986343383789 -1.21516668796539307 0.0915351957082748413
-1.18992578983306885 0.643562197685241699 0.486215382814407349
0.996428906917572021 -0.888072013854980469 0.480483710765838623
1.39530849456787109 2.74046516418457031 0.540705502033233643
0.0989896208047866821 1.2368919849395752 0.175235062837600708
-0.905809938907623291 -1.27309608459472656 0.227556541562080383
-1.09151279926300049 -0.788753509521484375 0.118504129350185394
1.11045610904693604 -0.933406591415405273 0.329042166471481323
-1.18343782424926758 0.528361320495605469 0.332945168018341064
-0.582576155662536621 -0.93372732400894165 0.415455490350723267
-1.24119651317596436 0.365020692348480225 0.205961987376213074
-0.62049412727355957 -1.03115975856781006 0.352236688137054443
1.4934844970703125 2.69635367393493652 0.415785163640975952
2.84030604362487793 -1.06581950187683105 0.194508165121078491
0.708558261394500732 -1.02291154861450195 0.475522309541702271
0.86486363410949707 -1.05998086929321289 0.481448978185653687
2.56226587295532227 -1.76287448406219482 0.426187872886657715
-0.154571369290351868 -1.39029467105865479 0.109703503549098969
-2.98877644538879395 -0.689868688583374023 0.160419031977653503
-3.16507554054260254 -0.972769737243652344 0.160165309906005859
-1.2317347526550293 -0.63904339075088501 0.0961658358573913574
1.09058785438537598 -0.38891226053237915 0.382143497467041016
1.17448544502258301 -0.52417445182800293 0.305134683847427368
2.50340867042541504 -1.6250300407409668 0.267216682434082031
-3.19248580932617188 -0.867987990379333496 0.059449315071105957
-2.55913329124450684 -1.80302071571350098 0.150498270988464355
1.03956806659698486 -0.611172735691070557 0.488546967506408691
-3.20613646507263184 -0.775819301605224609 0.146450072526931763
2.61673736572265625 -1.77120184898376465 0.2001190185546875
-0.494210273027420044 -1.04340529441833496 0.399611830711364746
1.14157330989837646 -0.42687070369720459 0.484020650386810303
2.43850231170654297 -1.75874030590057373 0.148514896631240845
1.10303425788879395 -0.399274617433547974 0.582159638404846191
-0.0951909348368644714 -1.26818370819091797 0.194287240505218506
-3.82200169563293457 -3.92405176162719727 0.624841272830963135
5.33294868469238281 -1.3391270637512207 0.154859766364097595
1.04413199424743652 0.878236234188079834 0.0917458683252334595
-0.121480107307434082 1.32910597324371338 0.113745927810668945
-3.03443551063537598 -1.0295943021774292 0.0313538573682308197
0.406195372343063354 -1.11728560924530029 0.317857325077056885
-0.922217011451721191 -1.07349777221679688 0.161488667130470276
1.19761097431182861 -0.368315219879150391 0.253755271434783936
2.53046846389770508 -1.74345910549163818 0.32762521505355835
1.29817843437194824 2.83109617233276367 0.335231512784957886
-1.23765993118286133 0.255185544490814209 0.114524483680725098
5.18150758743286133 -1.45257318019866943 0.11615145206451416
2.79673647880554199 -1.10649216175079346 0.061539769172668457
-3.74665236473083496 -3.83371806144714355 0.463481605052947998
-0.978359460830688477 -0.994476675987243652 0.119594566524028778
1.41146266460418701 2.7996068000793457 0.416675090789794922
2.37886476516723633 -1.6966320276260376 0.227189794182777405
