ply
format ascii 1.0
element vertex 64
comment vertices
property float x
property float y
property float z
end_header
1.27143943309783936 -0.390309721231460571 0.540542960166931152
-0.340035319328308105 1.2857978343963623 0.122861482203006744
1.30045843124389648 0.278761088848114014 0.0593742020428180695
1.32767701148986816 -0.0785737559199333191 0.354810208082199097
3.04140806198120117 -0.594153940677642822 0.204873129725456238
0.6772347092628479 3.02399301528930664 0.167767584323883057
0.908181846141815186 0.971651017665863037 0.44998660683631897
-1.14759564399719238 0.672253131866455078 0.31655457615852356
-1.02876603603363037 -0.842935621738433838 0.374702155590057373
-0.889840900897979736 0.988475143909454346 0.344410836696624756
-1.74565327167510986 2.56044435501098633 0.341746270656585693
0.139229029417037964 -1.3226923942565918 0.258890241384506226
-1.26535665988922119 -0.409600257873535156 0.412079185247421265
-2.60059213638305664 1.68526029586791992 0.102009914815425873
0.791739046573638916 -1.06866705417633057 0.460465490818023682
-0.534405887126922607 -3.05247306823730469 0.154941603541374207
0 0 0
0 0 0
0 0 0
0 0 0
0 0 0
0 0 0
0 0 0
0 0 0
0 0 0
0 0 0
0 0 0
0 0 0
0 0 0
0 0 0
0 0 0
0 0 0
0 0 0
0 0 0
0 0 0
0 0 0
0 0 0
0 0 0
0 0 0
0 0 0
0 0 0
0 0 0
0 0 0
0 0 0
0 0 0
0 0 0
0 0 0
0 0 0
0 0 0
0 0 0
0 0 0
0 0 0
0 0 0
0 0 0
0 0 0
0 0 0
0 0 0
0 0 0
0 0 0
0 0 0
0 0 0
0 0 0
0 0 0
0 0 0
