ply
format ascii 1.0
element vertex 64
comment vertices
property float x
property float y
property float z
end_header
-0.731548964977264404 2.38165688514709473 0.956333518028259277
2.3107752799987793 2.83822488784790039 1.56538772583007812
-0.589993715286254883 -0.447824358940124512 -0.0470342487096786499
-3.55818343162536621 1.05879354476928711 0.305683255195617676
0.965307712554931641 1.09799623489379883 1.11709761619567871
-2.19003605842590332 -0.0620733797550201416 1.21159660816192627
-1.77078890800476074 1.81604695320129395 -0.328535854816436768
-2.77099871635437012 1.51744961738586426 1.57153761386871338
0.760376453399658203 2.65801334381103516 1.04785847663879395
-0.506071805953979492 1.26626300811767578 0.194028645753860474
-0.255317449569702148 0.312323153018951416 0.957819819450378418
-1.62917733192443848 0.922660768032073975 1.10702252388000488
1.39509391784667969 1.81969022750854492 1.10835027694702148
0.25091242790222168 2.16771245002746582 0.404120445251464844
-2.18763232231140137 1.22173094749450684 -0.13286648690700531
-1.42479002475738525 -0.00553776323795318604 -0.209514111280441284
-0.0617544949054718018 1.83666932582855225 1.05346512794494629
-3.30770373344421387 0.596503198146820068 1.09676527976989746
-0.559330344200134277 1.98003828525543213 0.0533676482737064362
-3.40011119842529297 1.81033587455749512 1.23512804508209229
-1.53649377822875977 1.29240655899047852 0.476125150918960571
1.91915416717529297 2.45205903053283691 0.624819040298461914
-0.391353964805603027 1.2397838830947876 0.687587141990661621
-1.80404782295227051 2.81558823585510254 0.809820413589477539
0.570820510387420654 0.0413882583379745483 0.464376866817474365
-2.39453411102294922 0.67939913272857666 1.45155036449432373
-2.63720440864562988 1.64074027538299561 0.761982560157775879
-1.49448013305664062 2.41036176681518555 0.675586402416229248
0.0879816412925720215 0.212191164493560791 0.256528019905090332
-0.775846540927886963 0.0718810856342315674 0.394277244806289673
-0.180883884429931641 2.39864826202392578 1.19425511360168457
-1.4227755069732666 0.578544676303863525 0.198598906397819519
-0.522517204284667969 1.82159769535064697 0.135028094053268433
1.64728999137878418 2.33534383773803711 1.29345893859863281
0.0363096296787261963 1.23116862773895264 0.247365653514862061
-0.888191282749176025 0.889581084251403809 0.815860629081726074
0.795281708240509033 1.64232146739959717 0.312261343002319336
-2.79396772384643555 0.969945192337036133 0.914916574954986572
-2.84287166595458984 1.22339928150177002 0.0137995779514312744
-1.72251653671264648 0.863891303539276123 0.884676277637481689
-0.879612743854522705 0.761663258075714111 -0.328480690717697144
-1.07038044929504395 1.42347180843353271 -0.266101628541946411
-2.14693593978881836 1.6760108470916748 1.06574702262878418
-0.109571695327758789 0.866964578628540039 0.723943233489990234
-3.57036185264587402 1.12048470973968506 0.760189712047576904
-0.122656121850013733 0.980687320232391357 0.378618896007537842
-0.275086164474487305 2.18697428703308105 1.84403324127197266
-1.54073262214660645 2.51909279823303223 -0.0305080413818359375
-1.17771637439727783 2.47704339027404785 1.33954513072967529
-1.50101554393768311 0.66925579309463501 0.833404064178466797
-2.63096404075622559 2.17041611671447754 -0.615005970001220703
-0.685093164443969727 2.76929426193237305 0.225414767861366272
-1.0491483211517334 1.3776247501373291 0.433503806591033936
-3.1773829460144043 1.19586777687072754 1.41598749160766602
-0.509401381015777588 0.174094170331954956 0.766242682933807373
0.00177307426929473877 1.60493099689483643 1.11537253856658936
-2.05876922607421875 1.63184261322021484 0.775944232940673828
1.82777571678161621 2.19588375091552734 1.49246835708618164
-1.99542975425720215 2.3115534782409668 0.0746496319770812988
-1.38086330890655518 2.19241666793823242 0.153030812740325928
-3.24666571617126465 1.9605402946472168 0.397974669933319092
-0.298671633005142212 2.18326473236083984 0.379394710063934326
-2.20439934730529785 1.56155145168304443 -0.0488759130239486694
-2.12977838516235352 1.45137679576873779 0.303183317184448242
