ply
format ascii 1.0
element vertex 64
comment vertices
property float x
property float y
property float z
end_header
-0.314486414194107056 0.950847327709197998 -0.468978971242904663
3.88700580596923828 1.82173287868499756 1.14130449295043945
1.90625679492950439 -2.17987823486328125 1.22226834297180176
-1.46676814556121826 -2.23670578002929688 -0.378630787134170532
2.58272218704223633 -0.0998885631561279297 -0.164988413453102112
-2.68539142608642578 1.12608623504638672 -0.951679587364196777
0.619697988033294678 -1.28385162353515625 -0.577433645725250244
1.13966894149780273 0.618618965148925781 0.880788683891296387
-0.39205014705657959 -1.08632254600524902 0.900291740894317627
-1.52760374546051025 -0.320675849914550781 -0.708722472190856934
-1.30160021781921387 2.04224658012390137 -0.868419885635375977
3.14709043502807617 0.504199564456939697 1.07076489925384521
1.46719479560852051 -0.731582701206207275 0.485728532075881958
0.483206599950790405 -0.0754075050354003906 -0.123531222343444824
-1.60006427764892578 -1.18999767303466797 0.486882567405700684
0.465209424495697021 1.55649375915527344 0.352477490901947021
0.832113564014434814 -1.67120647430419922 0.915688455104827881
-0.712213277816772461 -0.0329081416130065918 0.45542830228805542
-0.460429668426513672 -1.04490971565246582 -0.386971652507781982
2.15515518188476562 0.117447733879089355 0.88023674488067627
-1.84975230693817139 -1.44437360763549805 -0.997325539588928223
3.58625578880310059 1.30750203132629395 0.255939781665802002
2.26538586616516113 0.856522977352142334 0.148951068520545959
1.79904830455780029 -1.06236457824707031 -0.436035901308059692
1.43184125423431396 0.349317848682403564 -0.171609073877334595
-1.89353406429290771 0.701304912567138672 -0.504635810852050781
1.71629917621612549 -1.66575968265533447 0.329937577247619629
0.26309579610824585 -1.85613179206848145 0.0834452658891677856
0.122293785214424133 0.673819780349731445 0.318572282791137695
0.22408294677734375 -0.893777608871459961 0.293994098901748657
-1.86946678161621094 1.3599318265914917 -1.14673852920532227
-0.469519227743148804 -0.182661771774291992 -0.383048087358474731
3.26798844337463379 0.256901323795318604 0.210822075605392456
-1.30950653553009033 -1.13013279438018799 -0.363126605749130249
2.9712984561920166 1.34997224807739258 0.83888852596282959
1.92014861106872559 0.910694122314453125 0.906379878520965576
-0.8505135178565979 0.521852254867553711 -0.925165295600891113
-0.173561185598373413 1.7380058765411377 -0.131954491138458252
1.34827280044555664 -0.253198087215423584 1.13367176055908203
-1.27594649791717529 1.24856269359588623 -0.632657647132873535
-0.986971199512481689 -0.841552793979644775 0.246874481439590454
-2.2918701171875 0.0785120725631713867 -0.420722275972366333
2.1335451602935791 -0.448440670967102051 0.35603034496307373
1.0825035572052002 -0.911694765090942383 -0.102891772985458374
0.0261395573616027832 -0.0518093705177307129 0.429475963115692139
1.21055459976196289 1.02134823799133301 -0.0538988709449768066
3.155059814453125 1.71481883525848389 1.42347598075866699
-0.321916878223419189 -1.44705080986022949 0.302136331796646118
0.188058406114578247 0.486043989658355713 -0.594162225723266602
1.30270540714263916 -1.93380141258239746 1.46313893795013428
-1.93093657493591309 -0.834826111793518066 -0.450588047504425049
1.47561073303222656 0.126169562339782715 0.470406025648117065
-0.801668047904968262 0.538790225982666016 0.098267674446105957
-1.00108623504638672 1.77586507797241211 -0.306132972240447998
-1.23685073852539062 -0.320599615573883057 -0.108335047960281372
0.985975503921508789 -1.45774698257446289 0.30616837739944458
3.63048481941223145 1.13561594486236572 0.885835647583007812
0.73456186056137085 0.646415591239929199 0.170057550072669983
1.8400578498840332 -1.61007153987884521 0.962653696537017822
0.140588194131851196 1.15784740447998047 -0.0988466441631317139
-0.989634215831756592 -1.46259284019470215 0.0541055649518966675
-0.416542172431945801 -0.568984627723693848 0.555792629718780518
1.97689402103424072 0.193511813879013062 0.0727313309907913208
-1.71115994453430176 -1.67749929428100586 -0.44331011176109314
