ply
format ascii 1.0
element vertex 64
comment vertices
property float x
property float y
property float z
end_header
-0.476539522409439087 0.197414100170135498 0.169266670942306519
1.15071392059326172 -3.68000984191894531 1.5190269947052002
-1.82423889636993408 -3.07589149475097656 -0.441793113946914673
-0.437864482402801514 -1.97846722602844238 1.13763844966888428
0.34725719690322876 -2.50902628898620605 -0.785797655582427979
-2.16071510314941406 -0.951040744781494141 -0.0598055422306060791
-1.94344198703765869 1.14912140369415283 0.427480727434158325
-1.21804380416870117 -0.0750432014465332031 1.70413494110107422
0.788710594177246094 -0.738585948944091797 -0.0819918364286422729
0.167863756418228149 -3.90310335159301758 -0.156336069107055664
-0.628703296184539795 -1.32826912403106689 -0.240854457020759583
0.177393138408660889 -0.369235336780548096 1.4181370735168457
1.07483148574829102 -2.33710622787475586 1.18874382972717285
-1.66286468505859375 -2.03706192970275879 0.184564858675003052
-1.3067547082901001 -0.588200807571411133 -0.923671841621398926
-1.43514037132263184 -1.83522546291351318 -0.982959091663360596
-1.29892778396606445 -0.977625846862792969 0.783751130104064941
-0.556210219860076904 -2.67186784744262695 -0.00395789742469787598
-2.11375880241394043 0.00750720500946044922 0.656676888465881348
-0.204810917377471924 -3.03900027275085449 0.9819069504737854
0.283892571926116943 -1.82249212265014648 0.341752946376800537
0.319110274314880371 -1.5795590877532959 1.79977738857269287
-0.189755797386169434 0.586403608322143555 1.10617899894714355
-0.281860113143920898 -1.02217710018157959 0.65468287467956543
0.759486496448516846 0.191433370113372803 -0.102692097425460815
-1.24241137504577637 -0.353146076202392578 0.0979271531105041504
-0.300781339406967163 -0.671242356300354004 -0.761147737503051758
-0.594125032424926758 -0.817169070243835449 1.48417127132415771
-0.458452463150024414 -2.11915016174316406 -0.698418498039245605
0.599444150924682617 -3.03107309341430664 1.4199676513671875
-0.90589529275894165 -0.221577957272529602 0.873546063899993896
-0.245588153600692749 -3.27321100234985352 -0.518394529819488525
0.232040703296661377 -0.0981114655733108521 0.651556253433227539
-1.45282697677612305 -1.2930762767791748 -0.267097622156143188
-1.54065382480621338 0.395905226469039917 0.271266281604766846
-0.797521829605102539 -1.61809289455413818 0.476190626621246338
0.268581032752990723 -2.28241729736328125 1.05529916286468506
0.197638481855392456 -2.83449721336364746 -0.0554772168397903442
-1.57104778289794922 0.902573585510253906 1.04327309131622314
0.195764422416687012 -1.5148766040802002 1.05802655220031738
-0.374665528535842896 -0.671276330947875977 -0.0104318168014287949
-1.50559651851654053 -1.81326818466186523 0.873306155204772949
0.977545261383056641 -2.84120416641235352 0.666869044303894043
-1.20782887935638428 -2.47432971000671387 -0.214657038450241089
0.10337454080581665 -0.129486262798309326 -0.0751486122608184814
-1.76149940490722656 -0.522197067737579346 1.06461930274963379
0.222789585590362549 -1.14387178421020508 0.187623158097267151
-0.0586187466979026794 -1.55273771286010742 -0.778588831424713135
0.823207616806030273 -2.57599449157714844 1.88547194004058838
0.790745377540588379 -1.3466956615447998 -0.400598049163818359
-0.763623476028442383 0.744032204151153564 0.81964576244354248
-1.72228813171386719 -2.2539362907409668 -0.524961471557617188
-0.378569185733795166 -0.405599117279052734 0.576690793037414551
0.0833482742309570312 -2.24579405784606934 -0.243004754185676575
-1.82572674751281738 -0.774223804473876953 0.439556658267974854
-0.819860696792602539 -0.970938980579376221 0.312146842479705811
-2.01565217971801758 -1.61674773693084717 -0.109443418681621552
0.701520681381225586 -1.43638443946838379 0.593548476696014404
-1.09631907939910889 0.39874035120010376 -0.16119682788848877
-0.28893810510635376 -1.96997225284576416 0.160938307642936707
-0.557153820991516113 -0.146065056324005127 -0.326460450887680054
-0.442736208438873291 -1.37975001335144043 1.10339617729187012
-1.15487885475158691 -0.714447319507598877 1.29745793342590332
-0.314057618379592896 -0.00995235145092010498 1.00704383850097656
