ply
format ascii 1.0
element vertex 64
comment vertices
property float x
property float y
property float z
end_header
1.22212672233581543 1.67211222648620605 1.77741479873657227
2.99523544311523438 -0.581961512565612793 0.743556797504425049
-0.408360511064529419 -0.573484182357788086 0.597566366195678711
3.41813373565673828 3.35372710227966309 1.47556078433990479
0.735927402973175049 1.77689909934997559 -0.278681546449661255
1.98049962520599365 3.03770041465759277 0.346900850534439087
1.28261232376098633 -0.102350592613220215 1.30680572986602783
-0.0679614245891571045 1.23235964775085449 1.06830012798309326
2.42371749877929688 0.768617749214172363 2.04660224914550781
-0.717048048973083496 0.65092003345489502 -0.115094460546970367
1.74036002159118652 -0.434740126132965088 0.0902076363563537598
2.34683513641357422 1.51130533218383789 0.932236552238464355
0.681210994720458984 0.531718313694000244 0.309131622314453125
3.38359498977661133 0.0885323286056518555 1.64370572566986084
1.16604161262512207 2.31220865249633789 0.660184621810913086
2.69914388656616211 2.55001306533813477 1.06674706935882568
2.3211672306060791 -0.211746454238891602 1.5223766565322876
0.770668745040893555 0.725827515125274658 1.27043592929840088
0.155992686748504639 -0.00736516714096069336 1.13496541976928711
1.16524589061737061 1.35219621658325195 0.653408586978912354
0.530452728271484375 1.83917236328125 1.25842452049255371
-0.0844421684741973877 1.48000931739807129 0.236067026853561401
2.91144704818725586 3.33487272262573242 0.780302762985229492
1.93931102752685547 2.69722175598144531 1.39178764820098877
-0.173580467700958252 0.0256568193435668945 0.0772885680198669434
1.68538260459899902 1.94061970710754395 0.165694713592529297
1.91942906379699707 -0.6059609055519104 0.85338127613067627
1.63541066646575928 0.534729123115539551 1.61581587791442871
-0.508945047855377197 0.275370240211486816 0.738110899925231934
2.89105677604675293 0.238723278045654297 1.10610353946685791
1.66948127746582031 1.51746821403503418 1.19986522197723389
-0.016970071941614151 0.695656180381774902 0.401519536972045898
0.86996227502822876 -0.522476911544799805 0.887594640254974365
0.458649516105651855 2.19811868667602539 0.635273337364196777
3.16651511192321777 -0.565555214881896973 1.49744367599487305
1.26150631904602051 1.28014028072357178 -0.0353383421897888184
2.30536556243896484 2.15067529678344727 0.654013931751251221
0.755866289138793945 1.1715083122253418 1.83356022834777832
2.08286929130554199 0.0453488826751708984 0.917011082172393799
2.35316729545593262 2.28281569480895996 1.72272336483001709
0.538920879364013672 1.10081064701080322 0.768361330032348633
3.23011875152587891 2.56542634963989258 1.46632051467895508
1.44360017776489258 2.31461596488952637 1.26488780975341797
2.59198236465454102 2.91121315956115723 0.441066235303878784
2.20935678482055664 0.572931408882141113 1.41780424118041992
0.287019163370132446 1.18957042694091797 -0.146303758025169373
2.01631283760070801 0.32591092586517334 2.08119702339172363
2.51570487022399902 -0.595851778984069824 1.1153939962387085
0.654673516750335693 1.61206698417663574 0.493313133716583252
0.273227334022521973 0.199993133544921875 0.594748914241790771
0.71663135290145874 0.121393978595733643 1.09463000297546387
0.141205012798309326 2.10181236267089844 0.16695857048034668
1.51008522510528564 -0.786266744136810303 0.496107369661331177
2.03814482688903809 1.15645074844360352 1.89774107933044434
0.39044615626335144 0.0372605323791503906 0.023373432457447052
2.83425188064575195 0.154519081115722656 1.76501107215881348
0.562081336975097656 1.2863776683807373 1.32413995265960693
1.66268038749694824 -0.18771517276763916 0.577514886856079102
2.53819084167480469 -0.201465725898742676 0.743546664714813232
1.86698269844055176 1.98010313510894775 0.91966557502746582
3.12911653518676758 2.88265347480773926 0.977806210517883301
1.81939029693603516 -0.378123641014099121 1.61435770988464355
-0.268824249505996704 0.415989875793457031 -0.284850090742111206
1.01955044269561768 1.6376338005065918 1.28940761089324951
