ply
format ascii 1.0
element vertex 64
comment vertices
property float x
property float y
property float z
end_header
-0.495413094758987427 0.206741601228713989 0.236951008439064026
0.69293212890625 -3.8339991569519043 1.16629469394683838
-1.89494538307189941 -3.20911836624145508 -0.448393315076828003
-0.556124210357666016 -2.07904696464538574 1.09090948104858398
0.359336256980895996 -2.52984356880187988 -1.00193870067596436
-1.94834637641906738 -1.17293906211853027 0.0790070295333862305
-2.05411982536315918 1.36217725276947021 0.442910254001617432
-1.67974007129669189 -0.225141197443008423 1.65213871002197266
0.360736578702926636 -0.48119780421257019 -0.285154342651367188
0.232706248760223389 -3.62178897857666016 -0.0575629621744155884
-0.820891618728637695 -1.3092339038848877 -0.0682344734668731689
-0.436078727245330811 -0.227125570178031921 1.76554453372955322
0.72118675708770752 -2.29766416549682617 1.1337352991104126
-1.65396273136138916 -2.14862585067749023 0.108819141983985901
-1.33037781715393066 -0.588126301765441895 -0.771166145801544189
-1.65370273590087891 -2.17227697372436523 -0.777452647686004639
-1.65052080154418945 -0.91415715217590332 0.647828519344329834
-0.913526654243469238 -2.41347026824951172 0.204929128289222717
-2.44582176208496094 -0.439685463905334473 0.941187143325805664
-0.665187597274780273 -2.72748804092407227 0.891118347644805908
0.218798220157623291 -1.25747895240783691 0.525261402130126953
0.108169838786125183 -1.75534987449645996 1.81289935111999512
-0.532583117485046387 0.427835285663604736 1.36605405807495117
-0.670903205871582031 -0.852166056632995605 0.630042791366577148
0.705758154392242432 -0.105772256851196289 0.16111069917678833
-1.45669901371002197 -0.260254949331283569 0.0235272794961929321
-0.341568917036056519 -0.748597979545593262 -0.607139348983764648
-0.693528950214385986 -1.10474264621734619 1.47550010681152344
-0.454331666231155396 -2.23913288116455078 -0.343463212251663208
0.394321560859680176 -3.0309450626373291 1.0281364917755127
-1.25672733783721924 -0.172821745276451111 0.477501600980758667
-0.334704458713531494 -3.48980259895324707 -0.462958812713623047
0.0413543581962585449 -0.145139604806900024 1.25502967834472656
-1.66769862174987793 -1.08171653747558594 -0.22421477735042572
-1.83800995349884033 0.530583977699279785 0.40285453200340271
-1.18352341651916504 -1.37904989719390869 0.771990180015563965
0.0262499153614044189 -2.18677330017089844 0.764333128929138184
-0.179214775562286377 -2.50531601905822754 -0.0532365664839744568
-1.79095900058746338 1.26637589931488037 0.857376277446746826
-0.260564446449279785 -1.17419910430908203 1.10076332092285156
-0.685343265533447266 -0.37438654899597168 0.133195355534553528
-1.91194939613342285 -1.80083191394805908 0.999616503715515137
0.83507537841796875 -3.06352615356445312 0.934983491897583008
-1.09409964084625244 -2.61511731147766113 -0.0686139613389968872
0.00695957988500595093 0.0440041124820709229 -0.0154726319015026093
-1.98210811614990234 -0.752169013023376465 1.17264962196350098
-0.0226903855800628662 -0.948112010955810547 0.152786433696746826
-0.00292060896754264832 -1.62871444225311279 -0.916363716125488281
0.531353592872619629 -2.63789749145507812 1.62529492378234863
0.748700976371765137 -1.632415771484375 -0.303046822547912598
-0.874487221240997314 0.49643397331237793 0.849845468997955322
-1.90079331398010254 -2.1944422721862793 -0.332268774509429932
-0.945508599281311035 -0.0750027298927307129 0.635142385959625244
-0.172462344169616699 -2.00140738487243652 -0.240577101707458496
-2.01050019264221191 -0.75245964527130127 0.421119421720504761
-1.51063120365142822 -0.575018882751464844 0.266920149326324463
-2.09857511520385742 -1.71353137493133545 -0.039801962673664093
0.657089412212371826 -1.32322931289672852 0.683305978775024414
-1.07729184627532959 0.206351727247238159 0.0617716014385223389
-0.614392340183258057 -1.84440314769744873 -0.0632165819406509399
-0.656043112277984619 -0.314950376749038696 -0.32606843113899231
-0.507802844047546387 -1.30596542358398438 0.983158886432647705
-1.28252494335174561 -0.836222946643829346 0.897272109985351562
-0.941599011421203613 0.220408633351325989 0.91610032320022583
