ply
format ascii 1.0
element vertex 256
comment vertices
property float x
property float y
property float z
end_header
2.43043398857116699 1.76094353199005127 0.235138162970542908
-2.31279540061950684 -1.87520003318786621 0.429044187068939209
0.640347957611083984 -1.89110100269317627 0.0464710891246795654
-0.533037126064300537 0.837056338787078857 0.381387233734130859
0.978042840957641602 0.0913736671209335327 0.344894230365753174
-0.379474520683288574 -0.920250117778778076 0.559255421161651611
-1.05908632278442383 -1.66324424743652344 0.0712501853704452515
0.228972792625427246 -0.977637171745300293 0.192488551139831543
1.89571261405944824 0.626477599143981934 0.0969762727618217468
0.853483796119689941 -0.544098496437072754 0.275599956512451172
-0.554208040237426758 0.878476738929748535 0.341762512922286987
0.977520346641540527 0.176713258028030396 0.367297857999801636
-2.29746365547180176 -1.99012100696563721 0.388616442680358887
-0.368795067071914673 -0.89774852991104126 0.440491914749145508
0.208738937973976135 -0.973830580711364746 0.200242757797241211
-1.04570543766021729 -1.71153926849365234 0.0643586069345474243
1.88608717918395996 0.62030029296875 0.0837151557207107544
2.42435598373413086 1.75562095642089844 0.238375484943389893
0.619691610336303711 -1.89287269115447998 0.0472374893724918365
0.794435679912567139 -0.5528678297996521 0.269191384315490723
1.88670825958251953 0.655273973941802979 0.158014997839927673
-2.33791756629943848 -1.92851734161376953 0.409609436988830566
-2.34178972244262695 -1.80159926414489746 0.400015503168106079
0.969470322132110596 0.179245889186859131 0.375607579946517944
2.43329286575317383 1.75464975833892822 0.253966003656387329
0.650715291500091553 -1.96578383445739746 0.05680837482213974
-1.06090307235717773 -1.67576539516448975 0.0589504241943359375
-2.34107279777526855 -1.90016460418701172 0.412526816129684448
-0.560531735420227051 0.821243584156036377 0.35079038143157959
-0.39486655592918396 -0.943179845809936523 0.529795646667480469
-1.04743051528930664 -1.70843350887298584 0.058147042989730835
0.213619068264961243 -0.984749197959899902 0.194058015942573547
2.42460322380065918 1.74991095066070557 0.239876091480255127
-2.31822609901428223 -1.90584647655487061 0.40230986475944519
0.980858087539672852 0.158296167850494385 0.322525650262832642
0.989351153373718262 0.170515626668930054 0.383269548416137695
0.636885166168212891 -1.89650976657867432 0.0951087325811386108
2.43471693992614746 1.75951516628265381 0.233216509222984314
1.89458668231964111 0.624172091484069824 0.0602681636810302734
0.970693409442901611 0.125158578157424927 0.385432660579681396
-2.30997943878173828 -1.90809512138366699 0.41267433762550354
1.8933875560760498 0.640795767307281494 0.10316331684589386
0.782157182693481445 -0.624506354331970215 0.282040953636169434
0.209548294544219971 -0.985615015029907227 0.205436199903488159
1.00152444839477539 0.305834114551544189 0.3333720862865448
0.20857354998588562 -0.98846435546875 0.200332581996917725
2.42459535598754883 1.75127518177032471 0.240569800138473511
0.961182594299316406 0.157476887106895447 0.347784042358398438
-1.05093371868133545 -1.6777571439743042 0.12818184494972229
0.818012356758117676 -0.543021321296691895 0.259439021348953247
-2.33168315887451172 -1.82780086994171143 0.423939287662506104
-2.32755684852600098 -1.78197884559631348 0.394432544708251953
0.215140596032142639 -0.968614697456359863 0.212368696928024292
-2.32318615913391113 -1.95077979564666748 0.435020208358764648
2.42822504043579102 1.75188076496124268 0.238030612468719482
-2.32902717590332031 -2.01151156425476074 0.36919894814491272
-0.392439961433410645 -0.926800310611724854 0.529777705669403076
-2.31874179840087891 -1.88923859596252441 0.40741392970085144
0.213248759508132935 -0.98826068639755249 0.208007350564002991
2.42795515060424805 1.74775552749633789 0.241271376609802246
0.976344883441925049 0.189437702298164368 0.410263955593109131
0.648298501968383789 -1.89641797542572021 0.0701748281717300415
0.971951544284820557 0.144095614552497864 0.379451781511306763
-0.557322680950164795 0.838797271251678467 0.361131727695465088
2.4295647144317627 1.76150262355804443 0.235467195510864258
0.992382824420928955 0.170182466506958008 0.37538754940032959
0.221898198127746582 -0.959978878498077393 0.212548092007637024
2.42737126350402832 1.75662553310394287 0.253034710884094238
-0.387008905410766602 -0.90075451135635376 0.439715832471847534
2.42342090606689453 1.74792110919952393 0.247398719191551208
-0.551271796226501465 0.830258309841156006 0.357573717832565308
0.213388413190841675 -0.992017626762390137 0.205543354153633118
0.650376856327056885 -1.92069685459136963 0.0760784000158309937
-0.390731871128082275 -0.926261603832244873 0.503717303276062012
0.981134712696075439 0.164271533489227295 0.36384156346321106
0.796347677707672119 -0.543029069900512695 0.295693457126617432
-0.408171892166137695 -0.912612676620483398 0.557423949241638184
1.89661335945129395 0.627587556838989258 0.15639004111289978
-0.549260914325714111 0.841480731964111328 0.378192663192749023
0.632429122924804688 -1.90399169921875 0.0382444784045219421
-1.03025138378143311 -1.72022891044616699 0.092743895947933197
0.997788548469543457 0.26381605863571167 0.379812926054000854
2.42215490341186523 1.7511601448059082 0.240179151296615601
0.738111019134521484 -0.584073364734649658 0.284533470869064331
-1.0461190938949585 -1.67581212520599365 0.0979254394769668579
-2.32351112365722656 -1.89469015598297119 0.398949295282363892
-2.32182741165161133 -1.89841973781585693 0.384779453277587891
0.21111142635345459 -0.963906168937683105 0.209319204092025757
0.214225500822067261 -0.972137331962585449 0.197286516427993774
-0.374649524688720703 -0.939299643039703369 0.416836321353912354
0.209982305765151978 -0.979671597480773926 0.203432992100715637
-2.3226933479309082 -1.89436054229736328 0.411737620830535889
-2.31496763229370117 -1.92164301872253418 0.432129561901092529
1.91131162643432617 0.624869585037231445 0.15608513355255127
-2.31475710868835449 -1.87232553958892822 0.432905972003936768
1.86513936519622803 0.646437525749206543 0.123120084404945374
-0.377016335725784302 -0.930248022079467773 0.557127714157104492
2.43012380599975586 1.75705456733703613 0.232277676463127136
0.987444818019866943 0.152994692325592041 0.37443464994430542
-2.33338761329650879 -1.88941740989685059 0.408808469772338867
0.979659855365753174 0.149093344807624817 0.348167479038238525
2.42497467994689941 1.75249016284942627 0.23395460844039917
0.217886373400688171 -0.965637683868408203 0.193779736757278442
1.89204001426696777 0.632467448711395264 0.131653755903244019
-0.545980632305145264 0.821979403495788574 0.34170880913734436
1.89229357242584229 0.612657546997070312 0.0900968685746192932
0.977449536323547363 0.154471129179000854 0.369545578956604004
-2.31714653968811035 -1.89953422546386719 0.414141833782196045
2.43069839477539062 1.75441884994506836 0.239603713154792786
1.90127313137054443 0.6257781982421875 0.130179509520530701
0.998568296432495117 0.172208905220031738 0.387336462736129761
0.970572292804718018 0.179295986890792847 0.373035013675689697
-0.38500860333442688 -0.929718196392059326 0.560698390007019043
0.990475654602050781 0.179088175296783447 0.350891232490539551
2.42805218696594238 1.74627506732940674 0.240730270743370056
0.209735751152038574 -0.99226534366607666 0.207415536046028137
-2.34140396118164062 -1.89111006259918213 0.40370786190032959
-2.32760071754455566 -1.8819122314453125 0.43060225248336792
0.979848027229309082 0.135027915239334106 0.353027760982513428
0.622755646705627441 -1.87188529968261719 0.0713720843195915222
0.638773500919342041 -1.91473817825317383 0.0851054713129997253
-1.05028176307678223 -1.68479549884796143 0.0940221846103668213
-0.37138068675994873 -0.919398665428161621 0.42215612530708313
0.82810741662979126 -0.543108761310577393 0.247506380081176758
-0.40887296199798584 -0.929276883602142334 0.567016363143920898
1.90051889419555664 0.649973630905151367 0.148425549268722534
-0.380073010921478271 -0.932110965251922607 0.54531627893447876
0.214448481798171997 -0.979036688804626465 0.20780627429485321
0.782403945922851562 -0.575874805450439453 0.272602707147598267
0.211083635687828064 -0.979872822761535645 0.199053853750228882
0.618255019187927246 -0.828615665435791016 0.259261906147003174
-0.389451444149017334 -0.875851273536682129 0.499449491500854492
0.21908317506313324 -0.972760915756225586 0.195428550243377686
0.970718502998352051 0.15830230712890625 0.359670400619506836
2.43053317070007324 1.7484813928604126 0.23509940505027771
2.41909909248352051 1.74753820896148682 0.242904335260391235
-1.03680682182312012 -1.7058870792388916 0.0999528467655181885
-2.31450366973876953 -1.85086202621459961 0.445398420095443726
0.629996120929718018 -1.90114021301269531 0.062325894832611084
2.42569255828857422 1.75950980186462402 0.238430067896842957
-2.32541084289550781 -1.9141688346862793 0.407925665378570557
-2.33795046806335449 -1.89972841739654541 0.406851649284362793
0.220561116933822632 -0.970630526542663574 0.186684921383857727
-2.33632326126098633 -1.89753603935241699 0.408932149410247803
2.4257056713104248 1.75675773620605469 0.242635607719421387
-0.554777383804321289 0.851566433906555176 0.370499223470687866
-0.383449435234069824 -0.901445567607879639 0.535252630710601807
-2.32789945602416992 -1.95648503303527832 0.400477856397628784
0.840562641620635986 -0.540808439254760742 0.274590432643890381
-2.32909631729125977 -1.94390285015106201 0.406103134155273438
1.89479589462280273 0.635499358177185059 0.0763893499970436096
2.4220888614654541 1.74485361576080322 0.232434764504432678
2.43033742904663086 1.75518012046813965 0.240194439888000488
0.212505966424942017 -0.980678200721740723 0.2004355788230896
0.212658911943435669 -0.986143052577972412 0.210816621780395508
-2.32980918884277344 -1.89096701145172119 0.390313029289245605
-0.536994636058807373 0.833676934242248535 0.356047898530960083
0.652061939239501953 -1.90951097011566162 0.0875944048166275024
-1.035636305809021 -1.66075992584228516 0.119269445538520813
0.97707974910736084 0.15046277642250061 0.374428272247314453
0.997622966766357422 0.166133314371109009 0.367582887411117554
-1.0457456111907959 -1.71699535846710205 0.0686037987470626831
1.91574811935424805 0.634700775146484375 0.15910753607749939
-0.368949741125106812 -0.931641638278961182 0.56535184383392334
0.701993882656097412 -0.680947601795196533 0.293393820524215698
0.633080959320068359 -1.90985655784606934 0.0387578532099723816
0.978640556335449219 0.177727878093719482 0.370254337787628174
0.972709894180297852 0.173581644892692566 0.379208028316497803
-1.05718183517456055 -1.6794435977935791 0.0644670501351356506
-1.04649686813354492 -1.68159997463226318 0.0665877461433410645
2.42261314392089844 1.75610518455505371 0.233311772346496582
0.227412417531013489 -0.982145071029663086 0.208199486136436462
2.43566131591796875 1.75415539741516113 0.244456246495246887
-0.386178910732269287 -0.874271571636199951 0.523505985736846924
2.43559479713439941 1.75203275680541992 0.23984585702419281
0.999975800514221191 0.176173090934753418 0.352620035409927368
0.216657072305679321 -0.99051368236541748 0.200320199131965637
2.42619967460632324 1.75746500492095947 0.25154268741607666
2.41303205490112305 1.75348114967346191 0.247464627027511597
-0.36988985538482666 -0.929555416107177734 0.544063329696655273
0.98677438497543335 0.16786491870880127 0.365850567817687988
-0.542805492877960205 0.847733497619628906 0.360387057065963745
1.89558219909667969 0.616292417049407959 0.21176011860370636
0.77457737922668457 -0.552429258823394775 0.275508999824523926
-0.550263643264770508 0.82308495044708252 0.320342600345611572
-0.375025779008865356 -0.90412294864654541 0.451124489307403564
0.21175086498260498 -0.974333047866821289 0.202807396650314331
-0.403636902570724487 -0.939637303352355957 0.544746100902557373
0.963631153106689453 0.159647777676582336 0.333387851715087891
0.626680552959442139 -1.91005432605743408 0.066443614661693573
1.88940560817718506 0.632612168788909912 0.0927537381649017334
-1.05970370769500732 -1.68536245822906494 0.0555743798613548279
0.993936121463775635 0.151947587728500366 0.392614424228668213
0.206502914428710938 -0.977743387222290039 0.2049398273229599
0.221117272973060608 -0.975906491279602051 0.217641234397888184
-2.2947390079498291 -1.93039226531982422 0.423118114471435547
-0.554412961006164551 0.863404989242553711 0.354140490293502808
0.213765814900398254 -0.960305929183959961 0.190441697835922241
-0.374018311500549316 -0.930562436580657959 0.468923091888427734
0.210793554782867432 -0.983394861221313477 0.192028611898422241
0.215725719928741455 -0.982348084449768066 0.21072639524936676
2.43261098861694336 1.75595128536224365 0.250590085983276367
1.89330625534057617 0.631857037544250488 0.148968517780303955
-2.31727957725524902 -1.89542829990386963 0.41448819637298584
-2.32657742500305176 -1.900734543800354 0.422691613435745239
2.42988467216491699 1.75915980339050293 0.240343585610389709
2.429718017578125 1.75844144821166992 0.236045956611633301
2.43211245536804199 1.75453722476959229 0.240182161331176758
-0.547298669815063477 0.831135749816894531 0.378621518611907959
-2.32808518409729004 -1.90360879898071289 0.404640555381774902
0.974627017974853516 0.142841532826423645 0.37704882025718689
0.961908459663391113 0.186530262231826782 0.372230350971221924
0.646414041519165039 -1.90101945400238037 0.097500339150428772
-2.32697820663452148 -1.84933781623840332 0.40544283390045166
0.835227608680725098 -0.542412519454956055 0.263036668300628662
0.971204102039337158 0.176145985722541809 0.38143429160118103
2.42594432830810547 1.75756287574768066 0.239118039608001709
-1.0572819709777832 -1.70268404483795166 0.113907083868980408
-0.399002134799957275 -0.936043798923492432 0.531781554222106934
0.818597495555877686 -0.556234240531921387 0.280482977628707886
-1.04134154319763184 -1.66897201538085938 0.082841828465461731
-0.389220297336578369 -0.935846149921417236 0.552979826927185059
-2.33423709869384766 -1.87818896770477295 0.418667912483215332
0.860764503479003906 -0.56326824426651001 0.30338248610496521
1.88560342788696289 0.644508540630340576 0.0850370153784751892
0.212609425187110901 -0.981900334358215332 0.204775899648666382
-2.30552816390991211 -1.91174697875976562 0.401876986026763916
0.208586275577545166 -0.972428858280181885 0.200915709137916565
0.981225907802581787 0.161962956190109253 0.364347100257873535
0.990160703659057617 0.180644571781158447 0.36335262656211853
-0.384298563003540039 -0.895020544528961182 0.563010692596435547
-2.31533122062683105 -1.88134872913360596 0.405441462993621826
-2.3271782398223877 -1.9246821403503418 0.428184628486633301
2.42959260940551758 1.75543594360351562 0.2374582439661026
0.20472833514213562 -0.977320432662963867 0.199441432952880859
0.22104199230670929 -0.973961770534515381 0.210554972290992737
1.90150105953216553 0.633047282695770264 0.0751538947224617004
-2.33686590194702148 -1.89946126937866211 0.39133685827255249
0.978772759437561035 0.146910518407821655 0.359215587377548218
0.228946179151535034 -0.978628695011138916 0.19541892409324646
2.42483305931091309 1.76974201202392578 0.233808144927024841
1.92274105548858643 0.62429279088973999 0.180123865604400635
-2.33180761337280273 -1.88387095928192139 0.401749908924102783
2.4222877025604248 1.74935829639434814 0.242439970374107361
-2.34473514556884766 -1.92564487457275391 0.413686186075210571
0.214076131582260132 -0.976285040378570557 0.204488202929496765
0.98402780294418335 0.173398882150650024 0.347800642251968384
-0.388738095760345459 -0.90503770112991333 0.566076993942260742
2.41991853713989258 1.75534331798553467 0.237554550170898438
-1.04637753963470459 -1.68443763256072998 0.114262215793132782
-0.372841179370880127 -0.949014127254486084 0.438367277383804321
-2.31252050399780273 -1.89581751823425293 0.409950077533721924
0.99009859561920166 0.171197876334190369 0.401918679475784302
-0.544528663158416748 0.82603907585144043 0.359993636608123779
2.42897343635559082 1.76368260383605957 0.240028247237205505
-0.36301538348197937 -0.918977320194244385 0.473362445831298828
