ply
format ascii 1.0
element vertex 256
comment vertices
property float x
property float y
property float z
end_header
-1.88225436210632324 -0.665571212768554688 0.397352278232574463
0.675610899925231934 1.86484050750732422 0.316723555326461792
-1.8639596700668335 2.34920215606689453 0.370219588279724121
0.314989268779754639 -0.9539794921875 0.0614958927035331726
-1.08296036720275879 -1.67963957786560059 0.327317655086517334
0.228961080312728882 0.984604418277740479 0.357008486986160278
-1.23876440525054932 1.58165693283081055 0.056208346039056778
-0.635251879692077637 -0.772551298141479492 0.307232171297073364
-0.881544411182403564 0.491269677877426147 0.36050143837928772
-2.04321002960205078 0.0995481312274932861 0.178909808397293091
0.244364708662033081 0.983209133148193359 0.347183346748352051
-1.86831128597259521 2.34934258460998535 0.361823976039886475
-1.08241260051727295 -1.68893253803253174 0.326199233531951904
-0.880835473537445068 0.48926091194152832 0.350929558277130127
-2.02231907844543457 0.0752304345369338989 0.188963741064071655
-1.87946581840515137 -0.67566603422164917 0.399893462657928467
-0.649563133716583252 -0.772543966770172119 0.31610146164894104
0.679280996322631836 1.87162387371063232 0.313758343458175659
-1.88139808177947998 -0.666221976280212402 0.395628750324249268
-1.0838465690612793 -1.6856611967086792 0.331055641174316406
0.231064379215240479 0.983995258808135986 0.35236629843711853
0.313902944326400757 -0.953460276126861572 0.0629187896847724915
-2.04748415946960449 0.0916733443737030029 0.204604536294937134
-1.86765599250793457 2.34987115859985352 0.362437635660171509
0.229765415191650391 0.984391629695892334 0.353927075862884521
-1.23398113250732422 1.57528090476989746 0.0485583096742630005
0.672941207885742188 1.87366819381713867 0.315000742673873901
-1.08229482173919678 -1.68018805980682373 0.332976251840591431
-1.88266324996948242 -0.668076157569885254 0.398487508296966553
-0.880354583263397217 0.489764779806137085 0.352377563714981079
0.238571256399154663 0.985889256000518799 0.350491613149642944
-1.08126211166381836 -1.67869997024536133 0.325559616088867188
-0.645688354969024658 -0.771828651428222656 0.30946841835975647
-0.882502496242523193 0.489849627017974854 0.354214072227478027
-1.86859726905822754 2.34955644607543945 0.367684811353683472
-1.88031315803527832 -0.667455971240997314 0.396644264459609985
0.676127851009368896 1.87343752384185791 0.316698700189590454
-1.88465392589569092 -0.666306436061859131 0.40137094259262085
-1.86832726001739502 2.3510432243347168 0.357870727777481079
0.305695593357086182 -0.95796436071395874 0.0635978579521179199
-1.08229243755340576 -1.67514538764953613 0.335864394903182983
0.676229655742645264 1.87502145767211914 0.315852135419845581
0.303707867860794067 -0.955498993396759033 0.0670467466115951538
-0.637661516666412354 -0.771753311157226562 0.304720699787139893
-0.881736159324645996 0.489803671836853027 0.353171378374099731
-1.23438608646392822 1.57507908344268799 0.0435690321028232574
0.232665657997131348 0.983222901821136475 0.349195510149002075
-2.04194211959838867 0.0984220430254936218 0.204812481999397278
-1.08581411838531494 -1.70214152336120605 0.334024727344512939
-1.85749435424804688 2.34975457191467285 0.363218128681182861
-1.8643803596496582 -0.687394857406616211 0.376581966876983643
-1.2372889518737793 1.576751708984375 0.0494325459003448486
-2.05255126953125 0.0847576707601547241 0.198284327983856201
-0.880448222160339355 0.490162134170532227 0.353809565305709839
-1.08241462707519531 -1.68371391296386719 0.330292314291000366
-1.86899805068969727 2.34957695007324219 0.366510093212127686
0.676807999610900879 1.87601029872894287 0.313352137804031372
-0.647043466567993164 -0.772127091884613037 0.311505287885665894
-1.08340048789978027 -1.67933392524719238 0.327691584825515747
0.232496768236160278 0.986030101776123047 0.355019539594650269
-0.88276970386505127 0.49029308557510376 0.359309881925582886
-1.87961184978485107 -0.691127538681030273 0.360717952251434326
-1.08030736446380615 -1.67980647087097168 0.322765886783599854
0.230065673589706421 0.985252559185028076 0.357304960489273071
-1.88431358337402344 -0.665423989295959473 0.400870442390441895
0.230834096670150757 0.982960820198059082 0.350913643836975098
0.671589255332946777 1.87977755069732666 0.315059512853622437
0.235162973403930664 0.985660672187805176 0.351261258125305176
-0.644757270812988281 -0.771852731704711914 0.30732843279838562
0.30259406566619873 -0.954774558544158936 0.0776989832520484924
-0.63222956657409668 -0.772725343704223633 0.3095664381980896
-0.882934749126434326 0.488848060369491577 0.355444967746734619
0.678499162197113037 1.87159895896911621 0.318092942237854004
-1.86591637134552002 2.34914326667785645 0.370691478252410889
-0.878988027572631836 0.489993095397949219 0.35417473316192627
-1.24210035800933838 1.57673823833465576 0.0611303970217704773
-1.08080494403839111 -1.68171322345733643 0.328568130731582642
-0.882796227931976318 0.490871816873550415 0.363804221153259277
0.679683864116668701 1.87137472629547119 0.313595831394195557
-1.86782467365264893 2.34917354583740234 0.370739281177520752
0.676133811473846436 1.87373220920562744 0.316410690546035767
-0.880911409854888916 0.490166842937469482 0.356784701347351074
-2.04246401786804199 0.0945724323391914368 0.187646180391311646
-1.88346266746520996 -0.664842844009399414 0.398368805646896362
-2.04331827163696289 0.0972136706113815308 0.196174755692481995
-2.01374030113220215 0.0731722265481948853 0.19108329713344574
-1.86751103401184082 2.34979438781738281 0.361245602369308472
-2.04179668426513672 0.0820632651448249817 0.190494686365127563
-1.881752610206604 -0.665684044361114502 0.396993279457092285
-1.87962782382965088 -0.670604944229125977 0.396769136190414429
0.229347437620162964 0.983717620372772217 0.353060424327850342
-1.07980990409851074 -1.67920398712158203 0.322364181280136108
-0.647753417491912842 -0.772139966487884521 0.313317298889160156
-1.87904763221740723 -0.667531907558441162 0.399143010377883911
-1.88154685497283936 -0.666489005088806152 0.395152091979980469
0.674975275993347168 1.87228584289550781 0.312581479549407959
-1.86844038963317871 2.350250244140625 0.367399543523788452
-0.879686594009399414 0.490075618028640747 0.353623539209365845
0.669682919979095459 1.87928855419158936 0.317999452352523804
-1.88458240032196045 -0.666426599025726318 0.401799499988555908
-2.04619002342224121 0.0973496660590171814 0.193408817052841187
-0.639827549457550049 -0.772497117519378662 0.305721551179885864
-0.63160240650177002 -0.772014498710632324 0.307457178831100464
-2.03990936279296875 0.0992083922028541565 0.195887923240661621
0.235112786293029785 0.984967827796936035 0.350279718637466431
-1.87863564491271973 -0.67039024829864502 0.395740032196044922
-0.644880235195159912 -0.772141754627227783 0.308820754289627075
-2.04181790351867676 0.0875442624092102051 0.202111005783081055
-1.2455132007598877 1.57663524150848389 0.058365747332572937
-0.646761953830718994 -0.771630406379699707 0.3126181960105896
-1.08213448524475098 -1.680214524269104 0.331203341484069824
-2.04293680191040039 0.0773855447769165039 0.195739373564720154
-1.87076747417449951 2.34980297088623047 0.367447495460510254
-1.86901962757110596 2.35095715522766113 0.358123213052749634
-0.643287479877471924 -0.773713469505310059 0.315542042255401611
-2.0406193733215332 0.100042298436164856 0.188807457685470581
-0.880623340606689453 0.490579575300216675 0.355338960886001587
0.313825726509094238 -0.954662621021270752 0.0656149685382843018
-1.86766242980957031 2.34972119331359863 0.36275017261505127
0.311261236667633057 -0.955630600452423096 0.0670326501131057739
0.239064231514930725 0.983895301818847656 0.347492903470993042
0.231812775135040283 0.984958171844482422 0.352710872888565063
-1.86353778839111328 2.34941911697387695 0.357666760683059692
-2.0413205623626709 0.100940689444541931 0.199582457542419434
-1.08420479297637939 -1.6900402307510376 0.330576151609420776
-0.881213903427124023 0.49113994836807251 0.35834658145904541
-1.23620104789733887 1.58014941215515137 0.0511655732989311218
0.676532566547393799 1.87295043468475342 0.312093973159790039
-1.08299493789672852 -1.68694722652435303 0.328258335590362549
-0.880750775337219238 0.49149477481842041 0.359495371580123901
-1.08365726470947266 -1.68709814548492432 0.331966251134872437
-0.882196784019470215 0.490847498178482056 0.357925087213516235
-1.86877298355102539 2.35055923461914062 0.370183050632476807
-0.643508434295654297 -0.772119104862213135 0.306270390748977661
-0.88274836540222168 0.490680068731307983 0.359721630811691284
-2.04267525672912598 0.0771470367908477783 0.19266335666179657
0.233885809779167175 0.986276865005493164 0.354398757219314575
-1.87003970146179199 2.35146737098693848 0.359996646642684937
-1.08069109916687012 -1.68055903911590576 0.326971739530563354
-1.86850738525390625 2.34988188743591309 0.361977934837341309
-1.88239049911499023 -0.667408406734466553 0.39673769474029541
-1.082633376121521 -1.67868196964263916 0.3282451331615448
-1.86913681030273438 2.34996724128723145 0.366108834743499756
0.22960895299911499 0.983641326427459717 0.353183627128601074
-1.08394360542297363 -1.68874788284301758 0.327603608369827271
0.231867417693138123 0.985004067420959473 0.352438539266586304
-0.644554734230041504 -0.772198319435119629 0.308461159467697144
-1.88333034515380859 -0.666184961795806885 0.399160236120223999
-1.8668830394744873 2.35169553756713867 0.358792215585708618
0.234524935483932495 0.986185193061828613 0.353223562240600586
-0.645208537578582764 -0.771896481513977051 0.308313488960266113
-1.08115756511688232 -1.68031907081604004 0.325280100107192993
0.677176237106323242 1.87284505367279053 0.320530325174331665
-1.08086943626403809 -1.67965316772460938 0.322068899869918823
-1.08051037788391113 -1.68381595611572266 0.326144754886627197
0.235935524106025696 0.985701024532318115 0.350642979145050049
0.678277492523193359 1.87551760673522949 0.312736302614212036
-1.0830458402633667 -1.6787421703338623 0.327546060085296631
0.231711402535438538 0.984953701496124268 0.352947324514389038
-1.88224852085113525 -0.665061235427856445 0.397342830896377563
0.227392837405204773 0.983839094638824463 0.356469273567199707
-2.01204276084899902 0.0712508410215377808 0.192259415984153748
-1.88132357597351074 -0.676125168800354004 0.389355987310409546
-1.88276755809783936 -0.668875932693481445 0.398096203804016113
-2.05615234375 0.079376809298992157 0.195949167013168335
-0.644219279289245605 -0.771990597248077393 0.307314068078994751
-0.881000697612762451 0.488671481609344482 0.350193202495574951
0.237248852849006653 0.986127495765686035 0.351500332355499268
-2.05242323875427246 0.0829503536224365234 0.196922972798347473
-1.08304286003112793 -1.68056976795196533 0.328483313322067261
0.232197552919387817 0.985633492469787598 0.354492247104644775
0.680299222469329834 1.87394917011260986 0.313123762607574463
-0.64587026834487915 -0.772229492664337158 0.310303956270217896
-2.04112553596496582 0.0748931467533111572 0.191813245415687561
0.313472330570220947 -0.949679553508758545 0.0638619139790534973
0.22781844437122345 0.98282390832901001 0.352995187044143677
-1.86781001091003418 2.34963035583496094 0.367342084646224976
0.674371778964996338 1.8741452693939209 0.313579529523849487
-1.88200533390045166 -0.665754020214080811 0.39728429913520813
0.310615032911300659 -0.954515814781188965 0.067518971860408783
-1.87173688411712646 2.35070180892944336 0.363815784454345703
-1.88121652603149414 -0.668627500534057617 0.393605083227157593
-1.24057495594024658 1.57812952995300293 0.0533105470240116119
-2.04118061065673828 0.0952354371547698975 0.189065858721733093
0.672858238220214844 1.87755346298217773 0.318694770336151123
-1.86596000194549561 2.35009622573852539 0.36336439847946167
0.676727712154388428 1.87356042861938477 0.317271023988723755
-2.04163622856140137 0.104967460036277771 0.189801931381225586
-2.04844212532043457 0.0864316821098327637 0.204013481736183167
-1.07916903495788574 -1.68164849281311035 0.323484897613525391
0.230550423264503479 0.985249996185302734 0.355408132076263428
-1.08112823963165283 -1.67903816699981689 0.327113360166549683
-1.23836791515350342 1.58401608467102051 0.0567512623965740204
0.67475438117980957 1.86911141872406006 0.314669817686080933
-1.08214724063873291 -1.68108582496643066 0.332294493913650513
-0.880338072776794434 0.490391463041305542 0.355394452810287476
-1.23574483394622803 1.57771885395050049 0.0544937625527381897
-0.880366384983062744 0.489953756332397461 0.353081703186035156
-1.86828505992889404 2.35009646415710449 0.371781647205352783
0.676053047180175781 1.87078726291656494 0.31414458155632019
-1.88301575183868408 -0.66456681489944458 0.398808449506759644
0.230344071984291077 0.985047876834869385 0.355220943689346313
-1.88342761993408203 -0.6645660400390625 0.398637652397155762
0.232520431280136108 0.985631108283996582 0.353936612606048584
0.675522923469543457 1.87346971035003662 0.315543293952941895
-0.648787081241607666 -0.772439658641815186 0.315965205430984497
-2.04541373252868652 0.0980684682726860046 0.17883552610874176
0.680737614631652832 1.87271058559417725 0.314762294292449951
-2.03663849830627441 0.103613540530204773 0.19098430871963501
-0.639713287353515625 -0.771923840045928955 0.306482642889022827
0.312164843082427979 -0.955959141254425049 0.0621561072766780853
0.315107494592666626 -0.950728833675384521 0.0657057017087936401
-1.8687666654586792 2.35119438171386719 0.359658390283584595
-1.23743927478790283 1.5774376392364502 0.0494188666343688965
-0.882348537445068359 0.48974764347076416 0.355814248323440552
0.675851821899414062 1.87349975109100342 0.315643548965454102
-2.0411381721496582 0.100025251507759094 0.193015813827514648
-2.01037359237670898 0.071468546986579895 0.191708162426948547
-1.86677110195159912 2.34990310668945312 0.364003360271453857
-1.86836099624633789 2.34968042373657227 0.371497094631195068
-1.86473119258880615 2.35012245178222656 0.363737910985946655
-2.04721975326538086 0.0968353599309921265 0.197271734476089478
0.315045386552810669 -0.95190882682800293 0.0623209439218044281
-2.04680156707763672 0.0773480236530303955 0.197403997182846069
-0.881357312202453613 0.491116642951965332 0.357887804508209229
-1.88340604305267334 -0.664985775947570801 0.397352993488311768
-1.07993757724761963 -1.68301296234130859 0.325013548135757446
-0.881103813648223877 0.490477919578552246 0.354955345392227173
-1.23592114448547363 1.57623374462127686 0.0492218062281608582
0.314404010772705078 -0.952733218669891357 0.0593494288623332977
-1.88002490997314453 -0.668408453464508057 0.39757964015007019
-1.08172130584716797 -1.67788922786712646 0.325899183750152588
0.23444385826587677 0.985799252986907959 0.35200163722038269
-1.0823981761932373 -1.68059182167053223 0.332410156726837158
-1.87870502471923828 -0.668112039566040039 0.394506156444549561
-0.648787200450897217 -0.772317767143249512 0.314988136291503906
0.232002854347229004 0.98505854606628418 0.352067857980728149
-2.02576875686645508 0.07067069411277771 0.195024922490119934
0.235238417983055115 0.985616326332092285 0.350534439086914062
-1.0823509693145752 -1.68123185634613037 0.328182965517044067
-2.05026078224182129 0.0709260851144790649 0.20230555534362793
0.235552981495857239 0.984837532043457031 0.348959833383560181
-2.04191040992736816 0.100899636745452881 0.195862710475921631
-0.638393521308898926 -0.771478712558746338 0.308840006589889526
-0.881795167922973633 0.490432649850845337 0.355260998010635376
-0.639906883239746094 -0.771260917186737061 0.305792033672332764
0.232056349515914917 0.984991610050201416 0.352153927087783813
-1.8794410228729248 -0.668451428413391113 0.396027803421020508
-1.86987102031707764 2.34945034980773926 0.369258999824523926
-1.88135981559753418 -0.666288077831268311 0.395179301500320435
-0.88178485631942749 0.489469319581985474 0.354662179946899414
-2.04037213325500488 0.0956193655729293823 0.196002855896949768
-0.881309986114501953 0.490671157836914062 0.355720043182373047
0.238933593034744263 0.985203325748443604 0.350245535373687744
0.230485826730728149 0.984767675399780273 0.353696644306182861
-0.644858658313751221 -0.77182769775390625 0.307473927736282349
