ply
format ascii 1.0
element vertex 256
comment vertices
property float x
property float y
property float z
end_header
0.857599973678588867 0.445797979831695557 0.157269835472106934
0.144757866859436035 -1.67780506610870361 0.456398487091064453
0.106521010398864746 0.047204136848449707 0.43125152587890625
-1.0163034200668335 -1.47022044658660889 0.549506306648254395
0.621541678905487061 0.431830883026123047 0.505340933799743652
-0.136160016059875488 0.348178505897521973 0.47193455696105957
-1.15877914428710938 -1.0114438533782959 0.589561998844146729
-0.808563947677612305 -0.708854317665100098 0.446736693382263184
0.22008708119392395 0.795000433921813965 0.479032218456268311
-0.376624345779418945 -1.32183980941772461 0.442551732063293457
0.0777646899223327637 0.926810324192047119 0.416823923587799072
0.474374651908874512 0.532542705535888672 0.461438000202178955
-1.04882228374481201 -1.65384590625762939 0.516949474811553955
0.591969311237335205 0.937404930591583252 0.593449294567108154
-0.139448583126068115 -0.848020672798156738 0.394532352685928345
0.224197834730148315 0.835457801818847656 0.483020991086959839
-1.17252600193023682 -1.56617450714111328 0.397984623908996582
0.00815629959106445312 0.716886162757873535 0.485061168670654297
-0.586656093597412109 -0.912766098976135254 0.581753849983215332
-0.443235456943511963 -0.477650076150894165 0.481144160032272339
0.0362619161605834961 -1.20556628704071045 0.438765227794647217
-0.267227530479431152 -0.558530151844024658 0.590386450290679932
0.571520328521728516 0.663707613945007324 0.494962513446807861
0.574344038963317871 -0.012766420841217041 0.418295472860336304
-0.119797110557556152 -0.882921099662780762 0.465998858213424683
0.191513285040855408 1.17768979072570801 0.472698420286178589
0.0517543554306030273 0.327074825763702393 0.41168510913848877
-0.537092268466949463 -1.16452944278717041 0.428752124309539795
0.601946830749511719 0.752089142799377441 0.505975544452667236
-0.182313442230224609 0.561232328414916992 0.496738314628601074
-1.10620880126953125 -1.20000159740447998 0.392048537731170654
-0.853385627269744873 -1.26434946060180664 0.536739170551300049
0.133089900016784668 0.217503070831298828 0.480743199586868286
-0.934761941432952881 -1.15774035453796387 0.521402537822723389
-0.493637412786483765 -0.326383680105209351 0.450720638036727905
-0.780408978462219238 -1.18396782875061035 0.512680470943450928
0.29687654972076416 0.51119697093963623 0.443044692277908325
-0.109900951385498047 -1.32723820209503174 0.391701370477676392
0.0487755537033081055 0.22182658314704895 0.444912374019622803
0.300803542137145996 1.30024504661560059 0.446144074201583862
0.225321143865585327 0.998549938201904297 0.472452014684677124
0.453943610191345215 0.642061591148376465 0.444024503231048584
-0.652676105499267578 -0.41913411021232605 0.495862126350402832
-0.00132364034652709961 0.241693839430809021 0.420063376426696777
-0.117893576622009277 -0.93475717306137085 0.438403218984603882
0.59995424747467041 0.198060005903244019 0.509422540664672852
0.370401382446289062 0.407407999038696289 0.411912381649017334
-0.92355579137802124 -1.37939763069152832 0.471471637487411499
-1.29226922988891602 -1.41421914100646973 0.419729351997375488
0.788513898849487305 0.459460198879241943 0.293187826871871948
0.0667021274566650391 -1.297454833984375 0.343408763408660889
-0.0593943595886230469 -1.60512709617614746 0.422442585229873657
-0.617778241634368896 -0.937932252883911133 0.424959450960159302
0.204653069376945496 0.983084976673126221 0.479310721158981323
0.578269720077514648 0.790613114833831787 0.558490872383117676
-0.011254429817199707 -0.196156620979309082 0.387615323066711426
0.611237883567810059 0.764251232147216797 0.448011577129364014
0.452528327703475952 1.23781788349151611 0.470498025417327881
0.218912601470947266 0.511450648307800293 0.441987335681915283
-0.395721316337585449 -1.12203454971313477 0.422312706708908081
-0.525083601474761963 -0.997629523277282715 0.552613556385040283
-0.329305052757263184 -0.9500732421875 0.386108607053756714
-0.369489490985870361 -1.01515400409698486 0.408182859420776367
0.241497397422790527 0.305328130722045898 0.471882104873657227
0.171183377504348755 0.95691835880279541 0.472896724939346313
0.101999975740909576 1.07537984848022461 0.476040482521057129
-0.109903216361999512 0.571622490882873535 0.420284926891326904
-0.0711779594421386719 0.62636864185333252 0.408403396606445312
-0.889530420303344727 -1.01260316371917725 0.412776976823806763
-0.0990623235702514648 0.561834335327148438 0.423895508050918579
0.0505260229110717773 0.632544279098510742 0.409994125366210938
-0.431469380855560303 -0.777939915657043457 0.363926708698272705
-0.939573466777801514 -0.896546840667724609 0.552933931350708008
-1.19623589515686035 -1.49030065536499023 0.410547614097595215
0.86262047290802002 0.892154693603515625 0.440372049808502197
-0.230326235294342041 -0.950132012367248535 0.504718124866485596
-1.35399436950683594 -1.43580400943756104 0.493890672922134399
-0.970273017883300781 -1.60315787792205811 0.505289435386657715
-0.804582655429840088 -0.424383491277694702 0.437464147806167603
-0.0160939693450927734 0.847705185413360596 0.460351437330245972
-0.532689452171325684 -1.12557113170623779 0.448074579238891602
0.267850399017333984 0.350499600172042847 0.493506073951721191
-1.11994564533233643 -1.22421932220458984 0.380300343036651611
0.344721555709838867 0.473205447196960449 0.559289932250976562
0.0649805068969726562 0.761918962001800537 0.479881137609481812
-0.162423491477966309 0.532099723815917969 0.491861820220947266
0.841499984264373779 1.41921579837799072 0.548592329025268555
-0.0417593717575073242 0.196787118911743164 0.446360230445861816
0.0860292315483093262 0.575577735900878906 0.469609618186950684
-0.629829466342926025 -1.03631901741027832 0.486688584089279175
-0.998424708843231201 -1.05584609508514404 0.41938936710357666
-0.204576432704925537 -0.931170821189880371 0.429116666316986084
0.0741493701934814453 -1.45726668834686279 0.417897284030914307
-0.0473216772079467773 -0.922920823097229004 0.413233131170272827
-0.540191233158111572 -1.18783760070800781 0.439442604780197144
-0.445676863193511963 -0.877238631248474121 0.396016597747802734
-1.31998062133789062 -1.42328333854675293 0.418200075626373291
0.165724143385887146 1.19689464569091797 0.510409355163574219
0.0866854190826416016 0.201236128807067871 0.416154384613037109
-1.07721805572509766 -1.33611881732940674 0.426741659641265869
0.768103241920471191 0.491557836532592773 0.297845363616943359
0.141792476177215576 1.11410677433013916 0.453374892473220825
-1.15547311305999756 -1.75322592258453369 0.561655402183532715
0.291082859039306641 0.19894862174987793 0.456113517284393311
-0.452391624450683594 -1.06337189674377441 0.427623510360717773
0.24832606315612793 0.24700579047203064 0.442913711071014404
-0.169509828090667725 -0.370275825262069702 0.443569183349609375
0.0894662737846374512 1.1747891902923584 0.477574408054351807
-1.34245681762695312 -1.60606002807617188 0.498799800872802734
0.163308382034301758 0.347018986940383911 0.470538318157196045
0.179198026657104492 0.209149360656738281 0.403801202774047852
0.0150483846664428711 -0.997141897678375244 0.38098105788230896
-0.123668193817138672 -1.64610934257507324 0.420441627502441406
-0.989167749881744385 -1.65103507041931152 0.573383867740631104
-1.32110989093780518 -1.51859939098358154 0.504333555698394775
0.330681085586547852 0.313637614250183105 0.436907410621643066
0.661884307861328125 0.490601032972335815 0.364407181739807129
0.664405941963195801 0.7503090500831604 0.522918283939361572
-0.256469309329986572 -0.749760806560516357 0.558042168617248535
-0.684235453605651855 -1.07174623012542725 0.50454246997833252
-0.792402803897857666 -1.16221058368682861 0.459770262241363525
-0.185524463653564453 -1.02997481822967529 0.39142531156539917
-0.482841968536376953 -0.270541906356811523 0.499452143907546997
0.0414198040962219238 0.758683979511260986 0.466374993324279785
0.984568417072296143 0.992518782615661621 0.533240854740142822
-0.502585887908935547 -0.970635533332824707 0.412232846021652222
-0.00502614676952362061 1.35260951519012451 0.50184708833694458
0.0919953584671020508 -1.38378798961639404 0.422621250152587891
0.526760339736938477 0.632372081279754639 0.475253522396087646
-0.949684262275695801 -1.21572184562683105 0.496067315340042114
0.640101790428161621 0.0905555486679077148 0.483903110027313232
0.671511590480804443 0.79400324821472168 0.510563194751739502
0.554961621761322021 0.0661494433879852295 0.395937234163284302
-0.901929140090942383 -0.937821626663208008 0.458155900239944458
-1.17056941986083984 -1.42496299743652344 0.404150068759918213
0.413145184516906738 0.354795098304748535 0.46191704273223877
0.110694527626037598 -1.5354686975479126 0.43058621883392334
-1.08433675765991211 -1.41206705570220947 0.399416029453277588
-0.660286903381347656 -1.02541768550872803 0.432767033576965332
-0.526389718055725098 -0.843827128410339355 0.370697140693664551
0.0825054645538330078 -1.54476594924926758 0.436960279941558838
-0.346033573150634766 -0.918312549591064453 0.470582723617553711
0.31603693962097168 0.341635346412658691 0.435669779777526855
0.841002941131591797 0.449172526597976685 0.171323925256729126
-0.592863798141479492 -1.2304610013961792 0.462149977684020996
0.374274551868438721 1.17133259773254395 0.464311301708221436
-1.18360567092895508 -1.2967832088470459 0.378938823938369751
-1.10381662845611572 -1.43868052959442139 0.572342991828918457
0.0412214994430541992 0.627642631530761719 0.442319989204406738
-0.440944850444793701 -1.0917208194732666 0.412497401237487793
0.0368025302886962891 0.658701539039611816 0.44190680980682373
-0.213348269462585449 0.418171525001525879 0.475686341524124146
-0.591903746128082275 -1.04106712341308594 0.502960562705993652
-0.0154172182083129883 -1.21650290489196777 0.43074461817741394
-1.07371187210083008 -1.18973791599273682 0.402318179607391357
-0.0265032798051834106 0.942303121089935303 0.439499795436859131
0.635262370109558105 0.916850805282592773 0.463326990604400635
0.0140062570571899414 0.420311689376831055 0.449367135763168335
0.351885795593261719 0.2038116455078125 0.512347102165222168
0.64735102653503418 0.73953855037689209 0.465472966432571411
-0.568626761436462402 -0.447484612464904785 0.377573490142822266
0.0986300110816955566 0.869247794151306152 0.464016169309616089
0.0167993307113647461 -0.934666752815246582 0.430586814880371094
-0.932746708393096924 -1.10865223407745361 0.408218204975128174
-0.174614369869232178 -0.921419978141784668 0.414380788803100586
0.039298132061958313 1.17782998085021973 0.473912715911865234
-1.37209248542785645 -1.55108475685119629 0.515790164470672607
-1.05216038227081299 -1.26639282703399658 0.385550916194915771
-0.0478737354278564453 -0.848788917064666748 0.431862026453018188
0.126070469617843628 1.0850071907043457 0.480723261833190918
0.792359352111816406 0.889605164527893066 0.523435831069946289
0.229028210043907166 1.01549351215362549 0.50761711597442627
-1.40353775024414062 -1.55143165588378906 0.407661139965057373
-0.235069572925567627 -0.353877604007720947 0.475721120834350586
-0.936210155487060547 -1.02969443798065186 0.420360326766967773
0.882807731628417969 0.872028589248657227 0.481779932975769043
0.800438284873962402 0.399226069450378418 0.189809426665306091
0.0140697956085205078 0.683436989784240723 0.463022530078887939
-0.898131132125854492 -0.920545816421508789 0.58648073673248291
-0.437224864959716797 -0.929657578468322754 0.411520898342132568
-0.630701780319213867 -0.948291897773742676 0.517459213733673096
-1.13606905937194824 -1.54384684562683105 0.53839111328125
1.0010685920715332 1.04021322727203369 0.459179669618606567
-0.21408390998840332 0.600234866142272949 0.475761950016021729
-0.47545275092124939 -0.867271184921264648 0.404576689004898071
0.259820342063903809 0.347577571868896484 0.454093754291534424
0.0842292606830596924 0.812801122665405273 0.46468624472618103
-0.146382331848144531 0.267125964164733887 0.442144155502319336
-0.139432072639465332 -1.0285041332244873 0.374786436557769775
-0.24957883358001709 -0.81506049633026123 0.515255749225616455
-0.143138766288757324 -0.342928260564804077 0.412289947271347046
-1.15191531181335449 -1.51408827304840088 0.42485511302947998
0.921392381191253662 1.33934283256530762 0.565358161926269531
-0.122498750686645508 -1.04146134853363037 0.440077483654022217
0.0101010799407958984 0.464568853378295898 0.443334519863128662
-0.80272829532623291 -0.736491739749908447 0.552613914012908936
0.0830166339874267578 -1.54191863536834717 0.392206817865371704
-1.2716372013092041 -1.33847665786743164 0.427449226379394531
-1.36485719680786133 -1.47266519069671631 0.479624927043914795
-0.815085709095001221 -1.10360848903656006 0.425010383129119873
-0.131394386291503906 -1.11129570007324219 0.453497529029846191
0.358998298645019531 0.360939502716064453 0.4289226233959198
-0.798967242240905762 -1.51242077350616455 0.549454271793365479
0.0405019521713256836 0.608023881912231445 0.445323079824447632
0.89989393949508667 0.876971721649169922 0.493023216724395752
0.0765631496906280518 1.32871723175048828 0.480074226856231689
-0.790040910243988037 -1.57105660438537598 0.506160974502563477
0.227506518363952637 0.341631710529327393 0.462238430976867676
-1.37252140045166016 -1.48682129383087158 0.490258574485778809
-0.679447412490844727 -0.453567922115325928 0.50736624002456665
0.553226232528686523 0.779675960540771484 0.466150879859924316
-1.16704416275024414 -1.51279449462890625 0.524014472961425781
-0.345026969909667969 -1.04279053211212158 0.469481885433197021
-0.165591716766357422 0.552018165588378906 0.428261041641235352
-0.906231105327606201 -0.990644514560699463 0.415734261274337769
0.0596522092819213867 1.2008521556854248 0.462827682495117188
0.405644714832305908 1.20267367362976074 0.466296494007110596
-0.170982241630554199 -0.99004518985748291 0.403123021125793457
0.860136866569519043 1.19099664688110352 0.530191898345947266
-0.243772149085998535 0.45139920711517334 0.428931176662445068
0.641342878341674805 0.492944240570068359 0.37066119909286499
-0.0660274028778076172 -1.16820394992828369 0.427999317646026611
-0.286623239517211914 -1.23234796524047852 0.417118430137634277
-0.00641500949859619141 0.698785185813903809 0.419054090976715088
-0.102865815162658691 0.72407829761505127 0.459796130657196045
-0.0402476489543914795 0.952018499374389648 0.443258225917816162
-0.157960176467895508 -0.869512319564819336 0.396891236305236816
0.302590727806091309 0.416778445243835449 0.42855912446975708
-0.548516452312469482 -1.13979780673980713 0.494008719921112061
-0.176038622856140137 -0.356300145387649536 0.452069103717803955
0.372499227523803711 0.379633188247680664 0.528517425060272217
-1.21600222587585449 -1.33792567253112793 0.399141430854797363
-0.153878927230834961 0.417655467987060547 0.469912022352218628
0.256880760192871094 -1.28791332244873047 0.416836023330688477
0.311021625995635986 1.02089142799377441 0.485547244548797607
-0.91144794225692749 -1.73908662796020508 0.550357818603515625
-0.0424807071685791016 0.301304340362548828 0.470753580331802368
-0.931133449077606201 -0.995350956916809082 0.389181762933731079
-0.312491178512573242 -0.965073466300964355 0.47996973991394043
-0.0119179785251617432 1.04838693141937256 0.478559762239456177
-0.940769433975219727 -1.02113723754882812 0.447627753019332886
-0.606975436210632324 -1.03466916084289551 0.437917351722717285
-0.150027990341186523 -0.913993716239929199 0.39325985312461853
-1.16821277141571045 -1.22988295555114746 0.399836301803588867
-0.211522102355957031 0.800490975379943848 0.51522982120513916
-0.117069274187088013 0.986746132373809814 0.460054159164428711
-1.15544188022613525 -1.50751876831054688 0.416540324687957764
-0.690138518810272217 -1.00085484981536865 0.456292331218719482
-1.31932318210601807 -1.47789943218231201 0.506671309471130371
-1.15263068675994873 -1.22106516361236572 0.402665436267852783
0.044015049934387207 0.652801275253295898 0.486573338508605957
0.183070898056030273 -1.34089422225952148 0.446550071239471436
-0.705173969268798828 -0.401927977800369263 0.42918163537979126
-1.14180386066436768 -1.33842122554779053 0.392184168100357056
0.378201603889465332 0.365300297737121582 0.465003460645675659
0.104347489774227142 1.03833436965942383 0.448347717523574829
