ply
format ascii 1.0
element vertex 256
comment vertices
property float x
property float y
property float z
end_header
0.78660738468170166 -0.881471157073974609 0.438662022352218628
-0.335748791694641113 0.447841405868530273 0.478136301040649414
-0.686173915863037109 -1.45178461074829102 0.393059909343719482
0.264213502407073975 1.83877301216125488 0.398330599069595337
-0.183863803744316101 0.707949697971343994 0.421935915946960449
-0.525606632232666016 -1.85789144039154053 0.412886649370193481
0.277156025171279907 -1.24013996124267578 0.478471755981445312
-0.308315664529800415 1.87654757499694824 0.480652570724487305
-0.751028478145599365 -1.07006978988647461 0.460280001163482666
0.827205479145050049 -1.83180677890777588 0.563786804676055908
-0.0551838874816894531 0.864810466766357422 0.522435307502746582
0.348686099052429199 -0.979341506958007812 0.42260444164276123
-0.248719841241836548 1.97172725200653076 0.394560933113098145
0.49249565601348877 -1.12364184856414795 0.473641753196716309
0.161014720797538757 1.87945294380187988 0.505071163177490234
-0.414145350456237793 -0.484374880790710449 0.428251564502716064
0.451147675514221191 -1.22623682022094727 0.572877466678619385
-0.364084362983703613 2.04160261154174805 0.437365412712097168
1.32198965549468994 -1.47427403926849365 0.608853816986083984
-0.643335163593292236 -1.92436695098876953 0.385727643966674805
-0.601130425930023193 -1.8247067928314209 0.376276969909667969
-0.1985197514295578 1.90408360958099365 0.401262015104293823
0.365556061267852783 -0.852222919464111328 0.421607375144958496
-0.316900253295898438 0.436831951141357422 0.393984317779541016
-0.0315496921539306641 1.67573606967926025 0.417864382266998291
-0.00067666172981262207 1.87405014038085938 0.530582785606384277
-0.937500357627868652 -1.13644194602966309 0.382889747619628906
-0.630088210105895996 2.04895973205566406 0.430181503295898438
0.390590667724609375 -1.23208940029144287 0.480219036340713501
0.34994351863861084 -0.94477921724319458 0.425221443176269531
0.30308157205581665 -0.969808757305145264 0.388487935066223145
-0.596927881240844727 -1.88756442070007324 0.389692604541778564
0.526244997978210449 -1.44628870487213135 0.456417590379714966
-0.312524884939193726 1.91620802879333496 0.422529011964797974
0.335542529821395874 -1.0061410665512085 0.371268749237060547
0.798922538757324219 -1.70133709907531738 0.555352568626403809
-0.32540053129196167 1.94542872905731201 0.419471323490142822
-0.0401468276977539062 0.497856616973876953 0.428664088249206543
0.173222512006759644 1.93155539035797119 0.431050390005111694
1.15036284923553467 -1.49158704280853271 0.616355359554290771
-0.180724054574966431 1.89609444141387939 0.427199035882949829
-0.600848495960235596 -1.87919414043426514 0.395878493785858154
1.02608895301818848 -1.17641305923461914 0.413955837488174438
-0.206990480422973633 -0.097534477710723877 0.458911985158920288
0.597216010093688965 -0.967380762100219727 0.441935300827026367
0.17615857720375061 1.95735728740692139 0.400875985622406006
0.4652099609375 -1.27612435817718506 0.515350580215454102
-0.300664722919464111 -0.531186699867248535 0.393236070871353149
-0.577101826667785645 -1.82998824119567871 0.399238646030426025
-0.396697044372558594 -1.68139314651489258 0.394721031188964844
1.2919163703918457 -1.39084434509277344 0.484359413385391235
-0.574161291122436523 -1.7821272611618042 0.307192504405975342
-0.131749778985977173 1.9614485502243042 0.432594835758209229
-0.0298616290092468262 1.68152165412902832 0.453485667705535889
0.290208816528320312 -1.06783628463745117 0.432273954153060913
0.714047253131866455 -1.38304030895233154 0.441561490297317505
-0.259569048881530762 -0.730785250663757324 0.496798276901245117
0.233904868364334106 1.89542508125305176 0.490506529808044434
-0.21309816837310791 -0.905045509338378906 0.453202098608016968
0.398018300533294678 -1.07686972618103027 0.399719715118408203
0.298847943544387817 -0.964981734752655029 0.375310182571411133
0.0185674428939819336 0.603516638278961182 0.506740868091583252
-0.648080229759216309 -1.6564784049987793 0.385169804096221924
0.104710698127746582 1.64815223217010498 0.477304220199584961
0.523311376571655273 -1.42635238170623779 0.485743045806884766
0.338163197040557861 -1.1076042652130127 0.386993497610092163
-0.54557955265045166 2.02680778503417969 0.419195324182510376
1.01183688640594482 -1.54372894763946533 0.540261745452880859
0.341006606817245483 -0.932472944259643555 0.392159819602966309
0.308072328567504883 1.56318271160125732 0.465908169746398926
-0.107874870300292969 0.286114096641540527 0.378917485475540161
-0.55365443229675293 0.0428340286016464233 0.454406380653381348
0.398690640926361084 -1.20795702934265137 0.449017226696014404
-0.151459932327270508 1.90728127956390381 0.423959612846374512
0.175042569637298584 1.87804007530212402 0.458685964345932007
-0.61159050464630127 -1.94968342781066895 0.403705000877380371
-0.58169102668762207 -2.0006251335144043 0.358191728591918945
0.0904902815818786621 1.815238356590271 0.426594853401184082
-0.279924839735031128 1.89006209373474121 0.415444374084472656
0.604116678237915039 -1.35448670387268066 0.602959513664245605
0.226883530616760254 1.98590755462646484 0.334971398115158081
-0.22116146981716156 1.9608389139175415 0.409537166357040405
-0.288573682308197021 1.89513313770294189 0.442076712846755981
0.404497087001800537 -1.0890967845916748 0.450698435306549072
1.4217991828918457 -1.41050195693969727 0.480941712856292725
-0.236045598983764648 1.86489236354827881 0.468818455934524536
0.132916569709777832 1.72115921974182129 0.479633063077926636
0.99278414249420166 -1.35255670547485352 0.530061185359954834
0.426209181547164917 -0.818000078201293945 0.471573978662490845
-0.339612603187561035 2.01151823997497559 0.434956133365631104
-0.105039715766906738 0.294713854789733887 0.501466751098632812
0.820552289485931396 -1.73362827301025391 0.525748491287231445
0.329270839691162109 -0.910252928733825684 0.417438745498657227
0.345507383346557617 -1.33549773693084717 0.619108617305755615
-0.159774899482727051 0.214168787002563477 0.494742542505264282
-0.135202467441558838 1.81965410709381104 0.434297919273376465
0.324117273092269897 -0.96154475212097168 0.419898867607116699
0.161333680152893066 -1.2939683198928833 0.466734081506729126
1.22528362274169922 -1.39473986625671387 0.643201828002929688
1.11430609226226807 -1.44969463348388672 0.50037074089050293
1.06783819198608398 -1.6256479024887085 0.641838312149047852
0.905379593372344971 -0.932233333587646484 0.45906597375869751
-0.493828326463699341 -1.71429812908172607 0.406826019287109375
0.551413536071777344 -0.967378973960876465 0.437423944473266602
0.42788541316986084 -1.17647993564605713 0.508002161979675293
-0.632358253002166748 -1.92703509330749512 0.417512476444244385
-0.206927448511123657 1.89845061302185059 0.451852738857269287
-0.613987743854522705 -1.82529592514038086 0.284855037927627563
0.722771108150482178 -1.1893155574798584 0.564153134822845459
0.174917176365852356 1.87703800201416016 0.404073506593704224
-0.628114044666290283 -1.95046544075012207 0.355063498020172119
-0.552301883697509766 -0.832770705223083496 0.479805707931518555
0.286844968795776367 1.58729767799377441 0.462939560413360596
-0.354095935821533203 2.02774381637573242 0.43114897608757019
-0.522265851497650146 -1.36686944961547852 0.413015782833099365
0.435407698154449463 -1.39300262928009033 0.472237706184387207
-0.619242668151855469 -1.87984776496887207 0.387539386749267578
0.0611284077167510986 1.86669909954071045 0.462099194526672363
0.272468924522399902 1.57888102531433105 0.494810819625854492
0.122210539877414703 1.83860301971435547 0.493431419134140015
0.117562748491764069 1.83271849155426025 0.510885238647460938
-0.134636640548706055 1.92735147476196289 0.442464351654052734
-0.609081506729125977 -1.91073191165924072 0.356213510036468506
0.0762130469083786011 1.9344937801361084 0.467655211687088013
-0.307951927185058594 1.97301018238067627 0.405865848064422607
-0.00860738754272460938 1.65253019332885742 0.449901968240737915
-0.438409417867660522 -1.82959437370300293 0.367026925086975098
-0.0253328382968902588 1.70644819736480713 0.460729360580444336
0.50865626335144043 -1.33977687358856201 0.502451539039611816
-0.560382306575775146 -1.87139439582824707 0.329687118530273438
0.273299157619476318 -1.00443077087402344 0.391925126314163208
-0.332018733024597168 -0.922814786434173584 0.468317955732345581
-0.291283369064331055 -0.121807217597961426 0.376425951719284058
0.32696947455406189 -1.03892731666564941 0.400293856859207153
0.891070425510406494 -0.869223356246948242 0.44507184624671936
-0.589958429336547852 -1.89051628112792969 0.405469834804534912
0.378179371356964111 -1.03372776508331299 0.421175211668014526
0.472942590713500977 -1.39793050289154053 0.451785832643508911
0.365939795970916748 -0.943516731262207031 0.396866679191589355
0.291223615407943726 -0.959079444408416748 0.371194899082183838
-0.746820271015167236 2.18939781188964844 0.446359932422637939
-0.476989537477493286 -1.85333704948425293 0.429993987083435059
0.292963951826095581 -1.07326722145080566 0.4511890709400177
-0.522753715515136719 -0.353364527225494385 0.391602158546447754
0.311148017644882202 -1.05732858180999756 0.465946465730667114
-0.295067280530929565 1.98217248916625977 0.422816336154937744
1.03846573829650879 -1.43548738956451416 0.54012066125869751
0.000516772270202636719 0.373825132846832275 0.476547300815582275
-0.516424655914306641 2.29555439949035645 0.417587012052536011
0.28113555908203125 1.78795766830444336 0.459425747394561768
-0.445045381784439087 2.13094758987426758 0.438200533390045166
0.302767515182495117 -0.928629755973815918 0.39620363712310791
0.669664502143859863 -1.07791686058044434 0.413590580224990845
0.265881329774856567 -0.956446290016174316 0.389094382524490356
-0.733646273612976074 -1.42643928527832031 0.397836625576019287
0.0550975799560546875 0.359930872917175293 0.496900737285614014
-1.16302394866943359 -1.51891565322875977 0.45904994010925293
1.17929971218109131 -1.39294576644897461 0.523274064064025879
1.32654285430908203 -1.41159534454345703 0.51130366325378418
0.223182052373886108 1.89606249332427979 0.422028481960296631
0.343591421842575073 -1.07998991012573242 0.376033365726470947
0.923414170742034912 -1.50829803943634033 0.532889902591705322
-0.126198649406433105 0.75760805606842041 0.450134694576263428
0.161763623356819153 1.89660286903381348 0.399251103401184082
0.0605291128158569336 0.27880859375 0.469202041625976562
-0.242952793836593628 1.89514303207397461 0.473205268383026123
0.282636940479278564 -0.990624547004699707 0.368596971035003662
0.371859699487686157 -0.942910552024841309 0.411294072866439819
-0.412131428718566895 -1.86866188049316406 0.382360011339187622
1.08431971073150635 -1.40418660640716553 0.614522576332092285
0.189153671264648438 1.87362051010131836 0.493305742740631104
-0.272481411695480347 1.87288665771484375 0.449516594409942627
-0.673146843910217285 -0.173358991742134094 0.460445255041122437
-0.392789304256439209 -1.44235730171203613 0.428442209959030151
0.765383124351501465 -1.77092957496643066 0.469030052423477173
-0.272362411022186279 2.01780939102172852 0.397591948509216309
0.0914359092712402344 2.14700961112976074 0.411234855651855469
0.206396222114562988 1.95890474319458008 0.369161695241928101
0.951630711555480957 -1.47957003116607666 0.582236170768737793
0.464086651802062988 -1.46208298206329346 0.479970097541809082
-0.195055469870567322 1.85623157024383545 0.377056300640106201
1.03928768634796143 -1.42859089374542236 0.627445816993713379
-0.00691652297973632812 2.02293825149536133 0.480612456798553467
-0.317181944847106934 0.950821042060852051 0.481179684400558472
-0.258505463600158691 1.9101945161819458 0.423685163259506226
0.387641787528991699 -0.892701268196105957 0.488609582185745239
-0.27809220552444458 1.90307831764221191 0.472131788730621338
-0.0214530825614929199 1.71353888511657715 0.494980007410049438
-0.360315501689910889 -0.833612322807312012 0.442940592765808105
-0.298672199249267578 0.349471688270568848 0.466471970081329346
-0.584399640560150146 -1.898276686668396 0.389333844184875488
0.364045679569244385 -1.17473649978637695 0.443512320518493652
0.804149329662322998 -1.54987466335296631 0.545955181121826172
0.0992485284805297852 0.494168281555175781 0.502494573593139648
-0.279632270336151123 1.94945323467254639 0.42180168628692627
0.0564317703247070312 0.298647284507751465 0.447575569152832031
0.467179417610168457 -1.29038596153259277 0.52359539270401001
0.739560425281524658 -1.30871033668518066 0.487156659364700317
1.08356034755706787 -1.59500229358673096 0.538657844066619873
-0.496334254741668701 -1.77736210823059082 0.404696822166442871
0.0436503887176513672 1.78874111175537109 0.525757670402526855
0.887975573539733887 -1.45775151252746582 0.546001613140106201
-0.267425030469894409 1.91803288459777832 0.414330333471298218
-0.296374022960662842 1.90093898773193359 0.428127467632293701
0.0404614359140396118 1.92479813098907471 0.424214035272598267
0.72614055871963501 -1.04166066646575928 0.465614497661590576
-0.416018664836883545 -0.302184343338012695 0.420754700899124146
0.392519176006317139 -1.13992881774902344 0.500611782073974609
1.28353440761566162 -1.4220353364944458 0.513433635234832764
-0.171381384134292603 1.88012492656707764 0.439529061317443848
0.876494109630584717 -0.993209481239318848 0.428033441305160522
-0.592515945434570312 -1.86140131950378418 0.406449615955352783
0.326822280883789062 -0.986259877681732178 0.373238056898117065
0.265168368816375732 -1.11890971660614014 0.46327248215675354
1.0809028148651123 -1.38079071044921875 0.508093178272247314
0.110416807234287262 1.85736453533172607 0.484586536884307861
0.202607095241546631 1.88141679763793945 0.396807223558425903
0.127617478370666504 1.85684800148010254 0.439984917640686035
-0.650362968444824219 2.12633156776428223 0.39960324764251709
1.26929855346679688 -1.65957117080688477 0.560695767402648926
-0.041070103645324707 1.5453639030456543 0.442136377096176147
0.195999860763549805 1.58002054691314697 0.461625218391418457
-0.23814430832862854 1.93003416061401367 0.421727508306503296
0.744439601898193359 -0.840880155563354492 0.450451195240020752
0.313034296035766602 -0.973488092422485352 0.404615461826324463
-0.496504545211791992 -1.76742970943450928 0.327011406421661377
-0.277994066476821899 1.92431855201721191 0.423655271530151367
0.291864991188049316 -0.997931480407714844 0.391402095556259155
-0.394802510738372803 -0.918301522731781006 0.433827966451644897
-0.0391144752502441406 -0.14879000186920166 0.404439032077789307
-0.17049562931060791 -0.00566959381103515625 0.410625487565994263
0.821647763252258301 -1.51772093772888184 0.552969932556152344
-0.251002013683319092 1.86965978145599365 0.457869291305541992
-0.603954493999481201 -1.94806134700775146 0.379627048969268799
-0.258236140012741089 1.93073248863220215 0.429165542125701904
-0.11405181884765625 0.241984009742736816 0.506457865238189697
-0.102807998657226562 0.662897288799285889 0.474579095840454102
0.827148675918579102 -1.33422434329986572 0.527806580066680908
-0.501229524612426758 2.17851734161376953 0.382810324430465698
1.32305347919464111 -1.47622489929199219 0.634839475154876709
0.489186882972717285 -1.17653322219848633 0.498211085796356201
0.557368993759155273 -1.35715925693511963 0.476902246475219727
1.1385270357131958 -1.53449356555938721 0.6418265700340271
-0.0861784219741821289 0.45694732666015625 0.51049339771270752
-0.695871949195861816 2.2100372314453125 0.447130799293518066
1.07807183265686035 -1.46913421154022217 0.521732509136199951
-0.132219567894935608 1.95555472373962402 0.416847288608551025
0.29638710618019104 -0.977839291095733643 0.432788372039794922
0.50830078125 -0.873859524726867676 0.476109713315963745
-0.803763806819915771 -1.14290785789489746 0.462666898965835571
-0.276713192462921143 1.98472189903259277 0.389837592840194702
0.389011383056640625 -1.0043025016784668 0.429499566555023193
0.336379408836364746 -0.949596285820007324 0.397640615701675415
0.473941206932067871 -1.27221786975860596 0.53631746768951416
0.881422281265258789 -0.993505120277404785 0.466430872678756714
0.170365884900093079 1.90750515460968018 0.459736227989196777
