ply
format ascii 1.0
element vertex 123
comment vertices
property float x
property float y
property float z
end_header
0.732548654079437256 -0.564250528812408447 0.3065815269947052
2.46095418930053711 1.80920469760894775 0.23812413215637207
0.190812021493911743 -1.01362800598144531 0.203645989298820496
0.458848834037780762 -0.660487771034240723 0.236893758177757263
2.44887447357177734 1.82520842552185059 0.247757762670516968
0.433309614658355713 -1.61473751068115234 0.0547264218330383301
0.452463120222091675 -0.629289090633392334 0.211688697338104248
0.973879218101501465 0.189812272787094116 0.371733784675598145
0.342111408710479736 -1.18002963066101074 0.124910295009613037
-0.0345554947853088379 -0.580466806888580322 0.398284077644348145
2.45806360244750977 1.81272399425506592 0.241698339581489563
2.45687294006347656 1.81214749813079834 0.239703193306922913
-1.05317521095275879 -1.66118836402893066 0.0438835322856903076
0.628091752529144287 -0.557851672172546387 0.302940577268600464
2.45796680450439453 1.80828440189361572 0.240863978862762451
0.242510601878166199 -1.00098633766174316 0.172137528657913208
1.00043642520904541 0.188823878765106201 0.367003858089447021
0.987031340599060059 0.190101921558380127 0.375409066677093506
0.336987227201461792 -1.53006649017333984 0.0859625488519668579
0.600626289844512939 -1.76877844333648682 0.0184206068515777588
0.705220937728881836 -0.548542380332946777 0.337996542453765869
0.972365856170654297 0.171676471829414368 0.378818511962890625
0.206762731075286865 -1.01705026626586914 0.199056074023246765
2.4521183967590332 1.80719470977783203 0.239145621657371521
0.492378592491149902 -1.7288440465927124 0.0277710258960723877
2.42063188552856445 1.800956130027771 0.259039789438247681
2.46043133735656738 1.81044960021972656 0.240191936492919922
2.45300722122192383 1.80966484546661377 0.240413576364517212
2.45217204093933105 1.8302154541015625 0.244418665766716003
2.44974994659423828 1.80444276332855225 0.236565679311752319
2.4447472095489502 1.81656110286712646 0.241901636123657227
0.743138492107391357 -0.534834086894989014 0.324636697769165039
0.986410319805145264 0.220831602811813354 0.375441074371337891
0.28131943941116333 -0.916571855545043945 0.272166073322296143
0.735758543014526367 -0.531438350677490234 0.303216338157653809
0.281259775161743164 -1.35064411163330078 0.09721335768699646
-1.05746066570281982 -1.6500697135925293 0.0488140285015106201
0.185513660311698914 -1.02714741230010986 0.20374712347984314
0.230970591306686401 -1.17009735107421875 0.130282029509544373
1.99212396144866943 0.591172575950622559 0.0627292990684509277
0.158493578433990479 -1.0211484432220459 0.202506214380264282
0.97431635856628418 0.193305313587188721 0.371014982461929321
0.184454023838043213 -1.10448980331420898 0.130726426839828491
0.373813331127166748 -0.720840036869049072 0.269693195819854736
0.994013667106628418 0.203681111335754395 0.370563685894012451
0.724352121353149414 -0.510872244834899902 0.320019900798797607
0.163577750325202942 -0.998166084289550781 0.198325425386428833
0.409621685743331909 -0.674984931945800781 0.234665453433990479
2.45288753509521484 1.83036446571350098 0.240205168724060059
0.725672483444213867 -0.546954512596130371 0.339602917432785034
0.407369613647460938 -0.7175864577293396 0.238389521837234497
-1.05439746379852295 -1.65282845497131348 0.0440546572208404541
2.46452140808105469 1.81719911098480225 0.2382955402135849
0.197226554155349731 -1.01481986045837402 0.19501890242099762
-1.08410787582397461 -1.70183825492858887 0.0193679928779602051
2.45392727851867676 1.83018851280212402 0.239468082785606384
0.176857680082321167 -1.01703965663909912 0.189130157232284546
2.45139002799987793 1.82150852680206299 0.241183698177337646
0.451670616865158081 -0.669311344623565674 0.232238709926605225
2.45861220359802246 1.8128591775894165 0.24101218581199646
-0.283956140279769897 -0.762188374996185303 0.466012477874755859
0.257669687271118164 -0.996020257472991943 0.205134123563766479
2.44811701774597168 1.80174291133880615 0.237126290798187256
0.416555166244506836 -1.56546688079833984 0.0641140639781951904
2.44790482521057129 1.82597196102142334 0.242413952946662903
2.45904326438903809 1.809326171875 0.238559603691101074
2.4458467960357666 1.82684040069580078 0.245221778750419617
0.981800734996795654 0.228876560926437378 0.364725112915039062
0.994100332260131836 0.186623439192771912 0.364361733198165894
2.44783639907836914 1.82833456993103027 0.245592266321182251
2.44845247268676758 1.80066764354705811 0.236418113112449646
2.45846652984619141 1.8286747932434082 0.247898370027542114
1.00119912624359131 0.189870774745941162 0.366023749113082886
0.677804768085479736 -0.424491256475448608 0.389782518148422241
0.192422777414321899 -1.14706969261169434 0.144583195447921753
1.0214618444442749 0.214638650417327881 0.378327608108520508
2.45997357368469238 1.81172549724578857 0.241705983877182007
0.627289175987243652 -0.523568153381347656 0.273302018642425537
-1.06713199615478516 -1.6809380054473877 0.047801971435546875
2.4567868709564209 1.81695044040679932 0.239715054631233215
0.722117304801940918 -0.551380336284637451 0.326789945363998413
2.45553302764892578 1.81091475486755371 0.240108639001846313
2.46016740798950195 1.80846869945526123 0.240618199110031128
0.547943353652954102 -1.91769993305206299 0.0649603754281997681
0.433472931385040283 -1.61768412590026855 0.0572703182697296143
0.539984226226806641 -0.581435799598693848 0.260345011949539185
0.206611201167106628 -1.02284622192382812 0.167701646685600281
0.162562459707260132 -1.01575803756713867 0.130660250782966614
0.200676903128623962 -1.01551449298858643 0.194754868745803833
0.340539246797561646 -1.42566967010498047 0.0883311331272125244
2.44830846786499023 1.82341670989990234 0.241267815232276917
0.933594942092895508 0.0753268599510192871 0.340919554233551025
0.458516716957092285 -1.60977029800415039 0.0581302642822265625
0.404370129108428955 -0.711410820484161377 0.265148162841796875
0.169982597231864929 -1.0079953670501709 0.198959112167358398
0.639945924282073975 -0.52761077880859375 0.263279497623443604
0.190074026584625244 -1.01709222793579102 0.134267926216125488
0.265584647655487061 -0.939709067344665527 0.257708102464675903
0.754460811614990234 -0.537572979927062988 0.310245811939239502
0.406425833702087402 -1.55938112735748291 0.0675705373287200928
0.142284214496612549 -1.0249946117401123 0.156617105007171631
0.187458515167236328 -1.02186810970306396 0.203898996114730835
0.426432907581329346 -0.7171783447265625 0.275572299957275391
0.729729413986206055 -0.536259889602661133 0.308915972709655762
0.978093564510345459 0.209120035171508789 0.36624830961227417
0.187759608030319214 -1.00047481060028076 0.195332527160644531
0.999171733856201172 0.210905209183692932 0.353056013584136963
2.45128512382507324 1.83083975315093994 0.240223169326782227
0.726663887500762939 -0.569572389125823975 0.30034172534942627
0.346019446849822998 -1.50435733795166016 0.0998855382204055786
0.981853663921356201 0.223834991455078125 0.366825878620147705
0.176760882139205933 -1.01437222957611084 0.203835874795913696
0.193881526589393616 -1.01674759387969971 0.16586710512638092
0.21555599570274353 -1.19171655178070068 0.129919916391372681
2.45617556571960449 1.81155633926391602 0.237269014120101929
-2.13107800483703613 -1.81261181831359863 0.379635870456695557
2.44682478904724121 1.827414870262146 0.245436400175094604
0.976656675338745117 0.194021180272102356 0.368785381317138672
0.739163041114807129 -0.542166948318481445 0.314069926738739014
2.44795680046081543 1.82339668273925781 0.242198050022125244
2.45992588996887207 1.808097243309021 0.241103082895278931
0.898776650428771973 0.186577767133712769 0.41566932201385498
0.829752624034881592 -0.529768228530883789 0.306149184703826904
