ply
format ascii 1.0
element vertex 168
comment vertices
property float x
property float y
property float z
end_header
0.609978377819061279 0.811247348785400391 0.243868321180343628
0.117231979966163635 -0.963016152381896973 0.0736196935176849365
-0.408507406711578369 -0.990081548690795898 0.0673913955688476562
-1.0084158182144165 -1.62604916095733643 0.0429994761943817139
0.264702379703521729 -0.924437522888183594 0.106319189071655273
0.618731200695037842 0.853457629680633545 0.185904085636138916
0.384074270725250244 1.95898318290710449 0.121782779693603516
0.598397791385650635 0.831479370594024658 0.193795204162597656
0.0902632772922515869 -1.97131156921386719 0.280596911907196045
-0.741818428039550781 0.519353747367858887 0.0260655581951141357
-0.0544916987419128418 -1.75779402256011963 0.207609444856643677
1.28192150592803955 -1.66811943054199219 0.460114866495132446
0.604035556316375732 0.843278765678405762 0.193950414657592773
-0.910449028015136719 -1.75207805633544922 0.0302347838878631592
0.621439993381500244 0.84531700611114502 0.181137293577194214
-0.830089211463928223 -1.12460172176361084 0.00430783629417419434
0.622225582599639893 0.836456358432769775 0.211895942687988281
0.578348338603973389 2.01099300384521484 0.116305828094482422
0.585822880268096924 0.822201788425445557 0.199518248438835144
0.0620552748441696167 -0.904710173606872559 0.0498904883861541748
-0.104888811707496643 -1.91319668292999268 0.163397639989852905
-0.408456414937973022 -0.864641547203063965 0.0864584147930145264
0.614500641822814941 0.839737832546234131 0.191155537962913513
1.14700913429260254 -1.42619431018829346 0.405090808868408203
-0.990150332450866699 -1.59131085872650146 0.0194594860076904297
0.455241501331329346 2.15228986740112305 0.0634714961051940918
0.614882230758666992 0.830545663833618164 0.193598240613937378
-0.686503291130065918 0.585861384868621826 0.0152506232261657715
0.609967172145843506 0.846998751163482666 0.194357872009277344
-0.662452161312103271 -1.55466163158416748 0.0999005436897277832
-1.23219776153564453 -1.69198024272918701 0.0843771100044250488
1.31145286560058594 -1.55021083354949951 0.493013709783554077
0.62247765064239502 0.836987316608428955 0.192652702331542969
0.473067551851272583 2.00218677520751953 0.112395793199539185
-0.675916910171508789 0.78059309720993042 -0.00596201419830322266
-1.18732273578643799 -1.62927031517028809 0.112454682588577271
-0.293941199779510498 -1.57384026050567627 0.155999094247817993
0.607892334461212158 0.835367441177368164 0.191900312900543213
-0.204618692398071289 -0.89132004976272583 0.0483844578266143799
0.630869388580322266 0.793570518493652344 0.234646409749984741
0.62124943733215332 2.03568124771118164 0.133946895599365234
0.558390974998474121 0.860902190208435059 0.166141703724861145
0.613624215126037598 0.837330937385559082 0.188841313123703003
0.587431073188781738 0.586719512939453125 0.198325902223587036
1.13740122318267822 -1.42532062530517578 0.412625283002853394
1.16276884078979492 -1.4443976879119873 0.422269344329833984
0.646474778652191162 0.835536062717437744 0.201007932424545288
0.0164488852024078369 -1.93564355373382568 0.211548119783401489
1.34079515933990479 -1.66663956642150879 0.43583911657333374
0.452481567859649658 1.97249948978424072 0.0845275223255157471
0.0714379549026489258 -0.935425817966461182 0.16547742486000061
-1.17382848262786865 -1.65168952941894531 0.0923302769660949707
0.628173828125 0.825375199317932129 0.211334943771362305
-0.45626986026763916 -0.906656384468078613 0.0827084779739379883
0.617026329040527344 0.838889062404632568 0.188031375408172607
-0.489539921283721924 -0.910290241241455078 0.0622181594371795654
0.781228899955749512 -1.23200118541717529 0.335559338331222534
0.618446409702301025 0.838756263256072998 0.198740124702453613
0.415889322757720947 2.01776695251464844 0.132351994514465332
-1.01340305805206299 -1.62387537956237793 0.0257214605808258057
0.627954721450805664 0.818914949893951416 0.204839706420898438
-0.000774465501308441162 -1.89629995822906494 0.243226185441017151
0.586867451667785645 0.584849715232849121 0.233458846807479858
0.609228193759918213 0.840355515480041504 0.189986526966094971
-0.442360609769821167 -0.948621630668640137 0.0710907578468322754
0.263990581035614014 -0.908703267574310303 0.119059890508651733
-0.238301634788513184 -1.95610213279724121 0.184424281120300293
0.600613117218017578 0.832319736480712891 0.189121633768081665
1.31814134120941162 -1.55317223072052002 0.436290889978408813
-1.18536663055419922 -1.62744808197021484 0.089015275239944458
0.400679498910903931 1.55679190158843994 0.189899653196334839
0.357405006885528564 2.01642298698425293 0.0569947659969329834
-0.0517509579658508301 -1.18733525276184082 0.134640514850616455
0.09475688636302948 -2.00331354141235352 0.29037630558013916
0.441798031330108643 2.00628542900085449 0.11874726414680481
0.138262391090393066 -2.00020265579223633 0.280471682548522949
0.618528068065643311 0.813943862915039062 0.180783629417419434
0.622770428657531738 0.832377493381500244 0.210710123181343079
0.572495460510253906 0.842128157615661621 0.184151217341423035
0.645325899124145508 0.815538406372070312 0.187696114182472229
1.17134404182434082 -1.44471371173858643 0.428147584199905396
0.604759037494659424 0.828093886375427246 0.192166924476623535
0.622109174728393555 0.837742924690246582 0.183908641338348389
0.461303174495697021 1.98858940601348877 0.114887923002243042
0.622382879257202148 0.822977602481842041 0.17745557427406311
0.199488580226898193 -1.96209752559661865 0.275372207164764404
0.591954946517944336 0.821601569652557373 0.219185590744018555
0.398358732461929321 0.614427149295806885 0.309972882270812988
-0.967419207096099854 -1.72301661968231201 0.098205864429473877
0.526886820793151855 -0.879391312599182129 0.195939719676971436
0.00916738808155059814 -0.991159439086914062 0.120863020420074463
0.564774632453918457 0.815014779567718506 0.183028936386108398
0.603726387023925781 0.838462948799133301 0.198173612356185913
0.238541603088378906 -0.907527387142181396 0.139589250087738037
-0.833866417407989502 0.681554913520812988 0.110414117574691772
0.630450427532196045 0.839731693267822266 0.201325163245201111
0.621100664138793945 0.838233828544616699 0.189620450139045715
-1.2155911922454834 -1.68590712547302246 0.0992016196250915527
0.197446748614311218 -0.899745821952819824 0.108526021242141724
0.701755285263061523 0.677773594856262207 0.282265841960906982
0.611074745655059814 0.838562130928039551 0.187431484460830688
0.619125127792358398 0.843676149845123291 0.184337630867958069
0.140856966376304626 -1.76319003105163574 0.233955115079879761
0.529956698417663574 1.10807120800018311 0.165439575910568237
1.29402458667755127 -1.5916900634765625 0.46244734525680542
0.399804264307022095 1.95275318622589111 0.0918829441070556641
0.41839599609375 1.91098153591156006 0.13675844669342041
0.59929502010345459 0.826986789703369141 0.293281316757202148
-1.18153798580169678 -1.64288878440856934 0.0808368921279907227
-0.716243565082550049 0.855989754199981689 0.0500844717025756836
-0.208036884665489197 -1.93206644058227539 0.0609119832515716553
-0.417600691318511963 1.07940030097961426 0.0732603073120117188
0.612914085388183594 0.840042769908905029 0.187490716576576233
0.46380886435508728 1.99043381214141846 0.134336143732070923
0.630737721920013428 0.815410196781158447 0.181781738996505737
0.511455178260803223 2.06867671012878418 0.134126424789428711
0.16744677722454071 -1.9865412712097168 0.271205514669418335
-0.306161791086196899 -0.988491535186767578 0.0613716542720794678
0.62321162223815918 0.836967825889587402 0.196123406291007996
-0.761342048645019531 0.830952167510986328 0.0475397408008575439
0.263611197471618652 -0.999635219573974609 0.191487580537796021
0.370883584022521973 -0.907928347587585449 0.101221024990081787
0.619844615459442139 0.840223073959350586 0.195544511079788208
-1.17532110214233398 -1.63636910915374756 0.084505617618560791
0.248274371027946472 -0.901978015899658203 0.13016355037689209
0.621980488300323486 0.838645339012145996 0.190944701433181763
0.538139820098876953 2.00149202346801758 0.125020265579223633
0.620437443256378174 0.835112631320953369 0.203521221876144409
0.605139017105102539 0.858562231063842773 0.176658391952514648
-0.450233817100524902 -1.89021122455596924 0.0834836661815643311
0.622760415077209473 0.830643534660339355 0.194375365972518921
0.617252707481384277 0.836603760719299316 0.185492053627967834
0.622594356536865234 0.737816452980041504 0.267497241497039795
0.618483781814575195 0.839078426361083984 0.186444967985153198
0.589528322219848633 0.829438447952270508 0.191491812467575073
0.276075243949890137 1.78639781475067139 0.0959964990615844727
0.367391437292098999 1.95866942405700684 0.117077559232711792
0.627282500267028809 0.831024885177612305 0.194965362548828125
-0.468089699745178223 -0.937440037727355957 0.0588909387588500977
0.0783090293407440186 -1.99116313457489014 0.240768790245056152
0.620938479900360107 0.848551690578460693 0.191619351506233215
0.614392995834350586 0.832410871982574463 0.19558301568031311
-0.30019223690032959 -1.0127255916595459 0.0714027285575866699
0.0361367166042327881 -2.00729823112487793 0.264429539442062378
1.26725971698760986 -1.45303046703338623 0.455451339483261108
-0.169302299618721008 -1.9421236515045166 0.175845056772232056
0.972393274307250977 -1.42473864555358887 0.389916181564331055
0.481766730546951294 1.47959792613983154 0.135455995798110962
1.1698603630065918 -1.43038773536682129 0.410393983125686646
0.656633257865905762 0.819087326526641846 0.207468748092651367
-0.0696049034595489502 -1.77230489253997803 0.116839826107025146
-1.16157352924346924 -1.63635766506195068 0.093893885612487793
0.627321898937225342 0.838839948177337646 0.202845931053161621
0.642231225967407227 0.820402622222900391 0.189451456069946289
0.609362423419952393 0.815066993236541748 0.195983037352561951
1.13690972328186035 -1.42726993560791016 0.415542364120483398
0.626646280288696289 0.824120998382568359 0.197295248508453369
0.173909172415733337 -0.940814971923828125 0.084742128849029541
-0.169399812817573547 -1.91042411327362061 0.146805316209793091
0.053655475378036499 -0.926499843597412109 0.173049390316009521
0.568396091461181641 0.853787779808044434 0.194298878312110901
0.435493409633636475 -0.825072050094604492 0.107279807329177856
-0.0556480884552001953 -1.47734153270721436 0.0978287160396575928
0.317726969718933105 1.76854062080383301 0.14568173885345459
0.275736600160598755 -0.90984034538269043 0.0956128537654876709
0.538394451141357422 0.825191497802734375 0.157114654779434204
0.616397738456726074 0.836389422416687012 0.185560435056686401
0.638483524322509766 0.819420576095581055 0.208177149295806885
