ply
format ascii 1.0
element vertex 73
comment vertices
property float x
property float y
property float z
end_header
-2.26568388938903809 -1.68438863754272461 0.435687661170959473
2.46095418930053711 1.80920469760894775 0.23812413215637207
0.190812021493911743 -1.01362800598144531 0.203645989298820496
2.44887447357177734 1.82520842552185059 0.247757762670516968
0.973879218101501465 0.189812272787094116 0.371733784675598145
2.45806360244750977 1.81272399425506592 0.241698339581489563
2.45687294006347656 1.81214749813079834 0.239703193306922913
2.45796680450439453 1.80828440189361572 0.240863978862762451
0.242510601878166199 -1.00098633766174316 0.172137528657913208
1.00043642520904541 0.188823878765106201 0.367003858089447021
0.987031340599060059 0.190101921558380127 0.375409066677093506
-2.29467248916625977 -1.87875640392303467 0.411084800958633423
0.972365856170654297 0.171676471829414368 0.378818511962890625
0.206762731075286865 -1.01705026626586914 0.199056074023246765
2.4521183967590332 1.80719470977783203 0.239145621657371521
2.46043133735656738 1.81044960021972656 0.240191936492919922
2.45300722122192383 1.80966484546661377 0.240413576364517212
2.45217204093933105 1.8302154541015625 0.244418665766716003
2.44974994659423828 1.80444276332855225 0.236565679311752319
2.4447472095489502 1.81656110286712646 0.241901636123657227
0.986410319805145264 0.220831602811813354 0.375441074371337891
0.185513660311698914 -1.02714741230010986 0.20374712347984314
-2.28353500366210938 -1.90904355049133301 0.424146890640258789
-2.26627326011657715 -1.83504831790924072 0.417431384325027466
0.97431635856628418 0.193305313587188721 0.371014982461929321
0.994013667106628418 0.203681111335754395 0.370563685894012451
-2.24559354782104492 -1.9026179313659668 0.426790297031402588
0.163577750325202942 -0.998166084289550781 0.198325425386428833
2.45288753509521484 1.83036446571350098 0.240205168724060059
-2.28726077079772949 -1.87794899940490723 0.423326969146728516
2.46452140808105469 1.81719911098480225 0.2382955402135849
0.197226554155349731 -1.01481986045837402 0.19501890242099762
2.45392727851867676 1.83018851280212402 0.239468082785606384
2.45139002799987793 1.82150852680206299 0.241183698177337646
2.45861220359802246 1.8128591775894165 0.24101218581199646
2.44811701774597168 1.80174291133880615 0.237126290798187256
2.44790482521057129 1.82597196102142334 0.242413952946662903
2.45904326438903809 1.809326171875 0.238559603691101074
2.4458467960357666 1.82684040069580078 0.245221778750419617
0.981800734996795654 0.228876560926437378 0.364725112915039062
0.994100332260131836 0.186623439192771912 0.364361733198165894
2.44783639907836914 1.82833456993103027 0.245592266321182251
2.44845247268676758 1.80066764354705811 0.236418113112449646
2.45846652984619141 1.8286747932434082 0.247898370027542114
1.00119912624359131 0.189870774745941162 0.366023749113082886
2.45997357368469238 1.81172549724578857 0.241705983877182007
2.4567868709564209 1.81695044040679932 0.239715054631233215
2.45553302764892578 1.81091475486755371 0.240108639001846313
2.46016740798950195 1.80846869945526123 0.240618199110031128
-2.26323556900024414 -1.86660599708557129 0.411530971527099609
0.206611201167106628 -1.02284622192382812 0.167701646685600281
0.200676903128623962 -1.01551449298858643 0.194754868745803833
2.44830846786499023 1.82341670989990234 0.241267815232276917
-2.20979070663452148 -1.83750200271606445 0.41965872049331665
0.169982597231864929 -1.0079953670501709 0.198959112167358398
0.190074026584625244 -1.01709222793579102 0.134267926216125488
0.187458515167236328 -1.02186810970306396 0.203898996114730835
0.978093564510345459 0.209120035171508789 0.36624830961227417
-2.3041377067565918 -1.84937858581542969 0.401529759168624878
0.187759608030319214 -1.00047481060028076 0.195332527160644531
-2.31027841567993164 -1.89427864551544189 0.425913512706756592
-2.28517961502075195 -1.87676870822906494 0.464327454566955566
2.45128512382507324 1.83083975315093994 0.240223169326782227
0.981853663921356201 0.223834991455078125 0.366825878620147705
0.176760882139205933 -1.01437222957611084 0.203835874795913696
0.193881526589393616 -1.01674759387969971 0.16586710512638092
2.45617556571960449 1.81155633926391602 0.237269014120101929
-2.13107800483703613 -1.81261181831359863 0.379635870456695557
2.44682478904724121 1.827414870262146 0.245436400175094604
0.976656675338745117 0.194021180272102356 0.368785381317138672
2.44795680046081543 1.82339668273925781 0.242198050022125244
2.45992588996887207 1.808097243309021 0.241103082895278931
0.829752624034881592 -0.529768228530883789 0.306149184703826904
