ply
format ascii 1.0
element vertex 256
comment vertices
property float x
property float y
property float z
end_header
-1.5926673412322998 -0.0508716106414794922 0.312612056732177734
0.722731411457061768 1.93169867992401123 0.325073421001434326
-0.814965724945068359 0.524079024791717529 0.416370987892150879
0.384943842887878418 -0.977645039558410645 0.0721340477466583252
-2.04276752471923828 -0.608336269855499268 0.307130366563796997
0.252317696809768677 0.886188268661499023 0.327080368995666504
-1.30911660194396973 1.53861069679260254 0.0775479376316070557
-0.438282310962677002 -0.875847697257995605 0.181056499481201172
-1.76612353324890137 -0.740762710571289062 0.372357845306396484
-0.83917236328125 0.431103676557540894 0.355780273675918579
0.299007713794708252 0.994226932525634766 0.336917251348495483
-1.38749384880065918 0.805865168571472168 0.419107228517532349
-0.603011488914489746 -0.707606732845306396 0.348191559314727783
-0.814732670783996582 0.702810287475585938 0.302811622619628906
-0.685704231262207031 -0.91180044412612915 0.276648908853530884
-1.11064565181732178 -1.74393725395202637 0.299823731184005737
-1.01549732685089111 0.805221796035766602 0.345877587795257568
-2.10718822479248047 -0.343228757381439209 0.283194839954376221
0.725058376789093018 1.9172896146774292 0.321725845336914062
-2.07300662994384766 2.43139886856079102 0.359482407569885254
-0.673843026161193848 -0.756072402000427246 0.399339944124221802
-1.62001717090606689 1.99521040916442871 0.259218335151672363
-0.656092464923858643 1.32134628295898438 0.429403096437454224
-2.10080528259277344 -0.722806811332702637 0.388057351112365723
0.238393902778625488 -0.913868963718414307 0.0621795654296875
0.726685285568237305 1.94579410552978516 0.320373892784118652
-0.812705874443054199 -0.912862777709960938 0.383663475513458252
-0.308406949043273926 1.3750007152557373 0.296757102012634277
-0.612502217292785645 -0.693732559680938721 0.332108139991760254
-1.19745314121246338 1.54285693168640137 0.0694499611854553223
-0.920697152614593506 -1.72082078456878662 0.284384071826934814
0.727831482887268066 1.92198622226715088 0.321713060140609741
-1.98466169834136963 -0.652949213981628418 0.364729374647140503
-2.10901093482971191 -0.826673388481140137 0.32604527473449707
-0.897659122943878174 0.644572854042053223 0.370685607194900513
-0.995395243167877197 -1.76164305210113525 0.274650990962982178
-0.697704315185546875 0.707915902137756348 0.446420818567276001
0.367726564407348633 -0.852126598358154297 0.0649451315402984619
-0.891414165496826172 0.452031850814819336 0.413029372692108154
0.227356135845184326 0.977182328701019287 0.33593827486038208
-1.24681448936462402 -1.71641039848327637 0.347725182771682739
-0.614832043647766113 -0.725254654884338379 0.375369906425476074
-2.05033421516418457 -0.888233006000518799 0.343191236257553101
0.353706657886505127 -0.932615220546722412 0.0661728382110595703
-0.726694107055664062 -0.920677006244659424 0.345381736755371094
-0.92974478006362915 0.484312593936920166 0.366528630256652832
-1.19791412353515625 1.58630132675170898 0.0511766672134399414
-1.73009824752807617 -0.884747862815856934 0.362802654504776001
0.72206348180770874 1.92371034622192383 0.32205885648727417
-0.829834640026092529 0.553400874137878418 0.38856998085975647
-0.797669887542724609 0.600351452827453613 0.408918082714080811
-0.864325404167175293 0.448055565357208252 0.388805955648422241
-1.83066236972808838 -0.161977291107177734 0.187652379274368286
-0.606748461723327637 -0.749204456806182861 0.369786083698272705
-0.852958321571350098 0.502107739448547363 0.360328406095504761
0.712028861045837402 1.91262829303741455 0.318307548761367798
-0.845216691493988037 0.495804250240325928 0.36760827898979187
-2.10999083518981934 -0.10485568642616272 0.302115947008132935
-1.03894615173339844 0.519489467144012451 0.373008430004119873
-0.600222170352935791 -0.753865301609039307 0.29185938835144043
0.142404079437255859 1.16024219989776611 0.349153578281402588
-1.89661431312561035 -0.443436890840530396 0.343417942523956299
0.186891078948974609 1.0091555118560791 0.33819890022277832
0.719379007816314697 1.92647838592529297 0.313832789659500122
0.197187989950180054 0.937236189842224121 0.32358020544052124
-0.757857203483581543 -1.15466761589050293 0.21768459677696228
-0.616924166679382324 -0.701158523559570312 0.338165998458862305
0.253534406423568726 1.16006231307983398 0.319094419479370117
0.392328977584838867 -0.982805967330932617 0.0821279287338256836
-2.1138916015625 2.32909512519836426 0.384272307157516479
-2.08108139038085938 2.32633161544799805 0.37206345796585083
-0.857107043266296387 0.518033981323242188 0.351012557744979858
-1.78564059734344482 1.97962296009063721 0.404949963092803955
-1.80781567096710205 -0.665045738220214844 0.342952966690063477
-0.434346914291381836 -0.871941447257995605 0.309526890516281128
-2.01774692535400391 -0.0314520001411437988 0.265986472368240356
-0.352476298809051514 -0.944764614105224609 0.285678088665008545
-0.825639963150024414 0.598958671092987061 0.401932686567306519
-2.22892427444458008 -0.492201089859008789 0.340802490711212158
-1.61064040660858154 1.73920977115631104 0.152496963739395142
-1.08441340923309326 0.445703566074371338 0.319411754608154297
-0.854140639305114746 0.43504410982131958 0.3839130699634552
-0.588000953197479248 -0.790296316146850586 0.335470438003540039
-0.856925129890441895 0.53322911262512207 0.375751733779907227
0.349813342094421387 -0.933334708213806152 0.0470143556594848633
-0.864297568798065186 0.54749298095703125 0.369679361581802368
-0.815695822238922119 -1.57535839080810547 0.246097445487976074
0.725285112857818604 1.92133021354675293 0.324609071016311646
-1.71399617195129395 2.34817171096801758 0.30703812837600708
0.0920808315277099609 1.04734039306640625 0.378528475761413574
0.658833980560302734 1.86904656887054443 0.323882043361663818
-1.88602697849273682 -0.647514641284942627 0.363000869750976562
-1.8569486141204834 -0.816575467586517334 0.431844651699066162
-1.94540834426879883 -0.106695026159286499 0.17278018593788147
-0.863821208477020264 0.499804496765136719 0.380729258060455322
-2.07584881782531738 2.48576784133911133 0.348038256168365479
-0.85902559757232666 0.497460126876831055 0.388722538948059082
-0.985659360885620117 0.765322387218475342 0.295917123556137085
-1.3460228443145752 0.579703211784362793 0.375906050205230713
-0.626207828521728516 -1.20244765281677246 0.338577061891555786
-1.46783828735351562 -0.866128921508789062 0.365207493305206299
-0.688055098056793213 -0.695687651634216309 0.353111356496810913
-0.606841683387756348 -0.690962314605712891 0.312149286270141602
-0.6066628098487854 -0.768543004989624023 0.310837537050247192
-2.06463813781738281 -0.0396065711975097656 0.271828800439834595
-0.545903384685516357 -1.09524655342102051 0.30302584171295166
0.720995485782623291 1.93081271648406982 0.323373556137084961
-0.631730437278747559 -0.700805366039276123 0.277404189109802246
-2.25140118598937988 0.0940802097320556641 0.17940250039100647
-1.8318932056427002 1.7362520694732666 0.379254162311553955
-0.49408257007598877 -0.764903247356414795 0.340388715267181396
-1.28307902812957764 1.5773698091506958 0.0318790972232818604
-2.2040565013885498 0.0239887237548828125 0.147850602865219116
-0.663896262645721436 -0.753472268581390381 0.423686683177947998
-1.1235196590423584 -1.6714472770690918 0.37976914644241333
-1.04798209667205811 0.788895964622497559 0.392407238483428955
-0.363405883312225342 -0.79217839241027832 0.228955090045928955
0.196309566497802734 0.872847914695739746 0.306984484195709229
-2.21837496757507324 -0.533441662788391113 0.346857458353042603
-2.07666110992431641 -0.587715327739715576 0.305109679698944092
-2.16804409027099609 -0.171999663114547729 0.270845264196395874
-0.612181127071380615 -0.714543998241424561 0.328711122274398804
-0.383731693029403687 1.24820995330810547 0.450186967849731445
0.724512219429016113 1.92019212245941162 0.324385583400726318
-0.615568280220031738 -0.724178194999694824 0.341175556182861328
0.369438529014587402 -0.981968522071838379 0.0813901126384735107
-1.09877705574035645 0.50841057300567627 0.392591297626495361
-1.99883127212524414 -0.815832316875457764 0.365218639373779297
-1.85588192939758301 2.39497947692871094 0.321510970592498779
-1.12231314182281494 1.6062629222869873 0.113782793283462524
0.344222545623779297 -0.960025310516357422 0.0594485998153686523
0.585745513439178467 1.63521790504455566 0.330922544002532959
-0.701924383640289307 -0.672046661376953125 0.26875990629196167
0.718031466007232666 1.91281998157501221 0.328821063041687012
-0.925624310970306396 0.611841082572937012 0.358474940061569214
-0.674601852893829346 1.46125888824462891 0.244289785623550415
0.723347783088684082 1.92940211296081543 0.324318021535873413
-2.03963685035705566 -0.070690840482711792 0.245385244488716125
-0.819922983646392822 0.493083447217941284 0.375288277864456177
-2.02325320243835449 2.36388015747070312 0.346089571714401245
-1.2156825065612793 1.63113033771514893 0.0861929357051849365
-0.995259404182434082 -1.70413243770599365 0.296968966722488403
-1.87455272674560547 -0.606920003890991211 0.353070199489593506
-1.34221768379211426 0.737609267234802246 0.337213456630706787
-1.1920936107635498 1.06475281715393066 0.421403586864471436
-1.36563372611999512 -1.13557577133178711 0.376152545213699341
-0.674279093742370605 -0.75462418794631958 0.398075491189956665
-0.690135598182678223 -0.819582343101501465 0.288378715515136719
-0.684763133525848389 -0.687046527862548828 0.363609224557876587
0.165982335805892944 0.931222319602966309 0.333445608615875244
-0.913149237632751465 0.585430741310119629 0.410942494869232178
-0.754355728626251221 1.39803016185760498 0.432500094175338745
-1.80246293544769287 -0.0521964132785797119 0.245404362678527832
-0.838491320610046387 0.534448802471160889 0.371292173862457275
-0.936856925487518311 0.508947432041168213 0.359998643398284912
-2.10975742340087891 2.49741792678833008 0.428887933492660522
-1.26682424545288086 1.17003524303436279 0.405331939458847046
0.215881049633026123 0.93491828441619873 0.378494858741760254
-1.07708775997161865 -1.81350159645080566 0.279416382312774658
-0.861967325210571289 0.508790016174316406 0.358383148908615112
-0.59827953577041626 -0.686354637145996094 0.329648435115814209
-0.583711922168731689 -0.811457157135009766 0.253298640251159668
-1.95498096942901611 -0.414515554904937744 0.280388802289962769
-2.00237846374511719 2.45799112319946289 0.451093614101409912
-0.626320421695709229 -0.714739501476287842 0.340900897979736328
-2.02360439300537109 -0.666985988616943359 0.302374005317687988
0.328034639358520508 -0.928299427032470703 0.0786650180816650391
-0.857505679130554199 0.411802560091018677 0.396695822477340698
-2.16871237754821777 -0.735107719898223877 0.303426235914230347
-0.93719947338104248 0.747391223907470703 0.383245229721069336
0.724005639553070068 1.91888642311096191 0.323060810565948486
-1.97608292102813721 -0.78449481725692749 0.3788471519947052
0.724956214427947998 1.92748582363128662 0.325457096099853516
0.241930156946182251 0.921221494674682617 0.322269976139068604
-0.532062053680419922 -0.770742416381835938 0.277167260646820068
-1.69112563133239746 1.83491349220275879 0.403341710567474365
-1.89375412464141846 -0.431857824325561523 0.32912522554397583
-1.85209023952484131 -0.81561589241027832 0.438584357500076294
0.187474370002746582 0.979536890983581543 0.380971908569335938
-0.997682571411132812 -1.67753934860229492 0.25843203067779541
-0.831785261631011963 0.520566582679748535 0.374104559421539307
-0.660029053688049316 -0.788206994533538818 0.324750542640686035
0.724508881568908691 1.9208606481552124 0.32326236367225647
-2.011505126953125 -0.681682407855987549 0.367719590663909912
-1.04001009464263916 0.462045878171920776 0.349828392267227173
0.508988320827484131 1.60050022602081299 0.30503121018409729
-1.65780973434448242 0.652878999710083008 0.326798617839813232
-1.74328279495239258 -0.078115612268447876 0.276881277561187744
0.349018335342407227 -0.871332168579101562 0.0711331069469451904
-2.02098751068115234 -0.330956518650054932 0.234314471483230591
-1.73893916606903076 1.86972725391387939 0.384412676095962524
-0.731365561485290527 -1.57076406478881836 0.255501270294189453
-1.23000001907348633 1.5803065299987793 0.0145583152770996094
0.716300487518310547 1.94623041152954102 0.326313167810440063
-1.80371403694152832 2.1548619270324707 0.397107750177383423
-1.73003745079040527 -0.748423099517822266 0.246258527040481567
-1.43418192863464355 2.02256298065185547 0.470291018486022949
-0.592931389808654785 -0.876737236976623535 0.220741927623748779
-0.977904319763183594 0.559158563613891602 0.374667316675186157
0.388587832450866699 -0.91305696964263916 0.0714302659034729004
0.722909033298492432 1.9139631986618042 0.318810850381851196
-2.17722940444946289 -0.156316816806793213 0.270199984312057495
0.149069070816040039 0.942996740341186523 0.429025650024414062
-1.20027220249176025 1.55980432033538818 0.0523847639560699463
-0.827245414257049561 0.579910933971405029 0.339043527841567993
-0.697737216949462891 -0.683716356754302979 0.269955635070800781
-1.9872441291809082 -0.634726762771606445 0.307744383811950684
-1.83227503299713135 2.39871001243591309 0.366263478994369507
-0.604084968566894531 -0.725293874740600586 0.396986424922943115
-2.02201604843139648 -0.792703628540039062 0.346117198467254639
0.159097015857696533 0.938084006309509277 0.319612443447113037
-0.615211248397827148 -0.694892764091491699 0.308903425931930542
-2.00567150115966797 -0.798062443733215332 0.350545823574066162
-0.619731724262237549 -0.744419336318969727 0.337510883808135986
-1.41532015800476074 0.709869623184204102 0.389764368534088135
-0.677508056163787842 -0.682696998119354248 0.32193329930305481
0.721964895725250244 1.91128921508789062 0.318690985441207886
-0.869552493095397949 0.553765714168548584 0.369857549667358398
0.39261162281036377 -0.959824323654174805 0.0790936052799224854
-1.53270483016967773 1.91305410861968994 0.442651957273483276
-2.05811929702758789 2.39328169822692871 0.373987317085266113
-0.867764830589294434 0.542815566062927246 0.373671352863311768
-1.02942967414855957 0.670976996421813965 0.35247531533241272
-0.811017930507659912 0.539181649684906006 0.397597134113311768
-1.57785892486572266 -0.0881697237491607666 0.268534958362579346
-1.05381715297698975 -1.73021233081817627 0.343162745237350464
0.266490817070007324 0.96318209171295166 0.347153574228286743
-0.431150376796722412 -0.695154070854187012 0.234840154647827148
-1.27869319915771484 -0.686173915863037109 0.231709092855453491
0.250554263591766357 -0.916359663009643555 0.0612875521183013916
-1.989585280418396 -0.117097675800323486 0.246833443641662598
-0.849465250968933105 0.513291835784912109 0.357877731323242188
-0.848838865756988525 0.537751197814941406 0.378032982349395752
-0.613843798637390137 -0.731139183044433594 0.344326764345169067
-1.07620406150817871 -1.80926525592803955 0.287363499402999878
-0.781733036041259766 0.459339827299118042 0.364269137382507324
0.71538090705871582 1.91804635524749756 0.318943709135055542
-2.39675140380859375 0.130893826484680176 0.210626304149627686
-0.608861625194549561 -0.741617798805236816 0.300757378339767456
0.722108364105224609 1.925179123878479 0.322024226188659668
-0.793091952800750732 0.551697194576263428 0.365630358457565308
-0.839320540428161621 0.525618135929107666 0.357815861701965332
-1.0000464916229248 0.473647415637969971 0.318415671586990356
-2.08067607879638672 2.40922021865844727 0.358158469200134277
0.00341683626174926758 1.14295601844787598 0.34266236424446106
0.724508821964263916 1.91576516628265381 0.320488393306732178
-1.88573324680328369 -0.644359946250915527 0.359900712966918945
-1.75561821460723877 -0.74507749080657959 0.389100492000579834
-0.61670684814453125 -0.74155128002166748 0.329837590456008911
-2.08772993087768555 -0.0391515195369720459 0.27578282356262207
0.204953432083129883 0.934425473213195801 0.303885906934738159
-2.2156989574432373 -0.84226757287979126 0.335722178220748901
-2.00537919998168945 -0.715232610702514648 0.38019677996635437
-0.760258674621582031 0.56748044490814209 0.401611000299453735
-0.976949095726013184 0.601335763931274414 0.267376065254211426
-0.10035175085067749 1.05921840667724609 0.417015999555587769
