ply
format ascii 1.0
element vertex 122
comment vertices
property float x
property float y
property float z
end_header
-0.629828095436096191 -0.72708284854888916 0.404941737651824951
-0.882542669773101807 0.472110569477081299 0.362128973007202148
-1.25149619579315186 1.62154304981231689 0.0863628536462783813
0.204808473587036133 1.06204640865325928 0.355863749980926514
-1.9703981876373291 -0.690308690071105957 0.398492127656936646
-0.880556702613830566 0.474391788244247437 0.368321865797042847
0.326179087162017822 -0.945003867149353027 0.0746123641729354858
-0.856962978839874268 0.68541264533996582 0.365078717470169067
-0.69060814380645752 -1.01097548007965088 0.321497321128845215
-1.22165238857269287 1.62228274345397949 0.070182308554649353
-2.03180360794067383 0.0232028812170028687 0.211599946022033691
-1.92055654525756836 -0.476270586252212524 0.285523951053619385
0.221760034561157227 1.01101148128509521 0.361324012279510498
-0.564757406711578369 -0.728048443794250488 0.351062089204788208
-1.16407585144042969 0.771246433258056641 0.361742168664932251
-0.877655267715454102 0.502890467643737793 0.380404770374298096
-1.00359451770782471 0.810209512710571289 0.40240129828453064
-1.03429579734802246 0.488208293914794922 0.338466167449951172
-0.650656759738922119 -0.702974379062652588 0.430968612432479858
0.293576151132583618 -0.95244133472442627 0.0764322280883789062
-0.822043240070343018 -1.20404613018035889 0.376343369483947754
-1.22933864593505859 1.63458013534545898 0.0801663994789123535
-0.871405839920043945 0.573375582695007324 0.369711518287658691
0.300583451986312866 -0.961815536022186279 0.0666913837194442749
-0.928833842277526855 0.745023369789123535 0.386280477046966553
0.325914829969406128 -0.954452037811279297 0.0625133737921714783
-1.03930461406707764 -1.77237427234649658 0.337437599897384644
-1.36289334297180176 1.41541087627410889 0.374305844306945801
0.165804445743560791 1.03196084499359131 0.345285475254058838
-1.2128603458404541 1.63304579257965088 0.0645071715116500854
-0.881038129329681396 0.469585388898849487 0.360322445631027222
-0.881214797496795654 0.472109735012054443 0.371923685073852539
-0.904088616371154785 0.499178946018218994 0.373605161905288696
-0.880382299423217773 0.525064826011657715 0.368955731391906738
-1.87092077732086182 -0.0451818406581878662 0.193026810884475708
-0.898813128471374512 0.68071591854095459 0.374301254749298096
-1.94595885276794434 -0.719752252101898193 0.36905023455619812
-1.98181986808776855 0.0781886577606201172 0.200894713401794434
-0.643291175365447998 -0.6668587327003479 0.330357283353805542
-0.882001817226409912 0.482988655567169189 0.374993056058883667
-0.888839364051818848 0.475172430276870728 0.367817580699920654
0.333327651023864746 1.20864033699035645 0.332934796810150146
-0.886247634887695312 0.463012963533401489 0.374695241451263428
-0.86561274528503418 0.477737933397293091 0.368912160396575928
0.322130560874938965 -0.95284724235534668 0.0644046887755393982
-1.04457509517669678 -1.75730550289154053 0.314688801765441895
-1.21913063526153564 1.62402951717376709 0.0732617080211639404
-0.858124136924743652 0.500784337520599365 0.359132528305053711
-0.874034345149993896 0.46897578239440918 0.365889072418212891
-1.86232566833496094 0.00479163974523544312 0.16230541467666626
-0.881634116172790527 0.570780694484710693 0.351486921310424805
-0.912406861782073975 0.652297616004943848 0.337142497301101685
-0.929678440093994141 0.41015779972076416 0.359160870313644409
-0.891618728637695312 0.513358354568481445 0.368712544441223145
-0.893590629100799561 0.469734400510787964 0.387257039546966553
-1.21800243854522705 1.62562286853790283 0.0711162984371185303
0.292439818382263184 -0.948471248149871826 0.0790413320064544678
-1.10768747329711914 1.03110408782958984 0.395703375339508057
-0.964086532592773438 0.479103118181228638 0.407899975776672363
-1.92493093013763428 -0.142659991979598999 0.273791760206222534
-1.91276729106903076 -0.221235081553459167 0.288390815258026123
-1.04823029041290283 -1.71127438545227051 0.333156168460845947
0.144047439098358154 0.996383070945739746 0.35701364278793335
0.0684887170791625977 1.02122676372528076 0.398115277290344238
-2.27076578140258789 0.178831219673156738 0.380326151847839355
-1.85205292701721191 0.00939511507749557495 0.232254683971405029
-0.847326457500457764 0.466081142425537109 0.368189036846160889
-0.959071815013885498 0.46049422025680542 0.355468481779098511
-0.865118026733398438 0.534810125827789307 0.384278208017349243
-1.23398339748382568 1.64139962196350098 0.0760906562209129333
-1.23017096519470215 1.59109973907470703 0.0623484104871749878
0.0626900196075439453 1.09243988990783691 0.418139159679412842
-0.889230430126190186 0.472878813743591309 0.372210323810577393
-0.874832689762115479 0.539190411567687988 0.38710397481918335
-1.15195369720458984 0.919201254844665527 0.403320610523223877
-1.9270026683807373 0.166449457406997681 0.224727213382720947
0.291491955518722534 -0.948787450790405273 0.0775552466511726379
-0.869030594825744629 0.62794417142868042 0.398062378168106079
-0.871375799179077148 0.480149328708648682 0.373657256364822388
-0.837784290313720703 0.669002056121826172 0.401085138320922852
-2.03501749038696289 0.0445250868797302246 0.229410916566848755
-0.870158791542053223 0.538059592247009277 0.360453397035598755
-1.83275437355041504 -0.616691946983337402 0.298384428024291992
-0.872290372848510742 0.476076841354370117 0.374173134565353394
-0.65423274040222168 -0.654815852642059326 0.376121819019317627
-0.8954734206199646 0.468793034553527832 0.367490828037261963
-1.06409823894500732 -1.79500937461853027 0.333720535039901733
0.321362435817718506 -0.952184438705444336 0.0621186494827270508
-0.881138503551483154 0.553699851036071777 0.353196263313293457
0.246723800897598267 0.985158920288085938 0.335235834121704102
-0.867968201637268066 0.46525883674621582 0.362246334552764893
-0.865343987941741943 0.531035304069519043 0.376766949892044067
0.316564977169036865 -0.947465002536773682 0.0667950659990310669
-2.04419636726379395 0.176405787467956543 0.165173619985580444
-0.892383337020874023 0.654553532600402832 0.375485330820083618
0.196840763092041016 1.02439975738525391 0.357436060905456543
-0.994999408721923828 -1.7289654016494751 0.270756453275680542
-0.852042078971862793 0.454345107078552246 0.356403738260269165
0.314807295799255371 -0.940537154674530029 0.0702139437198638916
-1.46014237403869629 0.481205970048904419 0.279925674200057983
-1.214516282081604 1.63339877128601074 0.0627248287200927734
-1.22688388824462891 1.63519537448883057 0.0761256366968154907
0.307201743125915527 -0.941769242286682129 0.0747421532869338989
-1.2648158073425293 1.58713483810424805 0.0615243762731552124
-1.04926502704620361 0.506458163261413574 0.290086120367050171
-0.880648553371429443 0.532098591327667236 0.372039496898651123
-1.05461812019348145 -1.80309450626373291 0.336562544107437134
-0.810471653938293457 -1.26383638381958008 0.338358432054519653
0.313512831926345825 -0.953075587749481201 0.0657425001263618469
0.290431559085845947 -0.94317936897277832 0.0798934400081634521
0.172965437173843384 1.0459136962890625 0.357285410165786743
-1.21737480163574219 1.63264501094818115 0.0711271315813064575
-1.08325886726379395 -1.65065693855285645 0.354850977659225464
-0.617137312889099121 -0.718929886817932129 0.391612231731414795
-0.887923121452331543 0.503670454025268555 0.384233206510543823
0.220728009939193726 1.10867249965667725 0.358865112066268921
0.178529143333435059 0.997175931930541992 0.342091888189315796
-0.889572858810424805 0.477460622787475586 0.362018108367919922
-1.22249102592468262 1.62833261489868164 0.0722437798976898193
0.324795931577682495 -0.954101920127868652 0.0654372274875640869
-2.02996015548706055 0.204008504748344421 0.154704123735427856
-0.874502360820770264 0.485515356063842773 0.369392335414886475
