ply
format ascii 1.0
element vertex 256
comment vertices
property float x
property float y
property float z
end_header
0.134695053100585938 2.02777910232543945 0.179257363080978394
-2.90929555892944336 0.755293011665344238 0.354536890983581543
0.347595274448394775 0.968433976173400879 0.173570543527603149
-0.832824468612670898 0.582704305648803711 -0.00566178560256958008
-1.64889240264892578 2.43735957145690918 0.452862769365310669
-0.951037704944610596 1.45284676551818848 0.164060086011886597
0.871425807476043701 0.305112123489379883 0.272251367568969727
-0.784529566764831543 0.581025540828704834 -0.0193690955638885498
0.253136992454528809 0.934100508689880371 0.16511264443397522
-1.24100542068481445 1.50462818145751953 0.144921988248825073
-2.26229047775268555 1.1192547082901001 0.254769176244735718
-1.44486737251281738 2.34391617774963379 0.399080246686935425
-0.816012740135192871 0.557566642761230469 -0.0313844382762908936
0.950342357158660889 0.352255344390869141 0.298024624586105347
0.315665692090988159 0.916415810585021973 0.171454370021820068
0.873336434364318848 0.449926018714904785 0.272937774658203125
-0.780115842819213867 0.58330833911895752 -0.0268989801406860352
-1.02994084358215332 -0.27857518196105957 0.3760833740234375
0.851016581058502197 0.415934205055236816 0.305397778749465942
-1.12568140029907227 1.60504329204559326 0.183476224541664124
-2.79821014404296875 0.856200635433197021 0.331091165542602539
0.252114534378051758 0.938292503356933594 0.165734529495239258
0.0415608584880828857 0.91032111644744873 0.131642818450927734
-1.5686957836151123 1.31274783611297607 0.0561472475528717041
-1.48834812641143799 2.48377871513366699 0.336760044097900391
0.050369948148727417 0.922890722751617432 0.164765447378158569
-1.42215943336486816 2.02931904792785645 0.190559744834899902
-2.39622187614440918 0.914888322353363037 0.31346777081489563
-1.5119088888168335 0.0529210567474365234 0.393643170595169067
0.892179250717163086 0.322172045707702637 0.31800416111946106
-0.835488080978393555 0.5436897873878479 0.0123239755630493164
0.699669957160949707 0.580465793609619141 0.287382423877716064
-2.79327821731567383 0.785792827606201172 0.322124868631362915
1.01368272304534912 0.364330410957336426 0.302620649337768555
0.206251174211502075 0.962058842182159424 0.156019657850265503
0.980733096599578857 0.360451698303222656 0.191161066293716431
-1.05888533592224121 1.72220587730407715 0.103780150413513184
0.229475244879722595 0.970196723937988281 0.150355994701385498
-1.17653846740722656 1.5967106819152832 0.221067160367965698
0.123066902160644531 2.07377910614013672 0.217724978923797607
-2.96987271308898926 0.76439356803894043 0.3429088294506073
-0.962723851203918457 -0.11336970329284668 0.110236912965774536
-0.318294435739517212 1.43661355972290039 0.120106816291809082
-1.16605043411254883 1.4488375186920166 0.213591516017913818
0.596626400947570801 2.37706375122070312 0.21926116943359375
-0.834240436553955078 0.592339992523193359 -0.0240711867809295654
0.284067034721374512 2.20932102203369141 0.193852424621582031
0.27050936222076416 0.937608718872070312 0.160642713308334351
-1.17337381839752197 2.14329695701599121 0.243820756673812866
0.838628649711608887 0.370341658592224121 0.221409201622009277
-0.846276700496673584 0.584921002388000488 -0.0237602889537811279
-1.27938032150268555 1.51170444488525391 0.19827309250831604
-0.869961321353912354 0.647396981716156006 -0.026718437671661377
-2.88683032989501953 0.789426088333129883 0.324216395616531372
0.95269399881362915 0.400053262710571289 0.300548851490020752
-1.28712773323059082 1.55062294006347656 0.118303418159484863
1.1620478630065918 0.853429436683654785 0.32842138409614563
0.166495606303215027 0.955550074577331543 0.174953669309616089
-2.79381322860717773 0.694669127464294434 0.365672260522842407
0.236515268683433533 0.945566236972808838 0.159888312220573425
0.20339539647102356 1.11798286437988281 0.189318135380744934
0.911015748977661133 0.402365326881408691 0.334491252899169922
1.56273519992828369 0.774984896183013916 0.356558322906494141
0.0983237326145172119 2.12506532669067383 0.191507220268249512
-0.840789318084716797 0.445904076099395752 0.0333245694637298584
-1.12867844104766846 -0.103748798370361328 0.110261142253875732
0.198688998818397522 0.95967179536819458 0.146986156702041626
-1.21355700492858887 1.54002773761749268 0.110121190547943115
0.856566429138183594 0.412883996963500977 0.300335347652435303
-1.04702115058898926 -0.482871651649475098 0.227742418646812439
0.0839611142873764038 2.03647756576538086 0.218494698405265808
-1.58892273902893066 1.22942042350769043 0.0663548707962036133
-1.40172064304351807 2.47340607643127441 0.352729082107543945
-1.15178465843200684 1.43719744682312012 0.196274846792221069
-0.835038423538208008 0.581282377243041992 0.00374260544776916504
-1.47857177257537842 2.58629775047302246 0.292501509189605713
-1.27048790454864502 2.56956100463867188 0.378324568271636963
0.911759138107299805 0.399616360664367676 0.247519493103027344
-1.25323867797851562 1.5860370397567749 0.131091594696044922
-0.986330389976501465 -0.482691526412963867 0.269495189189910889
-1.14288711547851562 1.65113580226898193 0.236902058124542236
0.280213683843612671 0.945144534111022949 0.17384299635887146
-1.08601295948028564 1.52006709575653076 0.221778899431228638
0.914579153060913086 0.479243636131286621 0.259430497884750366
0.273333907127380371 0.930201292037963867 0.165968418121337891
-0.814004778861999512 0.592702805995941162 -0.0201151072978973389
0.885912001132965088 0.471180200576782227 0.280876994132995605
-0.995237112045288086 0.362635612487792969 -0.0615667998790740967
0.881598174571990967 0.390201091766357422 0.289079666137695312
-1.16364836692810059 -0.252089977264404297 0.147153466939926147
0.152108967304229736 2.10651159286499023 0.141090661287307739
-1.39035475254058838 1.32385849952697754 0.108839631080627441
0.82810443639755249 0.346544027328491211 0.252357572317123413
-0.615177750587463379 -0.180925846099853516 0.223708301782608032
0.224517986178398132 0.959473609924316406 0.153245359659194946
0.0113378763198852539 2.0510413646697998 0.180823802947998047
-1.14790666103363037 1.54794275760650635 0.166681557893753052
-1.48617517948150635 2.41866111755371094 0.398340404033660889
-0.799535572528839111 2.01673197746276855 0.112214565277099609
-0.808346152305603027 -0.591217756271362305 0.310083359479904175
0.220542460680007935 0.968115031719207764 0.153117761015892029
-3.04081368446350098 0.801467597484588623 0.370424330234527588
-1.20904159545898438 1.62981796264648438 0.064132988452911377
-0.840968489646911621 0.588634848594665527 -0.0175099074840545654
0.913722574710845947 0.369353652000427246 0.200927004218101501
0.939889788627624512 0.400617837905883789 0.307192027568817139
-1.24407505989074707 1.55889570713043213 0.139278292655944824
-2.95555567741394043 0.813711047172546387 0.353897303342819214
-0.71090400218963623 0.46136125922203064 -0.0562790930271148682
0.166370183229446411 0.956248819828033447 0.160053342580795288
0.0914577245712280273 2.1692194938659668 0.221331030130386353
-1.06781530380249023 -0.552309989929199219 0.306299895048141479
-1.25599527359008789 1.5497283935546875 0.117400974035263062
-1.2024073600769043 1.51397490501403809 0.113701462745666504
-0.798933327198028564 0.578523933887481689 -0.0148307383060455322
-1.27874493598937988 1.54685211181640625 0.104802131652832031
0.789784252643585205 0.369128584861755371 0.327361464500427246
-1.24641180038452148 1.57337343692779541 0.149426549673080444
-1.24550521373748779 1.59433197975158691 0.136948645114898682
-1.12340986728668213 1.42175400257110596 0.227271050214767456
0.265965700149536133 0.933386504650115967 0.167025789618492126
0.892833352088928223 0.444872617721557617 0.27639538049697876
-1.02039813995361328 -0.0210232734680175781 0.108397901058197021
-1.06122088432312012 1.62615323066711426 0.126473724842071533
-0.630082964897155762 0.627877593040466309 -0.0344703197479248047
0.832131266593933105 0.363440513610839844 0.226136073470115662
-0.88823699951171875 -0.103301763534545898 0.138255804777145386
0.0973329842090606689 2.0920259952545166 0.197713196277618408
-1.17304778099060059 -0.419623613357543945 0.199949473142623901
-1.15716195106506348 1.44321048259735107 0.188869684934616089
0.95154273509979248 0.394880175590515137 0.234015315771102905
0.219229280948638916 0.94829404354095459 0.159254476428031921
-1.05034101009368896 0.0730214118957519531 0.0573719441890716553
-1.12862014770507812 1.70457112789154053 0.259683489799499512
-1.12265419960021973 1.48072469234466553 0.10109555721282959
-0.922185778617858887 -0.570590972900390625 0.317019164562225342
-0.502081155776977539 0.776984035968780518 -0.0224174261093139648
0.232774257659912109 0.936824977397918701 0.161610528826713562
-2.82144927978515625 0.714023351669311523 0.346893101930618286
0.906540274620056152 0.351938843727111816 0.298545479774475098
-0.855252981185913086 -0.429076552391052246 0.364433169364929199
-1.41829442977905273 2.49361443519592285 0.377789437770843506
0.232868283987045288 0.956914901733398438 0.146432220935821533
0.229559436440467834 0.987879574298858643 0.139542773365974426
-0.87101668119430542 0.405215352773666382 0.0188521742820739746
-2.7516937255859375 0.720468282699584961 0.340115517377853394
0.858467638492584229 0.336488485336303711 0.273969143629074097
-0.88886570930480957 -0.458107113838195801 0.254653275012969971
0.152268439531326294 0.953581333160400391 0.178203999996185303
0.921812057495117188 0.371774435043334961 0.30085456371307373
-0.862981140613555908 0.590970873832702637 -0.00726985931396484375
0.948788702487945557 0.347335577011108398 0.302207142114639282
0.385069340467453003 0.916697859764099121 0.163479655981063843
0.0973652154207229614 2.03391647338867188 0.219367444515228271
0.905410051345825195 0.424422383308410645 0.32410275936126709
-1.58035910129547119 2.48871421813964844 0.429173588752746582
-2.87007021903991699 0.731931447982788086 0.356829971075057983
0.224822938442230225 0.972375869750976562 0.139898866415023804
-1.2182316780090332 1.55213737487792969 0.189466178417205811
-0.237044870853424072 1.79478192329406738 0.214621305465698242
-0.819918453693389893 0.641766548156738281 -0.0190496146678924561
-3.05143880844116211 0.700472474098205566 0.345459043979644775
-2.76815319061279297 0.829294562339782715 0.338468968868255615
0.27689090371131897 0.929915726184844971 0.178957134485244751
-0.845938563346862793 -0.0595803260803222656 0.229606211185455322
-0.777691662311553955 0.564731001853942871 0.00740021467208862305
0.00232732295989990234 1.39333105087280273 0.0531934797763824463
0.893339097499847412 0.377906918525695801 0.230793595314025879
0.368511199951171875 2.10274410247802734 0.269532769918441772
-1.26769375801086426 1.52558660507202148 0.113535940647125244
-1.04819810390472412 -0.545686483383178711 0.255630850791931152
0.273448765277862549 0.942301809787750244 0.165653333067893982
0.243340194225311279 0.950935959815979004 0.160360097885131836
-1.62128424644470215 1.53458189964294434 0.125499308109283447
0.875254154205322266 0.447759270668029785 0.266130685806274414
0.901399374008178711 0.293729424476623535 0.321399331092834473
-1.13848710060119629 1.42308557033538818 0.217229902744293213
1.04303324222564697 0.472236275672912598 0.327633529901504517
-1.48523736000061035 2.4203181266784668 0.423169523477554321
-1.49983727931976318 2.48360919952392578 0.375875651836395264
-0.615877628326416016 -0.275222063064575195 0.237932592630386353
-0.892271518707275391 -0.177416563034057617 0.345873892307281494
-0.916921734809875488 0.240355312824249268 0.0751619040966033936
0.256788253784179688 0.907055020332336426 0.172307059168815613
-0.283298969268798828 1.80566799640655518 0.232722759246826172
0.172598987817764282 0.967559516429901123 0.173375040292739868
-2.04854393005371094 1.3879472017288208 0.210219055414199829
-1.21129465103149414 1.57698893547058105 0.175456613302230835
1.93045377731323242 0.496862649917602539 0.374697029590606689
0.0950735211372375488 2.05673885345458984 0.170763731002807617
0.888975679874420166 0.461757302284240723 0.263102412223815918
-2.81926441192626953 0.743936657905578613 0.329357534646987915
-0.366024643182754517 1.11887991428375244 0.308490157127380371
-1.56969380378723145 2.46173381805419922 0.325587183237075806
-1.0997612476348877 2.08737277984619141 0.240422099828720093
-1.10040688514709473 0.135114431381225586 0.0643049478530883789
-1.44694817066192627 2.48401093482971191 0.383536756038665771
-1.32138669490814209 1.38079833984375 -0.00680339336395263672
0.0579120516777038574 2.06961774826049805 0.174849957227706909
-0.452530443668365479 1.69197463989257812 0.223013877868652344
0.187378585338592529 0.946926236152648926 0.149781525135040283
-1.45765471458435059 2.36892509460449219 0.405609220266342163
0.892559051513671875 0.448969841003417969 0.269407868385314941
0.920876801013946533 0.336261272430419922 0.245680391788482666
-1.05081236362457275 -0.600243330001831055 0.316378116607666016
-0.953724086284637451 0.422130107879638672 0.0235752463340759277
0.90152442455291748 0.385836482048034668 0.246370196342468262
-1.52396798133850098 1.26921510696411133 0.052005082368850708
0.891609728336334229 0.354620575904846191 0.292636841535568237
0.889062821865081787 0.396263599395751953 0.178447514772415161
0.904334783554077148 0.422961592674255371 0.324421584606170654
-2.81329751014709473 0.797983169555664062 0.347459256649017334
-0.858589112758636475 0.596649885177612305 -0.00525838136672973633
0.857392668724060059 0.33090662956237793 0.273404359817504883
-0.791025757789611816 0.57344508171081543 -0.0103404819965362549
0.264531314373016357 0.943297624588012695 0.163972944021224976
-1.44612443447113037 2.37970805168151855 0.369568914175033569
0.886256933212280273 0.463811635971069336 0.271436750888824463
0.908865511417388916 0.401534557342529297 0.21570645272731781
0.247045621275901794 0.9463004469871521 0.143055230379104614
0.251584917306900024 0.955387353897094727 0.151678889989852905
-2.94039678573608398 0.754897832870483398 0.331089973449707031
-1.17295575141906738 1.60069763660430908 0.213452279567718506
0.0818660855293273926 2.0441288948059082 0.203546702861785889
-0.996718764305114746 -0.454504609107971191 0.271439552307128906
-1.24619388580322266 1.60607516765594482 0.14933699369430542
-1.12308764457702637 1.58473467826843262 0.137754321098327637
-0.832031488418579102 0.5811348557472229 -0.00568056106567382812
-1.88980531692504883 0.67372739315032959 0.298180460929870605
-1.13751053810119629 1.64495396614074707 0.234917700290679932
-1.10667014122009277 1.74464225769042969 0.200843065977096558
0.885328292846679688 0.402603983879089355 0.321694135665893555
-1.16571426391601562 1.53482091426849365 0.12664756178855896
0.906104803085327148 0.430168509483337402 0.275575369596481323
0.919723331928253174 0.413658261299133301 0.318219035863876343
0.0839168429374694824 2.1534125804901123 0.168567955493927002
-1.28574240207672119 1.54606211185455322 0.116433650255203247
0.246589928865432739 0.939613759517669678 0.161739945411682129
-1.09078562259674072 1.69271528720855713 0.207920044660568237
0.272238016128540039 0.947427272796630859 0.162534743547439575
0.250543475151062012 0.93657916784286499 0.161665573716163635
0.255462825298309326 0.934286415576934814 0.167595058679580688
-1.53280210494995117 2.45450878143310547 0.323805302381515503
0.180287346243858337 0.955363273620605469 0.17918550968170166
0.251887798309326172 0.94014441967010498 0.16311606764793396
0.939965605735778809 0.441887736320495605 0.305354535579681396
-1.2417290210723877 1.59120309352874756 0.0984237790107727051
0.222812831401824951 0.951012313365936279 0.14740365743637085
-1.25785696506500244 1.56398260593414307 0.13944593071937561
-0.911954641342163086 0.504602611064910889 -0.00661197304725646973
1.00125694274902344 0.462677717208862305 0.349395453929901123
-0.982464313507080078 2.17200708389282227 0.125388383865356445
-0.872316956520080566 -0.428172469139099121 0.383231818675994873
-0.815433740615844727 0.647528171539306641 -0.021175682544708252
-0.921568334102630615 -0.547223329544067383 0.288975894451141357
-1.1561882495880127 1.46695530414581299 0.193089753389358521
