ply
format ascii 1.0
element vertex 64
comment vertices
property float x
property float y
property float z
end_header
-0.198470950126647949 -0.478209644556045532 0.0812311172485351562
0.358200371265411377 0.44160151481628418 0.102172046899795532
0.401164859533309937 -0.364745944738388062 0.351542353630065918
-0.399838745594024658 0.341181278228759766 0.137401103973388672
0.2155446857213974 -0.338023364543914795 0.103057339787483215
-0.27829316258430481 0.410620272159576416 0.0954582244157791138
0.038837239146232605 -0.414189368486404419 0.13528740406036377
-0.404097825288772583 0.369284629821777344 0.0722361132502555847
0.131021022796630859 -0.657342791557312012 0.103279978036880493
-0.432411998510360718 0.299442261457443237 0.108641847968101501
0.0560178905725479126 0.43329930305480957 0.135759979486465454
0.163118705153465271 0.389374256134033203 0.132412195205688477
-0.0128831565380096436 0.36016044020652771 0.277012079954147339
-0.13236631453037262 -0.336889177560806274 0.10475274920463562
0.396239101886749268 -0.529678583145141602 0.168935269117355347
0.304553806781768799 0.332791149616241455 0.0658219456672668457
-0.313108146190643311 -0.423103898763656616 0.0920136794447898865
-0.373074769973754883 0.407531261444091797 0.0957402884960174561
-0.0201949328184127808 -0.551255524158477783 0.103696316480636597
0.0428847074508666992 0.495266228914260864 0.0927192568778991699
-0.139353245496749878 -0.611909210681915283 0.0635524168610572815
-0.218647107481956482 0.381533145904541016 0.0995552763342857361
-0.059008866548538208 -0.229651659727096558 0.109960019588470459
-0.171549096703529358 -0.281095206737518311 0.11242792010307312
0.034457281231880188 0.251923680305480957 0.206135660409927368
0.345605075359344482 0.408179938793182373 0.124087467789649963
-0.230820059776306152 0.392982244491577148 0.0937941968441009521
-0.405232727527618408 0.181674301624298096 0.107403591275215149
0.0465447604656219482 0.137638956308364868 0.0563006103038787842
0.345442622900009155 0.441138148307800293 0.0653366297483444214
0.188405409455299377 -0.469417661428451538 0.0796499252319335938
0.180890485644340515 -0.353658288717269897 0.128584325313568115
-0.168050840497016907 -0.308173596858978271 0.128397047519683838
0.427505135536193848 -0.409885436296463013 0.216202646493911743
0.0202538222074508667 -0.578859090805053711 0.0599751770496368408
0.332756638526916504 -0.46446719765663147 0.0714408457279205322
0.0286691784858703613 0.409581363201141357 0.10607987642288208
-0.459722340106964111 0.350563466548919678 0.113924048840999603
-0.252841293811798096 0.32130730152130127 0.114587150514125824
0.167341247200965881 0.486222207546234131 0.106481350958347321
0.170150429010391235 0.317458003759384155 0.0818504020571708679
-0.0323910713195800781 -0.177996799349784851 0.0809181630611419678
0.254522264003753662 -0.0999148339033126831 0.0844837427139282227
-0.411157757043838501 0.331350803375244141 0.109507575631141663
0.139500796794891357 0.454220473766326904 0.0721509605646133423
-0.208968624472618103 0.406762808561325073 0.0798408910632133484
0.0147527605295181274 -0.331409871578216553 0.0933870226144790649
0.1054849773645401 0.461307406425476074 0.130806505680084229
0.257975250482559204 0.439370036125183105 0.105343759059906006
0.0926749259233474731 -0.56503593921661377 0.0524086803197860718
-0.247471988201141357 0.43378022313117981 0.137457609176635742
-0.419395476579666138 0.389506220817565918 0.107504725456237793
0.0219335034489631653 0.509912371635437012 0.137032553553581238
-0.0887993127107620239 0.326463460922241211 0.304677188396453857
0.240677282214164734 0.454315274953842163 0.177390426397323608
-0.403872132301330566 0.364149689674377441 0.0799064114689826965
0.00594655470922589302 -0.435134202241897583 0.104901105165481567
-0.333049476146697998 0.316535353660583496 0.0995334908366203308
-0.0312619656324386597 0.37379002571105957 0.0480392277240753174
0.0612633749842643738 -0.235157370567321777 0.0829543769359588623
0.257802903652191162 0.451187193393707275 0.11109238862991333
0.157686129212379456 -0.535864293575286865 0.102756589651107788
-0.378399670124053955 0.357726931571960449 0.105107516050338745
-0.0537237077951431274 -0.436455100774765015 0.112642288208007812
