ply
format ascii 1.0
element vertex 16
comment vertices
property float x
property float y
property float z
end_header
-0.171914637088775635 -0.413126528263092041 0.104062266647815704
-0.130330204963684082 -0.474887251853942871 0.127535134553909302
-0.191695123910903931 -0.323895454406738281 0.12294914573431015
-0.169568419456481934 -0.31227642297744751 0.125768393278121948
-0.129367321729660034 -0.444735169410705566 0.124237209558486938
-0.103822335600852966 -0.43086618185043335 0.157095417380332947
-0.294849008321762085 -0.122248165309429169 0.151964843273162842
-0.22362498939037323 -0.279765725135803223 0.108577072620391846
-0.13355545699596405 -0.430930376052856445 0.0877125412225723267
-0.250338584184646606 -0.25055423378944397 0.127323940396308899
-0.172980457544326782 -0.399330258369445801 0.136981815099716187
-0.120125442743301392 -0.481744199991226196 0.121956750750541687
-0.0826017037034034729 -0.457885861396789551 0.0981014519929885864
-0.140296652913093567 -0.428680568933486938 0.105040267109870911
-0.208762615919113159 -0.308350145816802979 0.140110358595848083
-0.134861648082733154 -0.437526226043701172 0.116825655102729797
