ply
format ascii 1.0
element vertex 52
comment vertices
property float x
property float y
property float z
end_header
-0.193369641900062561 -0.429777950048446655 0.505927443504333496
-0.246517419815063477 0.169842034578323364 0.391427397727966309
0.429806351661682129 0.269528120756149292 0.459609836339950562
-0.223742216825485229 0.134195059537887573 0.403595328330993652
0.450924158096313477 0.276772737503051758 0.456452608108520508
-0.329887092113494873 -0.399627894163131714 0.473758995532989502
0.0940880328416824341 -0.331720173358917236 0.520106017589569092
0.337761282920837402 0.325079500675201416 0.42229914665222168
-0.3269539475440979 -0.441722631454467773 0.480475634336471558
0.106563940644264221 -0.341979861259460449 0.525256156921386719
-0.304928094148635864 -0.443837910890579224 0.473150849342346191
0.430643022060394287 0.264119058847427368 0.446380585432052612
-0.11542230099439621 -0.385699361562728882 0.503427207469940186
-0.139942243695259094 -0.37316972017288208 0.494535207748413086
-0.227092951536178589 0.16756083071231842 0.381151914596557617
-0.286297112703323364 -0.418979018926620483 0.46882927417755127
0.413336902856826782 0.275135070085525513 0.451438367366790771
0.0167536623775959015 -0.300084710121154785 0.504163444042205811
-0.286205798387527466 -0.406981378793716431 0.497547775506973267
-0.298905491828918457 -0.457278400659561157 0.476094722747802734
0.410986155271530151 0.314157068729400635 0.449745893478393555
0.387004494667053223 0.247328758239746094 0.46257433295249939
0.422865420579910278 0.252933025360107422 0.448835909366607666
0.113792985677719116 -0.333803504705429077 0.524412930011749268
-0.30942082405090332 -0.454541593790054321 0.471160322427749634
0.0131689831614494324 -0.316087543964385986 0.503907918930053711
-0.299663007259368896 -0.458884209394454956 0.473957091569900513
-0.325775444507598877 -0.420073866844177246 0.488219857215881348
-0.142153471708297729 -0.396697640419006348 0.507523715496063232
0.432165414094924927 0.257422804832458496 0.458002150058746338
0.0876854732632637024 -0.305179327726364136 0.508131980895996094
0.43264162540435791 0.293937385082244873 0.442503154277801514
0.388773679733276367 0.327856242656707764 0.448531389236450195
-0.260506868362426758 0.191419750452041626 0.38621792197227478
-0.321569859981536865 -0.378669410943984985 0.481251657009124756
0.438581615686416626 0.284041792154312134 0.463724017143249512
-0.128165751695632935 -0.370146840810775757 0.49300423264503479
0.110167749226093292 -0.330966174602508545 0.52436220645904541
0.438039243221282959 0.273323982954025269 0.44577491283416748
-0.299992471933364868 -0.420524179935455322 0.460308194160461426
-0.274793237447738647 -0.408178806304931641 0.488262027502059937
0.0721700191497802734 -0.314389050006866455 0.494827926158905029
-0.0653577744960784912 -0.396275579929351807 0.500835120677947998
0.111105464398860931 -0.332872688770294189 0.526347517967224121
0.421031951904296875 0.266924291849136353 0.441484332084655762
-0.257683098316192627 0.175157457590103149 0.371161133050918579
-0.284559935331344604 -0.427289634943008423 0.473062664270401001
-0.262384295463562012 0.155947402119636536 0.370621442794799805
0.403197765350341797 0.31604883074760437 0.450260788202285767
-0.278813540935516357 -0.407221496105194092 0.469502508640289307
-0.0799573361873626709 -0.239896371960639954 0.477785170078277588
-0.244819492101669312 -0.404679656028747559 0.466682732105255127
