ply
format ascii 1.0
element vertex 256
comment vertices
property float x
property float y
property float z
end_header
7.22931241989135742 -4.64438772201538086 0.150428354740142822
-3.09109044075012207 0.0737747848033905029 0.329602956771850586
3.06684017181396484 0.515579819679260254 0.320078760385513306
0.0259320735931396484 -3.12983560562133789 0.118248641490936279
-0.721700668334960938 3.0061492919921875 0.233801126480102539
4.83204364776611328 -2.58089351654052734 0.0671230107545852661
1.13689243793487549 -0.718333601951599121 0.0589109249413013458
-1.6619255542755127 -2.58983230590820312 0.340590596199035645
-1.28938555717468262 0.257929891347885132 0.136825099587440491
2.67183375358581543 -1.58361339569091797 0.108456701040267944
0.809798955917358398 1.13463687896728516 0.2068900465965271
-0.577296137809753418 -1.22419071197509766 0.381996273994445801
1.31555080413818359 -2.83495450019836426 0.100787334144115448
-0.0311767458915710449 1.30492281913757324 0.0569813773036003113
1.27769756317138672 0.342207133769989014 0.443075180053710938
-1.15635251998901367 -2.86461853981018066 0.415337830781936646
0.727856576442718506 1.10765409469604492 0.409907162189483643
-3.18037009239196777 0.0446375086903572083 0.215253069996833801
-1.19614815711975098 -2.86277484893798828 0.319305300712585449
-0.762347161769866943 2.99877810478210449 0.310888767242431641
-0.536926686763763428 -1.19858181476593018 0.396804302930831909
2.67739963531494141 -1.56754374504089355 0.131085917353630066
-1.32597708702087402 0.255346715450286865 0.105128079652786255
1.25962257385253906 -2.83803892135620117 0.105066359043121338
-1.65504884719848633 -2.63963484764099121 0.33343583345413208
0.0165910273790359497 -3.08501410484313965 0.123144477605819702
2.64277815818786621 -1.54449200630187988 0.112265050411224365
1.10542976856231689 -0.713881134986877441 0.0570925697684288025
-1.29151010513305664 0.255400896072387695 0.119124382734298706
4.81565570831298828 -2.57062530517578125 0.0698453262448310852
-1.65639090538024902 -2.56217432022094727 0.240790531039237976
-0.583239436149597168 -1.20518028736114502 0.412742882966995239
-0.0201028436422348022 1.33839082717895508 0.0632293000817298889
-1.3462672233581543 0.256758660078048706 0.111023992300033569
1.30510079860687256 0.32969588041305542 0.435197383165359497
2.6622765064239502 -1.59220337867736816 0.143494337797164917
-0.561301708221435547 -1.2182234525680542 0.405795305967330933
-3.13205552101135254 0.0798738822340965271 0.217796355485916138
-0.554420590400695801 -1.20590722560882568 0.423494637012481689
7.2410430908203125 -4.6536107063293457 0.164602160453796387
-1.30637192726135254 0.280317217111587524 0.172273367643356323
-0.0540163516998291016 1.33296346664428711 0.0597584247589111328
3.06533980369567871 0.544824004173278809 0.315257787704467773
-1.16492843627929688 -2.85676336288452148 0.353056997060775757
-1.62055158615112305 -2.6683962345123291 0.347773462533950806
0.0121966898441314697 -3.10501885414123535 0.116034001111984253
0.728057026863098145 1.10999739170074463 0.377870708703994751
2.67260956764221191 -1.55853879451751709 0.153033331036567688
0.0179634690284729004 -3.10269713401794434 0.119002342224121094
-0.775510430335998535 2.99783921241760254 0.253786683082580566
4.82009601593017578 -2.56249260902404785 0.0577739402651786804
1.28787672519683838 -2.83950662612915039 0.0869148969650268555
3.04540801048278809 0.522423267364501953 0.25229334831237793
1.13382983207702637 -0.711032271385192871 0.0522331930696964264
1.17546117305755615 0.338289439678192139 0.344702959060668945
-1.67387163639068604 -2.6040043830871582 0.363555729389190674
-0.563521385192871094 -1.19235801696777344 0.381644099950790405
0.00355017185211181641 1.32874250411987305 0.0447198972105979919
3.07128715515136719 0.518587052822113037 0.366662681102752686
1.14173734188079834 -0.722362816333770752 0.0573706328868865967
1.28447020053863525 -2.83059215545654297 0.106164932250976562
7.23918294906616211 -4.63551950454711914 0.178804546594619751
2.66213393211364746 -1.56127893924713135 0.092832028865814209
1.29861342906951904 0.343307435512542725 0.463457405567169189
-0.541254341602325439 -1.19558060169219971 0.395149439573287964
-0.572090208530426025 -1.20457804203033447 0.359794348478317261
-1.29900121688842773 0.256271332502365112 0.122027121484279633
-1.66206693649291992 -2.66670441627502441 0.322768151760101318
-1.6529088020324707 -2.55643939971923828 0.331365376710891724
-1.32777023315429688 0.263862848281860352 0.136225223541259766
3.04932355880737305 0.512144863605499268 0.334061384201049805
-0.558291196823120117 -1.20753753185272217 0.422978967428207397
3.05996799468994141 0.53336036205291748 0.322781652212142944
4.83433723449707031 -2.56979537010192871 0.0603714324533939362
0.0167609751224517822 -3.09628939628601074 0.120765551924705505
4.83902359008789062 -2.56283855438232422 0.0680634230375289917
-0.550256729125976562 -1.21409893035888672 0.413942068815231323
-1.31030499935150146 0.255016922950744629 0.157275304198265076
2.67479276657104492 -1.57042372226715088 0.134494289755821228
-0.0199673641473054886 1.33072507381439209 0.076783888041973114
1.29615449905395508 -2.8424077033996582 0.0852273553609848022
-1.64007568359375 -2.55432748794555664 0.36514735221862793
-1.33460748195648193 0.264403969049453735 0.0922721326351165771
1.28419113159179688 0.341427445411682129 0.404355704784393311
2.66722226142883301 -1.56667506694793701 0.15064084529876709
-1.63923823833465576 -2.65729093551635742 0.320892661809921265
-1.3104102611541748 0.259664446115493774 0.131719619035720825
1.13629543781280518 -0.696681857109069824 0.0532535761594772339
1.29030847549438477 0.333107799291610718 0.479058623313903809
2.67144465446472168 -1.55235910415649414 0.135807275772094727
-3.12096428871154785 0.087468273937702179 0.297520428895950317
1.28287255764007568 -2.83673882484436035 0.0750072747468948364
1.29054009914398193 0.342413067817687988 0.446803003549575806
7.22326374053955078 -4.63052034378051758 0.151758551597595215
-1.61231088638305664 -2.60799098014831543 0.306092023849487305
-1.31841135025024414 0.255938917398452759 0.12143639475107193
-3.12277078628540039 0.0747526213526725769 0.262380510568618774
-1.17684733867645264 -2.87079977989196777 0.392844468355178833
-1.15640079975128174 -2.86338043212890625 0.350706756114959717
2.67856073379516602 -1.54172182083129883 0.139850586652755737
0.0237974897027015686 -3.11559963226318359 0.124349027872085571
1.2820429801940918 -2.84167647361755371 0.123363226652145386
-1.17767965793609619 -2.8669281005859375 0.32432854175567627
0.0239068269729614258 -3.10625553131103516 0.138902619481086731
-0.559196650981903076 -1.20676898956298828 0.400713324546813965
2.66181826591491699 -1.56772506237030029 0.132032096385955811
0.0321600958704948425 -3.10255765914916992 0.118785008788108826
-1.6564483642578125 -2.57805180549621582 0.325471311807632446
-1.6381525993347168 -2.57738351821899414 0.308431088924407959
0.742710351943969727 1.11142539978027344 0.360628753900527954
0.0402376055717468262 -3.10123062133789062 0.117424607276916504
-3.11879849433898926 0.0809618532657623291 0.255003958940505981
-1.66461455821990967 -2.62942695617675781 0.355334311723709106
3.04405021667480469 0.530163407325744629 0.290830373764038086
7.23041868209838867 -4.6235504150390625 0.133581310510635376
-1.64513993263244629 -2.63423967361450195 0.32544592022895813
-0.733957469463348389 2.99150180816650391 0.286522835493087769
0.739586412906646729 1.11006259918212891 0.422899693250656128
2.65904545783996582 -1.6072993278503418 0.0970616638660430908
1.28149795532226562 0.325669407844543457 0.448289752006530762
1.2721259593963623 -2.82423710823059082 0.10062156617641449
-1.27540171146392822 0.258804142475128174 0.130244314670562744
-0.57129824161529541 -1.2173079252243042 0.383287370204925537
1.30173611640930176 -2.8365025520324707 0.104481875896453857
-0.813075661659240723 2.9802241325378418 0.24040628969669342
2.66133618354797363 -1.56474173069000244 0.105457648634910583
3.07338047027587891 0.537480711936950684 0.354713022708892822
-1.65425097942352295 -2.57104730606079102 0.320035159587860107
-1.30912172794342041 0.267670571804046631 0.133963674306869507
7.26083278656005859 -4.63976955413818359 0.123362794518470764
-1.68396091461181641 -2.55248737335205078 0.27619469165802002
7.23817825317382812 -4.63380861282348633 0.145991027355194092
1.27482461929321289 -2.84197616577148438 0.0884979739785194397
-0.560028016567230225 -1.1931835412979126 0.413340926170349121
4.83756923675537109 -2.55644488334655762 0.0628457069396972656
-1.30728697776794434 0.263199985027313232 0.169212594628334045
1.28953099250793457 0.340907543897628784 0.466330289840698242
1.30204737186431885 0.346199750900268555 0.441199541091918945
7.23018074035644531 -4.66313886642456055 0.17721027135848999
4.82846546173095703 -2.58231973648071289 0.0590426698327064514
-1.3228905200958252 0.261963486671447754 0.124295182526111603
-1.65208864212036133 -2.58753681182861328 0.328697621822357178
-1.28270530700683594 0.278973788022994995 0.153061777353286743
-0.0173442810773849487 1.33048892021179199 0.0750766769051551819
2.68088912963867188 -1.59151756763458252 0.14134293794631958
-0.549319028854370117 -1.21332335472106934 0.379870682954788208
-0.54976344108581543 -1.20120251178741455 0.39493754506111145
-0.761566817760467529 3.00114202499389648 0.300647348165512085
1.29502582550048828 -2.84024739265441895 0.110860764980316162
-1.61165821552276611 -2.66170382499694824 0.307983130216598511
-1.29729568958282471 0.26327890157699585 0.130528256297111511
3.05478978157043457 0.536027967929840088 0.324259161949157715
-1.28285360336303711 0.265443265438079834 0.154036551713943481
1.1328282356262207 -0.707332253456115723 0.0630313605070114136
0.0324952565133571625 -3.10112237930297852 0.107711195945739746
-0.559809505939483643 -1.20203602313995361 0.411419093608856201
1.26362955570220947 0.352825939655303955 0.460483789443969727
-1.33777701854705811 0.260586351156234741 0.10459272563457489
3.07611584663391113 0.536392390727996826 0.317506670951843262
0.0300807207822799683 -3.10053539276123047 0.121841028332710266
-1.62318110466003418 -2.54828023910522461 0.331565022468566895
1.30312502384185791 0.345390975475311279 0.461106747388839722
3.05843281745910645 0.521164894104003906 0.318153917789459229
-1.68040680885314941 -2.68250584602355957 0.330342292785644531
3.06879973411560059 0.526386141777038574 0.307430028915405273
0.0249296128749847412 -3.09473752975463867 0.12008289247751236
4.83556365966796875 -2.56725072860717773 0.0577009916305541992
2.66685390472412109 -1.56106686592102051 0.129785299301147461
-1.67302846908569336 -2.61711025238037109 0.333879947662353516
-0.557048201560974121 -1.20365118980407715 0.44469258189201355
-0.569595694541931152 -1.20714449882507324 0.416376590728759766
-0.559380412101745605 -1.20482397079467773 0.397176653146743774
2.6686394214630127 -1.54367995262145996 0.153102636337280273
1.30205011367797852 -2.84043264389038086 0.0869503840804100037
-3.12902998924255371 0.0815726593136787415 0.262071192264556885
1.23694443702697754 0.323158502578735352 0.423816889524459839
2.66591358184814453 -1.57296538352966309 0.142485037446022034
1.28636574745178223 -2.83155512809753418 0.107352197170257568
2.67170214653015137 -1.5709758996963501 0.151796549558639526
-1.32921802997589111 0.255773305892944336 0.10783366858959198
7.2330322265625 -4.64383602142333984 0.153844863176345825
1.29295921325683594 0.354755520820617676 0.479884088039398193
3.06394028663635254 0.513918042182922363 0.350033432245254517
2.66726803779602051 -1.58104753494262695 0.0963078290224075317
-1.6505272388458252 -2.63539981842041016 0.347039341926574707
7.27165842056274414 -4.6344151496887207 0.174875602126121521
4.83577251434326172 -2.55852675437927246 0.0621066689491271973
2.68075966835021973 -1.55779898166656494 0.132931426167488098
7.22753238677978516 -4.63668727874755859 0.173491597175598145
-1.66534781455993652 -2.58113193511962891 0.331728667020797729
7.21010255813598633 -4.65635013580322266 0.142688989639282227
4.84084463119506836 -2.56163930892944336 0.0660197511315345764
0.0156639367341995239 -3.09913825988769531 0.123330526053905487
1.28623652458190918 -2.83129572868347168 0.0732047036290168762
-1.30565452575683594 0.260636687278747559 0.166247442364692688
-0.566675364971160889 -1.20028495788574219 0.373415112495422363
-3.11628890037536621 0.0790365710854530334 0.297847449779510498
2.67158126831054688 -1.58502054214477539 0.158060804009437561
-1.31969809532165527 0.254269987344741821 0.089123845100402832
-0.0100844977423548698 1.34102761745452881 0.0681828781962394714
0.0177246928215026855 -3.10044527053833008 0.112090937793254852
7.2319941520690918 -4.63049459457397461 0.164789319038391113
-0.576439976692199707 -1.21495795249938965 0.408475100994110107
-1.65178251266479492 -2.55931544303894043 0.364762008190155029
-1.17159187793731689 -2.87566852569580078 0.397290319204330444
-0.0208889544010162354 1.33296751976013184 0.0556754618883132935
1.29252529144287109 0.326543986797332764 0.438691198825836182
1.29556477069854736 -2.83581185340881348 0.0881955325603485107
2.65898656845092773 -1.56018614768981934 0.13941916823387146
-1.3092808723449707 0.265453457832336426 0.140744909644126892
-0.0134161068126559258 1.30492508411407471 0.0684721171855926514
-1.66877949237823486 -2.56365466117858887 0.346846342086791992
1.28254020214080811 -2.8289794921875 0.12395651638507843
-0.581506967544555664 -1.21109199523925781 0.393529057502746582
1.12222683429718018 -0.712971746921539307 0.0453516282141208649
2.66835689544677734 -1.55555820465087891 0.152028411626815796
1.2870638370513916 -2.82319283485412598 0.0790457427501678467
1.13932812213897705 -0.704229950904846191 0.0562388747930526733
-1.65339851379394531 -2.56062936782836914 0.335479706525802612
4.82905244827270508 -2.57305812835693359 0.0359257608652114868
2.67671632766723633 -1.55118691921234131 0.143130004405975342
1.28772354125976562 -2.83849263191223145 0.0997204482555389404
-1.33669018745422363 0.256208270788192749 0.0876891613006591797
1.28664135932922363 -2.83825469017028809 0.0838736891746520996
-1.15423393249511719 -2.86447477340698242 0.365454912185668945
-1.67858529090881348 -2.63859272003173828 0.367726892232894897
-1.1816563606262207 -2.86480236053466797 0.316488504409790039
-1.29886043071746826 0.263081520795822144 0.140904411673545837
2.66683053970336914 -1.56850314140319824 0.139901101589202881
1.15427768230438232 -0.72205805778503418 0.045321539044380188
-0.588124573230743408 -1.21701312065124512 0.374088525772094727
1.2744596004486084 -2.84170007705688477 0.104750186204910278
0.0237565338611602783 -3.09609270095825195 0.114699363708496094
1.30719780921936035 -2.84457111358642578 0.106710553169250488
-1.17428922653198242 -2.86910724639892578 0.354272425174713135
0.0260514337569475174 -3.07611274719238281 0.123608589172363281
0.757570624351501465 1.11468076705932617 0.371782898902893066
1.28262066841125488 0.323859870433807373 0.483973562717437744
1.1355975866317749 -0.710196077823638916 0.0491983368992805481
-0.718439340591430664 2.99611115455627441 0.235518395900726318
-1.32239878177642822 0.269042104482650757 0.141835317015647888
-3.11747932434082031 0.0866383388638496399 0.274449616670608521
1.28758609294891357 -2.82979226112365723 0.105912148952484131
-1.3217775821685791 0.26050335168838501 0.126885026693344116
3.04689168930053711 0.532941162586212158 0.29463648796081543
-1.65398967266082764 -2.65313172340393066 0.357227325439453125
0.0192354023456573486 -3.10314059257507324 0.136589705944061279
2.66158413887023926 -1.53950297832489014 0.102691054344177246
-1.64925587177276611 -2.58933305740356445 0.355055153369903564
1.13972592353820801 -0.719891250133514404 0.0561198554933071136
0.721051275730133057 1.1103438138961792 0.356946498155593872
7.25326299667358398 -4.63632297515869141 0.146112844347953796
1.3019336462020874 0.333757668733596802 0.39069831371307373
-1.6381833553314209 -2.6298983097076416 0.334874331951141357
3.06340289115905762 0.519058644771575928 0.31170189380645752
-3.11530971527099609 0.0638776421546936035 0.259694784879684448
