ply
format ascii 1.0
element vertex 36
comment vertices
property float x
property float y
property float z
end_header
2.03182530403137207 -2.33611106872558594 0.130914285778999329
2.03075027465820312 -2.34184551239013672 0.129163876175880432
-0.352444440126419067 1.26403248310089111 0.0692948400974273682
2.02988791465759277 -2.3390657901763916 0.128722965717315674
2.03234672546386719 -2.33669638633728027 0.128054782748222351
-0.400587260723114014 -1.27865970134735107 0.446031421422958374
2.03333306312561035 -2.33649516105651855 0.126795247197151184
2.03199219703674316 -2.34053325653076172 0.128499805927276611
0.996721446514129639 -0.839308679103851318 0.379972875118255615
-0.470671951770782471 3.06150984764099121 0.060630209743976593
2.0336000919342041 -2.34032988548278809 0.127091944217681885
2.0287015438079834 -2.33919382095336914 0.129269897937774658
-0.480980932712554932 -3.0653996467590332 0.0573758482933044434
-1.35529839992523193 -2.79989504814147949 0.0700890868902206421
2.03314447402954102 -2.33577728271484375 0.127790853381156921
2.03204607963562012 -2.33836007118225098 0.127323105931282043
2.03233957290649414 -2.33677434921264648 0.128984317183494568
0.376371890306472778 -1.30207788944244385 0.162286326289176941
2.02890729904174805 -2.33870959281921387 0.128694877028465271
2.0334165096282959 -2.33416366577148438 0.129041388630867004
-2.6781003475189209 -1.56984543800354004 0.403980016708374023
2.03158950805664062 -2.33851242065429688 0.127872064709663391
2.03264260292053223 -2.3410346508026123 0.127806812524795532
2.03449487686157227 -2.33600902557373047 0.126259416341781616
2.03035473823547363 -2.33902788162231445 0.12891995906829834
2.03284835815429688 -2.33660221099853516 0.127172812819480896
0.230126768350601196 1.29943037033081055 0.39471009373664856
2.03225088119506836 -2.34380531311035156 0.128411486744880676
2.03378629684448242 -2.3365170955657959 0.12719842791557312
2.03303003311157227 -2.3368070125579834 0.127348974347114563
1.24271202087402344 -2.85543632507324219 0.324426054954528809
2.03411030769348145 -2.33719801902770996 0.127590388059616089
2.02965068817138672 -2.33813285827636719 0.128570646047592163
-1.12050807476043701 -0.717441082000732422 0.275296151638031006
0.214455097913742065 1.29766345024108887 0.385825186967849731
2.03243136405944824 -2.338714599609375 0.127184540033340454
