ply
format ascii 1.0
element vertex 256
comment vertices
property float x
property float y
property float z
end_header
-0.734778404235839844 1.75181853771209717 0.361395001411437988
2.91107726097106934 -5.69249582290649414 0.0534813068807125092
-1.55415236949920654 -3.59289336204528809 0.0109039619565010071
2.03182530403137207 -2.33611106872558594 0.130914285778999329
-3.60875892639160156 -0.627986907958984375 0.536008238792419434
-0.860061287879943848 4.22658920288085938 0.0222041308879852295
2.2060539722442627 1.00672757625579834 -0.0129552651196718216
-1.13338303565979004 -0.595908582210540771 0.733214855194091797
-2.91146540641784668 3.15525436401367188 0.00144809484481811523
0.605535507202148438 -0.0446913540363311768 0.121881961822509766
-2.25716090202331543 -0.550190925598144531 0.0857040286064147949
0.794620394706726074 -3.7719879150390625 0.00102245807647705078
0.575722575187683105 -3.08308577537536621 0.0403681546449661255
0.257257223129272461 1.63369691371917725 0.339367210865020752
2.03075027465820312 -2.34184551239013672 0.129163876175880432
-0.347691833972930908 -0.735568642616271973 0.487858414649963379
-2.22643637657165527 -1.85903596878051758 0.230430006980895996
0.442741036415100098 -4.64625024795532227 0.00822863541543483734
0.0221798121929168701 -0.977940082550048828 0.374799728393554688
0.439086288213729858 -1.49302315711975098 0.170796856284141541
-1.6578139066696167 1.17107343673706055 0.0740361064672470093
-1.13710403442382812 -0.129896610975265503 -0.146409392356872559
-0.149100959300994873 -0.493569284677505493 0.38247448205947876
-0.352444440126419067 1.26403248310089111 0.0692948400974273682
1.57067477703094482 -1.40451502799987793 0.51082003116607666
-3.16381382942199707 2.10162758827209473 0.399782061576843262
-0.172864764928817749 0.50207597017288208 0.112995162606239319
2.02988791465759277 -2.3390657901763916 0.128722965717315674
2.03234672546386719 -2.33669638633728027 0.128054782748222351
-1.46016025543212891 -3.07600116729736328 0.413119077682495117
-0.901352345943450928 1.94346427917480469 0.0180965512990951538
0.891542911529541016 3.10979628562927246 -0.000608026981353759766
-1.69020950794219971 -1.64106214046478271 0.0497630350291728973
0.48740154504776001 -0.6638374924659729 0.33754730224609375
1.28881239891052246 -2.87373733520507812 0.33143201470375061
-3.14923310279846191 -0.729048669338226318 0.140706613659858704
0.807147502899169922 0.124636612832546234 0.548838496208190918
1.9937288761138916 -1.63071489334106445 -0.0343950986862182617
0.692303240299224854 2.28915643692016602 0.0421819202601909637
1.69699227809906006 -5.13497543334960938 0.290576159954071045
-0.580034971237182617 1.58422017097473145 0.465864419937133789
-0.63782954216003418 0.0102836340665817261 0.415342658758163452
-1.2737123966217041 2.56015634536743164 0.0239900499582290649
-2.4524085521697998 2.02727603912353516 0.142948657274246216
-0.400587260723114014 -1.27865970134735107 0.446031421422958374
0.17390131950378418 -1.38827061653137207 0.555553257465362549
2.03333306312561035 -2.33649516105651855 0.126795247197151184
-3.00677728652954102 3.30835676193237305 0.627230048179626465
-1.08474171161651611 2.22562456130981445 0.0168353915214538574
-1.35357499122619629 -0.676313400268554688 0.36760982871055603
-3.03748035430908203 -1.91133701801300049 0.400175154209136963
-0.262436151504516602 0.69044339656829834 0.0332716703414916992
-0.477735012769699097 -3.01931476593017578 0.0622554384171962738
1.09976518154144287 2.27039694786071777 0.0267329812049865723
1.34887707233428955 -1.1696397066116333 0.305513620376586914
-1.69327449798583984 -1.05279660224914551 0.16849943995475769
1.26959741115570068 -5.67777872085571289 0.0984041094779968262
-1.4412764310836792 1.56012356281280518 0.256498515605926514
-0.802722036838531494 -4.20377159118652344 0.0396590791642665863
-0.793528914451599121 -1.86047422885894775 0.0134503170847892761
1.81316733360290527 -4.02577972412109375 -0.0526889562606811523
-2.48058247566223145 -2.86208248138427734 0.422331571578979492
0.343181520700454712 -1.41944265365600586 0.193362265825271606
-1.64644968509674072 3.02654695510864258 0.161922812461853027
-3.04949307441711426 -2.0196235179901123 0.115337371826171875
2.03199219703674316 -2.34053325653076172 0.128499805927276611
2.69898509979248047 -4.51467704772949219 0.119830906391143799
0.904270291328430176 0.975284814834594727 0.0735445320606231689
0.996721446514129639 -0.839308679103851318 0.379972875118255615
0.86972576379776001 0.866792559623718262 0.0945378094911575317
-0.540304839611053467 2.26538705825805664 0.128171011805534363
-0.097024187445640564 2.18598556518554688 0.01825714111328125
1.87143063545227051 -1.99773848056793213 0.166330680251121521
0.518703997135162354 -3.40843701362609863 0.243225246667861938
-0.470671951770782471 3.06150984764099121 0.060630209743976593
-1.85648810863494873 -0.570392727851867676 0.0949615240097045898
0.883477926254272461 -1.4879302978515625 0.0237677693367004395
-0.962938189506530762 0.894249141216278076 0.420444190502166748
2.0336000919342041 -2.34032988548278809 0.127091944217681885
2.0287015438079834 -2.33919382095336914 0.129269897937774658
-2.34538006782531738 2.01384592056274414 0.179813504219055176
0.506080567836761475 -1.16531693935394287 0.189515531063079834
1.80383265018463135 -0.240138813853263855 0.44497603178024292
1.04630362987518311 -4.20159053802490234 0.269909858703613281
-0.480980932712554932 -3.0653996467590332 0.0573758482933044434
0.823165357112884521 0.798487663269042969 0.101559698581695557
-0.550130724906921387 1.99056422710418701 0.425615072250366211
-1.12119138240814209 -0.69309532642364502 0.220235750079154968
-1.10344362258911133 -0.715262174606323242 0.249289527535438538
1.66529488563537598 0.027653425931930542 0.146067500114440918
-2.0117802619934082 -2.27968740463256836 0.125477224588394165
-2.78436279296875 0.809121787548065186 0.234732180833816528
-3.46590375900268555 -1.27670836448669434 0.528321504592895508
1.64136040210723877 -5.06660270690917969 0.179093897342681885
2.08080005645751953 -5.73026561737060547 0.241371095180511475
-0.369711697101593018 -0.600561618804931641 0.914277911186218262
1.31933712959289551 -2.80615854263305664 0.277638912200927734
-1.35529839992523193 -2.79989504814147949 0.0700890868902206421
0.882095694541931152 0.982641637325286865 0.0804274380207061768
-2.10268306732177734 1.95911169052124023 0.198440194129943848
-2.80843758583068848 -1.44426631927490234 0.454812407493591309
0.00544181466102600098 1.06940090656280518 0.365101933479309082
0.553818106651306152 -1.30757570266723633 0.256643921136856079
-1.93899166584014893 3.17223882675170898 -0.0361089706420898438
-2.4116358757019043 2.08846354484558105 0.173831522464752197
0.0661385953426361084 -0.303529202938079834 0.563550591468811035
0.400656521320343018 -5.58295249938964844 0.100043162703514099
2.03314447402954102 -2.33577728271484375 0.127790853381156921
-0.229438707232475281 -1.04681503772735596 0.529428005218505859
2.03204607963562012 -2.33836007118225098 0.127323105931282043
-0.653741002082824707 -0.37676548957824707 -0.0456605255603790283
0.983415782451629639 -5.28465986251831055 0.495341718196868896
0.841842710971832275 -1.74778485298156738 0.523343026638031006
0.458648860454559326 1.28766047954559326 0.208138465881347656
-2.13731694221496582 0.752891480922698975 -0.0577223151922225952
-1.45111072063446045 2.14198613166809082 0.337903439998626709
2.03233957290649414 -2.33677434921264648 0.128984317183494568
-0.68516772985458374 2.06132245063781738 -0.0304424315690994263
-0.687315225601196289 -1.01175832748413086 0.40476071834564209
0.376371890306472778 -1.30207788944244385 0.162286326289176941
2.02890729904174805 -2.33870959281921387 0.128694877028465271
-0.387894093990325928 -1.10122132301330566 0.51270592212677002
2.0334165096282959 -2.33416366577148438 0.129041388630867004
-0.979872345924377441 0.872322201728820801 0.397498071193695068
-2.6781003475189209 -1.56984543800354004 0.403980016708374023
-0.604994833469390869 0.264867007732391357 0.266070276498794556
0.984123766422271729 -0.841410636901855469 0.438176482915878296
-2.95140624046325684 2.41390395164489746 0.369508147239685059
-1.14639067649841309 -0.676753044128417969 0.271421611309051514
1.86632823944091797 -3.76783013343811035 0.226378917694091797
-1.61593317985534668 -0.593663990497589111 0.25494229793548584
0.923052191734313965 1.00787949562072754 0.0620725378394126892
2.97498202323913574 -5.01816177368164062 0.113120168447494507
0.879098296165466309 2.19938135147094727 0.0773626565933227539
2.03158950805664062 -2.33851242065429688 0.127872064709663391
-2.93046665191650391 -0.633472800254821777 0.0187453627586364746
-2.83838057518005371 3.09581232070922852 0.375980943441390991
-0.749169409275054932 -2.95895624160766602 0.0999436825513839722
-0.243421003222465515 1.42960631847381592 0.243433281779289246
-0.338767737150192261 1.43502068519592285 0.237522542476654053
-0.434162348508834839 1.25028753280639648 0.191770657896995544
0.859435677528381348 -4.52818393707275391 0.157209470868110657
2.03264260292053223 -2.3410346508026123 0.127806812524795532
-2.8262178897857666 1.47843539714813232 0.290010571479797363
1.71543252468109131 -5.18407535552978516 0.0982639938592910767
1.2635500431060791 -1.6442415714263916 0.0696308016777038574
2.32420015335083008 -5.36338901519775391 0.17139221727848053
-2.46319985389709473 -0.690727949142456055 0.20286695659160614
-0.0305749867111444473 1.28539574146270752 0.248094618320465088
1.15308213233947754 -3.34537625312805176 0.312262833118438721
1.03325164318084717 1.57851934432983398 0.294194191694259644
-1.34068238735198975 0.921917915344238281 0.277028858661651611
-1.43534612655639648 0.0500513464212417603 0.382608354091644287
0.996249675750732422 -0.477147996425628662 0.517065644264221191
2.03449487686157227 -2.33600902557373047 0.126259416341781616
-1.11203241348266602 2.14086079597473145 0.00357905030250549316
-1.27818334102630615 1.46555423736572266 0.425974786281585693
0.864960849285125732 -0.822771549224853516 0.413210272789001465
-1.48783683776855469 -2.71619629859924316 0.140163719654083252
0.0762691646814346313 1.36039173603057861 0.441138595342636108
0.538921058177947998 -0.297057807445526123 -0.00633697211742401123
-0.459658592939376831 3.12086939811706543 0.0575589127838611603
-1.32132267951965332 -0.412521243095397949 -0.0144750922918319702
2.03035473823547363 -2.33902788162231445 0.12891995906829834
-0.494224011898040771 -2.97236275672912598 0.102517828345298767
-2.99474692344665527 -1.31854915618896484 0.50202178955078125
2.03284835815429688 -2.33660221099853516 0.127172812819480896
-0.954708576202392578 -0.39048534631729126 0.288872689008712769
0.230126768350601196 1.29943037033081055 0.39471009373664856
0.93041682243347168 -0.841826796531677246 0.421809196472167969
0.755365967750549316 -0.776190102100372314 0.300287902355194092
2.03225088119506836 -2.34380531311035156 0.128411486744880676
-2.7736048698425293 -2.2953336238861084 0.203443959355354309
1.39945363998413086 -2.63413500785827637 0.275142252445220947
0.495295822620391846 -3.97057914733886719 0.237254157662391663
-0.408512651920318604 -1.25967466831207275 0.464842170476913452
-1.40654861927032471 -3.55148410797119141 0.0312276706099510193
-1.41960501670837402 3.00662660598754883 -0.0318268537521362305
0.862069249153137207 -5.04645204544067383 0.139370471239089966
-2.96898603439331055 1.23663926124572754 0.560705900192260742
-0.449714690446853638 2.97725534439086914 0.0865652114152908325
1.53591811656951904 -5.21848773956298828 0.235032618045806885
0.156391099095344543 3.15911126136779785 0.12944832444190979
-0.271716713905334473 0.968373656272888184 0.113621234893798828
-1.33965182304382324 -2.79936671257019043 0.0610483139753341675
-0.596779823303222656 -0.166935279965400696 -0.0646546483039855957
2.4099128246307373 -4.44597482681274414 0.152591139078140259
-0.442478179931640625 3.05807971954345703 0.0990014970302581787
-0.491031765937805176 -3.03613924980163574 0.0685585811734199524
-1.99326217174530029 -0.709376811981201172 0.139582246541976929
1.67810285091400146 -5.19920444488525391 0.0982662290334701538
-0.546282947063446045 2.23679423332214355 -0.00626981258392333984
2.03378629684448242 -2.3365170955657959 0.12719842791557312
1.04108321666717529 -0.655941605567932129 0.520379424095153809
-3.15670967102050781 -1.84906363487243652 0.247166872024536133
2.03303003311157227 -2.3368070125579834 0.127348974347114563
1.01854622364044189 0.994174957275390625 0.112041838467121124
-1.5804363489151001 -0.483786642551422119 0.300422310829162598
0.460704147815704346 -5.09215593338012695 0.323232650756835938
-2.91112303733825684 2.69142556190490723 0.11349082738161087
-2.51971244812011719 -2.41575956344604492 0.0284844636917114258
-2.88471221923828125 0.80705714225769043 -0.0186289995908737183
1.24271202087402344 -2.85543632507324219 0.324426054954528809
-2.8616790771484375 2.6329808235168457 0.45656287670135498
-2.41718387603759766 2.05421137809753418 0.153394490480422974
-1.90224158763885498 2.67609643936157227 0.213532239198684692
0.922684550285339355 -0.840267479419708252 0.350969046354293823
-0.704795479774475098 2.13281941413879395 0.333771944046020508
-2.40029120445251465 1.9773029088973999 0.115292996168136597
0.411717623472213745 -1.36967968940734863 0.169726714491844177
2.03411030769348145 -2.33719801902770996 0.127590388059616089
0.407825887203216553 -1.26997268199920654 0.17863038182258606
-1.20067751407623291 1.93862152099609375 0.0855804383754730225
-1.22605276107788086 -2.6183474063873291 0.169977918267250061
0.410411417484283447 -1.26428031921386719 0.151914611458778381
0.425933539867401123 -1.33004271984100342 0.23265393078327179
2.02965068817138672 -2.33813285827636719 0.128570646047592163
2.10891437530517578 -5.14522504806518555 0.280915379524230957
1.70081853866577148 -4.93488931655883789 0.136712908744812012
-1.91302275657653809 -2.23626518249511719 0.120909273624420166
-1.12050807476043701 -0.717441082000732422 0.275296151638031006
-0.581490039825439453 1.73370456695556641 0.499977469444274902
0.944152951240539551 -0.88001251220703125 0.43154144287109375
-2.09297633171081543 -1.66145825386047363 0.301016271114349365
0.214455097913742065 1.29766345024108887 0.385825186967849731
-3.17394709587097168 -1.28362894058227539 0.25971570611000061
1.8109971284866333 -1.73425769805908203 -0.00828335247933864594
1.5591655969619751 -4.10173511505126953 0.19430696964263916
-1.12003064155578613 -0.735415041446685791 0.23870481550693512
1.85457611083984375 -0.888462305068969727 0.455877870321273804
0.902372002601623535 0.947414636611938477 0.0516760945320129395
0.195245206356048584 1.33562493324279785 0.354173362255096436
-0.327101647853851318 -0.902368724346160889 0.638926088809967041
0.459127426147460938 -1.96102190017700195 0.234101414680480957
-0.51023256778717041 -3.13618636131286621 0.0654809325933456421
-1.31586647033691406 1.28213405609130859 -0.0669699162244796753
-1.0519709587097168 1.04093444347381592 0.416573405265808105
1.68829464912414551 -5.15090370178222656 0.12601885199546814
-0.478210806846618652 -2.95140910148620605 0.0759816914796829224
2.62751293182373047 -5.59590959548950195 0.105320766568183899
0.261897742748260498 1.30923891067504883 0.378064811229705811
-1.00113952159881592 0.865626096725463867 0.405894309282302856
0.73057323694229126 -4.51344060897827148 0.0743677765130996704
2.03243136405944824 -2.338714599609375 0.127184540033340454
1.45180058479309082 -5.84070396423339844 0.130549848079681396
0.615280568599700928 -3.99960947036743164 0.0143488124012947083
2.95502948760986328 -4.63386774063110352 -0.0169231966137886047
-3.13078403472900391 -1.47214221954345703 0.440207719802856445
0.917352795600891113 -1.01711165904998779 0.471236109733581543
-2.49143314361572266 -3.28212690353393555 0.0392048805952072144
1.03925001621246338 -0.757775843143463135 0.366439461708068848
-1.13922882080078125 -2.9754328727722168 0.0491912513971328735
-2.40019130706787109 2.97816920280456543 0.231651633977890015
2.96813583374023438 -5.26858425140380859 0.0542409718036651611
-2.58437252044677734 2.13555788993835449 0.287963628768920898
0.252859830856323242 0.944097220897674561 0.259541302919387817
