ply
format ascii 1.0
element vertex 84
comment vertices
property float x
property float y
property float z
end_header
0.426335036754608154 -3.07733154296875 0.120939686894416809
0.00797134637832641602 0.0147708356380462646 -0.0313426181674003601
-3.3807976245880127 -2.37843060493469238 0.00910769402980804443
-1.73330879211425781 1.22695553302764893 0.0331644490361213684
0.428742766380310059 -3.07595419883728027 0.118288785219192505
-3.12942218780517578 -0.0596989095211029053 0.185207068920135498
0.00653782486915588379 -0.0173885151743888855 -0.0286925509572029114
1.61335372924804688 1.94219613075256348 -0.0190645158290863037
0.801939010620117188 1.03446459770202637 0.368417978286743164
0.422245144844055176 -3.07675909996032715 0.120706170797348022
-1.24565768241882324 -0.464182943105697632 0.410495221614837646
0.421492397785186768 -3.07746386528015137 0.121257618069648743
-3.11546707153320312 -0.0494675189256668091 0.188369199633598328
-0.898491859436035156 -0.997342467308044434 0.16462157666683197
0.421991497278213501 -3.07759690284729004 0.121682710945606232
-0.804861307144165039 1.08338582515716553 0.467739313840866089
-1.94071745872497559 2.41297721862792969 0.0481688752770423889
-2.85792684555053711 -1.22840332984924316 0.0558564141392707825
0.408062219619750977 -1.27535247802734375 0.0469853505492210388
0.425152838230133057 -3.07722735404968262 0.120180897414684296
0.398760527372360229 -1.26340031623840332 0.0553517155349254608
-1.32346856594085693 0.0606343746185302734 0.078301653265953064
-0.350439220666885376 1.30510318279266357 0.391601681709289551
0.426878750324249268 -3.07685947418212891 0.119442068040370941
-2.52013754844665527 -1.75884664058685303 0.427277207374572754
0.423411577939987183 -3.07832980155944824 0.120132267475128174
0.423385053873062134 -3.07730460166931152 0.121351569890975952
-1.69022893905639648 -2.60811853408813477 0.150098904967308044
-0.316638052463531494 1.20567071437835693 0.360414385795593262
-3.12217617034912109 0.00411459803581237793 0.19878832995891571
0.834728538990020752 1.08449625968933105 0.328016072511672974
0.426461398601531982 -3.07958698272705078 0.119290098547935486
-0.359317779541015625 1.28260624408721924 0.420069098472595215
-2.85411357879638672 -1.22626769542694092 0.0459576994180679321
0.4241371750831604 -3.07756185531616211 0.120546646416187286
-1.29028129577636719 0.0807117223739624023 0.0549216568470001221
-3.09410977363586426 0.293333709239959717 0.402760505676269531
0.433707594871520996 1.27973854541778564 0.112114489078521729
0.422604471445083618 -3.07791948318481445 0.121114954352378845
0.42468222975730896 -3.07663297653198242 0.119807004928588867
-0.821986675262451172 -1.03242981433868408 0.0746030882000923157
-3.1176002025604248 0.127038478851318359 0.452085196971893311
2.05198860168457031 2.31008219718933105 0.356683552265167236
0.424241542816162109 -3.07720613479614258 0.119152285158634186
-2.53876519203186035 -1.78253364562988281 0.428450167179107666
-0.354851663112640381 1.26483535766601562 0.432862609624862671
-1.65731310844421387 -2.59753775596618652 0.167696669697761536
0.838143527507781982 1.0460505485534668 0.381200134754180908
0.422755569219589233 -3.07787036895751953 0.120562940835952759
0.423828393220901489 -3.07762694358825684 0.120640233159065247
-2.86394214630126953 -1.32749330997467041 0.0982975959777832031
-0.84523385763168335 -1.03233826160430908 0.076863214373588562
-1.67102718353271484 -2.64005565643310547 0.105964571237564087
0.424447298049926758 -3.07557535171508789 0.120676636695861816
0.402985960245132446 -1.27717292308807373 0.060055851936340332
0.425771474838256836 -3.07740187644958496 0.121011652052402496
-3.11602497100830078 0.0471528097987174988 0.231300607323646545
-1.29283809661865234 -0.456973910331726074 0.426377266645431519
-1.14849889278411865 -0.600989937782287598 0.336476892232894897
-0.339962005615234375 1.30749547481536865 0.403978586196899414
0.422447621822357178 -3.07773995399475098 0.121352829039096832
0.422834157943725586 -3.07782459259033203 0.120462238788604736
0.427225381135940552 -3.07561063766479492 0.118999749422073364
-1.66404533386230469 -2.64138102531433105 0.150876462459564209
-1.25784552097320557 -0.45191308856010437 0.402507811784744263
-1.31590640544891357 0.0493359193205833435 0.0726468265056610107
-1.93812823295593262 2.4981691837310791 0.0559234544634819031
2.00867223739624023 2.38534283638000488 0.380507230758666992
0.423585236072540283 -3.07867240905761719 0.120176039636135101
-1.24875593185424805 -0.479748696088790894 0.436493515968322754
-0.806899070739746094 1.04172873497009277 0.442930638790130615
0.427220404148101807 -3.07666921615600586 0.119565710425376892
0.856755435466766357 1.02327299118041992 0.377493441104888916
0.424977272748947144 -3.076873779296875 0.119563832879066467
0.474799603223800659 1.24768209457397461 0.121925234794616699
0.426419943571090698 -3.07815027236938477 0.120362088084220886
-0.847223639488220215 1.09394752979278564 0.457553863525390625
-3.08680009841918945 0.322401821613311768 0.401758253574371338
-0.353525936603546143 1.25943481922149658 0.435279399156570435
0.424189656972885132 -3.07675385475158691 0.119763582944869995
0.424190729856491089 -3.07702064514160156 0.121485278010368347
-2.55610108375549316 -1.88710474967956543 0.401217997074127197
-3.10805130004882812 -0.0571573525667190552 0.194639831781387329
0.424927592277526855 -3.07928657531738281 0.121257513761520386
