ply
format ascii 1.0
element vertex 256
comment vertices
property float x
property float y
property float z
end_header
0.538642704486846924 -2.00436854362487793 0.0224034637212753296
1.25967395305633545 5.81972599029541016 1.08768856525421143
-3.36116981506347656 1.44172573089599609 0.295563757419586182
-3.8516840934753418 -4.92047452926635742 0.479140430688858032
1.06508016586303711 2.13900208473205566 -0.351108193397521973
-2.01693058013916016 -1.49275648593902588 0.0310196429491043091
-0.846475899219512939 0.533055782318115234 2.05240225791931152
1.67130815982818604 4.03550577163696289 0.593490481376647949
-0.0518468171358108521 -0.835797905921936035 1.56923532485961914
-0.863764584064483643 -6.05752658843994141 -0.19172513484954834
-0.0418289899826049805 -3.18070101737976074 0.0302501358091831207
2.7713475227355957 2.33085298538208008 0.0435233637690544128
1.04357004165649414 0.099798738956451416 1.5226665735244751
-1.17018651962280273 -0.545055627822875977 -0.783232569694519043
0.219199806451797485 1.29927825927734375 2.1146397590637207
-2.89168238639831543 -4.12000131607055664 0.447284460067749023
-1.05386173725128174 1.43761050701141357 -0.651795566082000732
0.808867931365966797 -1.78458261489868164 -0.907533645629882812
0.46611320972442627 1.9514920711517334 -0.846978664398193359
3.19560575485229492 -2.7509307861328125 0.165574595332145691
-2.68426847457885742 -2.76324772834777832 0.442079484462738037
1.73487222194671631 0.213910281658172607 -1.03503584861755371
-0.983345985412597656 -1.61674463748931885 1.61105382442474365
1.19116437435150146 4.95101404190063477 -1.34394800662994385
0.407746732234954834 -0.141198873519897461 0.320001482963562012
-2.2432255744934082 -2.19012904167175293 2.00415349006652832
1.45795440673828125 2.58351469039916992 0.201313048601150513
-2.88920283317565918 -5.92174291610717773 -0.405822008848190308
-0.853977203369140625 -4.12813997268676758 0.437858790159225464
0.246999561786651611 1.30741655826568604 0.104071900248527527
-2.09282398223876953 2.7233116626739502 -0.414645552635192871
-2.27104520797729492 -4.62109279632568359 -0.5679587721824646
0.428777724504470825 3.90682363510131836 -0.833020985126495361
-2.08769106864929199 0.270028829574584961 -0.444726645946502686
1.57284688949584961 2.1300969123840332 0.599200189113616943
-0.0606168806552886963 -1.72268426418304443 0.055108979344367981
1.02033936977386475 1.1380385160446167 0.218241631984710693
-2.83193778991699219 -3.59521293640136719 0.488142251968383789
1.77388882637023926 1.34126162528991699 0.142410382628440857
-1.2233196496963501 0.557411849498748779 0.553504288196563721
-0.0600850582122802734 -1.74170565605163574 0.339775741100311279
0.394303858280181885 3.12027144432067871 0.562311172485351562
-1.31905317306518555 -2.31884860992431641 -0.109493866562843323
1.72143387794494629 -2.92174243927001953 0.580763697624206543
-1.86286735534667969 -5.22405767440795898 0.471505045890808105
-2.63715195655822754 -5.47118806838989258 0.530503571033477783
-1.0317915678024292 -0.661900937557220459 0.562747597694396973
1.0868220329284668 5.03467988967895508 -0.0582962930202484131
-3.1974799633026123 2.77694320678710938 0.340669125318527222
0.845965325832366943 -0.809272170066833496 0.0229556858539581299
-2.02742171287536621 1.63993585109710693 0.336575508117675781
1.06243336200714111 0.996292948722839355 0.330593109130859375
-2.4107513427734375 -2.71865701675415039 0.0388812273740768433
0.34317094087600708 1.87787830829620361 0.590245962142944336
-3.33493471145629883 0.272249758243560791 -0.436434000730514526
-0.0251573771238327026 -0.829535603523254395 -0.842883646488189697
2.24710774421691895 -2.02500724792480469 -0.149265497922897339
-3.40885114669799805 -4.43203544616699219 -0.498857080936431885
1.68855905532836914 3.84765720367431641 -0.867197036743164062
-1.15670478343963623 -1.7224116325378418 -0.499317914247512817
1.73415040969848633 0.12417331337928772 0.162188112735748291
1.63477396965026855 1.97636508941650391 -0.588956177234649658
-0.0433192849159240723 -0.541391968727111816 -0.269208431243896484
-1.61729669570922852 0.652858316898345947 -0.655380725860595703
0.99097132682800293 1.21041405200958252 -0.91412043571472168
-2.09365510940551758 -4.37146615982055664 0.541895031929016113
0.990106701850891113 1.27578914165496826 1.39894747734069824
0.0597315356135368347 -1.94117045402526855 1.44257044792175293
-1.74188911914825439 -3.28357052803039551 0.18433062732219696
2.04108476638793945 2.59888005256652832 0.0755690783262252808
-0.984274744987487793 -0.555082321166992188 1.66329312324523926
0.704591572284698486 -3.0456082820892334 0.17490290105342865
-2.66463923454284668 0.644687175750732422 0.365702629089355469
-2.18531274795532227 -1.90700244903564453 0.99912559986114502
-2.90771079063415527 -5.20452165603637695 0.293197900056838989
-2.69870853424072266 -4.3997645378112793 -0.51826024055480957
-1.89463973045349121 -4.11364316940307617 0.29151502251625061
0.354586601257324219 1.79722213745117188 0.29654383659362793
-0.863306522369384766 -5.10158824920654297 0.209180861711502075
-2.31986308097839355 -6.12441873550415039 0.458723694086074829
-1.15212714672088623 -4.3209376335144043 -0.51424252986907959
0.347647577524185181 1.30310142040252686 1.1104351282119751
0.376042425632476807 1.27381312847137451 -0.838177263736724854
-0.953450441360473633 0.987049698829650879 1.12565004825592041
1.07416832447052002 4.8492431640625 1.07737863063812256
-3.7919011116027832 -3.92727971076965332 0.541889011859893799
0.96854633092880249 0.233465105295181274 -0.420176506042480469
1.07323050498962402 5.63706779479980469 -0.805132091045379639
1.62492036819458008 3.05374264717102051 0.369998008012771606
0.842524409294128418 -1.79755568504333496 0.0676752924919128418
-1.03850626945495605 -1.62983596324920654 0.433414369821548462
0.0376125723123550415 -0.79688572883605957 0.521085858345031738
1.7340850830078125 1.13169956207275391 -0.400922060012817383
-0.431986510753631592 -2.31197309494018555 0.195978924632072449
-2.96902608871459961 -5.25707054138183594 -0.398469835519790649
-2.86723470687866211 -1.85914480686187744 0.0760417357087135315
2.31385946273803711 -3.00317192077636719 -0.13593253493309021
0.678800284862518311 0.497076123952865601 -0.351023077964782715
1.4315037727355957 -2.01662707328796387 0.31211477518081665
0.69252389669418335 4.0171351432800293 0.604528605937957764
-2.94155097007751465 -4.59120273590087891 0.359478890895843506
-0.976896405220031738 1.09860444068908691 0.177091881632804871
-0.013910338282585144 -1.82276797294616699 -0.547767519950866699
0.897544741630554199 0.37312433123588562 0.688599169254302979
-3.32865500450134277 2.53989076614379883 -0.498150646686553955
-0.936812281608581543 -3.04603815078735352 0.292151182889938354
0.842944025993347168 -0.845455944538116455 -0.900646030902862549
-0.118111193180084229 -1.69466781616210938 -0.807517468929290771
-2.38712048530578613 2.45695972442626953 0.31650853157043457
-1.65569627285003662 -2.28893613815307617 0.0492097809910774231
-1.38375091552734375 -6.00470161437988281 0.478384286165237427
0.745875358581542969 2.57543039321899414 0.309447020292282104
-2.16555929183959961 -2.31819486618041992 -0.125407248735427856
0.740355134010314941 1.3678126335144043 -0.327556520700454712
-0.924751102924346924 0.608022034168243408 -0.322007268667221069
2.08333539962768555 2.34797358512878418 0.0385083481669425964
1.0601353645324707 1.95134758949279785 0.208383664488792419
1.4501793384552002 -2.92557144165039062 -0.191764116287231445
3.04649639129638672 -1.98616766929626465 0.26241949200630188
0.331989884376525879 0.760966360569000244 0.32901427149772644
-0.335325717926025391 -0.997519016265869141 0.280204713344573975
-2.49299097061157227 -3.25019979476928711 -0.131422519683837891
0.909589409828186035 2.54454517364501953 0.58138662576675415
2.11233758926391602 -2.20342898368835449 0.638645648956298828
1.07605266571044922 0.204450607299804688 0.310968220233917236
-2.90679216384887695 -3.93287372589111328 -0.18625350296497345
-1.69745516777038574 -2.59209132194519043 0.471390247344970703
-2.26335525512695312 -2.08134818077087402 -0.409691333770751953
1.49955260753631592 5.60145664215087891 -1.33337676525115967
0.483069151639938354 3.86877679824829102 -0.119702786207199097
-3.3805854320526123 -5.42189168930053711 0.431042462587356567
1.57831752300262451 3.83788800239562988 -0.13972000777721405
-2.3850100040435791 -4.63759899139404297 0.459816217422485352
-0.039123833179473877 -1.37625730037689209 0.971892833709716797
-3.34790897369384766 0.336660444736480713 0.290454447269439697
0.415498197078704834 2.0063624382019043 -0.118209153413772583
1.5407257080078125 5.31080293655395508 -0.442682266235351562
1.07302260398864746 1.78451621532440186 0.322952508926391602
0.352773934602737427 2.12780475616455078 -0.349617838859558105
-2.98390293121337891 2.06358528137207031 0.315346002578735352
1.69941353797912598 5.25331211090087891 1.0614241361618042
0.129532814025878906 -0.854697823524475098 -0.154808729887008667
-2.44187045097351074 -2.48083138465881348 0.667829632759094238
-1.39490342140197754 -4.61699199676513672 0.425294280052185059
-2.03330063819885254 0.915748119354248047 0.286019831895828247
-1.03602218627929688 -1.20624172687530518 1.02055585384368896
-2.65625953674316406 1.36654853820800781 0.318739652633666992
1.59672069549560547 2.30186581611633301 -0.00980381295084953308
-1.15504944324493408 -0.574240684509277344 -0.102848738431930542
1.4035027027130127 5.31617212295532227 0.460198968648910522
1.10145878791809082 3.41316628456115723 0.589732050895690918
1.08476030826568604 4.98482084274291992 -0.672047853469848633
1.75778520107269287 3.22705602645874023 0.163705363869667053
-1.07405638694763184 0.529952168464660645 1.40705418586730957
1.72927641868591309 0.820217132568359375 0.156967312097549438
0.996927917003631592 1.79333746433258057 0.602928757667541504
-2.08414053916931152 -5.08088541030883789 0.451479673385620117
-2.12281107902526855 0.268841862678527832 0.265238583087921143
0.451448738574981689 -1.30200517177581787 0.258895158767700195
0.716505110263824463 5.43671464920043945 0.993760585784912109
0.805933713912963867 5.47037506103515625 -1.31198728084564209
-0.962441444396972656 1.09126615524291992 1.81358623504638672
-2.89992833137512207 -5.83591270446777344 0.269864201545715332
1.04028856754302979 -2.4467616081237793 -0.0103345811367034912
1.9040604829788208 -2.55910801887512207 0.0812665671110153198
1.04738700389862061 1.0872567892074585 0.805814623832702637
2.5808861255645752 -2.63941550254821777 0.303393244743347168
-2.27877330780029297 -2.03391528129577637 0.292235583066940308
1.07785344123840332 5.64414596557617188 -0.17654004693031311
1.73678970336914062 1.15440046787261963 -1.02761721611022949
-3.54528641700744629 -4.59607028961181641 0.0740577280521392822
-2.43895697593688965 -4.51369810104370117 -0.0358130782842636108
0.823828816413879395 0.54846268892288208 0.0681108534336090088
-2.88402485847473145 -4.69338417053222656 -0.409515619277954102
-1.38412582874298096 0.773198485374450684 -0.0678207427263259888
0.821586072444915771 0.671943128108978271 1.43698358535766602
-2.3197789192199707 -3.86445093154907227 0.462685227394104004
1.54447174072265625 2.01657366752624512 0.00509461760520935059
0.994720220565795898 1.10425341129302979 -0.332982242107391357
-0.867874264717102051 -5.73532438278198242 0.302250117063522339
1.26800203323364258 -2.49013805389404297 0.641563773155212402
1.0164341926574707 0.206647723913192749 -1.02142786979675293
-3.26293563842773438 -4.10815858840942383 0.369975507259368896
1.70702028274536133 0.237492650747299194 -0.461730211973190308
-1.7613910436630249 -2.76440048217773438 -0.0966684147715568542
-1.27020609378814697 -3.24696111679077148 -0.127329424023628235
-0.159160315990447998 -1.42040741443634033 1.54012751579284668
-1.20940828323364258 -1.09845852851867676 0.221565559506416321
-1.01613068580627441 -2.48017287254333496 0.329765021800994873
2.74171972274780273 -2.3858182430267334 -0.185237199068069458
-2.40294218063354492 -5.45204591751098633 0.427413344383239746
-0.562505722045898438 -0.488030910491943359 0.189399823546409607
-0.193719148635864258 -1.16277289390563965 0.140280753374099731
0.670385777950286865 -2.5111842155456543 0.439838379621505737
0.345481634140014648 2.52324032783508301 0.586948692798614502
-1.32425010204315186 -5.43476057052612305 0.465921878814697266
-0.592620193958282471 -3.1561427116394043 -0.192813411355018616
1.08922815322875977 2.36911559104919434 0.565083682537078857
-3.25551509857177734 0.901166856288909912 0.362747251987457275
-0.0136899650096893311 -0.505701303482055664 0.290540516376495361
1.5419914722442627 -2.14529681205749512 -0.195941686630249023
1.19058763980865479 0.105345040559768677 0.0678735077381134033
-2.66156744956970215 -4.39677286148071289 0.0430535674095153809
0.538282394409179688 1.24766457080841064 0.354155093431472778
-1.08230125904083252 -1.09535682201385498 1.64483976364135742
-2.67922019958496094 -2.71682310104370117 -0.0754956901073455811
0.00189195573329925537 -0.81258547306060791 1.04923820495605469
-0.767311811447143555 -2.63085222244262695 -0.0924292802810668945
-0.56428152322769165 -1.51526641845703125 0.190805867314338684
1.25232219696044922 -2.98440742492675781 0.316201090812683105
-0.157197773456573486 -0.586393594741821289 -0.80279165506362915
-2.60606241226196289 -4.96075963973999023 0.330882608890533447
0.460501730442047119 1.30733776092529297 0.592404842376708984
-1.00726008415222168 -0.615844130516052246 1.11673831939697266
-2.91155147552490234 -4.69449520111083984 0.433895677328109741
2.12995219230651855 2.38934564590454102 0.0855353176593780518
-0.0760600566864013672 -2.53220272064208984 -0.159244775772094727
-3.35656929016113281 -3.59715986251831055 0.465898424386978149
-2.26848888397216797 -2.11035799980163574 1.49903655052185059
-2.71398806571960449 -2.32802700996398926 -0.159352958202362061
-1.01242327690124512 0.611923336982727051 0.234661906957626343
-0.89689558744430542 -4.40550613403320312 -0.00875382125377655029
-0.850990176200866699 -4.66692590713500977 0.443463563919067383
-2.39650821685791016 -4.12450838088989258 0.473669469356536865
-2.23282241821289062 -3.1097416877746582 0.294113188982009888
0.444125264883041382 1.30071079730987549 -0.357128679752349854
-1.90657424926757812 -5.79953718185424805 0.426923871040344238
-3.36120104789733887 -4.89002466201782227 0.543227493762969971
1.05622315406799316 0.169273555278778076 -0.364961296319961548
0.158874854445457458 1.29485881328582764 1.62655222415924072
2.49314618110656738 -2.02106785774230957 0.290247678756713867
1.44597351551055908 2.61856865882873535 0.597711563110351562
-2.50041484832763672 1.89368832111358643 0.360212802886962891
1.61751699447631836 3.53557014465332031 0.553473711013793945
-0.957433640956878662 0.84943234920501709 0.610495805740356445
1.03764533996582031 -1.99075555801391602 -0.225051730871200562
-1.35074722766876221 -2.99552464485168457 0.470557957887649536
-0.403099417686462402 -2.80568885803222656 0.230838745832443237
-3.09386229515075684 -5.11339569091796875 0.145288437604904175
1.56612241268157959 5.30612850189208984 -0.924397766590118408
0.465462982654571533 3.59809732437133789 0.410471439361572266
2.18116497993469238 -2.77379035949707031 0.603110790252685547
-1.40333104133605957 -4.10065460205078125 0.468323290348052979
-1.00415313243865967 1.04720234870910645 -0.267624735832214355
-2.7751002311706543 -4.09802103042602539 0.537811517715454102
-1.22600364685058594 0.948738694190979004 -0.600114703178405762
-3.63467884063720703 -4.3936004638671875 0.520554244518280029
0.845159769058227539 -1.7689281702041626 -0.428133010864257812
-2.525360107421875 -2.30903434753417969 0.223147913813591003
1.12444913387298584 3.84336447715759277 0.374562174081802368
-1.12849366664886475 0.420806735754013062 -0.568248510360717773
-1.88125050067901611 -4.72284317016601562 0.47658008337020874
-1.13229274749755859 0.726916313171386719 0.980110049247741699
0.372274994850158691 -1.81333339214324951 0.117437675595283508
-2.51728463172912598 -1.54966402053833008 0.0693856179714202881
-2.6473548412322998 -6.11038589477539062 -0.0441390275955200195
