ply
format ascii 1.0
element vertex 256
comment vertices
property float x
property float y
property float z
end_header
-2.66366815567016602 0.0465780943632125854 0.387532472610473633
3.48749375343322754 2.39024949073791504 0.652679264545440674
0.386774003505706787 -3.05569362640380859 0.140372425317764282
-0.155479356646537781 1.82890665531158447 0.775678694248199463
-1.65614116191864014 -2.63971924781799316 2.44027543067932129
0.067245975136756897 -0.192416608333587646 0.0438422337174415588
-2.26174759864807129 3.43562459945678711 0.0635165497660636902
-1.37975800037384033 -0.482771962881088257 1.55384504795074463
-3.31767416000366211 -2.21578240394592285 0.102423787117004395
0.860989511013031006 0.727374076843261719 -0.710471689701080322
-0.748197376728057861 -1.5088430643081665 -0.0376207120716571808
-1.67918694019317627 1.04070937633514404 0.129056289792060852
0.695006728172302246 1.26213812828063965 2.18753480911254883
0.893430233001708984 2.31950283050537109 -0.555826425552368164
-1.75678336620330811 -2.32730364799499512 -0.244900315999984741
-1.19478678703308105 0.534613847732543945 1.42875015735626221
-2.88442635536193848 -2.26272416114807129 1.43209409713745117
0.46108555793762207 -3.08689069747924805 0.0943149775266647339
-0.200413703918457031 0.551123678684234619 -0.930289983749389648
-2.20268464088439941 -0.463085055351257324 -0.874209702014923096
-1.78123974800109863 -2.39877748489379883 -0.827886223793029785
0.0794767439365386963 2.22386622428894043 0.0593460835516452789
-0.308189451694488525 0.336250722408294678 1.04253339767456055
0.0892605483531951904 -2.31814074516296387 0.0469664186239242554
-4.15848731994628906 -0.057369135320186615 -0.250146389007568359
-3.32258009910583496 -0.192500412464141846 0.10692557692527771
-2.25218510627746582 1.42728662490844727 0.0812143981456756592
-0.642427206039428711 2.43038249015808105 -0.0712390094995498657
-1.78001046180725098 -1.18059313297271729 0.0788242891430854797
-0.0951891541481018066 0.0677923187613487244 0.0548990145325660706
-3.27884912490844727 0.817959964275360107 1.76475739479064941
1.43631172180175781 -1.25420641899108887 0.0160528235137462616
-1.2179725170135498 1.54698038101196289 0.0458543896675109863
-2.03090977668762207 -1.26783561706542969 0.403215020895004272
1.77515959739685059 2.22915983200073242 0.817501425743103027
-0.190680623054504395 1.4712756872177124 -0.882278680801391602
-2.11977481842041016 -0.677472591400146484 0.214843571186065674
-1.8168947696685791 -0.0565912127494812012 -0.292092651128768921
1.58821749687194824 1.917746901512146 -0.208081409335136414
-3.24473404884338379 0.729594826698303223 -0.83225017786026001
0.834916949272155762 1.36449360847473145 0.616790413856506348
0.431135118007659912 -3.08153343200683594 0.143336564302444458
0.386932373046875 -0.58404541015625 -0.0157886669039726257
0.23284478485584259 0.745959103107452393 -0.166590914130210876
-2.37610912322998047 -0.17834705114364624 0.144865125417709351
-0.201813161373138428 0.552090764045715332 0.510288000106811523
-0.544411003589630127 -1.26786172389984131 0.555936872959136963
-1.67011177539825439 -2.60688638687133789 1.21896207332611084
-1.38644886016845703 -0.450423985719680786 0.269703865051269531
-1.65785825252532959 -1.27410507202148438 -0.807003200054168701
0.423198729753494263 -3.08309435844421387 0.151707887649536133
-0.28810390830039978 1.60768401622772217 1.06401801109313965
0.187112808227539062 0.634586811065673828 0.571249246597290039
-3.92525720596313477 -1.21403980255126953 0.444329559803009033
-3.00376343727111816 -0.22079312801361084 0.20158134400844574
-1.15655505657196045 -0.604252517223358154 0.053589995950460434
-2.30023074150085449 -2.40096092224121094 0.281978875398635864
0.398621857166290283 -3.0809791088104248 0.152083545923233032
-2.87925291061401367 -1.1775815486907959 -0.74014747142791748
-1.03292465209960938 1.33468616008758545 0.588984310626983643
-1.79182958602905273 2.41246223449707031 -0.100928254425525665
-1.16337990760803223 0.513890385627746582 -0.396962165832519531
-2.78035783767700195 -1.22209835052490234 1.18239331245422363
-2.85564899444580078 -1.245880126953125 -0.0856151506304740906
0.324880778789520264 -1.27596259117126465 -0.0523982420563697815
-3.29273104667663574 -0.118077352643013 1.24945652484893799
-0.59618377685546875 -0.50074303150177002 0.34752306342124939
-0.246932715177536011 1.50992500782012939 -0.468882977962493896
2.18852996826171875 2.34050107002258301 -0.13332405686378479
-0.993767678737640381 1.55565524101257324 1.25421369075775146
-1.08527243137359619 -0.577811956405639648 -0.834362924098968506
-3.32804536819458008 0.811140656471252441 0.154291614890098572
0.408938288688659668 -3.07865786552429199 0.112026900053024292
-2.54380297660827637 -0.00307539105415344238 -0.625115692615509033
-2.84720301628112793 -2.41543769836425781 -0.659255504608154297
-2.74019145965576172 2.26054692268371582 0.285592406988143921
-1.15269660949707031 1.39999580383300781 -0.90476679801940918
0.217865526676177979 -1.53306317329406738 0.10461590439081192
-1.66829228401184082 -1.55059456825256348 0.153858989477157593
-2.44562220573425293 -0.202934160828590393 0.935499668121337891
1.05951845645904541 1.16580712795257568 -0.170295283198356628
-1.0386803150177002 0.321677654981613159 0.0698253288865089417
-0.2708759605884552 1.26387965679168701 0.0297612845897674561
0.424049317836761475 -3.08322572708129883 0.0968782752752304077
-2.93344736099243164 -1.79950356483459473 0.486249208450317383
-0.683952629566192627 -0.458220392465591431 0.792569458484649658
0.419656723737716675 -3.09226083755493164 0.119407810270786285
-1.20952320098876953 0.692060232162475586 0.569125235080718994
-3.89659547805786133 -0.0173474662005901337 0.587479233741760254
0.398685067892074585 -3.07085633277893066 0.138446837663650513
-2.56605815887451172 0.806678891181945801 -0.244124367833137512
-1.30688083171844482 -0.803694367408752441 -0.10773041844367981
-1.55693888664245605 -2.84997892379760742 0.386218428611755371
-0.452687293291091919 1.08632206916809082 1.13535952568054199
2.59433674812316895 2.20511770248413086 0.664563417434692383
0.00172728300094604492 1.38500750064849854 0.355849504470825195
1.19088280200958252 2.39529919624328613 0.24020838737487793
-3.25708961486816406 -0.0963648408651351929 -0.211054399609565735
-3.29688191413879395 0.648669183254241943 0.904396653175354004
0.866083085536956787 0.995705902576446533 1.33925223350524902
0.779509842395782471 0.807026207447052002 -0.0141751468181610107
0.80776667594909668 1.96540021896362305 -0.161106064915657043
-1.81846070289611816 -0.436553031206130981 0.898693203926086426
0.424461394548416138 1.32391965389251709 0.586966216564178467
0.36536407470703125 -3.06990432739257812 0.117437250912189484
-0.525618553161621094 1.19464790821075439 0.241171136498451233
-2.33196926116943359 0.11209511011838913 0.252511829137802124
-0.00957885384559631348 0.308195590972900391 0.388071894645690918
0.927001953125 0.395592153072357178 -0.17349909245967865
-2.50951790809631348 -1.1547086238861084 -0.101076290011405945
0.405943810939788818 -3.0792839527130127 0.119651049375534058
-0.224262416362762451 0.653119206428527832 -0.180117398500442505
-1.73639464378356934 0.148683115839958191 0.0481205098330974579
-0.172812104225158691 2.23023462295532227 0.707888603210449219
-2.1056523323059082 -0.457099020481109619 -0.164370983839035034
-0.206692665815353394 -1.02353429794311523 -0.0973081141710281372
0.842373132705688477 1.40678012371063232 -0.252979755401611328
-3.22383260726928711 -0.0373131632804870605 -0.874275267124176025
-0.626802325248718262 0.651329934597015381 0.644499540328979492
-1.81089568138122559 -1.92157661914825439 0.325755178928375244
0.611069083213806152 -0.612657666206359863 -0.0247996356338262558
-2.65297102928161621 0.688304305076599121 0.390503764152526855
-1.17402005195617676 1.12965166568756104 1.7250831127166748
-0.241128101944923401 1.0079113245010376 0.861879825592041016
-3.33908462524414062 0.219175621867179871 0.378656327724456787
-3.50493574142456055 0.171743109822273254 -0.117832660675048828
0.337413609027862549 1.43885672092437744 -0.225791275501251221
-0.704316198825836182 -1.17602241039276123 0.51275479793548584
0.594486355781555176 -1.9168168306350708 -0.0476377382874488831
-2.79562282562255859 -0.560748577117919922 -0.0452250689268112183
-1.21131086349487305 1.36796271800994873 0.690169930458068848
-1.65807914733886719 -2.60860276222229004 1.86823081970214844
-2.77403807640075684 -1.85408103466033936 -0.0307789631187915802
0.409229755401611328 -3.08161807060241699 0.134943589568138123
0.431672215461730957 -3.0799863338470459 0.117756158113479614
-0.783402383327484131 1.96611201763153076 0.622609198093414307
-1.65213668346405029 -0.157981052994728088 -0.807103395462036133
-0.68363267183303833 1.06701791286468506 -0.866314530372619629
-3.37695789337158203 0.140860751271247864 1.77414083480834961
1.43032598495483398 2.24454593658447266 -0.293009787797927856
-0.451750487089157104 -0.871058344841003418 0.123716294765472412
-3.46837282180786133 -1.27622580528259277 0.0372760482132434845
-1.24725449085235596 -0.552192211151123047 0.94700855016708374
-1.51143717765808105 -2.8810122013092041 -0.179231166839599609
-2.58173704147338867 0.789649486541748047 -0.839090585708618164
-2.34712910652160645 -1.21980953216552734 0.192066818475723267
0.87101435661315918 -1.21940147876739502 0.179014191031455994
-0.978367388248443604 0.989672064781188965 1.10007286071777344
-2.77887511253356934 0.125247687101364136 0.63213503360748291
2.13575506210327148 2.46064949035644531 0.432065188884735107
-1.20886826515197754 2.47353458404541016 0.0994506329298019409
-0.722601115703582764 0.559493303298950195 0.279000759124755859
-1.60136103630065918 -0.998366594314575195 0.360717475414276123
0.443883925676345825 -3.09701824188232422 0.118052937090396881
-1.47519457340240479 -0.464681655168533325 -0.38045850396156311
-0.515668511390686035 -1.64799273014068604 0.128669798374176025
-2.14159321784973145 2.87437033653259277 0.0526048392057418823
-2.91676211357116699 -1.78584039211273193 1.10184526443481445
-2.39539289474487305 -1.78897929191589355 0.216572031378746033
-2.2513267993927002 -1.12759709358215332 -0.775109052658081055
-0.21693950891494751 1.26876318454742432 0.606395483016967773
-1.76309525966644287 -2.30906248092651367 0.330255568027496338
0.796420931816101074 0.766833305358886719 0.607062220573425293
0.420246899127960205 -3.08794903755187988 0.12978045642375946
0.405232608318328857 -3.07872390747070312 0.122403562068939209
1.6335902214050293 1.33533835411071777 -0.226266413927078247
-1.1277846097946167 0.634146451950073242 -0.909893691539764404
-2.0675663948059082 1.95672130584716797 0.0565171316266059875
-2.62108016014099121 -1.29393887519836426 0.401184558868408203
-1.68935835361480713 -0.775385558605194092 -0.813817024230957031
-2.51101326942443848 -2.40325760841369629 -0.220962688326835632
-0.756030619144439697 -0.911520600318908691 0.00756041333079338074
-2.15234160423278809 -1.23457717895507812 0.16161733865737915
-1.985892653465271 -2.79463076591491699 0.049502301961183548
-0.539683699607849121 1.3829493522644043 -0.476121962070465088
-1.14947700500488281 -1.48351263999938965 0.321448385715484619
-0.303120344877243042 -1.46844279766082764 0.289493054151535034
0.415255934000015259 -3.05602812767028809 0.132723778486251831
-0.098338782787322998 -0.607738971710205078 0.277902364730834961
0.525765538215637207 -1.06373608112335205 0.202666997909545898
-0.0273768603801727295 0.863599419593811035 0.313347935676574707
0.392217069864273071 -3.06254434585571289 0.129065051674842834
-3.39765286445617676 0.112313210964202881 0.40189594030380249
-2.71676826477050781 0.290135771036148071 -0.00663909316062927246
-1.00875532627105713 -0.145461931824684143 0.475769758224487305
-1.04807460308074951 -0.763214409351348877 0.425727605819702148
-0.150867193937301636 1.49365174770355225 0.143522456288337708
-2.35077762603759766 -0.0550257600843906403 -0.277405530214309692
0.404470473527908325 -3.07790637016296387 0.14026978611946106
0.420746952295303345 -3.08772611618041992 0.1285371333360672
-3.7100212574005127 -0.315672188997268677 -0.0364270061254501343
0.450876414775848389 -3.07445836067199707 0.107729144394397736
-0.140578791499137878 -1.26568198204040527 0.218560069799423218
-1.31054675579071045 -2.46324992179870605 0.0518314279615879059
-3.2677304744720459 0.623636364936828613 -0.320421427488327026
-1.58137667179107666 -0.477052301168441772 0.205378919839859009
-1.94376480579376221 -0.454246997833251953 0.368172168731689453
-1.26423990726470947 -0.11830323189496994 -0.103943362832069397
-3.20468974113464355 0.494329601526260376 1.40695500373840332
-0.627593636512756348 -0.0305484198033809662 0.0897764638066291809
-2.37658190727233887 2.3953545093536377 -0.0618741139769554138
-2.52784562110900879 0.0804941505193710327 -0.0879254788160324097
-0.779792666435241699 1.45099735260009766 0.930495738983154297
1.70151925086975098 2.26872754096984863 0.134663313627243042
-1.79236054420471191 0.0201999731361865997 0.190813302993774414
0.413880199193954468 -3.09362578392028809 0.117273926734924316
-2.26476526260375977 0.335683494806289673 0.160868853330612183
-1.12510502338409424 -0.601850330829620361 0.308970838785171509
-2.29822516441345215 -2.46979522705078125 -0.809456765651702881
-1.04391741752624512 1.07025015354156494 0.250039756298065186
-3.21879053115844727 -0.0907422155141830444 0.726909935474395752
0.705312907695770264 0.805431663990020752 2.12977910041809082
-0.0690059959888458252 1.88165891170501709 0.386428236961364746
-1.20274829864501953 0.766762495040893555 0.00993512943387031555
-1.09405624866485596 1.54229211807250977 -0.43548893928527832
-2.81990814208984375 2.71700930595397949 0.466982811689376831
0.38982081413269043 -3.04885149002075195 0.118519671261310577
-0.366860747337341309 -0.551780939102172852 -0.0988686829805374146
-2.79292392730712891 -2.18100166320800781 0.848446488380432129
-1.60000371932983398 -0.808274328708648682 0.0744967013597488403
0.847356557846069336 1.33284437656402588 0.157796263694763184
0.208928301930427551 0.260915160179138184 -0.0909666717052459717
-1.20853507518768311 0.542695164680480957 0.092235863208770752
1.21419227123260498 2.21708440780639648 -0.160360470414161682
-1.27448368072509766 -1.32293510437011719 -0.09609965980052948
0.436097621917724609 -3.08613991737365723 0.115065008401870728
1.41514968872070312 0.79748082160949707 -0.243020027875900269
2.98566055297851562 2.44236397743225098 0.518516719341278076
0.598187386989593506 1.02361583709716797 -0.220503151416778564
-0.354758620262145996 1.4227222204208374 -0.896694302558898926
-1.71306753158569336 -1.10264229774475098 -0.0662948340177536011
-4.14558887481689453 -0.280688196420669556 0.281354457139968872
0.958647072315216064 2.23248815536499023 -0.144548043608665466
0.376191854476928711 -3.06136155128479004 0.130008786916732788
-0.828863918781280518 1.54292106628417969 0.423085004091262817
-0.995306551456451416 0.539214134216308594 0.959143340587615967
-2.96001482009887695 0.352084308862686157 0.214047089219093323
-0.178131639957427979 1.31056654453277588 0.554936528205871582
0.0120155215263366699 -1.06034457683563232 0.296921610832214355
0.432827115058898926 -3.08205318450927734 0.120758280158042908
-4.17001533508300781 0.216324701905250549 0.298688173294067383
0.0921325832605361938 1.01560699939727783 0.813055634498596191
0.398239672183990479 -3.06394052505493164 0.144108489155769348
0.354056656360626221 1.86807894706726074 -0.169444441795349121
-2.72052669525146484 -2.179107666015625 0.345134973526000977
-2.45295596122741699 -0.255657106637954712 0.500822544097900391
-0.0925235748291015625 1.38520455360412598 1.01925158500671387
1.33968734741210938 2.27913260459899902 -0.712933182716369629
1.24681544303894043 1.62068271636962891 -0.213456138968467712
-1.66215276718139648 -2.60200071334838867 0.74014127254486084
-3.14025139808654785 -0.140955239534378052 0.273251950740814209
-0.156810358166694641 1.02306580543518066 -0.839954614639282227
-0.170716524124145508 -1.50501275062561035 -0.115799263119697571
0.380949020385742188 -3.07706260681152344 0.131231486797332764
-1.75820815563201904 -0.453591972589492798 1.32702255249023438
-3.85841464996337891 -1.53968513011932373 0.154374003410339355
