ply
format ascii 1.0
element vertex 196
comment vertices
property float x
property float y
property float z
end_header
4.52159357070922852 2.37749361991882324 0.980307579040527344
0.647596359252929688 -4.1483759880065918 0.00615113973617553711
-3.47874355316162109 -1.88464021682739258 0.565673768520355225
-3.2604973316192627 6.02199029922485352 0.275547623634338379
0.342707425355911255 3.85283565521240234 0.342584341764450073
-4.67470312118530273 3.76229667663574219 0.183272480964660645
0.246933281421661377 -0.924004614353179932 0.304026782512664795
2.83512067794799805 1.26645922660827637 0.445217818021774292
-0.13696327805519104 2.05837035179138184 0.311453104019165039
-2.6082305908203125 0.34660714864730835 -0.0122550539672374725
-0.403035849332809448 -0.619705379009246826 0.679666399955749512
-1.16027987003326416 3.731475830078125 0.379474759101867676
1.32410168647766113 2.32772707939147949 -0.0270767807960510254
0.40501934289932251 1.40713250637054443 0.808030366897583008
-1.93886125087738037 0.194322541356086731 0.216861605644226074
0.190479829907417297 -0.867674946784973145 0.473346173763275146
5.15025949478149414 1.98284041881561279 0.287283957004547119
-2.08929824829101562 3.68638896942138672 0.320873796939849854
-0.397406160831451416 1.27384400367736816 0.469617247581481934
-1.18555963039398193 1.35881924629211426 -0.12300795316696167
-5.12052011489868164 3.89470243453979492 0.810333847999572754
-1.97748386859893799 0.16193661093711853 0.501382589340209961
-1.87476599216461182 -1.95330238342285156 0.42924576997756958
0.571893155574798584 -1.72864425182342529 0.0922051891684532166
-3.52290487289428711 0.390857577323913574 0.643523454666137695
-0.232776045799255371 0.802556157112121582 0.0935528874397277832
2.83607578277587891 1.27982079982757568 0.442515820264816284
-2.57086372375488281 2.31104397773742676 0.370748847723007202
-1.94149434566497803 -1.83590102195739746 -0.0544095784425735474
-1.1074826717376709 2.54397130012512207 0.0223708935081958771
2.83252882957458496 1.26742970943450928 0.446550518274307251
0.781605362892150879 0.888379752635955811 0.394194722175598145
0.778773486614227295 2.2862544059753418 0.530781388282775879
2.31562900543212891 -2.8435966968536377 -0.020001579076051712
1.24603080749511719 2.49285340309143066 -0.0216858536005020142
-1.69461190700531006 5.24643087387084961 0.329179435968399048
-1.29424667358398438 2.26984930038452148 0.197415947914123535
-2.16503596305847168 3.74220895767211914 0.0166252851486206055
-3.38388824462890625 4.2167363166809082 0.308914422988891602
0.289399564266204834 -1.3127601146697998 0.405326187610626221
-0.174043834209442139 2.144256591796875 0.0834978371858596802
1.08316612243652344 0.763553798198699951 0.443776726722717285
-3.81823492050170898 2.78356480598449707 0.0817511081695556641
-3.80434989929199219 1.92623043060302734 0.0535134486854076385
-1.17561733722686768 2.01108026504516602 0.275043129920959473
2.83574938774108887 1.27326512336730957 0.443893104791641235
-1.01686656475067139 2.36597490310668945 0.329457372426986694
2.83552694320678711 1.26633048057556152 0.444987088441848755
-0.260625541210174561 -2.98356294631958008 0.067683100700378418
-0.829140245914459229 -2.01642918586730957 -0.00757052004337310791
-1.94576942920684814 6.14308977127075195 0.0459375977516174316
-3.17518186569213867 -2.25802087783813477 -0.058611258864402771
-2.39951229095458984 1.75611710548400879 0.102700024843215942
-0.962205410003662109 3.82547140121459961 0.0218087136745452881
2.83796930313110352 1.26817941665649414 0.442454636096954346
-2.9123234748840332 3.82592058181762695 0.0268484354019165039
-1.25835156440734863 3.34829258918762207 0.213940948247909546
2.83403897285461426 1.26942539215087891 0.445267975330352783
-1.93124628067016602 1.27896392345428467 0.360371947288513184
-4.61583852767944336 3.3789827823638916 0.277610480785369873
1.34778869152069092 3.65198469161987305 -0.0425615683197975159
-0.356675624847412109 2.22014999389648438 0.591062188148498535
-3.44675016403198242 0.264806807041168213 0.022908337414264679
-2.08163952827453613 1.51530790328979492 0.562445282936096191
0.0219267085194587708 0.795353591442108154 0.213061317801475525
-0.732219040393829346 1.09484016895294189 0.205649718642234802
0.98525238037109375 -2.95830774307250977 0.054406236857175827
2.83303976058959961 1.26751124858856201 0.446162998676300049
-3.18764805793762207 -0.831354260444641113 0.246114015579223633
-2.18032002449035645 3.58767032623291016 0.350112736225128174
-2.51015901565551758 -0.767484545707702637 0.207419887185096741
0.451835095882415771 1.25171685218811035 1.10081732273101807
-4.65312623977661133 2.684112548828125 0.00875117629766464233
-2.30841565132141113 6.08660316467285156 0.295310467481613159
0.944845914840698242 0.95155036449432373 0.448891401290893555
-3.92086577415466309 3.99393820762634277 0.153350606560707092
1.10696899890899658 1.1831517219543457 0.411765098571777344
-2.96410727500915527 6.06943130493164062 0.0439937710762023926
1.27844512462615967 0.51884007453918457 0.286450505256652832
-1.92426657676696777 3.7401726245880127 0.0541234016418457031
1.01495802402496338 0.987724900245666504 0.329311549663543701
-0.811373114585876465 2.87327384948730469 0.533482909202575684
0.549778521060943604 0.600874841213226318 0.488651573657989502
-0.0880943462252616882 -1.81027424335479736 -0.0422333702445030212
-3.01617622375488281 3.44491004943847656 0.272217780351638794
-1.59381198883056641 1.48436427116394043 0.279084175825119019
0.0412980988621711731 -0.0441496223211288452 -0.0292914807796478271
-2.6659085750579834 1.61559391021728516 0.0738305747509002686
-0.942915797233581543 2.26805663108825684 0.182829201221466064
-2.09616518020629883 -1.0453873872756958 0.461847364902496338
-1.33528757095336914 0.197748541831970215 0.093021094799041748
0.164490222930908203 3.20684981346130371 0.284064799547195435
2.83544540405273438 1.26618194580078125 0.44516107439994812
-2.75088763236999512 -0.238248035311698914 0.214583367109298706
-3.47348427772521973 -1.68356657028198242 0.0947003215551376343
2.83795619010925293 1.27425479888916016 0.442836403846740723
-0.517168343067169189 0.0957727581262588501 0.314334392547607422
0.0377337485551834106 -1.05409812927246094 0.338312983512878418
1.26251125335693359 2.12885665893554688 -0.0213786140084266663
-1.13965129852294922 1.71593832969665527 0.367821544408798218
4.69748401641845703 2.1670539379119873 0.410224318504333496
0.321149289608001709 1.28335869312286377 0.403481364250183105
-0.0797623023390769958 2.26348423957824707 0.0218634903430938721
-2.03584957122802734 2.31170487403869629 0.589895367622375488
-1.30533134937286377 3.26894116401672363 0.386409938335418701
-0.0886263996362686157 2.33995509147644043 -0.0320978164672851562
-4.39516115188598633 3.19414043426513672 0.118621952831745148
-3.24252700805664062 -0.647016465663909912 0.283569157123565674
0.259374320507049561 -1.09311437606811523 0.486155688762664795
0.19476887583732605 3.10106086730957031 0.317448019981384277
2.83496642112731934 1.26559853553771973 0.445512831211090088
-1.47850942611694336 -1.50777685642242432 0.0388567745685577393
-1.87910377979278564 1.5683143138885498 0.22555987536907196
2.83484220504760742 1.27015471458435059 0.445217311382293701
2.83777332305908203 1.26830780506134033 0.443841367959976196
-0.379760444164276123 3.6105961799621582 0.41494673490524292
1.37803208827972412 3.04920506477355957 0.091265067458152771
-0.620471000671386719 0.477475672960281372 0.273884236812591553
-1.56693267822265625 3.64873409271240234 0.0715951323509216309
-1.85919404029846191 -0.414285987615585327 0.416947305202484131
2.83418059349060059 1.26800704002380371 0.445679128170013428
-1.60141408443450928 1.86198318004608154 0.349915176630020142
-0.116149254143238068 1.90258002281188965 0.455208361148834229
-2.83167314529418945 2.22004151344299316 0.255667388439178467
-0.969820857048034668 -0.870548129081726074 0.0855372771620750427
2.83144211769104004 1.26776123046875 0.446614384651184082
-0.456227600574493408 2.39078760147094727 0.166559755802154541
2.83666896820068359 1.26751530170440674 0.444345951080322266
0.78296428918838501 3.93068909645080566 0.110378287732601166
-1.8819127082824707 1.5795900821685791 0.263181746006011963
-0.975654065608978271 3.37536954879760742 0.0462091937661170959
-1.24284505844116211 0.368558645248413086 0.146753132343292236
-3.79465961456298828 -0.579505205154418945 0.308183431625366211
0.459856867790222168 2.56265544891357422 0.198809698224067688
-2.41182327270507812 -2.19122767448425293 -0.0777526348829269409
-2.38696050643920898 0.359100997447967529 0.277280300855636597
0.992369294166564941 -3.02550864219665527 0.125372231006622314
-1.11110973358154297 -0.123444221913814545 0.393366515636444092
1.00755369663238525 -2.50960922241210938 0.189586400985717773
0.0717439427971839905 3.18061637878417969 0.279041767120361328
-3.46776485443115234 0.138558283448219299 0.493903040885925293
-2.36233901977539062 3.32488560676574707 0.182273894548416138
-3.0121307373046875 -0.903222382068634033 0.167583227157592773
-3.3038182258605957 -0.219267517328262329 0.21075594425201416
-3.3434901237487793 -2.17168593406677246 0.234285145998001099
-0.0110273361206054688 0.48893401026725769 0.504476785659790039
-2.49620628356933594 3.59240412712097168 -0.00322925299406051636
-1.04403817653656006 3.5687556266784668 0.465907782316207886
-1.69722509384155273 3.80422663688659668 0.360695749521255493
-2.79997539520263672 5.87314271926879883 0.347923517227172852
5.31575489044189453 2.11940693855285645 0.429227083921432495
0.910235881805419922 2.51048469543457031 0.168887108564376831
1.1782156229019165 3.63699674606323242 0.130562901496887207
-1.39657819271087646 2.09708976745605469 0.205078989267349243
-0.304114490747451782 0.480348736047744751 0.0783443227410316467
-1.25345659255981445 0.373392105102539062 0.126347005367279053
-1.03577911853790283 3.81149005889892578 -0.0223214924335479736
2.8327186107635498 1.26801216602325439 0.446702063083648682
-2.47829174995422363 3.58613705635070801 0.291235208511352539
-0.183067932724952698 1.59295713901519775 0.417847514152526855
-0.154950737953186035 1.67853188514709473 0.321525394916534424
-3.56651687622070312 -0.375371932983398438 0.393654584884643555
-2.61491703987121582 3.00589656829833984 0.365413099527359009
-2.13676166534423828 -1.47461271286010742 0.0457769483327865601
-1.49441051483154297 1.5649569034576416 0.179937452077865601
-0.22550027072429657 0.419156491756439209 0.10732734203338623
-2.58601808547973633 4.78687667846679688 0.272992968559265137
-0.63090437650680542 2.86640691757202148 0.0914844423532485962
-0.531544506549835205 3.77984046936035156 0.193674534559249878
-1.91756212711334229 -0.195757031440734863 0.0131938308477401733
-4.95520305633544922 3.67005181312561035 0.504019260406494141
0.281714022159576416 2.26884317398071289 0.536455273628234863
-2.58899283409118652 4.80474472045898438 0.271125704050064087
-2.09477496147155762 5.96880960464477539 -0.0317249298095703125
-3.45653009414672852 1.88331890106201172 0.281112462282180786
-2.26093149185180664 0.409765005111694336 0.203224629163742065
-2.46036195755004883 1.86412346363067627 0.137739628553390503
-3.41146183013916016 5.63490533828735352 0.292689770460128784
-0.445304661989212036 2.47050166130065918 0.415752887725830078
-2.11088752746582031 3.62616991996765137 0.0305528342723846436
0.539884984493255615 1.10447597503662109 0.717011809349060059
0.648882269859313965 1.14562773704528809 0.559602856636047363
-3.04613566398620605 5.9852757453918457 0.00925345718860626221
-3.28925108909606934 4.8484339714050293 0.317623257637023926
-2.27042293548583984 5.26549386978149414 0.306989431381225586
-1.02083432674407959 3.52406907081604004 0.0216159224510192871
-1.22775769233703613 1.76838088035583496 0.187337189912796021
0.101270027458667755 3.07523512840270996 0.149800524115562439
-3.07438254356384277 0.320001959800720215 -0.0287054181098937988
-0.134585052728652954 0.595329940319061279 0.216518610715866089
1.27705287933349609 0.40033683180809021 0.128499507904052734
1.09500002861022949 0.76243126392364502 0.459280163049697876
-3.21297597885131836 3.61700177192687988 0.00983754545450210571
-1.78971767425537109 4.09956789016723633 0.277140825986862183
1.09225356578826904 0.750445187091827393 0.443515032529830933
-1.87085199356079102 -1.5419156551361084 0.366151094436645508
