ply
format ascii 1.0
element vertex 47
comment vertices
property float x
property float y
property float z
end_header
0.560161232948303223 1.08754205703735352 0.329875171184539795
2.22845220565795898 2.19591856002807617 0.333842426538467407
4.52368497848510742 -2.93574380874633789 0.563018083572387695
-0.984475016593933105 -1.07880747318267822 0.402274668216705322
0.947670340538024902 -0.885747373104095459 0.476981222629547119
1.53344082832336426 -2.70662164688110352 0.415372878313064575
1.16210818290710449 2.69397735595703125 0.404001593589782715
1.24906396865844727 0.107755295932292938 0.212632596492767334
1.09093570709228516 0.919470131397247314 0.414531469345092773
2.15239357948303223 -1.93931269645690918 0.579145550727844238
3.89755773544311523 3.77954363822937012 0.432804763317108154
-1.04172217845916748 0.889884233474731445 0.652650892734527588
-1.2314070463180542 -0.352233737707138062 0.465369433164596558
0.87058103084564209 -0.919969081878662109 0.519333600997924805
1.07266783714294434 0.113806694746017456 0.336595773696899414
1.74334657192230225 -2.55978870391845703 0.449415236711502075
0.850217759609222412 0.808297634124755859 0.336213588714599609
2.21412992477416992 2.1314551830291748 0.265804946422576904
4.65049457550048828 -2.80877184867858887 0.572498202323913574
-1.13839101791381836 0.906763553619384766 0.647488534450531006
1.29946351051330566 0.26221853494644165 0.352336347103118896
1.31769514083862305 2.68743419647216797 0.444317162036895752
2.24109554290771484 -1.93425309658050537 0.568857014179229736
3.95794439315795898 3.79955053329467773 0.411465317010879517
-1.09527111053466797 0.721595048904418945 0.660328924655914307
-1.33685135841369629 -0.545427143573760986 0.398364484310150146
1.71072065830230713 -2.45277833938598633 0.476528465747833252
-1.3700028657913208 -0.612158238887786865 0.416743636131286621
2.11851334571838379 2.14723086357116699 0.413406640291213989
-1.37968504428863525 0.13075004518032074 0.528575420379638672
4.62429618835449219 -2.95016002655029297 0.589695274829864502
2.19569063186645508 -2.12165260314941406 0.56171107292175293
2.30066013336181641 -1.94925987720489502 0.567298650741577148
0.814236998558044434 -0.875711262226104736 0.502245843410491943
2.25570559501647949 -1.87078344821929932 0.562620043754577637
0.862588405609130859 0.880257964134216309 0.313872158527374268
-1.2702946662902832 -0.619783461093902588 0.451066553592681885
0.665505886077880859 1.08074831962585449 0.347732365131378174
1.2309424877166748 0.13094775378704071 0.223843052983283997
-1.38370966911315918 -0.437315315008163452 0.413721948862075806
1.21893000602722168 0.299799352884292603 0.503688395023345947
1.27689278125762939 0.11899181455373764 0.216458916664123535
1.2247014045715332 2.88718056678771973 0.441022902727127075
1.42203223705291748 2.4173743724822998 0.487561523914337158
1.6500542163848877 -2.70842885971069336 0.485277712345123291
2.25480842590332031 2.17736649513244629 0.330295413732528687
1.25622200965881348 0.314937591552734375 0.56958305835723877
