ply
format ascii 1.0
element vertex 256
comment vertices
property float x
property float y
property float z
end_header
-0.38368108868598938 -1.26057267189025879 1.35841703414916992
3.4467003345489502 -5.6005244255065918 0.500090122222900391
-1.9112083911895752 -6.24083709716796875 0.105492010712623596
-2.28394031524658203 3.32401752471923828 0.104386806488037109
-4.74138450622558594 -2.74463009834289551 1.98009920120239258
1.63650321960449219 1.26651716232299805 -0.241211593151092529
2.35751247406005859 -2.31192660331726074 -0.221517026424407959
-2.3096015453338623 0.266214162111282349 -0.180102318525314331
-1.98164129257202148 -3.31335544586181641 0.134129941463470459
-4.62167263031005859 -2.94158053398132324 -0.727194011211395264
0.751273751258850098 -3.89946866035461426 1.00638854503631592
0.633856832981109619 0.769150316715240479 1.81270146369934082
-0.551150918006896973 1.65538167953491211 0.141684621572494507
-3.36633825302124023 -1.51366400718688965 0.260340690612792969
0.927781283855438232 -0.737952351570129395 -0.1710377037525177
-0.345721304416656494 -5.18407773971557617 0.0276816077530384064
3.39103960990905762 -3.77566337585449219 0.461454451084136963
-1.45977115631103516 0.292324990034103394 1.41499578952789307
-1.42569148540496826 -1.67120647430419922 0.014196343719959259
0.727851510047912598 -2.29165267944335938 0.510534286499023438
1.95042014122009277 -4.91174507141113281 0.579359233379364014
-0.570049464702606201 -0.237847894430160522 -0.116742126643657684
1.2315058708190918 -0.562678515911102295 1.34140896797180176
-2.8553462028503418 1.92726433277130127 0.185689747333526611
-0.541884779930114746 -2.94268679618835449 0.0703283697366714478
-2.62624597549438477 -4.97927951812744141 0.130530029535293579
0.401134580373764038 0.741283714771270752 -0.788045883178710938
1.50520813465118408 -3.48514056205749512 -0.14243905246257782
-4.74073219299316406 -2.77627897262573242 0.696653246879577637
-1.43694806098937988 -4.50789737701416016 0.046218089759349823
0.537850558757781982 0.938289642333984375 0.465588986873626709
-0.119880408048629761 -1.39250826835632324 0.119848765432834625
-1.73166930675506592 1.30580222606658936 0.347582399845123291
-2.10778093338012695 -0.790858030319213867 0.345237016677856445
-2.69841408729553223 -2.41398477554321289 0.0202032942324876785
1.98765921592712402 -1.10885488986968994 -0.0550140142440795898
-1.49361944198608398 2.3209223747253418 -0.00965546444058418274
-0.519799709320068359 0.352608621120452881 0.797474682331085205
2.3113548755645752 -3.80283284187316895 0.551841855049133301
2.93523669242858887 -4.7435455322265625 0.128869935870170593
1.44773221015930176 0.297905027866363525 0.0820503309369087219
-1.33426356315612793 0.387368202209472656 0.0803510546684265137
2.40536308288574219 -5.80514669418334961 0.5910300612449646
-1.07220244407653809 -0.808163166046142578 0.477010250091552734
0.676657021045684814 -3.20104122161865234 0.260575592517852783
1.37355375289916992 -2.14769768714904785 -0.146189659833908081
2.2987368106842041 0.652894079685211182 -0.0358615368604660034
0.306307554244995117 1.62666738033294678 -0.166275531053543091
-1.13902842998504639 -3.65482425689697266 0.0215657129883766174
0.679752051830291748 -2.92411112785339355 1.13208532333374023
-0.13323935866355896 0.733226358890533447 -0.062447723001241684
-1.18678665161132812 -5.34175443649291992 -0.00428302958607673645
-0.451696008443832397 -1.58310532569885254 -0.644186854362487793
1.06863093376159668 -0.149495631456375122 -0.771899223327636719
0.84436953067779541 1.35063827037811279 1.23137784004211426
0.778676092624664307 -3.95712542533874512 -0.111318148672580719
-2.49069595336914062 -1.44499588012695312 -0.0261894650757312775
-2.81208443641662598 -0.643777191638946533 -0.0303760170936584473
2.23580431938171387 -3.13929605484008789 -0.192721158266067505
0.20704159140586853 -0.579911947250366211 0.162216588854789734
1.16991293430328369 -0.45082247257232666 0.548700034618377686
-0.976096153259277344 1.1015021800994873 0.504604876041412354
-0.424172013998031616 -1.11506474018096924 2.12029933929443359
-1.85201084613800049 -0.0061903027817606926 0.504971146583557129
0.915313243865966797 1.319938063621521 -0.781340718269348145
0.741053521633148193 -1.82775819301605225 1.10499048233032227
0.674286127090454102 -1.21062254905700684 0.358829736709594727
2.30200529098510742 -3.87639570236206055 -0.184443607926368713
-2.22331571578979492 2.26844000816345215 0.0282248463481664658
-1.47746086120605469 -0.496744096279144287 -0.0377411358058452606
-1.07892405986785889 -2.45681142807006836 0.0366181358695030212
-0.367129147052764893 -0.868092119693756104 0.753435075283050537
-1.88449335098266602 -2.60209894180297852 0.0757111161947250366
0.467956751585006714 0.348375141620635986 0.0218915045261383057
-2.90662050247192383 2.63659286499023438 0.181551635265350342
1.07494056224822998 -2.79691600799560547 -0.166709229350090027
-4.59971094131469727 -2.76500415802001953 0.0021813809871673584
3.51196050643920898 -4.6614227294921875 0.508934378623962402
-1.65970087051391602 0.894152641296386719 -0.262697756290435791
0.783731579780578613 -1.81421089172363281 -0.0327769070863723755
1.01877951622009277 1.08122849464416504 -0.00518769025802612305
1.07340574264526367 0.785149753093719482 0.855804800987243652
1.33270549774169922 -1.28778135776519775 -0.0809094756841659546
2.18101406097412109 -5.38165807723999023 0.110656276345252991
-1.19070446491241455 1.61451542377471924 -0.0808986276388168335
2.91236114501953125 -4.06295442581176758 0.0397899746894836426
-0.975802183151245117 -1.1668018102645874 -0.0584488734602928162
-0.840366482734680176 0.971981525421142578 -0.117381125688552856
-4.74738931655883789 -2.71291518211364746 1.3361351490020752
1.85607194900512695 -1.72994756698608398 -0.181205257773399353
0.164864063262939453 -2.90815854072570801 0.0307963266968727112
-2.21692061424255371 1.6293950080871582 0.108832642436027527
-1.6433948278427124 0.569034695625305176 0.65271914005279541
1.17921626567840576 -0.588813662528991699 1.96795129776000977
-1.06053388118743896 -0.0852198153734207153 0.3812827467918396
-1.7562401294708252 -5.03511476516723633 0.0104343537241220474
2.40014004707336426 -4.49983882904052734 0.509989142417907715
2.91682624816894531 -5.16630029678344727 0.572122097015380859
1.84505534172058105 -2.67560172080993652 -0.224645286798477173
-2.03885483741760254 -0.261599063873291016 -0.104071453213691711
-0.678216338157653809 0.398734211921691895 -0.0856212377548217773
-0.382022976875305176 -0.89017331600189209 -0.0610113143920898438
-1.47133028507232666 -3.01207494735717773 0.078075408935546875
-1.73414516448974609 -1.19425380229949951 -0.110070846974849701
0.357615739107131958 1.01716375350952148 -0.142241150140762329
1.10374319553375244 1.0832284688949585 1.75969874858856201
-0.061233222484588623 0.17895112931728363 -0.0431166067719459534
1.92447352409362793 -4.20901823043823242 0.54004436731338501
1.59697234630584717 -0.716280102729797363 -0.11243341863155365
-1.52347123622894287 -5.8604741096496582 -0.00391639769077301025
-0.959509015083312988 2.44294500350952148 0.0724828392267227173
1.15491247177124023 1.32324361801147461 0.769037187099456787
-1.9600059986114502 -1.78357768058776855 0.0207362696528434753
-1.61014664173126221 -1.00171637535095215 0.40371277928352356
1.93093419075012207 -5.44905376434326172 0.644423365592956543
1.14887917041778564 -0.260060012340545654 -0.0543871670961380005
-1.90721285343170166 2.94826579093933105 0.0330591946840286255
0.541813015937805176 0.840090394020080566 1.28934633731842041
1.76868772506713867 0.719907701015472412 0.0459907874464988708
-3.38493490219116211 -2.04443049430847168 0.249187886714935303
0.707572340965270996 -3.82445383071899414 0.486196577548980713
2.98194503784179688 -4.23433256149291992 0.52966386079788208
1.49283301830291748 -4.00237464904785156 -0.185960724949836731
-0.238827720284461975 1.29201877117156982 0.340506434440612793
2.32361745834350586 -4.88361978530883789 0.107458040118217468
2.97861528396606445 -5.78668785095214844 0.61374211311340332
-2.65597033500671387 -5.4887242317199707 0.183591783046722412
3.04356741905212402 -5.27230215072631836 0.0889745578169822693
-0.952286779880523682 0.293839603662490845 1.37382245063781738
0.680991172790527344 -3.36528801918029785 0.741103053092956543
-1.30179917812347412 1.5525209903717041 0.414597213268280029
0.839435338973999023 -2.33925294876098633 0.0259571298956871033
0.908033847808837891 1.47076857089996338 -0.293751001358032227
-2.91430473327636719 -1.66431081295013428 0.118261709809303284
1.02635133266448975 0.551868200302124023 0.0694029554724693298
0.44004589319229126 -1.05417954921722412 -0.0426099188625812531
-2.39395451545715332 -2.03272604942321777 0.00230260565876960754
-1.9182736873626709 0.356072723865509033 0.0925429090857505798
-1.31649959087371826 1.11795473098754883 -0.0164741203188896179
-1.40366661548614502 -0.391533106565475464 0.510615706443786621
-0.175762057304382324 -0.486821621656417847 -0.215948715806007385
0.684105157852172852 -2.82542634010314941 0.551852703094482422
-0.383539855480194092 0.805827081203460693 0.333261102437973022
0.789490580558776855 -1.83056294918060303 0.634024500846862793
0.601775169372558594 1.34376239776611328 1.63788509368896484
-0.70726621150970459 -0.477055013179779053 0.264541983604431152
-1.80414509773254395 -4.22008371353149414 0.0546036288142204285
2.4116828441619873 -4.40545320510864258 0.0532867126166820526
1.06778573989868164 -3.32580423355102539 -0.136335253715515137
-0.0937993824481964111 1.67061328887939453 0.0642982795834541321
-1.16886520385742188 -0.0929390564560890198 -0.0687638372182846069
0.876177549362182617 -1.22174787521362305 -0.0556841194629669189
0.476244181394577026 1.26772475242614746 0.780092716217041016
-2.1875913143157959 -0.306653141975402832 0.417262256145477295
-2.37498354911804199 -0.53000187873840332 0.0554579198360443115
2.88242650032043457 -3.78733682632446289 0.535284042358398438
0.416633456945419312 1.19644773006439209 -0.759461760520935059
-0.433561265468597412 1.28670835494995117 -0.0967813283205032349
-0.680963397026062012 -1.01647412776947021 0.255399107933044434
1.20182251930236816 -0.761408090591430664 0.875060081481933594
0.725501298904418945 -0.629194021224975586 0.216555565595626831
2.39732646942138672 -1.86868059635162354 -0.216870665550231934
3.49858617782592773 -5.1615138053894043 0.547130405902862549
-1.62439990043640137 1.59851360321044922 0.0127977579832077026
-0.440629154443740845 -1.51354861259460449 -0.20633639395236969
2.61991596221923828 -5.43754434585571289 0.114462628960609436
-4.84627389907836914 -2.83246469497680664 -0.358823001384735107
0.517843484878540039 1.33058249950408936 0.1251181960105896
-1.89601624011993408 1.97339534759521484 0.0401801504194736481
3.47599077224731445 -4.20284652709960938 0.522203207015991211
0.974298715591430664 0.831507980823516846 1.35909783840179443
-1.42387783527374268 0.195440381765365601 0.458926916122436523
0.186970770359039307 -1.10080301761627197 0.304642289876937866
-2.12843155860900879 -5.19988012313842773 0.155783027410507202
-0.924249529838562012 -0.529037177562713623 -0.103569947183132172
-1.05675601959228516 -3.10237240791320801 0.0233093444257974625
-0.424904406070709229 -1.32140612602233887 0.408887177705764771
0.686278760433197021 -3.37572622299194336 1.16699576377868652
1.2711188793182373 -0.962819218635559082 0.186114698648452759
2.94127631187438965 -4.71041297912597656 0.551099419593811035
1.7961658239364624 -2.14544224739074707 -0.23476371169090271
-1.08735406398773193 -1.91643357276916504 0.0549306981265544891
1.76289629936218262 -3.08565783500671387 -0.191155672073364258
0.440440267324447632 0.68795013427734375 0.912593245506286621
0.713311195373535156 -3.52827835083007812 -0.0515530109405517578
-1.2658545970916748 0.717809617519378662 -0.162599802017211914
-1.28097081184387207 0.838387250900268555 0.404346227645874023
2.50417828559875488 -5.15719366073608398 0.576347887516021729
-0.786807060241699219 0.742037296295166016 0.303801983594894409
0.0956276357173919678 0.96337735652923584 0.18627464771270752
-0.234583675861358643 -0.372129589319229126 0.171463340520858765
-2.03898167610168457 -2.94040942192077637 0.289223402738571167
-1.55280458927154541 0.117392450571060181 -0.13199162483215332
1.72970151901245117 -1.44177687168121338 0.0764311552047729492
-1.77113938331604004 -0.772140026092529297 0.0193764623254537582
-1.68345499038696289 0.793377101421356201 0.317281216382980347
-0.892191886901855469 0.299430727958679199 0.938957452774047852
0.66915440559387207 1.04510724544525146 -0.394118726253509521
-2.66417884826660156 2.33560299873352051 0.283210575580596924
-1.594643235206604 0.352057039737701416 1.04555308818817139
1.056801438331604 1.14035284519195557 0.432590484619140625
-0.621007442474365234 -2.57114243507385254 -0.0285963937640190125
-1.69460940361022949 0.470766127109527588 -0.22055228054523468
0.706453263759613037 -2.536285400390625 1.10220956802368164
2.59982848167419434 -4.1621403694152832 0.534724295139312744
-0.568924129009246826 -0.0413251668214797974 0.218395829200744629
-0.0623788833618164062 1.18210232257843018 -0.140947744250297546
-2.2296760082244873 -0.885106503963470459 -0.00986523926258087158
-1.40483188629150391 -0.87692636251449585 -0.019452609121799469
0.739164769649505615 1.01653695106506348 1.01376485824584961
0.943851709365844727 0.736876606941223145 0.393149286508560181
-0.377726048231124878 -1.23306834697723389 0.979089260101318359
-1.81485891342163086 -0.550561010837554932 0.360702216625213623
1.35222971439361572 0.923178434371948242 -0.058591451495885849
-2.33023309707641602 0.053793732076883316 0.125152587890625
3.18741655349731445 -4.31152534484863281 0.0599320009350776672
0.23752245306968689 -1.45299363136291504 0.0493476614356040955
1.14455723762512207 -2.4339909553527832 -0.185189336538314819
-1.19622910022735596 -4.9758758544921875 -0.0138437449932098389
-0.96075439453125 0.217310786247253418 0.0557048320770263672
-0.536321282386779785 0.719057142734527588 0.0128055661916732788
1.01522624492645264 0.732142508029937744 1.78021001815795898
1.54481709003448486 -2.47400403022766113 -0.198043256998062134
0.213837563991546631 1.51195740699768066 0.201787024736404419
0.0785123705863952637 -1.13530218601226807 -0.0389220118522644043
0.845667421817779541 -2.69103741645812988 0.10543861985206604
0.72050166130065918 -2.18324542045593262 1.05653715133666992
2.31682658195495605 -5.45924997329711914 0.596764326095581055
-1.46827340126037598 -0.179316341876983643 0.119879089295864105
-0.715645968914031982 1.34092426300048828 0.483717054128646851
-4.60783767700195312 -2.80322122573852539 1.02350759506225586
-4.56632804870605469 -2.71005606651306152 0.39630928635597229
1.12881135940551758 -0.309010744094848633 -0.463109135627746582
0.707428932189941406 0.708620786666870117 0.672540426254272461
-1.59152567386627197 2.65661478042602539 -0.0489052906632423401
1.84037089347839355 -4.04782724380493164 -0.184149578213691711
-0.875280976295471191 1.46555209159851074 -0.106802687048912048
2.77700161933898926 -4.43572235107421875 0.125758469104766846
0.77612227201461792 1.43507933616638184 0.802992820739746094
0.626420557498931885 0.85411304235458374 -0.00401929020881652832
0.53613746166229248 -0.732231736183166504 -0.113511800765991211
0.838138461112976074 1.35953271389007568 0.243531793355941772
2.54930210113525391 -4.80401134490966797 0.55300217866897583
1.12810361385345459 -1.33047008514404297 0.18852861225605011
1.09619474411010742 -4.06990480422973633 -0.153239548206329346
-0.582838654518127441 -3.2650449275970459 -0.0281176250427961349
3.22024345397949219 -4.89408111572265625 0.0275778342038393021
0.183267116546630859 -0.828060269355773926 -0.131459951400756836
-1.19747579097747803 -0.573528885841369629 0.272876739501953125
0.761146306991577148 -1.91570138931274414 0.313215494155883789
-0.520125746726989746 -1.24426758289337158 0.0775444731116294861
-1.3692781925201416 1.15253591537475586 0.453055143356323242
0.967792272567749023 -2.10149765014648438 -0.162401303648948669
0.162961006164550781 0.725141644477844238 -0.205017298460006714
1.98603498935699463 -3.77978157997131348 0.511578798294067383
0.907347917556762695 -0.901824593544006348 0.237737342715263367
