ply
format ascii 1.0
element vertex 256
comment vertices
property float x
property float y
property float z
end_header
-1.75247788429260254 -0.0457636043429374695 0.391074478626251221
3.08301353454589844 -1.66445052623748779 0.351500928401947021
1.17313539981842041 0.542530298233032227 0.33116576075553894
-0.713728487491607666 1.9951092004776001 0.506769895553588867
0.289347946643829346 -1.22150194644927979 0.637759864330291748
-0.299476683139801025 0.0180040299892425537 -0.00329862534999847412
1.73341250419616699 -1.00809121131896973 0.507362782955169678
0.0981144607067108154 1.05118179321289062 0.714634060859680176
0.92831575870513916 -0.407378703355789185 0.0120235346257686615
-1.09810924530029297 0.600447773933410645 -0.0124009549617767334
0.891427993774414062 -0.0817015022039413452 0.702839076519012451
2.41231274604797363 -1.39613544940948486 0.173839405179023743
-0.313798487186431885 0.937973439693450928 0.112780086696147919
-0.864170551300048828 0.137383580207824707 0.485892713069915771
0.331090450286865234 0.565427005290985107 0.247409522533416748
0.753313183784484863 0.692533612251281738 0.876930713653564453
0.925821840763092041 -0.85259091854095459 0.523481547832489014
0.39296567440032959 -0.850487112998962402 0.173682421445846558
-0.283891618251800537 1.72533941268920898 0.216063067317008972
-0.210854813456535339 0.576784372329711914 0.551463544368743896
-0.968295276165008545 0.0498133040964603424 -0.0873778164386749268
-1.51670610904693604 0.396245688199996948 0.646797835826873779
1.79683804512023926 -1.5232473611831665 0.311491668224334717
-2.25644707679748535 0.112069576978683472 0.469327151775360107
-2.09174275398254395 -0.32367175817489624 0.134011149406433105
0.150656342506408691 1.42450225353240967 0.387560158967971802
2.67560625076293945 -1.86974048614501953 0.149610742926597595
1.05120837688446045 0.0391119569540023804 0.192250281572341919
2.63093161582946777 -1.58051943778991699 0.565056502819061279
-0.279782712459564209 2.1796867847442627 0.39765399694442749
0.701236188411712646 0.379532337188720703 0.490733116865158081
0.656198859214782715 -0.479546099901199341 0.406206339597702026
-0.32283627986907959 1.31384563446044922 0.430194377899169922
-0.650372087955474854 0.36826169490814209 0.020615333691239357
0.540986597537994385 0.95097118616104126 0.347730368375778198
-0.387627243995666504 1.72409963607788086 0.647074103355407715
1.09386968612670898 -0.430657386779785156 0.445726156234741211
0.0826126784086227417 -0.84633171558380127 0.559899628162384033
1.39337849617004395 0.249570906162261963 0.533835649490356445
0.295294880867004395 0.695302248001098633 0.623308658599853516
0.557543396949768066 -1.03588593006134033 0.867365121841430664
-2.02853107452392578 -0.183597177267074585 0.641432642936706543
-1.70287919044494629 -0.382392823696136475 0.579725325107574463
0.458007395267486572 -0.785951852798461914 0.599670052528381348
0.543015122413635254 -1.14386892318725586 0.356072545051574707
-1.87261390686035156 0.254159659147262573 0.56998145580291748
0.933513879776000977 0.384549379348754883 0.762182772159576416
0.978475809097290039 0.6926116943359375 0.590286016464233398
-2.00739288330078125 0.0387124419212341309 0.159422397613525391
0.0122617781162261963 0.80218958854675293 0.395601719617843628
0.146880999207496643 -1.08033204078674316 0.304003745317459106
1.03078913688659668 0.185690045356750488 0.495098292827606201
0.893042385578155518 0.420712649822235107 0.19283507764339447
-1.15597271919250488 0.189464211463928223 0.152830064296722412
0.783131897449493408 -0.126531258225440979 0.306726038455963135
0.997934341430664062 -0.582259476184844971 0.725664734840393066
0.637189865112304688 0.716223299503326416 0.562602877616882324
0.355168253183364868 1.19029784202575684 0.575187206268310547
1.90342211723327637 -1.12238526344299316 0.257629483938217163
-1.83877265453338623 -0.450754225254058838 0.288433462381362915
-0.693592846393585205 0.00553600490093231201 0.0718662068247795105
2.8455045223236084 -1.44950520992279053 0.370210409164428711
-0.22922845184803009 0.840520620346069336 0.714156925678253174
1.61887586116790771 -1.27675259113311768 0.2625160813331604
1.08723723888397217 -0.691604495048522949 0.291961938142776489
0.311859697103500366 0.875485718250274658 0.168607085943222046
-0.0388323366641998291 1.19912362098693848 0.431776612997055054
0.65155106782913208 -0.797283351421356201 0.306832402944564819
1.09752917289733887 -0.137017473578453064 0.430561304092407227
-0.400103151798248291 1.9898000955581665 0.163385272026062012
1.46923017501831055 -0.943852663040161133 0.406732231378555298
-0.86054229736328125 0.383770585060119629 0.218374907970428467
-0.134134694933891296 1.35187685489654541 0.650389790534973145
2.06322121620178223 -1.50024986267089844 0.221353307366371155
-0.766870975494384766 1.71906960010528564 0.519673407077789307
2.0025627613067627 -1.31183671951293945 0.431629866361618042
0.213550165295600891 0.977902114391326904 0.460478603839874268
2.58618497848510742 -1.62782621383666992 0.233864381909370422
-2.01910400390625 -0.00327137112617492676 0.439772725105285645
0.7645416259765625 -0.692530691623687744 0.660759806632995605
-0.32212299108505249 0.729255735874176025 0.365586042404174805
-0.940904974937438965 0.305184245109558105 -0.0181634426116943359
-1.83929014205932617 0.185489296913146973 0.305594980716705322
1.10672092437744141 0.321723461151123047 0.0809180364012718201
2.82153534889221191 -1.70386075973510742 0.384071588516235352
0.328367829322814941 -0.938553988933563232 0.411532342433929443
0.4216727614402771 0.920380234718322754 0.587854206562042236
-0.262146532535552979 1.93685376644134521 0.36289253830909729
0.862994372844696045 -0.423841476440429688 0.526620030403137207
0.864112555980682373 -0.59764862060546875 0.354429692029953003
0.918165385723114014 -0.328188121318817139 0.300011366605758667
1.31928515434265137 0.364638566970825195 0.255314350128173828
0.0810934379696846008 0.803306102752685547 0.646575093269348145
1.05603718757629395 -0.256962001323699951 0.708854615688323975
2.26109743118286133 -1.30613136291503906 0.337209761142730713
0.577930450439453125 -0.721411764621734619 0.0922902747988700867
-0.264364451169967651 2.04331541061401367 0.589678287506103516
-0.760577619075775146 0.150227874517440796 -0.126469448208808899
-0.511686563491821289 0.0418008342385292053 -0.0902604162693023682
-0.112120471894741058 1.42945265769958496 0.435606479644775391
0.16950128972530365 -0.89770132303237915 0.763886094093322754
-1.85591065883636475 -0.215729683637619019 0.281139373779296875
-1.1913069486618042 0.400419324636459351 0.0330442562699317932
2.76959562301635742 -1.68753576278686523 0.0620147213339805603
-0.142422974109649658 0.771291553974151611 0.238195031881332397
1.21420848369598389 0.39896237850189209 0.495959222316741943
-1.91848301887512207 -0.358809620141983032 0.537193179130554199
2.62632942199707031 -1.36164271831512451 0.211226373910903931
0.388545095920562744 -0.907503008842468262 0.768394410610198975
0.939065992832183838 0.0129293203353881836 0.397234141826629639
0.821587204933166504 0.583067119121551514 0.695284605026245117
0.171569526195526123 -0.812659204006195068 0.327712982892990112
0.411459177732467651 -0.678041219711303711 0.416914194822311401
-1.73492252826690674 0.0388391092419624329 0.590422630310058594
0.969175457954406738 0.519317448139190674 0.40140002965927124
0.574045360088348389 -0.947614192962646484 0.440723836421966553
0.131659790873527527 -1.09472155570983887 0.565532445907592773
1.1592639684677124 0.176125466823577881 0.323790997266769409
0.0883913040161132812 1.25312864780426025 0.594699442386627197
0.939402580261230469 0.248650610446929932 0.309724092483520508
0.97065579891204834 0.568397819995880127 0.861764669418334961
-0.492100238800048828 1.37410664558410645 0.317362517118453979
-0.915284216403961182 0.185761913657188416 0.285790473222732544
-0.487613320350646973 1.89954137802124023 0.585821628570556641
1.75046980381011963 -1.32213854789733887 0.419284254312515259
-2.05517578125 0.153132706880569458 0.58919370174407959
0.681538939476013184 0.500326812267303467 0.82585299015045166
1.8716810941696167 -1.16872036457061768 0.505945503711700439
-1.67937958240509033 0.306063741445541382 0.516521036624908447
1.05551660060882568 -0.448604404926300049 0.208307579159736633
-0.114570513367652893 0.869022548198699951 0.547659337520599365
-0.519667923450469971 1.86131453514099121 0.266939640045166016
-2.07011127471923828 0.190398186445236206 0.389591395854949951
-1.04478919506072998 0.462745100259780884 0.157960951328277588
-2.10385012626647949 -0.215331792831420898 0.303854584693908691
-1.13852798938751221 0.154264569282531738 -0.0646754726767539978
1.12782227993011475 -0.0723711550235748291 0.61811065673828125
2.8940894603729248 -1.77495718002319336 0.21209406852722168
-0.967480123043060303 0.134263426065444946 0.0999989509582519531
-0.512014329433441162 0.319299221038818359 -0.114617824554443359
0.241929665207862854 0.500099062919616699 0.413312822580337524
-1.07596492767333984 0.449241667985916138 -0.139229848980903625
-0.803798258304595947 0.487243562936782837 0.0594734996557235718
-0.0724811702966690063 1.11091208457946777 0.635353624820709229
0.934277057647705078 -0.656399071216583252 0.540794193744659424
-0.570188343524932861 1.73356318473815918 0.522146999835968018
0.71483379602432251 -0.850567102432250977 0.557700395584106445
-1.65861773490905762 -0.215831935405731201 0.488260149955749512
0.924074411392211914 -0.137936621904373169 0.517973065376281738
0.70555269718170166 -0.657231926918029785 0.465727180242538452
-0.434620320796966553 2.08336615562438965 0.334269613027572632
0.0225897133350372314 -0.964106440544128418 0.420143216848373413
1.63464713096618652 -1.05475664138793945 0.350195348262786865
0.954560756683349609 0.474701762199401855 0.595418870449066162
1.7281043529510498 -1.42151463031768799 0.165763795375823975
-0.730524778366088867 0.11663828045129776 0.35295337438583374
2.94403910636901855 -1.84655380249023438 0.383894741535186768
0.367455869913101196 0.858152508735656738 0.34717714786529541
0.408633828163146973 -1.12311232089996338 0.794703960418701172
1.08066427707672119 -0.750854313373565674 0.468930900096893311
0.0353177748620510101 0.982240140438079834 0.515115678310394287
0.707732021808624268 0.538136065006256104 0.394196122884750366
0.094367295503616333 0.65737539529800415 0.533019363880157471
-1.89357912540435791 -0.118330053985118866 0.512484192848205566
0.14658057689666748 0.5785064697265625 0.275855183601379395
0.285482108592987061 -0.984087765216827393 0.584807634353637695
0.355339527130126953 0.709797024726867676 0.451509654521942139
1.97173309326171875 -1.36908745765686035 0.141070470213890076
1.20061635971069336 0.221272170543670654 0.532128453254699707
1.17281782627105713 -0.534681797027587891 0.325985431671142578
0.841391682624816895 0.376676261425018311 0.380431920289993286
2.94873929023742676 -1.57940113544464111 0.429037213325500488
0.510524272918701172 -0.969135582447052002 0.228287354111671448
0.900723397731781006 -0.0433708950877189636 0.157193958759307861
0.822880327701568604 0.758956015110015869 0.633478343486785889
0.563307464122772217 0.468133509159088135 0.55040442943572998
0.261641114950180054 1.31167614459991455 0.657490670680999756
-0.447695016860961914 0.082475617527961731 0.0662107393145561218
-0.0454458147287368774 0.953332066535949707 0.700490713119506836
1.84891164302825928 -1.31793475151062012 0.277531653642654419
0.982565164566040039 0.056300625205039978 0.749544143676757812
-0.961482226848602295 0.275920450687408447 0.510561823844909668
0.465988218784332275 -0.828320622444152832 0.358379602432250977
0.196230322122573853 1.16397309303283691 0.497974276542663574
0.844633698463439941 0.573095560073852539 0.512118875980377197
-0.584433555603027344 0.274815529584884644 0.144354894757270813
-0.303514301776885986 1.17652368545532227 0.524908185005187988
0.817058026790618896 -0.820801377296447754 0.400199472904205322
0.532051026821136475 -1.13534164428710938 0.521874070167541504
0.970253288745880127 -0.301507562398910522 0.496034681797027588
2.65573644638061523 -1.73514783382415771 0.514029920101165771
0.823955714702606201 -0.0054807811975479126 0.513178825378417969
1.11194157600402832 0.0160364508628845215 0.37350049614906311
1.02932298183441162 -0.572693884372711182 0.396172553300857544
-1.85485625267028809 0.127914667129516602 0.467670470476150513
-2.16075706481933594 0.257157623767852783 0.521594464778900146
2.6834564208984375 -1.74818158149719238 0.282907366752624512
-1.6954270601272583 0.241075173020362854 0.663496613502502441
-0.806127667427062988 0.262567013502120972 0.0598255321383476257
0.157914638519287109 0.732767224311828613 0.769347071647644043
-1.940826416015625 0.0604447051882743835 0.315780013799667358
-2.01700115203857422 -0.212561130523681641 0.475623130798339844
2.72671937942504883 -1.56651401519775391 0.1920786052942276
-0.319553136825561523 1.91313719749450684 0.662100136280059814
2.71177339553833008 -1.50135385990142822 0.454689741134643555
1.07046496868133545 -0.288023620843887329 0.306599020957946777
0.565679728984832764 0.751004040241241455 0.698422551155090332
0.274174749851226807 0.928666591644287109 0.6420440673828125
0.84795069694519043 0.0496118403971195221 0.272614449262619019
0.397136867046356201 -1.10656452178955078 0.312766879796981812
0.542137622833251953 0.621512055397033691 0.482493191957473755
1.95663702487945557 -1.58585965633392334 0.295038849115371704
0.992032945156097412 0.360841721296310425 0.408204495906829834
2.60787391662597656 -1.64065384864807129 0.384927272796630859
2.45745348930358887 -1.54749524593353271 0.251899063587188721
0.965016543865203857 -0.147535458207130432 0.35534358024597168
-1.70350742340087891 -0.0851420015096664429 0.251866519451141357
-1.84072601795196533 -0.239638149738311768 0.430687904357910156
0.937057435512542725 0.298671305179595947 0.535740196704864502
0.319662332534790039 0.711912453174591064 0.303767502307891846
-0.229614391922950745 0.726351022720336914 0.532359063625335693
-1.86013138294219971 -0.306294232606887817 0.159718155860900879
1.1228325366973877 0.41868889331817627 0.25997847318649292
2.27352714538574219 -1.33948004245758057 0.1855202317237854
-1.9883352518081665 -0.152670711278915405 0.231347203254699707
1.27752804756164551 0.228372469544410706 0.399155855178833008
0.00967644155025482178 1.38516175746917725 0.626454174518585205
-0.432874888181686401 1.93616342544555664 0.362497419118881226
0.25099259614944458 0.571876466274261475 0.543573737144470215
0.397744864225387573 -1.1141430139541626 0.646485209465026855
-2.11660242080688477 -0.0538451671600341797 0.196540996432304382
-0.827626049518585205 0.296121865510940552 0.332424283027648926
0.197631269693374634 1.28549563884735107 0.397863000631332397
0.155254796147346497 0.843255460262298584 0.450490713119506836
1.73522531986236572 -1.13387966156005859 0.278625845909118652
-1.75081467628479004 -0.312742173671722412 0.31251940131187439
0.9850006103515625 -0.483171314001083374 0.58104860782623291
0.851621747016906738 -0.460791587829589844 0.307062596082687378
1.09769892692565918 0.176286593079566956 0.181705772876739502
1.09942638874053955 0.063695855438709259 0.576396584510803223
0.0898268669843673706 0.896283864974975586 0.757569253444671631
0.706852555274963379 0.348887264728546143 0.334171772003173828
0.947229743003845215 0.205720007419586182 0.171820566058158875
-0.764171719551086426 0.131982773542404175 0.105246067047119141
-0.453367114067077637 1.7821967601776123 0.166561856865882874
-0.876109004020690918 0.147622168064117432 -0.00947915017604827881
0.550233721733093262 0.619926393032073975 0.643507063388824463
0.248734980821609497 1.06004095077514648 0.593404769897460938
0.325397014617919922 0.865106523036956787 0.499027907848358154
1.16641485691070557 -0.220571562647819519 0.627251982688903809
-0.81323397159576416 0.379150956869125366 -0.0319002978503704071
0.21771790087223053 -1.07014560699462891 0.424182325601577759
0.596135079860687256 -1.12665688991546631 0.768963158130645752
0.433447182178497314 0.69194185733795166 0.606426656246185303
0.713267028331756592 0.6058540940284729 0.611268281936645508
0.731016933917999268 -0.383996486663818359 0.338737696409225464
