ply
format ascii 1.0
element vertex 98
comment vertices
property float x
property float y
property float z
end_header
0.654935896396636963 0.532160341739654541 0.291714608669281006
-0.335168182849884033 -1.01449096202850342 0.411007851362228394
0.404142916202545166 -2.07078027725219727 -0.165138751268386841
0.163005471229553223 0.925001025199890137 0.395903944969177246
1.67993044853210449 -0.97407221794128418 0.307008445262908936
3.38606071472167969 -2.45562243461608887 -0.166650354862213135
2.23793673515319824 -1.68640780448913574 0.0918699800968170166
-0.120957255363464355 0.829706668853759766 0.271505951881408691
1.84880435466766357 1.06217122077941895 0.273719847202301025
-0.120409324765205383 -1.08893883228302002 0.455057114362716675
1.91306984424591064 -0.793061673641204834 0.468722999095916748
0.922018587589263916 -0.575435340404510498 0.368935704231262207
1.56087911128997803 1.04045939445495605 0.490884184837341309
-0.384271144866943359 -1.07844579219818115 0.460915565490722656
0.542515575885772705 0.791237413883209229 0.499057680368423462
1.82469117641448975 -1.02830076217651367 0.33359101414680481
0.326718538999557495 -1.76555979251861572 -0.231563597917556763
2.43263840675354004 -1.71116161346435547 0.11738702654838562
0.0181548558175563812 1.11810076236724854 0.341319471597671509
0.829081475734710693 -0.425814032554626465 0.420812368392944336
0.615529060363769531 -1.92934215068817139 -0.163145020604133606
-0.021269969642162323 0.968922436237335205 0.447316467761993408
-0.183969438076019287 0.754317522048950195 0.356195151805877686
1.7108910083770752 -0.959005653858184814 0.388039380311965942
0.678348064422607422 0.666665732860565186 0.361142545938491821
1.72168171405792236 0.89886474609375 0.422660857439041138
0.222121506929397583 1.12287628650665283 0.30256199836730957
1.83384335041046143 1.19931995868682861 0.350020021200180054
0.81035912036895752 -0.526338100433349609 0.37360265851020813
0.224415391683578491 0.993816852569580078 0.297334253787994385
-0.192435264587402344 -0.955979704856872559 0.370192468166351318
-0.305425256490707397 -1.10780203342437744 0.393261551856994629
3.5426032543182373 -2.40178275108337402 -0.0128742903470993042
-0.15937727689743042 -0.982831120491027832 0.453249514102935791
0.95510554313659668 -0.648585379123687744 0.424942314624786377
0.0654339045286178589 0.781398952007293701 0.432569265365600586
0.0636390671133995056 1.08059859275817871 0.330003321170806885
1.78435730934143066 -0.901515364646911621 0.4559306800365448
0.567629218101501465 0.527286887168884277 0.479179143905639648
-0.131465047597885132 -1.16650271415710449 0.44056469202041626
1.5846717357635498 0.999148190021514893 0.298032224178314209
0.369453758001327515 -2.21885418891906738 -0.0638834238052368164
-0.144745945930480957 0.826586723327636719 0.333473384380340576
2.40248012542724609 -1.78922510147094727 0.18793526291847229
1.74786508083343506 -0.821918249130249023 0.43538433313369751
0.545299649238586426 0.629401266574859619 0.436498373746871948
0.647315621376037598 0.920059740543365479 0.208217203617095947
0.90895766019821167 -0.606820464134216309 0.339881956577301025
1.92589104175567627 -0.850473403930664062 0.440032601356506348
0.0625819861888885498 0.971390962600708008 0.395322054624557495
0.338185548782348633 -2.06316614151000977 -0.0816215872764587402
0.732434213161468506 -0.522895276546478271 0.354680091142654419
0.769795894622802734 -0.397022128105163574 0.415394484996795654
0.777264952659606934 -0.500882148742675781 0.450405478477478027
-0.265677034854888916 -1.03463029861450195 0.414667755365371704
0.424108535051345825 -2.19908690452575684 -0.211011290550231934
-0.251647293567657471 -1.183418869972229 0.391458481550216675
0.556388020515441895 0.752320587635040283 0.284422159194946289
0.284485489130020142 -1.91802680492401123 -0.115966692566871643
-0.206392914056777954 -1.0201568603515625 0.3878822922706604
0.564192652702331543 -2.12777972221374512 -0.106717847287654877
0.700355291366577148 0.624234199523925781 0.276709258556365967
0.541069269180297852 0.84617084264755249 0.412437409162521362
-0.0144250951707363129 0.801305949687957764 0.355958133935928345
2.39146280288696289 -1.57111942768096924 0.121348939836025238
0.187759757041931152 0.956962108612060547 0.402325481176376343
0.10372711718082428 1.0912165641784668 0.257936656475067139
1.84848833084106445 -0.881155490875244141 0.381807953119277954
0.905891478061676025 -0.653124332427978516 0.441006630659103394
-0.24612542986869812 -0.807358324527740479 0.404711663722991943
0.333653748035430908 0.874266505241394043 0.412191569805145264
-0.229439988732337952 -1.16034066677093506 0.439784646034240723
0.954608917236328125 -0.405735313892364502 0.42262616753578186
0.0192291289567947388 1.13617551326751709 0.356017649173736572
2.26150941848754883 -1.73556244373321533 0.0388402640819549561
1.03651833534240723 -0.491708070039749146 0.372157871723175049
1.69421684741973877 1.01869702339172363 0.441169500350952148
3.31005716323852539 -2.32178807258605957 -0.143945246934890747
0.755899906158447266 -0.420127540826797485 0.412602007389068604
0.823132634162902832 -0.60534965991973877 0.421028494834899902
1.51411771774291992 0.908546149730682373 0.338313877582550049
1.84459567070007324 -0.919981777667999268 0.405666321516036987
-0.121400311589241028 -1.0097585916519165 0.374772489070892334
1.04271197319030762 -0.697277367115020752 0.373814404010772705
0.691719889640808105 0.846522152423858643 0.271297842264175415
1.6131817102432251 -0.970819473266601562 0.375260710716247559
0.402440041303634644 -1.92446029186248779 -0.192264556884765625
2.45441722869873047 -1.65081787109375 0.137197732925415039
3.52243518829345703 -2.25789999961853027 -0.244723424315452576
-0.260306566953659058 -0.966325640678405762 0.528461277484893799
0.707762360572814941 0.578134238719940186 0.299884825944900513
-0.244879096746444702 -1.02044761180877686 0.511721611022949219
0.58871084451675415 0.737328648567199707 0.27131575345993042
-0.132155641913414001 -1.03586709499359131 0.423346221446990967
-0.0138645097613334656 0.789682090282440186 0.361826658248901367
2.4361412525177002 -1.79380452632904053 0.177991300821304321
0.272728651762008667 0.805165648460388184 0.31313738226890564
0.859250783920288086 -0.633824765682220459 0.373577415943145752
