ply
format ascii 1.0
element vertex 256
comment vertices
property float x
property float y
property float z
end_header
-2.03997969627380371 -0.151736795902252197 0.822833001613616943
2.30145168304443359 -0.102563232183456421 0.400077491998672485
-0.585318684577941895 -2.31283879280090332 0.0767874419689178467
0.255882620811462402 0.611488401889801025 0.529566764831542969
0.852961957454681396 -1.16555869579315186 0.248784944415092468
-0.746100962162017822 -0.758978307247161865 0.351878613233566284
0.848873913288116455 -0.293330013751983643 0.622371315956115723
-0.682074964046478271 0.24909248948097229 0.15832635760307312
2.04946041107177734 -0.798680484294891357 0.592811346054077148
0.126583516597747803 -1.46728742122650146 0.283695966005325317
-1.20556151866912842 -1.63683295249938965 0.18452531099319458
-1.66399180889129639 -0.628255188465118408 0.338541150093078613
1.76399219036102295 0.46660923957824707 0.462430059909820557
0.144269853830337524 -0.665135562419891357 0.300781100988388062
1.20285654067993164 -0.684981226921081543 0.606160998344421387
1.86738157272338867 -0.292636990547180176 0.497802257537841797
-1.00313425064086914 -0.199760764837265015 0.339390605688095093
1.93593060970306396 -0.417192190885543823 0.421768009662628174
-0.283234477043151855 -0.0270480215549468994 0.0115000009536743164
0.458858340978622437 0.232245117425918579 0.215152591466903687
0.851959586143493652 -0.52294921875 0.599355697631835938
0.64726412296295166 0.403206110000610352 0.331619799137115479
-0.805405914783477783 -1.71445786952972412 0.104287505149841309
-1.71240198612213135 -0.0574238300323486328 0.788397729396820068
-2.01591038703918457 -0.527614414691925049 0.511222004890441895
1.21525919437408447 -0.341726392507553101 0.552942216396331787
-0.287907987833023071 -1.06841301918029785 0.202435165643692017
-1.17560708522796631 -0.536155462265014648 0.333833813667297363
2.18847990036010742 -0.758372485637664795 0.321569949388504028
0.27050819993019104 -1.21222615242004395 0.236257195472717285
2.10635685920715332 0.385382354259490967 0.512293636798858643
1.90387320518493652 0.22260737419128418 0.644594311714172363
0.323458641767501831 0.264602750539779663 0.44706881046295166
-1.09178268909454346 -2.08379054069519043 0.137780994176864624
1.74970018863677979 -0.538366317749023438 0.536964654922485352
2.09705018997192383 -0.539747953414916992 0.458497673273086548
-1.81504535675048828 -0.205687984824180603 0.520918309688568115
-0.303178489208221436 0.214252486824989319 0.167929410934448242
-0.229318380355834961 -1.2544177770614624 0.209882885217666626
-0.967645466327667236 -0.468093961477279663 0.187177717685699463
-0.672231554985046387 -0.0583585426211357117 0.161633193492889404
1.10625433921813965 -0.776167392730712891 0.66372835636138916
1.98779904842376709 -0.274488329887390137 0.512123167514801025
0.684201955795288086 -0.680978775024414062 0.422942221164703369
0.978312075138092041 -0.475274890661239624 0.751944422721862793
0.457064390182495117 0.454182893037796021 0.363546103239059448
-1.87192094326019287 -0.40371018648147583 0.655001342296600342
0.620455741882324219 -1.31380701065063477 0.19645923376083374
-1.81291735172271729 0.0324680954217910767 0.79036945104598999
2.11198735237121582 0.0743669718503952026 0.668631911277770996
-1.83525967597961426 -0.174171671271324158 0.763662636280059814
-0.74853980541229248 -1.95240330696105957 0.160749629139900208
0.0478467419743537903 -1.19592642784118652 0.284396648406982422
0.636739373207092285 -0.837565600872039795 0.384156793355941772
-0.538879990577697754 0.551064133644104004 0.227057337760925293
-0.784212172031402588 -2.08921694755554199 0.0183336734771728516
1.08950400352478027 -0.535902440547943115 0.368279457092285156
-1.25847506523132324 -0.524759829044342041 0.328406274318695068
0.0370231717824935913 -1.08834278583526611 0.15430915355682373
1.01427137851715088 -0.631286084651947021 0.558778285980224609
-1.90981030464172363 -0.315896987915039062 0.506709575653076172
0.392777800559997559 0.473823457956314087 0.37466159462928772
1.84945642948150635 0.335591018199920654 0.473793894052505493
1.8052898645401001 -0.435843110084533691 0.517744064331054688
-0.265104502439498901 -1.33101022243499756 0.250485748052597046
1.91081225872039795 -0.552662134170532227 0.624176859855651855
0.92176973819732666 -0.448233604431152344 0.548806190490722656
-1.15636813640594482 -0.731822609901428223 0.355199456214904785
1.99592781066894531 -0.108639240264892578 0.499950498342514038
-2.13229703903198242 -0.116487830877304077 0.767801165580749512
-1.77231907844543457 -0.00567089393734931946 0.62465280294418335
2.08000421524047852 0.16025899350643158 0.461302369832992554
-1.11402320861816406 -1.38912498950958252 0.116684466600418091
-0.554302990436553955 0.00745296478271484375 0.0394195616245269775
-2.09828853607177734 -0.855542898178100586 0.450206130743026733
-1.00084316730499268 -0.492890775203704834 0.300684273242950439
1.83145856857299805 -0.555167555809020996 0.558499634265899658
1.98632526397705078 0.397789299488067627 0.682769894599914551
1.11254572868347168 -0.540674448013305664 0.588870465755462646
-0.877713441848754883 -1.64765310287475586 0.204883873462677002
0.24620288610458374 0.420301288366317749 0.443948954343795776
2.04575252532958984 -0.0360880568623542786 0.507252097129821777
0.922344863414764404 -0.471421390771865845 0.67245185375213623
-1.96756923198699951 -0.135958656668663025 0.728283226490020752
-2.05349469184875488 -0.337892234325408936 0.669466078281402588
0.753433465957641602 0.563704729080200195 0.230235815048217773
2.09344768524169922 -0.340385675430297852 0.581339538097381592
-1.08472895622253418 -1.90835738182067871 0.0061314702033996582
1.21008050441741943 -0.681554853916168213 0.526377379894256592
-0.499313682317733765 0.426879614591598511 0.189100563526153564
1.00502634048461914 -0.628207504749298096 0.73714679479598999
-0.117355316877365112 -1.34112393856048584 0.301122933626174927
-1.00045871734619141 -0.314357012510299683 0.166554450988769531
0.599931955337524414 -1.11699748039245605 0.232761934399604797
1.85797393321990967 -0.272623836994171143 0.58684229850769043
-0.534820616245269775 0.273633748292922974 0.177452340722084045
-0.304284274578094482 0.204158902168273926 0.0273959338665008545
1.97358691692352295 -0.40557563304901123 0.552678048610687256
0.996188759803771973 -0.408808201551437378 0.581259965896606445
-1.08404994010925293 -0.355474114418029785 0.323191404342651367
-0.0591304004192352295 -1.28984165191650391 0.237696617841720581
-0.0781093835830688477 -1.21784341335296631 0.272810399532318115
0.942847967147827148 -0.25490155816078186 0.529538750648498535
0.166788592934608459 0.45481264591217041 0.484698951244354248
0.889797806739807129 -0.458053708076477051 0.607373416423797607
-0.816386580467224121 -0.493184983730316162 0.223508894443511963
0.432706832885742188 0.296773463487625122 0.40333440899848938
0.186634078621864319 -1.09037995338439941 0.302220016717910767
0.895142674446105957 -0.588269412517547607 0.449033737182617188
-0.799974322319030762 -2.23249292373657227 0.0826622843742370605
1.83653128147125244 -0.575896501541137695 0.566086828708648682
0.482858777046203613 0.610536694526672363 0.445685386657714844
-0.966547369956970215 -0.669809162616729736 0.208183318376541138
2.00525116920471191 -0.56193840503692627 0.536739468574523926
-1.85722041130065918 -0.032343640923500061 0.749171614646911621
-1.11000204086303711 -1.56707191467285156 0.0420908331871032715
2.13044595718383789 -0.317291736602783203 0.495548754930496216
-1.94912850856781006 -0.245252668857574463 0.786073744297027588
1.96920323371887207 -0.427324950695037842 0.518922924995422363
-2.01418733596801758 -0.236510276794433594 0.788570284843444824
1.90354323387145996 0.464957386255264282 0.515311956405639648
0.347283899784088135 0.40047687292098999 0.296738594770431519
0.195236235857009888 -0.926313996315002441 0.265988558530807495
-0.268644005060195923 0.0518952272832393646 0.0438888967037200928
1.99243068695068359 0.0758742690086364746 0.565700054168701172
0.844564735889434814 -0.831970930099487305 0.405866324901580811
1.85424149036407471 0.305508613586425781 0.585437417030334473
-1.84343087673187256 -0.148134171962738037 0.538369655609130859
-0.15835455060005188 -1.25517141819000244 0.327052116394042969
-1.88964164257049561 -0.0363296046853065491 0.754490494728088379
1.84174370765686035 -0.129590392112731934 0.500278830528259277
-1.12204480171203613 -0.395866990089416504 0.225152760744094849
0.977436423301696777 -0.561651647090911865 0.640989959239959717
-1.07944214344024658 -0.559749007225036621 0.328284025192260742
1.90319597721099854 -0.400584697723388672 0.453323513269424438
2.10330367088317871 -0.299593329429626465 0.467925727367401123
0.570878922939300537 0.381600707769393921 0.338695555925369263
0.712523043155670166 -1.10180091857910156 0.214855432510375977
0.314809203147888184 0.572581171989440918 0.44707179069519043
0.673988103866577148 -1.17434704303741455 0.175397276878356934
-0.0901641771197319031 -1.12909269332885742 0.248990282416343689
0.945476233959197998 -0.717346847057342529 0.660716056823730469
-0.653921127319335938 0.125803887844085693 0.191018760204315186
-0.441909909248352051 0.404864490032196045 0.150452673435211182
1.12030994892120361 -0.713224947452545166 0.641238749027252197
0.38541063666343689 -1.04332935810089111 0.191252440214157104
0.997179865837097168 -0.39641183614730835 0.600270569324493408
0.941428720951080322 -0.409699916839599609 0.56657862663269043
0.527209579944610596 -1.17480826377868652 0.291496396064758301
1.13922739028930664 -0.683977365493774414 0.45102304220199585
-1.72155284881591797 -0.157132402062416077 0.694145917892456055
1.94984829425811768 -0.0931124240159988403 0.403094202280044556
1.88692545890808105 0.564667582511901855 0.565869629383087158
0.706066131591796875 -1.28790628910064697 0.242031261324882507
-0.969699263572692871 -0.403487920761108398 0.3525562584400177
-0.909698009490966797 -1.93204784393310547 0.134899169206619263
1.89029049873352051 -0.458271950483322144 0.520141065120697021
-0.20597502589225769 -0.94026559591293335 0.209601044654846191
-1.90512728691101074 -0.393814742565155029 0.718721687793731689
-0.188352376222610474 -1.11225521564483643 0.337048560380935669
1.76498579978942871 -0.441558778285980225 0.569799244403839111
-0.442553520202636719 0.0271463841199874878 0.0148889720439910889
1.70022749900817871 -0.489560484886169434 0.489658355712890625
0.499726980924606323 0.356168985366821289 0.14231601357460022
1.81335163116455078 -0.414006441831588745 0.569424092769622803
1.95852291584014893 -0.0971623510122299194 0.46660768985748291
1.18146979808807373 -0.509238004684448242 0.53158867359161377
1.95538973808288574 -0.371689915657043457 0.534033775329589844
-0.804892599582672119 -1.88759815692901611 0.0888845324516296387
1.07778847217559814 -0.637206435203552246 0.562263965606689453
0.496451497077941895 0.502353787422180176 0.39207950234413147
-0.936460316181182861 -2.08612775802612305 0.0906624197959899902
-0.969592690467834473 -1.98183810710906982 0.103545814752578735
-0.103293031454086304 -1.12963950634002686 0.208199769258499146
1.94931793212890625 -0.291704058647155762 0.466144740581512451
2.02709054946899414 0.361038863658905029 0.480264037847518921
0.99221956729888916 -0.191500097513198853 0.653066933155059814
-1.63974881172180176 -0.368998080492019653 0.414337396621704102
0.0343852415680885315 -1.232505202293396 0.272696107625961304
1.12761425971984863 -0.308433115482330322 0.699414074420928955
-1.93245553970336914 -0.282698899507522583 0.791868388652801514
0.23123246431350708 -1.1617743968963623 0.229890406131744385
2.14777898788452148 -0.181723207235336304 0.571571946144104004
-0.746416926383972168 -2.32583403587341309 0.0496401190757751465
-0.478845924139022827 0.155069932341575623 0.136967778205871582
0.932870924472808838 -0.539901494979858398 0.772193670272827148
-1.03660213947296143 -0.661012768745422363 0.24617430567741394
0.992213785648345947 -0.326503932476043701 0.543469011783599854
0.698021531105041504 -0.929246723651885986 0.30101439356803894
0.336508452892303467 0.442612439393997192 0.34294438362121582
-1.11028218269348145 -0.511866450309753418 0.322078406810760498
-0.938094615936279297 -1.65998637676239014 0.100090831518173218
-1.83254885673522949 -0.365456640720367432 0.67235255241394043
2.14782357215881348 -0.122885227203369141 0.610393702983856201
1.7997051477432251 0.530796408653259277 0.506443142890930176
0.503349184989929199 -1.00784838199615479 0.23118513822555542
0.97721022367477417 -0.58419334888458252 0.63004767894744873
-1.86882710456848145 -0.0737537890672683716 0.800449848175048828
-1.95976591110229492 -0.296839445829391479 0.778838634490966797
0.427841454744338989 0.485966742038726807 0.219376295804977417
1.04820799827575684 -0.613654851913452148 0.504389703273773193
-1.03085565567016602 -0.39154970645904541 0.182840228080749512
-1.95807480812072754 -0.290151268243789673 0.750194966793060303
1.97612178325653076 -0.536321341991424561 0.430421173572540283
0.926688551902770996 -0.435420393943786621 0.675471246242523193
2.21696352958679199 0.218719467520713806 0.540492892265319824
-0.791533768177032471 -0.640496492385864258 0.25466620922088623
0.747260868549346924 -0.984737753868103027 0.163260728120803833
-0.424527853727340698 0.20780569314956665 0.14270251989364624
0.0167074203491210938 -1.53055465221405029 0.398229241371154785
0.270086735486984253 -1.05060911178588867 0.228734076023101807
0.349080771207809448 0.56329423189163208 0.377982586622238159
0.0409067645668983459 -1.12975454330444336 0.327849298715591431
1.81902480125427246 -0.383643239736557007 0.622555732727050781
2.12707424163818359 -0.737263023853302002 0.520331978797912598
1.88240361213684082 -0.402901709079742432 0.578370094299316406
0.914965450763702393 -0.436781048774719238 0.551244378089904785
-0.323839247226715088 -0.852861106395721436 0.224556416273117065
0.760936617851257324 -0.689854741096496582 0.578266024589538574
1.93881559371948242 0.362020939588546753 0.587426543235778809
-2.04907584190368652 -0.299852102994918823 0.731441497802734375
1.91525757312774658 0.196382209658622742 0.630765914916992188
0.292902290821075439 0.344685286283493042 0.444966584444046021
0.888782620429992676 -0.408032834529876709 0.619254589080810547
2.02542853355407715 -0.00948849320411682129 0.591072559356689453
-1.9636610746383667 -0.127700671553611755 0.843008279800415039
-0.317549437284469604 0.126610070466995239 0.123225122690200806
1.06297457218170166 -0.806639015674591064 0.607899785041809082
1.9254145622253418 -0.656880736351013184 0.570421278476715088
2.07054734230041504 -0.684398651123046875 0.548124074935913086
0.41413000226020813 -1.29718315601348877 0.247568607330322266
0.948637723922729492 -0.422073900699615479 0.559404730796813965
1.87761330604553223 0.213737145066261292 0.48047754168510437
1.1307833194732666 -0.635754704475402832 0.566498637199401855
0.290053069591522217 0.330565690994262695 0.462890207767486572
2.17272424697875977 0.0738774091005325317 0.585190832614898682
1.86303997039794922 -0.239244550466537476 0.510400891304016113
0.220943599939346313 -1.21332073211669922 0.265305757522583008
2.10915493965148926 -0.183041200041770935 0.512569904327392578
-1.06585407257080078 -0.693046867847442627 0.301211893558502197
1.83509492874145508 -0.374138206243515015 0.511554121971130371
1.97821354866027832 -0.609332263469696045 0.485270410776138306
1.92668342590332031 -0.512696266174316406 0.617519676685333252
0.429151147603988647 0.262643516063690186 0.257617592811584473
2.01208043098449707 -0.239032849669456482 0.479795396327972412
-1.74954032897949219 0.0447171926498413086 0.762296080589294434
0.663944602012634277 -1.22826123237609863 0.233899950981140137
-1.84827947616577148 -0.191763341426849365 0.778658270835876465
1.87051677703857422 -0.39154130220413208 0.514084458351135254
1.03047823905944824 -0.451728373765945435 0.632328987121582031
-0.709141135215759277 -0.617723464965820312 0.256718575954437256
1.07442426681518555 -0.61399078369140625 0.618918299674987793
-0.392145156860351562 0.03868865966796875 0.0180266499519348145
0.941286265850067139 -0.609564304351806641 0.631496429443359375
1.83869612216949463 -0.485635846853256226 0.561902344226837158
-0.914572596549987793 -0.525429964065551758 0.315330803394317627
