ply
format ascii 1.0
element vertex 256
comment vertices
property float x
property float y
property float z
end_header
-0.00606385618448257446 -2.01025676727294922 0.263276368379592896
-1.23964512348175049 1.70574414730072021 -0.0350033342838287354
2.03251528739929199 0.254926532506942749 0.332341581583023071
-0.869253218173980713 -0.398023873567581177 0.352554202079772949
0.565519928932189941 1.01379156112670898 0.415151655673980713
1.76564896106719971 -1.31459307670593262 0.197351053357124329
0.795210599899291992 -0.342143714427947998 0.343016177415847778
-0.680290818214416504 0.832749128341674805 0.329548239707946777
0.291771620512008667 -1.10809445381164551 0.0671362876892089844
0.615124285221099854 0.813790082931518555 0.0441025272011756897
2.11520648002624512 -0.0518746376037597656 0.349166929721832275
-0.517778635025024414 -0.501334965229034424 0.194309145212173462
1.05121922492980957 -0.237842977046966553 0.438159286975860596
0.453431487083435059 0.563094139099121094 0.602321505546569824
-0.58105015754699707 1.46422827243804932 0.108221590518951416
-0.918851494789123535 0.229081407189369202 0.0399321019649505615
-0.698012948036193848 -0.662936270236968994 0.580827176570892334
1.64945924282073975 -1.08077883720397949 0.0879906117916107178
-0.272784888744354248 0.566704452037811279 0.455078572034835815
0.686895012855529785 1.09987509250640869 0.0836861282587051392
0.735967814922332764 -0.978571057319641113 0.0738060176372528076
2.10193729400634766 -0.165087059140205383 0.508143067359924316
1.92943465709686279 0.042185664176940918 0.409281075000762939
0.676883220672607422 0.865181565284729004 0.445887506008148193
0.430557906627655029 0.875024855136871338 0.290598809719085693
1.04811453819274902 -0.366719484329223633 0.483308494091033936
-0.411816686391830444 0.92506033182144165 0.378079771995544434
1.16896486282348633 -0.245711565017700195 0.392452269792556763
1.50161421298980713 -1.19444513320922852 0.142858490347862244
-0.28627738356590271 -2.11635446548461914 0.400171041488647461
-0.793830275535583496 -0.533386886119842529 0.230949878692626953
-1.06519651412963867 -0.0878855437040328979 0.0810198932886123657
-0.689517021179199219 -0.0870271623134613037 0.135405257344245911
-0.894773960113525391 1.2775496244430542 -0.0119846910238265991
2.11150574684143066 0.0276763364672660828 0.469872236251831055
1.93051695823669434 -1.25743627548217773 0.174887359142303467
0.856580376625061035 -0.184913039207458496 0.316161304712295532
0.480083823204040527 -0.661194980144500732 0.170120567083358765
-0.683440744876861572 0.621434628963470459 0.535161793231964111
0.0889222770929336548 -2.18156695365905762 0.366862952709197998
-0.635528087615966797 -0.312360465526580811 0.412157416343688965
0.0637664496898651123 -1.91078710556030273 0.147755175828933716
-0.88645559549331665 1.71027958393096924 0.0913507938385009766
1.81361865997314453 -1.24178516864776611 0.0960449501872062683
1.88466274738311768 0.36911475658416748 0.363659560680389404
1.96356785297393799 0.269256353378295898 0.358732372522354126
0.375211268663406372 0.852884948253631592 0.560273289680480957
0.126639306545257568 -0.799833953380584717 0.0721020996570587158
2.01432228088378906 0.330787599086761475 0.202723860740661621
-1.08567500114440918 0.153784275054931641 0.0631115138530731201
-0.720127642154693604 -0.525394916534423828 0.47354048490524292
1.57762432098388672 -1.36570751667022705 0.301098257303237915
-0.352306485176086426 0.824819386005401611 0.4253731369972229
2.13831067085266113 0.0602360069751739502 0.385687977075576782
0.423649191856384277 1.17992639541625977 0.352988123893737793
0.462691992521286011 0.831061720848083496 0.378220647573471069
0.524096667766571045 0.986427128314971924 0.12617039680480957
1.0331496000289917 -0.296500653028488159 0.471326589584350586
-0.770248889923095703 -0.474671989679336548 0.251219004392623901
0.727104365825653076 -0.136158719658851624 0.34251636266708374
-0.768516778945922852 -0.63839268684387207 0.486130684614181519
-0.962087810039520264 1.46984601020812988 -0.00445511937141418457
0.620279908180236816 0.963047981262207031 0.333870291709899902
-0.0914566889405250549 -2.08091402053833008 0.134451285004615784
0.0688462257385253906 -2.07708883285522461 0.219070658087730408
1.94390332698822021 -0.136324077844619751 0.433461815118789673
0.739428043365478516 -0.733721077442169189 0.301395654678344727
-0.84035789966583252 0.0225074067711830139 0.0218846797943115234
2.0204627513885498 0.091394469141960144 0.3094482421875
0.514517128467559814 -0.997060298919677734 0.127507284283638
0.709438741207122803 1.06267368793487549 0.374386429786682129
-0.182034686207771301 -1.94262039661407471 0.301016449928283691
0.660273730754852295 1.0434800386428833 0.165231943130493164
1.77444028854370117 -1.3392561674118042 0.263359785079956055
0.611822545528411865 0.545455694198608398 0.6276436448097229
-0.715021073818206787 -0.46053624153137207 0.517179965972900391
1.0735933780670166 -0.222405344247817993 0.350843846797943115
-0.67980492115020752 -0.509807229042053223 0.531976997852325439
1.14420270919799805 -0.383299499750137329 0.469074994325637817
2.01206827163696289 0.0961646586656570435 0.379898011684417725
-0.0480281263589859009 -2.0727543830871582 0.348286449909210205
0.015431523323059082 -1.86484110355377197 0.159226089715957642
0.714659273624420166 0.978798389434814453 0.274943649768829346
-0.7642669677734375 -0.283861041069030762 0.16744193434715271
0.569563150405883789 1.10210239887237549 0.123349383473396301
-0.547053337097167969 -0.425385355949401855 0.36517709493637085
1.03108096122741699 -0.374505370855331421 0.41113203763961792
1.61932265758514404 -1.18710660934448242 0.0763720124959945679
-0.444801211357116699 0.791870832443237305 0.438403695821762085
-0.924504756927490234 1.51961028575897217 0.0503263771533966064
0.079509243369102478 -2.11594724655151367 0.225029975175857544
2.0065615177154541 0.143384695053100586 0.216391533613204956
0.484822511672973633 0.744390726089477539 0.361949145793914795
-0.905075371265411377 0.0180742572993040085 0.0600083023309707642
-0.197571992874145508 -2.144622802734375 0.196845531463623047
0.283437967300415039 0.883632838726043701 0.262397050857543945
-0.654276072978973389 -0.526356399059295654 0.283190131187438965
-0.759163141250610352 1.39340651035308838 0.0693894624710083008
1.64200258255004883 -1.26018631458282471 0.266021221876144409
0.468142151832580566 0.780000150203704834 0.499075651168823242
-0.432118594646453857 0.499025583267211914 0.449115246534347534
1.62563860416412354 -1.25591015815734863 0.169695034623146057
0.522534549236297607 0.793851733207702637 0.182168692350387573
-0.718818902969360352 -0.476563811302185059 0.219937980175018311
0.125362008810043335 -1.93283390998840332 0.192155137658119202
0.633557796478271484 0.845389366149902344 0.239558964967727661
0.616055667400360107 0.939875483512878418 0.52363818883895874
1.77373397350311279 -1.10884773731231689 0.201078534126281738
0.429424285888671875 0.993658125400543213 0.548861801624298096
1.11529207229614258 -0.312393784523010254 0.494310140609741211
-0.0961481258273124695 -2.04053807258605957 0.13338586688041687
0.946288228034973145 -0.291434496641159058 0.374455541372299194
-0.529458463191986084 0.903703391551971436 0.393564224243164062
0.599194586277008057 1.06411516666412354 0.0838882625102996826
0.245082810521125793 -1.00019752979278564 0.0161986052989959717
2.09466719627380371 0.0188044235110282898 0.361295819282531738
0.194360285997390747 -0.956518650054931641 0.00470817089080810547
2.14412307739257812 0.0041179955005645752 0.403676033020019531
0.390760719776153564 0.87294083833694458 0.216574549674987793
0.453164964914321899 0.940598726272583008 0.420228272676467896
0.686119198799133301 0.986504554748535156 0.328616142272949219
-0.938223779201507568 -0.260265916585922241 0.342774897813796997
1.71055400371551514 -1.2978661060333252 -0.0150662362575531006
-0.129260212182998657 0.833959579467773438 0.350704401731491089
0.889139890670776367 -0.222090005874633789 0.35276523232460022
-0.564765334129333496 -0.451540052890777588 0.678128719329833984
-0.686529278755187988 -0.384687691926956177 0.444858819246292114
1.90500473976135254 0.239461719989776611 0.272563040256500244
-0.789744734764099121 -0.493806898593902588 0.324010908603668213
-0.669034004211425781 -0.586973309516906738 0.328548312187194824
0.148310393095016479 -2.0670773983001709 0.33530890941619873
0.868254482746124268 -0.373132377862930298 0.373811423778533936
0.419242620468139648 -0.862032234668731689 0.0374275743961334229
-0.0895559415221214294 -2.02229499816894531 0.309933930635452271
-1.24897193908691406 1.50636780261993408 -0.0887920260429382324
2.04583430290222168 0.0045134425163269043 0.395297080278396606
0.384599387645721436 0.746645569801330566 0.455861687660217285
2.11688613891601562 0.0675656050443649292 0.280135959386825562
0.648271560668945312 1.13537752628326416 0.299618273973464966
-1.37074685096740723 1.64869797229766846 0.0391498804092407227
-0.751901686191558838 -0.17780633270740509 0.105447635054588318
2.1010444164276123 0.11951291561126709 0.395662754774093628
0.418701529502868652 0.575491666793823242 0.629268646240234375
2.03300929069519043 0.164898216724395752 0.297944992780685425
0.0230338349938392639 -1.96407675743103027 0.190702855587005615
-0.749016880989074707 0.237852737307548523 0.00704863667488098145
-0.127854123711585999 -1.90282487869262695 0.243279784917831421
0.647638380527496338 0.953935444355010986 0.161994189023971558
1.89811623096466064 -0.00301195681095123291 0.272983163595199585
2.01837515830993652 0.103844583034515381 0.314737081527709961
0.899343609809875488 -0.223085537552833557 0.419478118419647217
1.0668637752532959 -0.372688233852386475 0.489206671714782715
-0.712867200374603271 -0.471793621778488159 0.581492125988006592
-1.02836024761199951 1.31310164928436279 -0.0381280481815338135
0.642322778701782227 0.961788952350616455 0.250542879104614258
2.15736222267150879 -0.00724242627620697021 0.336760550737380981
1.67971467971801758 -1.17421960830688477 0.180443227291107178
0.151434227824211121 -2.09658908843994141 0.282079845666885376
0.0938386619091033936 -2.06414103507995605 0.298585116863250732
1.00776028633117676 -0.256444931030273438 0.460981488227844238
1.69572722911834717 -1.31206107139587402 0.139310374855995178
0.430242091417312622 0.658989250659942627 0.529766201972961426
-0.446506142616271973 0.626926004886627197 0.508738458156585693
-0.988950669765472412 -0.00879351049661636353 0.0659897029399871826
-0.204696565866470337 -2.01111078262329102 0.328295439481735229
0.0344503223896026611 -1.99962067604064941 0.172269240021705627
0.96409231424331665 -0.334866821765899658 0.457218378782272339
0.02960166335105896 -1.96672797203063965 0.245371207594871521
-0.716167032718658447 -0.617014169692993164 0.447244226932525635
1.50766646862030029 -1.33753800392150879 0.247450679540634155
-0.718842387199401855 -0.434927880764007568 0.143086850643157959
0.286840975284576416 -0.982124209403991699 0.0552768707275390625
-0.731609940528869629 -0.531768798828125 0.453701376914978027
1.80517935752868652 -1.32558488845825195 0.317450463771820068
-0.76151198148727417 1.38570952415466309 0.0356782078742980957
0.295220673084259033 -0.773933827877044678 0.0902417302131652832
0.54319000244140625 0.931564927101135254 0.590137720108032227
-0.836551010608673096 -0.574586391448974609 0.139177411794662476
1.8917086124420166 0.0136064141988754272 0.400699317455291748
-0.4055003821849823 0.948613882064819336 0.406060963869094849
-1.01418447494506836 1.64752984046936035 0.0139915049076080322
1.99150025844573975 0.254257351160049438 0.26890265941619873
0.00731740891933441162 -1.96983528137207031 0.277668625116348267
-0.947637796401977539 -0.151302427053451538 0.174965277314186096
2.21369528770446777 0.0893082767724990845 0.352920770645141602
1.79681968688964844 -1.26256287097930908 0.342710018157958984
0.598398327827453613 1.03558385372161865 0.548575520515441895
0.413671493530273438 1.00704491138458252 0.499812573194503784
1.8287360668182373 -1.19530177116394043 0.241219654679298401
-0.737054705619812012 0.129147887229919434 0.0898716151714324951
-0.889578580856323242 0.0311954915523529053 0.0683830231428146362
1.51598548889160156 -1.32102537155151367 0.233211874961853027
0.58320319652557373 1.09277629852294922 0.342755436897277832
-0.802142918109893799 1.55533957481384277 0.0555513203144073486
-0.706467509269714355 -0.564418792724609375 0.61097341775894165
2.11350417137145996 0.0556237176060676575 0.263319551944732666
0.0418680831789970398 -2.00618839263916016 0.107665151357650757
-0.664213895797729492 -0.476977884769439697 0.405949294567108154
0.670097827911376953 0.998145401477813721 0.428369402885437012
-0.627829372882843018 -0.533467650413513184 0.365023016929626465
-0.564766228199005127 -0.512541830539703369 0.202663794159889221
1.14037132263183594 -0.211072251200675964 0.344363003969192505
0.29586869478225708 0.856743693351745605 0.482144743204116821
1.09856832027435303 -0.388104557991027832 0.39479982852935791
0.63383859395980835 -0.772507965564727783 0.141236886382102966
1.03159654140472412 -0.387774497270584106 0.492853164672851562
0.925839245319366455 -0.424302279949188232 0.418433189392089844
-1.17045307159423828 1.51012539863586426 -0.0515277385711669922
-0.757785320281982422 -0.118218079209327698 0.0768280327320098877
1.07624387741088867 -0.370994269847869873 0.44053339958190918
-0.795358419418334961 -0.618940651416778564 0.353214740753173828
0.489877223968505859 0.837223589420318604 0.454248309135437012
0.693241238594055176 -0.234764844179153442 0.273438513278961182
-0.0840559527277946472 -1.92799568176269531 0.339046657085418701
-0.651203274726867676 0.71066594123840332 0.488865435123443604
0.453409850597381592 -0.903441190719604492 0.0933453738689422607
0.998220086097717285 -0.278888940811157227 0.458739519119262695
1.62569785118103027 -1.18909096717834473 0.0996582508087158203
1.5535275936126709 -1.25062096118927002 0.0829527974128723145
0.532051444053649902 0.947350263595581055 0.271247684955596924
-0.923063278198242188 1.2808842658996582 0.0360780954360961914
2.05324673652648926 0.0543089583516120911 0.335446655750274658
0.588745713233947754 0.874025523662567139 0.470385313034057617
0.704907119274139404 1.07504463195800781 0.274823248386383057
1.9872514009475708 -0.0200388431549072266 0.27574196457862854
1.76190590858459473 -1.15932047367095947 0.181998223066329956
-0.0613827705383300781 -2.10377788543701172 0.277189314365386963
0.415056765079498291 1.10200214385986328 0.418362796306610107
0.0459506772458553314 -1.84211325645446777 0.0703329890966415405
1.69774997234344482 -1.37105929851531982 0.215513378381729126
0.636931061744689941 0.921691536903381348 0.295971810817718506
-0.014995187520980835 -1.93332803249359131 0.17205299437046051
1.80714225769042969 -1.35086452960968018 0.339530885219573975
-0.598184406757354736 0.824404120445251465 0.478527605533599854
1.00490224361419678 -0.284531056880950928 0.440451383590698242
1.08211660385131836 -0.373082488775253296 0.530794620513916016
-0.599203586578369141 -0.558541476726531982 0.217669546604156494
0.307664185762405396 0.859411001205444336 0.37030404806137085
-0.484686821699142456 0.597390353679656982 0.48454633355140686
0.0356429405510425568 -2.10491776466369629 0.270317733287811279
1.97565412521362305 0.147717282176017761 0.263873249292373657
-0.157353073358535767 -2.04073882102966309 0.282077252864837646
-0.695339441299438477 -0.513467013835906982 0.347210079431533813
0.0961213335394859314 -2.02215385437011719 0.254033744335174561
-0.223848670721054077 -2.03948736190795898 0.320949286222457886
-0.916481494903564453 1.36499941349029541 0.0621757209300994873
2.08282732963562012 0.0212476402521133423 0.398275315761566162
-0.420035392045974731 0.8236541748046875 0.460056126117706299
1.72435343265533447 -1.26597714424133301 0.182958275079727173
1.74321377277374268 -1.29015600681304932 0.272430598735809326
2.0828242301940918 0.134939610958099365 0.315771758556365967
-0.759691953659057617 0.0326846539974212646 0.0967617779970169067
-0.176808029413223267 -2.0714569091796875 0.318942904472351074
0.950367629528045654 -0.20419725775718689 0.352438807487487793
-0.757781624794006348 -0.541632652282714844 0.560992658138275146
0.404353171586990356 0.805588603019714355 0.433143973350524902
