ply
format ascii 1.0
element vertex 256
comment vertices
property float x
property float y
property float z
end_header
-0.432422488927841187 0.932867825031280518 0.298412859439849854
-1.27318120002746582 -2.23386931419372559 0.536015152931213379
2.22083950042724609 0.305625855922698975 0.409675717353820801
0.731807708740234375 -1.15249776840209961 0.422317713499069214
1.63205838203430176 1.94465517997741699 0.449386537075042725
-1.26874697208404541 -0.567879915237426758 0.700536727905273438
0.819115877151489258 0.332215636968612671 0.84904789924621582
0.700166285037994385 1.41985034942626953 0.271848887205123901
-2.02097415924072266 -1.26523041725158691 0.358187228441238403
-0.931363821029663086 -1.45607924461364746 0.721294164657592773
1.01887953281402588 -0.364876210689544678 0.319587498903274536
1.96779799461364746 1.17428088188171387 0.366575956344604492
0.318076789379119873 0.664025306701660156 0.202217921614646912
1.2753223180770874 1.21386265754699707 0.76502680778503418
-0.916974306106567383 -0.165136635303497314 0.204695090651512146
1.28687095642089844 0.43596881628036499 0.311525791883468628
0.104698888957500458 0.645321428775787354 0.84312903881072998
-1.47420668601989746 -1.66427075862884521 0.554036736488342285
-2.0110623836517334 -0.776744425296783447 0.713439583778381348
1.38530635833740234 0.133588910102844238 0.876416206359863281
0.0811240673065185547 1.14218568801879883 0.502405405044555664
-0.773749947547912598 -0.872769415378570557 0.674802064895629883
0.804238021373748779 -0.71023261547088623 0.785805821418762207
0.715807855129241943 0.117219492793083191 0.300137579441070557
-1.37722945213317871 -1.95062053203582764 0.0669177621603012085
-0.780727267265319824 1.351951003074646 0.391929745674133301
0.793084084987640381 0.891330242156982422 0.376949310302734375
1.9037628173828125 0.685637772083282471 0.616581976413726807
1.0895087718963623 1.65160703659057617 0.551912784576416016
-1.34605991840362549 -1.1582721471786499 0.7626953125
-0.652721285820007324 -0.408230811357498169 0.5704231858253479
1.00333964824676514 -0.169509962201118469 0.840534985065460205
-1.68893539905548096 -0.924137115478515625 0.369277775287628174
0.56873244047164917 -0.502764463424682617 0.366274654865264893
0.468438923358917236 1.07558774948120117 0.0247535314410924911
1.02519679069519043 1.19022512435913086 0.0278114583343267441
-1.08886849880218506 -0.813707888126373291 0.348389804363250732
-1.16852068901062012 -1.50026702880859375 0.256161093711853027
1.62643909454345703 1.49921095371246338 0.750638842582702637
-0.368049740791320801 1.36849403381347656 0.21303202211856842
0.559570193290710449 0.900767266750335693 0.745532631874084473
-1.07802915573120117 -1.83689427375793457 0.537787795066833496
1.2062152624130249 0.0128514394164085388 0.388244926929473877
1.92192280292510986 0.542041778564453125 0.217147856950759888
1.144431471824646 0.52316892147064209 1.02185201644897461
-0.261433720588684082 0.707102477550506592 0.667198479175567627
1.18842446804046631 -0.625355660915374756 0.696312606334686279
1.42139625549316406 0.636621356010437012 0.629890382289886475
-1.05140161514282227 -0.267303228378295898 0.56432729959487915
0.730760097503662109 0.463595747947692871 0.489102423191070557
-1.27092123031616211 -0.329342782497406006 0.171764880418777466
0.851685106754302979 -0.762043893337249756 0.393991678953170776
1.47806453704833984 1.51912343502044678 0.405209571123123169
-0.0709961205720901489 1.08509719371795654 0.163728147745132446
-0.911811590194702148 -0.529305994510650635 0.151973515748977661
-0.122316449880599976 0.759574592113494873 0.322305619716644287
0.790372669696807861 -0.36952441930770874 0.606948614120483398
1.44571709632873535 1.80798244476318359 0.713624119758605957
-1.72417700290679932 -0.640550851821899414 0.566264867782592773
0.543710649013519287 1.1392282247543335 0.39625820517539978
2.20756745338439941 0.701526045799255371 0.319504201412200928
-0.22262127697467804 1.28643918037414551 0.518013715744018555
-0.949114978313446045 -0.590600788593292236 0.600654780864715576
-1.71137797832489014 -1.23135769367218018 0.236860170960426331
-1.3853611946105957 -1.95153546333312988 0.695576488971710205
1.79142165184020996 0.84367215633392334 0.191480636596679688
1.05133271217346191 0.117792904376983643 0.691202998161315918
-1.67094945907592773 -1.09839057922363281 0.64466404914855957
-1.12695538997650146 -1.25109744071960449 0.451186895370483398
-1.48051464557647705 -1.46770501136779785 0.245406866073608398
0.663785457611083984 0.0668960511684417725 0.90020906925201416
0.795372724533081055 0.58790355920791626 0.218030452728271484
-0.276532888412475586 0.997010171413421631 0.575660467147827148
-1.22931969165802002 -1.53966355323791504 0.674214959144592285
-1.51081252098083496 -1.36628639698028564 0.623308241367340088
-1.30210673809051514 -0.600789844989776611 0.294023454189300537
1.59333944320678711 1.20176959037780762 0.749709129333496094
0.216097086668014526 0.878667294979095459 0.541684091091156006
1.26508104801177979 1.5133441686630249 0.748331248760223389
-0.61733090877532959 1.0693819522857666 0.485987365245819092
0.529009342193603516 0.773235797882080078 0.427391976118087769
1.17363619804382324 1.29976880550384521 0.503611266613006592
1.12294960021972656 0.970165133476257324 0.716255784034729004
0.915884971618652344 0.606631338596343994 0.836137712001800537
-0.785684287548065186 -0.161335408687591553 0.498594105243682861
-0.589776098728179932 1.16219234466552734 0.216636180877685547
0.776669025421142578 0.123213864862918854 0.579282045364379883
-0.699060261249542236 0.830467462539672852 0.301770567893981934
1.06191205978393555 0.249765664339065552 1.02249348163604736
0.498568058013916016 0.453546226024627686 0.267675727605819702
0.776651620864868164 1.05797064304351807 0.147454202175140381
-2.02081131935119629 -0.984328985214233398 0.392100781202316284
1.79988992214202881 0.414671719074249268 0.43660464882850647
1.00915992259979248 -0.607586443424224854 0.18085227906703949
-1.24465250968933105 -1.76494979858398438 0.300781279802322388
-0.489160895347595215 0.702553272247314453 0.441954046487808228
1.39509248733520508 0.434090197086334229 0.971094489097595215
-0.499828457832336426 0.965730428695678711 0.0429039672017097473
2.0634913444519043 0.531759738922119141 0.473988175392150879
0.0231830179691314697 0.642398953437805176 0.507900118827819824
-1.47169995307922363 -2.01070046424865723 0.303154706954956055
1.51148891448974609 1.27989721298217773 0.500259816646575928
-0.0418382585048675537 1.0073249340057373 0.686093449592590332
0.994249343872070312 -0.810509204864501953 0.60074615478515625
1.23416042327880859 1.43496346473693848 0.297504007816314697
-0.818231940269470215 -0.56485140323638916 0.384062826633453369
1.23175716400146484 0.46962013840675354 0.555540382862091064
0.959445357322692871 0.0284628868103027344 0.427348196506500244
1.06575250625610352 0.412638843059539795 0.786798000335693359
0.959306836128234863 -0.5203285813331604 0.710506260395050049
-1.49552476406097412 -2.10460996627807617 0.532415151596069336
-1.84799909591674805 -0.900475800037384033 0.57574307918548584
1.03361749649047852 0.00540447235107421875 1.03718209266662598
1.2515416145324707 0.259727925062179565 0.707524776458740234
-1.2689584493637085 -1.97433602809906006 0.475219547748565674
-1.26119720935821533 -0.308856427669525146 0.675771236419677734
-0.0110151320695877075 1.32227766513824463 0.373260349035263062
-2.10644006729125977 -0.996599256992340088 0.615411579608917236
0.715249001979827881 -0.65674281120300293 0.559084653854370117
-1.07717692852020264 -0.0555123239755630493 0.458844393491744995
1.21386301517486572 -0.0467078052461147308 0.741671741008758545
0.679635405540466309 0.68115311861038208 0.579720735549926758
-1.07438194751739502 -0.433095276355743408 0.739260554313659668
1.02676057815551758 -0.543144643306732178 0.489914357662200928
-1.90836286544799805 -1.4587935209274292 0.41059410572052002
-0.319248557090759277 1.155722975730896 0.28525996208190918
0.804232478141784668 -0.476996362209320068 0.404399275779724121
-1.30775511264801025 -2.18322420120239258 0.757360339164733887
0.42406049370765686 0.984562873840332031 0.276922881603240967
1.34769356250762939 1.65519428253173828 0.531372904777526855
-0.102709077298641205 0.996505439281463623 0.435299903154373169
1.16033339500427246 0.233603611588478088 0.508659541606903076
0.863240838050842285 0.0500582382082939148 0.780712246894836426
-0.316466629505157471 0.771786332130432129 0.207303032279014587
-1.30103218555450439 -1.52301514148712158 0.468670785427093506
-1.09975993633270264 -2.10187244415283203 0.516888797283172607
-1.11218619346618652 -0.306139439344406128 0.315238922834396362
0.687401235103607178 0.858752727508544922 0.19299769401550293
-0.0361706167459487915 0.722588121891021729 0.70114976167678833
-1.24023723602294922 -1.33303201198577881 0.618840575218200684
1.45330631732940674 1.37949371337890625 0.72232973575592041
-0.4157542884349823 0.841526687145233154 0.611299335956573486
-0.88708186149597168 -0.299294829368591309 0.692221343517303467
-0.299350440502166748 1.00066483020782471 0.144091591238975525
-1.26258111000061035 -1.71437656879425049 0.562754511833190918
2.08651256561279297 0.776274204254150391 0.473800003528594971
1.84485232830047607 0.616437077522277832 0.408788114786148071
1.17808961868286133 0.115800894796848297 0.882639765739440918
-0.759664654731750488 1.09351253509521484 0.338827937841415405
-0.963564813137054443 -0.622662007808685303 0.803202688694000244
0.680703401565551758 1.21611559391021729 0.253646284341812134
0.532743692398071289 1.40052151679992676 0.388027966022491455
-0.968559443950653076 -0.41627386212348938 0.454663455486297607
-1.90352094173431396 -1.15064239501953125 0.474821865558624268
-0.783813238143920898 -0.27173498272895813 0.33039364218711853
-0.972635328769683838 -0.87470477819442749 0.675957560539245605
-0.207170337438583374 0.879629075527191162 0.749603688716888428
-0.280797392129898071 0.673705160617828369 0.405559390783309937
-1.57799506187438965 -0.696144521236419678 0.688313841819763184
0.0679760724306106567 1.12242031097412109 0.307437539100646973
1.2433398962020874 1.47962832450866699 0.537220954895019531
1.45037758350372314 1.5738060474395752 0.790058374404907227
-1.90884566307067871 -1.13394689559936523 0.268479496240615845
1.61924207210540771 1.76370024681091309 0.515814900398254395
0.749647378921508789 -0.418716639280319214 0.789067268371582031
0.616042733192443848 0.962756633758544922 0.424309134483337402
-0.089378058910369873 1.27455198764801025 0.134016573429107666
1.81016397476196289 1.23465871810913086 0.458366334438323975
-1.13950073719024658 -1.92253637313842773 0.32927316427230835
-0.422450631856918335 1.04351305961608887 0.461040079593658447
1.24301004409790039 1.69736456871032715 0.685088157653808594
-0.277748614549636841 0.883496105670928955 0.393486648797988892
-1.86721456050872803 -0.880699515342712402 0.771371543407440186
1.00494170188903809 0.221529379487037659 0.847074031829833984
0.555367529392242432 0.720601499080657959 0.250894427299499512
-0.227412000298500061 1.31744241714477539 0.32336851954460144
-0.878597795963287354 -0.851181507110595703 0.518297791481018066
-1.21931099891662598 -2.05317378044128418 0.660261571407318115
1.52382016181945801 1.58141040802001953 0.621231198310852051
-1.51501274108886719 -1.91652512550354004 0.569867610931396484
-1.1681288480758667 -1.64341485500335693 0.421986132860183716
-0.75165790319442749 -0.487705647945404053 0.703112602233886719
-1.65633559226989746 -0.917329609394073486 0.671378731727600098
-0.121281072497367859 0.85595858097076416 0.589679300785064697
0.729464352130889893 0.635809838771820068 0.381760388612747192
2.06723618507385254 0.334856808185577393 0.504198312759399414
1.01900267601013184 -0.384740173816680908 0.604500174522399902
-0.964056134223937988 -0.240305930376052856 0.394759088754653931
-0.627802908420562744 0.934311449527740479 0.165889531373977661
1.26857995986938477 0.00237137079238891602 0.577666759490966797
0.113637536764144897 0.87693941593170166 0.394851088523864746
-0.950537264347076416 -0.720996677875518799 0.419592201709747314
-0.827419281005859375 -0.334280639886856079 0.526193618774414062
-1.06420731544494629 -0.437582194805145264 0.144041925668716431
-0.484419733285903931 0.832167387008666992 0.158710584044456482
1.10841894149780273 1.40552639961242676 0.628138601779937744
1.30310142040252686 0.143287897109985352 0.460882723331451416
0.787930548191070557 -0.558035135269165039 0.684051275253295898
-1.75940477848052979 -1.36698746681213379 0.411648213863372803
-1.12497162818908691 -1.74371576309204102 0.6777077317237854
-1.3985518217086792 -1.84671938419342041 0.461196094751358032
0.876615583896636963 -0.44006386399269104 0.250871390104293823
-1.12043392658233643 -0.653104603290557861 0.682022273540496826
1.28683090209960938 0.176079452037811279 1.00955677032470703
0.580466508865356445 1.07390797138214111 0.1532411128282547
-0.463790953159332275 1.22993290424346924 0.335931509733200073
-1.63365066051483154 -1.0132521390914917 0.50361168384552002
1.30856990814208984 1.33546435832977295 0.598676323890686035
-1.30077874660491943 -1.98434937000274658 0.213067919015884399
-0.233929723501205444 1.12101948261260986 0.470613658428192139
0.114268437027931213 0.96489793062210083 0.64304804801940918
-1.14317202568054199 -1.51574063301086426 0.815459191799163818
1.14369606971740723 1.21401870250701904 0.662988007068634033
-0.161351859569549561 0.960741996765136719 0.284633934497833252
-1.27524733543395996 -0.251330554485321045 0.316850483417510986
2.09328985214233398 0.423390507698059082 0.353936582803726196
0.282884538173675537 0.544151544570922852 0.308406978845596313
-0.0903905183076858521 1.20046460628509521 0.299122273921966553
-1.83318626880645752 -1.01404809951782227 0.420733243227005005
-1.333992600440979 -1.41773343086242676 0.295758277177810669
-1.12879252433776855 -0.401331782341003418 0.47897791862487793
1.27121186256408691 0.336611658334732056 0.930735111236572266
0.822828471660614014 0.744113445281982422 0.304752469062805176
1.67640578746795654 1.35018551349639893 0.790144741535186768
0.747898876667022705 0.46513444185256958 0.311393767595291138
1.61865198612213135 1.37294220924377441 0.576521694660186768
-1.75506699085235596 -0.786826848983764648 0.636971592903137207
-0.968238592147827148 -1.94981038570404053 0.519273161888122559
1.20907688140869141 1.60900139808654785 0.453398197889328003
0.798473596572875977 0.375523418188095093 0.699148595333099365
-1.34882378578186035 -1.6888052225112915 0.390817165374755859
1.02367842197418213 0.0621833354234695435 0.835679531097412109
-1.33842587471008301 -1.78864669799804688 0.676172256469726562
-0.853640437126159668 -0.668284237384796143 0.703657627105712891
1.36788797378540039 1.48797070980072021 0.635092675685882568
-1.21819233894348145 -0.567187488079071045 0.554747998714447021
1.91085624694824219 0.526838541030883789 0.514291346073150635
-0.156139925122261047 1.09217572212219238 0.599178433418273926
0.584205329418182373 -0.585852503776550293 0.493774712085723877
1.00869357585906982 0.232530891895294189 0.523991167545318604
-0.850403487682342529 -0.500004112720489502 0.528839349746704102
-2.15168547630310059 -0.83004605770111084 0.7270965576171875
0.904345691204071045 -0.00456228107213973999 0.914717674255371094
-1.18474602699279785 -1.90709388256072998 0.616839945316314697
-1.90345489978790283 -1.3002018928527832 0.487698763608932495
0.950865566730499268 -0.678930759429931641 0.778439462184906006
0.76424098014831543 -0.640712261199951172 0.386655092239379883
-0.397640049457550049 0.795968174934387207 0.34742853045463562
0.0313317477703094482 0.856715798377990723 0.704446017742156982
-0.573243498802185059 1.03873634338378906 0.299062460660934448
0.823396384716033936 -0.734954178333282471 0.624821126461029053
-0.74584507942199707 -0.457619667053222656 0.31063416600227356
-0.333207130432128906 0.792711198329925537 0.497009068727493286
-0.170992851257324219 0.696849644184112549 0.502180337905883789
-1.06325435638427734 -0.660869598388671875 0.345273792743682861
0.818203389644622803 1.11024534702301025 0.279127955436706543
