ply
format ascii 1.0
element vertex 205
comment vertices
property float x
property float y
property float z
end_header
-0.762263596057891846 -0.608148455619812012 0.309264540672302246
0.85651242733001709 0.431566476821899414 0.0330597981810569763
1.67601191997528076 1.08023333549499512 0.395521074533462524
-0.727280616760253906 -0.617758810520172119 0.290528565645217896
1.55143046379089355 1.12908470630645752 0.413447409868240356
0.97468268871307373 0.397632122039794922 0.0922717228531837463
-0.587624490261077881 0.801950216293334961 0.31853872537612915
-0.855799615383148193 -0.546845197677612305 0.21989189088344574
0.996626198291778564 0.413542181253433228 0.141714885830879211
1.06026744842529297 0.441839277744293213 0.0239204913377761841
1.62767720222473145 1.19868636131286621 0.414738118648529053
1.55058801174163818 1.11943972110748291 0.359059721231460571
1.59182929992675781 1.18813002109527588 0.439394742250442505
-0.841576159000396729 -0.578640162944793701 0.358280450105667114
-0.592272043228149414 0.819007396697998047 0.291620105504989624
-0.831168889999389648 -0.585461020469665527 0.297035843133926392
-0.813788294792175293 -0.549226880073547363 0.23388315737247467
-0.591347932815551758 0.850072503089904785 0.36949920654296875
-0.82014155387878418 -0.5488089919090271 0.309070885181427002
-0.500343680381774902 0.781188547611236572 0.347717463970184326
1.59665894508361816 1.19651365280151367 0.436480909585952759
-0.770818889141082764 -0.627579808235168457 0.225131362676620483
0.93679356575012207 0.45489269495010376 -0.000746339559555053711
1.03713357448577881 0.4358024001121521 0.0288804471492767334
1.53903472423553467 1.19593822956085205 0.487330347299575806
1.62989413738250732 1.18129253387451172 0.42454993724822998
1.52952361106872559 1.17641603946685791 0.327851831912994385
-0.628846406936645508 0.816408991813659668 0.28602561354637146
-0.463924378156661987 0.780846297740936279 0.22147253155708313
-0.562487483024597168 0.845391154289245605 0.34725266695022583
1.54727578163146973 1.09292769432067871 0.46944040060043335
-0.939248919486999512 -0.548373401165008545 0.319576412439346313
1.0590972900390625 0.445486485958099365 0.0166240856051445007
1.5248798131942749 1.19758462905883789 0.370027780532836914
-0.570276618003845215 0.814328432083129883 0.431761592626571655
1.65445983409881592 1.14924883842468262 0.431898653507232666
-0.821139931678771973 -0.605030417442321777 0.286747872829437256
-0.836039185523986816 -0.553892135620117188 0.358825355768203735
0.919669091701507568 0.479103833436965942 0.00480020046234130859
-0.815588593482971191 -0.534386694431304932 0.245614707469940186
1.60792243480682373 1.09154510498046875 0.365803956985473633
-0.580491542816162109 0.779037654399871826 0.297325104475021362
0.94190746545791626 0.463509589433670044 0.103884905576705933
1.5595247745513916 1.17931258678436279 0.419255912303924561
-0.473265349864959717 0.782551944255828857 0.285040408372879028
1.5642399787902832 1.15672016143798828 0.330803275108337402
1.6222679615020752 1.17121577262878418 0.445356458425521851
-0.904773533344268799 -0.551452517509460449 0.392948925495147705
-0.797269821166992188 -0.496750295162200928 0.194065332412719727
-0.850189924240112305 -0.475858390331268311 0.20729413628578186
-0.627015054225921631 0.805808961391448975 0.341104984283447266
-0.83592832088470459 -0.591591000556945801 0.249477863311767578
1.52701246738433838 1.10864484310150146 0.341463923454284668
-0.837327003479003906 -0.54691779613494873 0.344232261180877686
1.0602947473526001 0.392742037773132324 0.045374009758234024
0.942602932453155518 0.477101504802703857 0.0525788664817810059
-0.854865014553070068 -0.536162853240966797 0.301684349775314331
-0.496624231338500977 0.741972506046295166 0.22515636682510376
-0.618093371391296387 0.805769860744476318 0.223601251840591431
1.50106751918792725 1.15198433399200439 0.376527398824691772
-0.598073959350585938 0.836229681968688965 0.405302226543426514
-0.970538318157196045 -0.540387511253356934 0.431808710098266602
-0.761754810810089111 -0.664043426513671875 0.263991206884384155
1.53542912006378174 1.21889209747314453 0.398173391819000244
1.63035571575164795 1.06906700134277344 0.375277161598205566
-0.908406972885131836 -0.537837505340576172 0.285477310419082642
-0.738386213779449463 -0.511407315731048584 0.274392873048782349
-0.86508411169052124 -0.545552372932434082 0.303187310695648193
-0.464358389377593994 0.730219483375549316 0.187620490789413452
1.54179954528808594 1.12443196773529053 0.392894089221954346
-0.432455897331237793 0.776055693626403809 0.324974328279495239
1.55013620853424072 1.09134268760681152 0.303008049726486206
1.56062495708465576 1.15994179248809814 0.349238872528076172
-0.54849541187286377 0.802260518074035645 0.401150017976760864
-0.821068882942199707 -0.600223660469055176 0.364941298961639404
1.59448182582855225 1.10482549667358398 0.452149242162704468
-0.481091022491455078 0.784917950630187988 0.244942829012870789
1.57979071140289307 1.20288097858428955 0.374448716640472412
-0.836485505104064941 -0.524111568927764893 0.33517107367515564
-0.547292947769165039 0.828713834285736084 0.292559146881103516
-0.563184559345245361 0.796644747257232666 0.453029990196228027
-0.602936148643493652 0.837223827838897705 0.336540907621383667
-0.86687159538269043 -0.481936186552047729 0.294444829225540161
1.62369811534881592 1.09782731533050537 0.410827159881591797
-0.572281897068023682 0.767237365245819092 0.341833621263504028
-0.920515000820159912 -0.605492591857910156 0.41796526312828064
1.74059021472930908 1.22909748554229736 0.475952804088592529
-0.368685513734817505 0.807770729064941406 0.197044625878334045
0.969529151916503906 0.483505666255950928 0.0284594073891639709
-0.601615190505981445 0.877752840518951416 0.32338482141494751
-0.801630377769470215 -0.509287476539611816 0.253399878740310669
-0.555955827236175537 0.861506223678588867 0.359719365835189819
-0.828002214431762695 -0.575779259204864502 0.252184748649597168
1.67343699932098389 1.24119961261749268 0.464239507913589478
1.51794052124023438 1.05028760433197021 0.4187813401222229
1.00167608261108398 0.487260878086090088 0.00669220089912414551
1.00803530216217041 0.467936813831329346 0.0131539925932884216
1.5570443868637085 1.18565785884857178 0.446195155382156372
-0.607720732688903809 0.846932411193847656 0.341632634401321411
-0.512112915515899658 0.772693514823913574 0.323567301034927368
0.93277895450592041 0.447075605392456055 0.0515632107853889465
1.52086734771728516 1.16678786277770996 0.358518928289413452
1.54539954662322998 1.2114865779876709 0.539618968963623047
-0.467441350221633911 0.832969307899475098 0.260273158550262451
-0.803369760513305664 -0.633791327476501465 0.345308899879455566
1.54026496410369873 1.18598079681396484 0.351526826620101929
1.57957363128662109 1.18291580677032471 0.349774271249771118
-0.843025028705596924 -0.609898686408996582 0.397344291210174561
-0.513142645359039307 0.795088291168212891 0.281368076801300049
1.00892961025238037 0.382182508707046509 0.111977338790893555
1.68256163597106934 1.14944946765899658 0.362741172313690186
1.4883265495300293 1.12326288223266602 0.418510615825653076
-0.742273151874542236 -0.646903336048126221 0.302713274955749512
-0.756857156753540039 -0.634538769721984863 0.286977589130401611
0.832213997840881348 0.47387579083442688 -0.0262704864144325256
-0.833953619003295898 -0.525915026664733887 0.254764467477798462
1.04841804504394531 0.462778151035308838 0.0332477875053882599
1.60392582416534424 1.22598981857299805 0.385764598846435547
-0.913756012916564941 -0.628606915473937988 0.371811807155609131
-0.638625562191009521 0.86614525318145752 0.359537690877914429
-0.609258770942687988 0.798251509666442871 0.272952735424041748
1.61221444606781006 1.12618422508239746 0.408920824527740479
1.00086212158203125 0.429115355014801025 0.0592744573950767517
-0.595865309238433838 0.858271241188049316 0.297172605991363525
-0.472889959812164307 0.789536774158477783 0.271405220031738281
-0.815790355205535889 -0.587368249893188477 0.261572122573852539
1.58603990077972412 1.08129119873046875 0.336248904466629028
-0.825360953807830811 -0.596970438957214355 0.336427986621856689
1.54154539108276367 1.14767646789550781 0.384211242198944092
0.948071599006652832 0.446660816669464111 0.109706871211528778
-0.7863503098487854 -0.522854208946228027 0.305728048086166382
-0.60481417179107666 0.778350412845611572 0.404878497123718262
-0.522590577602386475 0.745008289813995361 0.40601840615272522
-0.545363306999206543 0.719488799571990967 0.207427158951759338
-0.483060598373413086 0.739084124565124512 0.20282408595085144
-0.580094277858734131 0.813305854797363281 0.282664656639099121
-0.501052558422088623 0.785049736499786377 0.242022290825843811
-0.818160176277160645 -0.504348218441009521 0.253227531909942627
-0.762055516242980957 -0.541143834590911865 0.22827032208442688
1.57694363594055176 1.16335415840148926 0.368041843175888062
-0.801137387752532959 -0.567855715751647949 0.245073810219764709
-0.961444675922393799 -0.574747681617736816 0.274471759796142578
1.5250701904296875 1.19175028800964355 0.40574684739112854
1.53695511817932129 1.13262903690338135 0.38972809910774231
1.49935996532440186 1.18566977977752686 0.394347071647644043
1.67605984210968018 1.111419677734375 0.307395249605178833
1.57055222988128662 1.11069130897521973 0.386628866195678711
1.56598615646362305 1.22505784034729004 0.458430022001266479
-0.533406257629394531 0.785353779792785645 0.269369304180145264
1.53551781177520752 1.13061904907226562 0.372850567102432251
1.58353769779205322 1.19160771369934082 0.378350585699081421
-0.687106728553771973 0.899893760681152344 0.323650658130645752
1.59435021877288818 1.15770411491394043 0.377500444650650024
-0.852862775325775146 -0.551177442073822021 0.29301944375038147
-0.878076493740081787 -0.533743619918823242 0.339807242155075073
-0.531083226203918457 0.841410577297210693 0.326006531715393066
-0.580099582672119141 0.811498165130615234 0.303780406713485718
0.915462374687194824 0.461503982543945312 0.0678222477436065674
-0.871167957782745361 -0.612994492053985596 0.341698825359344482
-0.946653425693511963 -0.629810988903045654 0.407102376222610474
-0.601986110210418701 0.834148287773132324 0.338765949010848999
1.51242530345916748 1.19141769409179688 0.358092188835144043
-0.522757828235626221 0.74461132287979126 0.211105838418006897
-0.40056312084197998 0.773291945457458496 0.191574692726135254
-0.839832901954650879 -0.552203476428985596 0.314371496438980103
1.54032015800476074 1.15128815174102783 0.398179680109024048
1.62963831424713135 1.16805446147918701 0.393376290798187256
1.6416785717010498 1.20593392848968506 0.471651524305343628
-0.889968633651733398 -0.569326221942901611 0.37135276198387146
1.65344417095184326 1.09598779678344727 0.346809983253479004
0.995321929454803467 0.464440315961837769 0.0460102595388889313
-0.568005740642547607 0.834694027900695801 0.399591505527496338
-0.619996964931488037 0.883205175399780273 0.305181652307510376
-0.769273877143859863 -0.638827383518218994 0.256995707750320435
-0.84255450963973999 -0.511797308921813965 0.273126900196075439
-0.543835818767547607 0.814335286617279053 0.337618440389633179
-0.891292154788970947 -0.480557113885879517 0.285032927989959717
-0.911536812782287598 -0.568032383918762207 0.413926035165786743
1.53707289695739746 1.21027827262878418 0.382761865854263306
-0.625170648097991943 0.829742729663848877 0.308717995882034302
-0.568244040012359619 0.721606791019439697 0.173180282115936279
1.68038582801818848 1.13564538955688477 0.403391659259796143
-0.836937248706817627 -0.550249993801116943 0.304545044898986816
1.50025415420532227 1.14216804504394531 0.388088524341583252
1.6402815580368042 1.18328046798706055 0.47066950798034668
-0.612317442893981934 0.834586858749389648 0.320882469415664673
-0.861732304096221924 -0.594915688037872314 0.381102263927459717
-0.781604886054992676 -0.631386280059814453 0.222619503736495972
-0.857309401035308838 -0.534627854824066162 0.269441306591033936
1.56581175327301025 1.20334410667419434 0.381697893142700195
-0.572640538215637207 0.801112890243530273 0.326914787292480469
1.57904458045959473 1.19804084300994873 0.409958869218826294
1.0423206090927124 0.39995729923248291 0.0359616279602050781
-0.501569390296936035 0.796905815601348877 0.266270250082015991
-0.458214223384857178 0.761905491352081299 0.361553728580474854
1.03229260444641113 0.389095902442932129 0.0679847151041030884
-0.564623117446899414 0.771289467811584473 0.406306326389312744
-0.544654548168182373 0.816880702972412109 0.269319117069244385
1.71216404438018799 1.23561584949493408 0.483141243457794189
-0.538141131401062012 0.792367517948150635 0.331849426031112671
-0.863351225852966309 -0.499861538410186768 0.2969990074634552
1.56608343124389648 1.15782046318054199 0.332119286060333252
-0.81251072883605957 -0.482312321662902832 0.244302600622177124
1.54696011543273926 1.16211879253387451 0.357171356678009033
-0.468781083822250366 0.798696637153625488 0.231959372758865356
