ply
format ascii 1.0
element vertex 256
comment vertices
property float x
property float y
property float z
end_header
1.25823140144348145 -0.59965437650680542 -0.272925049066543579
-1.09882831573486328 0.863579630851745605 -0.0422395914793014526
-0.635219097137451172 -1.03421628475189209 0.312708377838134766
1.10768389701843262 0.563630104064941406 0.140494465827941895
-0.332875251770019531 0.438276022672653198 -0.151892364025115967
0.762689590454101562 -0.407123148441314697 0.0924120992422103882
1.27243161201477051 0.0207818448543548584 0.0508565604686737061
-0.959147155284881592 -0.611936211585998535 0.107069812715053558
-0.608185172080993652 0.99432981014251709 0.0810339227318763733
-0.74460071325302124 0.468286633491516113 0.104049041867256165
1.16340446472167969 0.23530559241771698 0.459548294544219971
-0.505644440650939941 -0.640725553035736084 0.0763641595840454102
0.919598102569580078 -0.813341736793518066 -0.117609523236751556
1.0308527946472168 0.283860355615615845 -0.0449662208557128906
1.06044960021972656 -0.352326273918151855 -0.0711844414472579956
-0.424426257610321045 -1.13480126857757568 0.0658903121948242188
-0.786811649799346924 0.749479115009307861 -0.0842385962605476379
-0.953140079975128174 -0.937097907066345215 0.0609532818198204041
-0.954338550567626953 -0.692191779613494873 0.413864791393280029
-0.596054553985595703 0.270722359418869019 -0.107769802212715149
-0.967965483665466309 0.763807475566864014 0.218864664435386658
-0.46320950984954834 0.576678693294525146 0.104611754417419434
-0.484517991542816162 0.79015272855758667 -0.102262392640113831
-0.680051445960998535 -0.724493563175201416 0.303657203912734985
-1.02142000198364258 0.595227479934692383 -0.0566031783819198608
0.775003731250762939 -0.447105884552001953 -0.182958841323852539
-0.659839391708374023 0.52664029598236084 -0.195316672325134277
-0.697699368000030518 -0.850897550582885742 0.000688970088958740234
-0.44669342041015625 -0.851201355457305908 0.227218031883239746
1.20393407344818115 0.235065311193466187 0.186230003833770752
1.00732767581939697 -0.54084622859954834 -0.259733498096466064
0.931602656841278076 -0.601620197296142578 0.0138043910264968872
1.01347315311431885 0.397467255592346191 0.298185616731643677
-0.892996370792388916 0.955592989921569824 0.0852514952421188354
-0.843792438507080078 -0.900406837463378906 0.328624427318572998
-0.732406318187713623 0.796788871288299561 0.202744662761688232
-0.759832620620727539 -0.55515754222869873 0.181421026587486267
1.12499320507049561 -0.747565567493438721 -0.161382272839546204
1.30590319633483887 -0.607625007629394531 -0.0598073974251747131
0.835492074489593506 -0.230357632040977478 -0.00856366753578186035
-0.652138113975524902 0.662395775318145752 0.0678869709372520447
-0.57287973165512085 0.452568918466567993 -0.0133324712514877319
-0.594324469566345215 -1.02405774593353271 0.0747378766536712646
-0.894542157649993896 0.914735674858093262 -0.109604522585868835
-0.81669849157333374 -0.75389552116394043 0.124796420335769653
-0.361769735813140869 -1.10816800594329834 0.250720471143722534
0.808016300201416016 -0.767007648944854736 0.0367654860019683838
1.10547208786010742 -0.545519590377807617 -0.0904684439301490784
-1.00216317176818848 0.581720888614654541 0.136594027280807495
-0.954175412654876709 0.754793405532836914 0.0289196521043777466
-0.51129615306854248 0.607972800731658936 -0.104198291897773743
-0.70829463005065918 -0.880295813083648682 0.202605918049812317
1.16025376319885254 0.366692245006561279 0.0667989253997802734
-0.712951898574829102 0.915938496589660645 -0.0762451440095901489
-0.789235889911651611 0.574026226997375488 -0.0450889766216278076
0.996294736862182617 0.454895138740539551 0.0514738261699676514
0.673804283142089844 -0.487995833158493042 -0.0403007417917251587
-0.528948843479156494 -0.842887520790100098 0.0561106204986572266
1.17046570777893066 0.16008855402469635 0.00916463136672973633
-0.829876899719238281 -1.04684591293334961 0.124866299331188202
-1.0489572286605835 -0.804943561553955078 0.124395221471786499
-0.677347183227539062 -0.863762021064758301 0.408536791801452637
0.930611610412597656 -0.469400346279144287 -0.0980665832757949829
0.77441859245300293 -0.65085291862487793 -0.0861443281173706055
-0.83827507495880127 0.614802300930023193 0.123943790793418884
-0.877117633819580078 -0.658028960227966309 0.246970996260643005
1.04665136337280273 0.195444792509078979 0.177957832813262939
-0.770947813987731934 -0.633607625961303711 0.0274804439395666122
-0.538135409355163574 -0.700175821781158447 0.233687162399291992
-0.48899686336517334 0.403177052736282349 -0.151205837726593018
-0.660730481147766113 -0.720721185207366943 0.104079090058803558
-0.359479218721389771 0.588049054145812988 -0.0580439567565917969
-0.357239902019500732 -0.907917439937591553 0.109102785587310791
-0.516882359981536865 0.552877068519592285 -0.255643010139465332
-0.500916838645935059 -0.998185634613037109 0.222465664148330688
-0.775077939033508301 0.84663689136505127 0.0497792959213256836
0.957046329975128174 -0.307174086570739746 0.041583038866519928
0.974102497100830078 0.312484234571456909 0.113593935966491699
1.16014790534973145 0.398491859436035156 0.334059387445449829
-0.561474621295928955 -0.893949389457702637 0.314147531986236572
1.04317629337310791 0.23476041853427887 0.375551402568817139
-0.616836309432983398 0.731093108654022217 -0.081769213080406189
1.18013310432434082 0.132050007581710815 0.358297735452651978
1.09887027740478516 -0.419386953115463257 -0.192953407764434814
-0.902584671974182129 -0.717672586441040039 0.0156194940209388733
-0.564418256282806396 0.773613929748535156 0.0538980364799499512
-0.685377776622772217 0.39844202995300293 -0.0782826542854309082
0.80180126428604126 -0.390626817941665649 -0.0411964207887649536
1.10690939426422119 0.329147756099700928 0.220423102378845215
-0.368927031755447388 -0.761422157287597656 0.159366071224212646
1.20275306701660156 0.104312241077423096 0.151023834943771362
-0.889974713325500488 -0.790373563766479492 0.254068702459335327
-0.593510985374450684 -0.817729055881500244 0.18798258900642395
-0.553869724273681641 -0.858723223209381104 -0.0719267949461936951
0.957390964031219482 -0.436526954174041748 0.0280332639813423157
-0.430061101913452148 0.485129833221435547 -0.0234236568212509155
-0.530800580978393555 -1.11537003517150879 0.178210556507110596
-0.438653528690338135 -1.00380635261535645 0.0842354297637939453
1.27892863750457764 -0.512923479080200195 -0.180821120738983154
0.918926477432250977 -0.364506900310516357 -0.169602632522583008
0.835396111011505127 -0.532379150390625 -0.041558876633644104
-1.04933130741119385 0.733016431331634521 0.126163825392723083
1.14430642127990723 0.486120045185089111 0.0290936138480901718
-0.905160725116729736 0.643288969993591309 -0.0520490780472755432
1.20936596393585205 0.247760578989982605 0.310865640640258789
-0.330904245376586914 -0.969801664352416992 0.214762866497039795
-0.718996524810791016 -1.00266885757446289 0.18199552595615387
1.12127888202667236 -0.606757462024688721 -0.19744342565536499
-0.794533908367156982 -0.900706708431243896 0.0587979741394519806
-0.975807547569274902 0.86699223518371582 0.15304720401763916
-0.608830034732818604 0.56732022762298584 -0.0336888134479522705
-0.873780727386474609 -0.924431085586547852 0.214200466871261597
-0.76207578182220459 0.71121448278427124 0.0639590173959732056
1.1240074634552002 0.354157179594039917 0.439731836318969727
-0.716394543647766113 -0.946388006210327148 0.31085360050201416
-0.718809008598327637 0.819536924362182617 -0.153279706835746765
-0.761526584625244141 -0.672275960445404053 0.220215111970901489
-0.792826652526855469 -0.756456971168518066 0.321525514125823975
1.18414664268493652 0.249358281493186951 -0.0660128593444824219
-0.74140775203704834 -1.00727498531341553 0.0584944933652877808
-0.662360191345214844 0.80957329273223877 0.110153578221797943
-1.0298006534576416 0.711256980895996094 -0.0552389472723007202
-0.836792409420013428 0.722909688949584961 0.166527807712554932
-0.613266825675964355 -0.954649686813354492 0.18316321074962616
1.09939002990722656 0.446645945310592651 0.128576338291168213
1.13944780826568604 0.251702010631561279 0.0945113077759742737
1.05267155170440674 0.533566474914550781 -0.0162825882434844971
-0.655382215976715088 0.846983969211578369 -0.00892189145088195801
-0.955138146877288818 -0.850362241268157959 0.165497049689292908
-0.746164917945861816 -0.737821578979492188 -0.00429370999336242676
-0.971142888069152832 -0.722951889038085938 0.108320713043212891
1.13727807998657227 0.16095319390296936 0.235877394676208496
-0.694214284420013428 0.605942428112030029 -0.125524997711181641
1.02894067764282227 -0.513234913349151611 -0.00660092011094093323
-0.60621190071105957 0.430991053581237793 -0.190876871347427368
-0.985661327838897705 0.645997464656829834 0.0492280498147010803
-0.703665196895599365 0.526154935359954834 0.0039644092321395874
-1.0250241756439209 0.857959985733032227 0.0379767864942550659
-1.07613301277160645 0.769454836845397949 0.230987519025802612
-0.827582001686096191 -1.01900577545166016 0.242020934820175171
-0.859515964984893799 0.805765330791473389 -0.0276041477918624878
-0.49794846773147583 -0.77486574649810791 0.163920819759368896
-0.396332621574401855 0.608622372150421143 -0.156493380665779114
-0.847157478332519531 0.492585659027099609 0.0851012244820594788
-0.719685733318328857 0.679388701915740967 -0.0278540626168251038
-0.499302268028259277 -0.92928922176361084 0.129031151533126831
1.11271429061889648 0.43403702974319458 0.23423255980014801
-0.669289231300354004 -0.828551113605499268 0.286110222339630127
-0.673702836036682129 -0.615714609622955322 0.174140319228172302
-0.582886755466461182 -0.764436006546020508 0.309151709079742432
-0.713794291019439697 0.640858232975006104 0.150093302130699158
1.20654022693634033 -0.563607096672058105 -0.124761678278446198
-0.819948971271514893 0.841530799865722656 -0.166202262043952942
-0.977467536926269531 -0.681721925735473633 0.232588350772857666
1.04520702362060547 0.362606942653656006 0.020745694637298584
-0.742664575576782227 -0.915142059326171875 0.469895601272583008
-0.807789325714111328 -0.850767374038696289 0.184704005718231201
1.01474320888519287 0.43674430251121521 0.202179253101348877
-0.810697793960571289 0.903323650360107422 -0.05132313072681427
-1.01503849029541016 0.81695854663848877 -0.075077645480632782
0.912820935249328613 -0.341360509395599365 -0.07130403071641922
-0.682397782802581787 0.930373609066009521 0.0563377290964126587
-0.609118878841400146 -0.924932658672332764 0.0735935568809509277
-0.575625419616699219 -0.781937658786773682 -0.0118695981800556183
-0.699196100234985352 -0.895345091819763184 0.103990472853183746
0.964469790458679199 -0.449951410293579102 -0.19183582067489624
-0.522990286350250244 0.497816979885101318 -0.0862700343132019043
1.34512388706207275 -0.545350015163421631 -0.247314199805259705
-0.573333621025085449 -0.764247298240661621 0.0981029868125915527
-0.602633237838745117 -0.95630347728729248 0.376946389675140381
-0.875538051128387451 0.570310831069946289 0.0343002974987030029
-0.541387736797332764 -0.652457296848297119 -0.0130082499235868454
1.11942315101623535 0.293103337287902832 0.362069070339202881
-0.514798879623413086 -0.991582274436950684 0.0256006121635437012
-0.879293441772460938 0.814945220947265625 0.0663141310214996338
-0.716862797737121582 0.432723343372344971 -0.162536785006523132
-0.417326480150222778 -0.943352460861206055 0.246912956237792969
-0.861511647701263428 -0.82667618989944458 0.0818727090954780579
1.21024048328399658 0.300155043601989746 0.0198893547058105469
-0.757669687271118164 0.547958850860595703 -0.166388809680938721
-0.854676783084869385 0.699470400810241699 0.0469904392957687378
-0.762421488761901855 -0.659761428833007812 0.11812872439622879
1.024880051612854 -0.53746795654296875 -0.167231887578964233
-0.37734636664390564 0.5104561448097229 -0.107824757695198059
-0.619816720485687256 -0.672541916370391846 0.0342551320791244507
-0.596347928047180176 0.89955604076385498 0.0765788555145263672
-0.657647788524627686 -0.757286548614501953 0.388310849666595459
0.866360902786254883 -0.445751190185546875 0.0100758224725723267
-0.614659368991851807 -0.663315653800964355 0.32564130425453186
0.844915628433227539 -0.521492958068847656 -0.132111310958862305
-0.893353581428527832 -0.687054753303527832 0.161565929651260376
-0.779047727584838867 -0.6055641770362854 0.280502259731292725
1.21354973316192627 0.190647929906845093 0.0837900638580322266
1.05190598964691162 0.292371183633804321 0.301102936267852783
1.0347675085067749 0.226749464869499207 0.0252679586410522461
-0.590151071548461914 0.582289636135101318 -0.210797309875488281
0.839485406875610352 -0.403307259082794189 -0.137199252843856812
-0.772473156452178955 -0.840224206447601318 0.267115563154220581
-0.443005144596099854 -0.859014332294464111 0.12360614538192749
-0.920986294746398926 0.869913101196289062 -0.0231456160545349121
1.00977098941802979 -0.408415764570236206 -0.117720030248165131
0.986548542976379395 0.435593962669372559 -0.0344226658344268799
1.05296289920806885 0.307277023792266846 0.153490126132965088
-0.879548907279968262 -0.717990517616271973 0.374381124973297119
-0.466422021389007568 -0.694212138652801514 0.181600019335746765
-0.444441765546798706 -0.775119781494140625 0.272089093923568726
-0.762101233005523682 0.823624312877655029 -0.0345177352428436279
-0.699041843414306641 -0.797014594078063965 0.0704217627644538879
-0.509963393211364746 -0.980146050453186035 0.30800965428352356
-0.941754817962646484 0.875851273536682129 0.0715903192758560181
1.20750331878662109 -0.561528325080871582 -0.212946027517318726
-0.525145530700683594 0.324498683214187622 -0.142441898584365845
-0.807455778121948242 0.857750117778778076 0.129637658596038818
-0.351043879985809326 0.619682133197784424 0.0223622620105743408
-0.718298733234405518 0.612637042999267578 0.0267705470323562622
-0.633780300617218018 0.573477208614349365 0.0482818782329559326
-0.763553857803344727 -0.836224794387817383 0.112580828368663788
-0.64334261417388916 -1.03781795501708984 0.162008032202720642
-0.819268345832824707 -0.733332633972167969 0.243286773562431335
-0.641187012195587158 -0.913280189037322998 0.286857306957244873
-0.611673593521118164 0.620091676712036133 -0.108503848314285278
-0.845903873443603516 0.685008227825164795 -0.0969746261835098267
0.76567685604095459 -0.500115871429443359 -0.109300598502159119
-0.728504419326782227 -0.741035580635070801 0.151383697986602783
-0.551093459129333496 0.633112192153930664 -0.0339185595512390137
1.2295994758605957 0.0920845270156860352 0.0657870769500732422
-0.872184395790100098 -0.793318271636962891 0.336940109729766846
0.918341100215911865 -0.730472981929779053 -0.102396726608276367
-0.847406268119812012 -0.600928604602813721 0.193056538701057434
-0.808658003807067871 -0.578808724880218506 0.117672234773635864
-0.618911862373352051 0.512443244457244873 -0.123875066637992859
-0.8933296799659729 0.725429177284240723 -0.0221092402935028076
-0.808770120143890381 -0.960801482200622559 0.374025344848632812
1.24614405632019043 0.171155646443367004 0.218476295471191406
-0.799061357975006104 -0.944923758506774902 0.274598926305770874
-0.882689237594604492 -0.975660383701324463 0.149454057216644287
-0.538079679012298584 -0.84578019380569458 0.251000553369522095
-0.519691646099090576 -0.918346226215362549 0.213736265897750854
1.1839221715927124 0.314493834972381592 0.245995879173278809
-0.629742741584777832 -0.744932413101196289 0.201072156429290771
-0.658155620098114014 0.72030484676361084 0.00987356901168823242
-0.898310184478759766 -0.581585705280303955 0.267328441143035889
-0.603990435600280762 -0.816452741622924805 0.371250957250595093
1.06422770023345947 0.363145947456359863 0.35113990306854248
-0.508383750915527344 0.515983223915100098 -0.00875018537044525146
-0.725182056427001953 0.535299777984619141 -0.0751574784517288208
-0.557941436767578125 -0.65882718563079834 0.167593315243721008
0.880996108055114746 -0.288267552852630615 0.0587583854794502258
0.738027870655059814 -0.535436272621154785 -0.0329195782542228699
-0.779499709606170654 0.640280067920684814 -0.0891354978084564209
-0.858494877815246582 -0.666913628578186035 0.0590108409523963928
1.06693518161773682 -0.47577899694442749 -0.0895589068531990051
-0.471654623746871948 -0.710651516914367676 0.0937866419553756714
1.033843994140625 0.40546068549156189 0.110259793698787689
-0.695328652858734131 -0.801920652389526367 0.198538556694984436
-0.731134116649627686 -1.01304125785827637 0.27016061544418335
