ply
format ascii 1.0
element vertex 168
comment vertices
property float x
property float y
property float z
end_header
-2.86251544952392578 -1.24577999114990234 0.457644730806350708
0.643263936042785645 -0.811152815818786621 0.292895197868347168
-1.66981375217437744 -1.44499623775482178 -0.0915439426898956299
0.459261238574981689 -1.0697636604309082 0.492778658866882324
-0.849704325199127197 -0.479539632797241211 0.121937267482280731
-2.82823944091796875 -1.25226294994354248 0.463112235069274902
-0.780212342739105225 -0.408556878566741943 0.0229634195566177368
-1.6090538501739502 -1.38560140132904053 0.194941788911819458
-2.82280611991882324 -1.2703167200088501 0.312633872032165527
0.566799461841583252 -0.94224095344543457 0.395676374435424805
-2.78344869613647461 -1.22791457176208496 0.435028582811355591
-1.61244571208953857 -1.47816240787506104 0.10403209924697876
-2.75910210609436035 -1.32757973670959473 0.255214214324951172
-1.76595723628997803 -1.25186645984649658 0.200022846460342407
0.481278210878372192 -1.00191187858581543 0.196286916732788086
-0.730725288391113281 -0.564856052398681641 0.0598862320184707642
-0.931561887264251709 -0.498246848583221436 0.122532181441783905
0.455747276544570923 -0.988157689571380615 0.506963431835174561
-2.82425284385681152 -1.37923908233642578 0.28702700138092041
0.568362712860107422 -1.10164034366607666 0.520844817161560059
-0.834526538848876953 -0.512266695499420166 0.049357980489730835
-1.6454617977142334 -1.35917782783508301 0.225271493196487427
-2.70760488510131836 -1.30936241149902344 0.110137730836868286
-2.85163235664367676 -1.22611153125762939 0.376007646322250366
-2.82046723365783691 -1.24600827693939209 0.575651466846466064
-1.47726285457611084 -1.37685751914978027 0.132005587220191956
-2.81557965278625488 -1.20615887641906738 0.441611319780349731
-2.83146142959594727 -1.29778707027435303 0.177108719944953918
-1.58653998374938965 -1.34087598323822021 0.185944825410842896
-0.75932765007019043 -0.396303832530975342 0.180098235607147217
-1.49888396263122559 -1.35823333263397217 0.193831175565719604
0.485606402158737183 -0.983138859272003174 0.373296350240707397
-1.61355340480804443 -1.37667322158813477 0.187601134181022644
-1.65135574340820312 -1.36232149600982666 0.25967174768447876
0.348558962345123291 -1.08034253120422363 0.220614105463027954
0.637383699417114258 -0.955188393592834473 0.354988336563110352
-0.803299009799957275 -0.478521913290023804 0.0294249001890420914
-1.66990029811859131 -1.32317888736724854 0.168536856770515442
0.584056735038757324 -1.04512894153594971 0.418410927057266235
-2.82045531272888184 -1.27512168884277344 0.258255362510681152
-0.734058797359466553 -0.483602315187454224 -0.0132006555795669556
-2.82277202606201172 -1.32089853286743164 0.352024853229522705
-2.76673674583435059 -1.2340691089630127 0.125140681862831116
-2.90247106552124023 -1.22473418712615967 0.344739198684692383
0.607901334762573242 -1.09751927852630615 0.369612067937850952
-1.55388224124908447 -1.40475666522979736 0.188894331455230713
-0.781024813652038574 -0.505340993404388428 0.199601039290428162
0.551728188991546631 -0.935809195041656494 0.487560153007507324
0.459096789360046387 -1.14817595481872559 0.313188254833221436
-2.85799050331115723 -1.1857527494430542 0.473134458065032959
-0.88256460428237915 -0.440753161907196045 0.0779671445488929749
-2.81569910049438477 -1.346710205078125 0.190334096550941467
-2.81777334213256836 -1.18841469287872314 0.436654865741729736
-1.5247647762298584 -1.44115030765533447 0.183351516723632812
-2.82586479187011719 -1.29534101486206055 0.497912585735321045
0.625880837440490723 -1.01649785041809082 0.514357328414916992
-2.8671412467956543 -1.19197475910186768 0.503138542175292969
-2.8305509090423584 -1.21790337562561035 0.112204469740390778
-2.8056633472442627 -1.19919264316558838 0.374175310134887695
-2.79394268989562988 -1.34453725814819336 0.189898759126663208
0.507730364799499512 -1.06814312934875488 0.483521640300750732
-2.86298298835754395 -1.25801217555999756 0.439139842987060547
0.537505745887756348 -1.02919518947601318 0.333439528942108154
0.53443598747253418 -1.12808525562286377 0.553375780582427979
-0.838091731071472168 -0.450241237878799438 -0.0079755932092666626
-2.80936455726623535 -1.18801546096801758 0.452262699604034424
-2.81512260437011719 -1.2245938777923584 0.470657229423522949
-2.79874420166015625 -1.26977443695068359 0.556467413902282715
-2.80222702026367188 -1.29535388946533203 0.249256238341331482
0.612599194049835205 -1.00541222095489502 0.507176816463470459
-1.55103814601898193 -1.41218698024749756 0.157169699668884277
0.598305642604827881 -0.859962105751037598 0.2912406325340271
-1.57642698287963867 -1.36914849281311035 0.181945160031318665
0.442363560199737549 -1.04948067665100098 0.251988649368286133
-0.877747297286987305 -0.429687291383743286 -0.0340640470385551453
-1.68663990497589111 -1.23887073993682861 0.173095926642417908
-2.8049774169921875 -1.23631489276885986 0.566739737987518311
0.492685973644256592 -1.09442329406738281 0.554805994033813477
-2.86988496780395508 -1.22916948795318604 0.421554535627365112
0.46757817268371582 -0.935638546943664551 0.490502417087554932
-1.59202349185943604 -1.40242719650268555 0.208318933844566345
-1.59654736518859863 -1.34488129615783691 0.172710329294204712
-2.79941368103027344 -1.24611353874206543 0.192210137844085693
-1.65495133399963379 -1.30902135372161865 0.198302701115608215
-1.68461322784423828 -1.37558317184448242 0.25014185905456543
-0.766828060150146484 -0.605129599571228027 0.0144591331481933594
-2.81908917427062988 -1.20202291011810303 0.362647742033004761
-0.771658480167388916 -0.476932883262634277 0.0914409980177879333
0.504282176494598389 -0.946848750114440918 0.606095731258392334
-2.85522270202636719 -1.24217891693115234 0.422662705183029175
-0.791026294231414795 -0.440817415714263916 0.04852323979139328
-1.55308938026428223 -1.37139582633972168 0.169087052345275879
-0.706491053104400635 -0.505357503890991211 0.037137255072593689
-2.78186702728271484 -1.33164834976196289 0.149738132953643799
-2.8320767879486084 -1.25402700901031494 0.366413265466690063
-2.79372715950012207 -1.13210391998291016 0.44401860237121582
-1.62505555152893066 -1.35465085506439209 0.205116719007492065
-0.818019986152648926 -0.536959528923034668 0.0159215629100799561
0.597862720489501953 -1.11729300022125244 0.484482079744338989
-1.71885001659393311 -1.42024147510528564 0.202493876218795776
0.440989285707473755 -1.06242835521697998 0.440871775150299072
0.526526689529418945 -0.943254828453063965 0.349973589181900024
-1.6771770715713501 -1.25034534931182861 0.128233224153518677
-1.68662488460540771 -1.39117991924285889 0.20491066575050354
-1.56051206588745117 -1.35601294040679932 0.201513856649398804
-0.864446103572845459 -0.522270023822784424 0.0514594316482543945
-2.8145596981048584 -1.30839240550994873 0.26405799388885498
-2.74704074859619141 -1.30909383296966553 0.169094085693359375
0.621382415294647217 -1.00903952121734619 0.597715854644775391
-2.85436296463012695 -1.300986647605896 0.459802836179733276
0.511747002601623535 -0.973182201385498047 0.394290387630462646
0.431353211402893066 -1.09859538078308105 0.562443852424621582
-1.69544029235839844 -1.35794663429260254 0.208649739623069763
-1.58970904350280762 -1.3803483247756958 0.146785736083984375
-1.57030642032623291 -1.42573583126068115 0.19349554181098938
-2.83674502372741699 -1.27799046039581299 0.168593093752861023
-2.8639671802520752 -1.24756193161010742 0.444299489259719849
-1.69254910945892334 -1.33494663238525391 0.219745799899101257
-2.76458454132080078 -1.33525192737579346 0.19449065625667572
0.499086976051330566 -1.04749453067779541 0.565841794013977051
-2.8883824348449707 -1.1924816370010376 0.413532078266143799
-2.83939480781555176 -1.25609636306762695 0.302781432867050171
-2.74531292915344238 -1.29397177696228027 0.104380741715431213
0.525316417217254639 -1.01066684722900391 0.536383748054504395
-1.59534990787506104 -1.40704536437988281 0.168803438544273376
-2.76114964485168457 -1.21117651462554932 0.298056483268737793
-2.80844807624816895 -1.27704536914825439 0.244179263710975647
-1.68373596668243408 -1.22606384754180908 0.179657503962516785
-1.47074353694915771 -1.39967727661132812 0.141103670001029968
-0.837416350841522217 -0.387754976749420166 -0.00474374741315841675
-2.87597942352294922 -1.22885298728942871 0.4500235915184021
-2.85280513763427734 -1.26104176044464111 0.348602503538131714
-1.58613467216491699 -1.40433287620544434 0.171570897102355957
-1.54116296768188477 -1.45026242733001709 0.180714130401611328
0.512481153011322021 -0.957508563995361328 0.47725212574005127
-2.8524165153503418 -1.27398598194122314 0.128528878092765808
-2.81007218360900879 -1.2720261812210083 0.189614862203598022
-2.79973125457763672 -1.16343402862548828 0.402424156665802002
-0.926888644695281982 -0.512172579765319824 0.157760381698608398
0.508488953113555908 -0.977390944957733154 0.373043537139892578
-2.83771252632141113 -1.18641495704650879 0.442360222339630127
-2.80136895179748535 -1.31355762481689453 0.336611360311508179
-1.6450575590133667 -1.37238895893096924 0.227745801210403442
-2.8649446964263916 -1.18939375877380371 0.346465051174163818
-0.769370973110198975 -0.435820311307907104 0.103497497737407684
-0.78040081262588501 -0.508352577686309814 -0.00109681487083435059
-2.88332557678222656 -1.18283426761627197 0.391440421342849731
0.650680840015411377 -0.941683053970336914 0.472217470407485962
-2.72247433662414551 -1.35510015487670898 0.0959207341074943542
0.581260263919830322 -1.04767203330993652 0.533641278743743896
-1.65730595588684082 -1.32620060443878174 0.246788769960403442
-0.767980039119720459 -0.495112180709838867 0.0817737802863121033
-0.793539464473724365 -0.511399567127227783 0.0975947827100753784
0.575265288352966309 -1.01062893867492676 0.595589220523834229
-2.83203363418579102 -1.20122802257537842 0.512933969497680664
-1.66937065124511719 -1.35815095901489258 0.184599891304969788
-1.6057286262512207 -1.37769007682800293 0.194310948252677917
-1.59498906135559082 -1.42846798896789551 0.17135050892829895
0.579101502895355225 -1.17806529998779297 0.388005822896957397
-2.82324957847595215 -1.25135350227355957 0.487859904766082764
-1.6216806173324585 -1.349029541015625 0.23518863320350647
-2.8494117259979248 -1.32452774047851562 0.350744783878326416
-2.80444693565368652 -1.3416740894317627 0.180763155221939087
0.49155464768409729 -1.07945740222930908 0.596291899681091309
-2.84411287307739258 -1.25632500648498535 0.487591177225112915
-1.66770482063293457 -1.31514453887939453 0.165736734867095947
-0.875489473342895508 -0.508505821228027344 0.0948415994644165039
-2.7848360538482666 -1.26505684852600098 0.3181038498878479
