ply
format ascii 1.0
element vertex 256
comment vertices
property float x
property float y
property float z
end_header
-0.896032035350799561 -0.522353649139404297 0.0467446856200695038
1.31558692455291748 0.40905645489692688 0.123885244131088257
-0.50540614128112793 1.31707370281219482 0.348941385746002197
-0.310509383678436279 -0.595118045806884766 0.864308834075927734
-0.861525833606719971 0.863895714282989502 0.0257314331829547882
0.780781984329223633 0.63687819242477417 0.0396307334303855896
-0.677808105945587158 -0.744382262229919434 0.489689469337463379
0.979141771793365479 0.115564733743667603 -0.120274409651756287
-0.905269384384155273 -0.0304823815822601318 0.0221495889127254486
-0.542313873767852783 0.78417283296585083 0.392205923795700073
-1.17998242378234863 -0.242106229066848755 0.323380470275878906
-0.678426563739776611 -0.593429207801818848 0.961308479309082031
0.789592146873474121 0.294397085905075073 0.183583080768585205
-0.535025596618652344 1.06219065189361572 0.0894333124160766602
-0.760842382907867432 -0.243325799703598022 0.264201045036315918
-0.890647351741790771 -0.485205531120300293 0.570378422737121582
-0.406252652406692505 -0.875807106494903564 0.69682776927947998
1.27743005752563477 0.0754080712795257568 0.076067805290222168
-0.536063611507415771 -0.480364203453063965 0.635169148445129395
0.997704625129699707 0.451174646615982056 -0.125666365027427673
-0.836926281452178955 1.1514732837677002 0.179929152131080627
1.1183936595916748 0.66809612512588501 0.119649432599544525
-1.18483197689056396 -0.394223213195800781 0.070449434220790863
-0.639167964458465576 1.06686139106750488 0.377997875213623047
-0.356318533420562744 1.06466102600097656 0.311312079429626465
-0.866187393665313721 -0.654279232025146484 0.299137502908706665
1.05280113220214844 0.322723060846328735 0.156967863440513611
0.918594896793365479 0.525244414806365967 0.227598696947097778
-1.01602184772491455 -0.424949944019317627 0.291788488626480103
-0.978330254554748535 -0.210042461752891541 0.170570611953735352
-0.481997668743133545 -0.757877111434936523 0.887053251266479492
-0.426491260528564453 1.24173569679260254 0.157807350158691406
-0.570074200630187988 -0.691332221031188965 0.68483811616897583
1.11755549907684326 0.250359058380126953 -0.032313711941242218
-0.333421856164932251 -0.603164911270141602 0.662156343460083008
0.893892288208007812 0.411391496658325195 0.0539089217782020569
-0.661769390106201172 -0.607008278369903564 0.340585201978683472
1.12338423728942871 0.486690223217010498 0.0299747288227081299
-0.563285529613494873 0.901292324066162109 0.231042981147766113
-0.735555768013000488 0.994695544242858887 0.0988726094365119934
0.939511954784393311 0.226511672139167786 0.0358038172125816345
-0.838616609573364258 -0.288591861724853516 0.0676167085766792297
-0.721689581871032715 -0.453934788703918457 0.0772246122360229492
-0.641447663307189941 1.19658279418945312 0.169924318790435791
-0.298544824123382568 1.25812721252441406 0.285322695970535278
-0.884682714939117432 -0.501979351043701172 0.392033517360687256
-0.465805083513259888 -0.522706925868988037 0.794327199459075928
0.952887833118438721 0.603509366512298584 0.0127975568175315857
-0.810979187488555908 -0.633556246757507324 0.512003242969512939
-1.01169753074645996 -0.384443074464797974 0.124422997236251831
0.892819643020629883 0.712157487869262695 0.141878008842468262
1.26101744174957275 0.406525313854217529 -0.0358772799372673035
-0.867895185947418213 -0.405756205320358276 0.214718043804168701
-0.744458377361297607 -0.728720188140869141 0.642848312854766846
-0.428716063499450684 -0.73256218433380127 0.604722976684570312
-0.591986417770385742 -0.611681938171386719 0.53928762674331665
-1.09745204448699951 -0.52434229850769043 0.124391406774520874
0.758353710174560547 0.536295235157012939 0.195522204041481018
-0.515611469745635986 1.11746859550476074 0.283861696720123291
-1.09371256828308105 -0.0966165661811828613 0.164683535695075989
-0.79047691822052002 -0.543310403823852539 0.196823239326477051
-1.02696681022644043 -0.20143464207649231 0.329871177673339844
-0.270598381757736206 -0.825021147727966309 0.760707974433898926
1.12882328033447266 0.0998757481575012207 -0.0812039822340011597
-0.807740926742553711 -0.500097513198852539 0.700244724750518799
-0.809239566326141357 1.01462662220001221 0.245271354913711548
-0.465780258178710938 -0.566759645938873291 0.941828608512878418
1.26917481422424316 0.237352117896080017 -0.0471010580658912659
1.20824790000915527 0.209339722990989685 0.0877116695046424866
-1.22579455375671387 -0.295973837375640869 0.17564709484577179
-0.585590243339538574 -0.656455516815185547 0.851992487907409668
-0.568569362163543701 -0.83031463623046875 0.634366035461425781
-0.642581641674041748 1.04455780982971191 0.231959253549575806
1.022483229637146 0.367940247058868408 0.00427600741386413574
-0.425621569156646729 -0.714935183525085449 0.74764549732208252
-0.912965059280395508 -0.675935685634613037 0.165001258254051208
1.00915789604187012 0.0886552929878234863 0.0158117488026618958
1.04074311256408691 0.467275708913803101 0.191630154848098755
-0.928876101970672607 -0.304966390132904053 0.28770861029624939
-0.94458848237991333 -0.0602302774786949158 0.151268124580383301
-0.629369020462036133 -0.539323687553405762 0.712782919406890869
-0.867179930210113525 1.00019693374633789 0.121367454528808594
-1.12491416931152344 -0.358446270227432251 0.268714487552642822
0.78107684850692749 0.423247277736663818 0.140979304909706116
0.938347160816192627 0.392852485179901123 0.176307529211044312
-0.527086913585662842 1.23688912391662598 0.235161036252975464
-1.10205972194671631 -0.409946799278259277 0.383637428283691406
-0.665678799152374268 -0.474406003952026367 0.610555291175842285
-0.895417273044586182 -0.399783164262771606 0.0723586678504943848
0.959507167339324951 0.32397007942199707 -0.0940780937671661377
1.00356662273406982 0.491253584623336792 0.0620813667774200439
-0.781022310256958008 -0.566541850566864014 0.401510536670684814
-0.623694658279418945 0.949637532234191895 0.113242655992507935
-0.314468324184417725 -0.773461461067199707 0.65991586446762085
0.992027938365936279 0.59351879358291626 0.159937620162963867
-0.437317967414855957 -0.939649820327758789 0.600513160228729248
0.843901574611663818 0.536356806755065918 0.0546030104160308838
-0.433926165103912354 1.06408441066741943 0.216766700148582458
-0.921566605567932129 -0.309861242771148682 0.145418673753738403
-0.448057770729064941 -0.607539594173431396 0.665625333786010742
-0.945765078067779541 -0.483138322830200195 0.184208080172538757
-0.392040491104125977 1.19437849521636963 0.254710614681243896
-0.642102599143981934 1.08186614513397217 0.117661803960800171
-1.02007973194122314 -0.308534383773803711 0.222056210041046143
0.90881645679473877 0.291013211011886597 0.140578195452690125
-0.737350702285766602 1.12018334865570068 0.21938169002532959
-0.759108126163482666 -0.411649137735366821 0.194839328527450562
-0.518550574779510498 1.18478620052337646 0.134521916508674622
-0.492986559867858887 0.82239919900894165 0.301150232553482056
-0.588330745697021484 -0.717453181743621826 0.579816699028015137
-1.07722866535186768 -0.178725838661193848 0.235164165496826172
0.783114016056060791 0.649891436100006104 0.147751674056053162
1.16034269332885742 0.426341235637664795 0.112395733594894409
-0.387227714061737061 -0.585677623748779297 0.754350543022155762
0.955380260944366455 0.554437756538391113 -0.0830660462379455566
-0.679384946823120117 -0.643958210945129395 0.656243681907653809
-0.82635962963104248 -0.0458817407488822937 0.0923402905464172363
-0.465000152587890625 0.994858503341674805 0.133315160870552063
-0.892016828060150146 -0.607935607433319092 0.399528384208679199
0.925222575664520264 0.46914362907409668 -0.0293123796582221985
-0.878145217895507812 -0.48843151330947876 0.289576977491378784
1.27951192855834961 0.0555962026119232178 -0.0255353376269340515
-0.601303815841674805 -0.659243226051330566 0.44857710599899292
-0.555660724639892578 1.098990797996521 0.190974265336990356
-0.883626222610473633 -0.622682332992553711 0.0623835176229476929
-1.10599696636199951 -0.388011515140533447 0.163352668285369873
-0.632591485977172852 -0.674288153648376465 0.764108240604400635
-0.305515706539154053 1.14026570320129395 0.267969757318496704
0.87390601634979248 0.608015358448028564 0.160231813788414001
1.19165003299713135 0.155904561281204224 -0.0265638008713722229
0.891769468784332275 0.318806350231170654 0.0175863280892372131
-0.504157900810241699 -0.766441822052001953 0.675116837024688721
-0.929027318954467773 -0.206604912877082825 0.278940558433532715
-0.845847964286804199 -0.463436543941497803 0.129142150282859802
1.06557023525238037 0.533778905868530273 0.123720407485961914
1.05351400375366211 0.50195389986038208 -0.064367242157459259
-0.319503843784332275 -0.682535767555236816 0.716089606285095215
-0.543990671634674072 -0.596682071685791016 0.671983778476715088
-0.755340099334716797 0.905085206031799316 0.0709842070937156677
0.805572271347045898 0.321185499429702759 0.0939100310206413269
-0.572880268096923828 1.04517090320587158 0.313908487558364868
0.982511341571807861 0.359217435121536255 0.0895128622651100159
1.00959956645965576 0.20231589674949646 -0.0995920076966285706
-0.600402235984802246 -0.518837809562683105 0.535660922527313232
-0.83304208517074585 0.825397610664367676 0.10554485023021698
-0.425704777240753174 0.98847728967666626 0.270079165697097778
0.910062551498413086 0.14328312873840332 0.00735624134540557861
-0.829367220401763916 -0.637877404689788818 0.155001014471054077
-0.664585351943969727 1.00116646289825439 0.040856141597032547
1.14265799522399902 0.0872245728969573975 0.00947938859462738037
-1.06605219841003418 -0.225808948278427124 0.150050535798072815
-0.383523404598236084 -0.506968319416046143 0.830943703651428223
-0.792522430419921875 -0.396575480699539185 0.0704924091696739197
-1.07151424884796143 -0.312163352966308594 0.127046719193458557
-0.929118871688842773 -0.404406845569610596 0.29356539249420166
-0.915529966354370117 -0.1503143310546875 0.211060166358947754
1.21692359447479248 0.338865518569946289 0.00165577232837677002
-0.861820638179779053 -0.573405563831329346 0.263064771890640259
1.10844099521636963 0.381550908088684082 -0.0106528773903846741
-0.466210484504699707 -0.623105168342590332 0.765185654163360596
0.84920811653137207 0.492071688175201416 0.185235679149627686
-0.504420161247253418 1.02529644966125488 0.251195073127746582
-0.575980544090270996 1.1740645170211792 0.312330186367034912
-0.792661607265472412 1.05799543857574463 0.079221382737159729
-0.64798438549041748 -0.559498012065887451 0.600865721702575684
-1.15283262729644775 -0.264971613883972168 0.211829274892807007
0.856802940368652344 0.36597210168838501 0.164342209696769714
-0.474194824695587158 1.1378549337387085 0.195995807647705078
0.904137849807739258 0.661377549171447754 0.0529954954981803894
-1.01386415958404541 -0.506504058837890625 0.138297498226165771
0.920506656169891357 0.525133728981018066 0.0898656472563743591
1.01257216930389404 0.269906938076019287 0.0331317484378814697
-0.527345716953277588 -0.51767575740814209 0.736168026924133301
0.941184401512145996 0.476002871990203857 0.160427212715148926
-0.893063068389892578 0.92754662036895752 0.0864348039031028748
-0.486878812313079834 -0.674126327037811279 0.89008021354675293
-0.804272353649139404 -0.692026138305664062 0.452178090810775757
0.939078211784362793 0.384881079196929932 -0.0115443393588066101
-0.600324690341949463 -0.645588040351867676 0.621040225028991699
0.934966683387756348 0.408042192459106445 -0.0915960818529129028
-0.761329531669616699 1.11324107646942139 0.139833897352218628
1.00303590297698975 0.646116018295288086 0.0963738113641738892
-0.640551567077636719 -0.588980317115783691 0.428229928016662598
1.03558218479156494 0.161354631185531616 -0.0139922723174095154
-0.96523439884185791 -0.139334723353385925 0.129999518394470215
-0.471722185611724854 -0.781935989856719971 0.759716629981994629
-0.905800402164459229 -0.242063030600547791 0.191950142383575439
1.19118094444274902 0.441587686538696289 0.0195780619978904724
-0.863201260566711426 -0.367369025945663452 0.140355855226516724
-0.768161237239837646 1.01879346370697021 0.174678489565849304
0.978574931621551514 0.155288338661193848 0.0520413145422935486
-0.941778123378753662 -0.368502676486968994 0.198494836688041687
-0.489800423383712769 -0.687094748020172119 0.663890480995178223
-0.915626406669616699 -0.556199550628662109 0.117732629179954529
-1.01916217803955078 -0.411718994379043579 0.200262457132339478
0.981488466262817383 0.528572618961334229 -0.0110448971390724182
-0.995306074619293213 -0.28695148229598999 0.119584985077381134
-0.55224376916885376 1.01968002319335938 0.181248277425765991
-0.577390313148498535 -0.721818149089813232 0.492183923721313477
-0.761131167411804199 0.997304677963256836 0.0238487441092729568
1.03417861461639404 0.54819178581237793 0.209459185600280762
1.11406207084655762 0.162007808685302734 -0.00883048027753829956
-0.675461113452911377 -0.655573248863220215 0.470545500516891479
-0.938880681991577148 -0.414324820041656494 0.0103399567306041718
-0.488159507513046265 0.939640223979949951 0.181813031435012817
-1.15916574001312256 -0.331812441349029541 0.161896675825119019
-0.940810024738311768 -0.460417836904525757 0.0837685838341712952
-0.527137458324432373 1.28027951717376709 0.172198683023452759
-0.424459666013717651 -0.857209920883178711 0.625159800052642822
-0.83148801326751709 -0.595137834548950195 0.352119207382202148
-0.698367118835449219 1.17512953281402588 0.125171035528182983
-0.561674416065216064 -0.591854214668273926 0.88253021240234375
1.02855575084686279 0.435973286628723145 -0.0274947583675384521
-0.869892358779907227 -0.36844712495803833 0.00882527977228164673
-0.331022769212722778 -0.8466605544090271 0.658051490783691406
0.868041336536407471 0.432859480381011963 0.120501130819320679
-0.670621573925018311 0.963552534580230713 0.169176369905471802
-1.1360466480255127 -0.339682102203369141 0.0828763619065284729
0.906026899814605713 0.439609706401824951 0.224004268646240234
-0.417307853698730469 -0.540713012218475342 0.674991965293884277
-0.681566357612609863 1.08836758136749268 0.182620465755462646
-0.42674592137336731 1.13080108165740967 0.269667267799377441
-0.649643361568450928 -0.651414275169372559 0.562537133693695068
1.12459182739257812 0.498619496822357178 -0.04580669105052948
-0.816887438297271729 0.939986646175384521 0.089291304349899292
-1.06525874137878418 -0.249065384268760681 0.290094137191772461
-0.995049595832824707 -0.216539546847343445 0.24981352686882019
1.16524803638458252 0.242336243391036987 0.0392099544405937195
0.832128465175628662 0.67170792818069458 0.0772873982787132263
1.07547450065612793 0.0970083177089691162 -0.0158766880631446838
1.07378935813903809 0.409125447273254395 0.0463878214359283447
-0.842280268669128418 -0.534054160118103027 0.14189089834690094
0.841905891895294189 0.491139084100723267 -0.00118400156497955322
0.949944853782653809 0.312027394771575928 -0.023916393518447876
-1.12515842914581299 -0.425440847873687744 0.0458547994494438171
1.02982902526855469 0.258023083209991455 0.176213845610618591
-0.905467808246612549 -0.424440532922744751 0.145185947418212891
0.967617511749267578 0.439032495021820068 0.0938646271824836731
-0.798599898815155029 -0.569828391075134277 0.483485221862792969
1.22803401947021484 0.444999575614929199 0.104889534413814545
0.949549376964569092 0.66569221019744873 0.138068854808807373
-0.459857732057571411 1.20597290992736816 0.208483666181564331
-0.574810385704040527 -0.537460029125213623 0.649213314056396484
-0.617873787879943848 1.00762379169464111 0.154911711812019348
1.06978285312652588 0.31724819540977478 0.0146719515323638916
-0.642283439636230469 -0.617126524448394775 0.725314557552337646
-0.404616415500640869 -0.72578728199005127 0.682315826416015625
-0.711360335350036621 1.05526387691497803 0.129646256566047668
-0.582922935485839844 1.11885726451873779 0.268157958984375
-0.981176137924194336 -0.444439560174942017 0.138665333390235901
-0.82591092586517334 -0.223214194178581238 0.256545513868331909
0.855237305164337158 0.468063771724700928 0.0617369040846824646
-0.888491928577423096 -0.637110710144042969 0.237323358654975891
-0.818501114845275879 -0.622891485691070557 0.247679054737091064
-0.540031194686889648 -0.751289010047912598 0.612472057342529297
-0.408372879028320312 -0.789739549160003662 0.739042878150939941
