ply
format ascii 1.0
element vertex 256
comment vertices
property float x
property float y
property float z
end_header
-0.374152928590774536 -0.933896660804748535 0.281324416399002075
0.704194188117980957 0.682397186756134033 0.00852867960929870605
-0.680605888366699219 0.782156109809875488 0.00146070867776870728
-1.18690550327301025 0.151897996664047241 0.543399214744567871
-1.38180255889892578 0.239361077547073364 0.163677409291267395
-0.201416030526161194 0.775147199630737305 0.0559884682297706604
-0.27685391902923584 -0.982885479927062988 0.296662271022796631
0.6124153733253479 0.474122494459152222 0.0419287532567977905
-1.30506515502929688 0.157264471054077148 0.403863042593002319
-0.264194190502166748 -0.757219672203063965 0.119628138840198517
-0.395775198936462402 0.802575051784515381 -0.0319744087755680084
-1.10831093788146973 0.285779267549514771 0.366379648447036743
0.611761927604675293 0.615154743194580078 0.0266551338136196136
-0.410875976085662842 -1.05297064781188965 0.25717577338218689
-0.353170573711395264 -1.00599992275238037 0.305409491062164307
-0.329307258129119873 0.803428530693054199 0.233820199966430664
0.662081599235534668 0.587864995002746582 0.114093422889709473
-0.348725706338882446 0.973732829093933105 0.0647770687937736511
-0.399722009897232056 -0.927783966064453125 0.17055162787437439
0.659175872802734375 0.442124366760253906 0.149553120136260986
-0.351535022258758545 -0.971600472927093506 0.185904726386070251
0.656545042991638184 0.583192586898803711 0.0708823651075363159
-0.448091626167297363 0.907145023345947266 0.197893396019935608
-0.599843859672546387 0.854409277439117432 -0.155442237854003906
-1.24307143688201904 0.197074666619300842 0.350768238306045532
-0.401453733444213867 -0.954591214656829834 0.308850675821304321
-1.19168186187744141 0.246669158339500427 0.472512096166610718
-1.30827236175537109 0.313173413276672363 0.418488353490829468
0.691029489040374756 0.49808800220489502 0.0375428870320320129
-0.434515774250030518 -0.983548164367675781 0.257948517799377441
-0.399527370929718018 -0.760563433170318604 0.188130378723144531
0.76985466480255127 0.525094449520111084 0.0272773504257202148
-0.273102700710296631 0.779404163360595703 0.0736309736967086792
-1.20554566383361816 0.227230533957481384 0.203217595815658569
0.618991613388061523 0.517821431159973145 0.0591127797961235046
-1.1013190746307373 0.180705368518829346 0.430044263601303101
-0.463857889175415039 -0.941469490528106689 0.196529239416122437
-0.360951542854309082 -1.04405403137207031 0.405395328998565674
0.721580326557159424 0.478334486484527588 0.0328593552112579346
0.771589159965515137 0.644342720508575439 -0.0750413239002227783
-0.250498294830322266 0.861879646778106689 0.174349024891853333
-0.333143293857574463 -0.992806673049926758 0.199335426092147827
-1.28696906566619873 0.280833065509796143 0.458068311214447021
-0.294204622507095337 -0.769483327865600586 0.178552404046058655
-0.345324456691741943 -0.773826956748962402 0.255723476409912109
-0.465181738138198853 0.849292099475860596 0.00283611752092838287
0.618910431861877441 0.470650732517242432 0.0603573024272918701
-0.364755898714065552 -1.04737520217895508 0.248044267296791077
-0.394265353679656982 -0.846415996551513672 0.169971287250518799
0.614477455615997314 0.523538410663604736 0.0850002765655517578
-0.387588977813720703 -1.00316882133483887 0.336143672466278076
-0.47149321436882019 -0.965232670307159424 0.239981234073638916
0.798073947429656982 0.489748537540435791 -0.0231373310089111328
-0.220780938863754272 0.791887342929840088 0.155801951885223389
0.709968209266662598 0.586852312088012695 0.058018021285533905
-0.393017172813415527 -0.908142387866973877 0.185867428779602051
-1.13650047779083252 0.175680994987487793 0.366062164306640625
-0.99228215217590332 0.257453501224517822 0.300526261329650879
-0.322025537490844727 -0.962482333183288574 0.258377909660339355
-0.189655914902687073 0.941912949085235596 0.0595170110464096069
0.741539120674133301 0.629371583461761475 0.00787529349327087402
-0.32153397798538208 -0.94207310676574707 0.266841709613800049
-1.24342262744903564 0.339487999677658081 0.326601386070251465
0.615841329097747803 0.658463835716247559 0.00301830098032951355
-0.318173527717590332 -1.02358198165893555 0.241007059812545776
-0.320624828338623047 0.853900790214538574 0.11003383994102478
-0.389957636594772339 0.903188407421112061 0.194387704133987427
-1.25232863426208496 0.278510183095932007 0.52841341495513916
0.63610994815826416 0.51884162425994873 0.106795847415924072
-0.510552048683166504 0.963303744792938232 0.140867263078689575
-0.347657680511474609 0.735659658908843994 0.122931651771068573
-1.19660758972167969 0.280891776084899902 0.394242405891418457
-1.29124760627746582 0.203129202127456665 0.272688418626785278
-1.32218635082244873 0.316072821617126465 0.24023081362247467
-1.28651869297027588 0.267196357250213623 0.542070865631103516
-0.483252584934234619 0.810820996761322021 0.0595086477696895599
0.675604522228240967 0.508668959140777588 0.00706371665000915527
-0.358423680067062378 -1.14142131805419922 0.301491796970367432
-0.394887030124664307 -1.0276113748550415 0.255456477403640747
0.72286069393157959 0.601679325103759766 0.0294240303337574005
-0.250361889600753784 0.810816168785095215 0.0280008465051651001
-1.18528974056243896 0.193666607141494751 0.395197272300720215
-0.299153029918670654 0.937399506568908691 -0.0181757658720016479
-0.397961139678955078 -0.964516520500183105 0.215864807367324829
0.611044347286224365 0.601240992546081543 0.0400263667106628418
0.631673336029052734 0.48853534460067749 0.0575955510139465332
0.642514944076538086 0.630952060222625732 0.0319674573838710785
0.671741962432861328 0.445066273212432861 0.134708225727081299
-0.374347150325775146 -1.00990474224090576 0.204373091459274292
-0.45009806752204895 -0.994084835052490234 0.292371451854705811
-1.18137931823730469 0.179685980081558228 0.516488075256347656
-0.362767964601516724 0.73973613977432251 0.0888696089386940002
-1.14745652675628662 0.200537592172622681 0.544591665267944336
0.723743319511413574 0.54232943058013916 -0.0040957331657409668
0.589586257934570312 0.482016652822494507 0.0759353041648864746
-0.322930514812469482 -0.905651450157165527 0.269286423921585083
-0.343601137399673462 -0.779655337333679199 0.141070634126663208
-1.19966006278991699 0.220806479454040527 0.423260003328323364
-0.373073548078536987 -1.02381455898284912 0.292407125234603882
-0.469198733568191528 -0.925393640995025635 0.147589355707168579
0.654941201210021973 0.518278241157531738 0.100452214479446411
0.630902230739593506 0.574808716773986816 0.0718906372785568237
-0.272569388151168823 0.817607581615447998 0.19991108775138855
-0.348860561847686768 -0.983693778514862061 0.20728398859500885
-0.344619631767272949 -0.964516401290893555 0.278373241424560547
0.65182340145111084 0.545263707637786865 0.0578757300972938538
-1.20804595947265625 0.254355341196060181 0.445925652980804443
-0.226591348648071289 0.828536093235015869 0.105224661529064178
0.662325501441955566 0.497196465730667114 0.0397067070007324219
0.849737823009490967 0.600198328495025635 -0.0452706217765808105
-0.388777554035186768 -1.00697934627532959 0.257127165794372559
-1.2190479040145874 0.184399902820587158 0.140920042991638184
-0.255602180957794189 0.699840307235717773 0.0750382840633392334
-0.476165771484375 0.925153911113739014 0.0891258567571640015
0.580285012722015381 0.626652300357818604 0.0398013293743133545
-0.440676212310791016 -0.921088755130767822 0.226570695638656616
-0.288544684648513794 -0.783908605575561523 0.209503859281539917
0.733723819255828857 0.499253928661346436 0.00956651568412780762
-0.455529779195785522 0.968016743659973145 0.0943026989698410034
0.717171788215637207 0.461602389812469482 0.172130078077316284
0.625648975372314453 0.447692394256591797 0.0854274854063987732
-0.3677482008934021 0.793503701686859131 0.142655685544013977
0.841524600982666016 0.535470843315124512 -0.0546267330646514893
-1.27156531810760498 0.180813819169998169 0.327699512243270874
0.63220679759979248 0.45294797420501709 0.064244881272315979
-1.15253233909606934 0.167379170656204224 0.50589442253112793
-0.382983654737472534 -1.08747291564941406 0.316122859716415405
-0.445472419261932373 -0.979475438594818115 0.27968442440032959
-1.19136226177215576 0.234174177050590515 0.282116472721099854
-0.361210882663726807 -0.978182971477508545 0.187771081924438477
-1.17470192909240723 0.242165490984916687 0.531071126461029053
0.70225834846496582 0.496419727802276611 0.042723536491394043
-0.432947337627410889 -0.971486270427703857 0.229726687073707581
-0.449830472469329834 -0.950660645961761475 0.177339047193527222
0.692617356777191162 0.467151910066604614 -0.00743234157562255859
-0.457860678434371948 0.923077702522277832 0.150338441133499146
-1.14834034442901611 0.114040195941925049 0.409725040197372437
-1.24918794631958008 0.283571541309356689 0.413047999143600464
-0.537628054618835449 0.789473593235015869 -0.0971124842762947083
-0.395608007907867432 -1.01586484909057617 0.203841120004653931
-0.393836468458175659 -0.909681141376495361 0.201589196920394897
-1.14214205741882324 0.255940914154052734 0.447185009717941284
-0.496887385845184326 0.910480737686157227 0.177773594856262207
-0.290200650691986084 0.945314228534698486 0.0817574858665466309
0.718809306621551514 0.587184488773345947 0.00636470317840576172
-0.303664505481719971 -0.981530189514160156 0.22091260552406311
-1.29989719390869141 0.267368584871292114 0.130022153258323669
0.721016108989715576 0.573105812072753906 0.0322101190686225891
0.793500900268554688 0.531961441040039062 -0.000447183847427368164
-0.29488217830657959 -1.0384441614151001 0.321396768093109131
0.693105220794677734 0.488548457622528076 0.00371162593364715576
-0.370921701192855835 -0.995554804801940918 0.259483486413955688
0.610941588878631592 0.569968104362487793 0.0633271262049674988
0.668954312801361084 0.541243135929107666 0.0892785266041755676
0.742250025272369385 0.52449411153793335 -0.00184169411659240723
-0.330008924007415771 0.922712147235870361 -0.0193827114999294281
0.610937774181365967 0.5108756422996521 0.0769320353865623474
-1.09036600589752197 0.217335358262062073 0.407063424587249756
-0.419042348861694336 -1.06523561477661133 0.352565109729766846
-0.346527934074401855 -1.07945263385772705 0.303166031837463379
-0.324585437774658203 -0.815322756767272949 0.153608769178390503
-0.482973635196685791 -1.00447797775268555 0.289926886558532715
-1.28885042667388916 0.230267196893692017 0.412905633449554443
-1.19015312194824219 0.133454173803329468 0.365375936031341553
-0.320165485143661499 -1.02387619018554688 0.226862311363220215
-0.270134210586547852 -0.97280353307723999 0.148758083581924438
-0.366178333759307861 -1.02232122421264648 0.216165870428085327
-0.209015697240829468 0.859717965126037598 0.0753300487995147705
0.6889076828956604 0.651257455348968506 0.0739694461226463318
0.621712148189544678 0.506057083606719971 0.0799232646822929382
0.64811241626739502 0.57742154598236084 0.0509478077292442322
-0.383471250534057617 -0.946521580219268799 0.355073720216751099
0.614873290061950684 0.514414966106414795 0.0427392572164535522
0.806468605995178223 0.503618836402893066 -0.0338729768991470337
-1.34755384922027588 0.261213004589080811 0.209247320890426636
-1.2240760326385498 0.324414044618606567 0.48726576566696167
-1.22629475593566895 0.289655029773712158 0.389772117137908936
-0.415994048118591309 -0.98541945219039917 0.215909883379936218
-0.321202337741851807 -0.904343545436859131 0.196114078164100647
-0.40074622631072998 -1.02488839626312256 0.25685456395149231
-1.23942172527313232 0.286716759204864502 0.461157113313674927
-0.252862691879272461 0.877726912498474121 0.0743046104907989502
-1.11201035976409912 0.270935893058776855 0.352296054363250732
-0.388665229082107544 -0.859038352966308594 0.219125181436538696
-1.27822017669677734 0.25852695107460022 0.327198386192321777
0.594301700592041016 0.50841367244720459 0.0277062505483627319
0.729238808155059814 0.468917250633239746 0.0502594411373138428
0.63543325662612915 0.599040389060974121 0.178067684173583984
0.692667722702026367 0.52508234977722168 0.0839241743087768555
-0.271022289991378784 -1.0271986722946167 0.315087050199508667
-0.221181169152259827 0.745972871780395508 0.0897193476557731628
-0.418666839599609375 0.855353355407714844 0.106178395450115204
-0.447454988956451416 0.978475987911224365 0.138839483261108398
-0.320702970027923584 -1.00212013721466064 0.402768880128860474
-0.299429833889007568 -0.972907543182373047 0.180922776460647583
-0.243596315383911133 0.847811996936798096 0.048178546130657196
0.676729142665863037 0.566025972366333008 0.0217228680849075317
-0.62586367130279541 0.844088494777679443 0.031402193009853363
0.644018232822418213 0.477929174900054932 0.0506524071097373962
-0.22894856333732605 0.83776247501373291 0.135939329862594604
0.739775419235229492 0.497309178113937378 -0.0261378884315490723
-0.296331077814102173 0.875602841377258301 0.12798541784286499
0.698588311672210693 0.596674561500549316 -0.0231819972395896912
-1.23932838439941406 0.331544488668441772 0.37413787841796875
-0.419721603393554688 -0.938835561275482178 0.216083377599716187
-1.22810506820678711 0.228885963559150696 0.480079948902130127
-0.43730577826499939 0.853497207164764404 0.0609724260866641998
0.7529640793800354 0.477007687091827393 -0.00275874137878417969
-1.27209854125976562 0.241546347737312317 0.278683304786682129
-1.25573134422302246 0.183800190687179565 0.373955905437469482
0.633793115615844727 0.489787071943283081 0.0457329154014587402
-0.415253400802612305 -0.994988679885864258 0.284175336360931396
0.733692407608032227 0.573244571685791016 0.0488879233598709106
-0.351355701684951782 -0.956091463565826416 0.206306040287017822
-0.307846814393997192 0.908255040645599365 0.0396920666098594666
-0.327143162488937378 -1.01628148555755615 0.238701283931732178
-1.28989791870117188 0.219048589468002319 0.220886796712875366
-0.381756097078323364 0.954961299896240234 0.114637844264507294
0.618760228157043457 0.560666143894195557 0.0753077417612075806
0.708717286586761475 0.605180680751800537 0.0155177488923072815
0.5712166428565979 0.537970185279846191 0.0599857829511165619
-0.426439851522445679 -0.924434244632720947 0.188238710165023804
-0.386422187089920044 -0.961090326309204102 0.316732585430145264
0.675094783306121826 0.589440643787384033 0.118183314800262451
0.590523302555084229 0.464814126491546631 0.0782931894063949585
0.695952773094177246 0.567606329917907715 0.0292491912841796875
-0.426752269268035889 -0.916256070137023926 0.176839455962181091
0.698982536792755127 0.513024687767028809 0.0445949509739875793
-0.373405218124389648 -1.03830051422119141 0.319930791854858398
0.78271108865737915 0.57372736930847168 -0.0390519201755523682
-0.364462733268737793 0.831365644931793213 0.168688327074050903
0.686693906784057617 0.47669142484664917 0.0856779217720031738
-0.223795011639595032 0.798656821250915527 0.186521440744400024
-0.471953332424163818 -0.981548070907592773 0.208968937397003174
-0.318503230810165405 -1.01750826835632324 0.222733527421951294
-0.348322391510009766 -1.00297260284423828 0.223524510860443115
0.647672355175018311 0.58091425895690918 0.0807731077075004578
-0.48654976487159729 0.961423218250274658 0.0620352700352668762
-0.285327434539794922 0.804368734359741211 0.121539726853370667
-1.30044257640838623 0.3209342360496521 0.421476602554321289
-1.14904236793518066 0.173211559653282166 0.447503656148910522
0.733879804611206055 0.594519555568695068 -0.0564536526799201965
-1.13181972503662109 0.204924076795578003 0.452634871006011963
-0.402382493019104004 -0.957196354866027832 0.221245497465133667
0.658156514167785645 0.569411814212799072 0.079062923789024353
-1.21412396430969238 0.254791885614395142 0.392598807811737061
-1.19437909126281738 0.267264425754547119 0.486238539218902588
0.67325669527053833 0.491287559270858765 0.0559165775775909424
-0.373166799545288086 -0.962418973445892334 0.203439906239509583
-0.418097734451293945 -1.07691681385040283 0.247722417116165161
-0.320969760417938232 -0.941838383674621582 0.162010610103607178
0.623271584510803223 0.650087296962738037 -0.0194337926805019379
-1.23063838481903076 0.314927995204925537 0.185516774654388428
-0.492921888828277588 0.763149499893188477 -0.0798666626214981079
-1.29168701171875 0.262778401374816895 0.52633136510848999
-0.463314801454544067 0.843078553676605225 0.157392874360084534
