ply
format ascii 1.0
element vertex 156
comment vertices
property float x
property float y
property float z
end_header
1.2425682544708252 1.6036754846572876 0.494155734777450562
0.981445074081420898 -0.584280669689178467 0.553966045379638672
-0.793945252895355225 -0.455303549766540527 0.386377274990081787
1.11031484603881836 0.0984709933400154114 0.517140567302703857
-1.13293576240539551 -1.90658831596374512 0.443079322576522827
0.880389034748077393 -0.218161910772323608 0.551976799964904785
-0.99123913049697876 -1.41169559955596924 0.26928025484085083
-0.276553034782409668 1.25520110130310059 0.279664576053619385
-0.438408583402633667 0.993118524551391602 0.138371855020523071
1.91706013679504395 0.763564825057983398 -0.0119821764528751373
0.734737277030944824 0.709081113338470459 0.0919865816831588745
-1.03647458553314209 -0.28485107421875 0.342583119869232178
-0.102048024535179138 1.08889341354370117 0.193068057298660278
-1.27611744403839111 -1.69227254390716553 0.399587154388427734
1.42769515514373779 1.55284214019775391 0.493577003479003906
-0.606780886650085449 1.05902743339538574 0.158838674426078796
0.623561441898345947 0.848509728908538818 -0.00377425551414489746
0.960402190685272217 0.0400121770799160004 0.503633439540863037
1.05531156063079834 -0.424654126167297363 0.484517514705657959
0.780872881412506104 -0.361710280179977417 0.432051241397857666
-0.890645623207092285 -0.373960971832275391 0.49159666895866394
0.651413679122924805 0.704844951629638672 0.213557317852973938
-0.37217181921005249 1.19117188453674316 0.251342624425888062
-0.869978427886962891 -0.380905330181121826 0.363098651170730591
1.18703567981719971 1.69249999523162842 0.46943509578704834
1.28098249435424805 1.53219163417816162 0.375898599624633789
-0.202941134572029114 1.38988149166107178 0.354345589876174927
-1.13396811485290527 -1.94040751457214355 0.29787677526473999
-0.506557941436767578 0.931265473365783691 0.173195838928222656
0.586820483207702637 0.693064630031585693 0.101086527109146118
0.921073615550994873 -0.571001887321472168 0.488720417022705078
-1.20589315891265869 -1.48563849925994873 0.328371822834014893
0.877378404140472412 0.250064283609390259 0.462754517793655396
0.928908467292785645 -0.455666035413742065 0.53477168083190918
1.37543296813964844 1.60047769546508789 0.42489248514175415
-0.947321236133575439 -0.417853593826293945 0.344269156455993652
1.95847797393798828 0.733178853988647461 -0.0250140316784381866
-1.0273888111114502 -0.273162037134170532 0.383733302354812622
-0.096632152795791626 1.24868404865264893 0.262949764728546143
-0.325846105813980103 0.995838165283203125 0.412251412868499756
0.706137299537658691 0.732820630073547363 0.0947033911943435669
0.728418171405792236 -0.377107501029968262 0.363362133502960205
0.937593162059783936 -0.0536700524389743805 0.660451650619506836
-1.34907615184783936 -1.82701647281646729 0.353949785232543945
-0.667581260204315186 0.944828033447265625 0.240378588438034058
-1.20472061634063721 -1.85636746883392334 0.289158463478088379
0.662743568420410156 0.788577854633331299 0.123710796236991882
-0.247918859124183655 1.11125314235687256 0.27793392539024353
1.86376404762268066 0.691171109676361084 0.0283427461981773376
-0.37161409854888916 0.921156167984008789 0.375965923070907593
-0.944876670837402344 -0.522076606750488281 0.354259252548217773
0.768175780773162842 -0.399247705936431885 0.428776025772094727
1.02028238773345947 0.204735726118087769 0.45880475640296936
-0.140882551670074463 0.957052826881408691 0.233473807573318481
1.18322277069091797 0.0741428956389427185 0.456754565238952637
0.947829246520996094 -0.574669182300567627 0.437524408102035522
-0.0843372344970703125 1.05888175964355469 0.333272844552993774
-1.08290493488311768 -1.7451169490814209 0.316252052783966064
-0.454783350229263306 1.0774838924407959 0.300791889429092407
-0.925436258316040039 -0.384694159030914307 0.35929948091506958
-0.429145097732543945 0.877900362014770508 0.233115896582603455
2.0008552074432373 0.814644098281860352 -0.0243500620126724243
-0.523568153381347656 1.05114066600799561 0.19362679123878479
1.89973688125610352 0.736958682537078857 -0.0429486557841300964
0.870608985424041748 -0.37947121262550354 0.408583909273147583
-0.181750863790512085 0.970921456813812256 0.301775693893432617
1.24083399772644043 1.62267279624938965 0.397844225168228149
-0.63383716344833374 0.92030799388885498 0.075274929404258728
-0.933225035667419434 -0.309904932975769043 0.430894434452056885
0.884156167507171631 0.551508486270904541 0.177571743726730347
0.716096937656402588 0.809824049472808838 0.138560742139816284
-1.22758185863494873 -2.04163575172424316 0.401634335517883301
1.0885167121887207 0.0228891149163246155 0.57414776086807251
-1.02784037590026855 -0.216546282172203064 0.466628402471542358
-0.433589309453964233 1.03238439559936523 0.166431933641433716
1.16685616970062256 1.54048383235931396 0.459611743688583374
0.631685972213745117 0.897044122219085693 0.0283347368240356445
-1.2407684326171875 -1.73875641822814941 0.268928408622741699
-0.0438109003007411957 1.25400352478027344 0.317581385374069214
-1.13256442546844482 -1.61475694179534912 0.332982450723648071
0.739072918891906738 0.799258053302764893 0.0293469130992889404
0.673090755939483643 0.770802855491638184 0.106492877006530762
-0.297226965427398682 1.24954748153686523 0.364819169044494629
1.39438712596893311 1.57228207588195801 0.42724764347076416
-0.107145823538303375 1.30268800258636475 0.358195334672927856
-1.04430770874023438 -0.362581968307495117 0.464400887489318848
0.954383909702301025 0.217860177159309387 0.464020848274230957
1.26514363288879395 1.43463671207427979 0.539743781089782715
-0.853117644786834717 -0.388484150171279907 0.395764321088790894
-0.515138089656829834 1.16760921478271484 0.16017131507396698
-0.504947245121002197 0.915659248828887939 0.231135040521621704
1.92218375205993652 0.667821943759918213 -0.0171163901686668396
1.28745853900909424 1.51343142986297607 0.492390722036361694
0.858685970306396484 -0.00827049463987350464 0.54967576265335083
-0.552583754062652588 1.08100831508636475 0.264245510101318359
-0.230583682656288147 1.28041946887969971 0.34037432074546814
-0.368122518062591553 0.937198102474212646 0.358654171228408813
-0.71505051851272583 1.00511431694030762 0.0913994386792182922
0.773968875408172607 -0.332388103008270264 0.434636116027832031
-1.30863523483276367 -1.48811936378479004 0.26911628246307373
0.953449845314025879 -0.560840904712677002 0.536245048046112061
0.896081984043121338 -0.489466726779937744 0.414150863885879517
-0.925925314426422119 -0.369114875793457031 0.443081706762313843
0.602912306785583496 0.819988250732421875 0.03285236656665802
1.28610587120056152 1.48563647270202637 0.370286375284194946
-0.263697922229766846 1.29034554958343506 0.340136468410491943
1.0538334846496582 -0.432614415884017944 0.352895975112915039
1.3134768009185791 1.5773240327835083 0.461159318685531616
-0.833627760410308838 -0.339127898216247559 0.442116379737854004
-1.18820798397064209 -2.01668739318847656 0.422220975160598755
-0.649400055408477783 0.962469279766082764 0.102291211485862732
1.1739039421081543 1.64912021160125732 0.436637312173843384
0.676118433475494385 0.803939938545227051 0.0149462223052978516
1.4163506031036377 1.56103110313415527 0.415058314800262451
1.02797794342041016 0.0357570499181747437 0.525575459003448486
-1.91914141178131104 -0.850815892219543457 0.227361112833023071
-0.406460076570510864 0.863351047039031982 0.221618697047233582
-0.339883685111999512 1.32184863090515137 0.297618299722671509
0.670165002346038818 0.683880865573883057 0.0886623561382293701
-0.169118314981460571 1.07709038257598877 0.255962014198303223
-0.461743324995040894 1.07387590408325195 0.274145126342773438
-0.0738728642463684082 1.33708572387695312 0.236707121133804321
-0.963839471340179443 -0.425293922424316406 0.377792507410049438
0.637233138084411621 0.704298973083496094 0.0806026607751846313
-0.517496049404144287 1.04981756210327148 0.208290174603462219
-0.533018350601196289 0.823477029800415039 0.197062402963638306
-0.440610766410827637 1.18600273132324219 0.202903300523757935
1.95444047451019287 0.793105542659759521 -0.0414215996861457825
0.832559883594512939 -0.48084297776222229 0.509025096893310547
-0.161238893866539001 1.29816257953643799 0.330505937337875366
-1.1295706033706665 -1.89699399471282959 0.388528734445571899
-0.942544281482696533 -0.389675647020339966 0.458969146013259888
-0.971110284328460693 -0.296675890684127808 0.365967422723770142
0.657446742057800293 0.834078788757324219 0.111432142555713654
-0.928577601909637451 -0.38089597225189209 0.323732167482376099
0.838443398475646973 -0.366276711225509644 0.490787655115127563
0.892135202884674072 -0.462911456823348999 0.457932412624359131
1.03688037395477295 0.334292411804199219 0.410288333892822266
0.677957415580749512 0.882031917572021484 0.0676663443446159363
-0.245008036494255066 1.06946563720703125 0.404395163059234619
1.95332610607147217 0.719112634658813477 -0.0322607830166816711
-0.379220008850097656 1.22973430156707764 0.327913820743560791
-0.184933334589004517 1.31123268604278564 0.319579243659973145
-1.19671320915222168 -1.80962979793548584 0.322729110717773438
1.96723103523254395 0.700778782367706299 -0.0323098599910736084
1.34908401966094971 1.55957484245300293 0.38829919695854187
-0.151820838451385498 1.04073452949523926 0.268836021423339844
0.938625991344451904 -0.0644215792417526245 0.596274316310882568
0.781646549701690674 -0.359457343816757202 0.337734729051589966
-0.488446205854415894 0.969354331493377686 0.252113193273544312
-1.16838383674621582 -1.93736839294433594 0.32669830322265625
1.05434167385101318 -0.453042089939117432 0.380180954933166504
-0.210953950881958008 1.19288408756256104 0.248543128371238708
-0.726754486560821533 1.03948736190795898 0.148771345615386963
0.763923585414886475 -0.316813766956329346 0.392299771308898926
-0.626468837261199951 1.03357458114624023 0.146070569753646851
