ply
format ascii 1.0
element vertex 256
comment vertices
property float x
property float y
property float z
end_header
0.651137709617614746 -1.16027140617370605 0.587378501892089844
-3.00292539596557617 -1.17935061454772949 0.0842401832342147827
-1.12610232830047607 -0.293253630399703979 0.137781098484992981
-1.59575486183166504 -1.67645442485809326 0.23122386634349823
-1.45914769172668457 -1.04494869709014893 0.138714447617530823
-0.515652656555175781 -0.502855420112609863 0.0981931760907173157
0.302605956792831421 -1.16895151138305664 0.0907148569822311401
-2.6747901439666748 -1.22397387027740479 0.542976021766662598
0.519902586936950684 -0.748730063438415527 0.293841332197189331
-1.90430212020874023 -1.27137148380279541 0.111834980547428131
-2.6666104793548584 -1.45938766002655029 0.0543737858533859253
-1.53886449337005615 -1.32402849197387695 -0.157278925180435181
0.249970793724060059 -1.10136747360229492 0.506873488426208496
-1.65244507789611816 -1.35058140754699707 0.426970720291137695
0.573725283145904541 -0.814307093620300293 0.65038985013961792
-0.84606778621673584 -0.634239256381988525 0.064456641674041748
0.597622931003570557 -1.08937156200408936 0.238766908645629883
-2.67032599449157715 -1.14377498626708984 -0.042413078248500824
0.422701984643936157 -1.37933051586151123 0.537375032901763916
-2.9446570873260498 -1.28184974193572998 0.380701363086700439
-0.828030586242675781 -0.330212920904159546 0.0749405845999717712
-1.51773357391357422 -1.38818454742431641 0.136777371168136597
-2.63249707221984863 -1.22980093955993652 0.250536888837814331
0.423098444938659668 -1.11779975891113281 0.75058436393737793
-1.79826223850250244 -1.50712287425994873 0.169408708810806274
0.592691719532012939 -1.36538314819335938 0.336119592189788818
0.496852457523345947 -0.966005027294158936 0.458946168422698975
-2.78912734985351562 -1.47198021411895752 0.414564222097396851
-1.47314083576202393 -1.57510507106781006 -0.0160471349954605103
-2.85505437850952148 -1.3532254695892334 0.172883808612823486
0.59707188606262207 -0.893180549144744873 0.108125589787960052
-1.68396496772766113 -1.25188148021697998 0.210270524024963379
0.416016995906829834 -0.941393792629241943 0.245912730693817139
0.710801899433135986 -0.938965201377868652 0.511753439903259277
0.406658858060836792 -1.19072866439819336 0.2891654372215271
-0.735239148139953613 -0.500474452972412109 0.20080249011516571
-1.7122272253036499 -1.54665780067443848 0.370762795209884644
-0.993337512016296387 -0.486302852630615234 0.100218161940574646
-2.86848545074462891 -1.05141997337341309 -0.0119655728340148926
0.335398375988006592 -0.956893861293792725 0.623758375644683838
-2.63325405120849609 -1.51356208324432373 0.240579113364219666
0.438040614128112793 -1.13988006114959717 0.544349610805511475
-0.722638130187988281 -0.517015576362609863 -0.0311648566275835037
-1.5102989673614502 -1.46642208099365234 0.314401984214782715
0.695142626762390137 -1.16363167762756348 0.387451887130737305
-2.57557415962219238 -1.26706993579864502 0.0780839994549751282
-2.88203096389770508 -1.14276397228240967 0.218778863549232483
-2.91209840774536133 -1.39002454280853271 0.524431765079498291
-0.972819209098815918 -0.216046079993247986 0.075989939272403717
-2.88127017021179199 -1.20117282867431641 0.529153406620025635
-1.60637521743774414 -1.4527428150177002 -0.0535819418728351593
-2.73397636413574219 -1.30408275127410889 0.39326179027557373
-2.78374910354614258 -1.21991324424743652 0.0818698257207870483
0.588909506797790527 -1.32553267478942871 0.540394067764282227
-1.63941025733947754 -1.28303098678588867 0.0464926436543464661
-0.7287483811378479 -0.736068964004516602 -0.00685907155275344849
-1.38839435577392578 -1.48723471164703369 0.188385441899299622
0.301826328039169312 -0.948293328285217285 0.372434735298156738
-1.61129069328308105 -1.53303384780883789 0.141662329435348511
-2.83836650848388672 -1.42626607418060303 0.0240866430103778839
0.517219781875610352 -0.997992992401123047 0.691365301609039307
-1.64960002899169922 -1.41849160194396973 0.2494087815284729
-1.80011439323425293 -1.35480785369873047 0.238791540265083313
0.553262710571289062 -1.20230972766876221 0.69875800609588623
0.284936219453811646 -1.11114680767059326 0.238960295915603638
0.544610261917114258 -0.903930425643920898 0.320969164371490479
0.456349730491638184 -1.27855253219604492 0.428725123405456543
-1.988037109375 -1.39567601680755615 0.133948713541030884
-0.876618802547454834 -0.493077993392944336 0.00472993403673171997
0.305534303188323975 -1.34445810317993164 0.451980471611022949
-1.70157241821289062 -1.41476726531982422 0.104414254426956177
0.39036637544631958 -1.07694447040557861 0.420010626316070557
-2.68345904350280762 -1.37823855876922607 0.213462308049201965
-0.709204256534576416 -0.420519441366195679 0.0768356546759605408
-3.00888991355895996 -1.26561319828033447 0.199472516775131226
0.427522152662277222 -1.27846789360046387 0.63990551233291626
-2.7010953426361084 -1.1071169376373291 0.107489600777626038
0.545713245868682861 -1.20489490032196045 0.312658965587615967
-0.85768580436706543 -0.226166635751724243 0.166453272104263306
-2.7828826904296875 -1.26670432090759277 0.26597931981086731
0.630468070507049561 -1.03805041313171387 0.383433759212493896
-1.48874926567077637 -1.60000014305114746 0.13569602370262146
0.649914681911468506 -1.04677212238311768 0.667464077472686768
-0.663827121257781982 -0.578564703464508057 0.11500886082649231
0.450364589691162109 -0.905433773994445801 0.571260035037994385
0.22898450493812561 -1.12446331977844238 0.361666291952133179
-2.88214206695556641 -1.12932562828063965 0.352099955081939697
-0.992456555366516113 -0.347200244665145874 0.0753086954355239868
-2.78773784637451172 -1.48212969303131104 0.132460400462150574
-1.80001068115234375 -1.20746028423309326 0.171783342957496643
-2.86879229545593262 -1.38617920875549316 0.361788928508758545
-1.5257108211517334 -1.47237658500671387 0.042252175509929657
-2.77300262451171875 -1.13560295104980469 0.536167681217193604
0.605235755443572998 -1.07591104507446289 0.501740157604217529
-2.78588628768920898 -1.28322887420654297 0.514166712760925293
-1.61780011653900146 -1.53440344333648682 0.286958932876586914
-2.8264777660369873 -1.09978771209716797 0.101141154766082764
-2.69759941101074219 -1.41052150726318359 0.337101668119430542
0.572769224643707275 -1.20971596240997314 0.495723515748977661
-1.70062923431396484 -1.6126396656036377 0.206856712698936462
-2.72264289855957031 -1.32829177379608154 0.0861399844288825989
0.626641631126403809 -0.931394100189208984 0.628675937652587891
0.364071190357208252 -1.03419959545135498 0.533437192440032959
-2.72948431968688965 -1.18564534187316895 0.364009857177734375
-1.75264298915863037 -1.43635666370391846 0.401408612728118896
0.753920912742614746 -1.22106742858886719 0.567842602729797363
0.523520708084106445 -1.01982438564300537 0.33270949125289917
0.388846427202224731 -1.08516252040863037 0.63722538948059082
-0.83354341983795166 -0.453945130109786987 0.106907911598682404
-1.84727156162261963 -1.37369978427886963 0.133141189813613892
-2.71580791473388672 -1.39667224884033203 0.462721824645996094
-1.82088148593902588 -1.59312593936920166 0.243156597018241882
0.541133880615234375 -1.13266336917877197 0.604049324989318848
-2.82302236557006836 -1.2227940559387207 0.415950506925582886
0.358766108751296997 -1.23908591270446777 0.469113290309906006
-2.69614577293395996 -1.41052794456481934 -0.042299322783946991
-1.90135252475738525 -1.48691284656524658 0.130678176879882812
-2.93455290794372559 -1.18306982517242432 0.43343818187713623
-2.87887477874755859 -1.2467494010925293 0.155404135584831238
0.603524684906005859 -0.96153557300567627 0.512718260288238525
-2.93185925483703613 -1.06083929538726807 0.0768926739692687988
0.528682410717010498 -1.25193047523498535 0.594303786754608154
-1.59903538227081299 -1.5530860424041748 -0.011644342914223671
0.476390480995178223 -0.862297296524047852 0.202797561883926392
-1.59158456325531006 -1.37917208671569824 0.0431956462562084198
-2.91604924201965332 -1.39161026477813721 0.0946236848831176758
-2.75435280799865723 -1.49706482887268066 0.010604463517665863
0.359866738319396973 -1.03974747657775879 0.327825754880905151
-0.902359068393707275 -0.398961544036865234 0.0404545590281486511
-1.5990293025970459 -1.29796409606933594 0.172136470675468445
-2.92226862907409668 -1.29299449920654297 0.489249438047409058
0.456654846668243408 -1.01993787288665771 0.59385758638381958
-2.88290882110595703 -1.2550053596496582 0.287901818752288818
0.353365451097488403 -0.878796577453613281 0.550853371620178223
-1.54247307777404785 -1.56323599815368652 0.214367389678955078
-1.66393756866455078 -1.32253241539001465 0.330136358737945557
-1.64066946506500244 -1.48004543781280518 0.0570002570748329163
-2.71486473083496094 -1.22330152988433838 0.155380815267562866
0.672012031078338623 -0.813219070434570312 0.628634274005889893
-1.72810959815979004 -1.32741296291351318 0.16129167377948761
-1.5819164514541626 -1.40407645702362061 0.345967561006546021
-0.822680175304412842 -0.466282069683074951 0.235117703676223755
-2.78096318244934082 -1.36567389965057373 0.305848091840744019
-0.78228294849395752 -0.594914555549621582 -0.0486162379384040833
0.494743257761001587 -0.870843291282653809 0.671462774276733398
-2.65529346466064453 -1.30344724655151367 0.452863603830337524
0.716987311840057373 -1.03230905532836914 0.542051732540130615
-0.900614082813262939 -0.350443154573440552 0.137777253985404968
-1.66099774837493896 -1.32179141044616699 -0.0408075191080570221
-0.625160038471221924 -0.442307919263839722 0.120680995285511017
-2.84485363960266113 -1.3339688777923584 0.0620709657669067383
-2.62993478775024414 -1.34188878536224365 0.342145740985870361
-1.04444372653961182 -0.334475278854370117 0.167597919702529907
-2.81877231597900391 -1.36732852458953857 0.441732287406921387
-1.5712510347366333 -1.47075831890106201 0.202812999486923218
-0.912123799324035645 -0.534319460391998291 0.0836067646741867065
0.470408797264099121 -1.18479645252227783 0.466244667768478394
-1.59829115867614746 -1.33649635314941406 0.262779265642166138
0.293968141078948975 -1.1385498046875 0.431429058313369751
0.46231609582901001 -0.916734874248504639 0.366486638784408569
0.513762831687927246 -1.1115262508392334 0.692356586456298828
-1.5072929859161377 -1.33098840713500977 0.211666613817214966
-1.70433592796325684 -1.50665867328643799 0.171449363231658936
-1.44592726230621338 -1.55441546440124512 0.219565793871879578
-0.798040390014648438 -0.532143831253051758 0.0320370122790336609
0.619964897632598877 -1.23579347133636475 0.421761691570281982
-2.76609206199645996 -1.33944952487945557 0.211969375610351562
-1.80350887775421143 -1.45378398895263672 0.24267144501209259
-2.64661955833435059 -1.294913649559021 0.02910626120865345
0.586127996444702148 -1.04982411861419678 0.585670888423919678
-2.67500162124633789 -1.14610159397125244 0.497999727725982666
0.670838356018066406 -1.18092429637908936 0.671794891357421875
0.312219798564910889 -0.99391937255859375 0.473233461380004883
0.303652703762054443 -1.09538841247558594 0.577455759048461914
0.394087791442871094 -1.20009875297546387 0.614962160587310791
-1.60469603538513184 -1.38516390323638916 0.156920477747917175
-1.50519847869873047 -1.34771275520324707 0.0589680150151252747
0.654927492141723633 -1.23951935768127441 0.509151875972747803
-1.51343107223510742 -1.50480186939239502 0.14599493145942688
-2.88332438468933105 -1.16669070720672607 0.0973007902503013611
0.602395892143249512 -1.00175023078918457 0.240820616483688354
-2.71728801727294922 -1.24314725399017334 0.468856394290924072
-2.98278570175170898 -1.30505800247192383 0.125942587852478027
-1.74051952362060547 -1.42868232727050781 0.186400488018989563
-2.77789402008056641 -1.38172483444213867 0.12693476676940918
-1.73183095455169678 -1.57548868656158447 0.278671711683273315
0.432615101337432861 -0.99661487340927124 0.706357121467590332
-2.81605911254882812 -1.19661307334899902 0.302904248237609863
-2.70744037628173828 -1.32710540294647217 0.284284591674804688
0.703877449035644531 -1.09984755516052246 0.617621898651123047
-2.63234686851501465 -1.2101207971572876 0.0489900261163711548
0.508022904396057129 -0.966775417327880859 0.552006423473358154
0.555798709392547607 -1.16686058044433594 0.387035250663757324
-1.67489743232727051 -1.55483973026275635 0.0724318027496337891
-2.88188958168029785 -1.07823288440704346 0.165908262133598328
-2.80066347122192383 -1.26217234134674072 0.184748858213424683
-1.71983671188354492 -1.23517036437988281 0.137562811374664307
-1.53313624858856201 -1.42550933361053467 -0.0293539464473724365
0.50391089916229248 -1.18956530094146729 0.540680170059204102
0.652571678161621094 -0.994645655155181885 0.584313273429870605
0.461238771677017212 -1.21852827072143555 0.681393265724182129
-1.66998791694641113 -1.48986697196960449 0.328627079725265503
-0.897880434989929199 -0.291010499000549316 0.0761265307664871216
0.543136954307556152 -1.36302351951599121 0.4874592125415802
-2.91854286193847656 -1.21050488948822021 0.342777103185653687
0.6368904709815979 -1.14826250076293945 0.499158561229705811
-2.60281825065612793 -1.26319468021392822 0.315522104501724243
-1.53606498241424561 -1.54204666614532471 0.0776854008436203003
-1.40999484062194824 -1.59857118129730225 0.135190501809120178
0.392467260360717773 -0.952313423156738281 0.546395361423492432
-2.70907807350158691 -1.19578790664672852 0.078976556658744812
-2.68343687057495117 -1.32319939136505127 0.157805457711219788
-2.76780819892883301 -1.38269603252410889 0.380892574787139893
-1.02451467514038086 -0.432271778583526611 0.146399408578872681
0.385831475257873535 -1.00162041187286377 0.4380473792552948
-2.87111759185791016 -1.30152511596679688 0.393353313207626343
0.602871417999267578 -1.23617660999298096 0.580946922302246094
-2.63942933082580566 -1.41131603717803955 0.287092924118041992
-1.66257297992706299 -1.49300193786621094 0.239594221115112305
-1.56213808059692383 -1.61330723762512207 0.267737120389938354
-2.71310782432556152 -1.26315701007843018 0.32430151104927063
-1.8323514461517334 -1.47920751571655273 0.101055823266506195
-0.589627981185913086 -0.580835938453674316 0.12758384644985199
-0.908542037010192871 -0.459304928779602051 0.109010644257068634
-2.78444147109985352 -1.27039599418640137 0.349118560552597046
0.664873361587524414 -0.994684219360351562 0.434061884880065918
-2.72304058074951172 -1.1216355562210083 0.00603758729994297028
-2.68249750137329102 -1.35828709602355957 0.0115393474698066711
0.503504574298858643 -1.08567249774932861 0.559540927410125732
0.600424110889434814 -1.10290408134460449 0.666408896446228027
-1.53295457363128662 -1.53625750541687012 0.300800681114196777
-0.61238563060760498 -0.511755526065826416 0.0964652150869369507
-0.744825839996337891 -0.582390546798706055 0.0188336595892906189
0.598651409149169922 -1.28849530220031738 0.476695507764816284
0.652504444122314453 -0.903715729713439941 0.564789175987243652
0.56316685676574707 -0.963650941848754883 0.608370602130889893
-2.8544001579284668 -1.32235002517700195 0.490673601627349854
0.4702950119972229 -1.24723637104034424 0.509057700634002686
-1.6512826681137085 -1.45694637298583984 0.158690690994262695
-1.58775806427001953 -1.44532966613769531 0.0949152112007141113
-1.4694676399230957 -1.51045012474060059 0.0787756592035293579
0.573233425617218018 -1.09544503688812256 0.384865611791610718
-2.77707362174987793 -1.20584011077880859 0.489689469337463379
-1.78986740112304688 -1.28767502307891846 0.161109432578086853
-1.65222549438476562 -1.42287516593933105 0.439434319734573364
-1.58130383491516113 -1.46223640441894531 0.274855852127075195
-2.93998193740844727 -1.28223133087158203 0.216877847909927368
-2.72261762619018555 -1.45284569263458252 0.118386298418045044
0.455199122428894043 -1.11318540573120117 0.645791471004486084
-2.83080792427062988 -1.15219771862030029 0.430183857679367065
0.724321365356445312 -1.19478452205657959 0.507246494293212891
-1.76134800910949707 -1.37310218811035156 0.116594165563583374
-0.848637700080871582 -0.567099809646606445 0.0916231349110603333
-2.73093700408935547 -1.42258787155151367 0.274665594100952148
0.611945509910583496 -1.30182158946990967 0.308895349502563477
-1.71225357055664062 -1.56738626956939697 0.134672045707702637
