ply
format ascii 1.0
element vertex 126
comment vertices
property float x
property float y
property float z
end_header
1.00044846534729004 -0.545320749282836914 0.0075462833046913147
-0.655591249465942383 0.597170829772949219 0.0806922763586044312
1.12440788745880127 0.260096698999404907 0.406589895486831665
-0.760567367076873779 0.664079010486602783 0.0118216425180435181
-1.02471351623535156 -0.729607641696929932 0.163976907730102539
-0.837837100028991699 0.729847431182861328 0.0824690014123916626
-0.69131392240524292 -0.732898294925689697 0.216837644577026367
0.921544551849365234 -0.629505753517150879 -0.160003960132598877
1.0873868465423584 0.297703444957733154 0.23037274181842804
0.918740510940551758 -0.624630570411682129 0.00829480215907096863
0.985327541828155518 0.361978501081466675 0.291326612234115601
-0.793166041374206543 -0.809985458850860596 0.22357255220413208
-0.732517600059509277 0.74446481466293335 -0.0064862668514251709
-0.741179227828979492 -0.760251820087432861 0.0644890293478965759
-0.702677249908447266 0.69964224100112915 -0.0253200381994247437
-0.74438011646270752 -0.791234433650970459 0.141446128487586975
0.91741335391998291 -0.743810951709747314 -0.0354293733835220337
-0.838525295257568359 0.757620275020599365 0.134105592966079712
-0.843546688556671143 0.72501295804977417 0.00232271850109100342
-0.706043839454650879 -0.806925475597381592 0.171647429466247559
-0.750895917415618896 0.667560577392578125 -0.0429909825325012207
0.884057819843292236 -0.622591972351074219 -0.0728208571672439575
-0.750638961791992188 -0.81566542387008667 0.325315982103347778
0.935052096843719482 -0.530892252922058105 -0.0642712116241455078
0.839105367660522461 -0.688231289386749268 -0.0351589731872081757
-0.733832359313964844 0.745965719223022461 0.0759351328015327454
-0.776415407657623291 -0.732383966445922852 0.125763475894927979
0.993088841438293457 0.258168339729309082 0.256995648145675659
-0.593999326229095459 -0.716766357421875 0.172598689794540405
-0.560640513896942139 -0.75932997465133667 0.192408829927444458
-0.738666713237762451 0.746977806091308594 0.01868467777967453
0.946935415267944336 0.33795619010925293 0.191281497478485107
1.12867462635040283 0.356505483388900757 0.28992462158203125
-0.496401131153106689 -0.762567520141601562 0.279887199401855469
1.01845705509185791 0.246363967657089233 0.4175586998462677
1.08860445022583008 0.142127335071563721 0.347609221935272217
-0.632471680641174316 0.695156872272491455 -0.0707643255591392517
0.945552587509155273 -0.527127921581268311 -0.0313114859163761139
1.05458939075469971 0.362623333930969238 0.255568951368331909
-0.803674697875976562 -0.840969562530517578 0.229025155305862427
-0.515030562877655029 -0.82235950231552124 0.186904802918434143
0.975738167762756348 -0.512652695178985596 0.062720179557800293
0.868785262107849121 -0.633143782615661621 0.0147980079054832458
-0.866153240203857422 0.8032417893409729 0.050465509295463562
-0.766622066497802734 0.782814562320709229 -0.11331593245267868
1.13448011875152588 0.277995407581329346 0.305181562900543213
-0.589306831359863281 0.55356132984161377 -0.0620688274502754211
-0.82344818115234375 -0.875014781951904297 0.138881444931030273
-0.760424196720123291 0.756424486637115479 -0.0356714949011802673
1.0938873291015625 0.316494077444076538 0.406188905239105225
-0.812925577163696289 -0.796269476413726807 0.273726582527160645
-0.698470711708068848 -0.752978861331939697 0.190253257751464844
-0.725414097309112549 -0.757432103157043457 0.233857631683349609
-0.71273648738861084 0.748786091804504395 -0.0849685445427894592
-0.767602384090423584 0.680705547332763672 0.121452413499355316
-0.621413648128509521 -0.860536158084869385 0.178619235754013062
1.11214065551757812 0.345582246780395508 0.183043211698532104
1.02237319946289062 0.208764925599098206 0.247192874550819397
0.969691812992095947 -0.514975368976593018 -0.0221007727086544037
-0.895126402378082275 0.702225565910339355 0.0187198147177696228
-0.730975210666656494 0.62766730785369873 -0.0655177012085914612
-0.658305048942565918 0.788063287734985352 -0.0336006432771682739
-0.538983464241027832 -0.788119018077850342 0.236117705702781677
-0.829617917537689209 0.76141810417175293 0.0731927454471588135
-0.717571139335632324 0.680382490158081055 -0.0251989439129829407
1.06896305084228516 0.427098244428634644 0.246885791420936584
-0.633538544178009033 -0.727329552173614502 0.214401572942733765
-0.579446673393249512 -0.692777872085571289 0.151523083448410034
-0.593358218669891357 -0.749688088893890381 0.177241235971450806
-0.76853632926940918 0.801296710968017578 0.0173957198858261108
-0.887527883052825928 -0.730316817760467529 0.155370354652404785
-0.736642360687255859 -0.826215207576751709 0.315432995557785034
-0.736068010330200195 -0.794764518737792969 0.122663415968418121
1.03999757766723633 0.33589702844619751 0.181170836091041565
-0.676486432552337646 -0.833525598049163818 0.188684582710266113
-0.581337928771972656 -0.759827136993408203 0.224608823657035828
-0.69814985990524292 -0.889493763446807861 0.326804518699645996
-0.784801900386810303 0.781413137912750244 -0.0004579201340675354
1.05626142024993896 0.274995118379592896 0.386400371789932251
-0.766897916793823242 0.710326790809631348 0.037704862654209137
-0.739553332328796387 0.670675516128540039 -0.0250438451766967773
-0.735025405883789062 -0.749837040901184082 0.122204653918743134
-0.619766116142272949 -0.818534672260284424 0.320925116539001465
0.93552321195602417 -0.575730860233306885 0.0540000908076763153
-0.622279763221740723 -0.775786280632019043 0.137421011924743652
0.90434420108795166 -0.585624396800994873 -0.081425592303276062
-0.737885594367980957 -0.7650718092918396 0.138866186141967773
-0.631488978862762451 -0.780295014381408691 0.21065087616443634
0.980351686477661133 0.31583482027053833 0.355386614799499512
0.955839037895202637 -0.481326878070831299 -0.115643203258514404
-0.790172040462493896 -0.764890551567077637 0.245429039001464844
0.982082068920135498 0.331946611404418945 0.187372833490371704
-0.896733105182647705 -0.711874246597290039 0.228817969560623169
-0.494143158197402954 -0.74527508020401001 0.251109838485717773
-0.569731533527374268 -0.802136540412902832 0.235792964696884155
-0.720409810543060303 0.644989848136901855 -0.0147682074457406998
-0.614596307277679443 -0.814345836639404297 0.200876146554946899
-0.726109027862548828 0.770890176296234131 0.0100793018937110901
-0.651865243911743164 0.76888740062713623 -0.0365513116121292114
-0.622485101222991943 0.579697787761688232 0.00316696614027023315
-0.701558530330657959 -0.769320487976074219 0.1483021080493927
-0.715191006660461426 -0.74736863374710083 0.234711706638336182
-0.638003110885620117 -0.803480207920074463 0.260501950979232788
-0.685537159442901611 0.753502964973449707 -0.0733642876148223877
0.898375272750854492 -0.551629781723022461 -0.0989016890525817871
-0.641730129718780518 -0.778535127639770508 0.175803586840629578
-0.837605178356170654 -0.784168243408203125 0.148808956146240234
0.846479535102844238 -0.744204819202423096 -0.0167576819658279419
-0.764208376407623291 -0.739759862422943115 0.107052542269229889
-0.736438512802124023 -0.761424064636230469 0.0992034822702407837
-0.702368378639221191 0.70410454273223877 -0.119880132377147675
-0.857059121131896973 -0.815940141677856445 0.16990208625793457
-0.804321765899658203 -0.855188369750976562 0.22350725531578064
-0.498545259237289429 -0.767963945865631104 0.245535314083099365
1.09791123867034912 0.359433829784393311 0.246385395526885986
-0.61531364917755127 -0.774089694023132324 0.179780662059783936
-0.731821000576019287 0.700795769691467285 -0.0709291771054267883
-0.932817220687866211 -0.688063621520996094 0.107293903827667236
-0.5350380539894104 -0.812281131744384766 0.242170751094818115
1.0119168758392334 0.365124255418777466 0.357961177825927734
-0.668999195098876953 0.640062928199768066 -0.138451144099235535
-0.589654803276062012 -0.676606357097625732 0.201424330472946167
0.84756171703338623 -0.61535269021987915 0.00118475407361984253
-0.683373808860778809 0.667928576469421387 -0.0339848212897777557
1.00159215927124023 0.333464980125427246 0.183967769145965576
-0.668403327465057373 -0.795376300811767578 0.205097585916519165
