ply
format ascii 1.0
element vertex 64
comment vertices
property float x
property float y
property float z
end_header
0.0228437464684247971 1.32980382442474365 0.0687792971730232239
0.56325829029083252 1.20484030246734619 0.373866856098175049
-1.26629221439361572 0.406699001789093018 0.0731004104018211365
1.24934649467468262 0.456106811761856079 0.419036507606506348
-3.07927155494689941 -0.348235070705413818 0.0687676370143890381
-2.31030750274658203 2.06534767150878906 0.0585022382438182831
-1.29156804084777832 -0.317414760589599609 0.492771953344345093
-3.04658126831054688 0.567030370235443115 0.365851998329162598
0.463470548391342163 -1.24663352966308594 0.0779905244708061218
3.04383158683776855 0.581610798835754395 0.460878133773803711
1.51751852035522461 -2.70191025733947754 0.0650350451469421387
-1.68795371055603027 2.59884476661682129 0.0720466077327728271
-0.588022947311401367 -1.19294977188110352 0.145049348473548889
0.803998291492462158 1.05947470664978027 0.372796475887298584
-0.698652863502502441 3.01911664009094238 0.0732132643461227417
3.54927229881286621 -4.13786458969116211 0.187632009387016296
0 0 0
0 0 0
0 0 0
0 0 0
0 0 0
0 0 0
0 0 0
0 0 0
0 0 0
0 0 0
0 0 0
0 0 0
0 0 0
0 0 0
0 0 0
0 0 0
0 0 0
0 0 0
0 0 0
0 0 0
0 0 0
0 0 0
0 0 0
0 0 0
0 0 0
0 0 0
0 0 0
0 0 0
0 0 0
0 0 0
0 0 0
0 0 0
0 0 0
0 0 0
0 0 0
0 0 0
0 0 0
0 0 0
0 0 0
0 0 0
0 0 0
0 0 0
0 0 0
0 0 0
0 0 0
0 0 0
0 0 0
0 0 0
