ply
format ascii 1.0
element vertex 256
comment vertices
property float x
property float y
property float z
end_header
2.37903451919555664 -1.9705040454864502 0.546719193458557129
4.63240623474121094 4.60203075408935547 -0.00742694735527038574
-1.78632485866546631 1.71092116832733154 0.746074318885803223
1.68751275539398193 2.23608088493347168 -0.146000862121582031
-0.667915582656860352 -1.07945537567138672 0.213305771350860596
4.87585544586181641 -3.50198674201965332 -0.117422997951507568
1.16761922836303711 0.352140486240386963 0.497056126594543457
-1.37792527675628662 -0.639297544956207275 0.636193811893463135
1.33764970302581787 -3.21567821502685547 -0.199578702449798584
3.80300760269165039 2.21205615997314453 0.300358235836029053
1.01015448570251465 3.97832846641540527 0.446064770221710205
-0.00960411503911018372 2.21951079368591309 0.0801915824413299561
4.62727117538452148 -2.33480286598205566 0.53906702995300293
1.04017758369445801 -1.88663911819458008 0.478969931602478027
3.8621208667755127 3.95800280570983887 0.656474530696868896
-0.929339408874511719 0.812490999698638916 0.20757603645324707
4.47418785095214844 -3.86026144027709961 0.577491998672485352
2.34181594848632812 0.355132520198822021 -0.0357236266136169434
2.00592899322509766 -3.46631550788879395 0.465471506118774414
-1.00363731384277344 0.490473359823226929 0.657998621463775635
4.37545013427734375 3.15093898773193359 -0.112983107566833496
1.24998998641967773 2.29497385025024414 0.376852214336395264
2.35166454315185547 -2.0606076717376709 0.299755513668060303
0.67285621166229248 0.844339132308959961 0.279851913452148438
0.64380943775177002 1.20208048820495605 0.736197590827941895
4.39674949645996094 -2.28770709037780762 0.0838837027549743652
1.81939339637756348 -0.876355648040771484 0.591414690017700195
1.83242213726043701 3.78655433654785156 -0.0721526145935058594
-1.29850900173187256 -0.388274729251861572 0.350822120904922485
0.584325194358825684 -0.918204307556152344 0.41506582498550415
3.52019286155700684 4.20201635360717773 -0.162540555000305176
4.36367273330688477 3.52374267578125 0.327752262353897095
-0.406626671552658081 1.42112863063812256 0.467617809772491455
3.39636898040771484 3.05809211730957031 0.0252969563007354736
-1.41521978378295898 0.0923242270946502686 1.08535385131835938
-0.73479008674621582 -1.06439745426177979 0.494124174118041992
3.77494955062866211 3.47241687774658203 0.57312619686126709
1.25803613662719727 -1.94854950904846191 -0.216941952705383301
2.25344586372375488 1.03850197792053223 0.377854079008102417
0.560161232948303223 1.08754205703735352 0.329875171184539795
-1.23722338676452637 0.771934151649475098 0.612853765487670898
2.25077152252197266 -3.27930831909179688 -0.090191185474395752
2.22845220565795898 2.19591856002807617 0.333842426538467407
4.52368497848510742 -2.93574380874633789 0.563018083572387695
1.07842755317687988 3.10364818572998047 -0.124578893184661865
-0.529668629169464111 -0.112009420990943909 0.0350024998188018799
-0.984475016593933105 -1.07880747318267822 0.402274668216705322
0.947670340538024902 -0.885747373104095459 0.476981222629547119
1.53344082832336426 -2.70662164688110352 0.415372878313064575
1.16210818290710449 2.69397735595703125 0.404001593589782715
3.64632916450500488 4.31722688674926758 0.392370045185089111
1.24906396865844727 0.107755295932292938 0.212632596492767334
0.971880495548248291 1.98152732849121094 -0.0123969316482543945
-1.1023259162902832 1.52538776397705078 0.341044694185256958
0.0255655050277709961 1.15427196025848389 0.248857498168945312
1.09093570709228516 0.919470131397247314 0.414531469345092773
1.30048203468322754 2.99733257293701172 0.484611988067626953
2.15239357948303223 -1.93931269645690918 0.579145550727844238
-1.60328316688537598 -0.946832954883575439 0.0322310328483581543
1.51914191246032715 0.0470322072505950928 0.133661478757858276
0.494440704584121704 -0.788283288478851318 0.0272100567817687988
4.7969970703125 -4.01130437850952148 0.154738008975982666
2.00161123275756836 -2.47397351264953613 0.569560229778289795
-1.33930206298828125 -0.503112077713012695 0.395151615142822266
-1.42917394638061523 0.0867967158555984497 0.0769727826118469238
-1.37423288822174072 -0.532488822937011719 0.354264587163925171
0.438808560371398926 0.0604810863733291626 0.211879640817642212
1.24604964256286621 -3.55397963523864746 0.181463316082954407
1.71595883369445801 1.70427823066711426 0.042036011815071106
0.796598911285400391 3.96653413772583008 -0.0159072577953338623
3.89755773544311523 3.77954363822937012 0.432804763317108154
-0.467891335487365723 2.47606468200683594 0.526859700679779053
2.50549507141113281 -1.52853035926818848 0.10499081015586853
2.23202705383300781 -1.81490755081176758 0.546634554862976074
-1.04172217845916748 0.889884233474731445 0.652650892734527588
-1.38101637363433838 0.252024322748184204 0.287985742092132568
-1.48191249370574951 1.24109101295471191 -0.0179157257080078125
4.02323484420776367 3.92584872245788574 0.339834988117218018
2.3626091480255127 -1.98537313938140869 0.619134306907653809
4.49985074996948242 4.20135688781738281 -0.136747896671295166
1.66737484931945801 4.13098001480102539 0.132051035761833191
1.82187247276306152 2.2600853443145752 0.340103238821029663
0.0532310903072357178 1.48614788055419922 0.251954972743988037
0.135315924882888794 1.3727269172668457 0.227602541446685791
4.79940652847290039 -2.60607075691223145 -0.0759322047233581543
3.90488910675048828 2.95218873023986816 0.31375393271446228
2.4146113395690918 -1.60927677154541016 0.525780618190765381
1.22553920745849609 -1.58703958988189697 0.117711663246154785
0.933883607387542725 2.14773011207580566 -0.145946264266967773
4.7720179557800293 -1.90726387500762939 0.224741294980049133
-1.2314070463180542 -0.352233737707138062 0.465369433164596558
4.52535390853881836 -3.08502435684204102 0.507900655269622803
0.64329075813293457 1.13529467582702637 0.410370767116546631
-1.16369354724884033 1.37457942962646484 0.750507235527038574
-1.31514453887939453 -0.821578681468963623 0.438759386539459229
3.00268721580505371 2.16997075080871582 0.324464946985244751
-1.39772701263427734 0.0560046285390853882 0.613033473491668701
0.87058103084564209 -0.919969081878662109 0.519333600997924805
4.84725666046142578 2.81021213531494141 0.0930507928133010864
-0.716732442378997803 0.0142195187509059906 -0.263373672962188721
-0.855659306049346924 -1.12657260894775391 0.50900501012802124
0.700170516967773438 1.13790404796600342 0.267977118492126465
4.27869033813476562 -1.91417372226715088 0.600517094135284424
1.25234925746917725 0.523187398910522461 0.176996231079101562
3.90796327590942383 3.8616330623626709 0.517686009407043457
1.05643236637115479 0.383777409791946411 0.602334797382354736
2.27549839019775391 -3.57300543785095215 0.0844761431217193604
-0.721735298633575439 -0.759404301643371582 0.166795223951339722
1.61285245418548584 4.00830745697021484 0.475979864597320557
1.17374253273010254 2.4001007080078125 0.420212149620056152
4.34254550933837891 -3.58271121978759766 0.00901329517364501953
1.07266783714294434 0.113806694746017456 0.336595773696899414
1.74334657192230225 -2.55978870391845703 0.449415236711502075
-0.850279092788696289 -0.440339803695678711 0.323632389307022095
1.18328964710235596 2.97808122634887695 0.522513926029205322
1.0488814115524292 0.0419732928276062012 0.178300470113754272
0.850217759609222412 0.808297634124755859 0.336213588714599609
0.892777383327484131 -0.848466932773590088 0.368284165859222412
1.36999964714050293 -3.53141880035400391 0.473997980356216431
1.20329403877258301 0.325983017683029175 0.565237522125244141
2.21412992477416992 2.1314551830291748 0.265804946422576904
3.91886353492736816 3.90288805961608887 0.501942694187164307
4.65049457550048828 -2.80877184867858887 0.572498202323913574
-1.13839101791381836 0.906763553619384766 0.647488534450531006
1.29946351051330566 0.26221853494644165 0.352336347103118896
3.67416644096374512 4.02447032928466797 0.323485672473907471
1.31769514083862305 2.68743419647216797 0.444317162036895752
1.49678945541381836 0.123965710401535034 0.247927367687225342
2.24109554290771484 -1.93425309658050537 0.568857014179229736
-0.0417890027165412903 0.465500295162200928 0.0171834230422973633
-1.40333080291748047 -0.461578011512756348 0.562861263751983643
3.95794439315795898 3.79955053329467773 0.411465317010879517
1.63804948329925537 -2.49601507186889648 0.441138029098510742
1.27022743225097656 -0.843187868595123291 0.47754204273223877
2.40157628059387207 -2.06380176544189453 0.573154449462890625
3.72243690490722656 3.35842800140380859 0.340389162302017212
1.86767518520355225 2.21848392486572266 0.101437389850616455
1.74412918090820312 -1.35973453521728516 0.4276447594165802
-0.259813606739044189 0.357115447521209717 0.235776975750923157
-1.09527111053466797 0.721595048904418945 0.660328924655914307
2.28493261337280273 -1.93033909797668457 0.554473519325256348
-1.34632599353790283 -0.579237520694732666 0.536628663539886475
0.185245931148529053 1.24642622470855713 0.362550735473632812
1.8073190450668335 3.46932625770568848 -0.254242181777954102
1.24441385269165039 0.0441544950008392334 0.261111080646514893
-0.750983238220214844 1.14750158786773682 0.0655935406684875488
3.94551348686218262 4.28366661071777344 0.393671214580535889
-1.35579872131347656 1.2172698974609375 0.355455189943313599
-1.33685135841369629 -0.545427143573760986 0.398364484310150146
1.48049116134643555 -2.28869009017944336 -0.142948687076568604
1.6127399206161499 -2.93656373023986816 0.462840795516967773
1.71072065830230713 -2.45277833938598633 0.476528465747833252
-0.957541286945343018 0.458837270736694336 0.426841914653778076
-0.287288486957550049 2.029693603515625 0.672786891460418701
4.74030876159667969 -4.02126264572143555 0.344132304191589355
0.65979921817779541 0.0552409961819648743 0.376680999994277954
-1.3700028657913208 -0.612158238887786865 0.416743636131286621
2.27215242385864258 0.277907252311706543 0.0860210657119750977
1.9298405647277832 -2.97688889503479004 0.585794627666473389
0.246723160147666931 -0.952818691730499268 0.24991375207901001
1.02834880352020264 1.9037851095199585 0.360627532005310059
0.521041452884674072 0.0688408389687538147 0.0227469801902770996
-1.62935614585876465 -0.236566156148910522 0.184619367122650146
2.11851334571838379 2.14723086357116699 0.413406640291213989
4.49637985229492188 -2.78084397315979004 0.615939915180206299
-0.655119001865386963 0.799947679042816162 0.420841068029403687
4.81680774688720703 -2.24485445022583008 0.16082996129989624
4.37146997451782227 -2.69588088989257812 -0.0529937148094177246
0.914673686027526855 3.62507963180541992 -0.0902128219604492188
0.362828522920608521 2.34380817413330078 -0.142913416028022766
-0.866811215877532959 -1.06897509098052979 0.49127507209777832
2.43030166625976562 -2.03323268890380859 0.603523373603820801
3.7506411075592041 3.11112546920776367 0.241954684257507324
-1.37968504428863525 0.13075004518032074 0.528575420379638672
4.42029762268066406 -4.03316926956176758 0.0496503114700317383
2.32173466682434082 -1.98958981037139893 0.591613352298736572
-1.20282351970672607 -0.144165486097335815 0.395921438932418823
4.35927581787109375 -1.93842828273773193 0.425208032131195068
-1.28705155849456787 -0.474613219499588013 0.396476507186889648
4.62429618835449219 -2.95016002655029297 0.589695274829864502
-1.30465066432952881 1.36346840858459473 0.549145400524139404
1.21560525894165039 0.333503514528274536 0.259559690952301025
1.50263237953186035 -2.22927665710449219 0.555778682231903076
2.30963516235351562 -1.9137808084487915 0.571469545364379883
2.19569063186645508 -2.12165260314941406 0.56171107292175293
-0.855511963367462158 -1.1121901273727417 0.353557169437408447
2.30066013336181641 -1.94925987720489502 0.567298650741577148
0.814236998558044434 -0.875711262226104736 0.502245843410491943
4.45128059387207031 -3.11651039123535156 0.533011257648468018
-0.288275688886642456 2.10678386688232422 0.249920055270195007
3.97933125495910645 3.83966183662414551 0.347947537899017334
-0.98499751091003418 1.18257057666778564 0.360604047775268555
1.58290576934814453 1.71957743167877197 0.29233551025390625
0.807936906814575195 0.848328948020935059 0.228556916117668152
4.41558742523193359 -4.05478429794311523 0.195294484496116638
-0.899978995323181152 1.41029679775238037 0.606046140193939209
2.25570559501647949 -1.87078344821929932 0.562620043754577637
2.54041361808776855 -1.79413282871246338 0.164094686508178711
2.6705024242401123 -1.84703981876373291 0.426729977130889893
-1.43794739246368408 -0.0326233468949794769 0.538124144077301025
4.65500974655151367 4.49128580093383789 0.215092986822128296
-0.399384468793869019 1.20340168476104736 0.42733195424079895
-1.40379047393798828 0.894418954849243164 0.697503805160522461
2.29218316078186035 -2.07216215133666992 0.552904188632965088
-0.845585465431213379 0.490672320127487183 0.102543532848358154
1.2217642068862915 2.36396884918212891 -0.0695783346891403198
0.862588405609130859 0.880257964134216309 0.313872158527374268
1.31190669536590576 -1.50754761695861816 0.45157274603843689
-1.3395240306854248 0.193273484706878662 0.381871461868286133
-1.2702946662902832 -0.619783461093902588 0.451066553592681885
-1.04902386665344238 0.654667258262634277 0.662364304065704346
0.929476261138916016 -0.915919721126556396 0.47463691234588623
3.95086765289306641 3.89873027801513672 0.426484525203704834
1.48685371875762939 -2.93102884292602539 0.413394540548324585
0.570663809776306152 1.46580493450164795 0.107882320880889893
2.32556533813476562 -1.9754641056060791 0.754475593566894531
3.37681698799133301 4.40440130233764648 0.476393789052963257
-1.06298828125 -1.11702227592468262 0.189935803413391113
0.665505886077880859 1.08074831962585449 0.347732365131378174
2.17165255546569824 -1.74463462829589844 0.425259262323379517
-1.2166142463684082 -0.605274677276611328 0.48911169171333313
1.2309424877166748 0.13094775378704071 0.223843052983283997
-0.889672398567199707 -0.11343066394329071 0.376738518476486206
2.36566305160522461 -2.0881807804107666 0.704077184200286865
-1.38370966911315918 -0.437315315008163452 0.413721948862075806
-0.725042641162872314 -0.885392487049102783 0.329318523406982422
4.64097499847412109 2.81839227676391602 -0.21889650821685791
-0.855458080768585205 -0.879967570304870605 0.0813289880752563477
4.7665562629699707 3.01441526412963867 0.347961127758026123
3.35797786712646484 3.12167596817016602 -0.139481663703918457
1.21893000602722168 0.299799352884292603 0.503688395023345947
2.24370479583740234 -2.15991544723510742 0.386464565992355347
2.10588741302490234 2.09745931625366211 0.317232608795166016
-1.62045812606811523 -0.265073686838150024 0.0298703908920288086
1.27689278125762939 0.11899181455373764 0.216458916664123535
-1.37090432643890381 0.100287541747093201 0.604022502899169922
1.2247014045715332 2.88718056678771973 0.441022902727127075
4.34836816787719727 -1.86166834831237793 0.17426656186580658
2.30058193206787109 -3.6443326473236084 0.334604918956756592
3.97294259071350098 3.8005526065826416 0.492618262767791748
1.19764387607574463 0.149922609329223633 0.152026951313018799
3.26601505279541016 4.31946754455566406 0.188988789916038513
0.985153436660766602 4.1241765022277832 0.217415720224380493
3.8474118709564209 3.74491071701049805 0.398115366697311401
-0.293768942356109619 1.58278584480285645 0.363880574703216553
4.62595987319946289 4.45434474945068359 -0.0382148325443267822
-1.35353565216064453 -0.592093467712402344 0.480609714984893799
1.42203223705291748 2.4173743724822998 0.487561523914337158
1.48631405830383301 3.49805378913879395 0.500382840633392334
1.6500542163848877 -2.70842885971069336 0.485277712345123291
2.25480842590332031 2.17736649513244629 0.330295413732528687
1.25622200965881348 0.314937591552734375 0.56958305835723877
0.609145760536193848 -0.886049330234527588 0.3251495361328125
3.64326333999633789 4.43325567245483398 0.95351874828338623
4.21932363510131836 3.18633079528808594 0.385586708784103394
1.72233808040618896 0.987835288047790527 0.296735227108001709
