ply
format ascii 1.0
element vertex 50
comment vertices
property float x
property float y
property float z
end_header
-1.26105475425720215 0.436846613883972168 0.0598817914724349976
-2.43528962135314941 2.22719740867614746 -0.000150442123413085938
0.705508828163146973 1.12906336784362793 0.388481020927429199
3.0264430046081543 0.606744825839996338 0.467086642980575562
-3.12806320190429688 0.600058853626251221 0.50136268138885498
0.491084396839141846 -1.32561254501342773 0.0785631164908409119
1.12911581993103027 0.519559621810913086 0.508311867713928223
-0.661561250686645508 3.05181074142456055 0.08087969571352005
3.58195734024047852 -4.18024682998657227 0.178177490830421448
-1.6330873966217041 2.54645681381225586 0.0361398085951805115
-2.38390088081359863 1.9541313648223877 -0.024114387109875679
-1.37759613990783691 -0.467369705438613892 0.581440389156341553
-1.25626695156097412 -0.229622319340705872 0.623226165771484375
0.346374034881591797 1.31390058994293213 0.265172451734542847
0.0620968937873840332 1.34109866619110107 0.0510982796549797058
-1.42059111595153809 0.459589183330535889 0.193398609757423401
-2.27400422096252441 2.06113576889038086 -0.0141832083463668823
-3.10846900939941406 0.594549477100372314 0.570554196834564209
1.0776362419128418 0.42783692479133606 0.443983763456344604
1.52602720260620117 -2.68918180465698242 0.0411418750882148743
3.53481769561767578 -4.18352699279785156 0.178272873163223267
0.905644357204437256 0.798631668090820312 0.503289878368377686
-1.76405107975006104 2.57943391799926758 0.103606298565864563
3.5048520565032959 -4.15876102447509766 0.231743335723876953
1.07888364791870117 0.435266315937042236 0.47611624002456665
0.780384838581085205 1.15407013893127441 0.471511036157608032
-1.20968961715698242 0.486339986324310303 0.0596495084464550018
-0.853842079639434814 2.99680614471435547 0.0979068204760551453
0.592430055141448975 1.15098392963409424 0.370355427265167236
-0.739334166049957275 3.06321930885314941 0.0752770453691482544
-1.69235897064208984 2.60260534286499023 0.0461404323577880859
3.56302165985107422 -4.16074037551879883 0.253151655197143555
-2.46209239959716797 1.95336222648620605 -0.015041843056678772
-1.34423255920410156 -0.305601358413696289 0.578925073146820068
-2.38909745216369629 1.99700498580932617 4.42266464233398438e-05
-3.02482795715332031 -0.296441256999969482 0.0888604819774627686
-1.33783447742462158 0.41801530122756958 0.0746394619345664978
-3.06739091873168945 -0.380130529403686523 0.0230336915701627731
-1.25191354751586914 -0.636802315711975098 0.496184587478637695
1.51833713054656982 -2.62636661529541016 0.050481017678976059
-2.33417129516601562 1.99560105800628662 0.208064153790473938
-0.670925140380859375 -1.17154419422149658 0.292700797319412231
0.0305951088666915894 1.3913886547088623 0.0421037971973419189
-0.606041133403778076 -1.19898879528045654 0.0818864554166793823
-1.28598189353942871 -0.376518279314041138 0.627247750759124756
3.03522157669067383 0.559876859188079834 0.493915915489196777
0.604860186576843262 1.20713651180267334 0.232452034950256348
-0.637626051902770996 2.99537277221679688 0.0301234573125839233
-2.24998688697814941 2.17974042892456055 0.044707566499710083
3.05470061302185059 0.605600476264953613 0.402074187994003296
