ply
format ascii 1.0
element vertex 64
comment vertices
property float x
property float y
property float z
end_header
1.30145931243896484 0.274050235748291016 0.0602417364716529846
1.12143504619598389 0.715040802955627441 0.217072948813438416
3.03136038780212402 0.643456041812896729 0.100158609449863434
0.828108608722686768 1.04073822498321533 0.405230790376663208
-1.21966123580932617 -0.530402243137359619 0.346827149391174316
-2.81082391738891602 -1.3047797679901123 0.50027918815612793
-0.628793418407440186 1.17197215557098389 0.0621305815875530243
-0.751690030097961426 -1.0972064733505249 0.115279361605644226
2.89982748031616211 1.09278619289398193 0.152432233095169067
2.0397191047668457 2.33296537399291992 0.52582627534866333
1.14477908611297607 -0.677038252353668213 0.253732204437255859
-0.152446746826171875 1.32123422622680664 0.400938600301742554
2.69816780090332031 1.52416253089904785 0.460465490818023682
0.286660432815551758 3.08561301231384277 0.0306349135935306549
-2.49850082397460938 -1.8332144021987915 0.260437905788421631
3.15928816795349121 4.4427642822265625 0.131112262606620789
0 0 0
0 0 0
0 0 0
0 0 0
0 0 0
0 0 0
0 0 0
0 0 0
0 0 0
0 0 0
0 0 0
0 0 0
0 0 0
0 0 0
0 0 0
0 0 0
0 0 0
0 0 0
0 0 0
0 0 0
0 0 0
0 0 0
0 0 0
0 0 0
0 0 0
0 0 0
0 0 0
0 0 0
0 0 0
0 0 0
0 0 0
0 0 0
0 0 0
0 0 0
0 0 0
0 0 0
0 0 0
0 0 0
0 0 0
0 0 0
0 0 0
0 0 0
0 0 0
0 0 0
0 0 0
0 0 0
0 0 0
0 0 0
