ply
format ascii 1.0
element vertex 64
comment vertices
property float x
property float y
property float z
end_header
0.926183223724365234 0.954507529735565186 0.193704560399055481
-0.344249844551086426 -1.28467583656311035 0.0621869601309299469
-0.202298805117607117 1.31452465057373047 0.117285929620265961
1.14935147762298584 -0.669246852397918701 0.0536386482417583466
2.74783492088317871 -1.43268454074859619 0.421994030475616455
0.400196164846420288 3.07295036315917969 0.129589974880218506
0.227899253368377686 -1.31032896041870117 0.46760249137878418
2.49764752388000488 -1.83437657356262207 0.0580521374940872192
2.61247014999389648 1.66678774356842041 0.253732204437255859
4.47881746292114258 -3.10796523094177246 0.376131117343902588
2.18859076499938965 2.19391250610351562 0.49703565239906311
1.32949924468994141 0.0364913642406463623 0.435504436492919922
1.18828451633453369 0.597394227981567383 0.376803040504455566
1.87263810634613037 2.46909046173095703 0.266502857208251953
-0.907931625843048096 -2.96291089057922363 0.130052000284194946
-1.32636034488677979 -0.098327048122882843 0.217072948813438416
0 0 0
0 0 0
0 0 0
0 0 0
0 0 0
0 0 0
0 0 0
0 0 0
0 0 0
0 0 0
0 0 0
0 0 0
0 0 0
0 0 0
0 0 0
0 0 0
0 0 0
0 0 0
0 0 0
0 0 0
0 0 0
0 0 0
0 0 0
0 0 0
0 0 0
0 0 0
0 0 0
0 0 0
0 0 0
0 0 0
0 0 0
0 0 0
0 0 0
0 0 0
0 0 0
0 0 0
0 0 0
0 0 0
0 0 0
0 0 0
0 0 0
0 0 0
0 0 0
0 0 0
0 0 0
0 0 0
0 0 0
0 0 0
