ply
format ascii 1.0
element vertex 256
comment vertices
property float x
property float y
property float z
end_header
1.04740238189697266 -0.174935817718505859 0.432819128036499023
4.74069929122924805 -4.08840036392211914 0.101701885461807251
-4.19388914108276367 -0.31203952431678772 0.0652167946100234985
-1.04126954078674316 3.94939589500427246 0.0450449101626873016
1.28330087661743164 -3.90195941925048828 0.0180923640727996826
-2.35418462753295898 2.11681747436523438 0.770262241363525391
-1.01406872272491455 -2.00479483604431152 0.587627291679382324
3.03260517120361328 0.656846404075622559 0.593334794044494629
-1.26105475425720215 0.436846613883972168 0.0598817914724349976
3.1372215747833252 0.574099540710449219 0.30533909797668457
1.19311165809631348 2.25025153160095215 0.533272206783294678
-1.73251163959503174 -1.01913750171661377 -0.0134189128875732422
0.25035509467124939 -2.18210005760192871 -0.14808519184589386
-2.43528962135314941 2.22719740867614746 -0.000150442123413085938
0.482481420040130615 1.28610789775848389 0.879044890403747559
-3.11682677268981934 0.59789729118347168 0.742483139038085938
2.6559445858001709 -2.65318393707275391 0.0434477441012859344
-1.2183995246887207 -0.383642017841339111 0.493251830339431763
0.73242950439453125 1.38255321979522705 0.317531406879425049
-3.01266098022460938 0.586347103118896484 0.0651045441627502441
3.48957252502441406 -4.15400981903076172 0.254335910081863403
2.00022315979003906 0.929096579551696777 0.350237876176834106
-0.869320690631866455 2.4243171215057373 0.077766813337802887
0.296312332153320312 3.01372814178466797 0.0348036065697669983
-3.42032146453857422 -1.55124235153198242 0.0588220506906509399
0.705508828163146973 1.12906336784362793 0.388481020927429199
1.422646164894104 -1.828360915184021 0.0784154385328292847
-1.68474030494689941 -0.784331083297729492 0.654697120189666748
2.08753371238708496 -0.250898689031600952 -0.186107128858566284
2.14083337783813477 1.45364499092102051 -0.288230568170547485
-0.40747678279876709 -1.03310203552246094 0.149548992514610291
0.757030308246612549 -0.293277084827423096 -0.281034409999847412
-3.11947107315063477 -0.346286684274673462 0.101231351494789124
-0.88300853967666626 -2.08614468574523926 0.0958868563175201416
-0.234365180134773254 0.363381087779998779 0.0554818920791149139
3.0264430046081543 0.606744825839996338 0.467086642980575562
-2.0202476978302002 3.2978966236114502 0.0051985718309879303
-1.24727857112884521 -0.0678634941577911377 0.0390296801924705505
3.52667045593261719 -4.14932155609130859 0.264607280492782593
-3.12806320190429688 0.600058853626251221 0.50136268138885498
1.50637960433959961 -2.65398335456848145 0.0601007901132106781
-1.36728978157043457 -0.225829452276229858 0.657099902629852295
-0.0443619973957538605 1.46992552280426025 0.100498020648956299
-1.99564075469970703 1.90472102165222168 -0.0144528783857822418
1.79828286170959473 -0.510489463806152344 0.460302650928497314
1.04778456687927246 0.172314465045928955 0.723861753940582275
0.926717281341552734 0.667078197002410889 0.158657103776931763
-0.922098636627197266 -0.737328529357910156 -0.022880256175994873
0.491084396839141846 -1.32561254501342773 0.0785631164908409119
-0.907457232475280762 0.530953705310821533 0.59429699182510376
-0.66870039701461792 -1.38672363758087158 0.524865865707397461
-0.388691484928131104 1.26585245132446289 0.0971326678991317749
1.12911581993103027 0.519559621810913086 0.508311867713928223
-0.661561250686645508 3.05181074142456055 0.08087969571352005
-2.24600100517272949 0.610805034637451172 0.174150347709655762
1.51171135902404785 -2.74064111709594727 -0.00763462670147418976
-2.30294084548950195 2.03748011589050293 0.131169974803924561
3.58195734024047852 -4.18024682998657227 0.178177490830421448
0.319080591201782227 -0.271671831607818604 -0.020310133695602417
0.894645929336547852 1.30602085590362549 0.558118820190429688
-1.95892894268035889 -1.44198477268218994 0.194562628865242004
-1.6330873966217041 2.54645681381225586 0.0361398085951805115
-0.780802726745605469 -1.01007747650146484 0.243557780981063843
-1.92997682094573975 -0.276431828737258911 0.167263120412826538
0.232595309615135193 0.891102015972137451 -0.065930292010307312
-1.31669437885284424 -1.25624501705169678 0.472987920045852661
-0.0555724091827869415 -1.50700092315673828 0.149318069219589233
0.630957961082458496 1.51990091800689697 0.447701513767242432
-2.38390088081359863 1.9541313648223877 -0.024114387109875679
0.612753629684448242 0.563698530197143555 0.469419956207275391
1.13770103454589844 1.6266334056854248 -0.0223774313926696777
0.532500028610229492 1.21940851211547852 0.57251739501953125
-1.59975135326385498 0.77763068675994873 0.555534839630126953
-2.66486859321594238 3.14990544319152832 0.0244430266320705414
1.48196136951446533 -2.68223309516906738 0.0527744442224502563
3.0624845027923584 0.597244739532470703 0.462172746658325195
1.02930343151092529 1.79669737815856934 0.2509613037109375
-1.37759613990783691 -0.467369705438613892 0.581440389156341553
-0.375186562538146973 -0.250020623207092285 -0.0555257797241210938
-1.60715031623840332 -0.30242505669593811 0.0817319154739379883
-3.13060593605041504 -0.0228789746761322021 0.0941297709941864014
2.10954999923706055 1.47887444496154785 0.0389941930770874023
0.444593071937561035 -2.42003059387207031 0.026326104998588562
-1.25626695156097412 -0.229622319340705872 0.623226165771484375
1.18974971771240234 0.738556742668151855 0.0256296992301940918
0.346374034881591797 1.31390058994293213 0.265172451734542847
1.92905449867248535 0.35610315203666687 0.256475210189819336
2.23531079292297363 -4.14930200576782227 0.0474852137267589569
1.75529801845550537 1.56000983715057373 0.552436351776123047
-2.30410099029541016 2.1436765193939209 0.45820164680480957
1.17029774188995361 0.913736701011657715 0.422395527362823486
-1.37489628791809082 2.8533327579498291 0.161316081881523132
-3.07885026931762695 -0.852189898490905762 0.0662993788719177246
0.732224762439727783 0.490971773862838745 0.0633020401000976562
-3.0239415168762207 -0.372874259948730469 0.104816898703575134
3.60765719413757324 -4.10699796676635742 0.284315675497055054
1.11687779426574707 0.499369144439697266 0.580680370330810547
0.79932934045791626 -1.90669727325439453 -0.044851154088973999
-1.06655550003051758 0.330771028995513916 0.13168025016784668
1.26785552501678467 -1.18019640445709229 0.0154848024249076843
3.10847711563110352 0.529174327850341797 0.449442535638809204
0.849617362022399902 -0.366598159074783325 -0.00792929530143737793
-0.638014793395996094 2.97577357292175293 0.000997910276055335999
0.330972015857696533 -1.10030746459960938 0.155570268630981445
0.0620968937873840332 1.34109866619110107 0.0510982796549797058
-0.539362132549285889 -1.22489333152770996 0.0980862081050872803
-1.42059111595153809 0.459589183330535889 0.193398609757423401
0.595229923725128174 0.149359524250030518 0.0994395315647125244
2.06888103485107422 -0.27459031343460083 0.176209792494773865
-1.53130435943603516 -0.398548483848571777 0.637095749378204346
0.637386858463287354 -3.10498571395874023 0.0829649120569229126
-1.09924507141113281 1.28164863586425781 0.240687653422355652
-3.51135778427124023 0.640437602996826172 0.052545592188835144
-0.818370461463928223 -1.61113250255584717 0.231639072299003601
-2.27400422096252441 2.06113576889038086 -0.0141832083463668823
1.0222707986831665 -0.165378004312515259 0.58701026439666748
-1.54627895355224609 1.35961103439331055 0.103895708918571472
-1.01259839534759521 -1.0333327054977417 0.45569533109664917
-3.10846900939941406 0.594549477100372314 0.570554196834564209
1.0776362419128418 0.42783692479133606 0.443983763456344604
0.379921287298202515 -1.4035799503326416 0.164986550807952881
0.924299478530883789 -0.620499670505523682 0.0956259071826934814
-0.281565457582473755 -2.18631458282470703 -0.0923329442739486694
-1.10188543796539307 -0.435242801904678345 0.336354851722717285
0.627443015575408936 0.984567224979400635 0.175422489643096924
-0.915769517421722412 -1.09822142124176025 0.302993535995483398
-0.924413383007049561 0.733575940132141113 0.0642686411738395691
-1.80152976512908936 -1.25776767730712891 0.616308093070983887
-1.09522497653961182 1.64830398559570312 0.0416413694620132446
1.24512672424316406 0.247359305620193481 0.45708426833152771
3.18141627311706543 -4.14690351486206055 0.167528450489044189
-1.01239919662475586 -2.21307611465454102 0.293840378522872925
1.1191939115524292 0.969566762447357178 0.0448773503303527832
-2.05009770393371582 0.673256456851959229 0.574014663696289062
-0.16969279944896698 -0.818359613418579102 0.121141016483306885
0.816009879112243652 1.53062272071838379 0.302561670541763306
-0.86399310827255249 -0.298223704099655151 0.169941350817680359
-0.042420312762260437 1.19384169578552246 0.0551019273698329926
1.52602720260620117 -2.68918180465698242 0.0411418750882148743
3.53481769561767578 -4.18352699279785156 0.178272873163223267
1.59808778762817383 1.13590741157531738 0.405475795269012451
-1.7243201732635498 -0.810303211212158203 -0.165733933448791504
-0.653552114963531494 -1.32151412963867188 0.182990759611129761
-0.750305533409118652 2.97987675666809082 0.0424894392490386963
-3.10173273086547852 0.563195228576660156 0.280372649431228638
0.905644357204437256 0.798631668090820312 0.503289878368377686
-1.76405107975006104 2.57943391799926758 0.103606298565864563
-1.79482817649841309 2.98056578636169434 0.236434385180473328
-2.59932470321655273 -0.187352284789085388 0.0794837325811386108
2.09532284736633301 -0.0895064249634742737 -0.346348822116851807
1.38936126232147217 -3.21528482437133789 0.0122117884457111359
3.5048520565032959 -4.15876102447509766 0.231743335723876953
0.517743825912475586 -1.7667919397354126 -0.106355130672454834
0.993682026863098145 0.622703135013580322 0.565294921398162842
1.07888364791870117 0.435266315937042236 0.47611624002456665
1.25737619400024414 0.495789468288421631 0.453412681818008423
-1.53606069087982178 -0.654599964618682861 0.577170968055725098
0.526435673236846924 1.24634635448455811 0.454482197761535645
-2.05491924285888672 0.278731346130371094 0.269406616687774658
3.01534366607666016 -4.03291845321655273 0.261375635862350464
0.780384838581085205 1.15407013893127441 0.471511036157608032
-1.34423553943634033 0.0808472931385040283 0.616728305816650391
-0.103029355406761169 2.37335824966430664 0.0576732233166694641
-1.20968961715698242 0.486339986324310303 0.0596495084464550018
-0.853842079639434814 2.99680614471435547 0.0979068204760551453
-3.98009562492370605 -0.696408867835998535 0.145234599709510803
-0.949246823787689209 -0.353257834911346436 0.130350619554519653
-0.540376842021942139 0.73082202672958374 0.405347108840942383
-0.53011929988861084 0.248151019215583801 0.141188114881515503
0.592430055141448975 1.15098392963409424 0.370355427265167236
4.07335138320922852 -3.97335505485534668 0.16017487645149231
0.00898565724492073059 -1.8436896800994873 -0.0317358970642089844
0.824038803577423096 1.59088671207427979 0.437118113040924072
-2.79454636573791504 2.69096636772155762 0.197282388806343079
-0.739334166049957275 3.06321930885314941 0.0752770453691482544
0.644118189811706543 1.1086806058883667 0.40298837423324585
3.08745694160461426 -4.0833592414855957 0.3410453200340271
-1.03292202949523926 -0.0106865093111991882 0.249815136194229126
-1.01402473449707031 -0.833284676074981689 0.386618882417678833
0.526712596416473389 -2.81214547157287598 0.244422361254692078
1.96909165382385254 1.48395264148712158 0.252911210060119629
0.467541366815567017 -0.491572320461273193 0.0969274565577507019
-2.31678509712219238 2.40406394004821777 -0.00146332383155822754
-0.604622066020965576 -1.69953203201293945 0.0868749767541885376
0.91327279806137085 1.09104597568511963 0.310851156711578369
-1.69235897064208984 2.60260534286499023 0.0461404323577880859
3.56302165985107422 -4.16074037551879883 0.253151655197143555
-1.15033745765686035 1.93258190155029297 0.0433681607246398926
1.57624983787536621 -2.72418904304504395 0.0999441444873809814
-1.09354043006896973 -1.77054870128631592 0.461413294076919556
-2.46209239959716797 1.95336222648620605 -0.015041843056678772
1.13963401317596436 0.621942281723022461 0.482481956481933594
-1.97154533863067627 3.78264760971069336 0.0310054551810026169
1.37658178806304932 -0.272729307413101196 0.670925796031951904
-0.730302214622497559 2.99360799789428711 0.0938689857721328735
-1.21087908744812012 -0.705228030681610107 -0.167730629444122314
3.02889084815979004 0.599911212921142578 0.439952552318572998
1.09546864032745361 0.262340158224105835 0.518737256526947021
0.542335033416748047 -1.16918528079986572 0.113518796861171722
-1.34423255920410156 -0.305601358413696289 0.578925073146820068
-2.38909745216369629 1.99700498580932617 4.42266464233398438e-05
-0.84890294075012207 -1.26245760917663574 0.226493358612060547
-3.02482795715332031 -0.296441256999969482 0.0888604819774627686
1.1109083890914917 0.551624298095703125 0.676661133766174316
-0.04987335205078125 -1.19315910339355469 0.117199674248695374
0.732074975967407227 -0.169288218021392822 0.0787882357835769653
-1.33783447742462158 0.41801530122756958 0.0746394619345664978
0.623759448528289795 0.801539063453674316 0.493238449096679688
-3.06739091873168945 -0.380130529403686523 0.0230336915701627731
-1.62276840209960938 0.151704549789428711 0.171729221940040588
-3.61458230018615723 -0.375691384077072144 0.151588231325149536
-1.41652452945709229 -0.520240247249603271 -0.089551389217376709
-0.500871479511260986 -0.668525755405426025 0.100126996636390686
0.385124415159225464 -1.6886526346206665 0.0345786623656749725
1.69800007343292236 0.0886164307594299316 0.481172949075698853
1.20787739753723145 0.435624241828918457 0.441273421049118042
-1.25191354751586914 -0.636802315711975098 0.496184587478637695
1.51833713054656982 -2.62636661529541016 0.050481017678976059
4.49371337890625 -4.01986598968505859 0.0633038580417633057
-2.33417129516601562 1.99560105800628662 0.208064153790473938
0.84770357608795166 0.282108515501022339 0.400037229061126709
-1.72464072704315186 2.52283143997192383 0.0322744622826576233
0.730042219161987305 1.11034166812896729 0.61884772777557373
-0.593889355659484863 0.455495953559875488 0.113396264612674713
-0.670925140380859375 -1.17154419422149658 0.292700797319412231
0.0305951088666915894 1.3913886547088623 0.0421037971973419189
0.0596276931464672089 -0.0200992226600646973 -0.110902920365333557
-1.12297749519348145 0.655386269092559814 0.591665863990783691
0.659047782421112061 1.99205505847930908 0.527827978134155273
1.81369900703430176 0.645472049713134766 0.343087524175643921
-0.606041133403778076 -1.19898879528045654 0.0818864554166793823
-1.28598189353942871 -0.376518279314041138 0.627247750759124756
0.206536948680877686 -0.796904265880584717 0.0322671085596084595
1.19448328018188477 -0.262914568185806274 0.456965386867523193
3.03522157669067383 0.559876859188079834 0.493915915489196777
-1.13320755958557129 -1.59005117416381836 0.577969908714294434
1.13187408447265625 1.88661360740661621 0.513551056385040283
-0.610516786575317383 0.0141305550932884216 -0.181788235902786255
0.793168604373931885 1.5626603364944458 0.221759021282196045
3.47771644592285156 -4.12310409545898438 0.252052485942840576
-0.993948101997375488 -0.2054901123046875 0.496374666690826416
0.604860186576843262 1.20713651180267334 0.232452034950256348
-4.1132659912109375 0.00147397816181182861 0.023479953408241272
1.18067288398742676 0.373332738876342773 0.460100769996643066
0.785279273986816406 0.438567221164703369 0.148584455251693726
-0.935543477535247803 0.199129670858383179 0.569758236408233643
-0.637626051902770996 2.99537277221679688 0.0301234573125839233
-0.127113163471221924 -0.501873970031738281 0.00590734183788299561
-2.2332761287689209 -0.36569666862487793 0.0547816455364227295
-2.24998688697814941 2.17974042892456055 0.044707566499710083
0.559682607650756836 1.30961251258850098 0.277989506721496582
-0.896278023719787598 1.02597832679748535 0.101247221231460571
-1.90055179595947266 0.296389460563659668 0.681458771228790283
3.05470061302185059 0.605600476264953613 0.402074187994003296
-0.218637987971305847 -1.24082982540130615 0.0867415368556976318
2.46056270599365234 -4.26317501068115234 0.208989888429641724
