ply
format ascii 1.0
element vertex 64
comment vertices
property float x
property float y
property float z
end_header
-1.32881486415863037 -0.0561345182359218597 0.31655457615852356
0.983392477035522461 0.895454704761505127 0.284954309463500977
1.34874880313873291 2.78999233245849609 0.41193506121635437
0.214645147323608398 1.31256520748138428 0.11675417423248291
0.928076744079589844 -0.952666521072387695 0.405197709798812866
2.25442624092102051 2.12620401382446289 0.24454692006111145
3.94904327392578125 3.75823259353637695 0.372511565685272217
1.79471361637115479 -2.52629852294921875 0.4310627281665802
-0.77109295129776001 -1.08365845680236816 0.394161999225616455
2.4012608528137207 -1.95885872840881348 0.535299301147460938
-1.22405421733856201 -0.520183920860290527 0.359118223190307617
4.62614154815673828 -2.88410639762878418 0.518427014350891113
1.27384543418884277 0.382384210824966431 0.625064492225646973
-1.04963696002960205 0.81679999828338623 0.528927206993103027
1.32605159282684326 0.102407157421112061 0.204576835036277771
0.684317708015441895 1.1404426097869873 0.334618121385574341
0 0 0
0 0 0
0 0 0
0 0 0
0 0 0
0 0 0
0 0 0
0 0 0
0 0 0
0 0 0
0 0 0
0 0 0
0 0 0
0 0 0
0 0 0
0 0 0
0 0 0
0 0 0
0 0 0
0 0 0
0 0 0
0 0 0
0 0 0
0 0 0
0 0 0
0 0 0
0 0 0
0 0 0
0 0 0
0 0 0
0 0 0
0 0 0
0 0 0
0 0 0
0 0 0
0 0 0
0 0 0
0 0 0
0 0 0
0 0 0
0 0 0
0 0 0
0 0 0
0 0 0
0 0 0
0 0 0
0 0 0
0 0 0
