ply
format ascii 1.0
element vertex 68
comment vertices
property float x
property float y
property float z
end_header
0.158850818872451782 3.11773324012756348 0.00152532011270523071
1.12107789516448975 0.656509280204772949 0.172327831387519836
2.77179431915283203 0.95565110445022583 0.21803949773311615
2.0387575626373291 2.34661412239074707 0.566163480281829834
-2.54808735847473145 -1.83162987232208252 0.459744006395339966
3.08222579956054688 4.51848793029785156 0.16938723623752594
-1.14228177070617676 -0.596739292144775391 0.41592174768447876
-0.7051849365234375 -1.04874563217163086 0.108568042516708374
2.68021655082702637 1.50334501266479492 0.607819557189941406
3.02001547813415527 0.724222838878631592 0.00358745455741882324
1.22401154041290283 -0.965146303176879883 0.32371068000793457
1.2743527889251709 0.154797151684761047 0.128720879554748535
1.05807197093963623 -0.704000651836395264 0.260512650012969971
-2.81305313110351562 -1.42198729515075684 0.560700535774230957
-0.143993675708770752 1.36213195323944092 0.400546640157699585
3.03108692169189453 0.618998408317565918 0.230720549821853638
-0.653251290321350098 1.14613914489746094 0.0686022117733955383
1.09400093555450439 0.695461750030517578 0.222118914127349854
2.90946865081787109 0.85522150993347168 0.101029232144355774
-1.13558375835418701 -0.72297966480255127 0.241509601473808289
0.786429047584533691 1.08397042751312256 0.616899192333221436
3.15894389152526855 4.34616374969482422 0.124087497591972351
3.16670012474060059 4.37505102157592773 0.235169321298599243
-1.2677379846572876 -0.531871616840362549 0.287942945957183838
3.04720044136047363 4.41035223007202148 0.189926058053970337
2.93756961822509766 0.946921825408935547 0.113336935639381409
-0.13177606463432312 1.23478662967681885 0.464635610580444336
1.17902278900146484 0.678395926952362061 0.273752689361572266
1.18534445762634277 0.453947514295578003 0.120382525026798248
2.84969735145568848 1.17285656929016113 0.194783672690391541
3.04151582717895508 0.763745307922363281 0.1478729248046875
2.97420597076416016 0.566619336605072021 0.0398346781730651855
0.854665279388427734 0.994816899299621582 0.499627888202667236
1.18309473991394043 -0.715714693069458008 0.26562809944152832
-0.610732555389404297 1.13088726997375488 0.0476802736520767212
1.09764456748962402 -0.806054055690765381 0.251233279705047607
2.03664016723632812 2.314849853515625 0.755599558353424072
2.63200831413269043 1.20659542083740234 0.156119048595428467
1.33277428150177002 0.254110157489776611 0.0476269721984863281
2.9410700798034668 0.946686267852783203 0.280531823635101318
-0.831104695796966553 -1.03708362579345703 0.123517632484436035
3.18380522727966309 4.51492595672607422 0.176587820053100586
0.943156599998474121 0.880407989025115967 0.131596997380256653
1.21629095077514648 -0.775539994239807129 0.250457167625427246
3.05955672264099121 0.624180495738983154 0.202678754925727844
2.74729323387145996 0.992844879627227783 0.162927702069282532
2.91618061065673828 0.790086328983306885 0.208120003342628479
-0.1600455641746521 1.34940755367279053 0.464833259582519531
2.92616939544677734 4.49241399765014648 0.216229796409606934
2.98082756996154785 0.973173797130584717 0.152861058712005615
-2.48506736755371094 -1.87003123760223389 0.299436807632446289
1.17186856269836426 0.617548644542694092 0.215845674276351929
0.736540675163269043 1.11444973945617676 0.619213879108428955
2.81223821640014648 1.10987520217895508 0.0765681713819503784
3.07452869415283203 4.32722568511962891 0.119080126285552979
0.0416026413440704346 3.15106916427612305 0.0396827012300491333
-1.21585166454315186 -0.576245725154876709 0.320271193981170654
1.25223469734191895 0.35429796576499939 0.22086063027381897
-1.19083297252655029 -0.636460244655609131 0.410727769136428833
-0.677390158176422119 1.14841794967651367 0.0494425222277641296
1.19409763813018799 -0.636115431785583496 0.277478933334350586
1.03845465183258057 0.679685592651367188 0.239102572202682495
1.07892990112304688 -1.00162935256958008 0.322807073593139648
-1.24020779132843018 -0.50966334342956543 0.338837176561355591
1.19628298282623291 0.703293681144714355 0.287044763565063477
0.234715700149536133 3.04070115089416504 0.0388360023498535156
1.04197430610656738 -0.543988406658172607 0.279544293880462646
2.8929743766784668 0.796879172325134277 0.0833113193511962891
