ply
format ascii 1.0
element vertex 32
comment vertices
property float x
property float y
property float z
end_header
0.602477431297302246 -0.517846524715423584 0.572284042835235596
-2.7186279296875 -1.31254637241363525 -0.383267641067504883
0.00478204526007175446 2.14804363250732422 -0.338594198226928711
2.46155452728271484 1.31866550445556641 1.21293091773986816
-0.442106574773788452 -2.6821446418762207 -0.129314154386520386
-0.98930126428604126 0.922574341297149658 1.47368645668029785
-0.452222228050231934 -1.85273528099060059 1.81699490547180176
0.165604591369628906 0.244732379913330078 -1.28056108951568604
-1.05463027954101562 -0.906942069530487061 0.137056991457939148
0.757775008678436279 1.06213569641113281 0.785209238529205322
0.0881621837615966797 -1.21722376346588135 -0.830853760242462158
1.96228718757629395 -0.0935385227203369141 1.4821394681930542
-2.26004123687744141 -0.0697348713874816895 0.279326260089874268
-0.456276953220367432 0.371113449335098267 0.179225742816925049
1.46978402137756348 0.273532569408416748 -0.0533065944910049438
0.197922855615615845 -1.74495959281921387 0.464457958936691284
-0.0850891172885894775 -0.665145218372344971 1.60640311241149902
-1.00415217876434326 -1.52660942077636719 -1.08487558364868164
-0.904447972774505615 -2.00941348075866699 0.795979797840118408
-1.70802402496337891 -1.74201369285583496 -0.184456378221511841
1.03887653350830078 -1.17603087425231934 -0.19218561053276062
-0.900179862976074219 -0.12055070698261261 1.00598776340484619
0.391223907470703125 0.836028575897216797 -0.442366361618041992
1.63480639457702637 -0.477176547050476074 0.57410728931427002
1.8319929838180542 1.07610023021697998 0.385774582624435425
0.843330621719360352 0.0539352297782897949 1.32641243934631348
-0.539252758026123047 -0.530079483985900879 -0.539528369903564453
-2.05052495002746582 -0.970532774925231934 0.211250796914100647
-0.427685916423797607 -1.25735044479370117 0.935106515884399414
1.5410231351852417 1.41453027725219727 1.14925098419189453
-0.0857674926519393921 1.41780757904052734 -0.894689023494720459
0.03481253981590271 -2.27964115142822266 1.11603784561157227
