ply
format ascii 1.0
element vertex 34
comment vertices
property float x
property float y
property float z
end_header
0.254036426544189453 1.29705452919006348 0.0705975368618965149
2.56996297836303711 1.67144715785980225 0.330966770648956299
-1.32496511936187744 -0.0498916357755661011 0.30597195029258728
-1.31827855110168457 -0.0544032230973243713 0.296396970748901367
2.55608177185058594 1.73987734317779541 0.355377823114395142
2.57811307907104492 1.69409835338592529 0.346364974975585938
-0.0462146401405334473 -0.155565544962882996 -0.0559656023979187012
2.57714295387268066 1.68073844909667969 0.34559100866317749
1.07803452014923096 -0.761806070804595947 0.0754482150077819824
-1.32434689998626709 -0.0464444532990455627 0.295562148094177246
-1.32117140293121338 -0.0419090874493122101 0.300879985094070435
-1.31690216064453125 -0.0524813532829284668 0.299211472272872925
2.57430553436279297 1.68208956718444824 0.340992867946624756
2.01090550422668457 2.34695792198181152 0.15133155882358551
-1.3074270486831665 -0.027418212965130806 0.309228241443634033
2.57812619209289551 1.68019700050354004 0.343897491693496704
-1.31815314292907715 -0.0557133182883262634 0.297230720520019531
2.8224787712097168 1.2495415210723877 0.112768419086933136
0.330767601728439331 3.08296895027160645 0.103964537382125854
-1.9059523344039917 2.43499398231506348 0.116481989622116089
2.03049421310424805 2.37798881530761719 0.191886574029922485
2.5748591423034668 1.68372976779937744 0.342664897441864014
2.57762551307678223 1.68621063232421875 0.344018995761871338
-1.31932961940765381 -0.0535696595907211304 0.296567201614379883
-0.0701742321252822876 0.0136616677045822144 -0.0126698873937129974
-1.31857204437255859 -0.0526163876056671143 0.29865071177482605
-1.31989777088165283 -0.0498565211892127991 0.299328237771987915
2.57779932022094727 1.68058514595031738 0.342799335718154907
2.57969760894775391 1.68160045146942139 0.346167564392089844
-0.918675065040588379 0.944892466068267822 0.237823054194450378
-1.31838810443878174 -0.0447675213217735291 0.299211472272872925
2.57179832458496094 1.67795968055725098 0.337032973766326904
-1.32455742359161377 -0.0422316677868366241 0.298852384090423584
-2.53326249122619629 4.81185722351074219 0.375042140483856201
