ply
format ascii 1.0
element vertex 56
comment vertices
property float x
property float y
property float z
end_header
-0.557655572891235352 -1.21486270427703857 0.419829785823822021
-0.560570061206817627 -1.21431279182434082 0.416661083698272705
-0.557561814785003662 -1.21452474594116211 0.418629974126815796
-0.556313455104827881 -1.21501290798187256 0.419223546981811523
-3.11820197105407715 0.0908352956175804138 0.318108230829238892
-0.557049393653869629 -1.21471643447875977 0.419718265533447266
-1.24797797203063965 -2.79975247383117676 0.403571993112564087
1.2759469747543335 -2.78381586074829102 0.086309581995010376
0.732623398303985596 1.10560059547424316 0.439694106578826904
-1.64564716815948486 -2.60799121856689453 0.408238083124160767
-0.558495283126831055 -1.21398842334747314 0.417614579200744629
-0.558615326881408691 -1.21480023860931396 0.416458666324615479
-0.553558349609375 -1.21647799015045166 0.418078869581222534
4.81586647033691406 -2.5772705078125 0.0633021295070648193
-0.557520687580108643 -1.21445989608764648 0.419859826564788818
0.0227364301681518555 -3.11504983901977539 0.124875485897064209
-0.562363862991333008 -1.21271562576293945 0.416191041469573975
-0.0265580099076032639 1.31041586399078369 0.0640409141778945923
1.12555837631225586 -0.715517044067382812 0.0559821277856826782
-1.1059257984161377 -2.8348381519317627 0.354203999042510986
-1.15573620796203613 -2.85431504249572754 0.358165919780731201
-0.556813061237335205 -1.21481072902679443 0.419465392827987671
3.06825494766235352 0.540576696395874023 0.350110799074172974
0.0276083201169967651 -3.10092902183532715 0.133297145366668701
-0.558250904083251953 -1.21488356590270996 0.420292168855667114
-0.751950740814208984 2.98167538642883301 0.2802162766456604
-0.025564536452293396 1.31495726108551025 0.0553958863019943237
3.05418610572814941 0.537659645080566406 0.323001086711883545
-0.557255387306213379 -1.2147221565246582 0.418417245149612427
1.2932204008102417 0.326770424842834473 0.473293840885162354
7.22497987747192383 -4.61443519592285156 0.152963206171989441
-0.557387948036193848 -1.21458911895751953 0.419848978519439697
-0.556651592254638672 -1.21502816677093506 0.419103801250457764
1.27107429504394531 -2.83726119995117188 0.0703178197145462036
-0.561652481555938721 -1.21291351318359375 0.416613250970840454
1.15851306915283203 -0.698563277721405029 0.0528217405080795288
0.720219671726226807 1.09937953948974609 0.441720008850097656
-3.09293651580810547 0.0609698109328746796 0.268751710653305054
-0.557033896446228027 -1.21471297740936279 0.419708579778671265
-0.559790849685668945 -1.21381628513336182 0.420908510684967041
-0.556939542293548584 -1.21475028991699219 0.419569730758666992
7.20746946334838867 -4.64541244506835938 0.116446390748023987
1.28949582576751709 -2.8363804817199707 0.0402162671089172363
-0.55518639087677002 -1.21535825729370117 0.419139832258224487
-0.556906163692474365 -1.21501433849334717 0.41950342059135437
-0.0290722101926803589 1.32839953899383545 0.0820448100566864014
0.645325005054473877 1.14602363109588623 0.431190699338912964
-0.558337092399597168 -1.21432256698608398 0.420262694358825684
-1.1671760082244873 -2.85992836952209473 0.362401187419891357
1.30761909484863281 -2.78233861923217773 0.126046597957611084
-1.16508567333221436 -2.87213754653930664 0.389030277729034424
-0.557025015354156494 -1.21574485301971436 0.418953567743301392
-1.64619278907775879 -2.59164571762084961 0.380145221948623657
1.12967991828918457 -0.70039820671081543 0.049867779016494751
-3.13567590713500977 0.0769751816987991333 0.284019321203231812
0.749553561210632324 1.09983277320861816 0.421720385551452637
