ply
format ascii 1.0
element vertex 256
comment vertices
property float x
property float y
property float z
end_header
-2.96776890754699707 0.0937481671571731567 -0.402628451585769653
2.94439053535461426 -2.95735073089599609 0.295863449573516846
2.43026947975158691 2.42526912689208984 -0.223506689071655273
-5.15316677093505859 4.26583766937255859 0.123458206653594971
-1.96834027767181396 -2.86693763732910156 1.75115501880645752
0.15846550464630127 -0.32171255350112915 -0.180860757827758789
-5.41444492340087891 0.383722454309463501 0.388393104076385498
-0.635631322860717773 1.25386440753936768 2.19675040245056152
-1.86926352977752686 2.90587019920349121 -0.168913781642913818
-3.85907292366027832 1.56293225288391113 -0.129259943962097168
1.66235017776489258 0.282459080219268799 0.935014724731445312
-1.74236404895782471 -0.543021559715270996 1.42109847068786621
-2.18871808052062988 1.22001194953918457 -0.513000607490539551
1.72279715538024902 -0.928193569183349609 -0.492133766412734985
0.249542921781539917 1.54372406005859375 -0.584004998207092285
-0.463127821683883667 -1.31589436531066895 -0.107584595680236816
-0.654188454151153564 1.14890789985656738 -0.60435795783996582
-2.02019882202148438 -2.02660202980041504 -0.476269125938415527
-6.06633567810058594 3.01420092582702637 0.617404580116271973
-5.44483089447021484 0.38920891284942627 0.556860625743865967
-0.193145096302032471 -0.508891701698303223 0.341998308897018433
-3.17321634292602539 0.815384089946746826 1.02544832229614258
0.897904455661773682 -0.432081490755081177 1.57644557952880859
-2.55713033676147461 3.57360553741455078 0.0073700733482837677
2.5366206169128418 1.85470378398895264 2.20058298110961914
2.26314043998718262 -0.480052292346954346 0.290098309516906738
-0.362310469150543213 -2.29349660873413086 1.10288786888122559
1.42271876335144043 1.68563175201416016 -0.853678345680236816
0.707432389259338379 -0.440591275691986084 -0.883933901786804199
-1.81714808940887451 0.338390588760375977 -0.689336299896240234
0.298494815826416016 0.820866823196411133 1.45464181900024414
1.3682105541229248 -2.25166702270507812 -0.163883954286575317
-1.5361027717590332 0.850818932056427002 -0.152036771178245544
-2.38132286071777344 -0.7066994309425354 0.130638882517814636
-0.481875061988830566 1.37919318675994873 0.671826660633087158
-0.24708402156829834 -0.563213050365447998 0.229605242609977722
-5.75411891937255859 1.2676396369934082 0.371507793664932251
-3.14519262313842773 2.77590203285217285 1.05696916580200195
-2.01169776916503906 -0.192471235990524292 0.656724810600280762
-4.513397216796875 3.05549430847167969 -0.11508534848690033
0.872960209846496582 1.69821882247924805 0.836563766002655029
-3.79800319671630859 0.754850983619689941 0.785740971565246582
-5.43174314498901367 0.401724368333816528 0.481949985027313232
-0.366396546363830566 -0.813281416893005371 1.09859180450439453
-2.83733510971069336 1.73362588882446289 -0.168361738324165344
0.93067401647567749 -0.175607264041900635 0.0647283047437667847
-3.11290621757507324 -0.708734095096588135 0.789158880710601807
-3.91951084136962891 3.43353939056396484 0.475484907627105713
-0.349883288145065308 -1.68349099159240723 -0.191815838217735291
-2.32817745208740234 0.655805766582489014 0.808288693428039551
1.04172754287719727 1.79149699211120605 0.729460716247558594
-1.94565689563751221 -2.16666626930236816 0.552296102046966553
-0.621312558650970459 1.23137152194976807 0.796587169170379639
0.819658219814300537 0.442651331424713135 0.186464667320251465
1.99576759338378906 -1.89583051204681396 0.288030833005905151
2.28204774856567383 1.86187279224395752 0.990321874618530273
0.653944492340087891 -0.460719645023345947 0.458374917507171631
1.34885978698730469 -0.940444886684417725 -0.192460328340530396
-0.428902566432952881 0.434286326169967651 -0.645169615745544434
-0.265889167785644531 1.21994352340698242 -0.588644504547119141
-2.09502315521240234 -0.184314608573913574 -0.587548196315765381
-1.6858830451965332 0.969518184661865234 0.566981077194213867
-1.82453370094299316 -0.521578073501586914 0.204031750559806824
1.74684333801269531 -0.396379321813583374 -0.242777302861213684
-1.10885405540466309 0.432407915592193604 0.273079395294189453
3.04251837730407715 -1.37307238578796387 0.290777415037155151
-5.4382786750793457 0.370414108037948608 0.452271074056625366
-3.45567989349365234 4.27344036102294922 -0.167679458856582642
-1.2293773889541626 -0.445186734199523926 -0.0511511638760566711
0.128512740135192871 -0.323480546474456787 -0.109373278915882111
2.64098834991455078 1.2984166145324707 -0.0144079849123954773
2.1367800235748291 -2.9679710865020752 -0.501238346099853516
-5.37908411026000977 2.32787108421325684 0.0571486279368400574
1.22839701175689697 0.551922440528869629 -0.845321357250213623
1.67759871482849121 1.59557926654815674 0.16309259831905365
-1.96297919750213623 -2.19490528106689453 0.964022397994995117
-2.00163722038269043 -2.81252098083496094 -0.218765810132026672
0.638283967971801758 0.648344337940216064 0.822480916976928711
1.53551054000854492 1.09744691848754883 -0.466607391834259033
-2.87081098556518555 0.667421638965606689 0.00158658996224403381
-5.46710395812988281 0.435287922620773315 0.506119906902313232
-1.79156875610351562 0.433361530303955078 1.05235600471496582
-5.42649269104003906 0.37124362587928772 0.506852149963378906
-2.91277217864990234 2.81984853744506836 0.0673122555017471313
2.91111111640930176 -0.64893186092376709 -0.493086904287338257
-0.75545203685760498 0.452473104000091553 0.443515241146087646
1.36917781829833984 -1.1202549934387207 0.0707346051931381226
-1.57506287097930908 1.894706130027771 -0.15101158618927002
-4.7751622200012207 3.33411335945129395 -0.0933192819356918335
-4.81004476547241211 1.26139950752258301 -0.0824709385633468628
-3.09785366058349609 1.81954419612884521 0.880298197269439697
0.27102091908454895 1.23775076866149902 0.545310735702514648
1.9111020565032959 -0.268024265766143799 0.0534787625074386597
-0.520171701908111572 -0.320198863744735718 -0.571163952350616455
0.390584945678710938 -2.36421465873718262 -0.19092869758605957
-3.66666102409362793 0.74785304069519043 -0.760454356670379639
-1.56138789653778076 -1.34292256832122803 -0.133209660649299622
0.315783262252807617 0.576122581958770752 -0.672074675559997559
-5.40328884124755859 0.368209689855575562 0.441996634006500244
0.843452334403991699 -0.806527554988861084 0.816142082214355469
-5.45203447341918945 0.412584751844406128 0.471057206392288208
-3.8852849006652832 -0.228665590286254883 0.776862621307373047
-6.11998891830444336 2.10161590576171875 0.620238304138183594
-3.1218874454498291 0.222565561532974243 0.470103204250335693
0.927290856838226318 -0.966325879096984863 -0.541763782501220703
0.563220560550689697 -1.448952317237854 -0.187044888734817505
-1.16717886924743652 -0.477977007627487183 0.434393167495727539
2.54497742652893066 -2.15378189086914062 -0.37083059549331665
-3.84658551216125488 2.44891619682312012 -0.0975313261151313782
0.923579275608062744 -0.0380068719387054443 -0.622055590152740479
-0.369821101427078247 -0.922550678253173828 0.237757861614227295
-1.08672893047332764 -1.08196568489074707 0.328872948884963989
1.63617384433746338 1.23914790153503418 0.965075135231018066
0.736600995063781738 1.61037218570709229 -0.0315343737602233887
-4.29497480392456055 4.22404146194458008 0.384015738964080811
-3.5793454647064209 -0.361433029174804688 -0.784546017646789551
-2.38353347778320312 -0.229387909173965454 0.786002993583679199
-2.52078700065612793 0.73878246545791626 -0.761620104312896729
1.90888667106628418 1.77516186237335205 -0.0211364179849624634
-3.34473824501037598 3.31228852272033691 -0.106181912124156952
-1.01746034622192383 -1.13628244400024414 0.509187877178192139
1.07008862495422363 1.83089685440063477 -0.578121304512023926
1.11167585849761963 0.329795241355895996 -0.567407131195068359
2.11443090438842773 -2.74150514602661133 0.300229012966156006
-0.375517427921295166 -1.62267112731933594 0.664585232734680176
-1.80685710906982422 -1.08018708229064941 0.886150360107421875
-4.57862710952758789 2.06869649887084961 -0.130773827433586121
-5.43304586410522461 0.404915511608123779 0.429326713085174561
-1.7023470401763916 -1.00196671485900879 -0.667091310024261475
-3.01564383506774902 1.03753209114074707 0.77987062931060791
-0.687766790390014648 0.821032404899597168 0.0899582803249359131
-0.370822131633758545 -2.30920147895812988 0.300076901912689209
-0.290097594261169434 0.322925269603729248 0.204236507415771484
1.36488068103790283 -0.448808670043945312 0.813596487045288086
0.957705497741699219 1.29717803001403809 0.107166409492492676
2.50221872329711914 -1.32069456577301025 -0.350313097238540649
-2.24975371360778809 1.20396304130554199 -0.150578692555427551
0.281337201595306396 -1.07525849342346191 0.113106057047843933
0.328682303428649902 1.56793808937072754 1.26836597919464111
2.9634091854095459 -2.14789271354675293 0.288920104503631592
3.03845119476318359 1.99766921997070312 0.0162361636757850647
-0.576598286628723145 -0.542628586292266846 0.30939936637878418
-5.47000503540039062 3.05939435958862305 0.171312063932418823
-2.10184431076049805 1.43241679668426514 0.209255591034889221
-1.83066439628601074 0.239649862051010132 0.228775441646575928
1.86531460285186768 -0.173984020948410034 -0.578626811504364014
-2.29989433288574219 2.28181004524230957 -0.172027796506881714
-5.43218326568603516 0.407305896282196045 0.442647099494934082
-1.10171735286712646 -0.317106425762176514 0.162100121378898621
-2.11311054229736328 -2.53346681594848633 1.14769113063812256
-0.38692900538444519 -0.275916099548339844 0.559739947319030762
-2.74094629287719727 4.28994417190551758 -0.0466322973370552063
-2.96535611152648926 1.27660131454467773 0.383820235729217529
-1.93585360050201416 -1.95370018482208252 -0.0883359760046005249
2.83449935913085938 -2.88879680633544922 -0.421467036008834839
-1.51644790172576904 0.212931022047996521 0.407964766025543213
-2.5239260196685791 -0.372378528118133545 -0.739016473293304443
-0.664028525352478027 1.55009925365447998 0.0117792338132858276
-0.638490140438079834 1.12765908241271973 1.54596257209777832
2.07042384147644043 -1.14286625385284424 0.256911873817443848
2.95608353614807129 -0.679434120655059814 0.303134799003601074
1.57013344764709473 -0.378897160291671753 -0.921001791954040527
1.13505947589874268 -0.266481935977935791 -0.157353907823562622
-1.74286055564880371 -0.762831151485443115 0.459947317838668823
-4.15876531600952148 3.73856759071350098 -0.0923783928155899048
-1.13177728652954102 1.35845255851745605 0.403986573219299316
-5.40624284744262695 0.360393255949020386 0.405581206083297729
-3.18545222282409668 3.86117076873779297 0.304269999265670776
0.617359161376953125 -0.374995589256286621 -0.201112031936645508
2.20641255378723145 -0.705656886100769043 -0.399258553981781006
-5.41414785385131836 0.378500282764434814 0.461392521858215332
-2.98829507827758789 2.22087860107421875 0.333165824413299561
-1.65064644813537598 -0.257193863391876221 0.814278841018676758
-5.42778825759887695 0.405390083789825439 0.463329583406448364
0.796750068664550781 1.09207987785339355 -0.511225759983062744
-0.250317037105560303 1.42705774307250977 0.0046361386775970459
0.88723522424697876 0.0384863913059234619 0.911024868488311768
-0.480071693658828735 -0.80124962329864502 -0.295942306518554688
2.51700496673583984 1.85703682899475098 1.59857213497161865
-2.16382384300231934 -0.405184537172317505 0.0669471025466918945
0.452919721603393555 0.670959651470184326 0.832030415534973145
2.46552944183349609 2.00818181037902832 0.366522610187530518
1.22551131248474121 0.183275222778320312 0.649680256843566895
0.953598856925964355 -0.207425698637962341 1.08311188220977783
-4.77120399475097656 3.7799220085144043 0.396640241146087646
-2.09322547912597656 -2.56209230422973633 -0.484947741031646729
0.596887588500976562 -0.798432826995849609 -0.189516901969909668
1.19844794273376465 -1.65094029903411865 -0.197413131594657898
-4.56908226013183594 4.27928400039672852 -0.195667117834091187
-1.90619564056396484 -0.993240714073181152 0.0727712959051132202
-0.00765857845544815063 -1.13568902015686035 -0.183891475200653076
0.86760324239730835 1.48464703559875488 -0.874487340450286865
-5.33998012542724609 1.69035005569458008 0.0673921406269073486
1.23214352130889893 0.783116340637207031 0.755234956741333008
-0.998337924480438232 -1.04473674297332764 -0.0986675471067428589
0.855848491191864014 -0.81802070140838623 0.0231888294219970703
-3.66759324073791504 4.18655109405517578 0.414661228656768799
-0.514758646488189697 -1.10361456871032715 0.297309607267379761
-5.43560600280761719 0.364780545234680176 0.530523180961608887
1.41840195655822754 1.62947797775268555 0.210909485816955566
1.71513581275939941 -0.385743498802185059 0.349754542112350464
-5.44365119934082031 0.381287693977355957 0.484099090099334717
1.06855499744415283 1.22276079654693604 -0.85208427906036377
-5.77202367782592773 2.60519790649414062 0.374192178249359131
-0.387913823127746582 -0.570765793323516846 -0.184491917490959167
-4.83819007873535156 2.57413721084594727 -0.0763969197869300842
-5.25252246856689453 3.69008898735046387 0.0392726622521877289
-2.05673980712890625 -1.24176335334777832 0.226454049348831177
-5.41396141052246094 0.370059549808502197 0.467772424221038818
1.84787273406982422 -0.852705717086791992 -0.145907655358314514
2.50902390480041504 -1.60530781745910645 0.31045195460319519
-1.7907106876373291 -0.605698943138122559 -0.0968992859125137329
-2.06987857818603516 -2.61178064346313477 0.242867663502693176
1.09619545936584473 -0.0591620206832885742 -0.783849060535430908
0.902166247367858887 -0.909696757793426514 1.36380934715270996
-2.01250791549682617 -2.30003118515014648 1.7414090633392334
-3.77168941497802734 3.01197981834411621 -0.0923594310879707336
1.70975160598754883 1.62510466575622559 -0.40464252233505249
1.56222891807556152 1.00754320621490479 0.167539626359939575
-0.27650761604309082 -0.803547859191894531 -0.112723007798194885
-1.13498318195343018 0.852717280387878418 0.570372700691223145
-0.35356101393699646 -0.2962760329246521 1.10218632221221924
-1.65550339221954346 0.00968985259532928467 1.3551480770111084
0.831781744956970215 1.81800997257232666 0.143750995397567749
-0.192536741495132446 -2.21059393882751465 -0.193974763154983521
-0.678971052169799805 -0.110291838645935059 0.490089595317840576
-3.58609914779663086 0.245560050010681152 0.775971531867980957
-3.04582762718200684 0.698745250701904297 0.5202370285987854
1.44152569770812988 0.0421149134635925293 0.0336312055587768555
-1.51784384250640869 2.46773433685302734 -0.164995506405830383
-5.43038272857666016 0.374524742364883423 0.46998220682144165
2.4118797779083252 -2.23923611640930176 0.288670361042022705
-2.35220456123352051 0.662712395191192627 -0.127013698220252991
-4.00875329971313477 4.25313901901245117 -0.168441846966743469
-2.44248390197753906 2.86627292633056641 -0.166232898831367493
-1.64892232418060303 1.48680472373962402 0.518513500690460205
0.884756147861480713 1.17670512199401855 0.937917947769165039
-2.17842197418212891 1.13768279552459717 0.6669350266456604
-2.1689612865447998 1.73943924903869629 -0.151727616786956787
0.411077678203582764 0.824367761611938477 0.184648424386978149
-2.79562544822692871 1.18849861621856689 -0.152524322271347046
-5.42948484420776367 0.415967643260955811 0.512760758399963379
-4.30297422409057617 1.24851083755493164 -0.0936264544725418091
0.92691493034362793 -0.330575406551361084 0.579594790935516357
-3.86928629875183105 3.28060674667358398 -0.001551799476146698
2.45385456085205078 -3.14748597145080566 0.287014305591583252
2.54736948013305664 -1.02025318145751953 0.0978165939450263977
2.53856301307678223 -2.59711027145385742 -0.0987935662269592285
-0.709647178649902344 -0.00972715020179748535 0.342715740203857422
0.735646605491638184 -1.97807848453521729 -0.18995298445224762
-0.500132977962493896 0.908858656883239746 0.502406597137451172
-2.8389892578125 2.3332517147064209 -0.175152868032455444
-1.62300479412078857 -0.293540418148040771 0.1162567138671875
-3.0235435962677002 2.91466164588928223 0.588834583759307861
-2.70987796783447266 0.297931015491485596 0.780261516571044922
-6.10074329376220703 1.6024777889251709 0.607656717300415039
