ply
format ascii 1.0
element vertex 256
comment vertices
property float x
property float y
property float z
end_header
-3.19937372207641602 -1.3331305980682373 0.640336036682128906
5.29703760147094727 1.90129721164703369 0.234319180250167847
-2.16640543937683105 5.63501882553100586 0.322836965322494507
1.73266959190368652 -2.95888304710388184 0.0258476808667182922
0.827970325946807861 1.74094796180725098 -0.354714095592498779
-2.64537477493286133 2.03627562522888184 -0.0614603981375694275
-1.01328718662261963 -0.894569993019104004 0.106891937553882599
-4.79094028472900391 3.44791865348815918 -0.0953204482793807983
3.01899313926696777 0.933717548847198486 0.395507484674453735
-0.607347309589385986 3.50629448890686035 0.0751800313591957092
-1.35783028602600098 0.949664831161499023 0.265127718448638916
1.24817824363708496 0.418953955173492432 1.65364980697631836
0.319568276405334473 -1.31006538867950439 1.41548323631286621
-1.32884156703948975 3.27715039253234863 0.392261594533920288
-2.13351774215698242 0.330023407936096191 -0.0171526819467544556
0.0204927772283554077 -1.30356109142303467 -0.381251811981201172
1.11975884437561035 0.765931546688079834 -0.373763859272003174
-3.02706098556518555 4.00422239303588867 0.324514001607894897
-1.04021966457366943 -0.806842327117919922 0.0756649374961853027
0.0174463838338851929 0.949446260929107666 0.971209049224853516
-1.45719265937805176 1.69770169258117676 -0.218102514743804932
0.896730303764343262 2.78077101707458496 -0.00640269368886947632
-2.30628252029418945 -0.209543824195861816 -0.0854259729385375977
-4.31059360504150391 3.26855015754699707 1.42173004150390625
-0.168772429227828979 1.89249813556671143 0.26603969931602478
-0.533352971076965332 0.277468413114547729 0.0361483395099639893
0.300598680973052979 -2.94168734550476074 0.13883654773235321
5.1578516960144043 1.80101871490478516 1.57676029205322266
-1.07869589328765869 -0.89426732063293457 0.125930055975914001
-0.0886774361133575439 0.813133835792541504 -0.399272799491882324
-0.165435880422592163 0.452833443880081177 0.271396517753601074
-2.2629551887512207 2.42641949653625488 0.379590064287185669
-2.29843711853027344 -1.66868162155151367 -0.117167390882968903
-1.02139317989349365 -0.810496091842651367 0.0913308486342430115
2.61242866516113281 1.61762464046478271 -0.426378875970840454
-3.19017934799194336 -0.207106202840805054 0.696748077869415283
2.58327651023864746 1.50861382484436035 1.22376155853271484
1.02055227756500244 0.774736881256103516 0.688350856304168701
1.39081680774688721 0.150408744812011719 -0.0837925225496292114
0.792164444923400879 0.859371304512023926 0.213951528072357178
0.627609133720397949 1.80247592926025391 0.700331687927246094
-1.69320690631866455 1.86645674705505371 0.20328010618686676
-3.0445256233215332 5.07863092422485352 0.344745010137557983
-2.13953590393066406 4.51278972625732422 0.347585797309875488
-2.11300492286682129 3.25190997123718262 -0.26241573691368103
0.0249672569334506989 2.84943723678588867 0.51021730899810791
0.424622178077697754 -1.30604183673858643 0.479511141777038574
-1.15786552429199219 1.77040314674377441 -0.191829919815063477
-3.16504645347595215 -0.754635930061340332 -0.124722786247730255
-1.04140973091125488 -0.847453296184539795 0.0904106944799423218
-0.0747747272253036499 1.75517165660858154 -0.406075239181518555
-4.01193046569824219 2.99732017517089844 -0.109130576252937317
-1.33690810203552246 2.36150765419006348 0.388058900833129883
1.26555132865905762 0.41162070631980896 0.764544963836669922
3.21736860275268555 0.958582639694213867 -0.45033380389213562
-1.32139992713928223 0.486093044281005859 0.341733694076538086
0.507738471031188965 3.49137377738952637 0.0887133926153182983
0.84899747371673584 -3.56674408912658691 0.0711433365941047668
1.07585573196411133 0.774757742881774902 1.5478135347366333
-3.13283681869506836 -1.68192148208618164 -0.127459779381752014
0.827838480472564697 -2.3189845085144043 0.0827830731868743896
2.58485150337219238 1.61692297458648682 0.35163116455078125
0.0933856740593910217 1.34614443778991699 0.273264050483703613
-0.512997031211853027 2.72513389587402344 -0.0857990384101867676
-0.551998615264892578 1.12106025218963623 0.269618898630142212
3.26471471786499023 1.60603439807891846 -0.00997966527938842773
-1.4567183256149292 2.86064505577087402 -0.253489464521408081
-2.34881782531738281 4.07210969924926758 -0.252377808094024658
-4.40348148345947266 3.23136186599731445 0.53361809253692627
-2.16824460029602051 1.98801517486572266 -0.270114272832870483
-2.9233238697052002 5.50252437591552734 -0.278114169836044312
-1.85147643089294434 1.73016023635864258 0.402668595314025879
-2.46180081367492676 -0.932848691940307617 -0.114716261625289917
-0.923400521278381348 0.346796095371246338 0.267609506845474243
-1.03312909603118896 -0.856581330299377441 0.106783322989940643
-2.224578857421875 2.13761496543884277 0.558829128742218018
2.58592772483825684 0.953078627586364746 -0.165222406387329102
5.20086288452148438 1.74299478530883789 0.902634382247924805
-3.30786466598510742 1.83832848072052002 0.086171954870223999
-2.23434138298034668 3.14369606971740723 0.390264123678207397
2.58708739280700684 0.933035671710968018 0.890071094036102295
1.07884907722473145 -2.94303488731384277 0.0348064564168453217
0.0506342947483062744 1.6420062780380249 0.914828002452850342
-1.04577219486236572 -0.863197505474090576 0.11659771203994751
0.806192755699157715 0.795979321002960205 -0.45916438102722168
5.11759567260742188 1.48868989944458008 -0.262022852897644043
-4.63475275039672852 2.82807421684265137 -0.139170840382575989
-4.1667475700378418 3.60346174240112305 -0.111837290227413177
-2.26149773597717285 5.44521570205688477 -0.27246248722076416
-0.577369630336761475 3.0478813648223877 0.526059389114379883
-1.01614415645599365 -0.82243645191192627 0.0808023884892463684
0.258102089166641235 2.76557016372680664 -0.0442275553941726685
-2.76582217216491699 5.63613271713256836 0.324593424797058105
-2.75054073333740234 4.52081012725830078 0.350948214530944824
-0.763780772686004639 1.70142221450805664 0.27054259181022644
-2.36509180068969727 3.95825839042663574 0.338999390602111816
-2.39585471153259277 5.07940387725830078 0.346326589584350586
-2.95071291923522949 4.13593292236328125 -0.252307862043380737
-1.0045769214630127 -0.86601489782333374 0.0991287082433700562
-0.116604946553707123 3.19363236427307129 0.00692501664161682129
-2.91446399688720703 -0.217487454414367676 -0.07705707848072052
-3.20782899856567383 -0.744703710079193115 0.447490811347961426
0.961839735507965088 0.536260902881622314 -0.100302986800670624
-1.70694065093994141 2.8088374137878418 0.369440644979476929
0.419254422187805176 0.761987805366516113 0.646314144134521484
0.78249359130859375 1.3862994909286499 0.351591199636459351
1.02529942989349365 0.761347830295562744 0.114786922931671143
-2.15237522125244141 1.78584206104278564 -0.0253560692071914673
-1.19186937808990479 0.434058606624603271 -0.217639416456222534
0.020518966019153595 -1.27061617374420166 0.144167229533195496
5.12354135513305664 1.461037278175354 0.436331689357757568
0.230005532503128052 3.3314366340637207 0.508193850517272949
3.10995054244995117 1.45522677898406982 0.449136853218078613
-1.26779115200042725 1.45914959907531738 0.269936263561248779
-0.301445454359054565 1.73917651176452637 -0.210858985781669617
-3.19761896133422852 -1.20375895500183105 0.0944138914346694946
-1.3253629207611084 1.77956962585449219 0.394236207008361816
0.959289431571960449 3.31667661666870117 0.0362864546477794647
0.219644933938980103 -1.28913402557373047 0.948014438152313232
-2.73056459426879883 -1.3635176420211792 -0.0896380394697189331
-2.86039519309997559 1.65309453010559082 0.216692864894866943
0.0205918997526168823 0.884714603424072266 0.0590394586324691772
0.558891177177429199 2.98245644569396973 0.311834812164306641
-0.904667317867279053 0.162199452519416809 0.450157880783081055
5.12433528900146484 1.97922444343566895 -0.22839653491973877
1.4603269100189209 0.644240260124206543 -0.101738497614860535
-1.62048125267028809 0.289604842662811279 0.00473020225763320923
-2.20360517501831055 1.65938079357147217 0.549799561500549316
-0.248415470123291016 0.42298242449760437 -0.212222546339035034
2.58911991119384766 1.14035189151763916 0.422268867492675781
-1.0449824333190918 -0.872720599174499512 0.102449968457221985
1.26700961589813232 0.430860310792922974 0.27938571572303772
1.25253498554229736 0.412751495838165283 1.19554519653320312
-1.0262749195098877 -0.852790772914886475 0.0971599072217941284
-2.26409506797790527 1.97312581539154053 0.379555940628051758
-1.80236685276031494 2.1817171573638916 0.37956663966178894
0.00733968615531921387 1.73634839057922363 0.0113964676856994629
-3.21293020248413086 -1.67268884181976318 0.328798353672027588
-3.17013454437255859 -0.912432968616485596 0.862373411655426025
-0.577796041965484619 0.663993000984191895 0.236342236399650574
0.361215770244598389 -1.33072876930236816 -0.101657092571258545
-1.80213189125061035 3.10578489303588867 0.0404715761542320251
3.26932525634765625 0.959129035472869873 -0.00202243030071258545
0.422175705432891846 1.65739798545837402 0.329947292804718018
-0.141059845685958862 1.34379696846008301 0.243898570537567139
2.61649036407470703 1.46893548965454102 0.775391280651092529
-0.253868758678436279 3.3669123649597168 0.465756833553314209
3.24644756317138672 1.54323625564575195 -0.452938854694366455
-4.31003379821777344 2.95562314987182617 0.222206562757492065
-1.1839597225189209 1.8881688117980957 0.273566663265228271
-1.81280958652496338 1.9530034065246582 0.0220758691430091858
-1.03020524978637695 -0.865200042724609375 0.0882826074957847595
-1.33945584297180176 0.511537909507751465 0.232669860124588013
-0.803873062133789062 0.544291913509368896 0.288782685995101929
0.452445060014724731 1.09535408020019531 0.323326766490936279
-0.668649792671203613 3.07535195350646973 0.111887410283088684
-4.69753313064575195 3.11752200126647949 0.17513062059879303
-2.65234732627868652 -0.541620552539825439 -0.074916541576385498
1.14786577224731445 0.776411175727844238 1.1399986743927002
-2.50020337104797363 1.88492131233215332 0.300810486078262329
-3.21317005157470703 -0.308848708868026733 0.291703343391418457
-4.43041181564331055 3.49386954307556152 0.229485154151916504
0.0733781605958938599 1.28461074829101562 0.699956357479095459
-0.138307109475135803 2.79485249519348145 0.0910393893718719482
0.816925525665283203 1.71735167503356934 0.115423694252967834
-0.176789939403533936 0.864834845066070557 0.265177696943283081
-1.02244472503662109 -0.869011640548706055 0.0842373296618461609
-1.8361351490020752 3.32602643966674805 0.374649316072463989
-1.39702999591827393 3.23496055603027344 -0.251225888729095459
2.61011528968811035 1.54330539703369141 -0.0560344159603118896
-0.984444975852966309 1.14308261871337891 0.243416711688041687
2.65164303779602051 1.10072529315948486 1.27808034420013428
-3.18650650978088379 -1.65901303291320801 0.860587477684020996
-1.40654921531677246 2.10333108901977539 -0.201103553175926208
-0.998548626899719238 0.735140085220336914 0.235814139246940613
-1.92768764495849609 0.433829724788665771 0.305107235908508301
-4.07991456985473633 3.32595181465148926 0.15818864107131958
0.680858016014099121 -2.88448524475097656 0.0376368388533592224
0.320473849773406982 3.16046929359436035 -0.0156292319297790527
-1.76420533657073975 1.90851438045501709 -0.171403557062149048
-2.27316975593566895 -1.28258228302001953 -0.0884726047515869141
0.0892011001706123352 1.68143141269683838 0.522647559642791748
-1.41070413589477539 3.01549053192138672 0.0856649726629257202
0.0958675220608711243 0.892061531543731689 0.441630303859710693
-0.451123714447021484 2.73790216445922852 0.296592295169830322
-2.1833655834197998 2.88455557823181152 -0.220720991492271423
-2.02710437774658203 1.90375161170959473 0.339774936437606812
-2.98624825477600098 1.86158311367034912 -0.108989037573337555
-2.81792926788330078 -0.967787206172943115 -0.126670196652412415
-2.10236048698425293 2.78047704696655273 0.367895305156707764
-2.51566791534423828 1.6709972620010376 0.00598484277725219727
-1.20701503753662109 0.273824036121368408 0.0521346516907215118
-1.34725189208984375 2.72307324409484863 0.379243582487106323
5.18818998336791992 1.5504457950592041 0.0970182269811630249
-3.18648386001586914 -0.512928307056427002 0.888051748275756836
-1.02202606201171875 -0.872524440288543701 0.100624196231365204
-2.70493769645690918 4.15996980667114258 0.330654680728912354
0.790868759155273438 0.832857847213745117 0.630666136741638184
-2.70609712600708008 5.27414894104003906 0.343513727188110352
-2.56017708778381348 4.77755928039550781 0.20532718300819397
5.20050907135009766 1.69692766666412354 1.25197553634643555
-2.30167913436889648 -0.614864528179168701 -0.0855676159262657166
-0.502766668796539307 0.315846621990203857 0.233999848365783691
0.669037759304046631 3.11245393753051758 -0.0214818641543388367
-1.4389796257019043 1.96444332599639893 0.114962838590145111
0.106461614370346069 3.45058536529541016 -0.0110360309481620789
1.07062196731567383 0.236125707626342773 0.0281419679522514343
-0.432402133941650391 1.59037041664123535 0.240797549486160278
1.2293928861618042 -3.26328754425048828 -0.00880845822393894196
-1.05560743808746338 -0.866267263889312744 0.10274893045425415
-2.32804059982299805 5.452972412109375 0.0653858482837677002
1.20162057876586914 -2.62715721130371094 0.00406757742166519165
-3.2126927375793457 -0.411446720361709595 -0.0563845410943031311
-2.18551731109619141 3.11165571212768555 0.0501473844051361084
0.709730982780456543 3.34645795822143555 0.285032123327255249
-3.02355360984802246 1.95256733894348145 0.250130623579025269
-4.29133081436157227 2.79894566535949707 -0.121877022087574005
-4.82647180557250977 3.08253836631774902 -0.144725963473320007
-2.92932605743408203 5.46712970733642578 0.0660194382071495056
-4.40629863739013672 3.22723388671875 1.10051870346069336
-2.13750028610229492 2.01755595207214355 0.0783091261982917786
1.42144656181335449 -2.98102068901062012 0.102020248770713806
5.2003631591796875 1.76708400249481201 0.560148000717163086
-4.51529026031494141 3.63401603698730469 -0.0990432500839233398
-1.0406038761138916 -0.861311554908752441 0.100477516651153564
-1.03293681144714355 -0.843711256980895996 0.0937957316637039185
-0.262870192527770996 3.48058891296386719 0.113391511142253876
0.575771689414978027 2.68349361419677734 0.0144909024238586426
-2.80274558067321777 -1.68712961673736572 -0.130074292421340942
0.20444081723690033 2.93605875968933105 0.225097447633743286
-3.04099535942077637 4.3564906120300293 0.344581782817840576
-1.03688430786132812 -0.856017947196960449 0.113081350922584534
-2.17166233062744141 4.83105611801147461 0.351057529449462891
-2.38791894912719727 4.28677463531494141 0.357208371162414551
-1.92905223369598389 2.48326349258422852 0.390301167964935303
2.65384888648986816 0.944577634334564209 0.184519305825233459
-2.96740913391113281 4.75969219207763672 0.345438331365585327
0.799882769584655762 1.70481634140014648 0.449386000633239746
3.26895785331726074 1.15162169933319092 0.436935335397720337
0.828017890453338623 0.864050924777984619 -0.122183829545974731
-2.14687752723693848 5.2837224006652832 0.347493290901184082
-3.20607972145080566 -1.09905827045440674 0.420171201229095459
-2.13021659851074219 2.10195684432983398 0.0410074815154075623
-1.60155463218688965 3.1034390926361084 0.37295106053352356
-3.21143698692321777 -0.901731669902801514 0.152397662401199341
-0.774384677410125732 1.38750576972961426 0.237664073705673218
-0.547334015369415283 3.38071298599243164 0.374800562858581543
-2.34608888626098633 4.12416648864746094 0.0590599551796913147
2.65084290504455566 0.94346463680267334 -0.448721766471862793
-1.59773659706115723 1.95922255516052246 0.395669162273406982
2.5868992805480957 1.2350541353225708 1.00912225246429443
-0.51709514856338501 1.89716160297393799 0.233643680810928345
0.511053264141082764 -1.25131523609161377 0.166932985186576843
2.88190364837646484 1.22708308696746826 0.371103614568710327
-0.239325836300849915 3.02805900573730469 0.53609156608581543
1.15138566493988037 0.776692986488342285 0.420698553323745728
