ply
format ascii 1.0
element vertex 93
comment vertices
property float x
property float y
property float z
end_header
3.08034300804138184 0.534817993640899658 0.304948329925537109
-0.559075832366943359 -1.19970607757568359 0.39258846640586853
-0.0194339826703071594 1.32689380645751953 0.0416483581066131592
0.153739109635353088 -3.05869507789611816 0.113157831132411957
-3.10157275199890137 0.0869545936584472656 0.280651122331619263
-1.15516006946563721 -2.8514101505279541 0.396124869585037231
1.25277280807495117 -2.81894516944885254 0.0773630291223526001
7.2212824821472168 -4.62325048446655273 0.116190314292907715
-0.785046279430389404 3.01151823997497559 0.350685328245162964
0.755887150764465332 1.10494935512542725 0.4589863121509552
-1.65334165096282959 -2.60999298095703125 0.37169000506401062
2.69381904602050781 -1.57178604602813721 0.0945030748844146729
-1.3281407356262207 0.170658767223358154 0.0956508591771125793
1.31180524826049805 0.363225668668746948 0.468725532293319702
-0.0346667170524597168 1.31723988056182861 0.0357563868165016174
1.20922410488128662 -2.78694415092468262 0.0844955891370773315
-1.2831110954284668 0.289774715900421143 0.0952032953500747681
1.32493197917938232 0.213823080062866211 0.50786203145980835
4.81689786911010742 -2.5747370719909668 0.0517029538750648499
1.15360212326049805 -0.716665148735046387 0.0412495285272598267
0.0448483116924762726 -3.09526848793029785 0.0948180258274078369
-0.0161740221083164215 1.32651674747467041 0.0506513267755508423
-1.63337337970733643 -2.52088570594787598 0.393865764141082764
1.30772304534912109 0.364724516868591309 0.450051069259643555
-3.11917996406555176 0.0621143355965614319 0.275830537080764771
-1.66558456420898438 -2.63749384880065918 0.367336690425872803
7.2145237922668457 -4.62515401840209961 0.133058264851570129
-1.1498410701751709 -2.87149238586425781 0.388103127479553223
7.21572446823120117 -4.59539651870727539 0.153607204556465149
4.84426784515380859 -2.58342194557189941 0.0652391314506530762
-0.534738361835479736 -1.1924968957901001 0.415771663188934326
2.69109320640563965 -1.58356714248657227 0.113196641206741333
1.27946770191192627 0.323526263236999512 0.541455864906311035
1.2582705020904541 0.326567173004150391 0.518438339233398438
0.736587107181549072 1.12326276302337646 0.375966399908065796
-1.25855433940887451 0.258690595626831055 0.119291841983795166
-0.76346123218536377 3.00262451171875 0.285783290863037109
1.29035651683807373 0.306791961193084717 0.497154951095581055
4.82853984832763672 -2.56905603408813477 0.0533169731497764587
3.07647418975830078 0.508107602596282959 0.328230530023574829
-0.563772916793823242 -1.21852338314056396 0.431837946176528931
2.6885838508605957 -1.57328510284423828 0.087878987193107605
7.23668003082275391 -4.62920618057250977 0.128066182136535645
-1.63638424873352051 -2.64016437530517578 0.363169610500335693
1.27570986747741699 -2.83455443382263184 0.0804980695247650146
-0.0290783345699310303 1.32774138450622559 0.0520099475979804993
1.29968547821044922 0.33417847752571106 0.484866946935653687
3.06341814994812012 0.521807491779327393 0.304795771837234497
-0.58000481128692627 -1.20415747165679932 0.387252509593963623
1.28846406936645508 -2.82124781608581543 0.0796332955360412598
-0.75284576416015625 3.01617717742919922 0.233711868524551392
2.66246676445007324 -1.57670438289642334 0.108966678380966187
0.0554799214005470276 -3.11443734169006348 0.0944685190916061401
1.0805891752243042 -0.716848552227020264 0.0881550908088684082
1.19698894023895264 -2.83157467842102051 0.0612636618316173553
1.1340336799621582 -0.738028645515441895 0.0360404178500175476
0.0952077507972717285 -3.10665273666381836 0.0983642935752868652
4.81403827667236328 -2.5833430290222168 0.059508204460144043
0.00110411643981933594 -3.11157441139221191 0.107853598892688751
7.18967914581298828 -4.6014404296875 0.126597464084625244
3.08620691299438477 0.528449594974517822 0.302060633897781372
-3.09356999397277832 0.0613380596041679382 0.296255409717559814
1.13403034210205078 -0.707278311252593994 0.0435089394450187683
1.12892007827758789 -0.717563986778259277 0.0460528172552585602
1.28460419178009033 0.355096548795700073 0.527282834053039551
2.66702795028686523 -1.57659447193145752 0.117494910955429077
0.0310744643211364746 -3.10304427146911621 0.0845861807465553284
-1.65753698348999023 -2.57272100448608398 0.389971375465393066
1.28437232971191406 -2.8327031135559082 0.0775284618139266968
-0.0145630519837141037 1.32584726810455322 0.0489691458642482758
-0.0219251625239849091 1.33803415298461914 0.0527086518704891205
3.09024620056152344 0.510542631149291992 0.317227452993392944
-0.0151331424713134766 1.33065891265869141 0.0652758702635765076
1.28023719787597656 0.30285605788230896 0.475347131490707397
-1.28356635570526123 0.261146575212478638 0.10602666437625885
7.24282312393188477 -4.62913274765014648 0.129110038280487061
-1.66561400890350342 -2.61065578460693359 0.395806312561035156
-1.16529619693756104 -2.85645389556884766 0.389727592468261719
0.0416211783885955811 -3.13665437698364258 0.0890018045902252197
-1.30646443367004395 0.264442563056945801 0.123054437339305878
0.0110169947147369385 -3.1362152099609375 0.102999769151210785
7.19336414337158203 -4.64260768890380859 0.151210546493530273
4.74300384521484375 -2.5603792667388916 0.100272014737129211
1.30778157711029053 -2.81694245338439941 0.0935984402894973755
4.81495428085327148 -2.59552145004272461 0.046471860259771347
-1.17836833000183105 -2.86222624778747559 0.397821396589279175
-1.68923747539520264 -2.57837414741516113 0.40895572304725647
-3.11213183403015137 0.0688284263014793396 0.272704720497131348
-0.551546216011047363 -1.20423293113708496 0.384282231330871582
7.20985174179077148 -4.63035345077514648 0.13621152937412262
3.06387615203857422 0.511169612407684326 0.322906255722045898
1.21692991256713867 -2.80846548080444336 0.0841514170169830322
1.30703604221343994 -2.87220644950866699 0.0480894595384597778
