ply
format ascii 1.0
element vertex 31
comment vertices
property float x
property float y
property float z
end_header
2.5018928050994873 1.85769772529602051 0.110354922711849213
0.137702852487564087 -1.30768454074859619 0.0929797366261482239
-1.2581402063369751 -0.330903291702270508 0.314512521028518677
2.50664830207824707 1.85156738758087158 0.0930669009685516357
0.701579570770263672 1.13716471195220947 0.331926465034484863
-2.00428152084350586 -2.36458420753479004 0.456947624683380127
-1.17744553089141846 0.510620653629302979 0.294670224189758301
2.50787091255187988 1.85198545455932617 0.0997283309698104858
-4.98337078094482422 2.16191673278808594 0.0529965311288833618
2.50314450263977051 1.85818290710449219 0.112077184021472931
-3.07372713088989258 0.163406312465667725 0.389629781246185303
2.50098824501037598 1.8588097095489502 0.112880028784275055
2.49952197074890137 1.85887384414672852 0.109313823282718658
-3.08227682113647461 0.180370137095451355 0.395517259836196899
1.18124961853027344 0.63535308837890625 0.490941226482391357
-1.26841068267822266 -0.321008086204528809 0.329543799161911011
-1.0569530725479126 -0.786119699478149414 0.0912531688809394836
-0.643334329128265381 1.15600991249084473 0.320141315460205078
-3.90841889381408691 3.81515216827392578 0.0608343929052352905
-5.43165922164916992 0.38657844066619873 0.433513045310974121
-0.634371280670166016 1.16944074630737305 0.31486937403678894
-1.12672650814056396 -0.622403562068939209 0.164406508207321167
2.50765657424926758 1.85572981834411621 0.107799679040908813
2.52311158180236816 -1.81247091293334961 0.228651896119117737
-2.02108168601989746 -2.38048052787780762 0.417603194713592529
1.20427834987640381 -0.553709924221038818 0.398040771484375
-1.18916058540344238 0.526080429553985596 0.303694754838943481
-0.645148098468780518 1.15535652637481689 0.331738799810409546
1.21504330635070801 -0.564430356025695801 0.369565039873123169
-0.632391214370727539 1.15898704528808594 0.328563272953033447
2.49862003326416016 1.85883426666259766 0.111461840569972992
