ply
format ascii 1.0
element vertex 108
comment vertices
property float x
property float y
property float z
end_header
0.407217085361480713 -1.26340627670288086 0.0459839664399623871
-0.817762076854705811 -1.01554536819458008 0.0936144739389419556
-1.65391659736633301 -2.58194589614868164 0.101849675178527832
0.407285153865814209 -1.2879871129989624 0.048544812947511673
0.817896544933319092 1.06912398338317871 0.367063820362091064
-2.55378055572509766 -1.78612709045410156 0.352118223905563354
1.99133920669555664 2.33350086212158203 0.321608453989028931
-0.771531820297241211 1.05536842346191406 0.448520958423614502
0.458924055099487305 -3.08715915679931641 0.129621058702468872
0.456512212753295898 1.26301980018615723 0.0936361774802207947
0.488494157791137695 -3.10863733291625977 0.118858002126216888
-3.08804988861083984 0.325384616851806641 0.454430043697357178
-2.5222923755645752 -1.74868011474609375 0.448154270648956299
-3.08172249794006348 -0.0148537829518318176 0.175041526556015015
-1.31968748569488525 0.0511045753955841064 0.0574363209307193756
-1.91395163536071777 2.41691875457763672 0.0443159006536006927
-3.01690936088562012 0.0164894834160804749 0.273986726999282837
-0.375515460968017578 1.27449822425842285 0.383425056934356689
-0.81506049633026123 -1.02300453186035156 0.0452485829591751099
2.02205777168273926 2.32273125648498535 0.328009694814682007
-2.85075712203979492 -1.21192061901092529 0.046068929135799408
0.410475462675094604 -1.27426958084106445 0.0431174039840698242
-0.807075083255767822 1.05530285835266113 0.446512877941131592
-2.52584409713745117 -1.77377974987030029 0.426113009452819824
-0.345956087112426758 1.27714216709136963 0.406134307384490967
0.424675941467285156 -3.0622093677520752 0.107118949294090271
0.437079787254333496 -3.09589028358459473 0.106776982545852661
-0.879667520523071289 -1.01106762886047363 0.0512210503220558167
-3.08466744422912598 -0.0030622333288192749 0.217217355966567993
0.44609910249710083 1.23873615264892578 0.124868646264076233
-1.64502060413360596 -2.61062765121459961 0.145788282155990601
2.05999159812927246 2.30078744888305664 0.369281411170959473
0.643842756748199463 1.15433573722839355 0.253987163305282593
-1.23564624786376953 -0.416752338409423828 0.352555692195892334
-1.26823735237121582 -0.428977847099304199 0.395787596702575684
-3.10153412818908691 0.34167855978012085 0.49101102352142334
0.438567161560058594 -3.0700688362121582 0.127505779266357422
-3.16367840766906738 -0.0348278172314167023 0.208083570003509521
-3.01818943023681641 -0.0561103932559490204 0.201899051666259766
-0.801299810409545898 -1.02752506732940674 0.0753598511219024658
-0.794838309288024902 1.0507967472076416 0.436925262212753296
-1.32385575771331787 0.0539184212684631348 0.0478371419012546539
0.419558346271514893 -1.27843701839447021 0.0426495783030986786
-0.813675522804260254 -1.01285457611083984 0.086671292781829834
-1.31118154525756836 0.0568008795380592346 0.0438032746315002441
0.414174795150756836 -1.27376759052276611 0.0384419634938240051
0.436711251735687256 -3.11575484275817871 0.152853608131408691
-2.80544447898864746 -1.28688895702362061 0.0866658613085746765
-1.22934770584106445 -0.424042195081710815 0.315217971801757812
0.811570107936859131 1.04679858684539795 0.294864416122436523
0.445626646280288696 1.24916219711303711 0.11746448278427124
-3.05815839767456055 0.345986992120742798 0.413512349128723145
-2.88854360580444336 -1.22662246227264404 0.0544857233762741089
-2.83099269866943359 -1.24148643016815186 0.0434013083577156067
-1.63881134986877441 -2.60487747192382812 0.131647437810897827
-3.07803893089294434 -0.0244135037064552307 0.168608948588371277
-3.16492843627929688 -0.0791862308979034424 0.167574182152748108
0.455724895000457764 -3.07268452644348145 0.118612818419933319
2.05144166946411133 2.32024192810058594 0.337052643299102783
-1.86369204521179199 2.4311826229095459 0.0344923585653305054
-0.353283137083053589 1.26315796375274658 0.406659066677093506
-1.9036787748336792 2.41350841522216797 0.0349822565913200378
-2.52503800392150879 -1.76236605644226074 0.419368267059326172
-3.06713604927062988 -0.032902941107749939 0.168425947427749634
-1.65726244449615479 -2.58693480491638184 0.106164798140525818
-1.91696429252624512 2.40941095352172852 0.0478816293179988861
-0.822008728981018066 -1.00505959987640381 0.0781073644757270813
-1.67859911918640137 -2.60899448394775391 0.13043522834777832
-0.637173950672149658 1.09625744819641113 0.422692477703094482
-0.801896810531616211 1.05326783657073975 0.442670464515686035
-3.0821232795715332 0.336147964000701904 0.447582781314849854
-3.04297685623168945 -0.0332754924893379211 0.195579856634140015
-1.2755972146987915 -0.4252128005027771 0.436051994562149048
-3.01010990142822266 0.0720157027244567871 0.355024874210357666
-1.30232465267181396 0.035435408353805542 0.0339325666427612305
-1.29334127902984619 0.0595756582915782928 0.0390437468886375427
0.415818750858306885 -3.0358121395111084 0.0946198254823684692
-0.370935767889022827 1.27599465847015381 0.424974501132965088
-1.2841789722442627 -0.444996863603591919 0.416266739368438721
-1.63894844055175781 -2.61291623115539551 0.132952168583869934
0.404808640480041504 -1.26979589462280273 0.0441656261682510376
-2.51276063919067383 -1.76161861419677734 0.439419955015182495
-2.8556976318359375 -1.2326507568359375 0.0542132481932640076
-1.92531073093414307 2.40698981285095215 0.0248369835317134857
0.80543750524520874 1.05864179134368896 0.388455092906951904
2.02564382553100586 2.31513547897338867 0.33800053596496582
-0.839644730091094971 -1.00352108478546143 0.0717957615852355957
-3.06267666816711426 0.350288510322570801 0.453662395477294922
0.394587099552154541 -3.09429049491882324 0.0929032266139984131
-1.29121565818786621 -0.454552918672561646 0.402136892080307007
0.794128537178039551 1.03872561454772949 0.364000260829925537
-0.771554291248321533 1.12408411502838135 0.428131043910980225
-0.839971184730529785 -1.02234077453613281 0.0810275375843048096
-0.797063767910003662 -1.00804829597473145 0.0871359258890151978
-2.53912734985351562 -1.79878592491149902 0.392395198345184326
0.823545873165130615 1.10534799098968506 0.333086907863616943
-1.26576018333435059 -0.453988730907440186 0.327398717403411865
-0.809923291206359863 1.08367538452148438 0.448916912078857422
-0.382385551929473877 1.29949951171875 0.426160573959350586
-0.851112008094787598 -1.01344215869903564 0.074983447790145874
-3.09650349617004395 -0.039783969521522522 0.1804676353931427
-0.351893842220306396 1.28249943256378174 0.40480920672416687
-2.53629875183105469 -1.7849433422088623 0.417886197566986084
-1.26958346366882324 -0.00107429921627044678 0.107837535440921783
-0.883194386959075928 -1.04372584819793701 0.0868880599737167358
0.415265858173370361 -1.27556896209716797 0.0431099757552146912
-2.85386896133422852 -1.20670068264007568 0.0520879700779914856
0.410926640033721924 -3.05787515640258789 0.141160309314727783
