ply
format ascii 1.0
element vertex 256
comment vertices
property float x
property float y
property float z
end_header
2.80253243446350098 0.544725716114044189 0.481295287609100342
8.12276554107666016 -4.64455890655517578 0.119808793067932129
-3.84868812561035156 0.0904747769236564636 -0.256499052047729492
-0.0391395464539527893 -3.79831695556640625 0.0996904522180557251
-0.317990243434906006 3.08790731430053711 1.40032219886779785
4.20923423767089844 -2.84514141082763672 0.134900689125061035
-0.418819963932037354 0.777997374534606934 -0.0807851999998092651
0.969977974891662598 -1.37967753410339355 0.0992669612169265747
-1.96310949325561523 -1.83202099800109863 0.618678629398345947
3.37431812286376953 -1.23677504062652588 -0.0822140425443649292
0.850279510021209717 1.1110457181930542 1.32462835311889648
2.15367460250854492 -2.77531790733337402 0.0775955170392990112
-0.5938376784324646 -0.963011562824249268 0.451972752809524536
-0.0649616420269012451 1.36125814914703369 0.085585862398147583
1.41512477397918701 0.212442368268966675 -0.460051357746124268
-1.17713689804077148 -3.12047767639160156 -0.365155130624771118
-2.10033440589904785 0.0777910724282264709 0.523574590682983398
-1.6799781322479248 -0.322753667831420898 0.870014190673828125
-1.2264857292175293 -2.7365410327911377 1.50914812088012695
-1.08774018287658691 2.98128461837768555 -0.257677137851715088
0.786200165748596191 1.09514129161834717 -0.443070948123931885
0.399853706359863281 -2.97092533111572266 0.134752839803695679
6.356231689453125 -4.62363672256469727 0.0426114574074745178
2.25366973876953125 -2.19976186752319336 0.864062488079071045
1.09796977043151855 0.429201453924179077 1.04783177375793457
-1.9729316234588623 -3.3998723030090332 0.637126564979553223
0.0318226516246795654 -2.39913344383239746 0.117829754948616028
5.54990196228027344 -2.56226563453674316 0.0503872931003570557
0.957053840160369873 -0.0337018072605133057 0.116312898695468903
2.30202651023864746 -0.862314343452453613 0.665750205516815186
-1.67713761329650879 0.86510545015335083 0.291375398635864258
-1.87614929676055908 -2.69030332565307617 -0.318091452121734619
-0.909998238086700439 -0.33885657787322998 -0.0970729589462280273
-0.177760034799575806 0.771279394626617432 0.0307074654847383499
-0.0715011060237884521 -1.60382676124572754 -0.428337275981903076
2.8368079662322998 -2.24096798896789551 -0.10203002393245697
1.83054983615875244 -0.713823437690734863 0.0420923233032226562
4.70896100997924805 -1.86826455593109131 0.114758208394050598
-3.17398715019226074 0.0715223699808120728 0.564221858978271484
0.523318290710449219 1.37092065811157227 0.092426009476184845
0.715174019336700439 -3.1369471549987793 0.151084110140800476
-1.22486710548400879 -2.65705704689025879 0.504806101322174072
-0.696990549564361572 -3.04265141487121582 0.125365763902664185
-0.97000044584274292 -0.838800251483917236 -0.404315769672393799
-0.893449187278747559 -1.64723217487335205 1.04517996311187744
1.22384774684906006 -2.49167799949645996 0.0563256144523620605
7.23999214172363281 -4.67182779312133789 0.413777589797973633
-0.815396785736083984 2.95719647407531738 0.618751943111419678
0.628245115280151367 1.11977064609527588 0.461368024349212646
-1.3719029426574707 -1.91904258728027344 -0.0883713960647583008
-1.58722078800201416 -2.63825130462646484 0.627210795879364014
-0.0209696590900421143 -1.64304614067077637 0.461167454719543457
2.49258685111999512 -1.41118907928466797 -0.0412755273282527924
0.439314484596252441 -0.720492064952850342 0.312237054109573364
-1.68384051322937012 0.0744678527116775513 -0.0899246707558631897
1.70988917350769043 0.247903928160667419 0.466185390949249268
-0.0113984644412994385 -0.795470118522644043 -0.167259186506271362
-0.309447824954986572 1.32710933685302734 0.120173446834087372
3.05069637298583984 0.545986711978912354 -0.336320400238037109
-1.38041460514068604 -3.28255462646484375 0.0681573301553726196
-0.888405561447143555 -1.57768893241882324 0.0216590762138366699
1.40409326553344727 -3.20155000686645508 0.243398100137710571
3.54959702491760254 0.550277769565582275 0.303412139415740967
-1.61607611179351807 0.393777310848236084 0.902624189853668213
1.03689765930175781 -0.0193015635013580322 0.468306124210357666
-1.11989843845367432 0.529272854328155518 -0.0682061463594436646
1.23732495307922363 0.780506432056427002 0.463058978319168091
4.91371440887451172 -2.82034158706665039 -0.0273084864020347595
1.1024930477142334 -0.705628275871276855 0.00295225717127323151
-0.945898473262786865 -0.91877436637878418 1.02304065227508545
0.00227438937872648239 -3.07935404777526855 0.109761327505111694
2.32120418548583984 -1.58820617198944092 0.572394847869873047
3.04665589332580566 0.544370114803314209 1.09736001491546631
0.0379179902374744415 1.33922696113586426 0.126571282744407654
-0.428504884243011475 0.0869881361722946167 -0.129481449723243713
-1.35395324230194092 -2.02932643890380859 0.599096298217773438
-1.85763025283813477 -3.30492639541625977 -0.369898319244384766
2.8252112865447998 -0.866303026676177979 -0.0813197493553161621
3.17669320106506348 0.0464495867490768433 0.293674379587173462
-1.84505271911621094 -2.24368023872375488 0.200318500399589539
3.37631988525390625 -1.93582141399383545 -0.0673315227031707764
1.21335554122924805 0.353586643934249878 0.0558230429887771606
3.12337613105773926 1.04302525520324707 0.32053297758102417
-0.00860753655433654785 -0.790331244468688965 0.436436772346496582
-3.21539950370788574 0.0783298835158348083 -0.0289110541343688965
-1.83378112316131592 -2.95617961883544922 0.241018027067184448
4.84525585174560547 -2.30034399032592773 0.571122229099273682
0.89658743143081665 -3.1804194450378418 -0.0744455531239509583
2.39310932159423828 -2.13527941703796387 0.283664613962173462
-1.36270153522491455 -3.15017843246459961 0.627264559268951416
-1.2071458101272583 -2.63983416557312012 -0.0559322088956832886
-2.64737319946289062 0.0524794831871986389 0.389658540487289429
6.95715188980102539 -4.50057220458984375 -0.0403368063271045685
-1.62721633911132812 -0.339398324489593506 0.328848272562026978
-1.87151730060577393 -2.0550997257232666 -0.318586587905883789
4.59868574142456055 -3.25427961349487305 0.110847145318984985
-1.17401289939880371 -3.1213226318359375 0.240451857447624207
7.58198261260986328 -4.46635341644287109 0.0390429794788360596
5.03912210464477539 -2.28488945960998535 0.0153097901493310928
0.526348352432250977 -2.62745881080627441 0.154539436101913452
-1.15430235862731934 -2.90532112121582031 1.0264430046081543
0.698163866996765137 -2.52554821968078613 0.257342219352722168
-0.560649573802947998 -1.53629982471466064 0.426719516515731812
0.466457933187484741 -3.62735795974731445 0.123437464237213135
-1.39886868000030518 -2.37766003608703613 -0.319465398788452148
-0.515154898166656494 -3.55699634552001953 0.0960306376218795776
1.69703400135040283 -2.54829859733581543 0.236693114042282104
-0.448451817035675049 -2.57270026206970215 0.109773136675357819
-1.42099225521087646 -2.94892263412475586 -0.31761622428894043
6.73722410202026367 -4.84077262878417969 0.309173166751861572
-1.65018916130065918 0.167753607034683228 0.45230555534362793
2.99367761611938477 -1.60052335262298584 -0.0607691407203674316
1.80890011787414551 -3.12646603584289551 -0.0797581449151039124
-3.59587788581848145 0.130426138639450073 0.319849878549575806
-0.914489626884460449 -0.821399867534637451 0.0967767685651779175
7.70680713653564453 -4.60769844055175781 0.570277988910675049
1.4255378246307373 0.0953265726566314697 0.823802828788757324
-0.677690088748931885 2.94923663139343262 1.05473423004150391
2.4193575382232666 -0.885531961917877197 0.17347639799118042
-1.68491184711456299 0.543155789375305176 -0.140942856669425964
-1.64525723457336426 0.885170042514801025 0.782017827033996582
0.843374669551849365 0.421066552400588989 0.487772494554519653
-1.39956402778625488 -0.327604770660400391 -0.117251858115196228
0.623943865299224854 1.10798430442810059 0.922842144966125488
0.78000640869140625 1.13045883178710938 0.0209127664566040039
-1.13485467433929443 0.0798233374953269958 -0.126004889607429504
-0.933664679527282715 3.0655829906463623 0.18736681342124939
1.45565903186798096 0.588977396488189697 0.790094733238220215
4.62948465347290039 -2.50592660903930664 0.12539343535900116
-1.95940494537353516 -2.3177635669708252 0.619355320930480957
-0.95260089635848999 -1.31388282775878906 0.753099322319030762
-0.964463233947753906 -1.55983400344848633 -0.401795476675033569
3.102264404296875 0.638638436794281006 0.102912969887256622
-0.148000210523605347 -1.21695709228515625 0.43004685640335083
2.53104829788208008 -1.91418051719665527 -0.112859725952148438
-0.840413153171539307 0.878831148147583008 -0.0451694801449775696
-0.0650002360343933105 -1.62164902687072754 0.00095869600772857666
-0.69087594747543335 0.432773172855377197 -0.117834173142910004
2.72172403335571289 0.144494786858558655 0.287895619869232178
7.21562290191650391 -4.84565353393554688 0.0160709172487258911
-1.96868729591369629 -2.88752222061157227 0.645103633403778076
0.807390332221984863 -2.96715998649597168 0.286904096603393555
1.3429262638092041 -2.79890036582946777 0.368370234966278076
2.24320864677429199 -1.27557551860809326 0.844930171966552734
-0.211105644702911377 1.3522953987121582 0.047514352947473526
1.30282580852508545 0.351989418268203735 0.498487025499343872
-0.482077568769454956 -0.317417442798614502 -0.0530695319175720215
3.20613574981689453 0.398720443248748779 0.529176950454711914
-0.882204651832580566 -1.23011279106140137 0.321813255548477173
1.44434547424316406 -2.90445613861083984 -0.0349210165441036224
-1.43744766712188721 0.878617227077484131 -0.0788730308413505554
2.72230100631713867 0.935861587524414062 0.313903301954269409
-0.926923573017120361 -0.855908393859863281 0.650223851203918457
-0.695588648319244385 3.04346942901611328 -0.179754644632339478
4.21452188491821289 -2.56513881683349609 0.40603935718536377
2.39205813407897949 -1.25920248031616211 0.30959928035736084
0.120951630175113678 -3.4466545581817627 0.148210123181343079
0.709659695625305176 -0.731870412826538086 0.044459804892539978
1.45399379730224609 -0.0516254901885986328 0.484068930149078369
0.843419075012207031 -2.75855875015258789 -0.0296386666595935822
1.60175478458404541 0.654939174652099609 0.465319782495498657
1.15243053436279297 0.456503987312316895 -0.321108013391494751
-1.66414523124694824 0.54524528980255127 0.513339459896087646
-1.65918612480163574 0.0361677706241607666 0.804701507091522217
-1.85255682468414307 -3.26537251472473145 0.0135491788387298584
1.46748590469360352 -0.715945184230804443 0.140417784452438354
1.90620136260986328 -2.53632235527038574 -0.0801280215382575989
1.81109535694122314 -2.9150993824005127 0.235166698694229126
3.20968842506408691 -0.902608036994934082 -0.0475998371839523315
0.360678374767303467 -3.00887107849121094 0.152609750628471375
5.17190980911254883 -2.61599135398864746 0.143714308738708496
2.9434967041015625 -1.22018110752105713 -0.105301842093467712
-0.360033750534057617 -3.21497130393981934 0.105544887483119965
7.58439922332763672 -4.82723617553710938 0.0649278908967971802
-1.40249776840209961 -3.2868034839630127 -0.377458810806274414
2.94989991188049316 0.292833238840103149 0.0573573261499404907
7.88126516342163086 -4.61342334747314453 -0.137604057788848877
-2.98059868812561035 0.0667249485850334167 0.233583927154541016
1.16135966777801514 -1.05308771133422852 0.0767121389508247375
-0.79407954216003418 0.0030568540096282959 -0.120435319840908051
1.22360908985137939 -0.280847251415252686 0.025447869673371315
-3.5605320930480957 0.00875623524188995361 -0.0418781042098999023
1.06531691551208496 0.147401675581932068 0.826637864112854004
2.41425323486328125 -1.65851330757141113 0.205390021204948425
-0.13404420018196106 -2.74335098266601562 0.100197702646255493
-1.83016157150268555 -1.92471718788146973 0.0220927298069000244
3.19666433334350586 -2.2517096996307373 -0.0874139592051506042
-1.61216938495635986 -2.27234482765197754 0.631716251373291016
1.14672040939331055 -2.92825078964233398 0.114177331328392029
7.48252153396606445 -4.86484527587890625 0.569964587688446045
-0.894919753074645996 -1.57322967052459717 0.459466010332107544
-1.62247109413146973 -3.40069007873535156 0.638736188411712646
3.09623837471008301 0.645761609077453613 0.767739295959472656
-0.0253349132835865021 1.39935028553009033 0.0595740079879760742
-1.62261092662811279 -1.80008459091186523 0.609753072261810303
0.441672474145889282 -2.59858107566833496 0.0230067446827888489
-1.54231166839599609 -2.07997632026672363 0.194893568754196167
0.0239843167364597321 1.13277709484100342 0.0279710050672292709
3.29010534286499023 0.735060393810272217 0.434371322393417358
0.261121988296508789 1.26395153999328613 0.0942078307271003723
1.11209523677825928 0.613271474838256836 0.751345634460449219
-1.37734484672546387 0.326868563890457153 -0.133413434028625488
7.47024774551391602 -4.37230253219604492 0.55177682638168335
2.32129335403442383 -1.9459381103515625 0.558231353759765625
6.62053012847900391 -4.52683210372924805 0.234681084752082825
3.38789033889770508 -1.58363652229309082 -0.0789121836423873901
1.4756779670715332 0.370392471551895142 1.04393279552459717
-1.82256364822387695 -3.26408076286315918 0.381479978561401367
2.07841086387634277 -3.13210129737854004 0.125159859657287598
7.83277034759521484 -4.55673313140869141 0.224977448582649231
2.51263022422790527 -1.04921543598175049 -0.0995587557554244995
7.25504302978515625 -4.52544260025024414 0.122664541006088257
6.66649627685546875 -4.69718694686889648 -0.0970451682806015015
2.46496820449829102 -2.23746752738952637 -0.0741341561079025269
-1.23611569404602051 -3.01215863227844238 -0.0687711089849472046
-1.61562263965606689 -2.96474289894104004 0.636294424533843994
-1.16439199447631836 -2.80654358863830566 0.236434757709503174
-1.8461911678314209 -2.44694900512695312 -0.118676483631134033
0.188027456402778625 -2.70658111572265625 0.110804229974746704
-1.66480517387390137 0.432675540447235107 0.185886740684509277
-0.201041892170906067 -3.47852778434753418 0.142642632126808167
0.440096765756607056 -3.31137967109680176 0.110032461583614349
6.95552206039428711 -4.56681060791015625 0.337446093559265137
-1.84828639030456543 -3.01026058197021484 -0.313238829374313354
2.96557211875915527 -1.94891166687011719 -0.106373898684978485
-1.83886635303497314 -1.95190620422363281 0.343299210071563721
-0.415959864854812622 -2.89929533004760742 0.101808406412601471
4.32023811340332031 -2.57326459884643555 0.0592456012964248657
-1.17927277088165283 -2.97412371635437012 1.33101749420166016
1.49988794326782227 -2.51604318618774414 -0.027884114533662796
4.73288679122924805 -2.21833539009094238 0.0595522187650203705
-1.1675339937210083 -2.90988659858703613 0.679670572280883789
-0.347944408655166626 -0.816314041614532471 0.325424879789352417
3.43501520156860352 0.222208589315414429 0.308874636888504028
2.5269317626953125 0.589896261692047119 0.295144081115722656
-1.52518713474273682 -3.11983370780944824 0.308350890874862671
1.74509167671203613 -2.80505251884460449 -0.0470666959881782532
0.733883976936340332 -2.47407007217407227 -0.0545653179287910461
-0.604491531848907471 2.94734001159667969 1.36485576629638672
-1.3503338098526001 -2.43642210960388184 0.607312440872192383
-3.25047731399536133 0.147347033023834229 0.279931038618087769
-1.84040939807891846 -2.80958342552185059 -0.0628067255020141602
-1.67989075183868408 -0.0741461813449859619 0.214502245187759399
-0.971984505653381348 -1.23039412498474121 1.04459118843078613
-0.467976272106170654 -1.22561454772949219 0.390821188688278198
-0.0786273479461669922 -0.822646677494049072 0.137325793504714966
2.25126028060913086 -1.86436069011688232 0.855357050895690918
1.09723055362701416 -0.491690903902053833 0.583609879016876221
-0.842028677463531494 -1.6233983039855957 0.753155767917633057
7.48605489730834961 -4.5395665168762207 0.315596491098403931
1.38928365707397461 0.300965815782546997 -0.174783274531364441
2.97608590126037598 0.784196794033050537 0.462895363569259644
0.653376460075378418 -3.17043495178222656 0.0983810648322105408
1.03555202484130859 -2.55657553672790527 0.269541412591934204
1.399680495262146 -2.48613643646240234 0.272410154342651367
-2.3794713020324707 0.0493874251842498779 0.55271226167678833
