ply
format ascii 1.0
element vertex 256
comment vertices
property float x
property float y
property float z
end_header
-0.880127906799316406 1.42774999141693115 0.466537982225418091
2.51169586181640625 -5.53082847595214844 0.111717373132705688
-1.44732260704040527 -3.23103713989257812 0.0866839662194252014
1.67152345180511475 -1.71493685245513916 0.892319202423095703
-2.9012143611907959 -1.20142185688018799 1.13147103786468506
-0.618258953094482422 3.59308934211730957 0.0828247666358947754
1.61447405815124512 0.959822177886962891 0.0217732153832912445
-0.413698405027389526 -1.26179921627044678 1.4343254566192627
-2.64953923225402832 2.70775699615478516 -0.0745455846190452576
0.70940399169921875 -0.547387242317199707 -0.362311989068984985
-1.87984573841094971 -0.690283417701721191 -0.298717796802520752
0.837253868579864502 -3.60903501510620117 -0.266888916492462158
-0.0413930416107177734 -3.08079242706298828 0.0539030171930789948
0.230827569961547852 1.67111885547637939 0.393622934818267822
2.87702798843383789 -2.94719910621643066 -0.118237338960170746
-0.470973998308181763 -1.26035737991333008 -0.454358518123626709
-2.29047608375549316 -1.9149317741394043 -0.419524699449539185
0.841429591178894043 -4.85132741928100586 0.0460107624530792236
0.365227252244949341 -1.27792441844940186 0.943898439407348633
0.844875574111938477 -1.99658477306365967 0.371947020292282104
-1.74209868907928467 1.2718358039855957 -0.0927057266235351562
-1.21337652206420898 0.0673279464244842529 -0.359591513872146606
-0.515513241291046143 -0.645910203456878662 0.46780472993850708
-0.315831959247589111 1.12804412841796875 -0.0333982668817043304
1.4477163553237915 -1.27110528945922852 0.67016071081161499
-2.63437938690185547 1.62878549098968506 0.881119370460510254
0.491119384765625 0.87136000394821167 0.111909940838813782
1.66783595085144043 -2.96189069747924805 0.465525418519973755
2.54536032676696777 -1.73474383354187012 -0.0790752843022346497
-0.890049457550048828 -3.06656289100646973 0.310804426670074463
-0.706598877906799316 2.4258124828338623 0.100833192467689514
0.371210604906082153 3.06945896148681641 0.073167756199836731
-1.44926631450653076 -2.14912271499633789 0.0964552164077758789
0.465695828199386597 -0.901620268821716309 -0.102144636213779449
1.49370443820953369 -2.9712677001953125 0.383522868156433105
-2.95213174819946289 -1.17346060276031494 0.0160437971353530884
0.952036798000335693 -0.282709777355194092 0.657893657684326172
1.62454617023468018 -2.08717536926269531 -0.304496288299560547
0.852579653263092041 1.4199068546295166 0.0880860090255737305
1.76273691654205322 -4.95354938507080078 0.466290384531021118
-0.159382760524749756 1.04160141944885254 1.11122560501098633
-0.74908447265625 0.379058659076690674 0.479507237672805786
-1.75276303291320801 2.2762753963470459 -0.107407316565513611
-2.6408393383026123 1.66310966014862061 -0.124572716653347015
-0.31341591477394104 -1.28181970119476318 0.511033177375793457
0.496912270784378052 -1.12068033218383789 0.593893527984619141
1.65796971321105957 -2.1505129337310791 -0.0888431519269943237
-2.63124370574951172 2.62040424346923828 0.868356049060821533
-1.200630784034729 1.63923454284667969 -0.388196498155593872
-1.45392227172851562 -0.694845736026763916 0.517197310924530029
-2.86549878120422363 -1.8619997501373291 0.61803591251373291
-0.0199662744998931885 0.936428666114807129 -0.0101343244314193726
-0.777671754360198975 -2.72124671936035156 0.0691143423318862915
0.629763960838317871 1.80380868911743164 -0.39063689112663269
1.3573838472366333 -1.18485081195831299 -0.372319698333740234
-2.16957330703735352 -1.34513175487518311 0.280738174915313721
1.34519851207733154 -5.52594089508056641 0.014902263879776001
-0.796574652194976807 1.48502027988433838 0.236934065818786621
-0.56239783763885498 -3.51591777801513672 0.0929604172706604004
-0.543105185031890869 -2.66482877731323242 0.116249829530715942
1.59795904159545898 -3.63970208168029785 -0.0540011376142501831
-1.49935150146484375 -2.81689023971557617 0.160674750804901123
0.226084813475608826 -1.66211295127868652 -0.095081627368927002
-0.82499384880065918 3.0837712287902832 0.154715359210968018
-2.99050188064575195 -1.90352833271026611 -0.168400153517723083
2.15664362907409668 -2.74993681907653809 -0.135747581720352173
2.26079130172729492 -4.87960624694824219 -0.115046031773090363
0.558724403381347656 1.0025019645690918 0.385033220052719116
1.04733884334564209 -0.854461789131164551 0.210569232702255249
0.967496573925018311 0.717910528182983398 0.0400258451700210571
-0.412285357713699341 1.81184875965118408 0.0908471494913101196
-0.0350074358284473419 1.69337582588195801 -0.404155969619750977
1.63889622688293457 -2.24166989326477051 0.379228353500366211
0.780998945236206055 -3.11510825157165527 0.36097070574760437
-0.35645759105682373 3.05160689353942871 0.00277074053883552551
-2.26572489738464355 -1.16883432865142822 -0.394927948713302612
0.852060496807098389 -2.05521440505981445 -0.317574769258499146
-1.27637052536010742 0.839436113834381104 0.448208242654800415
2.91706943511962891 -2.28763937950134277 -0.132521882653236389
1.72303509712219238 -2.40628647804260254 0.845807969570159912
-2.63983011245727539 2.12306499481201172 0.375094175338745117
0.684629499912261963 -1.22979235649108887 -0.359659910202026367
1.54088234901428223 -0.624342501163482666 0.623066484928131104
1.1173630952835083 -3.67955350875854492 0.377626508474349976
-0.549383163452148438 -3.0752570629119873 -0.0125558637082576752
0.601030468940734863 0.886408805847167969 -0.283761203289031982
-0.0810117423534393311 1.668204665184021 0.975974917411804199
-1.12826132774353027 -0.696739733219146729 -0.0123708397150039673
-1.26329886913299561 0.0238138437271118164 0.448511332273483276
1.36921215057373047 -0.489737778902053833 -0.375569373369216919
-2.30561113357543945 -1.95805692672729492 0.245125144720077515
-2.62378907203674316 1.25865530967712402 0.357614964246749878
-2.94237804412841797 -1.77784383296966553 1.22468674182891846
1.49269688129425049 -4.94745063781738281 -0.0915102735161781311
1.91320681571960449 -5.49585103988647461 0.258954912424087524
0.356276571750640869 -1.21007132530212402 1.35885739326477051
1.02410757541656494 -2.56115269660949707 0.339552044868469238
-1.38126754760742188 -2.7097172737121582 0.0404012501239776611
0.933650493621826172 0.985391139984130859 0.0533935502171516418
-2.02283167839050293 1.75738930702209473 -0.0867326930165290833
-2.86803913116455078 -1.2437666654586792 0.610635995864868164
-0.0035557970404624939 1.0059664249420166 0.552087783813476562
0.750338196754455566 -1.39375054836273193 -0.0886359214782714844
-2.08938717842102051 2.72737860679626465 -0.079735681414604187
-2.40379738807678223 2.22532129287719727 -0.132154360413551331
0.472838371992111206 -0.586645543575286865 0.611711621284484863
0.839207828044891357 -5.44122743606567383 0.235190898180007935
2.22297024726867676 -2.21442437171936035 -0.0777123868465423584
-0.030789986252784729 -1.16232705116271973 -0.032146453857421875
1.66083133220672607 -1.77212405204772949 0.337211102247238159
-0.80114436149597168 0.131425708532333374 -0.0243492871522903442
1.2754366397857666 -5.20440101623535156 0.455221116542816162
0.934300661087036133 -1.45675086975097656 0.62630164623260498
0.223476812243461609 1.27300631999969482 -0.00822870992124080658
-2.27599024772644043 1.25368809700012207 -0.115342713892459869
-1.27591574192047119 1.7700430154800415 0.472806066274642944
1.66642391681671143 -2.94469785690307617 -0.108311042189598083
-0.815834283828735352 1.64263689517974854 -0.0237474292516708374
-0.52620774507522583 -1.28175759315490723 0.964386105537414551
0.387584120035171509 -1.27632975578308105 0.276865184307098389
1.67658817768096924 -2.43184685707092285 0.340022951364517212
-0.482631683349609375 -1.24892055988311768 0.0169778019189834595
2.02905035018920898 -1.75377559661865234 -0.13987693190574646
-0.778441309928894043 0.920745372772216797 0.454712986946105957
-2.66624593734741211 -1.57559919357299805 0.278462380170822144
-0.44884103536605835 0.694757997989654541 0.088861025869846344
0.896895885467529297 -0.821919739246368408 0.663318097591400146
-2.63129639625549316 2.11257362365722656 0.869590520858764648
-0.999911665916442871 -0.683814406394958496 0.538096606731414795
1.67272770404815674 -3.43253421783447266 0.364928632974624634
-1.5643463134765625 -0.687230110168457031 0.061932489275932312
0.767307281494140625 0.95626300573348999 0.117882035672664642
2.42484903335571289 -5.10280227661132812 0.241079270839691162
0.576127171516418457 1.69524824619293213 0.0791235864162445068
1.71567356586456299 -2.87569379806518555 0.88121408224105835
-2.96619725227355957 -1.17318820953369141 -0.417985975742340088
-2.6264493465423584 2.73099946975708008 0.391319870948791504
-1.10876727104187012 -3.04947710037231445 -0.0196571256965398788
-0.109526924788951874 1.51757502555847168 -0.00576629862189292908
-0.0452739894390106201 1.6524360179901123 0.0675668716430664062
-0.661595940589904785 1.26436209678649902 0.145072385668754578
1.23207759857177734 -4.84579706192016602 0.236405745148658752
2.55497527122497559 -2.54992818832397461 -0.0808501094579696655
-2.63699054718017578 1.70249581336975098 0.433067589998245239
1.87687385082244873 -5.07340240478515625 0.0573138967156410217
1.25482773780822754 -2.04048895835876465 0.302264034748077393
2.17689156532287598 -5.33966064453125 -0.0773470625281333923
-2.60631346702575684 -1.13424396514892578 0.287987381219863892
0.250856161117553711 1.18083035945892334 0.11574757844209671
1.18612682819366455 -3.27584338188171387 0.380072295665740967
0.677577733993530273 1.41209673881530762 0.385756164789199829
-1.05374407768249512 1.06995689868927002 0.119761064648628235
-1.2121124267578125 0.428985118865966797 0.390870720148086548
1.09573996067047119 -0.773873329162597656 -0.197109505534172058
1.76582837104797363 -2.54554891586303711 -0.0817982181906700134
-1.21142733097076416 1.68847799301147461 0.0573046505451202393
-1.26993131637573242 1.28347158432006836 0.45428958535194397
-0.100375711917877197 -0.726860344409942627 0.429624974727630615
-1.65467333793640137 -2.79771637916564941 0.0627090409398078918
-0.0863616317510604858 1.41209769248962402 0.668079376220703125
0.844746232032775879 0.561313867568969727 0.0906427502632141113
-0.557328164577484131 3.0454108715057373 0.0596839487552642822
-1.20917940139770508 0.0930280685424804688 0.0621774643659591675
1.68531167507171631 -2.05109214782714844 0.639081478118896484
-0.440203249454498291 -3.07347345352172852 0.0825649350881576538
-2.87949275970458984 -1.46839797496795654 0.914961338043212891
2.9274132251739502 -1.88900256156921387 -0.0788456350564956665
-0.808865845203399658 0.0131862759590148926 0.45988386869430542
0.255783438682556152 1.27155804634094238 0.390842258930206299
1.27519512176513672 -0.894669055938720703 0.679805994033813477
0.834678113460540771 -1.00398862361907959 -0.0698567032814025879
2.46827864646911621 -2.95078420639038086 -0.111488953232765198
-2.71329474449157715 -1.96227896213531494 0.269725561141967773
1.42508327960968018 -2.57844853401184082 0.377635329961776733
0.799720287322998047 -3.4912259578704834 0.336632192134857178
-0.64831310510635376 -1.27528846263885498 0.350775301456451416
-0.890655159950256348 -3.22029995918273926 0.11207231879234314
-1.70989906787872314 2.64797163009643555 -0.0772107318043708801
1.12512302398681641 -5.1368865966796875 0.0101077593863010406
-2.63013172149658203 1.25405275821685791 0.816657304763793945
-0.471267789602279663 2.71604275703430176 0.0611519962549209595
1.60492384433746338 -5.38485860824584961 0.481838703155517578
-0.0039898604154586792 3.07993626594543457 0.139108896255493164
-0.00534654408693313599 0.949885845184326172 -0.376276940107345581
-0.664423584938049316 -3.07780790328979492 0.0539147220551967621
-0.825159609317779541 0.0775318145751953125 -0.384034097194671631
2.09415578842163086 -4.82430076599121094 0.210169017314910889
-0.464823663234710693 3.38820195198059082 0.0575850009918212891
-0.276045233011245728 -3.25729656219482422 0.000879336148500442505
-2.30608415603637695 -1.16551601886749268 -0.0161499679088592529
1.65003430843353271 -5.38740825653076172 -0.0824504196643829346
-0.820856094360351562 1.64704322814941406 -0.423585444688796997
1.663299560546875 -1.73701918125152588 -0.127203404903411865
1.16984999179840088 -0.56577610969543457 0.625475704669952393
-3.01050233840942383 -1.70524144172668457 0.290029823780059814
2.62008786201477051 -2.08755064010620117 -0.0689339786767959595
1.11064207553863525 0.914822578430175781 0.0927907377481460571
-1.53906452655792236 -0.703436315059661865 -0.284887880086898804
0.961426377296447754 -5.13837099075317383 0.344896137714385986
-2.66229486465454102 2.39239978790283203 0.118581794202327728
-1.35013413429260254 -2.55576467514038086 0.553190469741821289
-2.65710353851318359 1.30451869964599609 -0.0411987192928791046
1.07637214660644531 -2.91051340103149414 0.334781795740127563
-2.64108896255493164 2.40880632400512695 0.592044353485107422
-2.65929198265075684 1.99497151374816895 -0.00487211346626281738
-2.08041977882385254 2.37024998664855957 -0.0758809596300125122
0.646781802177429199 -1.11906182765960693 0.0854759514331817627
-0.778167545795440674 1.77500104904174805 0.462601631879806519
-2.34950542449951172 1.86265695095062256 -0.0687722638249397278
0.498502373695373535 -1.56904911994934082 0.0843258872628211975
2.92480778694152832 -2.61677742004394531 -0.0961240306496620178
0.251395732164382935 -0.994430303573608398 0.136968597769737244
-1.72005677223205566 1.92703235149383545 -0.0773315951228141785
-1.09631037712097168 -2.54642081260681152 0.0220053903758525848
0.106622830033302307 -1.43473911285400391 0.115460522472858429
0.858668148517608643 -2.04359555244445801 0.0185416638851165771
1.69322788715362549 -2.64297938346862793 0.610365986824035645
2.0554962158203125 -5.18326187133789062 0.303495824337005615
1.63990044593811035 -4.8306279182434082 0.183917656540870667
-2.24286413192749023 -1.92179667949676514 -0.0758756101131439209
-1.25875246524810791 -0.605930924415588379 0.303252190351486206
-0.198630958795547485 1.39586806297302246 1.15746152400970459
0.834243655204772949 -1.13230562210083008 0.600130796432495117
-2.33949470520019531 -1.64055049419403076 0.34488677978515625
-0.0334558039903640747 1.23032593727111816 0.118981868028640747
-2.99277973175048828 -1.36977279186248779 0.333193093538284302
1.60666203498840332 -2.04950237274169922 0.130359798669815063
1.45363080501556396 -3.68279838562011719 0.338305622339248657
-0.892505109310150146 -0.695743441581726074 0.236434578895568848
1.61490607261657715 -0.970756053924560547 0.664654433727264404
0.572742879390716553 0.899702072143554688 0.0531741082668304443
-0.0106230676174163818 1.44195258617401123 0.339047253131866455
-0.278931140899658203 -1.26599693298339844 -0.191008687019348145
0.789943575859069824 -2.29359126091003418 0.332784503698348999
-0.526855885982513428 -3.14752674102783203 0.0538488626480102539
-1.76456499099731445 1.57436001300811768 -0.100664407014846802
-0.99987483024597168 1.2779775857925415 0.307725965976715088
1.43800604343414307 -5.23111820220947266 0.0755864232778549194
-0.55085521936416626 -2.76681256294250488 0.0570062100887298584
2.23212051391601562 -5.42795562744140625 0.246715888381004333
0.272282838821411133 0.951069295406341553 0.339371442794799805
-0.932212769985198975 0.643833458423614502 0.456274837255477905
1.16067838668823242 -4.85491561889648438 -0.113428510725498199
1.67119991779327393 -2.0850532054901123 0.259174495935440063
1.59491300582885742 -5.53811979293823242 0.196018233895301819
0.848038136959075928 -3.62432360649108887 0.0604273378849029541
2.50846719741821289 -4.85971546173095703 0.0866166874766349792
-2.87875533103942871 -1.82973301410675049 0.916212260723114014
1.13172650337219238 -1.17218029499053955 0.603893458843231201
-1.48516654968261719 -2.87094759941101074 0.0520420223474502563
1.17125868797302246 -1.05627667903900146 -0.132575556635856628
-1.07896161079406738 -2.78522300720214844 0.172528475522994995
-2.39735078811645508 2.58817625045776367 -0.13735295832157135
2.48509407043457031 -5.25826454162597656 -0.0194748193025588989
-2.6231846809387207 1.90633773803710938 0.651584863662719727
0.216081678867340088 0.953348338603973389 0.342274606227874756
