ply
format ascii 1.0
element vertex 102
comment vertices
property float x
property float y
property float z
end_header
0.672067582607269287 -0.830487489700317383 -0.0244202017784118652
-0.866767704486846924 0.823980867862701416 0.246577292680740356
-0.438972443342208862 -0.926218926906585693 0.399776726961135864
0.468005210161209106 -0.75760340690612793 0.314395159482955933
-0.978898346424102783 -0.95487821102142334 0.361504882574081421
-0.601158380508422852 0.788050413131713867 0.04488367959856987
-0.675243556499481201 -0.653228521347045898 0.211782261729240417
-0.921735703945159912 1.02137529850006104 0.0398796498775482178
1.8022918701171875 -0.807475149631500244 0.17057819664478302
1.88543534278869629 -0.617686986923217773 -0.0209453701972961426
1.88343393802642822 -0.839658737182617188 0.181996941566467285
0.804162681102752686 -0.578970193862915039 0.10235915333032608
-0.9300803542137146 1.05334329605102539 0.33123624324798584
-0.996281743049621582 -0.973105370998382568 0.336239755153656006
-0.722296357154846191 -0.619530200958251953 0.232295110821723938
1.96366190910339355 -0.75678563117980957 0.258826792240142822
1.91594302654266357 -0.783992767333984375 0.293030887842178345
-0.939993798732757568 -0.554589986801147461 0.277473926544189453
0.651469588279724121 -0.737532615661621094 0.0581437945365905762
-0.85646367073059082 -0.585171222686767578 0.332882046699523926
1.84051191806793213 -0.868976414203643799 0.314764350652694702
1.85869908332824707 -0.836945891380310059 0.250452339649200439
1.72264420986175537 -0.58644026517868042 0.292704671621322632
-0.73764801025390625 -0.950957953929901123 0.356502324342727661
-0.889774084091186523 -0.595842480659484863 0.258288681507110596
-0.881258368492126465 1.02213501930236816 0.193418830633163452
1.07061910629272461 -0.672251760959625244 0.174002870917320251
-0.961044132709503174 1.04048347473144531 0.0535390675067901611
-1.01278102397918701 -0.952169179916381836 0.351013392210006714
1.75229370594024658 -0.650081336498260498 0.247516095638275146
1.82398033142089844 -0.726297199726104736 0.104824669659137726
-0.885757267475128174 -0.533484816551208496 0.215014427900314331
1.86174392700195312 -0.690910041332244873 0.258771181106567383
-0.991622686386108398 1.13862907886505127 0.178030043840408325
-0.843480050563812256 -0.522847533226013184 0.240161091089248657
1.96917235851287842 -0.78890228271484375 0.154605627059936523
1.68763279914855957 -0.787988960742950439 0.179593190550804138
1.8823091983795166 -0.813748478889465332 0.285999655723571777
1.84855353832244873 -0.776672065258026123 0.34217950701713562
0.812005877494812012 -0.716343998908996582 0.212378084659576416
1.97593545913696289 -0.650559782981872559 0.0254186429083347321
1.94884824752807617 -0.582475602626800537 0.00809343159198760986
-0.745080828666687012 -0.686773180961608887 0.323291659355163574
-0.909085750579833984 -0.589174449443817139 0.336366325616836548
1.88149845600128174 -0.770185410976409912 0.229890018701553345
0.352360844612121582 -0.666005373001098633 0.225256979465484619
1.81693387031555176 -0.637351512908935547 0.220157980918884277
-0.785698652267456055 -0.582078337669372559 0.238318368792533875
0.64139866828918457 -0.651407122611999512 -0.0713736340403556824
1.86338067054748535 -0.759756684303283691 0.335999011993408203
-0.751842021942138672 -0.623080730438232422 0.105373039841651917
0.531453311443328857 -0.693735957145690918 0.0257753282785415649
1.73282957077026367 -0.887681901454925537 0.17143675684928894
1.80134928226470947 -0.544202268123626709 0.297995328903198242
1.9039541482925415 -0.827890455722808838 0.296235233545303345
1.96202969551086426 -0.808016598224639893 0.28031158447265625
-0.826765298843383789 -0.62387007474899292 0.165687769651412964
1.75977945327758789 -0.632406890392303467 0.230151653289794922
1.87409138679504395 -0.813304543495178223 0.17442205548286438
0.723025023937225342 -0.789833962917327881 0.032183229923248291
1.91079938411712646 -0.803735911846160889 0.239390730857849121
1.86338400840759277 -0.66863483190536499 0.0466931834816932678
1.91659963130950928 -0.848359823226928711 0.237442448735237122
1.83844900131225586 -0.933546602725982666 0.182559788227081299
1.82437026500701904 -0.716756939888000488 0.286665499210357666
-0.952618718147277832 -0.515170514583587646 0.337927520275115967
1.8716806173324585 -0.722862899303436279 0.257797300815582275
1.80941414833068848 -0.811997711658477783 0.294869214296340942
1.97943079471588135 -0.656881034374237061 0.148058056831359863
-1.04613924026489258 -0.90684133768081665 0.328958034515380859
0.613250017166137695 -0.768120408058166504 0.0206700712442398071
1.77566814422607422 -0.728439867496490479 0.141799941658973694
1.86232972145080566 -0.774567663669586182 0.213902637362480164
-0.870211422443389893 -0.568687498569488525 0.243337079882621765
1.81878566741943359 -0.694328248500823975 0.317345380783081055
1.82753908634185791 -0.801984250545501709 0.383743822574615479
1.9149620532989502 -0.900206148624420166 0.332918167114257812
-0.840966463088989258 -0.621229052543640137 0.241172254085540771
0.599608719348907471 -0.824297428131103516 -0.0393583923578262329
1.88621604442596436 -0.738205492496490479 0.306274473667144775
-0.941379070281982422 -0.529443562030792236 0.366161733865737915
0.51509547233581543 -0.74067842960357666 0.0172494202852249146
1.79763615131378174 -0.844198942184448242 0.281382858753204346
-0.765361487865447998 -0.51505279541015625 0.243499815464019775
1.74450242519378662 -0.669542551040649414 0.334365934133529663
1.86479949951171875 -0.97381967306137085 0.232000425457954407
-0.980475306510925293 1.03723382949829102 0.193620309233665466
1.81518435478210449 -0.769498050212860107 0.292994081974029541
-0.899488091468811035 1.04981184005737305 0.181275650858879089
1.87848508358001709 -0.791568994522094727 0.334537386894226074
0.716827273368835449 -0.786981701850891113 -0.0731000006198883057
1.8399423360824585 -0.904397487640380859 0.353221684694290161
1.8608630895614624 -0.573723435401916504 0.18222557008266449
-0.753053188323974609 -0.655875265598297119 0.19469800591468811
1.86361837387084961 -0.81323552131652832 0.23115074634552002
-0.645922958850860596 -0.632187008857727051 0.340963184833526611
1.84227287769317627 -0.719834268093109131 0.250524580478668213
-0.932939648628234863 -0.567467689514160156 0.375336229801177979
0.682970762252807617 -0.664833188056945801 0.095730997622013092
1.85238051414489746 -0.742155969142913818 0.27376440167427063
1.83050119876861572 -0.753956019878387451 0.287051856517791748
1.76155757904052734 -0.792782843112945557 0.342890024185180664
