ply
format ascii 1.0
element vertex 64
comment vertices
property float x
property float y
property float z
end_header
-0.503762185573577881 -1.23090362548828125 0.12712465226650238
-1.15365254878997803 0.66180497407913208 0.471850991249084473
0.587834775447845459 -3.04263567924499512 0.187632009387016296
-2.26322031021118164 2.11684083938598633 0.313457965850830078
-1.2250511646270752 -2.84647679328918457 0.372010558843612671
0.825974345207214355 1.04243290424346924 0.217072948813438416
-1.29117989540100098 -0.318989843130111694 0.430787235498428345
0.786235690116882324 -1.07272243499755859 0.0667617768049240112
2.56733274459838867 -1.73550689220428467 0.431293338537216187
-1.32547152042388916 0.109660103917121887 0.445253849029541016
1.31648385524749756 0.189130634069442749 0.0899255797266960144
-3.07762622833251953 0.362488329410552979 0.0478397905826568604
3.78109979629516602 -3.9271543025970459 0.465075552463531494
-2.8185734748840332 -1.28795373439788818 0.228133425116539001
-0.734933674335479736 1.10850012302398682 0.258890241384506226
0.113045923411846161 1.32518696784973145 0.504379332065582275
0 0 0
0 0 0
0 0 0
0 0 0
0 0 0
0 0 0
0 0 0
0 0 0
0 0 0
0 0 0
0 0 0
0 0 0
0 0 0
0 0 0
0 0 0
0 0 0
0 0 0
0 0 0
0 0 0
0 0 0
0 0 0
0 0 0
0 0 0
0 0 0
0 0 0
0 0 0
0 0 0
0 0 0
0 0 0
0 0 0
0 0 0
0 0 0
0 0 0
0 0 0
0 0 0
0 0 0
0 0 0
0 0 0
0 0 0
0 0 0
0 0 0
0 0 0
0 0 0
0 0 0
0 0 0
0 0 0
0 0 0
0 0 0
