ply
format ascii 1.0
element vertex 256
comment vertices
property float x
property float y
property float z
end_header
-1.04006505012512207 -0.723175406455993652 0.195080339908599854
4.62096357345581055 -3.2101142406463623 0.0642053335905075073
2.34393453598022461 2.39556217193603516 0.261907130479812622
-1.08705580234527588 3.32184338569641113 0.37295868992805481
0.290810376405715942 -3.21784520149230957 0.239367231726646423
1.36197066307067871 0.0525722354650497437 0.195414602756500244
2.41872286796569824 -2.08774733543395996 0.105858266353607178
-0.511372148990631104 1.28492105007171631 0.767374634742736816
-2.2761681079864502 2.1246342658996582 0.0844811126589775085
-1.13684701919555664 -2.89556741714477539 0.122700348496437073
0.655777156352996826 1.16266536712646484 0.204523861408233643
1.41837477684020996 2.77836060523986816 0.525947451591491699
1.11454916000366211 -0.907555818557739258 0.121432796120643616
-0.425146311521530151 -1.10836386680603027 0.438364654779434204
-1.07380533218383789 2.61687517166137695 0.4563731849193573
-0.771005868911743164 1.00389242172241211 0.282076328992843628
0.190124854445457458 1.38313400745391846 0.539121270179748535
1.79665529727935791 2.48668813705444336 0.252435058355331421
4.36180639266967773 -3.15596437454223633 0.453516215085983276
-0.825425267219543457 -1.21662342548370361 0.220836728811264038
-0.87498551607131958 2.9987492561340332 0.455269336700439453
0.331093072891235352 1.43308937549591064 0.175612658262252808
-0.507045567035675049 1.27475857734680176 0.358946114778518677
1.67216944694519043 2.9136652946472168 0.288450360298156738
0.973551809787750244 1.10554993152618408 0.0628319233655929565
0.418564379215240479 -2.91401934623718262 0.131938040256500244
4.32208538055419922 -3.31412863731384277 0.159875482320785522
0.111257173120975494 -2.95542097091674805 0.220194429159164429
0.772518932819366455 0.897841930389404297 0.19316062331199646
2.07233166694641113 2.31267833709716797 0.240456089377403259
-0.522874176502227783 -1.07136940956115723 0.175517618656158447
2.14700555801391602 -2.13296103477478027 0.0507248528301715851
-0.655689060688018799 1.09992992877960205 0.616888344287872314
-1.13540947437286377 2.9106595516204834 0.498321384191513062
1.51365566253662109 2.56036925315856934 0.381832093000411987
1.33442902565002441 0.324595063924789429 0.155595868825912476
-0.770692706108093262 -0.740252435207366943 0.197865799069404602
0.302385061979293823 1.23317527770996094 0.341764152050018311
1.14576911926269531 -0.650065839290618896 0.0971012786030769348
-0.673165321350097656 -1.16476178169250488 0.409714818000793457
1.52482736110687256 0.21077941358089447 0.212976247072219849
4.43632936477661133 -3.12203836441040039 0.203204289078712463
-2.14688706398010254 2.29662585258483887 0.0105843264609575272
-0.873120903968811035 2.77339744567871094 0.452416718006134033
0.157571211457252502 -3.12577056884765625 0.0932480916380882263
0.441649287939071655 1.21076130867004395 0.181857272982597351
0.533457934856414795 1.01336514949798584 0.294969260692596436
-0.451930761337280273 1.27006793022155762 0.560326635837554932
1.98584389686584473 2.53837156295776367 0.322188824415206909
1.70466911792755127 2.60622239112854004 0.430990427732467651
-1.07960760593414307 3.15656757354736328 0.489248543977737427
-0.600024163722991943 1.09672319889068604 0.33580547571182251
-0.827753543853759766 -1.01919817924499512 0.244628429412841797
1.50164151191711426 2.75793552398681641 0.35078960657119751
0.739298760890960693 1.05154645442962646 0.0678193643689155579
-0.97807002067565918 -2.82072997093200684 0.0461173690855503082
0.293286651372909546 -3.01573586463928223 0.233275160193443298
2.30058979988098145 -1.96414589881896973 0.0254136510193347931
-1.05353569984436035 2.7646784782409668 0.363506138324737549
-0.940666913986206055 3.26353311538696289 0.493658721446990967
-0.884500384330749512 -0.829189717769622803 0.2952004075050354
0.832104504108428955 1.08949220180511475 0.207163706421852112
1.5336461067199707 2.88880586624145508 0.464506268501281738
1.21648764610290527 0.133966892957687378 0.233124285936355591
-0.53518974781036377 -1.17129611968994141 0.310126423835754395
-1.02670848369598389 2.79406237602233887 0.548772573471069336
-0.704546332359313965 1.13766026496887207 0.458314180374145508
1.56526994705200195 2.71212100982666016 0.560835838317871094
0.624845445156097412 0.964894235134124756 0.168204218149185181
0.06458234041929245 -3.10896754264831543 0.23631565272808075
0.237921327352523804 -2.9200904369354248 0.116925597190856934
4.49570465087890625 -3.27362728118896484 0.139180272817611694
-0.5514792799949646 1.11900210380554199 0.49587017297744751
2.25203847885131836 -2.08467197418212891 0.15711897611618042
-0.980764091014862061 2.88852167129516602 0.418109476566314697
1.32665717601776123 0.246806442737579346 0.287017464637756348
1.12181031703948975 -0.777198493480682373 0.0193099398165941238
0.705299615859985352 1.04570186138153076 0.284727573394775391
-0.690443336963653564 -1.15236902236938477 0.228117868304252625
-0.649619162082672119 1.23202598094940186 0.745867490768432617
-1.01295375823974609 3.0124669075012207 0.51011347770690918
2.10189366340637207 2.44569778442382812 0.324734807014465332
-0.674935579299926758 0.989908695220947266 0.398941606283187866
0.262483060359954834 1.35036051273345947 0.415841788053512573
2.2059638500213623 2.35677242279052734 0.218455731868743896
-1.17208671569824219 -0.766051054000854492 0.166915446519851685
0.464620918035507202 1.18120694160461426 0.318103611469268799
4.39101457595825195 -3.19460773468017578 0.0897380858659744263
0.292243987321853638 -3.10823798179626465 0.129833653569221497
2.27631783485412598 -2.17488217353820801 0.0251036342233419418
1.32551562786102295 0.172062978148460388 0.138884127140045166
-1.04998421669006348 -2.93903231620788574 0.0262295268476009369
-0.545428574085235596 1.15430188179016113 0.78976738452911377
1.97447741031646729 2.40630936622619629 0.223574385046958923
4.36234283447265625 -3.20851540565490723 0.329063057899475098
1.46937572956085205 2.6528630256652832 0.469745606184005737
1.73484635353088379 2.59911227226257324 0.292135387659072876
-0.615039050579071045 1.21178281307220459 0.564819991588592529
0.860075116157531738 1.00610864162445068 0.114324495196342468
-2.15065360069274902 2.12424659729003906 0.0696379318833351135
0.166915804147720337 -3.17794036865234375 0.262524187564849854
1.23439896106719971 -0.718610465526580811 0.0400037914514541626
1.67293679714202881 2.5087592601776123 0.35383838415145874
-0.763216078281402588 -1.09169375896453857 0.323171675205230713
-0.917381644248962402 -0.723479986190795898 0.174044787883758545
1.87898349761962891 2.41315746307373047 0.309475898742675781
0.237678959965705872 1.46771037578582764 0.446151673793792725
1.53252744674682617 0.236407339572906494 0.0925863161683082581
1.50699424743652344 2.90210342407226562 0.345095396041870117
-0.57136160135269165 1.25808000564575195 0.255906999111175537
1.41542482376098633 2.67259693145751953 0.335948437452316284
4.56666707992553711 -3.12776875495910645 0.135761842131614685
1.59558653831481934 2.65501952171325684 0.448765575885772705
-1.09803807735443115 2.73347139358520508 0.473187506198883057
1.15839314460754395 -0.784864187240600586 0.132053077220916748
-0.977723836898803711 2.69062900543212891 0.520472943782806396
-0.943346381187438965 3.10696792602539062 0.519581854343414307
-1.0447462797164917 -0.624355494976043701 0.132371023297309875
0.211297929286956787 -3.2169959545135498 0.154789596796035767
-0.740093767642974854 1.11144673824310303 0.351039230823516846
-0.655104637145996094 1.10462808609008789 0.732739865779876709
-0.983638882637023926 -0.827240347862243652 0.236189931631088257
-0.533498823642730713 1.22084152698516846 0.67461162805557251
-1.05677437782287598 -2.97960782051086426 0.133429214358329773
1.42741668224334717 0.262072861194610596 0.180378898978233337
0.76074981689453125 1.14325213432312012 0.131972655653953552
-0.633946001529693604 -1.10789656639099121 0.315759658813476562
0.337076723575592041 1.32776522636413574 0.291499018669128418
-1.09627830982208252 -0.773397982120513916 0.278198689222335815
4.41142082214355469 -3.24179267883300781 0.234259605407714844
0.186106711626052856 -3.02620911598205566 0.134298831224441528
0.758707284927368164 1.00946187973022461 0.168061733245849609
-0.579471707344055176 -1.1774907112121582 0.209326356649398804
0.572866737842559814 1.10469555854797363 0.248021245002746582
1.55515789985656738 2.78304648399353027 0.454033374786376953
1.30464375019073486 0.067318551242351532 0.285964250564575195
0.456104427576065063 1.1047217845916748 0.187041178345680237
0.356517195701599121 1.18459129333496094 0.239475637674331665
1.62956345081329346 2.89399981498718262 0.422536104917526245
1.43671905994415283 0.117036238312721252 0.22627142071723938
-1.10830438137054443 3.04885458946228027 0.52352607250213623
-2.10446023941040039 2.2328193187713623 0.079046003520488739
0.252316206693649292 -3.12104511260986328 0.263874262571334839
-0.897918224334716797 2.90173935890197754 0.479473710060119629
0.682331502437591553 0.907966434955596924 0.239753663539886475
-0.544555604457855225 -1.12396001815795898 0.399959385395050049
-0.940839767456054688 -0.746272683143615723 0.312446832656860352
1.87036824226379395 2.54034185409545898 0.208171293139457703
2.21171021461486816 -2.20453357696533203 0.0962076783180236816
0.379239529371261597 1.26592028141021729 0.126119434833526611
-0.98311847448348999 2.9885554313659668 0.413407981395721436
1.78533446788787842 2.46097731590270996 0.34849095344543457
-0.760769844055175781 -1.18750095367431641 0.290377050638198853
2.32545971870422363 -2.08868837356567383 0.0283396393060684204
1.25647354125976562 0.0547971203923225403 0.189238131046295166
-1.06486296653747559 2.8255772590637207 0.440644890069961548
-0.684839904308319092 1.14077460765838623 0.275442332029342651
-0.968563973903656006 2.79434633255004883 0.441219925880432129
1.8273770809173584 2.56043910980224609 0.308478891849517822
1.89478075504302979 2.4456779956817627 0.184159234166145325
1.33820068836212158 0.159710615873336792 0.24751262366771698
-0.516120433807373047 1.10873818397521973 0.37994992733001709
-0.997696578502655029 3.27223062515258789 0.417512416839599609
1.46917891502380371 2.66524839401245117 0.563544392585754395
-1.00316274166107178 2.87904024124145508 0.508909940719604492
-1.06844723224639893 -2.84744811058044434 0.0312729403376579285
4.42169809341430664 -3.32224512100219727 0.164849042892456055
-2.2331235408782959 2.1903386116027832 0.0366147495806217194
0.393092691898345947 1.24594950675964355 0.334042608737945557
0.530985176563262939 1.23412573337554932 0.284634858369827271
0.351476043462753296 -3.10174298286437988 0.198477685451507568
-0.931104421615600586 2.96289157867431641 0.537935853004455566
-0.565079152584075928 1.20793795585632324 0.3792857825756073
1.07696104049682617 -0.826745986938476562 0.122435688972473145
-1.14884829521179199 -0.705465555191040039 0.256643682718276978
0.614696741104125977 1.02737629413604736 0.25780177116394043
-0.46751093864440918 -1.14124727249145508 0.360650092363357544
-1.09662938117980957 2.96713542938232422 0.55440908670425415
2.2085106372833252 -2.07246637344360352 0.0815493836998939514
0.149336427450180054 -3.10187864303588867 0.215494543313980103
-0.832128584384918213 -0.801647484302520752 0.208950981497764587
2.2825782299041748 2.31729865074157715 0.231736764311790466
0.619952380657196045 1.21283948421478271 0.143751382827758789
1.34646952152252197 0.0571804344654083252 0.110526591539382935
1.52188646793365479 2.90681552886962891 0.547962844371795654
0.062300264835357666 -3.02459073066711426 0.207175076007843018
2.14864253997802734 2.40989947319030762 0.250550776720046997
-1.05128669738769531 2.95713472366333008 0.459071636199951172
0.737962603569030762 0.974845826625823975 0.252797424793243408
1.64277267456054688 2.64700484275817871 0.379537820816040039
-0.547034144401550293 -1.10548055171966553 0.259249448776245117
0.704818606376647949 0.941522717475891113 0.157991707324981689
0.223738551139831543 -3.13599491119384766 0.186773151159286499
-1.05769467353820801 -2.88969063758850098 0.148673057556152344
-2.1713402271270752 2.15721654891967773 0.143109947443008423
4.45789718627929688 -3.17736029624938965 0.145010024309158325
-0.608949720859527588 1.1605064868927002 0.692104220390319824
-0.664788365364074707 -1.18447482585906982 0.309663712978363037
1.4589393138885498 2.72978806495666504 0.441650658845901489
-1.12672924995422363 -2.95569157600402832 0.0499274358153343201
2.02251291275024414 2.46756649017333984 0.341080188751220703
0.731306493282318115 1.08227634429931641 0.216240286827087402
2.25855660438537598 -2.13588428497314453 0.0934959948062896729
0.771334826946258545 0.958801567554473877 0.106611885130405426
-1.00468254089355469 3.16767740249633789 0.462353408336639404
-0.744550704956054688 -1.09434771537780762 0.239658117294311523
1.51964914798736572 2.66946005821228027 0.410052210092544556
4.32999849319458008 -3.23986172676086426 0.132863640785217285
0.362801283597946167 1.26187920570373535 0.223994672298431396
-0.631206512451171875 1.16220152378082275 0.36715853214263916
-0.696100711822509766 1.05916452407836914 0.460762828588485718
1.51225090026855469 2.73957228660583496 0.509393215179443359
0.253331243991851807 -3.18979310989379883 0.302086740732192993
1.71149492263793945 2.51776623725891113 0.287145167589187622
1.41125106811523438 0.108795158565044403 0.153578415513038635
4.39832544326782227 -3.15690946578979492 0.385327309370040894
0.509755253791809082 1.08984267711639404 0.290171772241592407
4.49929141998291016 -3.09404754638671875 0.153093829751014709
-0.972577333450317383 -0.74645686149597168 0.125046208500862122
1.94069004058837891 2.48618054389953613 0.356813758611679077
-0.967846810817718506 -0.752408087253570557 0.232012316584587097
0.257849633693695068 -3.1496732234954834 0.0763679295778274536
-1.04750561714172363 -0.716018795967102051 0.287048220634460449
0.89431154727935791 1.05948984622955322 0.17634156346321106
-1.12978136539459229 2.98350787162780762 0.479108721017837524
0.248117610812187195 -3.02982354164123535 0.0912988930940628052
-0.637496232986450195 0.999839842319488525 0.334649384021759033
0.670550525188446045 1.02409458160400391 0.174180060625076294
-1.05579829216003418 -0.819735229015350342 0.218247115612030029
-0.611877560615539551 -1.12888717651367188 0.432782292366027832
0.638282358646392822 1.17337095737457275 0.276270031929016113
1.27840268611907959 0.161004841327667236 0.201891809701919556
2.13295745849609375 2.35334873199462891 0.20465049147605896
1.51561892032623291 2.82771587371826172 0.409728735685348511
0.79205554723739624 1.17617118358612061 0.190164640545845032
0.189375415444374084 1.33890187740325928 0.480368703603744507
-2.16037130355834961 2.19084334373474121 0.0281643904745578766
2.3172001838684082 -2.09568619728088379 0.12644590437412262
-2.21876430511474609 2.09174489974975586 0.114638954401016235
0.45248723030090332 1.15296256542205811 0.240436911582946777
-0.988043069839477539 2.78992176055908203 0.347849637269973755
0.139183193445205688 -2.95473146438598633 0.15414486825466156
-1.03080487251281738 2.72633671760559082 0.44934728741645813
0.299409687519073486 1.35731899738311768 0.344835937023162842
0.682676613330841064 1.11337900161743164 0.25768202543258667
1.38288331031799316 0.17672845721244812 0.180400535464286804
2.3953251838684082 -2.08211827278137207 0.0393984355032444
-0.582495689392089844 1.26450777053833008 0.700793623924255371
0.470265418291091919 1.22254490852355957 0.250433653593063354
-0.745554625988006592 1.06904447078704834 0.40693962574005127
-0.994896590709686279 2.64812064170837402 0.467161238193511963
1.57424294948577881 2.71365785598754883 0.413092374801635742
4.39541149139404297 -3.25328683853149414 0.166827231645584106
0.130805149674415588 -3.08956098556518555 0.149282142519950867
0.109751284122467041 -3.09713912010192871 0.288222819566726685
1.5595935583114624 2.91637825965881348 0.406104981899261475
