ply
format ascii 1.0
element vertex 254
comment vertices
property float x
property float y
property float z
end_header
2.0981900691986084 -2.30632400512695312 0.0826233625411987305
-5.12548971176147461 -1.99245536327362061 0.198696166276931763
-1.83535432815551758 2.61876606941223145 0.398905098438262939
-1.10709142684936523 -0.731843709945678711 0.413563847541809082
0.92884981632232666 0.871132075786590576 0.220229566097259521
0.967280983924865723 -0.952563345432281494 0.368744581937789917
-0.920989751815795898 0.961653590202331543 0.21244320273399353
-2.79174351692199707 -1.365226149559021 0.170163601636886597
2.93623590469360352 -0.993924200534820557 0.100422173738479614
1.2839963436126709 -0.0123985931277275085 0.378357201814651489
0.317865073680877686 -1.31855154037475586 0.128562659025192261
-1.20653092861175537 0.536579728126525879 0.564038693904876709
0.512482523918151855 1.22567117214202881 0.182469114661216736
1.29967474937438965 0.311093360185623169 0.132137596607208252
-1.78602015972137451 2.4543144702911377 0.104629084467887878
-0.834085166454315186 -1.05859363079071045 0.526742219924926758
-1.08051645755767822 0.702241241931915283 0.340595066547393799
0.386722832918167114 -1.22684407234191895 0.112981021404266357
0.632782399654388428 1.10506713390350342 0.238929599523544312
-0.939852476119995117 -0.932229518890380859 0.397520601749420166
1.34975409507751465 0.0906179994344711304 0.322229206562042236
0.981941163539886475 -0.924182653427124023 0.372305423021316528
-1.12202632427215576 -0.673870205879211426 0.368685781955718994
-5.12150812149047852 -1.96965515613555908 0.201988905668258667
1.29367625713348389 0.0257570445537567139 0.33077123761177063
0.98196333646774292 -0.882852852344512939 0.357475370168685913
-1.82316493988037109 2.5822443962097168 0.192614257335662842
-1.02714419364929199 0.783282101154327393 0.203081220388412476
1.30786645412445068 0.20376470685005188 0.142559424042701721
2.89212727546691895 -0.964284360408782959 0.103109456598758698
0.930792033672332764 0.91504746675491333 0.216226771473884583
0.295445442199707031 -1.2295989990234375 0.105533003807067871
-1.2499467134475708 0.532909750938415527 0.484528988599777222
-2.86379861831665039 -1.32966256141662598 0.163274213671684265
0.560730814933776855 1.23187863826751709 0.18673279881477356
1.36232423782348633 -0.00328202545642852783 0.338545739650726318
-0.982163786888122559 -0.900164484977722168 0.479409217834472656
-1.79150617122650146 2.50960540771484375 0.134821370244026184
-1.0772545337677002 -0.788845300674438477 0.366953909397125244
-2.78511381149291992 -1.35320782661437988 0.141950324177742004
2.87430977821350098 -0.958315610885620117 0.107119500637054443
-0.977171242237091064 0.879144787788391113 0.167663693428039551
0.328788578510284424 -1.25455069541931152 0.131867855787277222
-5.08806610107421875 -1.96288084983825684 0.218281447887420654
0.952363550662994385 0.80314403772354126 0.206475242972373962
0.525536656379699707 1.20674335956573486 0.196269512176513672
-0.883102178573608398 -0.938796520233154297 0.399256765842437744
-1.02161252498626709 0.844121098518371582 0.171838745474815369
0.858150064945220947 0.876215815544128418 0.19750666618347168
-1.12211024761199951 -0.667496860027313232 0.38120993971824646
1.33643078804016113 0.0471204966306686401 0.260036259889602661
0.326840400695800781 -1.2309577465057373 0.110191449522972107
-1.17769753932952881 0.527691543102264404 0.479263842105865479
-1.09247946739196777 -0.675602555274963379 0.471407681703567505
0.968475162982940674 -0.921030223369598389 0.37677764892578125
-5.18620634078979492 -1.96267366409301758 0.203204140067100525
-0.978499710559844971 0.77624887228012085 0.189293861389160156
0.403970181941986084 -1.19572651386260986 0.0837097316980361938
-1.07627785205841064 -0.808317959308624268 0.401774346828460693
1.32430386543273926 -0.00703771412372589111 0.342141330242156982
-1.1309884786605835 0.643217086791992188 0.41524583101272583
-1.10663509368896484 0.631960749626159668 0.281649470329284668
-1.1126023530960083 -0.680714726448059082 0.38502347469329834
1.34825766086578369 0.0619525350630283356 0.288465023040771484
0.324431836605072021 -1.24193799495697021 0.120032534003257751
-1.07707691192626953 -0.748311400413513184 0.308485090732574463
-5.1253361701965332 -1.99411547183990479 0.192686945199966431
-1.12905418872833252 -0.663721799850463867 0.326964408159255981
2.92461299896240234 -0.948932528495788574 0.0930842608213424683
0.977553963661193848 -0.926383554935455322 0.374820739030838013
1.31097710132598877 -0.0165296122431755066 0.350894242525100708
0.973586738109588623 -0.911150515079498291 0.379280984401702881
1.28234970569610596 -0.0235949605703353882 0.367880403995513916
-2.86221528053283691 -1.34513938426971436 0.167253941297531128
-1.80796444416046143 2.51165461540222168 0.132469385862350464
1.31158876419067383 0.0911457911133766174 0.287934094667434692
0.975103497505187988 0.863638460636138916 0.217969968914985657
-1.8060917854309082 2.44747710227966309 0.116868086159229279
2.90241909027099609 -0.988733589649200439 0.108058586716651917
1.34055256843566895 0.167982757091522217 0.247410416603088379
0.278116703033447266 -1.23032093048095703 0.141244128346443176
-5.11533117294311523 -2.00025582313537598 0.215552270412445068
0.549118936061859131 1.23780608177185059 0.219122171401977539
1.267356276512146 0.33119124174118042 0.116989165544509888
0.952781736850738525 0.910609245300292969 0.212533295154571533
-1.25494480133056641 0.545490801334381104 0.518424332141876221
-0.968767642974853516 0.885049998760223389 0.205417230725288391
-2.80730462074279785 -1.33745217323303223 0.140351176261901855
-1.20759439468383789 0.5131186842918396 0.509654045104980469
0.340263724327087402 -1.22413754463195801 0.125103145837783813
-0.972636401653289795 0.787233471870422363 0.203789100050926208
1.34860789775848389 -0.00626189261674880981 0.359792977571487427
-1.78415811061859131 2.51067781448364258 0.126122668385505676
-1.03281223773956299 -0.832526922225952148 0.41429746150970459
-5.12910223007202148 -1.99269473552703857 0.219271406531333923
-1.2065807580947876 0.604982972145080566 0.435503572225570679
1.27231216430664062 0.374337315559387207 0.140547558665275574
-0.850540876388549805 -1.07022380828857422 0.392078161239624023
-0.991792023181915283 0.829810261726379395 0.190016061067581177
-1.10761535167694092 -0.769264817237854004 0.394612103700637817
1.33675265312194824 -0.0309411734342575073 0.373145967721939087
0.355338901281356812 -1.25409412384033203 0.10402592271566391
0.534225583076477051 1.23921728134155273 0.21022389829158783
-1.02509558200836182 -0.821712613105773926 0.39104163646697998
-0.99436718225479126 0.887748420238494873 0.184269338846206665
-5.14841890335083008 -1.99487650394439697 0.217079341411590576
0.984554469585418701 -0.916424214839935303 0.373400479555130005
-1.08239126205444336 -0.773342430591583252 0.417053878307342529
-5.17541742324829102 -1.9616018533706665 0.220901608467102051
2.88831734657287598 -0.958072185516357422 0.104386255145072937
-1.2103123664855957 0.553829491138458252 0.463746577501296997
1.34204614162445068 0.124248579144477844 0.234681040048599243
-1.20515096187591553 0.520589947700500488 0.550245583057403564
-0.931353390216827393 0.921783030033111572 0.208964124321937561
2.90273833274841309 -0.975734293460845947 0.102614305913448334
-5.12032365798950195 -1.96850681304931641 0.223176032304763794
-1.09337818622589111 -0.755020439624786377 0.408994197845458984
-1.07267022132873535 -0.786036550998687744 0.36830669641494751
1.34486484527587891 0.0137310400605201721 0.346493035554885864
-1.80166482925415039 2.5157172679901123 0.141606569290161133
-1.10654842853546143 -0.720998585224151611 0.534897565841674805
1.33110189437866211 -0.0239421576261520386 0.364341884851455688
1.34671485424041748 0.124227628111839294 0.239461138844490051
-2.85676932334899902 -1.33562469482421875 0.156548812985420227
0.981575965881347656 0.851365745067596436 0.211131900548934937
-2.82871222496032715 -1.3629223108291626 0.159895777702331543
0.289768904447555542 -1.24378573894500732 0.135752379894256592
-0.994247376918792725 0.718327522277832031 0.189912647008895874
2.08007597923278809 -2.31713747978210449 0.085118412971496582
1.36127817630767822 0.180149346590042114 0.191809415817260742
0.902861475944519043 0.906115055084228516 0.219003945589065552
-1.79294860363006592 2.47511529922485352 0.12564907968044281
-1.19016551971435547 0.563587069511413574 0.514131546020507812
2.90525937080383301 -0.976899921894073486 0.100834563374519348
-2.82646989822387695 -1.37161719799041748 0.165389090776443481
-1.82945811748504639 2.55695056915283203 0.241959184408187866
0.928171157836914062 0.859094917774200439 0.208704426884651184
-1.21519374847412109 0.605760335922241211 0.399514764547348022
0.971122562885284424 -0.907649040222167969 0.376523375511169434
1.33440768718719482 -0.025346025824546814 0.367238700389862061
-1.25894451141357422 0.53339850902557373 0.52926480770111084
-1.05523824691772461 0.661291360855102539 0.318692862987518311
0.868238151073455811 0.940707027912139893 0.246571183204650879
0.940531611442565918 0.899788618087768555 0.221975654363632202
1.35215342044830322 0.0712841525673866272 0.303459078073501587
0.972773075103759766 -0.91186225414276123 0.371612399816513062
-0.974352598190307617 0.895226001739501953 0.20621277391910553
-1.00835835933685303 0.720234513282775879 0.241839051246643066
-0.840994000434875488 -0.95161813497543335 0.376968920230865479
0.512730419635772705 1.19001173973083496 0.222684621810913086
1.30628752708435059 0.0594882667064666748 0.282144904136657715
-1.12453305721282959 -0.670346081256866455 0.397737294435501099
-1.02539396286010742 -0.868389606475830078 0.411017864942550659
0.307507097721099854 -1.24027383327484131 0.126178354024887085
0.306769311428070068 -1.23219478130340576 0.130945786833763123
0.549993634223937988 1.21035730838775635 0.192135080695152283
-2.83632969856262207 -1.34095406532287598 0.150458842515945435
0.974743127822875977 -0.919982790946960449 0.377664566040039062
0.930445611476898193 0.816747426986694336 0.203749582171440125
2.88058328628540039 -0.988552331924438477 0.112488783895969391
-0.995384395122528076 0.822192490100860596 0.199435904622077942
0.990839362144470215 -0.907428145408630371 0.384916245937347412
1.28646135330200195 -0.0264325812458992004 0.367658525705337524
0.333464562892913818 -1.24003005027770996 0.108096331357955933
-1.7900235652923584 2.50679373741149902 0.116104960441589355
-1.2077178955078125 0.58358687162399292 0.444562315940856934
2.10257148742675781 -2.30897188186645508 0.0671870559453964233
1.28444314002990723 -0.00421029329299926758 0.342963844537734985
-1.03484630584716797 0.86116558313369751 0.167316824197769165
-1.80542945861816406 2.46491456031799316 0.124626770615577698
0.973003089427947998 -0.918361186981201172 0.370571911334991455
-2.87093663215637207 -1.3322291374206543 0.151341065764427185
0.953419864177703857 0.849462211132049561 0.219862565398216248
-0.839844107627868652 -1.02833211421966553 0.410966157913208008
-0.946054697036743164 -0.931711554527282715 0.361311912536621094
-1.02409267425537109 0.816993534564971924 0.181093111634254456
1.31245481967926025 0.0803846120834350586 0.28174358606338501
-5.10369396209716797 -1.98304963111877441 0.217848151922225952
-1.23321855068206787 0.568688511848449707 0.464275538921356201
0.998334228992462158 0.863682925701141357 0.203491762280464172
-1.80081784725189209 2.5287015438079834 0.143611922860145569
0.304582893848419189 -1.24408197402954102 0.112950220704078674
-5.149322509765625 -1.97542595863342285 0.210920959711074829
-1.22382831573486328 0.535175681114196777 0.499413818120956421
-1.15668237209320068 0.667581319808959961 0.328572630882263184
2.07464075088500977 -2.31285309791564941 0.0668009519577026367
-1.21974301338195801 0.536931872367858887 0.527387738227844238
2.93415379524230957 -0.991500735282897949 0.105222493410110474
2.09362220764160156 -2.31803369522094727 0.0811316147446632385
-1.2172313928604126 0.559587955474853516 0.477357923984527588
-1.1045689582824707 -0.688404738903045654 0.366291463375091553
0.346484214067459106 -1.22024118900299072 0.115864783525466919
1.34106814861297607 0.0658087655901908875 0.323415547609329224
-1.06193375587463379 0.716279268264770508 0.20756356418132782
1.2792743444442749 -0.0069237053394317627 0.362797766923904419
1.31718540191650391 0.00843466073274612427 0.341960340738296509
-2.83352804183959961 -1.34113216400146484 0.163514748215675354
-1.09540200233459473 -0.77804410457611084 0.388953179121017456
1.35040318965911865 0.0186657682061195374 0.352399885654449463
2.90980076789855957 -0.966942965984344482 0.0999660640954971313
1.33264589309692383 0.168248951435089111 0.170691579580307007
0.97500765323638916 -0.934900104999542236 0.375974655151367188
1.34959959983825684 0.00757825002074241638 0.328076809644699097
-1.12326431274414062 -0.695780813694000244 0.403424382209777832
2.09564328193664551 -2.29500222206115723 0.0701864808797836304
0.98769080638885498 -0.901064157485961914 0.374550580978393555
2.10055375099182129 -2.29915356636047363 0.0979777425527572632
-5.13662958145141602 -2.00282883644104004 0.191986009478569031
1.27397394180297852 0.363460004329681396 0.111410990357398987
-1.07619929313659668 0.691953659057617188 0.356537908315658569
-0.99374544620513916 -0.856816649436950684 0.411810725927352905
-1.080108642578125 -0.798228740692138672 0.407744675874710083
-1.80894362926483154 2.56639885902404785 0.16761605441570282
1.35187280178070068 0.139335900545120239 0.22975216805934906
-5.10985326766967773 -1.98019278049468994 0.206981956958770752
0.981056153774261475 -0.921512961387634277 0.372910588979721069
0.942485928535461426 0.896923184394836426 0.211870521306991577
-0.993694305419921875 0.770708024501800537 0.178766503930091858
0.950957834720611572 0.876565456390380859 0.21512371301651001
-1.11207270622253418 -0.666877806186676025 0.390828609466552734
0.967721760272979736 0.825500965118408203 0.209785431623458862
1.27341365814208984 0.00526134669780731201 0.345884710550308228
0.531892299652099609 1.23539364337921143 0.179541140794754028
0.561165928840637207 1.222464919090271 0.19560280442237854
0.536233425140380859 1.17461657524108887 0.211530953645706177
0.325121641159057617 -1.25395190715789795 0.121263764798641205
2.89973092079162598 -0.944195747375488281 0.0990121141076087952
-1.12185585498809814 -0.750916481018066406 0.340888410806655884
-0.987005889415740967 0.777830839157104492 0.187583893537521362
-5.15487003326416016 -1.99420547485351562 0.204835295677185059
1.29557085037231445 -0.0303992070257663727 0.340596199035644531
-0.921463131904602051 0.927862167358398438 0.221613854169845581
-1.18537092208862305 0.521834731101989746 0.495666205883026123
-5.175079345703125 -1.96108973026275635 0.197544693946838379
0.529959559440612793 1.25029850006103516 0.195687562227249146
1.37036991119384766 -0.00908043980598449707 0.350234270095825195
1.2497326135635376 0.327667146921157837 0.104820728302001953
1.32223069667816162 -0.0195895209908485413 0.357927113771438599
-1.19970333576202393 0.543559610843658447 0.506327033042907715
-0.903816878795623779 -0.923092007637023926 0.413972079753875732
1.31530404090881348 0.0719165503978729248 0.271660000085830688
-2.82918071746826172 -1.36496102809906006 0.151431530714035034
0.345485985279083252 -1.27829635143280029 0.125898867845535278
-5.1174778938293457 -1.97665965557098389 0.205337285995483398
0.89627993106842041 0.899819493293762207 0.221364080905914307
1.34848189353942871 0.0731776654720306396 0.319541633129119873
1.26929521560668945 0.350809633731842041 0.131975024938583374
-1.24817264080047607 0.579122185707092285 0.472730755805969238
0.901656270027160645 0.928848922252655029 0.223297730088233948
-5.12509584426879883 -1.99846529960632324 0.212164565920829773
-2.8292534351348877 -1.35475254058837891 0.147438317537307739
0.334338575601577759 -1.22396600246429443 0.110956020653247833
-1.78337442874908447 2.47622203826904297 0.101104721426963806
1.25761532783508301 -0.00429660826921463013 0.382458984851837158
