ply
format ascii 1.0
element vertex 64
comment vertices
property float x
property float y
property float z
end_header
-0.474394172430038452 1.24251770973205566 0.361817389726638794
0.443225115537643433 1.2539743185043335 0.100158609449863434
0.928771674633026123 -0.951989054679870605 0.451472759246826172
-2.23284316062927246 2.14885854721069336 0.11752907931804657
-1.12365734577178955 0.711543440818786621 0.0779905244708061218
1.16434311866760254 -0.642810285091400146 0.283614903688430786
0.777936398983001709 -1.07875621318817139 0.393075048923492432
-1.0448380708694458 -0.822929680347442627 0.126858443021774292
1.31017613410949707 0.228776276111602783 0.0635313615202903748
-3.98232793807983398 3.72294521331787109 0.109383627772331238
-2.79293322563171387 1.34264874458312988 0.329785555601119995
-1.32343947887420654 -0.131938621401786804 0.340403616428375244
-3.27062058448791504 4.36145591735839844 0.124686338007450104
1.29809427261352539 -0.289570719003677368 0.131708130240440369
2.96745038032531738 0.892983496189117432 0.160963386297225952
0.126343950629234314 3.09632325172424316 0.396532118320465088
0 0 0
0 0 0
0 0 0
0 0 0
0 0 0
0 0 0
0 0 0
0 0 0
0 0 0
0 0 0
0 0 0
0 0 0
0 0 0
0 0 0
0 0 0
0 0 0
0 0 0
0 0 0
0 0 0
0 0 0
0 0 0
0 0 0
0 0 0
0 0 0
0 0 0
0 0 0
0 0 0
0 0 0
0 0 0
0 0 0
0 0 0
0 0 0
0 0 0
0 0 0
0 0 0
0 0 0
0 0 0
0 0 0
0 0 0
0 0 0
0 0 0
0 0 0
0 0 0
0 0 0
0 0 0
0 0 0
0 0 0
0 0 0
