ply
format ascii 1.0
element vertex 256
comment vertices
property float x
property float y
property float z
end_header
0.379302531480789185 -1.23969602584838867 0.440897434949874878
4.37660026550292969 3.17355179786682129 0.286606907844543457
-2.98223161697387695 0.746558725833892822 0.152639374136924744
1.75580334663391113 2.52783989906311035 0.450486660003662109
-0.480928152799606323 1.22792637348175049 0.290376961231231689
-1.07577276229858398 -2.94676756858825684 0.41374477744102478
1.92049431800842285 -2.44116091728210449 0.251243442296981812
-1.25348985195159912 -0.58479154109954834 0.106199294328689575
1.34344983100891113 -0.176052644848823547 0.371890127658843994
0.708656787872314453 1.11579728126525879 0.077378004789352417
2.58645987510681152 1.69531619548797607 0.321382373571395874
-1.13914084434509277 0.650168895721435547 0.447966217994689941
1.07047092914581299 -0.786743521690368652 0.136349514126777649
-0.807251274585723877 -1.11048209667205811 0.26658707857131958
2.22239041328430176 2.16999363899230957 0.612440228462219238
0.657696843147277832 -1.17885005474090576 0.420508921146392822
1.13497734069824219 -0.506425380706787109 0.125864729285240173
-1.16458654403686523 -0.655634522438049316 0.163044050335884094
1.81618845462799072 2.40520310401916504 0.48893427848815918
-1.18523120880126953 0.678064227104187012 0.470402061939239502
-0.514853537082672119 1.20115506649017334 0.284423887729644775
1.20739448070526123 -0.170876175165176392 0.349080771207809448
2.07276821136474609 2.32174468040466309 0.489915043115615845
0.599918067455291748 -1.18693041801452637 0.483278393745422363
0.240776717662811279 -1.30318284034729004 0.388935208320617676
-0.841842234134674072 -1.06426107883453369 0.257809221744537354
-1.15816175937652588 -0.592694520950317383 0.104340843856334686
1.09709775447845459 -0.682261109352111816 0.118173860013484955
-3.04929876327514648 0.769079208374023438 0.126879483461380005
1.33416235446929932 -0.186903953552246094 0.351301729679107666
-1.16941213607788086 0.68706214427947998 0.462733268737792969
4.34113693237304688 3.14865970611572266 0.261711359024047852
0.937568783760070801 -0.952423632144927979 0.210945487022399902
1.72450828552246094 2.55682897567749023 0.417451798915863037
1.73921799659729004 2.57149410247802734 0.465621888637542725
2.58768820762634277 1.70479917526245117 0.284713208675384521
1.92592930793762207 -2.43238329887390137 0.264876276254653931
-1.12857615947723389 0.674862921237945557 0.450523495674133301
-1.05002832412719727 -2.91228151321411133 0.401378393173217773
0.562688589096069336 -1.18220341205596924 0.471889317035675049
0.692560553550720215 1.09446561336517334 0.103983975946903229
1.24268317222595215 -0.192954391241073608 0.352854549884796143
-1.2269136905670166 -0.568953156471252441 0.14208906888961792
1.11573469638824463 -0.698614954948425293 0.111890122294425964
-0.483375430107116699 1.20945620536804199 0.296453207731246948
4.36827564239501953 3.16463208198547363 0.281080693006515503
-0.808608651161193848 -1.10888206958770752 0.262659698724746704
2.10767531394958496 2.26185989379882812 0.609106063842773438
-1.06377506256103516 -2.89724445343017578 0.407959133386611938
1.90817773342132568 -2.43192958831787109 0.281013250350952148
1.16737210750579834 -0.496083706617355347 0.159759476780891418
1.94331586360931396 -2.41317653656005859 0.270898580551147461
0.283176243305206299 -1.28631532192230225 0.36555778980255127
-1.15844488143920898 0.685802221298217773 0.427074968814849854
-2.97935891151428223 0.743809998035430908 0.149780452251434326
1.31371700763702393 -0.180809855461120605 0.361952245235443115
1.818886399269104 2.50935006141662598 0.417198836803436279
-0.518976092338562012 1.22578763961791992 0.294337183237075806
1.11495304107666016 -0.734059691429138184 0.118126116693019867
-1.04404163360595703 -2.92796564102172852 0.414128303527832031
4.34028720855712891 3.16791749000549316 0.261808961629867554
2.0901031494140625 2.32768917083740234 0.508931398391723633
-3.02765464782714844 0.751740038394927979 0.139740586280822754
1.88931798934936523 2.49621009826660156 0.492126762866973877
0.508250951766967773 -1.18786191940307617 0.466992586851119995
0.568033516407012939 -1.17878830432891846 0.492763340473175049
-1.22553718090057373 -0.574417948722839355 0.0966187193989753723
2.55381131172180176 1.73579204082489014 0.312137901782989502
1.05087459087371826 -0.919526338577270508 0.128062993288040161
0.293074131011962891 -1.28894877433776855 0.383062005043029785
-1.14808309078216553 0.658760905265808105 0.438441097736358643
0.710733592510223389 1.08830928802490234 0.0828614979982376099
-1.05922281742095947 -2.91429710388183594 0.402141541242599487
1.31770682334899902 -0.182874485850334167 0.366823375225067139
0.310282438993453979 -1.25701069831848145 0.424999713897705078
1.75812673568725586 2.55617928504943848 0.43370547890663147
-0.800084233283996582 -1.10924673080444336 0.2690468430519104
0.651468396186828613 -1.17027580738067627 0.419670999050140381
-0.4985390305519104 1.20641660690307617 0.304816573858261108
-3.02327609062194824 0.764122962951660156 0.151776820421218872
1.08412611484527588 -0.728916525840759277 0.123481966555118561
0.888634681701660156 -0.952347099781036377 0.230326294898986816
1.20340502262115479 -0.183964431285858154 0.260260641574859619
1.09967732429504395 -0.655600130558013916 0.0874670594930648804
-1.12066960334777832 0.645821928977966309 0.474337577819824219
2.20252799987792969 2.22328853607177734 0.568766176700592041
1.35269498825073242 -0.153299242258071899 0.366601705551147461
-1.15143656730651855 0.699019372463226318 0.430274635553359985
1.33631467819213867 -0.188308045268058777 0.365218758583068848
-3.05168652534484863 0.765006780624389648 0.126262083649635315
4.36820125579833984 3.16661882400512695 0.26771235466003418
-0.843322455883026123 -1.03755903244018555 0.252337008714675903
1.91113150119781494 -2.45345067977905273 0.280378043651580811
0.633946537971496582 -1.17815208435058594 0.467768430709838867
-1.19799196720123291 -0.575004279613494873 0.157607734203338623
0.368379890918731689 -1.2147601842880249 0.391210258007049561
1.12410235404968262 -0.711432993412017822 0.124412402510643005
1.0570300817489624 -0.722560882568359375 0.0989146828651428223
-0.492227911949157715 1.24831199645996094 0.282074213027954102
-1.18639326095581055 -0.609512031078338623 0.093780025839805603
1.7935861349105835 2.52361798286437988 0.448454380035400391
1.74946749210357666 2.55517053604125977 0.439262062311172485
-1.06505763530731201 -2.93722391128540039 0.401472598314285278
1.93147194385528564 -2.41881275177001953 0.246594235301017761
-1.15754079818725586 0.734276771545410156 0.451499998569488525
1.32541906833648682 -0.169105127453804016 0.367782354354858398
1.20860874652862549 -0.220072120428085327 0.331973552703857422
-1.17983579635620117 0.717257797718048096 0.43287244439125061
-0.489417076110839844 1.22124910354614258 0.290947139263153076
0.583589732646942139 -1.16872227191925049 0.433108657598495483
1.15576791763305664 -0.233846962451934814 0.271146118640899658
2.59930872917175293 1.69782018661499023 0.305834800004959106
1.07774615287780762 -0.809860169887542725 0.131678402423858643
-1.25462830066680908 -0.554938137531280518 0.118065506219863892
0.725700736045837402 -1.08908843994140625 0.364048779010772705
1.1002357006072998 -0.695574641227722168 0.102856479585170746
-0.809446930885314941 -1.11527979373931885 0.267153084278106689
-2.98553299903869629 0.762747824192047119 0.164753943681716919
-1.05995380878448486 -2.90437889099121094 0.406191170215606689
4.35213088989257812 3.17169952392578125 0.275410324335098267
-1.15457189083099365 0.670925557613372803 0.473673999309539795
-0.811313807964324951 -1.09485280513763428 0.261532306671142578
-1.15589761734008789 0.683214902877807617 0.448362201452255249
1.92717015743255615 -2.43883299827575684 0.280494570732116699
-3.02286076545715332 0.749926924705505371 0.142692506313323975
1.14644348621368408 -0.532906830310821533 0.101689711213111877
-1.11346101760864258 0.667778432369232178 0.45004543662071228
4.36462545394897461 3.17081809043884277 0.280830055475234985
0.58046489953994751 -1.17658281326293945 0.481593042612075806
1.90898740291595459 2.38701295852661133 0.470878928899765015
1.33284580707550049 -0.162290096282958984 0.342252999544143677
1.95873856544494629 2.36416840553283691 0.492334574460983276
1.14811027050018311 -0.546501398086547852 0.159762591123580933
0.692143917083740234 1.1043848991394043 0.087895512580871582
-1.1551659107208252 0.67570340633392334 0.446006298065185547
1.74772727489471436 2.53724145889282227 0.430440843105316162
2.15935325622558594 2.2721867561340332 0.53386920690536499
2.55808544158935547 1.73238933086395264 0.340139567852020264
-0.807175636291503906 -1.07735490798950195 0.268502384424209595
0.735170662403106689 -1.05262351036071777 0.352972239255905151
0.276089191436767578 -1.27858626842498779 0.384375989437103271
-1.13507616519927979 -0.690521478652954102 0.167879506945610046
0.637001216411590576 -1.16060090065002441 0.435936689376831055
1.08808636665344238 -0.698231875896453857 0.103643491864204407
-0.495945364236831665 1.20405542850494385 0.293061733245849609
-3.04802703857421875 0.768688201904296875 0.131111606955528259
1.94489645957946777 -2.43082928657531738 0.268199145793914795
2.12278437614440918 2.25570011138916016 0.58763498067855835
-1.12916254997253418 -0.609250903129577637 0.177762433886528015
2.19557809829711914 2.16078352928161621 0.62387549877166748
1.07559633255004883 -0.744049310684204102 0.122803956270217896
-0.483829289674758911 1.21614670753479004 0.287413179874420166
-2.99715423583984375 0.738889157772064209 0.152788475155830383
1.7261815071105957 2.56254243850708008 0.449892818927764893
-0.834510982036590576 -1.06022310256958008 0.245800316333770752
2.05103754997253418 2.33225584030151367 0.602098643779754639
-0.515199840068817139 1.22432196140289307 0.295279830694198608
1.30969178676605225 -0.179373636841773987 0.349405527114868164
-0.461941331624984741 1.23374021053314209 0.316536128520965576
4.39096832275390625 3.17528033256530762 0.281806409358978271
1.3066413402557373 -0.175526589155197144 0.351910799741744995
-0.487840443849563599 1.20665884017944336 0.294320434331893921
1.96989536285400391 2.37719607353210449 0.456512123346328735
1.07869637012481689 -0.809171915054321289 0.120643913745880127
1.79737842082977295 2.53125762939453125 0.465767204761505127
-1.13890647888183594 0.657544493675231934 0.438924700021743774
0.628424167633056641 -1.20176529884338379 0.490168929100036621
-3.02885770797729492 0.753189265727996826 0.141470968723297119
-0.508332788944244385 1.22308039665222168 0.299182265996932983
0.422613352537155151 -1.22082400321960449 0.469516634941101074
0.71984100341796875 1.10543131828308105 0.0906244665384292603
1.13680589199066162 -0.739603996276855469 0.119433969259262085
-1.24131894111633301 -0.551508069038391113 0.137743458151817322
0.663428544998168945 -1.16580867767333984 0.400814324617385864
1.93218839168548584 -2.43578863143920898 0.279211103916168213
-1.055733323097229 -2.9013979434967041 0.397609323263168335
-0.810757637023925781 -1.10504996776580811 0.272559195756912231
-1.14078879356384277 0.658914446830749512 0.451890707015991211
4.3513026237487793 3.15380406379699707 0.258596211671829224
0.887008070945739746 -0.954066038131713867 0.234339460730552673
-1.08203673362731934 -2.9277646541595459 0.414735227823257446
0.542511641979217529 -1.16559696197509766 0.497138261795043945
1.32818460464477539 -0.176522210240364075 0.371439963579177856
1.95819604396820068 -2.4359581470489502 0.270387202501296997
2.22641587257385254 2.17568302154541016 0.590146362781524658
0.247568055987358093 -1.30359601974487305 0.379687011241912842
0.986842811107635498 -0.955350518226623535 0.196355491876602173
1.3395615816116333 -0.168102994561195374 0.36258813738822937
-1.13237309455871582 0.650266528129577637 0.468522429466247559
4.33827304840087891 3.17977261543273926 0.282453775405883789
0.541360676288604736 -1.17815732955932617 0.487455546855926514
1.30381011962890625 -0.188766703009605408 0.373005151748657227
-1.17939186096191406 0.708592116832733154 0.442025929689407349
-1.17087650299072266 -0.587921380996704102 0.120935626327991486
1.75533342361450195 2.55288290977478027 0.442794770002365112
-1.0604478120803833 -2.92913150787353516 0.415660649538040161
1.91178953647613525 -2.43717479705810547 0.266367793083190918
0.304795205593109131 -1.28369772434234619 0.386303126811981201
4.36302089691162109 3.16878199577331543 0.274065732955932617
-1.15615308284759521 0.700734913349151611 0.445298969745635986
-0.47748565673828125 1.21798944473266602 0.293323755264282227
0.377731978893280029 -1.23411297798156738 0.408621937036514282
1.33665859699249268 -0.175600811839103699 0.355865061283111572
1.33209455013275146 -0.174010872840881348 0.361143976449966431
1.06025516986846924 -0.740543901920318604 0.12287459522485733
1.85134148597717285 2.37644839286804199 0.496264398097991943
0.636428177356719971 -1.16825485229492188 0.408245563507080078
1.75630533695220947 2.55091142654418945 0.474206984043121338
-1.06594109535217285 -2.93116974830627441 0.412641823291778564
-3.00706028938293457 0.746850311756134033 0.147860437631607056
1.74085128307342529 2.5501868724822998 0.436213463544845581
2.59908866882324219 1.69717669486999512 0.291978418827056885
-2.99283814430236816 0.748776078224182129 0.156168490648269653
1.31635177135467529 -0.175872549414634705 0.375673860311508179
-1.20644891262054443 -0.566549241542816162 0.107563704252243042
-1.05414509773254395 -2.92421317100524902 0.395376741886138916
1.31570708751678467 -0.186821401119232178 0.368670076131820679
1.13112425804138184 -0.607140481472015381 0.161547437310218811
0.635805070400238037 -1.16903054714202881 0.459762871265411377
-0.499478310346603394 1.18921875953674316 0.288761138916015625
-1.14481163024902344 0.682341814041137695 0.420983374118804932
0.714587569236755371 1.10882186889648438 0.0861090272665023804
4.35168743133544922 3.16282105445861816 0.254060506820678711
1.96795845031738281 2.39385819435119629 0.480125963687896729
4.35950994491577148 3.16939544677734375 0.265090346336364746
1.05918359756469727 -0.811170041561126709 0.136523276567459106
1.08117938041687012 -0.726575732231140137 0.105503350496292114
-1.12811374664306641 0.672343552112579346 0.462636709213256836
0.57244873046875 -1.18147397041320801 0.48478621244430542
1.21163320541381836 -0.203796863555908203 0.35850110650062561
0.718365788459777832 -1.03610265254974365 0.362827003002166748
1.994118332862854 2.36214256286621094 0.471747517585754395
0.567670822143554688 -1.19111096858978271 0.497759342193603516
-0.796150743961334229 -1.10802733898162842 0.26725316047668457
1.10613024234771729 -0.683216691017150879 0.103508070111274719
1.81917333602905273 2.52195501327514648 0.451720118522644043
0.417844116687774658 -1.23613548278808594 0.447705507278442383
-1.14841759204864502 0.692038357257843018 0.425120651721954346
2.5917198657989502 1.70218324661254883 0.324516892433166504
1.10688865184783936 -0.692416071891784668 0.0983232706785202026
0.706258893013000488 1.09691035747528076 0.0933436304330825806
0.649040102958679199 -1.18069326877593994 0.441544055938720703
-1.22782981395721436 -0.572998523712158203 0.0882157981395721436
1.91168010234832764 -2.43875598907470703 0.283807247877120972
-0.798200428485870361 -1.11831295490264893 0.269246339797973633
-0.478456228971481323 1.21982491016387939 0.290044665336608887
-0.50039517879486084 1.21110665798187256 0.295359522104263306
2.56803250312805176 1.70004677772521973 0.303267598152160645
1.95179343223571777 -2.43275260925292969 0.275945365428924561
2.2001190185546875 2.21038269996643066 0.590453624725341797
0.898405134677886963 -0.949185848236083984 0.253882706165313721
2.57605552673339844 1.70591771602630615 0.300655007362365723
-0.501574456691741943 1.21815395355224609 0.294629335403442383
1.94376921653747559 -2.42005705833435059 0.260407537221908569
-1.1599581241607666 0.70631861686706543 0.431015968322753906
-0.843338251113891602 -1.04620063304901123 0.259105920791625977
