ply
format ascii 1.0
element vertex 256
comment vertices
property float x
property float y
property float z
end_header
0.828043997287750244 1.0585930347442627 0.42481115460395813
3.64526176452636719 4.12934637069702148 0.0356846004724502563
2.6556699275970459 -1.7533797025680542 0.121451973915100098
-0.889654874801635742 -1.1526482105255127 0.288617372512817383
3.05933856964111328 0.3006572425365448 0.612272381782531738
-1.14945995807647705 0.851865053176879883 0.1066623255610466
1.71572136878967285 2.68887829780578613 0.100769892334938049
1.02988290786743164 -0.805034816265106201 0.242127031087875366
-1.33182597160339355 -0.160750523209571838 0.654301941394805908
-0.145360484719276428 1.2931826114654541 0.131837576627731323
1.38528168201446533 0.191529214382171631 0.270622104406356812
0.0138319004327058792 -1.29896879196166992 0.457497358322143555
-0.737431108951568604 1.09033751487731934 0.609696030616760254
3.13992977142333984 0.107855752110481262 -0.0282680466771125793
-1.23060035705566406 -0.181346774101257324 -0.0102729750797152519
1.30201864242553711 -0.392739713191986084 0.63930213451385498
0.617782115936279297 -1.22494542598724365 0.222127020359039307
-0.919721305370330811 -0.648162722587585449 0.127388536930084229
0.349209427833557129 1.28228557109832764 0.305440574884414673
0.567502140998840332 1.29279041290283203 0.70775914192199707
1.33663058280944824 -0.286027818918228149 0.204950064420700073
1.13128864765167236 -0.768042504787445068 0.64091789722442627
-0.586259901523590088 1.16675484180450439 0.280512422323226929
-0.00130239501595497131 1.23756539821624756 0.447937071323394775
-1.19221985340118408 -0.273974865674972534 0.358865141868591309
-0.899207115173339844 0.957075238227844238 0.294011235237121582
-0.0994552075862884521 -1.28168833255767822 0.148865625262260437
3.10841894149780273 0.20647895336151123 0.277873694896697998
0.677649736404418945 -1.07235050201416016 0.483594357967376709
1.27441823482513428 -0.543954908847808838 0.358640134334564209
0.768243491649627686 -0.970913171768188477 0.155208885669708252
1.17271029949188232 -0.0196312740445137024 0.272170722484588623
1.03699564933776855 0.956414759159088135 0.273995190858840942
0.666861891746520996 1.28024160861968994 0.458097159862518311
-0.91484832763671875 -0.940517902374267578 0.14381292462348938
-0.663959324359893799 -1.17716574668884277 0.168800175189971924
1.27340269088745117 0.115337371826171875 0.0619135499000549316
1.26586484909057617 -0.231091246008872986 0.45759207010269165
-0.727652847766876221 -0.985747635364532471 0.32352033257484436
-1.27221250534057617 -0.361855387687683105 0.131909936666488647
-0.981809020042419434 0.700223743915557861 0.0842108279466629028
3.11809515953063965 0.308987289667129517 0.0457415729761123657
-0.731498360633850098 0.979780673980712891 0.424160420894622803
1.67709660530090332 2.48374128341674805 0.130072489380836487
1.22519147396087646 -0.586336791515350342 0.598788619041442871
1.38095927238464355 -0.0103783011436462402 0.219569191336631775
1.16520655155181885 -0.721113741397857666 0.443738967180252075
1.13002252578735352 -0.634243905544281006 0.198139786720275879
-0.402487397193908691 1.21147298812866211 0.353067755699157715
0.999688982963562012 0.976485371589660645 0.493978500366210938
-0.0228129476308822632 1.40297210216522217 0.333382338285446167
0.616962671279907227 -1.03083014488220215 0.271290034055709839
-0.0749448537826538086 -1.40035796165466309 0.307463765144348145
2.5773463249206543 -1.59113764762878418 0.0362863391637802124
-1.26985371112823486 -0.143881842494010925 0.171504497528076172
-0.0647350102663040161 -1.28127634525299072 0.626859903335571289
0.798548221588134766 1.01969265937805176 0.604706466197967529
0.0123342722654342651 1.25287139415740967 0.234887421131134033
0.74164348840713501 -1.18665313720703125 0.349955469369888306
1.20841658115386963 0.20255616307258606 0.265782296657562256
-0.985120177268981934 0.84778904914855957 0.181821435689926147
-0.777321577072143555 1.14989972114562988 0.429804086685180664
-1.12744545936584473 0.69510495662689209 0.178949207067489624
0.900655567646026611 -0.859478652477264404 0.14090391993522644
-0.134192392230033875 1.25062036514282227 0.342431753873825073
1.20749950408935547 -0.140428826212882996 0.160016000270843506
-0.737100422382354736 -1.15217220783233643 0.358578652143478394
1.29783260822296143 -0.377516388893127441 0.339440345764160156
1.17659652233123779 -0.464993953704833984 0.496435433626174927
0.709733307361602783 1.22253334522247314 0.604199826717376709
1.31789314746856689 -0.087294355034828186 0.406282663345336914
0.637441456317901611 1.37462115287780762 0.589447259902954102
0.689639568328857422 1.12072837352752686 0.378155916929244995
-0.057710450142621994 -1.24538934230804443 0.327574610710144043
2.7485804557800293 -1.63959848880767822 0.0747403353452682495
1.42310559749603271 0.121506042778491974 0.0753120183944702148
1.74630439281463623 2.58659934997558594 0.215048789978027344
0.593126416206359863 -1.18026852607727051 0.360701024532318115
0.777424156665802002 -0.95540618896484375 0.301091372966766357
1.29119229316711426 0.0874176844954490662 0.269231438636779785
1.41648256778717041 -0.145309492945671082 0.23375210165977478
3.08181047439575195 0.267832398414611816 0.399098873138427734
0.920911312103271484 1.01819217205047607 0.306355208158493042
0.54447019100189209 1.26343190670013428 0.404162853956222534
3.20972156524658203 0.237631320953369141 -0.0226795673370361328
-0.85822749137878418 1.01200282573699951 0.453140914440155029
2.60009312629699707 -1.72193765640258789 0.0068590361624956131
-1.1307748556137085 -0.171067655086517334 0.0739960670471191406
1.29960119724273682 -0.458271682262420654 0.236456871032714844
1.17777442932128906 0.186095952987670898 0.140350431203842163
-0.713155686855316162 0.999445140361785889 0.296972423791885376
2.64770317077636719 -1.62115263938903809 0.153854727745056152
1.08852028846740723 -0.713849902153015137 0.311728388071060181
0.591876745223999023 1.21679139137268066 0.541101753711700439
-0.97626960277557373 0.991735100746154785 0.199392154812812805
1.30182373523712158 0.191983848810195923 0.175229951739311218
0.981395363807678223 -0.771386027336120605 0.3540496826171875
-1.30818521976470947 -0.285312622785568237 0.0380060523748397827
-1.02813529968261719 0.851450622081756592 0.0653455853462219238
1.78830456733703613 2.52536916732788086 0.0956166684627532959
-0.806435823440551758 -0.68989795446395874 0.145187780261039734
0.746531069278717041 1.12622988224029541 0.540264725685119629
3.13701486587524414 0.210617244243621826 0.113202817738056183
-0.806637287139892578 -0.982527494430541992 0.171691060066223145
1.29286038875579834 -0.201131194829940796 0.345487087965011597
1.29149878025054932 -0.364156961441040039 0.4574146568775177
1.24298346042633057 -0.641875386238098145 0.485392212867736816
-0.997476458549499512 0.727425515651702881 0.198534876108169556
0.897286415100097656 1.02706241607666016 0.542141199111938477
-0.655798196792602539 -1.07334446907043457 0.302726566791534424
-1.18364453315734863 -0.220230236649513245 0.170716062188148499
1.34025740623474121 0.00283661484718322754 0.113209113478660583
-0.663410007953643799 1.16121935844421387 0.432954877614974976
1.23034083843231201 -0.549580276012420654 0.253225624561309814
3.57764482498168945 4.09490871429443359 0.120786994695663452
1.28532397747039795 -0.0711106583476066589 0.298685669898986816
0.735747456550598145 -1.05940902233123779 0.28322136402130127
-0.844467818737030029 0.915215373039245605 0.383329391479492188
-0.74775230884552002 -1.16133689880371094 0.242318809032440186
1.12680160999298096 -0.659429430961608887 0.613622665405273438
0.928632140159606934 -0.762135863304138184 0.226813778281211853
-0.106756672263145447 1.29465699195861816 0.244447261095046997
-1.0934145450592041 0.81877291202545166 0.195960745215415955
1.62820744514465332 2.56878423690795898 0.081295892596244812
0.64194643497467041 -1.04286730289459229 0.38446652889251709
-0.694462716579437256 1.15522801876068115 0.281663447618484497
-0.0845299810171127319 1.33285260200500488 0.393176406621932983
-0.808171927928924561 -1.08050167560577393 0.318731039762496948
1.16560101509094238 -0.775698959827423096 0.53749161958694458
0.67209017276763916 -1.08026933670043945 0.194338977336883545
0.675541222095489502 -0.93981778621673584 0.197587549686431885
-0.770911276340484619 1.08055830001831055 0.334770411252975464
3.09176111221313477 0.192503437399864197 0.011756163090467453
0.542427122592926025 -1.10448479652404785 0.278442114591598511
-0.734115898609161377 1.03976583480834961 0.509822249412536621
0.672092318534851074 1.31490910053253174 0.667079269886016846
-0.0259117111563682556 1.25951302051544189 0.33102831244468689
-1.28891754150390625 -0.240584537386894226 0.351148456335067749
0.996426880359649658 0.96243363618850708 0.392561227083206177
1.4100492000579834 0.130635723471641541 0.192336425185203552
0.676676511764526367 -1.26507627964019775 0.342818588018417358
-0.0475291311740875244 -1.2904132604598999 0.23703765869140625
-0.962752342224121094 -0.725104689598083496 0.177194967865943909
-1.08076071739196777 0.745556056499481201 0.104621574282646179
1.23013567924499512 0.111358560621738434 0.182818904519081116
-1.24345064163208008 -0.112037315964698792 0.0798531919717788696
0.713522493839263916 -1.20022273063659668 0.238396838307380676
0.679252088069915771 -1.15382099151611328 0.425911843776702881
-0.734240233898162842 -1.04597759246826172 0.244702741503715515
1.38819456100463867 0.0804495513439178467 0.288930684328079224
1.31330680847167969 0.0016158372163772583 0.364978134632110596
-0.00116342725232243538 -1.38322234153747559 0.41050267219543457
-1.28961074352264404 -0.259281694889068604 0.12993544340133667
2.58414196968078613 -1.68770670890808105 0.185094729065895081
-0.0795123279094696045 1.22616517543792725 0.181653842329978943
1.35939764976501465 -0.473439157009124756 0.310958921909332275
3.59251809120178223 4.05364274978637695 0.00912827812135219574
1.33895993232727051 -0.438192754983901978 0.419167488813400269
1.179007887840271 0.0147824287414550781 0.183044910430908203
2.65958070755004883 -1.64952266216278076 0.044177912175655365
1.7226027250289917 2.59577441215515137 0.0856473594903945923
3.13540768623352051 0.127974390983581543 0.06455259770154953
1.25838363170623779 -0.0627728849649429321 0.172205120325088501
0.999540567398071289 -0.702116489410400391 0.218786776065826416
0.7999611496925354 1.01912498474121094 0.504261612892150879
1.22327101230621338 -0.678168952465057373 0.612505435943603516
2.57574915885925293 -1.68875491619110107 0.0926317125558853149
0.363626688718795776 1.19131195545196533 0.313729166984558105
1.29849231243133545 -0.204497277736663818 0.218883991241455078
2.71461153030395508 -1.69244575500488281 0.154368042945861816
-0.819982826709747314 -0.992278218269348145 0.301424682140350342
0.657565832138061523 -1.14097309112548828 0.31058347225189209
-1.22803604602813721 -0.317846566438674927 0.0649495497345924377
-1.30488574504852295 -0.212476015090942383 0.219130247831344604
1.22597527503967285 0.0237655043601989746 0.330375313758850098
1.28723347187042236 -0.313426882028579712 0.531203389167785645
1.28911316394805908 -0.30163419246673584 0.29351729154586792
-0.7807578444480896 1.05337679386138916 0.434087991714477539
0.721000075340270996 1.31361782550811768 0.592722594738006592
0.0129905529320240021 -1.30880475044250488 0.364641547203063965
1.27147233486175537 0.0331533104181289673 0.179826661944389343
-0.556947171688079834 1.18135654926300049 0.362365126609802246
1.35594272613525391 -0.113601446151733398 0.328502684831619263
-0.917815983295440674 0.816324830055236816 0.227139294147491455
1.23785138130187988 -0.50862044095993042 0.634765267372131348
3.19862914085388184 0.182132646441459656 0.0478365719318389893
0.587464213371276855 -1.0835113525390625 0.191591143608093262
1.79255354404449463 2.63613176345825195 0.110926598310470581
-0.907005429267883301 0.911444306373596191 0.22401861846446991
1.21130251884460449 -0.532327651977539062 0.531789779663085938
1.2541046142578125 -0.401586592197418213 0.521685183048248291
3.11033225059509277 0.265861392021179199 -0.0245511382818222046
1.16383969783782959 -0.68909764289855957 0.681421756744384766
-0.775658905506134033 1.13877081871032715 0.51126474142074585
0.930707931518554688 0.933226943016052246 0.4837455153465271
1.32544994354248047 0.0970659106969833374 0.195451796054840088
-1.0182347297668457 0.787352442741394043 0.134891167283058167
-0.115431398153305054 1.35080885887145996 0.32097935676574707
0.894599616527557373 1.01628100872039795 0.408553212881088257
0.293241351842880249 1.24361073970794678 0.348445594310760498
-0.108892291784286499 1.26247954368591309 0.423289209604263306
1.27500569820404053 0.182261213660240173 0.305437266826629639
1.11091768741607666 -0.76408994197845459 0.403858989477157593
0.699207067489624023 -0.970828711986541748 0.267318546772003174
0.586719393730163574 -1.1013103723526001 0.344574570655822754
0.427991390228271484 1.29348421096801758 0.305510103702545166
1.14137172698974609 -0.844266772270202637 0.620725393295288086
1.22881162166595459 -0.736010432243347168 0.488953977823257446
0.603345811367034912 1.22373723983764648 0.721939563751220703
-0.99402695894241333 0.926809906959533691 0.15804038941860199
0.373598754405975342 1.24015355110168457 0.374705731868743896
1.35308647155761719 -0.00977183878421783447 0.292875766754150391
0.811908960342407227 -0.991766631603240967 0.241525962948799133
1.15692400932312012 -0.698506355285644531 0.232311353087425232
-1.29859769344329834 -0.163090914487838745 0.0609984919428825378
-0.732439875602722168 -1.06513690948486328 0.323000967502593994
3.17456603050231934 0.255630016326904297 0.0486787483096122742
-1.33036625385284424 -0.236289530992507935 0.670625567436218262
-0.0873004347085952759 -1.38369619846343994 0.381911724805831909
1.72493112087249756 2.54611873626708984 0.144653484225273132
3.03553986549377441 0.228189736604690552 0.604878544807434082
-0.101916670799255371 1.35339748859405518 0.150273546576499939
-0.0807043462991714478 -1.34863758087158203 0.201014965772628784
-0.778162300586700439 0.985115706920623779 0.364388585090637207
-1.08079791069030762 0.666834592819213867 0.126039564609527588
-0.0283444002270698547 -1.24690580368041992 0.571144461631774902
0.69141387939453125 -1.07915365695953369 0.341809123754501343
-1.18883764743804932 -0.217171326279640198 0.0793655663728713989
3.57007241249084473 4.13147068023681641 0.056780986487865448
1.28760576248168945 -0.262516707181930542 0.386480242013931274
1.42702865600585938 0.0632532909512519836 0.228499323129653931
-0.0604895427823066711 -1.32154285907745361 0.565364360809326172
1.22148406505584717 0.0901233330368995667 0.299387186765670776
1.66449344158172607 2.60635757446289062 0.132421717047691345
0.76112741231918335 1.03058052062988281 0.417124181985855103
1.37090742588043213 -0.406213045120239258 0.285747647285461426
0.580587565898895264 1.2430034875869751 0.463530004024505615
-0.0612422823905944824 1.24364054203033447 0.26734498143196106
-1.3225860595703125 -0.167117372155189514 0.128793492913246155
3.21999549865722656 0.167049497365951538 -0.0282411538064479828
1.19771885871887207 -0.678323507308959961 0.526810646057128906
1.42578256130218506 0.0759434327483177185 0.149501293897628784
2.67911577224731445 -1.59902763366699219 0.0903372913599014282
1.21893179416656494 0.0477649345993995667 0.231713250279426575
-0.0401472747325897217 1.31535518169403076 0.289588093757629395
-0.812564432621002197 -1.13894784450531006 0.225636512041091919
1.18362081050872803 -0.0851574093103408813 0.123435825109481812
-1.06539285182952881 0.721241533756256104 0.215801343321800232
1.38110721111297607 0.0683355033397674561 0.0936267822980880737
-0.78469771146774292 1.07903647422790527 0.546712934970855713
3.64347410202026367 4.11148309707641602 0.104400411248207092
0.752584874629974365 -0.952560782432556152 0.220533043146133423
-0.022681891918182373 1.32728791236877441 0.362093657255172729
0.884316086769104004 1.04459822177886963 0.470771223306655884
-0.157531231641769409 1.30489969253540039 0.291406571865081787
0.625285029411315918 -1.12599575519561768 0.251795083284378052
