ply
format ascii 1.0
element vertex 226
comment vertices
property float x
property float y
property float z
end_header
0.750215232372283936 -1.31203043460845947 0.0332880169153213501
0.146154344081878662 2.65736770629882812 -0.12791229784488678
-1.87710034847259521 -2.15926671028137207 0.444840937852859497
-0.982388794422149658 0.586981892585754395 0.615698575973510742
0.825153112411499023 1.04301214218139648 0.818195521831512451
-0.92468559741973877 -0.808296561241149902 -0.193017885088920593
-0.289303809404373169 1.31116890907287598 0.779899060726165771
0.83699488639831543 1.71898126602172852 0.39925616979598999
-1.27152752876281738 -1.48508942127227783 0.833767056465148926
0.0524205267429351807 -1.00749397277832031 0.420629978179931641
0.462107568979263306 0.626997709274291992 0.0592285245656967163
-1.29335546493530273 -1.7466883659362793 0.0241791307926177979
-0.868944168090820312 -0.108443208038806915 -0.584054172039031982
-0.914783954620361328 -0.310702323913574219 0.156810656189918518
-0.189544275403022766 0.539438962936401367 0.960473001003265381
-1.50049269199371338 -1.34113883972167969 -0.722113728523254395
-1.35035109519958496 -1.35431158542633057 0.227571979165077209
0.584009766578674316 0.396723151206970215 0.809377014636993408
-0.641730070114135742 1.21065258979797363 0.421265721321105957
0.411095649003982544 2.26309299468994141 -0.164627134799957275
0.420268267393112183 1.15470457077026367 0.772693395614624023
0.893632888793945312 -0.645184814929962158 0.424369961023330688
0.171254739165306091 1.08352851867675781 0.259030461311340332
0.999598443508148193 -0.703892886638641357 -0.00673119723796844482
0.601453661918640137 2.10242772102355957 0.307672023773193359
-1.12282240390777588 -1.82235503196716309 0.550404846668243408
-0.974947452545166016 0.209385842084884644 -0.0195354074239730835
0.768881499767303467 0.455869734287261963 0.24440118670463562
-0.737513363361358643 0.413731127977371216 0.0153543595224618912
-0.0223266258835792542 2.05210161209106445 -0.16337132453918457
-0.931561827659606934 -0.594421148300170898 -0.227484926581382751
0.742269694805145264 -0.699974894523620605 -0.113936156034469604
-1.81075012683868408 -1.62173068523406982 0.673351824283599854
-1.18617498874664307 -1.23943471908569336 0.297962933778762817
-0.89837270975112915 -1.41243875026702881 -0.197604835033416748
-0.582455813884735107 0.272324740886688232 0.109138317406177521
-0.0429810434579849243 0.750988483428955078 0.759870231151580811
-0.853683590888977051 -0.148681461811065674 -0.294470727443695068
0.937099158763885498 0.481415390968322754 1.03667664527893066
1.0168759822845459 -1.2635425329208374 0.112730123102664948
-0.601762473583221436 0.615134835243225098 0.551128566265106201
-0.822650671005249023 -0.485944837331771851 0.0322748422622680664
0.19663277268409729 1.93638288974761963 0.277869850397109985
0.637961506843566895 -0.905942261219024658 0.143530607223510742
-1.20438492298126221 -0.89536285400390625 0.058538287878036499
0.668017983436584473 0.83159714937210083 0.48049578070640564
-1.19076037406921387 -1.53820037841796875 0.420178353786468506
-0.932119786739349365 0.104196265339851379 -0.0629542097449302673
-0.914169549942016602 -0.410295248031616211 0.131251543760299683
0.193683326244354248 1.34936046600341797 0.597500920295715332
0.70271831750869751 2.15605521202087402 0.118486464023590088
-1.16825032234191895 -1.61520707607269287 0.128792062401771545
-1.20480084419250488 0.893364608287811279 0.561857402324676514
0.385298401117324829 -0.558729708194732666 0.51214975118637085
0.059927619993686676 0.647033810615539551 0.591037929058074951
-1.58841657638549805 -1.77693164348602295 0.326555371284484863
-0.770452618598937988 -0.652494370937347412 -0.625143468379974365
0.465800344944000244 0.777801334857940674 1.19951295852661133
0.297338128089904785 2.12072014808654785 0.255528718233108521
0.97596818208694458 -0.962610065937042236 0.247043341398239136
1.03596842288970947 -0.461999803781509399 0.101642467081546783
-1.82055652141571045 -1.57527577877044678 0.243065297603607178
0.751108765602111816 0.974026799201965332 0.697219014167785645
0.88106924295425415 0.463182240724563599 0.494338303804397583
0.474107027053833008 2.11890244483947754 0.485888063907623291
1.14753890037536621 0.341516703367233276 0.22193986177444458
0.570582270622253418 -0.601030647754669189 0.280246138572692871
-1.15510058403015137 -1.64021062850952148 0.323888450860977173
0.710839927196502686 1.81945264339447021 0.166918441653251648
1.30208909511566162 0.112915068864822388 0.176208585500717163
-0.378023505210876465 1.04014301300048828 0.69342118501663208
-1.87220668792724609 -2.08900642395019531 0.790892124176025391
-1.00534355640411377 0.0425341129302978516 0.16507585346698761
-0.872355937957763672 0.693582236766815186 0.334342449903488159
0.729383707046508789 0.839850783348083496 0.635609805583953857
0.816639304161071777 -0.799563586711883545 -0.0239911004900932312
-1.36719465255737305 -1.74242711067199707 0.489325016736984253
0.919020295143127441 -0.0784403756260871887 0.062459208071231842
-0.236427456140518188 1.01927375793457031 0.49145999550819397
0.291552156209945679 1.15589094161987305 0.787231206893920898
0.367220282554626465 2.45828151702880859 0.214375883340835571
-0.63005220890045166 -0.0081055760383605957 -0.364375382661819458
0.356801509857177734 0.969154715538024902 0.478371024131774902
0.922462582588195801 -0.647596120834350586 0.333712726831436157
0.083517320454120636 1.45653712749481201 0.523729383945465088
0.325636625289916992 -0.877148628234863281 0.255887120962142944
-0.142141088843345642 0.601470828056335449 0.544127166271209717
-0.600494623184204102 0.752892613410949707 0.946387648582458496
-1.08767533302307129 -0.919345855712890625 -0.436183333396911621
-0.85229337215423584 0.5917319655418396 0.764620125293731689
-1.06733417510986328 0.187246367335319519 0.103961840271949768
-0.778276264667510986 0.458268731832504272 0.354699283838272095
0.706883430480957031 2.05652952194213867 0.135932430624961853
-0.774184226989746094 -0.839329898357391357 -0.302390038967132568
0.642196059226989746 -0.48759692907333374 0.327213883399963379
1.22786736488342285 -1.01667559146881104 -0.0776851475238800049
-1.2617342472076416 -1.15974712371826172 0.533730745315551758
0.524088144302368164 1.5559849739074707 0.611231446266174316
-0.886660456657409668 -0.342306047677993774 0.0608448311686515808
-0.930517911911010742 -0.890373587608337402 -0.805902302265167236
0.172740042209625244 2.35543942451477051 -0.0636320784687995911
0.00153452157974243164 0.860597074031829834 0.624924898147583008
-0.922514796257019043 -0.334525108337402344 -0.11197730153799057
-0.276453405618667603 1.01730179786682129 1.10179519653320312
-1.36774253845214844 -1.62548482418060303 -0.121811404824256897
-0.301705777645111084 1.21158242225646973 0.521837174892425537
0.564900338649749756 1.85787653923034668 0.100665494799613953
-1.44965362548828125 -1.39607763290405273 0.428744703531265259
-0.780357122421264648 -0.601937353610992432 -0.181811854243278503
1.1109083890914917 0.338078439235687256 0.477716207504272461
-1.46488916873931885 -1.59766197204589844 0.353847801685333252
0.461603730916976929 -0.835908055305480957 0.312062829732894897
0.16700822114944458 2.08495855331420898 0.203441053628921509
-0.798837423324584961 0.257010042667388916 0.331284135580062866
0.573768854141235352 1.82062375545501709 0.431933879852294922
0.432025879621505737 1.35870158672332764 0.800408005714416504
0.797037065029144287 0.218633711338043213 1.12726235389709473
-0.768662691116333008 0.719737887382507324 0.318062484264373779
-1.41998374462127686 -1.65102863311767578 0.673660397529602051
1.07316768169403076 -0.957549214363098145 0.205076083540916443
-1.70554089546203613 -1.33648538589477539 0.351551175117492676
1.12766396999359131 0.915462911128997803 0.463419258594512939
0.848674595355987549 -0.994704365730285645 -0.0230549685657024384
1.04824721813201904 -0.507391571998596191 0.0219201706349849701
0.655982673168182373 1.30229818820953369 0.676953017711639404
0.771137356758117676 1.00570988655090332 0.50815349817276001
-0.983996093273162842 -0.120651334524154663 -0.113778799772262573
-0.223065286874771118 0.95142674446105957 0.515012085437774658
0.683692991733551025 -0.542941868305206299 -0.124981701374053955
-0.968805909156799316 -0.0745435357093811035 0.114150851964950562
-0.195556521415710449 1.16599822044372559 0.92268216609954834
0.573594868183135986 0.87425541877746582 0.552569687366485596
0.864461898803710938 -0.704397678375244141 0.106195807456970215
0.610715866088867188 -0.796382784843444824 0.489101409912109375
0.67832416296005249 1.0160820484161377 0.579860985279083252
0.411513328552246094 2.18484020233154297 0.0696382597088813782
-0.89227670431137085 -0.483571112155914307 0.136166751384735107
0.506911516189575195 0.742051661014556885 0.932591617107391357
0.405109584331512451 2.48216843605041504 0.183776408433914185
-0.903117775917053223 0.229861989617347717 0.0908988714218139648
0.78272402286529541 -1.14771223068237305 0.1314048171043396
-0.0401244685053825378 1.0588991641998291 0.643895983695983887
0.467150509357452393 -0.590065598487854004 0.305088579654693604
0.407161325216293335 -0.599386632442474365 0.0109293758869171143
0.835743427276611328 1.70627808570861816 0.362903952598571777
-1.35155737400054932 -1.65618371963500977 0.246422797441482544
0.449814349412918091 -0.264284372329711914 0.0642144381999969482
-0.590973854064941406 0.568462967872619629 0.416815251111984253
-0.897335410118103027 0.967308282852172852 0.413542866706848145
0.926553666591644287 0.211763083934783936 0.129566669464111328
-0.729886531829833984 0.578796267509460449 0.268461138010025024
1.10744619369506836 0.27862122654914856 0.254611074924468994
0.312434941530227661 -0.597831904888153076 0.24404260516166687
-1.24938499927520752 -1.22464108467102051 0.404583275318145752
-1.1258544921875 -1.65957605838775635 0.510992646217346191
-1.51789581775665283 -1.40254426002502441 0.469344496726989746
-0.143100306391716003 0.5911446213722229 0.828655064105987549
-0.956542134284973145 0.766389846801757812 0.739457070827484131
1.06875956058502197 0.517646074295043945 0.325117945671081543
-1.93321776390075684 -2.23899292945861816 0.208567127585411072
0.571896910667419434 -0.832447409629821777 -0.0287034064531326294
-0.885481774806976318 -0.181940227746963501 0.2487143874168396
0.0214748010039329529 2.49349570274353027 0.198436588048934937
0.915195286273956299 0.326746493577957153 0.385184377431869507
-1.45603621006011963 -1.4274057149887085 0.536475241184234619
-0.885621607303619385 -0.018539726734161377 -0.384436666965484619
0.728492796421051025 1.92770218849182129 0.1525450199842453
0.892054736614227295 0.385359466075897217 1.09690046310424805
0.310545176267623901 2.09249401092529297 -0.0534221157431602478
0.896308064460754395 -1.08265721797943115 0.150195419788360596
-0.751069486141204834 0.53860175609588623 0.227281078696250916
0.30863577127456665 2.17316794395446777 0.435171514749526978
-0.162187501788139343 1.00964915752410889 0.826287686824798584
-1.06286430358886719 -0.422176718711853027 -0.108805790543556213
1.27253472805023193 0.307659566402435303 0.131583034992218018
0.998575866222381592 -1.10750389099121094 -0.194727331399917603
-0.820320248603820801 -0.63748091459274292 -0.189421743154525757
0.674088001251220703 2.0361478328704834 0.487038761377334595
0.828795075416564941 0.929758548736572266 0.35654747486114502
0.496762245893478394 2.08262205123901367 0.229558348655700684
1.03920102119445801 -0.522139132022857666 0.287114560604095459
-1.99646401405334473 -1.51498401165008545 0.721724808216094971
0.889921665191650391 1.02434217929840088 0.742217659950256348
0.467117458581924438 1.77507245540618896 0.281504422426223755
-0.796205461025238037 0.299173951148986816 0.171678334474563599
-0.107112564146518707 0.772563159465789795 0.495833754539489746
-0.886689424514770508 0.235689938068389893 0.423296034336090088
0.226403623819351196 1.01671314239501953 0.488027215003967285
1.06912815570831299 -0.977091431617736816 0.256215572357177734
0.686462163925170898 -0.891790211200714111 0.0249207094311714172
-0.795205235481262207 -0.518780350685119629 -0.235964655876159668
0.803054451942443848 -0.812697291374206543 0.265934139490127563
0.276630610227584839 1.94721579551696777 0.329250723123550415
0.727541089057922363 -0.945427060127258301 0.347776889801025391
-0.187308520078659058 0.985686063766479492 0.411587804555892944
-1.23257207870483398 -1.6972116231918335 0.427981823682785034
-1.35341036319732666 -1.39534950256347656 0.473307192325592041
1.04448866844177246 -0.710496068000793457 0.140555232763290405
-1.00967240333557129 -1.59493803977966309 -0.117874413728713989
0.887607574462890625 -1.33839273452758789 0.10728117823600769
0.605027318000793457 0.749914884567260742 0.743420004844665527
-1.04599177837371826 0.746720433235168457 0.497718602418899536
-1.27954447269439697 -1.38499760627746582 0.434201925992965698
-1.14374887943267822 -1.40838313102722168 0.30388563871383667
0.73551630973815918 -1.16315531730651855 0.0458704717457294464
0.747242748737335205 -0.696114897727966309 0.422332555055618286
-1.04518485069274902 1.055275559425354 0.466740697622299194
0.781535983085632324 1.18930983543395996 0.373591423034667969
-1.31538581848144531 -1.7396399974822998 0.637167453765869141
0.586122214794158936 0.556582927703857422 0.465052157640457153
-1.15825521945953369 -1.61257100105285645 0.37325596809387207
0.50435173511505127 2.07908797264099121 -0.192748486995697021
0.77750009298324585 0.523502647876739502 0.863402843475341797
-1.75731062889099121 -2.38019061088562012 0.565415859222412109
0.495923697948455811 1.86527788639068604 0.0889279544353485107
0.689131617546081543 0.466143876314163208 0.00190862268209457397
0.886262416839599609 0.482021629810333252 0.277245312929153442
0.850588858127593994 -0.955606400966644287 0.184703439474105835
0.957292675971984863 -1.00702369213104248 -0.134875476360321045
1.01874303817749023 0.341675609350204468 0.302535474300384521
0.0421767905354499817 2.18306612968444824 0.153607040643692017
-0.775286376476287842 0.140662819147109985 0.0202637314796447754
-0.835052251815795898 0.801976919174194336 0.842562198638916016
0.648409724235534668 1.70282661914825439 0.550798714160919189
0.98439478874206543 -0.602912306785583496 0.0827011540532112122
0.615384101867675781 0.808544635772705078 0.645669400691986084
