ply
format ascii 1.0
element vertex 11
comment vertices
property float x
property float y
property float z
end_header
0.768881499767303467 0.455869734287261963 0.24440118670463562
0.88106924295425415 0.463182240724563599 0.494338303804397583
1.14753890037536621 0.341516703367233276 0.22193986177444458
1.1109083890914917 0.338078439235687256 0.477716207504272461
0.926553666591644287 0.211763083934783936 0.129566669464111328
1.10744619369506836 0.27862122654914856 0.254611074924468994
1.06875956058502197 0.517646074295043945 0.325117945671081543
0.915195286273956299 0.326746493577957153 0.385184377431869507
0.689131617546081543 0.466143876314163208 0.00190862268209457397
0.886262416839599609 0.482021629810333252 0.277245312929153442
1.01874303817749023 0.341675609350204468 0.302535474300384521
