ply
format ascii 1.0
element vertex 81
comment vertices
property float x
property float y
property float z
end_header
0.407661676406860352 1.93091487884521484 0.113373145461082458
-0.674232602119445801 0.622020721435546875 0.0484675168991088867
0.327452182769775391 -0.965036571025848389 0.138712823390960693
0.423695862293243408 1.93619537353515625 0.134701997041702271
0.22530008852481842 -1.85148859024047852 0.289655238389968872
0.343589127063751221 -0.969089031219482422 0.16377711296081543
-0.400765031576156616 -1.07000648975372314 0.0371745526790618896
0.411432743072509766 1.9222261905670166 0.131927862763404846
0.294169902801513672 -0.974411308765411377 0.163913309574127197
-1.15259456634521484 -1.7234424352645874 0.0782530605792999268
0.340936183929443359 -0.970597803592681885 0.16576695442199707
0.344690799713134766 -0.953423738479614258 0.144495412707328796
-1.09111666679382324 -1.68755078315734863 0.061553269624710083
0.406075060367584229 1.93106949329376221 0.110071033239364624
-0.939130961894989014 -1.56922030448913574 0.0505699217319488525
0.408883869647979736 1.92284882068634033 0.131210893392562866
0.414948999881744385 1.92985928058624268 0.132398203015327454
0.348046600818634033 -0.970926165580749512 0.168830215930938721
0.404778212308883667 1.94637525081634521 0.126337915658950806
0.410489559173583984 1.91714656352996826 0.129352927207946777
0.334412902593612671 -0.97465217113494873 0.15059545636177063
0.352590441703796387 -0.971722424030303955 0.168870314955711365
0.336268097162246704 -0.968311667442321777 0.143799692392349243
0.323133349418640137 -0.951344072818756104 0.142793536186218262
0.396606743335723877 1.94349169731140137 0.12128690630197525
-0.383210480213165283 -1.08681392669677734 0.0492372512817382812
0.346372395753860474 -0.968537867069244385 0.166437864303588867
0.418944388628005981 1.94129478931427002 0.129838839173316956
0.421695142984390259 1.93323183059692383 0.136592477560043335
0.346366852521896362 -0.95542144775390625 0.144029319286346436
0.208263754844665527 -1.00821638107299805 0.145370244979858398
0.332780838012695312 -0.958527147769927979 0.133708924055099487
0.344344615936279297 -0.970547199249267578 0.169500276446342468
-0.45584183931350708 -0.8657570481300354 0.000890552997589111328
0.406406670808792114 1.93479526042938232 0.128483220934867859
0.402139842510223389 1.94940066337585449 0.117974445223808289
0.350760012865066528 -0.963546335697174072 0.165094509720802307
0.30820620059967041 -0.963233530521392822 0.173006057739257812
0.409279674291610718 1.91737473011016846 0.128055259585380554
0.403996169567108154 1.92496812343597412 0.118248648941516876
0.338645040988922119 -0.963202357292175293 0.153000444173812866
0.432508409023284912 1.94901835918426514 0.138192325830459595
-0.62946927547454834 -1.2475287914276123 0.0313868224620819092
0.338052242994308472 -0.975433230400085449 0.149890020489692688
0.412240564823150635 1.92926549911499023 0.125125914812088013
0.34651610255241394 -0.954751133918762207 0.141206055879592896
0.346829324960708618 -0.960295021533966064 0.146952390670776367
0.412177711725234985 1.93707466125488281 0.130944341421127319
0.323448538780212402 -0.947107315063476562 0.170364454388618469
0.406157255172729492 1.93351662158966064 0.113950625061988831
0.413683891296386719 1.93154227733612061 0.12862861156463623
0.418406486511230469 1.93185985088348389 0.130614683032035828
0.338481813669204712 -0.975336611270904541 0.149755969643592834
0.409346103668212891 1.91924571990966797 0.12915503978729248
0.403150945901870728 1.93415546417236328 0.127040877938270569
0.397436827421188354 1.93516421318054199 0.124049954116344452
0.332425862550735474 -0.970489084720611572 0.151442646980285645
0.332010388374328613 -0.972422897815704346 0.155208706855773926
0.341383039951324463 -0.95034480094909668 0.140254676342010498
0.421943485736846924 1.93748533725738525 0.134874075651168823
0.303003102540969849 -0.969696223735809326 0.168583571910858154
0.408628851175308228 1.93486988544464111 0.12120334804058075
0.335521787405014038 -0.974575936794281006 0.143282532691955566
0.414149552583694458 1.94431841373443604 0.131630614399909973
0.410152137279510498 1.91658258438110352 0.129490792751312256
0.405628442764282227 1.93452966213226318 0.109367907047271729
0.411534667015075684 1.9234921932220459 0.131473332643508911
0.237827062606811523 -0.978705346584320068 0.14761313796043396
0.349293559789657593 -0.972310543060302734 0.174478799104690552
0.349220842123031616 -0.964799463748931885 0.159250855445861816
0.350214630365371704 -0.970334410667419434 0.169533789157867432
0.326326251029968262 -0.958180129528045654 0.157655894756317139
0.31189650297164917 -0.95078742504119873 0.141100585460662842
0.345778346061706543 -0.969438076019287109 0.168859407305717468
0.328782558441162109 -0.962548136711120605 0.152008384466171265
0.346679419279098511 -0.969851136207580566 0.148180246353149414
0.34216347336769104 -0.968023180961608887 0.159009560942649841
0.346487909555435181 -0.956564664840698242 0.142238795757293701
0.242872670292854309 -0.939943313598632812 0.124818414449691772
0.405294984579086304 1.93403220176696777 0.11410224437713623
0.345363259315490723 -0.96185833215713501 0.144785463809967041
