ply
format ascii 1.0
element vertex 256
comment vertices
property float x
property float y
property float z
end_header
0.466854244470596313 1.98753118515014648 0.0657548457384109497
0.14443439245223999 -1.30569279193878174 0.347976803779602051
0.907219409942626953 0.581241488456726074 0.401184439659118652
-0.280869841575622559 -0.906633734703063965 0.478166878223419189
0.340805560350418091 0.510103940963745117 0.436007380485534668
0.360163271427154541 -1.65754258632659912 0.39030793309211731
0.277540445327758789 -1.65215122699737549 0.423499614000320435
0.0971106886863708496 -1.07576823234558105 0.549903452396392822
0.396682113409042358 -0.911386847496032715 0.107762575149536133
0.270365536212921143 1.03649961948394775 0.363407254219055176
-0.140326023101806641 -1.17513632774353027 0.451955884695053101
-0.0249351561069488525 -0.989553928375244141 0.401221007108688354
0.394720196723937988 1.92315995693206787 0.134422734379768372
-0.385815441608428955 1.1258847713470459 0.394949853420257568
0.262497067451477051 -1.76969265937805176 0.457181423902511597
0.425219506025314331 0.465707242488861084 0.371487200260162354
0.340830683708190918 -0.946940600872039795 0.143036335706710815
0.197164595127105713 -1.51282811164855957 0.671053647994995117
-0.265223979949951172 -0.901436328887939453 0.470255672931671143
0.538449287414550781 1.39611601829528809 0.374608784914016724
-0.0149420499801635742 -1.31053638458251953 0.438173055648803711
0.0812087208032608032 -1.45799875259399414 0.375731796026229858
-0.422110795974731445 -0.87822270393371582 0.595176815986633301
0.520186245441436768 -0.151938736438751221 0.426948457956314087
0.300127983093261719 -1.30746912956237793 0.35573500394821167
-0.245577216148376465 -1.06647229194641113 0.498785108327865601
-0.329877495765686035 -0.644855141639709473 0.524438560009002686
0.0956579148769378662 0.995374560356140137 0.371477603912353516
0.212578088045120239 -1.85420107841491699 0.413644373416900635
0.158954918384552002 1.23819828033447266 0.373473197221755981
0.399180173873901367 1.97530829906463623 0.144045829772949219
-0.449540972709655762 1.65348494052886963 0.400257885456085205
0.18059992790222168 -0.928337454795837402 0.201699614524841309
0.278187155723571777 -1.49639832973480225 0.41703343391418457
-0.194452971220016479 -1.07743477821350098 0.499008804559707642
0.303730130195617676 0.323063701391220093 0.419070005416870117
0.031462252140045166 -2.0369875431060791 0.408255100250244141
-0.0510227680206298828 1.23821902275085449 0.388982594013214111
0.212677240371704102 -1.3532787561416626 0.615015625953674316
0.275828778743743896 -0.910569429397583008 0.153778120875358582
0.265630483627319336 -0.970243752002716064 0.092424638569355011
-0.0895488262176513672 -1.43045186996459961 0.446388512849807739
0.244998574256896973 -1.87394034862518311 0.422590494155883789
0.575781822204589844 -1.24699258804321289 0.475591719150543213
0.491698771715164185 2.00390219688415527 0.0693987011909484863
-0.280607700347900391 1.34458267688751221 0.41538730263710022
0.848734557628631592 0.18717879056930542 0.421836346387863159
-0.421692609786987305 -1.28794515132904053 0.478019118309020996
-0.100676536560058594 -0.960732340812683105 0.521713793277740479
0.486044347286224365 0.377532541751861572 0.382679104804992676
-0.214885711669921875 -1.10706949234008789 0.48913884162902832
0.128624796867370605 1.05238175392150879 0.322239309549331665
0.108210757374763489 -1.12808144092559814 0.266467541456222534
0.15256732702255249 -1.85180091857910156 0.432628899812698364
-0.42326056957244873 -0.898034155368804932 0.501265466213226318
-0.269835233688354492 -1.01080417633056641 0.548365473747253418
0.129516810178756714 -1.31509089469909668 0.425669372081756592
-0.228711366653442383 -0.957369089126586914 0.468725085258483887
-0.153294950723648071 1.56775093078613281 0.421939194202423096
0.399199008941650391 2.01081418991088867 0.148246616125106812
0.443681329488754272 1.92125654220581055 0.121860072016716003
0.113130033016204834 -1.25396335124969482 0.437548309564590454
1.01152527332305908 1.47254586219787598 0.411726474761962891
0.267755389213562012 -1.59578704833984375 0.418502837419509888
0.287363529205322266 -0.933950901031494141 0.151559561491012573
0.0808878540992736816 1.01427996158599854 0.377030760049819946
0.15811765193939209 -0.852460503578186035 0.441367655992507935
0.345598161220550537 1.9850761890411377 0.0922287553548812866
-0.346296608448028564 1.7347562313079834 0.431804180145263672
0.0379290282726287842 1.04385781288146973 0.331121593713760376
-0.148665487766265869 1.09043443202972412 0.376467615365982056
0.434608131647109985 1.96836173534393311 0.134019613265991211
-0.041794896125793457 -1.17188751697540283 0.504632055759429932
0.379648566246032715 -1.03820061683654785 0.440951704978942871
0.392042458057403564 -0.876261234283447266 0.13558584451675415
0.299313783645629883 -0.950684964656829834 0.147708803415298462
-0.347501873970031738 1.21890735626220703 0.373554140329360962
0.345212996006011963 -0.914552927017211914 0.109419777989387512
-0.257889509201049805 -1.10387229919433594 0.48796159029006958
-0.426485359668731689 1.70486700534820557 0.422559410333633423
0.498925089836120605 -1.3590390682220459 0.363281518220901489
0.477576971054077148 -1.69903504848480225 0.421121060848236084
0.888701498508453369 0.0857307910919189453 0.413214802742004395
-0.0990259051322937012 1.51830148696899414 0.376115381717681885
-0.0700868964195251465 -1.99653995037078857 0.432892471551895142
0.55016028881072998 1.36292970180511475 0.366236567497253418
0.648324966430664062 -1.50582242012023926 0.409450501203536987
-0.104952692985534668 -1.14119148254394531 0.529195964336395264
0.241218030452728271 -0.892895221710205078 0.107587277889251709
0.255964219570159912 1.1189124584197998 0.354126304388046265
0.391700625419616699 2.0131680965423584 0.08136015385389328
0.192606091499328613 -1.82485377788543701 0.437071532011032104
-0.262021571397781372 -1.13099551200866699 0.502393186092376709
0.039862215518951416 -0.595790624618530273 0.396021068096160889
-0.0270978808403015137 1.14192628860473633 0.371113300323486328
-0.584930539131164551 -1.28611183166503906 0.555445373058319092
0.286532729864120483 -0.943259000778198242 0.141567423939704895
0.456959813833236694 1.89958858489990234 0.0986663475632667542
0.0900257527828216553 0.992584526538848877 0.307667851448059082
0.0356086492538452148 -1.15658366680145264 0.54001462459564209
0.386693984270095825 1.93984484672546387 0.157335042953491211
0.273658514022827148 -0.96460801362991333 0.0908387154340744019
0.721260666847229004 0.134403824806213379 0.396343111991882324
0.0851761922240257263 -1.05549347400665283 0.202943146228790283
0.352443486452102661 -0.931528210639953613 0.0877937152981758118
0.359215378761291504 -0.946690022945404053 0.161266088485717773
-0.168399155139923096 1.47121810913085938 0.387114673852920532
-0.287713408470153809 -1.04163897037506104 0.437920957803726196
0.188962936401367188 -1.34083676338195801 0.382989943027496338
0.287752330303192139 -1.30702149868011475 0.580745160579681396
0.477677524089813232 -1.86456751823425293 0.4510306715965271
0.373704433441162109 1.98114633560180664 0.107809819281101227
0.319995641708374023 2.04061675071716309 0.0918599516153335571
0.305636614561080933 -0.976736247539520264 0.136477753520011902
0.184085682034492493 -1.01116526126861572 0.176237493753433228
-0.124853849411010742 -1.44109022617340088 0.4663657546043396
0.439880400896072388 1.97897160053253174 0.126612395048141479
0.168002128601074219 -1.21114647388458252 0.307775765657424927
-0.193341493606567383 -1.09651541709899902 0.481421828269958496
-0.244661331176757812 0.92968285083770752 0.404251039028167725
0.209828406572341919 -1.39717555046081543 0.387174487113952637
-0.000508278608322143555 1.41739535331726074 0.324976056814193726
0.180092692375183105 0.999710440635681152 0.313549727201461792
0.654232621192932129 0.381991714239120483 0.441899240016937256
0.489696770906448364 2.00121450424194336 0.102757655084133148
-0.197313368320465088 1.0486675500869751 0.372604995965957642
0.292272359132766724 -0.90668022632598877 0.118962131440639496
0.216254323720932007 -1.35199654102325439 0.417213231325149536
0.0628179013729095459 1.2454526424407959 0.392166852951049805
0.158160760998725891 0.988047778606414795 0.331861793994903564
0.397387415170669556 1.88904917240142822 0.153713315725326538
-0.337108492851257324 -1.39802229404449463 0.484472692012786865
-0.451910734176635742 1.4244459867477417 0.439249247312545776
0.0604288578033447266 -1.3575054407119751 0.483968973159790039
0.103476852178573608 -1.05648517608642578 0.566447138786315918
0.209040701389312744 -1.86603868007659912 0.441118150949478149
-0.00231993198394775391 1.65773391723632812 0.412798792123794556
-0.347215473651885986 -1.02638363838195801 0.554198980331420898
0.444664955139160156 0.356492936611175537 0.3853302001953125
0.412138223648071289 -1.47638630867004395 0.412342756986618042
0.343446284532546997 -0.880193948745727539 0.125616729259490967
0.12061704695224762 -1.34189200401306152 0.46683424711227417
0.402679800987243652 -1.53173923492431641 0.443003952503204346
0.196134671568870544 1.02643370628356934 0.327868431806564331
0.0380417108535766602 1.21871650218963623 0.385379910469055176
0.5466727614402771 -0.970302820205688477 0.419640779495239258
0.43970412015914917 1.95112311840057373 0.0922770947217941284
0.225939154624938965 1.04329228401184082 0.33074718713760376
0.83005976676940918 0.418382227420806885 0.404464602470397949
-0.121023178100585938 1.18630790710449219 0.39188539981842041
0.416107654571533203 -1.48962414264678955 0.414674937725067139
0.291920304298400879 -0.967628359794616699 0.0886661410331726074
0.346240043640136719 -1.52853798866271973 0.405960679054260254
0.301186263561248779 -0.955827236175537109 0.102792911231517792
0.364217698574066162 1.96111583709716797 0.110349178314208984
0.566958189010620117 1.43783760070800781 0.426864117383956909
-0.387591242790222168 -0.669253706932067871 0.469581663608551025
-0.318515419960021973 -1.08930933475494385 0.504109382629394531
0.0679576396942138672 -1.1193089485168457 0.416747003793716431
0.146651089191436768 0.968742430210113525 0.326737642288208008
0.229306861758232117 -1.01081466674804688 0.15070807933807373
-0.0631754398345947266 -1.90953588485717773 0.441248834133148193
0.480322331190109253 1.97302865982055664 0.0707442387938499451
-0.363278031349182129 -0.846788883209228516 0.468732565641403198
0.446487605571746826 1.92902398109436035 0.104241028428077698
-0.116378873586654663 -1.02622890472412109 0.508124828338623047
-0.173605799674987793 -1.19158732891082764 0.495858043432235718
0.419278979301452637 1.93177926540374756 0.109637551009654999
0.200555026531219482 0.220749169588088989 0.434579670429229736
-0.521409273147583008 -1.0459519624710083 0.580434679985046387
0.00655600428581237793 -1.10491156578063965 0.419653058052062988
0.489363908767700195 -1.45973432064056396 0.462476432323455811
0.351568162441253662 -0.89401543140411377 0.125276714563369751
-0.209890127182006836 -1.20644783973693848 0.484790384769439697
-0.440216660499572754 -0.911854147911071777 0.428658634424209595
1.01093769073486328 1.15850496292114258 0.427415370941162109
0.159502103924751282 -1.38103795051574707 0.425242394208908081
0.532669186592102051 -1.04424452781677246 0.462556779384613037
0.424029350280761719 1.9780120849609375 0.130447298288345337
0.182817757129669189 1.00930428504943848 0.339050084352493286
0.383230835199356079 1.9967811107635498 0.10834784060716629
-0.298118352890014648 1.07098925113677979 0.384903281927108765
-0.266047537326812744 1.7492835521697998 0.422933638095855713
0.0433834493160247803 -1.07688677310943604 0.246316716074943542
0.392589539289474487 2.04088544845581055 0.10529801994562149
0.144640266895294189 -1.56554615497589111 0.396220773458480835
0.263071328401565552 -1.25787007808685303 0.684836804866790771
0.201761916279792786 1.26232993602752686 0.342208296060562134
1.07529377937316895 1.47459399700164795 0.426060408353805542
0.311920255422592163 -0.869713068008422852 0.128709718585014343
0.387316793203353882 -0.904577851295471191 0.1425924152135849
-0.239814639091491699 -0.716604828834533691 0.476119816303253174
0.575135767459869385 1.37964212894439697 0.371968775987625122
0.579530775547027588 -1.26259469985961914 0.446509599685668945
-0.174715042114257812 -0.993674397468566895 0.47294384241104126
0.332268357276916504 -0.981251716613769531 0.0870413482189178467
0.11166989803314209 0.98161238431930542 0.314259439706802368
0.354675769805908203 1.94635474681854248 0.13354000449180603
-0.0747935771942138672 -1.13878035545349121 0.53872227668762207
0.370881736278533936 1.6858668327331543 0.389442741870880127
-0.19978785514831543 -0.881937265396118164 0.469634115695953369
-0.223227739334106445 -0.976573646068572998 0.522470712661743164
0.200517550110816956 -0.94917452335357666 0.167486801743507385
0.478040039539337158 1.93948256969451904 0.0842693522572517395
0.192407727241516113 -1.44751691818237305 0.409304916858673096
0.35107266902923584 -0.868081271648406982 0.115394078195095062
-0.125038743019104004 1.57864296436309814 0.389925330877304077
0.0106942653656005859 0.950882494449615479 0.35788881778717041
0.356329917907714844 1.94907701015472412 0.100870750844478607
0.315075159072875977 0.371495187282562256 0.461477547883987427
0.193695619702339172 1.15332996845245361 0.326406270265579224
0.0633324980735778809 1.3203270435333252 0.385185718536376953
0.447716176509857178 1.96841084957122803 0.138578206300735474
0.515855193138122559 1.99729061126708984 0.0813451409339904785
-0.22908174991607666 1.45486557483673096 0.410527616739273071
0.394992351531982422 1.97238171100616455 0.13930085301399231
0.381151497364044189 -1.6113898754119873 0.426909208297729492
0.0971347391605377197 -0.999696314334869385 0.155268013477325439
0.306196242570877075 1.16355502605438232 0.361190557479858398
-0.207175910472869873 1.18691694736480713 0.379744142293930054
0.329022347927093506 -1.61847984790802002 0.422832787036895752
0.341487705707550049 -0.949843287467956543 0.172964185476303101
0.286279559135437012 -0.963303446769714355 0.123517274856567383
0.291007518768310547 -0.94818800687789917 0.148356705904006958
0.237144231796264648 -0.936248123645782471 0.128705710172653198
0.223289236426353455 -0.871332883834838867 0.11024542897939682
0.860467791557312012 0.267337173223495483 0.38420221209526062
-0.212816834449768066 1.54395020008087158 0.420485317707061768
0.34964144229888916 -0.952889084815979004 0.155831843614578247
-0.322104036808013916 1.71605336666107178 0.438442796468734741
0.197609245777130127 -1.50466251373291016 0.459692239761352539
-0.0977261513471603394 -1.0614163875579834 0.518068075180053711
0.573518157005310059 -1.77182817459106445 0.408845663070678711
0.367197871208190918 -1.55573928356170654 0.394212067127227783
0.062918245792388916 1.58625960350036621 0.404609501361846924
0.259580403566360474 -1.44247221946716309 0.685326099395751953
-0.0824441909790039062 0.957815587520599365 0.343294590711593628
-0.265589296817779541 1.24854302406311035 0.379332572221755981
0.261224746704101562 -0.888514935970306396 0.131161093711853027
-0.421371221542358398 1.46090126037597656 0.400373399257659912
0.400903254747390747 -1.31429135799407959 0.386464148759841919
0.332393348217010498 -0.913890063762664795 0.113639369606971741
0.29417121410369873 -0.900255084037780762 0.138838261365890503
0.111374258995056152 1.04911911487579346 0.335590481758117676
0.0213121771812438965 -1.26039135456085205 0.46513521671295166
0.297414541244506836 -0.963059186935424805 0.0915360525250434875
0.168837115168571472 -1.13464856147766113 0.271681517362594604
0.510615766048431396 1.96849548816680908 0.0906044021248817444
0.560530483722686768 -0.917149186134338379 0.411556124687194824
0.317486733198165894 -0.944798290729522705 0.100362211465835571
0.142725586891174316 1.03073549270629883 0.322495460510253906
-0.192826449871063232 -0.975209832191467285 0.518604397773742676
0.00108575820922851562 0.930025637149810791 0.352645784616470337
-0.422161012887954712 -1.45303964614868164 0.553052604198455811
-0.0138412117958068848 0.959065914154052734 0.362850666046142578
0.116834625601768494 -1.14606988430023193 0.594067633152008057
