ply
format ascii 1.0
element vertex 32
comment vertices
property float x
property float y
property float z
end_header
-0.14316144585609436 -0.965888798236846924 -0.342913448810577393
1.19949662685394287 0.0709071457386016846 -2.19502997398376465
-1.35320055484771729 -0.40809398889541626 1.14553928375244141
0.476149857044219971 0.869342565536499023 -0.502681374549865723
-0.42946779727935791 -0.699463605880737305 -2.59793305397033691
1.43400919437408447 -0.296770870685577393 -0.147995814681053162
-1.03576278686523438 0.262186706066131592 -0.43436431884765625
-0.439558237791061401 -1.56713747978210449 1.29573941230773926
-0.00585965812206268311 -0.0647944658994674683 -1.4316861629486084
0.840949833393096924 -1.08565354347229004 -1.59870386123657227
-0.108275368809700012 0.267120659351348877 0.369908452033996582
-0.961562991142272949 -0.794721364974975586 -1.31090629100799561
-1.06289851665496826 -1.38634836673736572 0.292988359928131104
0.42087256908416748 -0.871769905090332031 0.592630326747894287
1.02982354164123535 0.0426521673798561096 -1.06383836269378662
-1.26339352130889893 -0.477301955223083496 0.1841774582862854
0.275269389152526855 -0.0440497696399688721 -0.478082925081253052
-0.0805834680795669556 -1.10494661331176758 -1.3638540506362915
0.527677714824676514 -0.542455911636352539 -2.27878165245056152
0.729880213737487793 -0.946685492992401123 -0.568242847919464111
-0.450501710176467896 -0.364342242479324341 0.772873401641845703
1.27165210247039795 0.449382275342941284 -0.394475847482681274
-0.462455123662948608 -0.321059972047805786 -0.615966081619262695
1.34650301933288574 -0.430228501558303833 -1.56580483913421631
-0.0997556373476982117 -0.0977712869644165039 -2.16038751602172852
0.50712740421295166 -0.463438749313354492 -1.09650850296020508
0.363653957843780518 0.553349018096923828 -1.12320637702941895
-0.621878981590270996 -0.199092388153076172 0.0950926393270492554
-0.984984874725341797 -0.974396049976348877 0.975474298000335693
0.507751405239105225 -0.566806912422180176 -0.0209000930190086365
-0.39720386266708374 -1.33532512187957764 0.457417726516723633
-0.424421191215515137 0.378042161464691162 -0.718491613864898682
