ply
format ascii 1.0
element vertex 32
comment vertices
property float x
property float y
property float z
end_header
-1.08913874626159668 -0.664602875709533691 -0.84406203031539917
0.334644526243209839 1.12154746055603027 1.11792612075805664
-0.892602026462554932 -1.70257377624511719 1.21795821189880371
-0.934392571449279785 1.22628188133239746 -0.370135307312011719
0.541481971740722656 -0.21343328058719635 -0.11121860146522522
-0.69483184814453125 -0.0270285904407501221 0.897380292415618896
0.00759190693497657776 -1.58067083358764648 0.328495442867279053
0.522543430328369141 0.951246798038482666 -0.18368801474571228
0.363970458507537842 -0.35213121771812439 1.04875195026397705
-0.952233791351318359 -1.00826787948608398 0.319048702716827393
-0.480769693851470947 0.19081762433052063 -0.288950264453887939
-0.0947292745113372803 1.81593668460845947 -0.24763864278793335
-0.159255936741828918 -0.876787722110748291 -0.412481546401977539
0.978031754493713379 0.3934611976146698 0.904854536056518555
0.0838869363069534302 0.411682814359664917 0.464983254671096802
-0.359089374542236328 -0.92478644847869873 1.05803346633911133
-0.474924862384796143 1.22264623641967773 0.42810019850730896
-0.599451661109924316 -2.22467899322509766 0.273240208625793457
-0.264694750308990479 -0.426729202270507812 0.272140741348266602
0.232567057013511658 0.310866296291351318 -0.555868327617645264
0.589385688304901123 -0.968643367290496826 0.718569695949554443
-0.391113191843032837 0.929484009742736816 -0.756870090961456299
-1.21189618110656738 -0.338427424430847168 0.202142834663391113
-1.11068832874298096 -1.16687965393066406 -0.345621794462203979
-0.17230522632598877 0.780439794063568115 -0.0659110322594642639
-0.978765189647674561 0.0163837671279907227 -0.782867789268493652
-0.551209390163421631 -1.07822704315185547 -0.960504412651062012
0.273998469114303589 -0.812767386436462402 0.114809244871139526
0.438831567764282227 0.281419545412063599 1.26841425895690918
0.247753232717514038 1.05339443683624268 0.46768757700920105
-0.744185447692871094 -0.468102604150772095 -0.241422697901725769
-0.382141530513763428 -1.64850878715515137 0.847510397434234619
