ply
format ascii 1.0
element vertex 31
comment vertices
property float x
property float y
property float z
end_header
-0.141989246010780334 -0.539005041122436523 -0.160944700241088867
1.11180078983306885 0.406690269708633423 -2.15069866180419922
-1.18779206275939941 -0.402019083499908447 0.742580890655517578
0.802981019020080566 0.98120415210723877 -0.400632619857788086
-0.266067057847976685 -0.156822800636291504 -2.06151247024536133
1.29787969589233398 -0.0856568664312362671 -0.0274977013468742371
-1.1693272590637207 0.42494499683380127 -0.461306512355804443
0.069927603006362915 -1.25952029228210449 1.17868781089782715
0.229975983500480652 0.159289002418518066 -1.30100846290588379
0.838495552539825439 -0.9690360426902771 -1.47815108299255371
0.282942473888397217 0.204437896609306335 0.0461342036724090576
-0.844233274459838867 -0.408375740051269531 -0.746707558631896973
-0.861402630805969238 -1.28193247318267822 0.00631496310234069824
0.476498961448669434 -0.979194462299346924 0.24945715069770813
0.627274990081787109 0.327551335096359253 -0.643135309219360352
-0.915449261665344238 -0.384722858667373657 -0.000388413667678833008
0.564725220203399658 0.0396849960088729858 -0.633606314659118652
-0.35638582706451416 -0.83239293098449707 -0.886497259140014648
0.0529596805572509766 -0.158867478370666504 -1.81874370574951172
0.0921145081520080566 -0.840685427188873291 -0.471664249897003174
-0.0478569567203521729 -0.0475300252437591553 1.19684779644012451
1.58666324615478516 0.306126773357391357 -0.742885768413543701
-0.143061578273773193 -0.2101450115442276 -0.726781725883483887
0.713726639747619629 0.051265031099319458 -1.22671973705291748
-0.126081332564353943 0.329009413719177246 -1.65704441070556641
0.43011850118637085 -0.0449804067611694336 -0.921568870544433594
0.356764346361160278 0.556810379028320312 -1.36136162281036377
-0.495216459035873413 -0.18199455738067627 0.100417293608188629
-0.636648833751678467 -0.774106144905090332 0.869742631912231445
-0.238645315170288086 -1.32658588886260986 0.352159202098846436
-0.665236353874206543 0.315665364265441895 -0.968230664730072021
