ply
format ascii 1.0
element vertex 32
comment vertices
property float x
property float y
property float z
end_header
1.76127958297729492 0.48457828164100647 -1.24972319602966309
2.17914032936096191 -0.539951205253601074 1.6848527193069458
-0.173107802867889404 0.187303304672241211 0.279096901416778564
1.65381360054016113 -1.76510953903198242 0.100950896739959717
1.3987267017364502 0.543998599052429199 0.0649724006652832031
2.3894200325012207 -0.25544285774230957 -0.548279821872711182
1.12952041625976562 0.523175358772277832 1.62284004688262939
0.30826762318611145 -0.663271307945251465 -0.55812150239944458
1.1722559928894043 -1.27980494499206543 0.578469336032867432
-0.376573622226715088 0.03070078045129776 -1.50435590744018555
2.43958520889282227 0.503460049629211426 0.361147105693817139
1.30901634693145752 -0.775143086910247803 -1.21136939525604248
0.284913122653961182 1.22559142112731934 1.29539287090301514
1.76481544971466064 -0.63646167516708374 0.658244609832763672
0.793014883995056152 -1.26366519927978516 -0.0319401919841766357
1.54616165161132812 -0.842754483222961426 -0.544826984405517578
0.119551323354244232 0.560674548149108887 -0.817254543304443359
1.12593138217926025 -0.425066173076629639 -0.0394462347030639648
2.31174182891845703 0.461410790681838989 -0.447531253099441528
2.0433495044708252 0.662946939468383789 2.05927419662475586
0.287972033023834229 -0.437485337257385254 -0.305603623390197754
1.24570155143737793 0.304244071245193481 -0.889868259429931641
1.82675302028656006 -0.480487525463104248 -0.952393949031829834
1.25393021106719971 0.572259366512298584 1.76371204853057861
0.752153396606445312 -1.20836019515991211 -0.193869099020957947
-0.154742255806922913 0.51656651496887207 -0.830407917499542236
0.987426519393920898 -1.40825867652893066 0.307973921298980713
1.69998836517333984 -1.22662568092346191 -0.311604022979736328
0.931972801685333252 -0.203884541988372803 -0.751757204532623291
0.893883407115936279 -0.380250275135040283 -0.119422301650047302
2.82661962509155273 0.448468685150146484 -0.896523714065551758
0.477651298046112061 -0.354837715625762939 0.131682515144348145
