ply
format ascii 1.0
element vertex 32
comment vertices
property float x
property float y
property float z
end_header
-0.850374460220336914 -0.833864688873291016 -0.461918532848358154
-3.09092378616333008 -0.60239863395690918 1.30323123931884766
1.18743979930877686 -1.92497813701629639 -1.44138789176940918
0.383536994457244873 0.94069826602935791 -0.226713836193084717
-2.62611913681030273 -1.28910970687866211 -1.61942863464355469
0.884689390659332275 -1.31193923950195312 0.240247756242752075
-1.04085075855255127 -2.53742384910583496 -0.472318053245544434
-3.03206157684326172 -1.92991304397583008 0.341615140438079834
0.0148884057998657227 -0.696312189102172852 -1.71877574920654297
-0.187375649809837341 -0.140923559665679932 0.679163932800292969
-0.692499220371246338 -1.78400993347167969 0.678753495216369629
-1.31224477291107178 -1.62548720836639404 -1.75571560859680176
-2.29316544532775879 -1.56812357902526855 1.7823333740234375
-0.397905439138412476 0.736195862293243408 -1.20578455924987793
0.583396375179290771 -0.393287926912307739 -0.646538197994232178
-0.134823858737945557 -1.72926747798919678 -0.927028238773345947
-1.86243569850921631 -1.57558655738830566 -0.714497029781341553
-1.33398699760437012 -0.487538129091262817 -1.39043354988098145
-0.630898714065551758 0.319268286228179932 -0.221666708588600159
-0.105583131313323975 -1.13763582706451416 0.221677273511886597
-1.03679168224334717 -0.347122341394424438 0.352365076541900635
0.979798078536987305 -1.28384065628051758 -0.661232948303222656
0.52626955509185791 0.322525590658187866 -1.16736626625061035
-1.04418313503265381 -1.67535662651062012 -0.269889384508132935
-0.617173194885253906 -0.158097803592681885 -0.961464107036590576
0.569546818733215332 -0.516405165195465088 0.66373521089553833
-2.43128633499145508 -1.51361739635467529 0.717400252819061279
-0.166811302304267883 -0.448001176118850708 -0.202161639928817749
-1.28836631774902344 -1.30399978160858154 0.398048520088195801
-1.13894093036651611 -1.89621889591217041 -1.02924656867980957
-0.0954931378364562988 -0.865381479263305664 -0.957411646842956543
-0.485977470874786377 -1.10940444469451904 0.929100215435028076
