ply
format ascii 1.0
element vertex 256
comment vertices
property float x
property float y
property float z
end_header
0.104459598660469055 3.10724806785583496 0.161972746253013611
0.98285365104675293 -2.95122456550598145 0.0713721662759780884
5.15962886810302734 1.71898818016052246 0.301363885402679443
-2.94784760475158691 -0.935749530792236328 0.140792787075042725
-4.40189075469970703 3.22380900382995605 0.151068076491355896
1.24202823638916016 0.419043540954589844 0.11018843948841095
-2.58588314056396484 4.80010557174682617 0.269799232482910156
-2.44052743911743164 1.89028382301330566 0.159695923328399658
-0.995262980461120605 -0.859642088413238525 0.106777869164943695
2.83347511291503906 1.28608894348144531 0.446747004985809326
-0.739784181118011475 1.108612060546875 0.233571827411651611
-1.79309678077697754 2.53132963180541992 0.259861528873443604
0.300615668296813965 -1.30488836765289307 0.389379739761352539
0.340111017227172852 1.28009557723999023 0.394011497497558594
-1.27482008934020996 0.388873040676116943 0.153706520795822144
1.07716894149780273 0.780867815017700195 0.397828340530395508
-1.00287973880767822 -0.816548585891723633 0.0922574251890182495
0.255130171775817871 -1.29418015480041504 0.367623060941696167
-2.57830190658569336 4.77708005905151367 0.276238322257995605
-1.784049391746521 2.49173593521118164 0.247083738446235657
-2.96112918853759766 -0.956328272819519043 0.127916529774665833
5.16691446304321289 1.73290693759918213 0.314725279808044434
-4.4738163948059082 3.21082663536071777 0.179983317852020264
0.369983017444610596 1.32199978828430176 0.402825742959976196
0.121710062026977539 3.08919620513916016 0.151641935110092163
-1.24903345108032227 0.379379332065582275 0.169912442564964294
-0.706563889980316162 1.12321352958679199 0.211095035076141357
-2.95559811592102051 -0.935592532157897949 0.154888957738876343
-1.01966667175292969 -0.83562016487121582 0.0868594497442245483
-1.00579369068145752 -0.870035886764526367 0.10397753119468689
0.988019227981567383 -2.93987464904785156 0.0577898621559143066
1.07489252090454102 0.777277588844299316 0.421084851026535034
2.82670068740844727 1.30691957473754883 0.435675054788589478
-1.77895569801330566 2.54026651382446289 0.277585476636886597
2.82194638252258301 1.28710401058197021 0.448818176984786987
0.989558756351470947 -2.95025873184204102 0.0582858063280582428
0.331104576587677002 1.28658616542816162 0.428596228361129761
-0.719947338104248047 1.11561357975006104 0.206913784146308899
0.355602920055389404 1.30859124660491943 0.407628715038299561
1.26945364475250244 0.416905581951141357 0.184991240501403809
0.334974437952041626 1.2934185266494751 0.418242424726486206
-1.01012885570526123 -0.862178146839141846 0.0859055072069168091
-2.57721042633056641 4.79642295837402344 0.27608075737953186
-2.60564661026000977 4.79389762878417969 0.29079204797744751
-1.76597309112548828 2.56463432312011719 0.244177907705307007
-2.96008825302124023 -0.948084533214569092 0.129668086767196655
-2.43813037872314453 1.88679218292236328 0.131211131811141968
-2.95480442047119141 -0.92899245023727417 0.135119855403900146
0.339180201292037964 1.30447924137115479 0.407997965812683105
0.271467000246047974 -1.29981863498687744 0.377461224794387817
-2.95428085327148438 -0.951089978218078613 0.152040839195251465
-2.4649505615234375 1.88032639026641846 0.161084219813346863
0.124225325882434845 3.11416530609130859 0.157541632652282715
-0.714010357856750488 1.09269607067108154 0.215376973152160645
-4.40744876861572266 3.21436381340026855 0.12154744565486908
2.82828855514526367 1.27022993564605713 0.438344955444335938
-1.79731357097625732 2.51518917083740234 0.268179178237915039
0.104607298970222473 3.08397078514099121 0.134940251708030701
2.83384156227111816 1.27915430068969727 0.431486397981643677
5.15539646148681641 1.72177267074584961 0.309792309999465942
0.961632609367370605 -2.9416658878326416 0.051571868360042572
-1.79308736324310303 2.49963855743408203 0.266698211431503296
-0.715465664863586426 1.11296653747558594 0.218494728207588196
2.83931636810302734 1.29800140857696533 0.44361424446105957
0.105948999524116516 3.08242654800415039 0.155831038951873779
-1.80366349220275879 2.5317847728729248 0.246343940496444702
-4.42305898666381836 3.21649670600891113 0.11233067512512207
-2.57843208312988281 4.81398200988769531 0.250728249549865723
-2.60226345062255859 4.78444766998291016 0.288385123014450073
0.338484644889831543 1.29185247421264648 0.42502284049987793
-1.77233028411865234 2.5038306713104248 0.25525510311126709
-1.26389455795288086 0.391379684209823608 0.16762232780456543
2.82761859893798828 1.27598130702972412 0.434262931346893311
-1.01621699333190918 -0.881612539291381836 0.0901818126440048218
2.82976675033569336 1.28634560108184814 0.446121156215667725
0.984831869602203369 -2.95104360580444336 0.0579674318432807922
-0.724644720554351807 1.09754669666290283 0.215570494532585144
-1.02049016952514648 -0.834115862846374512 0.0876016542315483093
0.335461348295211792 1.29258298873901367 0.417736619710922241
-1.02396345138549805 -0.853138864040374756 0.0964200198650360107
-1.7752225399017334 2.52270603179931641 0.274824023246765137
1.07589864730834961 0.777894675731658936 0.361276179552078247
-1.01460468769073486 -0.857695102691650391 0.0898684263229370117
1.26242578029632568 0.410439223051071167 0.142863556742668152
0.107761368155479431 3.1152653694152832 0.14448314905166626
-2.95047640800476074 -0.95294487476348877 0.142181307077407837
1.07817959785461426 0.766580522060394287 0.385178059339523315
0.317438393831253052 1.26559948921203613 0.435333877801895142
-2.96108675003051758 -0.943620204925537109 0.164112746715545654
-4.40754127502441406 3.21972274780273438 0.122251749038696289
-4.41924953460693359 3.21348667144775391 0.114915475249290466
0.129935652017593384 3.09868931770324707 0.150568366050720215
-2.57813191413879395 4.80294656753540039 0.276953369379043579
5.17109918594360352 1.73621797561645508 0.308747291564941406
-2.59506821632385254 4.77459239959716797 0.281830489635467529
-2.58532547950744629 4.77549600601196289 0.284585058689117432
-2.59021353721618652 4.79972410202026367 0.287472337484359741
-2.58380484580993652 4.79803276062011719 0.277799308300018311
-0.749395608901977539 1.09841382503509521 0.224116995930671692
1.26901817321777344 0.42219194769859314 0.127781391143798828
-2.58727240562438965 4.80124568939208984 0.267430365085601807
-1.79050362110137939 2.50399160385131836 0.270378470420837402
-2.9647367000579834 -0.949241816997528076 0.133319362998008728
-2.95062613487243652 -0.960721850395202637 0.13986523449420929
-0.738535821437835693 1.09534883499145508 0.220330119132995605
0.321516633033752441 1.27720499038696289 0.426783919334411621
0.268568724393844604 -1.29761087894439697 0.386348962783813477
-2.44144368171691895 1.87406885623931885 0.142058044672012329
0.134219422936439514 3.09783482551574707 0.149861335754394531
-2.94999241828918457 -0.937710404396057129 0.13079988956451416
-0.726514995098114014 1.0849757194519043 0.214576065540313721
-2.44788432121276855 1.88735795021057129 0.157255589962005615
0.333251535892486572 1.29119563102722168 0.413977295160293579
-2.95628190040588379 -0.956290721893310547 0.145317286252975464
1.25970101356506348 0.416435182094573975 0.214758992195129395
2.82115864753723145 1.27229559421539307 0.442227274179458618
-1.78374409675598145 2.5046238899230957 0.272534459829330444
-0.746851980686187744 1.12857162952423096 0.207398980855941772
0.138016477227210999 3.10405206680297852 0.165383666753768921
0.115699857473373413 3.1011664867401123 0.140422120690345764
-2.45108890533447266 1.8869091272354126 0.143438458442687988
-1.01536297798156738 -0.837927937507629395 0.091871701180934906
-1.03345155715942383 -0.853708446025848389 0.0942916274070739746
0.286844789981842041 -1.293845534324646 0.366470187902450562
0.10977153480052948 3.08881664276123047 0.167444884777069092
-1.28984296321868896 0.381723344326019287 0.158800482749938965
-0.746471047401428223 1.07473599910736084 0.231172829866409302
-1.02631533145904541 -0.857607603073120117 0.107257544994354248
1.24419355392456055 0.428106307983398438 0.126229554414749146
-0.72077101469039917 1.10015809535980225 0.215363398194313049
-1.27628469467163086 0.383276581764221191 0.157999336719512939
-1.7832939624786377 2.52681064605712891 0.285194098949432373
-2.95376873016357422 -0.957638442516326904 0.148304075002670288
0.124619513750076294 3.09053969383239746 0.151482522487640381
-0.70614922046661377 1.08415913581848145 0.226558774709701538
-1.01359391212463379 -0.856907904148101807 0.0785452201962471008
-0.700743794441223145 1.14014291763305664 0.209095224738121033
0.321699976921081543 1.32791996002197266 0.400792300701141357
0.335628092288970947 1.28970694541931152 0.400942206382751465
5.16232013702392578 1.72723889350891113 0.299072355031967163
-2.94066619873046875 -0.931973159313201904 0.141114309430122375
2.82565498352050781 1.27963113784790039 0.460746914148330688
2.82374858856201172 1.2839730978012085 0.450891405344009399
0.341939330101013184 1.30225646495819092 0.422411948442459106
-1.25572836399078369 0.373869210481643677 0.153243869543075562
2.82081961631774902 1.28207302093505859 0.440981864929199219
0.100224882364273071 3.08363056182861328 0.145238012075424194
-0.72370457649230957 1.11636877059936523 0.223039358854293823
0.326797723770141602 1.29145729541778564 0.415981769561767578
-2.95909810066223145 -0.939249038696289062 0.155274868011474609
2.8352658748626709 1.28290653228759766 0.463508903980255127
-1.78251028060913086 2.52193999290466309 0.278824150562286377
-1.78569746017456055 2.51093530654907227 0.253930628299713135
-1.7807234525680542 2.51822161674499512 0.262328863143920898
-2.45925116539001465 1.88173413276672363 0.149081915616989136
5.16580581665039062 1.73065555095672607 0.306420177221298218
2.82950425148010254 1.2805323600769043 0.439371466636657715
-4.41977882385253906 3.21183300018310547 0.11257210373878479
2.83395981788635254 1.28480696678161621 0.419301986694335938
-0.712878048419952393 1.10812878608703613 0.212686434388160706
0.116482451558113098 3.0977637767791748 0.156412959098815918
-4.41816091537475586 3.20775651931762695 0.11259731650352478
2.82134580612182617 1.29325449466705322 0.434334933757781982
-4.3841395378112793 3.2004857063293457 0.184438526630401611
0.265916407108306885 -1.29822266101837158 0.371205568313598633
-1.27674782276153564 0.387591361999511719 0.166142866015434265
5.1635890007019043 1.71858859062194824 0.295586943626403809
-2.44430041313171387 1.89776933193206787 0.152021214365959167
0.120270907878875732 3.11112093925476074 0.149670705199241638
0.12863197922706604 3.08850336074829102 0.138825669884681702
0.985749781131744385 -2.95615172386169434 0.0589514337480068207
-4.40936088562011719 3.22027325630187988 0.115367919206619263
-1.78073787689208984 2.51663637161254883 0.271590948104858398
-2.46758770942687988 1.87777113914489746 0.14698655903339386
-4.41174602508544922 3.22412490844726562 0.126668259501457214
0.118020385503768921 3.10924434661865234 0.14527149498462677
-1.79196786880493164 2.51237082481384277 0.26632121205329895
0.991731643676757812 -2.94344305992126465 0.0553121194243431091
0.338546335697174072 1.29725527763366699 0.413279324769973755
0.335944652557373047 1.28369462490081787 0.421815395355224609
0.323350518941879272 1.28325259685516357 0.419049978256225586
0.338655740022659302 1.29014909267425537 0.418727010488510132
-1.7595144510269165 2.55257964134216309 0.244128525257110596
2.82592248916625977 1.28576219081878662 0.438950031995773315
-1.26791942119598389 0.39264369010925293 0.167758926749229431
0.981212019920349121 -2.94465255737304688 0.0627104192972183228
-1.78523945808410645 2.53230023384094238 0.256192922592163086
1.26511502265930176 0.41989213228225708 0.126004457473754883
-1.79125118255615234 2.5335075855255127 0.263370782136917114
-2.95655632019042969 -0.943047761917114258 0.136494025588035583
-2.59070372581481934 4.80333805084228516 0.280080884695053101
-1.02048349380493164 -0.865650653839111328 0.103225275874137878
-2.44406652450561523 1.8851473331451416 0.141722485423088074
0.134414970874786377 3.09398031234741211 0.155957579612731934
-1.0222465991973877 -0.848019003868103027 0.0936325788497924805
-2.4240872859954834 1.88995110988616943 0.153479531407356262
0.986249923706054688 -2.94118332862854004 0.0529439672827720642
-2.94614911079406738 -0.94736480712890625 0.139734119176864624
-0.727837204933166504 1.11228859424591064 0.211055278778076172
0.344152837991714478 1.28015124797821045 0.415673196315765381
-0.730131149291992188 1.09786689281463623 0.215507581830024719
-1.01448047161102295 -0.877008795738220215 0.101102754473686218
-2.59132623672485352 4.76759052276611328 0.279870003461837769
-2.95357656478881836 -0.944379329681396484 0.161973625421524048
-1.79965388774871826 2.55081367492675781 0.234794601798057556
5.15390634536743164 1.73876750469207764 0.293917983770370483
0.113245368003845215 3.08821678161621094 0.157629549503326416
-1.28461241722106934 0.389185518026351929 0.168394207954406738
-2.58173537254333496 4.78487491607666016 0.281199663877487183
-2.94561553001403809 -0.941467642784118652 0.122953809797763824
-1.7967979907989502 2.53141379356384277 0.259116172790527344
-1.01885330677032471 -0.847204089164733887 0.0929147452116012573
1.07534122467041016 0.774617910385131836 0.400916397571563721
0.113638326525688171 3.09720611572265625 0.161544859409332275
-1.01514530181884766 -0.858818888664245605 0.0835386365652084351
1.26281213760375977 0.419455826282501221 0.123670458793640137
-0.718268394470214844 1.10802996158599854 0.218906551599502563
-1.01506030559539795 -0.841453254222869873 0.0948531478643417358
2.83137726783752441 1.29431772232055664 0.459239870309829712
-1.02790236473083496 -0.854371607303619385 0.0862993374466896057
1.26640975475311279 0.417350351810455322 0.171946674585342407
-2.59497165679931641 4.79583168029785156 0.277906149625778198
-2.59791874885559082 4.7942967414855957 0.286171555519104004
-2.58720207214355469 4.80437755584716797 0.2775229811668396
1.08313870429992676 0.780733466148376465 0.38976132869720459
-2.94690918922424316 -0.947873294353485107 0.135984450578689575
-2.95063495635986328 -0.949842154979705811 0.153096422553062439
-4.40131187438964844 3.22039008140563965 0.134297981858253479
-1.7867426872253418 2.50229024887084961 0.271254003047943115
-2.95830869674682617 -0.954180657863616943 0.126888930797576904
0.120975404977798462 3.0833125114440918 0.154251411557197571
-1.02336299419403076 -0.850755691528320312 0.0940959751605987549
-2.5918581485748291 4.79564619064331055 0.280553340911865234
-4.41256618499755859 3.22008299827575684 0.115408658981323242
-1.77926814556121826 2.52853298187255859 0.259325653314590454
0.118494004011154175 3.0948185920715332 0.14429241418838501
0.104989737272262573 3.11679220199584961 0.149161219596862793
0.328019678592681885 1.29291617870330811 0.410728871822357178
1.07216739654541016 0.768183529376983643 0.393747091293334961
-2.45805239677429199 1.88238096237182617 0.148872882127761841
-2.586181640625 4.80078697204589844 0.283981859683990479
-1.01430392265319824 -0.853034377098083496 0.0963730961084365845
-2.59680604934692383 4.78118371963500977 0.286220431327819824
-1.0129554271697998 -0.858430624008178711 0.0962809771299362183
-1.77882480621337891 2.53291058540344238 0.274076312780380249
-4.41176176071166992 3.21113181114196777 0.122425854206085205
0.105177700519561768 3.08970999717712402 0.14927142858505249
-0.730702757835388184 1.10132980346679688 0.227567404508590698
-1.785544753074646 2.51109623908996582 0.262031465768814087
0.318170517683029175 1.31839263439178467 0.41537889838218689
-2.96432638168334961 -0.958143889904022217 0.126190349459648132
-2.9672236442565918 -0.951786398887634277 0.134425461292266846
-2.46697163581848145 1.8953627347946167 0.162432402372360229
-2.6102745532989502 4.77766180038452148 0.282295048236846924
0.133910790085792542 3.11130356788635254 0.150731086730957031
-2.45724701881408691 1.88091897964477539 0.143906727433204651
