ply
format ascii 1.0
element vertex 256
comment vertices
property float x
property float y
property float z
end_header
-3.08913493156433105 0.33642280101776123 0.449470043182373047
2.05036473274230957 2.32518172264099121 0.34616127610206604
0.419211655855178833 -3.0766761302947998 0.128244504332542419
-0.368965238332748413 1.29000675678253174 0.390897631645202637
-1.6685640811920166 -2.61194562911987305 0.109639689326286316
0.397685796022415161 -1.26072573661804199 0.0396946929395198822
-1.94801855087280273 2.43262290954589844 0.0450283139944076538
-1.27933216094970703 -0.446846157312393188 0.385532945394515991
-2.86816644668579102 -1.21655416488647461 0.0531402304768562317
0.812829077243804932 1.03838729858398438 0.308256626129150391
-0.856850564479827881 -1.01526474952697754 0.0964202433824539185
-1.32246232032775879 0.0642856582999229431 0.0580240786075592041
0.816947698593139648 1.05935907363891602 0.352660179138183594
2.02893304824829102 2.32838630676269531 0.332475721836090088
-1.66853249073028564 -2.6137385368347168 0.093086637556552887
-0.824034452438354492 1.0503227710723877 0.44826662540435791
-2.52834153175354004 -1.76146316528320312 0.435243129730224609
0.410143047571182251 -3.06956839561462402 0.121735051274299622
-0.821285605430603027 1.04901206493377686 0.429564625024795532
-1.26988005638122559 -0.456401407718658447 0.392919480800628662
-2.53225111961364746 -1.7581942081451416 0.444114506244659424
0.479049175977706909 1.25284969806671143 0.100373521447181702
0.467071264982223511 1.25109446048736572 0.113267749547958374
0.399625420570373535 -1.26738560199737549 0.0403627417981624603
-3.13297224044799805 -0.0273248776793479919 0.189553827047348022
-2.85989165306091309 -1.20347297191619873 0.0448669269680976868
-1.95029091835021973 2.43086099624633789 0.0454817712306976318
-1.9349675178527832 2.4278109073638916 0.0478813573718070984
-2.8492581844329834 -1.21334278583526611 0.0449011772871017456
-1.30905699729919434 0.0612946636974811554 0.0530261248350143433
-3.09445571899414062 0.343290120363235474 0.464073747396469116
0.405334949493408203 -1.268943190574646 0.0433727428317070007
-0.819677233695983887 1.05980575084686279 0.436970800161361694
-2.53756570816040039 -1.76102745532989502 0.439403176307678223
2.05214262008666992 2.32656097412109375 0.342430680990219116
-0.35970953106880188 1.29320824146270752 0.366644710302352905
-0.867111444473266602 -1.01381814479827881 0.0890836045145988464
-3.12496280670166016 -0.0369568020105361938 0.187578976154327393
0.484053254127502441 1.25336956977844238 0.10018254816532135
-3.08470058441162109 0.346971303224563599 0.428057372570037842
0.818987190723419189 1.0493006706237793 0.358569115400314331
0.421159923076629639 -3.07272028923034668 0.128160849213600159
-0.85013127326965332 -1.01257610321044922 0.100968420505523682
0.476655036211013794 1.25147855281829834 0.105587869882583618
-1.33404374122619629 0.0577651709318161011 0.0591504722833633423
-0.816669285297393799 1.05308592319488525 0.444485068321228027
0.389325976371765137 -1.26302540302276611 0.0458942428231239319
-1.66681039333343506 -2.61496186256408691 0.104660011827945709
-1.27201175689697266 -0.45149579644203186 0.358062326908111572
-2.52201724052429199 -1.76972353458404541 0.432022511959075928
0.420714348554611206 -3.08102154731750488 0.122840076684951782
0.472926229238510132 1.25191640853881836 0.106671705842018127
-0.37963557243347168 1.28340029716491699 0.397956639528274536
-2.87061786651611328 -1.21135294437408447 0.0490406528115272522
-3.12995147705078125 -0.0428399965167045593 0.189476504921913147
-1.30980503559112549 0.0505565553903579712 0.0511443912982940674
-2.53416228294372559 -1.76420032978057861 0.43555748462677002
0.422111421823501587 -3.0728914737701416 0.126335561275482178
-2.52331900596618652 -1.76503777503967285 0.446239113807678223
-0.62412416934967041 1.15372300148010254 0.455544769763946533
-1.93619036674499512 2.43029236793518066 0.0449152961373329163
-0.824826240539550781 1.05030369758605957 0.448551982641220093
-2.53276753425598145 -1.75970745086669922 0.442781388759613037
-2.85280871391296387 -1.21506118774414062 0.0445971265435218811
0.400690138339996338 -1.26563751697540283 0.0427724868059158325
-3.08011555671691895 0.338961601257324219 0.449833154678344727
-0.849926114082336426 -1.0093381404876709 0.09228525310754776
-0.802073180675506592 1.0731048583984375 0.436766356229782104
2.04169273376464844 2.32763552665710449 0.331831455230712891
-0.809258222579956055 1.05010223388671875 0.440287470817565918
-1.26144158840179443 -0.451545208692550659 0.344863802194595337
-3.08678412437438965 0.342795610427856445 0.442994922399520874
0.410088479518890381 -3.07473111152648926 0.123745068907737732
-3.08004570007324219 0.332226336002349854 0.421727180480957031
-2.52967047691345215 -1.76163935661315918 0.431313514709472656
-1.93935179710388184 2.43196511268615723 0.0436304956674575806
-0.811767697334289551 1.05188214778900146 0.429375290870666504
-0.850515425205230713 -1.01761257648468018 0.099289529025554657
-0.87555241584777832 -1.01904332637786865 0.0903806313872337341
-3.10826635360717773 -0.0355451703071594238 0.197673529386520386
0.477890223264694214 1.25130152702331543 0.104905195534229279
-1.32669913768768311 0.06197352334856987 0.0562856271862983704
-0.373894423246383667 1.28508329391479492 0.406772732734680176
0.414210230112075806 -3.08291482925415039 0.11640554666519165
-2.53701901435852051 -1.76275122165679932 0.442869484424591064
-1.2732464075088501 -0.452215731143951416 0.362080156803131104
0.422851145267486572 -3.07004642486572266 0.121455162763595581
-0.820115864276885986 1.04972684383392334 0.437720209360122681
-3.12570500373840332 -0.0281642153859138489 0.189933300018310547
0.420998275279998779 -3.07461237907409668 0.128278180956840515
-3.08135223388671875 0.340729027986526489 0.426807433366775513
-0.846802055835723877 -1.0167309045791626 0.09238404780626297
-1.67035353183746338 -2.61543035507202148 0.0976882576942443848
-0.372620761394500732 1.28992199897766113 0.383666783571243286
2.05741095542907715 2.3262484073638916 0.346675395965576172
0.475285142660140991 1.25413823127746582 0.103898920118808746
2.0353846549987793 2.3298335075378418 0.326216191053390503
-3.08841538429260254 0.3341045081615448 0.43357887864112854
-3.08027815818786621 0.339141041040420532 0.447225302457809448
0.813147306442260742 1.04135513305664062 0.359491348266601562
0.811024606227874756 1.03370428085327148 0.332052290439605713
0.482870906591415405 1.2532341480255127 0.0997592061758041382
-1.28247499465942383 -0.447375088930130005 0.373893141746520996
-0.37303692102432251 1.28712153434753418 0.396474450826644897
0.434663623571395874 -3.07588768005371094 0.131268173456192017
-0.824567437171936035 1.05067825317382812 0.447751939296722412
-3.1321713924407959 -0.0466552451252937317 0.185381472110748291
0.476861298084259033 1.24902009963989258 0.102728471159934998
0.47025531530380249 1.25203120708465576 0.110636681318283081
-2.52956271171569824 -1.75816142559051514 0.434155821800231934
0.41202312707901001 -3.06912016868591309 0.128390714526176453
-0.822547972202301025 1.05098581314086914 0.446489602327346802
-1.32549536228179932 0.0615595392882823944 0.0589282587170600891
0.4745941162109375 1.25584793090820312 0.106615245342254639
-1.26749849319458008 -0.449762254953384399 0.387722164392471313
-0.85030663013458252 -1.01795029640197754 0.0929157882928848267
0.815838217735290527 1.05240356922149658 0.325983047485351562
-3.08767390251159668 0.335736989974975586 0.427004456520080566
-0.372072458267211914 1.28245937824249268 0.381665140390396118
-2.53815054893493652 -1.7643970251083374 0.450405210256576538
0.396025598049163818 -1.26735663414001465 0.0414726510643959045
-3.07853341102600098 0.338146984577178955 0.426141530275344849
-0.823147952556610107 1.04966902732849121 0.441224902868270874
0.472684532403945923 1.25192427635192871 0.104628205299377441
-3.09442925453186035 0.345764905214309692 0.461613863706588745
-3.10082268714904785 -0.0278265289962291718 0.193030327558517456
0.478924810886383057 1.252899169921875 0.101645417511463165
-0.855068564414978027 -1.01868903636932373 0.102862022817134857
0.393984884023666382 -1.26672673225402832 0.0465089157223701477
-2.85809636116027832 -1.21136474609375 0.043817467987537384
-0.814589023590087891 1.05555391311645508 0.442101508378982544
-1.66503477096557617 -2.61414909362792969 0.11050240695476532
-2.8578341007232666 -1.22445309162139893 0.0484947264194488525
0.419949144124984741 -3.07176303863525391 0.12570442259311676
0.417466878890991211 -3.07807779312133789 0.126064181327819824
-0.367221802473068237 1.29053676128387451 0.3843650221824646
-1.26237499713897705 -0.446035593748092651 0.35094413161277771
-0.377197146415710449 1.28558897972106934 0.403684407472610474
-3.09017825126647949 0.341212540864944458 0.458232015371322632
2.02911877632141113 2.32645678520202637 0.331739902496337891
0.39080280065536499 -1.26043736934661865 0.0433746613562107086
-2.86188960075378418 -1.2124173641204834 0.0469420626759529114
-1.27843773365020752 -0.450989693403244019 0.355162531137466431
-1.67331409454345703 -2.61377048492431641 0.0960801467299461365
-3.08567690849304199 0.33178412914276123 0.431975662708282471
-2.86490964889526367 -1.21280813217163086 0.0616328641772270203
0.390216290950775146 -1.26362061500549316 0.0507009699940681458
-0.816039502620697021 1.05132126808166504 0.443721681833267212
-3.13388681411743164 -0.0444137975573539734 0.196091204881668091
2.04850983619689941 2.33179259300231934 0.337182700634002686
-1.93908548355102539 2.42909455299377441 0.0500637218356132507
-0.818781435489654541 1.04992568492889404 0.437287598848342896
-0.857754170894622803 -1.01966869831085205 0.0963420867919921875
0.410809516906738281 -3.08097124099731445 0.114691823720932007
-1.26896941661834717 -0.452446848154067993 0.359493643045425415
0.383069872856140137 -1.26156210899353027 0.0431851521134376526
-1.93279004096984863 2.43058514595031738 0.0444158762693405151
-2.53478240966796875 -1.76113283634185791 0.438345968723297119
-2.53932285308837891 -1.76193916797637939 0.441850066184997559
-2.5371086597442627 -1.75924098491668701 0.434589862823486328
-0.377676308155059814 1.28549563884735107 0.398815155029296875
-1.66963851451873779 -2.61031460762023926 0.0948850959539413452
0.812600791454315186 1.04209387302398682 0.354924708604812622
0.422279506921768188 -3.08428573608398438 0.119697973132133484
0.419379830360412598 -3.07714223861694336 0.128009706735610962
0.467611402273178101 1.26441681385040283 0.0641678869724273682
-0.827592849731445312 1.05069613456726074 0.440880626440048218
-1.9383397102355957 2.42916750907897949 0.0457162484526634216
-2.53522276878356934 -1.75993180274963379 0.440981686115264893
-1.27029204368591309 -0.449399888515472412 0.373354971408843994
-2.53008866310119629 -1.76376152038574219 0.435857504606246948
-0.850796282291412354 -1.0187375545501709 0.0956787467002868652
-0.870587050914764404 -1.01637256145477295 0.0889757126569747925
-1.66826820373535156 -2.61325240135192871 0.0987642332911491394
-0.374577701091766357 1.29371786117553711 0.404376119375228882
-0.860956907272338867 -1.01735126972198486 0.0949004590511322021
-0.855607390403747559 -1.02109432220458984 0.0991410389542579651
0.422272771596908569 -3.07608342170715332 0.132268980145454407
-0.846744120121002197 -1.00819861888885498 0.0976984649896621704
-0.855718374252319336 -1.01561737060546875 0.112366601824760437
0.473983794450759888 1.25207734107971191 0.106616899371147156
0.425708681344985962 -3.07509493827819824 0.124680988490581512
-3.13407254219055176 -0.0387966595590114594 0.186332583427429199
-3.12586879730224609 -0.0386377237737178802 0.18816143274307251
-1.27680277824401855 -0.450118154287338257 0.345682054758071899
-1.28071260452270508 -0.456050664186477661 0.346567392349243164
-0.811614274978637695 1.05787456035614014 0.442883878946304321
-3.10645413398742676 -0.0409724153578281403 0.207182943820953369
0.418701678514480591 -3.07625150680541992 0.130739122629165649
0.4259834885597229 -3.07342243194580078 0.122072800993919373
-3.12118864059448242 -0.0337365716695785522 0.189667850732803345
0.41762852668762207 -3.06772184371948242 0.128087848424911499
0.391001969575881958 -1.26390767097473145 0.0454149916768074036
-1.66587269306182861 -2.61140108108520508 0.100943818688392639
-3.08402800559997559 0.341129928827285767 0.431097269058227539
-0.855088293552398682 -1.01246500015258789 0.0929909348487854004
-1.2632828950881958 -0.449550747871398926 0.383115649223327637
-1.32020688056945801 0.0595286861062049866 0.0536321327090263367
-3.08082008361816406 0.338585704565048218 0.448487073183059692
-1.31536924839019775 0.0637316852807998657 0.0560857430100440979
-1.93882668018341064 2.43420720100402832 0.0411922149360179901
-3.08169221878051758 0.331794530153274536 0.436107873916625977
-0.363835692405700684 1.29026341438293457 0.389386504888534546
2.03963303565979004 2.32903242111206055 0.334279894828796387
-3.1210935115814209 -0.0457501709461212158 0.193518832325935364
0.421327203512191772 -3.07576251029968262 0.125593721866607666
-1.337158203125 0.0657849907875061035 0.0580236800014972687
-0.849628329277038574 -1.01727831363677979 0.0976398587226867676
-2.53295207023620605 -1.76115584373474121 0.431972384452819824
-0.813308835029602051 1.05413103103637695 0.43772616982460022
-3.08160614967346191 0.33844459056854248 0.447541862726211548
0.818768918514251709 1.03860795497894287 0.363138645887374878
0.477117657661437988 1.25173294544219971 0.102437771856784821
-1.31500959396362305 0.0625774934887886047 0.054282061755657196
-0.816679894924163818 1.05972206592559814 0.439022809267044067
-1.94115757942199707 2.4346773624420166 0.0416682586073875427
0.425548940896987915 -3.06620240211486816 0.140612587332725525
-0.848050117492675781 -1.01357722282409668 0.0943808555603027344
-2.53405261039733887 -1.76320815086364746 0.437888354063034058
-1.33244931697845459 0.0594749599695205688 0.0658779442310333252
0.811133623123168945 1.04588150978088379 0.341982722282409668
0.475062936544418335 1.2495797872543335 0.104356333613395691
-0.823899030685424805 1.04801785945892334 0.440099149942398071
0.479636311531066895 1.25714778900146484 0.101714074611663818
-0.848730802536010742 -1.02088046073913574 0.0905080214142799377
0.406240910291671753 -3.0718073844909668 0.124342232942581177
0.770734310150146484 1.07435739040374756 0.287532389163970947
2.05558395385742188 2.3271028995513916 0.34940791130065918
0.476114720106124878 1.2512744665145874 0.105080172419548035
-0.813590586185455322 1.05740988254547119 0.433401286602020264
-0.859999775886535645 -1.01865208148956299 0.0921923518180847168
-3.11871099472045898 -0.0314773283898830414 0.18778131902217865
2.03169822692871094 2.32769203186035156 0.334659487009048462
0.417748451232910156 -3.07334184646606445 0.132249712944030762
-0.821755051612854004 1.05351042747497559 0.450296461582183838
-0.822076678276062012 1.0485386848449707 0.4499397873878479
-3.07727766036987305 0.335531055927276611 0.428564101457595825
-0.813272535800933838 1.05791389942169189 0.438079416751861572
-0.855395197868347168 -1.01384842395782471 0.107128076255321503
0.409633934497833252 -3.07180285453796387 0.121358990669250488
-3.1068110466003418 -0.0307477749884128571 0.18286411464214325
-0.374424219131469727 1.28898155689239502 0.391043096780776978
0.418812870979309082 -3.0731499195098877 0.118122562766075134
0.482490181922912598 1.25444638729095459 0.100879170000553131
-2.53491687774658203 -1.76389491558074951 0.439131677150726318
-3.10892224311828613 -0.0325616896152496338 0.188692346215248108
-0.372034937143325806 1.28791320323944092 0.393895566463470459
2.03004789352416992 2.3264009952545166 0.327318698167800903
0.486806005239486694 1.25052595138549805 0.100023746490478516
-1.66398036479949951 -2.61536026000976562 0.097813725471496582
-3.0869300365447998 0.335016638040542603 0.452481001615524292
-0.369553655385971069 1.28884661197662354 0.365722715854644775
-0.851003944873809814 -1.02426600456237793 0.0963654220104217529
0.417777210474014282 -3.07443737983703613 0.132925882935523987
-1.27916407585144043 -0.445078164339065552 0.375173002481460571
-2.868560791015625 -1.21080374717712402 0.0481578968465328217
