ply
format ascii 1.0
element vertex 256
comment vertices
property float x
property float y
property float z
end_header
-3.04731369018554688 -0.60464245080947876 0.315471351146697998
2.85109496116638184 1.26261067390441895 0.127362668514251709
-2.52518773078918457 4.8437190055847168 0.376131772994995117
1.08623158931732178 -0.7480812668800354 0.0591203123331069946
0.312666505575180054 3.08218908309936523 0.105170711874961853
-1.90215003490447998 2.43560600280761719 0.115050911903381348
-0.935142159461975098 0.953814268112182617 0.265610188245773315
-1.00043106079101562 -0.903735697269439697 0.410382598638534546
1.16638576984405518 0.662784576416015625 0.0509648695588111877
-2.93480753898620605 0.986749887466430664 0.413261711597442627
2.04065060615539551 2.36122727394104004 0.170890942215919495
-1.30466020107269287 -0.0299797039479017258 0.312170863151550293
0.247070908546447754 1.30955386161804199 0.0551948621869087219
2.32652020454406738 2.04525399208068848 0.464316338300704956
-0.997320115566253662 -0.904001414775848389 0.393345773220062256
2.62817525863647461 1.69258153438568115 0.353401482105255127
-2.95701837539672852 0.983199357986450195 0.405818849802017212
-1.89988422393798828 2.4469296932220459 0.116799443960189819
-1.3090062141418457 -0.0283744558691978455 0.320317059755325317
-0.931313455104827881 0.95648348331451416 0.26377519965171814
-2.5247802734375 4.83581256866455078 0.373582988977432251
-3.052337646484375 -0.609260141849517822 0.34291309118270874
-1.18982946872711182 0.496239125728607178 0.0908575281500816345
-2.52611684799194336 4.84084558486938477 0.390838921070098877
1.09556841850280762 -0.752832591533660889 0.0601427480578422546
2.60447549819946289 1.69823062419891357 0.376213341951370239
0.247028529644012451 1.30423188209533691 0.0562088117003440857
2.84412360191345215 1.2522810697555542 0.118703953921794891
-2.93569731712341309 0.988775193691253662 0.395681679248809814
-3.05070638656616211 -0.610403180122375488 0.341268181800842285
-2.94978928565979004 0.975752949714660645 0.399200648069381714
1.16865015029907227 0.660279512405395508 0.051771216094493866
-1.17981195449829102 0.54597926139831543 0.122500330209732056
-3.06180667877197266 -0.611735701560974121 0.343017488718032837
2.32543587684631348 2.04063129425048828 0.408096075057983398
-0.992584645748138428 -0.9046822190284729 0.389206200838088989
0.24565422534942627 1.31271266937255859 0.0634965375065803528
0.311396300792694092 3.0903167724609375 0.111454062163829803
1.09316623210906982 -0.746730685234069824 0.0616679750382900238
-2.52131938934326172 4.84003496170043945 0.382184892892837524
-2.95691251754760742 0.983147799968719482 0.411109387874603271
-0.936444759368896484 0.962361693382263184 0.273224711418151855
-1.30488216876983643 -0.0291026700288057327 0.314183801412582397
-1.9015117883682251 2.45669651031494141 0.124202221632003784
-2.52543354034423828 4.8396296501159668 0.378538012504577637
-1.17320132255554199 0.574060261249542236 0.133195489645004272
1.16401731967926025 0.662929832935333252 0.0603735595941543579
0.299526482820510864 3.09320545196533203 0.113108903169631958
2.04016685485839844 2.34260940551757812 0.193301752209663391
-2.93381762504577637 0.985289394855499268 0.396833032369613647
0.244537755846977234 1.30904972553253174 0.0589893460273742676
-0.932846724987030029 0.954996049404144287 0.258473843336105347
-0.994074761867523193 -0.907156825065612793 0.392760485410690308
-2.52529048919677734 4.84197187423706055 0.38258931040763855
-2.95702314376831055 0.981854796409606934 0.405761271715164185
-3.04434776306152344 -0.613104283809661865 0.317656576633453369
-3.05895328521728516 -0.607243061065673828 0.343313604593276978
-1.19854831695556641 0.523083388805389404 0.0932320058345794678
2.62109088897705078 1.69525516033172607 0.360399812459945679
-2.52122235298156738 4.84297037124633789 0.373282462358474731
-3.0505073070526123 -0.60915827751159668 0.333084940910339355
-0.994894206523895264 -0.903874516487121582 0.401408225297927856
2.85214972496032715 1.26150131225585938 0.11729828268289566
-1.00140798091888428 0.846650600433349609 0.233563780784606934
1.15401041507720947 0.666860580444335938 0.0493694692850112915
-2.52161812782287598 4.84211301803588867 0.372960209846496582
1.09083354473114014 -0.753602325916290283 0.057691819965839386
-1.90298676490783691 2.44270491600036621 0.120474107563495636
-0.94152677059173584 0.964428544044494629 0.257754266262054443
-2.95087027549743652 0.987303495407104492 0.405964851379394531
-0.934876024723052979 0.957420468330383301 0.266908854246139526
2.8440697193145752 1.24708962440490723 0.130119368433952332
2.84420013427734375 1.25914490222930908 0.121378406882286072
-0.99619525671005249 -0.903715610504150391 0.394268393516540527
2.32079839706420898 2.04626059532165527 0.43281853199005127
-0.931748509407043457 0.954685747623443604 0.262903928756713867
0.312044054269790649 3.09095430374145508 0.109420470893383026
0.247602418065071106 1.30846941471099854 0.0609906166791915894
2.02043294906616211 2.35972237586975098 0.16736285388469696
-1.89320981502532959 2.45518350601196289 0.110602036118507385
0.300945520401000977 3.088714599609375 0.126691818237304688
1.16208541393280029 0.662442982196807861 0.0606147795915603638
-3.04610466957092285 -0.608389556407928467 0.314952582120895386
-1.21267855167388916 0.514524221420288086 0.0942764878273010254
-2.94589066505432129 0.983378887176513672 0.410372257232666016
2.00461196899414062 2.3555755615234375 0.160045266151428223
0.298261940479278564 3.07733798027038574 0.111613012850284576
2.61764264106750488 1.6959308385848999 0.361443012952804565
-1.06244230270385742 0.790231227874755859 0.218569129705429077
2.85334396362304688 1.25632178783416748 0.138175055384635925
-2.95468974113464355 0.984650790691375732 0.404561489820480347
-0.995578587055206299 -0.904079437255859375 0.395555168390274048
-3.05538201332092285 -0.604836881160736084 0.322235316038131714
2.32405591011047363 2.04173159599304199 0.457278341054916382
-0.931654393672943115 0.954042673110961914 0.262242883443832397
-1.90247166156768799 2.46139240264892578 0.126187637448310852
-0.992410898208618164 -0.898622810840606689 0.389286816120147705
-0.985820353031158447 -0.903717339038848877 0.394763976335525513
-1.30679309368133545 -0.0326282382011413574 0.31176292896270752
2.8437659740447998 1.26048922538757324 0.13762316107749939
-3.04791402816772461 -0.615393996238708496 0.338607519865036011
-3.0435783863067627 -0.613899171352386475 0.326523095369338989
-3.04862093925476074 -0.608116686344146729 0.332567512989044189
-1.90190136432647705 2.43790411949157715 0.11589079350233078
-1.20772850513458252 0.515376269817352295 0.0941286534070968628
-2.52561616897583008 4.83905267715454102 0.378113299608230591
0.304051399230957031 3.08004593849182129 0.115041077136993408
-2.5236053466796875 4.83919429779052734 0.377143800258636475
-0.937444031238555908 0.955880820751190186 0.257459104061126709
-2.52502179145812988 4.83854579925537109 0.370809882879257202
-1.29201626777648926 -0.0282278098165988922 0.31206667423248291
-0.993512809276580811 -0.908605337142944336 0.393771320581436157
1.08743560314178467 -0.744862377643585205 0.0766125917434692383
-2.94882535934448242 0.980019748210906982 0.402349948883056641
-2.94658327102661133 0.983204305171966553 0.399352788925170898
-1.19025874137878418 0.501067757606506348 0.0954507738351821899
-0.937047839164733887 0.953781485557556152 0.262039035558700562
-1.89877986907958984 2.46356439590454102 0.12478773295879364
-3.04951620101928711 -0.605986833572387695 0.333144128322601318
-2.52485752105712891 4.83733510971069336 0.376447141170501709
-1.05530667304992676 0.82777935266494751 0.275727212429046631
2.01015496253967285 2.33957386016845703 0.160813182592391968
0.301051527261734009 3.09427142143249512 0.11538492888212204
-3.04434871673583984 -0.612571835517883301 0.324462682008743286
2.61968994140625 1.69549524784088135 0.364412575960159302
-1.31361019611358643 -0.0316258519887924194 0.317138552665710449
2.85213828086853027 1.26142263412475586 0.117366746068000793
2.04243874549865723 2.34960126876831055 0.16982579231262207
-1.20375776290893555 0.510326802730560303 0.0866179317235946655
1.09248745441436768 -0.74990004301071167 0.0611551180481910706
-0.978185832500457764 0.910287261009216309 0.246351853013038635
-1.29723620414733887 -0.0307045839726924896 0.310048043727874756
2.8409724235534668 1.25223767757415771 0.121157839894294739
0.298198461532592773 3.08487248420715332 0.121334746479988098
-2.95356225967407227 0.985140681266784668 0.404213309288024902
2.60318922996520996 1.69813048839569092 0.364363431930541992
2.84530496597290039 1.25253331661224365 0.124829858541488647
-2.94946503639221191 0.980404496192932129 0.402868896722793579
-1.90165913105010986 2.45153689384460449 0.120446257293224335
2.83190131187438965 1.23848485946655273 0.145575776696205139
-1.20002484321594238 0.518955111503601074 0.0954983383417129517
-2.52452969551086426 4.8394627571105957 0.376687049865722656
2.02254295349121094 2.35685181617736816 0.163671985268592834
0.312609255313873291 3.09023571014404297 0.106200903654098511
2.5987696647644043 1.69780433177947998 0.398363739252090454
-0.999334633350372314 -0.903199732303619385 0.400477588176727295
-0.932108581066131592 0.954498171806335449 0.263339042663574219
2.84213614463806152 1.25781834125518799 0.135886982083320618
2.31880497932434082 2.0543668270111084 0.419926345348358154
-2.95264434814453125 0.981283009052276611 0.399801015853881836
1.16253781318664551 0.667773783206939697 0.0491695702075958252
1.08607697486877441 -0.747208535671234131 0.0617615468800067902
-1.11622226238250732 0.709516406059265137 0.152983680367469788
-2.51439428329467773 4.83109331130981445 0.373472213745117188
-0.995956480503082275 -0.908053815364837646 0.392841190099716187
-0.935753107070922852 0.957494795322418213 0.266661405563354492
-2.95096349716186523 0.976787686347961426 0.403154700994491577
-1.90264797210693359 2.44486260414123535 0.123225443065166473
-2.5256040096282959 4.83702945709228516 0.37885671854019165
-2.52625226974487305 4.83567905426025391 0.378321439027786255
-1.02975451946258545 0.828669548034667969 0.316458374261856079
-2.5198521614074707 4.84153175354003906 0.376281887292861938
-2.52540755271911621 4.83879280090332031 0.382322996854782104
1.1586228609085083 0.666956901550292969 0.0640984922647476196
-1.90123081207275391 2.43848800659179688 0.115413136780261993
-2.52156591415405273 4.83760833740234375 0.380159318447113037
-3.05022239685058594 -0.609843015670776367 0.33131784200668335
0.247742533683776855 1.30625343322753906 0.0521154776215553284
2.84859704971313477 1.26512622833251953 0.133989214897155762
2.61177420616149902 1.68726706504821777 0.362181663513183594
-1.90105617046356201 2.44216322898864746 0.11746910959482193
-2.94371986389160156 0.981581568717956543 0.403506636619567871
-3.04866552352905273 -0.606177687644958496 0.327702075242996216
-1.89648962020874023 2.44824910163879395 0.112504921853542328
-2.95702314376831055 0.983394265174865723 0.407024532556533813
-0.934531986713409424 0.954222440719604492 0.268746405839920044
-1.9089972972869873 2.45593571662902832 0.125666648149490356
0.29442751407623291 3.0695335865020752 0.122184552252292633
2.3251492977142334 2.0323951244354248 0.423131793737411499
2.01593852043151855 2.3558804988861084 0.175866901874542236
-3.04646611213684082 -0.606469571590423584 0.330561161041259766
-1.90807056427001953 2.45329427719116211 0.12578149139881134
-3.0484623908996582 -0.611752629280090332 0.322465777397155762
-1.19810736179351807 0.518956601619720459 0.0934158787131309509
0.23721960186958313 1.29008722305297852 0.0729071944952011108
-0.930801749229431152 0.950999319553375244 0.252622038125991821
2.8445584774017334 1.25334501266479492 0.131823435425758362
-0.934751927852630615 0.953702747821807861 0.263991951942443848
-0.990063309669494629 -0.907305717468261719 0.398870378732681274
0.238587215542793274 1.31198573112487793 0.0612561404705047607
-0.938329398632049561 0.961030960083007812 0.276151478290557861
-1.17178559303283691 0.61778867244720459 0.16597515344619751
2.62063956260681152 1.69691336154937744 0.361823558807373047
-2.52449846267700195 4.83523988723754883 0.377694040536880493
-0.997652530670166016 -0.903870761394500732 0.389541536569595337
-0.999391376972198486 -0.905548751354217529 0.397250503301620483
-0.934374690055847168 0.957834303379058838 0.271789729595184326
-2.94313931465148926 0.983627676963806152 0.407525926828384399
0.290615320205688477 3.08346915245056152 0.115582890808582306
-3.04562020301818848 -0.609843790531158447 0.314430475234985352
2.86235308647155762 1.24786245822906494 0.144473522901535034
-0.934303224086761475 0.935691893100738525 0.261398881673812866
2.8390347957611084 1.24828600883483887 0.124704383313655853
0.239801421761512756 1.30875980854034424 0.057096429169178009
-2.52471685409545898 4.84242820739746094 0.383286505937576294
0.303601503372192383 3.07972431182861328 0.120648309588432312
0.299204319715499878 3.07796549797058105 0.121200554072856903
2.83375000953674316 1.25248968601226807 0.129550516605377197
0.250815153121948242 1.30605185031890869 0.0550679787993431091
2.01694822311401367 2.35300874710083008 0.164806574583053589
0.309741675853729248 3.09615731239318848 0.108985058963298798
-0.995467543601989746 -0.906742572784423828 0.393875062465667725
-1.19508397579193115 0.514782905578613281 0.0952398777008056641
1.16003119945526123 0.662748336791992188 0.0493292734026908875
2.61060786247253418 1.68712425231933594 0.363250970840454102
0.309347629547119141 3.0762791633605957 0.108398407697677612
2.85182619094848633 1.26153302192687988 0.120809458196163177
-1.21241486072540283 0.506966590881347656 0.0981018915772438049
1.0868840217590332 -0.749341249465942383 0.0628707632422447205
-1.30914139747619629 -0.0316729024052619934 0.316426455974578857
-0.939150810241699219 0.957776010036468506 0.264066725969314575
0.31707492470741272 3.08914494514465332 0.120523363351821899
2.32806038856506348 2.03258490562438965 0.424988359212875366
2.31970834732055664 2.03910183906555176 0.454406499862670898
-2.95595192909240723 0.984270453453063965 0.406300783157348633
-0.928296983242034912 0.946057021617889404 0.263209402561187744
-0.990272879600524902 -0.903635025024414062 0.386940628290176392
0.302931725978851318 3.0916435718536377 0.120156608521938324
-1.89935946464538574 2.44861841201782227 0.116335362195968628
0.241695374250411987 1.30617988109588623 0.0536379069089889526
-2.94905352592468262 0.983580648899078369 0.406262725591659546
-2.94874835014343262 0.980420172214508057 0.398192256689071655
0.304257571697235107 3.08678030967712402 0.110552027821540833
-3.04433155059814453 -0.6137961745262146 0.318488508462905884
-1.30801212787628174 -0.0293549112975597382 0.314573884010314941
-0.937382280826568604 0.958215594291687012 0.257544964551925659
-1.29286062717437744 -0.0280478820204734802 0.311283618211746216
2.31846833229064941 2.05001354217529297 0.446279406547546387
-1.31215751171112061 -0.0314046815037727356 0.318808436393737793
-2.95549249649047852 0.985442519187927246 0.406983822584152222
2.01138544082641602 2.34274649620056152 0.16380368173122406
0.303385287523269653 3.08719563484191895 0.114860400557518005
1.15997624397277832 0.646173477172851562 0.0581457763910293579
-1.89191746711730957 2.45688748359680176 0.111231863498687744
-2.52516627311706543 4.8379974365234375 0.378271400928497314
1.09659290313720703 -0.753445327281951904 0.0564655624330043793
-2.94508957862854004 0.985434055328369141 0.414328813552856445
-1.18371438980102539 0.553396940231323242 0.112240523099899292
-2.52227020263671875 4.83828020095825195 0.372916936874389648
-1.90802121162414551 2.45892500877380371 0.129029303789138794
0.294193297624588013 3.09234166145324707 0.119752094149589539
-1.90177261829376221 2.46541833877563477 0.126986041665077209
-2.51973867416381836 4.83654260635375977 0.3735942542552948
-0.935542702674865723 0.956241190433502197 0.266389906406402588
2.0279088020324707 2.35150504112243652 0.170678004622459412
-0.934677183628082275 0.956641197204589844 0.264651358127593994
