ply
format ascii 1.0
element vertex 249
comment vertices
property float x
property float y
property float z
end_header
-1.59668314456939697 -2.58723020553588867 -0.00395705550909042358
-0.6057586669921875 -0.750657916069030762 0.479273855686187744
-1.21984279155731201 -1.56060278415679932 0.442613124847412109
-0.273514479398727417 1.05118227005004883 0.105126559734344482
-0.204662680625915527 0.966653943061828613 0.131065785884857178
-1.19937527179718018 -1.47769832611083984 0.372357368469238281
-0.27863842248916626 0.979073286056518555 0.169891268014907837
-0.145492598414421082 0.987405776977539062 0.18518868088722229
-0.764787137508392334 -0.763579845428466797 0.37380710244178772
-1.34752929210662842 -1.55094480514526367 0.364771068096160889
-1.65136480331420898 -2.41780734062194824 0.000210978090763092041
-1.13464057445526123 -1.54024755954742432 0.268841326236724854
-0.282318353652954102 0.957291245460510254 0.113338768482208252
-1.73203790187835693 -2.59856510162353516 0.147483408451080322
-0.22123989462852478 0.947345912456512451 0.14725106954574585
-0.246264666318893433 1.04192185401916504 0.194035321474075317
-0.677103698253631592 -0.835370659828186035 0.372948914766311646
-1.2499232292175293 -1.66492259502410889 0.353626012802124023
-1.23491096496582031 -1.57470691204071045 0.504509449005126953
-0.249324679374694824 0.945846080780029297 0.108924314379692078
-0.322355180978775024 1.02572774887084961 0.143415778875350952
-0.241569459438323975 0.963311433792114258 0.0780962258577346802
-0.65073782205581665 -0.771866142749786377 0.431608587503433228
-0.626922845840454102 -0.726916849613189697 0.578852474689483643
-0.354309916496276855 0.971345663070678711 0.156499117612838745
-1.67121827602386475 -2.4967656135559082 0.0132976621389389038
-0.21444721519947052 0.961752176284790039 0.111352592706680298
-1.6733020544052124 -2.70457291603088379 0.112921573221683502
-0.0539975017309188843 1.03782200813293457 0.193336695432662964
-1.21932017803192139 -1.5979379415512085 0.313657373189926147
-0.726769328117370605 -0.729999721050262451 0.411772012710571289
-0.133081376552581787 1.06546056270599365 0.152658194303512573
-1.59810876846313477 -2.55464577674865723 0.0872115716338157654
-1.22630846500396729 -1.52522933483123779 0.536405563354492188
-0.205943331122398376 0.986152350902557373 0.166151523590087891
-1.29720377922058105 -1.62503719329833984 0.449955224990844727
-0.238879486918449402 0.991001427173614502 0.159184306859970093
-0.301398813724517822 0.97414088249206543 0.199038565158843994
-0.276428550481796265 0.937841057777404785 0.19086870551109314
-0.246154636144638062 1.04363787174224854 0.233675241470336914
-0.202609747648239136 0.98417210578918457 0.186017543077468872
-0.194388091564178467 0.99975663423538208 0.0778660550713539124
-0.545849382877349854 -0.771351277828216553 0.464312553405761719
-0.293840080499649048 0.982350587844848633 0.0927494540810585022
-1.17264461517333984 -1.62188136577606201 0.406152009963989258
-1.24772155284881592 -1.57745134830474854 0.442771732807159424
-1.75239944458007812 -2.72153973579406738 0.162442430853843689
-0.236673682928085327 1.04330718517303467 0.124755844473838806
-1.16949808597564697 -1.56570816040039062 0.559912919998168945
-0.341296076774597168 0.985689759254455566 0.181710794568061829
-0.673100292682647705 -0.718851149082183838 0.536779522895812988
-1.17564082145690918 -1.50488793849945068 0.338442713022232056
-1.61154639720916748 -2.50458145141601562 -0.0159231722354888916
-0.228389084339141846 0.973906278610229492 0.21131858229637146
-1.19706130027770996 -1.57372665405273438 0.432578802108764648
-0.696421802043914795 -0.762639045715332031 0.349697202444076538
-1.65932917594909668 -2.65782499313354492 0.103596307337284088
-1.70073449611663818 -2.64332699775695801 0.179118961095809937
-1.28563010692596436 -1.59871411323547363 0.376537293195724487
-0.22544415295124054 0.999349594116210938 0.107216596603393555
-1.67060208320617676 -2.51305103302001953 0.065000385046005249
-0.255647569894790649 0.934950947761535645 0.0608739033341407776
-0.627259135246276855 -0.767938971519470215 0.414941936731338501
-0.241426616907119751 0.985062301158905029 0.142957299947738647
-0.23211371898651123 0.923614621162414551 0.20417475700378418
-0.149220719933509827 1.00639498233795166 0.180464714765548706
-0.301244139671325684 0.977469384670257568 0.0973394513130187988
-0.22017139196395874 0.939352631568908691 0.144774526357650757
-0.290220379829406738 0.965796768665313721 0.131242647767066956
-0.264845132827758789 1.00203096866607666 0.205931872129440308
-0.345171868801116943 0.989276707172393799 0.155569165945053101
-0.675855934619903564 -0.703413009643554688 0.496314108371734619
-0.307989329099655151 0.985899686813354492 0.169411897659301758
-0.229858666658401489 0.967226982116699219 0.159914091229438782
-0.184537976980209351 1.01188158988952637 0.103052258491516113
-1.60242211818695068 -2.64566302299499512 0.0883082225918769836
-0.252444446086883545 0.930136919021606445 0.212013840675354004
-1.21938169002532959 -1.51490676403045654 0.420395940542221069
-0.254767030477523804 0.983007907867431641 0.202092736959457397
-1.2267448902130127 -1.6037675142288208 0.376928389072418213
-1.1906810998916626 -1.5601571798324585 0.434706687927246094
-0.212480545043945312 0.927235245704650879 0.185007482767105103
-0.239065989851951599 1.03052079677581787 0.172106742858886719
-0.224950015544891357 0.997840404510498047 0.150636762380599976
-1.61011350154876709 -2.64535188674926758 -0.00785341113805770874
-1.63490927219390869 -2.63175511360168457 0.181723624467849731
-0.224702745676040649 0.992677450180053711 0.152538836002349854
-0.644254207611083984 -0.701910138130187988 0.525449514389038086
-0.657624721527099609 -0.780533790588378906 0.437125802040100098
-1.64010238647460938 -2.55686616897583008 0.0269930493086576462
-0.29568934440612793 0.965961039066314697 0.15501365065574646
-0.198127955198287964 1.02510583400726318 0.178973257541656494
-0.287399351596832275 1.02006351947784424 0.161729872226715088
-1.76700019836425781 -2.68638181686401367 0.168332815170288086
-0.288621634244918823 0.970256567001342773 0.145303651690483093
-0.692789673805236816 -0.739742100238800049 0.435359388589859009
-0.318138241767883301 0.950891733169555664 0.109170295298099518
-1.17857193946838379 -1.60457909107208252 0.316141307353973389
-1.23070168495178223 -1.63099980354309082 0.445539593696594238
-0.68551027774810791 -0.750679254531860352 0.389734983444213867
-1.26717185974121094 -1.59157752990722656 0.31980586051940918
-0.382664322853088379 1.03795266151428223 0.180050879716873169
-0.359117865562438965 0.99464946985244751 0.0842266976833343506
-0.218467384576797485 0.983456015586853027 0.102795608341693878
-0.177610844373703003 1.0041433572769165 0.184380710124969482
-1.67412209510803223 -2.68686747550964355 0.12847195565700531
-1.70972728729248047 -2.74604463577270508 0.154769062995910645
-0.170588284730911255 0.988403499126434326 0.114615380764007568
-0.262882113456726074 0.997465252876281738 0.218068689107894897
-0.264125585556030273 0.991575300693511963 0.176726847887039185
-1.61829936504364014 -2.60671734809875488 0.0851800292730331421
-0.196007013320922852 0.997786462306976318 0.158690571784973145
-0.294679522514343262 0.945534944534301758 0.180202007293701172
-0.153426006436347961 1.10032618045806885 0.166799247264862061
-1.6494523286819458 -2.47860217094421387 -0.00998581200838088989
-0.213819622993469238 0.958596527576446533 0.131590396165847778
-1.26881909370422363 -1.56899547576904297 0.392173141241073608
-0.218381911516189575 0.982294142246246338 0.160211622714996338
-1.66582965850830078 -2.57716894149780273 0.126352280378341675
-0.259682267904281616 0.965002298355102539 0.0571557506918907166
-0.300639748573303223 1.03693723678588867 0.0771919712424278259
-1.28335559368133545 -1.59724509716033936 0.406386792659759521
-0.289250284433364868 0.982769668102264404 0.175484001636505127
-0.281553864479064941 0.968192517757415771 0.2028961181640625
-1.14406192302703857 -1.45799517631530762 0.267036885023117065
-0.299824655055999756 1.00877571105957031 0.191356539726257324
-1.26510334014892578 -1.57666265964508057 0.471269130706787109
-0.666933238506317139 -0.754753351211547852 0.44110572338104248
-0.219437986612319946 0.98746103048324585 0.182006716728210449
-0.298407584428787231 0.979132354259490967 0.129843413829803467
-0.223183274269104004 0.945548176765441895 0.122887022793292999
-1.1589202880859375 -1.49965846538543701 0.425344347953796387
-1.21236252784729004 -1.56463837623596191 0.51563262939453125
-0.244676694273948669 0.917682170867919922 0.121081098914146423
-0.261982232332229614 0.954534769058227539 0.114313460886478424
-0.341047883033752441 1.00223124027252197 0.159696146845817566
-0.289081096649169922 0.96943134069442749 0.169115811586380005
-0.25018775463104248 1.00154507160186768 0.0985878407955169678
-0.233214125037193298 0.955532550811767578 0.128604888916015625
-1.1844637393951416 -1.56042361259460449 0.386782705783843994
-0.295376211404800415 0.950640201568603516 0.16196635365486145
-0.659131824970245361 -0.795539379119873047 0.408811777830123901
-0.202177673578262329 1.077850341796875 0.177974164485931396
-0.261917978525161743 0.957059085369110107 0.0998931527137756348
-1.25900161266326904 -1.58191382884979248 0.465402990579605103
-1.6667250394821167 -2.60384726524353027 0.0401000231504440308
-0.251908540725708008 0.98683696985244751 0.175926536321640015
-0.354225516319274902 1.04374539852142334 0.169028431177139282
-0.316819727420806885 0.977603137493133545 0.0983435586094856262
-1.20413601398468018 -1.58220970630645752 0.335596680641174316
-0.307527244091033936 0.971086025238037109 0.0734219774603843689
-1.62136447429656982 -2.6453094482421875 0.0696680620312690735
-1.14931416511535645 -1.47773528099060059 0.339813739061355591
-1.69239127635955811 -2.64229130744934082 0.175746724009513855
-0.312724888324737549 0.989095509052276611 0.0949043482542037964
-1.20373868942260742 -1.49299919605255127 0.361647814512252808
-1.20479822158813477 -1.55827391147613525 0.46933901309967041
-0.278044939041137695 0.96829986572265625 0.238097488880157471
-0.269857108592987061 0.918854892253875732 0.104547269642353058
-0.673053503036499023 -0.68785405158996582 0.553336977958679199
-1.19312238693237305 -1.51559937000274658 0.456657171249389648
-0.236703246831893921 1.02114510536193848 0.103987313807010651
-0.614728093147277832 -0.742864251136779785 0.436776697635650635
-1.21980154514312744 -1.60259377956390381 0.406983077526092529
-0.328653156757354736 0.984291255474090576 0.187366694211959839
-0.311896204948425293 0.967691183090209961 0.15046653151512146
-0.182067155838012695 1.07093584537506104 0.167457371950149536
-0.671697258949279785 -0.748122453689575195 0.479004621505737305
-0.699456989765167236 -0.801747262477874756 0.38091665506362915
-0.210540920495986938 0.990834653377532959 0.101086735725402832
-0.281068861484527588 0.966413199901580811 0.183036357164382935
-0.255911290645599365 0.995252370834350586 0.230515986680984497
-0.178254783153533936 1.00874900817871094 0.108988068997859955
-0.682479619979858398 -0.762114048004150391 0.397967129945755005
-1.24568867683410645 -1.56831037998199463 0.448575735092163086
-0.208169698715209961 0.973501682281494141 0.154358461499214172
-1.6442413330078125 -2.53780245780944824 0.0461554639041423798
-0.231250166893005371 1.02988779544830322 0.122171446681022644
-1.18749535083770752 -1.55463576316833496 0.472143352031707764
-1.62487232685089111 -2.67420530319213867 0.144546881318092346
-1.1472247838973999 -1.47992908954620361 0.261430859565734863
-1.63215947151184082 -2.51691865921020508 -0.0267077349126338959
-0.712275981903076172 -0.750629305839538574 0.37366485595703125
-1.65827679634094238 -2.59645199775695801 0.065497078001499176
-1.1819312572479248 -1.59051418304443359 0.39993518590927124
-0.263281285762786865 0.994821667671203613 0.20903506875038147
-0.699122190475463867 -0.717244982719421387 0.464300453662872314
-1.66840791702270508 -2.42162919044494629 -0.00123202055692672729
-0.186340108513832092 1.07848000526428223 0.175082683563232422
-0.219865143299102783 1.02185511589050293 0.177667677402496338
-0.650525152683258057 -0.727173924446105957 0.452193707227706909
-0.713086307048797607 -0.735092401504516602 0.430021733045578003
-0.638716816902160645 -0.710106015205383301 0.508345484733581543
-0.300815045833587646 0.9896811842918396 0.0884355902671813965
-0.247932165861129761 0.947114169597625732 0.172246962785720825
-0.240292087197303772 0.966493427753448486 0.129828989505767822
-1.22481811046600342 -1.5796973705291748 0.462608128786087036
-0.32677111029624939 0.981483817100524902 0.137267589569091797
-0.209781035780906677 1.00544726848602295 0.105025231838226318
-1.25628006458282471 -1.59201860427856445 0.390664517879486084
-1.6927793025970459 -2.62677717208862305 0.124165095388889313
-0.309237360954284668 0.910959839820861816 0.202361643314361572
-1.68704962730407715 -2.75145697593688965 0.127635061740875244
-1.20833981037139893 -1.60534167289733887 0.426045328378677368
-0.600821614265441895 -0.74348914623260498 0.492312699556350708
-0.216768801212310791 0.993739545345306396 0.119134515523910522
-1.20831382274627686 -1.52560341358184814 0.38926231861114502
-1.33844625949859619 -1.55764305591583252 0.398503720760345459
-1.22991204261779785 -1.58556473255157471 0.392534613609313965
-0.282502174377441406 0.986463010311126709 0.111140042543411255
-0.668005108833312988 -0.703265786170959473 0.519657731056213379
-0.226685017347335815 0.951831519603729248 0.198007822036743164
-0.286004066467285156 0.964463293552398682 0.169193357229232788
-0.280357688665390015 0.981238663196563721 0.162714451551437378
-0.194964930415153503 0.943937480449676514 0.170325964689254761
-0.261200785636901855 0.920143365859985352 0.0706950947642326355
-0.243005767464637756 1.06118977069854736 0.184428125619888306
-0.220395565032958984 0.968062520027160645 0.1947479248046875
-1.57979142665863037 -2.61379623413085938 0.0953043550252914429
-1.62530279159545898 -2.43599700927734375 -0.0355284661054611206
-0.114118590950965881 1.02506482601165771 0.180915951728820801
-1.28888785839080811 -1.56686067581176758 0.350271373987197876
-0.237336397171020508 0.97284388542175293 0.162037894129753113
-0.687151074409484863 -0.793779909610748291 0.358407467603683472
-0.178699761629104614 0.984541833400726318 0.193479567766189575
-0.20569784939289093 1.00084280967712402 0.190372943878173828
-0.691272139549255371 -0.737679958343505859 0.439892619848251343
-0.662194967269897461 -0.760587930679321289 0.428903013467788696
-1.62507116794586182 -2.60878610610961914 0.00969819352030754089
-0.245045214891433716 0.996879875659942627 0.156875640153884888
-0.231384024024009705 0.991814732551574707 0.16157868504524231
-1.65030300617218018 -2.64373970031738281 0.155612558126449585
-1.15697157382965088 -1.55810987949371338 0.481680005788803101
-0.17353472113609314 0.963567554950714111 0.133186876773834229
-0.319439440965652466 0.965432703495025635 0.151523828506469727
-0.184345543384552002 1.00716602802276611 0.181228131055831909
-0.61239314079284668 -0.722181022167205811 0.482847750186920166
-0.23851892352104187 0.977015078067779541 0.136012345552444458
-0.323341518640518188 0.943294048309326172 0.143574297428131104
-1.17825484275817871 -1.55800175666809082 0.505586326122283936
-0.236373275518417358 0.942227602005004883 0.167022705078125
-1.61790692806243896 -2.58951616287231445 0.128811940550804138
-0.612302303314208984 -0.794896721839904785 0.390558093786239624
-1.19270873069763184 -1.6051480770111084 0.370048344135284424
-1.62481367588043213 -2.53615689277648926 0.0191424079239368439
-0.241151481866836548 0.98287355899810791 0.201950579881668091
-0.66585010290145874 -0.757120311260223389 0.394857168197631836
-1.20024466514587402 -1.55852639675140381 0.556354045867919922
-0.235878020524978638 0.936535835266113281 0.0775911882519721985
