ply
format ascii 1.0
element vertex 256
comment vertices
property float x
property float y
property float z
end_header
0.709717452526092529 0.643877863883972168 0.094826921820640564
-0.879280805587768555 -0.445232599973678589 0.281145304441452026
0.332666575908660889 -1.18830764293670654 0.472895979881286621
0.68529355525970459 -0.530873537063598633 0.514955401420593262
0.171933501958847046 -0.788257300853729248 0.31603008508682251
-0.732513666152954102 -0.390845119953155518 0.295530110597610474
0.142210453748703003 -1.083709716796875 0.284408241510391235
0.469858080148696899 -0.746379971504211426 0.297251850366592407
0.244921743869781494 -1.11979889869689941 0.428659915924072266
-0.875862061977386475 -0.396891176700592041 0.364409714937210083
-0.778990626335144043 -0.452572047710418701 0.288043290376663208
0.364782869815826416 -0.818701505661010742 0.191847324371337891
-0.677246987819671631 -0.39660722017288208 0.275265157222747803
0.568251729011535645 -0.75361943244934082 0.317678958177566528
0.168015420436859131 -1.05310547351837158 0.227272778749465942
0.0848698541522026062 -0.951304256916046143 0.284831106662750244
-0.877285122871398926 -0.419222474098205566 0.404419839382171631
0.555415153503417969 -0.743533790111541748 0.448979198932647705
-0.814938247203826904 -0.436356157064437866 0.28604501485824585
-0.801271378993988037 -0.395886778831481934 0.326178193092346191
0.670174062252044678 0.683794856071472168 0.221246302127838135
-0.707401871681213379 -0.353362917900085449 0.253077775239944458
0.360425204038619995 -0.860094845294952393 0.286802858114242554
0.339460641145706177 -1.12397384643554688 0.324841707944869995
-0.854570984840393066 -0.427110910415649414 0.333076775074005127
0.681934595108032227 0.511248588562011719 0.163900971412658691
0.217814132571220398 -0.897559106349945068 0.33053627610206604
-0.791240870952606201 -0.438598483800888062 0.301435530185699463
0.327850908041000366 -0.753065764904022217 0.251625865697860718
0.479725092649459839 -0.828383147716522217 0.446976423263549805
0.361197888851165771 -0.741792261600494385 0.229918450117111206
-0.679871499538421631 -0.391766250133514404 0.273764848709106445
0.119229614734649658 -1.10452008247375488 0.29410320520401001
-0.758372247219085693 -0.466481387615203857 0.374416381120681763
0.622183918952941895 0.579673349857330322 0.186674937605857849
0.290339291095733643 -1.08164215087890625 0.381112813949584961
0.146657928824424744 -0.849207460880279541 0.311696827411651611
0.11041770875453949 -1.09632956981658936 0.272716343402862549
0.647751569747924805 -0.716649889945983887 0.415123581886291504
0.170179873704910278 -0.984280884265899658 0.304539710283279419
0.225113421678543091 -0.80968928337097168 0.267126560211181641
-0.812665879726409912 -0.41846039891242981 0.345032453536987305
0.565676033496856689 -0.746877789497375488 0.383887887001037598
-0.845851600170135498 -0.430558681488037109 0.264430791139602661
-0.839548349380493164 -0.431557446718215942 0.301487952470779419
0.338080286979675293 -0.924636006355285645 0.227840244770050049
0.682162225246429443 0.722561538219451904 0.161509051918983459
0.246918529272079468 -0.807840585708618164 0.237984389066696167
0.220639258623123169 -1.12609994411468506 0.262196660041809082
-0.81043773889541626 -0.388701796531677246 0.304945439100265503
0.116808444261550903 -1.07133269309997559 0.189267933368682861
0.110396325588226318 -0.935666382312774658 0.30971565842628479
-0.813484072685241699 -0.427362918853759766 0.243645459413528442
0.536242842674255371 -0.746711611747741699 0.428431212902069092
-0.730364441871643066 -0.343174993991851807 0.23382587730884552
-0.870279848575592041 -0.427004545927047729 0.356268763542175293
0.776580631732940674 0.621289074420928955 0.0675160065293312073
-0.818318188190460205 -0.44268423318862915 0.311038702726364136
0.633526623249053955 -0.802572727203369141 0.56052243709564209
0.725910425186157227 0.631765544414520264 0.148436129093170166
-0.749207913875579834 -0.392492383718490601 0.299477219581604004
-0.771075546741485596 -0.488986402750015259 0.324225127696990967
-0.866292655467987061 -0.431959360837936401 0.345969527959823608
-0.762225568294525146 -0.38595658540725708 0.308371186256408691
0.209352031350135803 -1.06943011283874512 0.330461561679840088
-0.854729712009429932 -0.473890095949172974 0.263806998729705811
0.360755562782287598 -1.01389384269714355 0.298702120780944824
0.439704746007919312 -0.79463660717010498 0.295430183410644531
0.230361312627792358 -0.834386646747589111 0.333166152238845825
0.261065006256103516 -1.26833510398864746 0.413952261209487915
-0.799012959003448486 -0.414009600877761841 0.363431155681610107
0.153783798217773438 -1.01532125473022461 0.311132669448852539
0.539587616920471191 -0.751562356948852539 0.361978977918624878
0.120301365852355957 -1.09893214702606201 0.261290699243545532
0.140288084745407104 -1.05068302154541016 0.261642426252365112
-0.887566447257995605 -0.356647968292236328 0.338510245084762573
0.541636824607849121 -0.825621962547302246 0.334216684103012085
0.318839222192764282 -0.853324353694915771 0.260497629642486572
0.596594929695129395 -0.666306257247924805 0.389991015195846558
-0.852174878120422363 -0.417650043964385986 0.302150756120681763
0.471660375595092773 -0.736533045768737793 0.324832260608673096
0.675120890140533447 0.557950913906097412 0.183381408452987671
0.695312619209289551 0.721732139587402344 0.0876259580254554749
-0.845185160636901855 -0.392482548952102661 0.287023395299911499
0.683230459690093994 0.629662513732910156 0.175125613808631897
0.754754126071929932 0.615937650203704834 0.114118427038192749
-0.819129467010498047 -0.420966982841491699 0.274758130311965942
-0.784226357936859131 -0.456783801317214966 0.369558155536651611
-0.706618309020996094 -0.388725697994232178 0.277929902076721191
0.18509519100189209 -0.94618070125579834 0.209537237882614136
-0.799737930297851562 -0.415155410766601562 0.305207997560501099
-0.842904567718505859 -0.431663960218429565 0.307132154703140259
0.164905518293380737 -0.847320377826690674 0.262646108865737915
0.120139561593532562 -1.05700206756591797 0.300783306360244751
0.345908313989639282 -0.790847599506378174 0.240200921893119812
0.127145528793334961 -0.92328035831451416 0.211319446563720703
-0.864457190036773682 -0.450456410646438599 0.269965082406997681
0.610844314098358154 -0.706303060054779053 0.378563791513442993
0.275460779666900635 -0.928375542163848877 0.241744458675384521
-0.736975431442260742 -0.371970504522323608 0.290134608745574951
0.122477322816848755 -1.05392348766326904 0.228721261024475098
0.54088670015335083 -0.748276591300964355 0.386479109525680542
-0.832692503929138184 -0.450127005577087402 0.341917723417282104
0.612664222717285156 -0.777639031410217285 0.451175719499588013
0.343950629234313965 -0.837128818035125732 0.320379674434661865
0.552649140357971191 -0.738585293292999268 0.401622354984283447
-0.820559322834014893 -0.470344245433807373 0.337747633457183838
0.366076529026031494 -0.884722054004669189 0.303853452205657959
-0.814969658851623535 -0.37107318639755249 0.290763735771179199
0.245007753372192383 -1.1192857027053833 0.345631837844848633
0.296542704105377197 -1.01993644237518311 0.269171386957168579
-0.870758533477783203 -0.46302369236946106 0.282414466142654419
0.307553768157958984 -0.770346403121948242 0.223493069410324097
0.231959313154220581 -0.80277705192565918 0.345555752515792847
0.117507621645927429 -1.11309850215911865 0.314750850200653076
0.439791977405548096 -0.83455204963684082 0.321758806705474854
0.099345773458480835 -1.06614995002746582 0.232181400060653687
0.343324720859527588 -1.11930704116821289 0.306273430585861206
-0.785437524318695068 -0.431880593299865723 0.303095012903213501
-0.860393047332763672 -0.387704998254776001 0.315641254186630249
-0.829679608345031738 -0.395148813724517822 0.268408000469207764
0.27219843864440918 -0.820457756519317627 0.194036722183227539
0.511932790279388428 -0.758012115955352783 0.37076038122177124
0.39445042610168457 -0.727403163909912109 0.415094733238220215
-0.795769274234771729 -0.422520279884338379 0.306839227676391602
-0.879838287830352783 -0.385251820087432861 0.29652896523475647
0.704298198223114014 0.614120185375213623 0.13422587513923645
-0.761855125427246094 -0.467765450477600098 0.318081796169281006
0.142785549163818359 -1.05996835231781006 0.189200043678283691
0.0747589245438575745 -0.921872496604919434 0.277213990688323975
0.147564560174942017 -1.04914689064025879 0.283902376890182495
0.354414224624633789 -0.874665379524230957 0.255829334259033203
-0.853432416915893555 -0.386958032846450806 0.321146130561828613
-0.764863014221191406 -0.519235551357269287 0.277363985776901245
0.724861502647399902 0.663126647472381592 0.163866311311721802
0.537932872772216797 -0.771229684352874756 0.36913725733757019
0.58379209041595459 -0.702642917633056641 0.373155087232589722
0.529394805431365967 -0.67206108570098877 0.45070299506187439
-0.860208749771118164 -0.473136007785797119 0.257662296295166016
0.325852543115615845 -0.783210813999176025 0.287035048007965088
0.127666622400283813 -0.822116374969482422 0.306844621896743774
-0.769384920597076416 -0.426579922437667847 0.287856698036193848
0.713966071605682373 0.582294344902038574 0.125078141689300537
0.209495097398757935 -0.830417990684509277 0.311097323894500732
0.0871009975671768188 -1.09666943550109863 0.246544033288955688
0.713714182376861572 0.544537186622619629 0.155051231384277344
0.530383288860321045 -0.755021989345550537 0.289887547492980957
0.251643478870391846 -0.930958330631256104 0.219705641269683838
0.257983922958374023 -1.08340215682983398 0.228057980537414551
0.175469666719436646 -1.04261088371276855 0.266140878200531006
-0.851170539855957031 -0.437242060899734497 0.300434201955795288
-0.854231655597686768 -0.438366502523422241 0.271335721015930176
-0.692791759967803955 -0.385879069566726685 0.274784594774246216
0.520357787609100342 -0.767863273620605469 0.40825963020324707
-0.747045993804931641 -0.433417469263076782 0.297022104263305664
0.562723398208618164 -0.712044239044189453 0.379280179738998413
-0.824414491653442383 -0.416417956352233887 0.26702389121055603
-0.86690056324005127 -0.433176100254058838 0.342965304851531982
0.152699410915374756 -1.09354710578918457 0.276838302612304688
0.702727437019348145 0.679577112197875977 0.126600787043571472
0.241851672530174255 -1.25660848617553711 0.48353111743927002
0.267522811889648438 -0.830859839916229248 0.40382617712020874
0.17027696967124939 -0.878726005554199219 0.24889075756072998
0.439871370792388916 -0.75796806812286377 0.311760246753692627
-0.774080276489257812 -0.389441341161727905 0.32855224609375
-0.834549427032470703 -0.430066138505935669 0.27919471263885498
0.595861077308654785 -0.71311497688293457 0.33691173791885376
0.137116789817810059 -1.08600306510925293 0.248820096254348755
-0.804067730903625488 -0.483036190271377563 0.313561499118804932
0.599281668663024902 -0.783342659473419189 0.371082484722137451
0.755896210670471191 0.649677515029907227 0.127258270978927612
0.371719270944595337 -0.750156283378601074 0.319439440965652466
-0.772595763206481934 -0.468972712755203247 0.294611901044845581
0.297504156827926636 -0.80833667516708374 0.160938352346420288
0.153129041194915771 -1.07683050632476807 0.225267469882965088
-0.788004696369171143 -0.467147082090377808 0.296842187643051147
0.30076146125793457 -1.1204150915145874 0.294113993644714355
0.742144465446472168 0.621008157730102539 0.0879591256380081177
-0.853760838508605957 -0.415735900402069092 0.271627932786941528
-0.726416230201721191 -0.398476541042327881 0.282560586929321289
-0.821533322334289551 -0.419471621513366699 0.297925412654876709
0.670186281204223633 0.705082833766937256 0.103086397051811218
0.274702131748199463 -0.854857027530670166 0.321539640426635742
0.187074542045593262 -0.970543742179870605 0.30369994044303894
0.342065960168838501 -0.906773924827575684 0.411686122417449951
0.693314313888549805 0.637724399566650391 0.190504133701324463
0.536183178424835205 -0.864392638206481934 0.297705560922622681
0.300453305244445801 -0.740138888359069824 0.348021209239959717
0.317671239376068115 -0.794642984867095947 0.251718223094940186
-0.846238851547241211 -0.468506336212158203 0.395504564046859741
0.379157930612564087 -0.830370903015136719 0.300493210554122925
0.698027133941650391 0.606319904327392578 0.108923971652984619
-0.810135900974273682 -0.431823998689651489 0.314063400030136108
-0.854071915149688721 -0.339927464723587036 0.374666213989257812
-0.827160835266113281 -0.428570657968521118 0.313466906547546387
0.466198861598968506 -0.808800280094146729 0.242164373397827148
0.555578112602233887 -0.742857813835144043 0.341533809900283813
-0.822197914123535156 -0.376390695571899414 0.229468166828155518
0.306421488523483276 -1.10875046253204346 0.358604639768600464
-0.792743086814880371 -0.45508110523223877 0.344678580760955811
-0.804050922393798828 -0.38065531849861145 0.279700964689254761
0.660315513610839844 -0.631603062152862549 0.450128853321075439
0.543223977088928223 -0.762026429176330566 0.424586325883865356
-0.890654921531677246 -0.438773542642593384 0.325134515762329102
0.188526540994644165 -0.845934391021728516 0.250235706567764282
0.373325079679489136 -0.849421858787536621 0.266692072153091431
-0.82152259349822998 -0.390861302614212036 0.294622540473937988
-0.83423316478729248 -0.463745176792144775 0.335443615913391113
-0.834720909595489502 -0.441129237413406372 0.317803889513015747
0.159119561314582825 -1.08290457725524902 0.252256095409393311
-0.745430707931518555 -0.364286512136459351 0.302654266357421875
0.430209368467330933 -0.718962907791137695 0.378893762826919556
0.108342632651329041 -1.09633195400238037 0.278428047895431519
-0.796579182147979736 -0.425947636365890503 0.292333096265792847
-0.823899209499359131 -0.459874778985977173 0.355255872011184692
0.214496225118637085 -0.812125563621520996 0.345399945974349976
0.212657779455184937 -0.802861034870147705 0.356694161891937256
-0.802380800247192383 -0.431485205888748169 0.344215601682662964
-0.805367946624755859 -0.442021936178207397 0.305617868900299072
-0.769004702568054199 -0.42647060751914978 0.337124764919281006
-0.834266602993011475 -0.411731362342834473 0.292780160903930664
0.504398643970489502 -0.785603106021881104 0.358579099178314209
-0.699525654315948486 -0.395170748233795166 0.299856126308441162
0.660221874713897705 0.590024471282958984 0.185605049133300781
0.523619890213012695 -0.751950323581695557 0.383481264114379883
0.0729082897305488586 -0.952979981899261475 0.276129812002182007
0.199549868702888489 -0.99704819917678833 0.220493495464324951
-0.780270934104919434 -0.410138070583343506 0.272032082080841064
-0.816079616546630859 -0.43496975302696228 0.326719015836715698
-0.719661414623260498 -0.346269071102142334 0.296741366386413574
-0.861276507377624512 -0.462440639734268188 0.336668014526367188
0.489598989486694336 -0.737069904804229736 0.365207403898239136
-0.850568771362304688 -0.465170085430145264 0.265925019979476929
-0.783861875534057617 -0.490617454051971436 0.323762506246566772
0.153430014848709106 -1.0459752082824707 0.261761099100112915
0.688649296760559082 0.658859670162200928 0.1989116370677948
-0.785021007061004639 -0.431382328271865845 0.31418570876121521
-0.797741711139678955 -0.431446492671966553 0.30292057991027832
0.23834364116191864 -0.837265193462371826 0.375660419464111328
0.483733475208282471 -0.746543049812316895 0.31668582558631897
0.598299384117126465 -0.709155738353729248 0.383088529109954834
-0.819614231586456299 -0.417594432830810547 0.337369978427886963
-0.855604887008666992 -0.433378726243972778 0.276269018650054932
-0.813558280467987061 -0.441272944211959839 0.308982491493225098
0.0994379743933677673 -0.932877182960510254 0.247569292783737183
-0.636266648769378662 -0.353073358535766602 0.268753737211227417
-0.795015454292297363 -0.434932082891464233 0.288895845413208008
-0.839873015880584717 -0.488915890455245972 0.365479826927185059
0.152219593524932861 -1.07795774936676025 0.256410509347915649
0.28091004490852356 -0.880932509899139404 0.314852237701416016
-0.699858307838439941 -0.39913514256477356 0.286841392517089844
0.206572785973548889 -0.791794240474700928 0.371091753244400024
-0.700642883777618408 -0.369867414236068726 0.271623998880386353
0.187032818794250488 -0.806425034999847412 0.320473641157150269
-0.789589941501617432 -0.430282831192016602 0.274897754192352295
0.3173714280128479 -0.820224165916442871 0.263170212507247925
