ply
format ascii 1.0
element vertex 256
comment vertices
property float x
property float y
property float z
end_header
-1.63383364677429199 -2.58555078506469727 -0.0411862283945083618
-0.143491491675376892 1.2292327880859375 0.223303794860839844
-0.578095793724060059 -0.815323233604431152 0.35872986912727356
-1.23791790008544922 -1.68029069900512695 0.4189186692237854
-0.386702537536621094 0.896264433860778809 0.0623542554676532745
-0.18197166919708252 0.86608654260635376 0.429228365421295166
-0.0739071816205978394 1.04587686061859131 -0.0937313959002494812
-1.25532281398773193 -1.40405154228210449 0.253432303667068481
-1.708701491355896 -2.83278155326843262 0.147309094667434692
-0.359923720359802246 1.09018290042877197 0.316644012928009033
-0.0482031740248203278 0.957999706268310547 0.215810224413871765
-0.775362849235534668 -0.924014806747436523 0.213512182235717773
-1.41167557239532471 -1.66065478324890137 0.223927021026611328
-1.64015519618988037 -2.37989234924316406 0.0291320011019706726
-1.20125186443328857 -1.60070717334747314 0.179395407438278198
-0.240113690495491028 1.04833686351776123 0.0549448728561401367
-1.80317068099975586 -2.61937594413757324 0.0697923526167869568
-0.246030941605567932 0.88281780481338501 0.237117648124694824
-0.104014188051223755 1.06268095970153809 0.375432491302490234
-0.591912627220153809 -1.0110318660736084 0.367317855358123779
-1.2612532377243042 -1.83011984825134277 0.295786947011947632
-1.33218598365783691 -1.54793441295623779 0.344867706298828125
-0.327895075082778931 1.18941831588745117 0.17333906888961792
-0.318178325891494751 0.979428410530090332 0.438984096050262451
-0.184918031096458435 1.05679166316986084 0.218948319554328918
-0.67660832405090332 -0.787448585033416748 0.213273286819458008
-0.660323619842529297 -0.681217193603515625 0.415320754051208496
-0.394328981637954712 1.03317594528198242 0.146836310625076294
-1.75422966480255127 -2.4748227596282959 -0.031184270977973938
-0.17250882089138031 0.936273515224456787 0.119178429245948792
-1.66311323642730713 -2.74774050712585449 0.0422294512391090393
-0.0824609175324440002 1.01598227024078369 0.0482354089617729187
-1.27816784381866455 -1.70771670341491699 0.222660481929779053
-0.694509327411651611 -0.88494718074798584 0.330846607685089111
-0.0309007465839385986 0.9475250244140625 0.364097237586975098
-1.65980088710784912 -2.56548619270324707 0.0908524692058563232
-1.27172625064849854 -1.435599684715271 0.391576677560806274
-0.170458883047103882 0.948581576347351074 0.325408905744552612
-0.172552734613418579 1.12759304046630859 -0.0672206580638885498
-1.32783865928649902 -1.76800072193145752 0.38769996166229248
-0.232879564166069031 1.06304764747619629 0.374252617359161377
-0.308480799198150635 0.965657353401184082 0.312418103218078613
-0.229149580001831055 1.15564656257629395 0.280492603778839111
-0.0926199108362197876 1.16571903228759766 0.316234618425369263
-0.0845894813537597656 0.915692925453186035 0.470295071601867676
-0.327050775289535522 1.00417053699493408 -0.00886838138103485107
-0.517208337783813477 -0.726569414138793945 0.402981460094451904
-0.278838217258453369 1.01303672790527344 0.16692700982093811
-1.18641161918640137 -1.76594281196594238 0.356458514928817749
-1.3185429573059082 -1.66087245941162109 0.328683137893676758
-1.77300608158111572 -2.77653717994689941 0.0585538521409034729
-0.155769392848014832 1.1180185079574585 0.0818562805652618408
-1.2379148006439209 -1.56929421424865723 0.430077999830245972
-0.363283276557922363 0.934300661087036133 0.182529345154762268
-0.678284108638763428 -0.758285105228424072 0.340159147977828979
-1.25944685935974121 -1.5127720832824707 0.245489895343780518
-1.62680959701538086 -2.49216318130493164 0.0130536407232284546
-0.0807916000485420227 1.05997490882873535 0.247634038329124451
-1.23881864547729492 -1.5926511287689209 0.327507257461547852
-0.716676235198974609 -0.853124141693115234 0.142881065607070923
-1.73329412937164307 -2.63465690612792969 -0.00576134119182825089
-1.75571024417877197 -2.66500139236450195 0.147673234343528748
-1.35894429683685303 -1.74041414260864258 0.275609076023101807
-0.215439096093177795 0.99750065803527832 0.449737310409545898
-1.74883437156677246 -2.5196080207824707 0.0765594691038131714
-0.263416111469268799 1.1126028299331665 0.180055141448974609
-1.64702630043029785 -2.8448035717010498 0.0559097602963447571
-0.583568930625915527 -0.913234889507293701 0.349847972393035889
-0.161086440086364746 0.946814775466918945 0.229015618562698364
-0.289952456951141357 1.14259839057922363 0.356222271919250488
-0.0809465870261192322 1.03671908378601074 0.154782354831695557
-0.264746993780136108 1.05627548694610596 0.271642297506332397
-0.180226027965545654 1.03728091716766357 0.127781137824058533
-0.296177476644515991 0.936568737030029297 0.116358339786529541
-0.336255282163619995 1.08369660377502441 0.409072339534759521
-0.348322182893753052 1.02999532222747803 0.225014433264732361
-0.653025269508361816 -0.823720276355743408 0.408491909503936768
-0.161375045776367188 1.0662153959274292 0.306260734796524048
-0.151373445987701416 1.16495323181152344 0.161384671926498413
-0.132759913802146912 0.971192479133605957 0.419784754514694214
-1.61217427253723145 -2.63755941390991211 0.0276873037219047546
-0.127730205655097961 1.13510394096374512 0.240516915917396545
-1.32807648181915283 -1.45068132877349854 0.267637312412261963
-0.249303191900253296 1.21588480472564697 0.222782254219055176
-1.26142501831054688 -1.72420787811279297 0.322596907615661621
-1.26600861549377441 -1.49645936489105225 0.333045899868011475
-0.246896639466285706 0.900696814060211182 0.319054216146469116
-0.0982373207807540894 1.00889205932617188 0.31243431568145752
-0.199371740221977234 0.862844228744506836 0.147107675671577454
-1.68218338489532471 -2.61641693115234375 -0.100989602506160736
-1.6849207878112793 -2.65244817733764648 0.106667123734951019
-0.250891745090484619 0.960851907730102539 0.384894609451293945
-0.616169512271881104 -0.751678228378295898 0.42031562328338623
-0.656202852725982666 -0.840281248092651367 0.27131730318069458
-1.70094680786132812 -2.54809761047363281 -0.0163786653429269791
-0.227504909038543701 0.978802919387817383 0.277394413948059082
-0.119447097182273865 0.902342021465301514 0.381715357303619385
-0.345352381467819214 1.01825833320617676 0.364995092153549194
-1.80630052089691162 -2.7086632251739502 0.0820420011878013611
-0.245896995067596436 0.946768045425415039 0.192757546901702881
-0.645069122314453125 -0.911176204681396484 0.397092193365097046
-0.320104241371154785 1.11118233203887939 0.232746616005897522
-1.2062298059463501 -1.68505167961120605 0.239446133375167847
-1.24853479862213135 -1.78285360336303711 0.39866146445274353
-0.708929300308227539 -0.864357292652130127 0.22169804573059082
-1.35022079944610596 -1.70900642871856689 0.198147177696228027
-0.384114086627960205 0.969603538513183594 0.0821300595998764038
-0.299865692853927612 1.04570913314819336 0.100692242383956909
-0.160098746418952942 1.13157999515533447 0.00993780791759490967
-0.139952152967453003 0.997136592864990234 0.180244386196136475
-0.0857885479927062988 0.933729708194732666 0.273510128259658813
-1.72524571418762207 -2.69483232498168945 0.0337655507028102875
-1.70360946655273438 -2.79496288299560547 0.0793215632438659668
-0.155865311622619629 0.981871664524078369 0.0658917129039764404
-0.174092948436737061 1.11434710025787354 0.356901437044143677
-0.185274317860603333 1.01326525211334229 0.358112543821334839
-1.68980932235717773 -2.59750866889953613 0.0357877425849437714
-0.190664529800415039 0.924336433410644531 0.388267993927001953
-0.293452173471450806 1.0754551887512207 0.33736032247543335
-0.0145743340253829956 1.00777363777160645 0.333574473857879639
-1.69271218776702881 -2.45350360870361328 -0.00810983031988143921
-0.178231805562973022 0.882526040077209473 0.219968944787979126
-1.34599566459655762 -1.66553425788879395 0.248956561088562012
-0.273778438568115234 1.04369735717773438 0.423618227243423462
-1.74281525611877441 -2.59749579429626465 0.0878045782446861267
-0.206157267093658447 1.00650894641876221 0.180915176868438721
-0.320974439382553101 0.983941435813903809 0.0688641071319580078
-1.32731747627258301 -1.73113858699798584 0.333004921674728394
-0.153508871793746948 1.00630843639373779 0.27689129114151001
-0.324194073677062988 0.902158915996551514 0.314098358154296875
-1.1969529390335083 -1.50761115550994873 0.229217693209648132
-0.342452973127365112 0.89409792423248291 0.131039664149284363
-1.28341543674468994 -1.72511816024780273 0.425863265991210938
-0.634921550750732422 -0.857994019985198975 0.328813672065734863
-0.0990425646305084229 0.988595843315124512 0.238803833723068237
-0.272261738777160645 0.987718522548675537 0.233850181102752686
-0.172676026821136475 1.11115598678588867 0.186494067311286926
-1.22771739959716797 -1.43065273761749268 0.3035125732421875
-1.27211380004882812 -1.63165557384490967 0.398336261510848999
-0.217454671859741211 1.08711373805999756 0.127080976963043213
-0.240569457411766052 0.913026094436645508 0.130727976560592651
-0.405448824167251587 0.931651771068572998 0.137482881546020508
-0.243246287107467651 0.999947190284729004 0.33164215087890625
-0.270823359489440918 0.991825997829437256 0.473720073699951172
-0.175387993454933167 1.16701436042785645 0.216177746653556824
-1.2709648609161377 -1.57002580165863037 0.257105857133865356
-0.184184551239013672 1.10080981254577637 0.258857101202011108
-0.567120850086212158 -0.989991962909698486 0.416967153549194336
-0.102321237325668335 0.964546501636505127 0.351641088724136353
-0.217719927430152893 0.969325482845306396 0.135416805744171143
-1.30391764640808105 -1.69488263130187988 0.373563289642333984
-1.74440479278564453 -2.57672953605651855 -0.0423678010702133179
-0.294568389654159546 0.922686636447906494 0.381406903266906738
-0.358290821313858032 0.961818337440490723 0.366086602210998535
-0.298894882202148438 1.05564785003662109 0.209218859672546387
-1.27604496479034424 -1.65141844749450684 0.209908127784729004
-0.363662362098693848 1.08147478103637695 0.153711959719657898
-1.67528104782104492 -2.62260007858276367 -0.0138815939426422119
-1.20642280578613281 -1.44305288791656494 0.251603126525878906
-1.74821043014526367 -2.65936517715454102 0.0726381540298461914
-0.338251501321792603 1.01662528514862061 0.13148440420627594
-1.27585673332214355 -1.45095419883728027 0.228396713733673096
-1.26793873310089111 -1.55053448677062988 0.352471470832824707
-0.161595851182937622 1.14797663688659668 0.284385561943054199
-0.244126319885253906 1.13276803493499756 0.229437083005905151
-0.0528860613703727722 1.02280282974243164 -0.0463780686259269714
-0.670496284961700439 -0.743130981922149658 0.406678259372711182
-1.28270900249481201 -1.44340193271636963 0.30569794774055481
-0.255599617958068848 0.943123579025268555 0.0778153687715530396
-0.567391157150268555 -0.883605301380157471 0.394704192876815796
-1.26344883441925049 -1.67044746875762939 0.306811809539794922
-0.302084863185882568 1.01954138278961182 0.291358917951583862
-0.217675745487213135 1.05175328254699707 0.321857213973999023
-0.0634821057319641113 1.00966548919677734 0.360102742910385132
-0.674615919589996338 -0.788538217544555664 0.278832674026489258
-0.733885765075683594 -0.910111844539642334 0.179589927196502686
-0.133099541068077087 0.896273970603942871 0.434991180896759033
-0.288838624954223633 0.995394587516784668 0.364454448223114014
-0.125730276107788086 1.1855083703994751 0.262349069118499756
-0.203647404909133911 0.925636529922485352 0.0747371762990951538
-0.635054230690002441 -0.925383508205413818 0.335201442241668701
-1.32096660137176514 -1.61395454406738281 0.300361424684524536
-0.12642689049243927 1.08427298069000244 0.220097199082374573
-1.70246660709381104 -2.54532170295715332 0.0462214797735214233
-0.341093778610229492 0.936900854110717773 0.049919620156288147
-1.2242283821105957 -1.61717796325683594 0.373977005481719971
-1.65099024772644043 -2.67496800422668457 0.0347098410129547119
-1.21970081329345703 -1.54844915866851807 0.201977074146270752
-1.65355753898620605 -2.52515864372253418 -0.0287075936794281006
-0.69915771484375 -0.899122357368469238 0.278928458690643311
-1.73796224594116211 -2.57584166526794434 0.0114611703902482986
-1.22217226028442383 -1.69712257385253906 0.370147377252578735
-0.102015659213066101 1.09243357181549072 0.285047441720962524
-0.673753857612609863 -0.845351219177246094 0.364149540662765503
-1.68601131439208984 -2.39349794387817383 0.0052585601806640625
-0.0525716394186019897 0.972333669662475586 0.321897506713867188
-0.124132595956325531 0.963856518268585205 0.301681220531463623
-0.613885760307312012 -0.858476936817169189 0.393109679222106934
-0.707008957862854004 -0.846988976001739502 0.284010887145996094
-0.621644377708435059 -0.707100152969360352 0.390406668186187744
-0.209230780601501465 1.02624082565307617 0.26358330249786377
-0.252838432788848877 0.925459206104278564 0.273050427436828613
-0.209853261709213257 0.929107427597045898 0.229126453399658203
-1.27995419502258301 -1.63053715229034424 0.343960940837860107
-0.323605239391326904 0.961646437644958496 0.164746955037117004
-0.178772345185279846 1.0170060396194458 0.419587194919586182
-1.3260650634765625 -1.70163726806640625 0.281384646892547607
-1.77388763427734375 -2.62133026123046875 0.0223852191120386124
-0.271537214517593384 1.12716829776763916 0.278754919767379761
-1.68018722534179688 -2.80050921440124512 0.034266740083694458
-1.21511852741241455 -1.74076688289642334 0.395720303058624268
-0.557078361511230469 -0.788785159587860107 0.396932363510131836
-0.217678800225257874 0.953440666198730469 0.425225198268890381
-1.30929064750671387 -1.51885330677032471 0.250420868396759033
-1.39844298362731934 -1.69517683982849121 0.258006751537322998
-1.29798507690429688 -1.66375982761383057 0.26398545503616333
-0.180190831422805786 0.993297100067138672 0.236584067344665527
-0.649610519409179688 -0.777177631855010986 0.376455247402191162
-0.113211169838905334 1.02891314029693604 0.213417530059814453
-0.291987210512161255 0.938165426254272461 0.208294793963432312
-0.19171607494354248 0.995360255241394043 0.307081937789916992
-0.199933961033821106 0.911036252975463867 0.336932957172393799
-0.265392601490020752 1.08338415622711182 0.140648901462554932
-0.112619802355766296 1.0167011022567749 0.360607504844665527
-0.284653067588806152 1.07801806926727295 0.39034426212310791
-1.61071991920471191 -2.60512733459472656 0.0643241629004478455
-1.64698278903961182 -2.43922853469848633 -0.0177613943815231323
-0.0244427546858787537 0.935896694660186768 0.252125084400177002
-1.36849379539489746 -1.64968729019165039 0.204477190971374512
-0.167050808668136597 1.11272025108337402 0.138392925262451172
-0.620095431804656982 -0.982604742050170898 0.340181499719619751
-0.110141679644584656 1.06471061706542969 0.128522738814353943
-0.0607914179563522339 1.00372791290283203 0.2637290358543396
-0.711970329284667969 -0.806038141250610352 0.23959505558013916
-0.604081213474273682 -0.935151278972625732 0.402145504951477051
-1.67939245700836182 -2.59081435203552246 -0.054052155464887619
-0.227956101298332214 1.00168716907501221 0.377367854118347168
-0.179144188761711121 0.943629980087280273 0.272666811943054199
-1.70583510398864746 -2.6444392204284668 0.0580070316791534424
-1.23508083820343018 -1.46465945243835449 0.349164247512817383
-0.154915004968643188 0.979540348052978516 0.11490214616060257
-0.338135302066802979 1.07517111301422119 0.256627291440963745
-0.118017546832561493 0.922018110752105713 0.339283943176269531
-0.574969649314880371 -0.835721492767333984 0.405191361904144287
-0.211230844259262085 0.892196714878082275 0.181184738874435425
-0.232251301407814026 1.08889245986938477 0.265901952981948853
-1.23238849639892578 -1.56156933307647705 0.385001182556152344
-0.242294415831565857 0.94542461633682251 0.327659666538238525
-1.68725991249084473 -2.60686945915222168 0.105826787650585175
-0.559280514717102051 -0.946875393390655518 0.330855965614318848
-1.21881961822509766 -1.73051226139068604 0.337641775608062744
-1.67344439029693604 -2.52722811698913574 0.0132795162498950958
-0.298637747764587402 1.08180046081542969 0.434610724449157715
-0.701780080795288086 -0.820906162261962891 0.195475757122039795
-1.26786315441131592 -1.5360492467880249 0.422731637954711914
-0.222252652049064636 1.09441244602203369 0.18493315577507019
