ply
format ascii 1.0
element vertex 256
comment vertices
property float x
property float y
property float z
end_header
0.441347330808639526 1.04608726501464844 0.559692978858947754
3.89855146408081055 -2.11984443664550781 0.323972135782241821
-0.328446745872497559 -1.93106842041015625 0.714182555675506592
2.91371965408325195 0.453133732080459595 0.719407320022583008
1.69158935546875 -1.84175014495849609 -0.827182173728942871
-1.22538316249847412 -0.129097640514373779 0.106276035308837891
1.30466270446777344 -0.767986595630645752 1.12770366668701172
1.63813340663909912 -2.35878968238830566 0.761917233467102051
1.56613767147064209 0.207677841186523438 -0.0600062534213066101
2.98533797264099121 -1.53154826164245605 1.30093538761138916
-0.943689107894897461 1.13800740242004395 0.571741163730621338
0.367443859577178955 1.96322500705718994 1.51338839530944824
1.41003322601318359 1.52748668193817139 -0.00639733858406543732
0.784536123275756836 -0.720008730888366699 -0.145247995853424072
2.56968832015991211 -1.7156212329864502 0.189477711915969849
-0.174599826335906982 0.667840123176574707 1.51371932029724121
0.542044281959533691 -1.50141477584838867 1.6207423210144043
-0.330685645341873169 0.496181517839431763 -0.155866965651512146
0.819122910499572754 -1.59978628158569336 0.547154486179351807
0.370401173830032349 -0.285720407962799072 0.813488960266113281
1.85739612579345703 0.537836074829101562 0.92856985330581665
1.81538164615631104 -0.977948427200317383 -0.169243901968002319
0.357179313898086548 1.96379446983337402 0.0930626764893531799
-0.995789527893066406 0.283548325300216675 1.02430534362792969
2.61851334571838379 -2.40501236915588379 0.845783650875091553
-0.37284773588180542 -0.366152822971343994 -0.0384261272847652435
2.32886409759521484 1.06392192840576172 0.430579125881195068
1.61504912376403809 -1.84857940673828125 0.0720710456371307373
1.90989387035369873 -1.20872402191162109 0.637612998485565186
-0.783776819705963135 -1.47398662567138672 0.176699966192245483
1.1085970401763916 0.201211363077163696 0.771026909351348877
2.33123326301574707 -0.0408010035753250122 0.403359651565551758
-0.187967777252197266 0.292728424072265625 0.638889431953430176
-0.3459492027759552 1.44954407215118408 0.111694559454917908
1.06968629360198975 -2.0075833797454834 1.19436132907867432
-0.106654465198516846 1.41484260559082031 1.20657944679260254
0.634121298789978027 1.24795436859130859 1.36104869842529297
0.0122565031051635742 -1.23498630523681641 1.12705481052398682
3.30342388153076172 -1.69763052463531494 0.625967502593994141
1.9208064079284668 -1.75451958179473877 1.12344682216644287
0.853622555732727051 -0.881305038928985596 0.574681937694549561
0.346902787685394287 0.532696127891540527 1.03158605098724365
0.380785346031188965 0.590588033199310303 0.0509399697184562683
1.11677157878875732 0.969618320465087891 0.473907172679901123
1.11375367641448975 0.700500726699829102 -0.173842042684555054
0.292338371276855469 1.68765544891357422 0.741005301475524902
-1.0007326602935791 -0.362404465675354004 0.690518677234649658
1.22918915748596191 -1.41339254379272461 -0.230945870280265808
2.75785589218139648 1.04808247089385986 0.937533557415008545
1.33455812931060791 -0.626938819885253906 0.191865801811218262
3.28939533233642578 -2.16935062408447266 0.111891090869903564
0.987586498260498047 -0.968914389610290527 1.65344095230102539
2.3125157356262207 -1.21145498752593994 -0.506595790386199951
-0.26270720362663269 0.874549329280853271 0.378146111965179443
2.08662891387939453 -1.94319605827331543 0.53359299898147583
1.02850914001464844 -1.33822154998779297 1.08666563034057617
2.9243772029876709 0.913244307041168213 0.279832810163497925
-0.514990568161010742 0.898415923118591309 0.968572914600372314
-0.909111499786376953 0.354801774024963379 0.351132094860076904
-0.89368891716003418 -0.863829314708709717 0.0800370872020721436
0.195219337940216064 -1.5642237663269043 0.546516597270965576
1.63259851932525635 -0.0871977806091308594 0.453726053237915039
0.568454504013061523 0.252781331539154053 0.533081471920013428
1.51436257362365723 -0.343822628259658813 -0.291311442852020264
2.6687312126159668 -1.73889803886413574 0.764902234077453613
3.10022091865539551 -2.12427711486816406 1.00709593296051025
1.93573904037475586 -1.60684502124786377 -0.348827838897705078
1.74078631401062012 -2.77144360542297363 0.385007113218307495
2.37299990653991699 0.227689504623413086 0.899388253688812256
1.28484082221984863 -1.28788852691650391 0.536764383316040039
-0.533605217933654785 -1.43120741844177246 0.857776403427124023
-0.703727364540100098 0.984059453010559082 0.0579390376806259155
2.45481491088867188 0.523826360702514648 0.399547457695007324
1.21175122261047363 -2.02444362640380859 0.653834342956542969
1.85396063327789307 0.805883407592773438 0.449417948722839355
0.3961925208568573 -1.04217791557312012 0.813281536102294922
3.05549931526184082 -1.29525947570800781 0.396285384893417358
3.76650762557983398 -1.57673215866088867 0.841866254806518555
1.11370849609375 -1.97209334373474121 0.0680771768093109131
-0.0557969212532043457 1.12216901779174805 0.786376237869262695
0.795757293701171875 0.758381783962249756 1.04928445816040039
3.28059148788452148 -1.21921658515930176 1.05101621150970459
1.96903479099273682 -2.34012985229492188 0.258313357830047607
-0.140889391303062439 -1.21756744384765625 0.651677191257476807
-0.516097724437713623 0.444213688373565674 1.15084826946258545
2.38631010055541992 0.748756051063537598 0.833790063858032227
0.712486445903778076 1.46200811862945557 0.843509078025817871
1.42651236057281494 -1.70183181762695312 1.08232545852661133
0.832563877105712891 1.97115015983581543 1.38764703273773193
2.5397648811340332 -2.17378473281860352 0.322220146656036377
1.01617693901062012 -1.21287095546722412 0.146602630615234375
1.74783599376678467 -0.767112076282501221 0.385054171085357666
-1.05865073204040527 0.740031003952026367 0.918596029281616211
0.405396044254302979 1.05323910713195801 -0.0400324985384941101
0.185296088457107544 0.956642508506774902 1.61153960227966309
0.638118386268615723 -1.73029816150665283 0.960765182971954346
0.769624233245849609 -0.423545747995376587 0.523132503032684326
0.956445634365081787 0.544053375720977783 0.367142945528030396
1.52688455581665039 -1.11657655239105225 0.164617761969566345
-0.820149242877960205 -0.350695133209228516 0.0986900776624679565
0.999566197395324707 -0.33719673752784729 -0.0140703022480010986
1.83371973037719727 -1.52414500713348389 0.31408277153968811
0.85873490571975708 1.0583198070526123 0.107567578554153442
1.42605757713317871 1.07575535774230957 -0.0682109296321868896
1.49061965942382812 -1.76212680339813232 -0.36271369457244873
-0.694473028182983398 0.698640942573547363 0.54843604564666748
1.56673610210418701 0.259053945541381836 0.735775291919708252
1.29763674736022949 0.192579269409179688 0.363731324672698975
4.04268932342529297 -1.84060811996459961 0.0112293735146522522
1.70667862892150879 -0.925315499305725098 0.908979058265686035
1.70584869384765625 -1.91494226455688477 0.751226902008056641
0.81676781177520752 -0.95680701732635498 1.09866428375244141
1.29297661781311035 -2.44890594482421875 0.511825799942016602
-0.601657092571258545 1.50649487972259521 0.459431439638137817
1.53261590003967285 -2.10619306564331055 1.18652951717376709
-0.526869297027587891 0.025767982006072998 0.0488615967333316803
0.0904082655906677246 0.763287007808685303 0.601804912090301514
1.04761052131652832 1.3729407787322998 0.34881320595741272
0.304577738046646118 1.11110913753509521 1.13161420822143555
-0.0670186877250671387 1.81248974800109863 1.06824517250061035
0.00704586505889892578 0.762302279472351074 1.13357114791870117
0.595229208469390869 0.636365950107574463 0.697757363319396973
0.537318646907806396 -0.627763628959655762 0.982296586036682129
2.48581504821777344 -1.4557567834854126 0.502229869365692139
3.37179327011108398 -2.09272146224975586 0.52664649486541748
1.33813571929931641 -0.48214268684387207 0.833252310752868652
1.16262352466583252 -1.58062303066253662 0.255594015121459961
-0.514323711395263672 0.445574820041656494 0.207587212324142456
1.50443315505981445 -1.47112810611724854 -0.646720290184020996
1.03848528861999512 -1.73598480224609375 0.881527066230773926
2.86136150360107422 -1.91198182106018066 0.382398426532745361
0.77547454833984375 -1.24662101268768311 1.42412209510803223
1.51671767234802246 -2.14008975028991699 0.400502800941467285
0.281547188758850098 1.58503341674804688 1.12440776824951172
2.16033363342285156 0.288824409246444702 0.540381431579589844
2.67926430702209473 0.8074149489402771 0.56952059268951416
1.38161134719848633 -0.906709551811218262 0.545712113380432129
-0.540823578834533691 0.12433701753616333 0.671627044677734375
3.26778864860534668 -1.7810518741607666 1.0876624584197998
1.26966214179992676 -0.196586638689041138 0.369627326726913452
2.20190072059631348 -1.9049835205078125 0.166911900043487549
0.955876648426055908 -0.728101372718811035 0.200290903449058533
1.81415724754333496 -1.53757369518280029 0.805263876914978027
2.36385512351989746 -2.06791186332702637 0.760675489902496338
1.62410259246826172 -0.223533570766448975 0.047842957079410553
0.685854077339172363 1.35555315017700195 0.448031485080718994
2.2132875919342041 0.509348392486572266 1.08607590198516846
1.75753045082092285 -1.27251696586608887 -0.456923246383666992
1.11949729919433594 -1.31079602241516113 1.55423855781555176
1.46765577793121338 -1.39058756828308105 0.838696062564849854
2.93668150901794434 -1.58721303939819336 0.20994982123374939
1.98420476913452148 -1.37865853309631348 -0.0695647075772285461
-0.217720583081245422 0.242964029312133789 0.149710983037948608
-0.179664283990859985 -1.49759316444396973 0.900116205215454102
1.21459150314331055 -1.09940826892852783 0.891366004943847656
1.04954278469085693 -0.659434497356414795 1.35622227191925049
0.764892458915710449 -1.36757135391235352 0.845198273658752441
-0.677827596664428711 -1.40760815143585205 0.510613024234771729
-1.01391720771789551 -0.159884631633758545 0.39790046215057373
0.866998612880706787 1.15471172332763672 0.678163051605224609
1.4986642599105835 -1.51518380641937256 0.0714401900768280029
3.04092240333557129 -2.15684819221496582 0.662591516971588135
0.701431870460510254 0.423556923866271973 1.09018576145172119
-0.568158924579620361 1.15991532802581787 0.488026738166809082
0.327471286058425903 0.835656464099884033 0.863500833511352539
-0.642936944961547852 0.460791170597076416 0.79551088809967041
1.42007994651794434 -1.63828253746032715 -0.937305569648742676
-0.190507993102073669 -1.54041814804077148 0.538910508155822754
-0.287655949592590332 0.0173611640930175781 0.457236230373382568
1.85591673851013184 -1.99277281761169434 -0.123931974172592163
0.108118206262588501 1.40585112571716309 1.47222757339477539
0.641557753086090088 1.70046472549438477 1.30395865440368652
3.55063176155090332 -1.82724761962890625 0.414054542779922485
2.75535917282104492 -1.54955101013183594 1.05300748348236084
3.41615700721740723 -1.36272549629211426 0.777917146682739258
-0.00549608469009399414 0.488730251789093018 0.841060161590576172
1.05349588394165039 -0.593678772449493408 0.572087228298187256
2.79681062698364258 -2.02142214775085449 0.917735040187835693
-0.0224273204803466797 1.00624799728393555 1.35408401489257812
-0.991587400436401367 0.33642345666885376 0.66926729679107666
1.32609033584594727 0.902787208557128906 0.229117155075073242
2.20424461364746094 0.707888603210449219 0.50432586669921875
0.587232649326324463 -1.82586467266082764 0.594115078449249268
2.94087743759155273 0.995322108268737793 0.624681532382965088
1.54787826538085938 -1.75771236419677734 0.377751648426055908
1.36089944839477539 -1.628365159034729 0.64512711763381958
0.732106685638427734 0.838328123092651367 0.30743098258972168
3.61644124984741211 -1.86109769344329834 0.843718886375427246
2.0448000431060791 -2.10859775543212891 0.806111514568328857
0.13930588960647583 1.37286722660064697 0.745752930641174316
1.87185955047607422 0.121968507766723633 0.477011620998382568
-0.432449609041213989 0.838660538196563721 0.661236286163330078
1.62026619911193848 -1.22653055191040039 -0.140933141112327576
0.893180489540100098 -1.8339080810546875 0.346664518117904663
1.68694329261779785 -1.07216835021972656 0.458434045314788818
1.54527187347412109 -0.705676555633544922 0.747101366519927979
0.908390223979949951 0.787080705165863037 0.627014100551605225
2.27472496032714844 -0.0342927724123001099 0.752456307411193848
0.613261222839355469 -0.697515606880187988 0.657376468181610107
0.0276882052421569824 -1.78173160552978516 0.698001623153686523
2.02184820175170898 -0.801794648170471191 0.527858197689056396
0.70936286449432373 -1.59578704833984375 1.37666213512420654
-0.275553643703460693 0.979422032833099365 1.17690849304199219
-0.257749825716018677 1.17072296142578125 0.209792181849479675
-0.156299561262130737 0.753512084484100342 0.799522221088409424
2.17000436782836914 -1.60076916217803955 0.146847561001777649
1.92301845550537109 -2.00441145896911621 0.242607951164245605
1.75305521488189697 -1.80051589012145996 -0.531005680561065674
2.10754704475402832 0.512639462947845459 0.756499767303466797
0.933289468288421631 -1.68318259716033936 1.1621633768081665
3.04203224182128906 -1.78066480159759521 0.884332835674285889
2.21670675277709961 -2.17770719528198242 0.323645234107971191
0.513899326324462891 1.07041513919830322 0.917154550552368164
-0.534949183464050293 0.148279279470443726 1.09529483318328857
-0.574990510940551758 0.732122182846069336 0.270002067089080811
-0.185913428664207458 0.626771152019500732 0.530562043190002441
-0.85540926456451416 0.885042428970336914 0.715601146221160889
1.25069570541381836 -1.8365250825881958 0.376775503158569336
1.12465131282806396 -1.6868056058883667 -0.276440441608428955
2.34641742706298828 -2.33956551551818848 0.644732296466827393
-0.556586921215057373 -0.262834548950195312 0.198813974857330322
1.57660436630249023 -1.45395171642303467 0.548757612705230713
3.18246006965637207 -1.50187671184539795 1.07534778118133545
1.18876981735229492 -0.836767971515655518 0.338021606206893921
1.40115630626678467 -0.134297311305999756 -0.123439081013202667
-0.364287763833999634 0.857896924018859863 0.107224747538566589
0.22684025764465332 1.11098587512969971 0.84917140007019043
2.40365481376647949 1.09053909778594971 0.708498477935791016
2.03401756286621094 -1.66050136089324951 0.507555365562438965
0.824366629123687744 -0.786105513572692871 0.866668224334716797
1.11345398426055908 -1.49037420749664307 0.753017187118530273
0.295377224683761597 1.76880002021789551 0.292151331901550293
1.31031167507171631 -1.76730751991271973 0.0821276158094406128
0.932001709938049316 -1.27422118186950684 0.635901749134063721
2.41494345664978027 -1.72818088531494141 0.505819916725158691
1.62633073329925537 -1.54124820232391357 -0.177475854754447937
1.78173172473907471 -2.34864163398742676 0.522726774215698242
1.04765784740447998 -1.06758534908294678 0.488422960042953491
1.01212716102600098 -0.463594436645507812 0.329055130481719971
-0.421556353569030762 -1.54583120346069336 1.08517289161682129
1.49194788932800293 -1.13034355640411377 0.745308876037597656
1.77489304542541504 -1.52582192420959473 -0.617256700992584229
1.41529989242553711 -1.84596896171569824 -0.75342714786529541
1.16593992710113525 -1.50727176666259766 1.36400258541107178
0.479255646467208862 0.766964733600616455 1.09646403789520264
2.51651430130004883 0.302918821573257446 0.553852558135986328
-0.399287968873977661 0.444944053888320923 0.550625205039978027
2.92642545700073242 0.642815828323364258 0.322440266609191895
1.76241469383239746 0.550593078136444092 0.673669993877410889
0.4488564133644104 0.809969246387481689 0.426243305206298828
0.244996845722198486 0.591479718685150146 0.782047510147094727
1.28183639049530029 -1.43335306644439697 1.03027033805847168
0.609335780143737793 -0.980745911598205566 0.631693422794342041
-0.0190538167953491211 0.698523759841918945 0.331741571426391602
0.859123110771179199 -1.49476408958435059 0.304641544818878174
0.357076019048690796 0.95013803243637085 1.33681797981262207
