ply
format ascii 1.0
element vertex 6
comment vertices
property float x
property float y
property float z
end_header
-0.220969676971435547 -0.448303699493408203 0.124659046530723572
-0.276881575584411621 -0.456087559461593628 0.104137107729911804
-0.282502353191375732 -0.457992732524871826 0.105466321110725403
-0.255054771900177002 -0.434833377599716187 0.119531109929084778
-0.275121897459030151 -0.458148837089538574 0.111383199691772461
-0.266736805438995361 -0.451887369155883789 0.111588984727859497
