ply
format ascii 1.0
element vertex 32
comment vertices
property float x
property float y
property float z
end_header
0.405927091836929321 0.264859974384307861 0.430108189582824707
-0.473910540342330933 -0.530668377876281738 0.315902024507522583
-0.022763516753911972 -0.411091417074203491 0.533975481986999512
0.0330000370740890503 -0.418237030506134033 0.256211131811141968
-0.234821677207946777 0.296153366565704346 0.390664935111999512
-0.288282454013824463 0.266040265560150146 0.432401537895202637
-0.177968233823776245 -0.353816628456115723 0.294929265975952148
0.264388620853424072 0.494915783405303955 0.225156828761100769
0.395774245262145996 0.284893929958343506 0.314443737268447876
-0.203239351511001587 -0.464706182479858398 0.300566375255584717
0.162595734000205994 0.0651949644088745117 0.254108458757400513
-0.251996874809265137 -0.388765573501586914 0.514258801937103271
0.158412843942642212 -0.195745795965194702 0.326256543397903442
0.181291773915290833 0.386473208665847778 0.537054061889648438
0.361806958913803101 0.182243824005126953 0.559067308902740479
-0.189965277910232544 -0.449390023946762085 0.26466253399848938
-0.209104418754577637 0.221813172101974487 0.334287673234939575
0.0726004838943481445 -0.304199248552322388 0.488313227891921997
-0.436050772666931152 -0.376421749591827393 0.338392883539199829
0.429344117641448975 0.214866742491722107 0.359832316637039185
-0.277752339839935303 -0.429507553577423096 0.490466892719268799
0.19585806131362915 0.452542692422866821 0.247016668319702148
0.359333962202072144 0.279081791639328003 0.285227000713348389
-0.0840355455875396729 -0.401678383350372314 0.380322068929672241
0.381621479988098145 0.245673134922981262 0.546077966690063477
-0.252535432577133179 -0.066301099956035614 0.293231874704360962
-0.432489335536956787 -0.312648534774780273 0.262482404708862305
0.412259310483932495 0.295132339000701904 0.284846097230911255
0.362930089235305786 0.381515592336654663 0.259411871433258057
-0.0744521617889404297 -0.309540629386901855 0.235587835311889648
-0.274924665689468384 -0.371568888425827026 0.326323121786117554
0.0273616164922714233 -0.412545621395111084 0.280922263860702515
