ply
format ascii 1.0
element vertex 25
comment vertices
property float x
property float y
property float z
end_header
-0.284572303295135498 -0.439615577459335327 0.0480309352278709412
0.397059023380279541 0.367310225963592529 0.0776626765727996826
0.206265240907669067 -0.372346997261047363 0.334440231323242188
-0.508605122566223145 0.2498350590467453 0.0232947468757629395
0.105651229619979858 -0.383473366498947144 0.0595430918037891388
-0.063327103853225708 -0.409290462732315063 0.0582717359066009521
-0.329276233911514282 0.370621919631958008 0.0443884506821632385
0.114543028175830841 -0.54217064380645752 0.129289090633392334
-0.318465858697891235 0.176117986440658569 0.0166014395654201508
0.250079989433288574 0.450501620769500732 0.0336891859769821167
0.460224360227584839 0.332324206829071045 0.0649211704730987549
-0.203817948698997498 -0.439006268978118896 0.0575097575783729553
0.2054176926612854 -0.473647207021713257 0.137027859687805176
0.293967306613922119 0.279053360223770142 0.0876007378101348877
-0.228352829813957214 -0.437859535217285156 0.0610159151256084442
-0.40390932559967041 0.395990669727325439 0.0082607567310333252
-0.237708106637001038 -0.456582784652709961 0.11899256706237793
0.222273886203765869 0.416087031364440918 0.0332802236080169678
-0.250827312469482422 -0.501999914646148682 0.0299913100898265839
-0.203438654541969299 -0.346495628356933594 0.0354275964200496674
0.464746594429016113 0.334096193313598633 0.0948969125747680664
-0.374077349901199341 0.145539641380310059 0.0108087658882141113
0.422293514013290405 0.366831600666046143 0.0816528946161270142
0.0498405210673809052 -0.465450674295425415 0.121370136737823486
0.0795987620949745178 -0.432126611471176147 0.0835847184062004089
