ply
format ascii 1.0
element vertex 24
comment vertices
property float x
property float y
property float z
end_header
-0.235084369778633118 -0.297778189182281494 0.186705157160758972
-0.214014887809753418 0.366426706314086914 0.02025647833943367
0.382182031869888306 -0.430044829845428467 0.28438296914100647
0.245241627097129822 -0.514387190341949463 0.100719809532165527
-0.115435920655727386 -0.442529141902923584 0.384230613708496094
-0.0817830264568328857 0.274768650531768799 0.0312526114284992218
-0.442985564470291138 -0.260091692209243774 0.384026378393173218
0.323553800582885742 -0.487084954977035522 0.0723494887351989746
-0.490951299667358398 -0.225363865494728088 0.148382037878036499
-0.0440208986401557922 0.289912253618240356 0.05470261350274086
0.380119442939758301 -0.330062270164489746 0.276805758476257324
0.166328951716423035 -0.333392471075057983 0.0554852746427059174
0.224557429552078247 -0.667780697345733643 0.141551941633224487
0.17577025294303894 -0.360106974840164185 0.0700678974390029907
0.185312405228614807 -0.323714971542358398 0.00677227973937988281
-0.367799133062362671 -0.318313002586364746 0.427121073007583618
0.0125397741794586182 -0.419309049844741821 0.328007817268371582
0.315861135721206665 -0.474032670259475708 0.129093736410140991
-0.154772251844406128 -0.455883622169494629 0.376817166805267334
0.324119508266448975 -0.44152987003326416 0.109418228268623352
-0.0656442120671272278 0.286545872688293457 0.0561317093670368195
0.182754337787628174 -0.330916404724121094 0.0645941644906997681
-0.377884238958358765 -0.261830508708953857 0.162057280540466309
-0.220241010189056396 0.347809314727783203 0.0453667230904102325
