ply
format ascii 1.0
element vertex 12
comment vertices
property float x
property float y
property float z
end_header
0.253275752067565918 -0.409811675548553467 0.140071853995323181
-0.32371753454208374 -0.341514706611633301 0.207883194088935852
-0.329395979642868042 -0.353167861700057983 0.135610759258270264
0.252518951892852783 -0.415804922580718994 0.142186790704727173
-0.105780839920043945 -0.393727004528045654 0.0860420763492584229
-0.327343910932540894 -0.336501359939575195 0.173963919281959534
-0.373184323310852051 -0.312560498714447021 0.123356401920318604
-0.211125373840332031 -0.413578629493713379 0.119761623442173004
0.29813539981842041 -0.416195034980773926 0.098519742488861084
-0.344456851482391357 -0.336799800395965576 0.145901396870613098
0.232826054096221924 -0.407388150691986084 0.114522427320480347
0.267972409725189209 -0.413910657167434692 0.116357274353504181
