ply
format ascii 1.0
element vertex 69
comment vertices
property float x
property float y
property float z
end_header
0.875224053859710693 0.511403262615203857 0.466323912143707275
0.861437022686004639 0.502372264862060547 0.449960321187973022
0.19098237156867981 -0.968261957168579102 0.4286518394947052
0.866962790489196777 0.487752199172973633 0.407648146152496338
0.886133730411529541 0.537669539451599121 0.446115732192993164
0.864697694778442383 0.501230120658874512 0.456986933946609497
-0.570614874362945557 -0.823945879936218262 0.386776268482208252
0.163988649845123291 -0.975775539875030518 0.384991347789764404
0.184048369526863098 -0.998155474662780762 0.444231867790222168
0.196181163191795349 -0.973810315132141113 0.43286249041557312
0.851189315319061279 0.51118314266204834 0.456733077764511108
0.194249600172042847 -0.960744142532348633 0.42361074686050415
-0.558870255947113037 -0.820973098278045654 0.378044724464416504
0.886913537979125977 0.508062541484832764 0.456960022449493408
0.863605201244354248 0.5014457106590271 0.453748196363449097
0.864218652248382568 0.501413047313690186 0.453942656517028809
-0.572547972202301025 -0.833025813102722168 0.385867595672607422
0.191680148243904114 -0.963895618915557861 0.426620692014694214
-0.571817338466644287 -0.827886581420898438 0.379533499479293823
0.866205513477325439 0.50149458646774292 0.455812722444534302
-0.570545613765716553 -0.827513635158538818 0.37954142689704895
0.20700952410697937 -0.982586145401000977 0.426679074764251709
0.851105988025665283 0.509459316730499268 0.479881167411804199
0.198487862944602966 -0.960041165351867676 0.423682183027267456
0.188244178891181946 -0.97913825511932373 0.427581280469894409
-0.562179148197174072 -0.830170691013336182 0.39233475923538208
0.862564682960510254 0.493030846118927002 0.473407149314880371
-0.544222772121429443 -0.841366827487945557 0.378866046667098999
0.194084435701370239 -0.95932382345199585 0.394148290157318115
-0.572551131248474121 -0.812263071537017822 0.374077469110488892
-0.529655992984771729 -0.816329002380371094 0.391866534948348999
0.865274310111999512 0.516066908836364746 0.44925883412361145
0.201538622379302979 -0.995264291763305664 0.440765142440795898
0.198457717895507812 -0.961305618286132812 0.42151331901550293
0.19353562593460083 -0.962049543857574463 0.424230575561523438
0.863743424415588379 0.500289380550384521 0.456954628229141235
-0.576328456401824951 -0.833382487297058105 0.385870873928070068
-0.573779106140136719 -0.83310544490814209 0.377909451723098755
-0.572567880153656006 -0.833441376686096191 0.387416720390319824
0.859315097332000732 0.500093340873718262 0.458565294742584229
-0.555997967720031738 -0.818612337112426758 0.377933770418167114
0.85868680477142334 0.493417799472808838 0.467758744955062866
0.198988050222396851 -0.981965601444244385 0.439559757709503174
0.872134387493133545 0.524680912494659424 0.455998539924621582
-0.56553274393081665 -0.819418430328369141 0.39209437370300293
0.865906715393066406 0.500288486480712891 0.457518100738525391
0.865002870559692383 0.501971542835235596 0.451898276805877686
0.860082924365997314 0.497419744729995728 0.472985446453094482
0.864227771759033203 0.501961767673492432 0.454732894897460938
0.197970613837242126 -0.963669657707214355 0.431252598762512207
-0.572359979152679443 -0.831353425979614258 0.384764492511749268
-0.570406496524810791 -0.823846280574798584 0.378730267286300659
0.864995002746582031 0.497544795274734497 0.463958472013473511
-0.572355389595031738 -0.825821220874786377 0.375542581081390381
0.865219473838806152 0.501502513885498047 0.454803973436355591
-0.532534301280975342 -0.855974078178405762 0.389145314693450928
0.861394762992858887 0.496376395225524902 0.463003754615783691
0.195950493216514587 -0.967352688312530518 0.433081775903701782
-0.573470234870910645 -0.83335566520690918 0.378890812397003174
0.192342177033424377 -0.963552117347717285 0.425385147333145142
0.864646077156066895 0.498168438673019409 0.463778883218765259
0.865377664566040039 0.500263392925262451 0.457701385021209717
0.206131190061569214 -0.984527349472045898 0.432183206081390381
0.194785863161087036 -0.956829071044921875 0.427343279123306274
-0.566979408264160156 -0.816468358039855957 0.372125327587127686
0.195706993341445923 -0.979930400848388672 0.430900692939758301
-0.525850594043731689 -0.855462372303009033 0.39452776312828064
0.1869087815284729 -0.961107909679412842 0.413805067539215088
-0.564746677875518799 -0.819127023220062256 0.383382499217987061
