ply
format ascii 1.0
element vertex 50
comment vertices
property float x
property float y
property float z
end_header
-0.301940083503723145 0.957122445106506348 0.198158726096153259
-2.00135922431945801 -0.0271074380725622177 0.157936856150627136
-0.30167803168296814 0.95041358470916748 0.217750370502471924
-2.00721073150634766 -0.0353116616606712341 0.16387571394443512
-0.301940321922302246 0.955711126327514648 0.203236520290374756
-0.291124969720840454 0.958627939224243164 0.195778980851173401
-0.299471557140350342 0.954448580741882324 0.201235353946685791
-2.02307605743408203 -0.0014349818229675293 0.182381123304367065
-0.298669815063476562 0.956431984901428223 0.194922834634780884
-2.04935574531555176 -0.0407004356384277344 0.160268679261207581
-2.05041146278381348 -0.0152622386813163757 0.180275827646255493
-2.00271439552307129 -0.0221975594758987427 0.158100903034210205
-0.309407085180282593 0.97096174955368042 0.223346352577209473
-0.301936566829681396 0.954952001571655273 0.202673748135566711
-0.301786959171295166 0.95746535062789917 0.197617083787918091
-0.302470415830612183 0.959075629711151123 0.19136810302734375
-1.95405185222625732 -0.0579115152359008789 0.157265409827232361
-0.301184475421905518 0.958385348320007324 0.200300261378288269
-0.302544921636581421 0.955302059650421143 0.196134015917778015
-0.301909357309341431 0.956938326358795166 0.193065822124481201
-0.301826655864715576 0.956512212753295898 0.192420616745948792
-2.0756382942199707 -0.0454680286347866058 0.147618666291236877
-0.301362037658691406 0.958397626876831055 0.199178531765937805
-2.01995396614074707 -0.0625824928283691406 0.156912192702293396
-0.300583153963088989 0.956883549690246582 0.197078943252563477
-0.301997721195220947 0.957203865051269531 0.195283234119415283
-0.301709592342376709 0.958390533924102783 0.200686857104301453
-2.03823733329772949 -0.0299364738166332245 0.182158097624778748
-0.303004920482635498 0.956563293933868408 0.204102888703346252
-0.301808625459671021 0.958159744739532471 0.199894130229949951
-0.301658809185028076 0.95833665132522583 0.199944376945495605
-2.05042767524719238 -0.0336087867617607117 0.166271030902862549
-0.302761822938919067 0.956355810165405273 0.20195356011390686
-2.01683616638183594 -0.0203711092472076416 0.157077744603157043
-0.301774680614471436 0.958218812942504883 0.192658960819244385
-0.301579296588897705 0.957509279251098633 0.194711744785308838
-2.01198315620422363 -0.0338597819209098816 0.185159668326377869
-2.04967617988586426 -0.0123210027813911438 0.174753859639167786
-2.03469991683959961 -0.0237632095813751221 0.152782857418060303
-0.302294164896011353 0.956698238849639893 0.198622554540634155
-2.02487874031066895 -0.0197436697781085968 0.187473833560943604
-0.299872905015945435 0.955410301685333252 0.20758211612701416
-2.01723909378051758 -0.00932472199201583862 0.149984180927276611
-0.302492767572402954 0.956212520599365234 0.200080111622810364
-0.303684890270233154 0.953850150108337402 0.213451296091079712
-0.301835775375366211 0.956526577472686768 0.197032630443572998
-0.303126722574234009 0.955970525741577148 0.201614663004875183
-0.300912857055664062 0.958053648471832275 0.195509016513824463
-0.301716148853302002 0.957976341247558594 0.199275195598602295
-0.301294147968292236 0.955180168151855469 0.197186589241027832
