ply
format ascii 1.0
element vertex 256
comment vertices
property float x
property float y
property float z
end_header
-0.301940083503723145 0.957122445106506348 0.198158726096153259
-1.96969819068908691 -1.15030050277709961 1.09540462493896484
-0.0587540902197360992 -1.69573688507080078 0.136388868093490601
2.24858641624450684 1.82536995410919189 0.216314971446990967
-1.58334672451019287 0.27489045262336731 0.596381068229675293
-2.06516671180725098 -0.033268265426158905 0.162910982966423035
1.22104954719543457 0.445251166820526123 -0.230002701282501221
-0.208177000284194946 -0.504049420356750488 0.388284862041473389
-1.44452583789825439 -0.293464452028274536 -0.0287341475486755371
0.208783388137817383 1.28432226181030273 0.201721310615539551
0.325915783643722534 0.407427966594696045 0.78964465856552124
-2.00135922431945801 -0.0271074380725622177 0.157936856150627136
-1.32026517391204834 -0.528079390525817871 0.152433723211288452
-0.30167803168296814 0.95041358470916748 0.217750370502471924
-0.210971802473068237 -0.0199426561594009399 0.127487868070602417
-0.968706965446472168 0.0526424497365951538 -0.212467432022094727
0.422612309455871582 1.40749311447143555 -0.144970595836639404
-1.86132621765136719 -1.03426468372344971 0.241413071751594543
0.969104766845703125 -0.902433931827545166 0.147138074040412903
-0.336751759052276611 -0.0615526437759399414 0.591379702091217041
1.17692267894744873 1.01667428016662598 0.300552397966384888
1.41577386856079102 1.19604551792144775 0.311838418245315552
-1.01745510101318359 -0.602823019027709961 0.400316506624221802
-0.810314655303955078 -1.01777946949005127 0.230198711156845093
1.19505751132965088 1.95317387580871582 0.12180425226688385
-1.93261408805847168 -0.565517842769622803 0.595451653003692627
0.286710679531097412 0.410704374313354492 -0.277177333831787109
1.25725531578063965 0.960172832012176514 -0.450467377901077271
-2.00721073150634766 -0.0353116616606712341 0.16387571394443512
0.402213037014007568 1.25944781303405762 0.704535305500030518
-1.15637362003326416 -0.600824832916259766 0.36728590726852417
-1.95161283016204834 -1.05185866355895996 -0.0471279621124267578
-0.301940321922302246 0.955711126327514648 0.203236520290374756
1.97122859954833984 1.04025590419769287 0.11551840603351593
-1.23222637176513672 -0.533040881156921387 0.230400785803794861
-0.820910990238189697 0.780891776084899902 0.578220069408416748
0.474483311176300049 0.573394119739532471 0.400593429803848267
-0.291124969720840454 0.958627939224243164 0.195778980851173401
0.138460159301757812 -1.04734563827514648 0.000873222947120666504
-0.733191490173339844 -0.620666980743408203 0.203198462724685669
0.992801547050476074 1.10534906387329102 0.112539499998092651
-0.96822744607925415 0.122647896409034729 0.611104369163513184
-0.973953783512115479 0.192739516496658325 0.380710899829864502
-2.03212642669677734 -0.207418516278266907 0.194055750966072083
-1.61908102035522461 -1.01334059238433838 0.20778203010559082
1.74259698390960693 1.92810213565826416 0.242303222417831421
0.840253353118896484 1.53209233283996582 0.431142956018447876
0.402359157800674438 1.97165918350219727 0.0538143664598464966
-1.42892789840698242 0.0393797010183334351 0.209764838218688965
-0.299471557140350342 0.954448580741882324 0.201235353946685791
-1.96018731594085693 -0.545255661010742188 0.929182350635528564
0.776060283184051514 1.32112383842468262 0.204950273036956787
0.848435938358306885 0.461818486452102661 0.294072985649108887
-1.92833185195922852 -1.03354144096374512 0.567944824695587158
-2.02307605743408203 -0.0014349818229675293 0.182381123304367065
-0.298669815063476562 0.956431984901428223 0.194922834634780884
-2.0125434398651123 -0.104340866208076477 0.119502507150173187
-2.04935574531555176 -0.0407004356384277344 0.160268679261207581
2.02975082397460938 1.38720524311065674 0.180443137884140015
1.42015349864959717 1.458809494972229 0.0987745895981788635
-1.52340042591094971 -0.654310107231140137 0.26964297890663147
-2.05041146278381348 -0.0152622386813163757 0.180275827646255493
-1.87751364707946777 -0.737670958042144775 0.316641569137573242
-1.53393900394439697 -0.998601377010345459 0.200118899345397949
-1.78989052772521973 -0.0708164721727371216 0.206996023654937744
0.242775201797485352 -0.521918654441833496 0.488040506839752197
-1.12998044490814209 0.254437536001205444 -0.259943187236785889
-0.674457311630249023 -0.587515950202941895 0.361940532922744751
0.721976041793823242 1.01851904392242432 0.298266679048538208
-2.00271439552307129 -0.0221975594758987427 0.158100903034210205
0.824076831340789795 1.42757165431976318 0.096646532416343689
-0.173341646790504456 -1.02161645889282227 0.0323350317776203156
0.709094464778900146 0.195525050163269043 0.0912383496761322021
-0.309407085180282593 0.97096174955368042 0.223346352577209473
1.29058170318603516 1.83917927742004395 0.344142794609069824
-0.301936566829681396 0.954952001571655273 0.202673748135566711
-0.937817931175231934 0.191797345876693726 0.377271950244903564
0.375589430332183838 0.701761364936828613 0.616762518882751465
1.83121883869171143 1.92091727256774902 0.0987688750028610229
0.260446488857269287 -1.19111514091491699 0.0383810810744762421
-1.94462549686431885 -0.826246917247772217 0.839059710502624512
-0.301786959171295166 0.95746535062789917 0.197617083787918091
0.893917977809906006 0.266762673854827881 -0.399348825216293335
-0.302470415830612183 0.959075629711151123 0.19136810302734375
-1.5472252368927002 -1.08705556392669678 -0.0366231799125671387
1.06974160671234131 1.34713661670684814 -0.291802555322647095
-0.631416261196136475 -0.495901048183441162 0.398608893156051636
-1.91772305965423584 -0.391227483749389648 -0.0159909725189208984
-2.00910472869873047 -1.12753093242645264 0.157914072275161743
-1.35072910785675049 -0.0802036970853805542 0.543431520462036133
-2.09920859336853027 -0.0516546666622161865 0.127887621521949768
-1.95405185222625732 -0.0579115152359008789 0.157265409827232361
-1.0167851448059082 -0.59682464599609375 0.263495951890945435
-0.301184475421905518 0.958385348320007324 0.200300261378288269
0.698771178722381592 0.971975147724151611 0.350543379783630371
0.543853342533111572 0.93090057373046875 0.0606528520584106445
0.385463714599609375 1.86972856521606445 0.311527490615844727
2.25275206565856934 1.37819874286651611 0.12143561989068985
0.120436586439609528 -0.393912404775619507 0.0399827770888805389
-0.584634840488433838 0.445267319679260254 0.518843889236450195
-1.25549983978271484 -0.492729425430297852 0.190930232405662537
-1.30212163925170898 0.68842160701751709 0.623587548732757568
1.80938899517059326 1.4601668119430542 0.153219178318977356
-0.302544921636581421 0.955302059650421143 0.196134015917778015
-0.301909357309341431 0.956938326358795166 0.193065822124481201
1.39179837703704834 1.05006670951843262 0.23333054780960083
-1.47449088096618652 -0.544077217578887939 0.161965087056159973
-0.959538280963897705 0.143156945705413818 -0.00473514199256896973
0.456043034791946411 -0.988308727741241455 0.0341536104679107666
-0.301826655864715576 0.956512212753295898 0.192420616745948792
-2.0756382942199707 -0.0454680286347866058 0.147618666291236877
0.342342853546142578 0.964943766593933105 0.34034392237663269
0.893447935581207275 1.93219411373138428 0.179274767637252808
2.1357266902923584 1.80347132682800293 0.193395331501960754
-2.06327319145202637 -0.0330646969377994537 0.165972098708152771
-0.301362037658691406 0.958397626876831055 0.199178531765937805
1.11497795581817627 0.95462954044342041 0.290463805198669434
1.48458707332611084 1.79894030094146729 0.0765909329056739807
-1.92882418632507324 -0.899585604667663574 0.389842242002487183
-1.87248706817626953 -0.103028789162635803 0.202392697334289551
0.570543050765991211 1.22577416896820068 0.383327782154083252
-2.01995396614074707 -0.0625824928283691406 0.156912192702293396
-1.49738490581512451 -0.650016844272613525 0.284037083387374878
0.438130795955657959 1.5809328556060791 0.155661150813102722
1.09885203838348389 0.655830621719360352 0.343933343887329102
1.9568486213684082 1.0514218807220459 0.16674359142780304
-0.300583153963088989 0.956883549690246582 0.197078943252563477
-0.301997721195220947 0.957203865051269531 0.195283234119415283
-1.34322476387023926 -0.550761699676513672 0.192324340343475342
1.70859062671661377 1.53704988956451416 0.288093984127044678
0.143420979380607605 -1.16367161273956299 -0.0372084155678749084
-1.24349081516265869 0.258583545684814453 0.612236857414245605
-1.20608794689178467 -0.0309327840805053711 -0.173869609832763672
0.650799095630645752 0.534763455390930176 0.346705496311187744
-0.542821943759918213 -0.564984381198883057 0.421244621276855469
-1.86532187461853027 -0.602204084396362305 0.797072947025299072
0.95143282413482666 1.18132925033569336 0.372965216636657715
-0.301709592342376709 0.958390533924102783 0.200686857104301453
-0.758349478244781494 -1.30037128925323486 0.156715035438537598
-0.716858148574829102 -0.661195099353790283 0.263005882501602173
0.985603094100952148 1.23612046241760254 0.430800974369049072
-1.94254684448242188 -0.0628490298986434937 0.183369606733322144
-0.92323613166809082 0.466822296380996704 0.578460514545440674
-2.03823733329772949 -0.0299364738166332245 0.182158097624778748
0.371599972248077393 0.510179877281188965 0.57149505615234375
-1.92117857933044434 -0.0438164658844470978 0.196717426180839539
-2.01278352737426758 -0.858163237571716309 1.00370430946350098
-0.303004920482635498 0.956563293933868408 0.204102888703346252
-0.301808625459671021 0.958159744739532471 0.199894130229949951
-1.94909262657165527 -0.163695946335792542 0.154229313135147095
-2.00547623634338379 -0.0589088648557662964 0.159114301204681396
0.304756283760070801 0.918274462223052979 0.791354537010192871
-0.301658809185028076 0.95833665132522583 0.199944376945495605
-0.948774218559265137 0.224780470132827759 -0.196972310543060303
1.14794301986694336 1.35527515411376953 0.110602781176567078
-2.05042767524719238 -0.0336087867617607117 0.166271030902862549
-1.24933850765228271 -0.538193762302398682 0.233012363314628601
-0.226600676774978638 -0.542260110378265381 0.399378478527069092
0.589792788028717041 1.35282707214355469 0.0685409605503082275
-1.9366004467010498 -1.0525665283203125 0.812839746475219727
-0.803371906280517578 -0.575626552104949951 0.367390662431716919
-1.91267490386962891 -1.06319379806518555 0.303203493356704712
-0.619755268096923828 0.0515521615743637085 0.504089593887329102
-0.890428364276885986 -0.638413071632385254 0.145865306258201599
-0.974348366260528564 0.0349613837897777557 0.514314055442810059
0.191575303673744202 -0.512653946876525879 0.498304963111877441
1.72296714782714844 1.21516609191894531 0.165601342916488647
-0.982461690902709961 -0.664253115653991699 0.372599333524703979
0.111267007887363434 -0.994742691516876221 -0.0644568353891372681
0.789670288562774658 1.25450217723846436 0.163843214511871338
-1.83204782009124756 -0.0402740612626075745 0.182011917233467102
-1.8291085958480835 -0.941874802112579346 0.343092083930969238
-0.302761822938919067 0.956355810165405273 0.20195356011390686
0.40383678674697876 -0.849735021591186523 0.0344194546341896057
-2.01683616638183594 -0.0203711092472076416 0.157077744603157043
0.182584553956985474 1.64389288425445557 0.199754267930984497
0.755302846431732178 1.90401160717010498 0.136069372296333313
1.22553908824920654 1.93550288677215576 0.218683093786239624
-0.301774680614471436 0.958218812942504883 0.192658960819244385
-1.04483366012573242 0.0781858265399932861 0.164047062397003174
1.76310646533966064 1.56236171722412109 0.238247886300086975
1.60162067413330078 1.2559969425201416 0.171220719814300537
2.12946796417236328 1.99836897850036621 0.20490795373916626
-1.79856681823730469 0.0569684505462646484 0.18008887767791748
-0.301579296588897705 0.957509279251098633 0.194711744785308838
-0.978841841220855713 -0.410591423511505127 0.431474864482879639
2.15298914909362793 1.18761467933654785 0.200205057859420776
-0.805744349956512451 -0.58767622709274292 0.343263208866119385
2.11687302589416504 1.5973212718963623 0.253649652004241943
-1.4114309549331665 -0.510231316089630127 0.311375051736831665
-2.01198315620422363 -0.0338597819209098816 0.185159668326377869
0.366195410490036011 0.980855762958526611 0.355078935623168945
0.330236196517944336 0.523009419441223145 0.77176976203918457
1.1514512300491333 1.62311661243438721 0.116986989974975586
-2.04967617988586426 -0.0123210027813911438 0.174753859639167786
-0.586452186107635498 -0.453103840351104736 0.321319401264190674
-1.2576594352722168 -0.657158493995666504 0.311833739280700684
1.4241187572479248 1.96299386024475098 0.25437009334564209
-2.03469991683959961 -0.0237632095813751221 0.152782857418060303
-0.596880733966827393 -0.513588428497314453 0.38105088472366333
-1.27169501781463623 -0.5601654052734375 0.262219130992889404
-1.89739179611206055 -0.569987237453460693 0.372418493032455444
-0.754547059535980225 -0.633324146270751953 0.241432949900627136
-0.302294164896011353 0.956698238849639893 0.198622554540634155
-1.90297365188598633 -0.933690309524536133 0.276414215564727783
-2.02487874031066895 -0.0197436697781085968 0.187473833560943604
0.887815296649932861 0.777437925338745117 0.342183023691177368
-1.62464416027069092 -1.00111794471740723 0.241886451840400696
-1.77664399147033691 -0.976703763008117676 0.246433034539222717
-1.31096792221069336 0.0440054982900619507 0.231481820344924927
-0.134623289108276367 0.941886365413665771 0.267632007598876953
-0.299872905015945435 0.955410301685333252 0.20758211612701416
0.408800184726715088 0.901514172554016113 0.366782099008560181
0.178361997008323669 -1.03042507171630859 -0.074679836630821228
1.29598188400268555 1.10555243492126465 0.192000493407249451
1.85023617744445801 1.79687154293060303 0.191947445273399353
-2.01723909378051758 -0.00932472199201583862 0.149984180927276611
1.21935999393463135 1.49410831928253174 0.419290095567703247
-0.618244349956512451 -1.01334941387176514 0.112319007515907288
-0.904217839241027832 -0.565686702728271484 0.414837658405303955
-1.84483087062835693 -0.0535231754183769226 0.192876428365707397
-1.84788823127746582 -0.00792510993778705597 0.17984384298324585
-1.96673846244812012 -0.692339837551116943 0.590482592582702637
-1.75015783309936523 -0.0970123410224914551 0.195482626557350159
-0.302492767572402954 0.956212520599365234 0.200080111622810364
0.110419176518917084 -1.49510228633880615 0.0308550558984279633
-0.303684890270233154 0.953850150108337402 0.213451296091079712
0.364379644393920898 0.680500328540802002 0.393601864576339722
1.61092507839202881 1.55380475521087646 0.100878298282623291
-1.22092521190643311 -0.0395875871181488037 0.349143713712692261
-0.301835775375366211 0.956526577472686768 0.197032630443572998
0.497970134019851685 1.24700665473937988 0.0918196588754653931
-0.303126722574234009 0.955970525741577148 0.201614663004875183
-0.42199254035949707 -0.574423313140869141 0.316816776990890503
-1.99803328514099121 -0.64301377534866333 0.847932934761047363
1.89600443840026855 2.03273272514343262 0.228852212429046631
0.666704714298248291 0.286160171031951904 0.331573218107223511
-1.04887235164642334 0.59423673152923584 0.566287338733673096
0.598802685737609863 0.510303497314453125 0.344660401344299316
-0.300912857055664062 0.958053648471832275 0.195509016513824463
0.563414454460144043 1.77124273777008057 0.170968726277351379
0.759096145629882812 1.87100636959075928 0.377218484878540039
-1.05179977416992188 0.199700251221656799 -0.0519472956657409668
-1.91679048538208008 -1.00044703483581543 0.589685201644897461
1.08644616603851318 1.83749938011169434 0.368349373340606689
-0.571962058544158936 0.546810030937194824 0.585262060165405273
-1.48081183433532715 -1.00804400444030762 0.197544842958450317
0.188344359397888184 -0.78772270679473877 0.0159092433750629425
-1.37941813468933105 -0.558168411254882812 0.0822094380855560303
-1.64253377914428711 -1.01641654968261719 0.352492362260818481
0.382939696311950684 0.952538490295410156 0.559212028980255127
-0.301716148853302002 0.957976341247558594 0.199275195598602295
-0.387449383735656738 0.277569591999053955 0.611529171466827393
1.84221875667572021 1.29070496559143066 0.25505104660987854
-0.301294147968292236 0.955180168151855469 0.197186589241027832
-1.6543503999710083 -0.0719016045331954956 0.226355046033859253
