ply
format ascii 1.0
element vertex 256
comment vertices
property float x
property float y
property float z
end_header
-0.89445728063583374 0.655982911586761475 2.19719576835632324
-1.82839822769165039 -3.41608715057373047 0.447498589754104614
0.286144018173217773 -1.04832637310028076 -0.0848555862903594971
0.969204068183898926 0.534383654594421387 0.456003189086914062
-1.146431565284729 -1.37262618541717529 -0.113201387226581573
-0.716221928596496582 -0.538951992988586426 0.970841884613037109
0.132646560668945312 0.963605701923370361 2.04860758781433105
-0.781938552856445312 0.175485014915466309 -0.617884635925292969
-0.0175147503614425659 1.08046340942382812 -0.651781678199768066
0.154640763998031616 -1.07303309440612793 0.884834587574005127
-0.504760444164276123 -0.836551666259765625 0.0243881754577159882
0.283668726682662964 -0.423271238803863525 0.17524227499961853
-1.66625058650970459 -1.78947532176971436 -0.620594978332519531
0.878115475177764893 0.50865483283996582 0.522549867630004883
-0.799616217613220215 -1.19575774669647217 0.342166423797607422
0.358567565679550171 -2.18023920059204102 0.0789870321750640869
0.156984046101570129 -0.884786009788513184 0.422132968902587891
0.775653183460235596 2.07554030418395996 0.339104145765304565
-0.73739469051361084 -2.23393774032592773 0.509507894515991211
0.856224358081817627 0.498122453689575195 0.13345511257648468
-2.53947353363037109 -2.26431918144226074 0.511680424213409424
-2.16561603546142578 -2.18948173522949219 0.372635722160339355
-0.760381460189819336 0.690156221389770508 0.674338579177856445
0.878518283367156982 0.765174806118011475 0.270714372396469116
0.23498891294002533 0.977906286716461182 0.623354852199554443
-0.585739850997924805 -0.50116121768951416 0.371266782283782959
0.866606354713439941 0.515664815902709961 0.481578648090362549
-0.198896944522857666 -0.910718917846679688 0.377710968255996704
-0.534163951873779297 -0.898779153823852539 0.598315715789794922
0.848868668079376221 0.745486795902252197 0.849450170993804932
-1.49922323226928711 -3.01537370681762695 -0.491494923830032349
0.505240082740783691 -1.13526570796966553 0.381340265274047852
-1.69245946407318115 -1.59675168991088867 0.519202351570129395
0.0584417767822742462 -0.649556756019592285 0.794099390506744385
-0.690979480743408203 -2.28346514701843262 0.254740744829177856
-0.694205522537231445 -0.703481614589691162 -0.140886485576629639
0.143689677119255066 -1.01660728454589844 0.130394652485847473
-0.427244782447814941 -0.893415093421936035 -0.0176930483430624008
0.0903359204530715942 -1.14853203296661377 0.195097774267196655
-0.824920535087585449 1.09742355346679688 -0.634474813938140869
1.11841785907745361 0.772074878215789795 -0.630730152130126953
-0.137986987829208374 -1.35294532775878906 0.228986233472824097
-0.911922693252563477 -3.22897863388061523 0.549569189548492432
-0.695278167724609375 -0.989678263664245605 -0.187360808253288269
-1.67106711864471436 -2.51274871826171875 0.358802527189254761
-2.05150985717773438 -1.34553098678588867 -0.00322639942169189453
0.236524477601051331 -0.973065435886383057 0.421487629413604736
0.812195360660552979 0.634793698787689209 0.476365387439727783
0.150882422924041748 -0.985736250877380371 0.415774554014205933
-2.32021570205688477 -2.50445818901062012 -0.353586435317993164
0.713019907474517822 1.44387698173522949 -0.354406177997589111
0.433870226144790649 0.221175402402877808 -0.356040090322494507
-1.44836568832397461 -2.24824047088623047 -0.155412301421165466
-0.232759267091751099 -0.745932221412658691 0.360611259937286377
-0.642719447612762451 -0.823123276233673096 0.464942485094070435
0.807304143905639648 0.344755738973617554 -0.00852466374635696411
0.212418019771575928 1.13398182392120361 0.199296534061431885
-1.01611435413360596 -2.5066535472869873 -0.187708795070648193
0.90272289514541626 0.520397543907165527 0.201146706938743591
-2.41748189926147461 -3.03805828094482422 0.44580918550491333
-1.27367615699768066 -1.89449417591094971 0.461539924144744873
-0.808811545372009277 0.667781949043273926 -0.154154941439628601
0.114176571369171143 0.444333136081695557 0.301622062921524048
0.872291326522827148 0.495378375053405762 0.49984779953956604
0.53349459171295166 0.219097167253494263 0.102966830134391785
-0.769642949104309082 0.595585465431213379 1.52720856666564941
0.0842237770557403564 0.972429573535919189 1.23575425148010254
0.873640298843383789 0.5050201416015625 0.499176859855651855
-0.522777855396270752 -0.843812227249145508 0.381509304046630859
0.983105480670928955 1.4432518482208252 0.266476541757583618
0.216612279415130615 1.77961814403533936 0.215631768107414246
0.332461267709732056 -1.54851484298706055 -0.114997677505016327
-0.756613969802856445 -1.49173033237457275 0.434876769781112671
-0.232338279485702515 -1.94561636447906494 -0.0504256822168827057
0.134627193212509155 -1.00473237037658691 -0.0259308330714702606
0.18828129768371582 -1.00638937950134277 0.415255337953567505
0.225510284304618835 -0.987578511238098145 -0.0359184443950653076
-1.44212770462036133 -2.01929831504821777 0.0452091842889785767
0.508275866508483887 0.769156217575073242 -0.320367723703384399
-0.560517609119415283 -0.842880904674530029 0.392474532127380371
0.837687253952026367 0.500867843627929688 0.479879081249237061
0.00714445114135742188 1.00544977188110352 0.141798734664916992
-2.26244354248046875 -1.62397170066833496 0.530387461185455322
-0.585881471633911133 -0.83113408088684082 0.370567440986633301
-2.01449203491210938 -2.02067375183105469 -0.121743865311145782
-0.0987984910607337952 -0.973130285739898682 0.831115961074829102
-1.6933441162109375 -2.40573763847351074 -0.517621099948883057
-1.02409863471984863 -1.76971626281738281 0.476572215557098389
-1.71994805335998535 -2.98759222030639648 0.11685364693403244
-1.12970542907714844 -2.7543489933013916 0.382155060768127441
-0.59006798267364502 -0.81564629077911377 0.803703904151916504
0.708035171031951904 0.499352842569351196 0.953410029411315918
0.282918155193328857 -1.07443118095397949 0.306286156177520752
0.777594625949859619 0.639830112457275391 0.359048843383789062
0.130965083837509155 -0.95863419771194458 0.437201619148254395
-0.767264842987060547 -1.79681682586669922 -0.0965273752808570862
0.327650457620620728 -0.847943603992462158 0.398423433303833008
-1.48470544815063477 -1.38403654098510742 0.279350101947784424
-0.634700775146484375 -0.700824439525604248 0.299667686223983765
0.787660598754882812 0.509884476661682129 0.392876029014587402
-0.364428132772445679 -0.960066080093383789 0.294199466705322266
0.153723746538162231 -0.893747091293334961 0.183900207281112671
0.238069355487823486 1.69436407089233398 -0.402021259069442749
0.193239942193031311 -0.0755385756492614746 0.07254008948802948
-0.508385658264160156 -1.07602500915527344 0.360923081636428833
-1.90571379661560059 -2.05193042755126953 0.518804192543029785
-2.05118322372436523 -1.60764122009277344 0.445676863193511963
-0.346367508172988892 -0.699515581130981445 0.215036854147911072
-1.42363345623016357 -3.11433696746826172 0.518805801868438721
0.889795482158660889 0.533146262168884277 0.598891735076904297
-2.22267293930053711 -2.64280533790588379 0.207277446985244751
-0.534041404724121094 -1.34365725517272949 -0.0307666994631290436
-1.97368085384368896 -2.95628452301025391 0.496013909578323364
0.735767960548400879 0.0447840094566345215 -0.445651084184646606
-1.69075942039489746 -1.95621943473815918 0.281413137912750244
-1.11920404434204102 -2.30532288551330566 0.214073002338409424
0.137854039669036865 -0.897148311138153076 1.01294255256652832
-1.3764268159866333 -1.79558241367340088 -0.0373665206134319305
0.810698986053466797 1.74578499794006348 -0.0401688963174819946
-1.91491734981536865 -2.34961986541748047 -0.0687537938356399536
0.231374397873878479 -1.29908120632171631 0.363059461116790771
-0.815070688724517822 -1.1442570686340332 0.0844147652387619019
-1.26488804817199707 -2.22669458389282227 0.522118628025054932
0.161860287189483643 -1.11662948131561279 0.583062410354614258
0.125590473413467407 -0.986972332000732422 0.435395658016204834
0.138812243938446045 -1.80407226085662842 0.233461618423461914
-0.715220987796783447 -2.77235770225524902 0.496357083320617676
-0.782888829708099365 0.394205749034881592 0.267686992883682251
0.161501079797744751 -0.989774465560913086 0.417972356081008911
0.887039124965667725 0.49666181206703186 0.491614967584609985
-1.44993603229522705 -2.71527290344238281 -0.127822846174240112
-0.441817998886108398 -0.82085949182510376 0.37511870265007019
-0.91604149341583252 -2.28302526473999023 -0.144314631819725037
-0.738649487495422363 -0.5105629563331604 0.75356757640838623
-0.456881582736968994 -1.77090048789978027 0.311760187149047852
0.374363124370574951 0.714850306510925293 0.260742425918579102
-0.575118660926818848 -0.718262553215026855 0.410268634557723999
-0.830452203750610352 -1.94847714900970459 0.458858340978622437
0.704173862934112549 1.12423396110534668 0.244258701801300049
-0.495177656412124634 -0.804020881652832031 0.377490043640136719
-0.0449934005737304688 -2.26267862319946289 0.20444004237651825
-1.50381386280059814 -1.39187812805175781 -0.153912156820297241
0.984255969524383545 0.789466321468353271 -0.122565343976020813
0.537439823150634766 0.356205493211746216 0.241332739591598511
-1.30433619022369385 -2.68799757957458496 -0.503517210483551025
-0.767962932586669922 0.915697872638702393 0.293566972017288208
0.883340120315551758 0.548847556114196777 0.470856636762619019
0.532785654067993164 1.5274968147277832 0.229190826416015625
-0.691440343856811523 -0.860441207885742188 0.399242103099822998
-0.0880554318428039551 -1.4384310245513916 -0.144317924976348877
-0.672375321388244629 -0.920204341411590576 0.677122414112091064
-0.807966530323028564 0.260643959045410156 -0.197929039597511292
-2.17014455795288086 -2.41720080375671387 0.507618963718414307
0.849699735641479492 0.381561219692230225 0.311716943979263306
-0.517406821250915527 -2.2832329273223877 -0.111308038234710693
-1.7892305850982666 -2.30334949493408203 0.0666158795356750488
-0.0262137055397033691 1.06813108921051025 -0.127879977226257324
0.355655640363693237 -0.989097058773040771 0.397249579429626465
-1.10693967342376709 -2.43232917785644531 0.185716599225997925
0.418961048126220703 -0.0169718563556671143 0.0421737879514694214
-1.45511651039123535 -1.9409794807434082 0.461500555276870728
0.916684865951538086 0.495137602090835571 0.645592927932739258
-1.14948821067810059 -1.39333856105804443 0.275410771369934082
-1.76807475090026855 -1.69774580001831055 0.00329713523387908936
-0.746001601219177246 0.956987500190734863 -0.384990870952606201
0.217479318380355835 -0.102818846702575684 -0.342907637357711792
-0.65806889533996582 -0.727413177490234375 0.361879616975784302
0.856105387210845947 0.495808303356170654 0.477623134851455688
0.853092610836029053 0.482118815183639526 0.510294079780578613
-2.49921083450317383 -2.63031864166259766 0.532915949821472168
0.423742413520812988 2.15049886703491211 0.320414096117019653
-1.24410521984100342 -3.42900609970092773 0.458138883113861084
0.947641074657440186 0.543741703033447266 0.840466439723968506
0.912713289260864258 0.49360346794128418 0.421352237462997437
0.305140137672424316 -0.0837538242340087891 0.163968861103057861
-2.15979266166687012 -3.28150701522827148 0.509985685348510742
0.260881781578063965 0.967471122741699219 0.974154829978942871
-0.739419400691986084 0.581161201000213623 1.03814148902893066
-1.99297499656677246 -2.39448451995849609 -0.559525251388549805
0.869109988212585449 0.5127716064453125 0.493628263473510742
0.0476654917001724243 0.974029421806335449 1.69853520393371582
-1.5277402400970459 -2.78094291687011719 0.511424362659454346
0.137947797775268555 -0.986816585063934326 0.44727635383605957
0.572891652584075928 -0.0466204285621643066 -0.144967123866081238
0.205664575099945068 -1.42315220832824707 0.198441922664642334
-1.46767568588256836 -2.26526498794555664 0.264865875244140625
-0.809590816497802734 0.70963895320892334 1.87543082237243652
-0.440491259098052979 -1.64850854873657227 -0.0466075204312801361
-0.555748581886291504 -0.809668183326721191 0.370682299137115479
0.152234792709350586 -0.970413804054260254 0.736618638038635254
-0.569411635398864746 -0.87733536958694458 0.376577109098434448
-0.71914905309677124 -0.735354244709014893 0.732901632785797119
0.851198434829711914 0.500307559967041016 0.442731708288192749
0.621659040451049805 1.74291622638702393 -0.344708234071731567
-2.22489547729492188 -2.04023361206054688 0.53999859094619751
-0.603242576122283936 -0.78529047966003418 0.394397199153900146
0.86268007755279541 0.502512276172637939 0.491610229015350342
-0.316839426755905151 -1.02414453029632568 0.335405290126800537
0.109858661890029907 -1.07059621810913086 0.793962299823760986
-1.00486087799072266 -2.62953281402587891 -0.540426135063171387
-1.31046938896179199 -2.84968900680541992 0.107930175960063934
0.862504720687866211 0.520210206508636475 0.440474748611450195
0.428854614496231079 -1.84650611877441406 0.0766145586967468262
-1.07967901229858398 -1.98750531673431396 -0.0803895965218544006
-1.6460113525390625 -3.10105419158935547 -0.191116869449615479
-0.371431499719619751 -2.17195940017700195 0.269945025444030762
1.06090438365936279 0.608288109302520752 -0.277038276195526123
-2.00507831573486328 -2.28191018104553223 0.275048136711120605
0.165405601263046265 -1.01970136165618896 0.347771406173706055
0.850626051425933838 0.186678975820541382 -0.511945962905883789
-0.458962082862854004 -1.41405773162841797 0.2991066575050354
0.0855673477053642273 -0.689649641513824463 1.03421413898468018
0.825055778026580811 0.8456878662109375 0.646190524101257324
-0.502707064151763916 -0.735943078994750977 0.382554233074188232
0.0732745379209518433 -0.802722513675689697 0.8436126708984375
0.0701128691434860229 0.955847620964050293 0.394204914569854736
0.17829616367816925 -0.999405562877655029 0.419758319854736328
-2.03842735290527344 -1.91696393489837646 0.1931113600730896
0.362261086702346802 1.76167190074920654 -0.0764938667416572571
0.93262481689453125 1.75306713581085205 -0.34089168906211853
0.858167827129364014 0.505682885646820068 0.447091996669769287
0.808916211128234863 1.73356962203979492 0.269244551658630371
-1.83464264869689941 -1.42015337944030762 0.26516568660736084
0.863916754722595215 0.49535059928894043 0.47994685173034668
-1.63808202743530273 -1.97351109981536865 -0.253279149532318115
0.239495828747749329 -1.00953471660614014 0.412846893072128296
-2.19103622436523438 -2.72662043571472168 0.510406851768493652
0.225675016641616821 1.42814064025878906 0.168956547975540161
0.141733944416046143 -0.982917428016662598 0.380291193723678589
0.264956504106521606 0.174736917018890381 0.226165324449539185
0.138489246368408203 -1.92899680137634277 -0.0433778278529644012
0.119315922260284424 -0.28604656457901001 0.247842162847518921
-0.970621943473815918 -2.41385531425476074 0.509363114833831787
-0.0323548316955566406 -2.23092555999755859 -0.11227947473526001
-0.595227539539337158 -0.926468431949615479 0.386565208435058594
-1.06822597980499268 -2.98766064643859863 0.537829995155334473
-0.815315186977386475 -1.38605618476867676 0.136581301689147949
0.187930434942245483 -1.11087656021118164 0.745703995227813721
0.471028804779052734 -0.0929610133171081543 -0.341665327548980713
0.368778079748153687 -0.911476254463195801 0.391313135623931885
-1.73861050605773926 -2.17702221870422363 -0.489484161138534546
-1.68897783756256104 -2.97252035140991211 0.37593233585357666
-1.96519875526428223 -1.5889667272567749 0.432814359664916992
0.555058121681213379 1.10786831378936768 -0.284372270107269287
-0.635276079177856445 -0.979456007480621338 0.932088971138000488
-0.637620389461517334 -0.714032769203186035 0.9015159010887146
0.946211695671081543 1.13102245330810547 0.257114052772521973
-0.798304617404937744 0.371417433023452759 -0.474521100521087646
-0.790229916572570801 0.985766470432281494 -0.0918793231248855591
-0.326463609933853149 -1.05538558959960938 0.360044151544570923
0.43343690037727356 0.537489891052246094 -0.379352688789367676
0.212655216455459595 -0.99780648946762085 0.237874001264572144
-0.566184163093566895 -0.957656145095825195 0.519868791103363037
-1.63778972625732422 -2.22464513778686523 0.378327161073684692
-1.27610874176025391 -1.51619422435760498 0.452944457530975342
0.425062745809555054 -1.22963106632232666 0.32333064079284668
