ply
format ascii 1.0
element vertex 256
comment vertices
property float x
property float y
property float z
end_header
2.89069747924804688 -1.36167812347412109 -0.422148823738098145
-2.71378135681152344 2.5842740535736084 0.192180857062339783
1.75833451747894287 2.64792919158935547 1.26971077919006348
-1.35690402984619141 -1.43580961227416992 -0.00862438604235649109
1.10508739948272705 -3.21576666831970215 1.12877655029296875
-0.0683755278587341309 0.992392778396606445 -0.0284613296389579773
3.48991107940673828 1.4182286262512207 -0.0898881703615188599
0.989303529262542725 -0.783102810382843018 1.22159242630004883
0.989336133003234863 -1.63336443901062012 -0.429389119148254395
-1.07380580902099609 -0.714900195598602295 1.5248187780380249
1.74559569358825684 -3.1716616153717041 -0.442160159349441528
2.07212615013122559 2.34125447273254395 -0.365131139755249023
-1.99015557765960693 0.0346224196255207062 -0.107124969363212585
1.32139575481414795 0.220636263489723206 -0.1772938072681427
0.665855228900909424 0.757082045078277588 1.20817828178405762
2.79470109939575195 0.260279536247253418 0.455526351928710938
-1.30730664730072021 2.36388134956359863 0.0164466239511966705
2.0817716121673584 -2.01102614402770996 0.525770246982574463
-0.0407065451145172119 -0.882243216037750244 0.12734706699848175
2.45829677581787109 1.46691179275512695 0.571541547775268555
-1.48615539073944092 1.167091965675354 0.214822858572006226
-0.801025509834289551 0.0590782091021537781 0.313753038644790649
1.29513382911682129 1.4330291748046875 -0.376174300909042358
0.387064844369888306 -1.8544539213180542 0.495241552591323853
1.52189254760742188 -1.00668275356292725 0.303597211837768555
2.93414068222045898 -2.33978509902954102 0.0279345661401748657
3.72023749351501465 0.323863506317138672 -0.00669333338737487793
-2.26063752174377441 1.7433619499206543 0.06601734459400177
1.32129538059234619 -2.69713997840881348 0.346432507038116455
0.823689758777618408 0.901698648929595947 0.255630761384963989
2.96990847587585449 -1.52490043640136719 0.498621761798858643
1.33433926105499268 0.228464692831039429 1.5369269847869873
2.34846687316894531 0.658540964126586914 -0.220776811242103577
1.14638030529022217 -2.3194735050201416 1.1688084602355957
0.274635761976242065 -1.31829237937927246 1.28539574146270752
0.814465343952178955 -0.715700984001159668 -0.145156323909759521
1.93650877475738525 2.25031375885009766 0.486726522445678711
-1.10444116592407227 -0.69616931676864624 0.570752561092376709
1.27555906772613525 0.306704282760620117 0.72028815746307373
2.1613619327545166 -1.40461945533752441 -0.0261338353157043457
3.42055559158325195 0.826317489147186279 0.567026138305664062
2.22379398345947266 -2.22120547294616699 -0.356487244367599487
0.483150869607925415 -0.569741368293762207 0.640978813171386719
-0.702162265777587891 1.39604699611663818 0.185238748788833618
0.256711959838867188 -1.85667061805725098 -0.260282605886459351
-0.543045282363891602 -1.40856993198394775 -0.0256829597055912018
-1.93268501758575439 2.76343083381652832 0.0466034486889839172
0.842363953590393066 -1.21482980251312256 0.580667853355407715
3.16219782829284668 1.65715682506561279 0.536714494228363037
1.26701724529266357 -2.47173118591308594 -0.341413795948028564
1.60354351997375488 -1.07703626155853271 -0.404794931411743164
2.80032968521118164 1.26178920269012451 -0.0244946088641881943
-0.915951371192932129 0.72532808780670166 0.129479482769966125
1.56898462772369385 -0.3857613205909729 0.0174260437488555908
-1.20159268379211426 -0.757479310035705566 -0.0950855761766433716
1.80530714988708496 -3.23438262939453125 0.22091519832611084
2.69795107841491699 1.91295993328094482 0.0794402062892913818
-1.49070084095001221 -0.0333046615123748779 0.309555679559707642
2.3783714771270752 0.745307683944702148 0.533225655555725098
0.663367867469787598 1.33282613754272461 -0.342624843120574951
-0.0312463939189910889 -1.39869332313537598 0.641543686389923096
1.10514843463897705 -0.561607420444488525 0.443050593137741089
0.91319119930267334 -1.86038565635681152 0.147833466529846191
3.23731160163879395 0.877103745937347412 -0.268216937780380249
0.648672997951507568 1.29242050647735596 0.889868795871734619
2.20964550971984863 1.17622983455657959 0.0810652971267700195
1.80300462245941162 -2.45154833793640137 0.0801369249820709229
-0.619902908802032471 -0.916695117950439453 0.277752548456192017
1.83074808120727539 2.68919849395751953 0.127625614404678345
-1.89511311054229736 2.19373822212219238 0.0882767438888549805
1.29514682292938232 1.33576047420501709 0.187127292156219482
2.50624537467956543 -2.38261890411376953 0.437162548303604126
0.187143579125404358 -1.30845367908477783 -0.396564662456512451
1.25066256523132324 0.782055854797363281 -0.180206269025802612
1.1807398796081543 -3.27660584449768066 0.576318740844726562
2.33741569519042969 -1.51354682445526123 0.50429612398147583
3.06848335266113281 0.404291927814483643 -0.0298255458474159241
0.685365736484527588 0.788145959377288818 -0.355739384889602661
0.286876022815704346 -0.485079139471054077 0.00122840702533721924
0.959019899368286133 -0.281794548034667969 -0.400500327348709106
3.35088419914245605 0.315933287143707275 0.474434733390808105
2.9885108470916748 -2.12044572830200195 0.495586037635803223
3.02432513236999512 1.15458416938781738 0.553797423839569092
0.0187030434608459473 -1.37833082675933838 0.0755394324660301208
1.164009690284729 -2.73232245445251465 0.899091839790344238
2.04809021949768066 2.42138957977294922 0.944294154644012451
1.26298308372497559 -3.16111087799072266 -0.373867213726043701
-2.33347272872924805 3.0142674446105957 0.116980716586112976
2.44214177131652832 0.318337827920913696 0.139625698328018188
-0.999671280384063721 -1.19167912006378174 0.210372686386108398
2.97110366821289062 0.682225525379180908 0.569688498973846436
0.403880894184112549 -0.730428338050842285 -0.378881841897964478
-0.466672897338867188 0.997288405895233154 0.236881613731384277
-2.36100435256958008 2.28500247001647949 0.146929740905761719
1.25823628902435303 0.74736785888671875 0.29479515552520752
-1.3978039026260376 0.755957961082458496 0.0236892998218536377
1.70016980171203613 -0.218182593584060669 -0.387755006551742554
1.16206014156341553 -1.0044093132019043 -0.0790591984987258911
0.958390653133392334 -0.32923319935798645 1.1947864294052124
0.613376438617706299 0.853780567646026611 0.768204748630523682
2.99327850341796875 -1.34698724746704102 0.0110482126474380493
2.19383358955383301 -2.25267267227172852 0.13857559859752655
-0.279407113790512085 1.37613117694854736 -0.0631980523467063904
-1.10233914852142334 -0.76483154296875 1.09001612663269043
0.316500335931777954 -0.964244365692138672 0.554916501045227051
-1.03445553779602051 1.1147308349609375 -0.0205810852348804474
3.41376543045043945 0.72440648078918457 0.0927474945783615112
3.47303915023803711 1.36384737491607666 0.569888591766357422
2.57656335830688477 -1.96484673023223877 0.502373337745666504
0.710834681987762451 1.30906391143798828 0.467978805303573608
1.00987005233764648 -0.894864559173583984 0.812745392322540283
1.99241352081298828 2.70695400238037109 0.518243551254272461
1.7592616081237793 2.62378597259521484 -0.341658174991607666
1.77373242378234863 -2.66948652267456055 0.439474225044250488
0.415216624736785889 -1.43588399887084961 0.478296130895614624
-0.959114372730255127 -1.54767537117004395 -0.0807500854134559631
3.07952165603637695 1.57415652275085449 -0.00797951966524124146
1.7357107400894165 -2.41182708740234375 -0.330955684185028076
1.69164955615997314 2.64196133613586426 0.863935351371765137
1.13368284702301025 -0.417852401733398438 0.0599152445793151855
2.69307827949523926 0.74552685022354126 -0.0224629119038581848
0.893095016479492188 -1.73509764671325684 0.528787434101104736
2.02981209754943848 2.28030228614807129 0.0273062288761138916
1.38604044914245605 -3.14904904365539551 0.00498904287815093994
0.757496416568756104 1.33285355567932129 0.0735606998205184937
1.05182874202728271 -0.419174164533615112 0.8099479079246521
-0.412823975086212158 -0.0169956088066101074 0.300848603248596191
-1.95631074905395508 -0.049844302237033844 0.272452741861343384
1.19152414798736572 -2.4018394947052002 0.69620668888092041
0.790089964866638184 -0.795717120170593262 0.516427755355834961
-0.843709945678710938 -0.884163796901702881 -0.0255602151155471802
1.57064390182495117 -2.98459458351135254 0.421912550926208496
-0.972174286842346191 1.05147945880889893 0.341618210077285767
-0.353428900241851807 -1.1789325475692749 0.184500798583030701
2.84124135971069336 1.46926009654998779 0.542763471603393555
2.90581583976745605 -2.29306221008300781 -0.33191189169883728
1.12817859649658203 -1.01601576805114746 0.476257234811782837
1.32415056228637695 0.267826169729232788 1.17583942413330078
-1.09317433834075928 -0.594138622283935547 0.209675148129463196
1.23978447914123535 0.29480394721031189 0.166760370135307312
-1.30028057098388672 -1.01162898540496826 0.290718734264373779
3.45081281661987305 1.59305751323699951 0.214899778366088867
1.42700386047363281 -2.42549848556518555 0.154477939009666443
-1.15743958950042725 -0.0482394732534885406 0.212252229452133179
1.42568504810333252 -0.677167594432830811 0.376350313425064087
2.24436426162719727 1.51750338077545166 0.111110769212245941
3.39546704292297363 0.327155590057373047 0.107131153345108032
2.66985654830932617 -1.37184536457061768 0.511901140213012695
-0.397540509700775146 -0.895042777061462402 0.0110218524932861328
1.27254116535186768 -2.95422554016113281 0.592932999134063721
2.58616065979003906 0.376996278762817383 -0.154611289501190186
2.54587674140930176 1.33252692222595215 0.281221985816955566
0.647466778755187988 1.08665561676025391 1.1889350414276123
1.70121848583221436 2.43961095809936523 0.357735157012939453
2.05129623413085938 -1.67297232151031494 0.501891732215881348
1.69377291202545166 -3.18186807632446289 -0.0974863022565841675
-1.62373876571655273 2.37187957763671875 0.100584134459495544
-0.665445268154144287 1.13916099071502686 -0.0100365243852138519
-0.528096020221710205 0.804431438446044922 -0.0131621323525905609
2.02996969223022461 2.63607430458068848 -0.11809772253036499
-0.732998907566070557 -1.36273348331451416 0.255983024835586548
-1.61525273323059082 1.00192081928253174 -0.0268449336290359497
2.5112757682800293 1.03516173362731934 0.510666072368621826
1.76579165458679199 2.34990143775939941 1.15462446212768555
3.08242988586425781 1.04560446739196777 -0.0462824292480945587
-2.64233255386352539 2.13526296615600586 0.143357455730438232
-1.24193739891052246 0.846492171287536621 0.286518454551696777
0.0697513222694396973 -1.3208768367767334 1.04136836528778076
-1.42782950401306152 1.28464031219482422 -0.0731544122099876404
1.07212221622467041 -1.41689836978912354 0.504457056522369385
-1.91893768310546875 1.88181817531585693 0.0579441450536251068
1.07290875911712646 1.09035944938659668 0.242533907294273376
-2.20971512794494629 2.62502121925354004 0.0689340382814407349
0.831259667873382568 -0.723748266696929932 0.164559602737426758
2.10790371894836426 -1.60726809501647949 0.204132556915283203
0.996461331844329834 -1.84526968002319336 -0.148540124297142029
1.24915170669555664 -3.25476503372192383 0.279635518789291382
2.3445582389831543 0.673659026622772217 0.239577293395996094
1.76666498184204102 2.42250633239746094 -0.0234058499336242676
3.20711803436279297 1.32848870754241943 -0.144932061433792114
3.05327224731445312 -1.83600246906280518 0.43176037073135376
2.04462957382202148 2.49506211280822754 0.315506815910339355
2.73128318786621094 0.236977830529212952 0.165779665112495422
1.0353538990020752 -1.02340471744537354 -0.347091406583786011
2.31392025947570801 -1.81032931804656982 0.493221461772918701
1.5476386547088623 -0.944902300834655762 -0.145801857113838196
1.4247138500213623 -0.394454121589660645 0.291567236185073853
1.83922135829925537 2.28795313835144043 0.7856026291847229
2.98069047927856445 0.450417280197143555 0.329960495233535767
0.36106264591217041 -1.65196502208709717 -0.443208575248718262
0.0272538959980010986 1.26806473731994629 -0.01925649493932724
-0.377211153507232666 1.2729942798614502 0.189385026693344116
3.59546661376953125 0.313035041093826294 0.321294844150543213
2.72894072532653809 1.52225685119628906 0.0707750096917152405
1.77479708194732666 -2.91044855117797852 0.235510021448135376
-1.30024456977844238 -1.29604625701904297 0.273381173610687256
3.26383495330810547 0.614939033985137939 0.673713624477386475
0.458875685930252075 -1.83860468864440918 0.221304073929786682
0.787826061248779297 0.773450195789337158 0.00763902068138122559
1.98669624328613281 2.64382076263427734 1.10069668292999268
-1.12812364101409912 -1.00712120532989502 0.00470490194857120514
0.236479103565216064 -1.58246839046478271 0.627643346786499023
2.71472263336181641 -2.20051145553588867 0.491083443164825439
0.804443895816802979 -0.790710330009460449 -0.406623035669326782
-0.161378532648086548 0.784564375877380371 0.1185484379529953
-0.858307063579559326 -1.31505167484283447 0.0136666782200336456
1.11716878414154053 -0.279519081115722656 -0.181116491556167603
-0.664266884326934814 -1.08412277698516846 0.0700479969382286072
0.644207537174224854 -1.03653228282928467 0.54660189151763916
1.24402463436126709 -0.920393049716949463 0.162450984120368958
2.59831833839416504 0.612196207046508789 0.608166158199310303
0.0284645408391952515 -1.38948750495910645 -0.198236152529716492
-1.66566944122314453 -0.0253768321126699448 0.108749061822891235
0.777815580368041992 -0.532275557518005371 0.547820866107940674
0.101455822587013245 -1.02241766452789307 -0.0462286174297332764
2.77417135238647461 1.03046000003814697 0.513771295547485352
0.390844494104385376 -0.507963776588439941 0.241139337420463562
1.37512302398681641 1.32590699195861816 -0.0622934401035308838
2.07952260971069336 2.62440109252929688 -0.37459564208984375
-1.05792582035064697 -1.44300293922424316 0.168039694428443909
0.684372544288635254 -1.57792055606842041 0.529520153999328613
0.201868578791618347 -1.29240953922271729 0.691800117492675781
-2.01300215721130371 2.45405960083007812 0.0827393680810928345
0.655503213405609131 1.03470134735107422 0.586417019367218018
-0.717777907848358154 1.00669348239898682 0.363734990358352661
-1.18087315559387207 1.29060173034667969 0.0999474674463272095
1.17141389846801758 -2.66889047622680664 1.14967799186706543
3.21971321105957031 0.530383050441741943 0.136603072285652161
-0.252549409866333008 -1.37750279903411865 0.0562868751585483551
3.10281777381896973 0.268793672323226929 0.516822576522827148
1.56401050090789795 -2.66024684906005859 0.277301102876663208
1.28852319717407227 0.727344691753387451 -0.425515145063400269
1.15190434455871582 0.733411669731140137 0.0649864226579666138
1.17046654224395752 -3.05916118621826172 0.942572116851806641
2.90807509422302246 -2.24744176864624023 0.293826013803482056
2.2572329044342041 -2.36073994636535645 0.464745759963989258
2.08482074737548828 2.2550654411315918 0.689424514770507812
3.50281071662902832 0.366067171096801758 -0.123281605541706085
-0.172415733337402344 1.12349283695220947 0.156679049134254456
0.716631948947906494 0.770843625068664551 0.438701272010803223
2.54492831230163574 -1.64836013317108154 0.518399238586425781
2.81969189643859863 0.422713309526443481 -0.0885649994015693665
3.4742896556854248 1.61024963855743408 0.586418032646179199
3.29139041900634766 1.03302979469299316 0.527510583400726318
2.00072193145751953 2.36173248291015625 1.22867918014526367
1.29295921325683594 -2.34594035148620605 0.480374902486801147
0.9597817063331604 -1.02459084987640381 1.20064663887023926
3.07407999038696289 1.39865386486053467 0.543567478656768799
2.95208930969238281 -1.49521303176879883 0.198867976665496826
-0.84465867280960083 -0.984236836433410645 0.337851017713546753
1.48892521858215332 -3.08569550514221191 0.214896976947784424
2.18972468376159668 -2.31972169876098633 -0.138144969940185547
-2.10640716552734375 2.07726049423217773 0.0813658535480499268
1.82187724113464355 2.39122462272644043 -0.328517556190490723
-0.0756727308034896851 -1.15873575210571289 0.107115224003791809
2.92232990264892578 1.75393199920654297 -0.00803096964955329895
