ply
format ascii 1.0
element vertex 256
comment vertices
property float x
property float y
property float z
end_header
-1.7327873706817627 -2.8495490550994873 -0.0287068337202072144
1.60644471645355225 3.23275327682495117 0.208719521760940552
3.55254030227661133 -1.79116034507751465 -0.0775896012783050537
-3.02564644813537598 1.91832470893859863 0.162370175123214722
0.724185287952423096 -0.746354043483734131 1.16921114921569824
-0.336035341024398804 1.3135373592376709 -0.0889838486909866333
1.45281744003295898 -3.17382574081420898 0.550440728664398193
-1.64369010925292969 -0.440752863883972168 0.763537883758544922
-1.46082651615142822 3.35306262969970703 0.171758651733398438
-0.301183760166168213 -1.49160361289978027 -0.121924817562103271
1.33043801784515381 0.851187348365783691 0.290381431579589844
2.4091794490814209 -0.716791033744812012 0.804209649562835693
1.35299134254455566 -1.30139684677124023 -0.369879037141799927
-2.89537143707275391 -1.85287618637084961 0.0783332213759422302
-1.62249338626861572 1.86549639701843262 0.181151583790779114
-1.19332480430603027 0.609325766563415527 1.44520163536071777
2.19398164749145508 -2.07944059371948242 0.473298460245132446
-0.436086505651473999 -2.89628005027770996 0.0363542288541793823
-3.07036089897155762 0.623046517372131348 0.0870162546634674072
-0.67820441722869873 -0.112963810563087463 -0.0397142656147480011
0.438112795352935791 1.45673322677612305 0.917966485023498535
1.54616737365722656 2.05167341232299805 0.122435063123703003
-1.33656466007232666 -1.55276131629943848 0.541522026062011719
-1.39488625526428223 0.674756526947021484 0.235563337802886963
3.19200253486633301 -0.757847368717193604 -0.0752509832382202148
1.33423876762390137 -0.536481559276580811 0.343461215496063232
2.41145610809326172 2.62029170989990234 0.0700930878520011902
0.604154050350189209 1.52798235416412354 -0.297601163387298584
-1.07346498966217041 -2.48722028732299805 0.677907824516296387
0.777210474014282227 -0.492136240005493164 -0.408729016780853271
1.61570727825164795 -2.43177175521850586 -0.166206270456314087
0.422022342681884766 0.746321499347686768 0.177942678332328796
-2.29411959648132324 1.26312661170959473 0.0521281734108924866
0.12410186231136322 -1.33075833320617676 0.65273517370223999
-1.43681228160858154 -0.572886168956756592 -0.128909975290298462
-0.207290142774581909 1.98707962036132812 0.477058827877044678
-1.2558293342590332 1.31840991973876953 0.816880702972412109
-2.07407593727111816 -1.97894728183746338 0.368580758571624756
2.70767450332641602 -1.59713923931121826 -0.0631653070449829102
0.991297066211700439 2.61937284469604492 0.306107431650161743
0.223118126392364502 -1.34777605533599854 1.45510780811309814
1.41692101955413818 -1.90968358516693115 0.511204004287719727
0.839313685894012451 -1.18351864814758301 0.362837016582489014
-0.280586957931518555 0.671695291996002197 0.517506420612335205
2.20361065864562988 -2.86067557334899902 0.438612133264541626
-1.06972157955169678 1.40725386142730713 -0.0272481143474578857
-1.40747356414794922 -2.03408336639404297 -0.0102380365133285522
-1.63683664798736572 0.382546991109848022 0.863790631294250488
-3.42730426788330078 1.22842049598693848 0.294347256422042847
-0.712919175624847412 -0.898443460464477539 -0.0576788187026977539
-1.47769761085510254 2.65910768508911133 -0.0066796555183827877
-0.701744377613067627 0.583640694618225098 -0.0783791989088058472
0.573096156120300293 0.778779447078704834 0.876361072063446045
0.884830772876739502 1.52014601230621338 0.334746360778808594
1.26512837409973145 0.607658267021179199 -0.339559942483901978
-1.58841156959533691 0.0273671261966228485 0.222437232732772827
2.42064976692199707 -1.50737309455871582 0.746294140815734863
2.61076235771179199 -0.920284152030944824 0.204278290271759033
-1.09447431564331055 -2.89119100570678711 0.129062294960021973
1.90248322486877441 -3.03803372383117676 -0.117435760796070099
-2.34090757369995117 -2.62493896484375 -0.107194311916828156
1.41531229019165039 -0.469909459352493286 -0.307791233062744141
0.200725287199020386 1.40545928478240967 0.258211076259613037
-1.80331230163574219 -2.61614370346069336 0.568774163722991943
-0.0997948497533798218 1.85107219219207764 -0.32263416051864624
-0.952565193176269531 -1.4785768985748291 -0.0573813468217849731
-1.25901699066162109 -0.974655985832214355 0.310498952865600586
0.266842305660247803 -1.28885090351104736 -0.21693110466003418
1.36773490905761719 -2.51062202453613281 0.472153544425964355
-0.222586303949356079 -0.508306145668029785 -0.0386442095041275024
1.30542385578155518 1.52573060989379883 -0.079062923789024353
-0.135426044464111328 0.856829166412353516 -0.364570200443267822
1.72619771957397461 2.58147025108337402 0.225687891244888306
3.54360675811767578 -1.24020290374755859 -0.0668407157063484192
0.886255204677581787 -0.679524362087249756 0.649121344089508057
-1.18533515930175781 0.275400906801223755 -0.070412367582321167
1.94967222213745117 -2.01545882225036621 -0.0064698830246925354
-2.83746194839477539 1.41648685932159424 0.0887503921985626221
0.779186010360717773 -1.24525904655456543 -0.378185629844665527
-2.77025675773620605 -2.33443069458007812 -0.088573940098285675
-1.18146944046020508 0.585961341857910156 0.765280961990356445
-2.55230569839477539 -2.12076997756958008 0.336768507957458496
-2.69129848480224609 0.934460282325744629 0.0264059398323297501
0.8285713791847229 -0.567977190017700195 0.0746310949325561523
-1.79718971252441406 -2.3022768497467041 -0.138030737638473511
1.84216785430908203 -2.53615164756774902 0.353128403425216675
0.645798325538635254 0.753123164176940918 -0.25637662410736084
0.817649960517883301 -1.14303851127624512 0.849286913871765137
-0.256750285625457764 0.389816612005233765 -0.0569478534162044525
-0.227590888738632202 -1.01528871059417725 -0.0667139589786529541
0.843625962734222412 0.969458103179931641 0.208061277866363525
0.489396482706069946 1.14854669570922852 0.560175120830535889
-2.23844099044799805 -2.47574138641357422 0.462875664234161377
-1.40059125423431396 -0.841691851615905762 0.752081513404846191
2.92752838134765625 -1.18474912643432617 -0.0157712884247303009
-1.02295708656311035 0.917055130004882812 -0.0303135029971599579
-1.00705528259277344 -3.09348583221435547 0.535246670246124268
1.29482781887054443 -1.220916748046875 0.329496651887893677
-1.21927487850189209 1.07058143615722656 0.382103532552719116
-0.196454182267189026 1.08872759342193604 0.36759263277053833
1.89756250381469727 -3.19370651245117188 0.490404874086380005
2.5578920841217041 -1.7768484354019165 0.31954309344291687
0.187209188938140869 1.16182386875152588 -0.377072125673294067
-1.41546797752380371 2.25294995307922363 0.159939542412757874
0.187810704112052917 1.83927559852600098 0.355792343616485596
-1.54771709442138672 -0.440222471952438354 0.336320877075195312
1.31760513782501221 1.47350013256072998 0.375929981470108032
-1.73627233505249023 2.97628688812255859 0.136485576629638672
-1.06783032417297363 -0.670213043689727783 0.0657525062561035156
1.83353710174560547 -1.82207798957824707 0.485396385192871094
-0.149273395538330078 0.797553062438964844 0.0657066553831100464
-1.14421641826629639 -0.143132239580154419 -0.0478211492300033569
-1.62062716484069824 0.00616815639659762383 0.640512228012084961
-0.590602099895477295 0.986741364002227783 -0.0389378927648067474
-0.187251806259155273 1.57518553733825684 0.516334712505340576
-1.17607474327087402 1.50736689567565918 0.457624375820159912
0.955365121364593506 0.578870475292205811 0.269481450319290161
-1.75747776031494141 -1.83848917484283447 0.0772428959608078003
0.141622930765151978 -1.33131968975067139 0.171154454350471497
-2.47959256172180176 -1.83039295673370361 0.06045493483543396
-2.24655055999755859 -2.25713253021240234 0.0318828187882900238
2.58815956115722656 -1.32120084762573242 0.222019970417022705
-1.96905338764190674 -2.51300454139709473 0.169303402304649353
0.1734723299741745 -1.33546698093414307 1.04524838924407959
1.70648527145385742 -2.9153282642364502 0.203067734837532043
-1.51460373401641846 -2.36884021759033203 0.461493611335754395
-1.55296611785888672 0.477437317371368408 -0.0678530037403106689
3.22342324256896973 -1.45847368240356445 -0.0397594571113586426
1.08301734924316406 -0.830450892448425293 0.322351723909378052
-1.61771035194396973 0.488493204116821289 0.483951866626739502
-0.619443178176879883 -0.486641049385070801 -0.0710120201110839844
1.28181397914886475 -1.05294382572174072 -0.0102009177207946777
-0.598296403884887695 -1.25895178318023682 -0.102540478110313416
0.256004840135574341 1.53326606750488281 -0.165854692459106445
2.4911353588104248 -1.05230081081390381 0.531130433082580566
-1.46666884422302246 -2.96088719367980957 0.206500992178916931
1.92003715038299561 -2.6439669132232666 -0.182503297924995422
0.0516347363591194153 0.826986372470855713 0.440056353807449341
0.533798694610595703 1.21408200263977051 0.203668117523193359
-1.68587851524353027 -2.19187116622924805 0.187375053763389587
-1.21483004093170166 -1.32638084888458252 0.251310765743255615
0.8529624342918396 -1.21763014793395996 -0.032099604606628418
1.73906934261322021 -2.19725799560546875 0.359185487031936646
-0.758985400199890137 -2.86118721961975098 0.237697526812553406
-1.03972625732421875 -1.13579285144805908 -0.0687445253133773804
-3.13277316093444824 1.18805336952209473 0.106879211962223053
-1.53062343597412109 -0.250423192977905273 -0.0286159999668598175
-1.26511144638061523 0.662815988063812256 -0.129538685083389282
3.53829836845397949 -0.750431478023529053 -0.0432513989508152008
1.30340278148651123 2.61899185180664062 0.160472065210342407
-0.0676496326923370361 1.89425945281982422 0.131571054458618164
-1.38144946098327637 -1.167366623878479 0.645918130874633789
1.13313806056976318 1.13800525665283203 0.208777621388435364
3.02949309349060059 -1.72676920890808105 -0.0280303210020065308
-0.695487022399902344 1.30050420761108398 -0.051379721611738205
0.548083305358886719 0.648102402687072754 0.577171444892883301
1.93256628513336182 -2.31908059120178223 -0.183916077017784119
1.64073216915130615 -2.84981560707092285 -0.152174174785614014
-1.29330122470855713 -0.623204708099365234 0.418388903141021729
-2.9371943473815918 -2.33880615234375 0.188563838601112366
0.518841803073883057 1.52477788925170898 0.280556648969650269
-1.48403418064117432 0.166049569845199585 -0.04800429567694664
-1.44801592826843262 3.01293158531188965 0.00580091401934623718
2.75751304626464844 -0.796742618083953857 -0.0486508645117282867
2.10524225234985352 2.57232475280761719 0.129683613777160645
-1.10273778438568115 0.585973143577575684 1.14604699611663818
-0.900424420833587646 -2.7993018627166748 0.526783525943756104
-2.76816892623901367 -1.87226736545562744 0.363437563180923462
0.122416168451309204 1.12898468971252441 0.412064850330352783
1.70181381702423096 -1.98004913330078125 -0.187164261937141418
3.21360182762145996 -1.06092119216918945 -0.0349562168121337891
-0.382478892803192139 0.721884965896606445 -0.117015138268470764
1.32434976100921631 -0.580807924270629883 0.0424152761697769165
-1.1890561580657959 0.916148781776428223 0.639795482158660889
1.74871611595153809 -2.24278926849365234 0.0422589816153049469
2.05001068115234375 -2.34383201599121094 0.454804539680480957
0.493953943252563477 1.13645005226135254 0.859808683395385742
1.86758339405059814 2.38359475135803223 0.0502932220697402954
-3.3260045051574707 0.967643022537231445 0.16672101616859436
2.54504489898681641 -0.734216809272766113 0.428723752498626709
1.40770983695983887 -2.88207173347473145 0.515281498432159424
0.742780923843383789 -1.1663738489151001 1.13191437721252441
-1.62767016887664795 2.46118378639221191 0.149293333292007446
1.76152276992797852 2.99107098579406738 0.173551380634307861
0.636845529079437256 0.553898870944976807 0.168140307068824768
2.42536377906799316 -1.20893669128417969 0.764075100421905518
0.651583254337310791 1.47101664543151855 0.530214250087738037
0.163583219051361084 1.18340682983398438 0.0798057317733764648
-1.12336969375610352 0.583702802658081055 0.216266915202140808
-1.93313908576965332 -2.36713933944702148 0.512290775775909424
-1.16758692264556885 1.30368554592132568 0.219513267278671265
2.50875544548034668 -1.50361883640289307 0.475805699825286865
-2.29618978500366211 -2.55297160148620605 0.163674965500831604
1.81330490112304688 -2.85854935646057129 0.457772374153137207
-1.57642889022827148 0.211317107081413269 0.454499095678329468
-1.9331740140914917 -2.0932769775390625 0.104349412024021149
-2.32681751251220703 -1.8640599250793457 0.348349690437316895
-0.188446968793869019 1.08065235614776611 -0.0554697290062904358
-1.38201272487640381 -0.388416647911071777 0.694201111793518066
-0.933249592781066895 -0.315593600273132324 -0.0869165584444999695
-1.3817744255065918 -2.80625748634338379 -0.003769703209400177
-0.103000141680240631 1.31466245651245117 0.505288958549499512
1.35048055648803711 0.581324934959411621 0.327161431312561035
-2.59616231918334961 1.53535974025726318 0.0492015816271305084
0.593389749526977539 1.41001462936401367 0.0248461365699768066
-0.584995388984680176 -2.92077231407165527 -0.188605815172195435
-0.917409360408782959 0.312534034252166748 -0.0846539884805679321
1.9168400764465332 2.76486420631408691 0.119845889508724213
2.66070294380187988 -1.16011762619018555 0.0120618268847465515
0.292027592658996582 1.5431513786315918 0.468597531318664551
-3.36079883575439453 1.44260907173156738 0.149640753865242004
-1.14533138275146484 0.845302402973175049 0.260195553302764893
0.874658286571502686 -0.921925365924835205 0.460093080997467041
0.77072441577911377 -0.882184445858001709 0.870364129543304443
-1.76175212860107422 -2.9293055534362793 0.222440168261528015
-0.984546661376953125 -0.877792418003082275 -0.0835518240928649902
2.16889691352844238 -2.57794666290283203 0.432587683200836182
-1.18381226062774658 -0.507460594177246094 -0.108906000852584839
1.05856573581695557 0.819916248321533203 0.206554815173149109
-1.71442842483520508 2.70707082748413086 0.139371305704116821
-2.29822659492492676 -2.13655972480773926 0.385873317718505859
2.42078852653503418 -1.76580131053924561 0.76212155818939209
-2.79905438423156738 -2.17389631271362305 0.386756181716918945
-2.61297321319580078 -2.27891206741333008 0.144153699278831482
-0.151724740862846375 1.74754476547241211 0.323745757341384888
-2.06879162788391113 -2.28407144546508789 0.224583372473716736
-1.16094040870666504 1.12405312061309814 -0.0874720960855484009
-2.49364280700683594 1.117745041847229 0.115192577242851257
0.620906412601470947 0.924868345260620117 0.321412205696105957
-2.03140115737915039 -2.55603718757629395 -0.0722281038761138916
2.96702694892883301 -0.938008904457092285 -0.0601656474173069
1.28786385059356689 0.661836743354797363 -0.0948354229331016541
2.20163631439208984 -3.10886740684509277 0.474214911460876465
1.12485265731811523 1.54971003532409668 0.237043038010597229
-0.820140540599822998 1.51316928863525391 -0.0869359821081161499
-1.70857489109039307 3.22118544578552246 0.171782881021499634
-2.920684814453125 1.00178587436676025 0.0919719040393829346
1.05443322658538818 2.83778619766235352 0.209076732397079468
-1.66117358207702637 2.21704483032226562 0.148269057273864746
-1.62269473075866699 -0.68561255931854248 0.752883195877075195
-0.838086783885955811 -0.594206035137176514 -0.0375317707657814026
0.771333575248718262 1.26808524131774902 0.174215659499168396
-2.32578134536743164 -2.02650618553161621 0.0552012808620929718
-1.50467610359191895 2.06700038909912109 0.0280470661818981171
1.63879024982452393 -2.3945009708404541 0.463351279497146606
0.460786521434783936 0.937401235103607178 0.678683817386627197
-1.20812571048736572 1.55013525485992432 0.870279967784881592
0.250936686992645264 1.22417962551116943 -0.14198581874370575
3.53992652893066406 -0.991605043411254883 -0.0416701436042785645
3.4527897834777832 -1.52849650382995605 -0.0603855252265930176
-2.93385076522827148 1.71423745155334473 0.0742611289024353027
-1.56504333019256592 -0.172013074159622192 0.353484392166137695
-0.9939841628074646 0.685938894748687744 -0.086033940315246582
-1.48109233379364014 -1.88275694847106934 0.1598004549741745
0.619760692119598389 0.741756975650787354 0.023898392915725708
-2.65911364555358887 -2.04658007621765137 0.128493756055831909
