ply
format ascii 1.0
element vertex 256
comment vertices
property float x
property float y
property float z
end_header
3.91862678527832031 -3.45862650871276855 1.08541655540466309
-3.13332223892211914 1.79261553287506104 -0.0225027017295360565
3.11656689643859863 2.02387332916259766 -0.323414266109466553
-1.46455657482147217 -3.33876299858093262 0.156099066138267517
1.24281156063079834 -1.03492474555969238 0.154428154230117798
-0.0615611225366592407 3.32350635528564453 0.200982600450515747
-1.26633656024932861 0.32581445574760437 1.53148841857910156
0.850937843322753906 0.949151277542114258 1.10817396640777588
2.89197659492492676 -4.76764345169067383 -0.311447590589523315
-0.861037909984588623 -1.27287280559539795 0.189073681831359863
2.14771723747253418 -2.88440680503845215 0.0618064031004905701
1.75493168830871582 3.05622625350952148 0.172128498554229736
-1.27986776828765869 0.44483456015586853 -0.236546337604522705
4.60526943206787109 -3.91317582130432129 -0.397995412349700928
0.102291613817214966 -2.81411957740783691 -0.0723518505692481995
2.29729151725769043 1.74175810813903809 1.04347562789916992
-0.299642205238342285 1.6403195858001709 0.260437309741973877
1.00930607318878174 0.428967297077178955 -0.374350309371948242
-3.18439078330993652 0.527264952659606934 0.861479580402374268
-0.167779579758644104 -1.33167421817779541 1.51353371143341064
3.08018994331359863 -4.62515115737915039 1.07586145401000977
1.82669734954833984 0.0410222858190536499 0.654900431632995605
-2.47061419486999512 0.750136375427246094 -0.0926616862416267395
1.77114367485046387 1.10640692710876465 0.161188513040542603
0.0517169833183288574 -0.649580121040344238 -0.0567874163389205933
2.11467099189758301 -1.80301904678344727 0.0869577080011367798
-0.951740384101867676 2.76317453384399414 0.0839067175984382629
0.562511920928955078 -0.805651962757110596 0.884642720222473145
4.46358919143676758 -3.1608731746673584 0.281636029481887817
-0.105265185236930847 1.29226231575012207 1.18127870559692383
1.34555792808532715 2.14206719398498535 0.16246148943901062
1.30968654155731201 -2.39245867729187012 0.204872369766235352
3.11884546279907227 1.28938198089599609 0.306869179010391235
-2.1878211498260498 1.71470785140991211 -0.0733865797519683838
1.66543769836425781 -0.389594197273254395 -0.36788669228553772
-3.16053676605224609 1.44722509384155273 0.834048628807067871
2.3506782054901123 2.34687113761901855 0.0710960254073143005
-0.768351972103118896 -2.75392818450927734 0.246561288833618164
0.918529510498046875 0.0255409572273492813 0.657091438770294189
0.667131364345550537 2.88825392723083496 0.0469504445791244507
-0.992235660552978516 -0.558876156806945801 0.642586231231689453
0.873535871505737305 1.08153831958770752 0.284601718187332153
-1.25057756900787354 0.341493546962738037 0.578636884689331055
4.21329212188720703 -3.93947052955627441 0.347131192684173584
0.0829488933086395264 0.91422569751739502 0.164596647024154663
3.93951082229614258 -3.29374265670776367 -0.329187572002410889
-0.0647433921694755554 -1.42264795303344727 0.212302595376968384
1.72012650966644287 0.368453115224838257 -0.0363772138953208923
2.33467793464660645 1.59989488124847412 0.290936976671218872
-0.698102355003356934 -0.545804142951965332 -0.096697688102722168
-3.16205477714538574 0.972165107727050781 0.247190132737159729
-1.00168395042419434 -1.81012606620788574 0.679025530815124512
0.672051846981048584 -0.241193413734436035 0.019422236829996109
-0.37046283483505249 -3.34424376487731934 0.0408342890441417694
1.39167118072509766 -1.67311000823974609 -0.125384688377380371
0.651660680770874023 -1.42476952075958252 0.564674437046051025
3.13900232315063477 1.24156486988067627 -0.389384150505065918
1.54355001449584961 -0.593883156776428223 0.603173196315765381
0.602531611919403076 -1.05279219150543213 -0.0843606740236282349
3.02962732315063477 -4.65334558486938477 0.398863732814788818
3.24313235282897949 -4.21158456802368164 -0.372128069400787354
-0.713841915130615234 3.36317658424377441 0.168656423687934875
-0.269301116466522217 -1.32525849342346191 0.814652919769287109
2.86104416847229004 1.95922172069549561 0.261180222034454346
4.56982851028442383 -3.13690447807312012 -0.337989717721939087
1.353729248046875 -0.200038135051727295 0.139113470911979675
3.87164664268493652 -3.89490890502929688 -0.200405240058898926
3.89410901069641113 -3.31485199928283691 0.44988781213760376
-0.529850184917449951 -1.68290269374847412 -0.0992855951189994812
0.854151070117950439 1.11696875095367432 -0.30970427393913269
1.18510043621063232 0.405824601650238037 0.218523100018501282
2.43812274932861328 -2.37565851211547852 0.0104967709630727768
3.11663436889648438 -4.16011619567871094 0.701141595840454102
2.36370658874511719 1.33976781368255615 -0.228137597441673279
-1.43250250816345215 -2.77095603942871094 0.0609879046678543091
-0.592600107192993164 1.15764975547790527 0.182393953204154968
1.81535422801971436 1.83386921882629395 0.080483853816986084
-0.15234096348285675 2.80192017555236816 0.034465346485376358
2.35373330116271973 1.27560544013977051 0.749776184558868408
0.864369809627532959 0.581601142883300781 0.626616060733795166
-0.958019495010375977 -3.45374274253845215 -0.0149080567061901093
-2.66174411773681641 1.44614386558532715 -0.0524498522281646729
-0.46229204535484314 -1.03328442573547363 -0.0849192142486572266
1.01611363887786865 -0.556050419807434082 0.64074176549911499
3.84863901138305664 -3.8877110481262207 0.726546585559844971
0.903090715408325195 -1.44396281242370605 0.101845309138298035
0.349743664264678955 1.36074733734130859 0.117961645126342773
0.452720344066619873 3.36714673042297363 0.15357796847820282
-2.98549342155456543 0.603201031684875488 -0.0700054317712783813
1.46621334552764893 0.407293319702148438 0.66162407398223877
-1.00480794906616211 -1.12436199188232422 0.657021105289459229
1.78834676742553711 2.38381218910217285 0.171466141939163208
-2.17874789237976074 1.15775716304779053 -0.112098090350627899
1.34510517120361328 2.6418449878692627 0.196827679872512817
2.32179069519042969 1.83374118804931641 -0.224530994892120361
-0.188071057200431824 1.2656562328338623 0.698602735996246338
4.58756685256958008 -3.68473696708679199 0.173461154103279114
1.32555472850799561 0.906291842460632324 0.275041729211807251
0.935659527778625488 -0.664046049118041992 0.105635553598403931
1.98004651069641113 -2.35117053985595703 0.123106993734836578
-1.25801753997802734 0.297478765249252319 1.06330263614654541
-0.119818165898323059 1.37274456024169922 -0.077767789363861084
-3.13805246353149414 1.47649931907653809 0.371829628944396973
-0.29763484001159668 -2.89999699592590332 0.14821818470954895
0.872182965278625488 0.487561821937561035 1.12172150611877441
3.04971885681152344 -4.45149612426757812 -0.016567721962928772
-1.1433098316192627 -3.04645681381225586 0.306042522192001343
-3.15316867828369141 0.533059597015380859 0.382111012935638428
0.909765064716339111 -1.03728437423706055 0.694955348968505859
1.7324683666229248 0.638190388679504395 0.333979755640029907
1.38913798332214355 -0.0872473418712615967 0.624203681945800781
-0.873331248760223389 -1.75969207286834717 0.24998888373374939
-0.889449656009674072 -0.79834294319152832 0.278603464365005493
-3.13447403907775879 1.01459860801696777 0.754823446273803711
1.16865444183349609 -0.0435258150100708008 -0.227708294987678528
-0.50191342830657959 2.90236067771911621 0.27480962872505188
0.264225125312805176 2.97300291061401367 0.186444088816642761
1.3068234920501709 -1.45914912223815918 0.253063768148422241
0.385774374008178711 -1.08081889152526855 0.603959083557128906
-1.29861211776733398 0.182311013340950012 0.182292282581329346
2.79873132705688477 1.53276777267456055 0.188375398516654968
3.2296900749206543 -4.84615707397460938 0.708699941635131836
2.22621273994445801 1.35376989841461182 1.14983296394348145
0.821725785732269287 0.628686904907226562 0.223811715841293335
1.67572224140167236 1.24310564994812012 -0.207376182079315186
0.0239694118499755859 -3.20429325103759766 -0.00264025479555130005
4.16026592254638672 -3.55380725860595703 0.246157422661781311
2.0372316837310791 2.77862977981567383 0.115019857883453369
2.85386347770690918 -4.25164651870727539 -0.32690894603729248
0.631535887718200684 -0.729996204376220703 0.514258027076721191
-2.74049735069274902 1.01993775367736816 -0.0537366606295108795
-0.267033547163009644 1.07418406009674072 0.362191468477249146
0.0438100695610046387 1.67058610916137695 0.109248846769332886
-3.08382892608642578 1.41998672485351562 -0.0394524261355400085
1.35892236232757568 -0.684512138366699219 0.223221108317375183
0.864857077598571777 0.987691044807434082 0.648029804229736328
1.63958430290222168 0.18619111180305481 0.2694244384765625
0.799564063549041748 0.34564286470413208 -0.0886104404926300049
-0.681101202964782715 -3.30439567565917969 0.219997569918632507
1.60169136524200439 0.302110165357589722 -0.369637012481689453
3.01208400726318359 1.30560410022735596 -0.0601547509431838989
3.20793414115905762 -4.60722446441650391 -0.346659570932388306
-0.994484305381774902 -2.68462705612182617 -0.019273197278380394
0.380996108055114746 -1.026938796043396 0.253760099411010742
-0.575792610645294189 -3.05084681510925293 -0.00154641270637512207
-0.022197335958480835 1.34288477897644043 0.400193780660629272
0.524810492992401123 -1.31415474414825439 0.871350646018981934
1.03916561603546143 -0.356300801038742065 0.230649903416633606
3.91812586784362793 -3.79287219047546387 1.17259001731872559
-0.24409995973110199 -1.31072103977203369 1.15805411338806152
3.97152495384216309 -3.30428957939147949 0.103266790509223938
-0.590284109115600586 2.77393317222595215 -0.0246649011969566345
2.95179176330566406 -4.62897920608520508 0.763677895069122314
-0.363807260990142822 3.2405388355255127 0.320034682750701904
-0.133911445736885071 -1.09713828563690186 -0.0716220736503601074
-0.386568069458007812 -0.707647383213043213 -0.0858315080404281616
-2.69068527221679688 1.77660739421844482 -0.0858809277415275574
1.50585258007049561 -0.162181466817855835 -0.152797877788543701
-0.186326473951339722 -1.52664649486541748 -0.0764507502317428589
3.16764402389526367 -4.31728410720825195 0.996304512023925781
0.863922119140625 -0.983033835887908936 0.139251440763473511
2.29737615585327148 1.69733130931854248 0.718921780586242676
-0.114447131752967834 3.02396130561828613 0.322508096694946289
1.00627350807189941 -1.19945812225341797 -0.0895631164312362671
-0.763790369033813477 -0.859507203102111816 -0.0330512039363384247
3.92130017280578613 -3.70355057716369629 0.410909712314605713
-1.4832761287689209 -2.99102950096130371 0.296317696571350098
3.86976933479309082 -3.28137445449829102 0.816709518432617188
-2.19491243362426758 0.57884061336517334 -0.110083281993865967
0.8837394118309021 0.305029064416885376 0.264981567859649658
2.43657779693603516 1.85235035419464111 0.459396719932556152
0.935303986072540283 -1.33231055736541748 0.450425595045089722
1.1013948917388916 0.24086424708366394 -0.102831050753593445
-1.06377494335174561 -3.12593555450439453 0.00900791026651859283
4.07423591613769531 -3.82278990745544434 0.089024662971496582
0.565085947513580322 -1.3655092716217041 -0.0917784124612808228
4.5417017936706543 -3.92567276954650879 -0.0900518298149108887
2.0677034854888916 2.21386814117431641 0.0360252335667610168
1.1886143684387207 0.0826489627361297607 0.456793129444122314
0.539011299610137939 -0.757541775703430176 -0.158709481358528137
3.23209333419799805 -4.52828693389892578 0.598029017448425293
-0.46695902943611145 -1.38043582439422607 -0.0774026960134506226
-0.844955325126647949 3.1070406436920166 0.0564426779747009277
4.53482723236083984 -3.95997714996337891 0.301111042499542236
-3.12891244888305664 1.72284340858459473 0.70110774040222168
-0.801098763942718506 -1.81914424896240234 -0.0421932674944400787
-1.27995097637176514 0.487588047981262207 0.171270623803138733
-0.340497076511383057 3.3633575439453125 0.0422897934913635254
2.29566264152526855 -2.11095404624938965 0.0557451285421848297
1.43015515804290771 -2.11540603637695312 0.206087559461593628
-0.438967287540435791 1.41317129135131836 0.401504456996917725
2.20062565803527832 -2.5965576171875 -0.00893913395702838898
-0.289125382900238037 0.895574986934661865 0.121022053062915802
2.58617901802062988 1.74476528167724609 0.200670063495635986
1.095755934715271 -0.0241484493017196655 0.0624884366989135742
-3.15493392944335938 1.25243854522705078 0.573644578456878662
1.68780624866485596 -0.332676231861114502 0.62900853157043457
-1.0135185718536377 -1.41991066932678223 0.625993549823760986
-0.312917917966842651 -1.31168246269226074 0.521775960922241211
-3.03506040573120117 1.03353762626647949 -0.0707736238837242126
4.57510185241699219 -3.25607705116271973 -0.0693058967590332031
1.01212990283966064 0.302480578422546387 0.684432387351989746
2.48613977432250977 1.35386848449707031 0.256453752517700195
2.98153424263000488 -4.36551809310913086 0.546718299388885498
3.06713128089904785 1.75939023494720459 0.299036890268325806
0.325342893600463867 -0.971940457820892334 -0.10348944365978241
3.89006614685058594 -3.60676717758178711 0.770200490951538086
-1.27761602401733398 0.101756729185581207 -0.0922974869608879089
-0.394541442394256592 2.99471521377563477 0.0276149585843086243
-3.16046237945556641 0.740666627883911133 0.674866199493408203
-0.204629242420196533 -2.68067002296447754 -0.00664855539798736572
2.05342197418212891 2.49486112594604492 0.0649322867393493652
-0.320645689964294434 1.2520439624786377 0.0795712918043136597
1.26286149024963379 -0.339203596115112305 0.626300573348999023
4.44204950332641602 -3.53769922256469727 0.363708972930908203
4.18379831314086914 -3.28356623649597168 0.319436579942703247
0.805037379264831543 -0.816446781158447266 -0.101909048855304718
-0.890071570873260498 -0.524706363677978516 0.233539760112762451
-1.26746916770935059 -3.42557382583618164 -0.0148309739306569099
1.01095032691955566 -0.23969559371471405 0.673374712467193604
0.712216019630432129 -1.24803400039672852 0.110283836722373962
-0.765948951244354248 -1.31263244152069092 -0.0639520660042762756
0.535737752914428711 3.13449931144714355 0.037698790431022644
-3.15904760360717773 1.74035298824310303 0.306274294853210449
3.1167600154876709 2.03905153274536133 -0.0523655712604522705
1.43090188503265381 2.37629413604736328 0.268724620342254639
0.696835756301879883 -1.04324090480804443 0.859665989875793457
1.46716368198394775 1.13222813606262207 0.252051383256912231
1.34604334831237793 0.616510927677154541 0.251582801342010498
1.33628654479980469 -2.65748858451843262 0.217228621244430542
1.03540420532226562 -1.65978837013244629 0.181743025779724121
0.134820818901062012 3.35408711433410645 0.0252523310482501984
0.865122318267822266 0.740354716777801514 0.946046113967895508
-1.21098518371582031 -3.33665108680725098 0.230545058846473694
-0.0355590283870697021 -2.90965652465820312 0.130042210221290588
1.55291235446929932 -2.44131135940551758 0.122871659696102142
-0.807859897613525391 -2.93194246292114258 -0.0121069625020027161
3.01635932922363281 -4.8942866325378418 0.567898988723754883
1.94518876075744629 -3.04612541198730469 0.0832151025533676147
-0.0833031684160232544 1.14618265628814697 0.0810779482126235962
2.96099734306335449 -4.37535715103149414 0.819080948829650879
0.782281041145324707 -1.2953040599822998 0.845737814903259277
0.359619379043579102 2.87468504905700684 -0.0337203368544578552
1.44975650310516357 0.361991405487060547 0.256041824817657471
-2.72842574119567871 0.619428873062133789 -0.0882645398378372192
0.822297811508178711 1.04235899448394775 -0.0661862939596176147
-0.588464975357055664 -2.95949149131774902 0.23780900239944458
0.135516896843910217 1.50352168083190918 0.279628574848175049
-0.969549834728240967 -0.80740964412689209 0.589217603206634521
1.12436223030090332 -1.30883264541625977 0.160694733262062073
-1.36455714702606201 -3.15487957000732422 0.0137220583856105804
-0.764239668846130371 -1.56966161727905273 -0.0607085339725017548
1.4061119556427002 -1.68583643436431885 0.203848719596862793
2.2794945240020752 1.49247550964355469 0.946378171443939209
-0.507946252822875977 -2.80870652198791504 0.00498598441481590271
0.17310565710067749 1.18888437747955322 0.155624121427536011
