ply
format ascii 1.0
element vertex 137
comment vertices
property float x
property float y
property float z
end_header
-3.82005572319030762 -3.99474000930786133 0.118715599179267883
0.378221273422241211 -5.49991464614868164 0.091478399932384491
3.88779687881469727 -3.74480175971984863 0.656629323959350586
-1.2404099702835083 -0.324789971113204956 0.712762773036956787
-3.16918444633483887 -1.77715229988098145 -0.0812234878540039062
0.192509710788726807 1.35688614845275879 0.541932463645935059
0.747801542282104492 -1.0909188985824585 0.511061906814575195
-0.829515755176544189 -0.802865266799926758 0.370930194854736328
-2.18103861808776855 -2.14581918716430664 0.854978024959564209
3.93572998046875 -3.71811175346374512 0.485709220170974731
0.197453796863555908 -5.23884391784667969 0.00951161235570907593
0.715568482875823975 1.71993029117584229 0.0437588989734649658
0.986608922481536865 -3.00547909736633301 0.112419791519641876
0.734992146492004395 -1.18271780014038086 0.295897692441940308
-2.19859027862548828 -2.25181484222412109 0.327408134937286377
-3.27197790145874023 -3.94692254066467285 0.0461171045899391174
1.45159423351287842 -0.81623375415802002 0.118897028267383575
2.65197420120239258 -2.44330430030822754 0.00261992216110229492
1.07570850849151611 -0.621330380439758301 0.14397132396697998
-3.74313211441040039 -3.69217181205749512 0.189296886324882507
1.88062310218811035 -1.88633418083190918 0.199939519166946411
-0.885491490364074707 -1.02688837051391602 0.289005309343338013
-2.55063724517822266 -1.630942702293396 0.163434416055679321
-0.687461972236633301 -3.0852510929107666 0.0894538313150405884
1.16204595565795898 0.569067955017089844 0.158748865127563477
1.10148906707763672 0.55442500114440918 0.161140352487564087
-0.745899438858032227 -0.756724834442138672 0.517467677593231201
0.921156823635101318 -0.97269141674041748 0.350338727235794067
3.87790656089782715 -3.83449053764343262 0.45746275782585144
2.72060155868530273 -1.689849853515625 0.422695934772491455
-2.07816720008850098 -2.5124213695526123 0.0562554448843002319
0.177434414625167847 1.59072816371917725 0.171259105205535889
0.570808768272399902 1.08303618431091309 0.0678765475749969482
-0.789508342742919922 -2.97836899757385254 0.150991275906562805
0.1335611492395401 1.34282422065734863 0.489427089691162109
1.16790378093719482 -1.28290867805480957 0.128969490528106689
-1.26859712600708008 -0.32314145565032959 0.402240931987762451
1.9789578914642334 -2.44152402877807617 0.404644191265106201
-2.16823983192443848 -2.1662602424621582 0.501720666885375977
-1.05036723613739014 -0.829272449016571045 0.379291921854019165
0.493118137121200562 -5.36707973480224609 0.100777894258499146
1.46653187274932861 0.562516510486602783 0.00570288300514221191
2.12475919723510742 -2.24958610534667969 0.191699236631393433
2.60104012489318848 -1.6818007230758667 0.380105882883071899
-3.58706045150756836 -4.12720966339111328 0.141537189483642578
2.14320158958435059 -2.38761997222900391 0.0129976570606231689
1.32798957824707031 -0.595778524875640869 0.170802786946296692
0.845511555671691895 -0.746055841445922852 0.250266581773757935
1.14492833614349365 -0.671596109867095947 0.167870223522186279
2.44859600067138672 -2.06821966171264648 0.14403080940246582
0.810795247554779053 -1.09165871143341064 0.527505993843078613
0.242749959230422974 1.32182800769805908 0.182601332664489746
0.181894630193710327 -5.40261173248291016 0.0154087245464324951
-1.93378448486328125 -2.28730058670043945 0.138125985860824585
1.15426123142242432 -0.806429147720336914 0.157515853643417358
1.02310371398925781 -2.91120219230651855 0.0876947492361068726
-0.933823227882385254 -0.930890679359436035 0.43317076563835144
1.28490841388702393 0.464930266141891479 0.175939112901687622
0.576273679733276367 1.51184403896331787 0.429558157920837402
0.168573632836341858 1.30712568759918213 0.470047235488891602
-2.07504391670227051 -2.30182909965515137 0.0613872967660427094
-3.72849917411804199 -4.01770925521850586 0.0686304420232772827
2.86688780784606934 -1.66372644901275635 0.505320131778717041
-2.95436668395996094 -1.62478911876678467 0.0556008815765380859
0.679972410202026367 -0.991815507411956787 0.373038172721862793
0.425791263580322266 1.51049137115478516 0.192041859030723572
-2.49179720878601074 -1.73633372783660889 0.215065985918045044
-3.58280754089355469 -4.09984970092773438 0.16013866662979126
-2.50680899620056152 -1.8744966983795166 0.339563697576522827
-1.25892496109008789 -0.4027118980884552 0.259881794452667236
-0.717741549015045166 -3.00743627548217773 0.132208555936813354
0.423859357833862305 -5.4486384391784668 0.121628046035766602
2.59455037117004395 -1.62616252899169922 0.233494758605957031
0.994407117366790771 -1.14040207862854004 0.428027212619781494
-1.28910553455352783 -0.435687452554702759 0.50066077709197998
1.97718167304992676 -2.36454534530639648 0.135479092597961426
2.10911989212036133 -2.17882800102233887 0.107665613293647766
-0.654338240623474121 -2.90177416801452637 0.170725047588348389
1.04253411293029785 0.605290532112121582 0.156705304980278015
-0.726882398128509521 -2.9778599739074707 0.104920610785484314
0.175586104393005371 1.30764615535736084 0.429919719696044922
-1.28419947624206543 -2.58760571479797363 0.122508823871612549
0.483885765075683594 -5.47347640991210938 0.066341303288936615
2.30746722221374512 -2.19976496696472168 0.104287847876548767
0.872133195400238037 0.741262853145599365 0.151595816016197205
-3.52516746520996094 -4.13311290740966797 0.0884829983115196228
-0.727655887603759766 -2.94385242462158203 0.192757964134216309
1.01402199268341064 -2.95641613006591797 0.134816274046897888
-0.859435677528381348 -0.872387170791625977 0.310178816318511963
-2.40686273574829102 -1.69215977191925049 0.441250443458557129
-0.7706870436668396 -2.92442941665649414 0.147635951638221741
0.410549283027648926 -5.35683774948120117 0.0712552964687347412
1.25679361820220947 0.477008461952209473 0.153318256139755249
0.905581176280975342 -2.86966896057128906 0.158343151211738586
3.86069297790527344 -3.76770210266113281 0.426948845386505127
1.1334843635559082 -0.761421084403991699 0.283161818981170654
0.766640961170196533 -1.03843021392822266 0.413862645626068115
-1.05712056159973145 -0.859574258327484131 0.375502347946166992
-2.51662540435791016 -1.85027492046356201 0.39671403169631958
2.17097616195678711 -2.1395876407623291 0.144241288304328918
0.986109793186187744 -0.738198280334472656 0.189660042524337769
2.24277281761169434 -2.39687776565551758 0.0526688247919082642
-2.58805060386657715 -1.64023220539093018 0.248857468366622925
1.22326934337615967 0.455706387758255005 0.0853802263736724854
2.06071805953979492 -2.27875542640686035 0.261164367198944092
-2.16649484634399414 -2.13744282722473145 0.396154016256332397
2.03917598724365234 -2.20909619331359863 0.262726306915283203
-2.33961391448974609 -1.66749382019042969 0.164329558610916138
-2.52539777755737305 -1.75074958801269531 0.446614265441894531
0.761154055595397949 -1.02755534648895264 0.382622778415679932
0.80824047327041626 -0.932640612125396729 0.352978348731994629
0.237478539347648621 1.30212008953094482 0.497330665588378906
-0.810379087924957275 -0.601777315139770508 0.493403196334838867
0.267333805561065674 -5.35535860061645508 0.111874952912330627
0.283572643995285034 -5.39561176300048828 0.0574929118156433105
0.298853218555450439 -5.47772789001464844 0.107289798557758331
1.22068178653717041 -0.737330138683319092 0.129809156060218811
-1.30320048332214355 -0.369426161050796509 0.329165041446685791
0.820144534111022949 -2.5803377628326416 0.220268085598945618
-1.26090812683105469 -0.413730889558792114 0.585059762001037598
2.55553698539733887 -2.55870699882507324 -0.0987696796655654907
-2.05691838264465332 -2.22107529640197754 0.216526597738265991
2.03890562057495117 -2.00159835815429688 0.1724739670753479
0.392412006855010986 1.28459262847900391 0.465923130512237549
1.26344704627990723 -0.680706381797790527 0.17204834520816803
0.472948998212814331 1.46854090690612793 0.242331147193908691
3.9032280445098877 -3.74797749519348145 0.488450348377227783
0.977771639823913574 -2.9273531436920166 0.12455904483795166
-0.734618961811065674 -0.60760653018951416 0.359496235847473145
-2.0081019401550293 -2.30388307571411133 -0.0120886750519275665
1.64900648593902588 -2.59975838661193848 0.133338883519172668
2.16101646423339844 -2.11352825164794922 0.0887595713138580322
1.00137448310852051 -2.97106623649597168 0.140405654907226562
-2.48137617111206055 -1.72416424751281738 0.403221845626831055
0.242796421051025391 1.48629355430603027 0.367670953273773193
0.232508599758148193 -5.18182611465454102 0.0232821851968765259
0.541465818881988525 1.11302554607391357 0.2922343909740448
