ply
format ascii 1.0
element vertex 33
comment vertices
property float x
property float y
property float z
end_header
-1.44923150539398193 5.37666130065917969 0.209170699119567871
0.777036845684051514 1.08489465713500977 0.382682770490646362
-0.231869488954544067 3.12409710884094238 0.0769780874252319336
-0.912474632263183594 -1.02960038185119629 0.111080661416053772
-0.644855499267578125 1.16854977607727051 0.324679017066955566
0.468555033206939697 -1.23454558849334717 0.330991178750991821
0.239341631531715393 1.3049013614654541 0.409406721591949463
-1.93606936931610107 -2.33281207084655762 0.155777111649513245
-1.50236046314239502 -2.70237994194030762 0.161668851971626282
-1.57533049583435059 -2.69568204879760742 0.166708946228027344
0.400369852781295776 1.31283366680145264 0.308847367763519287
1.23760902881622314 0.541550099849700928 0.401135444641113281
-2.3309624195098877 2.14251184463500977 0.166733011603355408
-0.903217196464538574 -1.06065738201141357 0.196440353989601135
-2.9601140022277832 0.88561016321182251 0.483807116746902466
-0.176936686038970947 3.15892696380615234 0.13913494348526001
0.804893732070922852 1.06559348106384277 0.324600338935852051
-1.12770378589630127 0.631288707256317139 0.052592497318983078
1.26568162441253662 0.577471435070037842 0.44242018461227417
-1.77167630195617676 2.5943911075592041 0.589860796928405762
0.167047470808029175 1.36455023288726807 0.310325413942337036
-0.654940426349639893 1.14515197277069092 0.320740550756454468
-1.76234638690948486 2.59382128715515137 0.528615176677703857
0.45515286922454834 -1.22578942775726318 0.28924936056137085
-1.32642877101898193 5.27433919906616211 0.216149479150772095
-1.91567456722259521 -2.52071166038513184 0.166002750396728516
0.725271284580230713 1.03881716728210449 0.385934323072433472
-0.882080912590026855 -1.07060253620147705 0.126367196440696716
-1.14236545562744141 0.645818412303924561 0.139259487390518188
-2.98887896537780762 0.873261213302612305 0.509353458881378174
-2.33961009979248047 2.03331422805786133 0.153210669755935669
1.26481449604034424 0.476170092821121216 0.417455047369003296
-0.885282576084136963 -0.994632422924041748 0.102850332856178284
