ply
format ascii 1.0
element vertex 42
comment vertices
property float x
property float y
property float z
end_header
-1.17735171318054199 0.476475805044174194 0.345962285995483398
0.140107765793800354 -1.35725879669189453 0.506689190864562988
-0.888361930847167969 -0.851957440376281738 0.164655834436416626
-1.61587071418762207 2.66644191741943359 0.126263320446014404
-1.25723063945770264 0.0216546617448329926 0.167247608304023743
-1.10668957233428955 -2.89167881011962891 0.272956281900405884
0.0245264172554016113 1.34237349033355713 0.449961423873901367
-1.89012134075164795 -2.50318479537963867 0.289902001619338989
1.84207808971405029 2.55092835426330566 0.160524576902389526
1.00215590000152588 -0.8080788254737854 0.557101666927337646
-2.81462264060974121 1.20380032062530518 0.143857330083847046
1.80075418949127197 -2.4672236442565918 0.391375213861465454
0.760953009128570557 1.07244634628295898 0.427398234605789185
2.83449053764343262 -1.22306680679321289 0.171114161610603333
-0.944755733013153076 0.952515780925750732 0.178515627980232239
-1.31049978733062744 -0.0164038538932800293 0.120997458696365356
0.203513488173484802 -1.32235133647918701 0.418860852718353271
-2.1431586742401123 -2.17357683181762695 0.18048955500125885
2.85541939735412598 -1.22542393207550049 0.207083418965339661
-1.87780499458312988 -2.42847156524658203 0.256297051906585693
0.988159358501434326 -0.818461596965789795 0.452057898044586182
-0.936781048774719238 -0.921395242214202881 0.131365448236465454
-2.89033603668212891 1.17892670631408691 0.130032941699028015
0.00656676292419433594 1.33159196376800537 0.449243098497390747
1.81589484214782715 2.54042601585388184 0.109651312232017517
-1.56788110733032227 2.6724693775177002 0.113477937877178192
-1.02675437927246094 0.626466214656829834 0.292704224586486816
-1.92065834999084473 -2.43044614791870117 0.280096650123596191
0.0103473886847496033 1.35151028633117676 0.43993222713470459
1.72808301448822021 2.56245732307434082 0.187959760427474976
2.80141663551330566 -1.15766799449920654 0.148700088262557983
-0.962678074836730957 0.814095377922058105 0.308342784643173218
1.01908421516418457 -0.845537900924682617 0.480064898729324341
-0.976563751697540283 -0.881938576698303223 0.145787715911865234
-1.55458724498748779 2.70391559600830078 0.154199331998825073
-2.23905062675476074 -2.0769803524017334 0.16689734160900116
-2.06040787696838379 -2.30523991584777832 0.209050074219703674
0.708654701709747314 1.10423660278320312 0.385267972946166992
-2.81919741630554199 1.18444204330444336 0.122554421424865723
0.763013660907745361 1.09580326080322266 0.453970372676849365
-2.22828841209411621 -2.09318327903747559 0.157134875655174255
1.78206217288970947 -2.45920896530151367 0.401391446590423584
