ply
format ascii 1.0
element vertex 144
comment vertices
property float x
property float y
property float z
end_header
-1.44923150539398193 5.37666130065917969 0.209170699119567871
1.73985028266906738 0.969535887241363525 0.0564137101173400879
-0.253042399883270264 3.00065827369689941 0.328469902276992798
-1.04679858684539795 -0.55757749080657959 0.161720290780067444
0.756243467330932617 -1.43799400329589844 0.196635156869888306
0.801659762859344482 1.11721312999725342 0.688837587833404541
-1.81994330883026123 3.0947420597076416 0.143825024366378784
-2.21964740753173828 -2.24886274337768555 0.0806109309196472168
0.317144304513931274 3.53183913230895996 0.0983203649520874023
-1.76144123077392578 1.68934381008148193 -0.0903574079275131226
-0.633066415786743164 1.19491422176361084 0.542267262935638428
-2.41010808944702148 2.11727023124694824 0.210588753223419189
-0.564342141151428223 5.27892494201660156 0.398702263832092285
0.350771546363830566 -1.27371978759765625 0.157472133636474609
-2.6068580150604248 0.633759558200836182 0.135709762573242188
0.214639589190483093 2.82958841323852539 -0.00333828479051589966
-0.274748623371124268 3.32592248916625977 0.275151073932647705
-1.68505263328552246 2.6818392276763916 0.543669641017913818
-1.25859439373016357 0.596932291984558105 0.103613406419754028
-2.98917412757873535 0.750558614730834961 0.525054275989532471
0.96726679801940918 0.914251089096069336 0.255419820547103882
1.69371283054351807 0.203659772872924805 -0.0406881868839263916
-1.08727109432220459 -0.835534572601318359 0.128410428762435913
0.777036845684051514 1.08489465713500977 0.382682770490646362
-1.62106823921203613 2.3927919864654541 0.232708409428596497
-0.231869488954544067 3.12409710884094238 0.0769780874252319336
0.499874353408813477 -1.6667402982711792 -0.0458382368087768555
-2.94635772705078125 1.31412124633789062 0.199806302785873413
0.224186256527900696 1.30108678340911865 0.534960806369781494
-2.43587970733642578 2.35765695571899414 0.0176567770540714264
0.904321193695068359 -0.531045079231262207 0.0117091238498687744
0.447240084409713745 -1.47872185707092285 0.309758007526397705
-2.401031494140625 2.18456125259399414 0.184413671493530273
-0.912474632263183594 -1.02960038185119629 0.111080661416053772
-2.0477137565612793 -2.12962675094604492 0.163076251745223999
-2.76054811477661133 0.591304421424865723 0.293733894824981689
-1.93170714378356934 2.84966421127319336 0.406487405300140381
-0.644855499267578125 1.16854977607727051 0.324679017066955566
0.468555033206939697 -1.23454558849334717 0.330991178750991821
1.18124115467071533 0.472870141267776489 0.290434688329696655
0.239341631531715393 1.3049013614654541 0.409406721591949463
-1.50629746913909912 3.07572627067565918 0.273200958967208862
-0.1655750572681427 -1.08078718185424805 0.209393590688705444
-1.36942076683044434 -2.51276063919067383 0.146592229604721069
-1.29431295394897461 1.00068652629852295 0.069179832935333252
-1.93606936931610107 -2.33281207084655762 0.155777111649513245
-3.03782153129577637 1.265228271484375 0.37269929051399231
-1.02196884155273438 0.676606595516204834 0.164855509996414185
0.568981170654296875 -1.06286251544952393 0.240680307149887085
-1.20527815818786621 -0.789567470550537109 0.107549220323562622
-0.234310626983642578 3.12744450569152832 0.272526264190673828
-2.95408892631530762 0.576244711875915527 0.2169761061668396
-0.223990246653556824 2.93467521667480469 0.105165310204029083
0.903971195220947266 -1.81801426410675049 -0.200538754463195801
-1.23601484298706055 5.26691436767578125 0.213553890585899353
-1.45229589939117432 2.14870095252990723 0.393108904361724854
-1.86807346343994141 -2.63050270080566406 0.098371654748916626
-2.28307962417602539 1.90265440940856934 0.0436834096908569336
1.26080143451690674 0.462148815393447876 0.554679691791534424
-1.50236046314239502 -2.70237994194030762 0.161668851971626282
-2.5317234992980957 1.72969067096710205 0.287687897682189941
0.74141228199005127 -1.61406350135803223 0.225242435932159424
-1.57533049583435059 -2.69568204879760742 0.166708946228027344
-1.77770757675170898 2.62622880935668945 0.367544293403625488
-0.0891517773270606995 2.9551851749420166 0.11153295636177063
0.435675770044326782 1.32661867141723633 0.253425478935241699
0.84183204174041748 0.962758421897888184 0.331239640712738037
0.400369852781295776 1.31283366680145264 0.308847367763519287
1.23760902881622314 0.541550099849700928 0.401135444641113281
0.465755701065063477 1.26964569091796875 0.5749320387840271
1.58446645736694336 0.330759197473526001 0.329912245273590088
-2.26777935028076172 -2.37244796752929688 0.204016745090484619
-1.2675778865814209 -2.73282575607299805 0.25593268871307373
-3.0445556640625 0.746795535087585449 0.445374041795730591
0.78839266300201416 -0.676882624626159668 0.326709151268005371
0.310852617025375366 -1.16579532623291016 0.199472025036811829
-2.99088692665100098 0.809727072715759277 0.434834182262420654
-2.3309624195098877 2.14251184463500977 0.166733011603355408
-0.903217196464538574 -1.06065738201141357 0.196440353989601135
1.49425554275512695 0.664168059825897217 0.448116183280944824
-2.9601140022277832 0.88561016321182251 0.483807116746902466
-0.176936686038970947 3.15892696380615234 0.13913494348526001
-2.06981801986694336 2.01291203498840332 0.231411054730415344
0.320424765348434448 -1.42152881622314453 0.278455495834350586
-1.61852765083312988 2.78902697563171387 0.131003528833389282
-3.03087067604064941 1.03674149513244629 0.480676472187042236
-2.67061352729797363 1.35831642150878906 0.0998685657978057861
-2.42066717147827148 2.2866063117980957 0.124455317854881287
-0.998583555221557617 5.31766939163208008 0.363536655902862549
0.804893732070922852 1.06559348106384277 0.324600338935852051
-1.12770378589630127 0.631288707256317139 0.052592497318983078
-2.31339097023010254 2.09037017822265625 0.120263218879699707
-2.4443662166595459 1.73862874507904053 0.204752877354621887
1.26568162441253662 0.577471435070037842 0.44242018461227417
-1.77167630195617676 2.5943911075592041 0.589860796928405762
0.167047470808029175 1.36455023288726807 0.310325413942337036
-0.654940426349639893 1.14515197277069092 0.320740550756454468
-1.15179562568664551 0.750207066535949707 0.0940595120191574097
1.05770814418792725 0.402564167976379395 0.0382418632507324219
-1.76234638690948486 2.59382128715515137 0.528615176677703857
-1.89386665821075439 3.12492656707763672 0.209524095058441162
0.45515286922454834 -1.22578942775726318 0.28924936056137085
0.0373178422451019287 3.24445080757141113 0.133087009191513062
-1.05047440528869629 -0.889007031917572021 0.106444269418716431
1.44950270652770996 0.392622262239456177 0.391408354043960571
0.541378021240234375 -0.71882319450378418 0.440188735723495483
-1.32642877101898193 5.27433919906616211 0.216149479150772095
-1.67129945755004883 2.17789316177368164 0.234000280499458313
-1.80900907516479492 2.5307457447052002 0.547494232654571533
0.0553626418113708496 2.92724084854125977 0.0598118267953395844
-1.46410953998565674 3.01897549629211426 0.335398674011230469
1.0905148983001709 0.835669577121734619 0.34682232141494751
-1.29995012283325195 0.797290325164794922 0.0597173422574996948
-1.91567456722259521 -2.52071166038513184 0.166002750396728516
0.725271284580230713 1.03881716728210449 0.385934323072433472
-1.44930195808410645 -2.76700735092163086 0.176778972148895264
-0.882080912590026855 -1.07060253620147705 0.126367196440696716
-0.635225117206573486 1.21082806587219238 0.443836629390716553
-3.13621377944946289 1.46547508239746094 0.201948389410972595
-1.14236545562744141 0.645818412303924561 0.139259487390518188
0.623525619506835938 -1.34765386581420898 0.318666696548461914
0.484677731990814209 -1.62361538410186768 0.231641486287117004
-1.60661053657531738 2.34668827056884766 0.51583939790725708
-2.61694478988647461 1.72819662094116211 0.325450778007507324
-2.68404650688171387 0.563412666320800781 0.270316660404205322
0.213666200637817383 1.36633729934692383 0.730348527431488037
-2.15457916259765625 2.31568598747253418 -0.00312709808349609375
-2.17051076889038086 1.94229328632354736 0.0471882075071334839
-0.17177349328994751 3.27649259567260742 0.157940492033958435
-1.60410451889038086 3.0944511890411377 0.108054906129837036
-0.220725774765014648 3.1087043285369873 0.270909875631332397
0.653095602989196777 -0.980301141738891602 0.3410186767578125
-2.98887896537780762 0.873261213302612305 0.509353458881378174
-0.620857179164886475 1.15826570987701416 0.731761038303375244
0.0861469060182571411 -1.07647514343261719 0.416292697191238403
-1.90336096286773682 2.45404863357543945 0.25847470760345459
-1.53750824928283691 3.01114797592163086 0.530864477157592773
0.696015238761901855 -1.12792122364044189 0.175923526287078857
-2.33961009979248047 2.03331422805786133 0.153210669755935669
1.26481449604034424 0.476170092821121216 0.417455047369003296
-2.96785354614257812 0.572241306304931641 0.24111059308052063
-0.885282576084136963 -0.994632422924041748 0.102850332856178284
-1.4424288272857666 0.706714451313018799 0.0652680248022079468
-0.274538248777389526 2.93503522872924805 0.3335379958152771
