ply
format ascii 1.0
element vertex 104
comment vertices
property float x
property float y
property float z
end_header
-0.178655177354812622 -0.905537426471710205 0.300070762634277344
-0.979849815368652344 0.704318463802337646 0.110364563763141632
-1.0153433084487915 1.54474079608917236 -0.0271667502820491791
-0.42852860689163208 -0.659618735313415527 0.255299746990203857
0.0964436233043670654 -0.93185722827911377 0.350723594427108765
-0.120352014899253845 -0.68687593936920166 0.342231959104537964
-0.651889026165008545 0.805587410926818848 -0.00832546502351760864
-0.835733294486999512 0.75045013427734375 0.170083224773406982
-0.175956442952156067 -1.04710686206817627 0.0789857655763626099
-0.302281618118286133 -0.715302228927612305 0.175780579447746277
-0.160401463508605957 -0.850533902645111084 0.195582062005996704
-0.421245813369750977 -0.65774226188659668 0.183102697134017944
-1.23102962970733643 1.59029114246368408 0.156911924481391907
-0.757125258445739746 0.833571076393127441 0.0264747962355613708
-0.721744775772094727 0.699081122875213623 -0.0354941897094249725
-0.672986507415771484 0.779206216335296631 0.0856319740414619446
-0.355176091194152832 -0.806194007396697998 0.291244357824325562
-0.132722556591033936 -1.02017128467559814 0.224308952689170837
-0.136532783508300781 -0.897277355194091797 0.138934046030044556
-0.59509509801864624 0.714997828006744385 0.023952580988407135
-0.760556578636169434 0.686791121959686279 -0.0247493162751197815
-0.0534200370311737061 -0.959060430526733398 0.177184402942657471
-0.339070647954940796 -0.656991660594940186 0.298937410116195679
-0.970612883567810059 1.30107748508453369 0.0454903095960617065
-0.211986064910888672 -0.789630413055419922 0.282913476228713989
-0.101466134190559387 -1.08344781398773193 0.221431344747543335
-0.338869422674179077 -0.822936117649078369 0.259430557489395142
-0.964018821716308594 1.53345620632171631 0.131364107131958008
-0.723814249038696289 0.804401397705078125 0.0159829109907150269
-0.200639992952346802 -1.07302975654602051 0.151860207319259644
-0.288652926683425903 -0.726273238658905029 0.212005212903022766
-0.950527071952819824 0.769284188747406006 0.113023057579994202
0.032963097095489502 -0.819268763065338135 0.411655813455581665
-0.174844488501548767 -0.850059032440185547 0.253448784351348877
-0.297373116016387939 -0.710923433303833008 0.292970627546310425
-0.86319202184677124 0.787147641181945801 0.0697556659579277039
-0.740818142890930176 0.909116625785827637 0.0284714624285697937
-0.317703723907470703 -0.991537868976593018 0.173711568117141724
0.0715372413396835327 -1.04249691963195801 0.176504001021385193
-0.294160336256027222 -0.879162132740020752 0.205255195498466492
-0.269386231899261475 -0.774229884147644043 0.176241382956504822
-0.682073593139648438 0.659943819046020508 0.0273049771785736084
-0.880560338497161865 0.731555700302124023 0.192640006542205811
-1.02942872047424316 1.60393595695495605 0.0483656898140907288
-0.162872195243835449 -0.848452627658843994 0.226199507713317871
-0.702477931976318359 0.743158459663391113 -0.047199934720993042
-0.353301525115966797 -0.686673581600189209 0.281003445386886597
-0.306327581405639648 -0.750080347061157227 0.283139050006866455
-0.104185096919536591 -0.751460134983062744 0.193352729082107544
-0.685573875904083252 0.814318239688873291 0.00688526034355163574
-0.00168182514607906342 -0.883101701736450195 0.196851596236228943
-0.194479048252105713 -0.908060431480407715 0.188936531543731689
-0.33502650260925293 -0.777814209461212158 0.313569903373718262
-0.114180296659469604 -0.939468741416931152 0.111138731241226196
-0.124962791800498962 -0.699347376823425293 0.444261342287063599
-0.131146743893623352 -0.871596932411193848 0.172754496335983276
-0.185614213347434998 -0.881093859672546387 0.243228033185005188
-0.218048349022865295 -0.76848912239074707 0.182281494140625
-0.661283493041992188 0.754015326499938965 -0.0446245856583118439
-0.330060660839080811 -0.832166135311126709 0.190416738390922546
-0.578222572803497314 0.612149417400360107 -0.0389617830514907837
-0.575821459293365479 0.558739006519317627 -0.131135091185569763
-0.809816122055053711 0.668358325958251953 0.0188837945461273193
-0.865890145301818848 0.78206104040145874 0.0867146849632263184
-0.892019271850585938 0.820667803287506104 0.0826021283864974976
-0.224668219685554504 -0.972615718841552734 0.162342697381973267
-0.694215476512908936 0.910725176334381104 0.0249820742756128311
-0.367667108774185181 -0.704850673675537109 0.302490592002868652
-0.420632123947143555 -0.745958328247070312 0.282895714044570923
-1.02000999450683594 1.33204221725463867 0.00493947416543960571
-0.769216001033782959 0.702054262161254883 -0.0141160190105438232
-1.09966659545898438 1.66576504707336426 0.0634222626686096191
0.0566322691738605499 -0.997804164886474609 0.253156840801239014
-0.867287278175354004 0.672098040580749512 0.0324414670467376709
-0.258236974477767944 -0.89557349681854248 0.195909127593040466
-0.313292562961578369 -0.798775732517242432 0.276973962783813477
-0.240250885486602783 -0.749057352542877197 0.210878700017929077
-0.197473272681236267 -0.898990511894226074 0.252616703510284424
-0.936832010746002197 1.60730767250061035 -0.00236906483769416809
-0.133232802152633667 -0.959660112857818604 0.206324547529220581
0.117799028754234314 -0.791895747184753418 0.311211347579956055
-0.831283152103424072 0.860056579113006592 0.10327351838350296
-0.867969274520874023 0.678564608097076416 0.142210483551025391
-0.753693819046020508 0.873132050037384033 0.00349017977714538574
-0.106146536767482758 -1.13213074207305908 0.139290273189544678
-0.614196240901947021 0.765308260917663574 -0.0341230034828186035
-0.247674912214279175 -0.849963784217834473 0.230166167020797729
-0.640653014183044434 0.681370139122009277 0.00707888603210449219
-0.209288761019706726 -0.913614153861999512 0.284607648849487305
-0.714908838272094727 0.80976790189743042 0.00796598196029663086
-0.163424506783485413 -1.03089797496795654 0.176668316125869751
-0.321407496929168701 -0.621432125568389893 0.280398368835449219
0.134237855672836304 -0.94841766357421875 0.275815248489379883
-0.281479001045227051 -0.759257078170776367 0.213886559009552002
-0.117633074522018433 -0.837882757186889648 0.124959938228130341
-0.683767199516296387 0.859331130981445312 -0.00518263876438140869
-0.822883307933807373 0.628665804862976074 -0.0337183624505996704
-0.718582212924957275 0.763091921806335449 -0.0173779800534248352
-0.843617558479309082 0.786131560802459717 0.0693613588809967041
-0.28951948881149292 -0.811671614646911621 0.295535624027252197
-0.292087912559509277 -0.914870798587799072 0.110997729003429413
-0.845544159412384033 0.914672970771789551 0.093814261257648468
-0.532058060169219971 0.674267292022705078 -0.0390949919819831848
-0.188112333416938782 -0.877566337585449219 0.249136984348297119
