ply
format ascii 1.0
element vertex 64
comment vertices
property float x
property float y
property float z
end_header
-0.62948840856552124 0.886385917663574219 0.314018934965133667
-0.99364173412322998 -1.67595076560974121 0.2873954176902771
0.285791695117950439 -0.956210076808929443 0.0754254311323165894
-1.92051124572753906 -0.665165305137634277 0.239836543798446655
0.357948243618011475 0.975783169269561768 0.0985677987337112427
-1.31227231025695801 1.49672996997833252 0.0661215260624885559
-0.660877704620361328 -0.781351923942565918 0.131341129541397095
-1.06815147399902344 -1.73427832126617432 0.128135830163955688
-1.01983654499053955 0.05367283895611763 0.0674597173929214478
0.344899952411651611 0.892788052558898926 0.141184955835342407
-0.537004232406616211 0.752074182033538818 0.418649435043334961
-1.8081125020980835 -0.674022972583770752 0.38183218240737915
0.0237489417195320129 -0.901944637298583984 0.102142065763473511
-1.27903640270233154 1.58434200286865234 0.0756035968661308289
0.365981429815292358 0.900030195713043213 0.115726269781589508
-1.28071117401123047 1.56412148475646973 0.0654361322522163391
-1.04890334606170654 0.0335511714220046997 0.120767772197723389
0.357192575931549072 0.950768589973449707 0.13408622145652771
-0.617637276649475098 0.79655921459197998 0.317164570093154907
-1.03209877014160156 0.0389966666698455811 0.0866117700934410095
0.282378017902374268 -0.982615828514099121 0.0587326660752296448
0.268234729766845703 -0.885249853134155273 0.0731256753206253052
-0.606995046138763428 -0.769488930702209473 0.124301634728908539
-0.998190402984619141 -1.64686322212219238 0.075177609920501709
-1.87991666793823242 -0.691242098808288574 0.422304838895797729
-0.610111534595489502 0.8245125412940979 0.318152129650115967
0.331893086433410645 0.940320849418640137 0.106360979378223419
-0.607714831829071045 0.754423260688781738 0.29868704080581665
-1.89544034004211426 -0.655495405197143555 0.334220260381698608
-0.734749138355255127 -0.786977410316467285 0.0861526280641555786
-0.636491179466247559 -0.758149504661560059 0.114063769578933716
-1.28641951084136963 1.59375977516174316 0.0784978196024894714
-0.611573100090026855 0.780462980270385742 0.326015830039978027
-0.652533173561096191 0.832978785037994385 0.257324934005737305
-1.00792336463928223 0.104660704731941223 0.0919403061270713806
-2.07242155075073242 -0.602275252342224121 0.173437550663948059
0.250802189111709595 -0.93404775857925415 0.123252548277378082
0.340872585773468018 0.977275669574737549 0.0984232053160667419
-1.27134919166564941 1.60832071304321289 0.0475341528654098511
-0.570891916751861572 0.750058412551879883 0.37433663010597229
0.379213869571685791 0.943715214729309082 0.112948395311832428
0.324990808963775635 0.927534043788909912 0.161046683788299561
-0.742780685424804688 -0.788451015949249268 0.0921349599957466125
-1.0441049337387085 -1.6223987340927124 0.124169245362281799
0.34769892692565918 0.874856710433959961 0.132418543100357056
-1.01243209838867188 0.0510087385773658752 0.0991379618644714355
-0.544021964073181152 0.811203062534332275 0.440453886985778809
-0.626844108104705811 -0.783382773399353027 0.117422595620155334
-0.651891469955444336 -0.760713517665863037 0.0974137559533119202
-0.665877401828765869 0.825689554214477539 0.369211822748184204
-0.608433246612548828 0.821358680725097656 0.318532079458236694
-0.723487257957458496 -0.802622318267822266 0.0978138819336891174
-1.79810738563537598 -0.642838776111602783 0.323718428611755371
0.358589351177215576 0.954319775104522705 0.110427796840667725
-1.88666689395904541 -0.591082930564880371 0.353668928146362305
-0.599971473217010498 0.808533906936645508 0.289192944765090942
-0.461252748966217041 -0.77762758731842041 0.144814819097518921
-0.615289986133575439 0.823267877101898193 0.310830831527709961
0.356760531663894653 0.90872347354888916 0.109570063650608063
-1.2954479455947876 1.58527731895446777 0.105781972408294678
0.327270209789276123 0.931740462779998779 0.150936484336853027
-1.00174868106842041 -1.66294777393341064 0.167310893535614014
0.32765612006187439 0.930589437484741211 0.142873659729957581
-1.90237057209014893 -0.649807989597320557 0.345285981893539429
