ply
format ascii 1.0
element vertex 64
comment vertices
property float x
property float y
property float z
end_header
-0.865249216556549072 -0.506437122821807861 0.188675746321678162
0.797105550765991211 -1.85726499557495117 0.314269512891769409
-1.51049423217773438 1.33016228675842285 0.139264911413192749
-0.267835825681686401 0.950698256492614746 0.0706534832715988159
0.786154389381408691 -0.605371832847595215 0.372312664985656738
-1.72876453399658203 -0.996425092220306396 0.355879157781600952
0.260131180286407471 -0.953844964504241943 0.118878334760665894
-0.270972192287445068 -0.942300796508789062 0.398141026496887207
-1.73479652404785156 -1.00027072429656982 0.400990486145019531
0.781970381736755371 -1.67518770694732666 0.339954882860183716
-1.55065822601318359 1.18187606334686279 0.122212678194046021
-0.281717211008071899 0.97776418924331665 0.149194821715354919
0.712427794933319092 -0.702655315399169922 0.387014895677566528
0.441836923360824585 -0.873543322086334229 0.260581910610198975
-1.50269293785095215 1.27388405799865723 0.12085394561290741
0.772216677665710449 -1.80169439315795898 0.275786042213439941
-0.338408112525939941 -0.968246340751647949 0.458179086446762085
-1.7387702465057373 -0.953683972358703613 0.321171998977661133
0.791153490543365479 -1.95366358757019043 0.30021551251411438
-0.278385311365127563 0.986630439758300781 0.127332180738449097
-1.55948162078857422 1.28889524936676025 0.130453705787658691
-0.959414541721343994 -0.428211092948913574 0.3243580162525177
0.74577176570892334 -0.641409635543823242 0.404890656471252441
0.784244000911712646 -0.686379551887512207 0.416610091924667358
0.766142845153808594 -0.675838053226470947 0.332300454378128052
-1.72474455833435059 -0.973925352096557617 0.379405468702316284
-0.801813721656799316 -0.409120678901672363 0.101645052433013916
-1.52907395362854004 1.34931933879852295 0.0805584713816642761
0.816332578659057617 -1.79141879081726074 0.287799596786499023
-1.51819348335266113 1.26936495304107666 0.098641514778137207
-1.75113701820373535 -0.978459835052490234 0.35800740122795105
-1.73607480525970459 -0.983276963233947754 0.329016238451004028
-0.302752643823623657 0.95597541332244873 0.1295490562915802
0.792217493057250977 -1.6981816291809082 0.318500995635986328
0.279090195894241333 -0.975892305374145508 0.134301275014877319
0.373382389545440674 -0.883871674537658691 0.243552863597869873
0.788633167743682861 -0.689660906791687012 0.415922343730926514
0.767472565174102783 -1.90516901016235352 0.289207637310028076
0.764735043048858643 -0.671784758567810059 0.358051657676696777
-1.70378422737121582 -0.970278382301330566 0.378211855888366699
-0.191340267658233643 -0.965693235397338867 0.397349625825881958
-1.69925796985626221 -0.931498527526855469 0.325478672981262207
0.786664128303527832 -1.79514074325561523 0.291113078594207764
0.779010534286499023 -1.90082979202270508 0.301274955272674561
-1.4997481107711792 1.20812559127807617 0.146309703588485718
-1.51829886436462402 1.31785464286804199 0.129663154482841492
-0.30291450023651123 -0.880652070045471191 0.327778846025466919
-1.7263028621673584 -0.999512255191802979 0.398365646600723267
0.54943162202835083 -0.826901078224182129 0.322418034076690674
0.763801276683807373 -0.636834263801574707 0.391956090927124023
0.258012294769287109 -0.936689019203186035 0.102615222334861755
0.797114372253417969 -0.658038139343261719 0.357677191495895386
0.680989980697631836 -0.705234169960021973 0.299794554710388184
-0.90547645092010498 -0.470105141401290894 0.266478657722473145
0.78549569845199585 -1.81162011623382568 0.257576018571853638
-0.281107157468795776 0.934993982315063477 0.179297700524330139
-1.49500727653503418 1.36036455631256104 0.13405570387840271
-0.288625240325927734 0.970865726470947266 0.177940919995307922
-1.5287555456161499 1.28113877773284912 0.134568870067596436
-1.73614382743835449 -0.979105353355407715 0.330978542566299438
0.759252429008483887 -0.666771948337554932 0.423171490430831909
0.232209354639053345 -0.946770250797271729 0.165165513753890991
-1.50990843772888184 1.22621798515319824 0.112690694630146027
0.769383132457733154 -1.82628870010375977 0.286930859088897705
