ply
format ascii 1.0
element vertex 12
comment vertices
property float x
property float y
property float z
end_header
0.69141775369644165 1.90133225917816162 0.429020881652832031
0.695776045322418213 1.88960552215576172 0.427915751934051514
0.683007240295410156 1.89895451068878174 0.431075453758239746
0.695575356483459473 1.90197479724884033 0.420798391103744507
0.692600488662719727 1.88978099822998047 0.429093241691589355
0.69278329610824585 1.89003276824951172 0.431790679693222046
0.69045335054397583 1.8844144344329834 0.42088654637336731
0.695150256156921387 1.90493392944335938 0.434631824493408203
0.69101405143737793 1.89725601673126221 0.431038349866867065
0.692951440811157227 1.89159965515136719 0.425671696662902832
0.695835649967193604 1.8871312141418457 0.422980695962905884
0.692822754383087158 1.88478362560272217 0.421819239854812622
