ply
format ascii 1.0
element vertex 32
comment vertices
property float x
property float y
property float z
end_header
-0.265054494142532349 -0.621532082557678223 0.219952970743179321
0.671233296394348145 3.02679777145385742 0.644318461418151855
-2.43813180923461914 2.14367032051086426 -0.0350109636783599854
1.3763347864151001 1.51485800743103027 -0.0509488880634307861
-0.595962107181549072 0.471941888332366943 0.17479291558265686
-1.385642409324646 -1.37231385707855225 0.442986965179443359
0.525974154472351074 2.24282002449035645 0.32440793514251709
0.595637679100036621 -0.789112687110900879 0.317336797714233398
-0.198904141783714294 -0.354858607053756714 0.253576040267944336
-1.58007872104644775 -0.360168337821960449 0.335961520671844482
-1.50465643405914307 -1.32233572006225586 0.470732510089874268
0.651168942451477051 3.02906346321105957 0.391073107719421387
0.283987879753112793 0.787801146507263184 0.478684842586517334
0.603593826293945312 -0.773629367351531982 0.209380626678466797
-0.145315289497375488 1.67106807231903076 0.0155317783355712891
1.47292482852935791 -0.238539904356002808 0.352055788040161133
1.27384686470031738 2.30363702774047852 0.568446457386016846
0.981122612953186035 1.49650919437408447 0.280414402484893799
-1.09615886211395264 1.34147167205810547 0.376670330762863159
-1.50305259227752686 -1.39051055908203125 0.288989126682281494
0.77280890941619873 -1.38026249408721924 0.175860598683357239
0.533961117267608643 0.987724363803863525 0.531357526779174805
-0.11487366259098053 2.86382365226745605 0.528055727481842041
-2.45342040061950684 0.834670007228851318 0.32955479621887207
0.647121965885162354 2.82088470458984375 0.510450005531311035
-1.85198342800140381 0.117979690432548523 0.277993351221084595
-1.46393406391143799 -1.34162819385528564 0.375509113073348999
0.590607941150665283 -0.729049324989318848 0.246879011392593384
0.155629992485046387 1.12751781940460205 0.047640383243560791
-2.46708369255065918 -0.084228120744228363 -0.203433513641357422
1.24796366691589355 2.65633392333984375 0.0612690150737762451
1.31362414360046387 1.15696263313293457 0.506835460662841797
