ply
format ascii 1.0
element vertex 64
comment vertices
property float x
property float y
property float z
end_header
0.343631744384765625 -0.402195543050765991 0.167694658041000366
-0.293783843517303467 -0.365167200565338135 0.229804739356040955
0.363237142562866211 -0.383107244968414307 0.186967924237251282
-0.295106679201126099 -0.364504396915435791 0.203571617603302002
-0.289047390222549438 -0.378599017858505249 0.145212411880493164
0.378458917140960693 -0.395126998424530029 0.165838092565536499
0.36261323094367981 -0.380960583686828613 0.188493028283119202
-0.266122311353683472 -0.390602469444274902 0.169894248247146606
0.365987896919250488 -0.384209126234054565 0.163032934069633484
-0.223585397005081177 -0.403510302305221558 0.154268980026245117
0.368222028017044067 -0.414378702640533447 0.143685147166252136
0.361293703317642212 -0.405644714832305908 0.174681603908538818
0.367401003837585449 -0.383377939462661743 0.187654107809066772
-0.00654082745313644409 -0.411415398120880127 0.133366584777832031
0.240527063608169556 -0.38817298412322998 0.115569718182086945
0.24628719687461853 -0.406829416751861572 0.134681746363639832
-0.307866215705871582 -0.35842972993850708 0.192645594477653503
-0.283719241619110107 -0.39138871431350708 0.139482185244560242
0.373988687992095947 -0.397067546844482422 0.178865030407905579
0.351503968238830566 -0.416211426258087158 0.153533235192298889
0.369839131832122803 -0.394149869680404663 0.186339616775512695
0.352674394845962524 -0.392028152942657471 0.19594186544418335
-0.277348339557647705 -0.391148656606674194 0.14421650767326355
0.322744756937026978 -0.388043582439422607 0.158369243144989014
-0.235440671443939209 -0.404512524604797363 0.149244755506515503
0.346204012632369995 -0.414385795593261719 0.156821712851524353
0.379273474216461182 -0.395528048276901245 0.15560777485370636
-0.305960416793823242 -0.351908504962921143 0.215087085962295532
0.373926997184753418 -0.397079527378082275 0.155187934637069702
0.324291020631790161 -0.400600701570510864 0.170277297496795654
-0.284332573413848877 -0.390599519014358521 0.133949995040893555
-0.27097773551940918 -0.394102931022644043 0.16566842794418335
0.35807269811630249 -0.388261556625366211 0.170895174145698547
-0.228797078132629395 -0.401459455490112305 0.139365017414093018
-0.0891430377960205078 -0.421871304512023926 0.161539778113365173
0.370313137769699097 -0.405437588691711426 0.165414914488792419
0.360419273376464844 -0.403881311416625977 0.154713362455368042
0.361425042152404785 -0.382018715143203735 0.188691243529319763
0.361972630023956299 -0.387331634759902954 0.173809543251991272
-0.239264592528343201 -0.404827892780303955 0.14886009693145752
0.363633722066879272 -0.403909146785736084 0.185557693243026733
0.238826364278793335 -0.387013882398605347 0.114068329334259033
-0.278605133295059204 -0.391630053520202637 0.150353342294692993
0.376446068286895752 -0.401047110557556152 0.166982099413871765
-0.299578726291656494 -0.352372318506240845 0.209233701229095459
0.336874276399612427 -0.401062548160552979 0.141082882881164551
-0.322593629360198975 -0.328414380550384521 0.166619300842285156
0.37502288818359375 -0.38096502423286438 0.185821086168289185
-0.266612321138381958 -0.393960177898406982 0.17229798436164856
-0.288928449153900146 -0.367118388414382935 0.211285024881362915
0.36493036150932312 -0.388246864080429077 0.182127177715301514
0.332358509302139282 -0.407943934202194214 0.149849280714988708
-0.285080194473266602 -0.387733757495880127 0.132819220423698425
-0.243059843778610229 -0.404271751642227173 0.133977398276329041
-0.307887762784957886 -0.359326303005218506 0.192029401659965515
0.363860070705413818 -0.402949005365371704 0.163180515170097351
0.225064605474472046 -0.449587136507034302 0.132851377129554749
0.361633419990539551 -0.379202276468276978 0.191113471984863281
-0.278352946043014526 -0.393443405628204346 0.150965392589569092
0.373250126838684082 -0.402586817741394043 0.174930274486541748
0.374914824962615967 -0.397184610366821289 0.158513039350509644
-0.292912840843200684 -0.37060314416885376 0.234269976615905762
0.363769233226776123 -0.401940196752548218 0.153366848826408386
-0.240186452865600586 -0.402405142784118652 0.127204537391662598
