ply
format ascii 1.0
element vertex 203
comment vertices
property float x
property float y
property float z
end_header
-0.285802185535430908 0.320510387420654297 0.318756997585296631
0.44465288519859314 0.402700930833816528 0.23781171441078186
-0.366732895374298096 -0.404325336217880249 0.300695449113845825
0.357758939266204834 -0.375557065010070801 0.354579031467437744
0.35202375054359436 -0.402875214815139771 0.304879814386367798
-0.283197194337844849 0.316993743181228638 0.327570289373397827
-0.506962358951568604 0.415291756391525269 0.276777029037475586
0.229956984519958496 0.388081610202789307 0.291896849870681763
-0.500479936599731445 0.224648520350456238 0.288721323013305664
0.132360860705375671 0.281637966632843018 0.322837412357330322
-0.186779066920280457 -0.803747713565826416 0.328894376754760742
0.354117423295974731 -0.379745960235595703 0.328319460153579712
-0.525772213935852051 0.418882519006729126 0.306031495332717896
-0.536375641822814941 0.258730083703994751 0.292714029550552368
-0.238313481211662292 -0.752381622791290283 0.314692854881286621
-0.252069324254989624 0.417072474956512451 0.331326305866241455
-0.155708581209182739 0.106717124581336975 0.31079554557800293
0.264217346906661987 0.374428987503051758 0.282047927379608154
-0.544223129749298096 0.353935837745666504 0.302271872758865356
-0.156231105327606201 0.466695547103881836 0.336026430130004883
0.0533684492111206055 0.373414158821105957 0.348689615726470947
0.194869562983512878 -0.437133312225341797 0.324614971876144409
0.110513269901275635 0.374824345111846924 0.342044472694396973
-0.206623971462249756 -0.797612845897674561 0.32134130597114563
0.353705167770385742 -0.385345041751861572 0.316870450973510742
0.368609249591827393 0.473685204982757568 0.286518216133117676
-0.367997974157333374 0.403244346380233765 0.32014775276184082
-0.343892753124237061 0.14231407642364502 0.317577332258224487
-0.296863734722137451 0.406639546155929565 0.327516138553619385
-0.465372383594512939 0.398458600044250488 0.319933682680130005
0.35292401909828186 -0.415256738662719727 0.33460661768913269
-0.505384325981140137 0.290516465902328491 0.265560269355773926
0.352398663759231567 -0.381228595972061157 0.328893542289733887
-0.0214494802057743073 0.336122393608093262 0.349105775356292725
0.341730654239654541 -0.384037494659423828 0.339320212602615356
-0.0528608672320842743 0.197052463889122009 0.349325388669967651
-0.533243298530578613 0.42230871319770813 0.306145668029785156
-0.271994322538375854 0.31304478645324707 0.324567288160324097
-0.395177274942398071 0.423289716243743896 0.322694182395935059
0.128714486956596375 0.296738773584365845 0.318558037281036377
-0.548879563808441162 0.120854035019874573 0.290993362665176392
0.0608352832496166229 0.403049170970916748 0.333179384469985962
0.243020430207252502 0.342769384384155273 0.307861268520355225
-0.0846573412418365479 0.414861887693405151 0.34937480092048645
0.354639738798141479 -0.403856247663497925 0.309608966112136841
-0.284524738788604736 -0.0162781029939651489 0.328777492046356201
-0.484494775533676147 0.355704575777053833 0.255425393581390381
-0.532302498817443848 0.245418041944503784 0.291145354509353638
0.269809484481811523 0.409358680248260498 0.300888508558273315
-0.240224272012710571 0.156038671731948853 0.299062192440032959
-0.091761469841003418 0.424605309963226318 0.34809643030166626
-0.395240217447280884 0.432517945766448975 0.313400477170944214
0.119660362601280212 0.375166952610015869 0.335005283355712891
-0.401361405849456787 0.347217947244644165 0.318305790424346924
-0.55010223388671875 0.395677000284194946 0.307359874248504639
0.400406599044799805 0.422945767641067505 0.255243241786956787
-0.364874422550201416 -0.652893304824829102 0.256586641073226929
0.345356374979019165 -0.389896929264068604 0.310743331909179688
-0.284073054790496826 0.315605431795120239 0.324197769165039062
-0.00894843693822622299 0.300534605979919434 0.35146254301071167
-0.191727623343467712 0.175979986786842346 0.327901571989059448
-0.0246032699942588806 0.219067096710205078 0.342970222234725952
0.334840476512908936 -0.376189231872558594 0.340677797794342041
0.350882112979888916 -0.404005587100982666 0.325227737426757812
-0.571613132953643799 0.331316530704498291 0.294181615114212036
-0.400550246238708496 0.287329405546188354 0.302202969789505005
-0.422331839799880981 0.168036609888076782 0.309618234634399414
0.178028762340545654 0.309275716543197632 0.306394279003143311
-0.219460874795913696 -0.797751903533935547 0.322323143482208252
0.359151065349578857 -0.389450341463088989 0.326392292976379395
-0.322950392961502075 -0.696956157684326172 0.310821622610092163
-0.389839500188827515 -0.586474061012268066 0.302237212657928467
0.0421254336833953857 0.340782374143600464 0.349282175302505493
-0.18687516450881958 0.429664075374603271 0.326818138360977173
0.338976830244064331 0.416967660188674927 0.251142919063568115
0.328491508960723877 0.418923527002334595 0.274814218282699585
0.276550203561782837 0.437742352485656738 0.303819984197616577
-0.423228472471237183 0.412477284669876099 0.325977087020874023
0.187859565019607544 0.336560726165771484 0.304540395736694336
0.342446386814117432 -0.398922443389892578 0.324074447154998779
-0.00948235020041465759 0.403320878744125366 0.351842164993286133
-0.274955242872238159 0.316464066505432129 0.314196795225143433
0.303985416889190674 0.364738404750823975 0.256057709455490112
0.308426439762115479 -0.392773479223251343 0.323491156101226807
-0.0511421114206314087 0.368860125541687012 0.344956845045089722
-0.00592944025993347168 0.240550041198730469 0.332465857267379761
-0.521440744400024414 0.386524826288223267 0.301514595746994019
-0.184733077883720398 -0.7997170090675354 0.331130713224411011
-0.290504276752471924 0.406084746122360229 0.324502319097518921
-0.469539523124694824 0.219527930021286011 0.268694907426834106
0.28001779317855835 0.431383341550827026 0.297773689031600952
-0.514150381088256836 0.246445566415786743 0.288277179002761841
-0.315983295440673828 0.353203058242797852 0.333667516708374023
0.160720765590667725 0.400488197803497314 0.309442907571792603
0.362553894519805908 -0.404325604438781738 0.309426814317703247
-0.234159350395202637 0.13920632004737854 0.305946022272109985
0.343011558055877686 -0.385824710130691528 0.327160775661468506
-0.247497916221618652 0.369604259729385376 0.324672847986221313
0.198758631944656372 0.348189294338226318 0.310721337795257568
-0.0819791778922080994 0.436414957046508789 0.348003923892974854
-0.457199245691299438 0.420440375804901123 0.306307315826416016
0.187392279505729675 0.389618724584579468 0.293145507574081421
0.0449366495013237 0.356710374355316162 0.344792157411575317
-0.227738499641418457 0.318864703178405762 0.319396257400512695
-0.0451258309185504913 0.4212188720703125 0.336711078882217407
0.35184776782989502 -0.415625154972076416 0.326636850833892822
-0.23537038266658783 0.455275774002075195 0.321103334426879883
-0.376155972480773926 0.343879461288452148 0.324726402759552002
-0.337686210870742798 -0.539691686630249023 0.314339965581893921
-0.555418252944946289 0.325000256299972534 0.290004193782806396
-0.534843802452087402 0.383944451808929443 0.306855052709579468
0.370658457279205322 -0.377165257930755615 0.327849209308624268
0.335637331008911133 -0.41031685471534729 0.315482378005981445
-0.292561054229736328 0.402339905500411987 0.325531125068664551
-0.234986871480941772 0.153877496719360352 0.298495024442672729
0.357774615287780762 -0.371581733226776123 0.347985833883285522
0.165366142988204956 0.29072687029838562 0.318228334188461304
0.232824638485908508 0.31482088565826416 0.298335015773773193
-0.518067359924316406 0.238227903842926025 0.297794938087463379
0.100309215486049652 0.41139647364616394 0.318946301937103271
0.332113921642303467 -0.405670821666717529 0.30737835168838501
-0.287704408168792725 0.313643008470535278 0.320518702268600464
0.0974584072828292847 0.344355016946792603 0.346514046192169189
0.0335060656070709229 0.369789302349090576 0.34789043664932251
-0.101962350308895111 0.406081944704055786 0.349520325660705566
0.0992719978094100952 0.29823225736618042 0.320163458585739136
-0.531678617000579834 0.414502561092376709 0.306175529956817627
-0.522418081760406494 0.201838418841362 0.311400055885314941
-0.0560954399406909943 0.377900391817092896 0.35451275110244751
0.231530606746673584 0.326396554708480835 0.285494238138198853
0.15587848424911499 0.348205447196960449 0.303791403770446777
-0.377535015344619751 0.411706924438476562 0.325454682111740112
-0.161282330751419067 -0.0307473912835121155 0.331337094306945801
0.359998911619186401 -0.405291706323623657 0.315521717071533203
-0.0556355379521846771 0.422959625720977783 0.339991390705108643
-0.397314757108688354 0.171976476907730103 0.316675156354904175
-0.260537117719650269 0.415548026561737061 0.329316407442092896
-0.246669232845306396 0.39536207914352417 0.334312081336975098
0.0276086106896400452 0.363565027713775635 0.355789810419082642
-0.507368683815002441 0.291984140872955322 0.272633522748947144
0.218653976917266846 0.385977834463119507 0.293829590082168579
0.297638595104217529 0.367283761501312256 0.257863640785217285
0.365318745374679565 -0.401716262102127075 0.304754078388214111
-0.5121956467628479 0.415644466876983643 0.302477747201919556
0.274893254041671753 0.414647996425628662 0.292599290609359741
0.318120509386062622 0.41238895058631897 0.266336798667907715
0.411003947257995605 0.427093833684921265 0.258990883827209473
-0.295694649219512939 0.0672190859913825989 0.315807729959487915
0.36124730110168457 -0.390389591455459595 0.312924802303314209
0.251215815544128418 0.358055651187896729 0.305900663137435913
-0.00861889682710170746 0.399414539337158203 0.333594679832458496
-0.0642408132553100586 0.442244350910186768 0.333535760641098022
-0.305151492357254028 0.304072856903076172 0.321112334728240967
0.358872354030609131 -0.385830014944076538 0.308714479207992554
-0.540923357009887695 0.398275166749954224 0.304444432258605957
-0.106724321842193604 0.39585268497467041 0.344129979610443115
-0.251762449741363525 0.478896468877792358 0.33333703875541687
-0.472649902105331421 0.365136981010437012 0.292450308799743652
-0.344681024551391602 -0.561623573303222656 0.310439378023147583
-0.513875365257263184 0.204851239919662476 0.307288825511932373
-0.564517378807067871 0.322766989469528198 0.293139368295669556
-0.544007658958435059 0.375082135200500488 0.30569109320640564
-0.527849733829498291 0.253204643726348877 0.290903717279434204
-0.183376654982566833 0.457405894994735718 0.337785005569458008
0.0473265200853347778 0.263205528259277344 0.334404885768890381
0.322813630104064941 0.419091463088989258 0.289630979299545288
-0.387560784816741943 -0.368048280477523804 0.317630141973495483
-0.176319092512130737 0.451068788766860962 0.333231240510940552
-0.254533290863037109 0.358821302652359009 0.316734492778778076
-0.424061954021453857 0.418587297201156616 0.316735178232192993
0.263163357973098755 0.371313005685806274 0.27715715765953064
-0.144262537360191345 0.236639142036437988 0.327003657817840576
-0.461806327104568481 0.316998332738876343 0.260707706212997437
0.359096646308898926 -0.406657129526138306 0.337377876043319702
0.265044540166854858 0.413277566432952881 0.310891538858413696
-0.415175378322601318 0.421096444129943848 0.316527187824249268
-0.379922091960906982 0.425681322813034058 0.30756843090057373
0.325841993093490601 0.420321047306060791 0.263895094394683838
-0.342632472515106201 0.342798501253128052 0.344147861003875732
0.260178029537200928 0.368420720100402832 0.281898617744445801
-0.259960740804672241 0.414319515228271484 0.328710049390792847
0.0187772065401077271 0.315820902585983276 0.345452576875686646
0.20416240394115448 -0.283407032489776611 0.32359740138053894
0.0092275962233543396 0.338076859712600708 0.353994607925415039
-0.0126837454736232758 0.235746964812278748 0.336035430431365967
0.154468551278114319 0.342100769281387329 0.303115278482437134
0.348624587059020996 -0.387545585632324219 0.342173606157302856
0.344009935855865479 -0.39979979395866394 0.311712771654129028
-0.200895994901657104 0.38611447811126709 0.327836215496063232
-0.198807254433631897 0.181998580694198608 0.321830183267593384
0.196413770318031311 0.318497449159622192 0.314046204090118408
-0.544116556644439697 0.399386703968048096 0.306994765996932983
-0.354105621576309204 0.24926292896270752 0.314729541540145874
-0.10712810605764389 0.273131459951400757 0.331408023834228516
-0.0928835123777389526 0.430739223957061768 0.352774053812026978
-0.486659586429595947 0.246954590082168579 0.311868548393249512
0.181419640779495239 0.33269035816192627 0.301842361688613892
-0.485378950834274292 0.410318970680236816 0.29359850287437439
-0.0946686342358589172 0.417921185493469238 0.350096344947814941
-0.213451370596885681 -0.834621310234069824 0.338984876871109009
0.361257374286651611 -0.405153989791870117 0.327704131603240967
0.118193700909614563 0.376276493072509766 0.337101638317108154
0.351901054382324219 -0.386978060007095337 0.313318133354187012
