ply
format ascii 1.0
element vertex 256
comment vertices
property float x
property float y
property float z
end_header
-0.111466988921165466 0.464736521244049072 0.145017385482788086
0.0597950667142868042 -0.373965650796890259 0.108620665967464447
-0.489311933517456055 -0.199149727821350098 0.264823943376541138
0.261365234851837158 0.22527468204498291 0.166942834854125977
-0.533945322036743164 -0.0204430259764194489 0.0852573439478874207
-0.218613952398300171 -0.174087181687355042 0.210410594940185547
-0.486708581447601318 -0.0586507022380828857 0.100417919456958771
-0.539363384246826172 0.0591657012701034546 0.199605792760848999
0.0924054831266403198 0.380042374134063721 0.222355067729949951
-0.063814014196395874 -0.211267575621604919 0.129384487867355347
0.15650688111782074 0.481777876615524292 0.132657945156097412
-0.37103232741355896 -0.208586022257804871 0.161644697189331055
0.157515972852706909 0.277514278888702393 0.169760733842849731
-0.459092795848846436 -0.0749334767460823059 0.211395829916000366
0.177195653319358826 0.270149767398834229 0.130598574876785278
-0.120233930647373199 0.470046877861022949 0.153841167688369751
-0.264130920171737671 -0.231889992952346802 0.114981725811958313
-0.532319426536560059 -0.0220792330801486969 0.14174981415271759
-0.00762830674648284912 -0.2122611403465271 0.112700127065181732
0.091649763286113739 0.25931239128112793 0.21278950572013855
0.227031707763671875 0.187532916665077209 0.120385229587554932
0.185773536562919617 0.474470853805541992 0.149879753589630127
-0.456689953804016113 -0.0841180160641670227 0.218533650040626526
0.0875057950615882874 0.385041534900665283 0.154250115156173706
-0.448766171932220459 -0.0696209892630577087 0.16773734986782074
-0.0150220021605491638 0.442706048488616943 0.135548099875450134
0.10156596451997757 0.238011002540588379 0.215255290269851685
0.218383297324180603 0.180314958095550537 0.137757822871208191
-0.308195650577545166 -0.15920664370059967 0.16069328784942627
-0.216268718242645264 0.476297765970230103 0.147647202014923096
-0.298950940370559692 -0.179720565676689148 0.207626983523368835
-0.53646695613861084 -0.016273079439997673 0.157968044281005859
0.192161723971366882 0.346414238214492798 0.141100823879241943
-0.552761316299438477 0.0639308840036392212 0.172505825757980347
-0.420002490282058716 -0.241903945803642273 0.250771701335906982
-0.521067500114440918 -0.00226168334484100342 0.117545232176780701
-0.134761631488800049 -0.281440198421478271 0.132483497262001038
-0.528464972972869873 -0.0113299265503883362 0.148413866758346558
0.210342690348625183 0.268759369850158691 0.132919579744338989
-0.00427248701453208923 0.38454735279083252 0.123043052852153778
-0.495605736970901489 -0.0970535129308700562 0.12276807427406311
-0.370238661766052246 -0.161302521824836731 0.217843711376190186
-0.155647411942481995 -0.173645824193954468 0.150723367929458618
-0.5398406982421875 -0.00363471359014511108 0.235418826341629028
0.130410462617874146 0.316126346588134766 0.160069122910499573
0.209890112280845642 0.266040712594985962 0.143806487321853638
0.143611162900924683 0.342003166675567627 0.167460545897483826
-0.0323860868811607361 -0.354183971881866455 0.082709386944770813
-0.452827632427215576 -0.0642759203910827637 0.136173650622367859
-0.518491804599761963 -0.00850787758827209473 0.182468205690383911
-0.11139264702796936 0.480524420738220215 0.159523457288742065
0.189049422740936279 0.331433534622192383 0.149119824171066284
-0.48442387580871582 -0.0781374424695968628 0.169074505567550659
-0.515873551368713379 -0.0157318040728569031 0.187407702207565308
0.190231084823608398 0.342876642942428589 0.137065872550010681
-0.0203119330108165741 0.395490437746047974 0.176147118210792542
-0.456887602806091309 -0.062972530722618103 0.16169777512550354
-0.530260443687438965 -0.0183195993304252625 0.130799472332000732
-0.504003703594207764 -0.0909695923328399658 0.255648255348205566
0.147116690874099731 0.346294224262237549 0.157093122601509094
0.16644461452960968 0.272541731595993042 0.143892541527748108
-0.409210383892059326 -0.136317253112792969 0.151035100221633911
-0.309157818555831909 -0.238720044493675232 0.194303646683692932
-0.415840774774551392 -0.123150363564491272 0.1359548419713974
0.1893138587474823 0.325830817222595215 0.133381769061088562
0.167119011282920837 0.220555797219276428 0.247125387191772461
0.000230394303798675537 0.427107870578765869 0.145280778408050537
-0.422524869441986084 -0.0734045207500457764 0.146310538053512573
-0.0697395578026771545 -0.218946486711502075 0.1533537358045578
0.26063421368598938 0.148686259984970093 0.12969633936882019
0.208491474390029907 0.260154277086257935 0.126445308327674866
0.137470200657844543 0.271607935428619385 0.16398032009601593
-0.0843619778752326965 0.440931439399719238 0.146459013223648071
-0.528919219970703125 -0.0458169803023338318 0.118652701377868652
-0.282666385173797607 -0.172531440854072571 0.179679334163665771
-0.106870502233505249 0.464359253644943237 0.135737434029579163
0.154325664043426514 0.483023583889007568 0.139370620250701904
-0.374440699815750122 -0.216270714998245239 0.327449202537536621
-0.477481931447982788 -0.0957881361246109009 0.21811424195766449
-0.426336348056793213 -0.0726013332605361938 0.151975348591804504
-0.512065649032592773 -0.00561918318271636963 0.197086751461029053
0.124956458806991577 0.323956221342086792 0.169646650552749634
0.274721443653106689 0.231891274452209473 0.147426709532737732
-0.174535408616065979 0.471803486347198486 0.171063154935836792
-0.437392354011535645 -0.0597231015563011169 0.1570463627576828
0.150879204273223877 0.276034295558929443 0.20643441379070282
-0.531439125537872314 -0.010761752724647522 0.121055543422698975
-0.540300130844116211 -0.00823714211583137512 0.142092004418373108
-0.0952228829264640808 0.469727039337158203 0.173299655318260193
-0.410282671451568604 -0.125668078660964966 0.222793281078338623
0.0399449542164802551 -0.31217542290687561 0.0884516611695289612
0.0806766673922538757 0.283880650997161865 0.129130005836486816
0.144081026315689087 0.366064846515655518 0.136087179183959961
-0.515383362770080566 -0.0415201857686042786 0.316357135772705078
0.15451301634311676 0.484495550394058228 0.122022338211536407
-0.459886729717254639 -0.0812360048294067383 0.124165929853916168
-0.318636149168014526 -0.140991777181625366 0.190575271844863892
-0.377190977334976196 -0.206786349415779114 0.122646108269691467
-0.557570695877075195 0.0487352162599563599 0.183461740612983704
0.251022040843963623 0.234428197145462036 0.159546613693237305
0.037945382297039032 0.387083172798156738 0.16235072910785675
0.0928902924060821533 0.246098145842552185 0.183830484747886658
-0.526189506053924561 -0.0395798832178115845 0.152837067842483521
0.0521714277565479279 0.167767345905303955 0.116067275404930115
-0.470210403203964233 -0.194838821887969971 0.280866801738739014
-0.543355226516723633 0.0148499980568885803 0.119687348604202271
0.0796520709991455078 0.166275560855865479 0.23290175199508667
-0.177876278758049011 0.473336517810821533 0.146933019161224365
0.17360939085483551 0.271070599555969238 0.156252190470695496
-0.451687425374984741 -0.0798041969537734985 0.190197646617889404
-0.529185831546783447 -0.0314140543341636658 0.109900087118148804
0.279364734888076782 0.337065160274505615 0.145547032356262207
-0.176228165626525879 -0.225938752293586731 0.127343595027923584
-0.513284802436828613 -0.0286818854510784149 0.163230791687965393
0.204844847321510315 0.27211153507232666 0.144480347633361816
0.255525112152099609 0.287493407726287842 0.129984036087989807
-0.422377288341522217 -0.0838387683033943176 0.144467562437057495
0.150846317410469055 0.481361895799636841 0.145584568381309509
-0.530040264129638672 0.0249182432889938354 0.172998040914535522
-0.103559695184230804 0.456765323877334595 0.139568358659744263
-0.380144745111465454 -0.165831103920936584 0.17435823380947113
-0.527413070201873779 -0.0221696123480796814 0.138225480914115906
0.047741718590259552 0.393230229616165161 0.156320065259933472
0.187920480966567993 0.340288817882537842 0.127065151929855347
-0.451916873455047607 -0.0646977722644805908 0.198232829570770264
-0.326243758201599121 -0.139049887657165527 0.173293814063072205
-0.527775287628173828 -0.0256688892841339111 0.197413116693496704
-0.101070933043956757 0.435705870389938354 0.159004703164100647
-0.199890941381454468 0.473284631967544556 0.143939673900604248
-0.530960381031036377 -0.0472829341888427734 0.121737658977508545
0.127997055649757385 0.332204520702362061 0.176694557070732117
0.191766887903213501 0.26584017276763916 0.132644116878509521
-0.489350825548171997 -0.050706125795841217 0.141467109322547913
-0.212551593780517578 -0.218836367130279541 0.127519920468330383
-0.0818803384900093079 0.43409198522567749 0.149640604853630066
-0.492348849773406982 -0.0481039397418498993 0.184547275304794312
0.208320826292037964 0.27046966552734375 0.136985629796981812
0.189264819025993347 0.271148890256881714 0.133208617568016052
-0.327909737825393677 -0.19829067587852478 0.252810060977935791
0.00582175701856613159 0.413967728614807129 0.172169551253318787
-0.174398347735404968 0.471857845783233643 0.153962373733520508
-0.447488456964492798 -0.0538039468228816986 0.160330712795257568
-0.527385115623474121 0.189398229122161865 0.190943598747253418
0.0490488633513450623 0.390730887651443481 0.17950795590877533
-0.430754184722900391 -0.126489624381065369 0.173802658915519714
0.165469422936439514 0.356858164072036743 0.118139386177062988
0.188336730003356934 0.349541306495666504 0.124148860573768616
0.00465893745422363281 -0.349284738302230835 0.0997413992881774902
0.256303101778030396 0.229515999555587769 0.151723131537437439
0.178379103541374207 0.355708599090576172 0.130238533020019531
0.206505626440048218 0.272403627634048462 0.14848443865776062
-0.517035603523254395 -0.0219808220863342285 0.120298393070697784
0.152177512645721436 0.322672516107559204 0.161596298217773438
-0.41185230016708374 -0.0921475589275360107 0.157756596803665161
-0.539304494857788086 -0.00608775019645690918 0.140171721577644348
0.149791687726974487 0.481684893369674683 0.150786012411117554
-0.284061551094055176 -0.172972843050956726 0.201797008514404297
-0.115744903683662415 0.491399705410003662 0.149431183934211731
-0.429885208606719971 -0.0884061679244041443 0.125425666570663452
-0.467433720827102661 -0.218042552471160889 0.273744523525238037
0.0897952020168304443 0.110219001770019531 0.120454184710979462
-0.44747769832611084 -0.0885937288403511047 0.218209356069564819
-0.517397820949554443 -0.0356879495084285736 0.196818083524703979
0.160293877124786377 0.346210002899169922 0.147855103015899658
-0.449574202299118042 -0.11062254011631012 0.150788694620132446
-0.0861816331744194031 -0.231757745146751404 0.168303906917572021
0.205091401934623718 0.273038357496261597 0.1472434401512146
-0.543791413307189941 -0.0107220299541950226 0.135833859443664551
0.134441167116165161 0.332014530897140503 0.151078641414642334
-0.542890608310699463 0.00939330458641052246 0.152851253747940063
-0.05738791823387146 -0.194586768746376038 0.152892664074897766
-0.427258461713790894 -0.0736483931541442871 0.153024166822433472
0.150242462754249573 0.276936233043670654 0.157986998558044434
-0.135619878768920898 0.470830917358398438 0.1403055340051651
-0.0629650652408599854 0.442282408475875854 0.165940642356872559
-0.490535855293273926 -0.0349602438509464264 0.235915437340736389
-0.524986147880554199 -0.0215603671967983246 0.112375028431415558
-0.517121493816375732 -0.0272621549665927887 0.127573415637016296
-0.42064201831817627 -0.0846910774707794189 0.182966366410255432
-0.529999017715454102 -0.0340647287666797638 0.10658448189496994
-0.124110661447048187 0.487800717353820801 0.147369608283042908
0.190473511815071106 0.341296613216400146 0.147551402449607849
-0.437984108924865723 -0.0697675570845603943 0.207704052329063416
-0.544838428497314453 -0.102245725691318512 0.240421369671821594
0.197296023368835449 0.262117594480514526 0.13647499680519104
-0.508120954036712646 -0.0530982166528701782 0.202877581119537354
-0.371914386749267578 -0.110675334930419922 0.139640629291534424
-0.523221075534820557 0.0307582765817642212 0.16857852041721344
-0.309175580739974976 -0.146420300006866455 0.19232352077960968
-0.500581622123718262 -0.0569023191928863525 0.148801788687705994
0.154194355010986328 0.32943454384803772 0.148816391825675964
0.195982962846755981 0.332425147294998169 0.130399450659751892
-0.429641902446746826 -0.0914681106805801392 0.185418620705604553
0.171941384673118591 0.354415655136108398 0.129479289054870605
0.269531071186065674 0.235008150339126587 0.142223969101905823
0.130799785256385803 0.277126938104629517 0.138009652495384216
0.0956536978483200073 0.282454073429107666 0.223742082715034485
-0.33811342716217041 -0.173236846923828125 0.235421851277351379
-0.459219783544540405 -0.178538352251052856 0.214428126811981201
0.107092253863811493 0.252180933952331543 0.224847137928009033
0.0805478394031524658 0.377174317836761475 0.182891815900802612
-0.0318173952400684357 0.417994856834411621 0.142682597041130066
-0.304423660039901733 -0.11612478643655777 0.154975578188896179
-0.441330879926681519 -0.0717781558632850647 0.146983519196510315
-0.459929138422012329 -0.0805019885301589966 0.192102313041687012
-0.487776249647140503 -0.0607942529022693634 0.106473095715045929
-0.186159804463386536 -0.229790344834327698 0.110337197780609131
-0.53964000940322876 0.0103627592325210571 0.138392448425292969
-0.0267892144620418549 0.423925936222076416 0.144612699747085571
-0.525278687477111816 -0.0569995790719985962 0.154061764478683472
0.155378356575965881 0.336210697889328003 0.13432610034942627
-0.359798073768615723 -0.205346241593360901 0.156600460410118103
-0.438422441482543945 -0.0720212310552597046 0.151649162173271179
-0.130207091569900513 0.459356039762496948 0.156205594539642334
0.130422621965408325 0.374589025974273682 0.130040138959884644
0.260905355215072632 0.249496504664421082 0.151015236973762512
-0.123574063181877136 0.482832998037338257 0.161953404545783997
0.199866026639938354 0.272235065698623657 0.134859904646873474
0.277606606483459473 0.246020764112472534 0.147914841771125793
0.15166926383972168 0.279169291257858276 0.134924456477165222
0.152366146445274353 0.483440905809402466 0.135194659233093262
-0.537329733371734619 -0.0119102820754051208 0.149412602186203003
-0.177228063344955444 0.473303258419036865 0.154075011610984802
-0.125780925154685974 0.47205430269241333 0.151917129755020142
-0.562911808490753174 0.0495072305202484131 0.191561043262481689
-0.299447357654571533 -0.208859682083129883 0.141549929976463318
-0.505260348320007324 -0.10599062591791153 0.287915945053100586
-0.542863845825195312 -0.00765281543135643005 0.105762958526611328
-0.502768397331237793 -0.22047346830368042 0.25729745626449585
-0.530171215534210205 -0.0135374926030635834 0.131456255912780762
-0.358451873064041138 -0.171866163611412048 0.192746430635452271
0.278042495250701904 0.230997443199157715 0.139957740902900696
-0.0739152729511260986 0.435026317834854126 0.144767865538597107
-0.528070151805877686 -0.0251989178359508514 0.138652592897415161
-0.0104187428951263428 -0.356335103511810303 0.0853129997849464417
-0.491790711879730225 -0.210964307188987732 0.260144293308258057
-0.0982371941208839417 0.443003684282302856 0.131504625082015991
-0.492785811424255371 -0.0493785440921783447 0.147945001721382141
0.193404167890548706 0.264353454113006592 0.131673678755760193
-0.451281815767288208 -0.0627780407667160034 0.145982831716537476
-0.455855607986450195 -0.114236094057559967 0.246761918067932129
0.21216227114200592 0.352552592754364014 0.140977844595909119
0.289520293474197388 0.224217876791954041 0.147027865052223206
0.116992458701133728 0.251944869756698608 0.221751049160957336
0.172886043787002563 0.352929770946502686 0.131576865911483765
-0.371226996183395386 -0.215311437845230103 0.165861651301383972
0.200620710849761963 0.260663509368896484 0.154150992631912231
-0.534378945827484131 0.00101161748170852661 0.139180317521095276
-0.549146831035614014 0.0441872626543045044 0.21844974160194397
0.153568044304847717 0.481116771697998047 0.142392784357070923
-0.106705024838447571 0.470735430717468262 0.164790809154510498
-0.0218882933259010315 -0.225626751780509949 0.112363077700138092
0.166992649435997009 0.27233964204788208 0.182530656456947327
-0.191899895668029785 0.470246613025665283 0.149404734373092651
0.00720340758562088013 -0.318985313177108765 0.101761415600776672
-0.370628595352172852 -0.117112159729003906 0.140194147825241089
