ply
format ascii 1.0
element vertex 256
comment vertices
property float x
property float y
property float z
end_header
0.4583759605884552 0.231548920273780823 0.433991789817810059
-0.252928555011749268 -0.423772931098937988 0.437484443187713623
0.0211635828018188477 -0.348303020000457764 0.472151577472686768
-0.182268306612968445 -0.426235228776931763 0.432849913835525513
-0.21763862669467926 0.151570066809654236 0.341894716024398804
-0.222008541226387024 0.19716799259185791 0.299589037895202637
-0.21515868604183197 -0.43304559588432312 0.422903090715408325
0.223172888159751892 0.367089629173278809 0.336725622415542603
0.458291232585906982 0.212396025657653809 0.405664622783660889
-0.220612034201622009 -0.407928735017776489 0.420077025890350342
0.409755557775497437 0.256568104028701782 0.407499492168426514
-0.215089350938796997 -0.411761581897735596 0.435199111700057983
0.0028653368353843689 -0.36682361364364624 0.459986716508865356
0.406463861465454102 0.217711672186851501 0.452126443386077881
0.459417998790740967 0.248181998729705811 0.451556980609893799
-0.246584236621856689 -0.433072865009307861 0.418821096420288086
-0.218914002180099487 0.157223999500274658 0.335618793964385986
0.00427615642547607422 -0.336861610412597656 0.447674036026000977
-0.26196664571762085 -0.436244338750839233 0.43874281644821167
0.457846164703369141 0.238875165581703186 0.433562964200973511
-0.234000712633132935 -0.394825905561447144 0.429947376251220703
0.239628523588180542 0.335088461637496948 0.38980373740196228
0.456075370311737061 0.22166655957698822 0.424561500549316406
-0.13221275806427002 -0.400681048631668091 0.461518555879592896
0.44841533899307251 0.240324094891548157 0.451834559440612793
-0.229747235774993896 0.196683764457702637 0.365663737058639526
-0.248129114508628845 -0.419064551591873169 0.434182673692703247
0.429038047790527344 0.223845526576042175 0.418243199586868286
0.358425527811050415 0.311500728130340576 0.389675378799438477
-0.201106786727905273 -0.422499269247055054 0.431645512580871582
-0.256411373615264893 -0.412095874547958374 0.420024067163467407
-0.13172169029712677 -0.379125624895095825 0.434524685144424438
0.346539497375488281 0.311418414115905762 0.391497194766998291
-0.232084572315216064 -0.407430350780487061 0.421119391918182373
0.451164931058883667 0.237758219242095947 0.448285937309265137
0.350025594234466553 0.313194513320922852 0.394665777683258057
-0.217024415731430054 0.193623960018157959 0.328194171190261841
0.0208525992929935455 -0.328511238098144531 0.421815991401672363
0.252840787172317505 0.332579702138900757 0.372222900390625
-0.209089770913124084 -0.431821644306182861 0.425163239240646362
-0.269843399524688721 -0.397114038467407227 0.43510010838508606
0.251196384429931641 0.329263806343078613 0.375026047229766846
0.394796133041381836 0.228931814432144165 0.411613255739212036
-0.00372074171900749207 -0.368315547704696655 0.446097254753112793
-0.246836036443710327 -0.444232285022735596 0.434937119483947754
0.0695068091154098511 -0.275550663471221924 0.426527589559555054
-0.278447151184082031 -0.399488687515258789 0.425818175077438354
-0.240793347358703613 -0.436784982681274414 0.425301223993301392
0.432193219661712646 0.201588988304138184 0.405818194150924683
-0.0647381916642189026 -0.362735569477081299 0.467085152864456177
-0.226106226444244385 -0.408935368061065674 0.419557422399520874
-0.219121977686882019 0.176259785890579224 0.33253246545791626
-0.21491590142250061 -0.396731078624725342 0.432970494031906128
0.457310020923614502 0.245528191328048706 0.452511399984359741
0.454917967319488525 0.228998288512229919 0.425085961818695068
0.452035993337631226 0.223326101899147034 0.415546327829360962
-0.216447442770004272 -0.408460825681686401 0.436173230409622192
-0.248703494668006897 -0.42282712459564209 0.4211844801902771
0.421820461750030518 0.234312355518341064 0.410944193601608276
0.37530207633972168 0.24690641462802887 0.397515773773193359
-0.258574187755584717 -0.434699803590774536 0.427001982927322388
0.178535476326942444 0.401888430118560791 0.3276481032371521
-0.168035149574279785 -0.417937815189361572 0.446632951498031616
-0.250992059707641602 -0.43542906641960144 0.436979770660400391
0.454767167568206787 0.218258664011955261 0.419476479291915894
-0.180171012878417969 -0.415644466876983643 0.440334677696228027
-0.254643380641937256 -0.413327038288116455 0.421417027711868286
-0.219706475734710693 -0.412595599889755249 0.419754087924957275
-0.246253997087478638 -0.429142087697982788 0.420526832342147827
0.393878936767578125 0.235979378223419189 0.413763195276260376
-0.246366977691650391 -0.422111362218856812 0.430930823087692261
-0.207089513540267944 -0.425703644752502441 0.430714696645736694
0.0255166441202163696 -0.313370794057846069 0.437646210193634033
0.459084153175354004 0.222268864512443542 0.431811988353729248
-0.269442707300186157 -0.407980173826217651 0.431845366954803467
-0.222163990139961243 -0.418486952781677246 0.419908523559570312
-0.214797556400299072 -0.416615277528762817 0.42129930853843689
0.450784415006637573 0.238718822598457336 0.455416679382324219
-0.275990128517150879 -0.421571284532546997 0.441396176815032959
0.00657010078430175781 -0.358325093984603882 0.468604803085327148
0.349416166543960571 0.303239732980728149 0.395237594842910767
-0.221711188554763794 -0.406799077987670898 0.427643179893493652
-0.177705898880958557 -0.426895320415496826 0.428547054529190063
-0.20418490469455719 -0.421559572219848633 0.417106121778488159
0.247664421796798706 0.336914181709289551 0.391367346048355103
0.455538392066955566 0.228553324937820435 0.433109104633331299
0.460554599761962891 0.216463997960090637 0.419867396354675293
0.0160517394542694092 -0.357213139533996582 0.467252403497695923
-0.206064909696578979 -0.423445612192153931 0.431035697460174561
-0.218658462166786194 -0.413796752691268921 0.422831475734710693
-0.0750522315502166748 -0.378633737564086914 0.458527445793151855
-0.223938316106796265 -0.415706813335418701 0.42275652289390564
-0.185331225395202637 -0.422949910163879395 0.422270387411117554
-0.262635171413421631 -0.401589781045913696 0.419555962085723877
0.318064361810684204 0.282190412282943726 0.407239228487014771
-0.224899455904960632 -0.420912086963653564 0.420896470546722412
-0.220465347170829773 -0.414933651685714722 0.420152813196182251
0.430475115776062012 0.213497668504714966 0.416776448488235474
-0.186850696802139282 0.246766552329063416 0.369488000869750977
0.457737565040588379 0.229133635759353638 0.428839951753616333
-0.238954737782478333 -0.426324635744094849 0.431749075651168823
-0.195800572633743286 -0.422398746013641357 0.441609084606170654
-0.217497959733009338 0.16160900890827179 0.344045966863632202
-0.156499236822128296 -0.39935302734375 0.442172646522521973
0.458180248737335205 0.243494093418121338 0.457283973693847656
-0.222127228975296021 -0.417489171028137207 0.420004338026046753
0.0070873945951461792 -0.366212964057922363 0.460154026746749878
-0.173461288213729858 -0.421631872653961182 0.448394179344177246
0.251600742340087891 0.32980656623840332 0.374845683574676514
-0.275987446308135986 -0.405177056789398193 0.428705692291259766
0.451513797044754028 0.240659862756729126 0.442389935255050659
-0.253549635410308838 -0.429442495107650757 0.431441366672515869
-0.251240253448486328 -0.418412178754806519 0.437826156616210938
0.267097800970077515 0.322576165199279785 0.364929020404815674
-0.218409106135368347 0.193370968103408813 0.325098544359207153
0.454232871532440186 0.231769263744354248 0.446294009685516357
-0.260086178779602051 -0.421466857194900513 0.43488660454750061
0.349516421556472778 0.326620817184448242 0.364407062530517578
0.0100449249148368835 -0.360113352537155151 0.471475422382354736
-0.243799567222595215 -0.428265959024429321 0.424407929182052612
0.455507040023803711 0.232379361987113953 0.429779887199401855
-0.236732378602027893 -0.426617592573165894 0.418723881244659424
0.279933810234069824 0.323074102401733398 0.354899764060974121
-0.219551742076873779 0.200846180319786072 0.337781906127929688
-0.262375175952911377 -0.402182787656784058 0.419166445732116699
-0.201520204544067383 -0.414212018251419067 0.434560775756835938
-0.222125470638275146 -0.395814359188079834 0.43766137957572937
-0.260235697031021118 -0.423913300037384033 0.424377590417861938
-0.2240191251039505 -0.40792548656463623 0.421319723129272461
0.379974335432052612 0.249388754367828369 0.39435046911239624
-0.257457524538040161 -0.420285344123840332 0.436791718006134033
0.000738881528377532959 -0.3654804527759552 0.464340001344680786
0.461520642042160034 0.21570257842540741 0.424981474876403809
0.381881862878799438 0.252940475940704346 0.39680209755897522
-0.237546950578689575 -0.450084567070007324 0.43252071738243103
0.244990408420562744 0.340336859226226807 0.393236696720123291
-0.25366637110710144 -0.411923378705978394 0.420737087726593018
0.426382392644882202 0.204283043742179871 0.411778390407562256
0.426543861627578735 0.213103175163269043 0.406203329563140869
-0.218405827879905701 -0.417611837387084961 0.420524626970291138
-0.248425573110580444 -0.425154328346252441 0.428122907876968384
0.461698681116104126 0.242561936378479004 0.445212125778198242
0.423987627029418945 0.214191585779190063 0.417789578437805176
-0.213792204856872559 -0.425385117530822754 0.42447999119758606
-0.207554399967193604 -0.425714671611785889 0.420261144638061523
0.251902133226394653 0.335098206996917725 0.376386970281600952
-0.245338961482048035 -0.427585363388061523 0.434595614671707153
0.389769971370697021 0.246687695384025574 0.421260297298431396
-0.259776979684829712 -0.418098330497741699 0.427100449800491333
0.345948457717895508 0.29689103364944458 0.395969539880752563
-0.192684724926948547 -0.407995879650115967 0.447393298149108887
-0.0716039687395095825 -0.378098338842391968 0.463207811117172241
-0.239281415939331055 -0.436707168817520142 0.416963398456573486
0.18791528046131134 0.397147476673126221 0.32369568943977356
-0.223159343004226685 0.141498729586601257 0.327487766742706299
-0.185513436794281006 -0.422004133462905884 0.446921676397323608
-0.251846015453338623 -0.424685657024383545 0.437013208866119385
-0.238884434103965759 -0.390497326850891113 0.425839632749557495
-0.273997515439987183 -0.404952108860015869 0.430855989456176758
0.0192784219980239868 -0.324452042579650879 0.463086158037185669
0.362002670764923096 0.228611230850219727 0.465464890003204346
-0.227573931217193604 -0.400783658027648926 0.420271515846252441
0.456707388162612915 0.21947033703327179 0.428398102521896362
-0.243506237864494324 -0.423863381147384644 0.43314632773399353
-0.225395575165748596 -0.409454584121704102 0.424006760120391846
-0.203944802284240723 -0.424203366041183472 0.43074798583984375
-0.216259390115737915 0.159562438726425171 0.343983054161071777
-0.224419489502906799 -0.40606999397277832 0.423751413822174072
-0.269367218017578125 -0.40035015344619751 0.42051813006401062
-0.19542345404624939 -0.428367257118225098 0.434942096471786499
0.431982755661010742 0.216507554054260254 0.414564579725265503
-0.254900038242340088 -0.410987824201583862 0.420359015464782715
-0.249691501259803772 -0.42239949107170105 0.421953737735748291
-0.219716012477874756 -0.421316623687744141 0.421843796968460083
-0.170171469449996948 -0.420449763536453247 0.444264411926269531
-0.206639766693115234 -0.42555159330368042 0.428793817758560181
0.435836374759674072 0.218202263116836548 0.415644407272338867
-0.244191110134124756 -0.431279391050338745 0.421918362379074097
0.452065080404281616 0.244447886943817139 0.444646447896957397
-0.224911868572235107 -0.405661642551422119 0.427543044090270996
0.224532485008239746 0.366849720478057861 0.336053252220153809
-0.108817413449287415 -0.382767319679260254 0.454570174217224121
0.00328629463911056519 -0.354360818862915039 0.456365197896957397
0.457385808229446411 0.245398819446563721 0.450248956680297852
-0.244587913155555725 -0.423809617757797241 0.434113204479217529
0.450410902500152588 0.218534305691719055 0.418817281723022461
-0.236621111631393433 -0.422871768474578857 0.418079912662506104
0.243918880820274353 0.334147989749908447 0.390587776899337769
0.0585481375455856323 -0.223214268684387207 0.430122733116149902
-0.268936634063720703 -0.407633304595947266 0.426335960626602173
-0.220809921622276306 -0.42116883397102356 0.420180082321166992
0.454612553119659424 0.214644581079483032 0.413948684930801392
0.381493210792541504 0.248703151941299438 0.416857302188873291
-0.240604788064956665 -0.43023344874382019 0.435957968235015869
0.452543050050735474 0.246123597025871277 0.444108337163925171
0.453474581241607666 0.231494799256324768 0.427470624446868896
-0.254254639148712158 -0.415083229541778564 0.420798361301422119
-0.218105316162109375 0.181632533669471741 0.338273823261260986
-0.226487770676612854 -0.407533973455429077 0.423531323671340942
0.456234276294708252 0.22965666651725769 0.437090694904327393
-0.253720760345458984 -0.430290699005126953 0.42218586802482605
-0.262228548526763916 -0.428948819637298584 0.431906402111053467
-0.192212566733360291 -0.426462948322296143 0.438220679759979248
0.0152951478958129883 -0.359547913074493408 0.468163669109344482
-0.253629982471466064 -0.42571336030960083 0.430794298648834229
-0.240995138883590698 -0.433523416519165039 0.425392299890518188
-0.0131498388946056366 -0.368114769458770752 0.437544107437133789
0.41609877347946167 0.206851065158843994 0.428816407918930054
0.00693522393703460693 -0.360764801502227783 0.465564578771591187
0.271378576755523682 0.272796750068664551 0.374145448207855225
0.456982254981994629 0.222594320774078369 0.42880624532699585
-0.266792953014373779 -0.406190276145935059 0.422617882490158081
0.0260965228080749512 -0.312676578760147095 0.468077003955841064
-0.223942920565605164 -0.412278860807418823 0.421974211931228638
-0.25288739800453186 -0.42810744047164917 0.431110203266143799
-0.231069624423980713 -0.409609943628311157 0.420631140470504761
-0.239678651094436646 -0.438538908958435059 0.42424282431602478
-0.251954734325408936 -0.427635222673416138 0.426898866891860962
-0.262084037065505981 -0.407866060733795166 0.421594381332397461
-0.229356497526168823 -0.408624082803726196 0.420156717300415039
-0.254192709922790527 -0.414236009120941162 0.420262962579727173
-0.254800617694854736 -0.417275160551071167 0.436033248901367188
-0.265209943056106567 -0.411604166030883789 0.426766514778137207
-0.209427013993263245 -0.42686086893081665 0.41197890043258667
0.291166216135025024 0.274518430233001709 0.374803006649017334
-0.259638130664825439 -0.410270780324935913 0.431169599294662476
-0.255400478839874268 -0.413756102323532104 0.419858366250991821
0.239993810653686523 0.332916438579559326 0.38149145245552063
0.454012185335159302 0.22541382908821106 0.420589476823806763
-0.214858591556549072 -0.394291788339614868 0.442176371812820435
-0.0841070562601089478 -0.386636197566986084 0.44764295220375061
0.458363652229309082 0.242122605443000793 0.450664132833480835
-0.213629797101020813 -0.430093437433242798 0.42905879020690918
-0.19251580536365509 -0.425789624452590942 0.437113076448440552
0.451578140258789062 0.248122796416282654 0.444988340139389038
0.451743513345718384 0.216219872236251831 0.417893588542938232
-0.198850676417350769 -0.424857109785079956 0.440525293350219727
-0.00407612323760986328 -0.366796493530273438 0.456255137920379639
-0.232611477375030518 -0.432588875293731689 0.416644454002380371
-0.263439267873764038 -0.41437724232673645 0.430693328380584717
-0.0686727762222290039 -0.375519841909408569 0.464640796184539795
-0.263089954853057861 -0.41871267557144165 0.437979638576507568
0.41347193717956543 0.219298124313354492 0.406621664762496948
-0.172188565135002136 -0.413051515817642212 0.446198046207427979
-0.207621321082115173 -0.417387008666992188 0.434323996305465698
0.442119807004928589 0.219550818204879761 0.416847020387649536
0.459479033946990967 0.242347732186317444 0.451547443866729736
0.283741176128387451 0.271592795848846436 0.374330997467041016
-0.214985162019729614 -0.426930099725723267 0.422421395778656006
0.21908530592918396 0.362975597381591797 0.333121597766876221
-0.221406459808349609 -0.409117192029953003 0.419794946908950806
-0.131807923316955566 -0.399881422519683838 0.46437382698059082
-0.217199653387069702 0.171929344534873962 0.350693106651306152
0.445150107145309448 0.233507096767425537 0.447723984718322754
-0.259934157133102417 -0.419568628072738647 0.426817953586578369
0.456585913896560669 0.226984769105911255 0.425528138875961304
