ply
format ascii 1.0
element vertex 256
comment vertices
property float x
property float y
property float z
end_header
1.12642562389373779 0.0137937217950820923 0.665656447410583496
2.31916093826293945 -2.86643886566162109 1.08802902698516846
-0.826639115810394287 0.567878127098083496 0.0647319778800010681
-0.367950081825256348 -1.21412575244903564 0.916497886180877686
1.11153566837310791 -1.93444550037384033 0.44700583815574646
0.693417072296142578 1.53845632076263428 0.177151888608932495
0.121214985847473145 -1.01388299465179443 0.0315214842557907104
2.41156721115112305 -2.30163311958312988 -0.00303233414888381958
1.14814317226409912 -0.84729921817779541 0.953021407127380371
0.0404386669397354126 1.05770552158355713 0.591872513294219971
0.331754952669143677 -0.0274932682514190674 0.168152719736099243
1.54308080673217773 -1.93299877643585205 1.13580071926116943
0.431768149137496948 -1.39063489437103271 0.39864310622215271
2.68447041511535645 -2.2171480655670166 1.04576098918914795
-0.154742270708084106 1.26929795742034912 -0.0027197226881980896
0.818308889865875244 0.714293301105499268 0.637508511543273926
1.74656999111175537 -2.17827701568603516 0.645247280597686768
-0.538490056991577148 -1.66868937015533447 -0.102692380547523499
1.84858584403991699 -0.0946785062551498413 0.136856928467750549
1.05884051322937012 -1.01588177680969238 0.229811877012252808
2.2049567699432373 -2.57814693450927734 0.458285987377166748
-0.872533142566680908 0.261944413185119629 0.340125322341918945
0.0890404805541038513 -1.39399206638336182 1.22332501411437988
0.645307958126068115 0.759719789028167725 -0.168134018778800964
-0.470105856657028198 0.0336399972438812256 -0.332914769649505615
2.74793410301208496 -2.72926449775695801 0.0616563856601715088
-0.286850392818450928 -0.762808859348297119 0.683280467987060547
1.48803102970123291 0.431233644485473633 0.373129069805145264
1.10174906253814697 -1.9122236967086792 1.16828513145446777
-0.4343128502368927 1.15699982643127441 0.306635737419128418
0.177465438842773438 1.34589946269989014 0.160945892333984375
1.12009310722351074 1.13894116878509521 0.0505101755261421204
1.69670593738555908 -1.67872178554534912 0.755461931228637695
1.25134825706481934 -2.20279073715209961 0.627847552299499512
0.362653583288192749 -0.695564508438110352 0.672021329402923584
1.70122206211090088 -0.0467050746083259583 -0.0964697226881980896
2.47801899909973145 -2.4243772029876709 1.12554252147674561
2.49426555633544922 -2.18982982635498047 0.5158500075340271
-0.0118091031908988953 -1.42893731594085693 0.289129346609115601
-0.134739860892295837 0.919007241725921631 0.0857572555541992188
1.01443886756896973 1.12830328941345215 -0.214741379022598267
2.5363917350769043 -2.68800950050354004 0.588587403297424316
0.243724703788757324 -1.6200333833694458 0.771783709526062012
1.54034149646759033 0.217497527599334717 0.661052942276000977
0.226896464824676514 0.310644090175628662 0.52999722957611084
1.00898897647857666 0.00465606898069381714 0.675500154495239258
2.08378028869628906 -2.37584590911865234 0.0706720948219299316
0.074729040265083313 -1.24762630462646484 0.759876370429992676
1.66666591167449951 -1.78704869747161865 0.439476430416107178
2.20091843605041504 -2.53555893898010254 0.808768332004547119
0.22226378321647644 -0.877203524112701416 0.531017422676086426
0.876316606998443604 -1.21735405921936035 0.9083213210105896
0.604508817195892334 0.436453014612197876 -0.0296904891729354858
1.56836867332458496 -0.123880140483379364 0.520750463008880615
-0.38882070779800415 -1.32551789283752441 0.709182679653167725
0.243324369192123413 1.05137574672698975 -0.0124510377645492554
1.56923151016235352 -1.93047475814819336 1.13596868515014648
2.56686782836914062 -2.55736112594604492 0.139229863882064819
1.07133269309997559 -1.03642356395721436 0.553296446800231934
2.20024871826171875 -2.48387360572814941 1.37408804893493652
-0.380010217428207397 0.804065108299255371 0.658976912498474121
-0.661650300025939941 0.528038382530212402 0.130681321024894714
0.888119876384735107 0.947754263877868652 0.399710804224014282
1.26706135272979736 0.695404410362243652 0.23695884644985199
0.402196049690246582 -0.59693300724029541 0.238026157021522522
1.52095723152160645 -1.759307861328125 1.27298116683959961
0.041201472282409668 -0.913807928562164307 0.370742827653884888
-0.182638406753540039 -1.22317421436309814 0.334684193134307861
1.65721988677978516 0.383230537176132202 0.339708477258682251
-0.058609306812286377 1.41549980640411377 0.220109343528747559
1.01886308193206787 0.11777198314666748 0.603293478488922119
1.23174107074737549 -1.22276449203491211 0.77529299259185791
0.637531638145446777 -0.619724154472351074 0.803680658340454102
1.28995621204376221 -1.69313466548919678 1.13449501991271973
-0.108218878507614136 -1.21670591831207275 0.683473706245422363
1.2606731653213501 -0.243108078837394714 0.302354961633682251
2.39869308471679688 -2.65593862533569336 1.06715476512908936
-0.00235515832901000977 -0.618099331855773926 0.519379615783691406
1.30455255508422852 0.0950446352362632751 0.749384224414825439
1.37185049057006836 -1.9661252498626709 0.378683179616928101
0.0513231754302978516 1.35989296436309814 -0.00645291060209274292
2.55566191673278809 -2.56112980842590332 0.689140200614929199
0.583930492401123047 0.483350038528442383 0.684548497200012207
-0.998749196529388428 0.545406222343444824 0.137389332056045532
0.652807652950286865 -1.14863920211791992 0.401444822549819946
2.83951187133789062 -2.47572612762451172 0.117156416177749634
1.41149437427520752 -1.91188192367553711 0.90664297342300415
0.131599873304367065 -1.02759778499603271 0.682276904582977295
-0.414669960737228394 1.18622314929962158 0.274737000465393066
1.02210462093353271 1.15270555019378662 -0.0330897718667984009
1.31925761699676514 0.356933832168579102 0.720395267009735107
-0.221608519554138184 -0.976334810256958008 0.922319352626800537
0.00302717834711074829 1.49313366413116455 0.141969501972198486
0.570885062217712402 0.941628456115722656 0.0932801961898803711
0.0260247141122817993 1.16584134101867676 -0.0604078546166419983
1.28116941452026367 -2.06622219085693359 0.963301360607147217
1.36540436744689941 0.362334072589874268 0.219616666436195374
0.219392582774162292 1.1910712718963623 0.264803409576416016
1.55386483669281006 -2.1295921802520752 0.728212893009185791
0.817812800407409668 0.841492533683776855 0.564439475536346436
1.32833182811737061 -1.7774735689163208 0.891415536403656006
2.62886381149291992 -2.72220230102539062 0.232336297631263733
1.73745548725128174 0.174997404217720032 0.36774560809135437
1.03521883487701416 1.06359171867370605 0.0593524649739265442
0.718737781047821045 1.25996077060699463 0.392057299613952637
2.30238986015319824 -2.62198734283447266 1.28813159465789795
-0.308962494134902954 -1.02017533779144287 0.794630765914916992
2.77799487113952637 -2.35148835182189941 0.908483445644378662
-0.361769616603851318 0.98033750057220459 0.0390499122440814972
0.0230534598231315613 -1.02118098735809326 0.493523269891738892
2.63052654266357422 -2.4804985523223877 0.207594618201255798
0.846095740795135498 0.456911861896514893 0.457141607999801636
2.23012924194335938 -2.41731142997741699 0.474358439445495605
0.681491732597351074 -0.718286514282226562 0.473289936780929565
1.63184380531311035 -1.95579326152801514 0.697632670402526855
-0.312968194484710693 1.04311978816986084 0.314596414566040039
1.56156837940216064 0.275058716535568237 0.258234322071075439
2.06499743461608887 -2.12796473503112793 0.44495353102684021
-0.997799158096313477 0.783913314342498779 0.526208162307739258
2.36186075210571289 -2.28719282150268555 0.814822018146514893
1.33764004707336426 -0.196237042546272278 0.133340001106262207
0.0235058367252349854 1.34956264495849609 0.224797084927558899
1.1019437313079834 0.198208153247833252 0.845068812370300293
1.36190176010131836 -1.64461445808410645 0.468892723321914673
1.12044417858123779 -0.186867251992225647 0.568875908851623535
-0.634403884410858154 0.408082574605941772 0.0014247894287109375
-0.270555436611175537 1.07984817028045654 0.456157922744750977
0.541736960411071777 -0.850177466869354248 0.927595674991607666
1.55020630359649658 0.133005797863006592 0.58636099100112915
0.603721380233764648 0.748082339763641357 0.111924916505813599
0.744360804557800293 -0.822290003299713135 0.777585804462432861
0.848180413246154785 0.717031300067901611 0.526962459087371826
1.2875206470489502 -2.07405352592468262 1.00342977046966553
0.240079283714294434 1.1876227855682373 0.0926890745759010315
2.94445228576660156 -2.3357994556427002 0.774332344532012939
-0.129192009568214417 -1.06699776649475098 0.97733306884765625
2.51064252853393555 -2.65165495872497559 0.8716086745262146
1.26958000659942627 0.300583302974700928 0.446850746870040894
-0.134644478559494019 -1.061348557472229 0.484207272529602051
1.286346435546875 -1.95747435092926025 1.09372854232788086
0.93004298210144043 -0.636125922203063965 0.314271479845046997
2.73645710945129395 -2.70828461647033691 0.223778113722801208
1.4643559455871582 -1.9888225793838501 0.618402481079101562
0.150305360555648804 -1.01450884342193604 0.158813506364822388
1.52129793167114258 -0.0163580775260925293 0.577686190605163574
2.24586105346679688 -2.38868927955627441 -0.0406305789947509766
-0.28745386004447937 1.19664204120635986 0.230807214975357056
0.447935640811920166 1.17047309875488281 -0.156222999095916748
-0.0446682795882225037 -1.00281202793121338 0.620659887790679932
0.804805755615234375 -0.997293710708618164 0.298292011022567749
-0.0397471040487289429 -0.530422627925872803 0.340501576662063599
0.750624179840087891 1.14730870723724365 0.118451401591300964
2.5301520824432373 -2.44100594520568848 0.442622452974319458
-0.871536493301391602 0.807326018810272217 0.325959295034408569
1.21150374412536621 0.158891871571540833 0.740761816501617432
2.39828205108642578 -2.60016441345214844 0.710493266582489014
1.53809583187103271 -1.88987314701080322 0.333337366580963135
2.39141988754272461 -2.5279541015625 1.1818612813949585
-0.0606534183025360107 1.16385567188262939 0.313922464847564697
1.70745587348937988 0.426267951726913452 0.307900935411453247
0.449200093746185303 -0.730255961418151855 0.739569127559661865
1.40586721897125244 -2.17206168174743652 1.05599641799926758
0.641514778137207031 0.35414394736289978 0.428670436143875122
1.38863265514373779 0.0435812994837760925 0.271459221839904785
1.44122838973999023 0.225292503833770752 0.39146047830581665
2.11606860160827637 -2.29767775535583496 0.214435875415802002
-0.0705817192792892456 -0.826870441436767578 0.586817741394042969
1.44449853897094727 -1.88583314418792725 1.01107847690582275
-0.336371064186096191 -1.13329339027404785 0.876029372215270996
1.46651709079742432 -0.130366399884223938 0.414881408214569092
1.00552773475646973 1.05214095115661621 0.308794170618057251
0.651598155498504639 0.790062427520751953 0.312519252300262451
0.900397896766662598 1.16547095775604248 0.225164011120796204
-0.303127050399780273 0.462290644645690918 -0.15517018735408783
2.35625720024108887 -2.37246894836425781 0.60642850399017334
1.23008298873901367 -1.96475732326507568 0.154683828353881836
2.46452212333679199 -2.5071556568145752 0.270049154758453369
1.56829512119293213 -1.79190933704376221 0.578505754470825195
0.741494119167327881 -0.658135056495666504 0.965179979801177979
-0.0938361659646034241 1.39947199821472168 0.0791696235537528992
-0.145592674612998962 1.01336181163787842 0.296243160963058472
2.75300121307373047 -2.32271313667297363 0.388565272092819214
1.26741111278533936 -1.98124909400939941 0.346445202827453613
1.61623060703277588 -2.0009315013885498 0.256335020065307617
2.68012595176696777 -2.22534060478210449 0.169174060225486755
0.253463119268417358 -0.870487332344055176 0.779986679553985596
1.32517325878143311 -2.08952999114990234 0.547052741050720215
1.49658894538879395 -1.59874927997589111 0.53302919864654541
2.3869779109954834 -2.81402897834777832 1.1160423755645752
0.720627725124359131 0.676407158374786377 0.244227856397628784
-0.806682586669921875 0.843608558177947998 0.281094610691070557
1.10627233982086182 0.577330529689788818 0.353341668844223022
-0.198293000459671021 1.56178462505340576 0.143952712416648865
0.220603242516517639 -1.14000749588012695 0.759597063064575195
1.06733608245849609 1.01314711570739746 -0.387888789176940918
0.0499307513236999512 -0.751452744007110596 0.890752673149108887
1.8342815637588501 -1.74090456962585449 0.663949728012084961
2.30309748649597168 -2.71480655670166016 1.2113044261932373
1.20224642753601074 0.0174716431647539139 0.44339326024055481
1.23398292064666748 -0.0378909856081008911 0.712736845016479492
-0.231885194778442383 -1.2487492561340332 0.880526900291442871
0.993334591388702393 1.02041101455688477 0.158940166234970093
0.798052310943603516 1.34381794929504395 -0.0649268403649330139
1.70670473575592041 -1.59204936027526855 1.0934826135635376
2.53708028793334961 -2.44613456726074219 1.01522493362426758
2.65392565727233887 -2.4702606201171875 0.620358109474182129
0.690311133861541748 -0.617690682411193848 0.501125216484069824
1.2485506534576416 0.151602253317832947 0.64478147029876709
1.57339239120483398 -2.10519266128540039 0.559026181697845459
2.48553371429443359 -2.49005556106567383 0.819512784481048584
2.24799895286560059 -2.60448813438415527 0.457683205604553223
0.082042299211025238 1.21208643913269043 0.371266782283782959
-0.501788675785064697 0.809505224227905273 0.86459052562713623
-0.138495102524757385 -1.00063145160675049 0.870536327362060547
1.2526317834854126 -1.81397485733032227 0.592554211616516113
1.42068052291870117 -2.06282210350036621 0.974760651588439941
1.70319485664367676 0.0318073481321334839 0.458589613437652588
1.34812521934509277 0.128404706716537476 0.651143848896026611
0.263458967208862305 -0.824903309345245361 0.605946123600006104
1.62979996204376221 -1.91924893856048584 0.950414657592773438
-0.143596649169921875 -1.00669765472412109 0.944625258445739746
-0.236415237188339233 1.16901969909667969 0.228904694318771362
2.53625607490539551 -2.38829231262207031 0.141129463911056519
-0.088429376482963562 0.854503989219665527 -0.139078736305236816
0.152935415506362915 -1.56184232234954834 0.917971372604370117
-0.0379086285829544067 1.22634589672088623 0.640122413635253906
1.11955416202545166 0.00380303245037794113 0.500545620918273926
1.0055534839630127 1.01078414916992188 0.083301737904548645
0.746306061744689941 1.04165923595428467 0.417824029922485352
2.62764406204223633 -2.76618409156799316 0.163078531622886658
1.43087673187255859 0.259267657995223999 0.226966097950935364
1.32103800773620605 -1.75427126884460449 1.116402268409729
2.70690393447875977 -2.26137733459472656 0.808475792407989502
2.49575448036193848 -2.88693332672119141 0.182115852832794189
-0.547316610813140869 0.56487727165222168 -0.00302354246377944946
2.51801252365112305 -2.62801647186279297 1.06050801277160645
2.58582592010498047 -2.67663359642028809 1.09591031074523926
0.96493220329284668 0.842461109161376953 0.562113046646118164
0.688326060771942139 -0.760161697864532471 0.492980122566223145
0.25163733959197998 1.21191787719726562 0.357758998870849609
0.825578451156616211 -0.522724449634552002 0.812652468681335449
1.52319204807281494 0.302219957113265991 0.317486613988876343
1.37386679649353027 -2.09365367889404297 1.10161232948303223
1.43396389484405518 0.373947679996490479 0.287547677755355835
1.40519416332244873 0.383742034435272217 0.623493671417236328
-0.670381724834442139 0.947090268135070801 0.188437774777412415
-0.309995502233505249 -1.22760462760925293 0.804795503616333008
-0.241231322288513184 -1.23264908790588379 0.429920107126235962
0.0625669509172439575 -1.05723297595977783 0.828846871852874756
2.35016894340515137 -2.3387451171875 0.723283231258392334
2.58685684204101562 -2.52820205688476562 0.673614919185638428
0.895618259906768799 0.981622099876403809 0.123373620212078094
1.3022000789642334 -2.19027543067932129 0.584704399108886719
0.0195996686816215515 -1.15157783031463623 0.73387455940246582
2.49224019050598145 -2.63558721542358398 0.862522125244140625
-0.935695648193359375 0.659885048866271973 0.480386286973953247
