ply
format ascii 1.0
element vertex 256
comment vertices
property float x
property float y
property float z
end_header
1.00921368598937988 -0.300033777952194214 0.419503867626190186
-1.38549911975860596 0.298591971397399902 -0.0343820452690124512
1.11182785034179688 1.71793949604034424 0.126669585704803467
0.661602020263671875 -1.86898434162139893 0.792576432228088379
2.26918983459472656 -1.23856544494628906 0.346778601408004761
-0.363352775573730469 -0.709911465644836426 -0.272800832986831665
0.226724967360496521 0.790729701519012451 0.362751215696334839
-0.21300816535949707 -1.16288304328918457 0.753584325313568115
-0.772468924522399902 1.19492661952972412 0.120730474591255188
0.688446998596191406 -1.23262012004852295 -0.0598668158054351807
-0.449398159980773926 0.0441454946994781494 0.644981026649475098
1.27522444725036621 0.704717338085174561 0.201021313667297363
0.711230218410491943 0.108179986476898193 -0.384166985750198364
0.824263572692871094 1.26707935333251953 0.841445744037628174
-1.23423051834106445 -0.719523429870605469 -0.104471147060394287
1.48438239097595215 -0.978597879409790039 0.24060899019241333
-1.09183454513549805 0.696641087532043457 0.660523772239685059
0.288384050130844116 -0.399329304695129395 0.16289202868938446
-0.794925928115844727 -0.131539046764373779 -0.0336824208498001099
1.51387166976928711 1.22789788246154785 0.613635897636413574
1.64533829689025879 1.36393976211547852 -0.0938293337821960449
-0.592927813529968262 -0.806751430034637451 0.362310111522674561
1.99201703071594238 -0.679484844207763672 -0.0147292958572506905
0.363103210926055908 0.210885405540466309 0.150096908211708069
1.33775210380554199 -0.459691941738128662 -0.0596592426300048828
0.391921877861022949 -1.6283266544342041 0.316329658031463623
-1.0834585428237915 0.141193792223930359 0.439581096172332764
0.801883041858673096 0.595615625381469727 0.504565894603729248
-0.321034431457519531 -0.307720154523849487 0.213868007063865662
0.689701557159423828 0.961429595947265625 0.0969679802656173706
-0.558497726917266846 0.598709583282470703 0.567928016185760498
-0.929680049419403076 0.673905074596405029 0.114686101675033569
-1.24130833148956299 -0.189521819353103638 -0.333392322063446045
0.833852887153625488 -0.60739290714263916 -0.0277238190174102783
1.10674059391021729 1.23411452770233154 0.292844891548156738
1.5965728759765625 -0.317792385816574097 0.356330990791320801
0.182686194777488708 0.446910351514816284 0.718850910663604736
0.116337418556213379 -0.462826013565063477 -0.296883165836334229
-1.30991649627685547 -0.241876006126403809 0.150325030088424683
1.16918575763702393 0.890997409820556641 0.701505661010742188
0.738485336303710938 -0.0952160954475402832 0.0810525417327880859
1.87025344371795654 -1.02770423889160156 0.469956636428833008
0.071180880069732666 -0.972963392734527588 0.460737496614456177
0.689969182014465332 -1.27863335609436035 0.367707610130310059
-0.873850464820861816 -0.372433602809906006 0.312361210584640503
1.45949745178222656 1.52158570289611816 0.309085965156555176
0.278362929821014404 -1.27827775478363037 0.106024861335754395
-0.954442262649536133 1.09271407127380371 0.482352256774902344
-0.548213601112365723 1.00764644145965576 0.490392744541168213
0.665830254554748535 -0.0950986221432685852 0.498495697975158691
-0.49768298864364624 0.155398458242416382 0.264601349830627441
-0.65583336353302002 -0.500449776649475098 -0.0460708737373352051
0.470358073711395264 -0.642097711563110352 -0.152191966772079468
-0.190327823162078857 -0.652419567108154297 0.325894296169281006
2.02093338966369629 -1.08114588260650635 0.101026967167854309
-0.876316487789154053 0.386036098003387451 0.707161784172058105
0.358913600444793701 0.227106750011444092 -0.216496646404266357
0.979865312576293945 0.273931115865707397 -0.199148684740066528
0.418105959892272949 -0.954954743385314941 0.0207479596138000488
1.18718719482421875 -0.162050098180770874 0.141656816005706787
-1.08627986907958984 0.0318930447101593018 0.0926279649138450623
0.492607563734054565 0.671042799949645996 0.0944198369979858398
2.21293020248413086 -0.767431497573852539 0.238968774676322937
1.66590070724487305 1.19641387462615967 0.208011478185653687
-0.996536850929260254 -0.389591038227081299 -0.144059211015701294
0.586822569370269775 -0.417659580707550049 0.33285224437713623
-0.742527008056640625 0.125949710607528687 0.489965140819549561
1.13749194145202637 1.21696078777313232 0.669487595558166504
0.203985214233398438 -0.696373999118804932 0.0329686254262924194
-1.04682421684265137 0.465179949998855591 0.338155061006546021
-0.150258481502532959 -0.696562469005584717 -0.0306447744369506836
1.73488020896911621 -0.808619320392608643 0.137466132640838623
-0.805535554885864258 0.810562789440155029 0.374479562044143677
0.78838503360748291 0.899093568325042725 0.409346610307693481
0.427912354469299316 -0.129377484321594238 0.0820086002349853516
0.75073772668838501 -1.51096451282501221 0.168496459722518921
0.951124668121337891 -0.00122635066509246826 0.393234431743621826
-0.403010547161102295 -0.367241144180297852 -0.14971509575843811
1.33624053001403809 -0.459332436323165894 0.244306832551956177
-1.02727735042572021 0.958136677742004395 0.0877896398305892944
0.16026519238948822 0.482066482305526733 0.422914206981658936
1.19045400619506836 1.02160787582397461 0.10305371880531311
-0.918402910232543945 -0.029628068208694458 0.666945695877075195
0.572526872158050537 0.503553509712219238 0.34950178861618042
1.41118550300598145 1.49721324443817139 0.0263030901551246643
-0.0864623785018920898 -0.28235924243927002 0.0528561323881149292
-0.961458086967468262 -0.103166341781616211 0.304920554161071777
0.738481223583221436 1.00665438175201416 0.902264714241027832
0.342334121465682983 -1.36856198310852051 0.402232229709625244
0.802206039428710938 0.719227850437164307 0.0371539220213890076
0.349432110786437988 -0.401007711887359619 -0.113246411085128784
-0.60963284969329834 0.335570663213729858 0.612619519233703613
0.898855209350585938 -0.29657319188117981 0.15944315493106842
0.479646086692810059 0.00294160190969705582 0.307841300964355469
-0.431444227695465088 -0.558685958385467529 0.0803376138210296631
-0.642946004867553711 -0.315088778734207153 0.198118194937705994
1.49989163875579834 -0.246793031692504883 0.121593080461025238
1.39782261848449707 1.21733689308166504 0.378515303134918213
0.100689977407455444 -0.190062060952186584 0.211097434163093567
1.95610165596008301 -0.832668185234069824 0.273802697658538818
-1.05438852310180664 0.733932018280029297 0.3801555335521698
1.16595852375030518 1.45785641670227051 0.174211487174034119
0.613045811653137207 -0.306980609893798828 0.000609487295150756836
-0.332890629768371582 0.00844368338584899902 0.419876158237457275
0.918313443660736084 0.904073476791381836 0.695727229118347168
-0.722211182117462158 1.03813409805297852 0.313456505537033081
-1.05530297756195068 -0.215249538421630859 0.101175278425216675
0.693305611610412598 0.114723183214664459 -0.0426084920763969421
-1.05541312694549561 0.236313909292221069 -0.0421292930841445923
-0.849994421005249023 0.391678988933563232 0.461948990821838379
1.10195279121398926 -0.459132730960845947 0.180389642715454102
1.19391655921936035 1.38526773452758789 0.458200395107269287
2.18926024436950684 -1.02515602111816406 0.272275447845458984
0.514565467834472656 -1.39601647853851318 -0.0522962212562561035
1.32590341567993164 -0.351599574089050293 0.45709073543548584
0.597471654415130615 -1.01877593994140625 -0.119112551212310791
0.854869365692138672 -1.1352461576461792 0.0759576410055160522
0.589710712432861328 -0.200965315103530884 0.2424946129322052
-1.02858996391296387 -0.663743376731872559 -0.00695620477199554443
-1.23899197578430176 0.0324284136295318604 0.268522143363952637
0.447726219892501831 -1.43629288673400879 0.197595655918121338
0.230309128761291504 -0.012305140495300293 0.055670272558927536
0.647014379501342773 1.06100142002105713 0.333875775337219238
-0.409818708896636963 -0.73294365406036377 0.250605165958404541
0.341398477554321289 0.596701979637145996 0.343659728765487671
0.695573687553405762 1.16023695468902588 0.689751863479614258
0.468499124050140381 0.112335056066513062 -0.0530636310577392578
-0.795669496059417725 0.576340019702911377 0.61994469165802002
0.752708971500396729 0.0645557045936584473 0.236851632595062256
-1.13323915004730225 0.560448169708251953 0.159419968724250793
1.61028647422790527 1.30606794357299805 0.390090882778167725
-0.448599368333816528 0.244614571332931519 0.457709670066833496
1.48914587497711182 1.31219112873077393 0.153975561261177063
0.575519979000091553 -0.517757236957550049 0.0386744290590286255
1.35906708240509033 1.11981725692749023 0.718910157680511475
1.64785778522491455 -1.04833459854125977 0.362997353076934814
1.03141593933105469 1.22431111335754395 0.091580025851726532
-0.992517411708831787 0.939835786819458008 0.299271643161773682
-0.388889998197555542 -0.0171735882759094238 0.198396801948547363
-0.775687456130981445 -0.0604045838117599487 0.167528480291366577
-1.06736934185028076 0.912206709384918213 0.499504625797271729
-0.956937730312347412 0.127511799335479736 0.268442064523696899
1.33996176719665527 -0.214687749743461609 0.280135303735733032
0.710335671901702881 0.711069643497467041 0.350714445114135742
0.948198080062866211 -0.0416552573442459106 0.185411512851715088
0.50417017936706543 -1.17465353012084961 0.0267543867230415344
-0.634570181369781494 0.643704831600189209 0.375861167907714844
1.56628525257110596 1.09312224388122559 0.366281747817993164
1.16775751113891602 1.09680080413818359 0.837942421436309814
2.20599365234375 -0.854362845420837402 0.0492886379361152649
1.25027322769165039 1.09000790119171143 0.452864855527877808
1.93967866897583008 -0.894755959510803223 0.0572757571935653687
0.859865725040435791 0.796619892120361328 0.219575315713882446
0.559576630592346191 0.065272897481918335 0.125041395425796509
-1.16842484474182129 -0.154821038246154785 0.314195185899734497
1.31865417957305908 1.30008518695831299 0.596332311630249023
-1.36964070796966553 -0.0560494363307952881 0.0910301059484481812
-0.320729732513427734 -0.811221480369567871 0.416357576847076416
-1.25924968719482422 0.322184562683105469 0.121356450021266937
0.972687125205993652 1.40157711505889893 0.184347659349441528
0.863959312438964844 0.238929986953735352 -0.377223581075668335
0.843743622303009033 -0.155017316341400146 0.313195765018463135
0.527232229709625244 0.862774014472961426 0.14995381236076355
0.347421705722808838 -1.57893168926239014 0.107373356819152832
0.785733997821807861 0.780342340469360352 0.567529857158660889
0.989649057388305664 1.34182119369506836 0.661461770534515381
1.71607851982116699 -1.17210483551025391 0.492904126644134521
0.660816967487335205 -1.08355498313903809 0.089919358491897583
1.80826818943023682 -0.790104448795318604 -0.0344590768218040466
0.395431369543075562 -0.649647176265716553 0.0197905004024505615
0.635724306106567383 0.622845649719238281 0.204942986369132996
1.16272962093353271 1.02147507667541504 0.304186224937438965
1.06832218170166016 1.04208016395568848 0.673432469367980957
-0.855881333351135254 -0.322608470916748047 -0.047458946704864502
0.542861342430114746 -0.0807465612888336182 -0.0519501380622386932
0.960172295570373535 -0.739435553550720215 -0.0351913124322891235
0.256543248891830444 -0.192125514149665833 0.0879222899675369263
-1.19948458671569824 -0.105249300599098206 0.0471479557454586029
1.89718961715698242 -1.06614840030670166 0.294111371040344238
0.679558634757995605 0.890073120594024658 0.263972967863082886
-0.905354440212249756 0.634931445121765137 0.410418808460235596
0.608160138130187988 -1.41578364372253418 0.113897494971752167
1.08735311031341553 -0.147833406925201416 0.29020613431930542
0.477479815483093262 0.825152575969696045 -0.0172419287264347076
0.248856812715530396 -1.23923218250274658 0.275377780199050903
0.872507274150848389 -1.40940821170806885 0.0927417129278182983
1.21398234367370605 -0.327816545963287354 0.210326045751571655
-0.853781163692474365 -0.168365389108657837 0.425970971584320068
1.34042823314666748 1.47582638263702393 0.42786639928817749
0.483015298843383789 -1.46843600273132324 0.422002643346786499
-1.02380776405334473 0.460599422454833984 0.654982328414916992
-0.50411224365234375 -0.461643785238265991 0.20249330997467041
1.21718299388885498 1.57557713985443115 0.288768470287322998
-0.818244338035583496 0.972955703735351562 0.439908683300018311
-0.757673799991607666 0.0270531028509140015 0.350894957780838013
-0.58533167839050293 0.17975383996963501 0.545930624008178711
-0.867966771125793457 1.14098119735717773 0.342683017253875732
0.615786254405975342 -0.374746561050415039 0.157722845673561096
0.434305399656295776 -0.158353030681610107 0.340963065624237061
1.34691810607910156 1.40187358856201172 0.263592660427093506
2.07413458824157715 -0.820172488689422607 0.151647299528121948
0.272017419338226318 -0.568507909774780273 -0.0633438080549240112
-0.737595915794372559 0.797770440578460693 0.5279884934425354
-0.685368180274963379 0.521911740303039551 0.480273723602294922
1.52704346179962158 1.07003891468048096 0.526826739311218262
-1.03218817710876465 -0.119603171944618225 -0.032790057361125946
0.98408973217010498 1.17313539981842041 0.729211688041687012
1.49896407127380371 1.40581464767456055 0.460157275199890137
0.878663420677185059 -0.449948012828826904 -0.0473737567663192749
0.367269694805145264 0.0310800075531005859 0.135379329323768616
1.58660030364990234 1.43031644821166992 0.0950155258178710938
1.03691947460174561 -0.32501646876335144 0.260008722543716431
-0.900725305080413818 -0.182586014270782471 -0.147675827145576477
0.305273056030273438 -1.14394760131835938 0.0170117393136024475
-1.09006679058074951 -0.330016791820526123 0.21102510392665863
1.61588585376739502 -0.891017436981201172 0.337346017360687256
0.635878324508666992 -0.0459371805191040039 0.256028831005096436
0.634548008441925049 0.732885658740997314 0.0495453327894210815
-1.09458553791046143 0.18265184760093689 0.206113994121551514
1.49228191375732422 -0.184535056352615356 0.321740627288818359
0.489333808422088623 0.656855344772338867 0.328556954860687256
-0.634661436080932617 1.16600418090820312 0.0444723479449748993
-0.955540657043457031 0.2468443363904953 0.375204652547836304
-1.14530372619628906 0.385288476943969727 0.435849845409393311
0.878949284553527832 0.366080522537231445 -0.280293524265289307
0.839193046092987061 -0.14779643714427948 -0.0293888598680496216
0.398681432008743286 -1.26744604110717773 -0.0462014749646186829
-0.697326123714447021 0.33587801456451416 0.481363952159881592
-0.916143596172332764 0.00666212290525436401 0.143090799450874329
1.19710075855255127 -0.210536077618598938 0.38343346118927002
0.492441713809967041 -0.32851111888885498 0.241594105958938599
1.04578125476837158 1.35534405708312988 0.420866280794143677
0.682721972465515137 -1.23702573776245117 0.100445583462715149
2.03415226936340332 -0.996491372585296631 0.230338692665100098
0.680705130100250244 -0.152974262833595276 -0.0486025065183639526
1.87004637718200684 -0.703003406524658203 0.0745016783475875854
0.382301837205886841 -1.3034055233001709 0.233902543783187866
1.21538746356964111 -0.55825883150100708 0.160656899213790894
1.23413395881652832 1.01103496551513672 0.635026931762695312
-0.509605586528778076 -0.674763083457946777 0.152842134237289429
-0.647891581058502197 0.77978813648223877 0.312261104583740234
-1.16907048225402832 -0.584142684936523438 -0.102712064981460571
0.756153345108032227 1.35874974727630615 0.743976831436157227
-0.943649709224700928 0.708827674388885498 0.660708367824554443
0.757287323474884033 -0.189496204257011414 0.197280853986740112
1.21585118770599365 -0.434397786855697632 0.327769935131072998
-0.462342977523803711 -0.421699464321136475 0.0318243801593780518
0.573748350143432617 -0.101262390613555908 0.0917739421129226685
1.12512874603271484 1.108451247215271 0.525775134563446045
1.23730456829071045 1.2467350959777832 0.463436216115951538
-0.928293347358703613 -0.163579821586608887 0.148055806756019592
1.4090496301651001 -0.46952509880065918 0.46402740478515625
-0.980372369289398193 0.0678386092185974121 0.504044055938720703
-0.69100642204284668 0.480509340763092041 0.618255913257598877
0.693922102451324463 -1.35660183429718018 0.00874222815036773682
0.628501296043395996 0.765279829502105713 0.220575124025344849
