ply
format ascii 1.0
element vertex 6
comment vertices
property float x
property float y
property float z
end_header
-0.760249137878417969 0.845320641994476318 0.219813942909240723
-0.541929125785827637 0.575985491275787354 0.431218415498733521
-0.711913764476776123 0.498524725437164307 0.133968785405158997
-0.50568842887878418 0.791561007499694824 0.299520909786224365
-0.778525471687316895 0.565016329288482666 0.366549044847488403
-0.714025259017944336 0.705856144428253174 0.197168499231338501
