ply
format ascii 1.0
element vertex 32
comment vertices
property float x
property float y
property float z
end_header
1.40420722961425781 1.64173901081085205 0.85685431957244873
2.2886042594909668 -3.18783712387084961 -0.00251371413469314575
0.480979949235916138 -1.36127018928527832 1.41964340209960938
-0.222580373287200928 0.223845362663269043 2.22659492492675781
1.70477008819580078 -0.248829051852226257 0.575492441654205322
1.0709226131439209 3.07819700241088867 1.91273856163024902
1.69963979721069336 -1.8128969669342041 0.548583626747131348
0.571893453598022461 2.80820178985595703 0.353083521127700806
1.49724411964416504 0.587246894836425781 1.84591054916381836
0.11061251163482666 -0.098355025053024292 0.838338315486907959
1.18820357322692871 0.629510283470153809 -0.0829154849052429199
0.251652956008911133 2.28239965438842773 1.35255002975463867
1.66396236419677734 -0.725004792213439941 1.62509489059448242
0.38253098726272583 0.956533312797546387 0.966844856739044189
2.12845516204833984 0.822919368743896484 0.781467080116271973
1.8325875997543335 -2.2268366813659668 -0.379324376583099365
0.970502257347106934 -1.00252211093902588 0.627676963806152344
0.941102385520935059 -0.153537452220916748 1.30892348289489746
0.101685285568237305 -0.533240139484405518 1.7098686695098877
1.22229599952697754 2.49121332168579102 1.19367671012878418
1.5546104907989502 1.48597300052642822 -0.0685099512338638306
0.436390340328216553 0.407973706722259521 1.69653916358947754
0.898144721984863281 -1.98913383483886719 0.570451080799102783
0.83815687894821167 1.96999025344848633 0.37327885627746582
1.31891012191772461 0.824442148208618164 0.777734994888305664
1.79335784912109375 0.0110484659671783447 1.27573144435882568
2.02429580688476562 -2.51373791694641113 0.284453749656677246
2.0575406551361084 1.51494359970092773 1.18751239776611328
1.77811014652252197 -0.937284409999847412 0.447616130113601685
0.916078567504882812 -0.776122748851776123 1.63062858581542969
1.22173511981964111 2.59505867958068848 0.202361717820167542
2.06175947189331055 0.671605050563812256 0.107167214155197144
