ply
format ascii 1.0
element vertex 32
comment vertices
property float x
property float y
property float z
end_header
0.0369816683232784271 2.21942281723022461 0.113072946667671204
2.90143775939941406 -2.54867744445800781 0.0677754431962966919
-0.461060076951980591 -1.89030325412750244 -1.14909934997558594
1.549765944480896 -0.150803327560424805 0.466953575611114502
0.630011379718780518 0.313560456037521362 -0.54986947774887085
-0.224723726511001587 -0.9332694411277771 0.447409510612487793
-0.634998679161071777 1.7822108268737793 -1.6040722131729126
-1.1056976318359375 0.449708163738250732 -0.0440921783447265625
2.67213249206542969 -1.30712974071502686 0.593071043491363525
1.46220982074737549 -1.9591214656829834 -0.0284010469913482666
0.362819939851760864 0.853894829750061035 0.349551379680633545
1.29094910621643066 1.43707573413848877 0.0366266146302223206
1.84155106544494629 -0.67001795768737793 -0.373636007308959961
0.646532773971557617 2.73984193801879883 -0.285531699657440186
1.87762916088104248 -1.01964056491851807 -0.175623834133148193
-0.572928905487060547 0.780783891677856445 0.460527032613754272
1.95787441730499268 -1.80521786212921143 0.636514663696289062
0.572134613990783691 -0.347990244626998901 -0.114890843629837036
0.432920932769775391 1.46274721622467041 0.379754245281219482
-0.209619268774986267 0.00151203572750091553 -0.33078312873840332
-0.632990479469299316 0.831813573837280273 -0.239617764949798584
1.44471526145935059 -2.81854510307312012 0.00783900916576385498
0.593881607055664062 1.17740070819854736 -0.317809045314788818
0.38989180326461792 -1.46091985702514648 -1.228554368019104
-0.298132836818695068 -1.20897364616394043 -0.0346030890941619873
2.48058772087097168 -1.96782207489013672 -0.419110894203186035
0.771602630615234375 0.745725274085998535 0.467971146106719971
0.311738699674606323 0.763391852378845215 -0.264074057340621948
1.76474893093109131 0.046514514833688736 0.196780890226364136
0.0524439960718154907 3.0844731330871582 0.0772512555122375488
0.356331229209899902 -0.834568262100219727 -0.643084943294525146
0.655972719192504883 2.02250933647155762 -0.393624782562255859
