ply
format ascii 1.0
element vertex 31
comment vertices
property float x
property float y
property float z
end_header
2.23311829566955566 -0.573374748229980469 0.959401965141296387
-2.74824833869934082 -3.80069088935852051 -0.0835085287690162659
-2.30225801467895508 2.0987396240234375 -0.938345193862915039
-1.05944514274597168 -0.918361842632293701 0.141621410846710205
-2.72252535820007324 -1.31243383884429932 -1.46546971797943115
0.0998369455337524414 1.15315723419189453 -0.229402497410774231
1.26918363571166992 -2.67676496505737305 0.0597442388534545898
-2.00483012199401855 -2.18023586273193359 -0.826385617256164551
0.370532035827636719 -1.72294139862060547 0.970032930374145508
0.606602191925048828 -0.112116515636444092 -0.15833069384098053
-1.0816962718963623 1.54622912406921387 -0.0954323709011077881
-0.406405150890350342 0.260307520627975464 -0.217601507902145386
2.31615161895751953 -1.92649722099304199 0.160443097352981567
1.80093181133270264 -1.38776051998138428 1.01792824268341064
-0.0853416174650192261 -0.319448173046112061 0.93284231424331665
-0.94683760404586792 2.54005122184753418 -0.683699965476989746
-1.85642731189727783 1.26901912689208984 -0.083196595311164856
1.36487495899200439 -0.696635007858276367 0.164671540260314941
2.36640572547912598 -2.70508694648742676 0.281796514987945557
-2.37708520889282227 -1.57269096374511719 -0.828765273094177246
-3.01584053039550781 -2.79718303680419922 -0.186804205179214478
-0.454833537340164185 -1.61106717586517334 0.342457443475723267
1.37521398067474365 -1.89319419860839844 0.156115099787712097
0.981841087341308594 0.4506186842918396 -0.240794315934181213
-2.47078895568847656 -0.555059850215911865 -1.1210322380065918
-0.255755126476287842 1.072501540184021 -0.734428167343139648
-0.575142621994018555 -0.670853793621063232 -0.298458993434906006
-0.139316529035568237 1.2154916524887085 -0.338866204023361206
-1.4859318733215332 1.46329629421234131 -0.803059279918670654
-1.33831703662872314 1.86217224597930908 -0.338154494762420654
-2.62614941596984863 -2.14090251922607422 -0.775902748107910156
