ply
format ascii 1.0
element vertex 256
comment vertices
property float x
property float y
property float z
end_header
-0.818567395210266113 -0.568212389945983887 0.0543481223285198212
1.31708168983459473 1.49388635158538818 0.174674674868583679
-0.258212685585021973 0.947505712509155273 0.328018009662628174
0.013806760311126709 -1.99311816692352295 0.373720645904541016
-2.00619983673095703 -0.0287830829620361328 0.123883485794067383
-0.861496150493621826 -1.81342470645904541 0.265696048736572266
0.607632339000701904 0.783207058906555176 0.0537440329790115356
-1.83165156841278076 -0.771939754486083984 0.168790385127067566
0.121681690216064453 -0.986893594264984131 0.0589683391153812408
-1.00034308433532715 0.105464667081832886 0.487257599830627441
-0.83173060417175293 -1.81574869155883789 0.271401405334472656
-2.00343966484069824 -0.034549955278635025 0.114298686385154724
-0.2498055100440979 0.973623692989349365 0.341486632823944092
-1.00560593605041504 0.10946933925151825 0.456063836812973022
0.0205598697066307068 -2.00867152214050293 0.379267185926437378
1.33335709571838379 1.49829447269439697 0.174043744802474976
-0.809309601783752441 -1.80964255332946777 0.253001630306243896
0.144599780440330505 -0.98735123872756958 0.058012254536151886
-0.80217587947845459 -1.78882861137390137 0.261924445629119873
1.32395625114440918 1.49669241905212402 0.18183329701423645
0.0246993005275726318 -2.00742363929748535 0.380831509828567505
-1.82824397087097168 -0.815007209777832031 0.180995583534240723
-0.259228646755218506 0.952947914600372314 0.331678330898284912
-1.00331592559814453 0.107868261635303497 0.493366599082946777
-0.821413099765777588 -1.8109738826751709 0.266025424003601074
-0.267970830202102661 0.964283943176269531 0.329746067523956299
0.627193927764892578 0.779651284217834473 0.0417906492948532104
-2.01995491981506348 -0.0379997938871383667 0.133754223585128784
0.00747266411781311035 -2.00006580352783203 0.379764974117279053
-1.00691795349121094 0.12489994615316391 0.504341423511505127
-0.823150038719177246 -0.569594860076904297 0.0589050352573394775
1.33139729499816895 1.49264693260192871 0.169994622468948364
-0.247911363840103149 0.94100034236907959 0.328140437602996826
-0.991529166698455811 0.0996132194995880127 0.48173058032989502
0.623453438282012939 0.795354247093200684 0.0432373285293579102
0.132585883140563965 -0.980640590190887451 0.0582666918635368347
0.0181134790182113647 -2.01643133163452148 0.374173402786254883
0.144569963216781616 -1.00091934204101562 0.0584774799644947052
-0.8404274582862854 -1.8217233419418335 0.262918800115585327
0.014232337474822998 -1.99896895885467529 0.376821160316467285
1.34080362319946289 1.49566113948822021 0.1752023845911026
0.0222637206315994263 -2.00860047340393066 0.389116346836090088
-1.83157289028167725 -0.785272896289825439 0.156882956624031067
-0.271852791309356689 0.961195230484008789 0.332144111394882202
-0.861554265022277832 -1.82036983966827393 0.263763636350631714
-0.269349187612533569 0.951101064682006836 0.32901957631111145
-0.99785006046295166 0.0848958641290664673 0.461322277784347534
-1.00060725212097168 0.108820386230945587 0.47676926851272583
-0.815866947174072266 -1.7853771448135376 0.267400562763214111
1.35640203952789307 1.49509680271148682 0.174224942922592163
-2.00558710098266602 -0.0236156880855560303 0.126173019409179688
-0.819716930389404297 -0.549582302570343018 0.0494581758975982666
-0.991410434246063232 0.118406251072883606 0.474021106958389282
-0.267531692981719971 0.957579731941223145 0.333981841802597046
0.620366871356964111 0.77308201789855957 0.0352349169552326202
-1.83252322673797607 -0.774132728576660156 0.158173933625221252
-0.839647829532623291 -1.81933259963989258 0.262881964445114136
-0.82812798023223877 -1.81049203872680664 0.248282402753829956
-0.999936759471893311 0.0998392552137374878 0.48952406644821167
0.0183877795934677124 -1.99859035015106201 0.375320136547088623
-0.257690072059631348 0.960999965667724609 0.326462894678115845
-1.81999385356903076 -0.736642241477966309 0.206559658050537109
-2.01202297210693359 -0.0344385504722595215 0.11991351842880249
1.32780587673187256 1.49209129810333252 0.192418381571769714
1.31705844402313232 1.50240921974182129 0.173977881669998169
-0.265009313821792603 0.95798027515411377 0.331916093826293945
1.32294070720672607 1.49493062496185303 0.178918689489364624
-0.810010552406311035 -0.571062326431274414 0.0533558428287506104
-1.00377392768859863 0.110287442803382874 0.480087399482727051
-0.816628694534301758 -0.575171709060668945 0.0563379228115081787
-2.00528812408447266 -0.0229433178901672363 0.116574965417385101
-2.03446507453918457 -0.0210735350847244263 0.124137073755264282
0.018898889422416687 -1.99646222591400146 0.373451352119445801
-0.988432943820953369 0.100607931613922119 0.481875777244567871
-0.262077510356903076 0.965274155139923096 0.329201012849807739
-0.855259895324707031 -1.80446982383728027 0.255113750696182251
-0.814812660217285156 -1.82923150062561035 0.260939151048660278
-2.0194087028503418 -0.0264114439487457275 0.126021638512611389
-0.830367088317871094 -1.80780363082885742 0.265786081552505493
0.0107388831675052643 -2.00031280517578125 0.383294165134429932
-1.82558465003967285 -0.807254135608673096 0.16251373291015625
-0.799633383750915527 -1.8197789192199707 0.258963167667388916
1.33102405071258545 1.50723171234130859 0.168955147266387939
-1.82943081855773926 -0.791848182678222656 0.157632455229759216
0.615971624851226807 0.791912853717803955 0.0450806356966495514
0.136562854051589966 -0.989253580570220947 0.0534151755273342133
-1.83886563777923584 -0.76318812370300293 0.157612055540084839
0.0217442475259304047 -2.00530076026916504 0.365161985158920288
-1.00477838516235352 0.115831255912780762 0.472941040992736816
-0.83350062370300293 -1.82681667804718018 0.272517234086990356
-0.252337276935577393 0.963068962097167969 0.336189806461334229
-0.835729002952575684 -1.81107580661773682 0.270839035511016846
-2.01704883575439453 -0.0301736891269683838 0.127237319946289062
1.29436838626861572 1.50152266025543213 0.163350209593772888
-0.259986698627471924 0.954138219356536865 0.323720037937164307
-0.813087999820709229 -0.56738591194152832 0.0569722950458526611
1.3449857234954834 1.49027812480926514 0.185597360134124756
1.34190428256988525 1.49868297576904297 0.174361914396286011
-1.89652919769287109 -0.676789402961730957 0.262588918209075928
-2.0031585693359375 -0.0440443754196166992 0.111361004412174225
1.34130716323852539 1.49105644226074219 0.171793669462203979
-1.83426201343536377 -0.783302426338195801 0.166550442576408386
-0.846650242805480957 -1.81437361240386963 0.257509231567382812
-0.259704142808914185 0.963563203811645508 0.33545684814453125
-0.991180658340454102 0.0960981249809265137 0.484387695789337158
1.32423305511474609 1.49164688587188721 0.177180379629135132
1.32163071632385254 1.49279403686523438 0.186110854148864746
-0.265183925628662109 0.943153262138366699 0.333650112152099609
0.0197264328598976135 -2.00094771385192871 0.379676699638366699
-2.02721953392028809 -0.0145297311246395111 0.126047804951667786
0.127216905355453491 -0.983829736709594727 0.0581513866782188416
-0.833010375499725342 -1.82435333728790283 0.256551533937454224
-0.989235401153564453 0.0968981832265853882 0.470129013061523438
0.0175494328141212463 -2.00470924377441406 0.375416159629821777
-0.849672913551330566 -1.83344268798828125 0.266363322734832764
0.0161553621292114258 -1.9983755350112915 0.381057411432266235
-1.99659419059753418 -0.0414419472217559814 0.117742739617824554
-0.992513656616210938 0.102623790502548218 0.492304354906082153
-1.8296048641204834 -0.794470846652984619 0.181434661149978638
0.0216831862926483154 -2.00957679748535156 0.381438672542572021
-0.852298200130462646 -1.82042455673217773 0.25240778923034668
-1.83694541454315186 -0.771120309829711914 0.158915653824806213
-0.265500843524932861 0.951300740242004395 0.324115335941314697
0.010498635470867157 -1.99938225746154785 0.382088690996170044
-0.820734560489654541 -0.574290215969085693 0.0507952719926834106
-1.83213615417480469 -0.751951992511749268 0.162054926156997681
-2.01338529586791992 -0.0239161401987075806 0.0996972322463989258
-1.00355231761932373 0.106586039066314697 0.475955307483673096
0.0174320489168167114 -2.018646240234375 0.381941825151443481
1.31635892391204834 1.50203001499176025 0.171399727463722229
0.611506283283233643 0.782295525074005127 0.0450679659843444824
-0.833703458309173584 -1.83263838291168213 0.247608304023742676
-0.807397007942199707 -1.8315662145614624 0.254873812198638916
0.0136076509952545166 -2.00100541114807129 0.392208904027938843
-2.01325368881225586 -0.0161011368036270142 0.121151365339756012
-0.808129370212554932 -0.570323944091796875 0.0563198328018188477
-1.99935376644134521 -0.0244702808558940887 0.120428755879402161
-0.99835282564163208 0.0935311168432235718 0.495411515235900879
-0.850330710411071777 -1.81496548652648926 0.266469955444335938
-0.845437169075012207 -1.79941582679748535 0.265576839447021484
1.33983445167541504 1.50710809230804443 0.172743856906890869
-2.01736164093017578 -0.0282049626111984253 0.128119155764579773
1.31883180141448975 1.49775230884552002 0.176114886999130249
-0.842149972915649414 -1.80287742614746094 0.25391089916229248
-0.828928589820861816 -1.81753480434417725 0.257587164640426636
-0.260975301265716553 0.973201394081115723 0.335806518793106079
-0.266738831996917725 0.953170955181121826 0.335211098194122314
-0.260674268007278442 0.958818793296813965 0.323041051626205444
-0.841813623905181885 -1.8244251012802124 0.26045796275138855
0.61677098274230957 0.789772093296051025 0.0445452556014060974
0.615790963172912598 0.793646931648254395 0.038355022668838501
-0.998516678810119629 0.106688983738422394 0.483655810356140137
0.130065739154815674 -0.991974055767059326 0.0618989616632461548
-0.842681884765625 -1.82262837886810303 0.262016355991363525
0.0215531587600708008 -1.99257206916809082 0.377786576747894287
-0.267009913921356201 0.94711768627166748 0.344128847122192383
-0.262394905090332031 0.95253145694732666 0.325962543487548828
-1.83447825908660889 -0.778482913970947266 0.157323554158210754
-0.264219880104064941 0.960204541683197021 0.338210970163345337
-2.00182056427001953 -0.0285207796841859818 0.118706688284873962
1.30086123943328857 1.49849677085876465 0.176910907030105591
-0.799870014190673828 -1.81102573871612549 0.256372004747390747
-0.997964978218078613 0.104331061244010925 0.489186763763427734
0.131642580032348633 -0.981812953948974609 0.0628308504819869995
-0.844849705696105957 -1.82184827327728271 0.271277248859405518
-0.844184398651123047 -1.8049473762512207 0.265660256147384644
-0.265276342630386353 0.949746131896972656 0.333281725645065308
1.33025848865509033 1.49847424030303955 0.180918127298355103
-0.84690326452255249 -1.82300651073455811 0.253993719816207886
-2.01171374320983887 -0.0258130952715873718 0.117743954062461853
-0.816306173801422119 -0.567291796207427979 0.0542844012379646301
0.589333713054656982 0.783585488796234131 0.0557168461382389069
-2.01140689849853516 -0.0277981758117675781 0.126281052827835083
-1.00383889675140381 0.108279317617416382 0.47509881854057312
0.0204802192747592926 -2.00356674194335938 0.363842219114303589
1.33546888828277588 1.49617266654968262 0.166201502084732056
-0.819173574447631836 -0.568352937698364258 0.0605937466025352478
-1.98160719871520996 -0.043498992919921875 0.103765860199928284
1.31499099731445312 1.49594712257385254 0.182384327054023743
0.0267612859606742859 -2.00209283828735352 0.37147948145866394
-1.83837389945983887 -0.76956862211227417 0.183359026908874512
-0.84903186559677124 -1.815665602684021 0.265184998512268066
-0.807192623615264893 -1.83415031433105469 0.275757730007171631
-2.00272154808044434 -0.0244802981615066528 0.124115929007530212
1.33287620544433594 1.50305736064910889 0.167564556002616882
-0.270983844995498657 0.953483819961547852 0.333333671092987061
-0.817875027656555176 -0.567846238613128662 0.0591363310813903809
-0.997122883796691895 0.107762351632118225 0.487200140953063965
-2.06269574165344238 -0.0169135928153991699 0.120824918150901794
-1.82703423500061035 -0.814897537231445312 0.164056301116943359
1.33900630474090576 1.49490523338317871 0.179375112056732178
0.0188593044877052307 -2.00666403770446777 0.367365539073944092
0.0196097642183303833 -2.00815105438232422 0.367089360952377319
-0.827100992202758789 -1.80580949783325195 0.254549115896224976
-1.99508631229400635 -0.053239874541759491 0.114957444369792938
-2.01900911331176758 -0.0346136316657066345 0.129238903522491455
-0.823554635047912598 -1.82609856128692627 0.256103217601776123
0.122410356998443604 -1.0102924108505249 0.0568749047815799713
1.34133720397949219 1.50057101249694824 0.173265889286994934
-0.994996428489685059 0.107201874256134033 0.482889950275421143
-0.99418175220489502 0.0961072444915771484 0.486603140830993652
-0.841542959213256836 -1.80793654918670654 0.257059723138809204
0.0170988291501998901 -2.01000404357910156 0.350252389907836914
-2.0085914134979248 -0.0297931358218193054 0.125085517764091492
-1.98744630813598633 -0.0477168560028076172 0.127003133296966553
0.0129126980900764465 -1.99994337558746338 0.379729390144348145
-0.848243474960327148 -1.82017660140991211 0.251958191394805908
-2.024017333984375 -0.0299229100346565247 0.116922721266746521
-0.84138190746307373 -1.81286096572875977 0.263484686613082886
-0.261204391717910767 0.949001431465148926 0.329571276903152466
0.140675202012062073 -0.987023293972015381 0.056890830397605896
-0.785386204719543457 -1.81472897529602051 0.251100271940231323
0.619366586208343506 0.790191054344177246 0.0394243001937866211
0.131750449538230896 -0.990975737571716309 0.0618528164923191071
0.0215699896216392517 -2.00191712379455566 0.376765698194503784
0.613181591033935547 0.78676295280456543 0.045016951858997345
-0.835962772369384766 -0.59257352352142334 0.0480743423104286194
-0.789373159408569336 -1.83008754253387451 0.244683802127838135
-1.83579361438751221 -0.763851523399353027 0.164029508829116821
-1.99690055847167969 -0.0455814674496650696 0.120963573455810547
0.00901180505752563477 -2.00002861022949219 0.38155055046081543
-0.833294093608856201 -1.8237839937210083 0.258728891611099243
-0.831286430358886719 -1.81946325302124023 0.26807558536529541
0.13756483793258667 -0.984305381774902344 0.0582853518426418304
-0.833533346652984619 -1.81748044490814209 0.249318122863769531
-0.264779746532440186 0.957548141479492188 0.333701103925704956
-2.00398540496826172 -0.0358730107545852661 0.11520211398601532
0.133745253086090088 -0.988045156002044678 0.0530758090317249298
-0.265535295009613037 0.963450968265533447 0.325265049934387207
-0.820764780044555664 -0.568053305149078369 0.0586081333458423615
-0.843827247619628906 -1.82129967212677002 0.272968053817749023
-0.273892045021057129 0.961667180061340332 0.338377624750137329
1.3217625617980957 1.49799323081970215 0.178632080554962158
-1.83489680290222168 -0.76658707857131958 0.164982393383979797
1.32692933082580566 1.49087405204772949 0.167718946933746338
-0.839162111282348633 -1.81883704662322998 0.252105504274368286
-1.83405280113220215 -0.729213953018188477 0.195128470659255981
0.00627531111240386963 -1.99550473690032959 0.383354306221008301
-0.258039414882659912 0.971932768821716309 0.328435420989990234
0.0223327018320560455 -2.00255107879638672 0.363857924938201904
-0.980451822280883789 0.0963154435157775879 0.478687107563018799
-1.83468997478485107 -0.771139860153198242 0.164741545915603638
-1.83830940723419189 -0.781135439872741699 0.168859869241714478
-0.260382205247879028 0.954282283782958984 0.329506903886795044
1.32416987419128418 1.50616288185119629 0.170942425727844238
-1.8328859806060791 -0.771924853324890137 0.170757845044136047
-2.0197601318359375 -0.0310800336301326752 0.122151285409927368
-0.264312028884887695 0.953820586204528809 0.32440909743309021
-0.845277309417724609 -1.82369339466094971 0.256846129894256592
0.0165189690887928009 -2.00698065757751465 0.371547341346740723
-2.00511503219604492 -0.0227663516998291016 0.114548347890377045
0.637067794799804688 0.781889021396636963 0.0379631668329238892
0.0169053487479686737 -2.00045919418334961 0.371212571859359741
-2.01091718673706055 -0.0273528527468442917 0.124195195734500885
-0.259139001369476318 0.961431980133056641 0.333027869462966919
-0.844714045524597168 -1.82991671562194824 0.253952682018280029
