ply
format ascii 1.0
element vertex 256
comment vertices
property float x
property float y
property float z
end_header
0.906038761138916016 0.398140639066696167 0.335190713405609131
-2.86626529693603516 0.836766839027404785 0.350259155035018921
-0.917950332164764404 -0.396175682544708252 0.240290597081184387
-1.41139495372772217 2.63677787780761719 0.41940385103225708
0.075670979917049408 1.99605846405029297 0.181135073304176331
-1.69654619693756104 1.21566879749298096 0.0371819064021110535
0.243998825550079346 0.971963584423065186 0.18231356143951416
1.88006007671356201 0.6338997483253479 0.402775943279266357
-1.42615044116973877 2.65496969223022461 0.412291169166564941
-0.790430068969726562 0.644657492637634277 0.0591834411025047302
-2.8763582706451416 0.842362046241760254 0.327197641134262085
0.901900768280029297 0.41455763578414917 0.320661574602127075
-1.15674161911010742 1.62735986709594727 0.174479082226753235
1.89309036731719971 0.635903000831604004 0.415974229574203491
-1.14771389961242676 1.63940989971160889 0.168752238154411316
-1.59842395782470703 1.18151688575744629 0.0546781718730926514
0.931595563888549805 0.421195149421691895 0.310630768537521362
0.198552131652832031 0.983138799667358398 0.19522954523563385
0.0756097882986068726 2.00805091857910156 0.175538137555122375
-0.950778543949127197 -0.259845107793807983 0.259755909442901611
1.90375661849975586 0.627759873867034912 0.412043482065200806
-2.87473177909851074 0.830740034580230713 0.352614521980285645
0.921412229537963867 0.41008150577545166 0.320933938026428223
-0.808502733707427979 0.593034029006958008 0.0711410120129585266
-0.796606659889221191 0.607629597187042236 0.0624513328075408936
-1.18123698234558105 1.62058436870574951 0.179301738739013672
-0.931463062763214111 -0.502275645732879639 0.27790224552154541
-1.44096207618713379 2.6411745548248291 0.390200167894363403
-2.86788272857666016 0.849332928657531738 0.350508689880371094
0.0630916953086853027 1.99390649795532227 0.167643636465072632
0.0685749053955078125 1.97806668281555176 0.178725272417068481
0.919222593307495117 0.425401389598846436 0.303299158811569214
-2.85923314094543457 0.867041230201721191 0.341903418302536011
-1.60677492618560791 1.19562387466430664 0.0661089569330215454
1.90860474109649658 0.647440135478973389 0.40537753701210022
-1.58812260627746582 1.15671133995056152 0.0440820455551147461
0.908239603042602539 0.403428226709365845 0.31546059250831604
1.88476157188415527 0.621725559234619141 0.405013978481292725
-0.801508426666259766 0.60821533203125 0.0604027509689331055
-2.88513612747192383 0.835494041442871094 0.34437483549118042
-1.12029123306274414 1.64114892482757568 0.179619118571281433
0.907800912857055664 0.418810427188873291 0.318344235420227051
-0.950332105159759521 -0.10071350634098053 0.33734855055809021
0.240391910076141357 0.971309900283813477 0.183102995157241821
0.922833561897277832 0.411433279514312744 0.319951295852661133
-1.15821027755737305 1.63046932220458984 0.175321236252784729
1.89048290252685547 0.640394330024719238 0.414707064628601074
1.87523555755615234 0.632733702659606934 0.413046747446060181
-2.86806130409240723 0.831073224544525146 0.351415932178497314
0.902503311634063721 0.412105590105056763 0.322405248880386353
-2.85595583915710449 0.862743258476257324 0.342336982488632202
-0.952857434749603271 -0.307788699865341187 0.256009101867675781
-0.975171267986297607 -0.241064131259918213 0.289540886878967285
1.91064739227294922 0.632251381874084473 0.416292369365692139
0.203167706727981567 0.966840088367462158 0.192305877804756165
0.0675668343901634216 2.01277470588684082 0.179791167378425598
-1.62027323246002197 1.19157588481903076 0.0497342757880687714
-0.800521016120910645 0.608826398849487305 0.0606683306396007538
-0.946232318878173828 -0.375100046396255493 0.28613513708114624
0.918593168258666992 0.407906144857406616 0.32503587007522583
-2.86235213279724121 0.861546993255615234 0.3475475013256073
1.88846111297607422 0.62559664249420166 0.408890038728713989
0.241278231143951416 0.968857109546661377 0.186341702938079834
0.0630508437752723694 2.00140094757080078 0.171640008687973022
-2.85928559303283691 0.847987651824951172 0.329770177602767944
0.214709877967834473 0.987988173961639404 0.206790685653686523
0.905888140201568604 0.409310311079025269 0.335472077131271362
-0.950293183326721191 -0.37817537784576416 0.244546189904212952
-1.16431617736816406 1.6321796178817749 0.174360334873199463
-1.14267647266387939 1.6252971887588501 0.167767897248268127
-1.33525741100311279 1.44424271583557129 0.15665048360824585
-0.943752467632293701 -0.180109784007072449 0.293029755353927612
0.0682022571563720703 1.98705685138702393 0.180343091487884521
-1.43028676509857178 2.63256025314331055 0.39759749174118042
0.0580373033881187439 1.99522364139556885 0.174615755677223206
-1.13080966472625732 1.61807215213775635 0.180840462446212769
-1.43071627616882324 2.63189101219177246 0.425314843654632568
-2.87328314781188965 0.83054506778717041 0.35618552565574646
0.0740961134433746338 1.9858710765838623 0.172119408845901489
1.89401543140411377 0.642397880554199219 0.410506665706634521
0.0600806549191474915 2.00014472007751465 0.17919611930847168
-1.19827437400817871 1.63008248805999756 0.167068183422088623
0.933575272560119629 0.427550315856933594 0.288205385208129883
-0.797026991844177246 0.607575774192810059 0.0653020069003105164
-1.15207338333129883 1.6273036003112793 0.17766880989074707
0.0675436407327651978 2.00106382369995117 0.18478962779045105
0.914250314235687256 0.408941388130187988 0.325792372226715088
1.89763927459716797 0.638311862945556641 0.406851500272750854
-1.13602650165557861 1.63947784900665283 0.174331590533256531
0.058569982647895813 2.00586557388305664 0.179286807775497437
-2.86409425735473633 0.854081928730010986 0.350431770086288452
1.89390909671783447 0.626633644104003906 0.408783435821533203
-1.16107010841369629 1.63064801692962646 0.169854789972305298
-1.18259179592132568 1.6129906177520752 0.179957196116447449
-0.930521309375762939 -0.478350907564163208 0.261362165212631226
-0.940240859985351562 -0.395414918661117554 0.286764740943908691
0.0720628052949905396 1.9977487325668335 0.184822008013725281
-1.66706454753875732 1.16987013816833496 0.0375046618282794952
0.927422642707824707 0.410528957843780518 0.319999754428863525
-0.943862080574035645 -0.378350526094436646 0.293052315711975098
1.89238333702087402 0.643316030502319336 0.411110818386077881
0.238103240728378296 0.968076825141906738 0.172440677881240845
0.912018120288848877 0.413695096969604492 0.330215513706207275
0.197602927684783936 0.968586623668670654 0.186098828911781311
0.925766587257385254 0.400663197040557861 0.324040442705154419
-1.59367561340332031 1.18288934230804443 0.051818549633026123
-1.42392110824584961 2.65107607841491699 0.402297824621200562
-0.955280959606170654 -0.293283820152282715 0.252097249031066895
1.88870465755462646 0.627090334892272949 0.416123509407043457
0.915116190910339355 0.411681115627288818 0.32341429591178894
-1.1506950855255127 1.62542927265167236 0.160780355334281921
1.90120077133178711 0.636989951133728027 0.399693220853805542
0.196278810501098633 0.950976669788360596 0.174094900488853455
-0.93250727653503418 -0.213537991046905518 0.294591248035430908
0.924561619758605957 0.407879412174224854 0.316788613796234131
0.0643925219774246216 1.99687314033508301 0.175199806690216064
0.910167813301086426 0.403435349464416504 0.326762497425079346
-0.947821855545043945 -0.266808539628982544 0.272902578115463257
0.913394570350646973 0.404585212469100952 0.327272772789001465
-1.15234601497650146 1.61872196197509766 0.175357848405838013
1.90498507022857666 0.6365317702293396 0.413465261459350586
-1.64802110195159912 1.20548069477081299 0.0667821317911148071
0.919077873229980469 0.407144397497177124 0.321188181638717651
0.247878387570381165 0.964574575424194336 0.200176358222961426
-2.86358404159545898 0.856987118721008301 0.344255447387695312
-1.17033779621124268 1.63388276100158691 0.172187894582748413
0.0706504136323928833 1.99437904357910156 0.172211974859237671
-0.937193453311920166 -0.383254766464233398 0.257209151983261108
-2.86150026321411133 0.851888597011566162 0.346749991178512573
0.202990889549255371 0.963926076889038086 0.208438307046890259
0.922359228134155273 0.416011571884155273 0.308790802955627441
-2.86560153961181641 0.852735459804534912 0.341309905052185059
-1.43221521377563477 2.63640046119689941 0.40672677755355835
-2.87427592277526855 0.836327314376831055 0.350640326738357544
-2.86555385589599609 0.835806369781494141 0.364816755056381226
0.226080894470214844 0.969137430191040039 0.191841080784797668
-2.86492347717285156 0.861194252967834473 0.344450414180755615
-1.09834980964660645 1.65252363681793213 0.193443223834037781
0.0552056878805160522 2.01078152656555176 0.183088153600692749
1.8931572437286377 0.634724617004394531 0.412600457668304443
1.89874255657196045 0.627975046634674072 0.418096631765365601
-1.64079999923706055 1.20852720737457275 0.0592061802744865417
-0.912031888961791992 -0.184489935636520386 0.29324948787689209
-0.939045488834381104 -0.368553340435028076 0.252982258796691895
0.0597624778747558594 1.99904489517211914 0.175690099596977234
0.250770688056945801 0.966516733169555664 0.169695883989334106
1.89490056037902832 0.62323838472366333 0.399855971336364746
0.0700471773743629456 2.00061655044555664 0.187622860074043274
0.212302491068840027 0.96259617805480957 0.178141131997108459
0.920047223567962646 0.419497311115264893 0.321333557367324829
-0.787519752979278564 0.614894628524780273 0.0619167685508728027
-0.806508421897888184 0.600302994251251221 0.0664505288004875183
-0.80700916051864624 0.607567012310028076 0.0611653700470924377
-1.60399353504180908 1.18153953552246094 0.0502744466066360474
-1.43115150928497314 2.65311479568481445 0.424712777137756348
-1.4228520393371582 2.64106416702270508 0.427036523818969727
-2.86671042442321777 0.857376217842102051 0.333216875791549683
0.0729543566703796387 1.99447369575500488 0.175506085157394409
-2.87252998352050781 0.844843566417694092 0.341156810522079468
0.0652410238981246948 1.99356257915496826 0.177920311689376831
-0.952482521533966064 -0.195373386144638062 0.279900133609771729
0.233254015445709229 0.952121973037719727 0.216754913330078125
-0.917743921279907227 -0.160904735326766968 0.281854540109634399
-0.970978856086730957 -0.011667400598526001 0.306046366691589355
0.909995198249816895 0.403845131397247314 0.335370808839797974
-1.14000201225280762 1.62133932113647461 0.16988721489906311
-1.15709400177001953 1.63457417488098145 0.172491610050201416
0.940068721771240234 0.414733141660690308 0.304719358682632446
-1.42192435264587402 2.6307990550994873 0.424745887517929077
0.902474820613861084 0.412004321813583374 0.325700581073760986
-1.14171385765075684 1.63076996803283691 0.169121965765953064
1.90068423748016357 0.626892447471618652 0.40591663122177124
0.0713244080543518066 1.98519325256347656 0.172158092260360718
-0.948769330978393555 -0.366764098405838013 0.2444353848695755
-2.87313675880432129 0.831974983215332031 0.350505858659744263
-1.14899122714996338 1.63611018657684326 0.171140655875205994
0.0884300917387008667 1.99798953533172607 0.176490217447280884
0.0753060206770896912 2.01362729072570801 0.176770865917205811
-2.87100791931152344 0.864848852157592773 0.345704525709152222
0.0714615583419799805 2.00869512557983398 0.17191624641418457
1.90300083160400391 0.63084179162979126 0.410882771015167236
0.915291786193847656 0.414038777351379395 0.310308456420898438
-1.61271107196807861 1.19443082809448242 0.0573189705610275269
-1.17507600784301758 1.63094413280487061 0.179467067122459412
-1.59132444858551025 1.1782381534576416 0.0517976321280002594
-1.15442955493927002 1.62879323959350586 0.178698629140853882
-2.86470556259155273 0.859538793563842773 0.343885332345962524
-1.60124504566192627 1.19392561912536621 0.0614810213446617126
0.0674353688955307007 2.00911211967468262 0.177052527666091919
-0.934680342674255371 -0.485372602939605713 0.300549149513244629
0.916073620319366455 0.403978586196899414 0.323987871408462524
-1.43079221248626709 2.62347555160522461 0.389964550733566284
0.917536914348602295 0.406584084033966064 0.327189773321151733
0.247332870960235596 0.964190781116485596 0.189368903636932373
0.0647499710321426392 1.99628961086273193 0.181905210018157959
1.89790201187133789 0.635255575180053711 0.410701364278793335
-1.12969636917114258 1.64935898780822754 0.195597171783447266
-2.87352490425109863 0.827360391616821289 0.346668332815170288
0.922718226909637451 0.414306879043579102 0.314859926700592041
-1.16311860084533691 1.62964510917663574 0.176361739635467529
-1.43050050735473633 2.63865351676940918 0.403513789176940918
0.0529770851135253906 2.0034480094909668 0.17554551362991333
1.89337038993835449 0.625653505325317383 0.408647090196609497
0.917861580848693848 0.413712888956069946 0.309384018182754517
-0.939677000045776367 -0.387588322162628174 0.254682570695877075
-2.87660813331604004 0.830037057399749756 0.348905861377716064
-1.19946515560150146 1.57663059234619141 0.0960881859064102173
0.91906273365020752 0.406665921211242676 0.323187440633773804
0.0675576180219650269 1.99682426452636719 0.179883420467376709
0.914778649806976318 0.414478987455368042 0.317002564668655396
0.909968316555023193 0.405383378267288208 0.335723221302032471
0.909937262535095215 0.404185861349105835 0.322749465703964233
1.90021252632141113 0.63032829761505127 0.411788582801818848
0.0616747066378593445 1.99627280235290527 0.181087136268615723
0.911746203899383545 0.388169139623641968 0.327541381120681763
-0.797505974769592285 0.613953649997711182 0.0662538111209869385
-1.13006806373596191 1.6283867359161377 0.183768734335899353
0.915042281150817871 0.398197799921035767 0.333012402057647705
0.0582027994096279144 2.0088346004486084 0.174056887626647949
-1.1392967700958252 1.64956939220428467 0.164153695106506348
0.235988542437553406 0.958369791507720947 0.18801511824131012
1.90130841732025146 0.638619124889373779 0.412795543670654297
-2.86580824851989746 0.860532224178314209 0.34716719388961792
0.916182875633239746 0.414032816886901855 0.319288879632949829
0.0675013512372970581 2.00686383247375488 0.174409136176109314
1.89073312282562256 0.639492034912109375 0.405476838350296021
-2.86816620826721191 0.843479514122009277 0.324054628610610962
0.0692799240350723267 2.00276851654052734 0.179482787847518921
0.0776879340410232544 1.98979949951171875 0.16436217725276947
0.0684137195348739624 1.9981304407119751 0.174794882535934448
0.0718499422073364258 2.00259280204772949 0.179929643869400024
0.962413907051086426 0.440620660781860352 0.325628072023391724
-1.42836999893188477 2.63831257820129395 0.418595850467681885
0.208308368921279907 0.97480696439743042 0.184461295604705811
0.249118462204933167 0.964473307132720947 0.183490261435508728
1.89647555351257324 0.625756621360778809 0.405677914619445801
1.90661048889160156 0.64278644323348999 0.41248968243598938
1.88307631015777588 0.630537986755371094 0.407967269420623779
-2.87163996696472168 0.835608720779418945 0.346987277269363403
-0.797310769557952881 0.610210716724395752 0.0628708302974700928
0.921645164489746094 0.405249953269958496 0.314005166292190552
-0.972921490669250488 -0.242172449827194214 0.260710567235946655
0.9194374680519104 0.402588427066802979 0.321279048919677734
-2.87137269973754883 0.861908674240112305 0.349881023168563843
1.89009428024291992 0.627419590950012207 0.419764727354049683
0.237280398607254028 0.972066879272460938 0.180915474891662598
0.0652823299169540405 2.00817370414733887 0.177496075630187988
-0.927160799503326416 -0.290944516658782959 0.244372457265853882
0.909567415714263916 0.410893827676773071 0.333700686693191528
-2.87591934204101562 0.8370857834815979 0.342271864414215088
0.0563278645277023315 1.99599385261535645 0.184623241424560547
-1.61129868030548096 1.18324482440948486 0.0503177903592586517
-1.16591894626617432 1.62665033340454102 0.165555283427238464
0.0657193511724472046 2.00479578971862793 0.181056886911392212
0.0725196897983551025 1.9951937198638916 0.176805466413497925
-1.16293239593505859 1.63784909248352051 0.170554637908935547
