ply
format ascii 1.0
element vertex 64
comment vertices
property float x
property float y
property float z
end_header
0.843069314956665039 -0.537804901599884033 0.431434750556945801
-0.0217126403003931046 0.99976426362991333 0.435504436492919922
0.549655258655548096 0.835391581058502197 0.412138760089874268
1.73055124282836914 -1.00259280204772949 0.0666112154722213745
0.96593397855758667 0.258788704872131348 0.27588498592376709
2.64577364921569824 -1.41417193412780762 0.0632889941334724426
-0.980969786643981934 0.194160297513008118 0.110194779932498932
-1.99937450885772705 0.0500164330005645752 0.40563318133354187
0.407184600830078125 -0.913345873355865479 0.41711995005607605
-0.502083659172058105 1.93595242500305176 0.400938600301742554
0 0 0
0 0 0
0 0 0
0 0 0
0 0 0
0 0 0
0 0 0
0 0 0
0 0 0
0 0 0
0 0 0
0 0 0
0 0 0
0 0 0
0 0 0
0 0 0
0 0 0
0 0 0
0 0 0
0 0 0
0 0 0
0 0 0
0 0 0
0 0 0
0 0 0
0 0 0
0 0 0
0 0 0
0 0 0
0 0 0
0 0 0
0 0 0
0 0 0
0 0 0
0 0 0
0 0 0
0 0 0
0 0 0
0 0 0
0 0 0
0 0 0
0 0 0
0 0 0
0 0 0
0 0 0
0 0 0
0 0 0
0 0 0
0 0 0
0 0 0
0 0 0
0 0 0
0 0 0
0 0 0
