ply
format ascii 1.0
element vertex 256
comment vertices
property float x
property float y
property float z
end_header
-1.68028044700622559 1.07350397109985352 0.325698286294937134
-0.697008669376373291 -1.88858795166015625 0.437049776315689087
1.29922187328338623 1.53140926361083984 0.253952622413635254
0.578607320785522461 -0.811360955238342285 0.128357797861099243
-1.46627211570739746 -1.36301791667938232 0.339256495237350464
0.32056194543838501 0.937058627605438232 0.391344845294952393
-0.428951233625411987 -0.900996208190917969 0.406763136386871338
-0.758304178714752197 0.650467455387115479 0.46213957667350769
0.874514997005462646 0.491050839424133301 0.0708063095808029175
-1.47004354000091553 -1.36642909049987793 0.337658077478408813
0.324238568544387817 0.939314901828765869 0.390433698892593384
-0.75640946626663208 0.65015798807144165 0.445420503616333008
-1.67489659786224365 1.07451748847961426 0.325885176658630371
0.58680492639541626 -0.807991921901702881 0.129134461283683777
0.880622327327728271 0.488294273614883423 0.109266340732574463
-0.707593142986297607 -1.89097082614898682 0.435466796159744263
1.2918630838394165 1.53098380565643311 0.258901596069335938
-1.47047436237335205 -1.36349809169769287 0.33761972188949585
-0.43473854660987854 -0.891968488693237305 0.408743679523468018
0.31980365514755249 0.940045356750488281 0.390856504440307617
-1.11291742324829102 -1.69497406482696533 0.399533182382583618
-1.68172204494476318 1.07428038120269775 0.32386663556098938
-0.75897979736328125 0.650927364826202393 0.467552214860916138
-0.706167817115783691 -1.88556051254272461 0.403788238763809204
-1.46789026260375977 -1.36647546291351318 0.341535449028015137
-1.46818220615386963 -1.36406850814819336 0.337155729532241821
-0.431907445192337036 -0.905259907245635986 0.40376928448677063
-0.763477146625518799 0.646417617797851562 0.460280060768127441
-0.430321156978607178 -0.897035181522369385 0.406198650598526001
-0.426392555236816406 -0.890714704990386963 0.406562656164169312
1.30090761184692383 1.53080189228057861 0.257222831249237061
1.29534292221069336 1.52912807464599609 0.255034685134887695
0.874224483966827393 0.490154445171356201 0.0851489007472991943
0.582666397094726562 -0.807758867740631104 0.125072330236434937
-1.67518770694732666 1.07272839546203613 0.324810951948165894
-0.692327201366424561 -1.88790476322174072 0.429783672094345093
0.323865890502929688 0.936829149723052979 0.392188876867294312
-0.427348077297210693 -0.901218831539154053 0.409769833087921143
-1.48165297508239746 -1.34136474132537842 0.333098351955413818
0.582394123077392578 -0.811567187309265137 0.131424069404602051
-1.67785537242889404 1.07630884647369385 0.325909882783889771
-1.47076153755187988 -1.35992848873138428 0.337572216987609863
-0.698667049407958984 -1.88815557956695557 0.435427874326705933
-1.67553281784057617 1.07267248630523682 0.329810678958892822
-1.67635083198547363 1.07470500469207764 0.33263862133026123
-0.754543304443359375 0.643506050109863281 0.447335422039031982
0.316784948110580444 0.942324995994567871 0.405790627002716064
-0.758536458015441895 0.63874286413192749 0.457932472229003906
-1.47088754177093506 -1.35940372943878174 0.337678313255310059
-1.48739290237426758 -1.35035049915313721 0.348040729761123657
-0.430528700351715088 -0.889825820922851562 0.400846868753433228
-1.47197282314300537 -1.36318981647491455 0.344865679740905762
-0.431847184896469116 -0.898532509803771973 0.410691529512405396
-0.76851344108581543 0.647360801696777344 0.444305717945098877
0.325733572244644165 0.946063697338104248 0.392731904983520508
-1.46396446228027344 -1.365090012550354 0.337497562170028687
1.30045413970947266 1.53221642971038818 0.263045907020568848
1.29340314865112305 1.52907383441925049 0.258769333362579346
-0.763331949710845947 0.645752251148223877 0.453948855400085449
1.29332005977630615 1.52903485298156738 0.253465741872787476
1.29284191131591797 1.5306541919708252 0.26070895791053772
0.317419052124023438 0.939391076564788818 0.400577753782272339
1.29618167877197266 1.52991580963134766 0.257825374603271484
-1.67949914932250977 1.07511341571807861 0.326013118028640747
0.320808529853820801 0.937687158584594727 0.391862034797668457
-1.14178729057312012 -1.67401957511901855 0.379376977682113647
0.589359045028686523 -0.810665309429168701 0.126051321625709534
-1.68079292774200439 1.07590746879577637 0.325802654027938843
-0.428812414407730103 -0.901595413684844971 0.409467697143554688
-0.435568630695343018 -0.899582862854003906 0.403534680604934692
0.582666873931884766 -0.809093236923217773 0.128331229090690613
0.578877687454223633 -0.810483932495117188 0.12521575391292572
-1.68357789516448975 1.07196283340454102 0.325550705194473267
0.579594731330871582 -0.810172617435455322 0.129862204194068909
0.319510757923126221 0.940343499183654785 0.393781155347824097
-0.76372760534286499 0.647266864776611328 0.458479434251785278
0.583445906639099121 -0.809526443481445312 0.131583720445632935
1.29966199398040771 1.53185462951660156 0.257738798856735229
1.29678165912628174 1.53102290630340576 0.254468351602554321
1.29187130928039551 1.5304645299911499 0.256463080644607544
-1.16767609119415283 -1.66540241241455078 0.36018073558807373
-1.47028434276580811 -1.36432063579559326 0.337856173515319824
-0.695899307727813721 -1.88709580898284912 0.428698152303695679
0.321287274360656738 0.942860662937164307 0.395315974950790405
1.292915940284729 1.53034567832946777 0.254772961139678955
-0.761391580104827881 0.647844135761260986 0.448978304862976074
0.875406980514526367 0.489140421152114868 0.0740264877676963806
-0.697881996631622314 -1.89067471027374268 0.43758353590965271
-1.67868483066558838 1.07290995121002197 0.328225582838058472
-0.433396726846694946 -0.896075248718261719 0.410540461540222168
-0.69396287202835083 -1.8874971866607666 0.425580769777297974
-0.692977726459503174 -1.8881371021270752 0.427250266075134277
-1.68104159832000732 1.07458209991455078 0.325805455446243286
0.322551518678665161 0.938985168933868408 0.394077897071838379
-1.47043609619140625 -1.3626708984375 0.337541669607162476
0.321231216192245483 0.939495325088500977 0.393765658140182495
0.871751964092254639 0.490356802940368652 0.0811452567577362061
-0.702059566974639893 -1.88694858551025391 0.434576302766799927
-1.46653938293457031 -1.35794687271118164 0.337814897298812866
-0.430309891700744629 -0.897557199001312256 0.408074259757995605
-0.429922670125961304 -0.899053871631622314 0.409784287214279175
-1.46997237205505371 -1.36541068553924561 0.337520092725753784
-0.429299592971801758 -0.897553026676177979 0.407850176095962524
-1.67835783958435059 1.07493686676025391 0.328963965177536011
0.583909392356872559 -0.810377836227416992 0.12771180272102356
0.325513720512390137 0.939881086349487305 0.393784701824188232
-0.702101051807403564 -1.88952779769897461 0.440521508455276489
-0.678952515125274658 -1.88107204437255859 0.381626993417739868
-0.705512106418609619 -1.88518786430358887 0.40327829122543335
-1.47022843360900879 -1.36114954948425293 0.338872700929641724
-1.67992377281188965 1.07527506351470947 0.325393140316009521
-0.69603496789932251 -1.88842928409576416 0.436211884021759033
-0.761103689670562744 0.648375928401947021 0.446869313716888428
-0.760004103183746338 0.648414134979248047 0.451727628707885742
-0.76326453685760498 0.648436129093170166 0.450918406248092651
-0.690479099750518799 -1.87939727306365967 0.407189309597015381
-1.47018015384674072 -1.36083400249481201 0.342079460620880127
0.583803534507751465 -0.807252347469329834 0.125064894556999207
-1.46968924999237061 -1.3646695613861084 0.336599588394165039
-1.67673182487487793 1.07582199573516846 0.32596743106842041
0.585235774517059326 -0.810775220394134521 0.127829998731613159
0.869851112365722656 0.494345754384994507 0.0727383047342300415
-1.67665493488311768 1.07372891902923584 0.329125404357910156
-0.435510516166687012 -0.895690441131591797 0.41579851508140564
-1.46489608287811279 -1.35802459716796875 0.335815876722335815
-1.67713093757629395 1.07410097122192383 0.325289994478225708
-1.68163537979125977 1.0753178596496582 0.329972982406616211
-1.46701502799987793 -1.3646930456161499 0.335673272609710693
0.323411494493484497 0.936067700386047363 0.391201555728912354
-0.75591731071472168 0.649808883666992188 0.448309153318405151
0.319545626640319824 0.940938651561737061 0.395812869071960449
0.582830369472503662 -0.808334767818450928 0.130611389875411987
-1.4708106517791748 -1.35693562030792236 0.335687398910522461
-0.688479602336883545 -1.89003872871398926 0.425386279821395874
-1.1745229959487915 -1.65516483783721924 0.366019755601882935
-1.4658050537109375 -1.36428773403167725 0.334568381309509277
-1.32062530517578125 -1.45061099529266357 0.327791690826416016
-0.428006172180175781 -0.893995881080627441 0.406223475933074951
-1.27992427349090576 -1.46375346183776855 0.314224153757095337
-1.46617889404296875 -1.36546015739440918 0.342213720083236694
0.574539840221405029 -0.80862891674041748 0.128430172801017761
0.576850414276123047 -0.812653481960296631 0.125503122806549072
0.318749755620956421 0.943041145801544189 0.398417949676513672
-0.761174380779266357 0.64404761791229248 0.464818805456161499
-1.47069990634918213 -1.3629155158996582 0.340887904167175293
1.29551935195922852 1.52904713153839111 0.255488604307174683
-1.67947566509246826 1.07273542881011963 0.327645331621170044
-0.432957112789154053 -0.895333290100097656 0.408375918865203857
1.29815578460693359 1.53037059307098389 0.256509929895401001
1.29568469524383545 1.53208518028259277 0.258456677198410034
0.585346460342407227 -0.813397705554962158 0.128211691975593567
-0.764707863330841064 0.646982789039611816 0.454558253288269043
-0.427381068468093872 -0.89781498908996582 0.408035755157470703
-0.431865960359573364 -0.900625884532928467 0.405005395412445068
0.325191706418991089 0.93904799222946167 0.392323195934295654
-1.6814725399017334 1.07668781280517578 0.323042392730712891
-1.67844080924987793 1.0753629207611084 0.326240330934524536
0.584349095821380615 -0.810778677463531494 0.12923702597618103
0.58022153377532959 -0.811248302459716797 0.132093429565429688
0.579794347286224365 -0.809257030487060547 0.127027973532676697
-1.12399148941040039 -1.68834817409515381 0.381977707147598267
0.322501242160797119 0.939111709594726562 0.393560081720352173
0.319705784320831299 0.941145598888397217 0.391001492738723755
1.29684126377105713 1.52880418300628662 0.259338319301605225
0.593007683753967285 -0.803911030292510986 0.124342136085033417
-1.47036576271057129 -1.36670565605163574 0.339149892330169678
-1.47214829921722412 -1.36085939407348633 0.343815356492996216
0.320395410060882568 0.94173961877822876 0.397070795297622681
-0.429300665855407715 -0.89909970760345459 0.401236861944198608
-0.435108006000518799 -0.898844003677368164 0.409736067056655884
-0.765582799911499023 0.649755954742431641 0.454400181770324707
1.29412829875946045 1.52980268001556396 0.25847315788269043
-1.68082785606384277 1.07582736015319824 0.328385531902313232
-0.699474930763244629 -1.88574063777923584 0.427220702171325684
0.575485467910766602 -0.811613559722900391 0.128047257661819458
0.321395128965377808 0.937627196311950684 0.392640948295593262
-1.67866301536560059 1.07259917259216309 0.326800435781478882
0.582314372062683105 -0.807061672210693359 0.129385635256767273
-0.434112608432769775 -0.900347411632537842 0.408990412950515747
-1.67843937873840332 1.07356524467468262 0.326847612857818604
-0.431327998638153076 -0.897705376148223877 0.408115267753601074
1.29840517044067383 1.53099691867828369 0.256925314664840698
-1.46905124187469482 -1.36384725570678711 0.34167906641960144
-0.760439753532409668 0.648121893405914307 0.446352154016494751
0.584685027599334717 -0.8064994215965271 0.127746954560279846
0.590532779693603516 -0.807958424091339111 0.129057258367538452
0.57568061351776123 -0.809878766536712646 0.131085813045501709
0.584131062030792236 -0.810423433780670166 0.130927339196205139
-0.43314555287361145 -0.898102462291717529 0.411278694868087769
-1.68358302116394043 1.0718839168548584 0.325620740652084351
-1.47137677669525146 -1.36068785190582275 0.338795602321624756
1.29265952110290527 1.53160452842712402 0.25838017463684082
0.874598085880279541 0.491868704557418823 0.070218890905380249
-0.694963634014129639 -1.8864748477935791 0.423213571310043335
0.580857157707214355 -0.81188589334487915 0.132213369011878967
-1.4685138463973999 -1.36157727241516113 0.337541252374649048
-0.693771481513977051 -1.88759291172027588 0.427720397710800171
0.589643239974975586 -0.807527601718902588 0.127739667892456055
1.30018377304077148 1.53129458427429199 0.258825570344924927
0.319644421339035034 0.937976181507110596 0.394571870565414429
-1.6809687614440918 1.07355606555938721 0.327039867639541626
0.873853206634521484 0.490233957767486572 0.0723585262894630432
1.29620563983917236 1.52901744842529297 0.255801469087600708
-1.4583054780960083 -1.3756488561630249 0.337648302316665649
1.29490327835083008 1.5299915075302124 0.255864739418029785
-1.47438347339630127 -1.34571969509124756 0.32376861572265625
0.582414627075195312 -0.811178207397460938 0.132076233625411987
-0.693785548210144043 -1.88802158832550049 0.42895042896270752
0.580800414085388184 -0.808051407337188721 0.12683577835559845
0.579066753387451172 -0.809413671493530273 0.128187417984008789
-1.46949899196624756 -1.36443805694580078 0.33956533670425415
0.323517322540283203 0.941442608833312988 0.394165784120559692
-0.761676788330078125 0.646958827972412109 0.464773416519165039
-1.67939841747283936 1.07426393032073975 0.326232463121414185
1.29583895206451416 1.53124845027923584 0.258779019117355347
1.30415105819702148 1.53234672546386719 0.256660938262939453
-0.432872205972671509 -0.896699309349060059 0.410979419946670532
1.296927809715271 1.53098642826080322 0.259752392768859863
-0.430420517921447754 -0.899338126182556152 0.406337529420852661
0.32164725661277771 0.943126320838928223 0.400591403245925903
-0.76198577880859375 0.648298680782318115 0.453800201416015625
-1.4704892635345459 -1.36238217353820801 0.337565869092941284
-1.67919790744781494 1.07520961761474609 0.326946854591369629
1.29812920093536377 1.53035271167755127 0.255235254764556885
-1.46638679504394531 -1.35908770561218262 0.336331367492675781
-1.42699825763702393 -1.35912930965423584 0.327097237110137939
-1.46998047828674316 -1.36226367950439453 0.340263307094573975
-0.761730313301086426 0.650173544883728027 0.449947059154510498
-0.430232584476470947 -0.89785689115524292 0.406100183725357056
-0.698726415634155273 -1.88678181171417236 0.428672671318054199
-1.67808568477630615 1.07552897930145264 0.325313568115234375
-0.761987864971160889 0.645752429962158203 0.453753024339675903
-0.701484799385070801 -1.8891596794128418 0.43489605188369751
1.29350697994232178 1.52819907665252686 0.255485266447067261
0.8731231689453125 0.491857677698135376 0.0792011618614196777
0.582572221755981445 -0.810828626155853271 0.12939007580280304
-0.696619808673858643 -1.88743031024932861 0.432399272918701172
0.323710739612579346 0.943385004997253418 0.396240293979644775
-1.47095286846160889 -1.3621070384979248 0.339501231908798218
-0.757745444774627686 0.646606743335723877 0.449612796306610107
-1.47185969352722168 -1.36116886138916016 0.342127770185470581
1.29430961608886719 1.53121030330657959 0.253282815217971802
-0.433211743831634521 -0.899007737636566162 0.409856468439102173
-1.46514296531677246 -1.3616948127746582 0.336816519498825073
0.324303686618804932 0.940141916275024414 0.392823308706283569
-0.699829638004302979 -1.88809561729431152 0.435633420944213867
1.29254484176635742 1.53073716163635254 0.255227744579315186
-1.47107100486755371 -1.36264729499816895 0.339769750833511353
-0.76188284158706665 0.645360171794891357 0.448367208242416382
1.29857885837554932 1.52974450588226318 0.256386309862136841
-1.31735944747924805 -1.39605712890625 0.324057400226593018
0.324652791023254395 0.937266349792480469 0.39109349250793457
-1.47008407115936279 -1.3626939058303833 0.337344318628311157
-1.47059822082519531 -1.35958731174468994 0.33671271800994873
-0.699035763740539551 -1.88423645496368408 0.419172793626785278
0.874409914016723633 0.488432347774505615 0.0822812169790267944
