ply
format ascii 1.0
element vertex 256
comment vertices
property float x
property float y
property float z
end_header
-1.0935976505279541 -1.66158699989318848 0.0499280914664268494
0.441377639770507812 1.94478881359100342 0.129255831241607666
1.29854977130889893 -1.51377403736114502 0.519750773906707764
-0.750694572925567627 0.662296712398529053 0.0543007999658584595
0.607443928718566895 0.785460352897644043 0.240866541862487793
0.285196155309677124 -1.97101974487304688 0.421567797660827637
-0.44614902138710022 -0.88762742280960083 0.0792266428470611572
0.325756222009658813 -0.957669436931610107 0.130161941051483154
0.555717825889587402 0.834708571434020996 0.147147014737129211
0.28318333625793457 -1.97930192947387695 0.452775835990905762
-0.315588325262069702 -1.9762578010559082 0.068213336169719696
0.453311502933502197 1.94795310497283936 0.128618374466896057
1.2860492467880249 -1.5125114917755127 0.520194172859191895
0.298497438430786133 -1.97329533100128174 0.472021788358688354
-0.759935736656188965 0.662860989570617676 0.0535599514842033386
0.562328994274139404 0.830853581428527832 0.110224857926368713
0.319247186183929443 -0.957342445850372314 0.136964648962020874
1.30277538299560547 -1.51013779640197754 0.529647529125213623
0.55796128511428833 0.83942258358001709 0.156743109226226807
-0.426880240440368652 -0.883171439170837402 0.0777653828263282776
1.29682612419128418 -1.51742780208587646 0.520599186420440674
0.287348270416259766 -1.96060454845428467 0.466655701398849487
-1.08754599094390869 -1.66427505016326904 0.0504699833691120148
-0.318156182765960693 -1.98993384838104248 0.0740295946598052979
0.5536842942237854 0.822338342666625977 0.124146364629268646
0.284499436616897583 -1.98041975498199463 0.423222512006759644
-0.43863368034362793 -0.894634902477264404 0.067274726927280426
0.452741384506225586 1.9499744176864624 0.126397594809532166
0.590208172798156738 0.828195810317993164 0.205818727612495422
0.303613007068634033 -1.98638761043548584 0.458224356174468994
0.323933720588684082 -0.954039275646209717 0.135728374123573303
1.30150258541107178 -1.51224410533905029 0.524220049381256104
1.29375314712524414 -1.51898849010467529 0.515709221363067627
0.287125915288925171 -1.97869193553924561 0.450571507215499878
-0.753120958805084229 0.662522017955780029 0.055225960910320282
1.2919694185256958 -1.52122282981872559 0.516566634178161621
0.550546109676361084 0.837183117866516113 0.155191764235496521
0.60755389928817749 0.802357196807861328 0.230804935097694397
-1.08984053134918213 -1.6578667163848877 0.0497355833649635315
-1.09107780456542969 -1.66707181930541992 0.050531487911939621
-0.74981689453125 0.660840988159179688 0.0531377457082271576
0.551180362701416016 0.83397984504699707 0.122488319873809814
0.449048072099685669 1.94350767135620117 0.130161494016647339
0.312851697206497192 -0.959160029888153076 0.129586547613143921
0.574603855609893799 0.831320643424987793 0.163741454482078552
-0.311634838581085205 -1.98086094856262207 0.070219874382019043
0.278712630271911621 -1.98150622844696045 0.409366250038146973
0.315108895301818848 -0.957101762294769287 0.125815257430076599
0.56541895866394043 0.816722631454467773 0.116748064756393433
1.29926121234893799 -1.51624131202697754 0.523276388645172119
1.29701066017150879 -1.51574516296386719 0.516727447509765625
1.29763758182525635 -1.51246881484985352 0.517592549324035645
0.43601226806640625 1.94979798793792725 0.12580813467502594
-0.752220273017883301 0.661364495754241943 0.0544641539454460144
0.306861400604248047 -0.947098374366760254 0.133921980857849121
0.604347705841064453 0.803343057632446289 0.232703998684883118
0.326564490795135498 -0.959674477577209473 0.125888928771018982
0.276089757680892944 -1.96848154067993164 0.418656498193740845
-0.325385928153991699 -1.9828193187713623 0.0706243142485618591
0.291243642568588257 -1.97404992580413818 0.461696028709411621
-0.442567020654678345 -0.882416784763336182 0.0682672783732414246
0.568931758403778076 0.832854211330413818 0.162239730358123779
0.602874577045440674 0.79306495189666748 0.247766852378845215
0.453606724739074707 1.94599080085754395 0.128306686878204346
1.30251169204711914 -1.51097762584686279 0.52754521369934082
1.29921829700469971 -1.51308763027191162 0.521030545234680176
0.450954675674438477 1.9473491907119751 0.12717127799987793
1.29760324954986572 -1.52034640312194824 0.519148707389831543
0.325118273496627808 -0.958061754703521729 0.131726890802383423
-1.0967026948928833 -1.66334629058837891 0.0498176664113998413
0.454664051532745361 1.95022189617156982 0.126119688153266907
0.546292781829833984 0.836358964443206787 0.120308384299278259
0.288116633892059326 -1.97997438907623291 0.444528847932815552
-0.316538721323013306 -1.97691965103149414 0.0704712197184562683
0.31060376763343811 -0.957791328430175781 0.137508735060691833
0.601101398468017578 0.796454966068267822 0.247448116540908813
0.603459715843200684 0.80953669548034668 0.2276582270860672
0.55908966064453125 0.830857396125793457 0.123955518007278442
0.292712241411209106 -1.98220300674438477 0.430669605731964111
0.292173832654953003 -1.97932839393615723 0.454841464757919312
-0.304831773042678833 -1.99287068843841553 0.0628316402435302734
0.312171190977096558 -0.960493206977844238 0.125300735235214233
0.59315335750579834 0.824391782283782959 0.212068676948547363
0.320137500762939453 -0.95606386661529541 0.131441757082939148
0.607255339622497559 0.805079400539398193 0.236845642328262329
-0.438753753900527954 -0.87863081693649292 0.0671797841787338257
1.29878568649291992 -1.51503205299377441 0.520673513412475586
0.29359099268913269 -1.97912943363189697 0.451797127723693848
0.447700619697570801 1.9481203556060791 0.12518136203289032
-0.307003051042556763 -1.97376716136932373 0.067992866039276123
0.547310233116149902 0.831498205661773682 0.12990182638168335
0.45132032036781311 1.94367766380310059 0.128436654806137085
0.442164242267608643 1.94711005687713623 0.126249760389328003
0.551599740982055664 0.838306665420532227 0.122675664722919464
1.29784548282623291 -1.51354598999023438 0.517639636993408203
0.604561269283294678 0.790609121322631836 0.238166719675064087
0.561920762062072754 0.820890307426452637 0.115438222885131836
0.323038399219512939 -0.959395706653594971 0.130867794156074524
-0.435650378465652466 -0.894280850887298584 0.0705711394548416138
0.569205880165100098 0.834973573684692383 0.158967092633247375
0.453027278184890747 1.94453942775726318 0.127591937780380249
0.570846676826477051 0.835827171802520752 0.176272079348564148
0.316001266241073608 -0.958755850791931152 0.126516997814178467
0.548344612121582031 0.837147176265716553 0.114501096308231354
1.29618322849273682 -1.5171816349029541 0.520465254783630371
0.594615042209625244 0.823490440845489502 0.210654318332672119
0.310000687837600708 -0.954355418682098389 0.128478899598121643
0.328726053237915039 -0.955627322196960449 0.130430653691291809
0.579567372798919678 0.830017030239105225 0.155282944440841675
0.316060543060302734 -0.955626189708709717 0.126700669527053833
0.56971818208694458 0.826366305351257324 0.11713293194770813
0.459261327981948853 1.94915115833282471 0.129113748669624329
-0.437266498804092407 -0.886427402496337891 0.081033855676651001
-1.09972250461578369 -1.66092431545257568 0.0524343699216842651
0.584793448448181152 0.831994950771331787 0.19628441333770752
0.586889982223510742 0.826412737369537354 0.180630147457122803
0.295859456062316895 -1.96963191032409668 0.463348716497421265
0.605525672435760498 0.798653125762939453 0.235621988773345947
-1.09335887432098389 -1.66390001773834229 0.052268344908952713
0.545823156833648682 0.839963793754577637 0.129271417856216431
0.443631410598754883 1.94487404823303223 0.131308823823928833
0.550387203693389893 0.837959647178649902 0.11096673458814621
-0.324669182300567627 -1.98183941841125488 0.0681674778461456299
0.436134517192840576 1.95049047470092773 0.125440090894699097
-1.08638131618499756 -1.68118834495544434 0.0558039061725139618
0.325961828231811523 -0.95961230993270874 0.130046218633651733
-0.752355217933654785 0.661945581436157227 0.0555136092007160187
1.29921901226043701 -1.51354193687438965 0.521552026271820068
-0.755995213985443115 0.662641406059265137 0.0546753928065299988
0.446833580732345581 1.95030343532562256 0.123945467174053192
0.449224799871444702 1.94669914245605469 0.126959338784217834
1.29921162128448486 -1.51300549507141113 0.520588517189025879
0.281197190284729004 -1.97542154788970947 0.414870142936706543
0.279382258653640747 -1.97985625267028809 0.415303856134414673
1.29477119445800781 -1.51893460750579834 0.517779052257537842
-0.754014968872070312 0.660917758941650391 0.0524104535579681396
0.302535742521286011 -0.954540073871612549 0.129039749503135681
0.294182091951370239 -1.9760897159576416 0.462662100791931152
1.30212497711181641 -1.50869393348693848 0.522963106632232666
0.325521916151046753 -0.958955883979797363 0.129937276244163513
-0.322143495082855225 -1.97987842559814453 0.0699427127838134766
-0.440371096134185791 -0.893553793430328369 0.0756360217928886414
-0.758027195930480957 0.662476539611816406 0.0560174882411956787
0.320147842168807983 -0.958843052387237549 0.129103943705558777
0.32362028956413269 -0.957474648952484131 0.130291834473609924
0.450425297021865845 1.94893515110015869 0.126290008425712585
0.299277931451797485 -0.943068206310272217 0.123269170522689819
0.56895524263381958 0.814421951770782471 0.115683935582637787
1.29751050472259521 -1.51433539390563965 0.518187463283538818
0.286866307258605957 -1.9666593074798584 0.461218774318695068
-0.315406620502471924 -1.9747612476348877 0.0664489790797233582
0.297017306089401245 -1.98434579372406006 0.445142090320587158
-0.319843560457229614 -1.98217582702636719 0.0726207271218299866
0.457327127456665039 1.95031023025512695 0.123485706746578217
0.569574058055877686 0.837101638317108154 0.153289094567298889
-0.442851752042770386 -0.890852034091949463 0.0770625844597816467
0.608194530010223389 0.789699316024780273 0.243964865803718567
0.28664696216583252 -1.98718941211700439 0.427847921848297119
0.300406217575073242 -0.954688072204589844 0.131002932786941528
0.314868062734603882 -0.960740208625793457 0.134579867124557495
1.29963195323944092 -1.51378166675567627 0.521386861801147461
0.285520046949386597 -1.97729456424713135 0.425531119108200073
1.30195510387420654 -1.51322829723358154 0.524199604988098145
0.555702865123748779 0.832167327404022217 0.123379558324813843
-0.315483748912811279 -1.98094701766967773 0.0689164474606513977
0.547701597213745117 0.841004848480224609 0.133987948298454285
0.453953683376312256 1.94874846935272217 0.129537448287010193
0.446386188268661499 1.94571137428283691 0.131600826978683472
0.5530129075050354 0.839494585990905762 0.126965627074241638
0.294977128505706787 -1.97811007499694824 0.457685083150863647
-0.444347381591796875 -0.891308724880218506 0.0709657147526741028
0.314970344305038452 -0.953196525573730469 0.13003326952457428
1.29758930206298828 -1.5145421028137207 0.518381655216217041
0.287389367818832397 -1.97667098045349121 0.456074059009552002
0.549070894718170166 0.839045882225036621 0.141524940729141235
0.549677550792694092 0.83150094747543335 0.131244480609893799
-1.08900988101959229 -1.66202187538146973 0.0473178662359714508
1.29927992820739746 -1.51296782493591309 0.520874142646789551
0.323166698217391968 -0.954916715621948242 0.132953464984893799
0.444951534271240234 1.94621241092681885 0.12570558488368988
0.312779068946838379 -0.956284821033477783 0.136440381407737732
0.45299181342124939 1.94575405120849609 0.130343258380889893
0.290584057569503784 -1.98391306400299072 0.452718943357467651
0.323183625936508179 -0.959173619747161865 0.132245704531669617
0.306646525859832764 -0.958208858966827393 0.132264822721481323
0.443591833114624023 1.94523370265960693 0.125680312514305115
0.552283525466918945 0.830971181392669678 0.129081830382347107
0.449718981981277466 1.94433200359344482 0.120427064597606659
1.29821288585662842 -1.51027810573577881 0.516680479049682617
0.451757073402404785 1.94239377975463867 0.12779960036277771
0.293582171201705933 -1.9873654842376709 0.43284723162651062
0.575534582138061523 0.836243808269500732 0.175439417362213135
1.30119919776916504 -1.51181590557098389 0.52490699291229248
0.325830161571502686 -0.95696943998336792 0.127640947699546814
0.443745672702789307 1.94917929172515869 0.131193965673446655
0.58983689546585083 0.826449394226074219 0.214835807681083679
0.605402827262878418 0.786383509635925293 0.231028065085411072
-0.759142637252807617 0.661049485206604004 0.0517673864960670471
0.604542195796966553 0.811716377735137939 0.229056775569915771
-1.09436976909637451 -1.6614987850189209 0.0515185818076133728
0.451221883296966553 1.94423568248748779 0.127019405364990234
0.582043826580047607 0.829770565032958984 0.200417444109916687
0.602157413959503174 0.81549525260925293 0.224302366375923157
0.325497955083847046 -0.960528016090393066 0.130884811282157898
0.456168413162231445 1.94755518436431885 0.128374278545379639
0.610918283462524414 0.793108284473419189 0.228984415531158447
-0.312332332134246826 -1.97971034049987793 0.0720401182770729065
-0.433699369430541992 -0.883771121501922607 0.0709427148103713989
0.323710322380065918 -0.956560075283050537 0.13169492781162262
-0.43616834282875061 -0.891174376010894775 0.0668532103300094604
-0.434755682945251465 -0.895554244518280029 0.0649183541536331177
0.441953867673873901 1.94848179817199707 0.125703766942024231
0.28943479061126709 -1.98617124557495117 0.443923324346542358
-1.09194517135620117 -1.66359376907348633 0.0478395037353038788
0.319792360067367554 -0.953971326351165771 0.132089570164680481
0.454317986965179443 1.94799482822418213 0.124647065997123718
0.292996436357498169 -1.97822451591491699 0.454373210668563843
-0.749072134494781494 0.663629710674285889 0.0557699538767337799
1.30045425891876221 -1.51318800449371338 0.522726893424987793
0.311712831258773804 -0.959246993064880371 0.130989789962768555
0.565256834030151367 0.820668280124664307 0.125059276819229126
1.29819202423095703 -1.51591384410858154 0.519992828369140625
-1.0896230936050415 -1.66143786907196045 0.0498234108090400696
-0.321627765893936157 -1.98120641708374023 0.0694393590092658997
0.603617429733276367 0.813021302223205566 0.228387445211410522
0.287403196096420288 -1.97840893268585205 0.455778568983078003
0.546078324317932129 0.838246703147888184 0.122715696692466736
0.28366774320602417 -1.98040521144866943 0.416667968034744263
-1.09979510307312012 -1.6579582691192627 0.049195408821105957
0.324800431728363037 -0.95827329158782959 0.132063567638397217
-0.436004459857940674 -0.893472135066986084 0.0743656978011131287
0.551502525806427002 0.831609427928924561 0.118192195892333984
0.324210554361343384 -0.954741954803466797 0.133364394307136536
0.293633133172988892 -1.98148941993713379 0.452734798192977905
0.604600191116333008 0.807128727436065674 0.231947407126426697
0.447389662265777588 1.94333148002624512 0.128596827387809753
0.606718361377716064 0.779444992542266846 0.240076124668121338
0.444116055965423584 1.94944572448730469 0.125139683485031128
0.601497232913970947 0.813310146331787109 0.224417492747306824
0.558370351791381836 0.825819015502929688 0.120050989091396332
0.558117687702178955 0.830826222896575928 0.135441377758979797
0.320792645215988159 -0.955412328243255615 0.125822544097900391
-0.311572521924972534 -1.98375797271728516 0.0700702816247940063
0.319737374782562256 -0.958527326583862305 0.131467655301094055
0.569603681564331055 0.829738259315490723 0.138274848461151123
-0.438946366310119629 -0.89546734094619751 0.0685030966997146606
0.316127628087997437 -0.955949127674102783 0.12854360044002533
0.552044212818145752 0.829529762268066406 0.115945398807525635
0.312944233417510986 -0.962329566478729248 0.128744497895240784
0.547711610794067383 0.842516660690307617 0.12964273989200592
0.549359917640686035 0.832989692687988281 0.118729002773761749
0.32386431097984314 -0.956539273262023926 0.136179715394973755
0.324754208326339722 -0.961593508720397949 0.133367568254470825
0.447303712368011475 1.94518280029296875 0.128114387392997742
0.447309434413909912 1.94503188133239746 0.129611507058143616
0.553105771541595459 0.841650962829589844 0.145782738924026489
