ply
format ascii 1.0
element vertex 64
comment vertices
property float x
property float y
property float z
end_header
-0.582500874996185303 -0.812830090522766113 0.240146785974502563
-0.141633898019790649 -0.989919126033782959 0.201841056346893311
0.228322744369506836 -1.98692440986633301 0.331480026245117188
0.390260815620422363 -0.920704364776611328 0.26033136248588562
0.991477310657501221 -0.130279675126075745 0.385059893131256104
-0.291457027196884155 -1.97864925861358643 0.360982120037078857
-0.552186131477355957 -2.94874382019042969 0.384021103382110596
0.581171810626983643 0.813780903816223145 0.281262636184692383
1.61589610576629639 -1.17850744724273682 0.345611035823822021
-0.557397961616516113 0.830245435237884521 0.232407152652740479
0 0 0
0 0 0
0 0 0
0 0 0
0 0 0
0 0 0
0 0 0
0 0 0
0 0 0
0 0 0
0 0 0
0 0 0
0 0 0
0 0 0
0 0 0
0 0 0
0 0 0
0 0 0
0 0 0
0 0 0
0 0 0
0 0 0
0 0 0
0 0 0
0 0 0
0 0 0
0 0 0
0 0 0
0 0 0
0 0 0
0 0 0
0 0 0
0 0 0
0 0 0
0 0 0
0 0 0
0 0 0
0 0 0
0 0 0
0 0 0
0 0 0
0 0 0
0 0 0
0 0 0
0 0 0
0 0 0
0 0 0
0 0 0
0 0 0
0 0 0
0 0 0
0 0 0
0 0 0
0 0 0
