ply
format ascii 1.0
element vertex 256
comment vertices
property float x
property float y
property float z
end_header
1.19691586494445801 1.51050186157226562 0.484328985214233398
-1.43212890625 -1.89166784286499023 0.171508148312568665
0.867319285869598389 -0.730026602745056152 0.469561278820037842
-0.844146728515625 0.855868160724639893 -0.0238512381911277771
1.9592888355255127 0.334343403577804565 -0.108017563819885254
-0.735729575157165527 -0.560191631317138672 0.304793119430541992
-2.04313850402832031 -0.720086097717285156 0.160491988062858582
0.575254917144775391 0.542967915534973145 -0.158386692404747009
0.0783518552780151367 1.3087012767791748 0.36915355920791626
1.20650625228881836 0.218074008822441101 0.571502745151519775
-1.2631763219833374 -1.14619755744934082 0.309362560510635376
-0.157111018896102905 0.647486090660095215 0.170461729168891907
2.02278852462768555 1.03496778011322021 0.0469767265021800995
0.831934690475463867 -0.0338445082306861877 0.114155031740665436
0.725496470928192139 1.06453132629394531 0.111712798476219177
-0.32638627290725708 1.22558283805847168 -0.00797547772526741028
1.21298801898956299 0.473987430334091187 0.0912684574723243713
-0.985874354839324951 -1.83603763580322266 0.468218713998794556
1.67196404933929443 1.66508567333221436 0.336639672517776489
-0.870491981506347656 -0.0822780579328536987 0.439896821975708008
0.841164708137512207 -0.284284770488739014 0.551312923431396484
-0.977457702159881592 -1.47629666328430176 0.195741653442382812
-1.37927842140197754 -1.44386398792266846 -0.00362423807382583618
0.806859076023101807 0.404973298311233521 0.262189537286758423
-0.288085877895355225 1.02965211868286133 0.389417141675949097
1.31783163547515869 0.0562762320041656494 0.127000153064727783
1.70250749588012695 1.32996761798858643 0.0740818679332733154
0.976646959781646729 -0.496614784002304077 0.137462735176086426
-1.13984131813049316 -0.640337049961090088 0.274489462375640869
-0.421391844749450684 0.828529953956604004 -0.0807847902178764343
1.81366312503814697 0.68540346622467041 0.034104764461517334
-1.15624570846557617 -1.80142819881439209 -0.106249548494815826
-1.70926594734191895 -0.922906637191772461 0.0848435163497924805
-0.591284751892089844 -0.240281686186790466 0.123885497450828552
0.897329092025756836 0.730801224708557129 0.0919500440359115601
-1.06251835823059082 -0.300675004720687866 0.173329338431358337
0.0368017703294754028 0.953430533409118652 0.160533398389816284
2.1630702018737793 0.626244723796844482 -0.0331984385848045349
-1.27477169036865234 -1.58902227878570557 0.362731695175170898
1.20362198352813721 1.52292239665985107 0.128665059804916382
1.54138720035552979 1.36301374435424805 0.463146954774856567
-0.589781820774078369 0.964890539646148682 0.190517961978912354
-1.94336116313934326 -0.902332007884979248 -0.163544490933418274
0.6181182861328125 0.893650472164154053 -0.161772355437278748
0.969803750514984131 0.0266030877828598022 0.418592751026153564
-0.699089288711547852 0.607335150241851807 0.148887157440185547
-1.13850641250610352 -2.02427911758422852 0.130742236971855164
1.07921254634857178 -0.488973796367645264 0.43894687294960022
0.716173171997070312 -0.423190683126449585 0.278429865837097168
-1.19081413745880127 -2.06078386306762695 0.423771798610687256
1.0678870677947998 0.237371087074279785 0.233357042074203491
-0.922536492347717285 -0.381593376398086548 0.450330853462219238
1.41897344589233398 1.79128038883209229 0.318602442741394043
-0.0948292240500450134 1.28607416152954102 0.139990061521530151
0.65897291898727417 0.788376867771148682 0.229905739426612854
-0.307410895824432373 0.981047987937927246 0.115744292736053467
-1.03518879413604736 -1.31399798393249512 -0.0146239558234810829
1.9635310173034668 0.611067533493041992 -0.216677144169807434
-2.00774335861206055 -0.979137659072875977 0.177811339497566223
-0.363976120948791504 0.579407751560211182 -0.0293495133519172668
-0.0863895714282989502 0.860828578472137451 -0.047368757426738739
-0.684771895408630371 -0.30995410680770874 0.377953976392745972
0.0980710238218307495 0.63119882345199585 0.157944619655609131
1.17620229721069336 1.76170766353607178 0.456149548292160034
1.32161438465118408 1.36667454242706299 0.287677168846130371
-1.41519021987915039 -1.64361488819122314 0.163798600435256958
0.902471780776977539 0.430893748998641968 0.0344754010438919067
-1.37484443187713623 -1.3584514856338501 0.251630961894989014
-0.187163412570953369 1.25083303451538086 0.39305347204208374
-1.0671314001083374 -1.76676309108734131 0.252809762954711914
-0.499542683362960815 0.751176953315734863 0.128615796566009521
0.483336895704269409 0.734450221061706543 -0.0514857769012451172
0.826840400695800781 -0.686979174613952637 0.243640303611755371
-1.14219212532043457 -1.39199090003967285 0.337365806102752686
0.932656049728393555 0.326430469751358032 0.440537989139556885
-0.819427371025085449 -0.240251511335372925 0.143829137086868286
0.83905947208404541 -0.526671171188354492 0.570502281188964844
1.44010353088378906 1.54868638515472412 0.376344442367553711
-0.942506194114685059 -0.483998775482177734 0.246850281953811646
2.00897693634033203 0.791532814502716064 -0.019112464040517807
-1.06457746028900146 -0.196727961301803589 0.420405209064483643
1.20725715160369873 -0.0806424319744110107 0.264278650283813477
0.858894765377044678 0.916384756565093994 -0.0259339511394500732
-0.0683288648724555969 1.05605483055114746 0.366206467151641846
1.38943517208099365 0.313500463962554932 0.488332688808441162
-0.378692179918289185 1.1689683198928833 0.244382143020629883
-0.167603880167007446 0.853521108627319336 0.245226964354515076
-0.804938793182373047 0.953693211078643799 0.169979572296142578
0.725699007511138916 0.682810425758361816 -0.025702938437461853
0.881021440029144287 -0.295275747776031494 0.312979817390441895
1.1716468334197998 1.68813502788543701 0.260264605283737183
0.92003244161605835 -0.0717362314462661743 0.595943748950958252
1.578421950340271 1.50962090492248535 0.225350916385650635
-1.28710818290710449 -1.77488565444946289 0.261288762092590332
0.881529510021209717 -0.321834862232208252 0.0816884562373161316
-0.633343040943145752 0.833899199962615967 -0.00515452586114406586
1.70626497268676758 1.34691166877746582 0.275782883167266846
0.877306580543518066 0.113939099013805389 0.244829028844833374
-1.15757036209106445 -1.7291259765625 0.473746001720428467
1.24721097946166992 0.263884752988815308 0.358343303203582764
0.582721173763275146 0.865317761898040771 0.060265321284532547
-0.125268876552581787 1.04032480716705322 0.0637769177556037903
1.85767221450805664 0.508979618549346924 -0.0445372685790061951
-1.98459410667419434 -0.735010206699371338 -0.0675138384103775024
-1.49017369747161865 -1.59157538414001465 0.334199517965316772
-0.27033880352973938 0.777049720287322998 0.083626873791217804
-0.944291949272155762 -0.577820777893066406 0.409625411033630371
0.73546910285949707 -0.598077893257141113 0.381426423788070679
1.08880734443664551 0.186464264988899231 0.420608311891555786
-1.37266731262207031 -1.27350068092346191 0.0872566848993301392
-0.149143487215042114 0.874094188213348389 0.428191572427749634
1.15385282039642334 0.0141430646181106567 0.4179421067237854
1.01463055610656738 -0.649993479251861572 0.379691511392593384
-1.02549993991851807 -1.98375678062438965 0.368545502424240112
0.0915206372737884521 0.979421854019165039 0.337702423334121704
-1.03084409236907959 -1.6410210132598877 0.382818371057510376
-0.369497627019882202 0.919005274772644043 0.271632164716720581
1.06863510608673096 -0.392900615930557251 0.249876275658607483
-1.88160097599029541 -0.877462387084960938 0.0777782797813415527
-0.862891674041748047 -0.289076715707778931 0.309664696455001831
-0.366047561168670654 0.635062992572784424 0.13997378945350647
2.10646486282348633 0.709733545780181885 0.111818552017211914
-0.528218567371368408 0.973492860794067383 0.0167718604207038879
1.85720503330230713 0.773242413997650146 -0.108985640108585358
0.89712822437286377 -0.482385158538818359 0.413855373859405518
-0.0186571106314659119 0.79498589038848877 0.138574272394180298
1.27674627304077148 1.6414417028427124 0.383473753929138184
-0.319134235382080078 0.725122034549713135 -0.164859205484390259
1.230599045753479 0.312082171440124512 0.0525693595409393311
-0.68182295560836792 0.766517996788024902 0.196463614702224731
-1.09991466999053955 -0.359855055809020996 0.423065871000289917
0.826415002346038818 0.582696616649627686 0.0705329477787017822
0.838767528533935547 0.854222416877746582 0.185166060924530029
0.970253288745880127 0.390291392803192139 0.266224831342697144
-1.17615175247192383 -1.94274699687957764 0.310746520757675171
0.0572307221591472626 0.792439460754394531 -0.00601656921207904816
-1.95138669013977051 -0.606790125370025635 0.0900284051895141602
1.15919756889343262 0.0676268860697746277 0.606061697006225586
-0.898107528686523438 -0.258486568927764893 0.551404476165771484
0.732153415679931641 -0.509614348411560059 0.143401861190795898
-1.07720887660980225 -0.513731420040130615 0.163927346467971802
-0.291403889656066895 1.02640306949615479 -0.0371321365237236023
-2.02155566215515137 -0.934263348579406738 0.0252658873796463013
1.17441821098327637 1.53552901744842529 0.324471712112426758
0.715144693851470947 0.973103761672973633 -0.0605248510837554932
-1.2620995044708252 -1.61530888080596924 0.1909218430519104
0.0615053065121173859 1.11698698997497559 0.432378262281417847
-1.12697291374206543 -1.53989720344543457 0.289790719747543335
1.12447762489318848 0.373807996511459351 0.282730758190155029
1.48937749862670898 1.38203620910644531 0.225564509630203247
0.839168548583984375 0.771453738212585449 -0.0838755369186401367
0.73731464147567749 0.807533919811248779 0.0628398731350898743
-0.198012873530387878 1.04254937171936035 0.266587197780609131
1.57059454917907715 1.53162384033203125 0.45369488000869751
0.00156468898057937622 1.19475162029266357 0.305866807699203491
-1.0636371374130249 -1.35253286361694336 0.194547876715660095
1.06879079341888428 0.317616879940032959 0.106507837772369385
-1.07374966144561768 -0.41611066460609436 0.277504861354827881
0.930281996726989746 0.208595886826515198 0.349391341209411621
1.18330621719360352 1.38366711139678955 0.407369732856750488
-0.813179254531860352 -0.421845912933349609 0.358078420162200928
-1.42502307891845703 -1.72243404388427734 0.288840830326080322
-0.510031282901763916 1.08823847770690918 0.173192918300628662
0.822308778762817383 0.545702934265136719 0.213207840919494629
-0.34039384126663208 0.774238467216491699 0.213292166590690613
1.96354734897613525 0.611235976219177246 -0.0492144674062728882
1.33952164649963379 1.45161819458007812 0.418160557746887207
0.83302462100982666 0.0350269302725791931 0.549654603004455566
-0.468686759471893311 0.892226338386535645 0.130522012710571289
-0.2317323237657547 1.10911023616790771 0.494961380958557129
-0.757645964622497559 0.744056522846221924 -0.00116958469152450562
-1.29940664768218994 -1.92036652565002441 0.24223792552947998
-0.200095817446708679 0.897111415863037109 0.0305397883057594299
-0.651959836483001709 1.0193253755569458 0.0699659809470176697
-0.923700392246246338 -1.88911104202270508 0.339236944913864136
0.726166486740112305 -0.451634734869003296 0.41706395149230957
-0.0413093641400337219 1.18081974983215332 0.0616590455174446106
0.566464841365814209 1.01887798309326172 -0.120371699333190918
-1.26160824298858643 -1.45766150951385498 0.299464136362075806
-1.40224027633666992 -1.46301126480102539 0.161078497767448425
-1.01293790340423584 -1.33824777603149414 0.350163161754608154
0.0950875207781791687 0.76682126522064209 0.214109569787979126
0.986040234565734863 -0.576128840446472168 0.494969606399536133
0.922526121139526367 -0.590859889984130859 0.293558269739151001
-0.794819355010986328 -0.293156027793884277 0.464687108993530273
0.499204576015472412 0.865440428256988525 -0.0939629822969436646
1.30470752716064453 1.50359892845153809 0.283189356327056885
-0.241581037640571594 1.17987501621246338 0.255403965711593628
1.10524427890777588 -0.526403725147247314 0.308855772018432617
1.51695835590362549 1.65556764602661133 0.416595250368118286
-0.993377566337585449 -0.305171668529510498 0.34984239935874939
-1.22564291954040527 -1.91830158233642578 0.127730220556259155
-1.11878132820129395 -1.83562648296356201 0.400396078824996948
-0.723668754100799561 0.931093752384185791 -0.0300674159079790115
1.08860146999359131 1.66855025291442871 0.41426163911819458
0.710119009017944336 0.802805960178375244 -0.103355869650840759
1.57856869697570801 1.44353485107421875 0.342081993818283081
1.04777443408966064 0.0803336277604103088 0.513193368911743164
-1.00234663486480713 -0.611871123313903809 0.211710035800933838
-1.99530923366546631 -0.842966437339782715 0.166874945163726807
-0.301259696483612061 0.727951169013977051 -0.0361684113740921021
-0.783288061618804932 0.829318881034851074 0.139560610055923462
-0.296783387660980225 1.1591871976852417 0.370489984750747681
0.579320251941680908 0.736605346202850342 0.0659859180450439453
0.957216918468475342 0.2711658775806427 0.177100479602813721
-0.0318162217736244202 0.938966512680053711 0.328292131423950195
-1.96827936172485352 -0.785717010498046875 0.0553347617387771606
-0.35935637354850769 0.917280852794647217 0.0174493920058012009
0.0671604573726654053 1.06671249866485596 0.247366532683372498
-0.292771339416503906 1.2090531587600708 0.144431620836257935
-1.02884769439697266 -0.53044968843460083 0.330651611089706421
0.864043772220611572 -0.00641971081495285034 0.274516880512237549
-0.153670728206634521 0.736113429069519043 0.0704315826296806335
0.606469810009002686 0.727284789085388184 -0.0613667666912078857
-0.477464824914932251 0.858594059944152832 0.248738229274749756
1.19829905033111572 0.449999123811721802 0.221157416701316833
-0.554187178611755371 0.758217036724090576 -0.0595197156071662903
-0.41927802562713623 1.00737631320953369 0.15692804753780365
2.03851175308227539 0.819077849388122559 0.0957438722252845764
0.755006253719329834 -0.613607466220855713 0.557171821594238281
-0.0722638815641403198 1.27992022037506104 0.365746229887008667
-0.997700512409210205 -1.75610899925231934 0.363516002893447876
1.20483016967773438 0.0992691963911056519 0.136167287826538086
-0.958802103996276855 -0.338280677795410156 0.238571032881736755
-0.858841955661773682 -0.184113889932632446 0.366288185119628906
0.654667794704437256 0.951818346977233887 0.099943898618221283
-0.837479114532470703 -0.430524528026580811 0.238571539521217346
1.23513460159301758 -0.0292083695530891418 0.162190526723861694
-0.286882072687149048 1.33527624607086182 0.00779950991272926331
0.863639354705810547 -0.387852400541305542 0.50063169002532959
0.854377388954162598 -0.586707830429077148 0.446810781955718994
1.31866931915283203 0.191826224327087402 0.550570189952850342
1.1197044849395752 0.2945098876953125 0.389327049255371094
-0.719501137733459473 -0.239278882741928101 0.0840411409735679626
0.762640237808227539 0.971780180931091309 0.0519282370805740356
-0.127908602356910706 0.928450942039489746 0.116209954023361206
2.04671382904052734 0.679774343967437744 -0.00622398778796195984
0.027077995240688324 0.894036531448364258 0.0619847476482391357
-0.310616552829742432 1.02170586585998535 0.260753273963928223
-0.113171130418777466 1.16386067867279053 0.384107738733291626
-1.2227863073348999 -1.72447299957275391 0.181057706475257874
-1.82165908813476562 -0.965842247009277344 0.119062423706054688
1.92065441608428955 0.719145417213439941 -0.0205181464552879333
1.50460994243621826 1.6090928316116333 0.304086387157440186
-0.0144840814173221588 0.864698827266693115 0.243849784135818481
-1.37151849269866943 -1.4482879638671875 0.327113360166549683
0.946482956409454346 0.0356321372091770172 0.5387839674949646
0.820103228092193604 -0.461826860904693604 0.296459078788757324
-0.464837402105331421 0.855408430099487305 0.018846418708562851
-1.16493499279022217 -1.78713738918304443 0.301268279552459717
1.0033574104309082 -0.579464852809906006 0.219091355800628662
-0.190367743372917175 1.00223112106323242 0.4319191575050354
-1.99309420585632324 -0.6306418776512146 0.200126618146896362
-0.69872814416885376 0.928245723247528076 0.162826299667358398
0.842778444290161133 -0.331457823514938354 0.408568471670150757
-0.617396831512451172 0.849148809909820557 0.166312932968139648
