ply
format ascii 1.0
element vertex 256
comment vertices
property float x
property float y
property float z
end_header
-0.357872545719146729 0.0321947112679481506 0.604832351207733154
0.682522952556610107 -0.499782741069793701 0.0765017122030258179
0.468534529209136963 0.74220585823059082 -0.0413558855652809143
-0.196145996451377869 -0.439704596996307373 0.159178793430328369
0.50693202018737793 0.0699702799320220947 0.499052643775939941
-0.125175923109054565 -0.285522580146789551 0.635458469390869141
0.0655746906995773315 -0.159275248646736145 0.129796996712684631
-0.482497900724411011 -0.057303059846162796 -0.0195213612169027328
-0.418774843215942383 -0.486573785543441772 0.409679174423217773
0.788674473762512207 -0.0301439277827739716 0.0646832510828971863
0.176807314157485962 0.371571540832519531 0.198881804943084717
0.217253983020782471 -0.452235162258148193 0.258847683668136597
-0.203246265649795532 -0.438255190849304199 0.475346088409423828
0.599859893321990967 -0.286727845668792725 0.371969789266586304
-0.178566083312034607 -0.257781326770782471 0.10658235102891922
-0.362674951553344727 0.158856570720672607 0.292829692363739014
0.4592437744140625 0.339165806770324707 0.00892615318298339844
0.266522020101547241 0.0219398457556962967 0.522591054439544678
0.300553470849990845 -0.283774524927139282 0.369818806648254395
-0.174521848559379578 0.0882891863584518433 0.455868422985076904
0.125825688242912292 0.639930188655853271 0.155589818954467773
0.427933752536773682 0.277192026376724243 0.00731255300343036652
-0.333930909633636475 -0.636448800563812256 0.327464014291763306
-0.581382095813751221 -0.121031329035758972 0.531017482280731201
0.0770638585090637207 -0.253255844116210938 0.426348239183425903
-0.365871608257293701 -0.24698185920715332 0.446866482496261597
-0.163742899894714355 -0.0352839529514312744 0.129398316144943237
-0.0160011295229196548 -0.372402548789978027 0.142631173133850098
0.532940149307250977 -0.600666999816894531 0.134350195527076721
-0.0798015296459197998 -0.592092037200927734 0.461146086454391479
0.102381840348243713 0.431278586387634277 0.00284404400736093521
0.419499635696411133 -0.103091180324554443 0.388670861721038818
0.689807653427124023 -0.239420309662818909 0.212492465972900391
-0.204492092132568359 -0.509890377521514893 0.29282844066619873
-0.44930952787399292 -0.467072069644927979 0.495986282825469971
-0.458225369453430176 0.124149754643440247 0.147687464952468872
0.454465776681900024 0.18138471245765686 0.104833051562309265
-0.179626092314720154 -0.17261892557144165 0.742608785629272461
0.056718192994594574 0.491525411605834961 0.28643035888671875
0.224983334541320801 0.0731336846947669983 0.254678726196289062
0.293918102979660034 0.595571815967559814 0.373233973979949951
0.03471389040350914 -0.593820452690124512 0.185666263103485107
0.594826042652130127 -0.111847706139087677 0.396346479654312134
0.432896971702575684 -0.371158242225646973 0.392602324485778809
-0.075648188591003418 0.181535691022872925 0.29962959885597229
-0.444974124431610107 -0.219401568174362183 0.270304113626480103
-0.241498097777366638 0.0690203607082366943 0.247104555368423462
-0.439205259084701538 0.283498823642730713 0.584548056125640869
0.370526492595672607 -0.308408737182617188 0.358505904674530029
0.406085401773452759 0.399550884962081909 -0.0548861846327781677
-0.675011277198791504 0.12936951220035553 0.372579187154769897
0.527037203311920166 0.154236555099487305 0.1411467045545578
0.659470796585083008 -0.284405648708343506 0.17083074152469635
-0.39088141918182373 -0.303369104862213135 0.571088910102844238
-0.190134361386299133 -0.325421690940856934 0.530705571174621582
0.243132323026657104 0.525319159030914307 0.11064215749502182
-0.20817902684211731 -0.338110119104385376 0.274901866912841797
-0.116692230105400085 -0.51931530237197876 0.218278855085372925
0.168979525566101074 -0.572562217712402344 0.144181340932846069
-0.310892641544342041 0.0390216335654258728 0.585116386413574219
0.135287255048751831 -0.309370726346969604 0.150509640574455261
-0.292427092790603638 -0.413700520992279053 0.468058913946151733
0.588618814945220947 -0.431728541851043701 0.272490918636322021
0.513013243675231934 0.027885090559720993 0.666256487369537354
0.28193056583404541 0.0101144984364509583 0.139398679137229919
-0.144739806652069092 -0.20921596884727478 0.151343971490859985
-0.103173583745956421 -0.546838521957397461 0.317730993032455444
-0.412888526916503906 0.0105437636375427246 0.489317178726196289
-0.408866167068481445 -0.302133798599243164 0.476703375577926636
0.572411000728607178 0.140704303979873657 0.289264082908630371
-0.431025981903076172 -0.14394417405128479 0.613800406455993652
0.530329048633575439 -0.441586047410964966 0.178778320550918579
0.296653956174850464 -0.445778220891952515 0.212501257658004761
-0.18002164363861084 -0.56948554515838623 0.450054824352264404
-0.344389051198959351 -0.535285413265228271 0.454669594764709473
0.674192965030670166 0.245412632822990417 0.222630232572555542
-0.0386489070951938629 -0.557457804679870605 0.324731796979904175
0.166099891066551208 0.312456369400024414 0.0489347577095031738
-0.140729397535324097 -0.0769060775637626648 0.265546649694442749
0.290592372417449951 -0.134401917457580566 0.511208891868591309
0.37141302227973938 0.13044363260269165 0.498670607805252075
0.383437871932983398 0.328669100999832153 0.172647342085838318
0.433164745569229126 0.217387154698371887 0.02858753502368927
-0.396456241607666016 -0.0335991904139518738 0.481105834245681763
0.107885107398033142 0.548485219478607178 0.146476998925209045
0.596682131290435791 -0.278055131435394287 0.233838602900505066
-0.415383100509643555 -0.0674633756279945374 0.618426144123077393
-0.353380292654037476 -0.296888977289199829 0.436323672533035278
-0.0566450878977775574 -0.528808712959289551 0.0692815631628036499
0.622993052005767822 -0.280368983745574951 0.312652498483657837
-0.182224571704864502 -0.322693884372711182 0.605482876300811768
0.0752506330609321594 -0.312519490718841553 0.275898844003677368
-0.346095830202102661 0.0409696958959102631 0.202578365802764893
0.370006084442138672 -0.176247075200080872 0.217462778091430664
0.428816318511962891 -0.22283528745174408 0.341428518295288086
0.193193495273590088 0.00833425857126712799 0.121400915086269379
-0.320431888103485107 -0.393158376216888428 0.415180683135986328
-0.278864949941635132 0.198908895254135132 0.616173267364501953
-0.273456573486328125 -0.676325500011444092 0.194056510925292969
0.251395493745803833 0.0661605894565582275 0.324818938970565796
0.558628499507904053 -0.413303077220916748 -0.00516401045024394989
-0.302713930606842041 -0.460974395275115967 0.49619978666305542
0.694167017936706543 0.0553333312273025513 0.387589573860168457
-0.338983893394470215 0.0567975044250488281 0.42407989501953125
-0.113431461155414581 -0.434196323156356812 0.212279945611953735
-0.242812842130661011 -0.0818075686693191528 0.0975891873240470886
-0.381001412868499756 -0.118865981698036194 0.489702999591827393
-0.144635885953903198 -0.248839229345321655 0.204715073108673096
-0.214555114507675171 0.266528844833374023 0.157801985740661621
-0.25533682107925415 -0.0430167168378829956 0.239106029272079468
-0.0685122758150100708 -0.430653482675552368 0.474327534437179565
0.0774939507246017456 0.188947081565856934 0.216866374015808105
0.160277619957923889 -0.331076353788375854 0.156887710094451904
-0.447331160306930542 0.0946154296398162842 0.165163591504096985
0.225987553596496582 0.422040343284606934 0.0794171318411827087
0.473750531673431396 -0.199428841471672058 0.437300294637680054
0.150230169296264648 0.39507979154586792 0.229676246643066406
0.228823825716972351 -0.322592616081237793 0.34673956036567688
-0.526968777179718018 0.02680988609790802 0.433946788311004639
0.306192755699157715 -0.093811914324760437 0.25797426700592041
-0.563788414001464844 0.0311526171863079071 0.364607483148574829
-0.417257934808731079 -0.0769556313753128052 0.701322317123413086
0.199651330709457397 0.594032168388366699 -0.0371793955564498901
-0.084071040153503418 -0.484933316707611084 0.328917324542999268
0.488609462976455688 -0.255260109901428223 0.326541900634765625
0.0390308424830436707 -0.499918580055236816 0.17885705828666687
-0.148236304521560669 -0.405657500028610229 0.0667887777090072632
-0.28888314962387085 -0.140209317207336426 0.377659738063812256
0.449747204780578613 0.338273167610168457 0.107289306819438934
0.33130231499671936 0.189222291111946106 0.194181129336357117
0.516366362571716309 0.384317100048065186 -0.000676512718200683594
0.422673344612121582 -0.234823405742645264 0.337139725685119629
-0.339092254638671875 0.0800798758864402771 0.293314069509506226
-0.153354063630104065 -0.521584749221801758 0.198253363370895386
-0.17355714738368988 -0.448804736137390137 0.472389370203018188
0.549379944801330566 -0.440271586179733276 0.125329196453094482
0.39133647084236145 -0.527900218963623047 0.126187115907669067
-0.069555819034576416 -0.320191085338592529 0.664014697074890137
0.173308134078979492 -0.440569192171096802 0.225201234221458435
-0.164104923605918884 -0.462618798017501831 0.372977972030639648
-0.198209255933761597 -0.436988174915313721 0.445388555526733398
0.258191585540771484 -0.585715889930725098 0.224902093410491943
-0.4057578444480896 -0.366658717393875122 0.467069804668426514
-0.102184727787971497 0.180538952350616455 0.383853733539581299
0.286249309778213501 -0.14721013605594635 0.319105297327041626
-0.111874319612979889 -0.424671471118927002 0.301872551441192627
-0.451775252819061279 -0.195507451891899109 0.345674514770507812
0.489454776048660278 0.120946705341339111 0.202998489141464233
0.540826857089996338 -0.0769634246826171875 0.381439268589019775
-0.43230631947517395 -0.0284900814294815063 0.460429936647415161
-0.136850953102111816 -0.511157453060150146 0.256035149097442627
-0.0999117791652679443 -0.322980582714080811 0.415602117776870728
0.45230180025100708 -0.376263737678527832 0.293584704399108887
0.571814954280853271 -0.09838876873254776 0.180666416883468628
-0.423411309719085693 0.154473111033439636 0.74989616870880127
-0.414809703826904297 -0.403901785612106323 0.468849897384643555
0.242124870419502258 0.250180512666702271 0.0112554561346769333
-0.259948700666427612 -0.626931667327880859 0.304509729146957397
0.144664078950881958 -0.50214850902557373 0.238935619592666626
-0.225353717803955078 -0.394307494163513184 0.71157228946685791
0.31521075963973999 -0.283623933792114258 0.435804426670074463
-0.320992946624755859 -0.472460657358169556 0.410744994878768921
0.407925516366958618 0.265604645013809204 -0.0475138425827026367
0.639042139053344727 0.287701040506362915 0.301034927368164062
-0.123099058866500854 -0.321538925170898438 0.136131986975669861
0.596728086471557617 -0.0209104977548122406 0.348853766918182373
-0.387621074914932251 -0.0998275429010391235 0.274991720914840698
-0.352984905242919922 -0.402436614036560059 0.339116394519805908
0.396627873182296753 0.350713014602661133 0.191797584295272827
0.580081582069396973 -0.179066404700279236 0.344837188720703125
0.318938344717025757 0.145842760801315308 0.469565540552139282
-0.165704905986785889 -0.351475417613983154 0.426253855228424072
-0.133055880665779114 0.370760858058929443 0.436501175165176392
-0.284999310970306396 -0.481085300445556641 0.503183722496032715
0.405692458152770996 0.169255077838897705 0.273491621017456055
-0.319967091083526611 -0.0157316587865352631 0.131970122456550598
0.465587973594665527 0.110043466091156006 0.074460834264755249
0.331801712512969971 -0.0665338635444641113 0.670452356338500977
0.214795306324958801 0.397894561290740967 0.125726819038391113
0.35453563928604126 -0.499107033014297485 0.274170279502868652
0.24447217583656311 -0.37002640962600708 0.218039333820343018
0.107377402484416962 -0.181623071432113647 0.249299347400665283
0.0896508842706680298 0.0446988940238952637 0.227802693843841553
0.439053893089294434 -0.543277442455291748 0.137007564306259155
-0.118123970925807953 -0.139979362487792969 0.223706930875778198
0.494878888130187988 -0.286483228206634521 0.357205331325531006
-0.323521316051483154 -0.38296884298324585 0.399162858724594116
0.141007304191589355 -0.0439572855830192566 0.273565769195556641
0.0937422513961791992 -0.195571482181549072 0.431564092636108398
-0.397789716720581055 -0.211873650550842285 0.416651755571365356
-0.0683672130107879639 -0.506440520286560059 0.442070931196212769
0.464308232069015503 -0.251469880342483521 0.331669896841049194
-0.337228685617446899 0.116753295063972473 0.667851805686950684
-0.281970560550689697 0.178049534559249878 0.396649628877639771
-0.0768694132566452026 -0.383892655372619629 0.589070320129394531
0.647662580013275146 0.129796341061592102 0.268394798040390015
0.437821805477142334 -0.336816638708114624 0.27289775013923645
-0.371071547269821167 -0.089623570442199707 0.526528418064117432
-0.431280434131622314 -0.351395666599273682 0.477476060390472412
0.4836617112159729 0.00125253573060035706 0.231902480125427246
-0.441073179244995117 0.0218160878866910934 0.171853929758071899
0.375894755125045776 -0.360519111156463623 0.252364426851272583
-0.346259832382202148 -0.579023122787475586 0.41847836971282959
0.0662205368280410767 -0.423564493656158447 0.169472739100456238
-0.307388514280319214 -0.49703371524810791 0.459144353866577148
0.516837835311889648 -0.323817908763885498 0.225517004728317261
-0.205616787075996399 -0.286419928073883057 0.410997658967971802
0.429184526205062866 0.130399033427238464 0.0167245566844940186
-0.220722898840904236 -0.472313076257705688 0.0657387971878051758
-0.406870365142822266 0.172063976526260376 0.570401370525360107
-0.452816486358642578 -0.0219897627830505371 0.578459024429321289
0.50398099422454834 -0.251875936985015869 0.390584617853164673
-0.259271711111068726 -0.424281954765319824 0.480581015348434448
0.533825218677520752 -0.40584757924079895 0.174909621477127075
0.381863296031951904 -0.253629326820373535 0.384468525648117065
0.325866550207138062 -0.409015893936157227 0.388791382312774658
0.54559701681137085 -0.321041285991668701 0.281815260648727417
-0.0969521030783653259 -0.510304808616638184 0.214637070894241333
0.382844507694244385 0.28082507848739624 0.147800162434577942
-0.262602478265762329 -0.36581537127494812 0.368225514888763428
0.0325345247983932495 0.283566057682037354 0.170773506164550781
-0.359255999326705933 0.146084636449813843 0.676198124885559082
-0.0872110277414321899 -0.454565107822418213 0.240476980805397034
-0.167028471827507019 -0.322996139526367188 0.790777206420898438
0.116220474243164062 0.345642209053039551 0.133090794086456299
-0.113194480538368225 -0.464500367641448975 0.44369274377822876
0.0308181196451187134 -0.230952411890029907 0.173430100083351135
0.0566532239317893982 0.318289816379547119 0.276137113571166992
0.280233263969421387 -0.0169935300946235657 0.648002743721008301
0.633798360824584961 0.139141872525215149 0.11112368106842041
-0.123047977685928345 -0.324758797883987427 0.18565523624420166
0.237075358629226685 0.224082022905349731 0.0720578879117965698
-0.232313469052314758 -0.448436617851257324 0.496619731187820435
-0.182422250509262085 0.130483418703079224 0.199777930974960327
-0.44201698899269104 -0.0388566255569458008 0.56235969066619873
-0.0514652132987976074 -0.169983595609664917 0.380601644515991211
-0.241375625133514404 0.202202796936035156 0.367326259613037109
-0.300894051790237427 -0.118667289614677429 0.713992953300476074
0.284839481115341187 0.0590146109461784363 0.255325168371200562
-0.284393012523651123 -0.457549154758453369 0.413994371891021729
-0.473604351282119751 -0.00977856293320655823 0.537672698497772217
-0.301251322031021118 -0.040680907666683197 0.247849524021148682
0.0354255586862564087 -0.536591947078704834 0.270135223865509033
0.119546294212341309 0.432259678840637207 0.144000530242919922
-0.238158866763114929 -0.274986684322357178 0.33778071403503418
-0.403839707374572754 -0.126134634017944336 0.454340696334838867
0.00818745791912078857 -0.25024077296257019 0.197698965668678284
0.382022708654403687 -0.036249995231628418 0.546540260314941406
0.0837023183703422546 -0.317226409912109375 0.316420018672943115
-0.416873961687088013 0.0380296111106872559 0.538052022457122803
-0.289752453565597534 -0.51452171802520752 0.227175295352935791
0.466019153594970703 0.248939380049705505 0.119232803583145142
0.0666518360376358032 -0.322876006364822388 0.143000677227973938
0.297006160020828247 0.172378882765769958 0.168252274394035339
0.669397294521331787 -0.0599656440317630768 0.162870228290557861
-0.108993440866470337 0.256532192230224609 0.441119372844696045
