ply
format ascii 1.0
element vertex 36
comment vertices
property float x
property float y
property float z
end_header
-0.297251850366592407 -0.128957569599151611 0.392057418823242188
-0.398283153772354126 -0.190591126680374146 0.430944740772247314
-0.442130804061889648 0.0157267414033412933 0.478953659534454346
-0.408415436744689941 -0.0660169273614883423 0.589686036109924316
-0.470554202795028687 -0.215877711772918701 0.625255405902862549
-0.381502866744995117 0.0675479099154472351 0.182652860879898071
-0.518460631370544434 -0.0990575328469276428 0.518418848514556885
-0.557288706302642822 -0.0248747356235980988 0.580652356147766113
-0.288731247186660767 -0.299812763929367065 0.590721607208251953
-0.414698243141174316 -0.116034671664237976 0.248463153839111328
-0.45332634449005127 -0.0972441434860229492 0.509121119976043701
-0.575463294982910156 -0.0829352065920829773 0.561238765716552734
-0.319041848182678223 -0.150451451539993286 0.108684845268726349
-0.531252026557922363 -0.0599230974912643433 0.617909550666809082
-0.446634143590927124 -0.266847759485244751 0.583552002906799316
-0.406628310680389404 -0.134521692991256714 0.673482418060302734
-0.375869691371917725 -0.0529814362525939941 0.349492579698562622
-0.449022233486175537 -0.127078548073768616 0.539113819599151611
-0.161264896392822266 -0.266843140125274658 0.54977947473526001
-0.265485823154449463 -0.138094022870063782 0.501922786235809326
-0.437639534473419189 -0.00556702911853790283 0.183772057294845581
-0.540738701820373535 -0.184796229004859924 0.609133720397949219
-0.512430727481842041 -0.00193928182125091553 0.588522493839263916
-0.370248615741729736 -0.0904112756252288818 0.398970425128936768
-0.570377051830291748 -0.0428192466497421265 0.577032566070556641
-0.521948397159576416 0.0616244524717330933 0.253559976816177368
-0.453257739543914795 -0.193421274423599243 0.570046782493591309
-0.224331855773925781 -0.412372708320617676 0.498286426067352295
-0.286709189414978027 -0.128685951232910156 0.375050753355026245
-0.420716702938079834 -0.152265682816505432 0.288899660110473633
-0.38758164644241333 -0.103497803211212158 0.202269420027732849
-0.456051260232925415 -0.0280262678861618042 0.671978473663330078
-0.502104222774505615 -0.0366674661636352539 0.595786452293395996
-0.339042365550994873 -0.201124608516693115 0.593144893646240234
-0.572977602481842041 -0.182033881545066833 0.150371745228767395
-0.478122502565383911 -0.0694014281034469604 0.628052771091461182
