ply
format ascii 1.0
element vertex 256
comment vertices
property float x
property float y
property float z
end_header
0.409933924674987793 -0.2524128258228302 0.239908546209335327
-0.686125695705413818 0.253221452236175537 0.165067315101623535
-0.390737950801849365 -0.518894493579864502 0.212859153747558594
0.349935710430145264 0.446771472692489624 0.524644136428833008
0.817552089691162109 0.260623127222061157 0.111870385706424713
-0.0599837526679039001 0.232420593500137329 0.0545130372047424316
-0.000111952424049377441 -0.432301789522171021 0.644344568252563477
0.808802485466003418 -0.104689456522464752 0.64243704080581665
-0.0190735086798667908 -0.494580537080764771 -0.129995644092559814
0.0431704521179199219 0.0765815973281860352 0.50587761402130127
-0.341849982738494873 -0.108024798333644867 0.0505794845521450043
-0.663219869136810303 -0.114900439977645874 0.390100598335266113
0.368258297443389893 -0.260847151279449463 0.77994537353515625
0.417328238487243652 0.168629467487335205 0.192966446280479431
-0.345083177089691162 0.142234444618225098 0.360174179077148438
0.0224572047591209412 -0.269716262817382812 0.235935583710670471
0.616327345371246338 0.185948386788368225 0.523413181304931641
-0.0237554386258125305 -0.612345695495605469 0.339574456214904785
-0.38465350866317749 0.281476199626922607 0.0212078317999839783
0.334866940975189209 -0.0742385387420654297 0.505349814891815186
0.704219818115234375 -0.0409782342612743378 0.108446888625621796
0.445722132921218872 -0.133471027016639709 -0.0540107972919940948
0.255334943532943726 -0.383417993783950806 -0.0203770920634269714
-0.372649908065795898 -0.223557278513908386 0.352189481258392334
0.271162658929824829 -0.574390828609466553 0.261845856904983521
-0.127655193209648132 -0.00277443975210189819 0.2228432297706604
0.306876957416534424 -0.463238686323165894 0.586974203586578369
0.082814335823059082 -0.16041816771030426 -0.0507262051105499268
0.667743921279907227 -0.311907172203063965 0.329852044582366943
-0.17650894820690155 -0.346479058265686035 0.0294130891561508179
0.574365079402923584 -0.0659269988536834717 0.397713780403137207
-0.543488621711730957 0.3401145339012146 0.358473986387252808
0.196541845798492432 -0.329083681106567383 0.399786502122879028
-0.0276166759431362152 -0.213572233915328979 0.469244122505187988
-0.488148987293243408 -0.319337427616119385 0.110556364059448242
-0.460531234741210938 0.0897983908653259277 0.147144705057144165
-0.119986310601234436 0.206112116575241089 0.335969537496566772
-0.0116922184824943542 -0.479874491691589355 0.13933330774307251
-0.608345925807952881 0.111087493598461151 0.391006380319595337
-0.20820385217666626 -0.41777154803276062 0.308013260364532471
0.605916976928710938 0.253881782293319702 0.304958075284957886
0.319903254508972168 0.125767946243286133 0.394598901271820068
0.110174164175987244 0.182578951120376587 0.196890249848365784
-0.211884498596191406 0.415302038192749023 0.061529405415058136
-0.532827973365783691 -0.421557098627090454 0.352575600147247314
0.157693460583686829 -0.283747315406799316 0.690832614898681641
-0.14293980598449707 0.0118608996272087097 0.00651739910244941711
0.514574110507965088 -0.462650835514068604 0.35778161883354187
-0.58895796537399292 -0.0819245874881744385 0.16411319375038147
0.225597470998764038 -0.146475642919540405 0.207558676600456238
0.0670408830046653748 0.00133618712425231934 0.293231040239334106
-0.224907979369163513 -0.202961698174476624 0.208981975913047791
-0.263812273740768433 0.227257281541824341 0.17683139443397522
0.415943831205368042 0.25720822811126709 0.535091757774353027
-0.129330664873123169 -0.0459713339805603027 0.425305724143981934
0.0170450806617736816 -0.414618819952011108 0.379186123609542847
0.401688843965530396 -0.0269833505153656006 0.296426773071289062
-0.0851478874683380127 -0.175576776266098022 0.0749595314264297485
0.185557752847671509 -0.356924325227737427 0.173040539026260376
0.482019126415252686 -0.173074141144752502 0.587173879146575928
-0.488639086484909058 -0.531254470348358154 0.0465623587369918823
-0.29109877347946167 -0.119604408740997314 0.493826359510421753
0.0125189991667866707 -0.330278337001800537 -0.00148525461554527283
-0.274793177843093872 -0.218619212508201599 -0.0871669724583625793
0.676338613033294678 0.00805444642901420593 0.542924761772155762
0.537456512451171875 -0.199961617588996887 0.111704513430595398
-0.305022597312927246 0.107084758579730988 -0.00225667469203472137
0.38437303900718689 -0.304977118968963623 0.415637046098709106
0.427223026752471924 0.273946881294250488 0.344171375036239624
-0.660035192966461182 0.0805135071277618408 0.10774732381105423
-0.318982124328613281 0.00627671182155609131 0.218144878745079041
0.571363568305969238 0.272252500057220459 0.130630582571029663
-0.454935193061828613 0.27173730731010437 0.225308328866958618
-0.230551004409790039 -0.510185956954956055 0.0158461220562458038
0.219506651163101196 -0.196976691484451294 0.538354933261871338
0.683787167072296143 -0.106767788529396057 0.274614125490188599
-0.166009798645973206 -0.262620866298675537 0.360834419727325439
-0.2903919517993927 -0.395186066627502441 0.160618990659713745
0.321205347776412964 -0.452357888221740723 0.1586599200963974
0.309673190116882324 -0.151372551918029785 0.357233047485351562
-0.469216585159301758 0.0433830060064792633 0.311386555433273315
0.400744915008544922 -0.315758615732192993 -0.00454434752464294434
0.254762470722198486 -0.242544785141944885 0.0573273226618766785
-0.673277139663696289 0.0468577668070793152 0.262317150831222534
0.137879535555839539 -0.527625203132629395 0.153366923332214355
0.675139069557189941 -0.226955562829971313 0.462325215339660645
0.128172516822814941 -0.195584192872047424 0.351677030324935913
0.0985257774591445923 -0.458439886569976807 0.526077151298522949
0.168511301279067993 0.135428234934806824 0.427191197872161865
0.545378923416137695 -0.0464713908731937408 0.129253029823303223
-0.09795379638671875 -0.36327090859413147 0.189480066299438477
-0.527257621288299561 -0.287367701530456543 0.278340399265289307
0.531437993049621582 0.349495738744735718 0.426831096410751343
0.0211420506238937378 0.103003799915313721 0.0551793873310089111
0.4954090416431427 -0.194182351231575012 0.374063491821289062
0.44009476900100708 0.0202960595488548279 0.561170876026153564
0.384096443653106689 -0.143079623579978943 0.137437999248504639
-0.0232352502644062042 -0.12874189019203186 0.20529136061668396
-0.28561025857925415 -0.253791332244873047 0.082077518105506897
-0.4392738938331604 -0.203967034816741943 0.192220866680145264
0.589713752269744873 0.116320490837097168 0.25532376766204834
0.619324564933776855 0.0823082178831100464 0.42059779167175293
0.112059339880943298 -0.255053192377090454 0.0771629065275192261
-0.112662926316261292 0.099679410457611084 0.117210358381271362
-0.236155077815055847 -0.0546036809682846069 0.330701351165771484
0.692594408988952637 -0.23179897665977478 0.207413911819458008
0.304032504558563232 -0.214590460062026978 0.662218391895294189
-0.0873194783926010132 -0.479154676198959351 -0.00679441913962364197
-0.543259620666503906 0.151006892323493958 0.256662189960479736
0.502711296081542969 0.363493770360946655 0.56933826208114624
0.0892513543367385864 -0.435804784297943115 -0.0559559762477874756
0.599330782890319824 -0.120590046048164368 0.524985790252685547
0.466539174318313599 0.163167282938957214 0.443826109170913696
-0.40597832202911377 -0.376203000545501709 0.317561089992523193
-0.521966397762298584 -0.48018839955329895 0.171319320797920227
-0.519202709197998047 0.257711708545684814 0.00179830938577651978
-0.00982639193534851074 -0.602719664573669434 0.200585633516311646
0.165742173790931702 -0.536293685436248779 0.339209765195846558
-0.145644307136535645 -0.499904751777648926 0.15215669572353363
-0.0792527943849563599 0.395341783761978149 0.0840720534324645996
-0.176514744758605957 0.124384842813014984 0.244443967938423157
-0.207578346133232117 -0.103729806840419769 -0.0190414898097515106
0.0194602757692337036 -0.0487166643142700195 0.462418287992477417
0.445823341608047485 0.0427381694316864014 0.145145043730735779
-0.439718425273895264 -0.0409409105777740479 0.112230241298675537
0.193698197603225708 -0.497944295406341553 0.0101850256323814392
-0.362331241369247437 -0.0185494422912597656 0.360762536525726318
-0.432626962661743164 0.0729116052389144897 -0.0160660240799188614
-0.540372371673583984 -0.0682705119252204895 0.308888703584671021
0.75343245267868042 0.211564958095550537 0.215728148818016052
-0.222649499773979187 -0.0759217441082000732 0.169689446687698364
0.292608201503753662 -0.277965307235717773 0.187350183725357056
0.414048522710800171 0.025997161865234375 0.415279597043991089
-0.52534937858581543 0.210368335247039795 0.137426853179931641
0.366082668304443359 -0.449102222919464111 0.278689920902252197
0.55010831356048584 -0.202658385038375854 0.259001374244689941
-0.523026645183563232 -0.00557966902852058411 0.418665230274200439
-0.253762274980545044 0.219799906015396118 0.319672137498855591
-0.632044792175292969 0.269809842109680176 0.302539944648742676
-0.178828597068786621 0.190631702542304993 0.0539989545941352844
0.444651305675506592 -0.110375016927719116 0.458649575710296631
-0.414535313844680786 -0.452614545822143555 0.108592085540294647
-0.461739927530288696 0.184718325734138489 0.350245922803878784
-0.0615048594772815704 -0.205733507871627808 0.326109021902084351
0.493821471929550171 -0.306905031204223633 0.156069383025169373
0.118279539048671722 -0.396856456995010376 0.0574785768985748291
-0.230446606874465942 0.0734590739011764526 0.0922011882066726685
-0.0338115990161895752 -0.283453792333602905 0.103910855948925018
0.482902646064758301 -0.353417307138442993 0.312042325735092163
0.394033491611480713 -0.225755020976066589 0.508371114730834961
0.235782787203788757 -0.26787334680557251 0.301707655191421509
-0.0342279672622680664 0.0885217487812042236 0.414016276597976685
-0.33457106351852417 0.1380511075258255 0.138609662652015686
0.151689499616622925 -0.370983004570007324 0.297930687665939331
0.498392492532730103 0.0579536259174346924 0.303696900606155396
0.486151695251464844 -0.110369786620140076 0.220778167247772217
0.0932545438408851624 -0.127595275640487671 0.186136335134506226
0.664987146854400635 -0.150786250829696655 0.125255733728408813
0.346574485301971436 0.262772083282470703 0.193037509918212891
-0.0695778429508209229 -0.00129578262567520142 0.325263947248458862
-0.332567870616912842 -0.383033633232116699 0.0514087788760662079
0.567703843116760254 0.214508146047592163 0.413620144128799438
-0.311710923910140991 -0.127628058195114136 0.278723359107971191
-0.27695232629776001 -0.00730742327868938446 0.0214558281004428864
0.217148274183273315 -0.290352374315261841 -0.0797178745269775391
-0.0819311589002609253 -0.0319866128265857697 0.0959216654300689697
-0.431998521089553833 0.170526713132858276 0.0694177746772766113
0.384440153837203979 -0.357734769582748413 0.140692740678787231
-0.379595041275024414 0.284810036420822144 0.135831579566001892
0.525269448757171631 0.0215605795383453369 0.453311830759048462
-0.196987062692642212 -0.317093312740325928 0.254328817129135132
-0.272348970174789429 0.259365469217300415 0.0227935314178466797
-0.107651799917221069 -0.0997600555419921875 0.280037373304367065
0.12561015784740448 -0.0515180602669715881 0.375501900911331177
0.13776126503944397 -0.259518861770629883 0.244468122720718384
0.628974437713623047 -0.0358470156788825989 0.203862905502319336
0.62875521183013916 0.183846205472946167 0.175301656126976013
0.0206780657172203064 -0.36347430944442749 0.159655302762985229
0.550232172012329102 0.0254012197256088257 0.57851099967956543
-0.691517949104309082 0.146217167377471924 0.32604682445526123
-0.119035691022872925 -0.481011331081390381 0.288504868745803833
0.61044609546661377 0.299739718437194824 0.486591547727584839
-0.272073209285736084 -0.497664809226989746 0.117792598903179169
-0.0347128212451934814 0.0722880363464355469 0.190956935286521912
0.27522963285446167 -0.290147453546524048 0.516871809959411621
0.0736820101737976074 -0.275618046522140503 0.404028654098510742
0.703038215637207031 0.0442703217267990112 0.178022518754005432
-0.19013698399066925 -0.198610112071037292 0.0333787873387336731
-0.485702931880950928 -0.160525619983673096 0.285655379295349121
0.109515883028507233 -0.373294293880462646 0.649826884269714355
-0.0799810886383056641 0.10551917552947998 0.292139410972595215
0.423572331666946411 -0.226263895630836487 0.0796161070466041565
0.512573301792144775 0.215475574135780334 0.214779391884803772
0.353955090045928955 0.193684861063957214 0.277059584856033325
0.0362451672554016113 -0.470804512500762939 0.288747251033782959
0.271054059267044067 -0.366331994533538818 0.331293672323226929
-0.264207303524017334 0.0459030866622924805 0.306981682777404785
0.673335850238800049 -0.0399189479649066925 0.638360142707824707
0.45024263858795166 0.147796511650085449 0.547967791557312012
-0.321976363658905029 -0.361674189567565918 0.255410343408584595
0.236832767724990845 -0.48210182785987854 0.224815905094146729
0.603019416332244873 -0.144958719611167908 0.329824656248092651
-0.406840145587921143 -0.0492685548961162567 0.227089077234268188
-0.132321059703826904 -0.178506076335906982 0.168277323246002197
-0.0856171920895576477 -0.298040807247161865 0.00600032508373260498
-0.135277286171913147 0.199504673480987549 0.147304967045783997
0.226987794041633606 -0.307822078466415405 0.618326663970947266
0.590496182441711426 -0.399020999670028687 0.384846806526184082
0.686662733554840088 -0.0206492394208908081 0.444924116134643555
0.159209832549095154 -0.375953853130340576 0.528868556022644043
0.526681721210479736 0.155370026826858521 0.32585376501083374
0.508000731468200684 -0.081791222095489502 0.549989163875579834
-0.221255838871002197 -0.488316833972930908 0.21947091817855835
-0.391962409019470215 0.0406639352440834045 0.0743561238050460815
0.605637431144714355 0.040711134672164917 0.140896335244178772
-0.0447294861078262329 -0.206359580159187317 -0.0131271816790103912
0.425726652145385742 -0.158330813050270081 0.309265851974487305
-0.30092167854309082 -0.139597341418266296 0.157204285264015198
-0.657773852348327637 0.0223448295146226883 0.389363378286361694
-0.386195629835128784 -0.253188133239746094 0.0930340439081192017
-0.298133790493011475 -0.463609188795089722 0.308932304382324219
0.252666652202606201 -0.47116541862487793 0.0872954502701759338
0.679497718811035156 -0.212372779846191406 0.3230324387550354
0.285253047943115234 -0.352050423622131348 0.0702368021011352539
-0.407669663429260254 -0.284858167171478271 0.27596476674079895
-0.24225124716758728 -0.232790946960449219 0.303200781345367432
0.381824254989624023 -0.209191218018531799 -0.0398034527897834778
-0.434858739376068115 0.180655479431152344 -0.0296406857669353485
0.0648931711912155151 -0.540789365768432617 0.218773767352104187
0.0204936936497688293 -0.156876713037490845 0.302017450332641602
-0.175211876630783081 -0.195967406034469604 -0.0637419968843460083
-0.191834717988967896 -0.269016623497009277 0.107265666127204895
-0.194750562310218811 -0.419030845165252686 0.125976115465164185
-0.633078336715698242 0.186780303716659546 0.240399420261383057
0.581700325012207031 -0.208097413182258606 0.440054357051849365
-0.18145260214805603 -0.114155620336532593 0.081549525260925293
-0.333945393562316895 0.1367759108543396 0.263437747955322266
-0.42943263053894043 0.179139912128448486 0.170056253671646118
-0.173036560416221619 -0.137963339686393738 0.340928614139556885
0.387919604778289795 -0.125049754977226257 0.568945050239562988
0.577540218830108643 -0.277016997337341309 0.327251821756362915
0.271966993808746338 -0.0723201632499694824 0.398050606250762939
-0.190970510244369507 0.089429706335067749 -0.0251889042556285858
0.604437351226806641 -0.0527411028742790222 0.301227211952209473
-0.627063632011413574 -0.0374779887497425079 0.280717313289642334
0.174792170524597168 -0.313023120164871216 0.0334310159087181091
0.454167068004608154 -0.0792866349220275879 0.36860308051109314
0.249204292893409729 -0.29421764612197876 0.714837014675140381
-0.0282707326114177704 -0.41423383355140686 0.0731544047594070435
0.221074506640434265 -0.190044909715652466 0.367671221494674683
-0.408617258071899414 0.283826917409896851 0.306487292051315308
-0.543213963508605957 0.245595797896385193 0.283669054508209229
-0.548580527305603027 0.0569816306233406067 0.148384243249893188
0.231081977486610413 -0.390390634536743164 0.462066084146499634
-0.355367958545684814 -0.0630022510886192322 0.146834686398506165
0.565809249877929688 0.088101804256439209 0.510564446449279785
