ply
format ascii 1.0
element vertex 148
comment vertices
property float x
property float y
property float z
end_header
0.215130209922790527 -0.775487363338470459 0.653204917907714844
0.198322087526321411 0.233324602246284485 0.530285298824310303
-0.582725644111633301 0.389825254678726196 0.231914132833480835
-0.552895307540893555 -0.64661705493927002 0.400773108005523682
0.403689205646514893 -0.228180810809135437 0.304495841264724731
-0.152771115303039551 0.47543644905090332 0.156905487179756165
-0.518231987953186035 0.0507103651762008667 -0.153326094150543213
-0.769122481346130371 -0.1853208988904953 0.342417091131210327
0.141219183802604675 -0.472608834505081177 -0.026926528662443161
-0.285241246223449707 0.164581760764122009 -0.0524827167391777039
-0.160789191722869873 0.0352035164833068848 0.421578526496887207
0.161259368062019348 0.0420259684324264526 0.489809364080429077
-0.166129112243652344 -0.489506155252456665 -0.0272117480635643005
-0.378168761730194092 -0.19124700129032135 0.13184666633605957
-0.0468482710421085358 0.21585962176322937 0.140592977404594421
0.0941043049097061157 -0.859918832778930664 0.620110452175140381
0.423690527677536011 0.00399857759475708008 0.360930562019348145
-0.421004980802536011 0.317038655281066895 0.183861210942268372
-0.350778251886367798 0.463510811328887939 0.00615713000297546387
0.140396401286125183 -0.714052438735961914 0.246254250407218933
-0.715047299861907959 0.239209160208702087 0.0154254809021949768
-0.522134721279144287 -0.342764854431152344 0.354750096797943115
-0.521323502063751221 -0.0672408789396286011 0.241811096668243408
-0.0442627705633640289 0.0957752615213394165 0.557255268096923828
-0.181673884391784668 -0.304415404796600342 0.404714584350585938
0.451894044876098633 0.0718936920166015625 0.678903341293334961
-0.578935503959655762 -0.188233882188796997 -0.0358195453882217407
0.0963382124900817871 -0.0940914303064346313 0.150901421904563904
0.439164996147155762 0.097891882061958313 0.539379656314849854
0.516723752021789551 -0.00320934131741523743 0.591322183609008789
-0.157697468996047974 -0.572146296501159668 0.148088455200195312
-0.276111066341400146 0.386309802532196045 0.238337621092796326
0.105859406292438507 -0.861707746982574463 0.120098605751991272
-0.470204859972000122 0.137521550059318542 0.408107995986938477
-0.611650407314300537 0.24219021201133728 0.288520604372024536
-0.442962676286697388 -0.0158991776406764984 -0.17876783013343811
-0.21330338716506958 0.185759544372558594 0.188394516706466675
-0.515704870223999023 0.397775650024414062 0.0103364158421754837
0.0280691422522068024 0.139054864645004272 0.296051681041717529
-0.556763708591461182 -0.503169655799865723 0.43028712272644043
0.13729289174079895 0.178158551454544067 0.145597010850906372
-0.234907016158103943 0.139482975006103516 0.215239241719245911
0.035831645131111145 -0.736094474792480469 0.118547387421131134
-0.319931179285049438 0.393660932779312134 0.082666546106338501
-0.595558702945709229 -0.306442201137542725 0.264800786972045898
0.211178749799728394 -0.623085558414459229 0.163406640291213989
-0.424241214990615845 0.569700062274932861 -0.0234958678483963013
-0.543050944805145264 -0.279114872217178345 0.117233440279960632
0.181786268949508667 -0.689842343330383301 0.0554273799061775208
0.156097114086151123 -0.847203254699707031 0.189231246709823608
-0.719902515411376953 -0.485529303550720215 0.0974671542644500732
-0.424573302268981934 0.051811903715133667 0.365870475769042969
0.0500801689922809601 -0.244889557361602783 -0.168352097272872925
0.329311907291412354 -0.621730506420135498 0.522563457489013672
0.388814300298690796 -0.00480528175830841064 0.440698921680450439
-0.428253829479217529 0.00508693605661392212 -0.0334462635219097137
-0.563743114471435547 0.0426034033298492432 0.0747375413775444031
-0.279390096664428711 0.636827349662780762 0.2714882493019104
0.0794568508863449097 -0.353284150362014771 0.0657412856817245483
0.224528104066848755 -0.529683947563171387 0.688669025897979736
0.346399366855621338 0.195745155215263367 0.355178296566009521
-0.211792886257171631 0.336035072803497314 0.0997253507375717163
0.400164783000946045 -0.642636895179748535 0.55283963680267334
0.359258085489273071 0.0911782830953598022 0.411479353904724121
0.0517239123582839966 0.166577979922294617 0.413835585117340088
-0.577591896057128906 -0.164640799164772034 0.134674131870269775
-0.492320835590362549 -0.653068184852600098 0.341497659683227539
-0.679627120494842529 -0.302329480648040771 0.337896585464477539
-0.555068731307983398 0.39707520604133606 0.190489158034324646
0.2868613600730896 0.331872045993804932 0.629130959510803223
-0.60156780481338501 0.161893114447593689 0.249934300780296326
0.16554686427116394 -0.127967134118080139 0.234684228897094727
-0.47866511344909668 0.339050203561782837 0.240707531571388245
0.121040411293506622 -0.638811886310577393 0.286595135927200317
-0.462827235460281372 0.190936565399169922 0.178732588887214661
-0.399764776229858398 0.294581770896911621 0.0806041359901428223
-0.0701349005103111267 -0.397658407688140869 0.474654793739318848
-0.0926364660263061523 0.0584101974964141846 0.385061919689178467
-0.505690276622772217 -0.491769611835479736 0.556293487548828125
-0.0667289942502975464 -0.539548158645629883 0.453913837671279907
-0.0438309609889984131 0.201519042253494263 0.27147337794303894
-0.406024634838104248 -0.0860518664121627808 0.293610066175460815
-0.687871158123016357 -0.388121873140335083 0.180446505546569824
-0.0565614700317382812 -0.700163424015045166 0.13429635763168335
0.338471204042434692 -0.553400158882141113 0.509960591793060303
-0.758090078830718994 -0.142807647585868835 0.239428028464317322
0.045687653124332428 -0.72003859281539917 0.124090947210788727
0.0484215989708900452 -0.948276281356811523 0.147583082318305969
-0.0130131170153617859 -0.74378204345703125 0.0200258940458297729
-0.226219415664672852 0.336292952299118042 0.134701937437057495
-0.676203250885009766 0.0900732725858688354 0.0443127155303955078
0.234863221645355225 -0.622280657291412354 0.185414910316467285
-0.547625541687011719 0.111809656023979187 -0.0571762174367904663
-0.0292736738920211792 -0.436853498220443726 -0.214935183525085449
0.14200294017791748 -0.619892299175262451 0.724100053310394287
-0.627130985260009766 -0.0266004055738449097 0.268617123365402222
-0.0623205751180648804 -0.411309897899627686 0.18384253978729248
-0.401894032955169678 0.518923282623291016 0.00714604556560516357
-0.055962689220905304 0.334325164556503296 0.0841679051518440247
-0.567354023456573486 -0.518582344055175781 0.508437812328338623
-0.0691132098436355591 -0.502984941005706787 -0.0606191009283065796
0.30365443229675293 -0.153087437152862549 0.297796756029129028
0.399850785732269287 -0.739036321640014648 0.0332464687526226044
-0.508163511753082275 -0.547126531600952148 0.356499463319778442
-0.313586503267288208 0.275024235248565674 0.0959095358848571777
-0.23167911171913147 0.176022201776504517 0.135012209415435791
-0.260230660438537598 -0.306405156850814819 0.433399319648742676
-0.690012872219085693 -0.49939391016960144 0.0944575518369674683
-0.434264153242111206 0.405160248279571533 0.204497277736663818
-0.499425292015075684 -0.169066205620765686 0.147510126233100891
-0.29758918285369873 -0.566527366638183594 0.176700055599212646
0.387121230363845825 0.161566838622093201 0.534839391708374023
-0.600770294666290283 -0.25927087664604187 0.29190295934677124
-0.191366121172904968 0.426429569721221924 0.179802030324935913
-0.217658057808876038 0.13200843334197998 0.326635599136352539
-0.438698768615722656 -0.00606179237365722656 0.273672908544540405
0.105206415057182312 -0.692278206348419189 0.174844443798065186
-0.0892311707139015198 -0.027164071798324585 0.366746336221694946
0.287222445011138916 0.0472155064344406128 0.427397072315216064
-0.0279600471258163452 -0.459476470947265625 0.195485725998878479
0.361970901489257812 0.121247172355651855 0.535426795482635498
-0.453165888786315918 0.130119800567626953 0.0636665299534797668
0.386896133422851562 -0.574267446994781494 0.274039566516876221
-0.200720027089118958 -0.424951404333114624 0.224858611822128296
-0.666262686252593994 -0.0365233197808265686 0.256803661584854126
-0.644014239311218262 0.237647250294685364 0.241151124238967896
-0.451932400465011597 0.302820265293121338 0.201255381107330322
-0.0506081171333789825 -0.699277400970458984 0.113088726997375488
-0.411491841077804565 0.486943185329437256 -0.0127103403210639954
0.0984536260366439819 0.0381828136742115021 0.176293641328811646
0.283939659595489502 -0.553320407867431641 0.157080382108688354
-0.606791973114013672 -0.0472871214151382446 0.201023265719413757
-0.574181139469146729 -0.366858839988708496 0.371001958847045898
-0.417358458042144775 0.150213226675987244 0.234458893537521362
-0.430074125528335571 0.398527652025222778 0.122776694595813751
0.285287559032440186 0.0124573409557342529 0.574847698211669922
-0.515094399452209473 -0.117736697196960449 0.203378692269325256
-0.32906186580657959 0.134077459573745728 0.0584106482565402985
0.328015059232711792 -0.699672102928161621 0.0191578976809978485
-0.38578343391418457 0.18388068675994873 0.22241818904876709
-0.393037796020507812 0.0339047908782958984 0.384873807430267334
0.0975192636251449585 -0.720670700073242188 0.183240756392478943
0.29148980975151062 0.112436607480049133 0.517208278179168701
-0.301755934953689575 0.370630323886871338 0.0834384262561798096
-0.507477343082427979 0.0895613878965377808 -0.0779306292533874512
0.0401058271527290344 -0.403991222381591797 0.272654742002487183
-0.141741126775741577 0.142132163047790527 0.141275763511657715
-0.709571242332458496 -0.494459658861160278 0.246087834239006042
