ply
format ascii 1.0
element vertex 43
comment vertices
property float x
property float y
property float z
end_header
-0.418774843215942383 -0.486573785543441772 0.409679174423217773
-0.203246265649795532 -0.438255190849304199 0.475346088409423828
-0.581382095813751221 -0.121031329035758972 0.531017482280731201
-0.365871608257293701 -0.24698185920715332 0.446866482496261597
-0.44930952787399292 -0.467072069644927979 0.495986282825469971
-0.444974124431610107 -0.219401568174362183 0.270304113626480103
-0.39088141918182373 -0.303369104862213135 0.571088910102844238
-0.20817902684211731 -0.338110119104385376 0.274901866912841797
-0.292427092790603638 -0.413700520992279053 0.468058913946151733
-0.412888526916503906 0.0105437636375427246 0.489317178726196289
-0.408866167068481445 -0.302133798599243164 0.476703375577926636
-0.344389051198959351 -0.535285413265228271 0.454669594764709473
-0.353380292654037476 -0.296888977289199829 0.436323672533035278
-0.320431888103485107 -0.393158376216888428 0.415180683135986328
-0.302713930606842041 -0.460974395275115967 0.49619978666305542
-0.338983893394470215 0.0567975044250488281 0.42407989501953125
-0.381001412868499756 -0.118865981698036194 0.489702999591827393
-0.28888314962387085 -0.140209317207336426 0.377659738063812256
-0.164104923605918884 -0.462618798017501831 0.372977972030639648
-0.198209255933761597 -0.436988174915313721 0.445388555526733398
-0.4057578444480896 -0.366658717393875122 0.467069804668426514
-0.451775252819061279 -0.195507451891899109 0.345674514770507812
-0.414809703826904297 -0.403901785612106323 0.468849897384643555
-0.320992946624755859 -0.472460657358169556 0.410744994878768921
-0.387621074914932251 -0.0998275429010391235 0.274991720914840698
-0.352984905242919922 -0.402436614036560059 0.339116394519805908
-0.165704905986785889 -0.351475417613983154 0.426253855228424072
-0.323521316051483154 -0.38296884298324585 0.399162858724594116
-0.397789716720581055 -0.211873650550842285 0.416651755571365356
-0.371071547269821167 -0.089623570442199707 0.526528418064117432
-0.431280434131622314 -0.351395666599273682 0.477476060390472412
-0.307388514280319214 -0.49703371524810791 0.459144353866577148
-0.205616787075996399 -0.286419928073883057 0.410997658967971802
-0.259271711111068726 -0.424281954765319824 0.480581015348434448
-0.262602478265762329 -0.36581537127494812 0.368225514888763428
-0.232313469052314758 -0.448436617851257324 0.496619731187820435
-0.300894051790237427 -0.118667289614677429 0.713992953300476074
-0.284393012523651123 -0.457549154758453369 0.413994371891021729
-0.301251322031021118 -0.040680907666683197 0.247849524021148682
-0.238158866763114929 -0.274986684322357178 0.33778071403503418
-0.403839707374572754 -0.126134634017944336 0.454340696334838867
-0.416873961687088013 0.0380296111106872559 0.538052022457122803
-0.289752453565597534 -0.51452171802520752 0.227175295352935791
