ply
format ascii 1.0
element vertex 164
comment vertices
property float x
property float y
property float z
end_header
-0.560689568519592285 -0.115168571472167969 0.117262318730354309
-0.198282003402709961 0.0478928685188293457 0.0455807745456695557
-0.699724197387695312 -0.121581926941871643 0.601558685302734375
-0.653813838958740234 -0.0348892658948898315 -0.0689461603760719299
0.429522216320037842 0.0611931607127189636 -0.00109693408012390137
-0.579252004623413086 0.236059814691543579 0.399825870990753174
-0.505988776683807373 -0.20124131441116333 0.104963034391403198
-0.398283153772354126 -0.190591126680374146 0.430944740772247314
-0.000745885074138641357 0.138912245631217957 0.107031315565109253
-0.585835158824920654 0.31511610746383667 -0.00183430220931768417
-0.294631123542785645 -0.27501484751701355 0.0889640823006629944
-0.442130804061889648 0.0157267414033412933 0.478953659534454346
-0.191532120108604431 0.284668028354644775 0.0203528180718421936
-0.314912974834442139 0.0835500359535217285 0.0366825461387634277
0.178028583526611328 0.0528166815638542175 -2.76863574981689453e-05
-0.672771215438842773 -0.139005482196807861 0.395769119262695312
0.172822877764701843 0.253239810466766357 -0.0577813349664211273
-0.690534234046936035 0.29622042179107666 0.241432845592498779
-0.614812254905700684 -0.241385668516159058 0.0216619819402694702
-0.322663635015487671 0.130345895886421204 -0.0262460187077522278
-0.210827618837356567 0.211376234889030457 -0.0044063664972782135
0.0390949733555316925 0.294684112071990967 0.0597935095429420471
-0.396273314952850342 -0.254614651203155518 0.123729594051837921
0.365569591522216797 0.122506901621818542 0.091666683554649353
-0.687476634979248047 -0.0893561989068984985 -0.0383227095007896423
-0.381502866744995117 0.0675479099154472351 0.182652860879898071
0.335422873497009277 -0.0600285418331623077 0.0568160563707351685
-0.518460631370544434 -0.0990575328469276428 0.518418848514556885
-0.557288706302642822 -0.0248747356235980988 0.580652356147766113
-0.359254062175750732 -0.270398527383804321 -0.0697426795959472656
-0.647785544395446777 -0.230386316776275635 -0.102265819907188416
-0.645993411540985107 0.0119004175066947937 0.403257489204406738
-0.404249459505081177 -0.201184093952178955 0.164011061191558838
0.186479866504669189 0.101426824927330017 0.148437663912773132
0.349978268146514893 0.0730333328247070312 0.108312644064426422
-0.523567914962768555 -0.110862702131271362 0.0603620037436485291
-0.734817862510681152 -0.187442943453788757 0.0913117900490760803
-0.609493553638458252 0.254175096750259399 0.217072218656539917
0.135954678058624268 0.222872287034988403 0.00559742748737335205
-0.414698243141174316 -0.116034671664237976 0.248463153839111328
-0.36777845025062561 -0.0914805680513381958 0.0915556252002716064
-0.7806205153465271 -0.0938062965869903564 0.50612485408782959
-0.473491966724395752 0.0831259638071060181 0.416536629199981689
0.223160490393638611 -0.00998265296220779419 0.0151741728186607361
-0.524178087711334229 -0.0389271080493927002 -0.0725461617112159729
-0.030841238796710968 0.191701173782348633 0.0133907943964004517
-0.843822479248046875 0.035020783543586731 0.164803504943847656
-0.45332634449005127 -0.0972441434860229492 0.509121119976043701
-0.271931916475296021 -0.240984365344047546 0.036727413535118103
-0.677344560623168945 -0.299090176820755005 0.548710167407989502
-0.575463294982910156 -0.0829352065920829773 0.561238765716552734
-0.730200409889221191 -0.069126620888710022 0.32330593466758728
-0.251271992921829224 -0.000465035438537597656 0.0771574974060058594
-0.443587571382522583 0.223057597875595093 0.031488955020904541
-0.682873189449310303 0.0529168546199798584 0.327927142381668091
-0.573081672191619873 -0.132270216941833496 0.365262538194656372
0.0300334785133600235 0.176182806491851807 0.0470187440514564514
-0.513243794441223145 0.302404940128326416 0.0644398108124732971
0.144301906228065491 0.0503170676529407501 0.0621562004089355469
-0.561243534088134766 0.0258463025093078613 0.133623242378234863
-0.00164248049259185791 0.207374721765518188 0.0660168379545211792
-0.397215425968170166 0.201290503144264221 0.0348986238241195679
0.554326117038726807 0.223207846283912659 0.0872936323285102844
-0.24596792459487915 0.197525903582572937 -0.0222764164209365845
-0.0535450354218482971 0.335722029209136963 0.00202027708292007446
-0.540628492832183838 -0.202873781323432922 0.00479636713862419128
-0.319041848182678223 -0.150451451539993286 0.108684845268726349
-0.168445050716400146 0.484826177358627319 -0.00814112648367881775
0.352794051170349121 0.20455208420753479 -0.0265414528548717499
-0.531252026557922363 -0.0599230974912643433 0.617909550666809082
-0.569621562957763672 0.0452607348561286926 0.572904825210571289
-0.277067601680755615 -0.179650530219078064 -1.48564577102661133e-05
-0.407678842544555664 -0.1931571364402771 0.0651315674185752869
-0.446634143590927124 -0.266847759485244751 0.583552002906799316
0.357520252466201782 -0.0477509461343288422 0.202882573008537292
-0.521693050861358643 -0.153868824243545532 0.0456845127046108246
-0.55060732364654541 -0.166816636919975281 -0.021501198410987854
-0.427835077047348022 -0.208118632435798645 0.0421331003308296204
0.201554521918296814 0.148364067077636719 0.0344927273690700531
-0.665138661861419678 0.236268773674964905 0.227694153785705566
0.195007845759391785 0.050167769193649292 0.125557944178581238
0.0794462487101554871 0.141365677118301392 0.0478199049830436707
-0.375869691371917725 -0.0529814362525939941 0.349492579698562622
-0.464961647987365723 0.00438073277473449707 0.0757189765572547913
0.219857007265090942 0.0122001394629478455 0.178418353199958801
-0.173931330442428589 0.160651847720146179 0.00929792225360870361
0.220859169960021973 0.32333102822303772 0.114885486662387848
-0.532406330108642578 -0.17979826033115387 -0.0322534851729869843
0.297807604074478149 0.0847466140985488892 0.193411082029342651
-0.597865104675292969 0.0458953976631164551 0.37876969575881958
-0.696494400501251221 -0.0080547332763671875 0.51114344596862793
-0.728446722030639648 -0.035064205527305603 0.563116073608398438
-0.844491124153137207 -0.168998584151268005 0.00091371685266494751
-0.431530565023422241 -0.2906951904296875 -0.121075630187988281
-0.49418872594833374 0.168622538447380066 -0.000302874483168125153
-0.284019112586975098 0.239951357245445251 0.145339488983154297
-0.687580764293670654 -0.126406937837600708 0.0368874818086624146
-0.525305807590484619 -0.214526116847991943 0.160911574959754944
-0.267626017332077026 -0.192494288086891174 0.0460611358284950256
-0.555122017860412598 -0.0776396691799163818 0.617280125617980957
0.268263250589370728 0.0923067629337310791 0.119475610554218292
-0.725134313106536865 -0.0223984569311141968 0.517385482788085938
0.193730652332305908 0.143958374857902527 0.0874041691422462463
-0.332766205072402954 -0.0659146308898925781 -0.0365561433136463165
-0.584719359874725342 0.0607250742614269257 0.106306716799736023
-0.0867140144109725952 0.227731794118881226 0.0474447160959243774
-0.60684281587600708 -0.0297642052173614502 0.0721754580736160278
0.0444648787379264832 0.301363110542297363 0.014453452080488205
-0.437639534473419189 -0.00556702911853790283 0.183772057294845581
-0.485321342945098877 -0.339011996984481812 -0.00542269647121429443
-0.540738701820373535 -0.184796229004859924 0.609133720397949219
0.439165890216827393 0.0114131718873977661 -0.00984024256467819214
-0.63885498046875 -0.170142889022827148 0.149238467216491699
-0.450627595186233521 -0.0366728492081165314 -0.0150763243436813354
-0.301721751689910889 -0.106232941150665283 0.0573967769742012024
-0.53218388557434082 -0.0990513265132904053 0.00791575014591217041
-0.512430727481842041 -0.00193928182125091553 0.588522493839263916
-0.282257169485092163 -0.239301368594169617 -0.021069258451461792
-0.480553209781646729 -0.241849184036254883 0.0717093721032142639
-0.370248615741729736 -0.0904112756252288818 0.398970425128936768
-0.570377051830291748 -0.0428192466497421265 0.577032566070556641
-0.521948397159576416 0.0616244524717330933 0.253559976816177368
-0.099708855152130127 0.295355349779129028 -0.0228398330509662628
-0.779427528381347656 0.187417745590209961 0.0807187557220458984
-0.193992257118225098 0.257531046867370605 0.116901583969593048
-0.662837386131286621 -0.149676129221916199 -0.0681251734495162964
-0.356269359588623047 0.163035795092582703 0.0332162901759147644
-0.685957670211791992 -0.135510265827178955 0.484845340251922607
-0.453257739543914795 -0.193421274423599243 0.570046782493591309
0.249303221702575684 0.181112736463546753 0.0418349616229534149
-0.664926111698150635 0.248938202857971191 0.264447450637817383
-0.0826287716627120972 0.155437394976615906 -0.0428165197372436523
0.105150893330574036 0.208266615867614746 0.038196958601474762
-0.539789199829101562 -0.0459033697843551636 0.587622880935668945
-0.318482100963592529 0.325031161308288574 0.137755393981933594
0.249101340770721436 0.0796048939228057861 0.165321558713912964
-0.684920847415924072 -0.0108720660209655762 0.0820617601275444031
0.360148996114730835 0.187592998147010803 0.148349687457084656
-0.63193202018737793 -0.138661563396453857 0.125472813844680786
-0.478431671857833862 0.0764124244451522827 0.513364315032958984
-0.286709189414978027 -0.128685951232910156 0.375050753355026245
-0.420716702938079834 -0.152265682816505432 0.288899660110473633
-0.54986572265625 0.0516510009765625 0.140379354357719421
-0.557690024375915527 -0.178200751543045044 -0.0225278064608573914
-0.602060198783874512 -0.164104998111724854 0.113646000623703003
-0.38758164644241333 -0.103497803211212158 0.202269420027732849
-0.54725271463394165 -0.189196228981018066 0.0323433056473731995
-0.453098952770233154 -0.184898525476455688 0.0571752116084098816
-0.239653080701828003 0.156435638666152954 -0.0316783897578716278
-0.569647312164306641 -0.0118615888059139252 0.27424544095993042
-0.456051260232925415 -0.0280262678861618042 0.671978473663330078
-0.474508315324783325 0.00355888903141021729 0.103814482688903809
0.268194735050201416 0.0415455102920532227 0.0335631854832172394
0.261109530925750732 0.109652906656265259 0.121004454791545868
-0.502104222774505615 -0.0366674661636352539 0.595786452293395996
0.108371280133724213 0.2215537428855896 0.0799557045102119446
-0.683652877807617188 -0.118533551692962646 0.0815344303846359253
-0.413099884986877441 -0.0753877907991409302 0.16811583936214447
-0.484590888023376465 -0.211868196725845337 0.108986526727676392
0.00659881904721260071 0.248203843832015991 -0.0219897851347923279
-0.299662590026855469 -0.134538888931274414 0.0653238892555236816
-0.572977602481842041 -0.182033881545066833 0.150371745228767395
0.494523018598556519 0.237111717462539673 0.0504728555679321289
-0.478122502565383911 -0.0694014281034469604 0.628052771091461182
