ply
format ascii 1.0
element vertex 256
comment vertices
property float x
property float y
property float z
end_header
-0.598986685276031494 -0.012990117073059082 0.199813485145568848
0.911085844039916992 -0.0206951797008514404 0.011976875364780426
0.0451824143528938293 0.51072382926940918 0.016210898756980896
-0.22587992250919342 -0.414135128259658813 0.595995724201202393
-0.543229043483734131 0.104567080736160278 0.82700657844543457
0.281462162733078003 -0.10747411847114563 0.0562393814325332642
0.619497179985046387 -0.00888654589653015137 0.528437912464141846
-0.483000993728637695 -0.394033759832382202 -0.166687160730361938
-0.812255501747131348 0.467588305473327637 0.0845039188861846924
-0.166619464755058289 0.0394644886255264282 -0.126331791281700134
-0.126819878816604614 0.0623848997056484222 0.463036805391311646
0.407312959432601929 0.293436318635940552 0.216812506318092346
-0.38823777437210083 0.446300894021987915 0.148112162947654724
-0.602211833000183105 -0.231913581490516663 0.571640253067016602
-0.811983406543731689 -0.238250657916069031 -0.0182679295539855957
0.564981281757354736 0.0587481260299682617 -0.130597800016403198
-0.709193706512451172 0.227755501866340637 0.448235034942626953
-0.510213136672973633 -0.0523225069046020508 -0.132872804999351501
-0.329172044992446899 -0.198139503598213196 0.294758319854736328
0.593945980072021484 -0.120384976267814636 0.175105586647987366
0.0942926704883575439 0.169095158576965332 0.0366304740309715271
-0.590412795543670654 0.237920701503753662 -0.00625733193010091782
-0.187362372875213623 -0.259776055812835693 -0.0249123573303222656
-0.438565820455551147 0.0658709108829498291 0.511916577816009521
-0.22309546172618866 0.367844551801681519 -0.0923216640949249268
-0.322343915700912476 0.0934465080499649048 0.123081378638744354
-0.808356344699859619 -0.0454129874706268311 0.491137564182281494
0.287190467119216919 0.0691674947738647461 -0.184953749179840088
-0.712118566036224365 -0.263413667678833008 0.315143346786499023
0.657966434955596924 0.150813966989517212 0.140271037817001343
0.34446406364440918 0.326941192150115967 -0.0363846085965633392
-0.264450520277023315 -0.14289480447769165 0.547177731990814209
-0.540140390396118164 0.222015470266342163 0.232553720474243164
-0.839148163795471191 0.242944404482841492 0.165320992469787598
0.281474977731704712 0.0847952961921691895 0.193614646792411804
0.520124852657318115 0.0789654701948165894 0.339461386203765869
-0.138954624533653259 0.411787986755371094 0.116522923111915588
-0.56775057315826416 -0.186560139060020447 0.0433763712644577026
0.788132905960083008 -0.0205934271216392517 0.227061927318572998
-0.397448062896728516 0.166954189538955688 -0.0900545269250869751
-0.123640544712543488 0.205086737871170044 0.0225104391574859619
0.0718479007482528687 0.329232126474380493 -0.113630212843418121
-0.593143224716186523 0.455633997917175293 0.0702467113733291626
-0.328693985939025879 -0.104103296995162964 0.0203379932790994644
-0.632517755031585693 -0.00135555863380432129 0.665252923965454102
-0.40776631236076355 -0.301165729761123657 0.536886334419250488
0.455444484949111938 0.14324420690536499 0.0796837061643600464
-0.69640815258026123 0.0447939634323120117 0.0255755241960287094
-0.431884795427322388 0.0591239742934703827 0.301843851804733276
0.481518328189849854 -0.121594071388244629 -0.0729710161685943604
-0.507741630077362061 -0.184322923421859741 0.393756747245788574
0.791985988616943359 0.082603752613067627 -0.114525049924850464
-0.450678020715713501 -0.085163898766040802 0.661460041999816895
-0.398436099290847778 -0.21544744074344635 -0.138778448104858398
-0.688025772571563721 -0.112197302281856537 -0.101111352443695068
-0.634427905082702637 -0.0261079482734203339 0.417306900024414062
0.466736108064651489 0.415039211511611938 0.0865656957030296326
-0.223424822092056274 0.0852324515581130981 0.621991455554962158
-0.445147573947906494 -0.27005082368850708 0.166533365845680237
0.299096107482910156 0.142667055130004883 -0.0172816179692745209
0.448666870594024658 -0.0377022884786128998 0.102730624377727509
-0.603245317935943604 -0.343961894512176514 -0.0413192175328731537
-0.483921557664871216 0.0447211265563964844 0.0143407005816698074
-0.336316078901290894 0.316236197948455811 0.0349250584840774536
-0.544644355773925781 0.383170276880264282 -0.0925807803869247437
-0.742369890213012695 -0.180553421378135681 0.130948811769485474
-0.217665091156959534 -0.290496706962585449 0.473453998565673828
-0.700449347496032715 0.273431599140167236 0.265078902244567871
0.219271048903465271 0.240255579352378845 0.17311057448387146
0.295739561319351196 0.400331765413284302 0.149697393178939819
-0.803267002105712891 -0.10728079080581665 0.647677004337310791
0.650413572788238525 0.0156472176313400269 0.0402049273252487183
0.716247022151947021 0.0709224939346313477 0.348644256591796875
-0.410226166248321533 -0.104225389659404755 0.181484535336494446
-0.349566340446472168 0.0301665253937244415 -0.16914743185043335
0.00597699731588363647 0.357000499963760376 0.0625406950712203979
-0.294700115919113159 0.317864477634429932 0.192473962903022766
-0.729526877403259277 -0.214212656021118164 0.469389736652374268
-0.596267580986022949 0.104029402136802673 0.507895350456237793
0.387588590383529663 0.00893728435039520264 -0.0546625852584838867
-0.624568402767181396 0.0611924827098846436 -0.124751642346382141
0.0122962901368737221 0.0593828484416007996 0.121328286826610565
-0.749816536903381348 0.112567305564880371 0.192422628402709961
-0.713405787944793701 0.297155320644378662 0.0829144418239593506
-0.515943408012390137 0.432476311922073364 0.242209076881408691
-0.386611700057983398 -0.0869379341602325439 0.421158552169799805
-0.246525973081588745 -0.12247784435749054 -0.113096669316291809
0.174291998147964478 0.0398526936769485474 0.088807716965675354
0.655925869941711426 -0.0884883999824523926 0.400925368070602417
-0.533968925476074219 -0.374728381633758545 0.489262282848358154
-0.791416645050048828 -0.0222854893654584885 0.125112831592559814
-0.553197026252746582 -0.0913844555616378784 0.538446187973022461
-0.720794558525085449 -0.0423976927995681763 0.285895675420761108
0.570376396179199219 0.0295926332473754883 0.171039402484893799
-0.270016223192214966 0.0748421847820281982 -0.0238410197198390961
-0.421982318162918091 0.20410272479057312 0.124978318810462952
-0.607032656669616699 0.118430361151695251 0.360389739274978638
-0.599743187427520752 -0.140927314758300781 0.286087661981582642
0.0599929988384246826 0.21961742639541626 0.171287417411804199
-0.738932490348815918 0.409609615802764893 0.196863353252410889
-0.497991025447845459 0.333743870258331299 0.0507261082530021667
0.133673861622810364 0.0891058146953582764 -0.0774709880352020264
-0.576964080333709717 0.102249935269355774 0.115833193063735962
-0.671738505363464355 -0.138177663087844849 0.696403920650482178
-0.0225076973438262939 0.225511372089385986 -0.123930856585502625
-0.376572132110595703 0.184586822986602783 0.276100486516952515
0.437114477157592773 0.134618848562240601 -0.0874505713582038879
0.579008281230926514 0.18287166953086853 0.0299975425004959106
-0.232034355401992798 0.220855265855789185 -0.0623550005257129669
-0.0871257111430168152 0.365786075592041016 -0.0683993995189666748
-0.599640190601348877 -0.0476190894842147827 -0.00465682148933410645
-0.270356893539428711 -0.0873551815748214722 0.142985135316848755
-0.230891525745391846 0.451666831970214844 0.0240620076656341553
0.455446451902389526 0.275816470384597778 0.0215148851275444031
-0.415128499269485474 -0.159021466970443726 0.53115236759185791
-0.502158045768737793 -0.0594803765416145325 0.782058060169219971
0.816480398178100586 0.033145412802696228 0.108469828963279724
-0.399998128414154053 -0.133782371878623962 -0.243923395872116089
-0.790253639221191406 0.31020781397819519 0.355979621410369873
-0.768762767314910889 0.0223148651421070099 0.597109556198120117
-0.392714530229568481 -0.245755255222320557 -0.0107900276780128479
-0.404110044240951538 -0.275053739547729492 0.408573895692825317
0.524956047534942627 0.0334221422672271729 0.00754350423812866211
0.422981679439544678 0.000766634941101074219 0.224167823791503906
-0.500647306442260742 -0.0643643960356712341 0.0809778124094009399
-0.565223336219787598 -0.159916162490844727 -0.0883048996329307556
-0.447533398866653442 -0.124373853206634521 -0.0465912148356437683
0.494639992713928223 -0.140166819095611572 0.254308938980102539
-0.222176283597946167 -0.0194103792309761047 0.548097372055053711
0.548816084861755371 -0.140405848622322083 0.0337462425231933594
0.322560518980026245 0.222317904233932495 0.0787804648280143738
-0.879359781742095947 0.38750883936882019 0.155179426074028015
-0.495559394359588623 0.273154884576797485 0.338551163673400879
-0.573807299137115479 0.343419969081878662 0.150315284729003906
-0.628652691841125488 0.225049287080764771 0.140507861971855164
0.360896646976470947 0.042775958776473999 0.0640575885772705078
0.158209577202796936 0.233505755662918091 -0.04935445636510849
-0.335117071866989136 -0.0609474703669548035 0.27122044563293457
-0.473091840744018555 0.0686187595129013062 0.175836041569709778
-0.344132095575332642 0.0272440575063228607 0.583148360252380371
0.260358661413192749 -0.0351583957672119141 0.170283377170562744
-0.214814186096191406 0.331558823585510254 0.0444362908601760864
-0.236935809254646301 -0.286722749471664429 0.594147741794586182
-0.161119997501373291 0.147846758365631104 -0.180649846792221069
0.257873833179473877 0.387066036462783813 0.0352698937058448792
-0.691359400749206543 -0.230860263109207153 -0.0106981992721557617
0.394254535436630249 0.173978537321090698 0.202085822820663452
0.789901196956634521 -0.0223443210124969482 -0.0543721765279769897
-0.696606695652008057 0.0776567459106445312 0.44689476490020752
-0.70359492301940918 -0.148912236094474792 0.349898457527160645
-0.179183885455131531 -0.104130275547504425 0.472499668598175049
-0.690131604671478271 -0.104994386434555054 0.495469331741333008
-0.812350213527679443 -0.0956024527549743652 0.0340311974287033081
-0.51970595121383667 -0.267148196697235107 -0.0910608768463134766
-0.469414383172988892 0.227889299392700195 0.0120129026472568512
-0.304154872894287109 0.220426246523857117 0.131391137838363647
0.540708601474761963 -0.0271386504173278809 0.266906827688217163
0.110939055681228638 0.41936725378036499 0.0406904667615890503
0.362674802541732788 0.43074306845664978 0.0160680562257766724
-0.683897614479064941 -0.0910262018442153931 0.0937698632478713989
-0.523900866508483887 -0.189419567584991455 0.159380257129669189
-0.286445587873458862 -0.200043350458145142 -0.0422922670841217041
-0.530981779098510742 -0.197005957365036011 0.650568723678588867
0.213782727718353271 0.0416764318943023682 -0.0158106163144111633
0.632478713989257812 0.137130692601203918 0.37929302453994751
-0.826719045639038086 -0.152137726545333862 0.471936225891113281
0.230586335062980652 0.153555899858474731 0.0676585733890533447
-0.374204754829406738 0.0269636176526546478 -0.0624493733048439026
-0.611223101615905762 0.10263514518737793 0.219739556312561035
-0.0646683201193809509 0.236892670392990112 0.108421765267848969
0.417190670967102051 -0.076811864972114563 0.00725227594375610352
0.663181304931640625 -0.0253598019480705261 0.170931264758110046
-0.419525593519210815 0.271795332431793213 -0.102261930704116821
-0.627809822559356689 0.142400234937667847 0.024754965677857399
-0.000379556789994239807 0.300486266613006592 -0.0399027764797210693
-0.368796110153198242 0.0929041951894760132 0.221653595566749573
-0.42475205659866333 -0.340130835771560669 -0.0963017046451568604
-0.510628163814544678 -0.279470711946487427 0.450052320957183838
-0.632286906242370605 0.365230441093444824 0.0327213555574417114
0.102860122919082642 0.319600045680999756 0.0716538131237030029
0.574839353561401367 -0.0430018156766891479 -0.111130550503730774
-0.738439559936523438 -0.116058230400085449 0.212180674076080322
-0.443757355213165283 0.00907818973064422607 -0.207001924514770508
-0.235858410596847534 -0.0167832076549530029 -0.0738110467791557312
-0.604009151458740234 -0.0191199779510498047 0.0947087779641151428
-0.471973210573196411 0.00415863096714019775 0.5878257155418396
-0.303239524364471436 -0.214701682329177856 -0.178700685501098633
-0.456849217414855957 -0.178661450743675232 0.0406244918704032898
-0.276872903108596802 0.407591730356216431 0.105036646127700806
-0.490430533885955811 0.0108063351362943649 0.442513823509216309
-0.585099339485168457 -0.136979356408119202 0.441672146320343018
-0.48141932487487793 -0.0213867723941802979 0.263681173324584961
-0.138546973466873169 0.256595134735107422 -0.081706605851650238
-0.740008294582366943 0.220922738313674927 0.168443813920021057
-0.230597123503684998 0.220517426729202271 0.0391208678483963013
-0.704590141773223877 -0.127464607357978821 -0.00222173705697059631
-0.3248404860496521 0.158031418919563293 0.0454213432967662811
0.5679473876953125 0.0904202759265899658 0.0786043331027030945
0.339241504669189453 -0.0959681868553161621 0.155505329370498657
-0.616368889808654785 -0.308459192514419556 0.507851958274841309
0.557581186294555664 -0.0442317202687263489 0.104249864816665649
-0.622759342193603516 0.074827149510383606 0.728911519050598145
-0.374983072280883789 -0.182116001844406128 0.387555867433547974
-0.677345156669616699 0.449154436588287354 0.123088553547859192
0.262662351131439209 0.233850181102752686 -0.000900294631719589233
-0.662267208099365234 0.248350396752357483 0.363297849893569946
0.637336909770965576 0.0885860174894332886 0.214685872197151184
-0.0938776284456253052 0.111401021480560303 -0.118117749691009521
-0.0411247275769710541 0.462992489337921143 0.0202124956995248795
-0.244331181049346924 -0.383056163787841797 0.492787480354309082
0.680547833442687988 -0.0715738236904144287 0.0729003250598907471
-0.398355394601821899 0.35297548770904541 0.175861626863479614
0.160000652074813843 0.163703858852386475 0.159009099006652832
-0.54122471809387207 -0.0291230715811252594 0.68654179573059082
-0.324043095111846924 0.240160971879959106 -0.0383539199829101562
0.496919572353363037 0.133414074778556824 0.416252046823501587
-0.786435902118682861 0.304392576217651367 0.232979550957679749
0.355269581079483032 0.114310041069984436 0.136618316173553467
-0.737681031227111816 0.109360039234161377 0.0841760411858558655
0.48067668080329895 0.0466178804636001587 0.140014275908470154
-0.789716839790344238 -0.255433529615402222 0.0738297998905181885
-0.557404816150665283 0.0223350450396537781 0.54056549072265625
-0.263770133256912231 -0.122629418969154358 0.288437962532043457
-0.433695971965789795 -0.152962222695350647 0.260488033294677734
-0.526093065738677979 0.165853187441825867 0.0656190812587738037
-0.719198286533355713 -0.126496896147727966 0.60629725456237793
0.716124296188354492 0.0215191319584846497 -0.0961740463972091675
-0.604089677333831787 -0.0450410470366477966 -0.117336615920066833
0.489038139581680298 0.0840856730937957764 0.249505013227462769
-0.620454370975494385 -0.110719457268714905 0.198357939720153809
-0.340730160474777222 -0.0123057365417480469 0.18986859917640686
-0.549189269542694092 0.0106829479336738586 -0.0600392743945121765
-0.384606748819351196 -0.0628793686628341675 -0.0899857655167579651
-0.497983574867248535 0.304704666137695312 0.215409651398658752
-0.30407300591468811 0.157396778464317322 -0.078860841691493988
-0.606261610984802246 -0.0022334754467010498 0.292635411024093628
-0.352156579494476318 -0.118539512157440186 0.587351322174072266
-0.49420773983001709 0.144943654537200928 -0.0235390029847621918
-0.818874835968017578 0.349750101566314697 0.0947075933218002319
0.427040636539459229 0.0735975354909896851 -0.000243678689002990723
0.642897844314575195 0.0397598743438720703 0.396782875061035156
0.726969301700592041 0.00475764274597167969 0.0981341823935508728
0.269198328256607056 0.0540363714098930359 0.0596397519111633301
-0.470486491918563843 -0.11922028660774231 0.46870124340057373
0.179253220558166504 0.230160504579544067 0.0615871883928775787
-0.688834309577941895 -0.00316697359085083008 0.182382538914680481
-0.475527256727218628 -0.0344299972057342529 0.172803953289985657
-0.445517003536224365 -0.0407654941082000732 -0.00900752469897270203
-0.0367356203496456146 0.344827979803085327 -0.141778454184532166
-0.156906455755233765 -0.0557118207216262817 -0.0979238003492355347
-0.274046063423156738 -0.237475067377090454 0.527038037776947021
0.391307801008224487 0.305501550436019897 0.0790555104613304138
-0.534032821655273438 -0.117438465356826782 0.223818510770797729
-0.228144392371177673 0.482815444469451904 0.114932522177696228
0.521624267101287842 0.141564413905143738 0.140647828578948975
-0.508675158023834229 -0.226931124925613403 0.569141030311584473
