ply
format ascii 1.0
element vertex 256
comment vertices
property float x
property float y
property float z
end_header
-0.13286706805229187 -0.388756275177001953 0.403729110956192017
0.626772761344909668 0.482515394687652588 0.125628918409347534
-0.267550230026245117 0.494086951017379761 0.133718281984329224
0.0595806464552879333 0.301500469446182251 0.829060196876525879
-0.584090471267700195 -0.184739261865615845 0.93857342004776001
0.326352834701538086 -0.0918447822332382202 0.0563908964395523071
0.0197855979204177856 -0.94269174337387085 0.278688311576843262
-0.625632882118225098 -0.100525863468647003 0.272584527730941772
0.173762381076812744 0.435302913188934326 0.363915473222732544
-0.389040946960449219 0.194234281778335571 0.570384681224822998
-0.24114970862865448 -0.0955236256122589111 0.0148859992623329163
0.0840561464428901672 -0.494397222995758057 0.0133544644340872765
-0.0399163812398910522 0.0340265519917011261 0.375236690044403076
0.594619512557983398 0.0345459282398223877 0.335809469223022461
0.0900744646787643433 0.295450001955032349 -0.00193589925765991211
-0.439378321170806885 -0.467402756214141846 0.159411162137985229
-0.528716504573822021 -0.33880162239074707 0.571764707565307617
-0.119707271456718445 0.00757460296154022217 0.742866218090057373
0.213542193174362183 -0.200695812702178955 0.350085645914077759
-0.392915666103363037 -0.444778561592102051 0.853568494319915771
0.363722681999206543 0.256284803152084351 0.174424231052398682
-0.325682222843170166 -0.139684557914733887 0.4149056077003479
-0.641004562377929688 -0.0461022816598415375 0.603385686874389648
0.275522738695144653 0.0866463333368301392 0.46290743350982666
-0.154932111501693726 0.336928397417068481 0.381566256284713745
-0.313360214233398438 0.185194075107574463 0.154337421059608459
0.0338289998471736908 -0.171748563647270203 0.10046793520450592
-0.327226310968399048 -0.18425007164478302 0.727359294891357422
-0.0281620621681213379 -0.745068550109863281 0.0877462178468704224
0.591331660747528076 0.132932737469673157 0.0749660953879356384
0.154092937707901001 0.00232122838497161865 0.784369826316833496
-0.335077822208404541 -0.569209694862365723 0.432924091815948486
-0.0465295165777206421 -0.320508182048797607 0.648580253124237061
-0.138218313455581665 -0.3888893723487854 0.116549879312515259
0.295643657445907593 0.492674708366394043 0.090009838342666626
-0.123290330171585083 0.244011089205741882 0.639809489250183105
-0.483123898506164551 -0.198714300990104675 0.0815761089324951172
0.277967989444732666 -0.395222842693328857 0.14362141489982605
0.426070570945739746 0.441856414079666138 0.383320748805999756
0.124037176370620728 0.127746134996414185 0.180546656250953674
0.164749115705490112 0.463506162166595459 0.611013293266296387
0.00421074032783508301 0.446850210428237915 0.166953489184379578
-0.299802601337432861 -0.397168517112731934 0.608407139778137207
-0.414686471223831177 0.0574899911880493164 0.327789187431335449
-0.0151850879192352295 -0.194339260458946228 0.340425550937652588
-0.405951946973800659 -0.345483750104904175 0.350138098001480103
0.658177316188812256 0.24299660325050354 0.273166120052337646
-0.609359979629516602 -0.439601361751556396 0.756947338581085205
0.410189390182495117 0.0980237722396850586 -0.0526249408721923828
0.0365912467241287231 0.303490757942199707 0.489618986845016479
0.302475571632385254 0.300195783376693726 0.554992198944091797
-0.156465411186218262 -0.12800896167755127 0.555583655834197998
0.470752745866775513 0.401901841163635254 -0.00547737162560224533
-0.465077877044677734 -0.0132315978407859802 0.729631662368774414
0.143332749605178833 0.0710088461637496948 -0.0290881618857383728
-0.355338096618652344 0.357043981552124023 0.275070905685424805
0.370926320552825928 -0.0252936035394668579 0.253593325614929199
-0.291418910026550293 -0.230216756463050842 0.164918035268783569
0.11162799596786499 -0.110727459192276001 0.505925893783569336
-0.573281288146972656 -0.233207911252975464 0.734040200710296631
0.220163434743881226 0.236820027232170105 0.315780758857727051
-0.173605859279632568 -0.10276678204536438 0.271160423755645752
-0.51292264461517334 -0.126627057790756226 0.461505234241485596
0.107462853193283081 -0.0554215013980865479 0.233601078391075134
-0.183778554201126099 0.121876835823059082 0.507911980152130127
-0.263176679611206055 -0.0610807761549949646 0.855794191360473633
-0.396702587604522705 0.0129335783421993256 0.517174839973449707
0.0850674062967300415 -0.296936154365539551 0.460701256990432739
-0.0135260075330734253 0.239239916205406189 0.239395052194595337
-0.288682341575622559 0.0107337310910224915 0.66758960485458374
0.0164507180452346802 -0.365341246128082275 0.215192034840583801
0.122804678976535797 -0.299206018447875977 0.000317400321364402771
-0.446829020977020264 0.00365903973579406738 0.155847251415252686
-0.411741644144058228 -0.256415516138076782 0.871403276920318604
-0.0961834639310836792 -0.483500540256500244 0.552382409572601318
-0.536568045616149902 -0.411184072494506836 0.955433249473571777
0.0676520019769668579 0.109957069158554077 0.496844768524169922
0.514042317867279053 -0.0185889601707458496 0.125297278165817261
0.476790040731430054 0.162468254566192627 0.320570766925811768
-0.412906944751739502 -0.129571840167045593 0.260721415281295776
-0.239136233925819397 -0.437166094779968262 0.277482569217681885
-0.218367263674736023 0.329334855079650879 0.135915964841842651
0.277376621961593628 0.0839764028787612915 0.0770386531949043274
0.451276719570159912 0.414488166570663452 0.217471122741699219
0.0607147738337516785 0.109083056449890137 0.691268861293792725
-0.179708585143089294 -0.220942884683609009 0.395752280950546265
0.551815152168273926 0.292276859283447266 0.108820103108882904
0.0146695561707019806 0.00113661587238311768 0.108591333031654358
-0.437758803367614746 -0.488007843494415283 0.616254329681396484
0.119855798780918121 0.298433244228363037 0.159328609704971313
0.051114298403263092 0.465481787919998169 0.477252006530761719
0.259402066469192505 0.4120827317237854 0.227281376719474792
0.0854283422231674194 0.327070295810699463 0.645859003067016602
0.0662055015563964844 -0.545725047588348389 0.165372133255004883
-0.312768340110778809 -0.364145219326019287 0.0785449445247650146
0.432002007961273193 0.117053374648094177 0.109372973442077637
-0.545643210411071777 -0.232738643884658813 0.308493524789810181
-0.137610554695129395 0.154291033744812012 0.342092901468276978
-0.313442349433898926 -0.230699867010116577 0.576588034629821777
-0.283930927515029907 -0.399366408586502075 0.450998991727828979
-0.130973264575004578 -0.222527056932449341 0.181015938520431519
-0.0794794708490371704 -0.278969854116439819 0.502460181713104248
-0.432673752307891846 -0.109557747840881348 0.604701578617095947
-0.483062028884887695 -0.0217897072434425354 0.881286799907684326
0.184355899691581726 -0.035297095775604248 0.0961984694004058838
0.157926857471466064 -0.40624353289604187 0.252961486577987671
0.0603756196796894073 0.35580599308013916 0.303960859775543213
0.326574921607971191 0.104960799217224121 0.322099298238754272
-0.306943714618682861 0.00448244810104370117 0.20840395987033844
-0.477870732545852661 -0.550343751907348633 0.47156912088394165
-0.106142833828926086 0.448980033397674561 0.296141266822814941
-0.280130505561828613 0.00260304659605026245 0.425454676151275635
-0.424393743276596069 -0.294044584035873413 0.182092219591140747
-0.415108919143676758 -0.325524181127548218 0.668582439422607422
-0.26762688159942627 0.249594151973724365 0.350262105464935303
0.207694739103317261 0.379076123237609863 -0.0111921690404415131
-0.0849180668592453003 0.0290204882621765137 0.555709123611450195
-0.219369664788246155 -0.304351478815078735 0.682535648345947266
0.0928770303726196289 0.101202443242073059 0.867451846599578857
-0.41448056697845459 0.163948535919189453 0.705953240394592285
0.156253904104232788 -0.236213415861129761 0.128123492002487183
-0.477445483207702637 -0.141249522566795349 0.807282984256744385
-0.161061272025108337 -0.251595735549926758 0.0477967523038387299
-0.44247668981552124 -0.280928373336791992 0.480681926012039185
0.30882728099822998 0.316471099853515625 0.0634541213512420654
0.0977486744523048401 0.174922138452529907 0.310088098049163818
-0.00657223910093307495 0.397166639566421509 0.0398636981844902039
-0.258450210094451904 0.197262927889823914 0.610439419746398926
0.117190778255462646 -0.395164728164672852 0.123560719192028046
-0.247663825750350952 -0.510187506675720215 0.521102428436279297
0.486273288726806641 0.275042146444320679 0.245141297578811646
-0.587631344795227051 -0.300603210926055908 0.850484967231750488
-0.161341249942779541 0.316598474979400635 0.51470029354095459
-0.00716158747673034668 -0.0803525298833847046 0.45091286301612854
-0.295295298099517822 -0.259903281927108765 0.294352680444717407
0.41936260461807251 0.539100408554077148 0.0767036229372024536
0.165974527597427368 0.300376206636428833 0.459898650646209717
-0.533501029014587402 -0.126660019159317017 0.181219622492790222
0.36194998025894165 0.186698824167251587 0.465635538101196289
-0.00765102356672286987 0.161148995161056519 0.390245407819747925
0.53813779354095459 0.0949725806713104248 0.188349276781082153
-0.215105324983596802 -0.00810659676790237427 0.56151968240737915
-0.173079043626785278 -0.380904197692871094 0.531846284866333008
-0.483835548162460327 -0.418077766895294189 0.479339301586151123
-0.354101359844207764 -0.180868163704872131 0.0629276707768440247
-0.256661474704742432 0.058562837541103363 0.783521294593811035
0.123488985002040863 0.416176199913024902 0.108429998159408569
0.109284922480583191 -0.0697699785232543945 0.360686302185058594
-0.0135521143674850464 -0.39587131142616272 0.511779487133026123
-0.0781222507357597351 -0.119227439165115356 0.077165558934211731
-0.511942148208618164 -0.103327199816703796 0.333663612604141235
-0.536055207252502441 -0.128782927989959717 0.673443257808685303
-0.487855494022369385 -0.501201510429382324 0.795463979244232178
-0.432607531547546387 -0.510732412338256836 0.275396645069122314
0.200070008635520935 0.225124835968017578 0.100059069693088531
-0.0698537677526473999 -0.47602534294128418 0.171691000461578369
-0.476980775594711304 -0.354701071977615356 0.835142850875854492
0.319722473621368408 0.284446895122528076 0.370838850736618042
0.30857616662979126 0.421141266822814941 0.353550851345062256
-0.335778355598449707 -0.311755150556564331 0.760390758514404297
0.0302245095372200012 0.238993912935256958 0.102097004652023315
-0.115453213453292847 0.457994580268859863 0.148253068327903748
-0.201873421669006348 -0.328336209058761597 0.238270565867424011
0.264937818050384521 0.00981397926807403564 0.364425987005233765
-0.190004914999008179 0.218973100185394287 0.176431268453598022
0.441316485404968262 0.35537382960319519 0.102000400424003601
0.613412022590637207 0.364889472723007202 0.183020785450935364
0.205000683665275574 0.0217474400997161865 0.200192227959632874
0.479410082101821899 0.00539974868297576904 0.295237332582473755
0.315153896808624268 -0.191339299082756042 0.121293991804122925
0.269412010908126831 0.143480852246284485 0.180142968893051147
0.643779933452606201 0.107815831899642944 0.241636887192726135
-0.0730888098478317261 -0.309694528579711914 0.338265150785446167
-0.332869946956634521 -0.0387336164712905884 0.329790413379669189
0.169044286012649536 0.165920034050941467 0.483022719621658325
0.0142190158367156982 -0.2821674644947052 0.131073623895645142
0.13178589940071106 -0.295708268880844116 0.277173489332199097
0.0821743905544281006 0.524196863174438477 0.111464522778987885
-0.318744927644729614 -0.0872215330600738525 0.614342451095581055
-0.279964208602905273 -0.527576744556427002 0.340471416711807251
0.302810251712799072 0.195662558078765869 0.0566343367099761963
-0.208509624004364014 -0.461449384689331055 0.635650992393493652
0.0906662940979003906 -0.601578950881958008 0.0681885182857513428
0.210148423910140991 -0.319804966449737549 0.197100520133972168
-0.395860373973846436 -0.219984829425811768 0.331517726182937622
-0.0376020371913909912 0.366210043430328369 0.362017601728439331
-0.498439192771911621 -0.412400931119918823 0.356818646192550659
0.0476635433733463287 0.467636585235595703 0.270076125860214233
0.0728546306490898132 0.126312687993049622 0.040910571813583374
-0.66631615161895752 -0.247069031000137329 0.670370936393737793
-0.000270351767539978027 -0.149888381361961365 0.206225544214248657
0.4479236900806427 -0.0627009421586990356 0.0454272180795669556
0.335026800632476807 0.0335380434989929199 0.159342706203460693
-0.0303454548120498657 -0.0206177681684494019 0.278246581554412842
0.168786883354187012 0.365357398986816406 0.271639466285705566
0.0529148690402507782 0.0798633694648742676 0.274776160717010498
-0.467596858739852905 -0.173777475953102112 0.919807374477386475
0.574691116809844971 0.500765562057495117 0.221757486462593079
-0.0365700274705886841 0.141416937112808228 0.516710519790649414
-0.212606459856033325 0.345885992050170898 0.287583082914352417
-0.23048698902130127 -0.357759058475494385 0.353918701410293579
0.238672882318496704 0.429424405097961426 0.452150493860244751
-0.470650255680084229 -0.230939701199531555 0.667199492454528809
-0.224982485175132751 -0.455404371023178101 0.108036600053310394
0.244560033082962036 0.17151390016078949 0.401210188865661621
-0.531556248664855957 -0.282195746898651123 0.163732066750526428
-0.196276307106018066 -0.246911391615867615 0.592856049537658691
0.0978950262069702148 0.0950679630041122437 0.383682310581207275
-0.08608207106590271 0.311793923377990723 0.204396247863769531
-0.284260451793670654 -0.0733340531587600708 0.136606723070144653
0.388809740543365479 0.143543347716331482 0.204823419451713562
-0.0505056381225585938 -0.658043980598449707 0.0279286578297615051
0.32332804799079895 0.348123133182525635 0.460639715194702148
0.54465639591217041 0.413578242063522339 0.114345371723175049
0.180949926376342773 0.347212225198745728 0.690658926963806152
-0.347357213497161865 0.206433951854705811 0.292703628540039062
0.544269800186157227 0.202017664909362793 0.18638002872467041
0.025577247142791748 0.166535988450050354 0.815549612045288086
0.183817774057388306 -0.119380436837673187 0.288115322589874268
-0.37927478551864624 -0.437293887138366699 0.478547871112823486
0.171258002519607544 0.0144409127533435822 0.315210014581680298
0.104872480034828186 -0.175547868013381958 0.360776185989379883
0.112489312887191772 0.362038195133209229 0.534381091594696045
0.378125160932540894 0.0790944695472717285 0.410451501607894897
0.251320511102676392 0.330570727586746216 0.150696337223052979
0.108160324394702911 -0.0141180753707885742 0.0220058765262365341
0.349816203117370605 0.362334519624710083 0.206342741847038269
-0.37951195240020752 -0.0293226800858974457 0.788660883903503418
0.187169149518013 0.234630435705184937 0.208911806344985962
0.230507075786590576 -0.235859990119934082 0.0537361614406108856
-0.627211093902587891 -0.204235434532165527 0.819426596164703369
0.264047443866729736 -0.425012856721878052 0.0445618927478790283
0.0726947933435440063 0.39441913366317749 0.400134295225143433
0.19494907557964325 0.476519465446472168 0.177139908075332642
-0.44835209846496582 -0.0162749886512756348 0.26270979642868042
-0.326844990253448486 0.062491878867149353 0.585892677307128906
0.384669691324234009 0.436158090829849243 0.0705792084336280823
-0.398930072784423828 -0.0870904624462127686 0.490570604801177979
-0.0239196345210075378 0.264653176069259644 0.621476531028747559
-0.514758706092834473 -0.294257760047912598 0.385145425796508789
-0.0441080331802368164 0.266429305076599121 0.437774747610092163
-0.263127386569976807 -0.150390923023223877 0.257847964763641357
0.0312685742974281311 0.250502705574035645 0.745147705078125
-0.386653482913970947 -0.368392586708068848 0.562888979911804199
0.0365869253873825073 -0.336546450853347778 0.578170180320739746
-0.33030235767364502 -0.135786324739456177 0.874388158321380615
0.121688239276409149 0.30227363109588623 0.367919474840164185
-0.308526992797851562 0.293589979410171509 0.210476160049438477
-0.503497719764709473 -0.248594015836715698 0.806717634201049805
-0.389777928590774536 -0.383950471878051758 0.214748263359069824
-0.345037996768951416 -0.266438782215118408 0.455707669258117676
-0.142523527145385742 -0.346069395542144775 0.629970312118530273
0.431721925735473633 0.0463491678237915039 0.184312015771865845
-0.490849137306213379 -0.390190690755844116 0.656030595302581787
-0.100515305995941162 0.252381026744842529 0.287615537643432617
0.316499471664428711 0.279096126556396484 0.270821362733840942
