ply
format ascii 1.0
element vertex 256
comment vertices
property float x
property float y
property float z
end_header
0.57767033576965332 -0.705004274845123291 0.417043685913085938
0.453337728977203369 0.72578585147857666 -0.107114836573600769
-0.69830787181854248 -0.148340404033660889 0.639103174209594727
0.2095327228307724 0.315776586532592773 0.843084156513214111
-0.113803811371326447 0.0223942995071411133 -0.12576662003993988
0.874849617481231689 0.0615121424198150635 0.218183368444442749
-0.258761316537857056 -0.741945803165435791 0.144835993647575378
0.102763228118419647 -0.237420514225959778 0.457376331090927124
-0.380088716745376587 0.416948199272155762 0.258732110261917114
0.331783175468444824 0.267676979303359985 0.239398494362831116
0.585482478141784668 -0.192278265953063965 0.767572700977325439
0.237313702702522278 -0.46945345401763916 -0.0414885058999061584
-0.221565321087837219 -0.590914785861968994 0.65412139892578125
-0.446197330951690674 -0.219865769147872925 0.182100147008895874
0.913891196250915527 0.374234914779663086 -0.15176314115524292
0.0197027325630187988 0.646964967250823975 0.198056429624557495
0.606989860534667969 0.52789229154586792 0.491410642862319946
0.491593122482299805 -0.109374165534973145 0.356081455945968628
-0.205507397651672363 0.0284845232963562012 0.535457372665405273
0.135984987020492554 -0.630713164806365967 0.306220084428787231
0.0905055850744247437 0.38339659571647644 -0.0795916914939880371
-0.0453726872801780701 0.455199152231216431 0.596864223480224609
0.301251977682113647 0.0645593106746673584 -0.0775360763072967529
0.511158883571624756 0.185838446021080017 0.609170019626617432
-0.0367548763751983643 0.284404188394546509 0.269893735647201538
-0.463550657033920288 0.0970535874366760254 -0.115982629358768463
0.248898446559906006 0.64813995361328125 0.470923155546188354
-0.123181797564029694 -0.351960897445678711 0.166422322392463684
-0.458238899707794189 -0.377548307180404663 0.486907303333282471
0.182443186640739441 0.133251607418060303 0.547212660312652588
0.0983939915895462036 -0.0129679888486862183 0.185032352805137634
-0.492170214653015137 0.117747612297534943 0.354307651519775391
0.580353975296020508 0.230108663439750671 -0.016420997679233551
-0.228495389223098755 0.449464946985244751 -0.0377122610807418823
0.295777022838592529 -0.682693958282470703 0.577583432197570801
0.276752442121505737 -0.177895739674568176 0.725046873092651367
-0.273088753223419189 0.0415367037057876587 0.134224236011505127
0.624389708042144775 0.277829885482788086 0.304890155792236328
0.466412842273712158 -0.730096817016601562 0.141962230205535889
-0.375307470560073853 -0.121285110712051392 0.714694619178771973
0.281177997589111328 0.587651073932647705 0.0752327591180801392
0.359878510236740112 0.365880250930786133 -0.171386867761611938
-0.436693906784057617 -0.655575811862945557 -0.0536749884486198425
-0.434854358434677124 -0.644729793071746826 0.339104205369949341
0.291748404502868652 0.390189856290817261 0.558072686195373535
0.473943024873733521 -0.450002759695053101 0.422361671924591064
-0.0988443344831466675 -0.417077034711837769 0.448486685752868652
0.672667086124420166 -0.159879758954048157 0.163543730974197388
0.519915938377380371 0.469462156295776367 0.147967934608459473
0.260540097951889038 -0.377623379230499268 0.290878891944885254
0.80068892240524292 0.0370484143495559692 -0.0297805964946746826
1.02087545394897461 0.27311369776725769 0.182909637689590454
0.500273406505584717 0.0745522528886795044 0.174776047468185425
-0.501337051391601562 -0.0987307950854301453 0.489135146141052246
0.374621212482452393 0.127627193927764893 0.809482812881469727
0.12809985876083374 0.207503393292427063 -0.250846117734909058
0.771301150321960449 0.131036683917045593 0.440862864255905151
0.127159953117370605 0.428587883710861206 0.379806935787200928
-0.0672012120485305786 -0.0934297144412994385 0.357779979705810547
-0.464771658182144165 -0.461336761713027954 0.0907977893948554993
0.482941925525665283 0.405515611171722412 0.70678633451461792
-0.389216423034667969 0.26128000020980835 0.0449532419443130493
0.273883044719696045 0.00924132764339447021 0.349615633487701416
-0.392492055892944336 -0.723468959331512451 0.556231975555419922
-0.0546935498714447021 -0.690518021583557129 0.539713501930236816
0.45827329158782959 0.122750431299209595 0.397999405860900879
0.146884262561798096 0.0531997382640838623 0.747278809547424316
0.253988057374954224 -0.473048388957977295 0.541562736034393311
-0.0230590403079986572 0.118163451552391052 0.0651078000664710999
0.487845957279205322 -0.523441791534423828 0.0874743834137916565
0.321042478084564209 0.476444602012634277 0.280920863151550293
0.37848961353302002 -0.163691744208335876 0.539172828197479248
0.147128462791442871 -0.206383377313613892 0.112502694129943848
0.0639285147190093994 -0.0450263917446136475 0.537244856357574463
0.664162635803222656 0.0173227041959762573 0.296211451292037964
-0.271715998649597168 -0.492669522762298584 0.353440791368484497
-0.211135923862457275 0.167511865496635437 0.288312762975692749
0.387735307216644287 0.29398953914642334 0.0294729545712471008
0.0323957130312919617 0.437800407409667969 0.788630783557891846
0.848158657550811768 0.345899432897567749 0.270213574171066284
0.141219407320022583 0.189243748784065247 0.309836655855178833
-0.318910539150238037 -0.153186231851577759 0.0351724922657012939
-0.499189496040344238 -0.385011553764343262 0.288459807634353638
0.074753493070602417 0.285767018795013428 0.620136618614196777
0.288988292217254639 0.0385414212942123413 0.151533991098403931
-0.26505887508392334 -0.102582857012748718 0.385772764682769775
-0.313701272010803223 -0.266772806644439697 0.569457292556762695
0.0695672929286956787 -0.440361589193344116 0.344010472297668457
0.401682883501052856 -0.828444004058837891 0.495509982109069824
0.452527463436126709 0.311699032783508301 0.454696893692016602
0.490369260311126709 -0.324817776679992676 0.657658576965332031
0.0677788034081459045 0.341107219457626343 0.113346680998802185
0.775111258029937744 0.243140265345573425 -0.0059222877025604248
0.637811183929443359 0.349021226167678833 0.563325405120849609
-0.643934130668640137 -0.228884175419807434 0.46275058388710022
0.40258297324180603 -0.539470195770263672 0.260957002639770508
0.206850320100784302 -0.192909792065620422 0.298068642616271973
0.616434216499328613 0.0329715311527252197 0.559401154518127441
-0.0464586615562438965 0.0890986770391464233 0.411716938018798828
0.834019243717193604 0.423295378684997559 0.016069561243057251
0.166000843048095703 0.658174335956573486 -0.0585365332663059235
-0.199889838695526123 0.172656789422035217 0.0183526761829853058
0.365283817052841187 -0.00213617086410522461 0.673179388046264648
-0.453683018684387207 0.00760476291179656982 0.14719720184803009
0.931074619293212891 -0.108198866248130798 0.261444360017776489
0.288443058729171753 0.241177991032600403 0.693552255630493164
-0.0896759480237960815 -0.199594452977180481 0.506006896495819092
0.736333072185516357 0.36864626407623291 -0.18593151867389679
0.284644722938537598 0.233741700649261475 0.437427550554275513
-0.230988040566444397 -0.684839308261871338 0.485982239246368408
-0.271716803312301636 -0.12340448796749115 0.206930622458457947
0.481628924608230591 -0.638670742511749268 0.553719282150268555
-0.332140862941741943 -0.581266283988952637 0.106953173875808716
0.705376505851745605 0.0547652505338191986 0.127450257539749146
-0.235300511121749878 0.32584032416343689 0.364415884017944336
-0.33434334397315979 0.145614847540855408 0.429785996675491333
-0.584348082542419434 -0.218595817685127258 0.2978973388671875
-0.249240532517433167 -0.67046809196472168 0.303631126880645752
0.0573703423142433167 -0.344845116138458252 0.198906809091567993
0.325066685676574707 -0.30341726541519165 0.834136724472045898
0.510757684707641602 -0.103565976023674011 0.140186920762062073
0.209141731262207031 0.437288939952850342 0.137831687927246094
0.669902622699737549 0.256628066301345825 0.140159577131271362
0.39143526554107666 0.4795379638671875 0.451385796070098877
0.174142554402351379 0.715181827545166016 0.113708861172199249
-0.329366087913513184 -0.341360151767730713 0.167712152004241943
0.45338141918182373 -0.765124738216400146 0.306133508682250977
0.568620443344116211 0.503573298454284668 0.330359458923339844
0.338692128658294678 0.661023974418640137 -0.210150480270385742
-0.122509866952896118 -0.191235050559043884 0.121324107050895691
0.10999482125043869 0.641499161720275879 0.384584099054336548
0.253089159727096558 0.362711906433105469 -0.0479133166372776031
-0.361406445503234863 0.068018108606338501 0.268483668565750122
0.653017520904541016 -0.139938518404960632 0.326258838176727295
0.501997768878936768 0.068744957447052002 0.733014166355133057
0.0667592063546180725 0.531391739845275879 0.491033464670181274
-0.488657593727111816 -0.0394660234451293945 0.330062955617904663
0.625886797904968262 -0.685224056243896484 0.266916275024414062
0.393457353115081787 -0.0758665204048156738 0.240460321307182312
0.155714660882949829 0.316191375255584717 0.481419622898101807
-0.595279574394226074 -0.0250698700547218323 0.586085677146911621
0.805557906627655029 -0.00234800949692726135 0.352750241756439209
0.632807314395904541 0.208212867379188538 0.441117286682128906
0.244585871696472168 -0.0154894590377807617 0.497760176658630371
0.904819607734680176 0.193746596574783325 -0.0701079815626144409
0.0867976546287536621 0.215259596705436707 0.0226165354251861572
0.270528197288513184 0.200647413730621338 0.117884993553161621
0.777114927768707275 -0.054340064525604248 0.212353169918060303
0.38324129581451416 0.115394055843353271 0.572518110275268555
0.929349243640899658 0.275161862373352051 0.0636268183588981628
0.208354517817497253 -0.212177634239196777 0.560607373714447021
0.37344852089881897 0.506096959114074707 0.602880716323852539
0.0501319617033004761 -0.654128789901733398 0.440954387187957764
0.337259292602539062 0.224617525935173035 -0.131969720125198364
-0.127537161111831665 -0.253869295120239258 0.373307347297668457
0.126526534557342529 -0.424071341753005981 0.484075814485549927
0.324885904788970947 -0.116078421473503113 0.409977465867996216
0.427794098854064941 -0.20086534321308136 0.808197498321533203
0.816982686519622803 0.209780767560005188 0.324954032897949219
0.444551646709442139 0.00370562262833118439 0.0588463693857192993
0.392526566982269287 0.429543435573577881 0.0873001143336296082
0.879917263984680176 0.121606096625328064 0.0847322344779968262
-0.30627092719078064 0.246988058090209961 -0.0748216211795806885
0.81375652551651001 0.519449055194854736 -0.0922784209251403809
0.0694340616464614868 0.140239119529724121 0.639604449272155762
-0.042191728949546814 -0.00576093792915344238 0.146823763847351074
-0.337560981512069702 -0.0107984617352485657 0.47226250171661377
0.545632362365722656 0.27321133017539978 0.719836950302124023
-0.165605634450912476 -0.103297248482704163 0.014606080949306488
0.335365474224090576 0.477438688278198242 -0.0796633362770080566
0.411640048027038574 -0.678510487079620361 0.41403689980506897
0.284026980400085449 0.358791768550872803 0.355983316898345947
0.516202926635742188 0.214537918567657471 0.145694941282272339
0.0950759649276733398 0.268118619918823242 0.916022896766662598
-0.281380921602249146 -0.470660865306854248 0.206488415598869324
-0.0149675905704498291 -0.528376936912536621 0.479521572589874268
0.307935655117034912 0.137278914451599121 0.29986339807510376
-0.241976410150527954 -0.530743122100830078 0.486410021781921387
0.356513887643814087 -0.410165190696716309 0.00629626214504241943
0.178338348865509033 0.275918781757354736 0.205405980348587036
-0.293545812368392944 0.205923005938529968 0.12902754545211792
-0.377088963985443115 -0.12437082827091217 0.545274972915649414
-0.083953857421875 0.125385642051696777 0.18900434672832489
0.291903316974639893 -0.34303516149520874 0.420960485935211182
0.0878108441829681396 0.543535828590393066 0.140947818756103516
0.473049342632293701 0.409985005855560303 0.570963621139526367
0.00809621810913085938 -0.155054867267608643 0.133008390665054321
0.15165381133556366 0.224567115306854248 0.761259675025939941
-0.200427040457725525 0.03343924880027771 0.021009812131524086
-0.309220671653747559 0.432039409875869751 0.0683527365326881409
0.167172521352767944 -0.512471556663513184 0.250535488128662109
0.231721922755241394 0.11986580491065979 0.66988837718963623
0.336703002452850342 0.296413391828536987 0.811383247375488281
0.244683712720870972 0.15472845733165741 0.824223458766937256
0.415261685848236084 0.204846829175949097 0.697816610336303711
-0.20354849100112915 -0.235856577754020691 0.215697556734085083
0.129815131425857544 0.366603076457977295 0.736951231956481934
-0.240132749080657959 0.0211101919412612915 0.286318957805633545
-0.433256804943084717 -0.0923725217580795288 0.0543867163360118866
-0.379785120487213135 0.037204839289188385 0.0438030511140823364
-0.123395994305610657 -0.0759223103523254395 0.484815448522567749
-0.471369564533233643 -0.261110872030258179 0.431701809167861938
0.200709328055381775 -0.0620932132005691528 0.723807930946350098
0.179190218448638916 0.103025771677494049 0.398318231105804443
0.586445748805999756 -0.136107698082923889 0.651323676109313965
0.450751066207885742 -0.00604614615440368652 0.420250266790390015
-0.00388789363205432892 0.405131280422210693 0.243086159229278564
-0.303139090538024902 0.316301643848419189 0.243404611945152283
0.439308673143386841 0.201403558254241943 0.253805667161941528
0.429239451885223389 -0.210528790950775146 0.310926318168640137
0.433521121740341187 -0.216958820819854736 0.438098549842834473
-0.415144860744476318 0.127036511898040771 0.130263954401016235
0.342037677764892578 -0.565575122833251953 0.369003593921661377
0.0824907869100570679 0.401656448841094971 0.571299493312835693
0.191545560956001282 0.332563400268554688 0.614798545837402344
0.211745738983154297 -0.0728662014007568359 0.262010663747787476
-0.565698504447937012 -0.367564767599105835 0.392829358577728271
-0.427192389965057373 -0.0121882259845733643 -0.068256869912147522
0.138976216316223145 0.571383833885192871 0.0261142328381538391
-0.56793057918548584 -0.183125883340835571 0.180168554186820984
-0.406605333089828491 -0.0981178209185600281 0.191846251487731934
0.149272099137306213 -0.545418441295623779 0.472171366214752197
-0.0247592329978942871 0.341192930936813354 0.0310283470898866653
0.156154155731201172 -0.0452814921736717224 0.416422873735427856
0.506410658359527588 0.257573366165161133 0.357304662466049194
-0.635587453842163086 -0.254473090171813965 0.628224313259124756
0.0197985842823982239 -0.114025324583053589 0.445289045572280884
0.593040883541107178 0.0963947176933288574 0.408270984888076782
0.712222874164581299 0.129829704761505127 0.304784268140792847
-0.261365801095962524 -0.185453444719314575 0.642085015773773193
-0.1728476881980896 0.28987419605255127 0.0305474735796451569
-0.166623324155807495 -0.00839385390281677246 0.162122800946235657
0.101878955960273743 -0.145531967282295227 0.592533588409423828
-0.202259764075279236 -0.1702004075050354 0.537647008895874023
0.572888672351837158 0.366643428802490234 0.181993991136550903
0.324371486902236938 0.365415275096893311 0.713565826416015625
0.318334341049194336 0.140802770853042603 0.0135492533445358276
0.3747672438621521 -0.342978149652481079 0.278849780559539795
0.469835042953491211 0.0375571399927139282 0.599055647850036621
0.51486051082611084 -0.500523567199707031 0.32241937518119812
0.290951251983642578 0.469503402709960938 -0.189686432480812073
-0.453092217445373535 0.0384491086006164551 0.433726191520690918
-0.529633224010467529 -0.060646548867225647 0.220886841416358948
0.632674038410186768 -0.0278246179223060608 0.19126814603805542
0.367428898811340332 0.389206111431121826 0.216380760073661804
0.768418431282043457 0.220458805561065674 0.218539237976074219
0.316544920206069946 0.127553895115852356 0.475712120532989502
-0.345460236072540283 -0.141738355159759521 0.309933781623840332
-0.0273504555225372314 0.325159817934036255 0.578062951564788818
0.378632307052612305 0.217791855335235596 0.352533429861068726
-0.565180480480194092 -0.192149713635444641 0.540656983852386475
0.277362942695617676 0.494421511888504028 0.433508396148681641
0.436642825603485107 0.275054872035980225 0.606392025947570801
-0.474754601716995239 -0.264662951231002808 0.0787743255496025085
-0.488316327333450317 0.0509022772312164307 0.257339239120483398
-0.12746448814868927 0.353826016187667847 0.285998821258544922
