ply
format ascii 1.0
element vertex 64
comment vertices
property float x
property float y
property float z
end_header
-0.507313549518585205 0.861761510372161865 0.501026511192321777
0.153528138995170593 -0.988144278526306152 0.319584667682647705
-0.216200560331344604 1.98827993869781494 0.393994927406311035
-0.729900598526000977 2.90985321998596191 0.258142441511154175
-0.333499163389205933 -1.97199857234954834 0.261180520057678223
0.884985923767089844 -0.465617775917053223 0.0609740354120731354
-0.902747809886932373 1.78466987609863281 0.456163614988327026
1.0692136287689209 -1.69020175933837891 0.413997530937194824
1.51533925533294678 -1.30527651309967041 0.448733776807785034
-1.51699280738830566 2.58819103240966797 0.419994562864303589
0 0 0
0 0 0
0 0 0
0 0 0
0 0 0
0 0 0
0 0 0
0 0 0
0 0 0
0 0 0
0 0 0
0 0 0
0 0 0
0 0 0
0 0 0
0 0 0
0 0 0
0 0 0
0 0 0
0 0 0
0 0 0
0 0 0
0 0 0
0 0 0
0 0 0
0 0 0
0 0 0
0 0 0
0 0 0
0 0 0
0 0 0
0 0 0
0 0 0
0 0 0
0 0 0
0 0 0
0 0 0
0 0 0
0 0 0
0 0 0
0 0 0
0 0 0
0 0 0
0 0 0
0 0 0
0 0 0
0 0 0
0 0 0
0 0 0
0 0 0
0 0 0
0 0 0
0 0 0
0 0 0
