ply
format ascii 1.0
element vertex 64
comment vertices
property float x
property float y
property float z
end_header
-0.429543197154998779 -0.814745306968688965 0.183151379227638245
-2.5575251579284668 -3.65468406677246094 1.76315760612487793
0.400077223777770996 2.06757354736328125 0.409650862216949463
-0.392637968063354492 -3.84907627105712891 -0.237342521548271179
-1.85547387599945068 -0.998879432678222656 2.62531137466430664
-2.19545602798461914 -2.41643095016479492 -0.228548437356948853
-1.55720782279968262 1.10450351238250732 1.82362174987792969
-0.448281437158584595 -2.83521223068237305 1.783469557762146
1.07157063484191895 0.273523211479187012 -0.812516450881958008
0.863310515880584717 -2.24793791770935059 0.596059203147888184
-2.25459551811218262 -0.615697503089904785 0.474342525005340576
-0.0869185924530029297 0.420330047607421875 1.44142532348632812
-1.81977999210357666 -2.03999495506286621 1.45475995540618896
-0.410538733005523682 0.883823990821838379 -0.200507760047912598
-1.55828046798706055 -3.57471227645874023 0.621225833892822266
-0.42235979437828064 -2.34577035903930664 -0.0873804613947868347
-0.905876338481903076 -0.933635413646697998 1.55937552452087402
-0.861205339431762695 1.71747398376464844 0.858771085739135742
-1.73106837272644043 -2.61045646667480469 2.63626837730407715
-0.937944591045379639 -0.128166556358337402 -0.799777567386627197
0.444265484809875488 1.17073273658752441 -1.44118690490722656
-1.42032647132873535 -1.4240037202835083 -0.209235161542892456
0.210647433996200562 -1.41161167621612549 1.14174890518188477
1.09856009483337402 1.13065648078918457 0.595721840858459473
-2.18555140495300293 0.0111185908317565918 2.20146965980529785
0.290579527616500854 0.0532159209251403809 0.164424002170562744
-0.961768865585327148 -1.82149624824523926 0.751352012157440186
-1.14489006996154785 0.131393164396286011 1.21576881408691406
-1.30691993236541748 -3.77745199203491211 1.69317233562469482
0.331192344427108765 -1.00470829010009766 -0.550284504890441895
-2.50365829467773438 -3.12817239761352539 0.527621150016784668
0.246432214975357056 1.80013775825500488 -0.570082426071166992
-1.3528214693069458 -2.98583602905273438 -0.237097233533859253
0.0362296104431152344 -2.75660872459411621 0.839664757251739502
1.44780063629150391 -0.396127700805664062 -0.23842155933380127
-2.04640889167785645 -1.13907337188720703 1.67209768295288086
-0.607508420944213867 -3.49388456344604492 0.6192360520362854
-0.66168677806854248 -1.1741032600402832 -0.696118175983428955
-1.16815757751464844 0.2780800461769104 0.293196141719818115
-1.01674938201904297 -1.34858715534210205 2.3836667537689209
-1.42106080055236816 -0.914391279220581055 0.789789259433746338
-1.5140378475189209 -2.54380249977111816 0.736637473106384277
-1.89518928527832031 -3.04521799087524414 1.68705105781555176
0.107338570058345795 0.805800855159759521 0.60661160945892334
-1.99750161170959473 -1.7542579174041748 -0.801936030387878418
-0.145828321576118469 -0.619892477989196777 1.00971591472625732
0.573896527290344238 -1.39676189422607422 0.192864716053009033
-0.00916427373886108398 -0.0100479722023010254 -0.652605712413787842
-0.7345162034034729 0.986282467842102051 1.3354259729385376
-0.829306304454803467 -2.08617115020751953 1.58352196216583252
-2.01904034614562988 -3.58642101287841797 -0.0982330739498138428
-1.56825757026672363 -0.464936405420303345 1.83963680267333984
-1.03993833065032959 0.503121495246887207 2.08135509490966797
0.321702539920806885 0.724133670330047607 -0.507216691970825195
-0.618946194648742676 -1.57776415348052979 0.0209368877112865448
0.337631523609161377 1.34644949436187744 0.0684979408979415894
-1.88708317279815674 -1.93262290954589844 0.419989734888076782
-1.27072906494140625 1.04279756546020508 0.419262707233428955
-0.202056378126144409 -1.92979514598846436 0.651285886764526367
-1.14539790153503418 -2.53519058227539062 2.14360308647155762
-0.39288330078125 -0.102152198553085327 0.469416439533233643
0.048146616667509079 -1.7005000114440918 -0.471246302127838135
-0.194926202297210693 -3.4552464485168457 1.48053503036499023
-2.33833408355712891 -2.48520946502685547 1.85660791397094727
