ply
format ascii 1.0
element vertex 64
comment vertices
property float x
property float y
property float z
end_header
-0.20706552267074585 -0.672318458557128906 0.518203377723693848
1.8487694263458252 -6.44080448150634766 2.69914054870605469
-3.01268196105957031 3.3074800968170166 -1.24221241474151611
1.34632658958435059 2.29067778587341309 -1.4654994010925293
-3.18606948852539062 1.16027998924255371 2.15468335151672363
2.36827659606933594 -3.2278907299041748 0.698790013790130615
-0.660773098468780518 -3.44452428817749023 2.36356282234191895
0.953954577445983887 -1.97124612331390381 -1.6609809398651123
-1.02931392192840576 1.72296476364135742 -0.0637727528810501099
2.31655216217041016 -0.125001430511474609 0.419545650482177734
0.196742385625839233 -3.90343475341796875 -0.597406506538391113
-3.10320758819580078 3.07543158531188965 0.875334858894348145
-2.26373624801635742 0.0861024856567382812 0.472970247268676758
0.894425630569458008 -1.96660494804382324 1.77945828437805176
1.66128659248352051 -4.09483718872070312 2.46465444564819336
-0.871462225914001465 -1.78603851795196533 -0.958912253379821777
0.708141803741455078 0.649974465370178223 -0.678314805030822754
-3.00466108322143555 1.52460300922393799 -0.504080057144165039
-1.30191171169281006 2.82888221740722656 -1.59187841415405273
-0.557846307754516602 0.790137648582458496 1.49270749092102051
-1.10569596290588379 -0.0629956722259521484 -0.831626057624816895
1.62529528141021729 -1.64026594161987305 0.0629167631268501282
-0.772550702095031738 -2.93579864501953125 0.30579453706741333
2.52643465995788574 0.886771857738494873 -0.825949609279632568
0.917458891868591309 -5.45246505737304688 1.83659791946411133
0.560456991195678711 -3.45712089538574219 1.30772340297698975
0.657931804656982422 2.11080217361450195 -0.0787837505340576172
-0.0963209867477416992 1.65532040596008301 -1.30262959003448486
-1.81022357940673828 2.59612703323364258 1.19693148136138916
-0.604673206806182861 -1.81972956657409668 1.20851409435272217
0.421098232269287109 -2.34363842010498047 -0.425202131271362305
-2.83285140991210938 1.46046733856201172 0.859798192977905273
0.586303174495697021 0.0380094647407531738 1.45422017574310303
0.983934640884399414 -0.47955399751663208 0.0146838799118995667
-2.32510256767272949 2.50685787200927734 0.0135988220572471619
1.03756189346313477 -4.21626806259155273 0.315012335777282715
-0.398185819387435913 0.626730442047119141 0.103043928742408752
0.0873977243900299072 -0.971638619899749756 -1.04632937908172607
-1.90107035636901855 1.95439517498016357 -1.02001070976257324
-0.300205975770950317 -1.9889676570892334 2.34525537490844727
-1.57273054122924805 -0.215075373649597168 1.36601591110229492
0.539092302322387695 -1.56223797798156738 0.55534517765045166
-1.70777630805969238 0.937042891979217529 1.35468542575836182
1.5374990701675415 0.710515439510345459 -1.47720170021057129
0.424453854560852051 -4.02281093597412109 2.29212856292724609
1.75113916397094727 -2.36122965812683105 1.15235424041748047
-1.18405520915985107 -0.0877481698989868164 0.362441897392272949
-3.39462018013000488 2.63349103927612305 -0.0762725472450256348
-1.42218899726867676 1.0304797887802124 -0.790606975555419922
0.475937932729721069 -3.25266027450561523 0.169310882687568665
-2.6911778450012207 2.06484746932983398 2.03057622909545898
1.08669137954711914 -0.860816061496734619 1.31241774559020996
1.53598320484161377 -4.00346708297729492 1.44128632545471191
-2.07237768173217773 1.52040672302246094 -0.0828412249684333801
-0.44146430492401123 -2.00593256950378418 0.0923435688018798828
0.632521629333496094 -2.60393428802490234 2.51444244384765625
-0.29283297061920166 -3.8916935920715332 0.278458714485168457
1.92261433601379395 -1.06424403190612793 0.812684178352355957
-3.48895263671875 1.97480463981628418 1.37277889251708984
2.1010277271270752 1.83745253086090088 -1.08643889427185059
-2.00505661964416504 0.135974287986755371 -0.446291059255599976
0.404466062784194946 1.21164941787719727 0.0958781838417053223
-2.71043491363525391 2.71995782852172852 -1.92413806915283203
0.117736592888832092 -2.54717874526977539 1.70344257354736328
