ply
format ascii 1.0
element vertex 64
comment vertices
property float x
property float y
property float z
end_header
1.07773840427398682 1.22598564624786377 -0.592799961566925049
3.90495872497558594 -3.64645910263061523 1.77684009075164795
-2.12368607521057129 -1.4556267261505127 2.29651117324829102
4.56414604187011719 -0.462094485759735107 0.192171841859817505
0.771650016307830811 -2.15575933456420898 0.441168218851089478
-2.26469755172729492 0.0537347197532653809 -0.453667193651199341
0.180101335048675537 0.0257730092853307724 2.02827596664428711
1.89087283611297607 -0.900058627128601074 -1.19950008392333984
2.4767615795135498 -0.728255271911621094 1.10049855709075928
5.33286285400390625 -2.04405736923217773 1.41109788417816162
2.89707231521606445 1.47734856605529785 0.492286175489425659
0.458509087562561035 3.14680027961730957 -0.0896405205130577087
-0.86135709285736084 1.332450270652771 0.353303849697113037
-0.623993277549743652 -0.70997774600982666 0.366476595401763916
0.174281522631645203 -0.407289385795593262 -1.27232670783996582
-0.304281324148178101 -1.66121208667755127 1.82399225234985352
3.91406488418579102 -2.13003969192504883 0.449729472398757935
0.720425665378570557 1.28818869590759277 1.03927993774414062
0.976474761962890625 -0.324486970901489258 0.521189332008361816
-1.56940793991088867 -0.0677752494812011719 1.63624238967895508
2.77612543106079102 0.472301363945007324 -0.699469447135925293
-0.363741695880889893 1.14021492004394531 -1.17007911205291748
1.74842226505279541 0.730485200881958008 -1.7534555196762085
1.98117756843566895 0.728740036487579346 1.33428394794464111
-1.80252528190612793 1.08812391757965088 -1.25307595729827881
-1.52237248420715332 -1.60119295120239258 1.05982089042663574
2.1329643726348877 -1.63888216018676758 0.214610978960990906
1.58041989803314209 2.45951962471008301 -0.102560728788375854
1.3544619083404541 -0.519892394542694092 1.85687243938446045
3.53517723083496094 -0.00407552719116210938 0.855685710906982422
-2.71285820007324219 -0.47637939453125 0.639093160629272461
0.122744917869567871 0.550822257995605469 -0.0596194863319396973
-0.433148801326751709 1.08136355876922607 1.53424465656280518
3.06576967239379883 -2.00253987312316895 1.38009500503540039
0.622490227222442627 -1.19541633129119873 -0.324729800224304199
0.198080599308013916 2.18623089790344238 -0.769789814949035645
4.20679140090942383 -2.39952564239501953 1.58296310901641846
1.85711288452148438 0.691494226455688477 0.133046910166740417
-0.446322917938232422 -0.594549000263214111 2.80749154090881348
-0.838724970817565918 0.0864043235778808594 -0.525556445121765137
1.73549103736877441 1.65773236751556396 0.745093166828155518
-1.56306838989257812 0.363846898078918457 0.360780596733093262
2.79039716720581055 -0.352521896362304688 0.0944512486457824707
0.194386303424835205 -0.991800069808959961 1.09330296516418457
1.29886853694915771 -1.97455215454101562 -0.573433578014373779
-0.0549100860953330994 1.98438048362731934 0.566846132278442383
3.86370372772216797 -1.06642293930053711 0.692263245582580566
1.19472622871398926 -1.29159784317016602 1.00877225399017334
0.0190232992172241211 0.0642037093639373779 1.00761377811431885
1.82372772693634033 -0.602531135082244873 -0.136651113629341125
1.16880989074707031 -0.179969072341918945 -1.16272175312042236
-1.67802870273590088 -0.81254732608795166 0.436374396085739136
-1.22677838802337646 0.120629251003265381 -1.45883524417877197
1.02984869480133057 0.319698691368103027 1.4039146900177002
4.77098178863525391 -1.60480797290802002 0.495455175638198853
-2.43159246444702148 -0.902052760124206543 1.52153277397155762
1.15549790859222412 1.76657700538635254 -1.42591357231140137
5.01960229873657227 -2.92141270637512207 1.10474669933319092
1.18927788734436035 2.64100074768066406 -0.992492556571960449
-1.07581126689910889 -0.657936811447143555 2.16557002067565918
2.04891324043273926 0.943213105201721191 -0.933653712272644043
0.864990472793579102 2.00352859497070312 0.185562178492546082
0.979468464851379395 0.301972746849060059 -0.138097107410430908
0.00997877120971679688 -1.80091464519500732 0.744485914707183838
