ply
format ascii 1.0
element vertex 64
comment vertices
property float x
property float y
property float z
end_header
-1.47403264045715332 -0.907802164554595947 -0.526933729648590088
-0.446983605623245239 4.17246484756469727 -0.829971671104431152
1.94830489158630371 1.05990970134735107 2.34748315811157227
-3.9630730152130127 2.94022321701049805 1.16156315803527832
-2.1903839111328125 -0.705542922019958496 3.37176609039306641
1.35867476463317871 1.05227327346801758 -1.09954142570495605
-1.11430883407592773 2.14806222915649414 2.39968657493591309
0.0488076210021972656 -2.42818069458007812 1.63908278942108154
-1.6758500337600708 1.74788200855255127 -1.03665602207183838
0.500467181205749512 -2.51326656341552734 -1.00148892402648926
-3.32345008850097656 -0.492299556732177734 1.154335618019104
-0.0910275280475616455 -0.643765568733215332 -2.52509117126464844
-0.691426753997802734 -0.113353371620178223 1.59890055656433105
0.145940154790878296 2.19750571250915527 0.446916311979293823
-2.08391213417053223 3.65946364402770996 0.495363295078277588
0.917668938636779785 -0.831292092800140381 0.146888256072998047
-0.0574719905853271484 1.56018733978271484 -2.35298991203308105
-2.41101431846618652 1.79425621032714844 0.845793247222900391
-0.623884677886962891 0.548558473587036133 -0.0370361208915710449
0.834705233573913574 0.572921276092529297 1.14056432247161865
1.79403448104858398 2.21274781227111816 0.904438436031341553
-1.08483052253723145 -2.38980937004089355 0.0834577083587646484
-2.34388875961303711 0.343154847621917725 0.178248390555381775
0.353140056133270264 1.28605842590332031 2.46511602401733398
-1.45744132995605469 0.317573666572570801 -1.58390378952026367
-3.01572155952453613 0.748017430305480957 1.97030019760131836
0.107354134321212769 -0.281106293201446533 -1.07449829578399658
0.550623595714569092 3.2776494026184082 1.40317463874816895
-0.386685371398925781 2.56714749336242676 -0.903112351894378662
2.40136575698852539 0.0713385343551635742 1.40037953853607178
-1.43637192249298096 -1.1410975456237793 0.925755918025970459
-1.08379721641540527 1.26500034332275391 1.10015439987182617
-1.18362700939178467 2.54211235046386719 0.300991356372833252
1.02945303916931152 2.36921811103820801 -1.29960191249847412
-0.592702865600585938 -1.75964701175689697 -1.22294008731842041
-1.42692661285400391 0.25781625509262085 2.65551376342773438
-2.07436776161193848 3.12167191505432129 -0.689779758453369141
0.109274983406066895 -1.09455657005310059 1.42099475860595703
0.19150426983833313 -3.43845486640930176 -0.197383925318717957
-0.455916106700897217 1.27322196960449219 -1.19443058967590332
-2.96054530143737793 1.98203074932098389 2.09813380241394043
-0.347074061632156372 -1.337135910987854 -0.108463793992996216
0.800741016864776611 -1.94923567771911621 0.601866006851196289
-1.05882489681243896 -1.28650832176208496 2.04465866088867188
1.25676655769348145 2.05513143539428711 1.95329725742340088
-0.173236072063446045 1.97079825401306152 1.67147791385650635
-2.84224820137023926 2.84026384353637695 0.878899216651916504
-0.955880284309387207 -0.7747650146484375 3.01021742820739746
0.412755489349365234 0.225293338298797607 0.0307947397232055664
-2.10618400573730469 -2.0247187614440918 0.121784687042236328
-0.0660294294357299805 3.21810674667358398 -0.100121214985847473
-1.05644500255584717 1.52886414527893066 -0.122950680553913116
-0.524427592754364014 -0.366679370403289795 0.517501413822174072
-2.019317626953125 0.906225085258483887 1.48524069786071777
-0.835476517677307129 -0.60323035717010498 -1.46445095539093018
-2.20867204666137695 -0.206585168838500977 1.07238984107971191
-1.90280055999755859 2.24327349662780762 1.65004587173461914
-0.0629788637161254883 1.00072884559631348 0.860530436038970947
1.16445660591125488 -0.914943099021911621 1.11628711223602295
-1.82082688808441162 0.123260140419006348 -0.690498769283294678
-1.12793242931365967 3.32773208618164062 -0.564713120460510254
-1.5178380012512207 3.15766763687133789 1.10417771339416504
0.682961165904998779 1.54887580871582031 1.36681246757507324
-2.06065940856933594 -0.94769364595413208 0.212051674723625183
