ply
format ascii 1.0
element vertex 177
comment vertices
property float x
property float y
property float z
end_header
1.49234557151794434 -1.3577883243560791 0.353717803955078125
-0.3609122633934021 0.804174661636352539 0.57965320348739624
-0.444799154996871948 -1.89387989044189453 0.174108743667602539
0.96785426139831543 -1.5362248420715332 0.471175432205200195
-0.325504302978515625 2.0782325267791748 0.468086361885070801
0.223488003015518188 -0.99368584156036377 0.40285414457321167
-1.47736132144927979 2.63265562057495117 0.431269824504852295
-0.317568004131317139 -1.93512749671936035 0.359519034624099731
-0.706444740295410156 2.83950066566467285 0.331413835287094116
-0.565827906131744385 0.960917234420776367 0.374349683523178101
-0.77258598804473877 1.86150014400482178 0.606630682945251465
-1.76927280426025391 2.53759574890136719 0.502887189388275146
-0.618490815162658691 0.913710415363311768 0.397308915853500366
-0.894262194633483887 2.85994219779968262 0.319434374570846558
-0.186926901340484619 2.03784346580505371 0.317812502384185791
-0.342063844203948975 -1.92021346092224121 0.248440995812416077
0.0881114602088928223 -0.855871319770812988 0.390786290168762207
0.728908360004425049 -0.398872077465057373 0.205781668424606323
1.09270453453063965 -1.48496699333190918 0.453387856483459473
-1.4246060848236084 2.52080702781677246 0.276097685098648071
-0.406957805156707764 -1.90125119686126709 0.296720147132873535
1.41286206245422363 -1.25355780124664307 0.31086304783821106
-1.04533708095550537 1.99315166473388672 0.365169227123260498
-0.574323654174804688 0.782639920711517334 0.62181246280670166
-1.55321323871612549 2.61217474937438965 0.448219984769821167
-0.421891987323760986 2.02435398101806641 0.417647719383239746
-0.80376899242401123 1.79699826240539551 0.233310297131538391
-0.561672449111938477 0.868246555328369141 0.60255122184753418
-0.78242957592010498 2.88803529739379883 0.250091373920440674
1.51021289825439453 -1.20916223526000977 0.33639979362487793
-0.312774360179901123 -1.90287327766418457 0.176804244518280029
-0.19856281578540802 2.03493070602416992 0.296896994113922119
1.52446460723876953 -1.41081368923187256 0.414041012525558472
0.956137537956237793 -0.28782576322555542 0.191877931356430054
0.126037746667861938 -0.940284848213195801 0.432424187660217285
-1.51469159126281738 2.52077889442443848 0.470183521509170532
1.40386438369750977 -1.38682055473327637 0.429300963878631592
-0.872432172298431396 2.88058924674987793 0.357670962810516357
-0.396326571702957153 -1.82942855358123779 0.315947473049163818
-1.52880334854125977 2.48149299621582031 0.523611724376678467
-0.404787778854370117 0.935904622077941895 0.356665074825286865
0.210221469402313232 -0.911483287811279297 0.387576192617416382
0.939682066440582275 -1.58241927623748779 0.386163055896759033
-0.42284587025642395 0.864714622497558594 0.421705424785614014
-0.904261171817779541 1.88825929164886475 0.660032272338867188
1.39138400554656982 -1.4411470890045166 0.323764592409133911
-0.843815624713897705 2.84897828102111816 0.271826684474945068
1.21335887908935547 -1.29222381114959717 0.33393976092338562
-1.55809891223907471 2.65507268905639648 0.40528067946434021
-0.743210315704345703 2.84041118621826172 0.291109025478363037
0.129066556692123413 -0.947832405567169189 0.323127925395965576
1.0674818754196167 -1.66442990303039551 0.443489700555801392
-0.325780659914016724 2.10758829116821289 0.366339117288589478
-0.281199514865875244 -1.85433638095855713 0.22605682909488678
1.02318525314331055 -1.73169577121734619 0.374655544757843018
-0.236976832151412964 1.98728752136230469 0.242438465356826782
-0.549911677837371826 0.863222897052764893 0.525423943996429443
-0.828518271446228027 1.84973394870758057 0.530812203884124756
0.978510856628417969 -1.54807031154632568 0.513712048530578613
-0.468809843063354492 1.08659851551055908 0.474429726600646973
-0.534339427947998047 0.864179611206054688 0.31851041316986084
1.33154106140136719 -1.33135318756103516 0.290788620710372925
-1.02038872241973877 1.82790613174438477 0.64615553617477417
1.52291250228881836 -1.2691885232925415 0.311426222324371338
-0.477417021989822388 0.764031767845153809 0.427289247512817383
-0.350653946399688721 1.96219193935394287 0.328963369131088257
0.864212155342102051 -0.52949601411819458 0.140645295381546021
-0.421250998973846436 -1.88150310516357422 0.244646653532981873
0.089847274124622345 -0.915130734443664551 0.361582279205322266
0.102990008890628815 -0.806523025035858154 0.393373310565948486
-0.752326488494873047 1.80709600448608398 0.661391913890838623
-0.253582417964935303 -1.86176562309265137 0.299931734800338745
0.246977180242538452 -0.858236193656921387 0.288715660572052002
-1.02847063541412354 1.84483611583709717 0.197764039039611816
-0.517617464065551758 0.860837101936340332 0.574732959270477295
-0.733301043510437012 2.84260129928588867 0.263449817895889282
-0.335819214582443237 -1.88431262969970703 0.264703571796417236
-1.56085968017578125 2.54541254043579102 0.399990499019622803
-0.324818879365921021 2.02569198608398438 0.337713897228240967
0.193791240453720093 -0.925333619117736816 0.450609803199768066
0.126429468393325806 -0.757798075675964355 0.221976161003112793
1.1683647632598877 -1.59528422355651855 0.423925906419754028
-0.693312644958496094 2.88366389274597168 0.309604018926620483
0.137815237045288086 -0.780802309513092041 0.303129702806472778
-0.300413906574249268 -1.93884527683258057 0.202426329255104065
-0.702806353569030762 2.90248751640319824 0.300945371389389038
0.142581239342689514 -0.99431377649307251 0.430384129285812378
1.19804346561431885 -1.56376659870147705 0.284564852714538574
-0.21098056435585022 1.9660341739654541 0.111928246915340424
-1.43589258193969727 2.51080417633056641 0.460939615964889526
-0.365101158618927002 -1.87708854675292969 0.3087044358253479
-0.271434247493743896 2.01937079429626465 0.328328073024749756
1.00787127017974854 -1.50336575508117676 0.422840297222137451
-0.533477962017059326 0.839988410472869873 0.74752432107925415
-0.775948524475097656 2.87872791290283203 0.366081327199935913
-0.5095939040184021 0.852601408958435059 0.635908842086791992
-0.360914528369903564 2.03479194641113281 0.309412539005279541
-0.933660030364990234 1.88100934028625488 0.280126303434371948
-0.938816666603088379 1.86176812648773193 0.72105097770690918
0.229603499174118042 -0.881357669830322266 0.396349161863327026
1.0338205099105835 -0.34182778000831604 0.246753871440887451
0.934418618679046631 -1.49217343330383301 0.466408878564834595
-0.193603366613388062 2.23395633697509766 0.384643971920013428
-1.59312224388122559 2.60323596000671387 0.505618155002593994
0.141832172870635986 -0.836443722248077393 0.336153149604797363
-0.816138863563537598 2.84780788421630859 0.243266195058822632
0.992603003978729248 -1.53748500347137451 0.435336023569107056
0.900286972522735596 -0.364236831665039062 0.254920393228530884
-0.212868154048919678 2.08028292655944824 0.354802876710891724
-0.52652662992477417 0.90977942943572998 0.419352352619171143
0.146538242697715759 -0.90427321195602417 0.391782224178314209
-1.56109213829040527 2.67650723457336426 0.440539836883544922
-0.498211503028869629 0.840882182121276855 0.53356701135635376
1.46285343170166016 -1.45288968086242676 0.408989548683166504
0.120764158666133881 -1.00864112377166748 0.41219782829284668
-0.358560234308242798 2.1345818042755127 0.406168937683105469
-0.435329228639602661 0.95362013578414917 0.372283279895782471
-0.383430808782577515 -1.85577607154846191 0.262344539165496826
0.70897287130355835 -0.528123855590820312 0.106377653777599335
1.47119379043579102 -1.42985689640045166 0.330305248498916626
-0.458283722400665283 0.834571659564971924 0.400764286518096924
-0.93223106861114502 2.84206080436706543 0.342455029487609863
-0.807619988918304443 2.89845085144042969 0.26313316822052002
-1.49256181716918945 2.63029670715332031 0.417634159326553345
0.99154132604598999 -1.60501301288604736 0.469643771648406982
0.869256138801574707 -0.447088837623596191 0.19214397668838501
-0.420050084590911865 1.99013900756835938 0.429564982652664185
1.47275459766387939 -1.34131300449371338 0.39737248420715332
0.0754877850413322449 -0.829545497894287109 0.398006021976470947
1.43144512176513672 -1.30339527130126953 0.358654052019119263
-0.96097642183303833 1.8224947452545166 0.594560086727142334
-1.47676575183868408 2.61712765693664551 0.362183064222335815
-0.518402457237243652 0.889245152473449707 0.522614896297454834
-0.620797097682952881 0.885766327381134033 0.615032613277435303
-1.44014382362365723 2.68969011306762695 0.351578652858734131
0.831817269325256348 -0.283459067344665527 0.226163178682327271
-0.702828884124755859 2.9418942928314209 0.311021685600280762
-0.962595641613006592 1.84244978427886963 0.133966058492660522
1.50267839431762695 -1.2844003438949585 0.302259206771850586
-0.661974787712097168 2.90096449851989746 0.296903073787689209
-0.53200829029083252 0.811298072338104248 0.757718265056610107
-0.901100516319274902 1.79799413681030273 0.54737246036529541
-0.950148403644561768 1.91081476211547852 0.215517565608024597
-0.714410245418548584 2.87168526649475098 0.294362068176269531
-0.440650820732116699 0.817915916442871094 0.444788336753845215
1.41704487800598145 -1.3061680793762207 0.331762075424194336
-0.644255280494689941 0.975553333759307861 0.508576273918151855
1.02012193202972412 -1.57299983501434326 0.474436283111572266
1.06564664840698242 -1.62948024272918701 0.428926855325698853
0.188214093446731567 -0.869112849235534668 0.378881603479385376
-1.46147584915161133 2.57357406616210938 0.406947851181030273
-0.853603005409240723 2.83925652503967285 0.261969208717346191
0.115353949368000031 -0.962765157222747803 0.442043185234069824
-0.35042041540145874 1.9859849214553833 0.304923117160797119
-0.505388736724853516 0.802293062210083008 0.408628642559051514
0.168970480561256409 -0.847977757453918457 0.355831027030944824
-0.316343635320663452 -1.89430975914001465 0.281103193759918213
-0.34302935004234314 -1.94562852382659912 0.309104979038238525
1.22325623035430908 -1.29747354984283447 0.353931725025177002
-0.979501962661743164 1.888649582862854 0.656640052795410156
-0.377018362283706665 -1.96279430389404297 0.215044200420379639
1.6028141975402832 -1.33643054962158203 0.293535679578781128
-0.763300061225891113 2.83274960517883301 0.276858419179916382
-1.50156092643737793 2.52447915077209473 0.394927680492401123
-0.21544162929058075 1.95007920265197754 0.264779388904571533
-0.370096862316131592 -1.89011871814727783 0.225729167461395264
-0.339905202388763428 0.874441027641296387 0.425855457782745361
0.110077790915966034 -0.911784946918487549 0.414058387279510498
0.847038149833679199 -0.544699430465698242 0.267447769641876221
-0.272144019603729248 -1.93556642532348633 0.272044450044631958
-0.341125160455703735 2.11244106292724609 0.34667658805847168
-0.219727277755737305 2.11389040946960449 0.113886818289756775
-0.907434403896331787 2.85600137710571289 0.290528625249862671
-0.885954320430755615 2.88549494743347168 0.358024924993515015
-0.691834747791290283 2.84565186500549316 0.288116425275802612
0.0835306718945503235 -0.810834109783172607 0.383864462375640869
0.936399996280670166 -1.55043375492095947 0.461747258901596069
