ply
format ascii 1.0
element vertex 256
comment vertices
property float x
property float y
property float z
end_header
-0.587091207504272461 -1.00728631019592285 0.242226123809814453
-1.87190210819244385 2.40898227691650391 0.215425208210945129
0.788860440254211426 1.7031867504119873 0.310735493898391724
-2.19916129112243652 0.234237343072891235 -0.210540235042572021
-1.00131464004516602 1.28582918643951416 0.0554802007973194122
-1.82050621509552002 -0.760754227638244629 0.366018861532211304
-0.82098698616027832 -2.26039242744445801 0.214877098798751831
0.234945014119148254 0.826051712036132812 0.238626882433891296
-0.768163323402404785 0.125509351491928101 0.303410887718200684
0.64308542013168335 -1.04035234451293945 0.048045676201581955
-1.07242918014526367 -1.56452977657318115 0.222274303436279297
-1.60694634914398193 -0.208744168281555176 -0.136476859450340271
0.80022352933883667 2.0567474365234375 0.140364766120910645
-1.64449095726013184 1.9865952730178833 0.168245226144790649
0.604026317596435547 1.15410172939300537 0.142915666103363037
-1.83864760398864746 1.96309792995452881 0.470913290977478027
-1.93397581577301025 -0.130161330103874207 0.0252859294414520264
-0.763064146041870117 0.382217347621917725 0.230523750185966492
-1.38532483577728271 -0.884328246116638184 0.229667022824287415
-2.07916784286499023 -0.258048146963119507 0.0340591371059417725
0.247635290026664734 0.91278386116027832 0.66611248254776001
0.676849901676177979 1.70968914031982422 0.351961642503738403
-1.18802344799041748 1.6772381067276001 0.267216593027114868
0.156403213739395142 -1.2410963773727417 0.024480573832988739
-0.883661150932312012 -1.83063912391662598 0.243767425417900085
0.0761414170265197754 0.898428440093994141 0.127521485090255737
-1.82306492328643799 2.12644720077514648 0.149021297693252563
-0.693891525268554688 -0.051234174519777298 0.0417248457670211792
-1.65809845924377441 -0.610788643360137939 0.241601288318634033
-1.8188251256942749 0.107433035969734192 -0.187345370650291443
-0.684288978576660156 -0.81030505895614624 0.359761267900466919
0.351669847965240479 0.889401078224182129 0.265762120485305786
-0.170976370573043823 -0.960252881050109863 -0.0362222567200660706
-1.89272117614746094 -0.689473092555999756 0.229236871004104614
-1.10288846492767334 -1.8716806173324585 0.20024341344833374
-0.915226101875305176 0.402164816856384277 0.423110455274581909
-1.76021087169647217 2.38747668266296387 0.303630352020263672
-1.66017115116119385 -0.697365999221801758 0.341049522161483765
0.868187427520751953 1.74963796138763428 0.157300055027008057
-2.02697467803955078 -0.316239655017852783 0.0545586496591567993
-1.8360142707824707 2.25691914558410645 0.614557981491088867
0.412123441696166992 -1.32141149044036865 -0.0879550725221633911
-1.18407762050628662 -1.65332627296447754 0.142350539565086365
-2.1933143138885498 -0.432473480701446533 -0.0696436837315559387
0.288869082927703857 0.691449522972106934 0.125115677714347839
-1.80301427841186523 2.2653350830078125 0.130964621901512146
0.843670845031738281 1.41805469989776611 0.237440630793571472
-1.73150956630706787 -1.02260029315948486 0.285248726606369019
-0.788683056831359863 -1.11220633983612061 0.368451356887817383
0.361476898193359375 0.790411829948425293 0.375935852527618408
-2.10254025459289551 2.24839448928833008 0.111127510666847229
-1.86887896060943604 -0.116136714816093445 0.178400486707687378
-1.28676259517669678 1.40456962585449219 0.11606423556804657
-2.07149863243103027 -0.131660446524620056 0.0502498708665370941
-1.573966383934021 -0.96091073751449585 0.33244854211807251
-0.00573844462633132935 0.912250518798828125 0.271851539611816406
-1.0321953296661377 0.274804681539535522 0.331037849187850952
-0.89595484733581543 -1.62273406982421875 0.241205304861068726
-0.946545243263244629 -1.97246229648590088 0.236578255891799927
0.535543322563171387 1.88150012493133545 0.281367212533950806
0.779344677925109863 1.6447378396987915 0.144388005137443542
-1.89040327072143555 2.21071457862854004 0.380834311246871948
-0.820489645004272461 -1.65285181999206543 0.336916267871856689
-0.779288172721862793 -0.923030555248260498 0.292522311210632324
0.180844634771347046 0.920815706253051758 0.258361846208572388
-1.73335921764373779 -0.140152469277381897 -0.138481646776199341
-1.80657017230987549 -0.334884375333786011 -0.029007498174905777
-0.619799017906188965 0.123896211385726929 0.286703169345855713
-0.522518038749694824 -1.0189441442489624 0.0047085881233215332
-0.167216718196868896 -1.16116714477539062 -0.0756600722670555115
-1.80213940143585205 -0.627946674823760986 0.302070736885070801
-1.67276084423065186 2.30259156227111816 0.105524741113185883
-1.08830356597900391 -1.7002403736114502 0.301767528057098389
-1.29152333736419678 1.21647107601165771 -0.0276749357581138611
0.269993066787719727 0.865040183067321777 0.359672576189041138
-1.86369693279266357 -0.611387848854064941 0.265638351440429688
-1.55680358409881592 -0.589313983917236328 0.0586509332060813904
-0.544374823570251465 -0.89471733570098877 0.315173953771591187
0.0864621400833129883 0.734113574028015137 0.192491501569747925
-0.860382020473480225 -1.98564112186431885 0.188896879553794861
0.394558608531951904 0.769094109535217285 0.27998390793800354
-2.02989935874938965 0.0131058022379875183 0.0395941361784934998
-0.423974215984344482 -0.966951072216033936 0.331734001636505127
0.187750011682510376 0.837713360786437988 0.241690889000892639
-0.928002715110778809 0.332631051540374756 0.545276045799255371
0.429032623767852783 -1.08128476142883301 0.0535923242568969727
-0.661650121212005615 0.178715705871582031 0.0595721825957298279
-1.93569624423980713 2.35871243476867676 0.156026571989059448
-1.8002547025680542 2.11456584930419922 0.0728796795010566711
-1.93770766258239746 -0.330380767583847046 0.22453683614730835
0.497551798820495605 1.86760115623474121 0.319978892803192139
-1.90739202499389648 -0.0518720671534538269 -0.087006792426109314
-1.82313728332519531 -0.713813424110412598 0.350865542888641357
0.747507393360137939 1.70310103893280029 0.312989115715026855
-0.837315976619720459 0.288299322128295898 0.358145654201507568
-1.77430176734924316 -0.814945578575134277 0.351129114627838135
0.488997071981430054 -0.985479056835174561 0.0756344348192214966
-1.60254597663879395 -0.611986994743347168 0.191127240657806396
-0.371030151844024658 -0.802184998989105225 0.0708386972546577454
-0.682967662811279297 -1.15347766876220703 0.337236851453781128
-1.75442540645599365 2.40298199653625488 0.162423893809318542
-0.581634640693664551 -1.04791378974914551 0.402001023292541504
0.640071630477905273 1.12293112277984619 0.28868529200553894
0.261547237634658813 0.878950297832489014 0.164906278252601624
-1.04282045364379883 -1.75962579250335693 0.374218374490737915
-1.9485161304473877 -0.214103877544403076 0.00308371707797050476
-0.802312731742858887 -1.89047825336456299 0.291779845952987671
-0.766238212585449219 -0.760820746421813965 0.323021620512008667
-1.87909579277038574 0.105618491768836975 -0.0668152868747711182
-0.598058462142944336 -0.868167579174041748 0.12509588897228241
-0.885897696018218994 -1.87544345855712891 0.315001696348190308
-1.91618907451629639 -0.718110918998718262 0.236838161945343018
-1.11260604858398438 1.52214109897613525 0.141736403107643127
-2.12878823280334473 0.221945911645889282 -0.0953893810510635376
-1.83687925338745117 2.16207408905029297 0.213051542639732361
-0.0162498131394386292 -1.08710098266601562 -0.0540798269212245941
0.828280448913574219 1.64379072189331055 0.216334268450737
-1.23904860019683838 -1.56787371635437012 0.303305357694625854
0.754208266735076904 1.74788320064544678 0.326639175415039062
0.469837427139282227 -1.10319375991821289 -0.0477651059627532959
-1.72291409969329834 -0.555901110172271729 -0.00892858207225799561
0.317674934864044189 0.981879472732543945 0.389653533697128296
-1.01205825805664062 -1.76408207416534424 0.294520795345306396
-0.913895308971405029 0.426012873649597168 0.392007976770401001
-0.900374770164489746 -1.65321505069732666 0.366297304630279541
0.378096669912338257 0.747582376003265381 0.263145565986633301
-0.918679535388946533 0.334086835384368896 0.329830735921859741
-0.322607100009918213 -0.936405718326568604 0.0726728066802024841
-1.74406862258911133 -0.837305188179016113 0.298028051853179932
-0.593735039234161377 -0.878595530986785889 0.337805181741714478
-1.84055483341217041 -0.127864062786102295 -0.0245956778526306152
-0.836048543453216553 0.0999644920229911804 0.24333760142326355
-1.12782227993011475 -1.74010360240936279 0.164713919162750244
-0.818063855171203613 0.267530560493469238 0.0259944014251232147
-0.646885573863983154 0.0314962565898895264 0.23155134916305542
0.544997513294219971 0.925320446491241455 0.215943664312362671
0.189823150634765625 0.906951069831848145 0.447502791881561279
-1.80008089542388916 2.17414188385009766 0.400608569383621216
0.136430501937866211 0.849827349185943604 0.181458905339241028
-0.953443229198455811 -1.55594825744628906 0.192933022975921631
-2.08372688293457031 -0.130433902144432068 0.0158675163984298706
0.249864667654037476 0.94779503345489502 0.513448119163513184
-0.932302236557006836 -1.74477195739746094 0.287989020347595215
-1.63006496429443359 -0.382329970598220825 0.127254992723464966
-1.92333137989044189 2.30608463287353516 0.10994342714548111
-1.98741817474365234 -0.351525813341140747 -0.0200500041246414185
-1.04807507991790771 -1.8249211311340332 0.176989570260047913
-2.05302262306213379 -0.208472490310668945 0.10858965665102005
-1.83597183227539062 -0.74931567907333374 0.293329566717147827
0.88644719123840332 1.59624004364013672 0.214471668004989624
-0.713872671127319336 -0.991693258285522461 0.25137096643447876
0.791301965713500977 1.6748964786529541 0.292682498693466187
0.740192949771881104 1.74157142639160156 0.412521451711654663
0.644527435302734375 1.81974446773529053 0.199183940887451172
-1.75317513942718506 2.04543399810791016 0.0974005237221717834
-1.12192201614379883 -1.98880445957183838 0.253679066896438599
-1.56847631931304932 -0.836311399936676025 0.202083021402359009
-1.18673598766326904 1.24105167388916016 0.0844946578145027161
-1.80694735050201416 2.28273510932922363 0.563725948333740234
-0.745094597339630127 0.287092447280883789 0.252231776714324951
-0.896800696849822998 -1.99397802352905273 0.182661741971969604
-1.69962799549102783 -0.662238061428070068 0.258712321519851685
-1.75296425819396973 2.02832913398742676 0.220339968800544739
-0.851843416690826416 -2.14966177940368652 0.262323528528213501
0.848360657691955566 1.69279468059539795 0.299648880958557129
-0.962661027908325195 -1.79123139381408691 0.202217519283294678
-1.55144357681274414 -0.902644813060760498 0.194997861981391907
-2.09842634201049805 -0.443337678909301758 0.244872450828552246
-0.582470059394836426 0.105316072702407837 0.0718167275190353394
0.831696748733520508 1.64277005195617676 0.208720430731773376
-1.64915633201599121 2.31674456596374512 0.162741467356681824
-0.367531567811965942 -1.08026981353759766 0.16407795250415802
0.574222981929779053 1.86838841438293457 0.347191154956817627
-1.9503626823425293 -0.175564974546432495 0.114705026149749756
0.335253238677978516 0.812553644180297852 0.59738469123840332
-0.942780733108520508 -1.65456902980804443 0.209297314286231995
-1.90432882308959961 2.23229312896728516 0.0844554007053375244
-0.657643616199493408 -1.03240907192230225 0.220092236995697021
-1.83839905261993408 2.33049964904785156 0.148522228002548218
0.322148561477661133 -1.21998107433319092 -0.0254251658916473389
-2.10381460189819336 -0.157683730125427246 0.0862290263175964355
-1.29689741134643555 1.53478860855102539 0.123039685189723969
-2.11295294761657715 -0.254217207431793213 -0.0436462946236133575
-1.67722845077514648 -0.695283412933349609 0.292901039123535156
-1.90941500663757324 2.25499939918518066 0.203737646341323853
-1.78824746608734131 2.16666412353515625 0.268778443336486816
-1.94668924808502197 -0.127454251050949097 0.0266489163041114807
-1.82492756843566895 -0.649887979030609131 0.279907912015914917
-1.98110520839691162 -0.424134314060211182 -0.0853107869625091553
-1.82086527347564697 -0.0671942010521888733 -0.015974387526512146
-1.86474597454071045 -0.389641106128692627 0.150172531604766846
0.236937463283538818 0.848321855068206787 0.233083575963973999
-1.80877494812011719 2.39414048194885254 0.411845386028289795
-1.84175801277160645 -0.871329963207244873 0.153213828802108765
0.389940500259399414 0.728332757949829102 0.174718379974365234
0.432911783456802368 -1.34966671466827393 -0.0462037622928619385
0.287210762500762939 0.872431278228759766 0.215864613652229309
-1.80210757255554199 -0.725361883640289307 0.408516526222229004
0.663520097732543945 1.68470227718353271 0.379754483699798584
-0.410262256860733032 -1.02143537998199463 0.048734758049249649
-1.81138801574707031 -0.064358934760093689 -0.0309663079679012299
-1.71990048885345459 2.26896953582763672 0.242250248789787292
-1.90422368049621582 0.0206412225961685181 -0.0987616702914237976
-0.665281772613525391 0.333471417427062988 0.118616752326488495
-1.24922084808349609 -1.48553586006164551 0.204682782292366028
-1.02397048473358154 -1.65977275371551514 0.152393072843551636
-0.919764935970306396 0.297701597213745117 0.389822423458099365
-1.04392623901367188 1.2985384464263916 0.067996293306350708
-0.609513521194458008 -0.82695305347442627 0.237454265356063843
-0.473902672529220581 -0.960645556449890137 0.324370086193084717
0.00621102750301361084 0.938809335231781006 0.0998250618577003479
0.561876893043518066 1.83565127849578857 0.327902287244796753
-1.08089601993560791 -1.57673633098602295 0.16551719605922699
-1.8404165506362915 -0.633324921131134033 0.251671820878982544
0.286904722452163696 0.855041682720184326 0.200374692678451538
-0.0101522020995616913 0.797005414962768555 0.242731213569641113
-0.850805282592773438 -1.71946179866790771 0.288666129112243652
-0.972341716289520264 0.440074145793914795 0.390883386135101318
-2.08705878257751465 -0.0551790893077850342 0.0212301909923553467
-0.945011258125305176 -1.86197102069854736 0.197824358940124512
-1.04458987712860107 1.15427875518798828 0.00509729981422424316
0.213465362787246704 0.828363180160522461 0.242272704839706421
-0.778831064701080322 0.26859167218208313 0.299628704786300659
-2.06665492057800293 -0.137404650449752808 0.0562356822192668915
-0.841837048530578613 -1.72917234897613525 0.288239598274230957
0.267616063356399536 0.898802280426025391 0.288095712661743164
-1.78776454925537109 -0.642327189445495605 0.34501221776008606
0.166207268834114075 0.883364498615264893 0.190804749727249146
-1.0419614315032959 -1.60973203182220459 0.240783900022506714
-1.91642284393310547 -0.149515584111213684 -0.0209438800811767578
-0.545088410377502441 -1.03174114227294922 0.220216691493988037
-1.95493733882904053 -0.31433260440826416 -0.0281520187854766846
-0.661845266819000244 -0.835563838481903076 0.331869155168533325
-1.62495160102844238 -0.362649738788604736 0.132005274295806885
-0.366482079029083252 -0.970623672008514404 -0.0209829136729240417
0.63294905424118042 1.54737412929534912 0.194214701652526855
-1.72188472747802734 2.26066255569458008 0.09380389004945755
0.283709883689880371 0.758946239948272705 0.303519129753112793
-0.703766822814941406 0.060089796781539917 0.207429468631744385
-1.72838056087493896 -0.695134103298187256 0.296216964721679688
-0.949567556381225586 -1.88288617134094238 0.270527124404907227
0.269246846437454224 0.929824471473693848 0.359462380409240723
-1.93164479732513428 -0.245233446359634399 -0.00706375390291213989
-1.16132855415344238 1.43843936920166016 0.0863095000386238098
0.300759494304656982 0.857128620147705078 0.27250140905380249
0.357340484857559204 0.818292617797851562 0.321995764970779419
-1.48579096794128418 -0.723055779933929443 0.0152061358094215393
-1.89004349708557129 2.3259575366973877 0.234694942831993103
-0.850467920303344727 -1.92631125450134277 0.244467616081237793
-1.46713685989379883 -1.02269065380096436 0.232628434896469116
0.264005750417709351 -1.33514499664306641 -0.0763950198888778687
-0.868629157543182373 0.279471099376678467 0.426361978054046631
-0.759465336799621582 0.266391515731811523 0.159154176712036133
-1.94758510589599609 -0.00856959819793701172 -0.0108591988682746887
-1.80036699771881104 2.08616876602172852 0.124831594526767731
-1.91796720027923584 2.22962713241577148 0.11716693639755249
