ply
format ascii 1.0
element vertex 256
comment vertices
property float x
property float y
property float z
end_header
-0.626810848712921143 -0.345322400331497192 0.175753027200698853
-0.463383764028549194 2.09645605087280273 0.399135768413543701
0.65394669771194458 -1.94783377647399902 0.83828127384185791
0.922301650047302246 0.50530397891998291 0.252092987298965454
-2.19412016868591309 0.520048618316650391 -0.037137836217880249
-1.92409706115722656 -0.644817471504211426 0.525830447673797607
0.621418237686157227 -0.76756972074508667 0.220587059855461121
-0.0990771651268005371 0.952834606170654297 0.277508378028869629
-0.284194976091384888 -0.996957302093505859 0.206973075866699219
-1.70400679111480713 -0.409659355878829956 0.0982229411602020264
0.376025736331939697 0.882868111133575439 0.558290421962738037
0.307467043399810791 -1.76182985305786133 0.558377742767333984
-0.448039859533309937 -1.02683436870574951 0.570277929306030273
0.757428586483001709 0.542637050151824951 0.577271759510040283
-0.393809348344802856 2.15736746788024902 -0.00159823894500732422
-2.05247759819030762 -0.490867972373962402 0.393398672342300415
-1.72919332981109619 0.560244321823120117 0.166804045438766479
-0.26182982325553894 1.97632765769958496 0.271325409412384033
-0.164973273873329163 -0.823108971118927002 0.359707057476043701
0.408669412136077881 0.95048213005065918 0.34994584321975708
-1.07671463489532471 -0.653208136558532715 0.156371071934700012
-1.83531427383422852 -0.598181962966918945 0.47941097617149353
-0.489222347736358643 1.98610556125640869 0.457240253686904907
-0.320898383855819702 -0.454619348049163818 0.193198606371879578
0.16180005669593811 0.92536473274230957 0.19949948787689209
-1.87219452857971191 -0.577175140380859375 0.303157448768615723
-0.170678645372390747 -0.940464437007904053 0.545855939388275146
0.134845972061157227 1.31225752830505371 0.308971196413040161
0.252611607313156128 -0.87671196460723877 0.171112850308418274
0.747968554496765137 0.610277533531188965 0.419184356927871704
-2.05149412155151367 0.415012538433074951 0.11671176552772522
0.552827835083007812 -1.883186936378479 0.538045048713684082
0.260320425033569336 0.991117238998413086 0.443201959133148193
0.829107522964477539 0.573844611644744873 0.535489439964294434
-0.363639503717422485 1.97747743129730225 0.28070300817489624
-1.93730461597442627 -0.550399124622344971 0.598623156547546387
0.304117679595947266 -1.78851544857025146 0.804800033569335938
-1.89798343181610107 0.642066836357116699 0.296371668577194214
0.863193869590759277 0.521778523921966553 0.417033523321151733
0.535765171051025391 0.607311069965362549 0.425708264112472534
0.322129994630813599 0.831426560878753662 0.379687517881393433
-0.408418774604797363 -0.861591458320617676 0.311291098594665527
-1.84471416473388672 -0.635409712791442871 0.449076056480407715
0.145397424697875977 1.11524379253387451 0.145791634917259216
0.416786640882492065 -0.62856525182723999 0.371918827295303345
-0.831828713417053223 -0.644626080989837646 0.0728368312120437622
-0.286935687065124512 -1.02300655841827393 0.422674447298049927
-0.327845335006713867 -0.985404789447784424 0.519035518169403076
-0.427236050367355347 2.04021406173706055 0.232425183057785034
-0.396110862493515015 2.0009005069732666 0.452187538146972656
-1.02575063705444336 -0.446798652410507202 0.151577144861221313
-1.55904257297515869 -0.639166474342346191 0.396176636219024658
-1.98818707466125488 0.600724339485168457 -0.0284670926630496979
0.387068033218383789 0.898941457271575928 0.31708979606628418
-1.9124300479888916 -0.42964780330657959 0.352899670600891113
-0.405816048383712769 2.0157921314239502 0.439615428447723389
0.375557273626327515 0.884650290012359619 0.397167623043060303
0.588123738765716553 -1.78237330913543701 0.89898383617401123
0.926710844039916992 0.566200613975524902 0.359319925308227539
-2.04491281509399414 -0.656440675258636475 0.469561934471130371
-0.120278775691986084 -0.873927056789398193 0.503748297691345215
-0.518687605857849121 -0.53513789176940918 0.187276646494865417
0.844549596309661865 0.470120429992675781 0.520644485950469971
0.145748257637023926 0.98159945011138916 0.321104675531387329
0.535097658634185791 -1.92268586158752441 0.668719291687011719
0.327522695064544678 -0.894972920417785645 0.375125616788864136
-1.98810112476348877 -0.515092730522155762 0.426426082849502563
-0.797940969467163086 -0.202863454818725586 0.241808801889419556
0.600811421871185303 -0.929564058780670166 0.0853518024086952209
-0.897053956985473633 -0.48786434531211853 0.321025550365447998
-0.384677261114120483 2.03520679473876953 0.274810254573822021
0.0565060153603553772 0.975996673107147217 0.204508960247039795
-0.378740906715393066 -0.784277856349945068 0.131576701998710632
0.222302675247192383 0.945501327514648438 0.302611768245697021
0.400991290807723999 -1.87438583374023438 0.571919858455657959
-1.7850722074508667 0.580588579177856445 0.210843652486801147
0.444056510925292969 -1.99628663063049316 0.851871073246002197
0.859591364860534668 0.481730997562408447 0.512482404708862305
0.8867950439453125 0.535096049308776855 0.344281673431396484
-0.0458964556455612183 1.16994035243988037 0.304205864667892456
0.126149773597717285 1.00771081447601318 0.229743167757987976
-0.444743812084197998 2.05662989616394043 0.28326842188835144
-0.354645967483520508 -0.298401832580566406 0.121373087167739868
0.0396165810525417328 1.05726063251495361 0.195807486772537231
0.777461230754852295 0.622056066989898682 0.270688146352767944
-2.03543424606323242 -0.409041881561279297 0.227829098701477051
0.334790080785751343 0.866051614284515381 0.402340471744537354
-2.09467363357543945 0.663484394550323486 0.191999152302742004
-0.378587961196899414 -0.983099579811096191 0.475609302520751953
0.388910979032516479 -0.840941667556762695 0.237375363707542419
-0.301979780197143555 1.96243572235107422 0.329733014106750488
0.689359903335571289 0.785846471786499023 0.284677445888519287
0.874128162860870361 0.559200286865234375 0.523796379566192627
0.604832768440246582 0.714664041996002197 0.48008313775062561
0.0466213934123516083 -0.90115809440612793 0.241656988859176636
0.394946664571762085 -1.81449413299560547 0.558446288108825684
-1.58969259262084961 -0.41858142614364624 0.141998201608657837
-0.771907329559326172 -0.465915888547897339 0.155007585883140564
-0.459792494773864746 2.07294631004333496 0.242085516452789307
0.472296923398971558 0.831162214279174805 0.491485744714736938
0.312156468629837036 0.876755833625793457 0.407150924205780029
-0.146416142582893372 -1.04121315479278564 0.447229683399200439
-2.03712081909179688 -0.646390914916992188 0.487216442823410034
-0.408083617687225342 -0.976579964160919189 0.458744317293167114
-1.89476382732391357 -0.648744881153106689 0.559861123561859131
-0.349195241928100586 2.15757513046264648 0.121821142733097076
-1.87751519680023193 -0.532924652099609375 0.374933779239654541
0.578077971935272217 -0.646465182304382324 0.290709197521209717
-0.239910945296287537 2.08451581001281738 0.0189898386597633362
-0.287710130214691162 -1.06460916996002197 0.601376056671142578
-0.521652579307556152 -0.235101044178009033 0.179325312376022339
-0.360770702362060547 2.00854802131652832 0.309227645397186279
0.877983808517456055 0.513485312461853027 0.334220319986343384
-0.222343295812606812 -0.993569254875183105 0.510322928428649902
0.953766822814941406 0.547658681869506836 0.237015396356582642
0.867109835147857666 0.580803334712982178 0.410160481929779053
-2.03116369247436523 0.599034607410430908 0.0407305881381034851
0.762267410755157471 0.638253450393676758 0.354121208190917969
-2.03028655052185059 -0.6098175048828125 0.504164755344390869
-0.456626415252685547 2.00037741661071777 0.333395510911941528
-0.4147987961769104 -0.960512697696685791 0.495504587888717651
0.346589088439941406 0.873959779739379883 0.320541083812713623
0.249333798885345459 1.12291574478149414 0.265737473964691162
-1.86125755310058594 0.667753994464874268 0.198166191577911377
-2.07642555236816406 -0.571323812007904053 0.502968907356262207
0.51007157564163208 -1.86803317070007324 0.926577329635620117
0.920808732509613037 0.568911314010620117 0.230422139167785645
0.713226854801177979 0.724624454975128174 0.382566541433334351
0.508728384971618652 0.780022025108337402 0.437376022338867188
-1.87258517742156982 -0.640293359756469727 0.400720596313476562
-0.26158297061920166 -0.988399922847747803 0.445585131645202637
0.356169193983078003 -1.89365696907043457 0.900720119476318359
0.430065721273422241 0.870437920093536377 0.298041820526123047
-0.801801919937133789 -0.379255473613739014 0.222930774092674255
-1.98128700256347656 0.574788153171539307 0.208176895976066589
-1.7588036060333252 0.479510784149169922 0.12887042760848999
-0.410555988550186157 -0.986828446388244629 0.563597917556762695
-0.413650423288345337 2.00744009017944336 0.365640908479690552
-0.337974786758422852 1.90763652324676514 0.307617336511611938
0.412975907325744629 -1.8877568244934082 0.692353367805480957
0.38735729455947876 0.824515759944915771 0.328361719846725464
0.504257500171661377 -0.916597485542297363 0.199776440858840942
0.186633944511413574 0.989729762077331543 0.201727539300918579
0.0210844278335571289 0.959600210189819336 0.273385941982269287
0.381129741668701172 0.880473077297210693 0.434153765439987183
-2.00522947311401367 -0.591489553451538086 0.570125460624694824
0.0954816937446594238 1.14222311973571777 0.280323922634124756
0.359707117080688477 0.879623770713806152 0.382700055837631226
0.0785197317600250244 1.01232767105102539 0.353633224964141846
-1.83174729347229004 -0.634314656257629395 0.482616782188415527
0.50231170654296875 0.896517038345336914 0.346865922212600708
0.47198912501335144 -0.810094714164733887 0.333314776420593262
-0.437753796577453613 2.02049732208251953 0.158604875206947327
-0.508368790149688721 -0.414338946342468262 0.181209638714790344
-0.190266937017440796 -1.0826869010925293 0.336509495973587036
0.616960644721984863 0.646516799926757812 0.513183057308197021
-0.424522191286087036 2.10740256309509277 0.461721897125244141
-0.226941198110580444 1.92137598991394043 0.18001265823841095
0.431547582149505615 0.88243180513381958 0.428521990776062012
0.502176880836486816 -0.789797365665435791 0.175538972020149231
-2.03486037254333496 -0.547718703746795654 0.448688209056854248
0.797636032104492188 0.536340415477752686 0.49821704626083374
-1.96311843395233154 -0.629773437976837158 0.483140796422958374
-2.04897904396057129 0.609579086303710938 0.374038219451904297
-1.86729753017425537 0.604109764099121094 0.151122540235519409
0.828264594078063965 0.564541459083557129 0.538088083267211914
0.358322262763977051 -0.983980000019073486 0.200447112321853638
-0.39191773533821106 -0.762108981609344482 0.308169305324554443
-2.06613659858703613 -0.530510783195495605 0.501772284507751465
-0.417812645435333252 -0.985718011856079102 0.567521870136260986
-1.68995916843414307 -0.635174214839935303 0.275488376617431641
0.798406481742858887 0.578400135040283203 0.629441261291503906
0.39092707633972168 0.869095683097839355 0.50392383337020874
0.0450159795582294464 1.01249611377716064 0.259963363409042358
-0.478561043739318848 2.20322632789611816 0.101587407290935516
0.837916374206542969 0.523303091526031494 0.355473518371582031
-1.98779928684234619 0.726819932460784912 0.276740044355392456
-0.304673731327056885 1.97389423847198486 0.417125940322875977
-0.404937088489532471 2.07017374038696289 0.347860068082809448
0.452469915151596069 -1.8176339864730835 0.687449753284454346
0.647254824638366699 -0.812870144844055176 0.299107611179351807
0.896193385124206543 0.473935782909393311 0.391976863145828247
0.294760584831237793 0.935259699821472168 0.418939411640167236
0.423858404159545898 0.850738763809204102 0.468206524848937988
0.385894447565078735 0.904464960098266602 0.284563720226287842
0.824014067649841309 0.511061131954193115 0.565756261348724365
0.829211115837097168 0.51918107271194458 0.31432303786277771
0.181748062372207642 0.944967806339263916 0.303042411804199219
-0.996903896331787109 -0.605139076709747314 0.0999752655625343323
-0.369192600250244141 2.05744671821594238 0.468467801809310913
-1.92129218578338623 -0.663212895393371582 0.449787378311157227
-0.440440058708190918 1.9574739933013916 0.35119926929473877
-2.01721596717834473 0.63260185718536377 0.175478890538215637
0.0966528430581092834 0.940438449382781982 0.21310126781463623
0.872200131416320801 0.551926791667938232 0.481091409921646118
-0.446913093328475952 2.01786923408508301 0.398931652307510376
0.457565069198608398 0.723404586315155029 0.490146040916442871
0.852448821067810059 0.529882371425628662 0.512377023696899414
0.0657799318432807922 1.15330874919891357 0.317530035972595215
-2.03598141670227051 -0.608168900012969971 0.486883610486984253
-1.97290325164794922 -0.561233341693878174 0.409889042377471924
0.182564139366149902 0.968136012554168701 0.350244522094726562
-0.396834194660186768 -1.00081419944763184 0.501495838165283203
-0.376129508018493652 2.06444740295410156 0.26172223687171936
0.655530989170074463 -1.86515021324157715 0.975687623023986816
-2.03554177284240723 -0.540014326572418213 0.546182990074157715
0.116090118885040283 1.0688016414642334 0.236662596464157104
0.216703698039054871 -0.846152901649475098 0.275064945220947266
0.303455322980880737 0.87216496467590332 0.429286986589431763
0.0188707783818244934 1.01288223266601562 0.329297661781311035
-0.258566170930862427 -0.956665515899658203 0.492771148681640625
-1.97489261627197266 -0.629114389419555664 0.499423742294311523
-0.91253286600112915 -0.471668720245361328 0.15128248929977417
-0.425141632556915283 1.97240638732910156 0.318446755409240723
-0.462164103984832764 2.00603675842285156 0.376162260770797729
0.482828199863433838 -1.90302109718322754 0.474972844123840332
-0.630773007869720459 -0.474545598030090332 0.159842401742935181
-0.41625562310218811 -1.02734017372131348 0.51969754695892334
-0.330678582191467285 1.91586124897003174 0.400205850601196289
0.744747638702392578 0.587992429733276367 0.525260865688323975
0.475018292665481567 -0.845055997371673584 0.150044381618499756
0.413187980651855469 -0.770723879337310791 0.332002520561218262
-0.382952868938446045 2.05226302146911621 0.310453504323959351
0.740420162677764893 0.596323788166046143 0.43126600980758667
-1.91099452972412109 -0.5946502685546875 0.546954870223999023
0.837317287921905518 0.543992519378662109 0.386769592761993408
-0.350583106279373169 -1.03270506858825684 0.522829234600067139
-0.316824167966842651 1.9828256368637085 0.280976712703704834
0.853533327579498291 0.57793194055557251 0.333516031503677368
-0.434419929981231689 -0.319561243057250977 0.157162994146347046
-1.90183472633361816 -0.661921024322509766 0.400115311145782471
-0.258618295192718506 -0.967858552932739258 0.438129246234893799
0.341977626085281372 0.912320494651794434 0.369116067886352539
0.274406462907791138 1.00201165676116943 0.3819427490234375
0.548170328140258789 -1.87160122394561768 1.02279841899871826
-0.485828816890716553 2.03189396858215332 0.305408835411071777
0.436972439289093018 0.818561017513275146 0.410055935382843018
-1.9290165901184082 -0.584382891654968262 0.554271578788757324
-2.0824892520904541 -0.486561775207519531 0.466420590877532959
0.451726794242858887 -1.84245586395263672 0.761026442050933838
0.0672790110111236572 0.982576847076416016 0.130886048078536987
0.38319927453994751 -0.899991393089294434 0.123688839375972748
-0.167586624622344971 -0.938302338123321533 0.474924683570861816
0.323638111352920532 0.861954569816589355 0.325882464647293091
-1.95183110237121582 -0.557177066802978516 0.34641498327255249
-0.422733336687088013 2.07223105430603027 0.319494128227233887
-2.03888201713562012 -0.484693765640258789 0.287979960441589355
-1.8669273853302002 -0.623866021633148193 0.578712999820709229
0.38718414306640625 0.821929037570953369 0.387437731027603149
0.414304137229919434 0.941993296146392822 0.312988370656967163
0.887605667114257812 0.493026316165924072 0.433695018291473389
-0.79460597038269043 -0.390191435813903809 0.105529047548770905
0.255493521690368652 0.994345247745513916 0.376844465732574463
-0.443436950445175171 -0.42839348316192627 0.180022403597831726
-0.206245839595794678 -0.987327694892883301 0.407406359910964966
0.450206071138381958 0.816272854804992676 0.331132858991622925
