ply
format ascii 1.0
element vertex 54
comment vertices
property float x
property float y
property float z
end_header
1.06452763080596924 0.000882036983966827393 0.757964730262756348
-0.618944525718688965 0.814215719699859619 0.692160725593566895
0.269076347351074219 -1.27181267738342285 0.355598747730255127
1.80637407302856445 0.759377956390380859 0.362272441387176514
-0.310299158096313477 -1.08684968948364258 0.727509438991546631
0.644354104995727539 -1.89577579498291016 0.327574938535690308
2.41720747947692871 1.74408316612243652 0.390243679285049438
-1.18926346302032471 -1.76547253131866455 0.311142563819885254
-2.19029879570007324 -1.9219672679901123 0.838375985622406006
0.797465741634368896 -0.745742917060852051 0.508350610733032227
0.154859110713005066 -1.00967633724212646 0.381436526775360107
0.305948734283447266 -1.16410243511199951 0.488404959440231323
0.663305997848510742 -0.802090883255004883 0.257193028926849365
0.52975916862487793 -2.15535354614257812 0.147107064723968506
-0.572034001350402832 0.554870486259460449 0.588485360145568848
0.228222399950027466 -1.0455249547958374 0.257889032363891602
-2.3062129020690918 -2.07904291152954102 0.729488611221313477
-0.508636116981506348 -1.00034356117248535 0.765954256057739258
0.140836924314498901 -1.15979230403900146 0.439055919647216797
0.986214041709899902 -0.657302618026733398 0.478472709655761719
0.955539941787719727 0.107904359698295593 0.826055228710174561
0.840538620948791504 -0.793757200241088867 0.335973441600799561
0.32339632511138916 -0.950196266174316406 0.284586340188980103
-0.373241811990737915 -1.06235301494598389 0.842090785503387451
-2.27541351318359375 -1.95567858219146729 0.721027851104736328
0.281970888376235962 -1.02583122253417969 0.363862574100494385
0.482865214347839355 -1.9960625171661377 0.202466621994972229
0.967952251434326172 0.0704328864812850952 0.670426130294799805
1.81766939163208008 0.503136813640594482 0.223673522472381592
0.246519669890403748 -1.18341410160064697 0.417516201734542847
2.46637725830078125 1.8637925386428833 0.448562741279602051
0.164022505283355713 -1.15967750549316406 0.368963301181793213
0.550887942314147949 -2.02982115745544434 0.271819084882736206
0.909516990184783936 0.081644989550113678 0.828903257846832275
0.351195871829986572 -1.05662274360656738 0.401579022407531738
1.71458077430725098 0.644884347915649414 0.309366226196289062
2.28047680854797363 1.63155317306518555 0.482854962348937988
-0.44401898980140686 -1.03089749813079834 0.878203094005584717
-0.0994717106223106384 -1.02188479900360107 0.875573992729187012
0.241372078657150269 -1.10648858547210693 0.306539773941040039
0.106463067233562469 -1.09580874443054199 0.380536377429962158
-2.34633874893188477 -1.98017406463623047 0.696037113666534424
-2.29872894287109375 -2.04723381996154785 0.752238035202026367
-0.445802986621856689 -1.10849320888519287 0.811318039894104004
-0.34929230809211731 -1.0130772590637207 0.792416214942932129
0.141119152307510376 -1.18147933483123779 0.473899185657501221
0.140754669904708862 -1.19538593292236328 0.350607454776763916
0.792971909046173096 -0.778497099876403809 0.290771991014480591
0.209747374057769775 -1.05013012886047363 0.381978511810302734
0.335078001022338867 -1.02871644496917725 0.355805575847625732
1.84547603130340576 0.643536567687988281 0.368780225515365601
-0.463046133518218994 -1.03654348850250244 0.78399956226348877
-0.278472810983657837 -1.01159322261810303 0.933431744575500488
1.01963174343109131 -0.696934044361114502 0.436151713132858276
