ply
format ascii 1.0
element vertex 90
comment vertices
property float x
property float y
property float z
end_header
1.06452763080596924 0.000882036983966827393 0.757964730262756348
0.4333152174949646 -2.47058200836181641 0.419791340827941895
2.70462608337402344 1.89869940280914307 0.754458963871002197
-0.354910135269165039 -0.985935807228088379 1.17591142654418945
-0.618944525718688965 0.814215719699859619 0.692160725593566895
0.269076347351074219 -1.27181267738342285 0.355598747730255127
1.80637407302856445 0.759377956390380859 0.362272441387176514
1.7503046989440918 -0.0404861047863960266 0.491689085960388184
2.17381429672241211 1.34879016876220703 0.65095674991607666
-1.89263474941253662 -1.8740161657333374 1.04971718788146973
-0.310299158096313477 -1.08684968948364258 0.727509438991546631
-0.568455696105957031 0.564313888549804688 1.03284668922424316
0.644354104995727539 -1.89577579498291016 0.327574938535690308
0.937091946601867676 0.288099110126495361 0.896224141120910645
2.41720747947692871 1.74408316612243652 0.390243679285049438
-1.18926346302032471 -1.76547253131866455 0.311142563819885254
-0.130211308598518372 -1.46446800231933594 0.569620728492736816
-2.19029879570007324 -1.9219672679901123 0.838375985622406006
-1.98724150657653809 -2.26021885871887207 0.971510529518127441
-0.342772364616394043 0.880641281604766846 0.861405014991760254
2.54143667221069336 1.54854834079742432 0.783577442169189453
1.2988743782043457 -0.0426396429538726807 0.954892337322235107
-1.41286897659301758 -2.05846619606018066 0.682129204273223877
0.797465741634368896 -0.745742917060852051 0.508350610733032227
-0.0672805309295654297 -0.953204870223999023 1.26432991027832031
0.154859110713005066 -1.00967633724212646 0.381436526775360107
-0.394795238971710205 -1.20089149475097656 1.02582454681396484
0.305948734283447266 -1.16410243511199951 0.488404959440231323
-2.19830083847045898 -2.1397545337677002 0.914981245994567871
0.663305997848510742 -0.802090883255004883 0.257193028926849365
0.52975916862487793 -2.15535354614257812 0.147107064723968506
-0.572034001350402832 0.554870486259460449 0.588485360145568848
0.228222399950027466 -1.0455249547958374 0.257889032363891602
-2.3062129020690918 -2.07904291152954102 0.729488611221313477
-0.974625945091247559 -2.10086607933044434 0.690409302711486816
2.3184044361114502 1.32107734680175781 0.822702288627624512
-0.508636116981506348 -1.00034356117248535 0.765954256057739258
0.140836924314498901 -1.15979230403900146 0.439055919647216797
-0.204597413539886475 -1.06257665157318115 1.277382493019104
0.986214041709899902 -0.657302618026733398 0.478472709655761719
0.955539941787719727 0.107904359698295593 0.826055228710174561
-0.552685201168060303 0.767775118350982666 1.02088403701782227
0.840538620948791504 -0.793757200241088867 0.335973441600799561
-1.89939522743225098 -2.02349185943603516 1.09847676753997803
0.32339632511138916 -0.950196266174316406 0.284586340188980103
-0.373241811990737915 -1.06235301494598389 0.842090785503387451
1.77545607089996338 0.164028003811836243 0.458827406167984009
-2.27541351318359375 -1.95567858219146729 0.721027851104736328
0.281970888376235962 -1.02583122253417969 0.363862574100494385
0.482865214347839355 -1.9960625171661377 0.202466621994972229
0.967952251434326172 0.0704328864812850952 0.670426130294799805
1.81766939163208008 0.503136813640594482 0.223673522472381592
-0.238860249519348145 -1.18446123600006104 1.21313321590423584
0.246519669890403748 -1.18341410160064697 0.417516201734542847
2.46637725830078125 1.8637925386428833 0.448562741279602051
-1.15143132209777832 -2.13129544258117676 0.603340029716491699
-1.94298470020294189 -2.01419734954833984 1.20253503322601318
-2.06137871742248535 -2.0774223804473877 0.862342357635498047
0.164022505283355713 -1.15967750549316406 0.368963301181793213
-2.30017995834350586 -2.06871676445007324 0.843765377998352051
1.69326305389404297 0.0941504091024398804 0.40631335973739624
0.550887942314147949 -2.02982115745544434 0.271819084882736206
-2.4567420482635498 -2.31800079345703125 0.984458804130554199
0.909516990184783936 0.081644989550113678 0.828903257846832275
1.60378456115722656 0.144549846649169922 0.51364433765411377
0.351195871829986572 -1.05662274360656738 0.401579022407531738
1.71458077430725098 0.644884347915649414 0.309366226196289062
2.28047680854797363 1.63155317306518555 0.482854962348937988
-0.44401898980140686 -1.03089749813079834 0.878203094005584717
-0.0994717106223106384 -1.02188479900360107 0.875573992729187012
0.241372078657150269 -1.10648858547210693 0.306539773941040039
0.106463067233562469 -1.09580874443054199 0.380536377429962158
-2.34633874893188477 -1.98017406463623047 0.696037113666534424
-2.29872894287109375 -2.04723381996154785 0.752238035202026367
-0.923061072826385498 -2.05048322677612305 0.548151314258575439
-2.0030372142791748 -2.13343524932861328 0.929196059703826904
-0.445802986621856689 -1.10849320888519287 0.811318039894104004
-0.34929230809211731 -1.0130772590637207 0.792416214942932129
-2.22564864158630371 -2.18034934997558594 0.774571835994720459
0.141119152307510376 -1.18147933483123779 0.473899185657501221
0.140754669904708862 -1.19538593292236328 0.350607454776763916
0.792971909046173096 -0.778497099876403809 0.290771991014480591
0.209747374057769775 -1.05013012886047363 0.381978511810302734
0.335078001022338867 -1.02871644496917725 0.355805575847625732
2.62135910987854004 1.55206501483917236 0.826157033443450928
1.84547603130340576 0.643536567687988281 0.368780225515365601
-0.463046133518218994 -1.03654348850250244 0.78399956226348877
-0.278472810983657837 -1.01159322261810303 0.933431744575500488
1.01963174343109131 -0.696934044361114502 0.436151713132858276
-1.3322451114654541 -2.04080629348754883 0.561924636363983154
