ply
format ascii 1.0
element vertex 256
comment vertices
property float x
property float y
property float z
end_header
1.10442698001861572 0.103817939758300781 0.613544285297393799
-2.42935013771057129 -2.22658896446228027 0.796562671661376953
0.578957259654998779 -2.39224863052368164 0.493894606828689575
2.79478955268859863 1.92975497245788574 0.719270825386047363
-0.418791085481643677 -0.920482933521270752 1.13360190391540527
-0.537269651889801025 0.859981060028076172 0.517810940742492676
-1.0025099515914917 -2.08744597434997559 0.492361962795257568
0.256788134574890137 -1.19653666019439697 0.134105205535888672
1.91286778450012207 0.784850001335144043 0.270085811614990234
1.03365731239318848 -0.795565664768218994 0.319395542144775391
1.90619897842407227 0.0277599692344665527 0.57566910982131958
2.23822402954101562 1.37277400493621826 0.714592933654785156
-1.93145179748535156 -1.67122471332550049 0.998181819915771484
-0.341246098279953003 -1.11977016925811768 0.531355738639831543
-0.588675498962402344 0.638572573661804199 1.08435308933258057
0.728681087493896484 -1.86740422248840332 0.284347742795944214
0.318239957094192505 -0.734827220439910889 0.466638058423995972
1.0207970142364502 0.485053777694702148 0.947436273097991943
2.47818922996520996 1.70303833484649658 0.385730773210525513
-1.12137484550476074 -1.65673542022705078 0.25958859920501709
1.18144774436950684 -0.631178617477416992 0.77134239673614502
-0.0234926939010620117 -1.50491082668304443 0.542695820331573486
-2.18835639953613281 -1.83542251586914062 0.629876673221588135
1.66321647167205811 0.392621874809265137 0.254528343677520752
0.355181634426116943 -2.06308364868164062 0.163640499114990234
0.248086288571357727 -1.18972945213317871 0.621685564517974854
0.419326841831207275 -0.766472339630126953 0.0682955309748649597
1.98135805130004883 0.42734605073928833 0.50780099630355835
0.861981093883514404 -0.0863532572984695435 0.879990458488464355
-2.03443169593811035 -2.05802392959594727 1.07062745094299316
2.40368509292602539 2.00359487533569336 0.740716099739074707
-0.334750533103942871 0.911778569221496582 0.95868384838104248
2.58010172843933105 1.63099455833435059 0.856470465660095215
1.32695746421813965 0.154282242059707642 0.932960748672485352
-1.29504239559173584 -1.97201037406921387 0.718118190765380859
0.703513264656066895 -0.708297193050384521 0.489051938056945801
0.883832156658172607 -0.159517109394073486 0.475259751081466675
-0.211042121052742004 -0.91484224796295166 0.833194136619567871
-0.0382934547960758209 -1.18490231037139893 0.345997929573059082
-2.26641321182250977 -1.80383729934692383 0.975340485572814941
-0.527127683162689209 -1.1256556510925293 0.833279430866241455
2.72367262840270996 1.93805360794067383 0.389257341623306274
-2.0907590389251709 -2.15422821044921875 0.581706821918487549
-0.827320396900177002 -1.80593442916870117 0.537703812122344971
-0.487367928028106689 0.639422118663787842 0.768787801265716553
0.935526907444000244 -0.49786686897277832 0.596917510032653809
-0.108910337090492249 -0.845560550689697266 1.19446814060211182
-0.248481333255767822 0.98408973217010498 0.660284876823425293
0.0467923954129219055 -0.880410969257354736 0.343114674091339111
-0.424850404262542725 -1.23321223258972168 1.11043715476989746
0.413880974054336548 -1.04467451572418213 0.399575412273406982
0.782884120941162109 -2.13882923126220703 0.426773428916931152
0.187923356890678406 -1.39477348327636719 0.348442494869232178
1.03090441226959229 0.165741816163063049 0.921284794807434082
2.36549115180969238 1.69551897048950195 0.659618914127349854
2.40510320663452148 1.97514247894287109 0.446575582027435303
-2.31343722343444824 -2.11948871612548828 1.03986859321594238
0.668342828750610352 -0.707256615161895752 0.211121827363967896
1.74888622760772705 0.23609711229801178 0.474158883094787598
-0.242186248302459717 -1.18172025680541992 0.778941094875335693
0.565956056118011475 -1.98171854019165039 0.479315519332885742
1.13912665843963623 -0.0906509310007095337 0.432873189449310303
1.92731726169586182 0.354775965213775635 0.258928358554840088
0.611667811870574951 -2.11284232139587402 0.199301451444625854
1.06471490859985352 -0.138085156679153442 0.70191645622253418
-2.17124438285827637 -2.07458090782165527 0.828271865844726562
-2.42100667953491211 -1.8684694766998291 0.780663609504699707
2.66349101066589355 1.75236248970031738 0.590521395206451416
-0.505114078521728516 0.608070135116577148 0.508487582206726074
0.847682535648345947 0.12909407913684845 0.752918899059295654
2.45819282531738281 1.46189332008361816 0.324939250946044922
-2.01039552688598633 -1.82990908622741699 0.804152727127075195
0.158392906188964844 -0.970756888389587402 0.125980958342552185
-2.33348178863525391 -2.11346793174743652 0.589200258255004883
0.194827020168304443 -0.93342125415802002 0.536918580532073975
-0.952947854995727539 -1.83351945877075195 0.332963824272155762
2.48614859580993652 1.49951052665710449 0.588322579860687256
1.14449548721313477 -0.747952878475189209 0.52335667610168457
-0.880569577217102051 -2.07504153251647949 0.693710684776306152
1.85483860969543457 0.585160255432128906 0.380760550498962402
-0.437415987253189087 -0.908694624900817871 0.865582525730133057
1.26270568370819092 -0.0297739766538143158 0.81364285945892334
0.519204020500183105 -0.843540072441101074 0.419571220874786377
-0.274686604738235474 -1.09565222263336182 1.00906157493591309
2.42080545425415039 1.46892917156219482 0.809907972812652588
0.812936305999755859 -0.837251484394073486 0.33939206600189209
2.24592828750610352 1.37646615505218506 0.489947468042373657
-0.533383309841156006 -1.00786459445953369 0.563944876194000244
0.161487266421318054 -1.08729398250579834 0.36767578125
-1.15217185020446777 -1.92950534820556641 0.539581239223480225
0.93815159797668457 -0.668003559112548828 0.739944934844970703
-0.303327202796936035 0.780809164047241211 0.591236114501953125
1.28980910778045654 0.196892276406288147 0.682958662509918213
-0.411505818367004395 -1.29476702213287354 0.708932220935821533
-0.248370766639709473 -0.975625574588775635 1.29072415828704834
2.61392426490783691 1.98433780670166016 0.619974732398986816
0.362179219722747803 -2.20479583740234375 0.322541654109954834
0.0508206188678741455 -1.08716475963592529 0.548759937286376953
0.968250811100006104 -0.612426638603210449 0.423522651195526123
0.890089869499206543 0.0342292189598083496 0.552283883094787598
-0.498475790023803711 0.837738692760467529 0.82943570613861084
0.985951662063598633 0.362647920846939087 0.78775334358215332
-0.546003758907318115 0.829109370708465576 1.03116655349731445
0.0747262239456176758 -1.28795111179351807 0.213806703686714172
0.0344113484025001526 -1.32345640659332275 0.468194276094436646
-2.10434246063232422 -1.68495392799377441 0.897472918033599854
0.807235240936279297 -0.605388998985290527 0.311949759721755981
-1.96361637115478516 -1.84582030773162842 1.07700920104980469
0.295305728912353516 -0.837059259414672852 0.199707120656967163
-0.853555560111999512 -1.96668028831481934 0.433774292469024658
2.29578900337219238 1.55512845516204834 0.547901332378387451
-0.919230043888092041 -1.64676535129547119 0.318787038326263428
-2.47709560394287109 -2.01787304878234863 0.883261203765869141
-0.391580700874328613 -1.08290576934814453 0.709728121757507324
-1.1369936466217041 -1.76490592956542969 0.412904292345046997
2.03246712684631348 0.613813638687133789 0.435050785541534424
-0.17511199414730072 -0.896374404430389404 1.01626574993133545
1.93477129936218262 0.206459224224090576 0.532507598400115967
-2.33035778999328613 -1.87854230403900146 0.518459856510162354
0.315955907106399536 -1.02858662605285645 0.20476996898651123
1.0898745059967041 -0.00959604792296886444 0.868315577507019043
2.48159527778625488 1.78509044647216797 0.552095770835876465
0.575915157794952393 -1.9351503849029541 0.188288241624832153
-0.467136681079864502 -1.05339360237121582 0.988068103790283203
1.06297683715820312 0.120255813002586365 0.43826332688331604
1.86941659450531006 0.513000845909118652 0.209320411086082458
0.885578334331512451 -0.0664921924471855164 0.695638000965118408
-0.29120972752571106 -1.1006157398223877 1.18137669563293457
-2.31784987449645996 -2.00781989097595215 0.721927225589752197
1.83630609512329102 0.41769137978553772 0.399654984474182129
0.0569791495800018311 -1.2315901517868042 0.636235892772674561
0.270376622676849365 -0.952455997467041016 0.348101377487182617
1.07780444622039795 -0.605941891670227051 0.643000125885009766
2.57440853118896484 1.83890604972839355 0.380679905414581299
0.53285527229309082 -0.709641873836517334 0.307701319456100464
-0.498990297317504883 0.772144675254821777 0.669775426387786865
0.641473114490509033 -0.856439471244812012 0.308537840843200684
-1.0427711009979248 -2.10132670402526855 0.677308499813079834
2.43088960647583008 1.83793759346008301 0.708193957805633545
1.06703364849090576 0.165001809597015381 0.760605216026306152
-0.551054656505584717 0.707069933414459229 0.922645688056945801
0.469999909400939941 -2.02124929428100586 0.276817232370376587
-2.2191617488861084 -1.92413187026977539 0.843356132507324219
2.55569577217102051 1.66662263870239258 0.668779611587524414
-1.02118146419525146 -1.94110417366027832 0.436452388763427734
-2.24969267845153809 -1.64400875568389893 0.940914511680603027
-2.02214717864990234 -1.70895862579345703 1.12700843811035156
-2.09969687461853027 -1.80575704574584961 1.00974678993225098
-0.34954407811164856 -1.05470597743988037 0.87732398509979248
1.94316530227661133 0.305881470441818237 0.413223922252655029
0.195615261793136597 -1.310546875 0.478616058826446533
0.646508395671844482 -2.11957049369812012 0.356279075145721436
0.275095999240875244 -1.17300164699554443 0.308074623346328735
-1.28787398338317871 -1.8573300838470459 0.529228329658508301
-0.380988895893096924 -1.20123934745788574 0.8410491943359375
-2.23656034469604492 -1.99746799468994141 0.988002181053161621
-0.9703216552734375 -1.72881817817687988 0.441323786973953247
-2.04089021682739258 -1.94175243377685547 0.901680707931518555
0.209439873695373535 -1.34183228015899658 0.170815333724021912
1.17621660232543945 -0.0571749508380889893 0.642206072807312012
2.73791313171386719 1.94214606285095215 0.546841740608215332
2.37132620811462402 1.60753965377807617 0.780357539653778076
0.560076236724853516 -0.800512433052062988 0.167468994855880737
0.807886600494384766 -0.851727962493896484 0.190774589776992798
0.29251408576965332 -1.05940544605255127 0.564222335815429688
1.63997507095336914 0.33669435977935791 0.458275645971298218
-2.36132001876831055 -2.1033022403717041 0.845223307609558105
-0.340462744235992432 0.885905146598815918 0.812799572944641113
2.43558096885681152 1.97654509544372559 0.59896385669708252
0.953313112258911133 -0.17806515097618103 0.789386987686157227
0.904874622821807861 -0.681156516075134277 0.597392678260803223
-2.40452933311462402 -2.004852294921875 1.04473316669464111
1.15176630020141602 0.046459391713142395 0.742670416831970215
-2.18733811378479004 -1.77070069313049316 0.814911067485809326
1.82793974876403809 0.107441127300262451 0.4843730628490448
2.44544863700866699 1.64628446102142334 0.544537067413330078
0.667194604873657227 -2.00162386894226074 0.2779998779296875
-0.932564496994018555 -1.89408695697784424 0.577205777168273926
1.83925676345825195 0.263304561376571655 0.322539448738098145
-2.45145249366760254 -2.14977073669433594 1.03687906265258789
0.278537511825561523 -1.19246053695678711 0.485106140375137329
0.975081443786621094 0.138109833002090454 0.654433786869049072
1.16466426849365234 0.131378918886184692 0.90368342399597168
1.76456010341644287 0.178990542888641357 0.600053846836090088
0.387205302715301514 -0.876461029052734375 0.390591233968734741
0.922597050666809082 -0.178520575165748596 0.60730290412902832
-2.34505105018615723 -2.23949623107910156 0.646137833595275879
-0.299843728542327881 -0.920166730880737305 0.961878776550292969
1.82458949089050293 0.646535992622375488 0.260835260152816772
0.51016998291015625 -2.27529287338256836 0.472705602645874023
2.38919949531555176 1.59917700290679932 0.389591425657272339
-2.06363654136657715 -1.94010531902313232 0.743624866008758545
-0.492742180824279785 -0.964305520057678223 0.754057645797729492
-0.16992497444152832 -0.963990569114685059 0.713142991065979004
-2.18657016754150391 -2.02864551544189453 0.694964826107025146
0.150436475872993469 -0.983283042907714844 0.260790824890136719
0.962480902671813965 0.00300098280422389507 0.82354736328125
0.0302863717079162598 -1.0670933723449707 0.342016220092773438
-2.31920361518859863 -1.79722225666046143 0.833656549453735352
-2.07595491409301758 -2.02302432060241699 0.572291731834411621
-0.477368324995040894 0.647267818450927734 0.631920933723449707
1.32491195201873779 0.144504368305206299 0.798991978168487549
-0.0945060551166534424 -1.3084942102432251 0.489633560180664062
0.960255026817321777 0.355176568031311035 0.91649329662322998
-2.38169336318969727 -1.87893569469451904 0.656514883041381836
2.20595932006835938 1.43151485919952393 0.60138857364654541
1.78982722759246826 0.361358642578125 0.252026110887527466
-2.37227320671081543 -2.1318049430847168 0.714476227760314941
2.51657843589782715 1.55606198310852051 0.474961698055267334
-2.25464200973510742 -2.0042264461517334 0.58713763952255249
-0.833683013916015625 -2.03753662109375 0.540443480014801025
1.10811471939086914 -0.13740009069442749 0.549523234367370605
0.900364220142364502 0.266878187656402588 0.793273508548736572
-0.393877297639846802 -1.15737259387969971 1.00444316864013672
2.54954719543457031 1.79460930824279785 0.674065709114074707
-2.09063220024108887 -1.94333803653717041 1.05954575538635254
-0.445233255624771118 -1.15745234489440918 0.593851983547210693
1.07789337635040283 0.320942163467407227 0.864135146141052246
2.32475757598876953 1.45531654357910156 0.673111855983734131
-0.391931980848312378 -1.01782631874084473 0.586561262607574463
-2.35323500633239746 -2.2161414623260498 0.968625247478485107
0.103895746171474457 -0.849153459072113037 0.517242074012756348
1.03445065021514893 -0.723331451416015625 0.63667905330657959
2.48856759071350098 1.66118538379669189 0.774268627166748047
0.129608884453773499 -1.20430493354797363 0.482205867767333984
-0.495712369680404663 -1.20546102523803711 0.73074042797088623
0.100468367338180542 -0.958509325981140137 0.424080491065979004
0.181219398975372314 -1.25310087203979492 0.290878593921661377
-0.618939399719238281 0.735145688056945801 0.82227247953414917
-2.14920878410339355 -2.15690231323242188 0.737704634666442871
0.851399064064025879 -0.595002233982086182 0.668886899948120117
2.63461089134216309 1.87582504749298096 0.567254543304443359
0.775785207748413086 -0.751620113849639893 0.253434598445892334
-0.928026556968688965 -1.84187436103820801 0.458875358104705811
0.16161094605922699 -0.840072989463806152 0.351084709167480469
0.35052153468132019 -0.802471399307250977 0.302227795124053955
-0.348178178071975708 0.85500800609588623 0.696491599082946777
2.69878911972045898 1.65169668197631836 0.85594254732131958
0.912280440330505371 0.170843154191970825 0.907689511775970459
1.704520583152771 0.34419599175453186 0.358256012201309204
1.93659031391143799 0.641290903091430664 0.299197673797607422
2.51960086822509766 1.93224942684173584 0.529538571834564209
-0.290620774030685425 -0.857948184013366699 1.0605853796005249
0.189864680171012878 -1.31429469585418701 0.594831466674804688
-0.504716753959655762 -1.09403395652770996 0.688164710998535156
-0.0269092172384262085 -1.05107331275939941 0.471054017543792725
-0.304678767919540405 -0.944837450981140137 0.772444963455200195
1.03467786312103271 -0.67801976203918457 0.355548650026321411
1.84610354900360107 0.37749028205871582 0.507277786731719971
-0.517297506332397461 -1.00944769382476807 0.857025980949401855
1.01742255687713623 -0.0277502741664648056 0.727894425392150879
0.0665846541523933411 -1.24979376792907715 0.387805551290512085
2.64165544509887695 1.88736557960510254 0.679732561111450195
0.949814021587371826 0.156222507357597351 0.802151799201965332
-1.24989235401153564 -1.94326353073120117 0.59417569637298584
-1.09529495239257812 -2.02358365058898926 0.486752510070800781
