ply
format ascii 1.0
element vertex 161
comment vertices
property float x
property float y
property float z
end_header
-1.14474833011627197 1.7808002233505249 -0.0168991722166538239
0.80494004487991333 -0.623116493225097656 0.0078615918755531311
0.241722643375396729 -0.857678711414337158 0.481857448816299438
0.821558356285095215 -0.645547211170196533 0.154838666319847107
0.267721414566040039 -0.752448439598083496 0.29077601432800293
0.78914487361907959 -0.758749723434448242 -0.0221730656921863556
-1.23169600963592529 1.41025495529174805 0.204305171966552734
0.698155641555786133 -0.519592940807342529 0.115590572357177734
-0.936859369277954102 0.599591493606567383 0.213056117296218872
-1.23896002769470215 1.67572760581970215 0.315707564353942871
0.216157212853431702 -0.818030714988708496 0.371170520782470703
0.149767845869064331 -0.788117825984954834 0.432317495346069336
0.734384417533874512 -0.628550231456756592 0.123093344271183014
0.213966488838195801 -0.741093754768371582 0.501908540725708008
-1.09990787506103516 1.59936249256134033 -0.117605850100517273
-1.10207247734069824 1.5596693754196167 0.149322539567947388
0.284328699111938477 -0.784281313419342041 0.248577684164047241
0.220485255122184753 -0.787718832492828369 0.303888440132141113
0.162099599838256836 -0.809701800346374512 0.445609569549560547
0.887838363647460938 -0.677886486053466797 0.00586622953414916992
0.136263579130172729 -0.722520828247070312 0.315959393978118896
-0.863288044929504395 0.547809958457946777 0.194708004593849182
-1.09328615665435791 1.72584331035614014 0.26009678840637207
0.126443237066268921 -0.722407281398773193 0.346700727939605713
0.733300626277923584 -0.713324308395385742 0.0381781160831451416
0.789909064769744873 -0.626665830612182617 0.208479776978492737
0.295344561338424683 -0.702326774597167969 0.204911917448043823
-1.36174094676971436 1.6138228178024292 0.373668640851974487
0.876936852931976318 -0.664003610610961914 0.114262893795967102
0.232259094715118408 -0.811368227005004883 0.499456793069839478
0.697922646999359131 -0.653082430362701416 0.0868947803974151611
0.586836576461791992 -0.67502140998840332 0.0878067761659622192
0.265035152435302734 -0.843838810920715332 0.428206354379653931
0.785081624984741211 -0.529330670833587646 0.139979332685470581
-0.940044105052947998 0.541335642337799072 0.359723389148712158
0.35958486795425415 -0.801336288452148438 0.476234138011932373
0.789513289928436279 -0.604129791259765625 0.155100077390670776
-1.29865038394927979 1.51194894313812256 0.327882587909698486
0.863804399967193604 -0.694595992565155029 -0.013720974326133728
-1.19681000709533691 1.64488720893859863 0.181028872728347778
-1.01857888698577881 1.74320721626281738 0.0267145130783319473
0.864319860935211182 -0.668769896030426025 0.0396014563739299774
-1.19633269309997559 1.59426200389862061 0.381565570831298828
0.405682265758514404 -0.801680326461791992 0.268899828195571899
0.246323585510253906 -0.800549864768981934 0.424306869506835938
0.229358062148094177 -0.753668725490570068 0.317216426134109497
-1.12522554397583008 1.6752011775970459 0.00117101706564426422
0.647736549377441406 -0.600774526596069336 0.126687243580818176
0.111465007066726685 -0.778556704521179199 0.461760580539703369
-0.828643679618835449 0.569994211196899414 0.3133392333984375
-0.927775561809539795 0.591484248638153076 0.0784610509872436523
0.592682480812072754 -0.587034463882446289 0.11108320951461792
0.614854633808135986 -0.68957144021987915 0.0188565254211425781
-0.87664949893951416 0.656553506851196289 0.100603021681308746
0.122126564383506775 -0.69338536262512207 0.399162471294403076
0.0968686044216156006 -0.773654460906982422 0.41770780086517334
-1.05077993869781494 1.65517878532409668 0.208725452423095703
0.119275465607643127 -0.789963126182556152 0.469562172889709473
-1.08662033081054688 1.80126512050628662 -0.107813797891139984
0.276773065328598022 -0.771341502666473389 0.315352857112884521
-1.03904867172241211 1.65436232089996338 -0.0539785176515579224
-1.19258475303649902 1.63416624069213867 0.493014276027679443
0.178515344858169556 -0.803482413291931152 0.542656660079956055
0.157770141959190369 -0.784264087677001953 0.34035789966583252
0.223515123128890991 -0.780843257904052734 0.399987608194351196
-1.11376857757568359 1.51153802871704102 0.111457511782646179
0.0898445993661880493 -0.768550515174865723 0.398870080709457397
0.676120579242706299 -0.61160886287689209 0.0853288620710372925
-1.17491519451141357 1.44431853294372559 0.337669491767883301
0.752560019493103027 -0.699151098728179932 -0.00486491620540618896
-0.787715792655944824 0.636978209018707275 0.154839396476745605
-1.09713447093963623 1.5998077392578125 0.210679173469543457
-1.04098987579345703 1.52496099472045898 0.293669998645782471
0.0672141686081886292 -0.77382427453994751 0.362317115068435669
0.7448158860206604 -0.539153635501861572 0.131222426891326904
0.674194514751434326 -0.633788645267486572 0.119941733777523041
0.828972399234771729 -0.659601509571075439 0.12770552933216095
0.149749040603637695 -0.773564755916595459 0.339250653982162476
0.789099752902984619 -0.53523629903793335 0.115145385265350342
0.163323014974594116 -0.770103216171264648 0.249836713075637817
0.179096221923828125 -0.769914090633392334 0.376501083374023438
0.613013029098510742 -0.613385498523712158 0.155593276023864746
-0.785276472568511963 0.437757372856140137 0.415688842535018921
0.533043861389160156 -0.655565321445465088 0.0702469199895858765
0.675685703754425049 -0.595573067665100098 0.0477992892265319824
-0.910857081413269043 0.606920063495635986 0.0121151506900787354
0.126981198787689209 -0.779546678066253662 0.470072537660598755
0.237951070070266724 -0.783286213874816895 0.409249067306518555
-1.07833051681518555 1.54567813873291016 -0.0185782536864280701
0.723348379135131836 -0.738215923309326172 0.00790365040302276611
-0.858640551567077637 0.598263263702392578 0.225111097097396851
0.71572411060333252 -0.646596968173980713 0.0978201329708099365
-1.16478192806243896 1.70963633060455322 0.432567059993743896
-1.30173492431640625 1.60696160793304443 0.360427975654602051
0.848006844520568848 -0.670330822467803955 0.0197913777083158493
-1.03068315982818604 1.5926518440246582 0.0666858255863189697
-1.14280974864959717 1.7183234691619873 -0.12659570574760437
0.0612501427531242371 -0.770855844020843506 0.441893011331558228
0.262364804744720459 -0.72050321102142334 0.267672061920166016
0.129987001419067383 -0.751677751541137695 0.371601581573486328
0.136727988719940186 -0.80010378360748291 0.397574663162231445
-1.07927322387695312 1.77908706665039062 0.00672490894794464111
0.770276069641113281 -0.557520091533660889 0.226184740662574768
0.843465328216552734 -0.629415512084960938 0.100226983428001404
0.221045359969139099 -0.766760587692260742 0.374372243881225586
0.614498913288116455 -0.534803628921508789 -0.00199218839406967163
0.0931923165917396545 -0.725313782691955566 0.423643976449966431
0.390280723571777344 -0.845801770687103271 0.319395452737808228
0.144853204488754272 -0.765232622623443604 0.302078485488891602
0.308919697999954224 -0.862466394901275635 0.412322193384170532
0.108840301632881165 -0.789306938648223877 0.394389688968658447
0.835544049739837646 -0.616690158843994141 0.125774472951889038
0.177254453301429749 -0.739803910255432129 0.452791780233383179
0.856026947498321533 -0.737556099891662598 -0.0211836323142051697
0.605953872203826904 -0.715379714965820312 0.0473567545413970947
0.239273428916931152 -0.81939089298248291 0.484513789415359497
-1.09523630142211914 1.6766505241394043 0.133303791284561157
0.797797918319702148 -0.61707836389541626 0.225730001926422119
-1.13411307334899902 1.57866895198822021 0.0444357506930828094
0.747865378856658936 -0.65939408540725708 -0.00309582613408565521
0.766632318496704102 -0.666229128837585449 0.00825685262680053711
0.767755210399627686 -0.75465548038482666 0.0116079822182655334
0.839406430721282959 -0.637198686599731445 -0.0493650324642658234
0.763416469097137451 -0.643770694732666016 0.128414914011955261
-1.05304121971130371 1.60124790668487549 0.14247700572013855
0.840940654277801514 -0.592501521110534668 0.188968256115913391
-1.12533867359161377 1.56231522560119629 0.321506232023239136
0.515401244163513184 -0.637112855911254883 0.141236424446105957
0.103210151195526123 -0.7889443039894104 0.34049534797668457
0.701081156730651855 -0.642094969749450684 0.106146588921546936
-1.22356939315795898 1.49261593818664551 0.257590532302856445
-1.1282278299331665 1.69870841503143311 -0.0621308013796806335
0.236012488603591919 -0.722112178802490234 0.335423588752746582
0.723575115203857422 -0.548676550388336182 0.131815224885940552
0.231860965490341187 -0.77595895528793335 0.253762930631637573
0.849558353424072266 -0.665749669075012207 0.097377583384513855
0.159673690795898438 -0.82656562328338623 0.351500332355499268
0.255980163812637329 -0.829240977764129639 0.409214973449707031
0.540409505367279053 -0.655852675437927246 0.0852460414171218872
0.883421659469604492 -0.675954103469848633 -0.0262128189206123352
0.0479535013437271118 -0.717704415321350098 0.360186278820037842
0.202224552631378174 -0.78131401538848877 0.410096824169158936
0.17450404167175293 -0.738160371780395508 0.293827950954437256
-1.23252701759338379 1.63827323913574219 0.248132586479187012
0.0645272061228752136 -0.764020383358001709 0.40630677342414856
0.644971549510955811 -0.629381835460662842 0.0890930220484733582
-1.05731892585754395 1.76120865345001221 0.164403930306434631
0.79001319408416748 -0.676393032073974609 0.1112026646733284
0.248869240283966064 -0.820292890071868896 0.454234451055526733
0.0504322424530982971 -0.787587463855743408 0.441016048192977905
0.256906032562255859 -0.770926117897033691 0.373177587985992432
0.274014174938201904 -0.79072493314743042 0.249022871255874634
0.785875141620635986 -0.631280303001403809 0.101137824356555939
0.21900409460067749 -0.725872159004211426 0.338753104209899902
0.755373001098632812 -0.627010822296142578 0.16510501503944397
0.0876118093729019165 -0.833552062511444092 0.465845108032226562
0.098792538046836853 -0.767426788806915283 0.498829305171966553
-1.11886298656463623 1.6356738805770874 0.335579931735992432
0.730757832527160645 -0.53384089469909668 0.142548218369483948
-0.912785470485687256 0.611301541328430176 0.16799616813659668
0.502533793449401855 -0.673152685165405273 0.124265462160110474
