ply
format ascii 1.0
element vertex 256
comment vertices
property float x
property float y
property float z
end_header
-0.916568160057067871 1.11090469360351562 0.0689818039536476135
1.86700308322906494 -0.785406231880187988 0.148558497428894043
0.699528038501739502 0.924764752388000488 0.130697950720787048
0.475777506828308105 -0.542880237102508545 -0.0852125734090805054
0.670974254608154297 -0.23144415020942688 0.175491496920585632
0.631994068622589111 1.2829660177230835 0.111554890871047974
-1.0748971700668335 1.03484070301055908 0.221193820238113403
1.62830245494842529 -0.411021113395690918 0.0336714386940002441
0.444810718297958374 0.950736343860626221 0.0452379845082759857
0.780390143394470215 -0.724077284336090088 -0.0696313455700874329
0.427919656038284302 -0.424027383327484131 0.118955954909324646
-0.773606419563293457 1.38496696949005127 -0.0875697135925292969
0.503289282321929932 0.871208667755126953 0.278744637966156006
-0.926218092441558838 0.788251876831054688 -0.110666856169700623
1.84074938297271729 -0.387412220239639282 -0.054592035710811615
-0.958929002285003662 1.15434658527374268 0.232854768633842468
0.515718221664428711 1.06327259540557861 0.228775113821029663
0.517967820167541504 -0.501155674457550049 0.0642198100686073303
0.466182172298431396 -0.399465799331665039 0.0120143294334411621
0.560336709022521973 -0.678772509098052979 0.00506885163486003876
1.83277249336242676 -0.521116673946380615 0.274306237697601318
0.518189072608947754 0.849559426307678223 0.218657702207565308
0.583619594573974609 1.10710644721984863 0.0487488061189651489
-0.842590272426605225 1.15509343147277832 -0.094829849898815155
0.501708924770355225 -0.298550188541412354 0.145895510911941528
1.62220609188079834 -0.690322399139404297 0.190610572695732117
-1.00763905048370361 1.14888095855712891 0.0799978375434875488
-1.00921463966369629 0.909918308258056641 -0.0367208868265151978
0.584450006484985352 0.989401698112487793 0.24338977038860321
-0.850996851921081543 1.01649177074432373 -0.177658185362815857
0.467225313186645508 0.889969170093536377 0.114102572202682495
0.5096854567527771 0.96048051118850708 0.184669315814971924
0.494392067193984985 -0.457835197448730469 0.0499548725783824921
0.600732684135437012 -0.653780639171600342 -0.121182218194007874
1.69191586971282959 -0.57079547643661499 0.05854024738073349
-0.98240351676940918 0.895400822162628174 -0.0961706042289733887
0.630534768104553223 -0.690510749816894531 0.0648410916328430176
-0.940208792686462402 0.875925362110137939 0.0748005136847496033
0.603153586387634277 0.847137153148651123 0.113080509006977081
0.646332323551177979 0.822647035121917725 0.191199272871017456
0.477129936218261719 -0.540711879730224609 -0.0219044387340545654
-0.76567000150680542 1.09357357025146484 -0.0194447487592697144
1.83407354354858398 -0.703931748867034912 0.333094000816345215
0.545712113380432129 -0.461351633071899414 0.123757719993591309
-0.962947428226470947 1.05115318298339844 -0.0539428889751434326
0.533792674541473389 -0.573571860790252686 0.0113480985164642334
-1.00998413562774658 0.929732322692871094 0.182202249765396118
-0.876689553260803223 1.04103517532348633 -0.136278882622718811
0.539170265197753906 1.12526369094848633 0.201795861124992371
0.583862006664276123 0.995796382427215576 0.242939874529838562
-0.923809051513671875 1.06025946140289307 -0.116184614598751068
0.588917136192321777 1.04858887195587158 0.133461654186248779
0.477963417768478394 1.04774940013885498 0.0698086470365524292
0.466230273246765137 -0.505179703235626221 -0.240379691123962402
0.535671830177307129 -0.540067434310913086 0.0900101959705352783
0.545179665088653564 0.871103584766387939 0.116383031010627747
1.79907917976379395 -0.560775935649871826 0.262285828590393066
-0.946352601051330566 0.972079634666442871 -0.0215173140168190002
0.563311517238616943 0.906287312507629395 0.221505656838417053
-0.725866496562957764 0.911041736602783203 -0.134729087352752686
0.534642279148101807 -0.443544387817382812 0.165807485580444336
0.503064334392547607 -0.583692967891693115 -0.00261342525482177734
0.605382323265075684 -0.712865948677062988 0.134020745754241943
0.460425019264221191 0.849292397499084473 0.155325114727020264
-0.98096621036529541 1.11088287830352783 0.223846316337585449
0.689341425895690918 -0.743451356887817383 -0.0601057931780815125
0.605852425098419189 1.02614963054656982 0.271762967109680176
0.65523606538772583 -0.722724854946136475 -0.052170291543006897
0.490985900163650513 -0.467603981494903564 0.15318647027015686
-0.982919454574584961 1.08837354183197021 0.0798029005527496338
-0.818860650062561035 1.21702313423156738 -0.0268365442752838135
0.435071289539337158 -0.445620059967041016 0.0154211819171905518
1.70719563961029053 -0.430878579616546631 0.0837127715349197388
-1.01215255260467529 0.776678144931793213 -0.165278226137161255
1.75127029418945312 -0.600910067558288574 0.20580291748046875
0.563407659530639648 0.925015926361083984 0.160118162631988525
0.519502341747283936 -0.486886113882064819 0.103835135698318481
0.542167544364929199 0.816461324691772461 0.180945217609405518
0.568502545356750488 0.869055092334747314 0.188701361417770386
0.554198086261749268 0.984898030757904053 0.129550382494926453
0.552451610565185547 1.02520549297332764 0.241951465606689453
0.509671688079833984 0.712491273880004883 0.1325855553150177
-0.831858932971954346 1.08967220783233643 -8.06599855422973633e-05
-0.785400867462158203 1.1758195161819458 -0.107804268598556519
0.4888916015625 -0.442026674747467041 0.0832785740494728088
0.459832191467285156 -0.256468832492828369 0.158157363533973694
-1.00337076187133789 0.860398650169372559 -0.128718391060829163
0.625917434692382812 -0.439347267150878906 0.190249249339103699
0.441874384880065918 0.906025707721710205 0.211510062217712402
0.49177059531211853 -0.600847363471984863 -0.0708661526441574097
0.519659817218780518 -0.569468080997467041 -0.0696258246898651123
1.62388038635253906 -0.470309257507324219 -0.067081943154335022
1.78830790519714355 -0.59230506420135498 -0.101274877786636353
0.72450554370880127 1.03141188621520996 0.286829233169555664
1.75204026699066162 -0.500116527080535889 0.115636296570301056
1.70448148250579834 -0.562950730323791504 0.155744895339012146
-0.87517702579498291 0.982557415962219238 0.0332906991243362427
-1.000754714012146 1.09895789623260498 -0.00213061273097991943
-0.862289965152740479 1.08024120330810547 -0.0435852184891700745
0.526010870933532715 0.977450668811798096 0.0216729044914245605
0.523221075534820557 -0.501131892204284668 0.110986433923244476
-0.979075789451599121 0.996165931224822998 0.0660717412829399109
-0.921937704086303711 1.03683733940124512 0.000802375376224517822
0.552322149276733398 -0.403023570775985718 0.187228024005889893
1.68815624713897705 -0.733888924121856689 0.103345118463039398
0.639308571815490723 0.954767704010009766 0.238838076591491699
0.669788122177124023 -0.676415443420410156 -0.0669698566198348999
-0.807136714458465576 1.0742645263671875 -0.0822204649448394775
0.458099931478500366 0.933489382266998291 0.0574528723955154419
-0.904083967208862305 1.17122697830200195 -0.00727790780365467072
0.627004742622375488 0.854989528656005859 0.186116874217987061
0.713159680366516113 -0.788295745849609375 -0.0217969492077827454
0.531840741634368896 0.893553614616394043 -0.00469574332237243652
0.63655012845993042 -0.670824289321899414 -0.062485136091709137
0.589762449264526367 1.00833642482757568 0.183771908283233643
-0.930183172225952148 1.08432793617248535 0.0639478340744972229
0.440832465887069702 -0.473200112581253052 -0.0704415291547775269
-0.920290648937225342 0.897762417793273926 0.176420390605926514
0.492039114236831665 -0.469992399215698242 -0.0154238343238830566
0.466841995716094971 -0.559510529041290283 -0.130644530057907104
0.485156655311584473 0.939145267009735107 0.1759166419506073
0.458100020885467529 -0.552151978015899658 -0.091170579195022583
0.492508262395858765 1.02296686172485352 0.264551281929016113
-0.88188624382019043 1.05314695835113525 -0.0408348441123962402
0.744444489479064941 -0.696562528610229492 -0.00916772335767745972
0.514920592308044434 0.908939540386199951 0.0987615585327148438
0.571562647819519043 0.832370400428771973 0.174912601709365845
0.494278579950332642 -0.433778584003448486 0.0404907315969467163
0.626575827598571777 -0.608634829521179199 0.17450106143951416
-0.720986485481262207 1.24743127822875977 -0.0013277251273393631
0.513116419315338135 0.88320082426071167 0.246723651885986328
0.543830633163452148 1.03721249103546143 0.101652756333351135
1.75828456878662109 -0.711298525333404541 0.189707309007644653
-0.87459254264831543 1.08722865581512451 0.0361569523811340332
0.647065937519073486 -0.658494234085083008 -0.0166953280568122864
0.569368422031402588 -0.626933276653289795 -0.0668097585439682007
-0.870909333229064941 1.00369644165039062 -0.0327972471714019775
-0.950122833251953125 0.799574553966522217 0.092368587851524353
-0.888116717338562012 0.83196645975112915 -0.0615833178162574768
0.519585311412811279 -0.512523055076599121 0.127627819776535034
1.78904485702514648 -0.591792404651641846 0.272452384233474731
-1.02417862415313721 1.21851015090942383 0.168790161609649658
-1.02532434463500977 0.923661470413208008 0.165462642908096313
-0.859407961368560791 1.0824350118637085 -0.0503959134221076965
0.641254663467407227 1.08634757995605469 0.337356090545654297
-1.00131011009216309 0.861226320266723633 -0.0170110687613487244
0.529182553291320801 0.992333471775054932 0.13235551118850708
0.467807114124298096 -0.494493603706359863 -0.0085856318473815918
0.535292387008666992 0.998582005500793457 0.199006214737892151
0.613401114940643311 1.12655282020568848 0.0693225860595703125
-0.868066191673278809 1.01145350933074951 -0.0927771329879760742
1.74256157875061035 -0.696891248226165771 0.0133309215307235718
0.480115592479705811 0.875558853149414062 0.172011256217956543
0.755385339260101318 0.837633490562438965 0.193152010440826416
-0.944568872451782227 1.09113740921020508 -0.156283974647521973
0.603452801704406738 0.860022246837615967 0.144419163465499878
-1.01018106937408447 1.03907990455627441 0.293277323246002197
-0.889695465564727783 1.13367629051208496 -0.0728894695639610291
0.428862065076828003 0.971212983131408691 0.178079605102539062
0.648394346237182617 0.869120299816131592 0.25714796781539917
0.544077515602111816 -0.477200597524642944 0.062404923141002655
0.564435184001922607 0.965029478073120117 0.212974667549133301
0.500197112560272217 0.859295845031738281 0.160462409257888794
0.631858408451080322 1.22782528400421143 0.137169480323791504
0.543507039546966553 0.865796208381652832 0.169274121522903442
0.645390808582305908 1.26748228073120117 -0.0728882551193237305
0.485434174537658691 -0.578990757465362549 0.0324243083596229553
0.534978210926055908 -0.503235161304473877 0.0820601433515548706
0.599545776844024658 1.00424015522003174 0.202259987592697144
-0.895213723182678223 0.820196986198425293 -0.0987715497612953186
-0.701623201370239258 1.2244107723236084 -0.0940718278288841248
-0.956220567226409912 0.751908540725708008 -0.0529334768652915955
-0.959897816181182861 1.03526687622070312 -0.0297519415616989136
-0.835480093955993652 1.01525640487670898 -0.0161687806248664856
-0.743549942970275879 1.21387732028961182 -0.0268841087818145752
0.730564713478088379 -0.326368033885955811 0.247658476233482361
1.75515472888946533 -0.521580815315246582 0.172366410493850708
0.639437675476074219 -0.74199908971786499 0.072317861020565033
-0.907291650772094727 1.05981779098510742 0.12102159857749939
0.575381994247436523 1.18906664848327637 0.307589799165725708
0.563282251358032227 0.941315889358520508 0.288869798183441162
0.520584642887115479 1.04313266277313232 0.119707688689231873
1.76369702816009521 -0.664380252361297607 0.199796378612518311
0.514922797679901123 -0.636442482471466064 -0.0396224260330200195
-0.877490460872650146 0.828481733798980713 -0.133661597967147827
0.4725075364112854 0.959215283393859863 0.248096704483032227
0.462062090635299683 -0.534377336502075195 -0.106992140412330627
0.575462222099304199 1.00617289543151855 0.232113778591156006
1.69743037223815918 -0.638363480567932129 0.144337713718414307
-0.902134716510772705 0.913376510143280029 -0.0794900581240653992
-0.920807778835296631 1.10101652145385742 -0.0155422985553741455
0.507735013961791992 -0.556397020816802979 -0.0024161115288734436
0.45721668004989624 -0.55065762996673584 -0.0509651452302932739
-0.995641529560089111 0.83049464225769043 0.0917651131749153137
0.506465494632720947 -0.44971853494644165 0.0668258517980575562
0.61657947301864624 0.853537440299987793 0.143192112445831299
0.516407907009124756 1.03491866588592529 0.227063104510307312
-0.990065217018127441 0.917548179626464844 -0.0197683870792388916
-0.708098649978637695 1.09171772003173828 -0.055720403790473938
-0.966434240341186523 0.948242723941802979 -0.0264155343174934387
1.71300101280212402 -0.586881518363952637 0.229362174868583679
-0.880602896213531494 1.01820015907287598 0.07711811363697052
-0.957921624183654785 1.03394198417663574 0.0853799805045127869
0.524609744548797607 0.909681320190429688 0.166796296834945679
0.504362165927886963 -0.522688627243041992 0.0551102906465530396
0.440657913684844971 -0.416953027248382568 0.0667525380849838257
0.651083052158355713 -0.71912914514541626 -0.0607181526720523834
0.470867633819580078 1.01778459548950195 0.171139836311340332
-0.920807063579559326 1.08192455768585205 0.0649706423282623291
0.582511663436889648 1.06265854835510254 0.0412131696939468384
0.465667545795440674 -0.544825077056884766 -0.0610950440168380737
0.461368858814239502 -0.550186812877655029 -0.0883581489324569702
0.536394774913787842 0.961195230484008789 0.241082742810249329
-0.864439129829406738 1.07179641723632812 0.0174118876457214355
0.553061723709106445 -0.570841431617736816 0.0887261107563972473
-0.892964482307434082 1.11585021018981934 0.00934547185897827148
-0.960443198680877686 0.763423800468444824 -0.16725100576877594
0.598808526992797852 0.971593320369720459 0.217730328440666199
1.54333281517028809 -0.658285856246948242 0.120781473815441132
0.524209082126617432 -0.568714261054992676 -0.113464057445526123
0.656215012073516846 1.32019329071044922 0.0737435221672058105
-0.877867579460144043 1.07126462459564209 -0.0342297255992889404
0.500693082809448242 -0.51713263988494873 0.138434544205665588
0.601503431797027588 1.02426302433013916 0.126928523182868958
0.591737806797027588 1.01305806636810303 0.244488582015037537
0.577951431274414062 0.806337594985961914 0.223773330450057983
-0.930993914604187012 0.964583635330200195 -0.0761449709534645081
0.501195430755615234 -0.519961118698120117 0.103718027472496033
-0.975031077861785889 0.93384319543838501 0.080130845308303833
0.666743040084838867 0.99210357666015625 0.312096953392028809
0.660733878612518311 -0.660776793956756592 0.0429531857371330261
1.79116165637969971 -0.599386096000671387 0.234474986791610718
0.531416773796081543 0.971165776252746582 -0.0289434343576431274
-0.875225305557250977 0.995537519454956055 0.00984098762273788452
0.477222740650177002 -0.451127618551254272 0.152072012424468994
0.48114091157913208 0.979699671268463135 0.0578163564205169678
0.539878964424133301 -0.550369858741760254 0.115500383079051971
1.70395886898040771 -0.550996601581573486 0.14711780846118927
-0.938962697982788086 0.819157958030700684 0.0174795240163803101
0.432464182376861572 -0.461496472358703613 -0.208029389381408691
-0.903218448162078857 1.15111446380615234 0.0790042802691459656
0.675624728202819824 -0.419692516326904297 0.191303849220275879
0.626386344432830811 1.07908546924591064 0.183309763669967651
0.449959158897399902 -0.520191967487335205 0.044123530387878418
1.76563763618469238 -0.452969968318939209 0.134279876947402954
0.525443971157073975 -0.449910610914230347 0.102157145738601685
0.546043515205383301 -0.588798046112060547 -0.0590859949588775635
0.537458062171936035 0.957000195980072021 0.221860915422439575
0.50047224760055542 -0.49950292706489563 0.109045654535293579
0.487887740135192871 0.974074065685272217 0.0707347691059112549
0.589846611022949219 0.857809782028198242 0.150595098733901978
-0.984584450721740723 1.09415984153747559 0.0461012944579124451
0.581822872161865234 0.889540493488311768 0.110358834266662598
0.637356281280517578 0.906010806560516357 0.162284776568412781
-0.881735920906066895 0.973051786422729492 -0.0942448675632476807
-0.950001835823059082 0.991648554801940918 0.0466393381357192993
