ply
format ascii 1.0
element vertex 256
comment vertices
property float x
property float y
property float z
end_header
-0.554370880126953125 0.833755016326904297 0.363514989614486694
-2.32325339317321777 -1.89957952499389648 0.437077492475509644
2.43246889114379883 1.75104987621307373 0.239991620182991028
0.637641370296478271 -1.90368151664733887 0.0455216467380523682
1.89277243614196777 0.626975536346435547 0.0743101537227630615
-0.372492581605911255 -0.928481578826904297 0.540070891380310059
-1.05543792247772217 -1.68169450759887695 0.0574133358895778656
0.841105282306671143 -0.548171281814575195 0.27551993727684021
0.978128314018249512 0.170155048370361328 0.376108884811401367
0.215115338563919067 -0.978621363639831543 0.223104476928710938
2.42981767654418945 1.75324761867523193 0.239605650305747986
0.823111116886138916 -0.549200117588043213 0.280084580183029175
-2.31737542152404785 -1.90281832218170166 0.424706757068634033
-0.368687689304351807 -0.924119532108306885 0.539325952529907227
0.973247408866882324 0.169039160013198853 0.376973748207092285
-0.555367350578308105 0.832343995571136475 0.369523435831069946
-1.05611646175384521 -1.681304931640625 0.0586182922124862671
1.90728235244750977 0.625307738780975342 0.0695177614688873291
1.90227675437927246 0.624757111072540283 0.0704897195100784302
0.214980021119117737 -0.980112016201019287 0.219074442982673645
-2.31954216957092285 -1.89579856395721436 0.441300272941589355
0.974247217178344727 0.168421477079391479 0.372383087873458862
-2.32920145988464355 -1.89091837406158447 0.427133888006210327
0.63268810510635376 -1.90334630012512207 0.0447912700474262238
2.43236684799194336 1.75609338283538818 0.236726567149162292
-1.04767227172851562 -1.68441951274871826 0.0589187592267990112
-0.365522801876068115 -0.92585378885269165 0.545516908168792725
-2.32936787605285645 -1.90128767490386963 0.434109777212142944
2.43134856224060059 1.75323629379272461 0.236978769302368164
0.826620638370513916 -0.549892008304595947 0.270427227020263672
0.213870331645011902 -0.972494184970855713 0.21835501492023468
-2.326812744140625 -1.89650428295135498 0.429372459650039673
-1.05551242828369141 -1.6825181245803833 0.0603153705596923828
0.973711133003234863 0.169811010360717773 0.37589755654335022
0.630598366260528564 -1.90209496021270752 0.04505934938788414
0.972000420093536377 0.167872324585914612 0.37617117166519165
0.638629138469696045 -1.9023444652557373 0.0451705381274223328
2.4335176944732666 1.75008821487426758 0.239939570426940918
0.97456127405166626 0.169312447309494019 0.376590490341186523
-2.3210904598236084 -1.89972782135009766 0.428665012121200562
1.9028247594833374 0.62444913387298584 0.0776953548192977905
-0.554965853691101074 0.834450304508209229 0.356193989515304565
1.90735387802124023 0.62114250659942627 0.0737773627042770386
0.973170161247253418 0.169924497604370117 0.374647676944732666
0.218645185232162476 -0.976203024387359619 0.219010904431343079
0.211199253797531128 -0.975271821022033691 0.217689231038093567
0.974559247493743896 0.170121580362319946 0.380972951650619507
2.43052077293395996 1.7565535306930542 0.239090651273727417
-1.057655930519104 -1.68559420108795166 0.0598510392010211945
0.217478692531585693 -0.977219223976135254 0.218361303210258484
-2.31662297248840332 -1.89364016056060791 0.428237944841384888
2.43222570419311523 1.75342154502868652 0.239372491836547852
0.97296065092086792 0.168546721339225769 0.375661373138427734
-2.32586789131164551 -1.89152622222900391 0.436057955026626587
-2.32670783996582031 -1.9034198522567749 0.443806678056716919
-0.371027857065200806 -0.927363157272338867 0.544823884963989258
0.808174312114715576 -0.556443452835083008 0.258805513381958008
-2.32742118835449219 -1.89829754829406738 0.433385342359542847
0.632206141948699951 -1.90321958065032959 0.0441130399703979492
-2.32678389549255371 -1.90559136867523193 0.422197967767715454
2.43129086494445801 1.75296664237976074 0.238133847713470459
0.212539508938789368 -0.979738235473632812 0.22268049418926239
0.216643422842025757 -0.977135717868804932 0.218171164393424988
2.43338227272033691 1.75174880027770996 0.240296795964241028
2.4317164421081543 1.74951612949371338 0.23617669939994812
0.972922861576080322 0.169943138957023621 0.376229315996170044
0.829908549785614014 -0.551602959632873535 0.27021479606628418
-0.370474398136138916 -0.934478104114532471 0.531563401222229004
2.43231511116027832 1.75573492050170898 0.23789726197719574
2.43342351913452148 1.75449943542480469 0.239775389432907104
0.9723471999168396 0.169272229075431824 0.377748548984527588
-0.369123667478561401 -0.926072597503662109 0.547445178031921387
0.838610529899597168 -0.550617575645446777 0.269363820552825928
0.972391724586486816 0.169799074530601501 0.377894848585128784
0.639490127563476562 -1.90443885326385498 0.0451490432024002075
-2.32871222496032715 -1.89918231964111328 0.430781275033950806
-0.555004239082336426 0.833327233791351318 0.350942760705947876
-0.553192853927612305 0.834029078483581543 0.351249724626541138
-1.05904853343963623 -1.68730378150939941 0.0588387325406074524
0.972131550312042236 0.170552849769592285 0.3791789710521698
0.216385722160339355 -0.97413027286529541 0.220597609877586365
-1.0603935718536377 -1.6862022876739502 0.0608216375112533569
1.90289294719696045 0.62306368350982666 0.0740471482276916504
-0.369529575109481812 -0.927462279796600342 0.547125458717346191
0.209120586514472961 -0.980192959308624268 0.21646079421043396
0.216855749487876892 -0.977305352687835693 0.218915417790412903
-2.32597899436950684 -1.89139842987060547 0.438644587993621826
-0.367910802364349365 -0.92299884557723999 0.525710344314575195
0.215836808085441589 -0.977251052856445312 0.220911011099815369
-2.31624674797058105 -1.89232099056243896 0.435071289539337158
-2.32101249694824219 -1.896903395652771 0.429167628288269043
0.978688240051269531 0.169206976890563965 0.376194566488265991
0.974144399166107178 0.169462457299232483 0.375369876623153687
1.89843583106994629 0.624215185642242432 0.0715722888708114624
1.90113997459411621 0.622165083885192871 0.0735015794634819031
-0.556663691997528076 0.833669304847717285 0.364227056503295898
1.90795648097991943 0.623210608959197998 0.0692480206489562988
-0.553943634033203125 0.83367311954498291 0.371694564819335938
-2.32468485832214355 -1.89598500728607178 0.432306408882141113
1.90618646144866943 0.621426165103912354 0.072197452187538147
-0.367469638586044312 -0.926680266857147217 0.541938245296478271
-2.33045411109924316 -1.89699316024780273 0.437803089618682861
0.212514966726303101 -0.977528393268585205 0.217716515064239502
0.822056353092193604 -0.552440166473388672 0.270776867866516113
2.43251299858093262 1.75322425365447998 0.239966720342636108
-0.372335731983184814 -0.92950814962387085 0.545677125453948975
0.973294615745544434 0.170442074537277222 0.375397861003875732
-2.32700514793395996 -1.90208101272583008 0.435287654399871826
0.638341009616851807 -1.90408873558044434 0.0442273728549480438
1.90275943279266357 0.626489400863647461 0.0735267698764801025
-2.32032871246337891 -1.90002584457397461 0.426252186298370361
-1.06166636943817139 -1.68450570106506348 0.058815300464630127
-2.32541441917419434 -1.89685440063476562 0.42997780442237854
0.97119373083114624 0.170628800988197327 0.382169961929321289
2.43123650550842285 1.75064313411712646 0.24049098789691925
0.217953622341156006 -0.976545572280883789 0.221092820167541504
-0.557675302028656006 0.835134923458099365 0.361025720834732056
0.813515305519104004 -0.533436596393585205 0.269606858491897583
0.976878345012664795 0.168379709124565125 0.375467985868453979
2.43092155456542969 1.75391519069671631 0.240129530429840088
2.43133234977722168 1.75316083431243896 0.238531827926635742
-2.3262181282043457 -1.90330708026885986 0.439780950546264648
0.637921452522277832 -1.90337932109832764 0.0449195802211761475
-0.365481287240982056 -0.923583984375 0.561995863914489746
2.43118786811828613 1.75271308422088623 0.238473430275917053
2.43060779571533203 1.75292956829071045 0.240592896938323975
0.215957164764404297 -0.977359175682067871 0.222723245620727539
-0.371624886989593506 -0.927900850772857666 0.535420835018157959
-1.05402815341949463 -1.6859900951385498 0.0608965195715427399
-2.3299102783203125 -1.89496076107025146 0.429468780755996704
-0.370972216129302979 -0.925331950187683105 0.542944252490997314
2.43318390846252441 1.75758731365203857 0.236968457698822021
0.634897053241729736 -1.90380322933197021 0.0433889254927635193
-2.32091546058654785 -1.89683032035827637 0.442704379558563232
0.639122486114501953 -1.90009415149688721 0.0422134920954704285
2.43276071548461914 1.75574994087219238 0.238664180040359497
-2.32476162910461426 -1.88607120513916016 0.443880170583724976
0.215326666831970215 -0.976908683776855469 0.218617662787437439
0.83102726936340332 -0.554159164428710938 0.268190205097198486
0.973818302154541016 0.170689389109611511 0.37885129451751709
0.974005937576293945 0.168292507529258728 0.374727785587310791
-2.32632589340209961 -1.90371203422546387 0.434082150459289551
-2.32241249084472656 -1.89918434619903564 0.429386675357818604
0.832919776439666748 -0.547065079212188721 0.270106852054595947
2.43220400810241699 1.7526242733001709 0.238864585757255554
2.4317772388458252 1.7523876428604126 0.240787327289581299
0.972298085689544678 0.169257014989852905 0.377998679876327515
0.214884564280509949 -0.97779548168182373 0.219686180353164673
-0.368896484375 -0.926494777202606201 0.554670095443725586
-0.366425395011901855 -0.926713526248931885 0.547178208827972412
0.211807355284690857 -0.978651821613311768 0.217568263411521912
-0.367189317941665649 -0.926121294498443604 0.547368645668029785
-1.05655825138092041 -1.68682849407196045 0.0609624013304710388
-0.369023144245147705 -0.927958130836486816 0.534236550331115723
-1.05586719512939453 -1.68474304676055908 0.0615270622074604034
0.217601075768470764 -0.976058661937713623 0.219796568155288696
2.43205022811889648 1.75310277938842773 0.239454090595245361
0.214074030518531799 -0.975421786308288574 0.218748033046722412
0.216517075896263123 -0.977046549320220947 0.219124436378479004
2.43186378479003906 1.75186371803283691 0.24059295654296875
-2.32544922828674316 -1.89938116073608398 0.426666915416717529
0.973270595073699951 0.169301435351371765 0.380026787519454956
0.975539982318878174 0.169295653700828552 0.374652117490768433
-1.04861128330230713 -1.68449544906616211 0.0579180717468261719
2.43165349960327148 1.7518913745880127 0.242121130228042603
-1.05228149890899658 -1.68268179893493652 0.0571623519062995911
1.90132260322570801 0.623828530311584473 0.07568398118019104
0.822886288166046143 -0.549594461917877197 0.267152249813079834
0.212967798113822937 -0.980672538280487061 0.217145547270774841
-0.371792733669281006 -0.926764905452728271 0.538037657737731934
0.971119821071624756 0.170115053653717041 0.379878193140029907
-0.366413027048110962 -0.924519538879394531 0.53169405460357666
0.974700570106506348 0.168835058808326721 0.378122925758361816
0.822080612182617188 -0.549390435218811035 0.272389769554138184
0.214605942368507385 -0.978204965591430664 0.220477104187011719
-0.558309435844421387 0.835298240184783936 0.370782464742660522
0.97209620475769043 0.170322030782699585 0.377668648958206177
0.638560354709625244 -1.90353929996490479 0.044392019510269165
0.974743664264678955 0.169028729200363159 0.377849429845809937
-0.551175475120544434 0.832045674324035645 0.35804826021194458
0.816105663776397705 -0.56541210412979126 0.276177316904067993
0.63455277681350708 -1.90175962448120117 0.0457074716687202454
0.215470924973487854 -0.977479338645935059 0.219618529081344604
1.90438151359558105 0.624710440635681152 0.0694581270217895508
1.90610980987548828 0.622874677181243896 0.0766676962375640869
-0.369045257568359375 -0.924731910228729248 0.534144461154937744
0.216688632965087891 -0.978153586387634277 0.221269354224205017
2.43213248252868652 1.75631380081176758 0.238891318440437317
0.640234410762786865 -1.90483486652374268 0.0444177240133285522
0.973700881004333496 0.169876962900161743 0.376538902521133423
-2.3248600959777832 -1.89449179172515869 0.435845673084259033
0.217279180884361267 -0.976278543472290039 0.219291806221008301
-1.05044615268707275 -1.6839069128036499 0.0582236088812351227
2.43121576309204102 1.7520824670791626 0.238573133945465088
0.214698344469070435 -0.977293848991394043 0.22672155499458313
-1.05687952041625977 -1.68371462821960449 0.0592468827962875366
-2.31704926490783691 -1.89828908443450928 0.426764428615570068
1.90419089794158936 0.627086281776428223 0.0727462172508239746
2.4318397045135498 1.75412797927856445 0.241010844707489014
-0.367953866720199585 -0.927781939506530762 0.542721211910247803
-2.32838010787963867 -1.8933330774307251 0.437774062156677246
0.973748922348022461 0.170210182666778564 0.377887547016143799
1.90469884872436523 0.623862385749816895 0.0714318528771400452
0.97345578670501709 0.170256674289703369 0.374446094036102295
0.63574683666229248 -1.9023360013961792 0.0450517535209655762
0.21355023980140686 -0.975684940814971924 0.217128396034240723
-0.370837748050689697 -0.925719559192657471 0.542035520076751709
2.43198966979980469 1.75482034683227539 0.239947587251663208
2.43276715278625488 1.75099313259124756 0.240639984607696533
0.83236163854598999 -0.548955380916595459 0.272259950637817383
0.972487151622772217 0.16896723210811615 0.377507805824279785
1.90333223342895508 0.623662471771240234 0.0745130479335784912
0.817274272441864014 -0.555368900299072266 0.268202811479568481
-1.05956947803497314 -1.6877741813659668 0.0601660497486591339
-2.32532072067260742 -1.89610552787780762 0.427622735500335693
-2.32828497886657715 -1.89487373828887939 0.427594363689422607
-2.3211669921875 -1.89858758449554443 0.435914278030395508
-2.32661247253417969 -1.90146028995513916 0.434967309236526489
0.975204706192016602 0.169476374983787537 0.375077247619628906
0.212141543626785278 -0.978705048561096191 0.219425171613693237
1.90327286720275879 0.621247351169586182 0.071863904595375061
1.90176999568939209 0.624748706817626953 0.0740197449922561646
-2.32032942771911621 -1.89845132827758789 0.425987303256988525
0.2122296541929245 -0.979726791381835938 0.21766054630279541
-2.31602382659912109 -1.89189565181732178 0.440771520137786865
-2.32808279991149902 -1.89314520359039307 0.436480820178985596
-0.371083110570907593 -0.92660599946975708 0.542577266693115234
-0.369694918394088745 -0.928439855575561523 0.532883882522583008
-2.32676982879638672 -1.89833962917327881 0.430570274591445923
2.43157958984375 1.753379225730896 0.237480506300926208
0.214265450835227966 -0.978805303573608398 0.218851059675216675
0.820851981639862061 -0.551770031452178955 0.265044122934341431
-0.555345892906188965 0.833979308605194092 0.362256884574890137
-2.32359004020690918 -1.89827311038970947 0.426532447338104248
0.975971102714538574 0.168897271156311035 0.378717780113220215
0.820284068584442139 -0.553088366985321045 0.272507369518280029
1.90896487236022949 0.624288022518157959 0.0729119777679443359
-2.32774257659912109 -1.90220177173614502 0.445651918649673462
-0.553152740001678467 0.833403050899505615 0.361213445663452148
-2.32017779350280762 -1.88790929317474365 0.446129530668258667
-0.555441915988922119 0.830892562866210938 0.361314326524734497
0.21471741795539856 -0.976292431354522705 0.22030329704284668
-2.32930111885070801 -1.90074872970581055 0.435065120458602905
0.216647624969482422 -0.97827225923538208 0.221590906381607056
0.634535908699035645 -1.90583574771881104 0.0439134500920772552
-2.32381558418273926 -1.89827060699462891 0.427861928939819336
-1.05394983291625977 -1.68621349334716797 0.0626735985279083252
1.90339970588684082 0.622711122035980225 0.074255824089050293
0.216388553380966187 -0.976140141487121582 0.221104860305786133
-0.555899560451507568 0.834370076656341553 0.36048656702041626
1.90337455272674561 0.622497975826263428 0.0752396285533905029
2.43213176727294922 1.75536251068115234 0.24001215398311615
0.976166009902954102 0.16890031099319458 0.376171380281448364
0.835718870162963867 -0.550522387027740479 0.272603690624237061
0.213175550103187561 -0.979581892490386963 0.221468463540077209
2.43103146553039551 1.75391232967376709 0.239407598972320557
