ply
format ascii 1.0
element vertex 256
comment vertices
property float x
property float y
property float z
end_header
-0.42076188325881958 -0.901675283908843994 0.39465707540512085
1.28128361701965332 1.54067587852478027 0.258326828479766846
-1.69092488288879395 1.07392072677612305 0.323871761560440063
-1.46223723888397217 -1.36591744422912598 0.320110589265823364
0.343482881784439087 0.932235836982727051 0.379759699106216431
-0.737709939479827881 0.65706944465637207 0.445224165916442871
-0.69986116886138916 -1.86893773078918457 0.429010868072509766
0.871476531028747559 0.488234162330627441 0.0952961593866348267
0.592935562133789062 -0.806823015213012695 0.123933464288711548
-1.44906413555145264 -1.36444771289825439 0.325394868850708008
-1.69533681869506836 1.07923483848571777 0.327885627746582031
-0.438660919666290283 -0.892701148986816406 0.391118943691253662
0.873950719833374023 0.470839709043502808 0.193095624446868896
-0.779190957546234131 0.653487920761108398 0.426643610000610352
0.328005939722061157 0.948426604270935059 0.381072640419006348
-1.11371493339538574 -1.68130302429199219 0.320187389850616455
-1.15846514701843262 -1.67128551006317139 0.424738258123397827
1.28230428695678711 1.52534198760986328 0.247636169195175171
0.59472966194152832 -0.810400485992431641 0.126771822571754456
-1.48296439647674561 -1.36535501480102539 0.320187777280807495
-0.435689628124237061 -0.897169947624206543 0.412480741739273071
-1.46950447559356689 -1.36030268669128418 0.341555595397949219
-1.68504214286804199 1.07397103309631348 0.327242136001586914
-0.755332112312316895 0.69097137451171875 0.444842159748077393
-1.69336521625518799 1.08961629867553711 0.32592475414276123
-0.433038294315338135 -0.900265514850616455 0.414712339639663696
-0.422469079494476318 -0.897886037826538086 0.41058620810508728
-0.695234298706054688 -1.86557877063751221 0.422352820634841919
-0.77016139030456543 0.648596107959747314 0.434686094522476196
0.33609384298324585 0.940674960613250732 0.391323566436767578
-0.711984515190124512 -1.87121331691741943 0.399690777063369751
1.28736019134521484 1.5347064733505249 0.252986162900924683
0.87996983528137207 0.496256560087203979 0.0937901735305786133
-1.68513154983520508 1.07656192779541016 0.326868683099746704
1.28758847713470459 1.53456807136535645 0.255290031433105469
-0.679172754287719727 -1.87882077693939209 0.419708490371704102
0.593225002288818359 -0.818413734436035156 0.121805347502231598
-1.46272873878479004 -1.3725578784942627 0.330795496702194214
-0.448774099349975586 -0.906246364116668701 0.402445524930953979
-1.50360655784606934 -1.37389278411865234 0.321921765804290771
0.325912803411483765 0.940369367599487305 0.388215005397796631
-1.48497986793518066 -1.3608013391494751 0.329050958156585693
-0.742478787899017334 0.638638734817504883 0.424899190664291382
0.595310568809509277 -0.80179893970489502 0.114144653081893921
-1.68957352638244629 1.07884085178375244 0.330864280462265015
-1.68749821186065674 1.0744553804397583 0.335095077753067017
0.334699481725692749 0.931531786918640137 0.369671434164047241
-0.765408217906951904 0.605881810188293457 0.434699088335037231
-1.47449934482574463 -1.35670971870422363 0.328006953001022339
-0.43653792142868042 -0.890233397483825684 0.406258612871170044
-0.767566382884979248 0.647678613662719727 0.455527901649475098
0.33087533712387085 0.932700037956237793 0.376343786716461182
-0.761706709861755371 0.648263037204742432 0.430632144212722778
-1.69291067123413086 1.08231663703918457 0.318383455276489258
0.595752954483032227 -0.80917513370513916 0.125964701175689697
0.325601398944854736 0.953171193599700928 0.381707340478897095
-1.45772194862365723 -1.37508547306060791 0.315970361232757568
-0.757716476917266846 -1.86630582809448242 0.392183512449264526
1.28513610363006592 1.53115415573120117 0.252247989177703857
-0.429250895977020264 -0.89430391788482666 0.412325561046600342
-1.07668185234069824 -1.66866683959960938 0.385223984718322754
-0.433009982109069824 -0.899461686611175537 0.411762923002243042
-0.698095440864562988 -1.8727419376373291 0.437490969896316528
-1.6884305477142334 1.06694018840789795 0.324319243431091309
-0.416003674268722534 -0.899332225322723389 0.406585782766342163
-1.08845913410186768 -1.65436828136444092 0.351079881191253662
1.29391765594482422 1.5404057502746582 0.248726725578308105
1.27456212043762207 1.5210716724395752 0.258064746856689453
1.29245507717132568 1.53304028511047363 0.254424154758453369
-0.697271287441253662 -1.88342773914337158 0.39478728175163269
0.586731016635894775 -0.805778861045837402 0.120678871870040894
0.330965727567672729 0.939204931259155273 0.384439319372177124
-0.709324240684509277 -1.88027238845825195 0.415634334087371826
0.335086673498153687 0.932935833930969238 0.377105921506881714
1.28908693790435791 1.52413308620452881 0.264439582824707031
-0.769779443740844727 0.644245624542236328 0.442731857299804688
1.29090189933776855 1.54190599918365479 0.258349716663360596
1.2745746374130249 1.52017855644226074 0.255955308675765991
0.596064329147338867 -0.803267359733581543 0.11681307852268219
0.329376220703125 0.937322497367858887 0.373399823904037476
-1.69650208950042725 1.08040070533752441 0.330184966325759888
-0.811507999897003174 -1.86964476108551025 0.381592005491256714
-1.68897521495819092 1.07963347434997559 0.334687650203704834
0.336610734462738037 0.944060444831848145 0.378499209880828857
0.585447907447814941 -0.803336977958679199 0.12729586660861969
-1.31996786594390869 -1.52968466281890869 0.37311968207359314
0.589216291904449463 -0.802761197090148926 0.123985476791858673
0.582403063774108887 -0.802078604698181152 0.122057065367698669
-1.46733486652374268 -1.36933636665344238 0.328302830457687378
-0.772209286689758301 0.640824317932128906 0.425913900136947632
-1.6911548376083374 1.08918201923370361 0.326905250549316406
0.868670165538787842 0.483904361724853516 0.089456707239151001
1.28964293003082275 1.54314064979553223 0.262709081172943115
-0.69276803731918335 -1.8771587610244751 0.422838330268859863
1.28370893001556396 1.52220058441162109 0.250810205936431885
-1.47704768180847168 -1.37288451194763184 0.325959175825119019
0.317298412322998047 0.934432506561279297 0.385241955518722534
-1.68737781047821045 1.07621300220489502 0.323357045650482178
-1.07136070728302002 -1.66027045249938965 0.378981828689575195
-0.719752490520477295 -1.87979483604431152 0.386826425790786743
-1.68391942977905273 1.08172035217285156 0.336444705724716187
-0.760281503200531006 0.662074089050292969 0.415412664413452148
0.877761960029602051 0.488299638032913208 0.102961361408233643
0.590973436832427979 -0.812492012977600098 0.121890798211097717
0.330504119396209717 0.934067368507385254 0.384850561618804932
-0.718416929244995117 -1.87321627140045166 0.436084061861038208
-0.425965070724487305 -0.900902450084686279 0.410656511783599854
-1.48671352863311768 -1.36420035362243652 0.315549761056900024
-0.76000511646270752 0.644141077995300293 0.437920540571212769
0.320665597915649414 0.94313502311706543 0.395043700933456421
-1.69133841991424561 1.07440769672393799 0.332482337951660156
-0.689750790596008301 -1.88984918594360352 0.420048534870147705
0.594350576400756836 -0.810560822486877441 0.118407353758811951
-1.45895159244537354 -1.37148761749267578 0.321380376815795898
-1.46806144714355469 -1.37378668785095215 0.321732223033905029
-0.767615020275115967 0.64211738109588623 0.448349654674530029
0.877497851848602295 0.498674392700195312 0.0791736394166946411
-1.48975229263305664 -1.37118816375732422 0.315408289432525635
-1.47172057628631592 -1.35921871662139893 0.316829919815063477
-1.47889375686645508 -1.35491287708282471 0.312478154897689819
-0.424376606941223145 -0.903892040252685547 0.417976677417755127
0.588442683219909668 -0.812283515930175781 0.129703670740127563
-1.48315954208374023 -1.36511468887329102 0.313440322875976562
-0.434784024953842163 -0.896668314933776855 0.416008472442626953
-0.786478042602539062 0.646401166915893555 0.440293103456497192
-1.45383810997009277 -1.36239814758300781 0.330985516309738159
-0.424325525760650635 -0.90580141544342041 0.411903738975524902
0.604742705821990967 -0.802617430686950684 0.129532575607299805
0.317808032035827637 0.945535719394683838 0.395183205604553223
-1.47472643852233887 -1.37765014171600342 0.322850674390792847
-0.734877288341522217 -1.87186121940612793 0.39864879846572876
-1.69132411479949951 1.08381545543670654 0.322613626718521118
-0.4283713698387146 -0.897126138210296631 0.418088138103485107
-0.42688027024269104 -0.899154305458068848 0.421400845050811768
0.333525419235229492 0.941006660461425781 0.37582668662071228
-1.69050300121307373 1.07204818725585938 0.32111358642578125
-1.46727669239044189 -1.36618423461914062 0.320930033922195435
-0.766427755355834961 0.657375693321228027 0.447050124406814575
-1.09694647789001465 -1.66735148429870605 0.367575019598007202
-0.432297736406326294 -0.892638921737670898 0.396596670150756836
1.28891324996948242 1.53125381469726562 0.25365060567855835
-0.43608015775680542 -0.900316596031188965 0.406661719083786011
0.602468669414520264 -0.808027207851409912 0.121329575777053833
0.595428705215454102 -0.80506134033203125 0.122213855385780334
-0.444301038980484009 -0.896892547607421875 0.413063764572143555
0.591686785221099854 -0.80994415283203125 0.124912440776824951
1.29311537742614746 1.52681815624237061 0.2528114914894104
1.29552698135375977 1.54189181327819824 0.257160693407058716
-0.689830124378204346 -1.86287868022918701 0.430609196424484253
-1.68510007858276367 1.0734717845916748 0.329161643981933594
-0.757188081741333008 0.644291341304779053 0.443373322486877441
-0.435823261737823486 -0.903694093227386475 0.398702412843704224
-0.691842913627624512 -1.87721896171569824 0.405046552419662476
1.28039979934692383 1.52557528018951416 0.253422141075134277
0.584221422672271729 -0.805796980857849121 0.11830475926399231
-1.69219255447387695 1.06816244125366211 0.326887011528015137
-0.687576651573181152 -1.87756669521331787 0.403636515140533447
1.28901052474975586 1.53880441188812256 0.255696356296539307
0.602072477340698242 -0.813933908939361572 0.116630785167217255
-1.47517251968383789 -1.3545461893081665 0.283139795064926147
-0.766296803951263428 0.648801803588867188 0.439683675765991211
-1.69959616661071777 1.07509326934814453 0.341549783945083618
0.322091192007064819 0.948752880096435547 0.386611461639404297
-1.69207215309143066 1.07091951370239258 0.327196598052978516
-0.423899173736572266 -0.899900078773498535 0.407088279724121094
0.587828159332275391 -0.804265916347503662 0.12358393520116806
1.29503858089447021 1.53500425815582275 0.256157517433166504
0.599201500415802002 -0.811672866344451904 0.122380852699279785
0.606281101703643799 -0.79813915491104126 0.116463981568813324
-1.69103085994720459 1.07447242736816406 0.318596988916397095
-1.01743066310882568 -1.59214937686920166 0.369351327419281006
0.342091649770736694 0.929310321807861328 0.366435527801513672
-1.04117429256439209 -1.671927809715271 0.362060666084289551
-1.14160370826721191 -1.67751085758209229 0.371975868940353394
-1.69146895408630371 1.07634162902832031 0.320166796445846558
0.585131168365478516 -0.807613790035247803 0.125479668378829956
-0.771568119525909424 0.649171233177185059 0.441479206085205078
0.321978002786636353 0.943244993686676025 0.387071549892425537
-0.426722735166549683 -0.898667216300964355 0.416464239358901978
-1.68896722793579102 1.09338986873626709 0.331317394971847534
0.324434876441955566 0.938444435596466064 0.377587109804153442
-0.706280708312988281 -1.88017880916595459 0.436907559633255005
-1.46888172626495361 -1.35348832607269287 0.331342011690139771
-1.47508418560028076 -1.36301159858703613 0.330238550901412964
0.595475852489471436 -0.804771065711975098 0.124391637742519379
0.866590738296508789 0.490448057651519775 0.0848389863967895508
-1.6893686056137085 1.08013343811035156 0.32924807071685791
-0.425530910491943359 -0.895197510719299316 0.389936387538909912
0.323797136545181274 0.94040834903717041 0.386847466230392456
-1.46339261531829834 -1.37661206722259521 0.329876363277435303
0.330954670906066895 0.936432361602783203 0.37611117959022522
-0.697756171226501465 -1.87171459197998047 0.422083199024200439
-0.421713948249816895 -0.897563159465789795 0.405077755451202393
-0.689254522323608398 -1.8884272575378418 0.428841650485992432
0.601732194423675537 -0.810338020324707031 0.123389996588230133
1.29571032524108887 1.53486442565917969 0.264458805322647095
-1.47420680522918701 -1.35740840435028076 0.333538711071014404
-1.48575592041015625 -1.37526082992553711 0.316527992486953735
0.327463805675506592 0.934730768203735352 0.383866667747497559
0.590976357460021973 -0.807347774505615234 0.123492211103439331
1.2988046407699585 1.53017675876617432 0.247720837593078613
0.592559814453125 -0.803254067897796631 0.11530642956495285
-1.69393539428710938 1.07559168338775635 0.334002226591110229
0.587898135185241699 -0.80276942253112793 0.131506860256195068
0.335744023323059082 0.933536887168884277 0.38120153546333313
-0.699585080146789551 -1.87097537517547607 0.394596278667449951
1.28759372234344482 1.52707779407501221 0.248412460088729858
0.595637917518615723 -0.810385406017303467 0.129197865724563599
-1.4535517692565918 -1.36682415008544922 0.323173791170120239
1.27983081340789795 1.52363777160644531 0.253918945789337158
1.27786517143249512 1.53474581241607666 0.251246809959411621
0.875475943088531494 0.491897225379943848 0.0923094525933265686
0.318513989448547363 0.946092784404754639 0.382481932640075684
-1.48743307590484619 -1.36627006530761719 0.322315752506256104
1.29555034637451172 1.53282368183135986 0.255616426467895508
-0.441203296184539795 -0.900943219661712646 0.418606102466583252
1.28832995891571045 1.52751302719116211 0.260313421487808228
-0.424522846937179565 -0.903708577156066895 0.4122467041015625
-1.69100284576416016 1.0817558765411377 0.328700006008148193
-0.766052365303039551 0.647010564804077148 0.427718698978424072
1.29162490367889404 1.53389573097229004 0.260659396648406982
-0.759916901588439941 0.647500038146972656 0.424601316452026367
-1.69130146503448486 1.07971477508544922 0.330540001392364502
-1.46590936183929443 -1.35683345794677734 0.331883043050765991
1.28957986831665039 1.54558908939361572 0.251477211713790894
-1.6896212100982666 1.08101367950439453 0.325524747371673584
-0.767210245132446289 0.640721678733825684 0.439892858266830444
-1.70317530632019043 1.07706093788146973 0.334879606962203979
0.589871764183044434 -0.811017751693725586 0.119873322546482086
-1.68786346912384033 1.08284592628479004 0.320602446794509888
-1.4652484655380249 -1.37189376354217529 0.323032736778259277
-1.47690320014953613 -1.37734651565551758 0.319783866405487061
0.596681356430053711 -0.809371292591094971 0.122061245143413544
-0.76152414083480835 0.646946251392364502 0.441217154264450073
0.871730625629425049 0.492561757564544678 0.0932862758636474609
1.29365384578704834 1.54101145267486572 0.25738486647605896
-1.47512435913085938 -1.36718523502349854 0.316012680530548096
-1.44618654251098633 -1.33090686798095703 0.31532624363899231
0.345283806324005127 0.943360090255737305 0.3833598792552948
-0.420078665018081665 -0.8987884521484375 0.403919696807861328
-0.698336601257324219 -1.88225150108337402 0.398678243160247803
-0.762921690940856934 0.644665896892547607 0.437942802906036377
-1.47006237506866455 -1.37016987800598145 0.324749678373336792
-1.6924508810043335 1.0804903507232666 0.32733878493309021
0.593356013298034668 -0.811106503009796143 0.123733848333358765
0.590126514434814453 -0.812716424465179443 0.120343461632728577
0.324413508176803589 0.9394683837890625 0.393741577863693237
0.588428854942321777 -0.809886515140533447 0.13022187352180481
-1.6887441873550415 1.08893036842346191 0.33585047721862793
-0.773126065731048584 0.647436320781707764 0.419958412647247314
1.27913069725036621 1.54129672050476074 0.266014397144317627
-1.45841383934020996 -1.36643767356872559 0.325120002031326294
-1.47144794464111328 -1.36917543411254883 0.327356725931167603
-1.4702293872833252 -1.35755276679992676 0.312021821737289429
0.613095998764038086 -0.815225481986999512 0.114937528967857361
-0.430967092514038086 -0.895824193954467773 0.407189726829528809
