ply
format ascii 1.0
element vertex 64
comment vertices
property float x
property float y
property float z
end_header
-0.380290836095809937 -0.924866974353790283 0.504060208797454834
0.841702580451965332 -0.53994143009185791 0.293247371912002563
0.9851951003074646 0.17143683135509491 0.371275097131729126
-1.07142531871795654 -1.68880069255828857 0.0616822242736816406
1.89789378643035889 0.630871713161468506 0.0687473118305206299
-0.555090844631195068 0.831789731979370117 0.365989863872528076
2.43110394477844238 1.75776386260986328 0.239802762866020203
-2.32701325416564941 -1.89341211318969727 0.424394100904464722
0.211921513080596924 -0.977286696434020996 0.206128314137458801
0.627350330352783203 -1.89906072616577148 0.0441526807844638824
0 0 0
0 0 0
0 0 0
0 0 0
0 0 0
0 0 0
0 0 0
0 0 0
0 0 0
0 0 0
0 0 0
0 0 0
0 0 0
0 0 0
0 0 0
0 0 0
0 0 0
0 0 0
0 0 0
0 0 0
0 0 0
0 0 0
0 0 0
0 0 0
0 0 0
0 0 0
0 0 0
0 0 0
0 0 0
0 0 0
0 0 0
0 0 0
0 0 0
0 0 0
0 0 0
0 0 0
0 0 0
0 0 0
0 0 0
0 0 0
0 0 0
0 0 0
0 0 0
0 0 0
0 0 0
0 0 0
0 0 0
0 0 0
0 0 0
0 0 0
0 0 0
0 0 0
0 0 0
0 0 0
