ply
format ascii 1.0
element vertex 256
comment vertices
property float x
property float y
property float z
end_header
0.572052896022796631 2.99396634101867676 0.0411009788513183594
-3.1220705509185791 -2.48654580116271973 0.86438453197479248
2.54252481460571289 -2.02636361122131348 0.00176974758505821228
-2.49174809455871582 1.63504016399383545 -0.38011401891708374
0.000393606722354888916 -0.396796703338623047 0.497376739978790283
-3.25487947463989258 0.186463519930839539 0.810424685478210449
-1.11193227767944336 1.53153479099273682 0.906911671161651611
-2.40356683731079102 -0.763788819313049316 -0.336372792720794678
0.482240021228790283 1.20244228839874268 0.239799916744232178
1.11085879802703857 0.697250962257385254 1.27986538410186768
0.583009779453277588 -2.02337765693664551 -0.0777691751718521118
-1.28177714347839355 3.02887988090515137 0.081885114312171936
2.15456390380859375 -0.515135586261749268 0.0948807671666145325
-1.36571156978607178 0.419045299291610718 0.0524181872606277466
-0.932244837284088135 -1.13721799850463867 0.113263458013534546
-2.45611786842346191 2.31571412086486816 0.746707618236541748
-3.58179712295532227 0.304009199142456055 -0.600514650344848633
-2.64200997352600098 -2.22844910621643066 -0.337679088115692139
-2.73990845680236816 -1.41688907146453857 0.622750282287597656
1.88090837001800537 2.89883041381835938 -0.240529194474220276
1.1300431489944458 0.645108580589294434 0.153362572193145752
1.05029094219207764 -0.744755685329437256 0.670190930366516113
-0.421610444784164429 1.76594865322113037 0.358497321605682373
1.01558589935302734 -0.849070250988006592 0.322957754135131836
-1.02772641181945801 0.710527479648590088 0.852781355381011963
-2.90296363830566406 -0.0123183727264404297 0.316220283508300781
-2.28171110153198242 2.05397462844848633 0.379905015230178833
-1.34142839908599854 -0.3451366126537323 0.130076900124549866
3.72684240341186523 -1.64056801795959473 0.00576486438512802124
1.62100768089294434 -1.52638494968414307 0.234087496995925903
-1.54147589206695557 1.67692124843597412 -0.661008298397064209
0.54385983943939209 1.33566319942474365 0.493116080760955811
-3.23080945014953613 -0.488391727209091187 0.36801639199256897
-2.17710566520690918 -2.09589910507202148 0.746736466884613037
-2.51311564445495605 1.99239122867584229 0.807922244071960449
-0.172104835510253906 0.839281797409057617 0.31879955530166626
-2.43257236480712891 0.207493782043457031 -0.556638598442077637
-2.07269001007080078 2.1392056941986084 0.151154279708862305
0.144821077585220337 -1.46945047378540039 0.326571524143218994
-0.587517797946929932 -0.399652242660522461 -0.0654000788927078247
-0.399049073457717896 3.07178640365600586 0.162480413913726807
0.0518570207059383392 0.339140355587005615 -0.536736905574798584
-1.48605704307556152 -1.18371820449829102 0.151243105530738831
-3.25008630752563477 -0.401092290878295898 0.637481272220611572
-2.14435815811157227 2.24803304672241211 0.384018778800964355
-2.57875943183898926 -2.3521873950958252 0.0757465064525604248
1.12712740898132324 2.9193580150604248 0.380767107009887695
-1.40756380558013916 1.83710622787475586 -0.0675529465079307556
0.696536362171173096 1.20143401622772217 0.238124102354049683
1.0552527904510498 -0.742678582668304443 0.37949669361114502
2.55998420715332031 -1.69429552555084229 0.0194222033023834229
-2.29462671279907227 1.99915897846221924 0.325005620718002319
-0.834274530410766602 1.02943122386932373 0.451527178287506104
-2.84797096252441406 -1.7583467960357666 0.72777557373046875
0.167061686515808105 -0.898048341274261475 0.135354757308959961
-3.61682009696960449 -0.595593512058258057 -0.544569909572601318
-2.56016349792480469 -0.350286036729812622 0.173845157027244568
-3.10148859024047852 -0.101725637912750244 0.434170246124267578
-0.0299573242664337158 3.01466751098632812 0.0135109126567840576
-1.59279251098632812 0.326703578233718872 0.0430302843451499939
-2.35547256469726562 -1.6703188419342041 0.0417512059211730957
1.39505577087402344 -2.21906661987304688 -0.080195695161819458
-0.580567717552185059 0.492692887783050537 0.429326534271240234
-2.6196601390838623 2.56904697418212891 -0.437303662300109863
0.135668233036994934 1.84248101711273193 -0.154930785298347473
-1.27267837524414062 0.806246519088745117 -0.365214228630065918
-2.52491021156311035 1.81340014934539795 0.295000046491622925
-0.947526097297668457 -0.911809027194976807 0.166421711444854736
-3.13082480430603027 -0.156921401619911194 0.52174222469329834
1.24708962440490723 0.607010185718536377 0.0400251336395740509
-2.07083272933959961 -0.953711867332458496 0.745964705944061279
-1.31122803688049316 -0.939818143844604492 0.160944044589996338
-2.63792300224304199 -1.63905930519104004 0.626556277275085449
0.474781632423400879 1.2794196605682373 1.09295415878295898
-2.18798112869262695 2.16850113868713379 0.754303216934204102
0.44360041618347168 -0.33912736177444458 0.154260382056236267
-1.30060815811157227 0.232882916927337646 0.0616778135299682617
1.5653083324432373 -1.00509285926818848 -0.103157453238964081
1.08134603500366211 0.733669757843017578 0.321988582611083984
-1.91385650634765625 1.20889174938201904 0.0766078680753707886
0.108534187078475952 -0.913842320442199707 0.470904827117919922
1.48085570335388184 -0.422026842832565308 -0.134631365537643433
-0.077250257134437561 0.101073667407035828 0.0569163411855697632
0.67743682861328125 -1.33082842826843262 0.10812772810459137
-1.98278260231018066 1.67113983631134033 -0.00690996646881103516
0.816713631153106689 2.90690946578979492 0.258892178535461426
-3.23856949806213379 0.207820862531661987 0.137648165225982666
0.504243016242980957 -1.29791688919067383 0.0901537090539932251
1.03867208957672119 0.708853483200073242 0.0793102830648422241
-1.60986053943634033 -0.297302275896072388 0.0669288411736488342
-2.7247767448425293 -1.02623796463012695 0.157532691955566406
-2.70989632606506348 -1.82810878753662109 0.593893945217132568
2.88933396339416504 -1.67047309875488281 0.0482487604022026062
-0.514575958251953125 3.0820162296295166 0.0946429669857025146
-0.426436930894851685 -1.21015036106109619 0.118091948330402374
-0.895014643669128418 1.37785172462463379 0.607758700847625732
0.889552474021911621 1.09488677978515625 0.781950831413269043
-0.744706630706787109 1.06653499603271484 0.324219942092895508
-0.912374675273895264 1.01020002365112305 0.562557041645050049
-2.42235803604125977 2.11514186859130859 0.420195341110229492
-2.35433316230773926 0.406829953193664551 -0.18055407702922821
0.876880228519439697 0.94285351037979126 0.329932332038879395
2.40201568603515625 -1.67940902709960938 0.0519857853651046753
-3.12471461296081543 -0.140238970518112183 0.40123981237411499
-2.08013176918029785 1.98479986190795898 0.393677592277526855
-1.25068116188049316 -0.505748212337493896 0.0711259245872497559
-0.974079549312591553 0.819095015525817871 0.458078742027282715
-2.07688117027282715 1.92736482620239258 0.838993608951568604
-2.37603616714477539 2.14430046081542969 0.587391197681427002
-0.319970369338989258 1.36458742618560791 0.243173539638519287
-0.968484401702880859 -0.942235767841339111 0.0989506244659423828
-3.15111494064331055 -0.151707470417022705 0.408914387226104736
-0.225785106420516968 3.0557403564453125 0.0823136866092681885
-0.878449082374572754 1.70391130447387695 0.349349230527877808
-2.43708086013793945 -0.588829159736633301 -0.672176778316497803
-1.98090910911560059 2.37124443054199219 -0.443898916244506836
0.0315979272127151489 0.431720495223999023 -0.0044453740119934082
-2.51668357849121094 2.28541088104248047 0.408864915370941162
0.192813396453857422 1.60959994792938232 -0.656231284141540527
-1.12416684627532959 -0.932059109210968018 0.135391443967819214
-2.24377322196960449 2.26460528373718262 0.765073299407958984
-2.78318119049072266 -1.35498905181884766 0.110288470983505249
-0.980358123779296875 -0.936534523963928223 0.248920291662216187
0.755878627300262451 2.99254894256591797 0.222503557801246643
0.256623953580856323 -1.75212931632995605 0.126836851239204407
-0.766210496425628662 1.00557971000671387 0.35380852222442627
0.704623162746429443 1.13256287574768066 0.199552074074745178
2.19008922576904297 -2.63043928146362305 0.0561317205429077148
-2.34717750549316406 -1.98086309432983398 0.179054856300354004
-2.06273770332336426 2.20782470703125 0.281548619270324707
0.826728761196136475 3.0322425365447998 0.349383771419525146
0.555468738079071045 1.2009437084197998 0.374878823757171631
-1.82707858085632324 2.52127385139465332 0.116915598511695862
-2.63747096061706543 2.38573884963989258 0.0915803611278533936
1.78207063674926758 2.94152045249938965 0.085794694721698761
-2.71300530433654785 -1.73948895931243896 0.689613819122314453
-2.7499854564666748 -0.127591595053672791 0.311835497617721558
-1.16583573818206787 -0.364987194538116455 0.0554708987474441528
-2.35196280479431152 0.55361860990524292 0.148349866271018982
-2.36263489723205566 1.98563241958618164 0.635844826698303223
-2.6002814769744873 -1.90728616714477539 0.420668870210647583
-1.02986049652099609 1.24225270748138428 0.362241059541702271
-2.05515933036804199 2.3597254753112793 0.794305741786956787
-1.31928730010986328 -0.00681019201874732971 0.010035291314125061
-2.23859596252441406 2.11754107475280762 0.346879094839096069
1.7374112606048584 -1.84897458553314209 0.0979978442192077637
-3.15417218208312988 -0.292583733797073364 0.614496350288391113
1.73581397533416748 -1.20729684829711914 0.138516902923583984
1.08530819416046143 0.695397377014160156 0.132484704256057739
-2.17064952850341797 2.07981038093566895 0.500370919704437256
1.46327328681945801 -1.77668905258178711 -0.0221901163458824158
-3.10053849220275879 -0.108647905290126801 0.406460583209991455
0.674055278301239014 -1.27205944061279297 0.0736610591411590576
-0.739637374877929688 0.36749836802482605 0.139723435044288635
-0.201006308197975159 -0.367564290761947632 0.0585012286901473999
-1.55136251449584961 -0.380133390426635742 0.16413608193397522
-0.0814817249774932861 3.07066988945007324 0.155617475509643555
2.60541272163391113 -1.73490238189697266 0.000544980168342590332
-0.592380762100219727 -0.902139604091644287 0.0664159730076789856
1.04404783248901367 0.573334217071533203 0.111025720834732056
-1.17724502086639404 0.367945343255996704 -0.214013725519180298
-1.09373033046722412 -1.06360077857971191 0.0636425167322158813
-2.33017230033874512 -1.64658594131469727 0.55813300609588623
-2.58280277252197266 1.55370879173278809 -0.247000336647033691
-2.53655552864074707 -0.967371761798858643 0.498617351055145264
-2.83485698699951172 -1.39696776866912842 0.71104663610458374
-1.41384792327880859 -0.355596601963043213 0.0778816640377044678
0.718765318393707275 1.20123386383056641 0.22460019588470459
-0.831792831420898438 3.04719853401184082 0.0806969702243804932
-2.43709731101989746 -1.3669503927230835 0.656917691230773926
0.186905369162559509 -1.25489258766174316 0.304111123085021973
-2.48981046676635742 1.91961359977722168 0.0801779031753540039
0.88145977258682251 0.996586918830871582 0.367465317249298096
2.26685070991516113 -0.96764981746673584 0.0926965773105621338
0.873331546783447266 0.960343062877655029 0.221637636423110962
0.684808790683746338 -1.26482462882995605 0.0689742714166641235
-1.64625668525695801 0.72231602668762207 0.114118382334709167
-2.23162460327148438 2.02056598663330078 0.695205807685852051
0.780154705047607422 -1.27331733703613281 0.0321739092469215393
-2.27579069137573242 2.02560210227966309 0.407863765954971313
-0.874786257743835449 -1.09993720054626465 0.236218541860580444
-2.32408380508422852 -2.34179520606994629 0.758817315101623535
-1.12108385562896729 3.00806522369384766 0.196211546659469604
-2.71179795265197754 -1.65951502323150635 0.665282905101776123
-3.54125094413757324 -0.616015076637268066 -0.149646997451782227
0.346736401319503784 2.9793248176574707 0.0720366761088371277
-2.31508851051330566 2.1926729679107666 0.744273662567138672
1.20371925830841064 0.671137392520904541 0.109598323702812195
-2.77884221076965332 -1.71460473537445068 0.507395744323730469
-2.32886791229248047 1.80973803997039795 0.226920962333679199
0.372164934873580933 -0.751978218555450439 0.163809314370155334
-1.26985442638397217 0.2734031081199646 0.0476050637662410736
-0.460980057716369629 3.0252985954284668 0.140022307634353638
-1.04703998565673828 -0.980960607528686523 0.155168861150741577
1.10725975036621094 0.737783670425415039 0.77736210823059082
-1.32050907611846924 -1.01898729801177979 0.245020046830177307
-0.281847864389419556 3.05501818656921387 0.245191037654876709
0.566464066505432129 -1.33291876316070557 0.00766997039318084717
-2.36269378662109375 -0.629523396492004395 -0.0355171859264373779
-0.181495234370231628 1.86936557292938232 0.135336250066757202
-2.57947540283203125 2.01940536499023438 0.286505907773971558
1.29972219467163086 -0.535940587520599365 0.353699982166290283
-0.75301128625869751 0.934981107711791992 0.343712568283081055
1.05215871334075928 -0.741975903511047363 0.4616202712059021
-2.10599827766418457 1.87646293640136719 0.318741410970687866
-0.571923255920410156 -0.201083824038505554 0.0635994672775268555
-1.5459752082824707 1.64592576026916504 -0.478048831224441528
1.12460196018218994 -0.665097534656524658 0.364543288946151733
-0.90331721305847168 1.03338956832885742 0.609113097190856934
-3.56261324882507324 0.268652677536010742 -0.300475001335144043
-0.8565177321434021 0.779954075813293457 0.313485503196716309
-1.61864101886749268 -0.373718947172164917 0.0922906175255775452
-1.27040839195251465 -0.209409281611442566 0.060026220977306366
-2.08400154113769531 2.21437263488769531 0.574433565139770508
0.0830673873424530029 -1.20913207530975342 0.082620576024055481
-0.933230400085449219 1.27507960796356201 0.739058017730712891
-3.15660572052001953 -0.162341699004173279 0.511923551559448242
-2.15641546249389648 2.07297635078430176 0.310581564903259277
1.17769908905029297 0.75213921070098877 0.32038569450378418
0.675328373908996582 -0.787368237972259521 0.051694333553314209
-0.672348380088806152 1.12680590152740479 0.359750717878341675
-0.83466804027557373 -0.0919465720653533936 -0.00478626415133476257
-2.40398120880126953 2.18836188316345215 0.663821697235107422
-0.897216498851776123 -1.13893365859985352 0.227354541420936584
0.547957360744476318 1.30701816082000732 0.840093612670898438
-3.11989903450012207 -0.277674257755279541 0.470360457897186279
-3.08030319213867188 -0.183041110634803772 0.423247635364532471
-2.54123616218566895 0.208895504474639893 0.140858873724937439
-0.989789187908172607 -0.936508536338806152 0.181996986269950867
1.21189522743225098 0.733551263809204102 0.0495960898697376251
1.383026123046875 -0.813052952289581299 0.394935369491577148
0.315603852272033691 -1.33549797534942627 0.199818283319473267
0.728050947189331055 2.97480940818786621 0.24831882119178772
-0.0713852941989898682 0.335536837577819824 0.187038034200668335
1.19444715976715088 2.95067286491394043 0.227608442306518555
0.839132905006408691 -1.69914364814758301 0.0189777612686157227
0.963294684886932373 -0.552167654037475586 0.375619977712631226
-2.33751749992370605 -0.265219360589981079 0.212498053908348083
-3.01720476150512695 -0.136852100491523743 0.402452766895294189
-2.28607726097106934 2.06983351707458496 0.425446093082427979
-1.24567484855651855 -0.372137218713760376 0.131762310862541199
-0.757928371429443359 -1.02509510517120361 0.176590695977210999
-0.313762843608856201 -0.950928866863250732 0.091259002685546875
-3.22609901428222656 -0.044312644749879837 0.805882155895233154
-1.18961870670318604 1.57025003433227539 0.466027766466140747
-0.828536391258239746 1.08818745613098145 0.343836069107055664
2.64898920059204102 -1.55916965007781982 0.0136994626373052597
0.558742880821228027 1.21021533012390137 0.384754776954650879
-1.85364818572998047 -0.05194096639752388 0.119147710502147675
0.555513560771942139 1.17214632034301758 0.253240376710891724
-2.47257542610168457 -1.07446193695068359 0.718932747840881348
-0.121817737817764282 -0.321835935115814209 -0.0589784011244773865
-1.50604903697967529 -0.410536885261535645 0.128985390067100525
1.47580587863922119 -1.4671255350112915 -0.00970917940139770508
0.119434565305709839 -0.896214067935943604 0.330408096313476562
-2.34228706359863281 2.15035057067871094 0.255584359169006348
