ply
format ascii 1.0
element vertex 256
comment vertices
property float x
property float y
property float z
end_header
1.28415060043334961 -0.343318939208984375 -0.190023213624954224
-3.84644889831542969 1.10866129398345947 -0.52008974552154541
6.57281112670898438 0.074336126446723938 -0.0180961340665817261
-2.05832576751708984 -2.5350654125213623 1.77974724769592285
-0.823463797569274902 3.07566547393798828 1.60804557800292969
3.3492884635925293 1.75515031814575195 1.10212016105651855
-1.09855890274047852 1.53651559352874756 -0.847103893756866455
3.92951679229736328 -0.389670282602310181 -0.585205018520355225
-1.85973942279815674 -2.67630839347839355 -0.764748692512512207
0.701878011226654053 1.17651200294494629 1.67159152030944824
-1.28716731071472168 -0.650003314018249512 0.296175360679626465
2.52641773223876953 1.5953524112701416 -0.819479286670684814
2.54161262512207031 -0.0650896206498146057 1.54498660564422607
0.299574851989746094 -2.09985184669494629 -0.00989944487810134888
-1.25774383544921875 1.01204454898834229 1.37079381942749023
5.05399417877197266 1.01448512077331543 -0.000822290778160095215
0.544154465198516846 1.26107609272003174 -0.286597311496734619
-1.91964542865753174 2.52793288230895996 0.257564663887023926
-2.65821385383605957 1.05643486976623535 0.519409596920013428
-0.731596052646636963 3.01115512847900391 -0.513146519660949707
2.8552703857421875 0.515520095825195312 0.119358763098716736
1.15478515625 -0.360317766666412354 1.91745507717132568
5.28925943374633789 -0.616494417190551758 0.000807277858257293701
-0.215349912643432617 2.05055809020996094 0.50506967306137085
-1.98664438724517822 2.48977398872375488 1.92917919158935547
-0.566936492919921875 0.758382678031921387 0.261977851390838623
1.67058777809143066 0.708623170852661133 0.630061507225036621
2.59728813171386719 -0.544279038906097412 -0.565390110015869141
3.71526336669921875 0.845855355262756348 -0.704747498035430908
-1.90868484973907471 -2.53418827056884766 0.436789900064468384
-0.660788774490356445 -0.999820291996002197 1.25228202342987061
-0.960790872573852539 -0.9972267746925354 -0.76732712984085083
0.169409632682800293 -0.170525193214416504 -0.0543866977095603943
-0.385060608386993408 0.576213359832763672 -0.841285228729248047
-1.63621461391448975 0.466760039329528809 0.197236642241477966
2.45969343185424805 1.55098319053649902 0.278820991516113281
-0.326525062322616577 -1.21000850200653076 0.0966783910989761353
0.823662638664245605 0.064639657735824585 0.849767327308654785
1.69999659061431885 0.972614765167236328 -0.491808027029037476
3.24869084358215332 -0.592037975788116455 0.239024579524993896
4.48964738845825195 -0.029001288115978241 0.240931078791618347
2.57814502716064453 1.0349123477935791 1.13731992244720459
-0.321150988340377808 1.29178428649902344 1.15075719356536865
1.32867121696472168 -1.32710409164428711 -0.0829714834690093994
2.53027081489562988 0.55736011266708374 -0.80450284481048584
-0.853246867656707764 2.9640653133392334 0.446125507354736328
0.698956310749053955 1.1357109546661377 0.620251953601837158
0.721496105194091797 0.2832145094871521 -0.640344977378845215
-1.00537109375 1.499167799949646 0.537656426429748535
3.72243857383728027 0.683377921581268311 0.293155699968338013
3.22741317749023438 1.57754826545715332 -0.272125273942947388
-0.310655951499938965 1.46955907344818115 -0.362322360277175903
5.6858210563659668 0.401318728923797607 -0.0594625547528266907
-3.49561214447021484 1.10417604446411133 0.283987998962402344
-1.8689570426940918 2.50587940216064453 -0.601369857788085938
-1.3147437572479248 0.780627608299255371 -0.536629974842071533
2.58769130706787109 -0.371987909078598022 0.680392861366271973
0.525487780570983887 -1.17588794231414795 0.0177821442484855652
0.93548738956451416 0.369345486164093018 0.116334319114685059
-1.73400437831878662 1.09830224514007568 0.63587266206741333
3.31918668746948242 0.837202608585357666 1.05192303657531738
1.65142703056335449 0.309958577156066895 -0.0644772648811340332
0.994455337524414062 0.70897287130355835 1.19267010688781738
-1.26670706272125244 1.39630782604217529 -0.152169287204742432
3.75236129760742188 -0.094849608838558197 0.0749768912792205811
1.30513250827789307 1.03053390979766846 0.105682596564292908
3.08873248100280762 1.35316324234008789 0.539562761783599854
3.30618715286254883 1.46311140060424805 -0.955836176872253418
-1.1151050329208374 0.663134753704071045 0.675562798976898193
2.75074410438537598 0.46135362982749939 0.787669956684112549
1.21293902397155762 -0.342533707618713379 1.22654223442077637
0.0442847460508346558 0.999935448169708252 0.111434787511825562
2.30866312980651855 1.6471247673034668 1.14748954772949219
-1.93347442150115967 -2.48988223075866699 1.12855470180511475
-0.0310829207301139832 0.610105693340301514 0.636472821235656738
-1.92879939079284668 2.43874311447143555 1.29975271224975586
-1.67821955680847168 -0.16022530198097229 0.207755103707313538
-1.30180168151855469 1.59665179252624512 1.14525270462036133
-0.236159011721611023 1.41454625129699707 0.541914105415344238
1.33887612819671631 -0.000495687127113342285 0.416637569665908813
-1.90377426147460938 -2.38299679756164551 -0.218600362539291382
3.22237205505371094 0.919561028480529785 -0.170355811715126038
0.983288049697875977 0.890243232250213623 -0.508315384387969971
5.16388654708862305 0.0919903665781021118 0.0385250821709632874
-0.875911951065063477 -0.969421327114105225 0.68213200569152832
1.33276915550231934 0.129454284906387329 -0.571548521518707275
1.17522740364074707 0.21361464262008667 1.72132647037506104
2.54020190238952637 0.993156731128692627 -0.00891342759132385254
4.61753988265991211 0.518682181835174561 0.0771099478006362915
0.74254840612411499 -1.72379183769226074 0.00684363767504692078
3.3025202751159668 -0.0530406385660171509 0.448669940233230591
-0.538879692554473877 0.609686911106109619 -0.292703509330749512
-0.826244950294494629 3.1046454906463623 0.996784329414367676
1.20386087894439697 -0.564235210418701172 0.326484888792037964
3.21778106689453125 0.580391228199005127 -0.765589535236358643
-1.36428189277648926 0.969714462757110596 0.206408590078353882
5.65006589889526367 -0.181318551301956177 -0.0268210694193840027
-1.19424343109130859 0.114460393786430359 0.169276222586631775
2.66002368927001953 -0.0032111629843711853 0.160520002245903015
2.70790195465087891 -0.64449608325958252 0.152986422181129456
1.83408451080322266 1.07022833824157715 0.22851167619228363
2.61417412757873535 -0.48418077826499939 1.21579742431640625
-0.649277865886688232 1.32817769050598145 0.180360898375511169
0.720720887184143066 0.927397727966308594 0.078389093279838562
2.67004632949829102 1.04152774810791016 0.543213844299316406
-0.0222796499729156494 1.57823610305786133 0.0576171129941940308
0.446480989456176758 0.892234742641448975 -0.634379088878631592
2.61581921577453613 1.19337213039398193 -0.478510558605194092
2.70168018341064453 1.48312139511108398 0.861875772476196289
0.727336406707763672 0.539428591728210449 0.552578330039978027
3.68841171264648438 -0.56603318452835083 -0.0972286909818649292
2.6207726001739502 0.65471649169921875 1.46195793151855469
-1.89384150505065918 2.20916652679443359 -0.127621933817863464
-0.936216115951538086 -1.1205371618270874 0.213992029428482056
3.33212637901306152 1.77406740188598633 0.464016586542129517
3.46398138999938965 0.292887985706329346 0.0588191598653793335
-0.672282516956329346 2.91971921920776367 -0.0472613871097564697
-1.24463582038879395 1.1209568977355957 0.720652103424072266
3.04222917556762695 1.22092580795288086 1.11646914482116699
-1.9330061674118042 2.43784952163696289 0.725946128368377686
3.29817795753479004 0.618227303028106689 0.495422542095184326
1.26041269302368164 0.127781927585601807 1.2159346342086792
-1.12044036388397217 0.577411651611328125 0.112311482429504395
6.11710643768310547 0.160227596759796143 -0.0196991190314292908
0.412917077541351318 -0.561508595943450928 -0.00771980732679367065
2.31728196144104004 0.633056282997131348 1.11317181587219238
0.0990153700113296509 1.16645610332489014 -0.32242816686630249
2.67535591125488281 0.000873021781444549561 0.927917361259460449
1.37570858001708984 0.642843663692474365 -0.201329678297042847
-0.480543643236160278 1.49347913265228271 -0.78041529655456543
-3.13568520545959473 1.07917416095733643 0.544736504554748535
2.89230537414550781 0.749525189399719238 -0.514102339744567871
0.795649051666259766 1.09468460083007812 1.10418009757995605
-3.77503180503845215 0.977730393409729004 -0.104556575417518616
-3.10156083106994629 1.07221722602844238 0.089274674654006958
3.75415158271789551 0.874732732772827148 -0.102170005440711975
-2.10252857208251953 1.04197168350219727 0.402573138475418091
-0.799062848091125488 1.08135485649108887 0.503407657146453857
2.96567988395690918 -0.286507487297058105 0.043862760066986084
1.60583937168121338 0.282331645488739014 0.612308740615844727
1.15066277980804443 0.499160110950469971 0.498917371034622192
-0.48943665623664856 1.41892659664154053 1.52057182788848877
-0.219386577606201172 1.0419774055480957 0.734911918640136719
-0.490184962749481201 -1.0874258279800415 0.566782534122467041
3.82732415199279785 0.239524334669113159 0.315939277410507202
0.755912840366363525 0.319271266460418701 1.17288839817047119
-1.10007715225219727 0.612430334091186523 1.08753359317779541
0.849138140678405762 -0.935298323631286621 -0.0755928084254264832
2.38436770439147949 1.6797480583190918 0.685494422912597656
4.61291265487670898 -0.375048905611038208 0.068134695291519165
0.894812643527984619 0.188913613557815552 -0.286164999008178711
-1.26828467845916748 1.26559805870056152 -0.598761439323425293
0.56656569242477417 0.542644143104553223 0.184471368789672852
2.92872214317321777 1.62155568599700928 0.28770872950553894
-1.66993701457977295 -0.564569771289825439 0.226309090852737427
2.58520770072937012 0.215512290596961975 1.26906180381774902
2.43161368370056152 0.666776478290557861 0.680195391178131104
2.53574967384338379 0.821911156177520752 -0.364780128002166748
-0.413496911525726318 1.56788313388824463 0.852378368377685547
1.32977831363677979 0.00123942643404006958 0.0291341096162796021
2.81045150756835938 1.7118227481842041 1.15471458435058594
-0.301061928272247314 1.2323005199432373 -0.0604616254568099976
3.41928696632385254 1.25799107551574707 1.05878806114196777
-1.5269317626953125 0.116692781448364258 -0.0206543337553739548
0.66020888090133667 0.63002467155456543 -0.455515503883361816
-0.144197821617126465 0.766506493091583252 -0.613143563270568848
3.1834559440612793 1.34016036987304688 0.0238542854785919189
3.09777522087097168 0.0615366846323013306 0.126468479633331299
-1.03008747100830078 1.3121192455291748 0.133947953581809998
0.285031229257583618 1.28074336051940918 0.0242584943771362305
-1.27156352996826172 1.50437700748443604 1.51009035110473633
-1.14730024337768555 0.582930803298950195 -0.260352969169616699
-0.122509002685546875 0.667055606842041016 0.140137076377868652
1.774605393409729 0.938542366027832031 -0.128982275724411011
3.33679056167602539 1.11018586158752441 0.408310502767562866
0.206452727317810059 0.887479662895202637 0.684527277946472168
0.149302780628204346 2.08934664726257324 0.526095271110534668
0.484957009553909302 1.56195616722106934 -0.0927651822566986084
3.34389781951904297 0.790939152240753174 0.180335462093353271
1.43188691139221191 0.99846959114074707 -0.238651186227798462
1.06718528270721436 0.839635610580444336 -0.0888788104057312012
1.20873916149139404 -0.410257309675216675 0.653632879257202148
2.82261109352111816 0.093250468373298645 0.612013876438140869
0.358988702297210693 0.920239150524139404 -0.0440111607313156128
1.72083067893981934 0.612258493900299072 0.287311375141143799
1.36951446533203125 0.548572123050689697 0.144424200057983398
-1.13176345825195312 0.966563224792480469 1.03858470916748047
-0.238006830215454102 0.773545145988464355 -0.196430116891860962
2.52431082725524902 1.54910266399383545 -0.0654895007610321045
-1.04788327217102051 0.984602272510528564 0.0112694501876831055
-0.418667405843734741 1.05087947845458984 0.384542465209960938
3.25910449028015137 1.25156688690185547 -0.390745639801025391
0.728434264659881592 0.840040743350982666 0.797611236572265625
2.59153652191162109 1.3687443733215332 1.22711467742919922
0.990828216075897217 -1.22338533401489258 0.0442577078938484192
-2.7590639591217041 1.08240735530853271 0.0922767221927642822
-1.91835474967956543 -2.53118586540222168 0.0871465206146240234
0.925733208656311035 0.467486679553985596 0.817000031471252441
0.551812708377838135 1.23422420024871826 0.225434765219688416
-1.83633577823638916 -2.29858541488647461 -0.537970781326293945
2.98897743225097656 0.75079643726348877 0.504979372024536133
2.62386870384216309 1.52916204929351807 -0.48481452465057373
-0.990012586116790771 -0.956573069095611572 1.29268956184387207
-1.11668491363525391 0.954407334327697754 -0.334807991981506348
0.645184159278869629 0.229636877775192261 0.0392175912857055664
3.28954458236694336 0.864886283874511719 0.714773595333099365
5.4657893180847168 0.144768133759498596 -0.0805120319128036499
1.26798689365386963 -0.0100553929805755615 0.737500488758087158
1.27697253227233887 -0.476290345191955566 -0.490370988845825195
4.84040164947509766 0.106904417276382446 -0.0119990259408950806
-1.88598322868347168 2.57992148399353027 -0.286784231662750244
-0.168792188167572021 1.22932136058807373 0.283015131950378418
0.951338291168212891 0.493340551853179932 -0.425044894218444824
2.4476323127746582 1.18580949306488037 0.232915371656417847
3.27413749694824219 1.80540013313293457 0.793025434017181396
1.69326436519622803 0.627835214138031006 -0.138008341193199158
-1.84864723682403564 -2.67923092842102051 -0.327477544546127319
-0.55240023136138916 1.46301603317260742 0.525828838348388672
2.9540412425994873 1.39982938766479492 -0.189282834529876709
0.214097261428833008 1.4571603536605835 -0.261218786239624023
-1.2357250452041626 -0.199437081813812256 0.203077435493469238
2.65188479423522949 1.35095131397247314 0.474979698657989502
-0.196327239274978638 1.81494975090026855 0.293331235647201538
2.86495542526245117 1.62196493148803711 0.596350908279418945
5.27249956130981445 0.788027644157409668 -0.00500372797250747681
2.73918247222900391 0.753485321998596191 -0.0513693392276763916
2.63896846771240234 0.835826396942138672 0.902219653129577637
-3.39343595504760742 1.0505220890045166 -0.024347454309463501
3.31820940971374512 0.748219311237335205 -0.41528022289276123
-1.40082871913909912 -0.548936843872070312 0.02219373919069767
1.20890629291534424 -0.309267222881317139 0.14482937753200531
1.1647496223449707 -0.391134858131408691 1.60617804527282715
-0.36686137318611145 1.02398383617401123 1.30597186088562012
1.57553589344024658 0.324650049209594727 -0.59976506233215332
-1.65508413314819336 0.778371095657348633 0.18255990743637085
0.93938678503036499 0.273535430431365967 0.539159417152404785
2.85593581199645996 -0.619531631469726562 -0.413063496351242065
0.222133278846740723 -1.15945279598236084 -0.0335251837968826294
2.87137937545776367 -0.392492055892944336 0.31701543927192688
5.10727500915527344 -0.860723197460174561 0.0418804585933685303
3.04635715484619141 0.702972650527954102 1.02013468742370605
0.90121769905090332 0.546966254711151123 1.43454742431640625
2.80253386497497559 0.690266788005828857 -0.838783979415893555
-0.990909934043884277 1.25962305068969727 0.817402839660644531
-0.265411853790283203 -1.50739419460296631 0.0874110609292984009
3.82271003723144531 -0.301909983158111572 0.281880617141723633
3.57343959808349609 0.399332523345947266 0.340031594038009644
-2.30973958969116211 1.08462846279144287 0.615079104900360107
-1.15224993228912354 1.34029674530029297 1.18703603744506836
-0.469968885183334351 0.923656046390533447 0.0323676019906997681
1.32985520362854004 -0.0846888273954391479 -0.329780638217926025
3.75399327278137207 0.237677246332168579 0.0237507820129394531
1.30308246612548828 0.228469401597976685 -0.293933629989624023
2.89387941360473633 0.470669656991958618 0.489778280258178711
1.03598237037658691 0.655958175659179688 0.140956908464431763
0.226447880268096924 0.901452064514160156 -0.333651959896087646
