ply
format ascii 1.0
element vertex 63
comment vertices
property float x
property float y
property float z
end_header
-0.600875377655029297 -1.2201230525970459 0.322455644607543945
2.0863802433013916 -2.35840320587158203 0.495956897735595703
2.67976164817810059 -1.59578061103820801 0.0865110084414482117
0.126982554793357849 -3.0920872688293457 0.174617215991020203
1.15185141563415527 0.570782780647277832 0.267264664173126221
2.34620451927185059 -1.88679790496826172 0.439284324645996094
0.604844212532043457 -1.19705677032470703 0.320926070213317871
0.750721335411071777 1.00115334987640381 0.305839240550994873
1.1759490966796875 -0.684752941131591797 0.510477960109710693
-0.523435711860656738 1.19387996196746826 0.312493622303009033
-2.38002514839172363 -2.04121708869934082 0.421102643013000488
2.40979623794555664 1.89194166660308838 0.0841347426176071167
2.40780043601989746 1.82268989086151123 0.226309701800346375
-0.0409249924123287201 -1.36422145366668701 0.290046393871307373
1.2950594425201416 0.130362987518310547 0.0723695084452629089
0.136086225509643555 -3.19092154502868652 0.161337673664093018
-2.24834108352661133 -2.01078414916992188 0.429534852504730225
-0.505735158920288086 -0.894487500190734863 0.214111089706420898
1.16401267051696777 0.628473043441772461 0.378183901309967041
-2.54754853248596191 -1.82076621055603027 0.315209627151489258
0.0831573531031608582 -3.12424230575561523 0.0658527985215187073
2.52479672431945801 -1.79439961910247803 0.113709218800067902
1.14099037647247314 -0.587893903255462646 0.578304409980773926
1.07915747165679932 -0.879593193531036377 0.259497672319412231
2.55193090438842773 -1.70635616779327393 0.298953235149383545
2.39679718017578125 1.84315645694732666 0.230120465159416199
-0.0969931185245513916 -1.41187477111816406 0.30589061975479126
0.847361981868743896 -1.09394240379333496 0.290030777454376221
0.466507375240325928 -1.33984136581420898 0.292715400457382202
-2.38260102272033691 -2.07778477668762207 0.548235774040222168
-0.634048044681549072 -1.14536094665527344 0.373734474182128906
1.34152352809906006 0.12107936292886734 0.163249090313911438
-0.702575325965881348 -1.02659857273101807 0.227009400725364685
0.964190006256103516 -0.70599597692489624 0.449019908905029297
2.18312382698059082 -2.14169478416442871 0.476916730403900146
-0.616427063941955566 -1.2551114559173584 0.30188828706741333
-2.2849574089050293 -2.00038719177246094 0.3739890456199646
0.594494938850402832 -1.13414382934570312 0.163331300020217896
1.14162266254425049 -0.62716984748840332 0.224904060363769531
1.19965362548828125 -0.00428436696529388428 0.115363538265228271
-2.50769901275634766 -1.7160041332244873 0.176757484674453735
2.49894070625305176 1.76200652122497559 0.0835237130522727966
2.73356223106384277 -1.68027937412261963 0.0597517937421798706
-0.550540447235107422 1.13820827007293701 0.307434380054473877
-2.34339642524719238 -2.04579257965087891 0.418726801872253418
0.0853382200002670288 -3.09266853332519531 0.235549271106719971
0.501801371574401855 -1.38183057308197021 0.268683254718780518
2.17679786682128906 -2.335540771484375 0.438480854034423828
0.10334816575050354 -3.19345951080322266 0.0456333532929420471
-0.9466094970703125 -0.968903183937072754 0.213549166917800903
2.13637304306030273 -1.89944267272949219 0.3197898268699646
2.58620095252990723 -1.66594314575195312 0.0993059650063514709
1.16797816753387451 0.70842587947845459 0.264319777488708496
2.43077731132507324 1.85851562023162842 0.164990618824958801
1.31263601779937744 0.0329491347074508667 0.171858280897140503
0.725101292133331299 -1.18857395648956299 0.27878338098526001
-2.32195830345153809 -2.04862141609191895 0.308007478713989258
2.67800092697143555 -1.59354662895202637 0.0233307331800460815
0.564078152179718018 -1.23493242263793945 0.316268086433410645
0.667051613330841064 -1.15330517292022705 0.246849298477172852
2.44309520721435547 -1.81444311141967773 0.118652388453483582
0.873578906059265137 -1.00891268253326416 0.338880181312561035
0.586546480655670166 -1.3484807014465332 0.254348695278167725
