ply
format ascii 1.0
element vertex 18
comment vertices
property float x
property float y
property float z
end_header
-0.600875377655029297 -1.2201230525970459 0.322455644607543945
2.67976164817810059 -1.59578061103820801 0.0865110084414482117
0.604844212532043457 -1.19705677032470703 0.320926070213317871
0.750721335411071777 1.00115334987640381 0.305839240550994873
-0.523435711860656738 1.19387996196746826 0.312493622303009033
1.2950594425201416 0.130362987518310547 0.0723695084452629089
1.16401267051696777 0.628473043441772461 0.378183901309967041
0.0831573531031608582 -3.12424230575561523 0.0658527985215187073
2.55193090438842773 -1.70635616779327393 0.298953235149383545
-0.0969931185245513916 -1.41187477111816406 0.30589061975479126
-0.634048044681549072 -1.14536094665527344 0.373734474182128906
1.34152352809906006 0.12107936292886734 0.163249090313911438
-0.702575325965881348 -1.02659857273101807 0.227009400725364685
-0.550540447235107422 1.13820827007293701 0.307434380054473877
-2.34339642524719238 -2.04579257965087891 0.418726801872253418
-0.9466094970703125 -0.968903183937072754 0.213549166917800903
1.16797816753387451 0.70842587947845459 0.264319777488708496
2.43077731132507324 1.85851562023162842 0.164990618824958801
