ply
format ascii 1.0
element vertex 64
comment vertices
property float x
property float y
property float z
end_header
0.403239309787750244 0.915094554424285889 0.228776693344116211
-0.375462651252746582 0.926837503910064697 0.0627798363566398621
-1.1134953498840332 1.66136324405670166 0.210534378886222839
1.35842657089233398 1.46788191795349121 0.504355013370513916
0.986556410789489746 -0.163421064615249634 0.0545576512813568115
0.537888407707214355 -0.84301602840423584 0.177286356687545776
2.21172332763671875 2.02688932418823242 0.284379750490188599
-0.978941380977630615 -0.204141631722450256 0.456601530313491821
1.86008751392364502 -0.7348976731300354 0.380213767290115356
-1.91177725791931152 0.58745884895324707 0.310915291309356689
0 0 0
0 0 0
0 0 0
0 0 0
0 0 0
0 0 0
0 0 0
0 0 0
0 0 0
0 0 0
0 0 0
0 0 0
0 0 0
0 0 0
0 0 0
0 0 0
0 0 0
0 0 0
0 0 0
0 0 0
0 0 0
0 0 0
0 0 0
0 0 0
0 0 0
0 0 0
0 0 0
0 0 0
0 0 0
0 0 0
0 0 0
0 0 0
0 0 0
0 0 0
0 0 0
0 0 0
0 0 0
0 0 0
0 0 0
0 0 0
0 0 0
0 0 0
0 0 0
0 0 0
0 0 0
0 0 0
0 0 0
0 0 0
0 0 0
0 0 0
0 0 0
0 0 0
0 0 0
0 0 0
