ply
format ascii 1.0
element vertex 256
comment vertices
property float x
property float y
property float z
end_header
-0.853339195251464844 0.982479333877563477 0.212512731552124023
1.38572049140930176 0.053258061408996582 0.346240758895874023
0.509262561798095703 1.13153278827667236 0.402802944183349609
0.560610830783843994 -0.495334416627883911 -0.135048642754554749
0.613830208778381348 0.193622738122940063 0.37234845757484436
0.940627574920654297 -0.397217631340026855 0.564464271068572998
-0.852162420749664307 0.798921465873718262 0.729389369487762451
1.00511312484741211 -0.512608826160430908 0.109993979334831238
1.1111220121383667 0.219376534223556519 0.0151102691888809204
0.652150154113769531 0.858704745769500732 0.0809285417199134827
0.986075520515441895 0.0391045510768890381 0.528254806995391846
0.62050175666809082 -0.0306815952062606812 0.013319697231054306
0.637706518173217773 -0.227863043546676636 0.368741989135742188
-1.07107734680175781 1.08558821678161621 0.506891489028930664
0.30483853816986084 0.86097949743270874 0.288066685199737549
1.19102990627288818 0.324816644191741943 0.372012436389923096
0.86852031946182251 -0.243831843137741089 -0.0328296273946762085
0.889581620693206787 0.0522311702370643616 0.21942591667175293
0.696881413459777832 0.822016596794128418 0.396938234567642212
-0.962602972984313965 0.714122653007507324 0.335775434970855713
0.975666999816894531 -0.214597389101982117 0.327723890542984009
0.67002338171005249 1.00979769229888916 0.607930302619934082
0.732300937175750732 -0.0575247108936309814 0.573787927627563477
-0.877844154834747314 0.765761137008666992 0.0587190613150596619
0.287166416645050049 0.931055665016174316 0.539602875709533691
0.660165309906005859 -0.389993488788604736 0.0795800462365150452
0.454159259796142578 -0.27875944972038269 -0.0515304282307624817
1.1380922794342041 0.0463568270206451416 0.327522575855255127
0.714691758155822754 1.0551149845123291 0.297752976417541504
0.784499883651733398 0.283086955547332764 0.233985647559165955
0.789400994777679443 0.239069968461990356 0.524601101875305176
0.414974331855773926 1.11261522769927979 0.188581019639968872
0.978689014911651611 0.23256237804889679 0.387704193592071533
0.784909725189208984 -0.546851515769958496 -0.122661523520946503
0.63445436954498291 -0.0271964371204376221 0.257981747388839722
-0.851794838905334473 1.03188240528106689 0.435948103666305542
-1.06372320652008057 0.930066823959350586 0.148010224103927612
0.49548637866973877 0.90865635871887207 0.447203516960144043
0.840888857841491699 -0.355998247861862183 0.231780305504798889
1.03707742691040039 -0.169264063239097595 0.549324750900268555
1.13282251358032227 0.372130841016769409 0.170880407094955444
0.501730024814605713 0.832982420921325684 0.224698513746261597
1.33282637596130371 0.23522341251373291 0.491951227188110352
0.425523847341537476 1.26916909217834473 0.53024822473526001
0.820111751556396484 -0.23844580352306366 0.525901734828948975
0.836000561714172363 -0.0207215845584869385 0.397312045097351074
1.19424843788146973 0.192766368389129639 0.219246506690979004
0.354043066501617432 1.02326714992523193 0.37405693531036377
0.55884253978729248 0.116276420652866364 0.165797412395477295
0.448316395282745361 0.965006411075592041 0.0869330763816833496
0.346944481134414673 1.10186278820037842 0.550827324390411377
-0.788241744041442871 0.754319190979003906 0.215868502855300903
0.707423090934753418 -0.365382075309753418 -0.0933244973421096802
1.16489934921264648 0.0523031502962112427 0.538323640823364258
0.870480895042419434 -0.432115048170089722 -0.0186161808669567108
0.760917544364929199 -0.0543541908264160156 0.137788116931915283
1.01606857776641846 -0.385800600051879883 0.330407649278640747
0.644785881042480469 0.0353234261274337769 0.440868169069290161
-0.877252161502838135 0.857369422912597656 0.388465762138366699
0.813573181629180908 -0.19956757128238678 0.355139166116714478
0.712630033493041992 0.883885860443115234 0.246701627969741821
0.821966290473937988 -0.491208344697952271 0.146795004606246948
0.945431113243103027 -0.336522281169891357 0.0851693972945213318
0.848536491394042969 0.141805529594421387 0.379747360944747925
-0.934542477130889893 1.16264986991882324 0.529543519020080566
0.582154393196105957 1.05050754547119141 0.216012582182884216
0.610090315341949463 1.0077894926071167 0.412035256624221802
0.328678488731384277 0.98456120491027832 0.199910432100296021
0.499900609254837036 1.01297473907470703 0.557853937149047852
-0.962501943111419678 0.833195090293884277 0.242330029606819153
0.874190807342529297 -0.0884953588247299194 0.532150864601135254
0.459709882736206055 0.967132329940795898 0.276837646961212158
0.724776387214660645 -0.349115133285522461 0.325586974620819092
-1.03443431854248047 1.07216453552246094 0.650100350379943848
0.899499416351318359 -0.350457549095153809 0.41175079345703125
0.928414523601531982 0.17297402024269104 0.51783454418182373
1.08864951133728027 0.152208387851715088 0.440028905868530273
-0.950720608234405518 1.04738032817840576 0.330246955156326294
0.36253926157951355 1.15890192985534668 0.326747149229049683
0.589517474174499512 0.898563683032989502 0.322108358144760132
0.678437471389770508 -0.121067464351654053 0.457697927951812744
1.0800546407699585 -0.0616409331560134888 0.467471092939376831
0.878035068511962891 -0.237324267625808716 0.156709671020507812
0.77488863468170166 -0.312704861164093018 0.0671682953834533691
0.741098523139953613 0.981644272804260254 0.155292749404907227
0.373555481433868408 0.838039875030517578 0.172441601753234863
1.02568399906158447 -0.458838403224945068 0.479841649532318115
-0.731483101844787598 0.949941754341125488 0.168680042028427124
-0.872704744338989258 0.899042606353759766 0.0647313743829727173
1.0674673318862915 -0.212750524282455444 0.424650967121124268
0.389395236968994141 0.833185076713562012 0.417804062366485596
0.834509611129760742 0.0804223865270614624 0.497212141752243042
0.991753756999969482 0.121951885521411896 0.317884445190429688
0.665554821491241455 0.280606865882873535 0.510418951511383057
0.832322895526885986 -0.356115430593490601 -0.128509521484375
1.2501680850982666 0.172257751226425171 0.414109855890274048
0.280846148729324341 0.920548200607299805 0.404345840215682983
0.898835062980651855 0.213566899299621582 0.284241199493408203
0.770428717136383057 0.130345195531845093 0.27734529972076416
0.875772655010223389 -0.150173455476760864 0.253494977951049805
0.707309186458587646 0.09961690753698349 0.53201526403427124
0.654246926307678223 0.916567683219909668 0.488748490810394287
0.90823674201965332 -0.220355004072189331 0.434674739837646484
0.966969132423400879 -0.00839795172214508057 0.297228574752807617
0.968833804130554199 -0.00180459022521972656 0.644251883029937744
-1.00784385204315186 0.964778482913970947 0.259418010711669922
0.790733754634857178 -0.529490470886230469 0.0349307432770729065
0.774735391139984131 -0.0635777860879898071 0.301284253597259521
1.10540127754211426 0.231697872281074524 0.290455371141433716
0.768530607223510742 0.22729860246181488 0.355785399675369263
-0.841801464557647705 0.851765751838684082 0.179737567901611328
0.672159731388092041 0.783543884754180908 0.203608274459838867
-0.957792699337005615 1.04985785484313965 0.545734643936157227
0.622016012668609619 -0.328414738178253174 -0.0110629722476005554
1.00934433937072754 -0.344353288412094116 0.484830558300018311
0.709733843803405762 0.152609974145889282 0.42240750789642334
1.20570230484008789 0.0565298646688461304 0.420607954263687134
0.46985211968421936 1.13098287582397461 0.287670046091079712
-1.05362975597381592 0.983343243598937988 0.458709150552749634
1.10425448417663574 0.216557502746582031 0.153094023466110229
0.396347105503082275 1.24555909633636475 0.392973482608795166
-0.890398919582366943 1.13316988945007324 0.375041604042053223
0.417888283729553223 0.855377018451690674 0.299584060907363892
0.897828221321105957 -0.193935438990592957 0.595273852348327637
-0.859712541103363037 0.965263307094573975 0.324289947748184204
0.998883485794067383 -0.263972342014312744 0.228529751300811768
0.591915488243103027 -0.389217019081115723 -0.11172640323638916
0.751806557178497314 0.303698033094406128 0.440686434507369995
0.926634848117828369 -0.413737833499908447 0.189663827419281006
0.699975430965423584 -0.140730708837509155 0.173264890909194946
0.775444328784942627 0.903747737407684326 0.336487829685211182
0.893562018871307373 -0.122725337743759155 0.361123561859130859
0.442015081644058228 1.03441572189331055 0.465987265110015869
0.684526801109313965 0.0445779412984848022 0.325391769409179688
0.982298314571380615 -0.0707991421222686768 0.55907130241394043
0.609267354011535645 0.888225674629211426 0.208621233701705933
-0.861829161643981934 0.749251365661621094 0.378067523241043091
0.784579336643218994 -0.146676123142242432 0.45183098316192627
0.391868412494659424 0.920783519744873047 0.511955082416534424
0.523831069469451904 1.04195356369018555 0.322427898645401001
0.649834275245666504 -0.039355158805847168 0.151315033435821533
0.777166903018951416 -0.445972084999084473 -0.0707259401679039001
0.638142108917236328 -0.0297994017601013184 0.526433229446411133
0.60799562931060791 0.949239969253540039 0.117251589894294739
0.51560664176940918 0.827901899814605713 0.352498024702072144
0.550527572631835938 1.09019696712493896 0.491420209407806396
0.823114514350891113 -0.00412952899932861328 0.573198199272155762
0.795484840869903564 -0.389873653650283813 0.139814808964729309
0.40671384334564209 1.12433254718780518 0.419356465339660645
-0.925190210342407227 0.936877012252807617 0.152890533208847046
0.756299674510955811 -0.0116786360740661621 0.462666094303131104
1.15198111534118652 0.207978248596191406 0.380859076976776123
0.973899960517883301 0.115115910768508911 0.445833146572113037
0.9958915114402771 -0.113890387117862701 0.355870872735977173
0.416490495204925537 1.17839205265045166 0.575932443141937256
0.880739808082580566 0.044784151017665863 0.320703506469726562
0.659428298473358154 0.976274073123931885 0.327435612678527832
0.67841106653213501 0.0511221960186958313 0.0222914572805166245
0.382549434900283813 0.932812690734863281 0.407852351665496826
-0.895008325576782227 0.762968957424163818 0.218447402119636536
0.708788156509399414 1.0195695161819458 0.425301134586334229
0.460040956735610962 1.19870281219482422 0.460079073905944824
0.783730149269104004 0.0593123361468315125 0.208523288369178772
0.883102476596832275 -0.419065177440643311 0.100227668881416321
-0.885539233684539795 1.0763622522354126 0.213939815759658813
0.656626701354980469 -0.430732071399688721 -0.010495893657207489
1.18772566318511963 0.173173904418945312 0.490736663341522217
0.783580660820007324 0.0575324743986129761 0.342879056930541992
0.766679942607879639 -0.288096696138381958 -0.103524819016456604
1.09451925754547119 0.326813042163848877 0.273927301168441772
0.674807429313659668 1.04078447818756104 0.513466238975524902
0.36068376898765564 0.999442338943481445 0.558796107769012451
0.317282497882843018 0.968256354331970215 0.303764641284942627
0.981505334377288818 -0.245202571153640747 0.56876838207244873
0.823208928108215332 -0.339005649089813232 0.468034237623214722
0.938033998012542725 -0.497364163398742676 -0.00252747535705566406
1.23469972610473633 0.172393053770065308 0.320117145776748657
0.91588062047958374 0.138614952564239502 0.191294968128204346
-0.752935469150543213 0.849601924419403076 0.147679567337036133
-0.939679563045501709 0.915564060211181641 0.323376297950744629
-0.965097904205322266 0.880052745342254639 0.0909268856048583984
0.705018877983093262 -0.0868071764707565308 0.357952773571014404
0.417720794677734375 0.932247579097747803 0.201805204153060913
0.636997103691101074 1.10283482074737549 0.313555240631103516
0.475353062152862549 0.877350151538848877 0.0983714163303375244
0.394674301147460938 1.04445290565490723 0.293843269348144531
0.986342370510101318 -0.0828514844179153442 0.467947006225585938
0.470399618148803711 0.924360156059265137 0.35728985071182251
0.893272817134857178 -0.278606832027435303 0.355529069900512695
0.71254962682723999 -0.442307233810424805 -0.14187014102935791
0.758113503456115723 -0.291024684906005859 0.38700181245803833
0.753652215003967285 -0.33733445405960083 0.216430559754371643
0.549834489822387695 0.96988987922668457 0.275212138891220093
0.573908567428588867 1.00346577167510986 0.508748829364776611
1.13605093955993652 0.290714383125305176 0.0625247806310653687
0.831091582775115967 -0.132682591676712036 0.595907390117645264
0.919026494026184082 -0.292614281177520752 0.253763824701309204
0.349497795104980469 0.992663800716400146 0.471288353204727173
0.911683320999145508 -0.0522915422916412354 0.432371973991394043
0.435253500938415527 0.818969249725341797 0.491704583168029785
-0.902837812900543213 0.810206830501556396 0.318932563066482544
0.636739671230316162 0.983962059020996094 0.232547551393508911
-0.84025275707244873 0.842267036437988281 0.266827821731567383
0.785695314407348633 -0.32499539852142334 -0.0187864899635314941
-0.848230361938476562 0.944783926010131836 0.430805772542953491
-1.02086508274078369 1.00809311866760254 0.184812813997268677
0.491707831621170044 1.01221489906311035 0.209440439939498901
0.779210269451141357 -0.40975266695022583 0.00820679962635040283
0.533589184284210205 0.970779776573181152 0.394515812397003174
0.640950143337249756 0.0995422154664993286 0.183913499116897583
0.839165449142456055 -0.255328565835952759 0.230951949954032898
0.851091742515563965 -0.335798084735870361 0.0357174873352050781
-0.803666770458221436 0.987815618515014648 0.144047871232032776
0.618978500366210938 0.854313492774963379 0.392363101243972778
1.2061392068862915 0.276095598936080933 0.22320207953453064
0.918368220329284668 0.000459820032119750977 0.497229009866714478
0.433769524097442627 1.10231125354766846 0.514327287673950195
-1.0344693660736084 1.02102756500244141 0.583899259567260742
0.910018324851989746 0.0238687694072723389 0.398621618747711182
0.873714566230773926 -0.168371289968490601 0.509382665157318115
0.818743467330932617 -0.43412935733795166 0.2158174067735672
1.14134359359741211 0.123192101716995239 0.383358359336853027
0.967570900917053223 -0.211113303899765015 0.491067081689834595
0.713151454925537109 -0.363054037094116211 -0.0110056027770042419
0.937194943428039551 -0.204761385917663574 0.251786887645721436
0.469420373439788818 1.21111762523651123 0.379829853773117065
0.585074067115783691 0.936316430568695068 0.447036087512969971
1.1872556209564209 0.232648104429244995 0.149049729108810425
0.35234639048576355 1.07103395462036133 0.452350825071334839
0.894442319869995117 0.0965081453323364258 0.445983231067657471
1.03187453746795654 0.113547936081886292 0.501499652862548828
-0.901193082332611084 0.733262956142425537 0.128227382898330688
0.872174859046936035 -0.542759180068969727 -0.00494742393493652344
0.68647390604019165 0.856423079967498779 0.153174325823783875
-0.905032515525817871 0.907131075859069824 0.251814007759094238
1.06266283988952637 0.0295695662498474121 0.507828176021575928
0.909835338592529297 -0.263037025928497314 0.538528740406036377
0.723747313022613525 0.0137586146593093872 0.394457817077636719
0.940900206565856934 -0.292480796575546265 0.151486113667488098
0.456289082765579224 1.01258814334869385 0.352951198816299438
0.975429415702819824 -0.151317328214645386 0.595564723014831543
0.752739369869232178 0.141779541969299316 0.353259295225143433
0.881899833679199219 0.121446184813976288 0.303164660930633545
0.99089890718460083 -0.176248908042907715 0.403399884700775146
0.843829154968261719 -0.00952229276299476624 0.203127503395080566
0.518306612968444824 0.955340743064880371 0.120719820261001587
0.449999183416366577 1.09290885925292969 0.362387418746948242
0.825564146041870117 -0.0941225439310073853 0.232520997524261475
0.772749066352844238 0.160902678966522217 0.467708379030227661
0.926853060722351074 -0.323219507932662964 0.479281306266784668
-0.909157156944274902 0.851131856441497803 0.136372745037078857
0.87687993049621582 -0.129366487264633179 0.436510562896728516
1.1059882640838623 0.251588374376296997 0.425442278385162354
0.547943592071533203 0.895272195339202881 0.502463877201080322
0.719634354114532471 0.95779949426651001 0.267642080783843994
0.569412291049957275 -0.452084898948669434 -0.0718582123517990112
