ply
format ascii 1.0
element vertex 256
comment vertices
property float x
property float y
property float z
end_header
-0.770477950572967529 0.594720304012298584 0.119883358478546143
1.08359479904174805 -0.426042139530181885 0.486426562070846558
-1.12765884399414062 2.20786905288696289 0.226319313049316406
-0.391594171524047852 -0.913235068321228027 0.488843679428100586
-1.20270800590515137 1.46765542030334473 -0.0226912051439285278
0.573477625846862793 0.0695541128516197205 0.497952401638031006
-0.537745535373687744 -0.858656346797943115 -0.0662651360034942627
0.984608292579650879 -0.0621849969029426575 0.0755875334143638611
-0.920281887054443359 1.75443077087402344 0.357680857181549072
-1.0961461067199707 0.313469469547271729 0.322406738996505737
0.684463322162628174 -0.414079666137695312 0.342278599739074707
-0.912624835968017578 0.45094907283782959 -0.192128658294677734
-1.2492067813873291 1.90150165557861328 0.374153375625610352
-0.142651736736297607 -0.663406550884246826 0.415407627820968628
0.968050003051757812 -0.0985641181468963623 0.434535354375839233
-0.494663119316101074 -0.694652259349822998 0.241799980401992798
-1.25554072856903076 1.58484029769897461 0.279719531536102295
-1.04099690914154053 2.10923337936401367 -0.0421977788209915161
-0.80305790901184082 0.357555776834487915 0.329172313213348389
-0.987854957580566406 1.62174642086029053 0.0982593744993209839
0.918020546436309814 -0.329778283834457397 0.161383926868438721
0.670237183570861816 -0.295151352882385254 0.592389464378356934
0.722143590450286865 -0.111488759517669678 0.307691276073455811
1.17811226844787598 -0.0348152704536914825 0.277761697769165039
-0.95047295093536377 2.01955080032348633 0.363520443439483643
-0.770564436912536621 0.610221445560455322 0.39919811487197876
-0.997524380683898926 0.424577087163925171 0.0545164346694946289
-1.22410643100738525 1.97593605518341064 0.0815228596329689026
-0.342549979686737061 -0.902247965335845947 0.2440376877784729
-0.85779803991317749 1.89905333518981934 0.169248253107070923
-1.17343688011169434 2.11722946166992188 0.449700474739074707
-0.982610762119293213 0.65215301513671875 0.0184315517544746399
0.887849867343902588 -0.327599644660949707 0.414538532495498657
-0.271078020334243774 -0.719343185424804688 0.596098721027374268
-1.1097109317779541 1.76035189628601074 0.231411874294281006
0.761713624000549316 -0.0859366357326507568 0.524373114109039307
-0.376254916191101074 -0.787411153316497803 0.061998855322599411
-0.730718731880187988 0.323198169469833374 0.126737385988235474
0.968231201171875 -0.497442692518234253 0.284955859184265137
-0.445456802845001221 -0.702934145927429199 0.480478852987289429
-0.574545621871948242 0.536898672580718994 0.16774633526802063
-0.914168357849121094 0.520035445690155029 0.242910027503967285
-0.823440670967102051 0.618005275726318359 -0.1285066157579422
-0.324680596590042114 -0.628139674663543701 0.341964125633239746
-0.992478251457214355 2.03727984428405762 0.133211329579353333
0.584458053112030029 -0.160392388701438904 0.490195333957672119
0.778687834739685059 -0.436866939067840576 0.522698700428009033
-1.06928050518035889 1.87423968315124512 0.41887626051902771
-0.774773597717285156 0.386053979396820068 -0.0431368276476860046
-1.18077600002288818 2.02863669395446777 0.256538420915603638
-0.224342316389083862 -0.820239126682281494 0.357423126697540283
-0.688570499420166016 0.703534841537475586 0.24205346405506134
0.929730892181396484 -0.104786410927772522 0.25700676441192627
1.16595304012298584 -0.171818852424621582 0.159734264016151428
0.789892733097076416 -0.536066353321075439 0.268801480531692505
0.820888042449951172 -0.0296566430479288101 0.142601191997528076
1.08290588855743408 -0.270463436841964722 0.411162585020065308
-0.605367064476013184 -0.769755363464355469 0.136928021907806396
0.808018028736114502 -0.264093160629272461 0.271849006414413452
0.860485494136810303 -0.215554505586624146 0.560656905174255371
0.809501945972442627 0.0532178208231925964 0.446102678775787354
-1.09492278099060059 1.57152605056762695 0.24937710165977478
0.752357840538024902 -0.239140868186950684 0.438775926828384399
-0.497675895690917969 -0.804069578647613525 0.361211627721786499
-1.07676541805267334 1.91473674774169922 0.198128178715705872
-0.625686526298522949 0.565255105495452881 0.0201243944466114044
-1.14328932762145996 1.60667479038238525 0.0696212351322174072
-0.71135479211807251 0.461050927639007568 0.200254321098327637
-0.927752673625946045 1.75581264495849609 0.148004487156867981
-1.05923950672149658 2.12295913696289062 0.336120814085006714
-0.943184137344360352 1.64400100708007812 0.255197823047637939
-1.2709662914276123 1.51523411273956299 0.14887845516204834
-0.862047553062438965 0.491963744163513184 0.0142497643828392029
-1.19929993152618408 1.74691617488861084 0.348748922348022461
-0.355032056570053101 -0.755831062793731689 0.204986840486526489
0.970807492733001709 0.0302378758788108826 0.214699268341064453
-0.918459832668304443 2.15990805625915527 0.317285090684890747
-0.953800439834594727 1.8918614387512207 0.278142660856246948
-0.135809600353240967 -0.783568739891052246 0.495811015367507935
0.852597951889038086 -0.406187057495117188 0.280623733997344971
0.657635033130645752 -0.0536560453474521637 0.422488808631896973
0.831386268138885498 -0.12251272052526474 0.396728247404098511
0.59368598461151123 -0.182549089193344116 0.351211607456207275
-0.325479626655578613 -0.765398383140563965 0.441066980361938477
0.978026807308197021 -0.210065603256225586 0.340207457542419434
0.839393734931945801 -0.254960805177688599 0.0741004422307014465
0.903311550617218018 -0.485974609851837158 0.407063871622085571
-1.2727738618850708 2.03298354148864746 0.393939197063446045
1.00871813297271729 -0.370751321315765381 0.277322083711624146
-0.801415324211120605 0.659327387809753418 -0.00410196464508771896
-0.883790373802185059 0.645716309547424316 0.264538317918777466
-1.13869726657867432 2.13633084297180176 0.118337571620941162
-1.08699500560760498 1.97512221336364746 0.326388120651245117
-1.22712099552154541 1.88135194778442383 0.249246925115585327
-0.632982134819030762 0.574545919895172119 0.275297760963439941
-1.02146434783935547 0.351893186569213867 0.156742528080940247
0.834963083267211914 -0.174938321113586426 0.185517564415931702
-1.08251166343688965 2.03409957885742188 0.436366856098175049
-1.02710068225860596 1.71616852283477783 0.312163740396499634
-1.16441583633422852 1.64929771423339844 0.18146088719367981
-0.775727331638336182 0.458065330982208252 0.0909311547875404358
-0.767197310924530029 0.510538458824157715 -0.0571402236819267273
0.965956747531890869 -0.249861717224121094 0.459944665431976318
-1.00127243995666504 0.442062079906463623 0.265152513980865479
-1.00604987144470215 2.04297757148742676 0.261140942573547363
-0.490755707025527954 -0.809900045394897461 0.042695067822933197
-0.960610389709472656 0.533092021942138672 -0.0359622277319431305
-0.351815134286880493 -0.776542305946350098 0.320866495370864868
0.64605259895324707 -0.257332444190979004 0.484648644924163818
-1.03657281398773193 2.15628647804260254 0.0704807490110397339
0.672321498394012451 -0.361799836158752441 0.443049132823944092
-0.743763566017150879 0.603997349739074707 0.237138181924819946
-1.13317024707794189 1.64424657821655273 0.328260719776153564
-1.13805747032165527 1.86526346206665039 0.317654073238372803
-1.2058643102645874 2.1207587718963623 0.317027658224105835
-1.0145949125289917 1.81525921821594238 0.188737019896507263
0.913195788860321045 -0.31303638219833374 0.305614352226257324
-1.10664641857147217 1.50372624397277832 0.0445015169680118561
-0.481179803609848022 -0.805326700210571289 0.233055725693702698
-0.814548194408416748 0.690858840942382812 0.155288428068161011
0.877318501472473145 -0.0696401894092559814 0.492289215326309204
0.88267141580581665 -0.0419420041143894196 0.335851728916168213
-0.667073667049407959 0.473325520753860474 0.07775125652551651
0.739509224891662598 -0.314418554306030273 0.340810477733612061
-0.879218101501464844 1.73121845722198486 0.244616329669952393
-0.419512569904327393 -0.631402850151062012 0.289700984954833984
-0.681366205215454102 0.64660191535949707 0.339866816997528076
-0.86776268482208252 0.46565014123916626 0.163535147905349731
0.876129686832427979 -0.222841441631317139 0.369367748498916626
0.914693176746368408 0.02467351034283638 0.460519105195999146
0.701463520526885986 0.00708403764292597771 0.348062694072723389
-0.22317543625831604 -0.736814618110656738 0.422077775001525879
1.00750398635864258 -0.485124051570892334 0.392252743244171143
-0.907014727592468262 1.97206306457519531 0.229305282235145569
-0.822493553161621094 0.546943902969360352 0.285882771015167236
-1.03347384929656982 1.83003151416778564 0.302143007516860962
-0.986864447593688965 0.455109775066375732 0.152791634202003479
-0.655812859535217285 0.599979996681213379 0.162331074476242065
0.854624092578887939 -0.0566945485770702362 0.0511149317026138306
-0.274039983749389648 -0.911635279655456543 0.317732840776443481
-1.03089368343353271 2.01654839515686035 0.0422962605953216553
0.743828773498535156 -0.300411641597747803 0.523836076259613037
0.935483336448669434 -0.282293856143951416 0.554408848285675049
-0.917868971824645996 0.550530791282653809 -0.188257411122322083
0.774335026741027832 -0.20311342179775238 0.342541158199310303
-0.251663088798522949 -0.677818059921264648 0.508443593978881836
1.01749551296234131 -0.102763399481773376 0.212530940771102905
0.665152072906494141 -0.256315767765045166 0.388231664896011353
-0.753488600254058838 0.762143373489379883 0.184203639626502991
-0.455101549625396729 -0.75349581241607666 0.114560127258300781
-0.891190588474273682 0.602003872394561768 -0.0312830805778503418
0.811281859874725342 -0.0863574296236038208 0.275956988334655762
0.989676058292388916 -0.110512137413024902 0.334168553352355957
-1.15528619289398193 2.04948687553405762 0.159472733736038208
-0.394098222255706787 -0.826012194156646729 0.149604618549346924
0.87831723690032959 -0.179959684610366821 0.47183912992477417
-0.872500777244567871 0.638890922069549561 0.0580989792943000793
-1.15171217918395996 1.92251288890838623 0.404972732067108154
0.706284880638122559 -0.14560253918170929 0.472614675760269165
-1.00035440921783447 0.315948903560638428 0.243089228868484497
-0.730991959571838379 0.560700476169586182 0.0405238866806030273
-0.500509679317474365 -0.888068258762359619 0.404470443725585938
-1.01715993881225586 1.73141217231750488 0.132294058799743652
0.88672935962677002 -0.41829681396484375 0.157240211963653564
0.763163208961486816 -0.42743721604347229 0.264467447996139526
-0.943261682987213135 1.79441297054290771 0.276583969593048096
-1.00539648532867432 2.1467435359954834 0.407987892627716064
0.908178091049194336 -0.0375869125127792358 0.197060734033584595
0.832189738750457764 -0.259947597980499268 0.480664521455764771
-0.338134586811065674 -0.710000455379486084 0.51453852653503418
-1.22933793067932129 1.54525518417358398 0.0199088528752326965
-0.265087127685546875 -0.83440929651260376 0.443054467439651489
-0.93632882833480835 1.92073416709899902 0.363159626722335815
-1.1405714750289917 1.84756875038146973 0.228145867586135864
-1.06919288635253906 1.66256976127624512 0.100600413978099823
0.79135286808013916 -0.0387733280658721924 0.350868105888366699
0.636908173561096191 -0.102846108376979828 0.344308376312255859
0.980897426605224609 -0.297092080116271973 0.23227652907371521
-0.42190513014793396 -0.775615394115447998 0.431863933801651001
-1.23325920104980469 1.67106723785400391 0.295832723379135132
-0.729420661926269531 0.661526978015899658 0.16504572331905365
1.04624509811401367 -0.113793790340423584 0.127725899219512939
-0.942046642303466797 1.86847281455993652 0.184382244944572449
-0.262165725231170654 -0.742770254611968994 0.331523716449737549
-1.13904440402984619 1.95016074180603027 0.250661790370941162
-0.698405027389526367 0.359123021364212036 0.20114859938621521
0.675520360469818115 0.0149603793397545815 0.475540965795516968
-0.740485131740570068 0.45066484808921814 0.00672729499638080597
-0.349348515272140503 -0.698773443698883057 0.38864096999168396
0.813048720359802246 -0.362818419933319092 0.346110254526138306
-0.725212991237640381 0.518330931663513184 0.127835899591445923
-1.15964436531066895 2.0559699535369873 0.389874041080474854
0.90948861837387085 -0.206866264343261719 0.287331163883209229
0.760402917861938477 -0.0141244437545537949 0.20241682231426239
-1.11784100532531738 1.76730132102966309 0.369256734848022461
0.608168840408325195 -0.0806678608059883118 0.512139320373535156
-0.372110903263092041 -0.866840541362762451 0.316512644290924072
-0.84000694751739502 0.513347804546356201 -0.101569876074790955
-1.19508981704711914 1.82006442546844482 0.392495155334472656
0.904140949249267578 -0.240025043487548828 0.127298057079315186
-1.18897366523742676 1.80482876300811768 0.286369532346725464
1.01680552959442139 -0.32871738076210022 0.349559366703033447
0.82055896520614624 -0.0298099089413881302 0.4426308274269104
-1.06794106960296631 1.57710421085357666 0.035068802535533905
-0.461561471223831177 -0.884281396865844727 -0.047776300460100174
-1.2015385627746582 1.57570993900299072 0.218806162476539612
-0.994825482368469238 1.96314382553100586 0.273343980312347412
-1.0264747142791748 1.99817705154418945 0.383696377277374268
0.753282666206359863 -0.342544853687286377 0.454754114151000977
-1.25046956539154053 2.05900192260742188 0.288258492946624756
0.860261321067810059 -0.290305852890014648 0.215253874659538269
0.736531198024749756 -0.122927017509937286 0.400630772113800049
-0.440052211284637451 -0.733961105346679688 0.196849405765533447
-0.290981501340866089 -0.824956834316253662 0.298802345991134644
-0.551936924457550049 -0.771860957145690918 0.196418225765228271
0.910354912281036377 -0.408176034688949585 0.335872352123260498
-0.977947533130645752 1.5760800838470459 0.231655076146125793
-0.902573466300964355 0.564744055271148682 -0.100744113326072693
-0.409208744764328003 -0.748002231121063232 0.273702353239059448
0.93632042407989502 -0.157134950160980225 0.391975343227386475
0.726371645927429199 -0.416615784168243408 0.425822824239730835
-1.1347811222076416 2.13877034187316895 0.351861715316772461
-0.221332788467407227 -0.749091029167175293 0.521895408630371094
-0.870907247066497803 1.89649152755737305 0.246403306722640991
0.825615346431732178 -0.373939007520675659 0.42493516206741333
-0.814362406730651855 0.583940565586090088 -0.0204956233501434326
-0.470434457063674927 -0.867622196674346924 0.278094828128814697
-1.07572054862976074 1.90579354763031006 0.293631792068481445
-1.18155837059020996 1.74550259113311768 0.207457125186920166
0.591490745544433594 -0.0926456525921821594 0.423130929470062256
0.773575663566589355 -0.179380089044570923 0.270118832588195801
0.847380220890045166 -0.327071189880371094 0.133515983819961548
0.71322709321975708 -0.467813223600387573 0.500217199325561523
-1.20285511016845703 1.94060468673706055 0.329365164041519165
-1.00890183448791504 1.91441261768341064 0.399194538593292236
-1.01858341693878174 1.74997401237487793 0.22551882266998291
0.798754572868347168 -0.281218498945236206 0.371744811534881592
-0.657038986682891846 0.678993940353393555 0.179170653223991394
-0.661134719848632812 0.535958528518676758 0.199728578329086304
-1.1300584077835083 1.65992558002471924 0.246460616588592529
0.926625728607177734 -0.0443548783659934998 0.395184159278869629
-1.11775720119476318 2.01800251007080078 0.214244559407234192
0.896014750003814697 -0.400384902954101562 0.417618989944458008
0.859733223915100098 -0.287825465202331543 0.57240605354309082
-0.756524205207824707 0.695139467716217041 0.2679634690284729
0.822041928768157959 -0.206924453377723694 0.431285351514816284
-1.01498723030090332 1.8960258960723877 0.163891598582267761
-0.984360694885253906 2.07726454734802246 0.403532207012176514
-0.964576780796051025 2.10416722297668457 0.319005876779556274
-1.21953499317169189 2.00418829917907715 0.201323777437210083
-0.348583757877349854 -0.700152814388275146 0.317130118608474731
-1.07218277454376221 2.09448051452636719 0.0738274529576301575
-0.307219922542572021 -0.789760708808898926 0.374997347593307495
-1.16844725608825684 1.70037317276000977 0.297505855560302734
-0.806252479553222656 0.423164844512939453 0.354962080717086792
-0.993537962436676025 2.1007225513458252 0.0767559260129928589
