ply
format ascii 1.0
element vertex 256
comment vertices
property float x
property float y
property float z
end_header
-0.895415544509887695 -0.281764477491378784 0.293362438678741455
1.02499449253082275 -1.85101008415222168 0.578288376331329346
-3.09488773345947266 0.233078271150588989 0.427601784467697144
0.880831480026245117 0.189961880445480347 0.748618662357330322
-1.50256311893463135 1.33416998386383057 0.419891923666000366
-0.556970119476318359 -1.91081523895263672 0.272831857204437256
-1.94395101070404053 -1.22532856464385986 0.294359117746353149
-0.000156342983245849609 -1.14857661724090576 0.282372206449508667
-0.513918638229370117 0.779626131057739258 0.324253052473068237
-2.01770591735839844 -0.106329977512359619 0.458112150430679321
0.87456059455871582 -1.39725446701049805 0.300848782062530518
-0.669676542282104492 0.526880264282226562 0.328779697418212891
-1.48814034461975098 1.42912375926971436 0.084919169545173645
0.736239016056060791 0.0541352108120918274 0.213610589504241943
0.89157944917678833 -1.8919677734375 0.308344572782516479
-0.527704060077667236 -1.71276390552520752 0.123594753444194794
-1.44354701042175293 1.19988894462585449 0.557277083396911621
-1.75566840171813965 -1.12400174140930176 0.306728661060333252
-1.96466434001922607 -0.152542144060134888 0.340543270111083984
-2.8701016902923584 0.123336642980575562 0.618881523609161377
-1.00243270397186279 -0.198265299201011658 0.15033230185508728
-0.22611643373966217 -1.16228187084197998 0.240455448627471924
0.954140663146972656 -1.61028313636779785 0.353166252374649048
-2.98142766952514648 0.108476608991622925 0.498755574226379395
-0.581916451454162598 0.702699065208435059 0.286338865756988525
0.856345415115356445 0.0340376421809196472 0.582794129848480225
-1.35789215564727783 1.33042526245117188 0.580293893814086914
-0.926268160343170166 -0.148263096809387207 0.0965708270668983459
-0.717849135398864746 -1.95435249805450439 0.18413408100605011
1.07172119617462158 -1.64023780822753906 0.463570713996887207
-1.92283761501312256 -0.180645450949668884 0.464760184288024902
-0.564525246620178223 0.791563749313354492 0.353277206420898438
-0.958372056484222412 -0.237990066409111023 0.367662280797958374
1.04366040229797363 -1.68169927597045898 0.380114555358886719
-0.19264279305934906 -1.18150568008422852 0.175012886524200439
-1.00987327098846436 -0.273952126502990723 0.0984055995941162109
-1.39857447147369385 1.27278625965118408 0.444767594337463379
-0.9222983717918396 -0.139807477593421936 0.269210278987884521
-1.76164567470550537 -1.23412060737609863 0.318847000598907471
-0.523806750774383545 -2.06644916534423828 0.191702902317047119
-0.490952134132385254 0.866969823837280273 0.352686464786529541
-1.8334583044052124 -1.20494496822357178 0.180965021252632141
-1.98878705501556396 -0.135899245738983154 0.378185927867889404
-2.95967531204223633 0.192542821168899536 0.539089679718017578
-2.99321842193603516 0.169138327240943909 0.452040374279022217
-2.08846926689147949 -0.14920535683631897 0.494025230407714844
0.774436593055725098 0.132150709629058838 0.41797107458114624
-0.891226649284362793 -0.0779146254062652588 0.212055936455726624
-0.237457647919654846 -1.06836235523223877 0.174877956509590149
-1.42851400375366211 1.27339470386505127 0.535869717597961426
-0.655222296714782715 -2.00015497207641602 0.19611060619354248
-0.169792875647544861 -1.29702520370483398 0.195257335901260376
0.924125075340270996 -1.90547096729278564 0.333999216556549072
-1.35995614528656006 1.20869278907775879 0.45475885272026062
0.891806483268737793 -0.0218019187450408936 0.398639857769012451
-0.564088165760040283 0.633600175380706787 0.29329267144203186
-0.65705263614654541 -1.97228395938873291 0.245884343981742859
0.946806192398071289 -1.43620920181274414 0.220647573471069336
-1.98006057739257812 -0.139820635318756104 0.476678043603897095
1.06581211090087891 -1.78089380264282227 0.491594433784484863
-1.54416441917419434 1.26546502113342285 0.473924845457077026
0.972104728221893311 -1.62332987785339355 0.324072927236557007
-1.39120781421661377 1.32920277118682861 0.528443396091461182
1.0544581413269043 -1.73998606204986572 0.497291833162307739
-2.0983586311340332 -0.137197196483612061 0.378731876611709595
-3.02255105972290039 0.195281803607940674 0.464738249778747559
-0.11349564790725708 -1.26248776912689209 0.181741505861282349
-0.576364576816558838 -2.02583527565002441 0.147832274436950684
-1.92225158214569092 -1.12379026412963867 0.138669639825820923
-0.131269544363021851 -1.18932461738586426 0.203324258327484131
-0.300002634525299072 -1.11747837066650391 0.170302659273147583
0.928042948246002197 0.111407995223999023 0.646418988704681396
-0.904254376888275146 -0.187289237976074219 0.383680671453475952
-0.472675174474716187 0.805908799171447754 0.151160389184951782
-0.777780711650848389 -0.259455978870391846 0.266185164451599121
-0.492621898651123047 0.710943341255187988 0.292019903659820557
-0.597477436065673828 0.801092386245727539 0.251742303371429443
-2.9764401912689209 0.238868802785873413 0.522048354148864746
-2.96102213859558105 0.149625867605209351 0.445967286825180054
-1.46196496486663818 1.25627899169921875 0.483351796865463257
-0.825269877910614014 -0.194374293088912964 0.201951265335083008
-1.78647089004516602 -1.08858311176300049 0.198843434453010559
-1.85990643501281738 -1.18615686893463135 0.327787190675735474
0.81183701753616333 0.105756133794784546 0.325635522603988647
-1.34778666496276855 1.25037479400634766 0.470393270254135132
-2.05783557891845703 -0.157145410776138306 0.596123993396759033
0.968814671039581299 -1.74177813529968262 0.393505573272705078
-1.86774682998657227 -1.23061454296112061 0.412334978580474854
-2.10498738288879395 -0.101162798702716827 0.391671806573867798
-0.540713608264923096 0.752267062664031982 0.374468147754669189
-0.638233184814453125 -1.95774483680725098 0.26442420482635498
-1.94501256942749023 -0.173552870750427246 0.461898326873779297
-1.08687674999237061 -0.145842045545578003 0.27140355110168457
-2.01328682899475098 -0.114309899508953094 0.472490370273590088
0.826270341873168945 -0.00611226260662078857 0.697823762893676758
-1.31128847599029541 1.44735336303710938 0.325740039348602295
-0.51981121301651001 0.734026730060577393 0.317253410816192627
-1.02235186100006104 -0.158988907933235168 0.162654131650924683
0.117541983723640442 -1.24335265159606934 0.206931084394454956
-0.0849563032388687134 -1.06078863143920898 0.222490459680557251
0.998025178909301758 -1.50987434387207031 0.254376471042633057
-2.91482448577880859 0.152840107679367065 0.454931944608688354
-3.17565059661865234 0.208231493830680847 0.485985338687896729
1.0868762731552124 -1.76783573627471924 0.480443358421325684
-0.122715502977371216 -1.20874595642089844 0.219205200672149658
-1.36197638511657715 1.2064051628112793 0.599895298480987549
-1.37069058418273926 1.44062399864196777 0.556352555751800537
-1.81897616386413574 -1.21690976619720459 0.246655628085136414
-0.656593620777130127 0.701784372329711914 0.295713126659393311
0.94082796573638916 -1.77518749237060547 0.379095196723937988
-0.893238961696624756 -0.299049586057662964 0.214670360088348389
-1.05927944183349609 -0.0593563318252563477 0.158158227801322937
-1.73334205150604248 -1.21618783473968506 0.25386473536491394
0.89364314079284668 0.125456452369689941 0.475010097026824951
-3.02472472190856934 0.244090527296066284 0.420928001403808594
-0.528292655944824219 0.781728386878967285 0.235518544912338257
-2.03063440322875977 -0.133240818977355957 0.427207529544830322
-0.517751932144165039 -1.96198666095733643 0.165925204753875732
-1.9675753116607666 -0.120959997177124023 0.481537759304046631
-0.64224851131439209 -2.06686782836914062 0.267189204692840576
-1.06660234928131104 -0.185692459344863892 0.0122700408101081848
-0.254368454217910767 -1.23485779762268066 0.167202115058898926
-1.41502094268798828 1.28905916213989258 0.48045724630355835
-0.685263693332672119 -2.00346112251281738 0.30171501636505127
1.02816331386566162 -1.67606282234191895 0.549972176551818848
-1.42752563953399658 1.30607080459594727 0.514378190040588379
-0.536616265773773193 0.755385637283325195 0.24625888466835022
1.08354806900024414 -1.71885061264038086 0.454183280467987061
-0.879362761974334717 -0.184317037463188171 0.185826897621154785
-0.645169973373413086 -1.92484855651855469 0.266585350036621094
-0.964403390884399414 -0.253936052322387695 0.186788350343704224
-0.655893921852111816 -1.98663938045501709 0.205344021320343018
-1.98874247074127197 -0.163409814238548279 0.420975625514984131
-1.47382962703704834 1.29264295101165771 0.504491686820983887
-2.84986257553100586 0.233717113733291626 0.571857213973999023
0.750829458236694336 0.169030547142028809 0.324678510427474976
-3.05864667892456055 0.208645716309547424 0.491302579641342163
0.81119692325592041 0.11107403039932251 0.49554288387298584
0.863843798637390137 0.228135257959365845 0.564517557621002197
-1.97014904022216797 -0.140362873673439026 0.455086290836334229
0.774922847747802734 0.0331192389130592346 0.280891239643096924
-0.700265645980834961 0.604511022567749023 0.225490719079971313
-2.04973816871643066 -0.114269047975540161 0.494846820831298828
-0.153756856918334961 -1.11892437934875488 0.181090742349624634
-0.217710092663764954 -1.15203762054443359 0.184992104768753052
-0.694746673107147217 -2.00304436683654785 0.250442743301391602
-2.97517800331115723 0.133457094430923462 0.467550843954086304
-1.38394927978515625 1.36717331409454346 0.536872386932373047
0.804700016975402832 -0.00881487876176834106 0.270494699478149414
-1.40862715244293213 1.28416550159454346 0.441836446523666382
-1.34436535835266113 1.197296142578125 0.475513815879821777
-0.162752553820610046 -1.1927562952041626 0.145400911569595337
1.09821832180023193 -1.84762191772460938 0.449929028749465942
-0.024784281849861145 -1.26581215858459473 0.168696045875549316
-0.901146411895751953 -0.142923235893249512 0.301850706338882446
-1.76503205299377441 -1.23157548904418945 0.271544039249420166
-0.164602339267730713 -1.2172924280166626 0.246452033519744873
1.03659927845001221 -1.81495141983032227 0.495401829481124878
-0.915496766567230225 -0.218488156795501709 0.278660207986831665
-1.3875579833984375 1.24779212474822998 0.481987982988357544
-2.9330446720123291 0.223418310284614563 0.579749107360839844
-2.1210324764251709 -0.104360632598400116 0.408115267753601074
0.990668118000030518 -1.7073371410369873 0.45209813117980957
-0.859125435352325439 -0.227000772953033447 0.262930810451507568
-0.24719218909740448 -1.19073140621185303 0.128464400768280029
-0.494225978851318359 0.615319013595581055 0.300363332033157349
-1.06738877296447754 -0.0302893072366714478 0.0993222817778587341
-0.0419326126575469971 -1.18529820442199707 0.24112275242805481
-1.99796164035797119 -0.132103338837623596 0.526761829853057861
-0.208692103624343872 -1.23392260074615479 0.195930808782577515
-1.44121134281158447 1.33163309097290039 0.470080018043518066
-2.91015195846557617 0.145212188363075256 0.581184208393096924
-2.99452519416809082 0.21126614511013031 0.441152870655059814
0.865524351596832275 -0.0237243250012397766 0.484409689903259277
-0.114857077598571777 -1.24235975742340088 0.337866008281707764
-0.986227035522460938 -0.31347241997718811 0.0530646741390228271
-0.867878139019012451 -0.224434316158294678 0.266462057828903198
1.04059898853302002 -1.63675713539123535 0.453882277011871338
-0.185999512672424316 -1.10355234146118164 0.192895993590354919
-0.558121085166931152 -2.05953192710876465 0.207955300807952881
-1.41442692279815674 1.2748560905456543 0.503723800182342529
-0.612652838230133057 0.670441567897796631 0.296917051076889038
-1.95885694026947021 -0.188811838626861572 0.390741109848022461
-1.72992157936096191 -1.2285541296005249 0.231316566467285156
-0.144485563039779663 -1.05233991146087646 0.181444689631462097
-1.85057711601257324 -1.16473531723022461 0.271722853183746338
-3.03268074989318848 0.181231915950775146 0.474542438983917236
-0.593173444271087646 0.725874662399291992 0.325687617063522339
1.04594790935516357 -1.68840134143829346 0.483651340007781982
-0.510275185108184814 0.734410524368286133 0.306020855903625488
0.992960691452026367 -1.6371617317199707 0.454873919486999512
-0.501404345035552979 0.845846176147460938 0.355570286512374878
0.862215518951416016 -1.55802273750305176 0.333613485097885132
-1.90300071239471436 -0.231282442808151245 0.466306030750274658
-1.95608997344970703 -1.21307146549224854 0.174300134181976318
1.08510696887969971 -1.65502297878265381 0.415321171283721924
0.968146800994873047 -1.76908671855926514 0.502431392669677734
1.03325378894805908 -1.73351144790649414 0.52593076229095459
0.872072100639343262 -1.86499524116516113 0.4160328209400177
0.946685910224914551 -1.78648567199707031 0.4179038405418396
-2.96642923355102539 0.138354957103729248 0.404116421937942505
-0.569225490093231201 0.731346249580383301 0.337031513452529907
0.857225775718688965 0.106763489544391632 0.282081037759780884
-0.977965831756591797 -0.0933525785803794861 0.149859100580215454
0.711587667465209961 0.0992510020732879639 0.261485755443572998
-0.131647825241088867 -1.15243244171142578 0.234602466225624084
-1.35427463054656982 1.35774731636047363 0.476549595594406128
-1.87683248519897461 -1.12812745571136475 0.253199189901351929
-0.665596485137939453 -2.00806045532226562 0.201826214790344238
-0.14697323739528656 -1.31198489665985107 0.178697705268859863
0.863455653190612793 0.153494477272033691 0.539930164813995361
-1.96046328544616699 -0.161332711577415466 0.439359366893768311
-2.03465533256530762 -0.14402085542678833 0.419586896896362305
-0.550417780876159668 -2.00148558616638184 0.257110059261322021
-1.48343133926391602 1.24740445613861084 0.534395694732666016
-1.94772589206695557 -0.212560698390007019 0.478563457727432251
-2.82791638374328613 0.157748758792877197 0.542801499366760254
-1.4060053825378418 1.3208465576171875 0.512841582298278809
-1.74288642406463623 -1.21448934078216553 0.313434004783630371
-2.10296249389648438 -0.0979685559868812561 0.36906355619430542
-1.3761899471282959 1.24557280540466309 0.470235854387283325
-0.61544191837310791 -1.98181045055389404 0.211037695407867432
-1.98722171783447266 -0.124006509780883789 0.447480559349060059
-0.166746437549591064 -1.23879504203796387 0.127450048923492432
-0.0840995162725448608 -1.205954909324646 0.2315235435962677
-1.79763936996459961 -1.2521744966506958 0.25574144721031189
1.08704519271850586 -1.73560440540313721 0.454347848892211914
-2.03474998474121094 -0.127060294151306152 0.449620425701141357
-1.96713018417358398 -0.137234553694725037 0.485682219266891479
0.104343503713607788 -1.29008042812347412 0.185470312833786011
-1.96471238136291504 -0.12884935736656189 0.450364023447036743
0.896708846092224121 0.109613068401813507 0.644959807395935059
-0.176706165075302124 -1.18360400199890137 0.187136381864547729
-3.01974844932556152 0.253158748149871826 0.453674107789993286
-0.526889264583587646 0.667879462242126465 0.357283502817153931
-1.83452236652374268 -1.12758433818817139 0.172188401222229004
-0.90431588888168335 -0.266246110200881958 0.235901907086372375
0.855938732624053955 0.002912178635597229 0.294483780860900879
-1.09054148197174072 -0.306606113910675049 0.222310483455657959
0.929486989974975586 0.125894472002983093 0.580386638641357422
-0.865619242191314697 -0.232576638460159302 0.266125679016113281
-2.9110867977142334 0.272760987281799316 0.581566870212554932
-0.511221051216125488 0.796286642551422119 0.229970932006835938
1.06421887874603271 -1.76669836044311523 0.543609499931335449
-1.42818272113800049 1.25297808647155762 0.551043033599853516
-0.115575775504112244 -1.1683342456817627 0.200868993997573853
-3.04465460777282715 0.273021012544631958 0.514283418655395508
-0.10305728018283844 -1.14915359020233154 0.216842114925384521
0.0369489416480064392 -1.26315748691558838 0.216848552227020264
-0.57921290397644043 0.671891987323760986 0.328675270080566406
0.901544153690338135 0.125019878149032593 0.686974883079528809
-0.177854850888252258 -1.22562730312347412 0.203953728079795837
-0.465667158365249634 0.70540463924407959 0.28800201416015625
-1.45954430103302002 1.24800753593444824 0.45716819167137146
-1.84080839157104492 -1.17429399490356445 0.168305546045303345
0.963857948780059814 -1.74876487255096436 0.446746706962585449
