ply
format ascii 1.0
element vertex 256
comment vertices
property float x
property float y
property float z
end_header
-0.534770786762237549 -3.07256174087524414 0.477436661720275879
0.0229728817939758301 2.06409621238708496 0.361357152462005615
1.74558115005493164 -0.737407565116882324 0.126561820507049561
-1.34602737426757812 -0.703910768032073975 0.505732357501983643
-1.14936017990112305 0.909284830093383789 0.262148201465606689
2.2484745979309082 -2.13975715637207031 0.644490361213684082
0.783489584922790527 -1.65303277969360352 0.373391628265380859
0.514678239822387695 -0.40332794189453125 0.0100532369688153267
-0.994393527507781982 -1.94953429698944092 0.283605694770812988
-0.0316634476184844971 0.93809211254119873 0.185617625713348389
1.63117134571075439 -1.58808982372283936 0.363895505666732788
0.265702962875366211 -3.1874697208404541 0.571736514568328857
0.888139545917510986 -0.71269303560256958 0.639276981353759766
2.27443218231201172 -1.54878687858581543 0.106731578707695007
-0.14390265941619873 1.44551670551300049 0.595955014228820801
-0.539952874183654785 0.550429105758666992 0.354100346565246582
-0.89206695556640625 -1.05686068534851074 0.680623114109039307
1.12759411334991455 -1.5252450704574585 -0.0929417833685874939
-0.0266042053699493408 -2.71813035011291504 0.386437118053436279
1.19267463684082031 -1.220672607421875 0.431767761707305908
-0.569533109664916992 -2.11150932312011719 0.58324354887008667
0.479516535997390747 -0.839024603366851807 0.329690635204315186
1.21558582782745361 -1.88202202320098877 0.530359745025634766
0.380505681037902832 1.70320510864257812 0.301619887351989746
1.9823678731918335 -1.91997241973876953 0.283240616321563721
-0.436373054981231689 1.11623275279998779 0.408407479524612427
-0.205847501754760742 -3.4050297737121582 0.557129502296447754
-0.845579743385314941 -0.710748672485351562 0.391712307929992676
-1.11370468139648438 0.528341412544250488 0.503479301929473877
0.71220928430557251 -1.40184593200683594 0.0102504827082157135
1.72850906848907471 -1.15207457542419434 0.246996596455574036
-1.48518383502960205 -1.05665767192840576 0.698846042156219482
-1.09222400188446045 -2.30026531219482422 0.486528515815734863
-0.800030410289764404 0.951633572578430176 0.501516580581665039
-0.167616769671440125 1.38283717632293701 0.206541433930397034
1.38926458358764648 -0.830884575843811035 0.269002944231033325
2.28623557090759277 -1.76662814617156982 0.52843862771987915
1.08534073829650879 -1.49735534191131592 0.675456225872039795
0.12730368971824646 1.76849114894866943 0.582770287990570068
1.21760141849517822 -1.58028006553649902 0.270848542451858521
-0.233968198299407959 -2.9753563404083252 0.683083713054656982
0.113828778266906738 1.18980681896209717 0.424042642116546631
-0.577975332736968994 -2.72453474998474121 0.376925230026245117
-0.256160497665405273 -2.92118120193481445 0.20412406325340271
-0.97616279125213623 0.580260097980499268 0.181271299719810486
0.596709251403808594 -0.513688325881958008 0.3824349045753479
0.824468374252319336 -1.31065773963928223 0.329550832509994507
-0.355218470096588135 0.941618084907531738 0.0595059394836425781
-1.02239859104156494 1.22722196578979492 0.233431726694107056
-1.09625601768493652 -0.796607553958892822 0.738168597221374512
-1.16728472709655762 -1.21859920024871826 0.582492530345916748
1.95529079437255859 -1.87215614318847656 0.611191809177398682
-0.401572257280349731 -3.26585245132446289 0.249593168497085571
0.754154801368713379 -0.626045107841491699 0.119674518704414368
1.41525816917419434 -1.82816743850708008 0.292581439018249512
-0.847544550895690918 0.867150723934173584 0.172902584075927734
1.4118797779083252 -1.54982757568359375 0.0264358147978782654
0.00804792344570159912 -3.00846338272094727 0.495464205741882324
-0.721462130546569824 -1.90246248245239258 0.422474265098571777
1.36707258224487305 -1.4524075984954834 0.580949187278747559
-0.0972230955958366394 0.89645230770111084 0.473071485757827759
0.964239537715911865 -1.62360572814941406 0.137617781758308411
-0.607979536056518555 -2.30412578582763672 0.370889127254486084
1.50617384910583496 -1.11575853824615479 0.427633494138717651
-0.0849979296326637268 1.162239670753479 0.013697892427444458
-0.805288851261138916 -2.98893356323242188 0.51787269115447998
2.13342428207397461 -1.68051266670227051 0.307777702808380127
-0.458809554576873779 -3.1921381950378418 0.716960430145263672
-0.168679192662239075 1.16794908046722412 0.399372071027755737
1.40295815467834473 -1.38431799411773682 0.30137026309967041
1.86764717102050781 -1.69552767276763916 0.187949985265731812
-0.906536400318145752 -2.12395548820495605 0.56959998607635498
1.63826751708984375 -0.531929850578308105 0.259552448987960815
-0.796056687831878662 0.667313456535339355 0.357961863279342651
-0.362100273370742798 -2.85073542594909668 0.469663739204406738
1.36804091930389404 -1.05432748794555664 0.131570115685462952
-0.217534691095352173 -3.15621757507324219 0.474276065826416016
1.02807343006134033 -1.71186983585357666 0.447235375642776489
-1.28990483283996582 -0.958365261554718018 0.555887103080749512
-0.0616097450256347656 1.62103891372680664 0.421041995286941528
0.245092675089836121 1.93944942951202393 0.415136873722076416
-0.66451263427734375 -3.28059887886047363 0.562894105911254883
1.21096396446228027 -0.939357638359069824 0.418656110763549805
1.10761666297912598 -1.35315871238708496 0.22418329119682312
0.762072980403900146 -0.705255508422851562 0.417837798595428467
1.80555284023284912 -0.970590651035308838 0.0570428445935249329
2.41247868537902832 -1.91189396381378174 0.371327579021453857
-1.27658438682556152 0.688948988914489746 0.410542756319046021
-0.1034393310546875 -2.77639555931091309 0.613055646419525146
1.5817255973815918 -0.930012166500091553 0.155490800738334656
-0.302424430847167969 1.18228793144226074 0.186808466911315918
-1.16337752342224121 -0.79073786735534668 0.372192859649658203
0.518861174583435059 -0.664440810680389404 0.0960177406668663025
-0.784514904022216797 -2.1506803035736084 0.326090335845947266
0.969989776611328125 -1.29906642436981201 0.51718372106552124
-0.023056715726852417 1.38259780406951904 0.400230646133422852
2.03882932662963867 -1.54439413547515869 0.133660852909088135
0.0266097933053970337 1.23799669742584229 0.200976759195327759
-0.612851262092590332 0.835608184337615967 0.433158725500106812
-1.03706645965576172 0.810068666934967041 0.434779137372970581
0.953439950942993164 -1.50223743915557861 0.330099105834960938
1.26743173599243164 -1.66669785976409912 0.513513565063476562
-0.924147546291351318 -0.829204261302947998 0.606383085250854492
-0.323159337043762207 1.32030010223388672 0.375002264976501465
-0.851258158683776855 0.460366576910018921 0.31322816014289856
-0.507206261157989502 -2.94263958930969238 0.306302875280380249
-1.17408418655395508 0.511763870716094971 0.232191324234008789
2.05903983116149902 -2.17990875244140625 0.559547901153564453
-0.389039665460586548 -3.31541156768798828 0.502132236957550049
-0.052451789379119873 1.84607589244842529 0.504365146160125732
1.11065387725830078 -1.75302541255950928 0.659834742546081543
1.50106203556060791 -1.19427859783172607 0.213536873459815979
-0.0619025528430938721 -2.9444732666015625 0.308660745620727539
1.57820010185241699 -0.893683254718780518 0.360992580652236938
0.495232701301574707 -0.486725449562072754 0.205338805913925171
1.83353757858276367 -0.971043825149536133 0.260048806667327881
-0.254398196935653687 0.982150256633758545 0.233044803142547607
1.12552022933959961 -1.51948118209838867 0.477517902851104736
-0.261375784873962402 -3.22645759582519531 0.744407832622528076
2.25610113143920898 -1.96543872356414795 0.510068655014038086
-0.640409767627716064 -3.19061112403869629 0.352355599403381348
0.994553446769714355 -1.78560912609100342 0.253476858139038086
2.18328070640563965 -1.84621560573577881 0.215264290571212769
0.625031173229217529 -0.895126461982727051 0.448404788970947266
1.5101245641708374 -1.66661286354064941 0.495891809463500977
-0.865965843200683594 1.02725625038146973 0.283333092927932739
-0.175720855593681335 -2.94657993316650391 0.4751872718334198
0.742004036903381348 -0.791864991188049316 0.22053198516368866
-0.323130518198013306 -3.08515071868896484 0.28351140022277832
-0.361971527338027954 0.93758159875869751 0.418195724487304688
0.480438917875289917 -0.71119379997253418 0.475305616855621338
-0.974071264266967773 -2.14751219749450684 0.292489200830459595
1.20972096920013428 -1.79341411590576172 0.359740674495697021
-1.11114096641540527 1.07764983177185059 0.156136974692344666
0.693440794944763184 -1.4476170539855957 0.318818002939224243
0.268205910921096802 1.72134590148925781 0.465029686689376831
-1.12142086029052734 0.689741969108581543 0.12859797477722168
1.52075505256652832 -0.696936070919036865 0.28404960036277771
-1.1143805980682373 -0.710614621639251709 0.534503400325775146
2.30703496932983398 -1.60837292671203613 0.281241804361343384
-0.346552848815917969 -3.04948973655700684 0.556401729583740234
-0.714081406593322754 -2.98746299743652344 0.677708983421325684
0.0986581891775131226 -2.85052800178527832 0.473177343606948853
-0.829902887344360352 -2.3099524974822998 0.402023434638977051
1.5698171854019165 -0.755204975605010986 0.0838635712862014771
1.44182705879211426 -1.54733443260192871 0.378012657165527344
-0.494231641292572021 -2.08075594902038574 0.42161288857460022
-0.978225827217102051 0.596283972263336182 0.360597729682922363
-0.714089512825012207 -2.20078325271606445 0.483875066041946411
-1.12363803386688232 -0.952702760696411133 0.657075464725494385
-1.01553583145141602 0.818261861801147461 0.195292264223098755
-0.677575170993804932 -3.01304149627685547 0.396202683448791504
1.3726356029510498 -1.1713261604309082 0.330285966396331787
1.08115768432617188 -1.45155942440032959 0.0575240924954414368
0.106683611869812012 1.65975189208984375 0.412299573421478271
0.868249058723449707 -1.32802867889404297 0.0136868376284837723
-0.51430511474609375 0.701001346111297607 0.274059057235717773
1.09192955493927002 -1.18312716484069824 0.247126772999763489
-0.116375207901000977 -3.1384427547454834 0.611835479736328125
-0.0736919865012168884 0.964249253273010254 0.021644294261932373
1.97816157341003418 -1.81463968753814697 0.452059894800186157
-0.763040661811828613 -2.03533649444580078 0.519846320152282715
0.566575825214385986 -0.655741274356842041 0.294735074043273926
-0.185929015278816223 -3.17711305618286133 0.31064268946647644
-0.420802175998687744 -3.35156941413879395 0.683094680309295654
0.00850629806518554688 1.06483757495880127 0.28414994478225708
-0.303677141666412354 1.09000527858734131 0.503580808639526367
1.72933769226074219 -0.822845339775085449 0.266270279884338379
-1.27307748794555664 -0.944627583026885986 0.724410057067871094
-1.14281940460205078 0.709878087043762207 0.289212018251419067
1.58400225639343262 -1.05256903171539307 0.263081789016723633
-0.380769610404968262 -2.91408443450927734 0.647314190864562988
0.0883903801441192627 1.91645693778991699 0.462345242500305176
1.63250792026519775 -1.20823180675506592 0.365225613117218018
-0.205901294946670532 0.983968496322631836 0.390926092863082886
-0.635214805603027344 0.981697440147399902 0.49777713418006897
-0.687125265598297119 0.631788074970245361 0.244575411081314087
-0.0463341400027275085 1.11375951766967773 0.489006221294403076
0.0878763496875762939 -3.08244228363037109 0.612812042236328125
-0.916373968124389648 -2.03842687606811523 0.434716373682022095
2.20357155799865723 -1.68445086479187012 0.153343036770820618
-0.177172660827636719 1.35211288928985596 0.429286688566207886
1.22879433631896973 -1.43636441230773926 0.336260527372360229
-0.74716949462890625 0.850436747074127197 0.352047979831695557
-0.132631197571754456 1.23122143745422363 0.259653687477111816
1.22605693340301514 -1.5577772855758667 0.63911890983581543
-0.559775888919830322 -3.09007883071899414 0.653825581073760986
0.971515774726867676 -1.35002398490905762 0.364726334810256958
1.65183877944946289 -1.06141567230224609 0.110293537378311157
-0.684223175048828125 0.563164710998535156 0.410878270864486694
-0.0248520374298095703 1.93184781074523926 0.297071397304534912
0.978335797786712646 -1.33372378349304199 0.14238661527633667
-0.904921770095825195 0.776593923568725586 0.294280409812927246
2.14504384994506836 -1.82048642635345459 0.499586582183837891
1.73349785804748535 -1.76532530784606934 0.215462133288383484
0.682214736938476562 -0.52373969554901123 0.208787158131599426
1.37877571582794189 -1.60663390159606934 0.251601994037628174
-0.99850153923034668 -0.713173210620880127 0.382900804281234741
-0.863711118698120117 0.562771916389465332 0.456294268369674683
-0.698931634426116943 0.827323615550994873 0.559294581413269043
-0.507232487201690674 -3.26313948631286621 0.369374543428421021
1.31352758407592773 -1.52366316318511963 0.139942839741706848
0.731560051441192627 -0.743221282958984375 0.561745703220367432
1.14077723026275635 -1.75528168678283691 0.226612657308578491
1.42037487030029297 -1.84331679344177246 0.442215651273727417
-0.171970993280410767 1.24363291263580322 0.105449527502059937
-0.140321865677833557 1.07849025726318359 0.280596613883972168
1.27489793300628662 -1.51317012310028076 0.455927252769470215
-0.52530437707901001 -3.10364246368408203 0.31361699104309082
1.43526172637939453 -0.994275987148284912 0.250025689601898193
-0.148911595344543457 -2.75730371475219727 0.458865106105804443
0.0241531729698181152 1.51021409034729004 0.466695249080657959
1.32419872283935547 -1.69901823997497559 0.382156729698181152
-0.184815526008605957 -2.80901098251342773 0.265778541564941406
1.15999269485473633 -1.48476147651672363 0.177307814359664917
-0.609279811382293701 0.690282523632049561 0.43814396858215332
1.16487705707550049 -1.64204490184783936 0.411790728569030762
-1.14408516883850098 0.906963586807250977 0.435470402240753174
-0.0133513957262039185 1.09836971759796143 0.121530741453170776
-1.14057528972625732 0.835614681243896484 0.125869542360305786
-1.01710891723632812 -1.11489474773406982 0.642134010791778564
-0.679119706153869629 -2.92521047592163086 0.533143043518066406
-0.464643150568008423 -2.96321225166320801 0.543759763240814209
-0.292940795421600342 -3.17448663711547852 0.593207836151123047
-0.309297084808349609 1.11649346351623535 0.349417567253112793
2.29283595085144043 -1.94949054718017578 0.644028365612030029
-0.657085955142974854 0.751888155937194824 0.310596197843551636
0.374265551567077637 1.88699114322662354 0.405675798654556274
1.34619402885437012 -0.907102286815643311 0.377876102924346924
-0.931184947490692139 1.01862251758575439 0.160292059183120728
-1.35548698902130127 -0.860838055610656738 0.630786359310150146
1.72401809692382812 -0.879219591617584229 0.123420082032680511
-0.728488326072692871 -3.15890979766845703 0.565971136093139648
2.31162166595458984 -2.06676864624023438 0.435962378978729248
-1.25468933582305908 -0.806313574314117432 0.507394254207611084
-1.07205724716186523 0.469428330659866333 0.313000023365020752
-0.642762839794158936 -2.05994820594787598 0.459768921136856079
1.08163464069366455 -1.58206367492675781 0.281559348106384277
-0.423507183790206909 -3.14099287986755371 0.438463658094406128
-0.325325727462768555 -3.07431316375732422 0.700910329818725586
1.13097798824310303 -1.3254166841506958 0.0651187747716903687
1.09446489810943604 -1.40745711326599121 0.360435664653778076
1.18135356903076172 -1.10661327838897705 0.359133124351501465
1.48716950416564941 -1.71862733364105225 0.258617192506790161
0.254650533199310303 1.7948155403137207 0.352244079113006592
1.68232190608978271 -0.948307156562805176 0.247661039233207703
-0.445086747407913208 -3.13512730598449707 0.590586066246032715
0.129984825849533081 1.96381878852844238 0.34343796968460083
-0.000724077224731445312 -2.72912406921386719 0.542033493518829346
-1.11046957969665527 0.598727285861968994 0.377263844013214111
-0.267837554216384888 -3.30136442184448242 0.635505080223083496
-1.1810755729675293 -0.835129857063293457 0.637772440910339355
-1.15987122058868408 0.750137805938720703 0.418950080871582031
0.866522669792175293 -1.57794189453125 0.213789999485015869
-1.25950264930725098 0.844214379787445068 0.291051864624023438
-0.520830631256103516 -3.2400057315826416 0.610010445117950439
