ply
format ascii 1.0
element vertex 64
comment vertices
property float x
property float y
property float z
end_header
-0.83123856782913208 -0.55591583251953125 0.0667470544576644897
-1.47013247013092041 -1.35599064826965332 0.414690643548965454
-2.72320079803466797 -1.25864100456237793 0.440345615148544312
0.381949871778488159 -0.924183011054992676 0.37829020619392395
0.584874272346496582 -1.91256952285766602 0.0498562194406986237
0.692110002040863037 -0.721792042255401611 0.411524116992950439
0.776770174503326416 0.629784166812896729 0.336945444345474243
-1.82680618762969971 -0.814112544059753418 0.403549075126647949
1.33966255187988281 -1.48502671718597412 0.0550798848271369934
1.41340363025665283 -2.64618396759033203 0.0589663945138454437
0 0 0
0 0 0
0 0 0
0 0 0
0 0 0
0 0 0
0 0 0
0 0 0
0 0 0
0 0 0
0 0 0
0 0 0
0 0 0
0 0 0
0 0 0
0 0 0
0 0 0
0 0 0
0 0 0
0 0 0
0 0 0
0 0 0
0 0 0
0 0 0
0 0 0
0 0 0
0 0 0
0 0 0
0 0 0
0 0 0
0 0 0
0 0 0
0 0 0
0 0 0
0 0 0
0 0 0
0 0 0
0 0 0
0 0 0
0 0 0
0 0 0
0 0 0
0 0 0
0 0 0
0 0 0
0 0 0
0 0 0
0 0 0
0 0 0
0 0 0
0 0 0
0 0 0
0 0 0
0 0 0
