ply
format ascii 1.0
element vertex 95
comment vertices
property float x
property float y
property float z
end_header
-0.0844811052083969116 -2.07145953178405762 0.347481071949005127
0.741774797439575195 2.01051664352416992 0.277225017547607422
-2.10711383819580078 -1.37356114387512207 0.324468314647674561
-0.538219869136810303 1.07043290138244629 0.290622144937515259
-1.40919005870819092 -2.17620229721069336 0.111707985401153564
0.125011146068572998 -0.997880935668945312 0.166754409670829773
-1.1081855297088623 0.171831011772155762 0.274209052324295044
-2.4189753532409668 -0.257104188203811646 0.206708073616027832
1.25883269309997559 1.60818934440612793 0.0452656149864196777
-1.04831254482269287 1.23094868659973145 0.302064269781112671
-0.307564198970794678 -1.097633957862854 0.241722971200942993
0.715690374374389648 1.46635162830352783 0.246467411518096924
-1.24385762214660645 -0.842929244041442871 0.383515119552612305
-2.0127263069152832 -0.0443067774176597595 0.0212670266628265381
-0.946115791797637939 0.737018465995788574 0.229186892509460449
0.150363251566886902 -0.832903265953063965 0.51532590389251709
-0.791160821914672852 -1.31433403491973877 0.273130834102630615
-1.16328656673431396 -2.28932881355285645 0.437384426593780518
-1.05607640743255615 -0.656905293464660645 0.228645890951156616
0.0255896188318729401 -1.09228694438934326 0.493851721286773682
0.482841223478317261 1.87030351161956787 0.371142119169235229
-0.85832136869430542 -1.74773609638214111 0.247143745422363281
-0.447653442621231079 0.922169923782348633 0.225240558385848999
-2.02477002143859863 0.0612060762941837311 -0.131218850612640381
-1.88446950912475586 -0.158553600311279297 -0.089695371687412262
-0.980604767799377441 -1.85189735889434814 0.187212675809860229
-0.928702831268310547 -0.737577199935913086 0.566218256950378418
-2.33863449096679688 -1.25804388523101807 0.153048619627952576
0.73777306079864502 1.66702961921691895 0.112909600138664246
-1.43591415882110596 -2.10937213897705078 0.327629268169403076
0.392481297254562378 0.98780357837677002 0.606920897960662842
-0.647068262100219727 -0.854705512523651123 0.416210055351257324
-1.25464630126953125 0.563914716243743896 0.181617066264152527
-0.0511398166418075562 -0.923125028610229492 0.0166070722043514252
-1.94695532321929932 -0.743001163005828857 0.240191221237182617
0.472979038953781128 1.20900416374206543 0.356911182403564453
-0.767086327075958252 -1.819571852684021 0.130086556077003479
-0.808205246925354004 0.159316673874855042 0.31259918212890625
-1.257865309715271 -0.0342945754528045654 0.398811787366867065
-0.25329059362411499 0.943571329116821289 0.33168753981590271
-2.12393999099731445 -0.094256766140460968 -0.0598662793636322021
-0.418213486671447754 -1.12225174903869629 0.160257235169410706
1.01971244812011719 1.624245285987854 0.104718811810016632
-0.75274360179901123 1.19808924198150635 0.318370223045349121
-0.0149326436221599579 -2.25806856155395508 0.189731627702713013
-1.97914397716522217 0.0389066562056541443 -0.156269744038581848
-1.0024111270904541 0.0532708838582038879 0.377283990383148193
-1.83557355403900146 0.0774048864841461182 -0.05963858962059021
-1.05992507934570312 0.867518901824951172 0.232460647821426392
-0.990887999534606934 -1.71279776096343994 0.130378961563110352
-0.0744207203388214111 -1.81553173065185547 0.357557982206344604
0.719980180263519287 1.82611751556396484 0.259797751903533936
-0.730513572692871094 -1.91976141929626465 0.186991661787033081
-0.0535395778715610504 -1.88650906085968018 0.386190891265869141
-0.118870198726654053 -0.89134061336517334 0.417676746845245361
-0.852977752685546875 1.17309260368347168 0.330907672643661499
0.743840038776397705 1.37375211715698242 0.217102259397506714
0.0177950188517570496 -2.06419730186462402 0.255375176668167114
-0.607347667217254639 -0.787156760692596436 0.536916494369506836
-1.10510683059692383 -0.799780786037445068 0.42264854907989502
-0.110836416482925415 -1.84173893928527832 0.338455796241760254
-1.03308701515197754 0.945208966732025146 0.326774179935455322
-1.8665316104888916 -0.874855458736419678 0.177147418260574341
-1.25901615619659424 0.0824252963066101074 0.170394480228424072
-0.304062426090240479 0.813389003276824951 0.352916300296783447
-1.97443199157714844 -0.104646921157836914 -0.0521386265754699707
-1.81665968894958496 -0.780722916126251221 0.0750288218259811401
-0.839478552341461182 -0.575634300708770752 0.52571403980255127
-1.04764342308044434 0.139391630887985229 0.198328256607055664
-0.74227529764175415 -0.744373679161071777 0.468796610832214355
-1.57522928714752197 -0.128841236233711243 0.371115446090698242
-1.8552396297454834 -0.00965950638055801392 -0.07266998291015625
-1.57072150707244873 -2.21869516372680664 0.209614574909210205
-0.948851644992828369 -1.46008181571960449 0.0649152398109436035
0.683188855648040771 1.68140745162963867 0.216048076748847961
1.05698084831237793 1.59520018100738525 0.174673497676849365
0.594568789005279541 1.74424731731414795 0.250537186861038208
-0.93695068359375 -1.85162591934204102 0.16297188401222229
0.299338221549987793 0.930813968181610107 0.518732666969299316
-0.860379457473754883 -1.58768677711486816 0.153079122304916382
-1.93507635593414307 -0.969618380069732666 0.144320219755172729
-1.74366390705108643 0.356571793556213379 0.219261318445205688
-0.879275262355804443 0.00917125493288040161 0.372912079095840454
-0.97415691614151001 1.16552603244781494 0.263077646493911743
-0.400345891714096069 -1.17891693115234375 0.223378747701644897
-0.01895892433822155 -2.16372561454772949 0.317472696304321289
-0.355950534343719482 1.02961456775665283 0.309673070907592773
-0.994061589241027832 -0.0417607426643371582 0.256337523460388184
-0.292439401149749756 -1.01762688159942627 0.231870740652084351
-0.85461890697479248 -1.60971033573150635 0.10688289999961853
-1.97637784481048584 -0.0429420396685600281 -0.0690472424030303955
-0.977960050106048584 0.234863907098770142 0.206540629267692566
-2.09986495971679688 -0.322071671485900879 -0.067076757550239563
-0.937884688377380371 0.214299947023391724 0.258199125528335571
-1.11725747585296631 -1.73064422607421875 0.190928816795349121
