ply
format ascii 1.0
element vertex 109
comment vertices
property float x
property float y
property float z
end_header
1.36168777942657471 -3.29288578033447266 0.348630338907241821
1.29269194602966309 0.77009129524230957 0.702985286712646484
1.33605754375457764 -1.43009853363037109 0.163590550422668457
-2.12103509902954102 -2.25199985504150391 0.519533157348632812
0.451981484889984131 -0.715719461441040039 0.342134922742843628
1.62793755531311035 -1.9543149471282959 0.44022098183631897
1.01310896873474121 -0.724193453788757324 0.57623589038848877
0.88932347297668457 -1.99587178230285645 0.327072978019714355
-2.84536957740783691 -1.96311819553375244 0.294195950031280518
-0.916523933410644531 -1.81799006462097168 0.201347842812538147
1.57413125038146973 -2.86039352416992188 0.328997701406478882
0.936910390853881836 0.598850250244140625 0.237000375986099243
0.735595285892486572 -0.8341522216796875 0.324832767248153687
-1.22633552551269531 -1.31826770305633545 0.235891222953796387
0.560377359390258789 -1.87960875034332275 0.110488533973693848
-1.66819679737091064 -1.46255838871002197 0.328779786825180054
0.203149765729904175 -1.00214600563049316 0.265424817800521851
-2.66840577125549316 -1.23464858531951904 0.40652543306350708
0.871434211730957031 -2.31737685203552246 0.353668063879013062
-2.82302737236022949 -1.34040248394012451 0.290717065334320068
1.42055690288543701 -2.64019036293029785 0.100393056869506836
-1.82314765453338623 -0.859513461589813232 0.428831368684768677
0.540185451507568359 -0.807974159717559814 0.1771506667137146
0.860229849815368652 0.477468967437744141 0.0298418775200843811
1.4911724328994751 -1.93786847591400146 0.198756754398345947
0.684228658676147461 -0.576090991497039795 0.361494183540344238
-1.51129281520843506 -1.45358586311340332 0.2265910804271698
-2.27814221382141113 -1.64459085464477539 0.639377057552337646
0.541477382183074951 -0.979215025901794434 0.255023598670959473
-2.56445121765136719 -2.02874088287353516 0.343266189098358154
-1.41376948356628418 -1.42069745063781738 0.340098351240158081
1.15254878997802734 -2.99778532981872559 0.331059783697128296
0.161597639322280884 -0.880589604377746582 0.221024543046951294
1.75563931465148926 -1.81967496871948242 0.501244425773620605
-2.87369823455810547 -1.27562057971954346 0.284515559673309326
-2.13995051383972168 -0.915961146354675293 0.606344223022460938
-1.84961533546447754 -1.10019564628601074 0.313165873289108276
0.783133387565612793 0.680324852466583252 0.241635680198669434
1.47726249694824219 -3.19771051406860352 0.359468519687652588
0.666871249675750732 -0.775309920310974121 0.34541851282119751
-0.807111859321594238 -0.677585184574127197 0.100197881460189819
-1.25515782833099365 -1.59829282760620117 0.323960661888122559
0.803295433521270752 0.756866455078125 0.23437073826789856
-2.36937689781188965 -2.12087082862854004 0.483216613531112671
-2.6059112548828125 -1.35754585266113281 0.419201701879501343
1.59013223648071289 -1.71959292888641357 0.361541748046875
0.720731258392333984 0.506583511829376221 0.191293150186538696
0.404509514570236206 -1.92331767082214355 0.0387454330921173096
-1.15482032299041748 -1.73313522338867188 0.472689539194107056
0.431710034608840942 -0.813134551048278809 0.13426738977432251
-1.48080039024353027 -1.24472320079803467 0.109476327896118164
0.787176370620727539 0.782548010349273682 0.243997335433959961
1.32662320137023926 -1.68878459930419922 0.106266111135482788
0.451977252960205078 0.713547229766845703 0.22851097583770752
0.815526127815246582 0.502332806587219238 0.147048145532608032
0.708549916744232178 -0.805753827095031738 0.43567049503326416
-2.73314881324768066 -1.2582632303237915 0.292211532592773438
-1.30518770217895508 -1.43137550354003906 0.501978278160095215
-2.81989049911499023 -1.32655251026153564 0.220765054225921631
0.743567109107971191 -2.29237055778503418 0.173509925603866577
-1.80332255363464355 -0.858403265476226807 0.49346613883972168
0.690967738628387451 -0.720979928970336914 0.239035725593566895
-1.94579029083251953 -0.916426420211791992 0.335942089557647705
0.204082995653152466 -0.900026321411132812 0.150033175945281982
1.46506094932556152 -2.07807159423828125 0.39574018120765686
0.506992101669311523 -0.802336573600769043 0.27815777063369751
-1.58453750610351562 -1.34596872329711914 0.347336858510971069
0.305423736572265625 -0.815039753913879395 0.411757379770278931
0.743452012538909912 0.628637969493865967 0.155666664242744446
0.700337767601013184 0.688092708587646484 0.261923611164093018
0.531745612621307373 -0.975639283657073975 0.303213238716125488
0.708771944046020508 -0.692143559455871582 0.530300319194793701
-1.7821507453918457 -0.854368031024932861 0.267717063426971436
0.920158088207244873 -2.12939786911010742 0.324519097805023193
0.893025040626525879 0.614589810371398926 0.202249184250831604
0.555323183536529541 -0.881949365139007568 0.219650715589523315
0.341918081045150757 -0.926830410957336426 0.404843300580978394
1.47485458850860596 -1.56710934638977051 0.0277808308601379395
-2.75445914268493652 -1.48363912105560303 0.441932827234268188
0.909731566905975342 -0.664154648780822754 0.340845942497253418
-1.40513205528259277 -1.52753686904907227 0.320905894041061401
0.59119492769241333 -0.83130347728729248 0.35042235255241394
-1.66634321212768555 -0.987816929817199707 0.386808395385742188
-1.3767932653427124 -1.48773789405822754 0.250537365674972534
0.832350611686706543 0.754329442977905273 0.0442709773778915405
0.162331342697143555 -0.875581502914428711 0.391682267189025879
-2.50519180297851562 -1.27690017223358154 0.529273271560668945
0.816170930862426758 0.677803754806518555 0.298445671796798706
-1.86721336841583252 -0.931766092777252197 0.328654050827026367
-1.97763025760650635 -0.86016315221786499 0.454618126153945923
1.69839012622833252 -1.82783544063568115 0.287370681762695312
-1.97477984428405762 -0.896814584732055664 0.218975931406021118
0.347772687673568726 -0.833319902420043945 0.241389214992523193
-2.92989969253540039 -1.3612816333770752 0.128603547811508179
1.04054915904998779 -0.68648684024810791 0.802346527576446533
1.3382868766784668 -1.73232829570770264 0.00940302014350891113
-2.8958745002746582 -1.24538731575012207 0.226640447974205017
-1.5175926685333252 -1.5561147928237915 0.311011731624603271
0.657125651836395264 -0.662155270576477051 0.397119462490081787
0.809699952602386475 -0.699062705039978027 0.31894075870513916
-2.67181062698364258 -1.34569060802459717 0.321311831474304199
0.756158947944641113 0.742292284965515137 0.319128423929214478
-2.56509280204772949 -1.41138792037963867 0.394190341234207153
-2.7165069580078125 -1.39065146446228027 0.436013072729110718
-1.23700928688049316 -1.42938911914825439 0.39462590217590332
0.338937491178512573 -0.881360113620758057 0.263937264680862427
0.777846157550811768 0.553853154182434082 0.166727602481842041
-1.03296685218811035 -0.643071770668029785 0.0080441012978553772
-1.84612715244293213 -0.945382535457611084 0.284196257591247559
