ply
format ascii 1.0
element vertex 256
comment vertices
property float x
property float y
property float z
end_header
1.410880446434021 -1.3377373218536377 0.447192668914794922
-1.94660043716430664 1.61366832256317139 0.353220969438552856
-1.27035987377166748 -1.68704545497894287 0.177770018577575684
-0.759802401065826416 0.120567150413990021 0.553872048854827881
-0.524889886379241943 1.61778438091278076 0.615248441696166992
2.34376168251037598 -0.438874155282974243 0.265289157629013062
1.10797584056854248 -0.115628495812416077 0.654336333274841309
-1.67491698265075684 0.638520956039428711 0.270320504903793335
-0.7303658127784729 -0.853003799915313721 0.405728638172149658
-0.335387885570526123 -1.69471299648284912 0.255544841289520264
-0.784999430179595947 0.926448166370391846 0.0728504881262779236
-1.27111101150512695 1.48880624771118164 0.730745136737823486
-1.29928696155548096 -0.407698512077331543 0.54087531566619873
1.62400627136230469 -0.565199077129364014 0.286625206470489502
0.780923128128051758 -0.703062653541564941 0.425560951232910156
-1.02489638328552246 1.74357044696807861 0.238402530550956726
-0.874775826930999756 0.695717751979827881 0.624264419078826904
-0.564954638481140137 -0.330444753170013428 0.206314876675605774
-1.84887063503265381 1.11413729190826416 0.517687618732452393
-0.770244181156158447 -1.95629251003265381 0.108887486159801483
2.03797078132629395 -0.829098999500274658 0.0978147014975547791
-1.23101460933685303 0.258560150861740112 0.423979043960571289
-1.3548743724822998 0.926765739917755127 0.538719773292541504
-0.81119084358215332 2.11700773239135742 0.482025027275085449
1.80612301826477051 -1.5780189037322998 0.295373529195785522
1.90079665184020996 -0.199032515287399292 0.134026899933815002
-0.802587509155273438 -1.59396922588348389 0.415902435779571533
-0.510240554809570312 0.930782616138458252 0.457445412874221802
-1.01215171813964844 1.84335935115814209 0.811260342597961426
0.871524274349212646 -0.486689865589141846 0.798944592475891113
-0.889809250831604004 -0.405160039663314819 0.682051599025726318
-0.993062376976013184 -0.381403952836990356 0.255218505859375
-0.410689055919647217 -0.542414426803588867 0.510131478309631348
-1.1105952262878418 -0.763125896453857422 0.475061684846878052
-0.883203983306884766 0.516293108463287354 0.273515105247497559
1.99484848976135254 -0.537472724914550781 0.399106442928314209
-0.629215538501739502 -1.5384746789932251 0.0607450753450393677
-0.779790282249450684 1.32974445819854736 0.631949186325073242
1.13094639778137207 -0.323847353458404541 0.334020525217056274
1.2522355318069458 -1.6059422492980957 0.228566020727157593
0.781051218509674072 -0.325604468584060669 0.473033547401428223
-1.62192237377166748 1.38103759288787842 0.38574296236038208
-0.972708225250244141 -1.43453192710876465 0.138437271118164062
1.8003077507019043 -0.939382374286651611 0.342127203941345215
-0.660520672798156738 1.49227499961853027 0.317247569561004639
-1.03157544136047363 -0.100680164992809296 0.553071796894073486
-0.813748359680175781 -0.105426102876663208 0.11135786771774292
-0.700982928276062012 1.85261046886444092 0.275161594152450562
-0.589874386787414551 -0.184473082423210144 0.511780440807342529
1.08733654022216797 -1.52332031726837158 0.508825421333312988
-0.958810925483703613 1.63913154602050781 0.552588105201721191
-1.00591135025024414 0.833530783653259277 0.355026006698608398
1.19264769554138184 -1.23717999458312988 0.221797272562980652
1.27484309673309326 -0.296115219593048096 0.873337149620056152
2.32401108741760254 -0.761706292629241943 0.307705044746398926
-0.755961120128631592 0.417813956737518311 0.741999983787536621
1.55557584762573242 -1.12632322311401367 0.244687974452972412
-1.13254868984222412 0.547475814819335938 0.503518462181091309
-1.17293787002563477 -1.98424100875854492 0.20373833179473877
1.77736783027648926 -0.317243099212646484 0.440334826707839966
-0.508805155754089355 0.780630528926849365 0.183727577328681946
-1.67326486110687256 0.97302091121673584 0.302497506141662598
-0.706595540046691895 -0.517261147499084473 0.442046195268630981
-0.535198330879211426 -0.734066367149353027 0.213473513722419739
-0.96120142936706543 -1.7315223217010498 0.120452538132667542
1.88293814659118652 -0.508052289485931396 0.127837970852851868
-1.07238757610321045 -1.70270967483520508 0.416762411594390869
-1.43068969249725342 0.522013664245605469 0.175461634993553162
-0.7498207688331604 1.76115632057189941 0.716669082641601562
-0.587248384952545166 -1.38215947151184082 0.294847697019577026
-0.979438066482543945 -0.961994946002960205 0.319489717483520508
-0.63005363941192627 -1.78693211078643799 0.300978034734725952
-1.35198068618774414 1.36769354343414307 0.468383103609085083
-0.84387892484664917 -0.67804640531539917 0.659107327461242676
-0.992112398147583008 0.267936617136001587 0.558868169784545898
-1.25123429298400879 1.76586461067199707 0.705757379531860352
-0.832251667976379395 -0.180041223764419556 0.388600856065750122
-0.739771902561187744 0.787005603313446045 0.363149464130401611
-1.38715100288391113 0.74013519287109375 0.328114986419677734
-1.57427656650543213 1.10579967498779297 0.51284557580947876
1.70091617107391357 -1.34851527214050293 0.378111064434051514
-1.32267820835113525 -0.217196673154830933 0.360086411237716675
1.63106167316436768 -0.755870938301086426 0.466060996055603027
-1.15826630592346191 1.56100118160247803 0.402719557285308838
-0.573134422302246094 2.00453901290893555 0.437844544649124146
-0.815118074417114258 0.278089195489883423 0.362113982439041138
-0.655662894248962402 0.548666119575500488 0.374981403350830078
-1.59322237968444824 0.82256704568862915 0.481146007776260376
-0.875696182250976562 1.84779512882232666 0.448900222778320312
-1.87237751483917236 1.4385685920715332 0.507919251918792725
-1.07283329963684082 -0.592708230018615723 0.676048517227172852
-0.706530570983886719 -0.551003456115722656 0.202440977096557617
-1.07021450996398926 -0.499461323022842407 0.451826661825180054
-0.577498853206634521 -1.7892754077911377 0.0648873969912528992
-0.495693236589431763 -0.765473902225494385 0.445059120655059814
1.00817573070526123 -0.305481374263763428 0.865121245384216309
-1.7506110668182373 1.65775275230407715 0.471604704856872559
2.1477503776550293 -0.320871323347091675 0.228823989629745483
-0.568665385246276855 -0.0545679181814193726 0.321865618228912354
1.72308635711669922 -0.756021499633789062 0.204023256897926331
-0.665882706642150879 1.75397908687591553 0.494897603988647461
-1.81295657157897949 0.889425933361053467 0.49490809440612793
1.71568512916564941 -0.343915790319442749 0.223639622330665588
-0.882258594036102295 -1.81294727325439453 0.369179427623748779
2.14301586151123047 -0.547175884246826172 0.231290504336357117
1.79360353946685791 -0.583718061447143555 0.483493953943252563
1.08997690677642822 -0.503317356109619141 0.757075071334838867
-1.06671059131622314 0.385369211435317993 0.343487799167633057
0.90783381462097168 -0.469924569129943848 0.362276047468185425
-0.813145101070404053 0.498722612857818604 0.545304417610168457
0.813409984111785889 -0.526321053504943848 0.553827762603759766
-1.63449859619140625 0.428317070007324219 0.31536865234375
1.5866013765335083 -0.917847394943237305 0.318609893321990967
-0.94025719165802002 -0.589343786239624023 0.306061685085296631
1.93813300132751465 -0.204645261168479919 0.345448881387710571
1.98978519439697266 -0.710136234760284424 0.27258765697479248
-1.08815300464630127 -1.595741868019104 0.014493405818939209
-1.53533613681793213 1.41996550559997559 0.57578742504119873
-1.07325422763824463 -0.285712987184524536 0.648274004459381104
1.45386171340942383 -1.49931585788726807 0.320108741521835327
-0.516699552536010742 -1.58972442150115967 0.252012848854064941
-1.83553647994995117 0.778595328330993652 0.31973576545715332
-0.993126511573791504 -1.98452436923980713 0.098451562225818634
-0.816797137260437012 -1.56831324100494385 0.168231844902038574
-1.18107151985168457 0.212278962135314941 0.623431980609893799
1.30352580547332764 -1.51184368133544922 0.476748794317245483
-0.58311760425567627 1.27167403697967529 0.654115438461303711
-0.754425883293151855 -0.266773700714111328 0.604942917823791504
-1.849822998046875 1.38977086544036865 0.309110462665557861
0.886190950870513916 -0.261366307735443115 0.63789522647857666
2.31853055953979492 -0.607936322689056396 0.151119709014892578
-0.881035208702087402 0.189416736364364624 0.707753181457519531
-0.611408233642578125 0.970209598541259766 0.287670165300369263
-1.21184885501861572 -0.192118093371391296 0.539938449859619141
-1.56456780433654785 0.626516282558441162 0.479641258716583252
-0.904943108558654785 0.64655911922454834 0.434797435998916626
1.93919110298156738 -0.388646841049194336 0.27427440881729126
-1.0468146800994873 -1.56397485733032227 0.264456361532211304
1.3496711254119873 -1.14292669296264648 0.288788855075836182
1.34979379177093506 -1.35150825977325439 0.235472410917282104
-0.911976933479309082 0.616094589233398438 0.797906160354614258
-0.62576448917388916 0.312636673450469971 0.645152390003204346
-0.702285408973693848 0.749129593372344971 0.559276580810546875
-1.02962243556976318 0.093355812132358551 0.490304410457611084
-0.635994195938110352 1.46434962749481201 0.591375768184661865
-1.15799331665039062 1.71470880508422852 0.547234654426574707
-0.482611387968063354 -0.436288505792617798 0.371387362480163574
-0.755658805370330811 -1.73492550849914551 0.0937721878290176392
-0.743802428245544434 1.58282387256622314 0.486625075340270996
-0.765352725982666016 -0.0886660367250442505 0.537433326244354248
-1.02412903308868408 1.5941694974899292 0.721075057983398438
-1.93552589416503906 0.974320948123931885 0.383790463209152222
1.83606898784637451 -0.718808948993682861 0.0625169426202774048
-0.734747767448425293 -0.683806836605072021 0.326928883790969849
-0.862061977386474609 1.02307140827178955 0.208827123045921326
2.15948629379272461 -0.656472742557525635 0.377424538135528564
-1.12454414367675781 -0.603750765323638916 0.311794370412826538
1.14485013484954834 -1.39275979995727539 0.296930283308029175
-0.89061504602432251 -0.334184557199478149 0.456981420516967773
2.25267410278320312 -0.796031951904296875 0.148063063621520996
1.8081207275390625 -1.37511110305786133 0.238385975360870361
2.2387237548828125 -0.454605251550674438 0.407976597547531128
-1.46147489547729492 0.549076855182647705 0.357350051403045654
1.63285994529724121 -0.424029797315597534 0.393423348665237427
-1.14389252662658691 -1.86427068710327148 0.0798710063099861145
-1.53309977054595947 0.837426900863647461 0.317932784557342529
0.900937795639038086 -0.635066807270050049 0.658645451068878174
-0.948254823684692383 0.89569622278213501 0.126564949750900269
-1.1279752254486084 1.43440604209899902 0.652523636817932129
-0.747338771820068359 1.70475757122039795 0.353901773691177368
-0.893085658550262451 -0.808742761611938477 0.425246298313140869
2.43801164627075195 -0.55757296085357666 0.341430932283401489
-0.836681127548217773 -0.46148449182510376 0.349018573760986328
-0.801152408123016357 0.312441170215606689 0.61740189790725708
-0.720523238182067871 -0.665278255939483643 0.544072628021240234
-1.1853410005569458 -0.377757489681243896 0.421012341976165771
-0.786442399024963379 -1.72247481346130371 0.258374273777008057
1.16529452800750732 -0.351444721221923828 0.759650111198425293
-0.573678016662597656 -0.569003045558929443 0.302067011594772339
-0.569960713386535645 0.753341794013977051 0.333188444375991821
-1.75192606449127197 1.32687783241271973 0.468038499355316162
-1.12087666988372803 0.448555082082748413 0.632608175277709961
-0.607485055923461914 -0.179354801774024963 0.162795603275299072
1.83959281444549561 -0.580850839614868164 0.266552984714508057
-0.802689552307128906 0.864922821521759033 0.235296010971069336
-0.714081406593322754 1.60647523403167725 0.684197962284088135
-0.899978399276733398 0.417433112859725952 0.436568260192871094
0.855076313018798828 -0.31753966212272644 0.81694483757019043
-0.898311138153076172 -1.85965991020202637 0.217518001794815063
-1.29551935195922852 1.62522852420806885 0.645484089851379395
-0.834819912910461426 1.73396837711334229 0.579319596290588379
-0.883529543876647949 0.143271088600158691 0.408876240253448486
-0.770383596420288086 1.98233139514923096 0.554078936576843262
-0.663468778133392334 -1.63411104679107666 0.217030256986618042
-1.02261710166931152 -0.727561771869659424 0.350681126117706299
-0.525293052196502686 -1.64622390270233154 0.102363698184490204
1.5493779182434082 -0.696292519569396973 0.323274493217468262
-1.36221492290496826 0.782554984092712402 0.475329428911209106
-0.53206944465637207 1.83030784130096436 0.511067867279052734
1.30136418342590332 -1.47414278984069824 0.324820518493652344
0.80646216869354248 -0.58129507303237915 0.328565329313278198
-0.529737472534179688 -0.324973940849304199 0.490460216999053955
1.67586719989776611 -0.459720343351364136 0.130637869238853455
-0.864391922950744629 -1.46641194820404053 0.27288547158241272
-1.00932180881500244 -0.131296172738075256 0.701092660427093506
-0.903865337371826172 -0.17918860912322998 0.524770498275756836
1.71307277679443359 -0.684507489204406738 0.337823569774627686
-0.823482751846313477 1.8735511302947998 0.643853187561035156
-0.617532968521118164 -1.58457076549530029 0.363500356674194336
-0.775948405265808105 0.67570728063583374 0.269112825393676758
-0.473968148231506348 0.920953333377838135 0.256230294704437256
2.0426490306854248 -0.229509934782981873 0.175849482417106628
-0.760547757148742676 -0.943261623382568359 0.29110640287399292
-0.744235098361968994 -0.307139128446578979 0.450956225395202637
-0.84161984920501709 -0.571055114269256592 0.473907172679901123
1.07230043411254883 -0.24214625358581543 0.722678840160369873
-1.80771028995513916 1.03193628787994385 0.335918545722961426
-0.773365318775177002 1.99561333656311035 0.406347870826721191
-1.71546709537506104 0.824009954929351807 0.392927646636962891
2.06309247016906738 -0.413961648941040039 0.348214149475097656
-0.929824888706207275 -0.00776395387947559357 0.456694066524505615
2.17359614372253418 -0.723430931568145752 0.246834486722946167
1.71878516674041748 -0.88908761739730835 0.144766882061958313
-0.663566470146179199 -0.0276511162519454956 0.45321357250213623
-0.826756060123443604 -1.83441793918609619 0.0156833026558160782
-1.0316014289855957 -1.78471183776855469 0.304240882396697998
-1.97325301170349121 1.18359243869781494 0.490409016609191895
1.24998712539672852 -1.27539575099945068 0.349202841520309448
1.97870349884033203 -0.61653590202331543 0.133914768695831299
1.37784671783447266 -1.51863574981689453 0.198930904269218445
-0.901540398597717285 0.0986632406711578369 0.56697380542755127
-0.546280205249786377 -0.631841421127319336 0.462727814912796021
-0.731061100959777832 0.315861046314239502 0.472600787878036499
2.30032896995544434 -0.634741306304931641 0.39599156379699707
-0.593694448471069336 0.941259205341339111 0.148094147443771362
-1.19062352180480957 1.56570160388946533 0.567806899547576904
-1.06386816501617432 1.49491715431213379 0.488155126571655273
-0.796416580677032471 -0.400696814060211182 0.546315312385559082
-1.85663020610809326 0.645066678524017334 0.367218166589736938
-0.786671936511993408 0.64009469747543335 0.733117520809173584
-1.63294672966003418 0.976523339748382568 0.523679792881011963
-0.79068368673324585 -0.438191413879394531 0.193955719470977783
-1.49805176258087158 0.91614997386932373 0.525716066360473633
0.703429818153381348 -0.582872152328491211 0.486963093280792236
-0.974357068538665771 -0.725858628749847412 0.638158023357391357
-0.596422433853149414 -0.713367342948913574 0.359894663095474243
2.06343388557434082 -0.37727665901184082 0.131968140602111816
-1.17484688758850098 -1.57749330997467041 0.210283011198043823
-0.597691535949707031 -1.43116605281829834 0.164684772491455078
1.23801076412200928 -1.47277772426605225 0.190561071038246155
1.42330265045166016 -1.47671234607696533 0.537993192672729492
1.75002717971801758 -0.443410784006118774 0.314161062240600586
-1.02193450927734375 0.58540499210357666 0.575730443000793457
-1.03242874145507812 -0.388641715049743652 0.523490250110626221
-1.17910981178283691 -0.677328109741210938 0.556975305080413818
-1.00428342819213867 -0.18357403576374054 0.432155787944793701
