ply
format ascii 1.0
element vertex 256
comment vertices
property float x
property float y
property float z
end_header
2.22319936752319336 -2.12650871276855469 0.331135362386703491
-1.10776758193969727 2.28301715850830078 0.410388141870498657
1.80982875823974609 1.04773879051208496 0.659799754619598389
-0.834538578987121582 -1.48926639556884766 0.646834969520568848
-0.435936331748962402 0.418966531753540039 0.364570498466491699
0.881935775279998779 -0.785363733768463135 0.768906474113464355
-1.59388899803161621 1.26690292358398438 1.15850269794464111
0.963902950286865234 0.340826600790023804 0.0719935968518257141
1.1164555549621582 -2.55412149429321289 0.108989648520946503
1.59058892726898193 -1.23120880126953125 0.0390041470527648926
-0.490932732820510864 1.4290313720703125 0.402942955493927002
-0.120208032429218292 -1.14561784267425537 0.101990021765232086
1.45277142524719238 1.66920983791351318 0.07866659015417099
-1.43050110340118408 1.36954474449157715 0.273901641368865967
0.375362783670425415 0.944853365421295166 0.363606125116348267
0.335551410913467407 -0.119274124503135681 0.328030318021774292
1.35374951362609863 -1.85291147232055664 0.44823947548866272
-1.20359981060028076 0.432983696460723877 0.241510242223739624
0.615568399429321289 -1.07926476001739502 0.137989789247512817
-0.420993208885192871 2.10746479034423828 0.340730488300323486
-1.00487887859344482 1.76091361045837402 0.822175502777099609
2.51902651786804199 -2.71520423889160156 0.361652195453643799
1.27123987674713135 -0.223154217004776001 0.151588097214698792
-0.990357160568237305 1.80899858474731445 -0.00171681924257427454
1.31015634536743164 1.06658947467803955 0.285197436809539795
-0.799801945686340332 0.870069205760955811 0.572120189666748047
0.768894791603088379 -1.3572009801864624 0.944813728332519531
-0.376573532819747925 -0.928870141506195068 0.608535170555114746
0.135216057300567627 0.429925352334976196 0.337854683399200439
0.827146351337432861 -0.547605514526367188 0.263055890798568726
0.290931284427642822 -1.16445612907409668 0.572622001171112061
1.57820439338684082 1.64590907096862793 0.608240604400634766
-0.249526172876358032 0.912428617477416992 0.430267691612243652
-0.641607522964477539 -1.22670567035675049 0.234599009156227112
1.81328415870666504 -1.72084009647369385 0.270726174116134644
0.614677608013153076 0.273659408092498779 0.440973609685897827
1.59644687175750732 -1.16130757331848145 0.52204596996307373
-0.938924252986907959 1.34861433506011963 0.507489144802093506
2.0974125862121582 -2.56265163421630859 0.455624788999557495
0.48111426830291748 -0.75500190258026123 0.495284020900726318
-0.843820333480834961 0.34926682710647583 0.558453798294067383
0.871437966823577881 -0.091746985912322998 0.351383328437805176
1.23378455638885498 -1.45265841484069824 0.202683329582214355
-0.801484346389770508 1.79377007484436035 0.400394618511199951
-1.41988980770111084 1.7947843074798584 0.386654138565063477
-0.326804697513580322 -1.34601414203643799 0.507590234279632568
-1.37045443058013916 1.48569965362548828 0.670764327049255371
0.963882327079772949 -1.10417652130126953 0.51930081844329834
2.31856441497802734 -2.15545940399169922 0.728128373622894287
1.64224302768707275 1.33445322513580322 0.198015615344047546
1.06737792491912842 0.231899678707122803 0.446988344192504883
0.042734980583190918 0.776427507400512695 0.187916606664657593
-0.412403285503387451 1.82355451583862305 0.600855529308319092
-0.836437404155731201 0.503648579120635986 0.194294571876525879
1.43117082118988037 -1.5262610912322998 -0.129344582557678223
-1.58791923522949219 1.63007950782775879 1.23078906536102295
0.568453729152679443 0.8081817626953125 0.0821130722761154175
1.50833642482757568 1.22166275978088379 0.565138697624206543
-1.05952036380767822 1.45645308494567871 0.186386138200759888
2.25433945655822754 -2.49908328056335449 0.138868570327758789
-1.28557455539703369 1.42997419834136963 1.23377382755279541
1.14080595970153809 -0.971613645553588867 0.915303587913513184
0.635763227939605713 -1.20963358879089355 0.656435787677764893
0.665047943592071533 -0.195273101329803467 0.0924330428242683411
-0.889904618263244629 2.08303046226501465 0.581645071506500244
0.56590503454208374 0.339844465255737305 0.112301014363765717
-0.060658581554889679 -1.12946164608001709 0.433818042278289795
-0.571927487850189209 0.728469014167785645 0.375482916831970215
1.77721071243286133 1.39680349826812744 0.692750871181488037
0.140202060341835022 0.646524310111999512 0.585410833358764648
2.4401247501373291 -2.3666689395904541 0.371111661195755005
-0.340337812900543213 -0.978189587593078613 0.26316523551940918
0.80741506814956665 -0.513410866260528564 0.580698966979980469
1.58571064472198486 -1.51401102542877197 0.198645025491714478
-0.234657555818557739 -1.46835231781005859 0.23376639187335968
-0.567901372909545898 0.469771444797515869 0.645643770694732666
-1.15788054466247559 1.5937957763671875 0.449414283037185669
1.0816265344619751 0.0196634791791439056 0.11423502117395401
-1.0712730884552002 1.92714416980743408 0.333463728427886963
-0.988223850727081299 0.598977327346801758 0.454874098300933838
-0.486106991767883301 1.72153699398040771 0.313143432140350342
-1.21823418140411377 1.84194588661193848 0.617484748363494873
-0.333330005407333374 0.736134052276611328 0.665353894233703613
-0.521931648254394531 1.0376354455947876 0.465555876493453979
-0.074353337287902832 -0.95734328031539917 0.674143731594085693
-0.385034143924713135 1.97148144245147705 0.0804752558469772339
-0.541559040546417236 1.3549116849899292 0.680907845497131348
0.534330546855926514 -0.196039021015167236 0.525795519351959229
0.869468450546264648 -1.07070684432983398 0.79612433910369873
0.670383036136627197 -0.844949603080749512 0.29996955394744873
-0.680079758167266846 2.14381122589111328 0.225900858640670776
0.0945291444659233093 0.962715625762939453 0.40017738938331604
0.733163535594940186 -0.946475028991699219 0.582536697387695312
-0.625827133655548096 -1.35209035873413086 0.519798576831817627
1.51873147487640381 1.55341267585754395 0.352907299995422363
-1.41509449481964111 1.24526059627532959 0.797309279441833496
0.557541966438293457 -0.503599047660827637 0.426500111818313599
-0.923615813255310059 1.60696935653686523 0.580772995948791504
0.929707050323486328 -0.787454485893249512 0.495091259479522705
-0.522583842277526855 -1.14167487621307373 0.675443112850189209
0.348864495754241943 0.139622688293457031 0.387137889862060547
0.848994851112365723 0.31729695200920105 0.310143619775772095
-1.48413932323455811 1.26514279842376709 0.511750221252441406
1.63136434555053711 -1.85224997997283936 0.130098819732666016
-0.972171187400817871 0.280707776546478271 0.237264975905418396
1.57335782051086426 1.08281660079956055 0.228900238871574402
-1.15122222900390625 1.34373712539672852 0.680185496807098389
0.62460172176361084 0.0359688997268676758 0.334399193525314331
0.600776374340057373 0.526071667671203613 0.392968624830245972
0.994806528091430664 -1.23600971698760986 0.962558567523956299
0.634314417839050293 -0.724861741065979004 0.741241693496704102
1.24014794826507568 0.0803810209035873413 0.306108951568603516
-0.876986443996429443 1.55604350566864014 0.326104849576950073
-0.687362313270568848 0.408978939056396484 0.376839280128479004
1.38812053203582764 1.29197549819946289 0.232562363147735596
0.718314170837402344 -1.09386360645294189 0.388443559408187866
0.735504567623138428 -0.292629867792129517 0.326058149337768555
-0.182140052318572998 0.739435434341430664 0.281139731407165527
-0.241991937160491943 -1.12504303455352783 0.607793927192687988
-0.248312473297119141 -1.21741080284118652 0.320213228464126587
1.11374878883361816 0.394700855016708374 0.246015310287475586
1.59546017646789551 1.15211963653564453 0.772525012493133545
-0.497381687164306641 -1.09382808208465576 0.106635235249996185
-0.817274868488311768 0.794761300086975098 0.351665198802947998
-0.665641129016876221 1.52179551124572754 0.527036130428314209
1.62100815773010254 -1.28497195243835449 0.327198028564453125
-0.437170654535293579 -1.15572357177734375 0.446368217468261719
1.68680036067962646 1.4453505277633667 0.463389992713928223
-0.84951174259185791 1.63893389701843262 -0.0583126135170459747
-0.530724406242370605 0.845966577529907227 0.653781414031982422
-0.857204616069793701 1.81305789947509766 0.636892437934875488
1.68598651885986328 1.80874836444854736 0.500258147716522217
0.744300961494445801 -0.866380929946899414 0.921006202697753906
-0.543731689453125 1.9201890230178833 0.238191038370132446
-0.46224898099899292 1.5306546688079834 0.206534832715988159
-1.18243038654327393 1.78449702262878418 0.208375692367553711
-0.550190210342407227 -1.42606508731842041 0.243833422660827637
1.08835387229919434 -0.107915543019771576 0.327358335256576538
-1.15106773376464844 1.95455300807952881 0.00478208623826503754
-0.676175832748413086 1.9698103666305542 0.415486544370651245
0.476584285497665405 -0.253280848264694214 0.181213602423667908
-1.20749127864837646 1.57450246810913086 0.776358246803283691
0.41142803430557251 0.33083808422088623 0.317131221294403076
1.38962090015411377 -1.39180171489715576 0.334527969360351562
0.858760237693786621 0.110279463231563568 0.264989078044891357
-0.496904164552688599 0.650148630142211914 0.559827983379364014
0.445310741662979126 -1.01943647861480713 0.57699286937713623
2.2290489673614502 -2.37031149864196777 0.38243633508682251
0.749239981174468994 -0.696441173553466797 0.433954536914825439
-1.4678720235824585 1.56590366363525391 0.211755335330963135
1.43989205360412598 -1.89658784866333008 0.20184779167175293
1.71036028861999512 1.00630295276641846 0.481349289417266846
-0.986997544765472412 1.71856534481048584 0.236437037587165833
0.297957092523574829 0.509466052055358887 0.237977653741836548
1.53441691398620605 -1.13258934020996094 0.217886805534362793
0.49153512716293335 0.0110167860984802246 0.490142881870269775
0.257015764713287354 0.784889459609985352 0.417182356119155884
-1.0321049690246582 0.56359565258026123 0.206984937191009521
-0.90659099817276001 0.41981169581413269 0.37287294864654541
-0.745360910892486572 0.604262888431549072 0.396216154098510742
0.507568001747131348 -1.12278461456298828 0.304865241050720215
1.39848077297210693 -1.27917683124542236 0.0795250535011291504
-0.0817679464817047119 -1.32017719745635986 0.373267054557800293
1.35974550247192383 1.59583389759063721 0.467462748289108276
-1.05100274085998535 1.91702258586883545 0.698526263236999512
0.062190622091293335 0.750326752662658691 0.384778201580047607
-1.42723798751831055 1.17495131492614746 1.09910809993743896
2.3621971607208252 -2.53627824783325195 0.302391409873962402
-0.818711757659912109 1.85522174835205078 0.213323384523391724
0.555824041366577148 -0.945039987564086914 0.432067811489105225
-1.35066068172454834 1.61542272567749023 0.524328470230102539
-1.46806371212005615 1.46651244163513184 1.17120623588562012
-0.663124799728393555 1.65497767925262451 0.365510821342468262
0.559499680995941162 -0.667437911033630371 0.319219708442687988
-0.498125821352005005 2.10998296737670898 0.161171466112136841
-0.188205540180206299 -0.94423753023147583 0.380368798971176147
-1.00631988048553467 1.83273601531982422 0.514454126358032227
-0.885468244552612305 2.15259170532226562 0.401497244834899902
0.78303992748260498 -0.439806759357452393 0.109288498759269714
-0.475842267274856567 0.310248255729675293 0.591975390911102295
0.645653247833251953 0.477967977523803711 0.214008897542953491
-0.148366793990135193 -1.29031932353973389 0.54578477144241333
1.46799159049987793 1.4865422248840332 0.108076125383377075
-0.507450878620147705 -1.04907131195068359 0.301438987255096436
0.748670041561126709 0.376401901245117188 0.0988783091306686401
1.05663537979125977 0.038659214973449707 0.435158967971801758
-1.04893910884857178 1.26067614555358887 0.388272106647491455
-1.04088878631591797 2.18336820602416992 0.271604388952255249
-1.41068065166473389 1.42615187168121338 0.464307814836502075
0.695252299308776855 -1.03278541564941406 0.7592315673828125
-1.10207200050354004 1.70263862609863281 0.609976351261138916
-1.03758883476257324 1.48320198059082031 0.656997859477996826
1.09304773807525635 0.199212059378623962 0.106790170073509216
-0.473374277353286743 -1.24507832527160645 0.294220924377441406
2.44354867935180664 -2.19292807579040527 0.41550058126449585
1.69011151790618896 -1.68590652942657471 0.395785659551620483
-0.116992443799972534 0.904109776020050049 0.255661278963088989
-1.07385563850402832 0.282129526138305664 0.383796334266662598
0.737204968929290771 0.41553032398223877 0.421572685241699219
-1.33094346523284912 1.74094784259796143 0.70933997631072998
-0.11626356840133667 0.768909454345703125 0.441200286149978638
0.763399600982666016 0.162006542086601257 0.40285336971282959
0.976309657096862793 -1.00514793395996094 0.674412429332733154
0.491410821676254272 0.205849990248680115 0.194947540760040283
-0.444179177284240723 0.843758821487426758 0.394741266965866089
0.753180027008056641 -0.772568941116333008 0.58903956413269043
-0.629743814468383789 0.885067105293273926 0.418609410524368286
-0.710448801517486572 0.733077943325042725 0.623228013515472412
1.55430078506469727 1.26351714134216309 0.326459705829620361
1.70298218727111816 1.25387477874755859 0.635175168514251709
-0.86250603199005127 1.19694888591766357 0.50667107105255127
0.114223137497901917 0.509818077087402344 0.489876896142959595
0.89099198579788208 -1.17253315448760986 0.384339451789855957
0.582528471946716309 -1.12377846240997314 0.480856060981750488
-0.319814324378967285 -1.03984332084655762 0.472250938415527344
-0.470670789480209351 1.69626450538635254 0.511843085289001465
-0.63598334789276123 1.81523358821868896 0.459531128406524658
-0.572296500205993652 0.494462907314300537 0.482688009738922119
0.566007316112518311 -0.180667951703071594 0.364966869354248047
-0.322747737169265747 -1.27237033843994141 0.184101954102516174
1.43500018119812012 1.14699137210845947 0.353557616472244263
-0.879698574542999268 1.94916749000549316 0.724546432495117188
1.56768918037414551 1.07040297985076904 0.548324882984161377
-0.616935610771179199 1.52129864692687988 0.257334619760513306
1.63089227676391602 1.21004676818847656 0.459264516830444336
1.25571513175964355 -0.000253319740295410156 0.167472124099731445
-1.37666499614715576 1.29164242744445801 1.19772505760192871
0.586628854274749756 -0.0563238449394702911 0.106163129210472107
1.27794933319091797 -1.40939807891845703 0.0550477579236030579
0.781472504138946533 -0.67163926362991333 0.711934566497802734
-1.14526426792144775 1.22160720825195312 0.578560709953308105
-1.6687849760055542 1.39487099647521973 1.10302281379699707
2.23850154876708984 -2.61008667945861816 0.367344290018081665
1.57513785362243652 1.59535253047943115 0.211782887578010559
0.475874245166778564 -0.0495577715337276459 0.344460189342498779
-1.0026092529296875 2.19162321090698242 0.498806476593017578
0.744647383689880371 -0.0391981266438961029 0.427699387073516846
-0.956614494323730469 1.6911013126373291 0.387742608785629272
0.99881744384765625 0.257445633411407471 0.217181116342544556
-0.222251474857330322 -1.42945647239685059 0.384366273880004883
-0.416446387767791748 0.558433413505554199 0.430691540241241455
-0.742313981056213379 0.381365835666656494 0.213051885366439819
1.52583682537078857 1.7048187255859375 0.474861323833465576
2.33860325813293457 -2.48222780227661133 0.444935321807861328
0.855212807655334473 -0.913369536399841309 0.668666660785675049
0.296217232942581177 0.291539102792739868 0.407918751239776611
-1.16664612293243408 1.55884957313537598 0.631089925765991211
1.46733331680297852 -1.42370939254760742 -0.0251560211181640625
-0.529004752635955811 -1.44953322410583496 0.390297591686248779
0.840724468231201172 -0.99020683765411377 0.488223254680633545
-0.814145922660827637 1.53340375423431396 0.459923505783081055
1.31747794151306152 -1.71386563777923584 0.407600492238998413
-0.387225568294525146 -1.18433737754821777 0.629706501960754395
0.617610573768615723 -0.816826820373535156 0.546132445335388184
1.49913334846496582 1.40630877017974854 0.350952297449111938
-1.1434628963470459 1.7940831184387207 0.351203888654708862
