ply
format ascii 1.0
element vertex 41
comment vertices
property float x
property float y
property float z
end_header
-0.103851102292537689 -1.05412232875823975 0.283772081136703491
0.925231814384460449 0.573017418384552002 0.214316695928573608
-1.09627830982208252 0.10870128870010376 0.544155418872833252
1.23579978942871094 1.35106551647186279 0.0184113979339599609
1.42467832565307617 -1.25223672389984131 0.107901781797409058
2.30356478691101074 2.14921307563781738 0.286710232496261597
1.96947395801544189 1.03277397155761719 0.063197597861289978
-0.163381621241569519 -1.05574464797973633 0.0260191112756729126
0.313850671052932739 0.894578814506530762 0.380337566137313843
2.36349892616271973 1.86177957057952881 0.0201058462262153625
-0.608166158199310303 -0.984633028507232666 0.324278831481933594
1.52525126934051514 1.40771806240081787 0.00300480425357818604
0.17432636022567749 1.11967825889587402 0.494678974151611328
-0.0646359175443649292 -0.783117353916168213 0.160584747791290283
-1.03633582592010498 -0.21162848174571991 0.402966618537902832
1.26924920082092285 -1.2429194450378418 0.115553021430969238
-0.996557354927062988 -0.18035319447517395 0.531012773513793945
2.27827310562133789 2.06911182403564453 -0.0186599418520927429
1.32219552993774414 1.42347967624664307 -0.0213898196816444397
0.180965244770050049 0.859322428703308105 0.485024243593215942
2.37005281448364258 1.9236304759979248 0.269141167402267456
0.350021690130233765 1.11168301105499268 0.389282941818237305
2.44827461242675781 2.04838871955871582 0.055626995861530304
-0.333690166473388672 -0.986703872680664062 0.311387836933135986
-1.13511598110198975 -0.0450812950730323792 0.419461429119110107
0.0832725092768669128 1.08343601226806641 0.561340630054473877
-0.126536160707473755 -1.02775454521179199 0.187527835369110107
-1.11457657814025879 0.0450259298086166382 0.611020565032958984
0.433198422193527222 0.90482097864151001 0.27195855975151062
-1.16325604915618896 -0.0266946554183959961 0.617833316326141357
1.3219139575958252 1.30611538887023926 -0.0875591784715652466
-1.21120607852935791 -0.00265562906861305237 0.314469367265701294
0.023469775915145874 1.03784656524658203 0.621249854564666748
-0.59503704309463501 -0.831144630908966064 0.344789475202560425
-0.163757681846618652 -1.04494905471801758 0.0385383963584899902
1.47561264038085938 -1.55418527126312256 0.14195290207862854
1.12524986267089844 -1.32268714904785156 0.209968537092208862
-0.0840525180101394653 -1.0245133638381958 0.0979872047901153564
0.0676257312297821045 1.09822392463684082 0.460418462753295898
-1.01684236526489258 -0.272339969873428345 0.238528817892074585
-1.09546995162963867 -0.236221134662628174 0.472953885793685913
