ply
format ascii 1.0
element vertex 256
comment vertices
property float x
property float y
property float z
end_header
0.798053503036499023 -0.673067986965179443 0.236555233597755432
-2.04315686225891113 -0.963225364685058594 -0.0973243862390518188
-0.71571052074432373 -0.349193572998046875 0.467846333980560303
1.97710525989532471 -1.10482239723205566 0.0372560620307922363
-0.626474261283874512 -1.29279911518096924 0.100504882633686066
1.32553744316101074 -1.0081944465637207 0.0859475433826446533
-0.837777376174926758 -0.827443242073059082 0.272019624710083008
-1.74956810474395752 -0.56305164098739624 -0.091254502534866333
-0.38249361515045166 -0.613397657871246338 0.215986236929893494
-0.401454389095306396 -1.04736959934234619 0.396629780530929565
1.06064522266387939 -0.415530085563659668 0.482265651226043701
0.74317324161529541 -0.618973493576049805 0.662607550621032715
1.68300855159759521 -0.796205282211303711 0.09478779137134552
0.641898870468139648 -0.478032767772674561 -0.0855541601777076721
-1.65540707111358643 -0.951326251029968262 -0.135111153125762939
-0.71391749382019043 -0.466372787952423096 0.112426333129405975
1.63443338871002197 -1.19556164741516113 0.152290046215057373
-0.604309916496276855 -0.680248498916625977 0.466001927852630615
0.458081334829330444 -0.695832729339599609 0.0780956968665122986
-0.705620169639587402 -1.11170053482055664 0.431793540716171265
0.748488962650299072 -0.940201222896575928 0.119749978184700012
-0.349515259265899658 -1.21399772167205811 0.155424132943153381
-0.89908444881439209 -0.565552055835723877 0.407057136297225952
-0.561014771461486816 -0.911172807216644287 0.198059186339378357
0.9305611252784729 -0.747412800788879395 0.492534667253494263
-0.818981289863586426 -1.09789049625396729 0.14356677234172821
0.719601273536682129 -0.484195023775100708 0.421557128429412842
-1.82582056522369385 -0.812315940856933594 0.0205059722065925598
1.01719188690185547 -0.469023287296295166 0.23006892204284668
0.70389634370803833 -0.411556780338287354 0.149074599146842957
-0.498758435249328613 -0.445666342973709106 0.394957125186920166
1.71616780757904053 -1.01719379425048828 0.0146441776305437088
-0.601238369941711426 -0.701783120632171631 0.103413783013820648
1.56029951572418213 -0.973090767860412598 0.169515222311019897
-1.86083698272705078 -1.08191156387329102 -0.0724783614277839661
-0.527802169322967529 -1.19517230987548828 0.296046227216720581
-0.7095145583152771 -0.562746942043304443 0.307184398174285889
-0.577745676040649414 -0.890000998973846436 0.409406542778015137
0.811365485191345215 -0.892937600612640381 0.395801782608032227
-0.500542342662811279 -0.419437408447265625 0.188248008489608765
1.18751633167266846 -1.04814398288726807 0.236796379089355469
-1.96000707149505615 -0.739205121994018555 -0.120533481240272522
0.565995216369628906 -0.810892581939697266 0.208429291844367981
-0.502956151962280273 -1.07633352279663086 0.0940873026847839355
0.696831107139587402 -0.681205630302429199 0.0649309307336807251
0.962006270885467529 -0.586915910243988037 0.384723067283630371
-0.746457338333129883 -0.548565328121185303 0.525270462036132812
0.635024070739746094 -0.685975790023803711 0.334825247526168823
0.862348258495330811 -0.488550037145614624 0.545849621295928955
0.511916935443878174 -0.517079472541809082 0.0456687919795513153
0.834085404872894287 -0.493345141410827637 0.274960100650787354
0.627980470657348633 -0.699580788612365723 0.54596632719039917
-0.689300179481506348 -1.01337504386901855 0.275959283113479614
-0.748565554618835449 -0.382269561290740967 0.296333879232406616
-1.80337393283843994 -0.798776865005493164 -0.172616943717002869
-0.836485683917999268 -1.00675678253173828 0.371255606412887573
-0.480394929647445679 -0.748301029205322266 0.370034396648406982
-0.660506784915924072 -0.780608415603637695 0.308070838451385498
-0.780461311340332031 -0.68750995397567749 0.398318320512771606
1.82620573043823242 -1.02957344055175781 0.142607718706130981
0.805053114891052246 -0.638544201850891113 0.406962931156158447
-0.468369245529174805 -0.549756944179534912 0.518518567085266113
0.863389849662780762 -0.869547903537750244 0.242054343223571777
-0.756505787372589111 -1.22147417068481445 0.323486417531967163
-0.364926666021347046 -1.06941390037536621 0.227443307638168335
0.516376972198486328 -0.575052857398986816 0.197102636098861694
-1.86643576622009277 -0.644979238510131836 -0.209815502166748047
0.761253297328948975 -0.816476285457611084 0.52400672435760498
-0.686117827892303467 -1.02306616306304932 0.106714189052581787
-1.88424468040466309 -0.93426138162612915 -0.118780210614204407
-0.572954952716827393 -0.375453084707260132 0.525230467319488525
-0.56823045015335083 -1.06022202968597412 0.380741000175476074
-0.850276768207550049 -0.584543049335479736 0.249295681715011597
-0.928471684455871582 -0.717000246047973633 0.417771071195602417
0.687143623828887939 -0.530227541923522949 0.271464884281158447
-0.477004975080490112 -1.24615883827209473 0.0814016759395599365
0.589095830917358398 -0.781778454780578613 0.0446060895919799805
0.812605738639831543 -0.369095802307128906 0.434515446424484253
-0.626806676387786865 -0.531164824962615967 0.441513508558273315
0.960838675498962402 -0.708966255187988281 0.310186594724655151
-0.505767107009887695 -0.596871674060821533 0.286457210779190063
-0.654552876949310303 -1.13460290431976318 0.209386527538299561
-0.696269869804382324 -0.608717441558837891 0.173360347747802734
0.973882377147674561 -0.585421442985534668 0.526254773139953613
0.744114279747009277 -0.769973516464233398 0.372758626937866211
-1.76621639728546143 -0.927609264850616455 -0.0417381785809993744
1.47993731498718262 -0.899189591407775879 0.0816950872540473938
-1.7406003475189209 -0.734954357147216797 -0.0591740906238555908
1.91260015964508057 -0.978635787963867188 0.0457150861620903015
-0.705047309398651123 -0.945489466190338135 0.400275886058807373
1.78169071674346924 -1.16023433208465576 0.12853337824344635
0.925113558769226074 -0.611783325672149658 0.222336918115615845
1.63910758495330811 -1.06607818603515625 0.117299765348434448
-0.83655846118927002 -0.466794878244400024 0.46837007999420166
-1.94283962249755859 -0.866082131862640381 -0.0222897306084632874
0.880453586578369141 -0.478604495525360107 0.412176340818405151
0.697900056838989258 -0.748276114463806152 0.176496952772140503
0.81203770637512207 -0.628936886787414551 0.094253838062286377
1.75888741016387939 -0.899439513683319092 0.0978720635175704956
0.758276224136352539 -0.564182162284851074 0.547865688800811768
0.567780256271362305 -0.628721833229064941 0.0737391561269760132
0.871197879314422607 -0.780568480491638184 0.368538260459899902
-0.495760917663574219 -0.914725065231323242 0.307603925466537476
-0.581515192985534668 -0.460199713706970215 0.299011886119842529
-0.592529058456420898 -0.501573860645294189 0.119189329445362091
1.21786808967590332 -0.966065049171447754 0.147110149264335632
-1.93584156036376953 -0.640777528285980225 -0.0489206016063690186
-0.489193856716156006 -0.631304621696472168 0.409297376871109009
-0.594267368316650391 -0.374365091323852539 0.122421190142631531
1.22793722152709961 -1.09170997142791748 0.129635214805603027
-0.562540233135223389 -1.17369329929351807 0.137412175536155701
-0.545469999313354492 -0.611256837844848633 0.173274070024490356
0.782783925533294678 -0.690484046936035156 0.574781298637390137
-0.644029200077056885 -1.21535384654998779 0.35924685001373291
-0.407817721366882324 -0.50898432731628418 0.264525502920150757
0.616050362586975098 -0.571892023086547852 0.357133626937866211
0.674257159233093262 -0.855648696422576904 0.218341797590255737
-1.92673659324645996 -0.751825213432312012 -0.00207904353737831116
-1.98781335353851318 -0.866316914558410645 -0.130364343523979187
0.980832457542419434 -0.483090519905090332 0.338771700859069824
-0.470947921276092529 -0.988613903522491455 0.22306022047996521
-0.660636365413665771 -1.02897119522094727 0.497739583253860474
-1.88265550136566162 -0.958815097808837891 0.00863945856690406799
-0.750493645668029785 -0.84668278694152832 0.364357113838195801
-0.531252741813659668 -0.971973776817321777 0.473263382911682129
-1.80105936527252197 -0.649248778820037842 -0.0152665376663208008
-0.645471274852752686 -0.449102044105529785 0.203479334712028503
-0.44800722599029541 -1.16073977947235107 0.224688678979873657
-0.622443079948425293 -0.621564865112304688 0.372480213642120361
0.87357795238494873 -0.614410340785980225 0.321379721164703369
-0.773319900035858154 -0.57828909158706665 0.416790932416915894
-0.593104839324951172 -1.04267299175262451 0.214403942227363586
0.826227903366088867 -0.568757712841033936 0.194496780633926392
1.68425798416137695 -0.966854989528656006 0.140412628650665283
1.78874421119689941 -0.952382445335388184 -0.032886900007724762
1.00226330757141113 -0.507811427116394043 0.446161389350891113
-0.614355802536010742 -0.556343555450439453 0.544972360134124756
-0.43062514066696167 -1.13308954238891602 0.340675860643386841
-0.604398429393768311 -0.965131461620330811 0.318173468112945557
0.731504142284393311 -0.599453747272491455 0.341278284788131714
-0.793305635452270508 -1.11029243469238281 0.245589390397071838
1.01572680473327637 -0.673381209373474121 0.486779063940048218
0.613156497478485107 -0.60897064208984375 0.218555420637130737
-0.753694295883178711 -1.21185219287872314 0.219312101602554321
-0.742171645164489746 -0.658013582229614258 0.490979403257369995
-0.833526968955993652 -0.471406310796737671 0.364016741514205933
-0.692465305328369141 -1.12608921527862549 0.0907000899314880371
1.02224993705749512 -0.580151498317718506 0.240853384137153625
-0.668360412120819092 -0.415564656257629395 0.403697699308395386
0.738709211349487305 -0.449194341897964478 0.326036691665649414
-0.381372451782226562 -1.04414045810699463 0.128912881016731262
-0.772554934024810791 -1.01599240303039551 0.184692904353141785
-0.629533886909484863 -0.600957632064819336 0.255521833896636963
0.826538980007171631 -0.762367784976959229 0.278028875589370728
-1.87810087203979492 -0.81544029712677002 -0.0833171382546424866
0.760292708873748779 -0.49498295783996582 0.156119182705879211
-1.85714733600616455 -0.658156871795654297 -0.111020416021347046
-0.711508214473724365 -0.466479122638702393 0.478204935789108276
1.62266147136688232 -1.14578449726104736 0.0600160695612430573
1.65045535564422607 -0.942878842353820801 0.0192291215062141418
-0.619361162185668945 -1.12962615489959717 0.302109837532043457
0.596040785312652588 -0.524785816669464111 0.165756881237030029
1.90056133270263672 -1.16744375228881836 0.0355788953602313995
-0.835724234580993652 -0.896493613719940186 0.364125609397888184
0.876245260238647461 -0.575045228004455566 0.432143241167068481
-0.685439825057983398 -0.741138875484466553 0.221636131405830383
1.76507234573364258 -1.08116698265075684 0.0737511888146400452
0.835127353668212891 -0.71844935417175293 0.454245656728744507
-0.826261341571807861 -0.769830763339996338 0.373660802841186523
-1.71798336505889893 -0.880992472171783447 -0.113384202122688293
-0.684483170509338379 -0.453626632690429688 0.305625826120376587
0.981632709503173828 -0.552743434906005859 0.158642888069152832
-0.876219451427459717 -0.648687303066253662 0.459719181060791016
0.899551630020141602 -0.495418131351470947 0.205796688795089722
0.713372290134429932 -0.770772159099578857 0.267489403486251831
1.50269484519958496 -1.02982008457183838 0.120227247476577759
-0.719959378242492676 -0.71092987060546875 0.330104678869247437
0.932591915130615234 -0.427807986736297607 0.531594038009643555
-0.779524087905883789 -0.582551062107086182 0.139968499541282654
0.708476662635803223 -0.654582738876342773 0.41283714771270752
-0.560495853424072266 -1.14691770076751709 0.413496255874633789
0.699046492576599121 -0.64255821704864502 0.229109123349189758
-0.557010829448699951 -1.12583076953887939 0.233696281909942627
0.998568832874298096 -0.388444989919662476 0.419167667627334595
-0.522165596485137939 -0.508616149425506592 0.177481383085250854
-0.444046944379806519 -1.13908922672271729 0.125462949275970459
-1.73289632797241211 -0.726701080799102783 0.0314472615718841553
-0.385543406009674072 -1.01820480823516846 0.311672180891036987
-1.80392944812774658 -0.888058185577392578 -0.154596075415611267
-2.021881103515625 -0.983398199081420898 -0.0112592503428459167
-0.645803987979888916 -1.20238423347473145 0.115824490785598755
-1.72366666793823242 -0.976771235466003418 -0.18851780891418457
0.926310122013092041 -0.544383883476257324 0.29994577169418335
-0.924068212509155273 -0.485672563314437866 0.4794655442237854
0.834777295589447021 -0.423616498708724976 0.358171522617340088
-0.507706224918365479 -0.54638749361038208 0.39077383279800415
-0.812729120254516602 -1.01836395263671875 0.28727683424949646
-0.408582597970962524 -0.44167482852935791 0.207811415195465088
-0.54214024543762207 -1.02013397216796875 0.289585530757904053
0.631836175918579102 -0.664834201335906982 0.121301591396331787
0.832483410835266113 -0.620107710361480713 0.493157505989074707
0.842914342880249023 -0.537993371486663818 0.350771576166152954
1.81839549541473389 -1.01509904861450195 0.0532594248652458191
0.542550921440124512 -0.69057995080947876 0.129947304725646973
0.775723576545715332 -0.583590686321258545 0.268004715442657471
-0.701095700263977051 -1.15460407733917236 0.286608308553695679
-0.66304701566696167 -0.92410433292388916 0.269257158041000366
-0.534978866577148438 -0.583664417266845703 0.46535646915435791
1.03896069526672363 -0.473601400852203369 0.542407512664794922
-0.540306210517883301 -0.708496749401092529 0.322246551513671875
0.880659818649291992 -0.69229048490524292 0.251206189393997192
-0.715632796287536621 -0.496637552976608276 0.218368738889694214
-0.497905254364013672 -0.680184483528137207 0.479211330413818359
-0.624574661254882812 -1.09106981754302979 0.129134461283683777
0.969163656234741211 -0.682339787483215332 0.415739953517913818
1.8795398473739624 -1.04704737663269043 0.00324636697769165039
0.750105857849121094 -0.738010644912719727 0.493085503578186035
-0.67844468355178833 -1.03680205345153809 0.402543902397155762
0.834117293357849121 -0.406700372695922852 0.275055140256881714
-0.631972670555114746 -0.470668435096740723 0.507323503494262695
1.60457181930541992 -0.919649004936218262 0.121073037385940552
-0.578189253807067871 -0.387757450342178345 0.341370463371276855
0.781600832939147949 -0.669449925422668457 0.318702816963195801
-2.01804089546203613 -0.891743063926696777 -0.0489781573414802551
0.79379117488861084 -0.557580888271331787 0.425354421138763428
-0.601892232894897461 -0.831362605094909668 0.339427947998046875
0.612896382808685303 -0.516051054000854492 -0.0170356407761573792
-1.85552108287811279 -0.717546701431274414 -0.0285126827657222748
-0.925018727779388428 -0.687856853008270264 0.340333998203277588
-0.516221702098846436 -0.51053464412689209 0.299111485481262207
-1.85549604892730713 -0.739855587482452393 -0.109607107937335968
1.733176589012146 -0.82886803150177002 0.0391582101583480835
-0.707301080226898193 -1.09003162384033203 0.162183627486228943
1.70478153228759766 -1.18069660663604736 0.190191596746444702
-0.685817837715148926 -0.586658716201782227 0.441655427217483521
-0.587247371673583984 -0.985686421394348145 0.416653692722320557
1.83751654624938965 -1.11374473571777344 0.095219835638999939
-1.77421724796295166 -0.568812310695648193 -0.166959971189498901
0.860295891761779785 -0.685514867305755615 0.35497736930847168
-0.77291637659072876 -0.42205500602722168 0.451331675052642822
-0.460354030132293701 -1.0552666187286377 0.180874228477478027
0.930687248706817627 -0.496562421321868896 0.492222428321838379
-0.728267669677734375 -0.904213547706604004 0.314823567867279053
-1.80332696437835693 -0.840569257736206055 -0.0803406611084938049
-0.768862664699554443 -0.501511096954345703 0.433125078678131104
0.761004865169525146 -0.491620153188705444 0.247005820274353027
-0.650575935840606689 -0.401655614376068115 0.538983345031738281
0.921471595764160156 -0.836715161800384521 0.388727009296417236
-0.543029129505157471 -0.385308265686035156 0.454026937484741211
1.63864648342132568 -0.992207884788513184 0.0774546563625335693
-0.645454227924346924 -1.11820638179779053 0.373639225959777832
-0.634783804416656494 -0.512057006359100342 0.245121181011199951
0.907868266105651855 -0.629749953746795654 0.498234152793884277
-0.690377533435821533 -0.344310909509658813 0.388650506734848022
0.615163564682006836 -0.81522834300994873 0.15062105655670166
-0.484308362007141113 -1.20247650146484375 0.143080100417137146
