ply
format ascii 1.0
element vertex 64
comment vertices
property float x
property float y
property float z
end_header
-0.579769134521484375 -0.814780771732330322 0.298775553703308105
0.774875223636627197 -0.632114231586456299 0.434316754341125488
-1.8406829833984375 -0.782231450080871582 0.0568643584847450256
1.69718801975250244 -1.05808925628662109 0.0562372356653213501
0 0 0
0 0 0
0 0 0
0 0 0
0 0 0
0 0 0
0 0 0
0 0 0
0 0 0
0 0 0
0 0 0
0 0 0
0 0 0
0 0 0
0 0 0
0 0 0
0 0 0
0 0 0
0 0 0
0 0 0
0 0 0
0 0 0
0 0 0
0 0 0
0 0 0
0 0 0
0 0 0
0 0 0
0 0 0
0 0 0
0 0 0
0 0 0
0 0 0
0 0 0
0 0 0
0 0 0
0 0 0
0 0 0
0 0 0
0 0 0
0 0 0
0 0 0
0 0 0
0 0 0
0 0 0
0 0 0
0 0 0
0 0 0
0 0 0
0 0 0
0 0 0
0 0 0
0 0 0
0 0 0
0 0 0
0 0 0
0 0 0
0 0 0
0 0 0
0 0 0
