ply
format ascii 1.0
element vertex 176
comment vertices
property float x
property float y
property float z
end_header
-1.19356000423431396 -1.76281774044036865 0.286719232797622681
-0.177107244729995728 1.02608203887939453 0.282840639352798462
-0.397747576236724854 -1.2058110237121582 0.312454313039779663
-0.582108736038208008 -0.95679938793182373 0.0287109315395355225
-0.274244576692581177 0.840843796730041504 0.109797760844230652
-0.341135978698730469 0.866999506950378418 0.312797904014587402
-1.56305015087127686 -2.50659871101379395 -0.142568647861480713
-0.316336095333099365 -0.924603164196014404 0.334778010845184326
-0.287755995988845825 0.888327181339263916 0.00487235933542251587
-1.02620887756347656 -1.60648572444915771 0.279278784990310669
-0.391132116317749023 0.865684568881988525 0.185088291764259338
-0.315947920083999634 0.868552505970001221 0.260764777660369873
-0.181504353880882263 -1.10752022266387939 0.191707909107208252
-0.918426394462585449 -1.78070509433746338 0.325634002685546875
-1.10671782493591309 -1.85569941997528076 0.445125073194503784
-0.287322461605072021 0.88824087381362915 0.167880505323410034
-1.15803825855255127 -1.76052260398864746 0.126951515674591064
-0.373943060636520386 0.901329874992370605 0.109970085322856903
-1.12076210975646973 -1.6281287670135498 0.363994568586349487
-0.373541593551635742 -0.899716854095458984 0.149044185876846313
-0.326879262924194336 0.870125770568847656 0.266937881708145142
-1.70892655849456787 -2.55915141105651855 -0.177579134702682495
-0.314346343278884888 0.828735589981079102 0.0912508964538574219
-1.0524137020111084 -1.89165830612182617 0.291601449251174927
-0.134148553013801575 -0.938988089561462402 0.286243289709091187
-1.74707663059234619 -2.44774866104125977 -0.14595794677734375
-0.409025520086288452 -1.09208405017852783 0.136333778500556946
-0.29440191388130188 0.965660691261291504 0.193240851163864136
-0.293880283832550049 0.749464452266693115 0.216777384281158447
-1.18878018856048584 -1.68024039268493652 0.131037920713424683
-1.60159337520599365 -2.43291187286376953 -0.165362730622291565
-0.3496207594871521 0.795370817184448242 0.297372907400131226
-0.399749815464019775 -1.01924490928649902 0.251203626394271851
-0.488431155681610107 0.866112768650054932 0.109609149396419525
-0.303833723068237305 0.908757328987121582 0.118155129253864288
-0.292283058166503906 0.863666713237762451 0.0999464169144630432
-0.22891603410243988 0.890730321407318115 0.264993369579315186
-1.03032219409942627 -1.76185071468353271 0.393650829792022705
-0.917650699615478516 -1.73346877098083496 0.264365017414093018
-0.387260138988494873 -1.00726425647735596 0.148712500929832458
-0.283094465732574463 0.907689332962036133 0.230929106473922729
-0.235248282551765442 -1.00638389587402344 0.31767582893371582
-0.382827043533325195 0.883427023887634277 0.245179623365402222
-0.329989731311798096 0.828732550144195557 0.168258070945739746
-1.68896067142486572 -2.49601531028747559 -0.126051440834999084
-0.254366397857666016 -0.997971594333648682 0.1126299649477005
-0.367549926042556763 0.85825049877166748 0.177893891930580139
-0.425319314002990723 0.891174793243408203 0.106482632458209991
-1.84514892101287842 -2.42410373687744141 -0.0120651461184024811
-1.05672931671142578 -1.80999410152435303 0.226406767964363098
-0.505042016506195068 -0.934768557548522949 0.00131417438387870789
-0.421154201030731201 -0.907192885875701904 0.243207663297653198
-1.2052379846572876 -1.80009913444519043 0.384047329425811768
-1.17450177669525146 -1.78688359260559082 0.231058061122894287
-0.464710414409637451 0.84984201192855835 0.318076461553573608
-0.306811273097991943 0.858568847179412842 0.257609814405441284
-0.321369946002960205 0.809170007705688477 0.276054412126541138
-0.239758968353271484 0.91938251256942749 0.218759089708328247
-0.283476024866104126 0.888957381248474121 0.190389916300773621
-1.00773262977600098 -1.8508840799331665 0.414852023124694824
-0.334787458181381226 0.865035414695739746 0.136958509683609009
-1.11439836025238037 -1.65953755378723145 0.290120810270309448
-1.0382847785949707 -1.8408820629119873 0.300402224063873291
-0.363536298274993896 0.876132011413574219 0.256597161293029785
-0.326620578765869141 0.760787010192871094 0.233931750059127808
-0.296913385391235352 0.804478168487548828 0.281922519207000732
-0.296874046325683594 0.833026647567749023 0.307877928018569946
-1.76923513412475586 -2.49238991737365723 -0.109011538326740265
-0.548354029655456543 -0.985198438167572021 0.137147843837738037
-1.77075445652008057 -2.6925361156463623 -0.0293066389858722687
-1.23672688007354736 -1.73837184906005859 0.138917446136474609
-0.237057998776435852 -1.01009047031402588 0.214820191264152527
-0.279869288206100464 0.822244107723236084 0.0818129777908325195
-1.20569050312042236 -1.78597474098205566 0.284214496612548828
-0.416345357894897461 0.867036640644073486 0.224631950259208679
-0.210001975297927856 0.996577262878417969 0.288898229598999023
-0.468562006950378418 -0.993556618690490723 0.0197862684726715088
-0.402548611164093018 0.83731001615524292 0.0805765315890312195
-0.234455376863479614 1.0077826976776123 0.271205306053161621
-0.991903722286224365 -1.8655247688293457 0.208073511719703674
-0.317754119634628296 0.832147598266601562 0.117641232907772064
-0.274033725261688232 0.747402548789978027 0.230306476354598999
-0.221846714615821838 0.855182647705078125 0.0886986851692199707
-1.1866384744644165 -1.75483500957489014 0.366420865058898926
-1.69507074356079102 -2.46690702438354492 -0.177890390157699585
-0.358754992485046387 0.799364089965820312 0.26491248607635498
-0.328197121620178223 0.822547614574432373 -0.00859440863132476807
-0.171981945633888245 0.799321770668029785 -0.0124350041151046753
-0.371388554573059082 0.913822531700134277 0.159708485007286072
-0.319966018199920654 -0.862120926380157471 0.255566537380218506
-1.05322349071502686 -1.92051577568054199 0.359261393547058105
-0.263245671987533569 0.80738598108291626 0.260460466146469116
-0.522964596748352051 -0.903255164623260498 0.0723876506090164185
-1.13115251064300537 -1.60370957851409912 0.172454655170440674
-0.348243862390518188 0.871115505695343018 0.141000807285308838
-0.425668835639953613 0.863965988159179688 0.126512587070465088
-1.662270188331604 -2.54243993759155273 -0.144865930080413818
-0.340965390205383301 0.952140569686889648 0.198429256677627563
-0.372257649898529053 -1.08880937099456787 0.275620818138122559
-0.371321350336074829 0.816001296043395996 0.132117316126823425
-0.375951260328292847 -1.08912217617034912 0.301967352628707886
-0.229936391115188599 0.959600329399108887 0.234454363584518433
-0.31209564208984375 -0.978159010410308838 0.264714866876602173
-0.356649786233901978 0.905370652675628662 0.126379638910293579
-1.59662938117980957 -2.55732274055480957 -0.146578460931777954
-0.297746598720550537 0.865116596221923828 0.0864808261394500732
-0.356307476758956909 0.918692886829376221 0.159817367792129517
-0.322316497564315796 -0.891592681407928467 0.0713476687669754028
-0.221861645579338074 0.854303359985351562 0.07930002361536026
-1.02253174781799316 -1.71470367908477783 0.359770417213439941
-1.12278401851654053 -1.82606649398803711 0.348111569881439209
-1.58227825164794922 -2.46585440635681152 -0.161647588014602661
-0.311728417873382568 0.85648876428604126 0.139002829790115356
-1.15197896957397461 -1.80389726161956787 0.207135945558547974
-0.904390454292297363 -1.69477987289428711 0.205299198627471924
-1.789581298828125 -2.54028868675231934 -0.137956246733665466
-0.415700048208236694 0.904073596000671387 0.170976877212524414
-1.79500484466552734 -2.70419836044311523 -0.0391803160309791565
-0.363668769598007202 0.768488287925720215 0.149830996990203857
-0.217257410287857056 0.957280218601226807 0.287280380725860596
-1.65025687217712402 -2.39460039138793945 -0.165410041809082031
-0.166327476501464844 0.840253949165344238 -0.0115057528018951416
-0.343568205833435059 0.816014707088470459 0.275665014982223511
-0.405510246753692627 -1.03431320190429688 0.209554851055145264
-0.268533647060394287 0.823030829429626465 0.0614483021199703217
-0.158524602651596069 1.06941378116607666 0.260478675365447998
-0.328146606683731079 0.85879826545715332 0.115508280694484711
-0.452249258756637573 -1.01674985885620117 0.068646654486656189
-0.34450879693031311 0.826139211654663086 0.21510767936706543
-1.20421648025512695 -1.74873661994934082 0.213521569967269897
-1.09740567207336426 -1.72650682926177979 0.230336755514144897
-0.291666269302368164 0.779989719390869141 0.306948363780975342
-0.338915437459945679 0.89295649528503418 0.100068993866443634
-1.0425255298614502 -1.73322153091430664 0.417602241039276123
-1.15373635292053223 -1.81721484661102295 0.401799708604812622
-0.401553452014923096 -0.933538675308227539 0.176740884780883789
-0.846828579902648926 -1.77186799049377441 0.287338286638259888
-0.36060798168182373 0.823868691921234131 0.0628082156181335449
-1.02748715877532959 -1.81186401844024658 0.292305827140808105
-0.300022214651107788 0.888093948364257812 0.251937687397003174
-0.430655062198638916 -0.993278682231903076 0.274687439203262329
-0.401724189519882202 0.89752572774887085 0.220011442899703979
-0.31788325309753418 -0.985500574111938477 0.141178712248802185
-0.304541856050491333 0.877267956733703613 0.298672378063201904
-1.08282029628753662 -1.61466920375823975 0.381032258272171021
-0.391846120357513428 0.899538993835449219 0.111265912652015686
-1.05141854286193848 -1.60574674606323242 0.226048797369003296
-0.36584782600402832 0.853478670120239258 0.181396186351776123
-0.179644107818603516 0.93077397346496582 0.245890170335769653
-0.979743063449859619 -1.78441917896270752 0.370864212512969971
-0.322731465101242065 0.871973514556884766 0.276298940181732178
-1.77139794826507568 -2.65491628646850586 -0.100475922226905823
-0.328971028327941895 0.732034683227539062 0.262346208095550537
-1.20362019538879395 -1.71943926811218262 0.103195875883102417
-1.86171090602874756 -2.45162558555603027 -0.0649833604693412781
-1.21348977088928223 -1.80626022815704346 0.419916629791259766
-0.108136162161827087 -1.00976073741912842 0.276448071002960205
-0.378153860569000244 0.875575780868530273 0.1659698486328125
-0.280955672264099121 0.913892865180969238 0.0271615386009216309
-0.375895798206329346 0.911829233169555664 0.184713065624237061
-1.23922312259674072 -1.74971544742584229 0.203442007303237915
-1.18830513954162598 -1.73868536949157715 0.155838191509246826
-1.16887974739074707 -1.82342779636383057 0.415784209966659546
-0.444288104772567749 -0.9007415771484375 0.0730035826563835144
-0.365806460380554199 0.856865644454956055 0.257782340049743652
-0.383987694978713989 0.885888934135437012 0.177950531244277954
-0.363667100667953491 0.883617758750915527 0.29977118968963623
-1.54609024524688721 -2.49724507331848145 -0.168804556131362915
-0.184319257736206055 0.822093725204467773 0.12063279002904892
-0.199715301394462585 1.05478072166442871 0.26893848180770874
-0.146374985575675964 -1.0675041675567627 0.170471474528312683
-0.325782418251037598 0.733352780342102051 0.305091023445129395
-0.90676116943359375 -1.75142288208007812 0.349472343921661377
-0.408918380737304688 -0.954627275466918945 0.0315437987446784973
-1.05269110202789307 -1.77708971500396729 0.171835988759994507
-1.01066970825195312 -1.84536349773406982 0.232505291700363159
