ply
format ascii 1.0
element vertex 256
comment vertices
property float x
property float y
property float z
end_header
0.327051222324371338 0.940818130970001221 0.395959913730621338
-1.44558024406433105 -1.36744260787963867 0.338350355625152588
-1.67600524425506592 1.07849264144897461 0.3381195068359375
0.578524589538574219 -0.811563968658447266 0.12527427077293396
-0.426754623651504517 -0.898421049118041992 0.414425581693649292
1.29304862022399902 1.52591454982757568 0.251790165901184082
-0.756189167499542236 0.651738524436950684 0.439470171928405762
-0.69042515754699707 -1.87704205513000488 0.431554973125457764
-0.431263059377670288 -0.888390898704528809 0.402067661285400391
-1.67733490467071533 1.08111751079559326 0.331600576639175415
-0.753252208232879639 0.65394359827041626 0.44668269157409668
-1.45862877368927002 -1.34991550445556641 0.338663607835769653
0.875010848045349121 0.487419039011001587 0.11726214736700058
-1.1159898042678833 -1.67780947685241699 0.347940653562545776
0.872773230075836182 0.489898949861526489 0.0809356346726417542
0.582273542881011963 -0.815924942493438721 0.122576482594013214
-0.683700859546661377 -1.87147903442382812 0.375833362340927124
1.29733490943908691 1.52684080600738525 0.250898748636245728
-0.433051943778991699 -0.896517634391784668 0.413961678743362427
-1.68113481998443604 1.08070051670074463 0.331102997064590454
-1.45228064060211182 -1.35357940196990967 0.33443877100944519
-0.753149867057800293 0.651297152042388916 0.437143862247467041
-1.44745433330535889 -1.37831294536590576 0.333568483591079712
-0.428258001804351807 -0.890865802764892578 0.413223415613174438
-0.433788448572158813 -0.897476315498352051 0.414808392524719238
-0.761211156845092773 0.649978756904602051 0.449990302324295044
0.32793852686882019 0.937808752059936523 0.395169585943222046
-0.685585439205169678 -1.88501429557800293 0.432240217924118042
1.29549026489257812 1.52609920501708984 0.250047951936721802
-1.45478498935699463 -1.3522346019744873 0.337768882513046265
1.29551613330841064 1.52615892887115479 0.254492431879043579
0.329830557107925415 0.942634105682373047 0.390762478113174438
-1.68325448036193848 1.07915472984313965 0.338624775409698486
0.872630536556243896 0.491046816110610962 0.0949601680040359497
-0.685092508792877197 -1.87857282161712646 0.41950497031211853
-1.67649698257446289 1.0784451961517334 0.335192084312438965
-1.68207859992980957 1.07554244995117188 0.330868750810623169
0.58639603853225708 -0.811834454536437988 0.133008033037185669
0.576982498168945312 -0.817113518714904785 0.131901323795318604
-1.46086108684539795 -1.35379111766815186 0.340940326452255249
-0.691947042942047119 -1.87260067462921143 0.429369449615478516
0.324730664491653442 0.939408659934997559 0.393480092287063599
-1.67983472347259521 1.08131635189056396 0.332436144351959229
0.327436655759811401 0.941261708736419678 0.399098783731460571
-1.68090856075286865 1.07709729671478271 0.335566341876983643
-0.423245370388031006 -0.894556999206542969 0.409539699554443359
-0.754537999629974365 0.647140800952911377 0.448069185018539429
-0.750780284404754639 0.643586635589599609 0.441357642412185669
-1.45077908039093018 -1.36714029312133789 0.338274389505386353
-0.432038098573684692 -0.897049069404602051 0.416252583265304565
-0.42738911509513855 -0.900378406047821045 0.416519969701766968
-1.45122337341308594 -1.36237263679504395 0.319341570138931274
-0.756501913070678711 0.648581385612487793 0.441375672817230225
-0.431766122579574585 -0.901644110679626465 0.411159306764602661
-1.67974841594696045 1.0801767110824585 0.328353077173233032
-1.45728814601898193 -1.35499203205108643 0.334698945283889771
-0.426626712083816528 -0.888979852199554443 0.411145418882369995
1.2938462495803833 1.52658426761627197 0.25412297248840332
0.32905617356300354 0.93912583589553833 0.394845336675643921
0.329506576061248779 0.944796860218048096 0.39527815580368042
0.587685823440551758 -0.81124722957611084 0.130756363272666931
-0.689888060092926025 -1.87871181964874268 0.434436023235321045
-0.689915359020233154 -1.87531280517578125 0.429823577404022217
-1.13053500652313232 -1.6689445972442627 0.35943564772605896
-0.68365103006362915 -1.87994909286499023 0.412808090448379517
0.327646881341934204 0.941397249698638916 0.397538542747497559
1.29216921329498291 1.52598536014556885 0.253384441137313843
1.29083883762359619 1.52753663063049316 0.261894434690475464
0.328795641660690308 0.940561413764953613 0.394178569316864014
0.588235020637512207 -0.810620486736297607 0.130021899938583374
1.29270529747009277 1.52618670463562012 0.25501057505607605
-0.75737762451171875 0.650529682636260986 0.446920931339263916
0.579938232898712158 -0.812470018863677979 0.122276701033115387
-1.47300148010253906 -1.35412371158599854 0.316311895847320557
1.29002964496612549 1.52599799633026123 0.24820217490196228
-0.429331034421920776 -0.898269116878509521 0.415003985166549683
-1.45574104785919189 -1.36354982852935791 0.343109130859375
-1.45316660404205322 -1.35216331481933594 0.336745291948318481
-1.68351852893829346 1.07822763919830322 0.33352997899055481
-0.425945132970809937 -0.89676213264465332 0.411924839019775391
0.580561459064483643 -0.809924602508544922 0.133032962679862976
1.2905203104019165 1.52638387680053711 0.25681990385055542
1.2886660099029541 1.52487576007843018 0.249821990728378296
-0.67293781042098999 -1.87326288223266602 0.400591433048248291
1.28889214992523193 1.52681732177734375 0.253339648246765137
-0.68725895881652832 -1.87818717956542969 0.426691174507141113
-1.45693933963775635 -1.35308253765106201 0.335530191659927368
1.29777181148529053 1.52716982364654541 0.251769304275512695
0.581179618835449219 -0.814294278621673584 0.126964777708053589
-0.758186280727386475 0.649558782577514648 0.438099533319473267
-0.693499147891998291 -1.87214946746826172 0.401097208261489868
0.874129712581634521 0.488958686590194702 0.0890461131930351257
0.327962517738342285 0.94147026538848877 0.393240630626678467
-1.67952132225036621 1.0782163143157959 0.331353157758712769
-1.67937672138214111 1.08078432083129883 0.331094741821289062
-1.26155900955200195 -1.53058350086212158 0.322950989007949829
-0.689955234527587891 -1.88294517993927002 0.418289065361022949
-1.67717587947845459 1.07738828659057617 0.335383057594299316
0.325639337301254272 0.941835463047027588 0.399330198764801025
-1.46102285385131836 -1.3547360897064209 0.341634541749954224
-0.429293453693389893 -0.898660421371459961 0.414095431566238403
0.323188304901123047 0.939656972885131836 0.395310461521148682
-0.75617295503616333 0.649017751216888428 0.439801573753356934
0.871865749359130859 0.490454643964767456 0.0930649489164352417
0.328332453966140747 0.942813873291015625 0.397557079792022705
-0.757895886898040771 0.651287376880645752 0.436658203601837158
-1.44572734832763672 -1.36990392208099365 0.340039342641830444
-0.4331950843334198 -0.893603682518005371 0.415695548057556152
-1.45788145065307617 -1.35358965396881104 0.336983382701873779
0.585552752017974854 -0.812518179416656494 0.127343103289604187
0.578398585319519043 -0.812311291694641113 0.132448330521583557
-0.433081448078155518 -0.897990882396697998 0.411954224109649658
-1.67749595642089844 1.07992827892303467 0.332141011953353882
0.329256922006607056 0.942235589027404785 0.392664611339569092
0.86682426929473877 0.489754468202590942 0.0853555053472518921
-1.68022465705871582 1.07556712627410889 0.337735682725906372
-1.6822516918182373 1.07753777503967285 0.335289865732192993
-0.761470973491668701 0.64825969934463501 0.441620230674743652
0.584113419055938721 -0.811447083950042725 0.12561972439289093
-1.68347847461700439 1.08246755599975586 0.332156747579574585
-1.4479680061340332 -1.3662489652633667 0.336120456457138062
0.596297562122344971 -0.814451754093170166 0.118375450372695923
-0.756326198577880859 0.649608194828033447 0.442153006792068481
-1.42931449413299561 -1.37928199768066406 0.328313142061233521
-1.45560157299041748 -1.36493217945098877 0.337450325489044189
0.584210097789764404 -0.815047264099121094 0.119604401290416718
-1.45903110504150391 -1.35487830638885498 0.338207870721817017
-0.432512909173965454 -0.894927561283111572 0.416806310415267944
-1.67766368389129639 1.08015286922454834 0.334233701229095459
-1.16244709491729736 -1.66562938690185547 0.362917631864547729
-0.688317835330963135 -1.87535130977630615 0.416493505239486694
-0.431745648384094238 -0.896796643733978271 0.415858834981918335
-0.750637352466583252 0.651363730430603027 0.44010549783706665
-0.756981849670410156 0.644719064235687256 0.446598827838897705
0.326185524463653564 0.943258941173553467 0.395459145307540894
-1.45924818515777588 -1.34326815605163574 0.337999165058135986
-0.689824581146240234 -1.88014733791351318 0.438061028718948364
-0.761120915412902832 0.650690078735351562 0.449368894100189209
-0.430031359195709229 -0.898701727390289307 0.415050029754638672
0.32790064811706543 0.943043351173400879 0.400684177875518799
-0.68972700834274292 -1.8704761266708374 0.394061625003814697
-0.756560802459716797 0.65229952335357666 0.437477022409439087
-0.428255379199981689 -0.898954570293426514 0.416455745697021484
-0.430171966552734375 -0.896843254566192627 0.414615094661712646
0.585437297821044922 -0.811167359352111816 0.126202672719955444
-1.67768621444702148 1.07921504974365234 0.33212009072303772
-1.4534989595413208 -1.35216069221496582 0.336021751165390015
-1.67778170108795166 1.07735657691955566 0.333937585353851318
1.29309642314910889 1.52656793594360352 0.253053098917007446
1.2933194637298584 1.52629768848419189 0.254372626543045044
1.2911909818649292 1.52719879150390625 0.253692328929901123
0.578077495098114014 -0.812696218490600586 0.132884398102760315
1.29455268383026123 1.52666389942169189 0.251716881990432739
-0.690970420837402344 -1.87627506256103516 0.430267542600631714
-1.4583970308303833 -1.35255646705627441 0.332745999097824097
-1.67895567417144775 1.08065915107727051 0.328205585479736328
-0.687592983245849609 -1.87862825393676758 0.432424217462539673
0.582993447780609131 -0.815200090408325195 0.127456948161125183
-0.689354300498962402 -1.87537086009979248 0.425969779491424561
0.325491756200790405 0.941849291324615479 0.401802122592926025
-0.426914870738983154 -0.89476168155670166 0.412326216697692871
0.584337353706359863 -0.813126266002655029 0.123490996658802032
-0.433540701866149902 -0.896020114421844482 0.413238942623138428
-1.68114006519317627 1.0778510570526123 0.332589030265808105
-0.68609011173248291 -1.8804471492767334 0.428111881017684937
-0.428021550178527832 -0.897931575775146484 0.414488762617111206
-1.45627486705780029 -1.35430383682250977 0.335420519113540649
0.58456498384475708 -0.81022953987121582 0.129745081067085266
0.579107105731964111 -0.816565573215484619 0.128640249371528625
-1.45679080486297607 -1.36479485034942627 0.341104269027709961
-1.10662209987640381 -1.66955327987670898 0.359712392091751099
-1.68015003204345703 1.07591021060943604 0.333520174026489258
-1.4598088264465332 -1.35333919525146484 0.336728870868682861
-0.75893014669418335 0.652678132057189941 0.448475390672683716
1.28925621509552002 1.52583777904510498 0.254034429788589478
-1.45397007465362549 -1.36401808261871338 0.337115585803985596
0.329114615917205811 0.940985798835754395 0.393528372049331665
1.29244565963745117 1.52702713012695312 0.250201523303985596
-1.45180535316467285 -1.35182154178619385 0.337815433740615845
-0.429461866617202759 -0.896145641803741455 0.413424640893936157
-0.431021600961685181 -0.898951709270477295 0.415652096271514893
-1.67661499977111816 1.07958579063415527 0.334730088710784912
0.5880851149559021 -0.808799982070922852 0.128846988081932068
0.329571127891540527 0.943065404891967773 0.393408119678497314
0.58880913257598877 -0.812027513980865479 0.125805959105491638
0.588568627834320068 -0.814207136631011963 0.122121430933475494
0.327125817537307739 0.940091192722320557 0.393969535827636719
-1.45742762088775635 -1.35506534576416016 0.341595441102981567
0.586547255516052246 -0.808997154235839844 0.132144734263420105
1.29061663150787354 1.5268094539642334 0.253467291593551636
-1.45096349716186523 -1.36324524879455566 0.338848024606704712
0.873197674751281738 0.492305546998977661 0.0838831439614295959
-0.686138331890106201 -1.87753462791442871 0.414456993341445923
-0.758555233478546143 0.648737907409667969 0.442463874816894531
1.29489588737487793 1.52649271488189697 0.25439375638961792
-1.4610668420791626 -1.35572779178619385 0.342962205410003662
0.32978743314743042 0.940025389194488525 0.394094467163085938
1.29511654376983643 1.52681624889373779 0.254595190286636353
0.869128227233886719 0.492140591144561768 0.0845032334327697754
-1.45559537410736084 -1.36386978626251221 0.340985417366027832
-1.44583892822265625 -1.37156200408935547 0.33732229471206665
0.581762433052062988 -0.816829383373260498 0.131871089339256287
-0.43337780237197876 -0.898168385028839111 0.419127792119979858
-1.4589313268661499 -1.35385787487030029 0.337942928075790405
-1.3095707893371582 -1.43580782413482666 0.335111677646636963
0.320937007665634155 0.941979587078094482 0.393604278564453125
1.29220306873321533 1.52751255035400391 0.250819295644760132
-1.4507671594619751 -1.35267305374145508 0.335272461175918579
1.29338264465332031 1.52617168426513672 0.253396809101104736
0.583700656890869141 -0.817366719245910645 0.128474324941635132
-0.430914252996444702 -0.899655818939208984 0.415557533502578735
-1.45796573162078857 -1.35641849040985107 0.337633281946182251
-1.44714736938476562 -1.36825883388519287 0.339878290891647339
0.587595641613006592 -0.808149635791778564 0.131976574659347534
1.29256248474121094 1.52626430988311768 0.25905570387840271
1.29418742656707764 1.5258408784866333 0.252956807613372803
0.325724780559539795 0.939721941947937012 0.393554240465164185
-1.67934203147888184 1.08111584186553955 0.333253532648086548
-0.756436288356781006 0.64717566967010498 0.441410750150680542
0.329324901103973389 0.941082477569580078 0.394209176301956177
1.29123401641845703 1.52649044990539551 0.254840940237045288
0.585204541683197021 -0.814911365509033203 0.127030491828918457
-1.68116438388824463 1.08025944232940674 0.330731809139251709
1.29946112632751465 1.52719223499298096 0.250808864831924438
-1.68291068077087402 1.07856082916259766 0.332309722900390625
0.871475338935852051 0.48854491114616394 0.0942590832710266113
-0.430784642696380615 -0.895129919052124023 0.413971364498138428
0.327090799808502197 0.940517902374267578 0.393418550491333008
-0.759165644645690918 0.648537755012512207 0.443893015384674072
-1.68063855171203613 1.08079946041107178 0.331353634595870972
-0.689648211002349854 -1.87526655197143555 0.426125854253768921
-0.429856359958648682 -0.895621836185455322 0.413643598556518555
-0.760343790054321289 0.650242924690246582 0.437201052904129028
0.583240687847137451 -0.811835169792175293 0.131809622049331665
-0.756463885307312012 0.6459236741065979 0.446065425872802734
0.583557784557342529 -0.817118406295776367 0.129557579755783081
-0.431262493133544922 -0.896624505519866943 0.416175603866577148
1.29594850540161133 1.526702880859375 0.252322912216186523
-1.67930042743682861 1.08090567588806152 0.332913905382156372
-0.68515390157699585 -1.88134765625 0.434105902910232544
-1.45853078365325928 -1.35377621650695801 0.341466218233108521
0.32425224781036377 0.941681563854217529 0.399936586618423462
-1.45869481563568115 -1.35164737701416016 0.334667086601257324
0.589094400405883789 -0.815112769603729248 0.120374053716659546
-0.68866419792175293 -1.87621593475341797 0.424273490905761719
-0.691101491451263428 -1.87401103973388672 0.430346369743347168
-1.45798444747924805 -1.35435652732849121 0.3350372314453125
-1.45678246021270752 -1.35372412204742432 0.34021151065826416
0.325571209192276001 0.937552154064178467 0.395943015813827515
-0.427686750888824463 -0.898480594158172607 0.415489375591278076
-1.4582827091217041 -1.35458528995513916 0.335663437843322754
1.28965902328491211 1.52560710906982422 0.254745841026306152
1.29663217067718506 1.52680253982543945 0.255882143974304199
0.590106606483459473 -0.812321364879608154 0.129082664847373962
-1.67958080768585205 1.07914125919342041 0.332185685634613037
-1.4575963020324707 -1.35512089729309082 0.337906002998352051
