ply
format ascii 1.0
element vertex 64
comment vertices
property float x
property float y
property float z
end_header
-0.437742650508880615 -0.899100303649902344 0.416284769773483276
-1.09456050395965576 -1.67389881610870361 0.406247943639755249
-0.765102863311767578 0.643908023834228516 0.437635421752929688
0.872820615768432617 0.488041132688522339 0.0589276775717735291
-1.68609607219696045 1.0756765604019165 0.340889036655426025
1.29014599323272705 1.52824187278747559 0.251527130603790283
-0.691463828086853027 -1.87666666507720947 0.408787459135055542
0.589155316352844238 -0.808019816875457764 0.122050993144512177
-1.46829438209533691 -1.35798060894012451 0.32067418098449707
0.334754347801208496 0.942305445671081543 0.38446691632270813
0 0 0
0 0 0
0 0 0
0 0 0
0 0 0
0 0 0
0 0 0
0 0 0
0 0 0
0 0 0
0 0 0
0 0 0
0 0 0
0 0 0
0 0 0
0 0 0
0 0 0
0 0 0
0 0 0
0 0 0
0 0 0
0 0 0
0 0 0
0 0 0
0 0 0
0 0 0
0 0 0
0 0 0
0 0 0
0 0 0
0 0 0
0 0 0
0 0 0
0 0 0
0 0 0
0 0 0
0 0 0
0 0 0
0 0 0
0 0 0
0 0 0
0 0 0
0 0 0
0 0 0
0 0 0
0 0 0
0 0 0
0 0 0
0 0 0
0 0 0
0 0 0
0 0 0
0 0 0
0 0 0
