ply
format ascii 1.0
element vertex 256
comment vertices
property float x
property float y
property float z
end_header
1.2126471996307373 -0.566672563552856445 0.391647458076477051
-5.0125880241394043 2.14017176628112793 0.087035253643989563
-1.98622846603393555 -2.35863971710205078 0.444044530391693115
-2.52390933036804199 1.7805401086807251 0.0903244242072105408
2.49224352836608887 1.85235059261322021 0.148725688457489014
-3.89887762069702148 3.79855227470397949 0.121577411890029907
-5.43765592575073242 0.36634141206741333 0.443626433610916138
-1.27177083492279053 -0.339674770832061768 0.340486466884613037
2.52441716194152832 -1.81972622871398926 0.2475605309009552
0.719251394271850586 1.1234053373336792 0.300180196762084961
-3.0924217700958252 0.179099932312965393 0.420641124248504639
0.134565889835357666 -1.34614014625549316 0.102176040410995483
-0.6554718017578125 1.14754760265350342 0.337222278118133545
1.18039226531982422 0.608694911003112793 0.446591317653656006
-1.21729886531829834 0.512031137943267822 0.292025506496429443
-4.97870159149169922 2.16311192512512207 0.071635514497756958
-1.99335908889770508 -2.36364054679870605 0.406164228916168213
-5.42590427398681641 0.371114790439605713 0.466061592102050781
-0.645919263362884521 1.15285778045654297 0.328102767467498779
-2.53305673599243164 1.78297591209411621 0.10001721978187561
2.51983833312988281 -1.81848645210266113 0.232102423906326294
-3.92369651794433594 3.79621028900146484 0.107200250029563904
2.46082186698913574 1.84716057777404785 0.14697563648223877
0.134961515665054321 -1.33794188499450684 0.0766871199011802673
1.19211554527282715 0.631768345832824707 0.435206055641174316
-3.09119391441345215 0.181787490844726562 0.456400692462921143
1.18920361995697021 0.527865052223205566 0.484223663806915283
-1.23383164405822754 0.526758313179016113 0.295063138008117676
-2.54487943649291992 1.7721332311630249 0.101040661334991455
0.132754504680633545 -1.34496212005615234 0.11169096827507019
-1.0597919225692749 -0.786158740520477295 0.126857191324234009
-1.31153273582458496 -0.35278630256652832 0.342036932706832886
-2.52928709983825684 1.76018655300140381 0.0733420103788375854
0.716895401477813721 1.13255059719085693 0.3266143798828125
-1.26603055000305176 -0.337111085653305054 0.360151886940002441
-4.98639059066772461 2.13280487060546875 0.0860481709241867065
-4.99322271347045898 2.13647675514221191 0.0721843764185905457
-1.09562826156616211 -0.781309127807617188 0.118920743465423584
1.18243503570556641 0.609775006771087646 0.455484479665756226
-3.08989214897155762 0.164476931095123291 0.420475482940673828
-1.20224559307098389 0.498778581619262695 0.266144394874572754
0.146498739719390869 -1.31608271598815918 0.0770891830325126648
1.17749679088592529 -0.571524679660797119 0.408416241407394409
-1.20344400405883789 0.528617024421691895 0.302539348602294922
-5.43128252029418945 0.372898489236831665 0.458845049142837524
-2.54489755630493164 1.7813262939453125 0.08702860027551651
2.52011346817016602 -1.81310570240020752 0.230669319629669189
-3.08715510368347168 0.177687913179397583 0.437904685735702515
-2.00522160530090332 -2.36307787895202637 0.411734282970428467
0.719897568225860596 1.12353181838989258 0.340939521789550781
-3.91669869422912598 3.79969215393066406 0.0951248854398727417
0.136597573757171631 -1.31789541244506836 0.0905288979411125183
-3.09674715995788574 0.176677510142326355 0.404630362987518311
-0.65304332971572876 1.1585700511932373 0.320385754108428955
2.45554471015930176 1.84889733791351318 0.147116780281066895
-5.43825578689575195 0.377186596393585205 0.454296320676803589
-1.29776668548583984 -0.371255189180374146 0.331329822540283203
-1.27369832992553711 -0.361527234315872192 0.313591152429580688
0.706884980201721191 1.13056910037994385 0.333139896392822266
1.22151064872741699 -0.566573500633239746 0.390417218208312988
1.17661952972412109 0.609448671340942383 0.464351058006286621
-1.19692111015319824 0.502938151359558105 0.303634047508239746
-1.08707666397094727 -0.812156200408935547 0.125481218099594116
2.51203608512878418 -1.82652091979980469 0.237918853759765625
-1.24091553688049316 0.521272897720336914 0.288453876972198486
0.741221785545349121 1.1428908109664917 0.339077115058898926
0.123819619417190552 -1.34940564632415771 0.0982297360897064209
0.129454493522644043 -1.33725261688232422 0.092436276376247406
-5.43602991104125977 0.369886398315429688 0.443916082382202148
1.17934048175811768 0.582066774368286133 0.486422896385192871
-5.00098133087158203 2.146484375 0.0704468637704849243
-1.2046356201171875 0.513847887516021729 0.298418670892715454
-1.26107430458068848 -0.369182288646697998 0.394454717636108398
-1.19812798500061035 0.453795492649078369 0.298282831907272339
-3.9156496524810791 3.80131936073303223 0.104874640703201294
-5.42474699020385742 0.376360535621643066 0.455667614936828613
2.48427963256835938 1.84936428070068359 0.138957321643829346
-3.08560299873352051 0.177234306931495667 0.413606405258178711
1.17745673656463623 0.619752168655395508 0.388368278741836548
1.17430651187896729 0.610837996006011963 0.472701609134674072
-2.53637027740478516 1.7648921012878418 0.091800294816493988
-1.98023748397827148 -2.37560248374938965 0.420217782258987427
-2.53107881546020508 1.78974676132202148 0.0924149751663208008
-2.0010218620300293 -2.37438321113586426 0.415547549724578857
-3.09125375747680664 0.168730318546295166 0.442605733871459961
-1.2945404052734375 -0.346904188394546509 0.352554678916931152
-1.07106125354766846 -0.778471112251281738 0.135081857442855835
1.17369973659515381 0.61402583122253418 0.468272507190704346
2.52871108055114746 -1.82632172107696533 0.236254468560218811
-3.0766141414642334 0.180299580097198486 0.421989738941192627
2.51493215560913086 -1.82003474235534668 0.23780958354473114
-3.09560561180114746 0.179664298892021179 0.447195649147033691
-2.53621363639831543 1.7672419548034668 0.100330129265785217
-1.28577339649200439 -0.380262494087219238 0.324997603893280029
0.710348963737487793 1.12337970733642578 0.308544367551803589
-3.90951824188232422 3.79765081405639648 0.126185059547424316
1.21395683288574219 -0.550565659999847412 0.404961138963699341
-4.9820256233215332 2.14650750160217285 0.069446071982383728
1.18219387531280518 0.592307388782501221 0.471452832221984863
2.51646137237548828 -1.82452142238616943 0.235146090388298035
-2.53403925895690918 1.78041470050811768 0.0855424702167510986
-5.43216514587402344 0.376165628433227539 0.449987947940826416
-5.01125860214233398 2.14788961410522461 0.0862085297703742981
0.70249330997467041 1.12295699119567871 0.322646647691726685
1.1947396993637085 -0.563105344772338867 0.407476991415023804
2.52528715133666992 -1.80478394031524658 0.248070746660232544
1.20602929592132568 -0.562409639358520508 0.381244063377380371
-5.44030904769897461 0.3758278489112854 0.452688455581665039
-5.00580644607543945 2.13834238052368164 0.0889115482568740845
0.123604238033294678 -1.33579719066619873 0.108664363622665405
1.20800614356994629 -0.562866091728210449 0.410057663917541504
-1.21845459938049316 0.524291038513183594 0.297371029853820801
0.720528244972229004 1.12342631816864014 0.313186824321746826
-5.43600368499755859 0.381097972393035889 0.463059484958648682
-5.42291498184204102 0.374815106391906738 0.449726492166519165
-1.08588755130767822 -0.785749673843383789 0.126243516802787781
-1.20912766456604004 0.506781697273254395 0.293222427368164062
-0.647969663143157959 1.15888798236846924 0.346486270427703857
0.77721858024597168 1.04430961608886719 0.355947315692901611
0.133397385478019714 -1.34950363636016846 0.096200115978717804
-3.90487980842590332 3.79993295669555664 0.100870117545127869
-1.11305320262908936 -0.791174829006195068 0.128341570496559143
2.48376703262329102 1.84803760051727295 0.126914739608764648
0.73985368013381958 1.14194560050964355 0.329593360424041748
1.22505271434783936 -0.568782150745391846 0.398203939199447632
0.149509727954864502 -1.33498895168304443 0.0768289193511009216
-3.90710067749023438 3.80043888092041016 0.104113414883613586
0.766856610774993896 1.12353050708770752 0.430608391761779785
0.697029411792755127 1.13724863529205322 0.329879313707351685
2.52046465873718262 -1.80827319622039795 0.23570588231086731
-3.93695402145385742 3.79953145980834961 0.107147052884101868
-1.23556947708129883 0.444746822118759155 0.296140104532241821
-3.09224796295166016 0.167875677347183228 0.416252046823501587
2.4905400276184082 1.8467642068862915 0.12244047224521637
-3.09057044982910156 0.185187116265296936 0.40380549430847168
-1.27574467658996582 -0.330636560916900635 0.344730377197265625
0.730993270874023438 1.12973928451538086 0.316940456628799438
0.134786993265151978 -1.32002127170562744 0.102440729737281799
-3.92305660247802734 3.7919166088104248 0.153546795248985291
1.21275031566619873 0.581236362457275391 0.484308928251266479
-2.53296470642089844 1.77257168292999268 0.091184668242931366
2.50808525085449219 -1.82968950271606445 0.235892906785011292
0.142037302255630493 -1.31444346904754639 0.0957025513052940369
1.19671618938446045 -0.574728727340698242 0.405809998512268066
-1.98777306079864502 -2.36316728591918945 0.432435393333435059
-2.53879094123840332 1.77338075637817383 0.0971261262893676758
-1.31277561187744141 -0.35166853666305542 0.357994824647903442
-1.08740115165710449 -0.789740145206451416 0.118704654276371002
1.19611632823944092 0.603839635848999023 0.452322244644165039
-1.98270714282989502 -2.35949397087097168 0.405730187892913818
1.22199273109436035 -0.561377465724945068 0.400206148624420166
-1.277121901512146 -0.374218940734863281 0.325044244527816772
-5.43916988372802734 0.370177567005157471 0.45139726996421814
-3.91661930084228516 3.79811716079711914 0.0989307910203933716
-5.00091886520385742 2.14620351791381836 0.082301698625087738
-4.98620748519897461 2.16014242172241211 0.067012980580329895
-2.53397321701049805 1.78451395034790039 0.0963332951068878174
-1.31033527851104736 -0.360790550708770752 0.339646011590957642
-0.646898388862609863 1.16179490089416504 0.32418486475944519
0.136377111077308655 -1.34760367870330811 0.0936770513653755188
-3.91616153717041016 3.79367828369140625 0.103444203734397888
-0.647405505180358887 1.15691745281219482 0.31318509578704834
-1.07689011096954346 -0.786463379859924316 0.122752495110034943
-1.27245903015136719 0.513447403907775879 0.265779346227645874
2.4630122184753418 1.8464282751083374 0.14728468656539917
0.150386050343513489 -1.32371973991394043 0.0972332581877708435
-1.28681325912475586 -0.342881709337234497 0.349075049161911011
-2.5275723934173584 1.78746664524078369 0.0964100807905197144
-3.07796359062194824 0.18011195957660675 0.414398342370986938
0.719246029853820801 1.13537454605102539 0.319565057754516602
-1.20958518981933594 0.557265043258666992 0.309938162565231323
-1.20422172546386719 0.534088730812072754 0.297029435634613037
2.52532196044921875 -1.82457208633422852 0.240750402212142944
-5.43562030792236328 0.369522631168365479 0.468534559011459351
2.52605104446411133 -1.82492053508758545 0.234660163521766663
-2.00200414657592773 -2.37539315223693848 0.411966502666473389
-1.28178584575653076 -0.342972546815872192 0.350469082593917847
0.127732634544372559 -1.32528424263000488 0.0962651073932647705
2.49262571334838867 1.85085177421569824 0.124722883105278015
1.19132518768310547 0.589231431484222412 0.454742491245269775
1.19288599491119385 0.609518051147460938 0.468441277742385864
1.18098819255828857 0.620869159698486328 0.462384015321731567
1.1817246675491333 0.615816473960876465 0.47068864107131958
-1.21524441242218018 0.499348074197769165 0.276804119348526001
-1.06881153583526611 -0.789325237274169922 0.125412538647651672
-5.01023149490356445 2.1481320858001709 0.0672672241926193237
2.52009320259094238 -1.81792247295379639 0.225803092122077942
-3.89774465560913086 3.79725480079650879 0.104194343090057373
-4.99140596389770508 2.13460493087768555 0.0647527426481246948
1.21224355697631836 -0.550293326377868652 0.405151009559631348
2.52162384986877441 -1.81193161010742188 0.239991307258605957
1.18151724338531494 0.604609906673431396 0.460957139730453491
0.126231685280799866 -1.35720789432525635 0.105327725410461426
1.17306303977966309 0.634242534637451172 0.454041510820388794
0.698299705982208252 1.1327134370803833 0.30766451358795166
-3.89460897445678711 3.79815220832824707 0.112780645489692688
-1.2151331901550293 0.510477781295776367 0.277931869029998779
-1.10136628150939941 -0.801990628242492676 0.115932360291481018
-1.06455481052398682 -0.784593582153320312 0.12309776246547699
-1.11598420143127441 -0.769401729106903076 0.18681664764881134
-0.647461831569671631 1.15103530883789062 0.333177715539932251
-1.29978287220001221 -0.349103748798370361 0.359444558620452881
-3.08629417419433594 0.17723141610622406 0.421216845512390137
-4.99154853820800781 2.16283941268920898 0.0737983286380767822
-4.98703289031982422 2.15461635589599609 0.0686054378747940063
1.17894697189331055 0.595826148986816406 0.42108464241027832
2.51781988143920898 -1.82596111297607422 0.236144989728927612
0.136663049459457397 -1.33447062969207764 0.0866783186793327332
-3.09336256980895996 0.185764983296394348 0.428954571485519409
-5.43235111236572266 0.370844990015029907 0.435009539127349854
-3.94863152503967285 3.79953169822692871 0.154055774211883545
-1.22179651260375977 0.512852072715759277 0.283079683780670166
-1.12611687183380127 -0.794056832790374756 0.141716465353965759
1.17261898517608643 0.612060070037841797 0.458367645740509033
-1.29297232627868652 -0.360777199268341064 0.344870507717132568
-1.29382443428039551 -0.341989755630493164 0.33706820011138916
-1.19650030136108398 0.50488436222076416 0.309003949165344238
0.741684019565582275 1.12578082084655762 0.332192540168762207
1.08731639385223389 0.827762007713317871 0.51155698299407959
-2.5344235897064209 1.76966369152069092 0.0857181400060653687
-1.21141910552978516 -0.347595572471618652 0.295375406742095947
1.20275521278381348 0.613581418991088867 0.414222925901412964
-1.97354483604431152 -2.3592984676361084 0.438675105571746826
-2.0087432861328125 -2.37837076187133789 0.403068363666534424
-5.01249837875366211 2.1452174186706543 0.0959879457950592041
-3.09704113006591797 0.178921625018119812 0.418504625558853149
-5.43068647384643555 0.374422907829284668 0.446555346250534058
-3.93873882293701172 3.80279827117919922 0.107328668236732483
-3.10673785209655762 0.181000709533691406 0.405185043811798096
0.14190007746219635 -1.3427354097366333 0.0948370695114135742
0.13298073410987854 -1.32238161563873291 0.112832024693489075
-2.53072857856750488 1.7775501012802124 0.0901868268847465515
-1.09654176235198975 -0.790226459503173828 0.127525478601455688
-2.52140498161315918 1.78525233268737793 0.0898897275328636169
-1.08122861385345459 -0.792475223541259766 0.118043258786201477
-1.21016049385070801 0.558571815490722656 0.306320548057556152
2.52447605133056641 -1.81995022296905518 0.249397337436676025
-2.5246424674987793 1.78073596954345703 0.0791229978203773499
1.20328974723815918 -0.562974750995635986 0.390739113092422485
1.18677771091461182 0.624675393104553223 0.470272302627563477
1.21508324146270752 -0.568392038345336914 0.407840311527252197
1.16672539710998535 0.628844618797302246 0.422192245721817017
1.16774237155914307 0.612544536590576172 0.484452694654464722
-1.24000608921051025 0.524524688720703125 0.292170405387878418
0.730853796005249023 1.12631022930145264 0.323021769523620605
0.146773993968963623 -1.3310084342956543 0.0797921046614646912
0.12930414080619812 -1.31096410751342773 0.107728868722915649
0.713407635688781738 1.11100339889526367 0.295651823282241821
-2.53283357620239258 1.7753899097442627 0.104578673839569092
-2.54445624351501465 1.77954185009002686 0.0946861505508422852
2.51819705963134766 -1.81237649917602539 0.245319753885269165
-4.98163509368896484 2.13360476493835449 0.0994592010974884033
-5.42978382110595703 0.37586522102355957 0.444821596145629883
-1.28811776638031006 -0.373979687690734863 0.3122100830078125
-3.91980957984924316 3.80813479423522949 0.111415982246398926
-3.89675116539001465 3.79297161102294922 0.102395787835121155
