ply
format ascii 1.0
element vertex 256
comment vertices
property float x
property float y
property float z
end_header
1.2296602725982666 -0.555754363536834717 0.38172188401222229
-5.01012516021728516 2.14651703834533691 0.0746073052287101746
-1.97888505458831787 -2.3649144172668457 0.390599727630615234
-2.53120517730712891 1.78388822078704834 0.0983471274375915527
2.49962019920349121 1.85665762424468994 0.132759526371955872
-3.90202903747558594 3.80194878578186035 0.102439329028129578
-5.43099308013916016 0.379202932119369507 0.437466681003570557
-1.27688884735107422 -0.33971676230430603 0.333296388387680054
2.52273988723754883 -1.82111358642578125 0.250402271747589111
0.722477138042449951 1.12868607044219971 0.299408853054046631
-3.08951640129089355 0.180799961090087891 0.405684709548950195
0.140249252319335938 -1.33200013637542725 0.110855787992477417
-0.64120030403137207 1.15112316608428955 0.325354456901550293
1.19348514080047607 0.608858585357666016 0.454073697328567505
-1.22421038150787354 0.512304186820983887 0.279653728008270264
-5.00165271759033203 2.14915156364440918 0.0642280504107475281
-1.98598301410675049 -2.36491703987121582 0.375779211521148682
-5.42653512954711914 0.378948450088500977 0.445109307765960693
-0.638707101345062256 1.15185534954071045 0.321058154106140137
-2.53792619705200195 1.7864454984664917 0.102824121713638306
2.52282023429870605 -1.82122313976287842 0.243392586708068848
-3.91406798362731934 3.80185437202453613 0.0973562747240066528
2.48687863349914551 1.8534090518951416 0.129197448492050171
0.141628220677375793 -1.32989001274108887 0.103577032685279846
1.19503319263458252 0.612668931484222412 0.449884355068206787
-3.08997035026550293 0.182771414518356323 0.420098662376403809
1.19381463527679443 0.603604733943939209 0.466246634721755981
-1.22603785991668701 0.514108598232269287 0.28045693039894104
-2.54178094863891602 1.78561305999755859 0.104502037167549133
0.137481093406677246 -1.33177924156188965 0.113901883363723755
-1.06860458850860596 -0.792714178562164307 0.117041066288948059
-1.293876051902771 -0.345740586519241333 0.331308871507644653
-2.5297393798828125 1.7824099063873291 0.0946385860443115234
0.720417380332946777 1.12937450408935547 0.310369342565536499
-1.27391314506530762 -0.340396136045455933 0.342363357543945312
-5.00510549545288086 2.14755582809448242 0.0715329200029373169
-5.00501871109008789 2.14946317672729492 0.0679729878902435303
-1.08519339561462402 -0.789983749389648438 0.113543123006820679
1.19364011287689209 0.609302282333374023 0.456866592168807983
-3.08851170539855957 0.178903535008430481 0.405688166618347168
-1.22158098220825195 0.508882582187652588 0.267004847526550293
0.142122507095336914 -1.32648563385009766 0.102271571755409241
1.21755671501159668 -0.560166835784912109 0.389321953058242798
-1.22219538688659668 0.518279790878295898 0.284011542797088623
-5.42812919616699219 0.379307717084884644 0.442837834358215332
-2.54150915145874023 1.78606879711151123 0.100472234189510345
2.52263021469116211 -1.82077872753143311 0.243130967020988464
-3.08767056465148926 0.182684347033500671 0.411735385656356812
-1.99093532562255859 -2.36261844635009766 0.377120375633239746
0.720386385917663574 1.1294323205947876 0.317096829414367676
-3.91057062149047852 3.80248665809631348 0.0911346897482872009
0.137483566999435425 -1.32916414737701416 0.108232051134109497
-3.09099268913269043 0.178749382495880127 0.400561928749084473
-0.642289876937866211 1.15434300899505615 0.315316498279571533
2.48491358757019043 1.85420083999633789 0.129701301455497742
-5.43022775650024414 0.380081802606582642 0.44216454029083252
-1.28803443908691406 -0.347749888896942139 0.326230019330978394
-1.27596867084503174 -0.346273094415664673 0.323267251253128052
0.715630710124969482 1.12918198108673096 0.314546555280685425
1.23101627826690674 -0.557900607585906982 0.381510168313980103
1.19172942638397217 0.609810948371887207 0.460998386144638062
-1.22271609306335449 0.512421727180480957 0.283231019973754883
-1.08231067657470703 -0.801272869110107422 0.117302924394607544
2.52118754386901855 -1.81852936744689941 0.245230630040168762
-1.22571086883544922 0.512795984745025635 0.277498185634613037
0.727431416511535645 1.1297832727432251 0.314035147428512573
0.136449053883552551 -1.33163833618164062 0.11016923189163208
0.138000607490539551 -1.33067166805267334 0.108460366725921631
-5.42994260787963867 0.379714906215667725 0.43731921911239624
1.19323241710662842 0.597157895565032959 0.471851199865341187
-5.0063471794128418 2.14963746070861816 0.068411022424697876
-1.22302889823913574 0.513598263263702393 0.282537251710891724
-1.27794182300567627 -0.341087251901626587 0.350528925657272339
-1.21916472911834717 0.506685912609100342 0.274606525897979736
-3.90969324111938477 3.80355334281921387 0.096509888768196106
-5.42496728897094727 0.379992365837097168 0.440426796674728394
2.4969329833984375 1.85399949550628662 0.128293693065643311
-3.08566713333129883 0.180818647146224976 0.401538282632827759
1.19992673397064209 0.608773708343505859 0.457401394844055176
1.19068443775177002 0.610449016094207764 0.465028047561645508
-2.53460001945495605 1.78237748146057129 0.100845471024513245
-1.97538697719573975 -2.36625385284423828 0.374966174364089966
-2.53863191604614258 1.78797292709350586 0.0996576249599456787
-1.98747193813323975 -2.36529350280761719 0.373778849840164185
-3.08946323394775391 0.181451708078384399 0.414785325527191162
-1.28695487976074219 -0.343444913625717163 0.335921883583068848
-1.07463395595550537 -0.791811227798461914 0.120952710509300232
1.19010412693023682 0.611819148063659668 0.462857216596603394
2.52419757843017578 -1.82149267196655273 0.244667768478393555
-3.08275413513183594 0.183143123984336853 0.403417080640792847
2.5217442512512207 -1.82020699977874756 0.245942443609237671
-3.09184074401855469 0.182076632976531982 0.416968673467636108
-2.53577280044555664 1.78339254856109619 0.103478878736495972
-1.28225493431091309 -0.349680453538894653 0.324669003486633301
0.718627810478210449 1.12844288349151611 0.303285300731658936
-3.90724349021911621 3.80212593078613281 0.102729141712188721
1.22507297992706299 -0.554425597190856934 0.386222124099731445
-5.00196695327758789 2.15031147003173828 0.0659762844443321228
1.19475674629211426 0.603860616683959961 0.464042693376541138
2.52234411239624023 -1.81994426250457764 0.24417741596698761
-2.5375053882598877 1.78561782836914062 0.0977968573570251465
-5.42777633666992188 0.380243837833404541 0.439278542995452881
-5.01079368591308594 2.15053963661193848 0.0733326375484466553
0.714444279670715332 1.12829446792602539 0.310636758804321289
1.22327327728271484 -0.555501103401184082 0.388281881809234619
2.52184629440307617 -1.81997919082641602 0.251772850751876831
1.22672593593597412 -0.554103374481201172 0.377372473478317261
-5.43111658096313477 0.380000948905944824 0.441924571990966797
-5.00935649871826172 2.14597511291503906 0.0751893669366836548
0.133523643016815186 -1.33007383346557617 0.115194618701934814
1.22702503204345703 -0.555505931377410889 0.389055371284484863
-1.22439467906951904 0.516259610652923584 0.28224751353263855
0.72259986400604248 1.12880182266235352 0.304315268993377686
-5.42917537689208984 0.379940003156661987 0.445068031549453735
-5.42437887191772461 0.380328118801116943 0.437694966793060303
-1.08097922801971436 -0.79216766357421875 0.117367491126060486
-1.22324466705322266 0.512140750885009766 0.280084609985351562
-0.637648344039916992 1.15445101261138916 0.33184504508972168
0.722406685352325439 1.14851224422454834 0.309432685375213623
0.141433358192443848 -1.33239841461181641 0.108936131000518799
-3.90494632720947266 3.80195069313049316 0.0944884344935417175
-1.09259188175201416 -0.794137775897979736 0.118789032101631165
2.49636316299438477 1.85207641124725342 0.119752392172813416
0.727310121059417725 1.12963259220123291 0.309718549251556396
1.23333656787872314 -0.560092508792877197 0.384959667921066284
0.145630419254302979 -1.32867801189422607 0.101684741675853729
-3.90581488609313965 3.80250120162963867 0.0961887165904045105
0.712038993835449219 1.11873733997344971 0.323766589164733887
0.712781667709350586 1.12899923324584961 0.313916027545928955
2.52229452133178711 -1.82016980648040771 0.245945736765861511
-3.91892242431640625 3.80370450019836426 0.0973104014992713928
-1.22059750556945801 0.508390605449676514 0.271279096603393555
-3.08946561813354492 0.178540751338005066 0.404219120740890503
2.4981849193572998 1.85137128829956055 0.116987563669681549
-3.08769559860229492 0.181262418627738953 0.398445367813110352
-1.27823662757873535 -0.338291317224502563 0.335550457239151001
0.726700425148010254 1.12883496284484863 0.304976612329483032
0.135671794414520264 -1.32889747619628906 0.112413257360458374
-3.91326999664306641 3.80070734024047852 0.0970984175801277161
1.19341707229614258 0.602121233940124512 0.466863512992858887
-2.53418660163879395 1.78324043750762939 0.0999527499079704285
2.5192101001739502 -1.81748473644256592 0.244045615196228027
0.137630090117454529 -1.32827138900756836 0.108956709504127502
1.22529387474060059 -0.559842407703399658 0.388026565313339233
-1.97997009754180908 -2.36525964736938477 0.382838129997253418
-2.53833293914794922 1.78491854667663574 0.102750994265079498
-1.29466390609741211 -0.345975756645202637 0.337468415498733521
-1.08134865760803223 -0.792675554752349854 0.113764554262161255
1.19387531280517578 0.606644809246063232 0.453305840492248535
-1.98156070709228516 -2.36736416816711426 0.378485053777694702
1.22991108894348145 -0.558091521263122559 0.38458406925201416
-1.27852046489715576 -0.347919642925262451 0.325711697340011597
-5.4313197135925293 0.379391968250274658 0.441229820251464844
-3.91061115264892578 3.80214428901672363 0.0931120142340660095
-5.00648927688598633 2.14915108680725098 0.0725813433527946472
-5.00281953811645508 2.15059947967529297 0.0650752633810043335
-2.5389564037322998 1.78713119029998779 0.101563766598701477
-1.29328405857086182 -0.346844702959060669 0.329828947782516479
-0.63945460319519043 1.15503168106079102 0.318669885396957397
0.142587125301361084 -1.33210527896881104 0.108123853802680969
-3.91074776649475098 3.8005678653717041 0.0951575636863708496
-0.640489578247070312 1.15337693691253662 0.311884194612503052
-1.07677376270294189 -0.792187273502349854 0.115479379892349243
-1.225990891456604 0.511783719062805176 0.266199320554733276
2.48770761489868164 1.85312843322753906 0.12907835841178894
0.141004100441932678 -1.32859766483306885 0.107720762491226196
-1.28358936309814453 -0.342141568660736084 0.33513486385345459
-2.5356440544128418 1.78649413585662842 0.100816786289215088
-3.08285093307495117 0.18211875855922699 0.400629341602325439
0.722183465957641602 1.12903189659118652 0.306968510150909424
-1.2183527946472168 0.520360648632049561 0.280825883150100708
-1.2222592830657959 0.519452989101409912 0.280683040618896484
2.52346467971801758 -1.82143068313598633 0.246830016374588013
-5.43087863922119141 0.378751248121261597 0.447245687246322632
2.5239415168762207 -1.82162511348724365 0.244105428457260132
-1.98857665061950684 -2.36576509475708008 0.372485995292663574
-1.28152430057525635 -0.341790199279785156 0.336135923862457275
0.135791733860969543 -1.33001410961151123 0.111393533647060394
2.49821019172668457 1.85201907157897949 0.119435772299766541
1.19703376293182373 0.602415025234222412 0.455594927072525024
1.19432449340820312 0.608307003974914551 0.460959672927856445
1.19251143932342529 0.61246180534362793 0.460195809602737427
1.1933368444442749 0.611597180366516113 0.463165521621704102
-1.22292137145996094 0.510690271854400635 0.271840184926986694
-1.07299447059631348 -0.793339431285858154 0.116779617965221405
-5.01147079467773438 2.15191888809204102 0.0672124698758125305
2.52297139167785645 -1.82140254974365234 0.240205541253089905
-3.90175890922546387 3.80073046684265137 0.0960149466991424561
-5.00501680374145508 2.15072107315063477 0.0654053837060928345
1.22432124614715576 -0.554134666919708252 0.386480003595352173
2.52254366874694824 -1.82067787647247314 0.247675657272338867
1.19402039051055908 0.60825425386428833 0.459011644124984741
0.138736307621002197 -1.33433079719543457 0.111872762441635132
1.18981754779815674 0.616359293460845947 0.459265321493148804
0.714256107807159424 1.12780606746673584 0.303320944309234619
-3.90001368522644043 3.80114579200744629 0.100408144295215607
-1.22406923770904541 0.51079714298248291 0.27227330207824707
-1.08795762062072754 -0.797661721706390381 0.112514957785606384
-1.07076370716094971 -0.791798412799835205 0.115297630429267883
-1.09047400951385498 -0.791001677513122559 0.102749012410640717
-0.638877749443054199 1.15136504173278809 0.323755830526351929
-1.28928709030151367 -0.344195306301116943 0.338349580764770508
-3.08651280403137207 0.181522414088249207 0.404947489500045776
-5.00534439086914062 2.15131807327270508 0.0659002065658569336
-5.0022578239440918 2.14990401268005371 0.066157117486000061
1.19560444355010986 0.604621350765228271 0.458943575620651245
2.52254772186279297 -1.81978797912597656 0.244542688131332397
0.140112131834030151 -1.33028733730316162 0.105919718742370605
-3.09046196937561035 0.183144137263298035 0.409024059772491455
-5.42870426177978516 0.380108147859573364 0.433842658996582031
-3.91363024711608887 3.80686044692993164 0.0951508805155754089
-1.22469377517700195 0.511337637901306152 0.274910449981689453
-1.08812713623046875 -0.793174207210540771 0.11512438952922821
1.18984472751617432 0.610838592052459717 0.459326565265655518
-1.2864300012588501 -0.345565378665924072 0.332361131906509399
-1.28651118278503418 -0.341950178146362305 0.330782026052474976
-1.22215104103088379 0.513608992099761963 0.284850209951400757
0.731109678745269775 1.12697255611419678 0.312137216329574585
1.16884326934814453 0.573487401008605957 0.500594496726989746
-2.53393077850341797 1.78297543525695801 0.099169708788394928
-1.28606009483337402 -0.337739527225494385 0.314622282981872559
1.19098401069641113 0.608140647411346436 0.448455780744552612
-1.97538554668426514 -2.36826157569885254 0.389772415161132812
-1.99394690990447998 -2.36667919158935547 0.368867695331573486
-5.01049184799194336 2.14688801765441895 0.0757882297039031982
-3.09162211418151855 0.180065155029296875 0.40528598427772522
-5.42739200592041016 0.380261152982711792 0.437493324279785156
-3.91899323463439941 3.80509352684020996 0.0972074121236801147
-3.09703683853149414 0.181904256343841553 0.401050865650177002
0.143479853868484497 -1.33189237117767334 0.107801765203475952
0.133855849504470825 -1.32832872867584229 0.116212464869022369
-2.53431463241577148 1.78416883945465088 0.0992199406027793884
-1.0860903263092041 -0.793623208999633789 0.118429660797119141
-2.53066253662109375 1.7844841480255127 0.0978597104549407959
-1.07852339744567871 -0.793493330478668213 0.113446936011314392
-1.2184598445892334 0.520181238651275635 0.279508739709854126
2.52263283729553223 -1.82098257541656494 0.251235157251358032
-2.53129267692565918 1.7843012809753418 0.0956296399235725403
1.22656822204589844 -0.553998768329620361 0.380833745002746582
1.1936333179473877 0.61204993724822998 0.462144792079925537
1.23109734058380127 -0.557699203491210938 0.38831639289855957
1.19265913963317871 0.614786326885223389 0.457733094692230225
1.18726730346679688 0.611532330513000488 0.470369786024093628
-1.22506594657897949 0.512282192707061768 0.279006898403167725
0.726471662521362305 1.12907576560974121 0.307888686656951904
0.143331408500671387 -1.32880890369415283 0.102917209267616272
0.132907450199127197 -1.32775402069091797 0.115676306188106537
0.719779729843139648 1.12938988208770752 0.298048853874206543
-2.53533196449279785 1.78434491157531738 0.104626134037971497
-2.54240775108337402 1.78657591342926025 0.102698281407356262
2.52147102355957031 -1.81991243362426758 0.249925822019577026
-5.00514125823974609 2.14502692222595215 0.0716902762651443481
-5.4268794059753418 0.380579859018325806 0.436506062746047974
-1.28181076049804688 -0.349844485521316528 0.320793032646179199
-3.91105556488037109 3.80650925636291504 0.100061178207397461
-3.90172386169433594 3.79908442497253418 0.0947382897138595581
