ply
format ascii 1.0
element vertex 256
comment vertices
property float x
property float y
property float z
end_header
-1.31944727897644043 0.0662968680262565613 0.0538705736398696899
2.00573897361755371 2.32624554634094238 0.350355088710784912
0.428180783987045288 -3.08153533935546875 0.126767933368682861
-1.92743372917175293 2.42124366760253906 0.0497478283941745758
-2.51882457733154297 -1.7804114818572998 0.442969322204589844
-3.08561611175537109 0.322279274463653564 0.46480029821395874
0.807812035083770752 1.04082906246185303 0.357387244701385498
0.392484724521636963 -1.27000391483306885 0.0490725412964820862
-1.67261159420013428 -2.6104893684387207 0.116379499435424805
-0.375273048877716064 1.24435591697692871 0.416756749153137207
-0.861418604850769043 -1.02867817878723145 0.103536859154701233
-2.85652422904968262 -1.21881937980651855 0.0503348559141159058
0.458138585090637207 1.25006937980651855 0.104949787259101868
-3.09663534164428711 -0.0424326881766319275 0.186532214283943176
-1.29211080074310303 -0.454144328832626343 0.394587188959121704
-2.52345705032348633 -1.65655648708343506 0.44181370735168457
2.03131294250488281 2.31759953498840332 0.356327414512634277
-1.67719602584838867 -2.61670374870300293 0.122907876968383789
0.387952148914337158 -3.07184624671936035 0.135812222957611084
-0.792316555976867676 1.04303586483001709 0.431275993585586548
-3.12083792686462402 -0.0339409485459327698 0.195063665509223938
0.473699569702148438 1.22446942329406738 0.133951768279075623
-0.808858871459960938 1.03754115104675293 0.462559103965759277
0.847551047801971436 1.05027592182159424 0.340224921703338623
-1.29015779495239258 -0.434180736541748047 0.444178104400634766
-2.83310770988464355 -1.24544298648834229 0.0512727946043014526
-1.9246833324432373 2.40637087821960449 0.0451975427567958832
-3.06335258483886719 0.325890660285949707 0.402126729488372803
-1.94412970542907715 2.41606450080871582 0.047558467835187912
-0.346599400043487549 1.28345966339111328 0.417551904916763306
-1.33621478080749512 0.0541235804557800293 0.0613187626004219055
-2.50790166854858398 -1.81151580810546875 0.418979078531265259
-0.871201634407043457 -1.03139853477478027 0.103707954287528992
2.03226423263549805 2.32014179229736328 0.353013694286346436
0.462276875972747803 1.2467879056930542 0.135083287954330444
-2.85153484344482422 -1.22336149215698242 0.0603374987840652466
-0.819341301918029785 1.04390072822570801 0.451031714677810669
-2.53573012351989746 -1.78083944320678711 0.427496135234832764
0.402419447898864746 -1.27542257308959961 0.0541499853134155273
0.814483880996704102 1.04532337188720703 0.329136490821838379
-0.407824218273162842 1.2747948169708252 0.412867724895477295
0.408083856105804443 -3.0675194263458252 0.134503141045570374
-1.29082024097442627 -0.438316076993942261 0.432523131370544434
-3.1200706958770752 -0.0461103133857250214 0.192471936345100403
-0.852607011795043945 -1.02229201793670654 0.115470990538597107
0.460102647542953491 1.23849320411682129 0.118730559945106506
0.410951077938079834 -1.28397846221923828 0.0422246791422367096
-0.794872403144836426 1.04039835929870605 0.459502905607223511
0.41923290491104126 -3.09301328659057617 0.136601373553276062
-1.66452205181121826 -2.60806012153625488 0.118961125612258911
-1.28006911277770996 -0.456152766942977905 0.423274517059326172
0.456548005342483521 1.23416852951049805 0.117499984800815582
-2.86766552925109863 -1.22362911701202393 0.0605370253324508667
0.399717509746551514 -1.27046680450439453 0.0434356145560741425
-3.11014986038208008 0.279245257377624512 0.40057528018951416
-0.820006132125854492 1.0360569953918457 0.451682537794113159
-2.54454517364501953 -1.9534982442855835 0.448574423789978027
-0.849526464939117432 -1.01415109634399414 0.10757947713136673
-2.47293710708618164 -1.72639071941375732 0.385883301496505737
-2.53461217880249023 -1.78015196323394775 0.440233230590820312
2.0314476490020752 2.32751035690307617 0.344485759735107422
-1.33069443702697754 0.0648730099201202393 0.0590704008936882019
-3.07657718658447266 0.324327349662780762 0.449234306812286377
0.425206273794174194 -3.0813748836517334 0.138814225792884827
-1.92320549488067627 2.41798663139343262 0.0518018640577793121
-1.32161200046539307 0.0656647682189941406 0.0549976378679275513
-0.362611174583435059 1.27966690063476562 0.389567255973815918
-2.52983403205871582 -1.77878117561340332 0.431747198104858398
-1.25958740711212158 -0.439799636602401733 0.386682808399200439
-3.07017612457275391 0.292237222194671631 0.358537673950195312
-0.817026078701019287 1.03598380088806152 0.464223027229309082
-0.789297223091125488 1.03034114837646484 0.478996545076370239
-0.857648015022277832 -1.03642916679382324 0.10525435209274292
-2.86487698554992676 -1.22364401817321777 0.0583650097250938416
-1.92519056797027588 2.41652178764343262 0.0471671447157859802
0.406227171421051025 -3.07728791236877441 0.139930397272109985
-0.353293031454086304 1.28531777858734131 0.422608673572540283
-0.868884801864624023 1.02109551429748535 0.421160787343978882
-0.850436210632324219 -1.0231478214263916 0.116591207683086395
0.452695786952972412 1.2430649995803833 0.129409462213516235
0.404902935028076172 -3.08829569816589355 0.138424009084701538
-0.793121814727783203 1.04143929481506348 0.443699240684509277
-3.09371662139892578 -0.043376632034778595 0.194335460662841797
-0.383150786161422729 1.25255334377288818 0.376921862363815308
2.0465092658996582 2.32309937477111816 0.35703614354133606
-3.0780789852142334 -0.0278877373784780502 0.19068482518196106
0.412909328937530518 -3.07735133171081543 0.129206672310829163
0.829014837741851807 1.05361032485961914 0.311574637889862061
-1.67580652236938477 -2.61527395248413086 0.131844460964202881
2.02114701271057129 2.320037841796875 0.349126487970352173
0.39554983377456665 -1.26867103576660156 0.0521158576011657715
-2.54347705841064453 -1.77696788311004639 0.442987710237503052
-0.831411123275756836 1.04362332820892334 0.449424415826797485
-3.06533217430114746 0.308184683322906494 0.37006610631942749
-3.09235954284667969 0.326816916465759277 0.395382851362228394
0.454491853713989258 1.25181078910827637 0.130310133099555969
0.803357422351837158 1.04931926727294922 0.325303405523300171
0.463877677917480469 1.24988365173339844 0.109913460910320282
-2.54129815101623535 -1.77350282669067383 0.442215085029602051
-0.854998171329498291 -1.02269113063812256 0.106305442750453949
0.449859201908111572 1.2165379524230957 0.133202627301216125
0.423144996166229248 -3.08666753768920898 0.134118974208831787
-3.07749319076538086 0.315670311450958252 0.382894694805145264
-1.26941525936126709 -0.449734777212142944 0.433777660131454468
-3.03626632690429688 0.333154827356338501 0.405947625637054443
0.412192463874816895 -3.06602859497070312 0.142649143934249878
-1.27046215534210205 -0.446643263101577759 0.432841002941131592
0.81780540943145752 1.05725014209747314 0.373114973306655884
0.462163686752319336 1.22260701656341553 0.116948910057544708
-1.3268965482711792 0.0785633102059364319 0.0606229081749916077
-0.371333599090576172 1.26023304462432861 0.398932278156280518
-3.05988049507141113 0.318678379058837891 0.437858134508132935
-3.07962942123413086 0.320968210697174072 0.443833857774734497
-3.11495423316955566 -0.0591834746301174164 0.192954063415527344
-0.81171107292175293 1.0411231517791748 0.459313511848449707
-0.860101461410522461 -1.02219069004058838 0.110405892133712769
-0.783629894256591797 1.04047560691833496 0.455787211656570435
0.397573262453079224 -1.27931249141693115 0.0518921464681625366
-0.324507534503936768 1.28563213348388672 0.465421736240386963
-3.10101985931396484 -0.0321401730179786682 0.186615899205207825
0.443657398223876953 1.24207842350006104 0.10849335789680481
-0.847636282444000244 -1.02486133575439453 0.104127213358879089
0.420278400182723999 1.25393068790435791 0.113506093621253967
-2.85829305648803711 -1.21653294563293457 0.054471924901008606
-2.8491063117980957 -1.22445666790008545 0.0506321415305137634
-1.68267488479614258 -2.61031198501586914 0.0895627140998840332
0.4300709068775177 -3.07872223854064941 0.133732497692108154
-1.29024577140808105 -0.449477016925811768 0.412091940641403198
0.415981143712997437 -3.07402396202087402 0.132890522480010986
-0.859121799468994141 -1.03416109085083008 0.0983184650540351868
0.400318145751953125 -1.26667773723602295 0.0446239784359931946
-0.860299587249755859 -1.02157068252563477 0.107080355286598206
-3.08235573768615723 0.330223768949508667 0.45633968710899353
-0.808687567710876465 1.03934061527252197 0.467449724674224854
0.413920044898986816 -3.07473039627075195 0.128391444683074951
-0.795901834964752197 1.03109633922576904 0.448041915893554688
0.451765328645706177 1.24502480030059814 0.120885893702507019
0.427209526300430298 -3.08523440361022949 0.134405583143234253
0.402120918035507202 -1.26354718208312988 0.0456229709088802338
-3.05285167694091797 0.294619619846343994 0.410457044839859009
-0.373999893665313721 1.27399039268493652 0.402179181575775146
-0.377232015132904053 1.29220008850097656 0.381574481725692749
-1.6681901216506958 -2.61332583427429199 0.121920868754386902
-3.08602046966552734 -0.0416726768016815186 0.190643906593322754
0.398086309432983398 -3.08630943298339844 0.1302691251039505
-1.2840731143951416 -0.445638477802276611 0.434680432081222534
-3.09404826164245605 -0.0295264497399330139 0.200966939330101013
2.03247380256652832 2.32686781883239746 0.348513424396514893
-1.26967251300811768 -0.428294897079467773 0.371843665838241577
-2.52835655212402344 -1.75170016288757324 0.424691975116729736
-1.26575028896331787 -0.437229931354522705 0.379485279321670532
0.394371390342712402 -1.27596807479858398 0.0521331951022148132
2.04573702812194824 2.32392311096191406 0.358454257249832153
-1.31850636005401611 0.0611761882901191711 0.0570513643324375153
-1.93250799179077148 2.41413164138793945 0.0457893908023834229
0.407571315765380859 -3.06620407104492188 0.137209117412567139
-0.817464053630828857 1.03528344631195068 0.454155296087265015
-1.33074653148651123 0.0652109161019325256 0.0576533228158950806
-2.54189324378967285 -1.77566730976104736 0.447330355644226074
0.402779877185821533 -1.27495360374450684 0.0519255883991718292
-1.92504072189331055 2.42434406280517578 0.0472695305943489075
-0.850977718830108643 -1.02495169639587402 0.109480500221252441
-2.52967405319213867 -1.79034137725830078 0.432442039251327515
-1.66631019115447998 -2.6031184196472168 0.122888281941413879
-0.511715352535247803 1.22185325622558594 0.381437718868255615
-2.52762579917907715 -1.77128779888153076 0.432874441146850586
-3.10465717315673828 -0.0374937206506729126 0.192771121859550476
-0.800223410129547119 1.0307382345199585 0.476673126220703125
-0.374424338340759277 1.30393755435943604 0.4500235915184021
-2.51913309097290039 -1.764129638671875 0.440590262413024902
0.475044041872024536 1.24221551418304443 0.128503888845443726
-1.92737364768981934 2.41815662384033203 0.047024603933095932
0.402481824159622192 -3.07992124557495117 0.145999953150749207
0.419812411069869995 -3.07847309112548828 0.138743937015533447
-1.67645633220672607 -2.60863685607910156 0.118627786636352539
0.819137513637542725 1.05044114589691162 0.343606293201446533
-0.854196727275848389 -1.02325606346130371 0.103061243891716003
-0.812373161315917969 1.04195570945739746 0.454041361808776855
-0.36431160569190979 1.29168605804443359 0.39791637659072876
-2.86560297012329102 -1.22048592567443848 0.0599048063158988953
0.405132293701171875 -3.09395027160644531 0.131173685193061829
-3.07926344871520996 0.320069074630737305 0.430341273546218872
0.407347649335861206 -3.08222246170043945 0.131725907325744629
-2.53219318389892578 -1.78645944595336914 0.439542680978775024
-0.853171110153198242 -1.01936078071594238 0.108392439782619476
-0.848917365074157715 -1.02381455898284912 0.115250945091247559
0.414991945028305054 -3.07943964004516602 0.131951361894607544
-3.06157946586608887 0.323915541172027588 0.436196565628051758
-3.06162881851196289 0.304222345352172852 0.368471026420593262
-2.53244185447692871 -1.77336704730987549 0.436669826507568359
-2.86191010475158691 -1.22296583652496338 0.0562377646565437317
-0.807930231094360352 1.03887128829956055 0.483368486166000366
-3.11695289611816406 -0.0440970063209533691 0.201651006937026978
-3.08277297019958496 0.315157532691955566 0.414888948202133179
-0.83296668529510498 1.04263591766357422 0.443387776613235474
0.409188628196716309 -3.06892585754394531 0.141202569007873535
-1.27290916442871094 -0.442608535289764404 0.425735175609588623
2.03501725196838379 2.32082748413085938 0.362425386905670166
-1.66722023487091064 -2.61128067970275879 0.12450234591960907
0.445762276649475098 1.23688578605651855 0.121300600469112396
0.467833876609802246 1.23178231716156006 0.10920386016368866
-0.389241278171539307 1.22466874122619629 0.362525641918182373
0.433749735355377197 -3.07030057907104492 0.132353156805038452
0.449799120426177979 1.25614380836486816 0.110898777842521667
-1.31924080848693848 0.0577339157462120056 0.0630146041512489319
-3.0832526683807373 -0.0178709030151367188 0.188642263412475586
-1.92060208320617676 2.40955352783203125 0.0457575321197509766
-2.54090428352355957 -1.78333187103271484 0.44652557373046875
-1.92421460151672363 2.41470766067504883 0.0485691241919994354
-2.54060506820678711 -1.77489817142486572 0.444101303815841675
0.811430215835571289 1.04679334163665771 0.333232760429382324
-0.387358248233795166 1.27055668830871582 0.3893280029296875
0.458544075489044189 1.26301121711730957 0.132920786738395691
-3.0610191822052002 0.321470737457275391 0.447624087333679199
-1.27081537246704102 -0.447249352931976318 0.431364208459854126
0.456340610980987549 1.25006544589996338 0.135093942284584045
0.453535318374633789 1.23594474792480469 0.132010132074356079
-1.33141613006591797 0.0687855333089828491 0.0635313093662261963
-0.829422652721405029 1.05247104167938232 0.462736785411834717
0.40788578987121582 -3.08707809448242188 0.137013167142868042
-3.07652831077575684 0.324530124664306641 0.395957201719284058
-0.857779026031494141 -1.03183233737945557 0.109308421611785889
0.506109893321990967 1.20186948776245117 0.124589800834655762
-1.28106045722961426 -0.45689922571182251 0.414065420627593994
-0.850087881088256836 -1.02687585353851318 0.105421125888824463
-0.847039580345153809 -1.02047538757324219 0.109421193599700928
-0.367994457483291626 1.27338933944702148 0.401417464017868042
2.04516410827636719 2.32119107246398926 0.350347459316253662
0.401493966579437256 -3.07343840599060059 0.133519232273101807
-3.11223387718200684 -0.0413523018360137939 0.189402073621749878
0.439144343137741089 -3.0775599479675293 0.130139678716659546
0.462959140539169312 1.2476884126663208 0.126200661063194275
-3.08549618721008301 -0.0424435101449489594 0.18517264723777771
0.451905488967895508 1.24248349666595459 0.118230678141117096
0.394660264253616333 -1.26301491260528564 0.0547555424273014069
-0.844381928443908691 -1.02828848361968994 0.104909032583236694
0.457456409931182861 1.24179649353027344 0.125797703862190247
2.03398227691650391 2.32778286933898926 0.352589190006256104
-0.809343159198760986 1.03777956962585449 0.464806556701660156
-0.352762162685394287 1.27249741554260254 0.464140594005584717
0.812498211860656738 1.04909169673919678 0.309905916452407837
-0.80396878719329834 1.03807330131530762 0.47334936261177063
0.812490344047546387 1.05638623237609863 0.359660685062408447
0.419858872890472412 -3.07455348968505859 0.126248955726623535
-0.845515012741088867 -1.01933741569519043 0.108193665742874146
-1.25754463672637939 -0.450596213340759277 0.415251463651657104
-0.848578095436096191 -1.02483224868774414 0.106615245342254639
-2.53582358360290527 -1.78399324417114258 0.441682130098342896
-0.813973426818847656 1.04358625411987305 0.452918827533721924
-0.849779248237609863 -1.02122306823730469 0.119334474205970764
0.421380937099456787 -3.07991528511047363 0.130035385489463806
-0.334122598171234131 1.27459061145782471 0.417101740837097168
-1.66955602169036865 -2.60886883735656738 0.115579709410667419
-0.81125330924987793 1.04606473445892334 0.456878572702407837
-3.11053347587585449 -0.0497741773724555969 0.188795626163482666
-1.32422566413879395 0.0562157221138477325 0.0555987544357776642
