ply
format ascii 1.0
element vertex 32
comment vertices
property float x
property float y
property float z
end_header
0.0433672070503234863 1.90970659255981445 -0.775861680507659912
-4.22142744064331055 6.22777175903320312 -3.67878270149230957
-0.780866324901580811 4.22842168807983398 -3.98047089576721191
-3.69762730598449707 2.88538289070129395 -1.68670248985290527
-0.953396618366241455 5.13991785049438477 -0.685447931289672852
2.34965085983276367 0.96511077880859375 -0.219752117991447449
-3.93840193748474121 3.59230852127075195 -4.05267572402954102
-2.0655512809753418 6.37624311447143555 -2.51175689697265625
-2.59972190856933594 5.28144168853759766 -5.22967147827148438
-1.67905688285827637 2.03116631507873535 -2.61698794364929199
-2.435089111328125 1.7157520055770874 -0.161649525165557861
-2.39211058616638184 4.38400030136108398 -2.15412306785583496
-2.18069863319396973 3.12251377105712891 -4.69443130493164062
-0.823807418346405029 3.43704557418823242 -1.59648942947387695
-3.02041196823120117 4.98015165328979492 -3.56702995300292969
-2.17544746398925781 3.207366943359375 -0.700996339321136475
-3.59215927124023438 6.05061101913452148 -2.22342491149902344
-4.12997198104858398 4.07541561126708984 -2.58868312835693359
-2.82262158393859863 3.07124590873718262 -3.1304326057434082
0.636698365211486816 2.31012773513793945 -2.11890172958374023
-0.891758859157562256 4.78398799896240234 -2.19043231010437012
0.987412095069885254 1.18816137313842773 0.29296720027923584
0.897572696208953857 0.805375218391418457 -1.12175452709197998
-0.731533288955688477 3.17840385437011719 -3.03937172889709473
-0.899126589298248291 1.22974491119384766 -1.36646080017089844
-2.2145848274230957 2.08996009826660156 -1.4378281831741333
-1.98659825325012207 4.40991497039794922 -4.49708747863769531
0.292211949825286865 3.0632781982421875 -1.11346602439880371
-2.09105014801025391 5.56252479553222656 -0.762441456317901611
-0.567507505416870117 2.28333163261413574 -2.00237250328063965
-1.771820068359375 4.93408012390136719 -3.01839637756347656
-1.83369302749633789 3.6497647762298584 -3.42803573608398438
