ply
format ascii 1.0
element vertex 32
comment vertices
property float x
property float y
property float z
end_header
-0.483342349529266357 2.80500602722167969 -2.45841383934020996
-3.64099836349487305 6.09977817535400391 -2.5828711986541748
1.23550677299499512 6.52216815948486328 -3.66633772850036621
-1.19458460807800293 3.71850204467773438 -5.2407374382019043
2.41635346412658691 2.78580689430236816 -2.66056585311889648
-0.870731711387634277 5.50301790237426758 -2.19578194618225098
2.16321301460266113 4.49862575531005859 -4.66849040985107422
0.551917135715484619 0.705716133117675781 -3.07485675811767578
0.561991691589355469 2.34767794609069824 -4.88610982894897461
1.2758713960647583 5.26489019393920898 -1.78448605537414551
-2.14606928825378418 3.95003843307495117 -3.02159357070922852
0.415579378604888916 4.36213874816894531 -3.49258875846862793
-0.871700584888458252 1.09117388725280762 -1.67851293087005615
0.118572235107421875 3.39095664024353027 -0.830533206462860107
2.67701435089111328 5.60033130645751953 -2.88545870780944824
-2.43493485450744629 5.97289228439331055 -1.44387984275817871
-0.314754128456115723 1.83622169494628906 -3.63244247436523438
1.05984687805175781 2.35802817344665527 -3.22179341316223145
0.368196487426757812 6.30576562881469727 -2.49696183204650879
-1.27484989166259766 3.28539800643920898 -1.26573622226715088
-0.203471243381500244 4.12568283081054688 -1.97814309597015381
-0.503768384456634521 5.36912441253662109 -3.53401541709899902
-0.680512011051177979 3.08045816421508789 -3.92798757553100586
1.41545629501342773 3.61532831192016602 -2.47519254684448242
1.6031113862991333 5.14352750778198242 -3.4831697940826416
-0.804827451705932617 3.98281621932983398 -3.04602646827697754
0.385563373565673828 1.87853789329528809 -2.33163189888000488
-2.54975628852844238 5.52440071105957031 -2.55597496032714844
1.04148542881011963 4.79948043823242188 -4.63562679290771484
-0.708241403102874756 6.55373525619506836 -2.66611075401306152
0.562298297882080078 5.60630989074707031 -3.74834585189819336
1.62009751796722412 3.95342874526977539 -3.48688530921936035
