ply
format ascii 1.0
element vertex 63
comment vertices
property float x
property float y
property float z
end_header
-2.58338284492492676 1.16605079174041748 0.0864066556096076965
-1.66195082664489746 0.963009536266326904 0.386115849018096924
-1.48506581783294678 1.04702842235565186 0.46783149242401123
-0.890194118022918701 0.437132477760314941 0.144945591688156128
-2.77586746215820312 1.48337209224700928 0.275299817323684692
-1.47634029388427734 1.385672926902771 0.426578372716903687
-1.83239150047302246 0.223981976509094238 0.227886304259300232
-2.5974421501159668 1.27164947986602783 0.105712041258811951
-2.45294666290283203 0.888524472713470459 0.0494059324264526367
-0.770431458950042725 0.599792063236236572 -0.0800293833017349243
-1.69456613063812256 1.34060359001159668 0.342282623052597046
-2.65940403938293457 1.40573322772979736 0.174103334546089172
-2.66687941551208496 1.00650382041931152 0.122289806604385376
-2.55987834930419922 1.44001007080078125 0.346166610717773438
-1.54605817794799805 1.44762504100799561 0.195653587579727173
-2.6325993537902832 1.32116997241973877 0.29492640495300293
-1.5154423713684082 1.21134388446807861 0.402186363935470581
-1.63660812377929688 1.40138125419616699 0.336332142353057861
-1.74255287647247314 1.25452625751495361 0.215880692005157471
-1.44516670703887939 1.09322643280029297 0.514974355697631836
-1.61497950553894043 1.17444658279418945 0.494331240653991699
-1.59691345691680908 1.08216714859008789 0.390937924385070801
-1.97683441638946533 0.287478268146514893 0.170154735445976257
-0.974083483219146729 0.411859333515167236 0.158420920372009277
-2.45576095581054688 1.02720391750335693 0.140032947063446045
-2.65125441551208496 1.27272439002990723 0.125714868307113647
-1.69394826889038086 1.19182288646697998 0.468652933835983276
-1.48352885246276855 1.20589447021484375 0.52906489372253418
-0.846848249435424805 0.465733498334884644 -0.0398378372192382812
-0.84821164608001709 0.71660768985748291 0.143204182386398315
-1.54166197776794434 1.35188126564025879 0.256809711456298828
-1.62372505664825439 0.900713682174682617 0.435982018709182739
-2.50030922889709473 1.17826461791992188 0.204593613743782043
-1.59821426868438721 1.23037731647491455 0.503015577793121338
-1.56212043762207031 1.07006120681762695 0.430415481328964233
-0.702515840530395508 0.637977361679077148 0.0134430825710296631
-2.60188031196594238 1.06726455688476562 0.144194364547729492
-2.61644196510314941 1.17168891429901123 0.258576244115829468
-1.69956612586975098 0.228473171591758728 0.303934961557388306
-2.65787029266357422 1.35176503658294678 0.308949589729309082
-0.975118339061737061 0.572721540927886963 -0.053724333643913269
-1.47697913646697998 1.12991452217102051 0.449050068855285645
-1.4047400951385498 1.2379225492477417 0.372823476791381836
-2.50836920738220215 1.23973572254180908 0.363397538661956787
-0.94561004638671875 0.291320472955703735 0.207990959286689758
-1.43688547611236572 1.34482717514038086 0.477390408515930176
-1.51068758964538574 1.31305539608001709 0.236165940761566162
-2.66993284225463867 1.37775397300720215 0.207026213407516479
-1.43403220176696777 1.31244659423828125 0.447562634944915771
-1.58696091175079346 1.39314758777618408 0.271983057260513306
-1.48354196548461914 1.08634734153747559 0.434326201677322388
-1.47561240196228027 1.13261699676513672 0.450615167617797852
-1.45502305030822754 1.00838756561279297 0.493616819381713867
-1.71389412879943848 1.36100554466247559 0.208969473838806152
-2.5628809928894043 1.25266659259796143 0.152915745973587036
-1.4991457462310791 1.34958672523498535 0.489191144704818726
-1.51268923282623291 1.28654122352600098 0.240058809518814087
-0.937229156494140625 0.481393337249755859 0.0341331437230110168
-1.58702611923217773 1.24235498905181885 0.439246892929077148
-1.57175660133361816 1.3367079496383667 0.335144579410552979
-1.64661169052124023 1.07282865047454834 0.31230965256690979
-1.5571753978729248 1.36471939086914062 0.3611907958984375
-2.67397665977478027 1.09326910972595215 0.363339096307754517
