ply
format ascii 1.0
element vertex 256
comment vertices
property float x
property float y
property float z
end_header
-0.903432011604309082 -0.590527951717376709 0.450861752033233643
2.09040498733520508 -0.713523983955383301 -0.0783402919769287109
-0.67930757999420166 1.24656844139099121 0.127191275358200073
0.559868514537811279 -0.921802163124084473 0.111307203769683838
1.52290511131286621 -1.04622089862823486 0.506081223487854004
1.68531954288482666 -0.322986245155334473 0.422551155090332031
-1.09956789016723633 0.73202049732208252 0.308349281549453735
-0.384841501712799072 -0.851287961006164551 0.38807755708694458
0.144513219594955444 -0.850008666515350342 0.477212458848953247
2.0096590518951416 -0.839060068130493164 0.521699786186218262
1.59627842903137207 -0.60834956169128418 0.00298438221216201782
1.84569275379180908 -1.25623941421508789 0.203748017549514771
-0.914939343929290771 -1.05664551258087158 0.383794486522674561
-0.706803202629089355 0.760335624217987061 0.0816999077796936035
0.771356642246246338 -0.709536135196685791 0.39562949538230896
-0.678752243518829346 -0.731874048709869385 0.145139589905738831
0.230792224407196045 -0.625772535800933838 0.179701060056686401
-1.04278695583343506 1.08539354801177979 0.183899044990539551
1.70771872997283936 -0.699035763740539551 0.354451000690460205
1.89362215995788574 -0.414749056100845337 0.10529269278049469
-0.569464206695556641 -0.465237677097320557 0.490868300199508667
1.82772278785705566 -0.913622140884399414 0.110956236720085144
0.246196150779724121 -0.845990538597106934 -0.0626313313841819763
0.588568806648254395 -0.541401803493499756 0.192102253437042236
-1.2085721492767334 0.994692564010620117 0.456530988216400146
-0.688662290573120117 -0.81945335865020752 0.439827233552932739
1.48310399055480957 -0.892269015312194824 0.251279234886169434
-1.07133674621582031 -0.869046449661254883 0.556824326515197754
1.81710290908813477 -1.03920412063598633 0.413733541965484619
0.400936603546142578 -0.684029936790466309 0.401317447423934937
-0.735720634460449219 -0.46376568078994751 0.215878382325172424
1.9791266918182373 -0.672684550285339355 0.181131482124328613
-0.868823409080505371 0.881343841552734375 0.295289039611816406
-1.03964424133300781 -0.845700562000274658 0.261852651834487915
0.300573110580444336 -0.916676163673400879 0.190734326839447021
-1.04703664779663086 0.800997257232666016 0.0615239627659320831
1.91597867012023926 -0.599370241165161133 0.447198629379272461
1.84650969505310059 -0.680668115615844727 -0.0796304792165756226
1.51698315143585205 -0.756242275238037109 0.497642278671264648
1.64676320552825928 -1.10578548908233643 0.26899641752243042
1.60734164714813232 -0.443838894367218018 0.165553078055381775
-0.582480728626251221 -0.91582190990447998 0.259346187114715576
-0.878611981868743896 -0.685160458087921143 0.253655046224594116
-0.903282642364501953 1.2247014045715332 0.278613030910491943
-1.10510945320129395 -0.692564070224761963 0.399474740028381348
0.545123100280761719 -0.75027090311050415 0.254986703395843506
-0.686637759208679199 -0.317038297653198242 0.387069106101989746
1.89657676219940186 -0.360414683818817139 0.438563704490661621
1.9853215217590332 -1.14597785472869873 0.0906836390495300293
1.70703029632568359 -0.923976540565490723 0.547776460647583008
-0.689182400703430176 -0.622306704521179199 0.340760320425033569
1.87015271186828613 -0.826111316680908203 0.367146730422973633
-0.942019402980804443 -0.695458889007568359 0.624540090560913086
1.70278477668762207 -0.750898838043212891 0.105166405439376831
1.77847909927368164 -0.52507328987121582 0.243268251419067383
-0.560629665851593018 -0.972747683525085449 0.462849020957946777
-0.895074963569641113 -0.416266024112701416 0.354379326105117798
-0.908246278762817383 -0.845311522483825684 0.445533245801925659
1.93064749240875244 -1.01493453979492188 0.243377014994621277
1.79607570171356201 -0.704772651195526123 0.551139175891876221
-1.04550790786743164 0.971051037311553955 0.336155414581298828
1.69680726528167725 -0.901761412620544434 0.35237276554107666
0.793213248252868652 -0.63803410530090332 0.221738100051879883
0.303556352853775024 -0.844639778137207031 0.375634819269180298
-0.73383331298828125 1.09969639778137207 0.222171306610107422
-0.534941554069519043 -0.714749157428741455 0.374806761741638184
-0.788832664489746094 0.917765796184539795 0.122162401676177979
-1.15395188331604004 0.945101916790008545 0.165822982788085938
-0.931415200233459473 -0.979135513305664062 0.579511344432830811
1.77938902378082275 -0.348317980766296387 0.225903689861297607
0.323478519916534424 -0.997278809547424316 0.0360440462827682495
0.335478484630584717 -0.742297649383544922 0.100573554635047913
1.76316797733306885 -0.517842113971710205 0.433692574501037598
1.79781985282897949 -0.565547347068786621 0.0390848219394683838
-1.03267478942871094 -0.513858675956726074 0.325226455926895142
-0.964523911476135254 0.923138558864593506 0.159897893667221069
-0.761926412582397461 -0.531709909439086914 0.525647819042205811
0.44599190354347229 -0.90798342227935791 0.308532595634460449
-1.05847227573394775 -0.934156954288482666 0.401579678058624268
2.06785321235656738 -0.550002574920654297 -0.0819545313715934753
-0.887137651443481445 1.11254310607910156 0.138714507222175598
1.64356029033660889 -0.601645708084106445 0.166672512888908386
-1.19462597370147705 1.07427823543548584 0.318476289510726929
-0.899629056453704834 -0.510386049747467041 0.22901463508605957
-0.790446698665618896 -0.697334408760070801 0.433323979377746582
1.93788993358612061 -0.749181210994720459 0.0513142496347427368
0.229700267314910889 -0.776656806468963623 0.256262898445129395
1.76231491565704346 -1.00303983688354492 0.254646956920623779
1.59948086738586426 -0.751117587089538574 0.220348566770553589
2.02391338348388672 -0.686144053936004639 0.378892183303833008
1.65693879127502441 -0.894364058971405029 0.137880787253379822
-0.724174976348876953 -0.869397103786468506 0.292372584342956543
1.80240678787231445 -0.755853474140167236 0.220118358731269836
1.78710079193115234 -1.18402373790740967 0.382875263690948486
-0.816564738750457764 -0.872559070587158203 0.56071549654006958
-1.00653433799743652 -0.578260540962219238 0.558210253715515137
-0.951338112354278564 -0.443855047225952148 0.489176690578460693
1.77109098434448242 -0.534839034080505371 -0.103201299905776978
1.73946046829223633 -1.10605204105377197 0.151244297623634338
1.57289135456085205 -1.01180243492126465 0.355202019214630127
0.659215211868286133 -0.654669523239135742 0.279873669147491455
1.92340219020843506 -0.562571883201599121 -0.037003934383392334
0.39990803599357605 -0.768485188484191895 0.258730173110961914
1.70665132999420166 -0.42808997631072998 0.325214862823486328
2.10337638854980469 -0.683433055877685547 0.0624051988124847412
0.378949195146560669 -0.864546418190002441 0.0311157852411270142
1.66420245170593262 -0.708866536617279053 0.494673550128936768
1.75122988224029541 -0.423911839723587036 0.107343614101409912
-0.967895746231079102 -0.737118422985076904 0.349746346473693848
-0.820011675357818604 -0.964971959590911865 0.331926256418228149
0.492133587598800659 -0.602692246437072754 0.33101239800453186
-0.738440632820129395 -0.499294817447662354 0.383240282535552979
-0.851131081581115723 1.03410720825195312 0.254966318607330322
0.17853054404258728 -0.849522709846496582 0.154605463147163391
-0.828928232192993164 -0.58667302131652832 0.334563642740249634
1.81726300716400146 -0.864401280879974365 0.500603020191192627
1.83835422992706299 -0.67513960599899292 0.370368897914886475
-0.906710386276245117 0.804326653480529785 0.170749425888061523
1.73617255687713623 -1.26078128814697266 0.276890367269515991
-0.932895481586456299 -0.891009390354156494 0.325139671564102173
0.125964552164077759 -0.758875906467437744 0.385630041360855103
1.88210010528564453 -0.594531774520874023 0.146370530128479004
-0.722383439540863037 -0.626203238964080811 0.204727128148078918
0.498874932527542114 -0.600639522075653076 0.122987143695354462
-0.596646666526794434 -0.791954398155212402 0.294061481952667236
-0.863234162330627441 -0.732873439788818359 0.529753983020782471
1.9313056468963623 -0.740873515605926514 0.524017870426177979
1.98908233642578125 -0.797766327857971191 0.33452683687210083
2.03204441070556641 -0.804237127304077148 -0.0166348889470100403
-0.830643296241760254 -0.493812024593353271 0.127794086933135986
-0.975936055183410645 1.11452412605285645 0.283375203609466553
0.45406833291053772 -0.662492036819458008 0.227547034621238708
1.62869453430175781 -0.793656647205352783 0.330777823925018311
1.89791262149810791 -0.544788122177124023 0.257355332374572754
1.63361155986785889 -1.02291393280029297 0.460826277732849121
1.59700453281402588 -0.894275963306427002 0.421850323677062988
1.80564510822296143 -0.876291453838348389 0.238130956888198853
1.81888401508331299 -0.729976415634155273 0.0659171640872955322
1.77047371864318848 -1.01445686817169189 0.0752415657043457031
-0.834225177764892578 -0.446018725633621216 0.458948910236358643
-1.10733151435852051 -0.617976069450378418 0.494589447975158691
-1.01173305511474609 -0.746469199657440186 0.540744304656982422
-0.626835525035858154 -0.511607110500335693 0.342372477054595947
1.69929385185241699 -1.03070127964019775 0.3522796630859375
-0.796504318714141846 -0.717485785484313965 0.142570629715919495
1.81871712207794189 -0.458898574113845825 0.347256481647491455
-0.614559710025787354 1.16526377201080322 0.183558598160743713
1.76096343994140625 -1.13479089736938477 0.270980507135391235
1.68989253044128418 -0.531991481781005859 0.0717292875051498413
1.91996490955352783 -0.614229679107666016 -0.143031030893325806
0.538949847221374512 -0.902440130710601807 0.224813610315322876
-0.822294235229492188 0.767950475215911865 0.097036309540271759
1.61835277080535889 -0.64252781867980957 0.410255610942840576
1.89084577560424805 -0.81403195858001709 0.135712608695030212
-0.820083558559417725 -0.848202526569366455 0.354176312685012817
0.264501303434371948 -0.839443743228912354 0.0778968557715415955
-1.07582211494445801 -0.793694794178009033 0.446960926055908203
1.6431586742401123 -0.956891894340515137 0.23393973708152771
0.231739401817321777 -0.897614896297454834 0.302824258804321289
1.50639998912811279 -0.827747762203216553 0.343346565961837769
-0.716097593307495117 -0.935138285160064697 0.386085808277130127
0.241987630724906921 -0.790453732013702393 0.479510068893432617
2.01210641860961914 -0.608106732368469238 0.016694977879524231
-0.991677522659301758 0.9988211989402771 0.238824844360351562
1.92719399929046631 -0.928088843822479248 0.161437854170799255
1.71618175506591797 -1.03671491146087646 0.534076392650604248
1.82140266895294189 -0.922702610492706299 0.391437828540802002
1.71294951438903809 -0.611012518405914307 0.265556573867797852
-0.937320888042449951 -0.615323305130004883 0.314956456422805786
1.73304283618927002 -0.647049903869628906 0.087887987494468689
-0.996315479278564453 -0.627948224544525146 0.409229815006256104
-0.769981026649475098 1.25912141799926758 0.185280680656433105
1.77148342132568359 -0.788076639175415039 0.388182878494262695
-0.940005600452423096 -0.946597874164581299 0.43343585729598999
-0.890700340270996094 1.007568359375 0.157938495278358459
1.60669529438018799 -0.774234533309936523 0.43368375301361084
1.70088851451873779 -0.30655205249786377 0.318889617919921875
1.90026772022247314 -0.631801724433898926 0.0390790998935699463
-0.788812100887298584 -0.590262889862060547 0.442657172679901123
0.250892877578735352 -0.644880592823028564 0.280991077423095703
-0.55485159158706665 -0.882214903831481934 0.354736924171447754
-0.725419402122497559 0.662041842937469482 0.112353861331939697
-0.964035272598266602 -1.02931463718414307 0.494940280914306641
0.388670057058334351 -0.867669343948364258 0.168858155608177185
0.476330220699310303 -0.807330429553985596 0.201643645763397217
1.72845137119293213 -0.885029077529907227 0.448800474405288696
1.71534454822540283 -0.500195980072021484 0.166180059313774109
0.831201910972595215 -0.782697558403015137 0.35926482081413269
-0.932875692844390869 -0.884567677974700928 0.535510540008544922
-0.868841350078582764 -0.75249558687210083 0.339551150798797607
1.78030157089233398 -0.656063079833984375 -0.00106503069400787354
1.84163999557495117 -1.23017776012420654 0.312319397926330566
-0.794788718223571777 -0.537099540233612061 0.249899595975875854
-0.950193047523498535 -0.730754435062408447 0.447901874780654907
-0.963838100433349609 1.02466142177581787 0.351406395435333252
-0.885565400123596191 -0.665824294090270996 0.390235543251037598
-0.859191298484802246 1.1996617317199707 0.173827216029167175
0.214653998613357544 -0.866522073745727539 0.410478323698043823
1.72886514663696289 -0.788614988327026367 0.275712311267852783
1.84313011169433594 -1.00431418418884277 0.326600044965744019
1.89367806911468506 -0.837896823883056641 0.253931999206542969
1.96658205986022949 -0.817542433738708496 0.427061080932617188
-0.787339329719543457 -0.680778324604034424 0.286087304353713989
0.469107627868652344 -0.854986965656280518 0.0635074302554130554
1.80568838119506836 -0.621314942836761475 0.242193162441253662
1.88337826728820801 -1.16805684566497803 0.207489475607872009
-0.959970414638519287 -0.50938713550567627 0.387153834104537964
-1.05380368232727051 -0.777495145797729492 0.349250525236129761
0.411265790462493896 -0.733143508434295654 0.171774893999099731
1.6595766544342041 -0.864681601524353027 0.243062660098075867
-0.632334232330322266 -0.675535917282104492 0.393575608730316162
-0.783361971378326416 -0.426218181848526001 0.287586092948913574
-1.03327298164367676 0.865035772323608398 0.185709834098815918
-1.00480794906616211 -0.847924947738647461 0.473241746425628662
1.83269119262695312 -0.558199286460876465 0.386827349662780762
1.87208342552185059 -0.936324834823608398 0.270472526550292969
0.329119116067886353 -0.732485830783843994 0.306566506624221802
-1.13560962677001953 0.987785875797271729 0.32227712869644165
-0.833994626998901367 -0.778159737586975098 0.445850074291229248
1.67399835586547852 -1.19073796272277832 0.293714135885238647
1.86802196502685547 -0.740787684917449951 0.312955915927886963
-1.06507158279418945 1.05404281616210938 0.301462680101394653
1.6911388635635376 -0.677227973937988281 0.205509305000305176
-0.93817293643951416 0.931655526161193848 0.328252196311950684
0.60811227560043335 -0.879349410533905029 0.0460983067750930786
1.87578427791595459 -0.768501222133636475 0.438065856695175171
-0.696365475654602051 -0.790843188762664795 0.330212235450744629
1.97952020168304443 -0.622723937034606934 0.104754775762557983
-0.702908694744110107 -0.40653720498085022 0.384859025478363037
-0.997412204742431641 -0.660182714462280273 0.494105041027069092
-0.732158780097961426 -0.742458105087280273 0.21775113046169281
0.316288173198699951 -0.799536049365997314 0.241645991802215576
-0.838921546936035156 -0.480513006448745728 0.542603969573974609
1.77971601486206055 -0.945418715476989746 0.18564942479133606
1.75958573818206787 -0.771499752998352051 0.502489805221557617
-0.702882587909698486 -0.4992026686668396 0.296136081218719482
0.351640164852142334 -0.764843523502349854 0.0153184598311781883
1.63402259349822998 -0.569093465805053711 0.266246557235717773
-0.879063010215759277 0.949393033981323242 0.238817170262336731
-0.868823468685150146 -0.513029396533966064 0.363931715488433838
0.570895195007324219 -0.627749323844909668 0.200115233659744263
1.89381241798400879 -0.648646056652069092 0.215185075998306274
1.71267175674438477 -0.832613468170166016 0.167541056871414185
1.59192860126495361 -1.04253947734832764 0.241038933396339417
-1.00196075439453125 1.12773334980010986 0.118553876876831055
1.79197001457214355 -0.839658737182617188 0.316413134336471558
1.71527779102325439 -0.550059616565704346 -0.0385147184133529663
-1.0400848388671875 0.961016535758972168 0.178062230348587036
-0.863612890243530273 1.1483299732208252 0.277643680572509766
-0.981781601905822754 -0.836421370506286621 0.370105624198913574
2.01138615608215332 -0.665049552917480469 -0.0476803518831729889
1.49739992618560791 -0.817975878715515137 0.441155791282653809
1.68056821823120117 -1.01872777938842773 0.188060253858566284
-0.743367314338684082 -0.87164914608001709 0.479082107543945312
0.181669861078262329 -0.851773679256439209 0.239679202437400818
1.89198291301727295 -1.05440104007720947 0.378039002418518066
