ply
format ascii 1.0
element vertex 256
comment vertices
property float x
property float y
property float z
end_header
-0.621346771717071533 -0.669527411460876465 0.74916762113571167
-0.915744364261627197 -2.10987687110900879 0.30468401312828064
0.804935693740844727 -0.872454047203063965 0.318551421165466309
-0.151493579149246216 -1.08547210693359375 -0.00410512089729309082
-0.837570428848266602 -0.527474880218505859 0.124049119651317596
-0.0497439578175544739 -0.581617951393127441 0.410951852798461914
0.345786184072494507 -0.821570098400115967 0.0133653879165649414
-0.0644790828227996826 -1.31223392486572266 0.492006897926330566
-0.543407201766967773 -1.72550010681152344 0.232349932193756104
-0.938705563545227051 -0.93652421236038208 0.439378559589385986
-0.464077293872833252 -0.857049345970153809 0.319805741310119629
0.357305228710174561 -0.814268171787261963 0.563799560070037842
0.73264610767364502 -0.436604022979736328 0.512031257152557373
0.442382693290710449 -1.18460178375244141 0.430177837610244751
-0.461395680904388428 -0.472032815217971802 0.384619325399398804
-1.02614259719848633 -1.78518176078796387 0.14634452760219574
0.0988617986440658569 -0.979274392127990723 0.350789338350296021
0.47178959846496582 -0.538028478622436523 0.212032735347747803
0.0370575711131095886 -0.64176863431930542 0.0150708109140396118
-0.805504202842712402 -1.77300095558166504 0.429270744323730469
-0.369576215744018555 -1.27906656265258789 0.368730843067169189
-0.452293932437896729 -0.929103434085845947 0.637113809585571289
-0.173694655299186707 -0.865571200847625732 0.487831413745880127
0.11799294501543045 -0.967816948890686035 -0.154143586754798889
-0.790771245956420898 -0.631470263004302979 0.483628839254379272
-0.166920915246009827 -0.79080575704574585 0.195272088050842285
0.564828276634216309 -0.967391133308410645 0.156927645206451416
0.24833427369594574 -0.702316880226135254 0.312926799058914185
-0.720620036125183105 -1.97326469421386719 0.143675029277801514
-0.733252942562103271 -0.380431503057479858 0.362305670976638794
0.0874904245138168335 -1.16531133651733398 0.119063608348369598
-0.748475909233093262 -0.800075531005859375 0.265195846557617188
-0.145514637231826782 -1.1239086389541626 0.303300678730010986
-1.08027112483978271 -1.91360616683959961 0.400605440139770508
0.552690327167510986 -0.792220771312713623 0.380950450897216797
0.0817113965749740601 -0.890318453311920166 0.0886861979961395264
0.321116328239440918 -0.945680320262908936 0.23017159104347229
0.36934506893157959 -1.07084989547729492 0.0110531151294708252
-0.262627929449081421 -0.571202874183654785 0.264619767665863037
-0.37977367639541626 -0.769778132438659668 0.0685232207179069519
-0.677682995796203613 -0.847522735595703125 0.515702545642852783
-0.357517391443252563 -1.05667245388031006 0.198773548007011414
-0.253153830766677856 -0.426253765821456909 0.497590959072113037
-0.694183111190795898 -1.98406744003295898 0.407170116901397705
-0.848450422286987305 -1.58251142501831055 0.294681668281555176
-0.591958880424499512 -0.635069012641906738 0.203981220722198486
0.539189696311950684 -0.603096604347229004 0.520589113235473633
-0.241618499159812927 -1.26938498020172119 0.106852680444717407
-0.466227471828460693 -0.716741502285003662 0.543881773948669434
0.538795053958892822 -0.951221287250518799 0.573084890842437744
0.723443448543548584 -0.64293372631072998 0.392438173294067383
0.622972607612609863 -0.76356816291809082 0.0780291035771369934
-0.807749390602111816 -1.73388004302978516 0.126536741852760315
-0.617387831211090088 -0.510350525379180908 0.543498754501342773
0.611544370651245117 -1.10364949703216553 0.323417931795120239
-0.350341796875 -1.00735187530517578 0.409443378448486328
-0.88999021053314209 -1.90774321556091309 0.294829487800598145
-0.0322874076664447784 -0.592983007431030273 0.199913516640663147
-0.950276374816894531 -0.835216403007507324 0.263834446668624878
-0.562865793704986572 -1.01010322570800781 0.477904260158538818
-0.541703402996063232 -1.99553418159484863 0.277695715427398682
0.39756929874420166 -0.717176854610443115 0.171940267086029053
-0.0674347728490829468 -0.986285269260406494 0.169606775045394897
0.28093227744102478 -0.937374889850616455 0.420548796653747559
-0.211838006973266602 -1.18593502044677734 0.474887728691101074
0.173628762364387512 -0.79484093189239502 -0.212888583540916443
-0.517852902412414551 -0.406357437372207642 0.215715572237968445
-0.656750142574310303 -1.66689717769622803 0.372845590114593506
-0.869498491287231445 -0.545050382614135742 0.334846705198287964
-0.314890772104263306 -0.742746293544769287 0.335217326879501343
-0.775259315967559814 -0.99713897705078125 0.575242400169372559
-0.452332794666290283 -0.622269749641418457 0.815091729164123535
0.300623536109924316 -0.525817394256591797 0.139782994985580444
-0.0185744669288396835 -0.824714303016662598 0.302182018756866455
-0.82388383150100708 -0.96480560302734375 0.305313408374786377
0.508356869220733643 -0.965222358703613281 0.376167565584182739
-0.245392277836799622 -0.933244109153747559 0.289612531661987305
-0.710951566696166992 -1.8606104850769043 0.275627076625823975
0.146665319800376892 -0.680135011672973633 0.174551680684089661
-0.362520992755889893 -0.84580683708190918 0.467852354049682617
-0.921821951866149902 -1.94956660270690918 0.132435351610183716
-0.528668463230133057 -0.709401786327362061 0.375815778970718384
0.43619963526725769 -0.607970952987670898 0.386815309524536133
-0.186001807451248169 -1.02728593349456787 0.534448087215423584
-0.0803994238376617432 -0.974561750888824463 0.402252405881881714
0.170185744762420654 -0.793056309223175049 -0.0113020092248916626
0.477277100086212158 -0.952344775199890137 -0.028240889310836792
-0.0537716224789619446 -0.90740656852722168 -0.000349000096321105957
-0.614147305488586426 -0.565140724182128906 0.39023125171661377
-0.515039443969726562 -0.569763481616973877 0.654496252536773682
-0.733986198902130127 -0.671319067478179932 0.135327368974685669
-0.73672020435333252 -0.57138979434967041 0.692342102527618408
0.00161104276776313782 -1.19393765926361084 0.253130614757537842
-0.672482728958129883 -0.703308463096618652 0.586393415927886963
0.620093941688537598 -0.598563075065612793 0.217620819807052612
-0.667653143405914307 -0.940467596054077148 0.327639907598495483
-0.439485669136047363 -0.613252401351928711 0.235663488507270813
0.659378528594970703 -0.873299539089202881 0.26494598388671875
0.528304636478424072 -0.799643516540527344 0.602708220481872559
0.505967319011688232 -0.82228010892868042 0.203118085861206055
-0.156974479556083679 -1.1303098201751709 0.149981766939163208
-0.128198131918907166 -0.658639311790466309 0.304053604602813721
-0.720389962196350098 -0.571622788906097412 0.257576644420623779
-0.380968809127807617 -0.805404782295227051 0.691329360008239746
0.26983991265296936 -1.05972933769226074 0.333757698535919189
-0.268301188945770264 -1.22906172275543213 0.269434452056884766
0.179858267307281494 -0.965328693389892578 -0.0188135355710983276
-0.192888244986534119 -0.772160887718200684 0.0500199422240257263
-0.855345964431762695 -0.697574913501739502 0.216050505638122559
0.423859655857086182 -0.942248344421386719 0.12367209792137146
0.430518805980682373 -1.01297914981842041 0.491007804870605469
-0.81360161304473877 -1.74487662315368652 0.271894365549087524
-0.591964423656463623 -0.412792444229125977 0.362181961536407471
-0.764503121376037598 -0.765242218971252441 0.403931319713592529
-0.0185816064476966858 -1.07277834415435791 0.0656630396842956543
-0.406713783740997314 -0.558794975280761719 0.48521694540977478
-0.632850944995880127 -0.86676490306854248 0.2099781334400177
-1.05766975879669189 -1.92642295360565186 0.0949907302856445312
-0.80870431661605835 -2.01948094367980957 0.259697288274765015
0.539918780326843262 -0.669150590896606445 0.312805622816085815
0.0994184017181396484 -0.971490085124969482 0.210385888814926147
0.449286788702011108 -0.849142670631408691 0.456130683422088623
0.494402527809143066 -0.805553436279296875 0.0433647632598876953
-0.27732965350151062 -1.11203372478485107 0.354348421096801758
-0.552579522132873535 -0.85899055004119873 0.456631183624267578
0.19541013240814209 -0.804885029792785645 0.20934651792049408
0.0101879537105560303 -1.09318208694458008 0.346912026405334473
0.0189988091588020325 -0.777205348014831543 0.0270270481705665588
0.378012001514434814 -0.787417709827423096 0.287260591983795166
-0.215542048215866089 -0.668954789638519287 0.158498287200927734
-0.23623676598072052 -1.00762796401977539 0.161298155784606934
-0.766560196876525879 -0.903614997863769531 0.413172125816345215
-0.821755528450012207 -1.87065720558166504 0.183977857232093811
-0.240022853016853333 -1.30950117111206055 0.391414999961853027
0.609113872051239014 -0.569759070873260498 0.412027150392532349
-0.193130970001220703 -0.795976161956787109 0.33258521556854248
-0.63080286979675293 -0.697667062282562256 0.460512995719909668
-0.462637245655059814 -0.997650802135467529 0.341233670711517334
0.467017889022827148 -0.576793849468231201 0.0868647396564483643
0.679199099540710449 -0.781660556793212891 0.406629890203475952
-0.292133599519729614 -0.507086694240570068 0.404385924339294434
0.386719077825546265 -0.728919148445129395 0.471364855766296387
-0.437413841485977173 -0.983537435531616211 0.522091925144195557
-0.371185958385467529 -0.598710238933563232 0.343025684356689453
-0.43503415584564209 -0.749807119369506836 0.256501138210296631
0.00249076355248689651 -0.698665022850036621 0.303253412246704102
0.65598762035369873 -0.973990917205810547 0.342478722333908081
-0.668301999568939209 -0.721418261528015137 0.323790848255157471
-0.971934735774993896 -0.82529294490814209 0.48901638388633728
-0.937601804733276367 -2.06410717964172363 0.189514130353927612
-0.0909961909055709839 -0.871829748153686523 0.123001143336296082
-1.01020467281341553 -1.88169848918914795 0.224918827414512634
0.284798860549926758 -0.725714683532714844 0.120008468627929688
-0.915572464466094971 -1.82832205295562744 0.106096446514129639
0.213975667953491211 -0.909950375556945801 0.319945156574249268
-0.511844038963317871 -0.812604248523712158 0.606706976890563965
-0.307880103588104248 -0.732328355312347412 0.209727674722671509
-0.263867020606994629 -0.952381372451782227 0.477036118507385254
-0.332212567329406738 -0.934496879577636719 0.158657357096672058
0.111277759075164795 -1.00713372230529785 0.0879788994789123535
-0.68608546257019043 -0.439028620719909668 0.268766015768051147
0.420300722122192383 -0.975363790988922119 0.295370340347290039
-0.33250117301940918 -0.894431948661804199 0.363235563039779663
-0.674743533134460449 -0.442302435636520386 0.445627599954605103
-0.700802385807037354 -1.74381256103515625 0.235143706202507019
0.196054041385650635 -0.914508581161499023 0.107235878705978394
-0.690250277519226074 -2.06326174736022949 0.319956064224243164
-0.746655523777008057 -0.588347554206848145 0.383720099925994873
-0.140567213296890259 -0.985109627246856689 0.28460615873336792
-0.622194647789001465 -0.764173150062561035 0.672283768653869629
-0.133008480072021484 -1.10065376758575439 0.416698366403579712
-0.747022390365600586 -1.6304771900177002 0.263678848743438721
-0.654543280601501465 -0.318464457988739014 0.303330093622207642
-0.91269838809967041 -0.840410768985748291 0.379470765590667725
-0.839187264442443848 -0.915960371494293213 0.502826690673828125
-0.618978440761566162 -0.813911676406860352 0.372696459293365479
-0.781646192073822021 -1.93105554580688477 0.353605180978775024
0.423027396202087402 -1.10618960857391357 0.34788590669631958
-0.842456459999084473 -0.834898650646209717 0.208477973937988281
-0.289916157722473145 -0.649723052978515625 0.406459391117095947
0.0802631750702857971 -0.842646121978759766 0.246940389275550842
-0.159145697951316833 -0.973264813423156738 0.0165894478559494019
-0.00376623473130166531 -1.04892492294311523 0.243053078651428223
0.616874933242797852 -0.745102047920227051 0.27859264612197876
-0.265220999717712402 -1.12129855155944824 0.202382951974868774
-0.263523250818252563 -0.855863988399505615 0.210309267044067383
-0.370301485061645508 -0.730086565017700195 0.431872457265853882
-0.547141790390014648 -0.605060338973999023 0.553836286067962646
0.291356861591339111 -1.04656112194061279 0.193949788808822632
-0.0352962613105773926 -1.1299748420715332 0.170049935579299927
-0.0568068772554397583 -0.777252793312072754 0.201531022787094116
-0.641426563262939453 -0.531767010688781738 0.651833176612854004
0.542988002300262451 -1.06165921688079834 0.417258143424987793
-0.975305259227752686 -1.96876347064971924 0.328888416290283203
-0.519594430923461914 -1.02850949764251709 0.579863369464874268
-0.556246042251586914 -0.800545573234558105 0.252896755933761597
-0.460225045680999756 -0.512320280075073242 0.197269707918167114
0.346172153949737549 -0.821139991283416748 0.122717976570129395
-0.87158048152923584 -2.03581500053405762 0.371612846851348877
-0.354449272155761719 -0.647367119789123535 0.159559309482574463
-0.240543186664581299 -1.05999851226806641 0.446421384811401367
-0.377932429313659668 -0.86629021167755127 0.254405438899993896
0.499743103981018066 -0.701050221920013428 0.203313440084457397
-0.571418821811676025 -0.915267348289489746 0.366832494735717773
-0.641463756561279297 -1.90658307075500488 0.342270195484161377
0.0690729245543479919 -0.751376152038574219 0.163816630840301514
-0.627268731594085693 -1.94683706760406494 0.238922834396362305
-0.661987185478210449 -0.917312502861022949 0.438942164182662964
0.572712719440460205 -0.931539595127105713 0.274850845336914062
-0.382990807294845581 -0.480837523937225342 0.316124618053436279
-0.67534327507019043 -0.596101701259613037 0.529366075992584229
-0.222770974040031433 -1.04776906967163086 0.26297295093536377
0.463774740695953369 -0.753094315528869629 0.335620999336242676
-0.444633454084396362 -0.915755867958068848 0.443438559770584106
0.38331305980682373 -0.855212569236755371 0.376129508018493652
0.325078338384628296 -0.63520348072052002 0.293239086866378784
-0.0963910967111587524 -0.903620123863220215 0.545548617839813232
-0.202634558081626892 -1.00383198261260986 0.364519387483596802
-0.135643124580383301 -0.706680119037628174 0.10434405505657196
0.435509800910949707 -1.01672494411468506 0.203258723020553589
-0.256800383329391479 -0.809527695178985596 0.505459368228912354
-0.940607309341430664 -1.788238525390625 0.200969606637954712
-0.548355758190155029 -0.705118060111999512 0.602095603942871094
-0.109320685267448425 -1.18150711059570312 0.22329537570476532
0.349961459636688232 -1.00481736660003662 0.0956498682498931885
0.435153692960739136 -0.862095475196838379 -0.0424540340900421143
-0.792453765869140625 -1.98836708068847656 0.435508131980895996
-0.496970117092132568 -0.546504199504852295 0.441978663206100464
-0.375211894512176514 -1.04083812236785889 0.317485392093658447
-0.627359509468078613 -1.78517699241638184 0.289574384689331055
0.0254765748977661133 -0.849590301513671875 0.1594582200050354
-0.815549492835998535 -0.607031345367431641 0.22296258807182312
-0.630581080913543701 -1.73991024494171143 0.166156426072120667
-0.794764280319213867 -0.5041237473487854 0.400613784790039062
-0.857890903949737549 -0.767595291137695312 0.342545568943023682
-0.763367414474487305 -0.697636067867279053 0.332811206579208374
0.310446858406066895 -0.88480144739151001 0.317654699087142944
-0.102902136743068695 -1.02552413940429688 0.078397020697593689
-0.474378466606140137 -0.569404959678649902 0.315194368362426758
0.589476823806762695 -0.784079968929290771 0.171122491359710693
-0.827373027801513672 -0.663170754909515381 0.109806358814239502
-0.344373613595962524 -0.655984938144683838 0.257287502288818359
-0.991710782051086426 -1.8423159122467041 0.311660140752792358
0.717060625553131104 -0.620566904544830322 0.486362963914871216
-0.535542547702789307 -0.691533863544464111 0.472452133893966675
-0.428034722805023193 -0.65997999906539917 0.401413857936859131
0.567894816398620605 -0.83687824010848999 0.282181292772293091
-0.776326239109039307 -0.749126315116882324 0.169740915298461914
-0.0532641224563121796 -0.956332802772521973 0.260982662439346313
0.65596383810043335 -0.495629489421844482 0.447252333164215088
-0.0729623287916183472 -1.24084532260894775 0.430671870708465576
0.445474147796630859 -0.917190074920654297 0.22529110312461853
-0.879896402359008789 -1.81421446800231934 0.301252752542495728
-0.105422690510749817 -0.867567300796508789 0.215825676918029785
0.432839959859848022 -0.770323395729064941 -0.0228278040885925293
-0.695555210113525391 -0.653713226318359375 0.218784242868423462
