ply
format ascii 1.0
element vertex 256
comment vertices
property float x
property float y
property float z
end_header
-1.67001140117645264 1.5491178035736084 0.339848637580871582
-2.25277376174926758 -0.0388116538524627686 0.605783760547637939
-0.765646815299987793 0.42734229564666748 0.573651731014251709
-2.80124425888061523 0.998938262462615967 0.0939400345087051392
-1.64119911193847656 0.668863773345947266 0.623697042465209961
-2.61362671852111816 1.63948428630828857 0.605193972587585449
-2.26282954216003418 0.48396766185760498 0.115394942462444305
-1.16266858577728271 0.79670107364654541 0.130274787545204163
-2.24223804473876953 1.09313499927520752 0.676974773406982422
-1.23991966247558594 1.15835356712341309 0.657341241836547852
-2.41156268119812012 1.44293618202209473 0.119708344340324402
-1.77241146564483643 0.26401054859161377 0.28574669361114502
-0.584999799728393555 0.713121473789215088 0.148452460765838623
-1.82306957244873047 1.04363775253295898 0.345064997673034668
-2.7650604248046875 1.08482933044433594 0.561328351497650146
-1.21434903144836426 0.38450196385383606 0.454210877418518066
-1.47251975536346436 1.17423319816589355 0.076383247971534729
-1.78247416019439697 1.12919580936431885 0.776352167129516602
-2.72347927093505859 1.7424616813659668 0.191510990262031555
-2.43159627914428711 0.924666166305541992 0.323506951332092285
-2.21244454383850098 1.51095342636108398 0.536382853984832764
-2.36547422409057617 0.359532654285430908 0.520339488983154297
-1.76159799098968506 1.49851894378662109 -0.0669962391257286072
-2.13381791114807129 0.252958208322525024 0.814239740371704102
-1.42925596237182617 0.949187099933624268 0.376217186450958252
-0.870860636234283447 0.410992860794067383 0.212159872055053711
-2.8229520320892334 1.35007894039154053 0.301262736320495605
-1.71990716457366943 1.48017430305480957 0.681447327136993408
-0.895812511444091797 0.736446678638458252 0.347426414489746094
-1.3054356575012207 1.4563525915145874 0.494803875684738159
-2.50128698348999023 1.28664231300354004 0.466508001089096069
-2.02644538879394531 0.243394315242767334 0.500148952007293701
-1.18743491172790527 0.831968724727630615 0.632322788238525391
-1.48308765888214111 0.383613258600234985 0.646542966365814209
-1.6019822359085083 1.26200187206268311 0.447737753391265869
-2.41311407089233398 1.66720902919769287 0.3380604088306427
-2.5341644287109375 0.367400139570236206 0.266455262899398804
-1.90593099594116211 0.735606968402862549 0.497500717639923096
-1.95584654808044434 0.813953518867492676 0.205984950065612793
-2.04937410354614258 0.140479519963264465 0.220623776316642761
-1.1720890998840332 1.09948396682739258 0.357780158519744873
-1.52280354499816895 1.06023550033569336 0.662686347961425781
-2.58593368530273438 1.15846598148345947 0.208329916000366211
-1.488800048828125 1.49216997623443604 0.119492486119270325
-1.02679765224456787 0.196226179599761963 0.324299722909927368
-2.60741138458251953 0.777217566967010498 0.158069029450416565
-2.90906310081481934 0.747623562812805176 0.151723116636276245
-1.14493727684020996 0.534488439559936523 0.219765126705169678
-1.89024162292480469 1.40087497234344482 0.263762295246124268
-0.928751528263092041 0.206685706973075867 0.598497271537780762
-2.50436282157897949 0.947713613510131836 0.58629155158996582
-2.28442859649658203 1.19676721096038818 0.33440089225769043
-1.62596523761749268 0.769406497478485107 0.357818961143493652
-2.88418173789978027 1.59473991394042969 0.365932226181030273
-2.75242996215820312 1.50036704540252686 0.105105392634868622
-2.68329787254333496 0.949095964431762695 0.343505948781967163
-2.64313864707946777 1.54333293437957764 0.377575814723968506
-2.27433204650878906 0.171353965997695923 0.389571249485015869
-1.29986071586608887 0.682736217975616455 0.340652972459793091
-1.72000408172607422 0.939356088638305664 0.580935895442962646
-1.68610775470733643 1.30364537239074707 0.061159670352935791
-0.872026741504669189 0.596171975135803223 0.0617741681635379791
-2.39649677276611328 1.0522010326385498 0.112743020057678223
-2.71086788177490234 1.41739118099212646 0.563546538352966309
-2.28551912307739258 0.509076237678527832 0.34472772479057312
-1.79510116577148438 1.657318115234375 0.501060783863067627
-1.32289516925811768 1.36044836044311523 0.205810606479644775
-2.38973116874694824 1.27433717250823975 0.663769185543060303
-2.03453683853149414 0.0140526294708251953 0.408460855484008789
-1.80280387401580811 1.33293557167053223 0.521828651428222656
-2.70149469375610352 1.28753626346588135 0.0684738606214523315
-2.26241922378540039 1.43349087238311768 0.283530116081237793
-2.7352440357208252 1.77461838722229004 0.409911096096038818
-2.87786412239074707 1.03607749938964844 0.300473302602767944
-1.54780364036560059 1.46619844436645508 0.496733248233795166
-2.07871794700622559 0.0660703033208847046 0.722604572772979736
-2.10467839241027832 0.397090733051300049 0.360581666231155396
-0.954424500465393066 0.533640861511230469 0.375815689563751221
-2.58528232574462891 1.36817896366119385 0.273175090551376343
-1.3295217752456665 1.23329603672027588 0.402094662189483643
-1.52162539958953857 1.35979509353637695 0.280079036951065063
-2.69571661949157715 1.20747959613800049 0.388047695159912109
-2.3895266056060791 0.232554972171783447 0.684741973876953125
-1.25230419635772705 0.96629631519317627 0.211868003010749817
-1.54454457759857178 1.1252208948135376 0.264736205339431763
-1.71319484710693359 1.27919960021972656 0.27486458420753479
-2.35952973365783691 1.24937880039215088 0.0819567888975143433
-1.0623471736907959 0.810171246528625488 0.433267444372177124
-1.33812129497528076 1.00700259208679199 0.568035483360290527
-1.86710572242736816 1.1737593412399292 0.198300361633300781
-2.46932005882263184 1.09351181983947754 0.426390290260314941
-1.44961237907409668 1.21693789958953857 0.5653839111328125
-0.751821458339691162 0.60334622859954834 0.360943406820297241
-2.65419173240661621 1.24144577980041504 0.627186894416809082
-2.32657170295715332 1.61897313594818115 0.172155648469924927
-2.21077871322631836 0.205077633261680603 0.567914128303527832
-1.69959282875061035 1.66332459449768066 0.18924415111541748
-1.61672425270080566 0.974971175193786621 0.396938204765319824
-1.72407150268554688 1.15000605583190918 0.540358483791351318
-2.44315981864929199 1.46399283409118652 0.498283743858337402
-1.47460079193115234 0.730650722980499268 0.683882772922515869
-1.9189831018447876 1.25280797481536865 0.401971727609634399
-2.58335018157958984 1.59687328338623047 0.212732061743736267
-1.5160369873046875 0.868806838989257812 0.516110241413116455
-1.32472383975982666 0.800399720668792725 0.521197855472564697
-2.15297508239746094 0.310490906238555908 0.211143851280212402
-0.924610137939453125 0.788879871368408203 0.17888796329498291
-2.45379877090454102 1.64443802833557129 0.52576911449432373
-1.04184770584106445 0.361849993467330933 0.221678704023361206
-2.30941128730773926 1.30601298809051514 0.472027003765106201
-0.951424241065979004 0.345342874526977539 0.491594254970550537
-1.67500531673431396 1.28458285331726074 0.64293515682220459
-1.05365204811096191 0.676639676094055176 0.26837611198425293
-2.57631039619445801 1.70204031467437744 0.415647506713867188
-2.22512674331665039 0.00955485552549362183 0.794064760208129883
-2.55745077133178711 0.989940881729125977 0.195565670728683472
-2.35808420181274414 1.15056300163269043 0.54963153600692749
-1.63801062107086182 1.46096622943878174 0.195815727114677429
-2.69524645805358887 1.08797609806060791 -0.00361873768270015717
-1.1799929141998291 1.04155921936035156 0.524510025978088379
-1.79552376270294189 1.52720177173614502 0.211290299892425537
-2.26360654830932617 0.344929784536361694 0.330786317586898804
-1.8317573070526123 0.807353019714355469 0.315350145101547241
-2.44730043411254883 0.482364356517791748 0.358790427446365356
-2.43076229095458984 1.3575894832611084 0.328779369592666626
-1.10946440696716309 0.306377887725830078 0.552408337593078613
-2.66201877593994141 0.971065521240234375 0.507311165332794189
-1.68999338150024414 1.09874951839447021 0.196885555982589722
-2.47298097610473633 1.6176069974899292 0.0958142206072807312
-2.78499293327331543 1.52317404747009277 0.260749697685241699
-2.8274688720703125 1.4720994234085083 0.452194511890411377
-1.38686037063598633 0.95740896463394165 0.712107062339782715
-2.39351034164428711 0.202493429183959961 0.490337222814559937
-2.77135753631591797 1.65600335597991943 0.599753856658935547
-2.44490838050842285 1.22826051712036133 0.227148950099945068
-2.32221245765686035 1.03872978687286377 0.419245272874832153
-2.58726978302001953 1.48144423961639404 0.106878906488418579
-1.52415096759796143 1.12719035148620605 0.443100005388259888
-1.51808381080627441 1.57291638851165771 0.315622895956039429
-1.81817054748535156 1.48422372341156006 0.490276455879211426
-0.968952596187591553 0.54692995548248291 0.171521931886672974
-2.48279094696044922 1.50642192363739014 0.287034302949905396
-2.21173000335693359 0.331641495227813721 0.475021570920944214
-2.44349026679992676 0.860946476459503174 0.462236464023590088
-2.13186407089233398 0.104012981057167053 0.485081464052200317
-2.07139706611633301 0.437388956546783447 0.192961439490318298
-0.830747485160827637 0.406066030263900757 0.42300260066986084
-0.832212090492248535 0.59875953197479248 0.233017370104789734
-1.3285905122756958 1.06077480316162109 0.388309627771377563
-1.72672057151794434 1.37829184532165527 0.387113958597183228
-2.43718385696411133 1.06556689739227295 0.256049185991287231
-2.45109701156616211 1.07006919384002686 0.653713822364807129
-2.5981752872467041 1.38983261585235596 0.419509053230285645
-1.64068508148193359 1.57242321968078613 0.538582146167755127
-1.8247525691986084 0.913645744323730469 0.416685760021209717
-1.03412437438964844 0.466845035552978516 0.493271827697753906
-2.62909555435180664 1.08458590507507324 0.33552861213684082
-1.69805061817169189 1.12208425998687744 0.39949306845664978
-1.84830403327941895 0.194580644369125366 0.388489782810211182
-1.61637187004089355 1.03037261962890625 0.535556256771087646
-2.33092856407165527 0.0529807060956954956 0.70463031530380249
-1.25784945487976074 1.14588451385498047 0.251140117645263672
-2.13822078704833984 0.0767494365572929382 0.331758618354797363
-2.14789342880249023 0.260780811309814453 0.361346602439880371
-0.744986832141876221 0.476840376853942871 0.19791865348815918
-0.902197957038879395 0.245131105184555054 0.402821928262710571
-2.7012786865234375 1.01395511627197266 0.217829793691635132
-2.27195572853088379 1.2606428861618042 0.207559645175933838
-2.15312838554382324 0.326931416988372803 0.612914443016052246
-1.61578238010406494 1.18274545669555664 0.721280813217163086
-2.76529216766357422 1.05491101741790771 0.387986660003662109
-1.19525909423828125 0.420975267887115479 0.31937745213508606
-1.20457589626312256 0.962549388408660889 0.365990281105041504
-1.41556429862976074 1.37065613269805908 0.509157538414001465
-1.46734976768493652 1.13868916034698486 0.764239907264709473
-2.29427361488342285 0.0876906216144561768 0.499557465314865112
-2.54166388511657715 1.72124826908111572 0.28181535005569458
-1.93390119075775146 0.0908298343420028687 0.350438594818115234
-2.73898601531982422 1.29662668704986572 0.20177614688873291
-2.68836545944213867 1.54840099811553955 0.507132351398468018
-2.33181166648864746 1.19828450679779053 0.761912822723388672
-1.47278332710266113 1.44219458103179932 0.384659945964813232
-2.27489161491394043 1.60135555267333984 0.45511859655380249
-1.05859887599945068 0.447605401277542114 0.355802476406097412
-1.48398435115814209 1.41578948497772217 0.0073177143931388855
-1.3284308910369873 1.15163791179656982 0.509766817092895508
-0.988303899765014648 0.676012933254241943 0.136871486902236938
-1.54024457931518555 0.86728900671005249 0.326526224613189697
-2.05037355422973633 0.129350855946540833 0.587992370128631592
-0.852622032165527344 0.328059732913970947 0.592777550220489502
-0.788769543170928955 0.565137207508087158 0.48290523886680603
-1.7558128833770752 1.34997391700744629 0.170806527137756348
-1.41701912879943848 1.09596109390258789 0.296320259571075439
-2.56617927551269531 1.21426248550415039 0.362386882305145264
-1.62919926643371582 0.918123424053192139 0.673095881938934326
-2.79038691520690918 1.3467252254486084 0.445476531982421875
-2.84422898292541504 1.68247711658477783 0.277533829212188721
-0.648058533668518066 0.695417225360870361 0.261464029550552368
-2.52863621711730957 0.863044917583465576 0.263247966766357422
-0.979133486747741699 0.346214562654495239 0.356429189443588257
-2.42135763168334961 1.21272861957550049 0.352293431758880615
-2.56413173675537109 1.46903598308563232 0.53983008861541748
-1.61509478092193604 1.37246108055114746 0.550394773483276367
-1.42842113971710205 1.26416516304016113 0.153876006603240967
-2.35692095756530762 1.47052419185638428 0.406165182590484619
-2.70297074317932129 1.65293598175048828 0.395129114389419556
-1.74032199382781982 1.65359020233154297 0.335046529769897461
-1.61355936527252197 1.43360340595245361 0.391000747680664062
-2.71108531951904297 1.41186630725860596 0.244184762239456177
-1.47940742969512939 1.25091886520385742 0.326944530010223389
-1.42443740367889404 0.899384558200836182 0.261487185955047607
-2.60558915138244629 1.07982587814331055 0.530982494354248047
-2.57721066474914551 1.00937414169311523 0.424674361944198608
-1.60039067268371582 1.29476284980773926 0.209114134311676025
-1.30559062957763672 0.806130290031433105 0.348205089569091797
-1.36143529415130615 1.07879769802093506 0.666007280349731445
-1.49963927268981934 0.988552570343017578 0.540220439434051514
-1.16902410984039307 0.673275351524353027 0.228853493928909302
-1.54182827472686768 1.39145815372467041 0.164386570453643799
-1.26350080966949463 0.905218124389648438 0.525334835052490234
-1.03299295902252197 0.872318565845489502 0.333345234394073486
-1.73744964599609375 1.56177270412445068 0.110634446144104004
-1.42979288101196289 1.09489905834197998 0.543918490409851074
-1.59073781967163086 1.18570542335510254 0.603168368339538574
-2.49987530708312988 1.60165619850158691 0.424336612224578857
-1.09757435321807861 0.311361253261566162 0.313561558723449707
-1.19145381450653076 0.646306216716766357 0.369571298360824585
-2.65913605690002441 1.7649986743927002 0.320434987545013428
-1.83319211006164551 1.27852272987365723 0.239349931478500366
-1.07902431488037109 0.562252581119537354 0.370302736759185791
-2.66842961311340332 1.22561442852020264 0.511795520782470703
-1.9464414119720459 0.164775103330612183 0.467004239559173584
-2.60553812980651855 1.34346342086791992 0.52643132209777832
-2.6915590763092041 1.09076416492462158 0.131023362278938293
-2.2520148754119873 0.361370652914047241 0.17936156690120697
-1.44515669345855713 1.23282670974731445 0.435536354780197144
-1.6605912446975708 1.3869553804397583 0.280435562133789062
-2.32845401763916016 0.312765419483184814 0.423099488019943237
-2.18015575408935547 0.416539758443832397 0.277475923299789429
-1.02408146858215332 0.452178239822387695 0.143474385142326355
-1.49125361442565918 1.04322206974029541 0.367191851139068604
-1.7314765453338623 1.56141996383666992 0.433042854070663452
-2.73620104789733887 1.65476024150848389 0.286703348159790039
-2.10324764251708984 0.232386112213134766 0.644922375679016113
-1.44855499267578125 0.804176449775695801 0.456187158823013306
-1.62673759460449219 1.5799870491027832 0.197063863277435303
-2.33837771415710449 1.30683779716491699 0.283428490161895752
-2.43544650077819824 1.00650155544281006 0.486118972301483154
-1.62344002723693848 1.22616326808929443 0.312501251697540283
-1.82096636295318604 1.20257282257080078 0.413333654403686523
-0.958384513854980469 0.348437011241912842 0.617992281913757324
-2.45487880706787109 1.36501693725585938 0.544560551643371582
-2.19828701019287109 0.224998459219932556 0.452387899160385132
-1.68780577182769775 1.31714236736297607 0.488247394561767578
-2.47696018218994141 1.40919065475463867 0.200824782252311707
-2.79718565940856934 1.12797713279724121 0.466007769107818604
