ply
format ascii 1.0
element vertex 256
comment vertices
property float x
property float y
property float z
end_header
-0.238135740160942078 -0.837437689304351807 -0.0316964052617549896
-1.41675269603729248 2.82202887535095215 0.0176631435751914978
2.03875279426574707 -0.788739025592803955 0.098630368709564209
-1.84466445446014404 0.779137372970581055 0.314641952514648438
-0.183807075023651123 1.82212972640991211 0.390898525714874268
0.019999505952000618 -2.221405029296875 0.389325857162475586
-0.618661999702453613 0.524783611297607422 0.0794112235307693481
0.955421805381774902 -0.127993136644363403 0.0744904130697250366
-1.09936165809631348 -1.87765228748321533 -0.0488292165100574493
-1.11187875270843506 -0.300407856702804565 0.291872203350067139
-0.443077236413955688 -1.65026736259460449 0.194603174924850464
1.62519478797912598 -0.408722639083862305 0.25032418966293335
-1.64636695384979248 1.16711151599884033 0.584826648235321045
-0.763014674186706543 -0.58470761775970459 0.110353581607341766
-1.01970362663269043 0.601996302604675293 0.239618152379989624
-0.705802321434020996 -0.269983887672424316 0.435287535190582275
1.67517566680908203 -0.828015327453613281 0.32112276554107666
-0.129568859934806824 -1.9086071252822876 0.0923525318503379822
-0.430924087762832642 2.06483817100524902 0.15871080756187439
-0.701630175113677979 -1.94718587398529053 0.000987395644187927246
-1.22780227661132812 2.48426198959350586 0.0736100748181343079
1.73929774761199951 -0.998626112937927246 -0.0155387148261070251
-0.543563604354858398 1.88374614715576172 0.501204729080200195
-0.866167783737182617 -1.65761947631835938 0.141009971499443054
0.0452443212270736694 -1.86296975612640381 0.419420391321182251
-0.933864295482635498 0.553169846534729004 -0.103538468480110168
-0.371931135654449463 -2.02591657638549805 0.325037896633148193
-0.29283866286277771 -1.06777846813201904 0.233012840151786804
1.95324552059173584 -0.436053812503814697 0.322479099035263062
-0.327812820672988892 2.1703794002532959 0.459228157997131348
-1.00709402561187744 0.0103223361074924469 0.344519585371017456
-1.85704374313354492 1.11461508274078369 0.33401903510093689
1.25252234935760498 -0.0460428744554519653 0.0955867916345596313
-1.5831444263458252 0.891843616962432861 0.420925796031951904
1.75675344467163086 -0.561407566070556641 0.0304402131587266922
-0.44396519660949707 1.77599620819091797 0.138546675443649292
-1.57836306095123291 2.74511170387268066 0.232516348361968994
-0.0266234278678894043 -2.20206260681152344 0.115997515618801117
-0.437114506959915161 -0.816459059715270996 0.160265743732452393
-0.90209507942199707 0.38314354419708252 0.118733949959278107
1.09810769557952881 -0.35697251558303833 0.0172858349978923798
-0.792732357978820801 0.736024558544158936 0.0907990336418151855
-0.847081661224365234 -0.273052781820297241 0.207745790481567383
-0.452985912561416626 -1.88763809204101562 0.0851394608616828918
-0.827363252639770508 -1.74882936477661133 -0.114177495241165161
-1.30129194259643555 2.65982294082641602 0.236642301082611084
1.886435866355896 -0.669426500797271729 0.257846415042877197
-0.855222165584564209 -0.485702604055404663 0.334280490875244141
-0.618980765342712402 -1.53771793842315674 0.0620013736188411713
-0.353216290473937988 1.64642643928527832 0.384996652603149414
0.0898894071578979492 -1.98410165309906006 0.212750688195228577
-0.917793631553649902 -1.89505219459533691 0.147881165146827698
-0.135772690176963806 -2.02105259895324707 0.390557318925857544
1.86074280738830566 -0.954779267311096191 0.179673954844474792
-1.80771660804748535 0.947318136692047119 0.483480930328369141
-1.0849461555480957 2.65302228927612305 0.0986918807029724121
1.72581863403320312 -0.783693790435791016 0.034724116325378418
1.65021121501922607 -0.623552680015563965 0.209057241678237915
-0.920966923236846924 -0.271225124597549438 0.429483801126480103
-1.81386816501617432 0.95593106746673584 0.200751334428787231
-0.417283415794372559 1.93989312648773193 0.327128618955612183
1.90456759929656982 -0.809264779090881348 -0.0708927810192108154
-0.678538322448730469 0.660273730754852295 -0.0637376978993415833
1.94992053508758545 -0.539265811443328857 0.116648361086845398
-0.180772885680198669 -0.931397616863250732 0.140137091279029846
-0.16099230945110321 -2.20669174194335938 0.318760216236114502
-0.977763652801513672 0.661440193653106689 0.0466015823185443878
1.8298112154006958 -0.393194675445556641 0.0742267370223999023
-0.261928200721740723 1.997763991355896 0.422786295413970947
-0.983406424522399902 -0.13792082667350769 0.232690438628196716
-0.74033653736114502 -1.84539389610290527 0.177471846342086792
0.962594747543334961 -0.247417300939559937 -0.0671772807836532593
-0.818296134471893311 0.559618115425109863 0.139563471078872681
-0.440731644630432129 1.73553955554962158 0.538578510284423828
-0.592607080936431885 -1.98405694961547852 0.155045688152313232
-1.07802700996398926 -1.75660252571105957 0.0814822912216186523
1.10901689529418945 -0.0496444553136825562 -0.0104980021715164185
0.0370851308107376099 -2.04568386077880859 0.427600085735321045
-1.68473434448242188 1.1480705738067627 0.362760335206985474
-0.924237489700317383 -1.90012860298156738 -0.0300619900226593018
-0.256862223148345947 -2.06445455551147461 0.197621569037437439
1.80421566963195801 -0.510602891445159912 0.370838433504104614
-0.417135536670684814 -0.830667495727539062 -0.00965070724487304688
-0.96184074878692627 -1.63901996612548828 0.00114353746175765991
1.85431599617004395 -0.807002902030944824 0.350936174392700195
-1.28367960453033447 2.7424919605255127 0.085048675537109375
-0.0294554680585861206 -2.10297536849975586 0.280659019947052002
-0.755524754524230957 0.469527482986450195 -0.000233029015362262726
-0.453938424587249756 2.0615077018737793 0.444004207849502563
-1.46502268314361572 2.62996745109558105 0.190035521984100342
1.86773097515106201 -0.71795046329498291 0.0916330814361572266
-0.676231265068054199 -1.67416155338287354 -0.0120237665250897408
-0.241337865591049194 1.83567428588867188 0.237238436937332153
-1.53850972652435303 1.07406210899353027 0.502819716930389404
-0.721074521541595459 -0.453303486108779907 0.199046343564987183
-0.44778519868850708 -1.87287449836730957 0.24758504331111908
-1.07226467132568359 -0.159319192171096802 0.365880995988845825
-0.858262538909912109 0.693711519241333008 -0.113826915621757507
-1.65114188194274902 0.956864714622497559 0.293624371290206909
1.71848452091217041 -0.907518208026885986 0.130821511149406433
-0.496138989925384521 1.80482792854309082 0.31664314866065979
1.75675392150878906 -0.736829042434692383 0.20172940194606781
0.992802977561950684 -0.357254117727279663 0.131521910429000854
-0.883159935474395752 0.673531413078308105 0.232884868979454041
-0.826373398303985596 -1.77609908580780029 0.0516626238822937012
-0.995661795139312744 -1.77119815349578857 -0.0850190222263336182
-0.0618998706340789795 -2.03762698173522949 0.137483835220336914
-0.0364007949829101562 -1.94817972183227539 0.290073961019515991
-0.372933089733123779 1.8828967809677124 0.458998888731002808
1.11893939971923828 -0.104437634348869324 0.129445165395736694
1.78610587120056152 -0.676141142845153809 0.372318923473358154
-1.20932126045227051 2.65469980239868164 -0.0090990457683801651
1.76294207572937012 -0.526852607727050781 0.203494861721992493
-0.374351024627685547 -0.702675223350524902 0.0516082942485809326
-0.699683427810668945 -0.29423820972442627 0.29033350944519043
-0.649686217308044434 -1.81318724155426025 0.0673965662717819214
-0.815033018589019775 -0.160136982798576355 0.294629216194152832
-0.99406588077545166 -0.390974193811416626 0.392975032329559326
-0.750911176204681396 -1.70977461338043213 0.223017707467079163
1.87221717834472656 -0.949373364448547363 0.0061683356761932373
-1.72262489795684814 0.819628357887268066 0.377721965312957764
-0.356302171945571899 1.79413497447967529 0.341790914535522461
-0.912728071212768555 -1.79451370239257812 0.248590141534805298
-1.9232022762298584 0.935748875141143799 0.289206743240356445
-0.510159194469451904 2.04367804527282715 0.299878478050231934
1.04808640480041504 -0.230685323476791382 0.0521136894822120667
-0.905038654804229736 0.522073686122894287 0.0364596694707870483
-1.05165183544158936 -0.245869606733322144 0.177005529403686523
1.94552421569824219 -0.794988632202148438 0.249345198273658752
-0.787175238132476807 0.614223003387451172 0.0185290127992630005
-1.65021347999572754 1.00837254524230957 0.428896665573120117
-0.129596054553985596 -1.88697218894958496 0.388440191745758057
-1.06446325778961182 -1.87531447410583496 0.142632052302360535
-1.73974442481994629 1.08369982242584229 0.537262499332427979
-0.885108351707458496 -0.358299314975738525 0.308771520853042603
-0.17150627076625824 -1.92468762397766113 0.217587798833847046
-0.725865781307220459 -0.519996225833892822 0.313794344663619995
-1.70059871673583984 0.917574465274810791 0.555383861064910889
-0.13171599805355072 -0.759471476078033447 -0.0234286114573478699
2.00246405601501465 -0.888152718544006348 0.0202114582061767578
-0.549542009830474854 1.95992815494537354 0.391957849264144897
1.63026535511016846 -0.497335851192474365 0.15475994348526001
1.87047803401947021 -0.847904801368713379 0.092632487416267395
1.87718594074249268 -0.687370419502258301 -0.0321625545620918274
-0.106305807828903198 -2.13979530334472656 0.427494317293167114
-0.983126580715179443 0.524685978889465332 0.145275458693504333
-0.936957895755767822 -1.77098262310028076 0.11337512731552124
-0.808340251445770264 -0.409880518913269043 0.423674851655960083
-0.358299493789672852 -1.94056475162506104 0.148711845278739929
-1.76319634914398193 1.05935180187225342 0.396889477968215942
0.135760098695755005 -1.97219359874725342 0.434836059808731079
-1.20399975776672363 2.6277315616607666 0.116932123899459839
1.87132000923156738 -0.486040294170379639 0.242584943771362305
1.67962837219238281 -0.63249671459197998 0.326936125755310059
-0.943120718002319336 -0.251718789339065552 0.30106741189956665
-1.77187895774841309 0.928421616554260254 0.35680660605430603
-1.58307814598083496 0.969169497489929199 0.543659567832946777
-0.980392277240753174 -0.0974026620388031006 0.413758218288421631
-1.94131755828857422 1.02389848232269287 0.369624495506286621
-0.986110448837280273 0.702527642250061035 0.177159443497657776
-0.834488391876220703 -1.91253650188446045 0.04855361208319664
-0.245492473244667053 -2.15194153785705566 0.383255332708358765
0.0463141947984695435 -2.23598623275756836 0.204055726528167725
1.94715213775634766 -1.0038609504699707 0.0794629752635955811
0.939700782299041748 -0.256795823574066162 0.102589644491672516
1.84323251247406006 -0.610114097595214844 0.166892662644386292
-0.874985694885253906 0.729309678077697754 -0.00441874191164970398
-0.453989505767822266 1.74804627895355225 0.424048066139221191
-0.170617252588272095 -0.927139699459075928 -0.00512602366507053375
-1.14090299606323242 -0.156176745891571045 0.273282855749130249
-1.31222748756408691 2.61770343780517578 0.0268219113349914551
-0.878992676734924316 -0.069853365421295166 0.267341047525405884
-0.829620838165283203 -0.27076682448387146 0.361438930034637451
-0.844807028770446777 -1.97989916801452637 0.168239399790763855
1.82228708267211914 -0.961328268051147461 -0.0952280014753341675
-0.729073524475097656 0.489273965358734131 0.137290328741073608
-0.195344001054763794 -2.02827620506286621 0.285886555910110474
1.84468245506286621 -0.512052416801452637 0.081301368772983551
1.97315645217895508 -0.889137387275695801 0.193506985902786255
-0.649549305438995361 0.629093527793884277 0.0503077432513237
-0.357120513916015625 2.02788639068603516 0.372473180294036865
1.93665468692779541 -0.431505203247070312 0.170697048306465149
-0.188031107187271118 -0.824036598205566406 0.113410234451293945
1.82831144332885742 -0.819597840309143066 0.209140777587890625
-0.344948470592498779 -0.879331827163696289 0.0569718256592750549
-0.276313453912734985 1.87835264205932617 0.373709142208099365
1.74549257755279541 -0.826441407203674316 0.404465645551681519
-0.202037423849105835 1.90885734558105469 0.454198300838470459
-0.843641102313995361 -1.79950988292694092 0.161430060863494873
-1.03577935695648193 -1.89518475532531738 0.039677053689956665
-0.0412656776607036591 -2.04743027687072754 0.502136707305908203
-0.503136873245239258 -1.70665562152862549 0.125285983085632324
1.9464186429977417 -0.737914323806762695 0.15885336697101593
-0.86671215295791626 0.537391483783721924 0.230205729603767395
-0.74742966890335083 0.635403871536254883 0.123474299907684326
1.14282453060150146 -0.232066527009010315 0.0069906972348690033
-1.91684567928314209 0.858309030532836914 0.357702076435089111
1.07633459568023682 -0.148478969931602478 -0.00382251478731632233
-0.00542076677083969116 -2.14637660980224609 0.454417198896408081
-0.60869520902633667 -1.82042109966278076 0.16097491979598999
-0.89678037166595459 -1.69195246696472168 -0.0659596025943756104
-0.884095907211303711 -0.176980525255203247 0.417843014001846313
-0.445895612239837646 1.95138216018676758 0.424142301082611084
-0.106464676558971405 -2.03051567077636719 0.236651808023452759
-0.330094814300537109 -0.725840389728546143 -0.0368356704711914062
-0.773214101791381836 -0.368658125400543213 0.219868302345275879
-0.822832584381103516 -1.64646470546722412 0.0499437972903251648
-0.794221997261047363 -0.304682165384292603 0.470769166946411133
1.75413429737091064 -0.958911657333374023 0.209188655018806458
-1.36907637119293213 2.67695450782775879 0.164785087108612061
1.74810159206390381 -0.449798107147216797 0.0870810002088546753
1.68280625343322754 -0.86306154727935791 0.22799508273601532
-0.893701016902923584 0.61691516637802124 0.0766981542110443115
-0.0617077946662902832 -1.97045743465423584 0.432923197746276855
-1.61976981163024902 1.05804204940795898 0.566534161567687988
-1.01690554618835449 -0.253554344177246094 0.416071116924285889
-0.504745304584503174 -1.95094180107116699 0.263067841529846191
1.78232955932617188 -0.910151362419128418 -0.0229392126202583313
1.80407047271728516 -0.806230068206787109 -0.0181506723165512085
1.78153014183044434 -0.674745082855224609 0.129341483116149902
1.72383081912994385 -0.511384308338165283 0.317007839679718018
-1.03827524185180664 -1.73758959770202637 -0.00498091802000999451
-0.742319643497467041 0.724503159523010254 -0.030556894838809967
1.70008254051208496 -0.795611083507537842 0.150554373860359192
1.04403591156005859 -0.0860691368579864502 0.0621124804019927979
1.99610185623168945 -0.763859450817108154 0.0165688842535018921
-0.455243885517120361 1.84349191188812256 0.42849045991897583
-1.13992416858673096 2.6004035472869873 0.0411246716976165771
-0.879178822040557861 0.737330198287963867 0.130896478891372681
-0.859924972057342529 -1.8003692626953125 -0.0340851135551929474
-1.60495495796203613 0.880697071552276611 0.326767563819885254
-1.1444244384765625 -0.238339722156524658 0.355708003044128418
1.79270815849304199 -0.655328154563903809 0.233626618981361389
1.72501909732818604 -0.712570905685424805 0.306355595588684082
-0.755188286304473877 -1.80985748767852783 0.00031315535306930542
-1.86662745475769043 0.932390928268432617 0.412062466144561768
0.0555917248129844666 -1.96534430980682373 0.383072018623352051
-0.661119639873504639 -1.92234480381011963 0.138814836740493774
-0.733123481273651123 -0.190365225076675415 0.327322304248809814
1.83198285102844238 -0.560868561267852783 0.281592190265655518
1.77771389484405518 -0.840208828449249268 0.105991631746292114
1.23125505447387695 -0.135258466005325317 0.111053332686424255
-0.866302013397216797 0.632922530174255371 -0.0265314280986785889
-0.18022976815700531 -2.20034265518188477 0.428254842758178711
1.79324209690093994 -0.446950823068618774 0.304287999868392944
1.89622235298156738 -0.388730406761169434 0.242299824953079224
-1.02029168605804443 -0.30738559365272522 0.282444417476654053
-0.226927459239959717 -2.02732157707214355 0.403807640075683594
0.037210807204246521 -2.11800336837768555 0.218765571713447571
-0.0457649976015090942 -2.04517173767089844 0.350411772727966309
-0.978090941905975342 -0.0894157886505126953 0.322098970413208008
-0.886176407337188721 -1.98499071598052979 0.0252409912645816803
-0.372878670692443848 -1.91852188110351562 0.274332165718078613
-1.73346841335296631 0.959285438060760498 0.433670997619628906
-0.138811662793159485 -2.08908867835998535 0.321124672889709473
-0.227776020765304565 -0.90008997917175293 0.0698880404233932495
