ply
format ascii 1.0
element vertex 64
comment vertices
property float x
property float y
property float z
end_header
0.997161686420440674 0.0752900615334510803 0.0541750378906726837
0.705469489097595215 0.708740293979644775 0.355633646249771118
-0.983018457889556885 -0.183506622910499573 0.294318139553070068
0.498655378818511963 -0.866800308227539062 0.225082054734230042
-0.0877995043992996216 0.996138155460357666 0.199650511145591736
-0.0110890371724963188 -1.9999692440032959 0.267805874347686768
1.87496137619018555 -0.696074724197387695 0.16494789719581604
0.843120455741882324 -0.537724673748016357 0.188958197832107544
-1.17589902877807617 1.61779534816741943 0.0650350451469421387
0.823379456996917725 1.82264816761016846 0.0539004169404506683
0 0 0
0 0 0
0 0 0
0 0 0
0 0 0
0 0 0
0 0 0
0 0 0
0 0 0
0 0 0
0 0 0
0 0 0
0 0 0
0 0 0
0 0 0
0 0 0
0 0 0
0 0 0
0 0 0
0 0 0
0 0 0
0 0 0
0 0 0
0 0 0
0 0 0
0 0 0
0 0 0
0 0 0
0 0 0
0 0 0
0 0 0
0 0 0
0 0 0
0 0 0
0 0 0
0 0 0
0 0 0
0 0 0
0 0 0
0 0 0
0 0 0
0 0 0
0 0 0
0 0 0
0 0 0
0 0 0
0 0 0
0 0 0
0 0 0
0 0 0
0 0 0
0 0 0
0 0 0
0 0 0
