ply
format ascii 1.0
element vertex 256
comment vertices
property float x
property float y
property float z
end_header
-2.28763771057128906 4.92699098587036133 0.487165689468383789
1.00611269474029541 -1.40654599666595459 0.0861122161149978638
-3.66295528411865234 -0.0652303099632263184 0.446409136056900024
2.88762760162353516 2.37752676010131836 0.0793051272630691528
-0.705568552017211914 1.59817886352539062 0.214002013206481934
-1.39663147926330566 -1.2357330322265625 1.15285742282867432
0.333249688148498535 3.42354202270507812 0.0328175649046897888
1.08301234245300293 1.12180423736572266 0.0522217974066734314
-2.66755056381225586 2.70781779289245605 -0.0343736298382282257
-3.3251807689666748 1.42998659610748291 -0.404698669910430908
3.60722231864929199 0.926674604415893555 0.101442970335483551
-1.96761071681976318 0.0618477761745452881 -0.338147729635238647
0.199103266000747681 1.86575233936309814 0.0637113973498344421
-0.4899405837059021 -0.547467470169067383 -0.388061106204986572
2.32606410980224609 1.94910454750061035 1.5174640417098999
2.03217339515686035 1.60386765003204346 0.134983152151107788
-0.407965779304504395 0.309841185808181763 -0.109291501343250275
1.12690019607543945 2.34308862686157227 0.131168514490127563
-2.45452880859375 -1.20024013519287109 0.501913249492645264
-2.36667490005493164 0.492731988430023193 0.592769861221313477
-1.10436403751373291 2.30624175071716309 0.031706981360912323
3.46588397026062012 1.69506478309631348 0.809499919414520264
-1.55100810527801514 0.948519468307495117 0.735367417335510254
-0.923678576946258545 -0.0692872703075408936 0.644315838813781738
-3.39712953567504883 1.28091800212860107 0.981673598289489746
0.922865927219390869 -0.132978945970535278 0.103094041347503662
-2.6769554615020752 -0.247999712824821472 -0.289712876081466675
0.129121676087379456 0.639805793762207031 0.0739028826355934143
-2.8871467113494873 4.4028630256652832 -0.389751940965652466
-3.6432335376739502 -1.20730364322662354 0.459895402193069458
0.883654415607452393 0.00643217563629150391 0.0825904235243797302
-1.2556154727935791 -1.22913825511932373 0.0578940063714981079
-0.264816880226135254 0.630219221115112305 0.380573093891143799
2.30179738998413086 1.91874778270721436 0.454204767942428589
1.78933870792388916 -0.744703412055969238 0.0545519627630710602
-1.48202359676361084 0.332557797431945801 -0.11182829737663269
-1.02239882946014404 1.17234206199645996 -0.0917752459645271301
-3.25747561454772949 0.505616545677185059 0.011385008692741394
-2.91506671905517578 4.37776613235473633 1.04956746101379395
-2.47633028030395508 1.45484364032745361 0.314896553754806519
-0.446160018444061279 2.81733798980712891 0.0573827698826789856
1.09919869899749756 2.81644344329833984 0.10873384028673172
-1.94227111339569092 2.30330419540405273 0.493728011846542358
2.65832161903381348 0.919378280639648438 0.200772345066070557
-1.97312283515930176 5.23653364181518555 -0.397030174732208252
0.956533610820770264 1.29972243309020996 0.00715491920709609985
-2.91948223114013672 5.29045724868774414 -0.0758038610219955444
1.87720358371734619 0.64237058162689209 0.0561969280242919922
-2.42173576354980469 0.520813465118408203 -0.404118716716766357
2.01646327972412109 2.29332327842712402 0.373457849025726318
-2.8762507438659668 5.27229595184326172 1.09225308895111084
-1.61594462394714355 1.58176052570343018 0.361676514148712158
-3.47458100318908691 -0.697210729122161865 -0.241200417280197144
-0.613947749137878418 1.07794070243835449 0.0511721372604370117
-1.81443583965301514 -0.0701900646090507507 0.546328306198120117
-1.98452615737915039 4.37926006317138672 -0.177100330591201782
2.25549912452697754 1.90497457981109619 -0.397329539060592651
-2.40274524688720703 -0.0812036693096160889 0.508151113986968994
-0.0482331514358520508 -1.16814541816711426 -0.403035402297973633
2.74504566192626953 1.77107739448547363 0.282642245292663574
3.08751225471496582 1.59850358963012695 0.00512799620628356934
-1.49266505241394043 0.091446995735168457 0.781508088111877441
-0.465901076793670654 -1.06308209896087646 0.336820036172866821
-1.24557328224182129 -0.60194087028503418 0.65247642993927002
-3.06237030029296875 -0.619193196296691895 0.521207273006439209
-1.05044722557067871 0.273497045040130615 0.360336363315582275
-3.3773655891418457 0.481638550758361816 0.860228419303894043
0.200249075889587402 0.376939654350280762 -0.170841559767723083
-1.70072638988494873 2.76895046234130859 -0.0429146997630596161
-2.74971318244934082 -1.00059831142425537 -0.236297339200973511
-0.518281757831573486 -1.27259254455566406 -0.388098597526550293
-1.22940528392791748 -0.647048115730285645 -0.387349307537078857
-2.76679515838623047 4.37296104431152344 0.324933856725692749
-3.14918255805969238 1.16225528717041016 0.319551050662994385
-2.45364260673522949 1.44893991947174072 -0.402076780796051025
-1.31616616249084473 -0.0529934987425804138 0.0547512173652648926
-1.06807386875152588 1.03435325622558594 0.395652323961257935
0.378340840339660645 2.75178623199462891 0.159937381744384766
-0.986918389797210693 -0.118214502930641174 -0.115312620997428894
-2.29815411567687988 2.15667080879211426 -0.025946442037820816
-0.283194959163665771 0.464427292346954346 -0.254830151796340942
1.11030459403991699 -0.763504445552825928 -0.00711129605770111084
2.03716087341308594 0.978817582130432129 -0.0107072964310646057
2.59147858619689941 1.51110637187957764 0.440205186605453491
0.96300351619720459 3.4205329418182373 -0.0601201094686985016
1.91827225685119629 1.73654544353485107 0.103814318776130676
-0.27387315034866333 1.47347772121429443 -0.272745192050933838
-1.48872566223144531 1.49548602104187012 -0.253744959831237793
-0.278697073459625244 3.41404008865356445 0.154179677367210388
0.308890104293823242 1.24953150749206543 0.129471093416213989
-2.91733074188232422 4.99397420883178711 0.479257792234420776
1.26450943946838379 0.520062088966369629 0.016277901828289032
-0.805268228054046631 -0.561893105506896973 0.184658512473106384
-0.320522189140319824 -0.00641795247793197632 0.40763092041015625
-1.99651432037353516 4.37903165817260742 0.480504035949707031
-3.04024863243103027 0.00538977980613708496 0.484581589698791504
-1.54310691356658936 0.900158166885375977 0.126275002956390381
-0.286008059978485107 1.20880722999572754 0.382212698459625244
-1.69645142555236816 2.18049168586730957 -0.0701745152473449707
-0.950075507164001465 0.569099903106689453 -0.0740937739610671997
-2.5653688907623291 0.891977906227111816 0.186336219310760498
3.63257479667663574 1.53836250305175781 0.178598165512084961
2.35731029510498047 1.76066124439239502 -0.302597075700759888
-3.05987429618835449 -1.21884608268737793 0.464900374412536621
2.37398457527160645 2.15620326995849609 0.995891690254211426
-3.66962289810180664 -0.642746865749359131 0.506872832775115967
3.07940053939819336 1.18427038192749023 0.370589315891265869
2.23738861083984375 1.72544682025909424 0.569843769073486328
-2.48204517364501953 -0.630821049213409424 0.529212474822998047
1.66957759857177734 2.24390292167663574 -0.0579437799751758575
-1.27717554569244385 -1.15638566017150879 0.610011696815490723
2.29900932312011719 2.25465917587280273 0.0822107940912246704
2.46493673324584961 2.36881804466247559 0.652611136436462402
-3.24090814590454102 -0.195089876651763916 -0.243963330984115601
-0.557138800621032715 1.00487661361694336 -0.0399155132472515106
2.55491161346435547 1.41135036945343018 -0.0575767531991004944
-2.29760599136352539 2.69364809989929199 0.338732242584228516
-2.00225281715393066 5.29295778274536133 0.174692630767822266
-0.0465058386325836182 2.97143316268920898 0.382989883422851562
-1.50173270702362061 -0.0649134069681167603 0.262020587921142578
-1.54253888130187988 1.07498955726623535 0.281028062105178833
-1.37727212905883789 -0.674151003360748291 1.16589319705963135
-2.9433133602142334 0.494026243686676025 0.567490220069885254
-1.47314596176147461 0.553474128246307373 0.425912797451019287
-3.00273990631103516 -0.594929635524749756 -0.015248030424118042
-1.48556923866271973 2.48087406158447266 0.302206993103027344
2.40043807029724121 2.35496234893798828 -0.0787561759352684021
0.688217818737030029 3.12471628189086914 0.234654486179351807
3.09762144088745117 0.955337584018707275 -0.0621736012399196625
-2.71905398368835449 4.81315994262695312 0.951862335205078125
-1.37719738483428955 0.0869204103946685791 0.508060574531555176
2.24701142311096191 1.22324490547180176 0.324397921562194824
2.98135137557983398 1.68291926383972168 0.700795292854309082
-0.577322244644165039 0.337195128202438354 0.218073666095733643
-1.2605900764465332 -0.699714064598083496 0.158626899123191833
-3.28689289093017578 0.912559926509857178 0.702976703643798828
-1.21983158588409424 2.74628186225891113 -0.0292001590132713318
-2.55599784851074219 5.295318603515625 0.376080423593521118
-1.76055407524108887 -0.0909822434186935425 0.0771312862634658813
-2.86285567283630371 1.42049312591552734 0.582285642623901367
0.0950285196304321289 3.05037879943847656 -0.0375677607953548431
-0.690059125423431396 0.757478654384613037 0.359249800443649292
-2.75181198120117188 2.27865481376647949 0.0811453759670257568
-0.150004833936691284 1.3011469841003418 0.0390190333127975464
1.52814257144927979 2.3478538990020752 0.366792619228363037
-1.14464592933654785 1.52662467956542969 0.350938886404037476
-0.866917014122009277 -0.0685360953211784363 0.192654579877853394
-1.23794186115264893 -1.18663573265075684 -0.404568314552307129
-2.1481928825378418 2.6783754825592041 -0.0769004225730895996
-0.887274563312530518 -1.20516419410705566 0.350480705499649048
-1.30051875114440918 0.677007675170898438 0.400239497423171997
0.871360957622528076 0.726359903812408447 0.0710821151733398438
-0.282804518938064575 1.60947155952453613 0.137881264090538025
-1.84527802467346191 2.68703031539916992 0.367828160524368286
0.64388883113861084 -0.758709490299224854 0.0383374467492103577
-0.548961162567138672 -0.0988018959760665894 -0.119506150484085083
-2.35767769813537598 2.23709368705749512 0.401940584182739258
-0.541522383689880371 0.623469710350036621 -0.12913338840007782
0.27364620566368103 3.21627116203308105 0.393193811178207397
-3.29551267623901367 1.44999969005584717 0.579268574714660645
-3.3456871509552002 0.550256252288818359 -0.392767637968063354
2.35935449600219727 1.69600856304168701 0.116647616028785706
-0.708614826202392578 1.14972007274627686 0.353804200887680054
-2.77845549583435059 0.532651603221893311 0.179572984576225281
-3.21743226051330566 1.45917487144470215 0.0356454402208328247
0.715482592582702637 2.80277204513549805 -0.0353316962718963623
-3.15009617805480957 -1.02368688583374023 -0.238636404275894165
-3.36086559295654297 -0.335830509662628174 0.530446887016296387
-3.15165972709655762 0.747893154621124268 0.313789039850234985
-2.74773383140563965 -0.317024111747741699 0.488832265138626099
3.36466717720031738 1.32892131805419922 -0.0743712633848190308
-2.71277427673339844 4.49416637420654297 0.707909107208251953
-2.77046680450439453 -0.921540796756744385 0.518755793571472168
1.42644035816192627 0.914678692817687988 0.0060657057911157608
-2.39870309829711914 4.44624090194702148 0.480695813894271851
-1.32720351219177246 0.528593122959136963 0.122073248028755188
-3.32833385467529297 -0.895430862903594971 0.470036506652832031
-2.61150717735290527 -0.63800126314163208 -0.216493383049964905
-1.48510420322418213 1.26647782325744629 -0.0851214751601219177
-0.540758609771728516 -1.28330850601196289 0.0223222076892852783
2.6178591251373291 1.53994619846343994 0.570076525211334229
-2.7194058895111084 4.51311111450195312 -0.0260577499866485596
2.84462404251098633 1.34284389019012451 0.140754848718643188
-0.876422762870788574 0.20243459939956665 -0.0726154893636703491
-0.391443222761154175 1.02545726299285889 0.162642449140548706
-2.71343374252319336 5.22496604919433594 0.716766119003295898
-2.84436655044555664 1.42721891403198242 0.186762884259223938
-0.481904894113540649 -0.648130059242248535 0.33697962760925293
-0.383102118968963623 1.58458209037780762 0.162504315376281738
2.35457682609558105 1.90329098701477051 0.122927114367485046
2.3510737419128418 2.25737857818603516 -0.312626659870147705
2.55760741233825684 2.37120747566223145 0.273298382759094238
2.01126408576965332 2.42679524421691895 -0.0384740680456161499
0.495560646057128906 1.54036462306976318 -0.0272103361785411835
1.99821388721466064 1.69844734668731689 -0.320778101682662964
2.96074962615966797 1.51882672309875488 0.430262893438339233
-1.39101135730743408 1.26904606819152832 0.390711098909378052
2.40456080436706543 1.06864070892333984 0.0101332813501358032
-1.93460988998413086 4.74258136749267578 0.453795313835144043
-1.43302488327026367 2.13378286361694336 0.211555406451225281
-1.50712823867797852 0.557679116725921631 0.782261371612548828
-1.25315773487091064 -0.916226983070373535 0.893206119537353516
-0.404146581888198853 3.08337593078613281 0.282375842332839966
1.44288015365600586 -0.799784183502197266 0.137496456503868103
-0.467982292175292969 -0.528637945652008057 -0.0140663981437683105
-0.235848844051361084 0.31438174843788147 0.0885189920663833618
-1.33763980865478516 0.0129096806049346924 -0.121018961071968079
1.16451442241668701 -0.410781145095825195 0.0615787841379642487
1.12560224533081055 3.16282963752746582 0.143932878971099854
0.419207334518432617 3.08302664756774902 -0.0429210662841796875
-0.086963653564453125 2.75782465934753418 0.0612199157476425171
-2.10375118255615234 4.52256155014038086 0.147745385766029358
-1.93223738670349121 2.14883184432983398 0.170255526900291443
-0.800973653793334961 0.880911588668823242 -0.0653627514839172363
3.49483728408813477 1.22936511039733887 0.225356265902519226
2.57520151138305664 1.14122319221496582 0.4557533860206604
-1.54499232769012451 1.01905262470245361 0.411432087421417236
-2.48609185218811035 1.43121159076690674 -0.0482386946678161621
-2.56441736221313477 4.73265409469604492 0.356913626194000244
2.76918697357177734 1.10186922550201416 -0.0755129158496856689
-1.95911312103271484 5.11231374740600586 0.507508456707000732
-0.745241284370422363 -0.915950238704681396 0.182142779231071472
-2.5813443660736084 2.50753259658813477 0.28693699836730957
-1.50148642063140869 -0.221209794282913208 0.456511020660400391
1.34979474544525146 2.38631224632263184 -0.154304414987564087
-2.78822684288024902 5.12513542175292969 -0.374365746974945068
-2.5336766242980957 0.535050749778747559 -0.0632923990488052368
-1.17155265808105469 -0.144963920116424561 0.368564128875732422
-1.12992763519287109 -0.940532445907592773 0.369357824325561523
0.0615913122892379761 3.40537023544311523 0.21770775318145752
-1.88205575942993164 2.48804616928100586 0.004083290696144104
1.14002037048339844 -1.09259819984436035 0.0529295541346073151
-0.321678429841995239 0.91604149341583252 0.225907713174819946
2.34740877151489258 1.54986834526062012 0.233388185501098633
-0.267391443252563477 3.10605978965759277 -0.0168899893760681152
-1.12335371971130371 0.859341740608215332 -0.100091904401779175
-2.9091036319732666 5.29648351669311523 0.325248867273330688
-3.28073692321777344 0.486019790172576904 0.531703352928161621
0.668618440628051758 3.41283750534057617 0.0628102943301200867
1.1551898717880249 0.202185064554214478 0.0120782908052206039
-1.50332331657409668 1.60406672954559326 0.0551927536725997925
0.347838670015335083 -0.672356486320495605 0.00939071178436279297
-2.76484560966491699 1.12828624248504639 0.305395960807800293
-1.37407946586608887 0.697120964527130127 -0.0997863262891769409
-2.94553637504577637 4.64579439163208008 0.425275951623916626
-1.61554121971130371 0.0820666700601577759 0.306685090065002441
0.653652548789978027 1.25789415836334229 0.122189834713935852
3.25735282897949219 0.954494714736938477 0.22780098021030426
-1.02683913707733154 0.663491725921630859 0.380442380905151367
0.277523785829544067 0.92996680736541748 0.0507343113422393799
-1.44427275657653809 -0.103649422526359558 0.549907326698303223
3.24476981163024902 1.47571456432342529 0.233670890331268311
2.22860550880432129 2.19365572929382324 0.59879612922668457
-0.0930953323841094971 3.37689208984375 -0.0911033228039741516
-1.37832272052764893 0.446797430515289307 0.436496138572692871
-2.26538658142089844 5.28134441375732422 0.491399139165878296
