ply
format ascii 1.0
element vertex 256
comment vertices
property float x
property float y
property float z
end_header
-1.73639488220214844 -2.24282145500183105 0.622388243675231934
8.16188526153564453 -4.62568378448486328 0.0124865397810935974
3.50409507751464844 0.729344785213470459 0.305972188711166382
-1.01476478576660156 3.1096348762512207 -0.248739108443260193
4.20628452301025391 -2.84283828735351562 0.0984100252389907837
1.47974705696105957 -3.14872169494628906 -0.00790490210056304932
-3.83310270309448242 0.154524147510528564 -0.232038363814353943
0.727297067642211914 1.10527479648590088 1.44942283630371094
-0.921014666557312012 -0.350330352783203125 -0.0827594473958015442
1.35006058216094971 -0.90570986270904541 -0.00845592468976974487
3.3740696907043457 -1.49035930633544922 -0.0683427676558494568
-0.601318001747131348 -3.43174552917480469 0.102848678827285767
-0.0166582763195037842 -1.64173996448516846 0.451796263456344604
-0.71557772159576416 1.52103638648986816 0.275355815887451172
1.40386509895324707 0.468481242656707764 -0.390219360589981079
-0.414619565010070801 2.97664809226989746 1.49532389640808105
-2.10764074325561523 0.0748303234577178955 0.507794857025146484
0.783456027507781982 1.13194918632507324 -0.417865186929702759
-1.16772603988647461 -3.10059595108032227 -0.379494756460189819
6.40182590484619141 -4.64201927185058594 0.0661036223173141479
-1.67186987400054932 0.863768577575683594 0.861445724964141846
-1.15733850002288818 -2.96897101402282715 1.26178789138793945
2.27147102355957031 -2.20462727546691895 0.781288683414459229
1.26945924758911133 0.153179511427879333 1.06000006198883057
-0.975872159004211426 -0.836141228675842285 -0.411568790674209595
0.632232546806335449 -2.74286913871765137 0.109087064862251282
-0.891585588455200195 -0.754673123359680176 0.990257859230041504
5.5315699577331543 -2.56904363632202148 0.032221917062997818
2.30331158638000488 -0.905331969261169434 0.637104392051696777
-0.483473420143127441 0.83796536922454834 -0.126229718327522278
-1.8557589054107666 -3.28201866149902344 -0.00980198383331298828
0.457605242729187012 1.38321352005004883 0.0136597715318202972
-1.66386902332305908 -0.329252690076828003 0.866340398788452148
0.469709903001785278 -2.54590511322021484 0.116030253469944
-1.38837230205535889 -1.93140625953674316 -0.401208549737930298
4.66804075241088867 -1.9103844165802002 0.104283928871154785
-1.63611698150634766 0.445024430751800537 -0.118478983640670776
-3.14550375938415527 0.0726567655801773071 0.539246737957000732
0.445619881153106689 -0.485874980688095093 0.131633192300796509
2.63853144645690918 0.266160517930984497 0.295764535665512085
0.383730530738830566 -3.69067931175231934 0.112069837749004364
-0.325514733791351318 -2.48979735374450684 0.134119912981987
2.7346794605255127 -2.22068595886230469 -0.0930507779121398926
-0.0116401910781860352 -0.861340761184692383 -0.11998283863067627
7.27988195419311523 -4.64846086502075195 0.42441028356552124
-0.808658182621002197 3.05437159538269043 0.632539808750152588
-0.913594603538513184 -1.57617318630218506 0.175899475812911987
0.630271255970001221 1.11752486228942871 0.493280649185180664
-0.171795681118965149 0.733216643333435059 0.0255966968834400177
-1.16965830326080322 -2.6739041805267334 0.410798549652099609
3.05475163459777832 0.523369967937469482 1.07373058795928955
2.5081322193145752 -1.35542106628417969 -0.0953670963644981384
1.40122354030609131 0.762859344482421875 0.491329222917556763
-0.922717392444610596 -1.61190009117126465 1.03297197818756104
2.09753108024597168 -2.59322762489318848 0.156976714730262756
-0.061196446418762207 -1.59462177753448486 -0.420891731977462769
-1.42529594898223877 -2.7444148063659668 -0.354336857795715332
-1.45347082614898682 -2.96104788780212402 0.630853354930877686
3.0374608039855957 0.525095522403717041 -0.306402832269668579
-1.65752577781677246 -0.291846722364425659 0.0969297811388969421
-0.116959631443023682 1.87630891799926758 0.0204573031514883041
-0.489322185516357422 -1.04094946384429932 0.449256598949432373
2.81359481811523438 0.954436600208282471 0.313638746738433838
1.17751204967498779 -2.49801921844482422 0.189621031284332275
0.874651670455932617 0.212834298610687256 0.474834203720092773
0.729824841022491455 -3.18169856071472168 -0.0750981420278549194
1.12527453899383545 -0.258408874273300171 0.0278721265494823456
3.02586507797241211 -0.896973133087158203 -0.0899497419595718384
4.90808677673339844 -2.81526947021484375 -0.0375340841710567474
1.64862918853759766 0.125656798481941223 0.490570276975631714
-0.458576321601867676 0.164343208074569702 -0.135690301656723022
3.30514073371887207 0.102887675166130066 0.31714358925819397
2.33384203910827637 -1.589272141456604 0.523516952991485596
-0.00300682708621025085 -3.06931304931640625 0.0913499370217323303
3.39030742645263672 -2.16950559616088867 -0.0898151770234107971
-1.65013813972473145 0.278813987970352173 0.573390603065490723
-1.81741249561309814 -2.22571015357971191 -0.0116500109434127808
-1.15989100933074951 0.876466929912567139 -0.117098376154899597
-1.93925619125366211 -3.36084628105163574 0.604444146156311035
-0.96827775239944458 -1.54126179218292236 -0.404844135046005249
-0.1464739590883255 1.31119251251220703 0.170583382248878479
-1.38880860805511475 -1.93647289276123047 0.248391702771186829
-1.02618074417114258 0.284575432538986206 -0.125308617949485779
0.9816475510597229 -1.3672630786895752 0.0846809223294258118
6.96900320053100586 -4.50412559509277344 -0.046884048730134964
4.21004199981689453 -2.29539680480957031 0.116628378629684448
-3.29267096519470215 0.0765255317091941833 -0.0147690325975418091
-1.62210643291473389 0.877906203269958496 0.259352684020996094
1.24883794784545898 0.277664244174957275 0.0866189897060394287
-1.46281647682189941 -3.29279518127441406 -0.402116388082504272
2.03146862983703613 -3.12989044189453125 0.0108413398265838623
-0.929105758666992188 -0.88907015323638916 0.151239782571792603
-1.96361112594604492 -2.78375697135925293 0.62213444709777832
4.58594608306884766 -3.23268556594848633 0.0488869845867156982
5.03241205215454102 -2.30544447898864746 -0.00191504508256912231
-2.63652849197387695 0.0853494852781295776 0.367433369159698486
0.208339959383010864 -2.42061901092529297 0.129056215286254883
7.54707622528076172 -4.52665853500366211 -0.0321791470050811768
1.83656978607177734 -0.711963117122650146 0.0315900035202503204
0.688267827033996582 -3.25775384902954102 0.13928772509098053
-0.145081758499145508 -3.73744034767150879 0.14489784836769104
-0.0334267914295196533 -0.778592228889465332 0.455043196678161621
-0.649652600288391113 -2.91365599632263184 0.109025858342647552
3.07092499732971191 0.568243324756622314 0.537170112133026123
1.1012275218963623 0.568623900413513184 0.813079416751861572
-3.622802734375 0.108056358993053436 0.361026525497436523
2.43125438690185547 -0.922927618026733398 0.134617030620574951
-1.16788756847381592 -2.68732166290283203 -0.109069705009460449
2.93261003494262695 -1.7618567943572998 -0.060217633843421936
0.86138153076171875 -0.773850321769714355 0.0466531962156295776
-1.36412966251373291 -3.28472495079040527 0.174866423010826111
2.38942146301269531 -2.11780309677124023 0.275060027837753296
-1.85443031787872314 -2.81605339050292969 -0.0926887989044189453
1.6367030143737793 -2.64951372146606445 -0.0407002456486225128
0.852637052536010742 1.10988140106201172 0.956757545471191406
6.7758030891418457 -4.85812759399414062 0.308121085166931152
-1.21450448036193848 -3.13323354721069336 0.247046008706092834
1.09931063652038574 -3.00572800636291504 0.285514473915100098
-0.89074409008026123 2.9360811710357666 0.212192416191101074
-0.497820436954498291 -1.56164062023162842 0.4340362548828125
-0.933124542236328125 -1.22119700908660889 0.754545390605926514
7.76851367950439453 -4.70368099212646484 0.353813588619232178
0.451920151710510254 -2.99613308906555176 0.269313246011734009
-0.674016177654266357 3.05307126045227051 1.11321139335632324
0.782355189323425293 1.11844754219055176 0.0702110230922698975
-0.461673915386199951 -0.305008530616760254 -0.137420788407325745
1.55039286613464355 0.462789773941040039 0.817131936550140381
-1.91076064109802246 -1.81274557113647461 0.60728156566619873
1.23043298721313477 -0.0447937548160552979 0.608215093612670898
-1.36151385307312012 -2.50691747665405273 0.57895970344543457
-1.14064240455627441 -2.86362552642822266 0.834941327571868896
-1.84704685211181641 -1.9474790096282959 -0.363163858652114868
4.60903215408325195 -2.50952386856079102 0.124825596809387207
-1.4552539587020874 -3.41394996643066406 0.609119415283203125
-1.37323784828186035 0.0107828676700592041 -0.12502695620059967
3.02390336990356445 0.413185417652130127 0.129398465156555176
-0.0247992873191833496 -1.20378482341766357 0.332829415798187256
0.444897681474685669 -0.946974754333496094 0.128659188747406006
0.891129016876220703 -2.75612854957580566 -0.0332884788513183594
2.96386432647705078 -1.33149302005767822 -0.116546109318733215
7.2148747444152832 -4.85000896453857422 0.00462546199560165405
2.4658815860748291 -1.86877167224884033 -0.0635567754507064819
-0.0563870668411254883 -1.61602687835693359 0.00836095213890075684
-1.65123677253723145 0.135206475853919983 0.179820626974105835
1.26101386547088623 0.363981455564498901 0.51006239652633667
2.2427527904510498 -1.28642189502716064 0.82056879997253418
1.48022043704986572 -2.84020090103149414 0.305922925472259521
3.15237140655517578 0.788144350051879883 0.0987951010465621948
-1.5051121711730957 -1.8412928581237793 0.61385267972946167
-0.822569072246551514 0.62660670280456543 -0.0664719939231872559
-1.81615972518920898 -3.03530573844909668 0.351920932531356812
-1.65170967578887939 -0.128703698515892029 0.474067181348800659
3.39409971237182617 -1.05681216716766357 -0.0908464565873146057
-0.904638051986694336 -1.58213233947753906 0.581284224987030029
-0.690964221954345703 2.89408755302429199 -0.211560517549514771
3.78583621978759766 -2.91876363754272461 -0.302261114120483398
-0.668806016445159912 1.13080036640167236 0.270916074514389038
-0.885403096675872803 -1.22512173652648926 0.372108876705169678
0.102284610271453857 1.54854846000671387 0.00252141058444976807
-1.82157957553863525 -1.95510590076446533 0.275927722454071045
-0.934152007102966309 -0.8576163649559021 0.618486940860748291
-1.83071696758270264 -3.27579784393310547 -0.384686291217803955
0.108778268098831177 1.07559502124786377 0.00841639935970306396
-1.58099579811096191 0.866181731224060059 -0.119880974292755127
0.813036084175109863 -2.54090237617492676 0.276038646697998047
2.60711932182312012 0.630248665809631348 0.331357896327972412
0.269390255212783813 -3.32444310188293457 0.142844334244728088
-1.84694910049438477 -2.45770907402038574 -0.323026537895202637
2.38958239555358887 -1.2762686014175415 0.301025092601776123
-1.61742496490478516 0.0342626944184303284 0.895482420921325684
0.2472495436668396 -2.78306174278259277 0.0975396335124969482
-0.769104897975921631 0.00266982614994049072 -0.0690392553806304932
-2.96388864517211914 0.0597424544394016266 0.181036502122879028
2.26243376731872559 -1.84878766536712646 0.805695295333862305
1.29596853256225586 -2.78695893287658691 -0.0273176394402980804
1.03057646751403809 0.694597840309143066 0.479676991701126099
-1.30463922023773193 -0.352429568767547607 -0.0827788710594177246
5.15166568756103516 -2.61936545372009277 0.127347290515899658
-1.82509613037109375 -2.3897697925567627 0.328815221786499023
1.16710174083709717 0.231889083981513977 -0.27809906005859375
7.47084140777587891 -4.38048028945922852 0.549662232398986816
-1.23752701282501221 -2.7027428150177002 1.48291492462158203
1.34574973583221436 -0.529423713684082031 -0.00704963691532611847
-1.65660536289215088 0.509320437908172607 0.231995120644569397
-1.521628737449646 -2.06293678283691406 -0.0594544112682342529
-1.68062400817871094 0.491759240627288818 0.86134636402130127
-1.36746072769165039 -2.16925239562988281 0.622700631618499756
2.94599413871765137 0.0694928020238876343 0.310931146144866943
1.82011556625366211 -2.8139798641204834 0.231156408786773682
1.01428532600402832 0.235690683126449585 0.795749545097351074
-0.340560466051101685 -3.16457414627075195 0.100919753313064575
3.51532483100891113 0.39929315447807312 0.330990642309188843
-0.482225894927978516 1.34176933765411377 0.0408255793154239655
1.08954405784606934 -3.1114506721496582 -0.0438157431781291962
2.68977737426757812 -0.982555091381072998 -0.109205968677997589
-1.39864945411682129 -2.26810312271118164 -0.338370531797409058
-0.26565513014793396 -2.82496929168701172 0.142038822174072266
-1.26135706901550293 0.544766128063201904 -0.0666536837816238403
2.41796088218688965 -1.63707339763641357 0.185873478651046753
-0.448895841836929321 0.499312728643417358 -0.109511792659759521
6.99362325668334961 -4.59595394134521484 0.297493159770965576
-3.62440633773803711 0.00967006012797355652 0.0379501879215240479
3.29278945922851562 -1.82624030113220215 -0.0632054582238197327
1.74797332286834717 -3.14201140403747559 0.196689799427986145
-0.0991615727543830872 -3.40630054473876953 0.0958797931671142578
7.83627128601074219 -4.64977455139160156 -0.126424878835678101
3.03428030014038086 -2.09908556938171387 -0.11293359100818634
1.480080246925354 0.149694949388504028 0.820142149925231934
0.768692672252655029 -2.91280889511108398 0.26694035530090332
-1.22412145137786865 -3.00450253486633301 -0.0659217983484268188
-1.64612305164337158 -2.67786431312561035 0.616703152656555176
-1.52568244934082031 -3.16361832618713379 -0.113044708967208862
6.65170764923095703 -4.547637939453125 0.250847458839416504
7.47123956680297852 -4.87751197814941406 0.562372326850891113
0.781557559967041016 1.31468021869659424 0.0150572527199983597
6.66961574554443359 -4.63860034942626953 -0.143039360642433167
-1.64783322811126709 0.709772706031799316 0.546552956104278564
0.53229820728302002 -2.85744333267211914 -0.00611350685358047485
1.37998402118682861 0.503041863441467285 1.06953275203704834
3.14667606353759766 0.844619393348693848 0.379147559404373169
-0.971068084239959717 -1.06592464447021484 1.03079938888549805
7.23787355422973633 -4.51139593124389648 0.101925566792488098
1.64296603202819824 0.567084908485412598 0.487256854772567749
0.459369897842407227 -3.03801226615905762 0.143563836812973022
-1.97011351585388184 -2.45376157760620117 0.616002321243286133
1.07832515239715576 -1.05431449413299561 0.050246797502040863
1.86720013618469238 -2.44462823867797852 -0.0549145564436912537
-1.7140047550201416 -3.1308138370513916 0.623661816120147705
4.32206583023071289 -2.58145475387573242 0.054641231894493103
-0.710512161254882812 -0.844430327415466309 0.381127208471298218
-3.5366823673248291 0.0511561334133148193 -0.266367346048355103
4.73857641220092773 -2.23745322227478027 0.0464881546795368195
-1.06373155117034912 -0.0763678476214408875 -0.123333856463432312
-0.0433761700987815857 -2.61313152313232422 0.136826246976852417
1.48137176036834717 -2.5032966136932373 0.176742583513259888
2.89718866348266602 0.352135539054870605 0.442413568496704102
1.14210093021392822 -0.709704935550689697 0.127452880144119263
-3.34038925170898438 0.0442980751395225525 0.284365862607955933
1.91986918449401855 -2.82998085021972656 -0.054951883852481842
-1.14034676551818848 -2.84654736518859863 0.178028032183647156
0.72960817813873291 -2.51216912269592285 -0.045537944883108139
-0.309840619564056396 -0.812310397624969482 0.346569925546646118
7.90142345428466797 -4.52788019180297852 0.139027714729309082
7.63375663757324219 -4.78745269775390625 0.0855275839567184448
-0.736746907234191895 0.335407078266143799 -0.0670216381549835205
-1.83737969398498535 -3.00059604644775391 -0.331418842077255249
-1.83189952373504639 -1.94558215141296387 -0.0751900821924209595
-0.223742187023162842 -1.39975893497467041 0.444338619709014893
1.52763509750366211 -0.718580365180969238 0.125231906771659851
-1.64265108108520508 0.157989084720611572 -0.121636629104614258
2.3490445613861084 -1.91560840606689453 0.478762507438659668
0.863548398017883301 1.11126184463500977 0.356401443481445312
-0.0608924925327301025 -0.799828171730041504 0.16686423122882843
-0.952117502689361572 -1.52970218658447266 -0.117337897419929504
0.429329901933670044 -0.727181673049926758 0.280349791049957275
1.36859846115112305 0.424488663673400879 -0.0936719775199890137
