ply
format ascii 1.0
element vertex 88
comment vertices
property float x
property float y
property float z
end_header
-2.51730513572692871 4.81532430648803711 0.382711917161941528
0.33680608868598938 3.07250380516052246 0.113378331065177917
2.34797239303588867 2.02514815330505371 0.388126015663146973
-1.1780238151550293 0.557934820652008057 0.160943686962127686
-1.8819730281829834 2.42609143257141113 0.125376105308532715
2.83127069473266602 1.24819934368133545 0.11996198445558548
2.05423283576965332 2.33913302421569824 0.183264300227165222
2.62094974517822266 1.67382299900054932 0.35440218448638916
2.8923037052154541 1.26443469524383545 0.118165746331214905
-3.02321028709411621 -0.627987861633300781 0.296563982963562012
-1.23548471927642822 0.212640523910522461 0.296677738428115845
-1.87711691856384277 2.45772957801818848 0.106283947825431824
-2.926544189453125 0.96188431978225708 0.388741582632064819
-1.32285535335540771 -0.0454091429710388184 0.309221267700195312
-0.937433362007141113 0.925810337066650391 0.259129166603088379
0.3181629478931427 3.08287763595581055 0.0995847582817077637
1.093802809715271 -0.766138374805450439 0.0606682747602462769
2.60464715957641602 1.66833341121673584 0.337211251258850098
0.26768454909324646 1.29097366333007812 0.0556262359023094177
1.18018972873687744 0.644690752029418945 0.044040195643901825
-1.86788058280944824 2.41228127479553223 0.0981375128030776978
-1.17840516567230225 0.538496017456054688 0.0965111404657363892
-2.96876621246337891 0.960095584392547607 0.414819121360778809
2.88608908653259277 1.23451685905456543 0.123522475361824036
2.33457040786743164 1.954323410987854 0.391685962677001953
2.00762557983398438 2.35012412071228027 0.174637883901596069
-1.00943374633789062 -0.916948258876800537 0.379499495029449463
2.08475494384765625 2.30788516998291016 0.202455565333366394
2.85175228118896484 1.24339199066162109 0.135549217462539673
-1.3042445182800293 -0.0520460531115531921 0.297117263078689575
-1.17724227905273438 0.556344330310821533 0.0805119574069976807
-3.00178837776184082 -0.614757895469665527 0.262912362813949585
-1.85977327823638916 2.4654231071472168 0.128813713788986206
2.12078237533569336 2.33335185050964355 0.171542942523956299
0.339595317840576172 3.09849381446838379 0.0896960049867630005
2.84907054901123047 1.25240838527679443 0.113815844058990479
-1.30559194087982178 -0.0390205830335617065 0.301843225955963135
-0.973924696445465088 -0.950813889503479004 0.422776460647583008
0.357039093971252441 3.07128381729125977 0.12223421037197113
-0.951934397220611572 0.945575714111328125 0.243785351514816284
0.194186955690383911 1.3231961727142334 0.0612608045339584351
-1.30485105514526367 -0.0403469391167163849 0.320392876863479614
-1.87340903282165527 2.42624425888061523 0.127438709139823914
-0.984656095504760742 -0.921462059020996094 0.389812976121902466
-1.14285147190093994 0.632842659950256348 0.106317758560180664
1.16599321365356445 0.658374190330505371 0.0476878620684146881
-1.87398242950439453 2.40165877342224121 0.112074464559555054
1.07533681392669678 -0.762314140796661377 0.0427369698882102966
0.332555204629898071 3.06516528129577637 0.107986092567443848
2.59231424331665039 1.67571532726287842 0.310962915420532227
-0.883593261241912842 0.944144904613494873 0.256409615278244019
-2.94485187530517578 0.973150432109832764 0.3993510901927948
1.15481460094451904 0.655162215232849121 0.049067281186580658
-2.54066324234008789 4.77785062789916992 0.319513767957687378
-1.19462704658508301 0.51364588737487793 0.10388965904712677
2.60368108749389648 1.6723552942276001 0.339007854461669922
2.86939501762390137 1.22926533222198486 0.121396824717521667
2.3359520435333252 2.04198431968688965 0.36950799822807312
2.04761147499084473 2.32707118988037109 0.177932068705558777
0.258584767580032349 1.31085526943206787 0.0444794036448001862
2.72925233840942383 1.56332802772521973 0.25317719578742981
1.10445165634155273 -0.757416307926177979 0.0566535219550132751
-1.29984152317047119 -0.0140352621674537659 0.258870244026184082
1.08442652225494385 -0.729654192924499512 0.065903395414352417
0.352043032646179199 3.06480169296264648 0.122074887156486511
-1.87721383571624756 2.43266916275024414 0.114063836634159088
-1.04650771617889404 0.77772754430770874 0.0709430277347564697
2.81389403343200684 1.23749220371246338 0.119178920984268188
-2.51301813125610352 4.80953645706176758 0.373235493898391724
2.86581230163574219 1.23698770999908447 0.123304039239883423
-0.967437267303466797 -0.913810491561889648 0.372357338666915894
-1.31063711643218994 -0.039043426513671875 0.293881118297576904
-1.29889488220214844 -0.046533733606338501 0.308038949966430664
-0.97839432954788208 -0.919922590255737305 0.380975097417831421
0.313328802585601807 3.08651041984558105 0.104892551898956299
-1.87210118770599365 2.42174077033996582 0.118619352579116821
1.11030340194702148 -0.779625177383422852 0.0458882078528404236
2.59524178504943848 1.66071057319641113 0.328351795673370361
-1.1925731897354126 0.598740279674530029 0.0935626029968261719
-2.93847799301147461 0.954434752464294434 0.390474647283554077
-1.16833865642547607 0.537194252014160156 0.0996706336736679077
-1.33053040504455566 -0.038331255316734314 0.303303033113479614
0.264804422855377197 1.29104554653167725 0.0629732012748718262
-0.936862468719482422 0.900553703308105469 0.27183416485786438
0.269171208143234253 1.28677725791931152 0.0496310517191886902
-1.30901730060577393 -0.0406120568513870239 0.294267386198043823
2.32869625091552734 2.02652788162231445 0.387308388948440552
-1.18129611015319824 0.541112840175628662 0.0951209664344787598
