ply
format ascii 1.0
element vertex 148
comment vertices
property float x
property float y
property float z
end_header
1.75888323783874512 -2.5256812572479248 0.149123877286911011
-3.00747799873352051 -4.57957315444946289 0.283209025859832764
0.593412518501281738 1.18271541595458984 0.217529252171516418
-1.06314218044281006 0.715765714645385742 0.442719757556915283
1.03514814376831055 2.98342800140380859 0.409827649593353271
0.196543723344802856 -1.36404657363891602 0.408530056476593018
-1.87182044982910156 -5.18969345092773438 0.15793745219707489
-1.29098784923553467 -2.75917196273803711 0.0939675793051719666
1.89406669139862061 2.40643167495727539 0.0337739512324333191
1.14877581596374512 0.624111711978912354 0.551554203033447266
-0.847165942192077637 -1.02700150012969971 0.474878907203674316
0.247705265879631042 1.28121781349182129 0.428398370742797852
-1.06223249435424805 0.829555988311767578 0.348445117473602295
0.161803841590881348 -1.24748444557189941 0.439299583435058594
0.884899675846099854 2.74114584922790527 0.481059074401855469
1.92033743858337402 -2.50020146369934082 0.113285258412361145
-1.44800889492034912 -2.79971122741699219 0.154019221663475037
1.16459465026855469 0.703784346580505371 0.45105406641960144
-0.769926905632019043 -1.11539161205291748 0.453582763671875
1.09398210048675537 5.45006608963012695 0.429884970188140869
0.597918152809143066 1.14117932319641113 0.227441787719726562
-2.28036284446716309 -2.12518119812011719 0.273492217063903809
-2.12626910209655762 -5.18636083602905273 0.317947715520858765
-1.83671700954437256 -5.08074665069580078 0.232970088720321655
0.305094063282012939 1.26993834972381592 0.376869469881057739
-2.6664574146270752 1.58762466907501221 0.23111453652381897
-2.61889505386352539 -4.75211763381958008 0.415393173694610596
0.812616586685180664 3.15171480178833008 0.437280893325805664
-2.6109156608581543 1.46863412857055664 0.204769998788833618
1.0960695743560791 2.82243156433105469 0.357233941555023193
-0.737012267112731934 -1.16552138328552246 0.39956781268119812
-3.00902628898620605 -4.56097984313964844 0.291694045066833496
1.95044577121734619 2.37003755569458008 0.100717738270759583
-1.11278903484344482 0.697348177433013916 0.257905542850494385
-1.86175179481506348 -5.13360738754272461 0.255416274070739746
-2.96237730979919434 -4.64657497406005859 0.270905941724777222
-2.71006107330322266 1.5781095027923584 0.246943414211273193
0.214567124843597412 -1.2901148796081543 0.450463473796844482
0.718803524971008301 1.117745041847229 0.188485026359558105
0.963741064071655273 2.86907339096069336 0.425979316234588623
-2.8937995433807373 1.40355587005615234 0.295814841985702515
0.0850916281342506409 -1.24205636978149414 0.472032546997070312
-3.10514283180236816 -4.50092458724975586 0.352932333946228027
1.14841985702514648 3.07511377334594727 0.371169149875640869
-0.829690873622894287 -1.13320541381835938 0.452539712190628052
1.031288743019104 2.81604671478271484 0.368185669183731079
-0.757611751556396484 -1.09529221057891846 0.37816464900970459
-1.14918184280395508 0.765940308570861816 0.341926813125610352
1.03151547908782959 0.772991061210632324 0.448189228773117065
-2.35304713249206543 -4.89011335372924805 0.285827815532684326
1.1778419017791748 0.581020593643188477 0.475115060806274414
0.159736886620521545 -1.35710823535919189 0.491828441619873047
2.01169013977050781 2.37191104888916016 0.0507811233401298523
-0.765001177787780762 -1.1944655179977417 0.38516390323638916
1.75498223304748535 -2.55381274223327637 0.134045198559761047
-2.09060478210449219 -5.01362037658691406 0.317801922559738159
-2.29649639129638672 -4.97569370269775391 0.446861833333969116
-1.86961913108825684 -5.10949993133544922 0.273346394300460815
-1.79628729820251465 -5.07646846771240234 0.273505508899688721
-1.95499312877655029 -5.15423107147216797 0.246727228164672852
-1.86169803142547607 -5.07701301574707031 0.30433046817779541
0.234557569026947021 1.33821415901184082 0.435144633054733276
-2.96866774559020996 -4.51869535446166992 0.278443217277526855
1.18305552005767822 0.700008749961853027 0.473241865634918213
1.15426337718963623 5.41625404357910156 0.625102758407592773
1.15534234046936035 0.666869521141052246 0.464887440204620361
-1.25887084007263184 -2.76455926895141602 0.0815792977809906006
-3.00330233573913574 -4.51378440856933594 0.337490379810333252
1.04397165775299072 2.90212488174438477 0.436524450778961182
-2.95670294761657715 -4.58007097244262695 0.284473210573196411
-1.02779161930084229 0.816220641136169434 0.336882710456848145
0.183494478464126587 -1.30762588977813721 0.483252763748168945
1.18494141101837158 0.625841498374938965 0.507594704627990723
-2.87809276580810547 1.51208782196044922 0.330125361680984497
0.292417287826538086 -1.29267919063568115 0.377668857574462891
-0.811678946018218994 -1.0641181468963623 0.401899904012680054
-2.69877147674560547 1.53298807144165039 0.235517948865890503
-1.86703109741210938 -5.12289619445800781 0.260604828596115112
0.675305664539337158 1.23337912559509277 0.223048895597457886
1.98318028450012207 2.35175132751464844 0.0474945381283760071
1.90070414543151855 -2.4330298900604248 0.124903537333011627
-0.723698556423187256 -1.12710881233215332 0.39879000186920166
-1.4449012279510498 -2.81369948387145996 0.0771271735429763794
1.05976533889770508 2.9077460765838623 0.424562543630599976
1.15225064754486084 5.47086000442504883 0.315040349960327148
1.01726436614990234 2.91986846923828125 0.460242301225662231
-3.05761337280273438 -4.57828807830810547 0.269092977046966553
1.01493394374847412 2.90944862365722656 0.429689735174179077
-2.78933501243591309 1.46030342578887939 0.26227039098739624
0.957033336162567139 2.82819533348083496 0.429881870746612549
1.21657264232635498 5.34645891189575195 0.641520977020263672
0.585579991340637207 1.0590519905090332 0.205508068203926086
-2.68644380569458008 1.49839913845062256 0.239293575286865234
2.01512932777404785 2.36555147171020508 0.0520977713167667389
1.21464991569519043 5.30684709548950195 0.703433513641357422
1.17672502994537354 5.30437755584716797 0.583600759506225586
2.03453183174133301 2.31460213661193848 0.0941013842821121216
-1.11696851253509521 0.731879711151123047 0.293182611465454102
0.979548990726470947 2.87200593948364258 0.418236970901489258
-2.71797704696655273 1.45974540710449219 0.250574737787246704
0.214022859930992126 -1.33193862438201904 0.448511958122253418
1.13659191131591797 5.47041845321655273 0.438024222850799561
-1.0585256814956665 0.837611198425292969 0.420043289661407471
-1.94413399696350098 -5.11080265045166016 0.247738391160964966
1.85878169536590576 -2.51942157745361328 0.123063221573829651
-2.26592731475830078 -2.14356851577758789 0.189781934022903442
1.15869104862213135 5.39311456680297852 0.609145820140838623
1.25320255756378174 0.701260209083557129 0.367110162973403931
-1.10957610607147217 0.706270813941955566 0.274400442838668823
1.23499822616577148 0.632346034049987793 0.47464829683303833
-2.9739983081817627 -4.58204412460327148 0.2869223952293396
1.60312509536743164 2.6324002742767334 0.193464338779449463
-1.8544614315032959 -5.14500617980957031 0.23750615119934082
1.09871149063110352 0.72886347770690918 0.553335845470428467
1.20001769065856934 0.750992059707641602 0.467043012380599976
0.224924981594085693 -1.33893954753875732 0.435472071170806885
1.88853049278259277 -2.50022172927856445 0.113288477063179016
1.79236483573913574 -2.54333829879760742 0.116478443145751953
1.70699453353881836 2.57053804397583008 0.126002579927444458
-0.688894867897033691 -1.05899930000305176 0.402864217758178711
-2.05569267272949219 -4.95695304870605469 0.348619997501373291
0.729555785655975342 1.11792933940887451 0.187572762370109558
-0.735387980937957764 -1.12693107128143311 0.383259236812591553
-1.40943694114685059 -2.76024603843688965 0.0964152514934539795
-0.664144754409790039 -1.12499356269836426 0.368613153696060181
0.310984432697296143 1.29158294200897217 0.378804653882980347
-0.70557636022567749 -1.10980439186096191 0.34581989049911499
-1.33733201026916504 -2.72484493255615234 0.0844989493489265442
-2.96171069145202637 -4.56730031967163086 0.317517876625061035
-2.2803046703338623 -2.1123197078704834 0.200038790702819824
-1.05543613433837891 0.74867701530456543 0.290170609951019287
-2.03883838653564453 -5.06897974014282227 0.218275055289268494
-1.83347964286804199 -5.14221858978271484 0.251642137765884399
-1.9054710865020752 -5.11051559448242188 0.32001340389251709
-1.39782381057739258 -2.81996321678161621 0.113723114132881165
1.04876351356506348 0.791742861270904541 0.404736757278442383
0.253667920827865601 1.2714076042175293 0.378138959407806396
-2.69930195808410645 1.51110458374023438 0.241792172193527222
-1.03067541122436523 0.792666494846343994 0.330139696598052979
1.88993382453918457 -2.55363678932189941 0.150463089346885681
-1.3219606876373291 -2.81043839454650879 0.088334888219833374
-1.24715864658355713 -2.80552959442138672 0.0702165290713310242
1.18279111385345459 5.38586711883544922 0.52506643533706665
-1.81597244739532471 -5.15871524810791016 0.248666331171989441
0.161435246467590332 -1.25678324699401855 0.437171041965484619
1.07613205909729004 2.93481755256652832 0.437804937362670898
-1.86851811408996582 -5.10562753677368164 0.249493896961212158
-1.94885194301605225 -5.20140504837036133 0.283730685710906982
