ply
format ascii 1.0
element vertex 136
comment vertices
property float x
property float y
property float z
end_header
-2.51730513572692871 4.81532430648803711 0.382711917161941528
1.19998311996459961 -0.919071316719055176 0.0815673619508743286
-3.07656025886535645 -0.637561380863189697 0.39384084939956665
1.95217454433441162 2.31638479232788086 0.160121917724609375
-0.944190382957458496 0.874444007873535156 0.244414344429969788
-1.06063675880432129 -0.905767738819122314 0.42676699161529541
-1.92388439178466797 2.37746310234069824 0.127667084336280823
-3.09750866889953613 1.14954423904418945 0.500363290309906006
2.89727401733398438 1.23330008983612061 0.134600698947906494
-1.45524144172668457 0.0241535529494285583 0.401324719190597534
-0.86288762092590332 -0.919454574584960938 0.333099603652954102
2.30513787269592285 2.01554131507873535 0.479056954383850098
2.64847993850708008 1.58443641662597656 0.284772276878356934
1.9366919994354248 2.29643630981445312 0.218499422073364258
-3.02681803703308105 -0.679256558418273926 0.334514200687408447
-2.92783355712890625 0.935087680816650391 0.354931443929672241
-1.87244796752929688 2.4818575382232666 0.0967479869723320007
2.69598841667175293 1.71804797649383545 0.42924797534942627
-1.0316619873046875 0.734294235706329346 0.14589238166809082
-2.9738314151763916 0.950883746147155762 0.387595117092132568
1.16099965572357178 -0.580984592437744141 0.120451085269451141
-3.10790014266967773 -0.65940093994140625 0.334212392568588257
0.221947193145751953 1.27773880958557129 0.0547388568520545959
-2.65655732154846191 4.81595659255981445 0.539392352104187012
-3.1276247501373291 -0.657249331474304199 0.338200390338897705
1.18840885162353516 0.547795712947845459 0.073542863130569458
-0.940652549266815186 0.911073207855224609 0.244485676288604736
2.34797239303588867 2.02514815330505371 0.388126015663146973
0.98748934268951416 -0.73459094762802124 0.0378402471542358398
-3.01791238784790039 0.965734601020812988 0.409126520156860352
-2.63856029510498047 4.78836250305175781 0.407945394515991211
-3.04369306564331055 0.979247927665710449 0.402331769466400146
0.259463310241699219 3.04994821548461914 0.121492050588130951
0.390707015991210938 3.08052277565002441 0.111273825168609619
-2.35640335083007812 4.84794998168945312 0.352381229400634766
0.568468272686004639 0.965771079063415527 0.117210946977138519
-2.58931970596313477 4.76416921615600586 0.463276326656341553
1.06875801086425781 0.688028454780578613 0.0424316897988319397
-2.95933818817138672 0.960042715072631836 0.356423079967498779
2.05423283576965332 2.33913302421569824 0.183264300227165222
-2.53609800338745117 4.75537681579589844 0.397947788238525391
-0.995951414108276367 0.996227562427520752 0.267748624086380005
-3.09283781051635742 -0.520258545875549316 0.415536314249038696
-2.5805511474609375 4.85486507415771484 0.392668098211288452
2.31105995178222656 2.05826139450073242 0.467488795518875122
-3.01471996307373047 -0.553575456142425537 0.331597685813903809
-0.0327754095196723938 -1.19383597373962402 -0.401880502700805664
2.62094974517822266 1.67382299900054932 0.35440218448638916
-3.02321028709411621 -0.627987861633300781 0.296563982963562012
-3.03727102279663086 0.957687973976135254 0.408773362636566162
-3.10716819763183594 -0.612987756729125977 0.273459166288375854
-1.03656458854675293 -0.84701991081237793 0.41588205099105835
-1.07617056369781494 -0.848988771438598633 0.467239201068878174
-2.926544189453125 0.96188431978225708 0.388741582632064819
-2.81892967224121094 1.04539990425109863 0.321391701698303223
-1.32285535335540771 -0.0454091429710388184 0.309221267700195312
-0.937433362007141113 0.925810337066650391 0.259129166603088379
-0.993508279323577881 0.88568425178527832 0.197236746549606323
1.093802809715271 -0.766138374805450439 0.0606682747602462769
2.77391624450683594 1.23428523540496826 0.120119042694568634
2.60464715957641602 1.66833341121673584 0.337211251258850098
0.362663388252258301 3.10454130172729492 0.0873181372880935669
2.61529779434204102 1.65492415428161621 0.311346352100372314
-0.833549022674560547 1.00673580169677734 0.261555492877960205
-1.10889792442321777 0.951251983642578125 0.409443080425262451
0.313520848751068115 3.07838201522827148 0.115147843956947327
0.26768454909324646 1.29097366333007812 0.0556262359023094177
1.18018972873687744 0.644690752029418945 0.044040195643901825
-2.5108952522277832 4.78112125396728516 0.334943473339080811
-3.04980826377868652 -0.599453449249267578 0.303420722484588623
-0.361854493618011475 1.13945603370666504 0.122212678194046021
2.89209985733032227 1.32922625541687012 0.132506281137466431
2.45876765251159668 1.76640522480010986 0.378433734178543091
-3.09747147560119629 -0.690163731575012207 0.284430533647537231
-3.08138775825500488 -0.636997401714324951 0.29108583927154541
-2.98262858390808105 -0.623721480369567871 0.250394940376281738
-3.08048129081726074 -0.644362270832061768 0.429524928331375122
-2.64755487442016602 4.80617475509643555 0.373565137386322021
-1.3042445182800293 -0.0520460531115531921 0.297117263078689575
-0.953721106052398682 0.792612314224243164 0.163861364126205444
-0.978347241878509521 -0.92701488733291626 0.414931356906890869
-2.47810959815979004 4.81013011932373047 0.301173150539398193
-1.30559194087982178 -0.0390205830335617065 0.301843225955963135
-1.02628493309020996 0.964412093162536621 0.257266879081726074
-1.88366079330444336 2.46359395980834961 0.0891416594386100769
0.357039093971252441 3.07128381729125977 0.12223421037197113
-1.96527910232543945 2.4348297119140625 0.111710481345653534
-0.889906406402587891 0.924551486968994141 0.285084962844848633
-1.03530144691467285 -0.749278247356414795 0.56916576623916626
1.16599321365356445 0.658374190330505371 0.0476878620684146881
0.00158837437629699707 1.18471026420593262 0.100585222244262695
-1.0676872730255127 0.815755605697631836 0.172550007700920105
-2.91353607177734375 0.924769043922424316 0.429719060659408569
-3.00412893295288086 1.00963544845581055 0.530294060707092285
-2.91594934463500977 0.996449708938598633 0.435323119163513184
-3.06836867332458496 -0.561361193656921387 0.339085489511489868
-1.19462704658508301 0.51364588737487793 0.10388965904712677
-3.15168094635009766 -0.611755073070526123 0.310145556926727295
-0.970845162868499756 0.798472881317138672 0.325424730777740479
-0.943993628025054932 -0.828800797462463379 0.371360838413238525
2.60368108749389648 1.6723552942276001 0.339007854461669922
2.86939501762390137 1.22926533222198486 0.121396824717521667
-0.169791430234909058 1.09340393543243408 0.128257185220718384
2.13109397888183594 2.12776851654052734 0.36485755443572998
2.04761147499084473 2.32707118988037109 0.177932068705558777
2.45985865592956543 1.71841228008270264 0.413311988115310669
-2.48421478271484375 4.82007122039794922 0.363134652376174927
-1.09920597076416016 0.506375908851623535 0.0444326996803283691
0.295396953821182251 3.0679166316986084 0.102685108780860901
-1.00090670585632324 -0.868157148361206055 0.393802821636199951
0.391383647918701172 3.1183161735534668 0.100857049226760864
0.352043032646179199 3.06480169296264648 0.122074887156486511
-1.87721383571624756 2.43266916275024414 0.114063836634159088
2.94654321670532227 1.24477958679199219 0.114012524485588074
-1.01371884346008301 0.787527143955230713 0.171636387705802917
-3.03782796859741211 0.963345944881439209 0.351015299558639526
-2.51301813125610352 4.80953645706176758 0.373235493898391724
2.86581230163574219 1.23698770999908447 0.123304039239883423
-2.51222085952758789 4.82063436508178711 0.349151104688644409
-0.967437267303466797 -0.913810491561889648 0.372357338666915894
-1.90603351593017578 2.39281201362609863 0.110766589641571045
-1.31063711643218994 -0.039043426513671875 0.293881118297576904
1.9477543830871582 2.32104969024658203 0.20561489462852478
-2.66537356376647949 4.90909051895141602 0.562371551990509033
-2.91130375862121582 1.00650012493133545 0.361056208610534668
-1.29889488220214844 -0.046533733606338501 0.308038949966430664
-0.97839432954788208 -0.919922590255737305 0.380975097417831421
-1.87210118770599365 2.42174077033996582 0.118619352579116821
-0.473505914211273193 1.08568727970123291 0.216557860374450684
-2.50035810470581055 4.73416376113891602 0.360783398151397705
-2.99060153961181641 0.932704567909240723 0.37623065710067749
-0.947280585765838623 0.970736145973205566 0.2903481125831604
0.45176851749420166 -0.694383621215820312 0.0147727299481630325
-2.93847799301147461 0.954434752464294434 0.390474647283554077
-1.30901730060577393 -0.0406120568513870239 0.294267386198043823
2.32869625091552734 2.02652788162231445 0.387308388948440552
