ply
format ascii 1.0
element vertex 35
comment vertices
property float x
property float y
property float z
end_header
-1.26865601539611816 -0.435931950807571411 0.372469931840896606
-1.2721092700958252 -0.436788886785507202 0.373083025217056274
-0.0476024448871612549 0.126216769218444824 0.0314500369131565094
-1.26947987079620361 -0.436777383089065552 0.370921432971954346
-1.26493430137634277 -0.439406871795654297 0.372167259454727173
-3.12249112129211426 -0.0469571799039840698 0.18688809871673584
-1.93939447402954102 2.41954350471496582 0.0506307482719421387
0.395588994026184082 -1.27120637893676758 0.056603550910949707
-1.27217543125152588 -0.436990618705749512 0.370974957942962646
-3.08781957626342773 0.288571596145629883 0.383928775787353516
-1.26828610897064209 -0.438018828630447388 0.370710283517837524
-0.809892535209655762 1.0360645055770874 0.44839024543762207
-1.268760085105896 -0.437497705221176147 0.371267437934875488
-0.84456944465637207 -1.01857829093933105 0.103030845522880554
0.397450357675552368 -1.26943349838256836 0.0582219436764717102
-0.392737030982971191 1.2866981029510498 0.415670990943908691
-1.26780068874359131 -0.437135279178619385 0.371381580829620361
-1.26921725273132324 -0.4379139244556427 0.372495651245117188
0.424152493476867676 -3.08757710456848145 0.118449389934539795
2.03529000282287598 2.30900192260742188 0.339383482933044434
-2.53884649276733398 -1.78000640869140625 0.425240099430084229
-1.26880991458892822 -0.438345193862915039 0.370851814746856689
-3.1202085018157959 -0.0463820844888687134 0.201754093170166016
-1.26968109607696533 -0.435800462961196899 0.373397558927536011
-1.27190208435058594 -0.437797516584396362 0.371573090553283691
-1.26561915874481201 -0.438912719488143921 0.371676146984100342
-3.08424711227416992 0.325109124183654785 0.411785900592803955
-1.26387786865234375 -0.443052768707275391 0.373822718858718872
-1.32631599903106689 0.0572723448276519775 0.0524542108178138733
-2.8728325366973877 -1.21665644645690918 0.0575910881161689758
-0.849328339099884033 -1.02462232112884521 0.0963429883122444153
-1.25919663906097412 -0.434774279594421387 0.372068524360656738
-1.26862609386444092 -0.436084061861038208 0.371166139841079712
0.830861985683441162 1.0298391580581665 0.372407048940658569
-3.12032556533813477 -0.0446071326732635498 0.177088513970375061
