ply
format ascii 1.0
element vertex 256
comment vertices
property float x
property float y
property float z
end_header
-1.05929362773895264 0.720499277114868164 0.410210967063903809
-2.91059494018554688 -6.11325740814208984 -0.0442978143692016602
1.39901673793792725 5.40362167358398438 0.280427813529968262
3.10384249687194824 -3.01102137565612793 -0.0222499929368495941
1.98709285259246826 2.36535143852233887 0.0552651733160018921
-3.05511760711669922 -2.22542333602905273 0.0992609336972236633
-0.0955613851547241211 -1.67348957061767578 0.686438500881195068
-3.33174586296081543 2.6979219913482666 -0.064791262149810791
1.19238829612731934 0.669269859790802002 0.558462381362915039
-1.38392162322998047 -2.78035593032836914 0.107694625854492188
0.284732073545455933 4.08815240859985352 0.545227110385894775
-3.89321994781494141 -3.67533254623413086 0.485121637582778931
0.347142487764358521 1.26536595821380615 0.359765529632568359
-0.965420305728912354 -0.885373473167419434 0.186098039150238037
-0.875998198986053467 -4.0803680419921875 0.235810905694961548
0.280592501163482666 1.29632973670959473 0.623798608779907227
-2.07762861251831055 0.253084868192672729 0.234271913766860962
1.53582084178924561 0.971905827522277832 0.13067162036895752
-1.0425029993057251 0.690062642097473145 0.285009026527404785
0.712473928928375244 -1.02201938629150391 0.144137740135192871
1.18905806541442871 5.32820224761962891 0.648615241050720215
1.48252809047698975 1.98412477970123291 -0.020209968090057373
0.646883606910705566 -2.13018608093261719 0.148245915770530701
-1.38287246227264404 -2.77793765068054199 0.107675552368164062
-0.648723721504211426 -1.09363102912902832 0.455344915390014648
0.508206665515899658 -0.237935051321983337 0.0509385764598846436
-1.86242294311523438 -5.10048103332519531 0.232162058353424072
-2.23819065093994141 -2.12567520141601562 0.226826786994934082
-0.88413691520690918 -6.07877969741821289 0.0590779930353164673
-2.60487961769104004 -4.21236896514892578 0.133430778980255127
0.290858954191207886 1.70422041416168213 0.466509044170379639
1.52149105072021484 3.74538707733154297 -0.019898533821105957
-0.106730587780475616 -1.84998416900634766 0.31826484203338623
1.09022271633148193 2.09703803062438965 0.289622724056243896
-1.94533932209014893 2.07136201858520508 0.305791229009628296
1.09209918975830078 2.88450193405151367 0.393391281366348267
1.69445884227752686 3.5449059009552002 0.257946133613586426
-2.95876073837280273 -4.58922576904296875 0.270293354988098145
-0.213625818490982056 -0.853312492370605469 0.435238540172576904
1.10362076759338379 0.566805720329284668 0.411947190761566162
-1.38357007503509521 -2.78208661079406738 0.107805930078029633
-1.87970066070556641 -5.12293529510498047 0.255882680416107178
1.80127322673797607 -2.51010727882385254 0.15451696515083313
-3.47514581680297852 1.04541981220245361 0.283783197402954102
-1.00646615028381348 0.857657134532928467 0.332167118787765503
0.312711000442504883 1.28134000301361084 0.406302034854888916
-2.35785055160522461 -3.78845643997192383 0.46066969633102417
-3.75650310516357422 -5.33682155609130859 0.414466738700866699
1.16103923320770264 5.28297233581542969 0.608040571212768555
-0.837460160255432129 -1.15009713172912598 0.403258025646209717
0.718551754951477051 1.11281907558441162 0.175684094429016113
0.925378978252410889 -1.86807608604431152 0.151338726282119751
0.0704303160309791565 -1.43989050388336182 0.321439206600189209
1.87148475646972656 -2.5014035701751709 0.13087308406829834
-1.51107776165008545 -2.19696617126464844 0.0865074098110198975
1.07312178611755371 2.91127681732177734 0.397051215171813965
1.07856523990631104 0.642467081546783447 0.518201231956481934
0.0341728776693344116 -1.32552778720855713 0.582964777946472168
-0.763748228549957275 -1.24701893329620361 0.153352737426757812
0.0178188085556030273 -0.389129638671875 0.06906929612159729
-3.3396296501159668 0.302887916564941406 -0.0405263900756835938
3.22365355491638184 2.46441197395324707 0.0475737862288951874
0.363295912742614746 3.75916147232055664 0.098515629768371582
0.454163044691085815 1.83356189727783203 0.10921633243560791
-2.12352657318115234 2.65079116821289062 -0.0286850333213806152
-1.00191068649291992 0.887002229690551758 0.299621939659118652
1.73558032512664795 4.15109395980834961 0.392745316028594971
-2.26536226272583008 -2.08457851409912109 0.280994713306427002
0.976586341857910156 2.85904836654663086 0.319941580295562744
1.7588275671005249 1.72882962226867676 0.355340003967285156
0.639990866184234619 -3.10772109031677246 -0.0193913727998733521
-1.38262414932250977 -2.78039765357971191 0.108417980372905731
-2.06502199172973633 -3.94240307807922363 0.276192694902420044
-0.753661572933197021 -1.10046291351318359 0.474931955337524414
1.98285543918609619 1.09364032745361328 0.253504365682601929
-3.18575453758239746 2.19219017028808594 0.336099356412887573
-0.809328556060791016 -5.13883113861083984 0.411352068185806274
-1.12460792064666748 0.728825211524963379 0.299822092056274414
-2.98021531105041504 -4.58417558670043945 0.284888982772827148
1.03496670722961426 0.535932183265686035 0.327902913093566895
-0.934737861156463623 -4.36073875427246094 0.0338588356971740723
0.238136470317840576 2.04157304763793945 0.0289497077465057373
0.7119179368019104 1.13103377819061279 0.167367219924926758
3.09804725646972656 -1.97489523887634277 0.0482178628444671631
-2.70981025695800781 -6.20856285095214844 0.307154655456542969
-1.16505146026611328 -1.84919726848602295 0.370817989110946655
-1.37805545330047607 -2.77958083152770996 0.111464262008666992
1.03504180908203125 -0.629360020160675049 0.1574820876121521
-2.38847994804382324 -1.39549434185028076 0.147486701607704163
-1.70175361633300781 -6.31865215301513672 0.252543210983276367
-0.143742620944976807 -2.06338620185852051 0.397779554128646851
-2.3836662769317627 2.89026212692260742 0.175127595663070679
-2.99184942245483398 -4.58683061599731445 0.287200421094894409
0.134662345051765442 -1.24019205570220947 0.388807356357574463
1.20148015022277832 5.30240201950073242 0.637199461460113525
-1.10276567935943604 0.696456968784332275 0.291548073291778564
1.7932426929473877 -2.4510498046875 0.153560250997543335
1.48763358592987061 -2.34156370162963867 0.209517836570739746
1.4755089282989502 0.442598938941955566 0.17882227897644043
-2.7290341854095459 1.46625947952270508 0.253673940896987915
0.320766806602478027 1.30143260955810547 0.37880706787109375
1.98048686981201172 2.38122200965881348 0.0555754527449607849
-1.37775969505310059 -2.77696633338928223 0.110494613647460938
-3.1398930549621582 0.183131739497184753 0.224388822913169861
1.25155401229858398 5.22453022003173828 0.448118507862091064
1.2074967622756958 0.616001546382904053 0.302134901285171509
-2.12562680244445801 0.349229037761688232 -0.0368125438690185547
0.491427510976791382 -1.58125972747802734 0.13236922025680542
0.10792076587677002 -1.50175380706787109 0.307961225509643555
-1.3825995922088623 -2.78251314163208008 0.109148703515529633
0.182313308119773865 0.402068793773651123 0.304803848266601562
-2.84521603584289551 -4.59077739715576172 0.291159272193908691
-1.05857276916503906 0.746372580528259277 0.25503876805305481
1.08365988731384277 2.72880029678344727 0.422299742698669434
1.02496910095214844 2.92557120323181152 0.422293007373809814
-2.3164365291595459 -2.80534839630126953 0.054681040346622467
1.195076584815979 0.644075214862823486 0.552331924438476562
1.1805880069732666 5.38180303573608398 0.609425783157348633
-2.95945239067077637 -4.57938337326049805 0.192005306482315063
1.19039511680603027 0.676597177982330322 0.47777220606803894
-0.728917181491851807 -1.10668110847473145 0.432494014501571655
-1.38218271732330322 -2.77725052833557129 0.108029969036579132
1.84181821346282959 -2.49261879920959473 0.154637396335601807
0.729073405265808105 1.14057445526123047 0.205755159258842468
-2.8937828540802002 -5.74993371963500977 0.133333474397659302
0.161505728960037231 -1.30731081962585449 0.491515457630157471
1.78610992431640625 -2.49089527130126953 0.143539160490036011
-4.06360626220703125 -4.62084531784057617 0.429629266262054443
-3.05414724349975586 -4.44542169570922852 0.154503345489501953
1.97024059295654297 2.35677790641784668 0.0579385533928871155
0.26880684494972229 1.29438996315002441 0.342964291572570801
-3.0582427978515625 -3.35981416702270508 0.463043898344039917
0.342652559280395508 1.28431963920593262 0.384821474552154541
-1.38421535491943359 -2.78307199478149414 0.10821908712387085
-2.26113605499267578 -2.10555720329284668 0.107560396194458008
1.21074974536895752 5.311553955078125 0.648243725299835205
1.16207301616668701 0.642278432846069336 0.477343976497650146
-1.49218738079071045 -4.549072265625 0.353322535753250122
1.72668790817260742 3.95937395095825195 0.0138182193040847778
1.67224550247192383 1.79511511325836182 0.0589572489261627197
-2.27145171165466309 -2.08582592010498047 0.19688868522644043
-3.05077290534973145 -4.54945135116577148 0.199134215712547302
-1.03684937953948975 0.837449610233306885 0.369960427284240723
0.315886437892913818 2.34562230110168457 0.226694405078887939
-2.939666748046875 -5.73479461669921875 0.464389920234680176
1.90552175045013428 -0.00736820697784423828 0.252957284450531006
-1.05250096321105957 0.844258427619934082 0.563757777214050293
-0.749783158302307129 -1.0949629545211792 0.399118185043334961
-1.32303845882415771 -0.488307774066925049 0.141785353422164917
-1.91983711719512939 -5.09246444702148438 0.285581886768341064
0.276063919067382812 -1.30108475685119629 0.31285703182220459
1.03074264526367188 2.25016093254089355 0.016768723726272583
1.01071822643280029 0.810676991939544678 0.29796147346496582
0.990661740303039551 0.765037238597869873 0.377716660499572754
1.18660628795623779 5.33959436416625977 0.63724815845489502
1.39343369007110596 5.32838773727416992 0.628887772560119629
0.20655447244644165 -1.31379330158233643 0.436888754367828369
1.01761364936828613 -1.95956623554229736 0.0292491018772125244
0.220820993185043335 0.0290705561637878418 -0.0160494148731231689
1.21510601043701172 5.31113052368164062 0.638060569763183594
-3.22106766700744629 2.81407880783081055 0.14164811372756958
-1.88614225387573242 -5.18248224258422852 0.267534077167510986
0.814462900161743164 -2.47315621376037598 0.353175908327102661
-2.69871282577514648 1.4922478199005127 0.242633014917373657
2.20817089080810547 -2.98989200592041016 0.331654280424118042
2.74034261703491211 -2.30146360397338867 -0.0338563024997711182
-2.76925492286682129 -4.28554105758666992 0.311080515384674072
-2.93660855293273926 -4.23852109909057617 0.259802371263504028
-2.94248270988464355 -4.59771919250488281 0.311643719673156738
1.23223936557769775 5.23563528060913086 0.612975478172302246
1.15571677684783936 5.28824520111083984 0.251249432563781738
0.419042289257049561 3.95315933227539062 0.113401584327220917
-1.12769711017608643 -5.8052058219909668 0.141127645969390869
1.24912774562835693 5.28993606567382812 0.552859783172607422
-2.29391956329345703 -2.10729503631591797 0.178310424089431763
0.210288941860198975 -1.27060854434967041 0.498895049095153809
1.81415951251983643 -2.50960826873779297 0.113530978560447693
-2.81801939010620117 -4.62838506698608398 0.283200979232788086
1.03754353523254395 2.9099433422088623 0.439788937568664551
-1.38414406776428223 -2.77986598014831543 0.107678242027759552
-1.03112876415252686 0.884972274303436279 0.411468327045440674
0.692602694034576416 1.0914379358291626 0.130788445472717285
-1.37864625453948975 -2.77637410163879395 0.10887020081281662
1.8204876184463501 1.25094282627105713 0.0577316433191299438
2.01837301254272461 2.42610573768615723 0.0710701048374176025
0.27626645565032959 2.08359479904174805 0.0581475794315338135
-0.746455669403076172 -1.14216971397399902 0.319510787725448608
-1.37890410423278809 -2.78073906898498535 0.111548036336898804
-1.09345734119415283 0.722808420658111572 0.446992993354797363
-2.67095375061035156 -4.57718706130981445 0.163489818572998047
-2.31594610214233398 -4.60278177261352539 0.420656263828277588
-0.751700282096862793 -5.81754398345947266 0.370547652244567871
-0.632681310176849365 -0.277526557445526123 0.182901009917259216
0.572737693786621094 -2.57841777801513672 -0.0463532358407974243
1.4129178524017334 5.24760341644287109 0.340074896812438965
-2.96316838264465332 0.880190849304199219 0.282322317361831665
-2.60226106643676758 2.20116019248962402 0.387881666421890259
3.05830669403076172 -2.60477066040039062 0.152734488248825073
0.268865913152694702 2.27985310554504395 0.497551769018173218
-1.38268256187438965 -2.77892351150512695 0.107716858386993408
0.443280577659606934 3.4480903148651123 0.494054138660430908
-2.2908470630645752 -2.09897613525390625 0.287634730339050293
1.94147861003875732 2.39588546752929688 0.0806745961308479309
2.6501309871673584 -1.96504664421081543 0.182834237813949585
1.3609163761138916 1.41596448421478271 0.274230808019638062
1.69067704677581787 3.62450361251831055 0.393320620059967041
-1.08761155605316162 -4.06340503692626953 0.0415650680661201477
0.0405908450484275818 -0.418998599052429199 0.219673231244087219
0.973661303520202637 2.86016750335693359 0.346924304962158203
-0.765230059623718262 -4.58880233764648438 0.153395161032676697
0.975149214267730713 4.208160400390625 0.506136417388916016
-1.04969775676727295 0.807528972625732422 0.258702695369720459
1.17927670478820801 0.646188318729400635 0.511286675930023193
1.01108741760253906 1.92794132232666016 0.0649449825286865234
-3.32364153861999512 1.71389877796173096 0.286966949701309204
1.7496798038482666 1.20422399044036865 0.141308426856994629
0.181301295757293701 -1.26275730133056641 0.521202325820922852
-0.70716392993927002 -1.09790778160095215 0.438856005668640137
-1.38158321380615234 -2.78215765953063965 0.109445452690124512
-1.38025426864624023 -2.78117871284484863 0.109463013708591461
-0.722768127918243408 -1.23081862926483154 0.34146350622177124
-2.99062371253967285 -4.54469442367553711 0.320610880851745605
-0.228910461068153381 -0.68387305736541748 0.16332697868347168
0.209908127784729004 -1.3131861686706543 0.449436932802200317
-0.747851848602294922 -1.13473761081695557 0.424981415271759033
-2.7719721794128418 -6.04412746429443359 0.0422591641545295715
1.06044340133666992 -3.1147313117980957 0.236753150820732117
-2.1070551872253418 -5.35996818542480469 0.259368926286697388
-1.38425004482269287 -2.78112387657165527 0.107470385730266571
1.81593036651611328 -2.49734663963317871 0.120951592922210693
0.842435121536254883 1.57855474948883057 0.435604691505432129
0.706041216850280762 1.11090803146362305 0.162885561585426331
-1.06045305728912354 0.685685157775878906 0.297630488872528076
-1.92594420909881592 2.59880232810974121 0.123607635498046875
-2.59158039093017578 -5.03843832015991211 0.381929486989974976
-1.3834301233291626 -2.7792360782623291 0.108179785311222076
0.421375632286071777 1.90277945995330811 0.236277386546134949
1.99365031719207764 2.36066699028015137 0.0507812350988388062
-1.13829219341278076 0.73277050256729126 0.360139608383178711
-1.44026720523834229 -3.92058801651000977 0.266302764415740967
0.164157509803771973 -1.21591317653656006 0.398108810186386108
1.17199194431304932 0.669010341167449951 0.526359379291534424
-3.21522378921508789 -4.47649717330932617 0.332110464572906494
1.44317281246185303 0.374175548553466797 0.224327564239501953
1.00525772571563721 -0.16087755560874939 0.302800029516220093
-2.87546658515930176 -1.62443757057189941 0.147110909223556519
-1.38199639320373535 -2.77730441093444824 0.106716856360435486
-1.38014876842498779 -2.78070449829101562 0.109041273593902588
1.19221556186676025 5.3297581672668457 0.669422388076782227
-2.95694160461425781 -4.60788202285766602 0.248986810445785522
-2.30974984169006348 -6.34548521041870117 0.0452034026384353638
-1.06422948837280273 0.743280172348022461 0.361010909080505371
-2.16449952125549316 -1.87407505512237549 0.150375440716743469
-1.3845221996307373 -2.78084945678710938 0.108109965920448303
1.79767131805419922 -2.49471139907836914 0.13011544942855835
-1.10608792304992676 0.70807349681854248 0.388236939907073975
