ply
format ascii 1.0
element vertex 256
comment vertices
property float x
property float y
property float z
end_header
0.791244149208068848 1.14378225803375244 0.216160178184509277
-0.938705921173095703 -3.07057070732116699 0.511920690536499023
-2.73521232604980469 1.62647414207458496 0.120371520519256592
2.2141568660736084 -2.23649168014526367 0.0926641523838043213
-2.93218636512756348 -1.16078865528106689 0.240520581603050232
-1.22293317317962646 0.156866639852523804 0.100538499653339386
0.933035016059875488 -0.767199456691741943 0.194626510143280029
-0.575071930885314941 -1.37457585334777832 0.0613568723201751709
-1.47917485237121582 2.58362817764282227 0.0909063220024108887
-0.612830817699432373 1.21973657608032227 0.27267158031463623
1.405190110206604 0.245872527360916138 0.204286441206932068
-2.4161984920501709 -1.9999624490737915 0.220752090215682983
-0.120231688022613525 -3.08905863761901855 0.0392575487494468689
-1.16145670413970947 -0.63420027494430542 0.118590593338012695
1.3155820369720459 -0.334778338670730591 0.392936408519744873
1.2249521017074585 0.780418634414672852 0.201950341463088989
-2.63248896598815918 -1.54901885986328125 0.249667719006538391
-1.15859079360961914 0.626526713371276855 0.0748077407479286194
0.904755890369415283 -1.19222426414489746 0.221806243062019348
-0.623313367366790771 -1.02456855773925781 0.213282167911529541
1.08795654773712158 0.460025042295455933 0.339709073305130005
-1.62642621994018555 2.59967422485351562 0.411262750625610352
-1.18101382255554199 -0.290045946836471558 0.0958975180983543396
0.892908394336700439 0.891149401664733887 0.0754613429307937622
-0.490028262138366699 1.09569942951202393 0.033861696720123291
0.976829409599304199 0.723381638526916504 0.407781004905700684
1.16710519790649414 -0.611110985279083252 0.11218646913766861
1.06894755363464355 0.218638882040977478 0.178787797689437866
0.785481095314025879 1.10888254642486572 0.502846002578735352
-1.25300991535186768 0.464259594678878784 0.285674750804901123
1.31669449806213379 -0.612036347389221191 0.363056212663650513
1.11604189872741699 -0.949475347995758057 0.0911928415298461914
-2.43676114082336426 -1.73253965377807617 0.254413783550262451
1.32719147205352783 0.551261067390441895 0.358095496892929077
-0.64793086051940918 0.97002798318862915 0.2712860107421875
0.872410416603088379 -0.958861112594604492 0.0379348695278167725
-1.27974057197570801 0.39101487398147583 0.0522389672696590424
1.32166862487792969 0.319960951805114746 0.421970337629318237
-2.51446413993835449 1.5994412899017334 0.170959323644638062
-0.837891697883605957 -2.87197351455688477 0.505729377269744873
-0.478421211242675781 -1.14583790302276611 0.0963856354355812073
-2.77201581001281738 -1.13584375381469727 0.104054674506187439
-1.02785289287567139 -2.89993643760681152 0.446028828620910645
1.04661381244659424 0.70020902156829834 0.177287384867668152
-2.54143714904785156 -1.88355171680450439 0.13214564323425293
1.26308965682983398 0.403098106384277344 0.25323784351348877
1.06136929988861084 0.895889699459075928 0.168347552418708801
0.907970666885375977 -1.00264847278594971 0.221290171146392822
1.15008401870727539 0.652334451675415039 0.383778780698776245
1.19550108909606934 -0.477766335010528564 0.310887932777404785
0.716006815433502197 0.995454668998718262 0.140210375189781189
-2.64503574371337891 1.46853923797607422 0.105414211750030518
0.987694501876831055 -1.09013557434082031 0.0835260748863220215
0.681001543998718262 1.10858988761901855 0.3515968918800354
0.848422408103942871 1.12908017635345459 0.0482570752501487732
-0.646106123924255371 -1.19869887828826904 0.070072568953037262
1.17026710510253906 -0.78643566370010376 0.106201410293579102
-1.27479839324951172 0.311267614364624023 0.215625554323196411
-1.30378580093383789 0.535118818283081055 0.140958428382873535
-0.534743070602416992 -1.28410577774047852 0.197681829333305359
-2.91591596603393555 -1.04935288429260254 0.10846458375453949
-0.226160734891891479 -3.05990982055664062 0.159571349620819092
-1.63283622264862061 2.45018672943115234 0.351327031850814819
1.12450981140136719 0.395213603973388672 0.173090815544128418
-1.20452940464019775 -0.438293516635894775 0.0434893146157264709
1.1749192476272583 0.313433825969696045 0.363738536834716797
0.847314178943634033 1.10430693626403809 0.357895314693450928
-0.60331040620803833 1.08577942848205566 0.359825640916824341
1.18984484672546387 0.635212421417236328 0.218927174806594849
-1.5537257194519043 2.57629990577697754 0.282756984233856201
-2.38054561614990234 -1.80124759674072266 0.135808736085891724
2.09935879707336426 -2.15425491333007812 0.0615890547633171082
1.15694308280944824 -0.610890507698059082 0.270617425441741943
1.26967203617095947 -0.532647252082824707 0.471937954425811768
0.97323763370513916 0.774595260620117188 0.274987161159515381
0.809453368186950684 1.00661683082580566 0.247797921299934387
-0.888223648071289062 -2.96056509017944336 0.407054007053375244
-0.656528770923614502 1.10767054557800293 0.200028464198112488
-1.00007712841033936 -2.96425938606262207 0.579463958740234375
-1.64243793487548828 2.68324875831604004 0.293868154287338257
-0.550593137741088867 -1.42165803909301758 0.192500099539756775
1.21876657009124756 0.455520927906036377 0.381828397512435913
0.994454860687255859 -0.887122035026550293 0.0861212015151977539
-0.517909705638885498 -1.15866446495056152 0.247912600636482239
-2.47092390060424805 -1.86366140842437744 0.244506180286407471
0.954684138298034668 1.00065779685974121 0.119592458009719849
-2.6444549560546875 1.57427358627319336 0.200941458344459534
1.34470486640930176 -0.463278055191040039 0.385493963956832886
1.3031151294708252 0.566346287727355957 0.230039238929748535
1.25610840320587158 -0.351981759071350098 0.281660258769989014
0.860579311847686768 -1.10035622119903564 0.145547360181808472
-1.2725520133972168 0.106463685631752014 0.204327255487442017
-1.18132030963897705 0.506644606590270996 0.0988134220242500305
-1.26746547222137451 0.270685970783233643 0.0701180696487426758
0.956090688705444336 0.783470571041107178 0.155153721570968628
1.25534713268280029 -0.408071905374526978 0.468068391084671021
-0.535376310348510742 -1.23190474510192871 0.0359322428703308105
0.739091694355010986 1.16126668453216553 0.0814807713031768799
-1.21439170837402344 -0.556283354759216309 0.0441837944090366364
1.05142486095428467 0.657136857509613037 0.287150800228118896
1.08276987075805664 -0.708643019199371338 0.117985814809799194
2.1128382682800293 -2.27562379837036133 0.0517320930957794189
1.25863885879516602 -0.519049286842346191 0.222926080226898193
-1.26186513900756836 0.416288912296295166 0.169784635305404663
-0.563653111457824707 -1.07158482074737549 0.079349026083946228
-0.461611151695251465 -1.37894022464752197 0.072378501296043396
-1.18431735038757324 -0.182180300354957581 0.132650569081306458
0.813350439071655273 1.02807497978210449 0.0907983332872390747
0.921506047248840332 -0.90014493465423584 0.171932265162467957
-0.669546186923980713 -1.06361722946166992 0.116995073854923248
0.980682969093322754 0.823469161987304688 0.0536581724882125854
1.18373274803161621 -0.565151214599609375 0.379642754793167114
1.25688719749450684 0.63570702075958252 0.338151395320892334
-0.237010329961776733 -3.08451509475708008 0.052936263382434845
0.888702988624572754 1.07889437675476074 0.227336972951889038
-2.87326622009277344 -1.15646255016326904 0.138048321008682251
-2.3674924373626709 -1.88643920421600342 0.268334925174713135
-2.63365888595581055 1.66315913200378418 0.128491818904876709
-0.16610361635684967 -2.98974442481994629 0.103070184588432312
1.08771300315856934 0.281289517879486084 0.311152368783950806
-2.89602327346801758 -1.06389117240905762 0.217534452676773071
-2.72848796844482422 1.50809204578399658 0.156045511364936829
-1.17448723316192627 0.403734803199768066 0.112263858318328857
1.05650842189788818 0.366419494152069092 0.246261864900588989
-0.489866733551025391 -1.06399869918823242 0.159289091825485229
-1.5274655818939209 2.56584858894348145 0.183320820331573486
1.29661130905151367 0.658342123031616211 0.184146389365196228
1.0824965238571167 -0.816223800182342529 0.0612675175070762634
-2.52201056480407715 -1.79747843742370605 0.184672132134437561
1.11575102806091309 0.558042526245117188 0.36283990740776062
-1.31852817535400391 0.17012450098991394 0.0681412965059280396
-0.90878140926361084 -2.97360396385192871 0.5110664963722229
1.32314741611480713 0.331899851560592651 0.214090242981910706
-0.560213387012481689 -1.19480347633361816 0.129686653614044189
-1.28100144863128662 0.217737272381782532 0.155537337064743042
-1.163055419921875 -0.546039938926696777 0.166222557425498962
1.2994835376739502 0.339000225067138672 0.326345741748809814
0.94398045539855957 -1.00718331336975098 0.117681697010993958
1.22500205039978027 -0.391565799713134766 0.367190241813659668
-2.50817751884460449 -1.66447973251342773 0.243825241923332214
-2.50435757637023926 -1.95640289783477783 0.217037424445152283
1.05359721183776855 0.63789069652557373 0.393180787563323975
-2.58859682083129883 1.57196378707885742 0.11398354172706604
-0.849717617034912109 -3.10187649726867676 0.489087045192718506
-0.933009207248687744 -2.87258458137512207 0.515573978424072266
1.02691447734832764 0.904406845569610596 0.0796797201037406921
-0.571729838848114014 1.09936904907226562 0.240705683827400208
0.857014775276184082 1.12391138076782227 0.141527488827705383
1.18417167663574219 0.72396087646484375 0.264076650142669678
-2.58142304420471191 1.67051422595977783 0.204489931464195251
2.12309074401855469 -2.19360589981079102 0.141670256853103638
-2.61508965492248535 1.4782865047454834 0.191346317529678345
-2.46144485473632812 -1.92686402797698975 0.122908227145671844
1.21348702907562256 0.57010495662689209 0.384533554315567017
0.996014595031738281 -0.979752898216247559 0.0501996427774429321
1.11409521102905273 0.379757523536682129 0.312620282173156738
-0.588397443294525146 -1.2722160816192627 0.0943273156881332397
-2.71461868286132812 1.56304943561553955 0.0632923096418380737
1.18883299827575684 0.748529911041259766 0.128604486584663391
0.96402740478515625 -0.804921805858612061 0.0881619155406951904
0.78048330545425415 1.10877585411071777 0.414453864097595215
1.25826406478881836 -0.476911187171936035 0.38701331615447998
1.28610873222351074 0.403072357177734375 0.397780746221542358
1.41649854183197021 0.312105000019073486 0.259090781211853027
0.734285950660705566 1.08369076251983643 0.193940415978431702
-1.60982251167297363 2.50881719589233398 0.409159153699874878
-2.97722816467285156 -1.08893311023712158 0.223887741565704346
-2.95265388488769531 -1.12726759910583496 0.133981898427009583
2.16680359840393066 -2.22711515426635742 0.00926161743700504303
0.749665498733520508 1.10319840908050537 0.304372876882553101
-2.85464358329772949 -1.13822305202484131 0.259643137454986572
0.862637519836425781 -1.04493880271911621 0.0838947296142578125
-0.638495504856109619 1.14115726947784424 0.273163408041000366
1.25883471965789795 0.690538287162780762 0.254559338092803955
-1.20638406276702881 0.510579586029052734 0.177144169807434082
-1.52197086811065674 2.51449298858642578 0.103215515613555908
1.25931107997894287 -0.581518650054931641 0.312939375638961792
0.851128339767456055 1.00416660308837891 0.159113809466362
-2.43623828887939453 -1.80722880363464355 0.194392397999763489
-0.491453766822814941 -1.30423116683959961 0.0796142593026161194
-0.65288698673248291 -1.35350716114044189 0.065077558159828186
-1.27079832553863525 0.332301735877990723 0.138144388794898987
-0.839776456356048584 -2.98594808578491211 0.4719390869140625
-2.55021548271179199 1.66716098785400391 0.130829527974128723
-0.162626028060913086 -3.08015656471252441 0.106216311454772949
-1.31398856639862061 0.4445362389087677 0.0999569296836853027
1.21221983432769775 0.386289507150650024 0.343693077564239502
0.884284138679504395 0.912301898002624512 0.151300504803657532
1.12288236618041992 0.436654180288314819 0.240558654069900513
0.674560904502868652 1.11176729202270508 0.430165231227874756
0.90265190601348877 -1.09145116806030273 0.209779292345046997
-2.66237401962280273 1.59337306022644043 0.111990168690681458
0.907873630523681641 -1.1423647403717041 0.102217048406600952
-0.1465616375207901 -3.15414094924926758 0.0696433261036872864
1.32156515121459961 -0.394347727298736572 0.346283793449401855
0.818798840045928955 1.07883024215698242 0.268830657005310059
0.908999979496002197 -0.911626815795898438 0.0981270968914031982
-1.19294273853302002 -0.375073730945587158 0.0835155397653579712
-2.8103792667388916 -1.13156747817993164 0.170727044343948364
-0.626856148242950439 1.01496899127960205 0.357926785945892334
1.30895984172821045 0.484197765588760376 0.331211566925048828
-1.23114395141601562 0.453458636999130249 0.112794578075408936
0.956750035285949707 0.926508486270904541 0.120819441974163055
-2.8659365177154541 -1.08243393898010254 0.152825072407722473
0.877569794654846191 -1.01978981494903564 0.151416301727294922
0.950669705867767334 -1.03804135322570801 0.0475292354822158813
-1.63546454906463623 2.5646517276763916 0.347974240779876709
-1.14301896095275879 -0.569337904453277588 0.0497381165623664856
-0.536827921867370605 1.12920868396759033 0.0781068801879882812
-0.66633903980255127 1.03986263275146484 0.278183013200759888
1.22103893756866455 0.709032654762268066 0.1909504234790802
1.14873826503753662 -0.594053089618682861 0.2007637619972229
-2.68101143836975098 1.50883328914642334 0.209809049963951111
-1.62360537052154541 2.64570426940917969 0.351979941129684448
1.0588301420211792 0.351548433303833008 0.176242619752883911
-1.21015405654907227 -0.570109546184539795 0.114270821213722229
-0.935576677322387695 -2.9455268383026123 0.355641931295394897
0.846862077713012695 1.10788297653198242 0.440716534852981567
-0.607271194458007812 -1.06030738353729248 0.150622189044952393
-2.60317158699035645 -1.61297369003295898 0.244117513298988342
-1.21505296230316162 0.432726889848709106 0.235234558582305908
-2.70928835868835449 1.49299383163452148 0.0632316470146179199
0.862385392189025879 0.978761136531829834 0.0816949307918548584
1.15466320514678955 0.477950990200042725 0.348478913307189941
-0.547678232192993164 -1.21840548515319824 0.216328322887420654
0.946535587310791016 -1.04362034797668457 0.176615595817565918
1.01749920845031738 -0.947521209716796875 0.110348276793956757
1.28990936279296875 -0.417199969291687012 0.403109967708587646
0.984537243843078613 0.734183132648468018 0.329586714506149292
-2.527313232421875 -1.8674314022064209 0.20595163106918335
0.870280444622039795 1.04590308666229248 0.0574855655431747437
-2.46368646621704102 -1.86107552051544189 0.162680134177207947
0.774820148944854736 1.07151556015014648 0.126662001013755798
-2.49233222007751465 -1.79337263107299805 0.245338261127471924
1.02139568328857422 -1.04609823226928711 0.0447821579873561859
-2.58053708076477051 1.59519600868225098 0.202973738312721252
1.26888060569763184 0.520482361316680908 0.369964718818664551
1.1850738525390625 -0.565051019191741943 0.309751570224761963
-0.975072145462036133 -2.97353076934814453 0.511197984218597412
0.98634493350982666 0.802272319793701172 0.216289818286895752
0.995987534523010254 0.900272786617279053 0.17768019437789917
-2.69070649147033691 1.64566755294799805 0.165107190608978271
1.05752909183502197 0.685962796211242676 0.348579078912734985
-0.468638181686401367 -1.20975279808044434 0.0851595252752304077
-0.53852468729019165 -1.29548275470733643 0.130071550607681274
-1.27376794815063477 0.477875411510467529 0.188916593790054321
-0.56072080135345459 -1.13481402397155762 0.0963415130972862244
1.13693833351135254 -0.684054136276245117 0.14528578519821167
1.23938882350921631 0.343364119529724121 0.384794354438781738
0.836284279823303223 1.17346715927124023 0.0946000143885612488
1.23317623138427734 0.460371434688568115 0.262215167284011841
-0.56558835506439209 -1.3610299825668335 0.175445079803466797
2.15362977981567383 -2.22703409194946289 0.0725206136703491211
-0.518627762794494629 -1.12149202823638916 0.157204896211624146
-1.24088525772094727 0.52432715892791748 0.0828663110733032227
-0.205844104290008545 -3.02795553207397461 0.0704387873411178589
