ply
format ascii 1.0
element vertex 256
comment vertices
property float x
property float y
property float z
end_header
0.435816824436187744 3.03508567810058594 0.304711222648620605
-0.214378714561462402 -1.78744912147521973 -0.126993656158447266
3.32979202270507812 0.516137838363647461 -0.122421421110630035
-1.00620770454406738 0.777273297309875488 0.238341465592384338
1.63964104652404785 5.26456546783447266 0.125833466649055481
1.27924239635467529 -0.212068960070610046 0.0314684733748435974
2.27124857902526855 2.23316144943237305 0.0551478415727615356
-1.58887243270874023 2.68148541450500488 0.239968866109848022
0.497402727603912354 1.15127956867218018 0.323462545871734619
1.18929684162139893 -1.65588283538818359 0.110954031348228455
2.82286238670349121 1.3916698694229126 0.0943661928176879883
-0.348581314086914062 1.3727567195892334 0.0675905048847198486
0.548658072948455811 -1.14227962493896484 0.45991671085357666
1.00795459747314453 2.40150284767150879 0.114960178732872009
-0.291558265686035156 0.468355357646942139 -0.0972751379013061523
-0.385729938745498657 2.97619986534118652 0.17470705509185791
2.0789637565612793 4.6566014289855957 -0.210050791501998901
1.08340895175933838 0.541630864143371582 -0.0283032059669494629
-0.605918824672698975 -1.21796250343322754 0.186262041330337524
-1.27004122734069824 2.07308578491210938 0.050691455602645874
0.213788211345672607 0.79879915714263916 -0.198411107063293457
2.4873356819152832 1.76834309101104736 0.349033951759338379
2.96717667579650879 0.896025478839874268 0.0117864944040775299
-1.14106583595275879 2.75400090217590332 -0.0198602676391601562
1.90560030937194824 2.47322940826416016 0.336870193481445312
0.946511507034301758 1.01216137409210205 0.0957327336072921753
-0.54458773136138916 0.93950420618057251 0.19026985764503479
0.0914370492100715637 1.39076876640319824 0.2376708984375
-0.620634198188781738 0.467793881893157959 0.232989311218261719
0.699791550636291504 -1.49983561038970947 0.230321705341339111
0.456932365894317627 0.738922238349914551 0.161226898431777954
-0.131235584616661072 2.86809182167053223 -0.0910905599594116211
0.829039335250854492 2.71816682815551758 0.0252716988325119019
-0.0246944762766361237 1.13105881214141846 0.0243158265948295593
2.22786188125610352 1.88551533222198486 0.00310325995087623596
2.6913297176361084 1.71642708778381348 0.0722392499446868896
0.18327958881855011 1.07477521896362305 0.319716602563858032
-0.81532663106918335 1.00813698768615723 0.359275072813034058
-1.26238512992858887 2.79720568656921387 0.262116044759750366
2.08533215522766113 2.22244453430175781 0.298529267311096191
3.03412175178527832 1.30922996997833252 -0.103144250810146332
-0.0769566595554351807 0.760982990264892578 -0.147395461797714233
0.552860617637634277 1.10370051860809326 0.0446652248501777649
0.331947952508926392 1.40102994441986084 0.384146720170974731
0.417727291584014893 3.27691078186035156 0.162347167730331421
1.36218059062957764 5.22656154632568359 0.128079518675804138
-0.391513407230377197 -1.23945701122283936 0.00862998887896537781
0.500895798206329346 2.78152108192443848 0.22730332612991333
0.766601204872131348 -1.28572630882263184 0.397562354803085327
0.962562918663024902 -1.7835615873336792 0.171244323253631592
-0.548746287822723389 1.19672191143035889 0.23286128044128418
1.32674145698547363 0.553108155727386475 -0.113292820751667023
1.84028983116149902 4.7522740364074707 -0.216469436883926392
-0.28336980938911438 1.12723386287689209 0.0305778235197067261
-0.989053964614868164 0.865642249584197998 0.473114371299743652
-0.800100028514862061 0.635145664215087891 0.183206796646118164
0.732015490531921387 2.49892973899841309 0.0874863415956497192
0.640256583690643311 -1.17937731742858887 0.215347573161125183
2.44614005088806152 1.81546676158905029 0.068104282021522522
-0.187518566846847534 3.07581377029418945 0.00102150440216064453
-0.0295976102352142334 -1.67786574363708496 -0.21767464280128479
-0.425052374601364136 0.452892959117889404 0.124015301465988159
-0.12097109854221344 1.31540918350219727 0.107564888894557953
-1.6506352424621582 2.46947193145751953 0.242425709962844849
0.719403207302093506 1.01072835922241211 0.15577232837677002
2.06822848320007324 2.30898475646972656 0.102117471396923065
2.89165735244750977 1.04215431213378906 0.150394141674041748
2.71383929252624512 1.7937462329864502 0.270327210426330566
0.621437311172485352 2.95228075981140137 0.348204821348190308
-0.0193771570920944214 0.929559946060180664 -0.0458879023790359497
0.926221966743469238 2.60697293281555176 0.164099246263504028
2.25416707992553711 2.07848930358886719 0.182403922080993652
1.51040542125701904 5.11801290512084961 0.0522330440580844879
-1.35216450691223145 2.62766408920288086 0.234252110123634338
2.02797842025756836 2.48183536529541016 0.186881124973297119
0.467135906219482422 2.84489917755126953 0.40111580491065979
-0.330405682325363159 3.10835409164428711 0.293627142906188965
0.166582003235816956 1.25438344478607178 0.356627136468887329
-0.470149993896484375 1.22345030307769775 0.0688019096851348877
-0.676052093505859375 0.768845677375793457 0.187444210052490234
-1.43273401260375977 2.15013504028320312 0.0269645601511001587
2.53783583641052246 1.70422184467315674 0.189499184489250183
-0.820231735706329346 0.834050953388214111 0.374175459146499634
-1.58755838871002197 2.59804558753967285 0.0867552757263183594
0.0802475064992904663 1.0967782735824585 0.180792897939682007
0.591172099113464355 -1.29951620101928711 0.401166200637817383
2.74724054336547852 1.2411949634552002 0.132214158773422241
0.772707879543304443 -1.34559369087219238 0.206433683633804321
-0.834779024124145508 0.909206569194793701 0.220464199781417847
1.94020390510559082 2.32916593551635742 0.250651836395263672
1.67788171768188477 5.09987926483154297 0.0235701799392700195
0.344124853610992432 1.22008943557739258 0.343936532735824585
1.40202748775482178 -0.166030272841453552 0.136889204382896423
0.474856019020080566 3.19207143783569336 0.344378739595413208
-1.58492016792297363 2.5606071949005127 0.363197386264801025
2.10619282722473145 2.15269351005554199 0.135301411151885986
-0.447985827922821045 1.08503532409667969 0.17122197151184082
2.39431190490722656 1.96935844421386719 0.0638232231140136719
-0.46027567982673645 -1.12630510330200195 0.10199505090713501
0.17189963161945343 0.648880124092102051 -0.175844788551330566
2.23261022567749023 2.04121184349060059 -0.0158352851867675781
-1.25858736038208008 2.72270298004150391 0.0766888856887817383
0.585978448390960693 3.09983229637145996 0.292757511138916016
-1.72003519535064697 2.62151074409484863 0.202586889266967773
2.20638561248779297 2.24297475814819336 0.214511483907699585
0.475988984107971191 3.12489008903503418 0.19327990710735321
0.597466230392456055 1.06760025024414062 0.252783745527267456
-0.970874965190887451 0.895798027515411377 0.317814648151397705
0.141999602317810059 1.41121768951416016 0.373474925756454468
-0.46501767635345459 -1.26596128940582275 0.143701255321502686
-0.631450057029724121 0.332788765430450439 0.184167981147766113
-0.864905834197998047 0.761594116687774658 0.243889480829238892
0.670504271984100342 -1.14735257625579834 0.388203859329223633
1.53512060642242432 5.25961399078369141 0.0316072888672351837
-0.446292132139205933 1.31343960762023926 0.173968717455863953
0.00313888490200042725 1.27879345417022705 0.0577986426651477814
-0.337338626384735107 2.95130515098571777 0.298763841390609741
2.54992961883544922 1.68051040172576904 0.0567287355661392212
0.727507650852203369 1.0539020299911499 0.0276973694562911987
0.494992434978485107 2.91328811645507812 0.289412587881088257
3.06802225112915039 0.864105939865112305 -0.0667360052466392517
1.08245444297790527 -1.78267800807952881 0.117545992136001587
0.824310541152954102 0.967833280563354492 0.0830675289034843445
-0.241851538419723511 1.29992079734802246 0.0488380417227745056
2.49914813041687012 1.86198866367340088 0.176813125610351562
-0.366477400064468384 3.10370254516601562 0.166483297944068909
0.274423658847808838 1.51417243480682373 0.369703859090805054
2.98773980140686035 1.00226151943206787 0.0764223486185073853
-1.54501128196716309 2.55807375907897949 0.243844002485275269
2.67697668075561523 1.59605920314788818 0.10556764155626297
0.00587191060185432434 1.37309598922729492 0.140251636505126953
1.39472877979278564 -0.169923171401023865 0.0115385521203279495
0.108475327491760254 0.86376953125 -0.210346981883049011
-0.552960634231567383 -1.18839395046234131 0.0477545782923698425
0.45878225564956665 2.85406208038330078 0.139484107494354248
-0.326743513345718384 2.89403152465820312 0.108453154563903809
1.27747392654418945 -0.0964609831571578979 0.0666695088148117065
2.99710226058959961 1.21056866645812988 -0.0465588122606277466
1.45117545127868652 5.30436182022094727 0.113020613789558411
-0.354312479496002197 1.26151585578918457 0.118806406855583191
-0.97223740816116333 0.981903195381164551 0.481162011623382568
0.569420337677001953 -1.17568325996398926 0.336377561092376709
-1.17688846588134766 2.81958842277526855 0.0698437094688415527
-0.104062914848327637 -1.7528526782989502 -0.118930742144584656
-0.731203198432922363 0.489095091819763184 0.258369207382202148
-0.462078332901000977 1.11708664894104004 0.0263382196426391602
2.6053462028503418 1.69477367401123047 0.281829208135604858
0.450580120086669922 2.96989107131958008 0.200066298246383667
-0.991995096206665039 0.789521336555480957 0.354888767004013062
0.961204886436462402 -1.66956901550292969 0.173750102519989014
-0.895385563373565674 0.803849399089813232 0.455728650093078613
2.3075711727142334 2.17153167724609375 0.213636577129364014
1.69852495193481445 5.16693639755249023 0.10996207594871521
-1.47241449356079102 2.64100432395935059 0.254349470138549805
-0.429076910018920898 -1.33633041381835938 0.0462878458201885223
1.97831094264984131 4.70050621032714844 -0.208275720477104187
-0.635583102703094482 0.998046517372131348 0.173981845378875732
-0.09855632483959198 1.22526669502258301 0.049876868724822998
0.605694174766540527 1.06687867641448975 0.143840029835700989
2.85840368270874023 1.05225002765655518 0.049736756831407547
1.61969423294067383 5.18616580963134766 0.00519131310284137726
-0.906813442707061768 0.979479134082794189 0.316542327404022217
2.44191241264343262 1.74542117118835449 0.18328741192817688
0.243164420127868652 1.32271397113800049 0.376542448997497559
0.516906976699829102 3.09990811347961426 0.371077507734298706
0.634724736213684082 -1.29394769668579102 0.306478381156921387
1.9442678689956665 2.52103185653686523 0.235088706016540527
-0.461517661809921265 1.19828236103057861 0.169503718614578247
0.282672643661499023 1.10282313823699951 0.324436187744140625
1.5112614631652832 5.20643377304077148 0.116974204778671265
-0.289618372917175293 3.03819465637207031 0.188296526670455933
-0.553239047527313232 1.10797107219696045 0.180265903472900391
2.54087042808532715 1.77500605583190918 0.261602550745010376
2.17258739471435547 1.91969895362854004 0.0793589353561401367
-1.03622424602508545 0.903733253479003906 0.392829209566116333
2.58499670028686523 1.6202852725982666 0.135497540235519409
0.530027508735656738 3.01540374755859375 0.282964110374450684
2.20853304862976074 2.17015814781188965 0.0960343703627586365
-0.389714419841766357 1.13886284828186035 0.0882293432950973511
0.332251906394958496 1.31646728515625 0.333616882562637329
0.654782950878143311 -1.23331940174102783 0.434337586164474487
0.091142505407333374 1.3157050609588623 0.360845118761062622
-1.19902598857879639 2.72813892364501953 0.236738502979278564
1.60288321971893311 5.1527714729309082 0.0947251766920089722
1.26493000984191895 0.4837360680103302 -0.140690207481384277
-0.304425597190856934 1.22890257835388184 0.0303538013249635696
0.40654367208480835 3.1683962345123291 0.280731618404388428
0.699250400066375732 -1.18144392967224121 0.303196191787719727
1.41667187213897705 5.13453960418701172 0.0639973729848861694
0.525358974933624268 2.81702542304992676 0.331580489873886108
0.704755842685699463 -1.35133790969848633 0.368391990661621094
2.56462883949279785 1.79348897933959961 0.171800225973129272
2.03027963638305664 2.34870815277099609 0.228995263576507568
0.522272884845733643 -1.2175900936126709 0.409770697355270386
1.96261358261108398 2.40013313293457031 0.321262896060943604
-1.30566072463989258 2.70843172073364258 0.244831860065460205
2.4248197078704834 1.89628851413726807 0.113308489322662354
2.07930397987365723 2.26056289672851562 0.214094728231430054
-1.6955341100692749 2.60181927680969238 0.289783656597137451
3.33470368385314941 0.607340574264526367 -0.137041956186294556
2.02846479415893555 2.22837567329406738 0.123503267765045166
-0.486084163188934326 -1.25064241886138916 0.0518788248300552368
-0.539223909378051758 -1.31586408615112305 0.1264362633228302
0.197662308812141418 1.18263208866119385 0.3102530837059021
2.89170455932617188 0.975833415985107422 0.085127703845500946
-0.862019538879394531 0.910739779472351074 0.397864431142807007
0.480725586414337158 1.06529021263122559 0.302537322044372559
0.503025710582733154 3.00875449180603027 0.368316859006881714
1.318381667137146 -0.1953907310962677 0.125584080815315247
0.526125431060791016 1.11907947063446045 0.237858638167381287
0.489934206008911133 3.2000432014465332 0.239298775792121887
-0.375477373600006104 3.02589297294616699 0.247149348258972168
0.410416692495346069 1.16223394870758057 0.342840313911437988
-0.447037816047668457 1.30680942535400391 0.0833342075347900391
0.425535053014755249 3.2722926139831543 0.249454081058502197
0.26720920205116272 1.43049192428588867 0.333075284957885742
-1.28904259204864502 2.8283531665802002 0.185030847787857056
-1.28252184391021729 2.73089051246643066 0.159944862127304077
2.62335562705993652 1.65579795837402344 0.206251382827758789
0.627155125141143799 3.03881311416625977 0.344886988401412964
-0.189943268895149231 1.2489701509475708 0.0944037437438964844
2.12069892883300781 2.24603867530822754 0.140384167432785034
0.880869448184967041 0.967166781425476074 0.0185863431543111801
-0.381883054971694946 -1.18440341949462891 0.0726368129253387451
1.89809858798980713 2.34709858894348145 0.327697575092315674
2.17685842514038086 1.98968386650085449 0.0189905166625976562
-0.917261064052581787 0.922352433204650879 0.461090505123138428
-0.531129300594329834 -1.20217275619506836 0.152874648571014404
0.112021356821060181 1.19285976886749268 0.343224078416824341
1.92479610443115234 2.43826603889465332 0.257998734712600708
-1.66474401950836182 2.62409257888793945 0.141320690512657166
0.694001197814941406 -1.25405645370483398 0.365388005971908569
0.263193756341934204 1.21372854709625244 0.35479736328125
2.63670563697814941 1.77095329761505127 0.2554665207862854
1.8607027530670166 4.68490934371948242 -0.174937814474105835
-0.380170762538909912 2.91676139831542969 0.229937151074409485
-0.366045057773590088 -1.27672481536865234 0.0760253742337226868
2.54654359817504883 1.64397573471069336 0.243104398250579834
-1.57798600196838379 2.50016021728515625 0.289182722568511963
-1.611000657081604 2.58372950553894043 0.281354963779449463
-0.893139362335205078 0.869630098342895508 0.336661338806152344
0.58025658130645752 -1.10710513591766357 0.372998356819152832
0.671821832656860352 0.991707861423492432 0.0968199670314788818
-0.293028324842453003 1.33282828330993652 0.104982703924179077
-0.544331490993499756 1.01708531379699707 0.189566850662231445
-0.976087212562561035 0.853857100009918213 0.393284767866134644
1.41064310073852539 -0.230459451675415039 0.0552637279033660889
0.630307316780090332 -1.14409041404724121 0.452785253524780273
1.52477633953094482 5.19118881225585938 0.000531248748302459717
1.43779456615447998 5.23654556274414062 0.143422886729240417
2.53808379173278809 1.71679949760437012 0.3278789222240448
0.44974932074546814 3.20597743988037109 0.175989910960197449
0.39405977725982666 3.06142401695251465 0.36134752631187439
-0.965358078479766846 0.789463341236114502 0.429642200469970703
2.03074502944946289 4.75150442123413086 -0.222425162792205811
2.8343653678894043 1.4652174711227417 0.0932577848434448242
