ply
format ascii 1.0
element vertex 256
comment vertices
property float x
property float y
property float z
end_header
-1.648468017578125 -1.01896047592163086 0.218713507056236267
-5.09968328475952148 4.27997398376464844 0.112503781914710999
2.96935415267944336 2.18154168128967285 -0.251718133687973022
2.51924419403076172 -1.74740052223205566 0.215396881103515625
-5.60947942733764648 -0.259603023529052734 1.55694079399108887
-1.64041495323181152 2.68661403656005859 -0.160332992672920227
0.649635255336761475 -0.459692060947418213 0.820739209651947021
-3.90276002883911133 0.418615400791168213 0.677275776863098145
-1.97266232967376709 -2.93458127975463867 1.78905951976776123
1.02908515930175781 -2.38092517852783203 -0.202630847692489624
-3.8455045223236084 1.3561561107635498 -0.130387395620346069
-0.634869754314422607 1.2631295919418335 2.28100395202636719
-2.16412615776062012 1.2423088550567627 -0.520635783672332764
1.13019633293151855 1.85754084587097168 -0.640241265296936035
1.92762875556945801 -0.973280072212219238 -0.741121649742126465
-1.91508543491363525 -1.87785673141479492 -0.883734524250030518
-6.0523066520690918 3.04014968872070312 0.586915671825408936
-0.636746466159820557 1.18234193325042725 -0.652207493782043457
-0.350870728492736816 -0.248831331729888916 1.12671613693237305
-4.88362312316894531 0.900641918182373047 -0.899521052837371826
-0.272657096385955811 -0.483107298612594604 0.698034882545471191
0.912389278411865234 -0.675236523151397705 1.7424771785736084
2.4876401424407959 -1.78385937213897705 0.221882432699203491
-3.13452720642089844 0.806273818016052246 1.04182958602905273
-2.58789849281311035 3.60644006729125977 -0.033617217093706131
2.5474543571472168 1.85423648357391357 2.26263523101806641
0.219779700040817261 0.859084784984588623 1.43267297744750977
1.71521806716918945 1.7439495325088501 0.615781545639038086
0.055156707763671875 -1.22007203102111816 -0.12935154139995575
-2.53417229652404785 -0.339914143085479736 -0.804004490375518799
1.30603969097137451 -0.240367293357849121 -0.1876649409532547
1.67271935939788818 -0.434492647647857666 -0.840747237205505371
-1.62357890605926514 0.672868192195892334 -0.159308016300201416
-3.14574146270751953 2.86609029769897461 1.10238003730773926
-2.14892005920410156 -0.340701103210449219 0.440541446208953857
-0.353411972522735596 -2.18795418739318848 1.11441707611083984
-0.598007917404174805 1.45978879928588867 0.605766892433166504
-5.67426824569702148 1.26999127864837646 0.317792177200317383
-4.46288394927978516 3.03711390495300293 -0.123009875416755676
-2.20367336273193359 0.0926538854837417603 0.787717700004577637
1.17349743843078613 1.36597466468811035 -0.880476474761962891
-1.64027953147888184 0.0461748689413070679 1.39093613624572754
-0.195617645978927612 -1.20113325119018555 -0.199284002184867859
-0.428361237049102783 0.326649129390716553 -0.651671767234802246
-5.68561124801635742 0.847472429275512695 0.436467379331588745
-2.84122848510742188 1.70454287528991699 -0.190094739198684692
0.952553033828735352 -0.158687591552734375 0.0870757550001144409
0.828695893287658691 0.479787439107894897 0.127174884080886841
-3.92943406105041504 3.43906760215759277 0.481506824493408203
-3.61388015747070312 0.736262917518615723 -0.837245643138885498
2.51367044448852539 -1.79615902900695801 0.272692561149597168
-2.06174421310424805 -2.16490936279296875 0.579030811786651611
-0.614446341991424561 1.08671939373016357 0.795963764190673828
-1.55634689331054688 -1.3134453296661377 -0.141449153423309326
-1.86576080322265625 0.372898370027542114 -0.60155940055847168
0.928398668766021729 1.88725972175598145 0.716776132583618164
2.30366182327270508 1.84337925910949707 0.867477536201477051
-0.313869595527648926 -0.698786258697509766 0.315357804298400879
0.638203918933868408 0.940901875495910645 0.93463432788848877
-4.79671716690063477 -0.152803689241409302 -0.0342654287815093994
-3.27015447616577148 -0.718235552310943604 0.68271934986114502
-0.37623065710067749 -0.172207683324813843 -0.56617504358291626
1.72480988502502441 0.270979046821594238 0.767771065235137939
-0.223901093006134033 1.26415610313415527 -0.591126978397369385
-1.65706539154052734 0.81419980525970459 0.557671427726745605
-1.15192604064941406 0.328857839107513428 0.359732627868652344
-5.65169525146484375 -0.14644913375377655 -0.877221643924713135
-5.59410762786865234 0.983802556991577148 1.61410176753997803
-0.340660274028778076 -2.40211892127990723 -0.118323542177677155
0.641151666641235352 -0.408564954996109009 -0.353603005409240723
-2.91584515571594238 1.08043932914733887 0.763347029685974121
-4.88863039016723633 1.96313858032226562 -0.154376402497291565
-2.85730290412902832 2.87560749053955078 -0.101668059825897217
-3.53682971000671387 4.30735111236572266 -0.126910626888275146
2.0161137580871582 1.54482126235961914 -0.195526748895645142
-1.94596207141876221 -1.80308008193969727 1.64101278781890869
-3.05852794647216797 0.182402193546295166 0.0459033101797103882
-1.82371973991394043 -1.07425880432128906 1.22286200523376465
0.893045783042907715 -1.28719794750213623 -0.205203458666801453
-0.823472142219543457 -0.386482268571853638 -0.114284083247184753
-1.94799137115478516 -0.197570145130157471 -0.575987935066223145
-2.05286812782287598 -2.82317900657653809 -0.236582726240158081
-2.54316425323486328 0.758433699607849121 -0.809934675693511963
-3.62537097930908203 -0.352339655160903931 -0.783613324165344238
-2.87903070449829102 0.677306234836578369 -0.000343002378940582275
-4.78757381439208984 3.28907632827758789 -0.00357709825038909912
-3.10258746147155762 1.85973799228668213 0.86914747953414917
1.38512086868286133 -1.09528088569641113 0.138274028897285461
-0.649619221687316895 0.467826962471008301 0.43577808141708374
2.51591968536376953 -1.78979039192199707 0.238079637289047241
-0.379446327686309814 -0.250694453716278076 0.0746710523962974548
1.67170119285583496 -0.465611815452575684 0.0654893815517425537
2.48775959014892578 -1.76937568187713623 0.243901863694190979
1.48965144157409668 1.27711188793182373 0.110470712184906006
0.287031173706054688 0.578726768493652344 -0.670615255832672119
0.236810863018035889 1.21983349323272705 0.277718454599380493
-1.65520894527435303 1.69400060176849365 -0.192243427038192749
0.918290793895721436 -1.02242517471313477 -0.738745808601379395
-0.350753188133239746 -1.21225035190582275 0.903022408485412598
-4.7723388671875 0.88843989372253418 0.0647618770599365234
2.49291682243347168 -1.76846086978912354 0.24644528329372406
-3.79410123825073242 2.3164515495300293 -0.100949518382549286
-1.23772764205932617 -0.33535844087600708 0.599350690841674805
-5.32643556594848633 2.80519533157348633 0.0509809628129005432
1.90500068664550781 -0.252937048673629761 0.0829476714134216309
2.51201105117797852 -1.79527461528778076 0.238859891891479492
-5.64947843551635742 -0.133382096886634827 0.652472138404846191
0.831571817398071289 -0.816204249858856201 0.816548824310302734
-6.09140968322753906 2.0427241325378418 0.571727216243743896
0.0708118677139282227 -0.299587070941925049 0.107077375054359436
1.73294603824615479 1.67325067520141602 -0.284296363592147827
-2.33970761299133301 -0.821420192718505859 0.0674319565296173096
2.52137255668640137 -1.74836516380310059 0.254591971635818481
-1.0566936731338501 -0.99840778112411499 0.536761581897735596
-1.82721829414367676 -0.217355728149414062 0.572613120079040527
2.46737146377563477 -1.80346357822418213 0.255221754312515259
-5.66354084014892578 0.854179501533508301 -0.441669464111328125
0.720404088497161865 1.72080683708190918 0.474782556295394897
0.943410038948059082 -0.093074113130569458 -0.76799166202545166
1.23814582824707031 0.342384219169616699 -0.825492382049560547
0.292684435844421387 1.50796949863433838 -0.615108609199523926
0.40179908275604248 -0.527205526828765869 -0.199657455086708069
-1.45478379726409912 -0.755297958850860596 -0.3524303138256073
-4.27864980697631836 4.23732376098632812 0.396125972270965576
-2.16735506057739258 1.44508135318756104 0.347100496292114258
-3.43285942077636719 3.42331242561340332 -0.184524074196815491
2.79263949394226074 1.38599860668182373 0.0280625671148300171
2.2099604606628418 2.35761713981628418 0.0228392481803894043
-0.33701026439666748 0.278621137142181396 0.229041919112205505
1.61526370048522949 1.18474972248077393 -0.704912304878234863
1.22036659717559814 0.446845591068267822 -0.719497382640838623
0.33232647180557251 -1.85605919361114502 -0.21311892569065094
1.44291162490844727 1.02838301658630371 0.950463652610778809
-0.682923495769500732 1.46293997764587402 0.0928471982479095459
-2.26347708702087402 1.16671717166900635 -0.170655354857444763
1.46179819107055664 -0.455621331930160522 0.915938973426818848
-5.5947575569152832 -0.155364274978637695 -0.147438585758209229
-0.34791797399520874 -1.72832143306732178 0.318911373615264893
0.938891172409057617 1.12726402282714844 -0.413961797952651978
2.48729872703552246 -1.76446843147277832 0.284499287605285645
-2.2969660758972168 2.28522443771362305 -0.198806270956993103
1.8931049108505249 -0.178905695676803589 -0.683950603008270264
-4.81487655639648438 -0.112557291984558105 -0.793246448040008545
0.709193587303161621 1.65502333641052246 -0.288274943828582764
-3.06611037254333496 0.0188124775886535645 0.775848865509033203
0.408540636301040649 0.652933955192565918 0.75484234094619751
0.342323780059814453 1.56004679203033447 1.0794987678527832
-1.92627584934234619 -2.46444797515869141 1.24131643772125244
-1.05658280849456787 -0.586301922798156738 0.170968294143676758
0.928444623947143555 0.233902394771575928 0.736908376216888428
-2.07275271415710449 -1.89857220649719238 -0.176096335053443909
-1.42388379573822021 1.50672221183776855 0.550395369529724121
-2.90557765960693359 4.29275798797607422 0.193821460008621216
-0.793509483337402344 -1.25916719436645508 -0.111271515488624573
-1.81577754020690918 0.448491215705871582 0.0934981554746627808
0.796991169452667236 1.70494985580444336 0.0540063232183456421
-0.634623229503631592 1.11699604988098145 1.54843521118164062
-5.83346796035766602 0.42659643292427063 1.24384331703186035
-2.97181463241577148 1.28825020790100098 0.388556182384490967
-3.84321355819702148 -0.297707438468933105 0.747034788131713867
-5.47694587707519531 2.11007070541381836 0.191362470388412476
-5.05474185943603516 1.28120088577270508 -0.13121369481086731
-2.5586695671081543 -0.551759064197540283 0.714736461639404297
-0.671759963035583496 0.754587888717651367 -0.0327135771512985229
-2.94695663452148438 2.2610785961151123 0.299738109111785889
0.902565419673919678 -0.187795668840408325 1.23411667346954346
-4.12310123443603516 3.37901711463928223 -0.172664597630500793
-1.3534543514251709 -0.333832085132598877 0.358753174543380737
-1.78256416320800781 0.459457755088806152 0.792814791202545166
2.53118085861206055 1.85312378406524658 1.58118152618408203
2.53282356262207031 -1.79784083366394043 0.233528673648834229
-1.92167448997497559 -2.62810349464416504 -0.925900042057037354
-0.349684178829193115 -0.819863319396972656 0.284896939992904663
-1.69379508495330811 -0.898996531963348389 0.465994268655776978
2.4974365234375 -1.80218231678009033 0.264969110488891602
1.05632126331329346 -0.509115755558013916 -0.817870676517486572
-0.472514033317565918 -0.193695008754730225 0.103587985038757324
-1.80833029747009277 0.155533000826835632 0.551765024662017822
2.67460250854492188 1.97046542167663574 0.298276752233505249
2.51750278472900391 -1.76064503192901611 0.271043241024017334
-5.16662693023681641 0.392742276191711426 0.284216433763504028
-0.270153403282165527 1.15089774131774902 0.0980609282851219177
-3.54312419891357422 0.971254408359527588 0.705823957920074463
-0.344924598932266235 -0.663499951362609863 0.596864521503448486
-4.54759359359741211 4.28835344314575195 -0.204222977161407471
-4.74643325805664062 3.79385614395141602 0.401910603046417236
1.64564228057861328 1.75991725921630859 -0.893743157386779785
-3.79253077507019043 3.02386736869812012 -0.0900927260518074036
-3.55107665061950684 3.94650673866271973 0.3741188645362854
1.11952197551727295 0.59615933895111084 0.70018923282623291
-1.00578784942626953 0.980683088302612305 0.547811746597290039
-2.90573382377624512 0.359362989664077759 -0.552113533020019531
0.843412697315216064 -0.78548198938369751 0.0992403477430343628
-4.30636215209960938 1.78905272483825684 -0.0811634287238121033
-2.66641998291015625 0.516175687313079834 0.707879900932312012
1.126670241355896 1.73415005207061768 0.969585597515106201
-0.35087236762046814 -2.3598177433013916 0.53274226188659668
2.50804996490478516 -1.80198800563812256 0.244200587272644043
-4.48329591751098633 2.44489526748657227 -0.0844541192054748535
-2.26236963272094727 2.92238140106201172 -0.175913542509078979
1.27157449722290039 -1.73088610172271729 -0.199232012033462524
-2.98483967781066895 2.90687417984008789 0.541342437267303467
-1.85509681701660156 -0.854079842567443848 0.698758125305175781
-4.01423740386962891 3.99305534362792969 -0.13292655348777771
1.2888336181640625 -0.873861193656921387 -0.200347647070884705
0.914096474647521973 1.11886203289031982 0.206146746873855591
-5.84025812149047852 0.314165681600570679 0.170546382665634155
-1.83171546459197998 -0.979776442050933838 -0.409208893775939941
-2.07706069946289062 -2.29734969139099121 1.9031519889831543
-1.24853885173797607 -0.827229082584381104 -0.091027870774269104
-1.20476818084716797 0.254429340362548828 0.522291660308837891
-5.57463693618774414 0.896148920059204102 0.999485969543457031
-3.10846376419067383 3.56244158744812012 0.277443826198577881
1.79418432712554932 -0.84859168529510498 -0.212729975581169128
-5.20686435699462891 3.68725681304931641 0.0289231389760971069
-1.6464087963104248 -0.456663131713867188 1.14836239814758301
2.49635100364685059 -1.74909627437591553 0.218102306127548218
0.743865609169006348 -0.37569078803062439 0.181164488196372986
-0.8214607834815979 -0.498596489429473877 0.423308134078979492
-0.340246230363845825 -1.1839592456817627 0.328535377979278564
-1.48210906982421875 -0.174554437398910522 0.172755539417266846
-6.06108379364013672 1.44584667682647705 0.620859146118164062
-0.11648114025592804 -0.671568155288696289 -0.199466347694396973
-3.01092529296875 0.696009278297424316 0.538464784622192383
-1.93966066837310791 -2.59943532943725586 0.234465241432189941
-5.78238439559936523 2.63104104995727539 0.416002988815307617
0.44481167197227478 -2.39335060119628906 -0.20429345965385437
-3.2748255729675293 -0.0334210768342018127 -0.389308065176010132
0.460166752338409424 1.64144551753997803 0.507227063179016113
-0.212099477648735046 -1.78957223892211914 -0.200815275311470032
0.910309970378875732 -0.305769145488739014 0.628584980964660645
-2.26853084564208984 1.68789231777191162 -0.180592179298400879
2.52205204963684082 -1.72636950016021729 0.2199888676404953
-2.16665506362915039 -0.413466393947601318 -0.0793237090110778809
-3.03547811508178711 3.89389204978942871 -0.149510949850082397
-0.657579660415649414 -0.150194287300109863 0.345373243093490601
0.314913153648376465 -1.03758549690246582 -0.202106297016143799
-3.38968539237976074 0.455736875534057617 0.700287103652954102
1.44795536994934082 0.0267040431499481201 0.0477441996335983276
1.45807027816772461 -0.565220415592193604 0.080471232533454895
0.795637965202331543 1.74724698066711426 -0.836041927337646484
-0.815665543079376221 -1.01017463207244873 0.3199576735496521
-4.51551914215087891 3.73609280586242676 -0.0923963934183120728
-3.15001177787780762 1.36832475662231445 1.09442949295043945
-0.305217921733856201 -0.355592578649520874 -0.211895853281021118
-0.437248051166534424 -0.927327752113342285 -0.159758627414703369
2.52952337265014648 -1.7981795072555542 0.243975475430488586
-4.54531145095825195 1.26488614082336426 -0.0987139344215393066
-0.718835771083831787 -0.172998160123825073 0.604555666446685791
-2.09387731552124023 -2.2943265438079834 -0.507630050182342529
-0.656254947185516357 1.64212572574615479 -0.439422726631164551
2.4925236701965332 -1.7684779167175293 0.226457327604293823
-3.13105607032775879 2.3206324577331543 1.09760069847106934
2.35607814788818359 1.57192325592041016 0.227067261934280396
-1.98408448696136475 -0.508104503154754639 0.263234138488769531
-1.86095261573791504 -0.566876769065856934 0.189259722828865051
