ply
format ascii 1.0
element vertex 67
comment vertices
property float x
property float y
property float z
end_header
-1.35579347610473633 -2.79031157493591309 0.0755086839199066162
0.91539078950881958 0.953916251659393311 0.0482874289155006409
-0.491357237100601196 -3.06507062911987305 0.0736273303627967834
0.34157523512840271 -1.21970582008361816 0.0885362625122070312
-0.370068520307540894 1.28052353858947754 0.0765676200389862061
-0.486814975738525391 -3.06631588935852051 0.0726035386323928833
-1.35561835765838623 -2.79348087310791016 0.0726137831807136536
1.24037110805511475 -2.83879923820495605 0.328942775726318359
-0.401505827903747559 -1.28044021129608154 0.432276159524917603
-1.35864472389221191 -2.78875422477722168 0.0775658711791038513
-0.488346189260482788 -3.06404995918273926 0.0753795206546783447
-0.487166851758956909 -3.06918501853942871 0.0709891095757484436
1.00953543186187744 -0.885325968265533447 0.387468725442886353
0.919298946857452393 0.953848004341125488 0.0534475035965442657
-0.353995203971862793 1.27682006359100342 0.0669694393873214722
-0.470422506332397461 3.06781101226806641 0.06210307776927948
-0.972967743873596191 0.866840481758117676 0.380580276250839233
-0.490349858999252319 -3.06445217132568359 0.0741058588027954102
-1.10285604000091553 -0.701125144958496094 0.266312777996063232
-1.1290900707244873 -0.702517271041870117 0.258616745471954346
-1.35578405857086182 -2.7914884090423584 0.0757143497467041016
0.918889403343200684 0.952459037303924561 0.0517249032855033875
2.06929826736450195 -2.3255465030670166 0.102855533361434937
0.379633933305740356 -1.27750551700592041 0.118826597929000854
1.25406575202941895 -2.86295104026794434 0.326790511608123779
-0.987624168395996094 0.879926204681396484 0.405316978693008423
-2.67452526092529297 -1.55050969123840332 0.397380590438842773
0.995324134826660156 -0.888934731483459473 0.408955663442611694
-1.11316347122192383 -0.710075259208679199 0.29111403226852417
0.92162168025970459 0.951372087001800537 0.0499385334551334381
-1.35380709171295166 -2.79146194458007812 0.0738679766654968262
-0.362662732601165771 1.27287101745605469 0.0721679627895355225
-0.358817875385284424 1.27161502838134766 0.0688322186470031738
1.70003390312194824 -5.19456815719604492 0.117217332124710083
0.235341548919677734 1.30627179145812988 0.374482601881027222
-1.20798242092132568 1.04262399673461914 0.321288973093032837
-1.35365962982177734 -2.79078769683837891 0.0746276527643203735
0.9225882887840271 0.957071006298065186 0.0519242174923419952
-0.473638385534286499 3.05681300163269043 0.0602114684879779816
-0.4913502037525177 -3.0661616325378418 0.0741578787565231323
0.21972191333770752 1.31127059459686279 0.380252957344055176
1.4466785192489624 -2.75827407836914062 0.283743590116500854
-0.471910268068313599 -1.31587481498718262 0.415220648050308228
-0.487744837999343872 -3.06593966484069824 0.0737616792321205139
-0.487063407897949219 -3.0663297176361084 0.073655933141708374
-0.479460924863815308 3.07244992256164551 0.0721253901720046997
-0.489188492298126221 -3.06629443168640137 0.0741837546229362488
1.68341648578643799 -5.21021270751953125 0.124879345297813416
0.919117331504821777 0.953676760196685791 0.0506801418960094452
-1.35355603694915771 -2.79069638252258301 0.0734910890460014343
1.25518155097961426 -2.84460282325744629 0.309176206588745117
-2.41906905174255371 1.97615349292755127 0.100965112447738647
0.904092729091644287 -0.950124204158782959 0.32529643177986145
-2.40634679794311523 1.97071945667266846 0.130101144313812256
-1.35480964183807373 -2.79057788848876953 0.0750684589147567749
0.393670618534088135 -1.27693057060241699 0.131053537130355835
-1.10494422912597656 -0.710578322410583496 0.273339182138442993
-0.365711212158203125 1.27581071853637695 0.0727466419339179993
-1.08625650405883789 -0.700720846652984619 0.301165223121643066
0.909430921077728271 1.02221429347991943 0.0632430762052536011
0.208073794841766357 1.29966855049133301 0.379637777805328369
-0.489172279834747314 -3.06472682952880859 0.0743635296821594238
1.67324423789978027 -5.19313716888427734 0.123314797878265381
-0.48943212628364563 -3.06738448143005371 0.0730039924383163452
0.235688716173171997 1.32639420032501221 0.367217004299163818
-1.00439989566802979 0.876041233539581299 0.411317408084869385
-1.35522341728210449 -2.7910003662109375 0.0743619129061698914
