ply
format ascii 1.0
element vertex 65
comment vertices
property float x
property float y
property float z
end_header
5.18457460403442383 1.72883105278015137 0.288685202598571777
0.0932243019342422485 3.07876253128051758 0.161341547966003418
0.0145379723981022835 0.016252860426902771 -0.0045730099081993103
0.0995453298091888428 3.08357477188110352 0.166280344128608704
-1.26756691932678223 0.382341712713241577 0.142239436507225037
0.293719172477722168 -1.29353642463684082 0.414103478193283081
-1.0289381742477417 -0.851920902729034424 0.0735710412263870239
0.0987750515341758728 3.08559513092041016 0.161783203482627869
-2.46248531341552734 1.90201866626739502 0.14778900146484375
-2.45544147491455078 1.92278194427490234 0.163732975721359253
0.0973306521773338318 3.08165383338928223 0.164733543992042542
-1.26814603805541992 0.399239808320999146 0.147911310195922852
0.095956854522228241 3.08153605461120605 0.157084003090858459
0.0971377938985824585 3.08046436309814453 0.160944640636444092
0.98000025749206543 -2.94449877738952637 0.0513031631708145142
-1.31672298908233643 0.400573134422302246 0.125146642327308655
-0.730787158012390137 1.10438191890716553 0.207910969853401184
-2.57422900199890137 4.80370235443115234 0.263161629438400269
0.336223602294921875 1.28681731224060059 0.407871276140213013
1.25249922275543213 0.434130698442459106 0.142384946346282959
0.0966961085796356201 3.08097267150878906 0.163414239883422852
0.0958823263645172119 3.08438444137573242 0.162079408764839172
-1.79264283180236816 2.51062703132629395 0.248652622103691101
0.097362712025642395 3.08139729499816895 0.165015161037445068
0.0970046520233154297 3.08150362968444824 0.165345802903175354
2.83897209167480469 1.2683103084564209 0.433830946683883667
5.15109348297119141 1.70724940299987793 0.266784787178039551
0.350929737091064453 1.2772831916809082 0.416472434997558594
1.24915397167205811 0.458086192607879639 0.166498839855194092
0.0961872190237045288 3.08353924751281738 0.159694299101829529
-0.251353293657302856 2.33302068710327148 0.0301166176795959473
0.0958481431007385254 3.08312368392944336 0.164285629987716675
0.0975579023361206055 3.0849308967590332 0.162953093647956848
-2.46824336051940918 1.88245773315429688 0.14524860680103302
1.27607107162475586 0.431781947612762451 0.114987947046756744
-1.80602025985717773 2.54914522171020508 0.282478392124176025
-4.41202592849731445 3.21649932861328125 0.117044880986213684
-0.140482723712921143 -0.125368371605873108 0.0531930327415466309
-4.39404582977294922 3.2123572826385498 0.0828375667333602905
0.0962396040558815002 3.07978129386901855 0.160416260361671448
0.096963927149772644 3.0809931755065918 0.156412854790687561
0.0958390086889266968 3.08533573150634766 0.163145750761032104
-1.27870297431945801 0.391322970390319824 0.155740499496459961
0.0941168367862701416 3.07988858222961426 0.16396448016166687
0.0952895879745483398 3.08179020881652832 0.163893520832061768
1.10199213027954102 0.770803213119506836 0.459355741739273071
0.097527623176574707 3.08248281478881836 0.166529729962348938
0.975130617618560791 -2.94838285446166992 0.0424827486276626587
-4.40344905853271484 3.21500682830810547 0.12168595939874649
0.316329598426818848 1.29218173027038574 0.369559645652770996
-1.29954373836517334 0.411496520042419434 0.152349129319190979
-1.30041182041168213 0.360336065292358398 0.144995391368865967
-2.4612119197845459 1.89743626117706299 0.154156595468521118
-2.97686171531677246 -0.943480610847473145 0.132260486483573914
-4.41175985336303711 3.22843718528747559 0.112637162208557129
-2.5888521671295166 4.77669954299926758 0.261506587266921997
0.0975405424833297729 3.08448576927185059 0.164702415466308594
0.0966863706707954407 3.08152914047241211 0.165617749094963074
5.1802058219909668 1.71211767196655273 0.283320963382720947
0.0967306196689605713 3.08178591728210449 0.165138840675354004
5.18145275115966797 1.72502648830413818 0.292798846960067749
0.0931794941425323486 -0.225189879536628723 0.025847017765045166
1.26280653476715088 0.420769274234771729 0.0815030857920646667
0.0989651381969451904 3.08400297164916992 0.161168605089187622
0.301662653684616089 -1.30434143543243408 0.349148988723754883
