ply
format ascii 1.0
element vertex 62
comment vertices
property float x
property float y
property float z
end_header
1.07514667510986328 -0.765953302383422852 0.0672250017523765564
-3.05257940292358398 -0.626284182071685791 0.270587921142578125
2.02078652381896973 2.3504948616027832 0.167616784572601318
1.13503336906433105 0.675845503807067871 0.0516902431845664978
-0.00278878957033157349 -0.0143644511699676514 0.017961844801902771
-3.05637240409851074 -0.620783746242523193 0.26999199390411377
2.58931088447570801 1.69282639026641846 0.341188520193099976
0.0539852902293205261 0.0500296205282211304 -0.0311806946992874146
-3.05334854125976562 -0.62494426965713501 0.271087616682052612
-3.0536806583404541 -0.622572779655456543 0.26152878999710083
0.0408218465745449066 0.0654815435409545898 0.153275847434997559
2.3307955265045166 2.0406036376953125 0.386000365018844604
-3.05234551429748535 -0.624795317649841309 0.271207183599472046
-3.05362343788146973 -0.627268135547637939 0.267305612564086914
-1.31490945816040039 -0.0279306620359420776 0.33118736743927002
-3.05212020874023438 -0.618845880031585693 0.268235325813293457
-3.05332851409912109 -0.625414550304412842 0.269296735525131226
-3.05423808097839355 -0.62126690149307251 0.271845966577529907
-3.05465865135192871 -0.624991297721862793 0.265727072954177856
1.1520087718963623 0.65538942813873291 0.0497907102108001709
-1.29917430877685547 -0.0417762733995914459 0.295722484588623047
-2.94299483299255371 0.976737737655639648 0.36736595630645752
0.101896136999130249 0.0462232977151870728 0.184896141290664673
0.260218709707260132 1.30223774909973145 0.0647103562951087952
-0.930853843688964844 0.913636565208435059 0.262282848358154297
-3.05643129348754883 -0.623176097869873047 0.265077590942382812
-1.31902813911437988 -0.0154708623886108398 0.297795921564102173
2.00654435157775879 2.33914065361022949 0.16839657723903656
-3.05327558517456055 -0.62525475025177002 0.269989609718322754
-2.52067351341247559 4.8267359733581543 0.362674504518508911
2.83933258056640625 1.25262284278869629 0.110391825437545776
-1.32514572143554688 -0.0142942965030670166 0.315130114555358887
-3.05311822891235352 -0.625496745109558105 0.269251734018325806
-3.05344939231872559 -0.625801205635070801 0.270295500755310059
-3.05364704132080078 -0.624461054801940918 0.270683467388153076
-1.89998769760131836 2.43350887298583984 0.134575068950653076
-1.37180054187774658 0.554655790328979492 0.173250436782836914
-3.05309343338012695 -0.625877320766448975 0.26964336633682251
-3.05367374420166016 -0.623134016990661621 0.271701782941818237
0.339694023132324219 3.07914924621582031 0.116769582033157349
2.56162548065185547 1.70009613037109375 0.308058381080627441
2.5677182674407959 1.67678642272949219 0.298659294843673706
-3.05550432205200195 -0.623452365398406982 0.264099061489105225
-0.952358365058898926 0.955510318279266357 0.270369678735733032
-0.9691009521484375 -0.923033177852630615 0.371053576469421387
2.02799797058105469 2.3280179500579834 0.1594696044921875
2.31585407257080078 2.06544184684753418 0.396680653095245361
-3.05656051635742188 -0.621338725090026855 0.267229616641998291
-3.05234766006469727 -0.621221363544464111 0.263521194458007812
-3.05389237403869629 -0.624768257141113281 0.269349128007888794
2.83278393745422363 1.25457441806793213 0.132188349962234497
-3.05498862266540527 -0.624139249324798584 0.266061872243881226
2.30929732322692871 2.0400547981262207 0.41865241527557373
-3.05375313758850098 -0.623452186584472656 0.272295951843261719
-1.32030236721038818 -0.0378028601408004761 0.330109059810638428
0.0616917982697486877 0.0162216871976852417 0.00350082968361675739
-2.93190288543701172 0.965894460678100586 0.369558423757553101
-0.922177433967590332 0.93678128719329834 0.279295682907104492
-2.94327163696289062 0.962063372135162354 0.364498168230056763
2.85144662857055664 1.26774430274963379 0.141757458448410034
2.58575654029846191 1.68389773368835449 0.321955353021621704
1.0916212797164917 -0.757700681686401367 0.0590664446353912354
