ply
format ascii 1.0
element vertex 256
comment vertices
property float x
property float y
property float z
end_header
-0.311975479125976562 0.459750771522521973 -0.169889941811561584
5.37273740768432617 1.99571573734283447 0.231801345944404602
-3.25149250030517578 6.05645942687988281 0.379123330116271973
0.737207114696502686 -3.95916628837585449 0.0988962501287460327
0.0703644156455993652 3.07053232192993164 0.164800822734832764
-4.81991958618164062 2.68889069557189941 -0.136790439486503601
-3.30994772911071777 -2.06469082832336426 1.18235194683074951
2.46738862991333008 0.763041377067565918 1.39542531967163086
-2.47103714942932129 3.14528346061706543 0.472279250621795654
0.179459422826766968 -1.29801058769226074 2.13121604919433594
0.80425792932510376 0.29415971040725708 -0.238041549921035767
-1.77053284645080566 -1.90166008472442627 0.613762021064758301
-0.0695308297872543335 1.8651580810546875 1.22102141380310059
-3.64404630661010742 1.78637325763702393 -0.0634409785270690918
-0.989898979663848877 2.3103795051574707 0.256524473428726196
1.16907739639282227 0.778330564498901367 2.05414986610412598
-0.126575395464897156 -1.2939598560333252 -0.781927287578582764
-1.95868825912475586 0.161808907985687256 -0.194758862257003784
0.0220990777015686035 0.199646115303039551 -0.108769491314888
-2.00480771064758301 3.55901074409484863 0.389296084642410278
3.45980072021484375 1.76180708408355713 -0.869105875492095947
1.06185603141784668 0.570564091205596924 -0.753033757209777832
-1.04302299022674561 1.8549346923828125 0.0944944173097610474
0.131444931030273438 3.08672070503234863 0.168141230940818787
-4.29415130615234375 3.33103275299072266 2.11552977561950684
-2.52133083343505859 0.39570203423500061 0.0560476928949356079
0.122842788696289062 0.490071803331375122 0.244613081216812134
-1.89241492748260498 0.212913453578948975 0.72521507740020752
5.18122959136962891 1.81848394870758057 2.26040029525756836
0.655464053153991699 -1.91853427886962891 0.177866250276565552
-3.26930880546569824 -0.0080763697624206543 1.25021266937255859
-1.93193769454956055 -1.82091808319091797 -0.209217637777328491
0.0150827765464782715 -1.89718937873840332 -0.115454904735088348
-0.264037907123565674 2.01581740379333496 -0.804910123348236084
-1.17456865310668945 1.95519900321960449 -0.502066433429718018
1.25837910175323486 0.410443812608718872 1.41703426837921143
-1.5870128870010376 0.616198539733886719 0.243110999464988708
2.09033846855163574 -2.91261768341064453 0.0467431060969829559
-1.18095827102661133 3.61848950386047363 -0.48526415228843689
0.936387181282043457 0.524438142776489258 0.849699616432189941
-3.36068224906921387 -0.902661681175231934 -0.153412997722625732
-1.91812992095947266 5.13192558288574219 0.379387915134429932
1.07079625129699707 1.94403946399688721 -0.0336484611034393311
1.05429267883300781 0.853178560733795166 -0.106253325939178467
2.53364729881286621 0.745704531669616699 -0.180243834853172302
0.536950111389160156 -1.27703738212585449 0.591820418834686279
-1.09194445610046387 -0.807307302951812744 -0.194250985980033875
0.120151430368423462 3.13833475112915039 0.167058750987052917
-3.26922225952148438 4.38624477386474609 0.387924849987030029
-2.39273285865783691 1.82123613357543945 0.536010146141052246
-0.12303103506565094 0.685463428497314453 -0.0840316414833068848
3.40855622291564941 1.62819969654083252 0.498155683279037476
-2.2388908863067627 1.77842140197753906 0.459944367408752441
-3.98599624633789062 3.75215387344360352 -0.19134974479675293
0.108962856233119965 3.08179879188537598 0.162315964698791504
-1.10886311531066895 2.78091025352478027 0.448765397071838379
-1.33966851234436035 0.281385302543640137 0.40718156099319458
0.0666471123695373535 3.13094878196716309 0.180559098720550537
-0.0146281719207763672 -2.94730234146118164 0.184579908847808838
0.119779706001281738 1.63834977149963379 0.30629199743270874
-2.1471257209777832 5.88435697555541992 -0.532774627208709717
-1.10518574714660645 1.30721211433410645 0.491307824850082397
-3.10464048385620117 -2.06218600273132324 -0.240356326103210449
-3.04623723030090332 3.72311282157897949 -0.545241117477416992
-4.40180397033691406 3.2225801944732666 0.799139142036437988
-2.29427480697631836 3.7255251407623291 -0.43102341890335083
-0.0931016802787780762 0.726372480392456055 1.22126162052154541
-3.34721684455871582 0.179420650005340576 0.149655967950820923
-1.5900421142578125 3.76775622367858887 0.479445159435272217
2.46713066101074219 1.80156397819519043 -0.468766331672668457
1.00342810153961182 0.790934085845947266 0.991615891456604004
2.48294591903686523 1.80030357837677002 1.03112542629241943
-0.0237196683883666992 1.81149053573608398 0.198749661445617676
5.23292255401611328 1.64646995067596436 1.2211374044418335
-1.86461687088012695 -0.848736941814422607 0.734369874000549316
0.0967908799648284912 3.10093140602111816 0.17128869891166687
1.04143893718719482 -2.93005967140197754 -0.0276508256793022156
-0.811068236827850342 -0.0681050419807434082 0.25049927830696106
-1.06468808650970459 -1.85294985771179199 -0.197946846485137939
1.24653542041778564 0.411134600639343262 2.57150936126708984
3.51356005668640137 0.75225222110748291 -0.510572731494903564
-3.32941341400146484 -0.994736671447753906 0.911447584629058838
-0.0458561182022094727 -0.830937623977661133 -0.107770264148712158
-1.01092433929443359 0.201894760131835938 -0.160166308283805847
-2.29015707969665527 1.95104885101318359 -0.518461942672729492
-2.19765138626098633 -0.831990540027618408 -0.232119128108024597
-0.694886922836303711 1.03827452659606934 0.258849203586578369
5.10590124130249023 1.31424212455749512 -0.455131381750106812
-1.60164117813110352 1.54936885833740234 0.299097895622253418
-2.2546694278717041 6.04367923736572266 0.387991100549697876
-4.9097142219543457 3.64239263534545898 -0.093508988618850708
-2.08978033065795898 3.74096274375915527 -0.518413126468658447
-3.91007614135742188 2.85920238494873047 0.0511686615645885468
0.778729438781738281 2.07944416999816895 0.857874095439910889
-3.08545279502868652 5.89426755905151367 -0.516036391258239746
1.71281099319458008 0.545872688293457031 -0.165195539593696594
-2.84483623504638672 5.17071866989135742 0.358361333608627319
0.665524005889892578 1.19469678401947021 0.285089552402496338
1.26154136657714844 0.424154072999954224 0.561681628227233887
-0.0784105062484741211 2.1270301342010498 -0.415731877088546753
3.22047042846679688 0.752552211284637451 0.450801640748977661
0.100814402103424072 3.09895229339599609 0.15664982795715332
1.11116206645965576 0.756984889507293701 -0.898976683616638184
-1.35443627834320068 0.104975342750549316 -0.421814590692520142
-2.96989941596984863 3.56443309783935547 0.345350325107574463
-2.32788920402526855 4.4056096076965332 0.386383146047592163
-1.45308911800384521 2.09461832046508789 -0.413535505533218384
-0.114265292882919312 -1.35642647743225098 0.0438538938760757446
-2.77826404571533203 2.13876152038574219 -0.16594792902469635
1.07603096961975098 2.0136406421661377 -0.831914126873016357
0.0996428057551383972 3.12554717063903809 0.151083916425704956
-1.94491136074066162 2.04249405860900879 -0.111296907067298889
-1.89943981170654297 2.53424167633056641 0.461876273155212402
0.109744280576705933 3.07475996017456055 0.164003029465675354
0.10732046514749527 3.0934290885925293 0.150753945112228394
2.6121060848236084 1.37069439888000488 0.346238911151885986
-2.78438758850097656 -0.289986997842788696 -0.260832160711288452
-3.3133389949798584 -1.6672825813293457 0.442273437976837158
-0.014796823263168335 0.0730797052383422852 -0.42726019024848938
0.170526936650276184 -1.30434942245483398 1.33521795272827148
-0.709889769554138184 0.722072720527648926 0.600541949272155762
-1.48756766319274902 -0.33570784330368042 0.279794812202453613
-1.689727783203125 1.63130807876586914 -0.0473818928003311157
5.13639116287231445 1.3321986198425293 0.529545783996582031
-0.264362603425979614 0.565686047077178955 -0.796659946441650391
5.10860824584960938 2.09712839126586914 -0.499684512615203857
-3.05469083786010742 1.55774569511413574 0.306551754474639893
-1.66019177436828613 1.90696609020233154 0.671838045120239258
-2.75006723403930664 -1.38480472564697266 -0.187050595879554749
2.47846698760986328 1.44524002075195312 1.74163532257080078
-1.42066407203674316 -1.29865539073944092 0.242086529731750488
-0.0202305912971496582 1.26446878910064697 0.680796980857849121
-1.82736361026763916 3.31890654563903809 -0.082230687141418457
1.07842338085174561 0.637269854545593262 0.057188764214515686
-1.31279754638671875 2.0366826057434082 0.453918278217315674
2.56656169891357422 0.818729281425476074 -0.874702751636505127
0.0920306220650672913 3.13268208503723145 0.162762165069580078
-0.246549457311630249 2.29992294311523438 0.263933926820755005
0.103318721055984497 3.10707974433898926 0.146317124366760254
-1.86400270462036133 0.544774889945983887 -0.0201023295521736145
-0.564820647239685059 -1.34103918075561523 -0.133838430047035217
-0.547742962837219238 -0.347016572952270508 -0.138097241520881653
2.45705008506774902 0.740064918994903564 0.666780650615692139
-3.33474540710449219 -0.373220831155776978 0.609169363975524902
-2.33373022079467773 3.04186153411865234 -0.501195251941680908
3.51353645324707031 1.77513110637664795 -0.164017945528030396
-1.48080754280090332 -0.0638254284858703613 0.238861605525016785
0.432030469179153442 -1.28531086444854736 -0.371715724468231201
-0.574762821197509766 1.67715096473693848 0.305959612131118774
-1.34252238273620605 2.93158411979675293 -0.495508491992950439
-1.27805614471435547 1.27250337600708008 -0.455951154232025146
-0.735389232635498047 0.0307251214981079102 0.578676819801330566
0.114965468645095825 3.12636685371398926 0.15882834792137146
-2.24351024627685547 3.76656866073608398 0.463106095790863037
-1.84104704856872559 1.250846266746521 0.473954379558563232
-2.39834308624267578 1.59728801250457764 -0.0789962410926818848
0.293018966913223267 0.55350649356842041 0.741250813007354736
1.14371347427368164 0.849577426910400391 -0.193727165460586548
1.35636258125305176 -0.024464339017868042 -0.0893052741885185242
-1.21861076354980469 3.30142974853515625 0.149663537740707397
-1.59237754344940186 2.22510766983032227 0.269428491592407227
-4.38117361068725586 3.64487290382385254 0.266417711973190308
-0.1384468674659729 -0.088020026683807373 0.275311976671218872
-4.82880687713623047 3.14921307563781738 0.276114702224731445
-0.0936676561832427979 1.11291050910949707 0.245622560381889343
-2.34867548942565918 1.35052680969238281 -0.447393983602523804
-2.46429896354675293 2.31711387634277344 0.440657079219818115
0.0878983289003372192 3.09549331665039062 0.171854883432388306
-0.45774155855178833 0.459364742040634155 0.249692514538764954
-2.46644067764282227 -2.0422523021697998 -0.258756905794143677
0.625078022480010986 1.80486106872558594 0.320246309041976929
0.0511307418346405029 3.11510348320007324 0.181047648191452026
-1.74071061611175537 3.11796069145202637 0.468334615230560303
0.100462555885314941 3.13854742050170898 0.137528061866760254
0.143303796648979187 2.03236508369445801 0.748635947704315186
-1.02676224708557129 0.531977653503417969 0.300248026847839355
1.30729544162750244 -3.45884180068969727 -0.0435137376189231873
-1.28905534744262695 1.08197271823883057 0.294568359851837158
0.0859640240669250488 3.07072162628173828 0.15382327139377594
-3.3167872428894043 -1.50549113750457764 1.25781238079071045
1.03225874900817871 -2.34207391738891602 0.0622675232589244843
2.46987247467041016 1.20920670032501221 0.982991456985473633
-2.7441103458404541 5.73058557510375977 0.38712736964225769
-3.32114315032958984 -1.45475268363952637 -0.179689064621925354
-0.178328827023506165 1.3076319694519043 1.25275516510009766
0.0964670628309249878 3.10074877738952637 0.145950913429260254
-2.44204235076904297 1.21368074417114258 0.48900139331817627
-2.78442764282226562 4.10246562957763672 0.349184125661849976
-1.14401924610137939 1.60471129417419434 0.0124454796314239502
1.17227649688720703 0.779509246349334717 0.425082504749298096
5.18365049362182617 1.76634311676025391 1.7456212043762207
0.117730259895324707 3.08140659332275391 0.156195729970932007
-2.37113547325134277 3.40554475784301758 -0.00350500643253326416
1.56491899490356445 -2.90694308280944824 0.141345739364624023
-3.28191399574279785 2.04693889617919922 0.249680161476135254
0.493331313133239746 -2.89661359786987305 -0.0197345763444900513
-4.42083549499511719 2.76197504997253418 0.234552323818206787
0.240172415971755981 0.865233182907104492 0.289119452238082886
0.013328254222869873 0.376871824264526367 0.285490304231643677
-2.06079292297363281 2.28952145576477051 0.778133988380432129
-3.34799551963806152 -0.36288943886756897 -0.0633237585425376892
1.19296419620513916 0.782938599586486816 1.53490531444549561
-1.88594722747802734 -1.36136865615844727 0.75041043758392334
-1.45462989807128906 1.8669898509979248 -0.268925935029983521
-1.5473562479019165 0.199715137481689453 0.331937491893768311
-3.33542084693908691 -1.15209317207336426 0.353652417659759521
-0.142250090837478638 1.99389040470123291 -0.285911738872528076
-2.05038118362426758 1.53336191177368164 0.797943413257598877
-1.10479092597961426 0.60522007942199707 0.0460343882441520691
-3.25809097290039062 -0.525953590869903564 1.21715593338012695
-2.22812461853027344 -1.36829400062561035 -0.189660102128982544
-2.37459588050842285 1.74294757843017578 -0.0376986414194107056
2.45755147933959961 1.80861055850982666 0.0516803562641143799
-0.525723099708557129 -1.88155460357666016 -0.172972127795219421
-1.07559943199157715 1.54149854183197021 0.303514599800109863
-2.78650307655334473 -0.867818772792816162 -0.175139203667640686
-2.13350152969360352 0.316296488046646118 0.379425883293151855
-3.91432833671569824 3.37957191467285156 0.159268647432327271
-3.33867073059082031 0.161632418632507324 0.777031183242797852
-1.39854824542999268 -1.84241533279418945 0.192706108093261719
-2.80540299415588379 4.66710662841796875 0.350985676050186157
0.115180179476737976 3.11763477325439453 0.15182553231716156
-4.48005342483520508 3.89229393005371094 -0.217498883605003357
0.108268372714519501 3.0817255973815918 0.154045909643173218
5.21560001373291016 1.5306084156036377 0.0299281328916549683
-5.07439184188842773 3.13186788558959961 -0.193614616990089417
-1.12404239177703857 -1.34041500091552734 -0.171282544732093811
-3.27575278282165527 5.48377370834350586 0.392672210931777954
-1.87202191352844238 -0.288467347621917725 0.687008857727050781
1.25576174259185791 0.426570475101470947 1.98849153518676758
-2.01270008087158203 -0.363901883363723755 -0.238109007477760315
3.47369766235351562 0.857841074466705322 0.00754326581954956055
-1.52922201156616211 -0.841848254203796387 0.371582567691802979
-1.04017829895019531 -0.323326289653778076 -0.096576496958732605
0.105525806546211243 3.10137176513671875 0.146924346685409546
-4.23075580596923828 2.59746718406677246 -0.226573318243026733
-2.29115128517150879 5.48296308517456055 0.393440276384353638
-2.07061982154846191 5.80958318710327148 -0.0432345122098922729
-4.32040214538574219 3.21599054336547852 1.60896539688110352
5.20545530319213867 1.79289841651916504 0.657721877098083496
-0.0187007784843444824 -0.336014121770858765 -0.100550949573516846
-1.09028434753417969 3.77606320381164551 0.473105013370513916
-0.450976371765136719 0.199584543704986572 -0.119110956788063049
-0.545017004013061523 -0.849807620048522949 -0.0998035818338394165
1.15419113636016846 0.465233385562896729 0.112068817019462585
-1.80926501750946045 2.05727958679199219 0.451720237731933594
2.92684006690979004 1.76486539840698242 0.474019050598144531
1.05270755290985107 1.5277484655380249 0.349205613136291504
-1.47678160667419434 2.06299138069152832 0.227962464094161987
-2.20771980285644531 3.77840948104858398 -0.03568248450756073
-0.0701895356178283691 -1.37136673927307129 -0.12516668438911438
-2.99507546424865723 0.180481910705566406 -0.21145746111869812
-3.15804481506347656 1.78908967971801758 -0.15312919020652771
0.113888084888458252 3.12369942665100098 0.176704838871955872
0.521241605281829834 -1.31201291084289551 0.11128467321395874
-3.09606337547302246 5.82729053497314453 -0.0226107388734817505
