ply
format ascii 1.0
element vertex 256
comment vertices
property float x
property float y
property float z
end_header
-0.295363098382949829 1.85655093193054199 1.0887606143951416
1.24518489837646484 -3.72141051292419434 -0.201910436153411865
-3.84953546524047852 -1.41394674777984619 0.137337654829025269
-2.82166290283203125 2.72377610206604004 0.436202287673950195
-0.102446407079696655 -1.0002591609954834 0.320036947727203369
3.43861961364746094 2.40352988243103027 0.658993721008300781
-1.66235768795013428 -2.6182866096496582 2.61856627464294434
-3.2827613353729248 0.820911109447479248 1.80492854118347168
-1.62347710132598877 1.03895938396453857 0.124863624572753906
1.43141984939575195 -1.23174011707305908 0.0286386515945196152
-1.06806361675262451 1.44243240356445312 1.70574021339416504
-1.6829066276550293 -2.42925691604614258 -0.812757015228271484
-1.30097520351409912 -0.40345194935798645 0.374725073575973511
-1.97868061065673828 -0.0265049226582050323 -0.323080450296401978
-0.20831596851348877 0.567232012748718262 -0.873781025409698486
-2.91603279113769531 -1.38571202754974365 1.45871508121490479
0.885694384574890137 2.39481592178344727 -0.54507148265838623
-1.44056665897369385 -2.77617597579956055 -0.246107205748558044
0.704388260841369629 0.778415143489837646 2.17128467559814453
0.825715005397796631 0.660906076431274414 -0.750705063343048096
-1.27496910095214844 -0.428164839744567871 0.441003859043121338
-4.30231666564941406 -0.0112419929355382919 0.433031201362609863
-0.834592103958129883 -2.58788275718688965 0.145848050713539124
-0.6922760009765625 2.42586612701416016 -0.0785521045327186584
-2.10974907875061035 -1.37045788764953613 0.0961761400103569031
-1.79665708541870117 -1.18447005748748779 0.0784442350268363953
-0.585448503494262695 -1.27052211761474609 0.538444280624389648
-0.623880088329315186 2.03455305099487305 0.636853694915771484
-3.29775214195251465 0.79612278938293457 -0.735640466213226318
1.22802448272705078 2.23421716690063477 -0.174012124538421631
-0.166929185390472412 0.0854010656476020813 0.0670242160558700562
-0.0655324757099151611 0.290622949600219727 0.406707465648651123
1.79362630844116211 2.22419214248657227 0.855848431587219238
-0.165568992495536804 1.47980260848999023 -0.842670261859893799
-1.22698736190795898 1.57063043117523193 0.0618325471878051758
0.779613614082336426 1.32731437683105469 0.651988387107849121
0.00280839204788208008 0.572541713714599609 0.587862730026245117
-2.44521665573120117 0.0294398665428161621 1.07339620590209961
-1.88302302360534668 -1.4368441104888916 0.356197565793991089
-2.34279274940490723 -0.24685610830783844 0.15340501070022583
-2.24428892135620117 1.41044831275939941 0.0823030620813369751
0.499489068984985352 -2.71615934371948242 0.617146730422973633
-1.24888348579406738 -0.426386177539825439 0.388981133699417114
0.216680943965911865 -0.260606884956359863 0.0424847453832626343
0.163945034146308899 -2.32468891143798828 0.0370021574199199677
-0.41875651478767395 0.53104710578918457 0.578474164009094238
-1.27676999568939209 -0.426773726940155029 0.338374614715576172
-3.3916783332824707 0.344394266605377197 0.531093060970306396
-0.0680563151836395264 -3.64787411689758301 -0.171845600008964539
-3.23483633995056152 -0.234853208065032959 0.0808678120374679565
0.153593733906745911 1.4411998987197876 -0.179178893566131592
-1.66227042675018311 -1.45866012573242188 -0.863322913646697998
-1.67871880531311035 -2.61044478416442871 1.27746570110321045
-3.2276310920715332 -0.171172112226486206 -0.182793319225311279
-1.20907485485076904 -0.494398415088653564 -0.00974212586879730225
1.44507956504821777 -2.48753571510314941 -0.0695430636405944824
-2.79427266120910645 -1.92898643016815186 -0.0172972343862056732
-2.84750175476074219 -2.43825650215148926 -0.671136975288391113
-2.86982083320617676 -2.06798005104064941 0.403847932815551758
-1.83764505386352539 2.48352169990539551 -0.0929043889045715332
-1.20987439155578613 -0.381421864032745361 0.0456869564950466156
-2.54744434356689453 0.0206941217184066772 -0.232786431908607483
-1.19923913478851318 0.524602532386779785 -0.356890201568603516
0.372944891452789307 1.55759918689727783 0.570372343063354492
-0.269021332263946533 1.52901041507720947 -0.43623507022857666
2.16971373558044434 2.35050106048583984 -0.114328652620315552
-1.03052008152008057 -1.49572467803955078 0.302461385726928711
-0.774842202663421631 1.26604557037353516 0.647929370403289795
0.359017521142959595 -1.28040587902069092 -0.0498509705066680908
-2.5641334056854248 -1.15118122100830078 -0.32708624005317688
-1.20185041427612305 0.51383519172668457 1.23472297191619873
-3.194915771484375 -0.144293040037155151 1.4000098705291748
-1.27410531044006348 -0.460579007863998413 0.503888964653015137
1.56928002834320068 1.34553647041320801 -0.247302219271659851
-2.26812291145324707 3.43462467193603516 0.0811264961957931519
-1.06118714809417725 1.41898679733276367 -0.874135732650756836
-0.300036787986755371 0.945493578910827637 1.0989983081817627
-0.326545178890228271 -3.28011798858642578 0.665424466133117676
0.650339365005493164 0.474011242389678955 -0.245471775531768799
-2.51158785820007324 0.800137102603912354 0.302530676126480103
-0.350367069244384766 1.35725092887878418 0.0641516149044036865
-2.7845456600189209 -2.32482528686523438 1.28013300895690918
-2.64995479583740234 -0.947781682014465332 -0.00347672402858734131
0.0266028344631195068 -2.54166674613952637 -0.0855861380696296692
-0.325802087783813477 1.24587428569793701 1.18721723556518555
-0.948918581008911133 0.457776248455047607 -0.0360734350979328156
0.042384415864944458 2.23536896705627441 0.199373781681060791
1.22529101371765137 2.33219385147094727 0.238214582204818726
0.652182877063751221 -3.57169437408447266 0.353552520275115967
-1.22364580631256104 1.3140794038772583 0.868266046047210693
2.61104011535644531 2.20106863975524902 0.675396919250488281
-1.89516055583953857 -2.48288822174072266 0.41913372278213501
-3.28868627548217773 -0.0621711760759353638 -0.765740275382995605
-4.06418895721435547 -0.0401027239859104156 -0.340260148048400879
-1.95522022247314453 -0.555372476577758789 0.315233767032623291
-2.07011866569519043 -2.28798246383666992 0.411462604999542236
-0.845698177814483643 -3.46885180473327637 0.080431811511516571
0.788232266902923584 0.807904243469238281 0.0696796923875808716
-3.10645151138305664 0.0846080780029296875 0.579542398452758789
-1.24023497104644775 -0.429926961660385132 0.370620816946029663
-1.22930788993835449 0.658257246017456055 0.427686035633087158
0.85895228385925293 1.00673401355743408 1.32555949687957764
-2.41346287727355957 -0.145623385906219482 0.290373325347900391
0.749535679817199707 -2.93450689315795898 -0.0629923567175865173
-0.129868388175964355 -1.63855767250061035 -0.0923410505056381226
-2.51975250244140625 0.680370569229125977 -0.704553067684173584
1.47907423973083496 -3.19167995452880859 0.277438074350357056
-0.746063888072967529 -0.725844800472259521 0.504532456398010254
-0.206892073154449463 0.649144768714904785 -0.127267062664031982
-2.63543128967285156 -1.35055232048034668 0.348420888185501099
0.0417525768280029297 -0.410401701927185059 -0.129939436912536621
-1.72786819934844971 0.142180204391479492 0.0458640828728675842
-3.1889193058013916 0.741796195507049561 -0.0247429609298706055
-0.00776445865631103516 1.09354352951049805 0.42413794994354248
0.867777109146118164 1.23721396923065186 -0.185560211539268494
-0.66292959451675415 1.16411149501800537 0.309508144855499268
-1.23900675773620605 -0.410649120807647705 0.360899239778518677
-3.30683660507202148 -0.00166660547256469727 -0.0711101293563842773
-1.47292482852935791 -1.47749698162078857 -0.197293147444725037
-3.22360467910766602 0.760848581790924072 1.06563770771026611
-2.46355891227722168 -2.44083189964294434 -0.110082551836967468
-1.64992392063140869 -0.908439755439758301 0.136057794094085693
-0.687141835689544678 -1.11805617809295654 -0.075931251049041748
0.640202105045318604 1.89345192909240723 -0.175983324646949768
-2.48222780227661133 2.40212082862854004 -0.027966376394033432
-3.18776416778564453 -1.31221115589141846 0.0939368009567260742
-0.25365447998046875 -2.64054012298583984 0.50279998779296875
0.447774320840835571 -1.31318295001983643 0.0402656681835651398
-2.5844719409942627 -0.0274190157651901245 -0.855390191078186035
-1.66929233074188232 -2.61430168151855469 1.94566893577575684
0.800134658813476562 -0.812960386276245117 -0.0338346585631370544
-1.45613956451416016 -1.01808512210845947 0.265432000160217285
-2.75464820861816406 -0.0872362256050109863 0.390562057495117188
-0.978175222873687744 0.802584826946258545 1.77182984352111816
-3.70636248588562012 -0.174267753958702087 0.297721117734909058
-0.357514441013336182 -3.05144810676574707 0.0108207613229751587
0.778683662414550781 1.36956679821014404 -0.134348750114440918
-0.557503640651702881 1.04537487030029297 -0.840681195259094238
-1.24327576160430908 2.43258810043334961 0.109832361340522766
-0.305892705917358398 0.330352187156677246 1.0543445348739624
-0.379381656646728516 1.11184775829315186 0.574626564979553223
-0.10378757119178772 1.67565274238586426 0.511720776557922363
0.791837215423583984 -1.70490658283233643 -0.013699900358915329
-2.83748292922973633 -1.73185408115386963 0.928064823150634766
-1.25944352149963379 -0.424608737230300903 0.367155015468597412
1.48735404014587402 2.33886027336120605 -0.316438525915145874
-0.687857449054718018 0.604979395866394043 0.573668956756591797
0.109190285205841064 0.727437973022460938 -0.0244923233985900879
-2.85402536392211914 0.336443185806274414 0.0780684873461723328
-0.553906679153442383 -0.503877401351928711 -0.0308771133422851562
-1.25802516937255859 -0.44402003288269043 0.429145187139511108
-0.467532604932785034 -0.839526712894439697 0.121079549193382263
-2.20761871337890625 -1.12804520130157471 -0.786511003971099854
-2.21598219871520996 -2.42437338829040527 -0.787627875804901123
-2.93037104606628418 -0.401224255561828613 0.797104179859161377
-1.83604073524475098 -2.30207610130310059 -0.137595146894454956
-1.95272970199584961 1.91689443588256836 0.0614166930317878723
1.24024391174316406 0.73789370059967041 -0.174479231238365173
0.209158256649971008 -3.16776537895202637 -0.035659104585647583
1.03380477428436279 -2.57527661323547363 0.336634248495101929
-0.142197966575622559 1.73942971229553223 0.857116818428039551
2.17020225524902344 2.46639633178710938 0.460717618465423584
0.278094947338104248 -3.28741645812988281 0.663982391357421875
-1.39716517925262451 -2.76154947280883789 0.34907764196395874
-1.10093188285827637 1.60467755794525146 0.619685888290405273
-3.43032240867614746 0.218191981315612793 1.76996541023254395
-0.477378696203231812 -1.46875190734863281 0.319011777639389038
0.392471581697463989 -0.742056608200073242 0.180630117654800415
0.374608993530273438 0.98185354471206665 0.574419975280761719
0.802907228469848633 0.763659119606018066 0.624099075794219971
-2.2622833251953125 0.34190601110458374 0.152560591697692871
-0.725378274917602539 -0.0312018021941184998 0.0883232355117797852
-0.266284137964248657 1.42529356479644775 0.0850370675325393677
-0.52274709939956665 -1.64950060844421387 0.123618565499782562
0.465956687927246094 -3.65147686004638672 -0.15491931140422821
-2.76645445823669434 2.16205930709838867 0.411390066146850586
-3.24299049377441406 -0.120768174529075623 0.785127580165863037
-1.94599485397338867 -2.843414306640625 -0.000853896141052246094
-1.90591597557067871 0.0130252353847026825 0.229751706123352051
1.59776556491851807 1.83749818801879883 -0.233815968036651611
-2.81266093254089355 -1.20858132839202881 -0.898521006107330322
-2.39677286148071289 -1.83617424964904785 0.240408957004547119
-0.734179079532623291 -3.04103541374206543 0.434757739305496216
0.51525568962097168 -2.50645780563354492 0.150479823350906372
-0.117933377623558044 -1.27412986755371094 0.195097655057907104
-2.6849668025970459 0.628934144973754883 -0.216710209846496582
-2.01939296722412109 2.95749711990356445 0.0527677386999130249
-0.468425333499908447 -2.48090791702270508 -0.244095712900161743
-3.71990227699279785 0.217429280281066895 -0.0527137517929077148
-1.84934830665588379 -0.907178521156311035 -0.0648691803216934204
-0.191438615322113037 2.21107292175292969 0.709573745727539062
-0.947066962718963623 1.5670933723449707 0.518925070762634277
-0.998713076114654541 1.05816352367401123 1.28991079330444336
-1.23773574829101562 -0.430612653493881226 0.386008739471435547
-2.88822579383850098 -0.242942556738853455 0.234380990266799927
-3.23099780082702637 -2.18904829025268555 0.0722596049308776855
-1.22478330135345459 -0.455699950456619263 0.49558606743812561
-1.13878202438354492 0.666891574859619141 -0.869965553283691406
1.74655604362487793 2.39917159080505371 0.158875346183776855
-0.383434206247329712 -3.60695743560791016 0.273017078638076782
-2.30298948287963867 -1.31254732608795166 0.0732063651084899902
-3.44728851318359375 0.35390782356262207 1.29350948333740234
0.957890748977661133 -3.18299078941345215 0.378459751605987549
-0.236075937747955322 0.949593424797058105 0.317456096410751343
-1.66333580017089844 -1.49142670631408691 0.300654828548431396
-0.270355045795440674 1.17167234420776367 -0.41262209415435791
1.21953320503234863 -2.96362113952636719 -0.1339234858751297
-0.672651171684265137 1.53697085380554199 0.953139662742614746
1.11743247509002686 1.70092952251434326 -0.169480547308921814
-2.48773646354675293 -0.0220398865640163422 -0.167713165283203125
0.31573563814163208 -1.79655635356903076 0.0188877098262310028
0.3177928626537323 -0.745348572731018066 0.0120447836816310883
-0.233804792165756226 1.39214038848876953 0.917924284934997559
0.804959893226623535 -1.25230002403259277 0.205310910940170288
-1.26479911804199219 -0.436974167823791504 0.477473914623260498
-1.41526317596435547 0.553717672824859619 0.0743041560053825378
0.117068946361541748 1.27353501319885254 0.878899991512298584
0.684693753719329834 1.27935874462127686 2.23839235305786133
-1.26334846019744873 -0.429359972476959229 0.347230076789855957
-2.89596462249755859 0.460101097822189331 0.366643786430358887
1.17183780670166016 -3.63975834846496582 0.275547206401824951
-1.25679242610931396 -0.429707348346710205 0.329590737819671631
0.191887080669403076 -3.62553215026855469 0.26195991039276123
-1.00049793720245361 0.747167289257049561 0.818915188312530518
-0.18246111273765564 0.661338746547698975 0.71300429105758667
-1.24106836318969727 0.107437685132026672 0.15404607355594635
-2.67945766448974609 0.120524466037750244 0.641440987586975098
-1.10786688327789307 1.5596623420715332 -0.407562375068664551
-1.42594671249389648 -2.31742501258850098 0.142151206731796265
-3.8567814826965332 -0.905123353004455566 0.144369244575500488
1.65656769275665283 -3.33400559425354004 -0.145877540111541748
-2.82454729080200195 -0.501412332057952881 -0.0307853519916534424
0.0797600150108337402 -0.983892619609832764 -0.108773060142993927
0.479618221521377563 0.996648609638214111 -0.236579373478889465
0.873674929141998291 -2.48188376426696777 -0.112632915377616882
-0.371501713991165161 1.40084326267242432 -0.89066767692565918
-2.9822394847869873 -1.85496342182159424 1.36735415458679199
-1.24220907688140869 1.15385448932647705 0.290247887372970581
-4.08357000350952148 -0.316103368997573853 0.048448607325553894
-2.3340907096862793 -1.09002006053924561 0.165568932890892029
-2.76031064987182617 -1.43521571159362793 0.016755303367972374
-1.02697014808654785 -0.933962106704711914 0.159731239080429077
-1.43147039413452148 -0.56988978385925293 0.390220522880554199
-1.9844658374786377 -1.03074789047241211 0.396479904651641846
2.96624469757080078 2.45608258247375488 0.527146577835083008
0.827426791191101074 -3.40453481674194336 -0.0640557780861854553
-0.517379879951477051 -3.59171628952026367 -0.210028007626533508
-2.7887725830078125 -1.29068684577941895 1.02824831008911133
-0.668948650360107422 0.953089714050292969 0.944578886032104492
-1.72535037994384766 -0.454244554042816162 -0.0616881959140300751
-1.27240920066833496 -0.430708169937133789 0.382223010063171387
0.867089450359344482 1.23935925960540771 0.253170609474182129
-1.08975052833557129 -1.31746983528137207 -0.107359558343887329
-2.50113034248352051 0.322236537933349609 0.14759354293346405
-3.23593878746032715 -0.11442643404006958 0.372541248798370361
-0.076197013258934021 1.01241517066955566 -0.796954452991485596
