ply
format ascii 1.0
element vertex 57
comment vertices
property float x
property float y
property float z
end_header
1.89691042900085449 2.46198225021362305 0.215531989932060242
0.224971607327461243 -1.30611073970794678 0.546758353710174561
-0.0222741197794675827 -0.0802089571952819824 0.0440096408128738403
0.22408682107925415 -1.30877315998077393 0.540024757385253906
1.02362501621246338 0.824745416641235352 0.275179654359817505
1.87224626541137695 1.75556087493896484 0.411287903785705566
2.7445833683013916 -1.43292009830474854 0.441620111465454102
2.18952655792236328 2.17974114418029785 0.497072160243988037
-1.3119354248046875 -0.127907693386077881 0.187244877219200134
1.19346773624420166 0.593097686767578125 0.423993736505508423
0.221865534782409668 -1.30691635608673096 0.544759273529052734
0.923457205295562744 0.969141244888305664 0.254976511001586914
0.224683851003646851 -1.3083871603012085 0.553092360496520996
1.15441989898681641 -0.670688748359680176 0.0512190237641334534
2.48685359954833984 -1.85185563564300537 0.0564690306782722473
0.906561136245727539 0.94574427604675293 0.178562059998512268
3.28751945495605469 2.82428145408630371 0.0467485785484313965
1.32438111305236816 0.0135661959648132324 0.443706095218658447
-0.365023970603942871 -1.29265034198760986 0.0659213140606880188
0.956671059131622314 0.948955059051513672 0.192053928971290588
0.382206737995147705 3.08608746528625488 0.140316128730773926
0.922324061393737793 0.959544837474822998 0.163675248622894287
1.14810776710510254 -0.681646108627319336 0.0462358966469764709
2.1668853759765625 2.17140746116638184 0.489631831645965576
0.928258895874023438 0.966335296630859375 0.20517362654209137
-0.201633721590042114 1.31868076324462891 0.0994115173816680908
0.225465819239616394 -1.30752873420715332 0.552259325981140137
0.405661791563034058 3.0652458667755127 0.125332176685333252
0.226902708411216736 -1.30951666831970215 0.551053166389465332
-0.881094038486480713 -2.96820449829101562 0.12296198308467865
0.224888011813163757 -1.30884182453155518 0.552624404430389404
-1.32355427742004395 -0.0957067012786865234 0.200937509536743164
2.60429739952087402 1.65179729461669922 0.252644449472427368
0.223269447684288025 -1.30830752849578857 0.538299918174743652
2.47458362579345703 -1.78993988037109375 0.161339744925498962
-0.364154160022735596 -1.25927281379699707 0.0690844953060150146
2.73393559455871582 -1.43437516689300537 0.386445730924606323
4.47103738784790039 -3.11921596527099609 0.366681456565856934
2.47790145874023438 -1.81801831722259521 0.0603204630315303802
1.86473965644836426 2.45809435844421387 0.271442621946334839
1.931160569190979 2.37644290924072266 0.335274934768676758
-0.387215554714202881 -1.24071013927459717 0.0576699823141098022
1.19121813774108887 0.60160529613494873 0.415940552949905396
-1.31252217292785645 -0.107008293271064758 0.18827800452709198
0.223318442702293396 -1.30764496326446533 0.546598494052886963
1.88871312141418457 2.45627331733703613 0.288390606641769409
0.924077272415161133 0.943191289901733398 0.200171276926994324
1.19621849060058594 0.569154858589172363 0.372809290885925293
1.05769848823547363 0.0577857382595539093 0.295831531286239624
2.49017953872680664 -1.85090863704681396 0.0470884516835212708
0.129591032862663269 -1.44015192985534668 0.378159761428833008
-0.220531225204467773 1.31050562858581543 0.117645025253295898
-0.0752743780612945557 -0.232384458184242249 0.00595015287399291992
-1.32696628570556641 -0.101187169551849365 0.188449770212173462
1.14709889888763428 -0.674466550350189209 0.0588043630123138428
1.18587207794189453 0.600822210311889648 0.430898010730743408
0.404256463050842285 3.0721125602722168 0.115759164094924927
