ply
format ascii 1.0
element vertex 64
comment vertices
property float x
property float y
property float z
end_header
0.649657666683197021 0.79814612865447998 0.27308201789855957
-1.7426300048828125 -1.40485811233520508 0.0832728743553161621
-1.74102842807769775 1.26081538200378418 0.225828289985656738
0.428974390029907227 -1.1860651969909668 0.221966147422790527
0.690236687660217285 3.10402584075927734 0.619943022727966309
-0.667808890342712402 -0.605331361293792725 0.101263701915740967
0.774180293083190918 2.37331151962280273 0.0993623137474060059
-0.575371623039245605 -0.866178750991821289 0.266633540391921997
-1.19893956184387207 -1.44163799285888672 0.733880281448364258
-1.66984713077545166 0.639944493770599365 0.276343971490859985
0.447615832090377808 3.1676185131072998 -0.0435934662818908691
0.741313695907592773 0.583789587020874023 0.195277631282806396
0.675016820430755615 1.87111139297485352 0.401126980781555176
0.657811462879180908 -0.860666215419769287 0.567546367645263672
0.675955891609191895 0.847998261451721191 0.24434642493724823
-1.13916373252868652 1.29953205585479736 0.295431077480316162
0.730651259422302246 1.66854667663574219 0.121946752071380615
0.215769529342651367 -0.59950566291809082 0.121735028922557831
-1.76601493358612061 0.986202836036682129 0.253687381744384766
0.608978152275085449 0.759109675884246826 0.24646332859992981
0.621059715747833252 2.12293124198913574 0.447906166315078735
0.608069181442260742 0.787288308143615723 0.258408665657043457
0.682914376258850098 1.82679152488708496 0.406169086694717407
-1.50417995452880859 -1.446990966796875 0.26078265905380249
0.477980226278305054 2.66399335861206055 0.301598668098449707
-1.76481771469116211 0.975784599781036377 0.244682237505912781
-0.0764540210366249084 -1.04048013687133789 0.150526672601699829
-1.69582629203796387 0.880348443984985352 0.281527966260910034
0.620312631130218506 2.18580150604248047 0.380419254302978516
0.342165112495422363 -0.533400893211364746 0.163959681987762451
0.607320308685302734 1.72713172435760498 0.364434272050857544
0.633071541786193848 0.773073315620422363 0.230009764432907104
-1.86542975902557373 1.39925813674926758 0.223784178495407104
0.692756533622741699 1.36035096645355225 0.237179741263389587
0.641859114170074463 0.801013827323913574 0.259277462959289551
-0.906458258628845215 -1.1466602087020874 0.192982465028762817
-1.80783891677856445 0.87052607536315918 0.188671544194221497
-0.326042205095291138 -0.78534233570098877 0.103383824229240417
0.603852391242980957 -0.941519558429718018 0.132580578327178955
-1.79276323318481445 1.13835859298706055 0.298889845609664917
-0.900620341300964355 0.602120399475097656 -0.0083367079496383667
0.607438623905181885 0.667975246906280518 0.302242934703826904
0.680630207061767578 1.87807488441467285 0.442001879215240479
0.523188292980194092 0.901096165180206299 0.250603079795837402
-1.65646278858184814 0.506227552890777588 0.0541933774948120117
0.684918224811553955 2.79756355285644531 0.687014520168304443
0.643600344657897949 0.796216011047363281 0.267893701791763306
0.632678210735321045 1.11940848827362061 0.289525359869003296
0.742068588733673096 2.96229267120361328 0.331378340721130371
-0.829799771308898926 -0.679984986782073975 0.163134276866912842
0.595443844795227051 -1.23607873916625977 0.270044565200805664
-1.70221114158630371 0.899018704891204834 0.231351941823959351
0.628958046436309814 1.04431664943695068 0.309802025556564331
1.01085448265075684 -0.819601476192474365 0.184265464544296265
-0.281237661838531494 -0.953779041767120361 0.277053624391555786
0.756616711616516113 1.91800522804260254 0.39828827977180481
-0.0170971304178237915 -0.904050350189208984 0.112124189734458923
0.608264684677124023 0.814308106899261475 0.246147617697715759
-1.73730850219726562 0.974981069564819336 0.260970175266265869
0.605773448944091797 2.00766086578369141 0.348344624042510986
-0.56454157829284668 -1.06961548328399658 0.156691879034042358
-1.66348099708557129 0.964750528335571289 0.281087368726730347
0.650604546070098877 1.8752063512802124 0.424263149499893188
0.586073815822601318 2.78147697448730469 -0.113626420497894287
