ply
format ascii 1.0
element vertex 64
comment vertices
property float x
property float y
property float z
end_header
0.343275010585784912 -0.842452764511108398 0.516839206218719482
-3.12697505950927734 0.368202686309814453 0.0087258853018283844
-0.323549449443817139 1.12847065925598145 1.92652177810668945
1.40599799156188965 0.603501796722412109 -0.63151174783706665
-2.30463671684265137 -2.04449105262756348 0.147235631942749023
-0.993591427803039551 0.232608050107955933 -0.120127931237220764
0.830929219722747803 -0.563521921634674072 1.43384373188018799
-0.277331411838531494 0.547433376312255859 -0.688628137111663818
0.22573244571685791 -1.60198986530303955 0.00937539339065551758
-1.16346251964569092 -0.479721575975418091 -0.0296919345855712891
0.900863230228424072 -0.611173689365386963 -0.704278409481048584
-1.62626051902770996 -0.869850575923919678 0.0124229565262794495
0.418741434812545776 -0.997587978839874268 -0.450932413339614868
0.510589003562927246 -0.099301554262638092 0.874207973480224609
0.571417093276977539 0.196333914995193481 0.67568659782409668
0.425966203212738037 -0.946957230567932129 0.717863559722900391
1.05454397201538086 1.29603362083435059 0.842822670936584473
1.52938342094421387 -0.30123138427734375 -0.290697336196899414
-0.277686148881912231 1.27259111404418945 0.506014704704284668
-1.04546439647674561 -1.26706075668334961 0.433546781539916992
-1.91881275177001953 0.519965589046478271 0.254314124584197998
1.35825026035308838 -1.09722900390625 0.37261626124382019
0.260074406862258911 -0.745385706424713135 0.348463505506515503
-2.45966935157775879 -0.45856320858001709 0.138753324747085571
0.756432533264160156 -0.153576165437698364 0.306224942207336426
-1.17365443706512451 0.289875984191894531 -0.327206462621688843
1.52398347854614258 -0.687999427318572998 0.881254315376281738
-0.429510295391082764 -1.16310739517211914 -0.0224279910326004028
1.4915236234664917 0.47696530818939209 0.760009527206420898
0.666095137596130371 -0.884921610355377197 1.66179823875427246
0.747746050357818604 0.0345793254673480988 -0.617740511894226074
-0.668388068675994873 -2.14533686637878418 -0.0171063318848609924
0.780113279819488525 0.67104637622833252 0.158457949757575989
-1.76895546913146973 -1.2269129753112793 -0.156983152031898499
-0.456276655197143555 0.163264051079750061 0.700421929359436035
0.336134344339370728 -0.898344933986663818 0.255209594964981079
-1.22681951522827148 0.523153305053710938 -0.154481783509254456
0.269494891166687012 -0.922780871391296387 -0.178884729743003845
-1.61807501316070557 0.231290519237518311 0.645838797092437744
-1.49407577514648438 -2.10581493377685547 0.376974761486053467
-0.48877677321434021 -1.21875429153442383 -0.0834894925355911255
1.51098537445068359 -0.352358818054199219 0.356113821268081665
0.632607221603393555 1.12057042121887207 -0.724639594554901123
-0.229555189609527588 0.91786658763885498 1.25588595867156982
1.43745279312133789 1.20702147483825684 0.14472043514251709
-0.277198374271392822 1.24265897274017334 -0.277839154005050659
-0.242166265845298767 0.599741339683532715 0.135303601622581482
-1.78209817409515381 -0.275034278631210327 0.460089623928070068
0.955535590648651123 -0.56990426778793335 0.64541172981262207
-3.12095260620117188 -0.277322471141815186 0.337161839008331299
0.734737098217010498 -0.192115619778633118 0.162505626678466797
-2.23237252235412598 -1.39596939086914062 0.407688707113265991
-0.816663384437561035 -0.0437116287648677826 0.199886217713356018
0.576170742511749268 0.79181671142578125 0.882124066352844238
0.714756429195404053 -1.30782949924468994 0.317309081554412842
0.843859016895294189 -0.0683116242289543152 -0.58951258659362793
-2.49929428100585938 0.264212578535079956 -0.0657341629266738892
1.4425971508026123 0.19637782871723175 -0.619800329208374023
0.144285619258880615 -0.798199832439422607 -0.0532829761505126953
0.699052572250366211 -0.541971027851104736 0.882082700729370117
-0.961891055107116699 -0.692911863327026367 0.186875537037849426
1.25961971282958984 -0.13045211136341095 0.843878507614135742
-0.204771816730499268 -0.865444421768188477 0.508439242839813232
0.720627188682556152 -0.55265200138092041 0.0469470024108886719
