ply
format ascii 1.0
element vertex 252
comment vertices
property float x
property float y
property float z
end_header
-0.460451573133468628 -0.886840283870697021 0.0705580338835716248
0.393385529518127441 2.08545351028442383 0.123033426702022552
-1.38992774486541748 1.34258377552032471 0.184222579002380371
1.35101771354675293 -1.51914536952972412 0.295718848705291748
0.688032209873199463 0.71713179349899292 0.0680251717567443848
-0.364231228828430176 -1.94694423675537109 0.284771472215652466
-0.194572672247886658 1.00280427932739258 0.319068551063537598
0.300826609134674072 -0.952619791030883789 0.058454364538192749
1.33511769771575928 -1.51393461227416992 0.268058747053146362
0.351110458374023438 2.07588577270507812 0.136253878474235535
-0.339916229248046875 -1.98402309417724609 0.268272489309310913
-1.43270134925842285 1.34517753124237061 0.187535330653190613
-0.164123326539993286 1.00965034961700439 0.286846578121185303
0.249257445335388184 -0.945668518543243408 0.0237680599093437195
0.691933214664459229 0.710488498210906982 0.0749186277389526367
-1.39433610439300537 1.29216194152832031 0.123193487524986267
-1.37396979331970215 1.29884576797485352 0.134681373834609985
-0.167811140418052673 0.988299965858459473 0.296689599752426147
0.701235711574554443 0.713160336017608643 0.0781653448939323425
-0.330867677927017212 -1.98387885093688965 0.277647823095321655
0.459459304809570312 2.22898364067077637 0.184765100479125977
-0.305458307266235352 -1.96458220481872559 0.279253959655761719
-0.376260966062545776 -1.69787633419036865 0.249826028943061829
1.33499515056610107 -1.51107561588287354 0.283487260341644287
0.416000545024871826 2.1065371036529541 0.172304436564445496
0.295128494501113892 -0.953594446182250977 0.0569336451590061188
0.277470797300338745 -0.943359136581420898 0.0631539374589920044
-0.209096372127532959 0.993514955043792725 0.311842203140258789
0.694129526615142822 0.708566009998321533 0.0660793334245681763
-0.173779040575027466 0.988076686859130859 0.269845843315124512
-1.40040993690490723 1.30180263519287109 0.128606483340263367
-0.425835311412811279 -0.899203002452850342 0.0515511147677898407
-1.38318610191345215 1.34250855445861816 0.194402799010276794
-1.47913146018981934 1.30653142929077148 0.183086246252059937
-0.216586008667945862 0.992062509059906006 0.310350626707077026
-0.458596169948577881 -0.892972469329833984 0.072656191885471344
0.415533959865570068 2.10936450958251953 0.151372775435447693
0.700360953807830811 0.714437901973724365 0.0708696618676185608
-1.4353783130645752 1.34713101387023926 0.200021654367446899
0.278955668210983276 -0.941896677017211914 0.0559941306710243225
-0.464591324329376221 -0.882587790489196777 0.07048015296459198
-0.189803093671798706 1.00882720947265625 0.296068817377090454
0.588988423347473145 2.28846573829650879 0.289605706930160522
0.477357238531112671 2.22696256637573242 0.227214634418487549
-0.329641550779342651 -2.00199222564697266 0.266714930534362793
0.413019359111785889 2.08750605583190918 0.144839704036712646
1.34083104133605957 -1.51244282722473145 0.283307582139968872
-0.335907906293869019 -1.96647858619689941 0.281615018844604492
-0.169679418206214905 1.00913190841674805 0.314688771963119507
-1.41172397136688232 1.33714687824249268 0.184774830937385559
-0.136764705181121826 0.997162401676177979 0.260782837867736816
0.417769014835357666 2.1522209644317627 0.176413029432296753
-0.354261398315429688 -1.97935247421264648 0.278051465749740601
-0.334561526775360107 -1.96400415897369385 0.281742781400680542
-0.182656586170196533 0.994549572467803955 0.30360490083694458
0.506580710411071777 2.20059919357299805 0.198582977056503296
-1.40150570869445801 1.34081482887268066 0.187026098370552063
-0.347675293684005737 -1.95191323757171631 0.277749538421630859
-0.322978287935256958 -2.00790953636169434 0.249850928783416748
-1.45711660385131836 1.35523343086242676 0.210520088672637939
-0.43027263879776001 -0.896909892559051514 0.0556154586374759674
1.33640825748443604 -1.51226174831390381 0.279728502035140991
1.32781481742858887 -1.50801980495452881 0.26614341139793396
-1.39983284473419189 1.32738471031188965 0.171488732099533081
0.594698607921600342 2.18279290199279785 0.273720145225524902
-1.42815613746643066 1.27229881286621094 0.1463460773229599
0.689323365688323975 0.718549132347106934 0.0641688555479049683
-1.43363142013549805 1.34175252914428711 0.186907857656478882
0.411409258842468262 2.16523480415344238 0.186805278062820435
0.289736479520797729 -0.950987875461578369 0.0675098150968551636
-0.201585829257965088 0.995394110679626465 0.314509391784667969
-0.199129790067672729 0.993812322616577148 0.305697441101074219
0.364874124526977539 2.09072327613830566 0.145304083824157715
0.590195775032043457 2.25433993339538574 0.233006685972213745
0.289503604173660278 -0.946475028991699219 0.0618622526526451111
-0.32601165771484375 -1.98202013969421387 0.253205239772796631
-0.169076725840568542 0.989726662635803223 0.288233399391174316
-0.323471933603286743 -1.98203539848327637 0.261094868183135986
-1.46673595905303955 1.29885327816009521 0.160795345902442932
-0.219876199960708618 1.01306557655334473 0.288282334804534912
-1.43616533279418945 1.35406851768493652 0.204501926898956299
-1.39244985580444336 1.35102248191833496 0.187589198350906372
-1.41353857517242432 1.33861362934112549 0.188178181648254395
0.477951705455780029 2.20509672164916992 0.183005347847938538
0.692437469959259033 0.710945785045623779 0.0641218796372413635
0.69352954626083374 0.720897436141967773 0.063771367073059082
-1.43988895416259766 1.32606220245361328 0.194824397563934326
-0.452078908681869507 -0.885510146617889404 0.0652955695986747742
0.253609329462051392 -0.949770867824554443 0.0486987680196762085
0.399286150932312012 2.08405685424804688 0.171608388423919678
0.575699031352996826 2.31598424911499023 0.253185689449310303
-0.215460896492004395 1.00163650512695312 0.301776647567749023
-1.39002275466918945 1.33660268783569336 0.182604849338531494
-1.41234040260314941 1.33250713348388672 0.180458396673202515
0.692468643188476562 0.712153017520904541 0.0667337030172348022
1.31628787517547607 -1.51007747650146484 0.266588926315307617
-1.46115660667419434 1.31331741809844971 0.191916316747665405
0.404795795679092407 2.09336280822753906 0.158249422907829285
0.700396597385406494 0.723936617374420166 0.0576211698353290558
0.48892638087272644 2.17477750778198242 0.181573748588562012
-0.388791143894195557 -1.93595993518829346 0.256746798753738403
0.356144130229949951 2.09325504302978516 0.136668503284454346
-0.22153770923614502 1.01634347438812256 0.28088909387588501
0.404471039772033691 2.09591579437255859 0.15468810498714447
-0.296514630317687988 -1.98249721527099609 0.26735687255859375
0.276053190231323242 -0.947444379329681396 0.0583257600665092468
-0.214277297258377075 1.00446939468383789 0.297828197479248047
-0.327404558658599854 -2.00416874885559082 0.259555160999298096
1.3341299295425415 -1.51467537879943848 0.256730794906616211
-0.346199303865432739 -1.9791560173034668 0.274785220623016357
0.273518681526184082 -0.947111368179321289 0.0570106655359268188
-0.216706335544586182 1.00857841968536377 0.289383828639984131
-0.441615790128707886 -0.886912345886230469 0.058387361466884613
0.688337564468383789 0.71818011999130249 0.0716596245765686035
0.695501208305358887 0.711722314357757568 0.0810344889760017395
-1.38063085079193115 1.34288978576660156 0.194029957056045532
0.258421421051025391 -0.943135261535644531 0.0355301350355148315
0.594015657901763916 2.17566561698913574 0.265878587961196899
0.570035576820373535 2.18275666236877441 0.201084494590759277
0.488738059997558594 2.20645642280578613 0.241967529058456421
0.691087305545806885 0.717012405395507812 0.0684909746050834656
-0.332100123167037964 -1.98214423656463623 0.277418047189712524
-0.332470238208770752 -1.97458755970001221 0.279661327600479126
0.628683328628540039 2.30949282646179199 0.284142613410949707
1.33902764320373535 -1.51591527462005615 0.272629499435424805
-0.338018059730529785 -2.00016403198242188 0.275635302066802979
0.474257767200469971 2.22215867042541504 0.187667787075042725
1.33670651912689209 -1.5122685432434082 0.273214280605316162
-0.351609945297241211 -1.94420886039733887 0.279586076736450195
-0.197526752948760986 1.01206588745117188 0.300272822380065918
-0.462414383888244629 -0.883311569690704346 0.0611795522272586823
0.416635632514953613 2.13453817367553711 0.17378021776676178
0.4600411057472229 2.2513880729675293 0.240813285112380981
-0.468445122241973877 -0.88321000337600708 0.0696119368076324463
-1.39117121696472168 1.28745603561401367 0.143093705177307129
-0.165362089872360229 1.00435125827789307 0.312428057193756104
-0.334025055170059204 -1.98448669910430908 0.2813681960105896
0.416914820671081543 2.11921954154968262 0.167836010456085205
-0.191897779703140259 0.992482900619506836 0.291080713272094727
-0.212041676044464111 1.00008702278137207 0.307186484336853027
-0.460900455713272095 -0.883075237274169922 0.0691640749573707581
0.584779024124145508 2.38504290580749512 0.269010722637176514
0.462327420711517334 2.22789669036865234 0.250574201345443726
0.279191136360168457 -0.944285869598388672 0.0531862117350101471
-1.43472790718078613 1.27866101264953613 0.134568050503730774
-0.172156363725662231 0.948698103427886963 0.250519871711730957
0.402968138456344604 2.09934425354003906 0.148937702178955078
-0.339776813983917236 -1.98500394821166992 0.269870758056640625
-0.328468382358551025 -1.97757148742675781 0.271375596523284912
-1.42937123775482178 1.35328733921051025 0.217767238616943359
-1.4102708101272583 1.3443371057510376 0.170152187347412109
-1.42627012729644775 1.33524656295776367 0.182241439819335938
0.405211448669433594 2.14356899261474609 0.176350623369216919
1.32882058620452881 -1.5096968412399292 0.260614901781082153
-1.38043117523193359 1.34300732612609863 0.191488593816757202
0.701897025108337402 0.72245335578918457 0.0378291420638561249
0.511722385883331299 2.17930197715759277 0.181331247091293335
0.413655698299407959 2.11381292343139648 0.165694788098335266
1.33615958690643311 -1.51133048534393311 0.271237313747406006
1.33790504932403564 -1.51291656494140625 0.269483715295791626
-1.41849970817565918 1.34234440326690674 0.173814907670021057
-0.435989052057266235 -0.892163991928100586 0.0572730749845504761
0.585230767726898193 2.22451353073120117 0.304201960563659668
-1.42341315746307373 1.3019709587097168 0.147348389029502869
-1.41027522087097168 1.34804987907409668 0.155351534485816956
-1.4281611442565918 1.34677433967590332 0.210113644599914551
0.696997165679931641 2.29774379730224609 0.327598035335540771
-1.42471480369567871 1.35437405109405518 0.216619431972503662
-0.209598466753959656 1.00509023666381836 0.307466119527816772
0.487559080123901367 2.19326305389404297 0.193553686141967773
0.625064611434936523 2.31980395317077637 0.266891062259674072
-1.47229135036468506 1.46065318584442139 0.119776830077171326
0.69898456335067749 0.708137631416320801 0.0590845458209514618
-1.42947447299957275 1.35054922103881836 0.166535139083862305
-0.43129044771194458 -0.898383915424346924 0.0569861531257629395
0.697832286357879639 0.71489483118057251 0.0698940828442573547
0.395873516798019409 2.09285402297973633 0.124775871634483337
1.31475615501403809 -1.50560522079467773 0.250699639320373535
0.695109724998474121 0.716176271438598633 0.0639603510499000549
-0.322395652532577515 -1.9860914945602417 0.254755586385726929
-0.209167271852493286 0.989799261093139648 0.317132145166397095
0.428471922874450684 2.0968163013458252 0.148387640714645386
-1.41791832447052002 1.33503985404968262 0.190691500902175903
0.423148512840270996 2.0983281135559082 0.159422740340232849
-0.312577307224273682 -1.9660179615020752 0.272104024887084961
0.682384073734283447 0.710630595684051514 0.0765955075621604919
0.569598495960235596 2.18293380737304688 0.20435941219329834
-0.210531264543533325 0.991737842559814453 0.312779247760772705
-1.45547890663146973 1.30976390838623047 0.178998321294784546
0.596915662288665771 2.20827269554138184 0.24824833869934082
0.437535583972930908 2.29477214813232422 0.287225872278213501
0.264639586210250854 -0.952163815498352051 0.0600636079907417297
0.496395349502563477 2.18579840660095215 0.188295722007751465
-1.39925563335418701 1.3273780345916748 0.163230195641517639
-1.44013369083404541 1.34826517105102539 0.180336236953735352
-0.458063453435897827 -0.884980916976928711 0.0632031410932540894
0.434100329875946045 2.0909581184387207 0.159910485148429871
0.692812442779541016 0.709127187728881836 0.075802728533744812
1.3341517448425293 -1.51092445850372314 0.288814723491668701
0.616889536380767822 2.31700658798217773 0.286230206489562988
0.361971586942672729 2.08980631828308105 0.146470189094543457
-1.38535916805267334 1.25846016407012939 0.119931086897850037
-1.42599880695343018 1.33649992942810059 0.195836305618286133
-0.329314708709716797 -2.0017096996307373 0.264265537261962891
-1.4249495267868042 1.34349453449249268 0.178245693445205688
0.692750275135040283 0.712357103824615479 0.0757844224572181702
-1.43217062950134277 1.34345471858978271 0.190855592489242554
0.227822050452232361 -0.942495882511138916 0.026563640683889389
-0.350304186344146729 -1.97220826148986816 0.275747627019882202
0.290709197521209717 -0.949979722499847412 0.0583478100597858429
0.676341593265533447 2.29865193367004395 0.307180643081665039
0.3773689866065979 2.08550572395324707 0.155793234705924988
0.289024680852890015 -0.954840421676635742 0.0588644370436668396
-1.4204484224319458 1.35186231136322021 0.206582158803939819
0.597064018249511719 2.28114867210388184 0.262361645698547363
-1.44111204147338867 1.32530701160430908 0.148907467722892761
-0.195907324552536011 0.993657290935516357 0.316930294036865234
0.277808606624603271 -0.939772605895996094 0.0522903762757778168
-1.40850794315338135 1.28156447410583496 0.126294136047363281
-1.41935253143310547 1.35281312465667725 0.208755746483802795
-1.38063919544219971 1.34410393238067627 0.188929617404937744
0.600212633609771729 2.22505998611450195 0.29017174243927002
-0.202554047107696533 1.00509083271026611 0.295630931854248047
0.473166674375534058 2.20889854431152344 0.190357699990272522
-0.133326828479766846 0.946979880332946777 0.238425537943840027
-0.195857822895050049 1.00244569778442383 0.299529969692230225
-1.40921258926391602 1.34879648685455322 0.205903530120849609
-0.326972067356109619 -1.97761058807373047 0.269370883703231812
-0.213759422302246094 0.999380767345428467 0.299457192420959473
-1.43879389762878418 1.33336472511291504 0.165168255567550659
-0.201698318123817444 1.01301729679107666 0.30238795280456543
-1.38845586776733398 1.3422386646270752 0.189682215452194214
0.469318509101867676 2.23193025588989258 0.224473446607589722
-0.328236430883407593 -1.98994612693786621 0.255469381809234619
-0.438195019960403442 -0.89137423038482666 0.0584053173661231995
-1.45538711547851562 1.35302615165710449 0.211449339985847473
-1.46357488632202148 1.26624250411987305 0.157645538449287415
-0.345531463623046875 -2.001678466796875 0.272948861122131348
0.69187474250793457 0.719169139862060547 0.078322485089302063
0.453102409839630127 2.21570920944213867 0.23316529393196106
-1.39195454120635986 1.3035348653793335 0.127880394458770752
-1.40382158756256104 1.3412020206451416 0.18845011293888092
0.553082644939422607 2.34705376625061035 0.301257342100143433
-0.321656972169876099 -1.97638142108917236 0.271413624286651611
0.415544182062149048 2.10601186752319336 0.169921815395355225
0.475411176681518555 2.21610832214355469 0.189023852348327637
-0.333147495985031128 -1.94376027584075928 0.27863389253616333
-1.41911661624908447 1.30035984516143799 0.121649101376533508
1.34587180614471436 -1.51834297180175781 0.285753041505813599
0.693204879760742188 0.712631821632385254 0.0768465623259544373
-0.324517756700515747 -1.97764861583709717 0.264933496713638306
-1.38860118389129639 1.34033691883087158 0.178566992282867432
