ply
format ascii 1.0
element vertex 256
comment vertices
property float x
property float y
property float z
end_header
-0.369227558374404907 -1.04509389400482178 0.344671458005905151
2.65902805328369141 -1.40454220771789551 0.056956462562084198
0.550887465476989746 0.865612447261810303 0.361781954765319824
0.830900251865386963 -0.532431960105895996 0.0718865543603897095
-0.0145742148160934448 -2.0209200382232666 0.149061352014541626
-0.0066363215446472168 0.989453792572021484 0.0665912479162216187
1.7495734691619873 -1.01720094680786133 0.111584983766078949
0.41366085410118103 0.90381157398223877 0.367755293846130371
0.888522744178771973 0.325568258762359619 0.311662077903747559
-0.453530818223953247 -0.888749420642852783 0.399996280670166016
1.75744521617889404 -1.01828742027282715 0.122809290885925293
0.0193593055009841919 -1.98603677749633789 0.125407204031944275
1.73176407814025879 -0.983574807643890381 0.0969082415103912354
0.857155561447143555 -0.534771621227264404 0.0625730156898498535
-0.432758569717407227 -0.954555332660675049 0.38708081841468811
-0.435198754072189331 -0.784070730209350586 0.344024688005447388
2.6492760181427002 -1.39087784290313721 0.0677541941404342651
0.969174563884735107 0.249511420726776123 0.301108032464981079
2.64330029487609863 -1.42435812950134277 0.0878418684005737305
-0.0151157677173614502 0.993853569030761719 0.0576680637896060944
0.0219290554523468018 -2.01244783401489258 0.136172026395797729
0.0139980912208557129 -1.99375605583190918 0.129478931427001953
0.644202232360839844 0.814289987087249756 0.330416291952133179
1.75513279438018799 -1.00540220737457275 0.130735412240028381
-0.366375207901000977 -0.944594740867614746 0.342887461185455322
-0.337978154420852661 -0.841614246368408203 0.290572851896286011
0.837562084197998047 -0.545371770858764648 0.0795457214117050171
0.85506284236907959 -0.541863918304443359 0.0605892464518547058
1.74561619758605957 -0.996331095695495605 0.127728298306465149
2.67750191688537598 -1.42726695537567139 0.0754743367433547974
1.05512547492980957 0.306290268898010254 0.317052155733108521
-0.391441702842712402 -0.809125542640686035 0.33352246880531311
-0.407490134239196777 -1.00600385665893555 0.365460723638534546
-0.0569700375199317932 1.03360307216644287 0.0481156967580318451
2.65253257751464844 -1.42244851589202881 0.0755563229322433472
-0.0316684916615486145 0.987330317497253418 0.0535708852112293243
0.973112583160400391 0.305642664432525635 0.387409090995788574
1.72413992881774902 -1.00598549842834473 0.0824319273233413696
0.00401042960584163666 -1.9882427453994751 0.135802924633026123
1.73441076278686523 -1.03719174861907959 0.118930891156196594
0.863744616508483887 -0.527680635452270508 0.090388961136341095
1.79118657112121582 -0.956354141235351562 0.152853503823280334
-0.386631786823272705 -0.875886857509613037 0.274673283100128174
1.00073766708374023 0.251104027032852173 0.312415629625320435
0.90899658203125 0.346442818641662598 0.288455009460449219
-0.319559693336486816 -0.951438188552856445 0.233122020959854126
-0.367642194032669067 -0.793208718299865723 0.316729575395584106
0.965077757835388184 0.366099298000335693 0.338116645812988281
1.7465444803237915 -1.02437818050384521 0.120569348335266113
0.0747999250888824463 0.982675015926361084 0.151733383536338806
-0.0465282648801803589 0.987793266773223877 0.048685021698474884
0.0164617747068405151 -1.9663090705871582 0.115804210305213928
0.00579401850700378418 -2.01027703285217285 0.153541892766952515
-0.024763844907283783 -2.02794551849365234 0.137767165899276733
1.75089919567108154 -1.03031575679779053 0.110602855682373047
0.0168037116527557373 -1.98547744750976562 0.144365370273590088
0.594093084335327148 0.844955563545227051 0.306005597114562988
-0.348729550838470459 -0.918940186500549316 0.332225680351257324
0.467601180076599121 0.853927731513977051 0.356054812669754028
1.7659381628036499 -1.01824259757995605 0.0982868224382400513
0.978799998760223389 0.257954537868499756 0.42288777232170105
1.73267853260040283 -1.00466156005859375 0.123304486274719238
1.73636555671691895 -1.02390158176422119 0.110156886279582977
-0.475205719470977783 -0.920226156711578369 0.319787561893463135
-0.458037406206130981 -0.828111410140991211 0.322830080986022949
1.73716259002685547 -1.02625775337219238 0.122177809476852417
0.946467816829681396 0.340947806835174561 0.301669299602508545
2.70541548728942871 -1.4034956693649292 0.102441325783729553
-0.426116585731506348 -1.00472486019134521 0.331643104553222656
-0.407482445240020752 -0.926280200481414795 0.28210914134979248
-0.385802954435348511 -0.815496921539306641 0.262324482202529907
-0.379553526639938354 -0.850722670555114746 0.302314251661300659
1.05523049831390381 0.258737504482269287 0.385771751403808594
2.6376953125 -1.40053284168243408 0.0704499781131744385
2.6488032341003418 -1.41810750961303711 0.103146389126777649
-0.00349771976470947266 1.01609039306640625 0.0779863148927688599
2.65461182594299316 -1.40800321102142334 0.0672361552715301514
1.73825609683990479 -0.975930929183959961 0.0596628077328205109
0.931733846664428711 0.367347091436386108 0.348197042942047119
-0.0183559879660606384 1.01289045810699463 0.0447803251445293427
1.76072573661804199 -0.98439711332321167 0.10217931866645813
0.00858870334923267365 -1.99477112293243408 0.138589963316917419
0.00116102397441864014 -1.99834275245666504 0.131321415305137634
0.844252228736877441 -0.547934234142303467 0.0549440681934356689
-0.338181406259536743 -0.875869691371917725 0.264153599739074707
-0.0321256518363952637 0.990066826343536377 0.0722970813512802124
-0.00237929075956344604 -2.00275659561157227 0.140574678778648376
-0.413571864366531372 -0.933554410934448242 0.361064642667770386
0.941441714763641357 0.340587139129638672 0.282926827669143677
2.67694664001464844 -1.38198184967041016 0.0638124793767929077
0.8579903244972229 -0.526258289813995361 0.121600478887557983
0.866079390048980713 -0.533689618110656738 0.0647640526294708252
1.76320958137512207 -1.01930713653564453 0.112007409334182739
0.854021251201629639 -0.529142320156097412 0.0729433596134185791
1.03081631660461426 0.336564779281616211 0.352685302495956421
2.61056089401245117 -1.40774703025817871 0.0741029232740402222
-0.0269114673137664795 -2.01108241081237793 0.137484148144721985
0.00633889436721801758 -1.99431526660919189 0.143828541040420532
0.0049532279372215271 -1.97226428985595703 0.131729453802108765
1.74163913726806641 -0.98532569408416748 0.120991528034210205
0.916550755500793457 0.264970242977142334 0.32072177529335022
0.0184426009654998779 -1.99175548553466797 0.139026254415512085
1.7656174898147583 -0.98122793436050415 0.132954224944114685
1.78213751316070557 -0.999819397926330566 0.115124642848968506
1.73044180870056152 -1.04399168491363525 0.114404112100601196
-0.390838861465454102 -0.911911845207214355 0.279749572277069092
1.7182013988494873 -1.022286057472229 0.113927125930786133
1.03585803508758545 0.245539456605911255 0.34793698787689209
1.71860003471374512 -1.01195883750915527 0.120833158493041992
0.579376280307769775 0.84948199987411499 0.42134055495262146
0.0167022794485092163 -1.98828423023223877 0.120052173733711243
1.74309718608856201 -1.01485955715179443 0.123018562793731689
-0.427496403455734253 -0.902331709861755371 0.345767974853515625
0.020844191312789917 -1.97432816028594971 0.116504326462745667
1.72205829620361328 -0.992520451545715332 0.114672616124153137
-0.414833098649978638 -0.842801749706268311 0.291006386280059814
0.90674436092376709 0.377942413091659546 0.331674456596374512
-0.321692436933517456 -0.981697320938110352 0.312838315963745117
0.585426867008209229 0.850888431072235107 0.309004217386245728
0.947180747985839844 0.305781751871109009 0.319953978061676025
0.556070566177368164 0.865974307060241699 0.288526058197021484
0.0162116140127182007 0.993493437767028809 0.0901074036955833435
0.976188898086547852 0.318361490964889526 0.42806243896484375
1.73824059963226318 -1.01809835433959961 0.0857397615909576416
-0.312546402215957642 -0.836362957954406738 0.342728614807128906
1.76148056983947754 -1.00382709503173828 0.107753589749336243
1.74880087375640869 -0.998796164989471436 0.107080444693565369
0.867822587490081787 -0.541398525238037109 0.0869871750473976135
-0.385316371917724609 -0.835693359375 0.317222476005554199
-0.0378052107989788055 0.98620152473449707 0.051865261048078537
-0.00789555907249450684 -1.99958288669586182 0.126126140356063843
-0.434578597545623779 -0.943211853504180908 0.336704373359680176
1.01773548126220703 0.244469881057739258 0.366899669170379639
0.0124482959508895874 -2.01229548454284668 0.142217874526977539
0.894112110137939453 0.237169235944747925 0.279095202684402466
-0.333630532026290894 -0.942203402519226074 0.248404234647750854
1.7279362678527832 -0.990553855895996094 0.109629958868026733
-0.0263663828372955322 0.990934133529663086 0.0607347041368484497
0.871481359004974365 -0.509056448936462402 0.098322160542011261
0.0401823222637176514 -1.96469748020172119 0.130545079708099365
-0.0225097909569740295 -2.02207303047180176 0.132896274328231812
0.0374357178807258606 -1.96908903121948242 0.119817666709423065
0.931324243545532227 0.331201761960983276 0.353434860706329346
1.7521514892578125 -1.01898229122161865 0.113430231809616089
-0.00190906226634979248 -2.01345062255859375 0.135113805532455444
1.73465585708618164 -1.00842034816741943 0.0921013131737709045
0.0231004059314727783 -1.99966120719909668 0.125286370515823364
2.63612914085388184 -1.41802942752838135 0.0712810754776000977
-0.413966357707977295 -0.911893606185913086 0.367425531148910522
1.79386258125305176 -0.986998617649078369 0.132513687014579773
1.75316071510314941 -0.993090212345123291 0.108561918139457703
1.86484766006469727 -1.03447294235229492 0.0769072547554969788
1.01562905311584473 0.257446616888046265 0.388867110013961792
2.6574702262878418 -1.386344313621521 0.0762178376317024231
0.967471003532409668 0.336091876029968262 0.33285096287727356
0.415157705545425415 0.918999254703521729 0.339456051588058472
1.00775444507598877 0.351797431707382202 0.325800061225891113
2.66392731666564941 -1.40940678119659424 0.0814697593450546265
-0.000503778457641601562 -1.96948504447937012 0.133625328540802002
0.0176043212413787842 -1.9950408935546875 0.136222481727600098
0.597105920314788818 0.841951668262481689 0.418500185012817383
1.75426411628723145 -0.989182054996490479 0.110036075115203857
0.96760714054107666 0.256655454635620117 0.337202608585357666
0.92787623405456543 0.339150071144104004 0.311150789260864258
-0.39109686017036438 -0.961441516876220703 0.371824383735656738
0.030416533350944519 -2.00958728790283203 0.127996116876602173
0.981453776359558105 0.352108597755432129 0.387478232383728027
0.916978299617767334 0.33797532320022583 0.269080072641372681
-0.382451444864273071 -0.920469582080841064 0.32605394721031189
1.74764895439147949 -1.01834070682525635 0.0969556793570518494
0.860676348209381104 -0.537169337272644043 0.0689175352454185486
2.61492347717285156 -1.41788804531097412 0.0585503317415714264
-0.0192417092621326447 -1.98744964599609375 0.129210770130157471
1.02768969535827637 0.278593748807907104 0.383846759796142578
0.0328035950660705566 -2.00546884536743164 0.133492842316627502
-0.44341808557510376 -0.853430628776550293 0.333478361368179321
1.74420154094696045 -1.0295865535736084 0.106039576232433319
0.994281113147735596 0.335698395967483521 0.300729364156723022
0.613660454750061035 0.837289512157440186 0.300322949886322021
-0.414119094610214233 -0.989678263664245605 0.335642427206039429
1.76403403282165527 -1.01411759853363037 0.110993102192878723
0.905809640884399414 0.266082763671875 0.325754165649414062
0.872548818588256836 -0.528177201747894287 0.100038178265094757
0.920938849449157715 0.304656326770782471 0.353804975748062134
1.7462913990020752 -1.01976430416107178 0.117267139256000519
2.68242835998535156 -1.41516685485839844 0.066419944167137146
-0.431983768939971924 -0.797091841697692871 0.328829109668731689
1.05082523822784424 0.292763710021972656 0.359542995691299438
1.74017977714538574 -1.03300201892852783 0.117222368717193604
1.75093793869018555 -1.0147782564163208 0.102957926690578461
0.0172120630741119385 -2.00316333770751953 0.140265434980392456
-0.381831228733062744 -0.89674067497253418 0.299389541149139404
1.75194752216339111 -1.00248479843139648 0.103140853345394135
1.76566183567047119 -0.978804707527160645 0.129410460591316223
-0.405849575996398926 -1.00766372680664062 0.355306237936019897
0.01212359219789505 -2.0006096363067627 0.124626919627189636
-0.0093971937894821167 0.999767124652862549 0.0473334230482578278
-0.35468021035194397 -0.811675786972045898 0.281891465187072754
2.6437678337097168 -1.41245090961456299 0.0805628448724746704
-0.0404979288578033447 0.993201732635498047 0.0567574501037597656
1.7353670597076416 -1.03693830966949463 0.123291641473770142
-0.0418042019009590149 0.981808304786682129 0.0593737773597240448
0.854811787605285645 -0.539437830448150635 0.0513559915125370026
-0.378008127212524414 -0.809801697731018066 0.294900238513946533
0.00223220884799957275 -2.00343799591064453 0.137857124209403992
0.971625387668609619 0.282469749450683594 0.347158670425415039
0.574142158031463623 0.863061428070068359 0.304060399532318115
-0.311418354511260986 -0.901714503765106201 0.252494782209396362
1.74785411357879639 -1.02722883224487305 0.116275697946548462
0.0185661986470222473 -1.98114299774169922 0.137648925185203552
0.84422612190246582 -0.528409719467163086 0.0715370327234268188
0.0110773816704750061 -2.00009036064147949 0.143443956971168518
-0.011507091112434864 -1.99824488162994385 0.135386794805526733
1.73640692234039307 -1.00125348567962646 0.0976456999778747559
-0.0209193602204322815 0.982194185256958008 0.060457184910774231
0.857571601867675781 -0.531609892845153809 0.0750684887170791626
0.85760122537612915 -0.522807121276855469 0.0708187073469161987
1.75007855892181396 -0.979781448841094971 0.116691209375858307
-0.395194262266159058 -0.861138701438903809 0.331356227397918701
1.03048443794250488 0.315210521221160889 0.415939658880233765
-0.380269348621368408 -0.894302070140838623 0.300963371992111206
2.65042543411254883 -1.37703287601470947 0.0528845712542533875
-0.0229847803711891174 0.986807763576507568 0.0662195906043052673
0.960989117622375488 0.319933235645294189 0.405193239450454712
0.568518757820129395 0.85017096996307373 0.311107218265533447
0.964295089244842529 0.300487518310546875 0.419277846813201904
-0.0325286984443664551 1.00664937496185303 0.0569018051028251648
1.74875020980834961 -0.988358020782470703 0.131270468235015869
-0.00444966554641723633 -1.98439347743988037 0.115222066640853882
-0.452700614929199219 -0.920022964477539062 0.338400453329086304
1.71768927574157715 -0.997403860092163086 0.107586205005645752
0.869885921478271484 0.353553980588912964 0.341444313526153564
2.64604854583740234 -1.41472077369689941 0.0793741494417190552
0.936596274375915527 0.368861645460128784 0.346587926149368286
0.0120646357536315918 -2.00234436988830566 0.134574353694915771
-0.400925695896148682 -0.887462377548217773 0.298078775405883789
0.899654030799865723 0.347404718399047852 0.379490196704864502
2.65495467185974121 -1.40700638294219971 0.0716748610138893127
0.00411579012870788574 0.996849536895751953 0.0761925503611564636
2.64569592475891113 -1.417671799659729 0.0788237452507019043
0.923213481903076172 0.214977145195007324 0.251938521862030029
-0.0277882218360900879 0.997623801231384277 0.0606051832437515259
1.7370607852935791 -0.991333603858947754 0.13675139844417572
2.7043614387512207 -1.38109886646270752 0.103075161576271057
0.0251956898719072342 -1.97784626483917236 0.115436755120754242
-0.386830121278762817 -0.95869976282119751 0.254322290420532227
-0.381494253873825073 -0.928894996643066406 0.347086042165756226
1.7238924503326416 -1.02804255485534668 0.0937753617763519287
-0.0271993353962898254 0.992610037326812744 0.0819377303123474121
1.74518716335296631 -0.96720433235168457 0.0881085619330406189
2.63095426559448242 -1.39853191375732422 0.073930785059928894
0.844786584377288818 -0.537193655967712402 0.0786854177713394165
1.74432730674743652 -1.01216745376586914 0.0958561152219772339
-0.431366086006164551 -0.836134433746337891 0.325860798358917236
0.824158251285552979 -0.533008575439453125 0.0848514661192893982
-0.393708705902099609 -0.931807219982147217 0.283511340618133545
