ply
format ascii 1.0
element vertex 60
comment vertices
property float x
property float y
property float z
end_header
-1.26929163932800293 1.55149054527282715 0.0596912652254104614
-1.01718401908874512 0.0494359247386455536 0.0672641992568969727
0.277085065841674805 -0.958523035049438477 0.0534825697541236877
-1.00597131252288818 0.0484770238399505615 0.0722738951444625854
-1.27639877796173096 1.55112707614898682 0.0553691759705543518
-1.26914882659912109 1.55353903770446777 0.0546630993485450745
0.231203898787498474 -0.957147479057312012 0.0484147109091281891
0.280661612749099731 -0.960717380046844482 0.0461331754922866821
-1.01068627834320068 0.050388433039188385 0.0704945102334022522
-1.00945961475372314 0.0492346026003360748 0.0642454251646995544
-1.26172065734863281 1.55742442607879639 0.0561001449823379517
0.268586993217468262 -0.959549129009246826 0.0470460802316665649
-1.27261948585510254 1.55270648002624512 0.0625975131988525391
-1.00510716438293457 0.0515699498355388641 0.0601232200860977173
0.27092444896697998 -0.956909656524658203 0.0525621548295021057
0.27696692943572998 -0.957596898078918457 0.0543211624026298523
-1.2639765739440918 1.55756950378417969 0.0514448098838329315
0.27875906229019165 -0.956738889217376709 0.0495476536452770233
-1.00876617431640625 0.0475085973739624023 0.0752315297722816467
0.219569116830825806 -0.96115410327911377 0.0395343229174613953
0.260433197021484375 -0.955645859241485596 0.0529755055904388428
0.272119671106338501 -0.958264052867889404 0.0471430867910385132
-1.26160538196563721 1.55760824680328369 0.0533320680260658264
-1.26137268543243408 1.55734097957611084 0.057087484747171402
-1.26766455173492432 1.55711174011230469 0.0450836643576622009
-1.25999891757965088 1.55660831928253174 0.0545656271278858185
-1.00684678554534912 0.0546380989253520966 0.0704092085361480713
-1.01140403747558594 0.0516431853175163269 0.0601562969386577606
-1.0154411792755127 0.0576473623514175415 0.0674685314297676086
-1.01292526721954346 0.0477160289883613586 0.0728166773915290833
0.275792628526687622 -0.957881033420562744 0.0485040247440338135
-1.006583571434021 0.0547593496739864349 0.0698536783456802368
-1.00650501251220703 0.050068635493516922 0.0765215158462524414
-1.01288223266601562 0.0518020950257778168 0.0678017809987068176
0.258845865726470947 -0.967137455940246582 0.0598841011524200439
0.279612541198730469 -0.957004189491271973 0.0514625236392021179
-1.01163995265960693 0.0474978312849998474 0.0723878219723701477
0.273276060819625854 -0.961378157138824463 0.0508963689208030701
-1.2610771656036377 1.55463659763336182 0.0658104121685028076
-1.26094329357147217 1.55621790885925293 0.0518415756523609161
0.276970326900482178 -0.959377169609069824 0.0506590530276298523
0.276897728443145752 -0.95888829231262207 0.0457029454410076141
-1.007759690284729 0.0541738681495189667 0.0672487616539001465
-1.00643956661224365 0.0503119491040706635 0.0703540146350860596
0.272347390651702881 -0.96183544397354126 0.0504911020398139954
-1.00896632671356201 0.0493490360677242279 0.0650525540113449097
-1.26323461532592773 1.55684089660644531 0.0562831275165081024
-1.26181066036224365 1.55644321441650391 0.0605747103691101074
-1.26614654064178467 1.55852639675140381 0.0564172267913818359
-1.01082229614257812 0.0481671728193759918 0.0732151269912719727
0.275185465812683105 -0.958345293998718262 0.0475574582815170288
-1.2616734504699707 1.55822217464447021 0.0546448566019535065
-1.00772774219512939 0.0470733791589736938 0.0732019245624542236
-1.26128184795379639 1.5573965311050415 0.0576371215283870697
-1.00685667991638184 0.0524719506502151489 0.0724480748176574707
-1.26006519794464111 1.5555121898651123 0.059537254273891449
-1.00596034526824951 0.0510859452188014984 0.0617523826658725739
0.27371293306350708 -0.958875358104705811 0.0511882156133651733
0.275346040725708008 -0.958229899406433105 0.0558931678533554077
-1.26081478595733643 1.55495345592498779 0.0532410740852355957
