ply
format ascii 1.0
element vertex 256
comment vertices
property float x
property float y
property float z
end_header
-0.445575714111328125 -0.912657856941223145 0.0737931951880455017
0.395814239978790283 1.95209622383117676 0.129166305065155029
-1.51827001571655273 1.2922816276550293 0.0979165434837341309
1.29598021507263184 -1.49475657939910889 0.319091558456420898
0.68116837739944458 0.722344398498535156 0.0687845870852470398
-0.263329565525054932 -2.08713984489440918 0.296187639236450195
-0.133374571800231934 0.960205495357513428 0.315896123647689819
0.301184803247451782 -0.946065545082092285 0.0584776923060417175
1.28424274921417236 -1.47046089172363281 0.275748610496520996
0.219374030828475952 1.93968868255615234 0.144174098968505859
-0.323019653558731079 -1.8420480489730835 0.30193251371383667
-1.43949019908905029 1.29372990131378174 0.0731812119483947754
-0.12408757209777832 0.956918478012084961 0.4208565354347229
0.064915291965007782 -0.917346417903900146 0.0387990623712539673
0.692029654979705811 0.706785678863525391 0.0784109309315681458
-1.42159116268157959 1.48681211471557617 0.187420234084129333
-1.39242649078369141 1.34185397624969482 0.236396431922912598
-0.170587778091430664 1.01228928565979004 0.335381865501403809
0.71876978874206543 0.713026463985443115 0.0855937674641609192
-0.314851224422454834 -2.00917530059814453 0.293425500392913818
0.407126247882843018 2.22681522369384766 0.200430884957313538
-0.27284473180770874 -2.16295337677001953 0.348047792911529541
-0.314406722784042358 -1.70012569427490234 0.384569436311721802
1.34710264205932617 -1.49142825603485107 0.286926507949829102
0.458811581134796143 1.98770034313201904 0.230420276522636414
0.289881348609924316 -0.947321832180023193 0.0553163737058639526
0.270244479179382324 -0.935984492301940918 0.0657684803009033203
-0.105276897549629211 1.03298807144165039 0.29721754789352417
0.694319725036621094 0.699364840984344482 0.0650935769081115723
-0.0871766507625579834 0.988165318965911865 0.444097399711608887
-1.42249405384063721 1.48341071605682373 0.175027593970298767
-0.361491739749908447 -0.902090013027191162 0.0498258434236049652
-1.51689827442169189 1.26773703098297119 0.126081615686416626
-1.26347661018371582 1.40351855754852295 0.173462525010108948
-0.0297263599932193756 1.02762496471405029 0.265966236591339111
-0.438319206237792969 -0.927240610122680664 0.0783045291900634766
0.273432791233062744 2.12391328811645508 0.196093440055847168
0.707947075366973877 0.714262425899505615 0.073222428560256958
-1.39556646347045898 1.33300650119781494 0.0925388485193252563
0.275837361812591553 -0.932906925678253174 0.0560161769390106201
-0.45161747932434082 -0.895025849342346191 0.0794908478856086731
-0.143316924571990967 1.11621582508087158 0.298876047134399414
0.535371243953704834 2.26079964637756348 0.413362771272659302
0.376230239868164062 2.20562124252319336 0.318752467632293701
-0.305509358644485474 -1.93860197067260742 0.284889519214630127
0.478442847728729248 2.01513147354125977 0.141992926597595215
1.33022940158843994 -1.5074610710144043 0.293049156665802002
-0.34290015697479248 -2.06390643119812012 0.271049439907073975
-0.154058158397674561 0.936962544918060303 0.356701016426086426
-1.4907841682434082 1.35049843788146973 0.10564500093460083
-0.152034074068069458 0.98368149995803833 0.437020659446716309
0.322175443172454834 2.1221318244934082 0.276118487119674683
-0.35994642972946167 -1.87841677665710449 0.25761750340461731
-0.355098426342010498 -2.06644988059997559 0.258090615272521973
-0.157398879528045654 1.01275324821472168 0.321762382984161377
0.551803767681121826 2.14160346984863281 0.259283930063247681
-1.50174665451049805 1.33283257484436035 0.109322398900985718
-0.302153468132019043 -2.09360361099243164 0.289047479629516602
-0.354644954204559326 -1.89015865325927734 0.292519479990005493
-1.31517159938812256 1.30368566513061523 0.170232802629470825
-0.360832244157791138 -0.89635014533996582 0.0654208213090896606
1.33197379112243652 -1.4789804220199585 0.283032983541488647
1.32670927047729492 -1.47405815124511719 0.264366477727890015
-1.47794270515441895 1.38601577281951904 0.12840154767036438
0.586564898490905762 2.10972380638122559 0.384334683418273926
-0.108440577983856201 -0.882182300090789795 0.0504377409815788269
-1.35495507717132568 1.44678354263305664 0.203243300318717957
0.682761669158935547 0.724325180053710938 0.0627255886793136597
-1.4262160062789917 1.36413228511810303 0.0753165930509567261
0.339052081108093262 2.16284465789794922 0.235455632209777832
0.280656218528747559 -0.942413330078125 0.0708272755146026611
-0.123312115669250488 1.01278257369995117 0.313932836055755615
-0.137009382247924805 1.0349191427230835 0.311144620180130005
0.268070399761199951 2.00559043884277344 0.154877662658691406
0.570264816284179688 2.21734166145324707 0.290936708450317383
0.279513031244277954 -0.930417656898498535 0.0635986998677253723
-0.387429356575012207 -1.8282322883605957 0.312916874885559082
-0.16830936074256897 1.07993006706237793 0.323901653289794922
-0.342392444610595703 -2.00689482688903809 0.313564389944076538
-1.32372629642486572 1.47564244270324707 0.176066100597381592
-0.0817605331540107727 1.11403095722198486 0.223343983292579651
-1.3778078556060791 1.28410041332244873 0.098086237907409668
-1.50101649761199951 1.23085641860961914 0.12309737503528595
-1.48501300811767578 1.31947529315948486 0.091572001576423645
0.418048948049545288 2.13876914978027344 0.309495806694030762
0.689958691596984863 0.706466138362884521 0.0619856789708137512
0.690273463726043701 0.729731440544128418 0.0627530813217163086
-1.37033367156982422 1.38881921768188477 0.146131739020347595
-0.416976034641265869 -0.898394405841827393 0.069756142795085907
0.165257543325424194 -0.942548871040344238 0.0501638799905776978
0.265435785055160522 1.98838675022125244 0.308571815490722656
0.549508988857269287 2.29041266441345215 0.317297190427780151
-0.0518925487995147705 1.06379425525665283 0.250047504901885986
-1.53029513359069824 1.25672459602355957 0.104311972856521606
-1.47944998741149902 1.37234854698181152 0.110781833529472351
0.690515756607055664 0.709412455558776855 0.0660449862480163574
1.37433362007141113 -1.55275166034698486 0.261740982532501221
-1.31730878353118896 1.37917160987854004 0.180182218551635742
0.231904730200767517 2.07695293426513672 0.316500604152679443
0.708754062652587891 0.738442480564117432 0.0547318942844867706
0.498468726873397827 2.08286118507385254 0.219807207584381104
-0.325574338436126709 -1.76480484008789062 0.397004246711730957
0.274375766515731812 1.98836779594421387 0.137349307537078857
-0.14667057991027832 1.11559200286865234 0.226638317108154297
0.234290719032287598 2.09771609306335449 0.301830202341079712
-0.29389268159866333 -2.1507725715637207 0.367926090955734253
0.265687406063079834 -0.944782495498657227 0.0573980286717414856
-0.00713030621409416199 0.956346631050109863 0.250513136386871338
-0.336447000503540039 -1.88312280178070068 0.283125042915344238
1.24924612045288086 -1.5271904468536377 0.27060207724571228
-0.331558972597122192 -1.85152995586395264 0.28320467472076416
0.255120903253555298 -0.943071365356445312 0.054802916944026947
-0.106899440288543701 1.09286284446716309 0.23724326491355896
-0.400105178356170654 -0.879356026649475098 0.0678392648696899414
0.681898355484008789 0.726596474647521973 0.0752094388008117676
0.700735688209533691 0.712016642093658447 0.089344419538974762
-1.52499425411224365 1.27577757835388184 0.127851873636245728
0.0869392454624176025 -0.918813467025756836 0.066317535936832428
0.584269285202026367 2.08067560195922852 0.360578805208206177
0.575639247894287109 2.0741877555847168 0.274643093347549438
0.526963889598846436 2.18474173545837402 0.324943423271179199
-0.255962163209915161 -0.904365360736846924 0.0865288078784942627
0.687311828136444092 0.721655130386352539 0.0695546120405197144
-0.32304111123085022 -2.01262736320495605 0.290256857872009277
-0.314080357551574707 -2.05440258979797363 0.298095613718032837
0.608617067337036133 2.27690362930297852 0.39796110987663269
1.2821958065032959 -1.49527072906494141 0.283977091312408447
-0.31884157657623291 -1.95493245124816895 0.267692595720291138
0.385115742683410645 2.22479128837585449 0.244873255491256714
1.31544017791748047 -1.48731446266174316 0.278665542602539062
-0.288144707679748535 -2.10903787612915039 0.294128328561782837
-0.131399065256118774 1.12610828876495361 0.280955970287322998
-0.456268429756164551 -0.904976010322570801 0.0575908757746219635
0.328219860792160034 2.07416224479675293 0.342295706272125244
0.469684392213821411 2.23132658004760742 0.284349530935287476
-0.46650204062461853 -0.908296287059783936 0.0706431120634078979
-1.41367208957672119 1.41002523899078369 0.190604537725448608
-0.12826913595199585 0.965182721614837646 0.369587153196334839
-0.290582805871963501 -2.0031740665435791 0.298232793807983398
-0.0212408266961574554 -0.924752175807952881 0.0728377923369407654
0.459908157587051392 2.08361244201660156 0.178924769163131714
-0.133076936006546021 1.08938455581665039 0.327261894941329956
-0.127611279487609863 1.03370332717895508 0.280052393674850464
-0.44468379020690918 -0.899516105651855469 0.0737263709306716919
0.570332527160644531 2.36801552772521973 0.359351903200149536
0.329713046550750732 2.20909285545349121 0.364788591861724854
0.275660604238510132 -0.938142955303192139 0.0513897240161895752
-1.35846948623657227 1.50352573394775391 0.193678990006446838
-0.11016923189163208 1.05846738815307617 0.41713637113571167
0.387199968099594116 1.96575415134429932 0.181303545832633972
-0.342015445232391357 -1.85546910762786865 0.295377254486083984
-0.308827668428421021 -2.05403232574462891 0.312679052352905273
-1.37363159656524658 1.26898872852325439 0.145601361989974976
-1.52063417434692383 1.3214104175567627 0.0636659860610961914
-1.40842533111572266 1.41000211238861084 0.123909734189510345
0.454283535480499268 2.08779001235961914 0.191765636205673218
1.2919541597366333 -1.4519040584564209 0.263724148273468018
-1.52950799465179443 1.28122794628143311 0.121403768658638
0.698524653911590576 0.730398297309875488 0.0256357267498970032
0.33989185094833374 2.11779356002807617 0.370764970779418945
0.382715165615081787 2.0655968189239502 0.185312062501907349
1.32352256774902344 -1.50809228420257568 0.277518242597579956
1.30160140991210938 -1.49789822101593018 0.277721405029296875
-1.4513624906539917 1.4187852144241333 0.107154086232185364
-0.389556586742401123 -0.89575660228729248 0.0623097755014896393
0.529102325439453125 2.17879414558410645 0.432397514581680298
-1.38313436508178711 1.46360921859741211 0.172509223222732544
-1.46245849132537842 1.4560549259185791 0.115563780069351196
-1.39709115028381348 1.30607473850250244 0.114693671464920044
0.644372344017028809 2.27035427093505859 0.462053358554840088
-1.38467526435852051 1.2634584903717041 0.143584504723548889
-0.0803547799587249756 1.06994783878326416 0.272420763969421387
0.51890099048614502 2.11938643455505371 0.236893832683563232
0.600755512714385986 2.28351545333862305 0.364159971475601196
-1.26181948184967041 1.51318037509918213 0.21716172993183136
0.702575385570526123 0.696243107318878174 0.0553703084588050842
-1.48112154006958008 1.41767394542694092 0.0690490901470184326
-0.353125393390655518 -0.908203840255737305 0.0732880234718322754
0.70181727409362793 0.715590417385101318 0.0714160948991775513
0.372977733612060547 1.98168826103210449 0.133079230785369873
1.33911216259002686 -1.49291646480560303 0.241128295660018921
0.694331765174865723 0.718342244625091553 0.0625457689166069031
-0.365904748439788818 -1.83867669105529785 0.32080388069152832
-0.0932559669017791748 1.01933968067169189 0.302315264940261841
0.259395599365234375 2.15185189247131348 0.284557759761810303
-1.47599101066589355 1.340079665184021 0.101458415389060974
0.289126366376876831 2.09978675842285156 0.241657152771949768
-0.369704842567443848 -2.07048678398132324 0.317417442798614502
0.673050761222839355 0.710442662239074707 0.0816525071859359741
0.584161877632141113 2.08123254776000977 0.288094371557235718
-0.0938556939363479614 1.03201568126678467 0.292938768863677979
-1.33831584453582764 1.42853403091430664 0.168994680047035217
0.571934401988983154 2.1444084644317627 0.340634346008300781
0.351194262504577637 2.2935333251953125 0.373730063438415527
0.204996794462203979 -0.944647729396820068 0.0608342625200748444
0.535789072513580322 2.07338714599609375 0.316659659147262573
-1.44605767726898193 1.41317391395568848 0.142337009310722351
-1.42799055576324463 1.27556920051574707 0.0622236132621765137
-0.448941409587860107 -0.905184447765350342 0.0596426725387573242
0.293561607599258423 2.0981450080871582 0.338617414236068726
0.69471663236618042 0.702137589454650879 0.0794344991445541382
1.3558659553527832 -1.53317248821258545 0.29889446496963501
0.557752668857574463 2.29112100601196289 0.407208055257797241
0.271978288888931274 1.98158419132232666 0.156072407960891724
-1.38082468509674072 1.40893363952636719 0.241167724132537842
-1.43559300899505615 1.34418165683746338 0.0986397415399551392
-0.368789881467819214 -1.94785618782043457 0.270231485366821289
-1.44187664985656738 1.40949606895446777 0.101299285888671875
0.693166136741638184 0.712152063846588135 0.0804428309202194214
-1.43638730049133301 1.29987335205078125 0.0784503370523452759
0.011229662224650383 -0.927270293235778809 0.0554207265377044678
-0.342559516429901123 -1.84625625610351562 0.269201546907424927
0.281388521194458008 -0.939363539218902588 0.0574341043829917908
0.642144680023193359 2.25503659248352051 0.412795364856719971
0.251317054033279419 2.01408123970031738 0.180780768394470215
0.278974622488021851 -0.950407087802886963 0.0571679994463920593
-1.42518377304077148 1.24874544143676758 0.117773056030273438
0.604456543922424316 2.23485827445983887 0.348289370536804199
-1.24646925926208496 1.37642455101013184 0.227234691381454468
-0.115212559700012207 1.00364172458648682 0.331322699785232544
-0.155520468950271606 -0.875589132308959961 0.110438674688339233
0.275316148996353149 -0.926766395568847656 0.051293540745973587
-1.3971409797668457 1.49430739879608154 0.195952668786048889
-1.42160677909851074 1.25222229957580566 0.12286984920501709
-1.53240466117858887 1.24838483333587646 0.133494913578033447
0.606935560703277588 2.15708231925964355 0.379224061965942383
-0.160744562745094299 1.07841348648071289 0.265545189380645752
0.447297185659408569 2.15169286727905273 0.248435363173484802
-0.161975651979446411 1.05004405975341797 0.414512991905212402
-0.140561699867248535 1.07738566398620605 0.30502551794052124
-1.41155052185058594 1.28581452369689941 0.162667155265808105
-0.352198034524917603 -2.01866912841796875 0.297951877117156982
-0.100179284811019897 1.04877734184265137 0.253066509962081909
-1.3810112476348877 1.46662461757659912 0.143528878688812256
-0.117455326020717621 1.12688875198364258 0.280374288558959961
-1.51341009140014648 1.29513776302337646 0.114119037985801697
0.36294865608215332 2.20433402061462402 0.290973782539367676
-0.327009439468383789 -1.86414098739624023 0.294597655534744263
-0.395963728427886963 -0.896811068058013916 0.0638518929481506348
-1.32486975193023682 1.30903971195220947 0.167157202959060669
-1.30963540077209473 1.41540181636810303 0.218397602438926697
-0.345846414566040039 -1.92209649085998535 0.248733922839164734
0.690023839473724365 0.731223464012145996 0.0867321714758872986
0.289655894041061401 2.19231510162353516 0.320624351501464844
-1.43401169776916504 1.47056317329406738 0.172737032175064087
-1.49696230888366699 1.32105934619903564 0.10493999719619751
0.469198882579803467 2.33281064033508301 0.426342308521270752
-0.334994256496429443 -2.05676126480102539 0.312282025814056396
0.441885620355606079 2.00736665725708008 0.243474215269088745
0.328389912843704224 2.21136474609375 0.231990933418273926
-0.341773539781570435 -2.12232518196105957 0.277105480432510376
-1.40307009220123291 1.52417206764221191 0.178441852331161499
1.28399300575256348 -1.49968349933624268 0.303630799055099487
0.694145083427429199 0.713349401950836182 0.0823287367820739746
-0.331280559301376343 -2.01710081100463867 0.310299694538116455
-1.53883218765258789 1.29068422317504883 0.0920177102088928223
