ply
format ascii 1.0
element vertex 64
comment vertices
property float x
property float y
property float z
end_header
0.756202280521392822 -0.654337882995605469 0.0606664307415485382
-0.850541472434997559 -0.525907993316650391 0.39616885781288147
-0.309928089380264282 -0.950760006904602051 0.0445840694010257721
-1.73263943195343018 -0.998979866504669189 0.439356684684753418
0 0 0
0 0 0
0 0 0
0 0 0
0 0 0
0 0 0
0 0 0
0 0 0
0 0 0
0 0 0
0 0 0
0 0 0
0 0 0
0 0 0
0 0 0
0 0 0
0 0 0
0 0 0
0 0 0
0 0 0
0 0 0
0 0 0
0 0 0
0 0 0
0 0 0
0 0 0
0 0 0
0 0 0
0 0 0
0 0 0
0 0 0
0 0 0
0 0 0
0 0 0
0 0 0
0 0 0
0 0 0
0 0 0
0 0 0
0 0 0
0 0 0
0 0 0
0 0 0
0 0 0
0 0 0
0 0 0
0 0 0
0 0 0
0 0 0
0 0 0
0 0 0
0 0 0
0 0 0
0 0 0
0 0 0
0 0 0
0 0 0
0 0 0
0 0 0
0 0 0
