ply
format ascii 1.0
element vertex 256
comment vertices
property float x
property float y
property float z
end_header
1.70898962020874023 -0.771488547325134277 0.404368996620178223
-1.00942587852478027 0.59582895040512085 0.394866019487380981
-0.235513150691986084 -1.26117527484893799 0.111538469791412354
1.07084739208221436 0.52829432487487793 0.213208854198455811
-0.21059572696685791 0.736902773380279541 0.596861183643341064
1.31605410575866699 0.0622682571411132812 0.751555681228637695
-0.483470112085342407 0.302268028259277344 0.161102846264839172
-0.158539190888404846 -0.719526886940002441 0.422661662101745605
2.17064213752746582 -0.482096284627914429 0.160590276122093201
1.15255165100097656 -0.158010214567184448 0.245347663760185242
1.93731403350830078 -0.431890636682510376 0.80476456880569458
-0.489821165800094604 0.882497072219848633 0.161600589752197266
-0.54419475793838501 -1.03525042533874512 0.410507708787918091
-0.206036046147346497 -0.824811041355133057 -0.0941747575998306274
2.15146636962890625 -0.791928112506866455 0.513899505138397217
-0.59148108959197998 0.443417876958847046 0.563555359840393066
1.6717228889465332 -0.467763781547546387 0.0887151360511779785
1.37270772457122803 0.255648136138916016 0.365367293357849121
-0.161645874381065369 -1.10991621017456055 0.48059612512588501
0.96364128589630127 0.366105079650878906 0.549914658069610596
1.91706228256225586 -0.349454373121261597 0.438265681266784668
1.77787208557128906 -0.814930498600006104 0.768497228622436523
-0.228997558355331421 0.554229617118835449 0.176033765077590942
1.96565699577331543 -0.851996183395385742 0.168727055191993713
-0.535335063934326172 0.830945134162902832 0.551136791706085205
-0.462196260690689087 -1.03599607944488525 0.00214334949851036072
-0.671817660331726074 0.600112438201904297 0.167400628328323364
1.03263533115386963 0.14218120276927948 0.318477094173431396
-0.0258789360523223877 -0.903048813343048096 0.169720456004142761
1.62619876861572266 -1.00200450420379639 0.208947092294692993
1.24946022033691406 0.543467342853546143 0.463967889547348022
-0.346954464912414551 -0.876053988933563232 0.235507845878601074
-0.365281343460083008 -1.29724240303039551 0.395049124956130981
1.90610778331756592 -0.601147830486297607 0.291215419769287109
-0.412931680679321289 0.594123423099517822 0.404548019170761108
1.88935256004333496 -0.615342020988464355 0.602453827857971191
1.20592188835144043 -0.029870813712477684 0.482715606689453125
1.66759753227233887 -0.990318894386291504 0.55559086799621582
-0.745019435882568359 0.682002425193786621 0.503019571304321289
-0.379914551973342896 0.314948737621307373 0.495519578456878662
2.18900394439697266 -0.881197810173034668 0.280304700136184692
1.78423357009887695 -0.296745151281356812 0.233088701963424683
1.74284148216247559 -0.739425539970397949 0.157378971576690674
-0.0489884912967681885 -1.16462743282318115 0.245672136545181274
1.93680202960968018 -0.888221979141235352 0.435593634843826294
1.12213420867919922 0.19491519033908844 0.687826335430145264
-0.774694561958312988 0.467445343732833862 0.399487584829330444
1.48511135578155518 0.0835480242967605591 0.2448548823595047
-0.400583833456039429 -1.1059880256652832 0.238637790083885193
-0.276724278926849365 0.761046111583709717 0.311364531517028809
-0.442084997892379761 0.625675559043884277 0.122510701417922974
-0.197223246097564697 -0.729752242565155029 0.111287295818328857
-0.388917386531829834 0.5602836012840271 0.625313341617584229
1.74885213375091553 -0.495623111724853516 0.439496845006942749
1.14045262336730957 0.336284399032592773 0.327534019947052002
-0.623338043689727783 0.775829195976257324 0.342963695526123047
-0.574905872344970703 0.463812172412872314 0.311926215887069702
1.81670248508453369 -0.40215986967086792 0.624329805374145508
-0.254656612873077393 -0.917376339435577393 0.50023353099822998
2.10701131820678711 -0.640699923038482666 0.369318217039108276
-0.0153965950012207031 -0.964033007621765137 0.372160673141479492
-0.680664539337158203 0.370133459568023682 0.137790217995643616
1.55948615074157715 -0.80294334888458252 0.264645129442214966
-0.342268466949462891 -0.656409680843353271 0.23944854736328125
-0.180471137166023254 -1.03459346294403076 0.134453341364860535
-0.51529383659362793 0.245887890458106995 0.354768872261047363
2.05676054954528809 -0.685284018516540527 0.101234599947929382
1.82710838317871094 -0.992679178714752197 0.21400056779384613
-0.347364425659179688 -1.1017000675201416 0.552514791488647461
1.66474556922912598 -0.706458985805511475 0.587161004543304443
2.0319666862487793 -0.432707309722900391 0.299449235200881958
-0.194854646921157837 -1.01411008834838867 0.322878897190093994
-0.357956886291503906 0.854867100715637207 0.495964735746383667
-0.560857832431793213 0.62454146146774292 0.581814229488372803
-0.528695821762084961 0.252042829990386963 0.578534126281738281
1.19748854637145996 0.129072815179824829 0.398434996604919434
-0.325208187103271484 -0.830768764019012451 0.0385780632495880127
-0.524299561977386475 -1.21722710132598877 0.384530067443847656
-0.544685959815979004 0.433122247457504272 0.042441103607416153
-0.380692809820175171 0.469329595565795898 0.207063376903533936
-0.1545601487159729 -1.14912676811218262 0.0017655491828918457
-0.260272771120071411 0.528302788734436035 0.349751055240631104
1.71517622470855713 -0.577519834041595459 0.289773404598236084
1.92401480674743652 -0.675433754920959473 0.760344505310058594
1.96836292743682861 -0.756857335567474365 0.329970836639404297
-0.732568502426147461 0.519376397132873535 0.62218475341796875
1.03735196590423584 0.449700534343719482 0.395414829254150391
-0.344800055027008057 -0.805040836334228516 0.416168332099914551
-0.350437790155410767 0.810372114181518555 0.656374931335449219
1.6749647855758667 -0.965583920478820801 0.391047388315200806
-0.237124711275100708 -1.27058565616607666 0.292138487100601196
1.10418534278869629 -0.00788754597306251526 0.324532300233840942
-0.522311031818389893 0.653236269950866699 0.294004917144775391
1.17916178703308105 0.41251528263092041 0.165466874837875366
1.49261283874511719 0.142838507890701294 0.397783398628234863
-0.590583264827728271 0.753582537174224854 0.148707300424575806
-0.360279768705368042 0.693095207214355469 0.533439278602600098
1.03991043567657471 0.24442504346370697 0.191689386963844299
-0.187507390975952148 -0.861451566219329834 0.265683978796005249
-0.371073126792907715 0.483959496021270752 0.0456065945327281952
1.27668547630310059 0.218323484063148499 0.242282018065452576
2.02112317085266113 -0.537682414054870605 0.152615249156951904
-0.368969231843948364 -1.09660780429840088 0.395161420106887817
-0.634443938732147217 0.558346927165985107 0.457556247711181641
1.23343324661254883 0.113745242357254028 0.608870983123779297
-0.41963765025138855 0.759625613689422607 0.237868785858154297
1.60968697071075439 -0.848477602005004883 0.518399477005004883
1.70125222206115723 -0.871150553226470947 0.266855299472808838
1.8419109582901001 -0.432828962802886963 0.328393459320068359
1.80105853080749512 -0.488460808992385864 0.17510184645652771
1.89940392971038818 -0.638754725456237793 0.441663742065429688
1.11298274993896484 0.2912558913230896 0.473330140113830566
1.86108803749084473 -0.758678734302520752 0.556272149085998535
1.8657156229019165 -0.651832222938537598 0.132235527038574219
-0.450593829154968262 0.42431330680847168 0.415533483028411865
-0.648826539516448975 0.379173696041107178 0.414265304803848267
1.81807458400726318 -0.774908661842346191 0.28018614649772644
-0.336639940738677979 0.454441368579864502 0.50325089693069458
0.990306079387664795 0.346831440925598145 0.303119629621505737
1.86137092113494873 -0.52110975980758667 0.71030348539352417
-0.141194403171539307 -0.842191636562347412 0.0373514890670776367
-0.357225328683853149 -0.945804417133331299 0.380565673112869263
1.34641194343566895 0.0711268782615661621 0.287133783102035522
-0.0641696751117706299 -1.23489713668823242 0.122223377227783203
-0.75391542911529541 0.602120697498321533 0.28422662615776062
1.80168795585632324 -0.920129895210266113 0.467789351940155029
1.98194742202758789 -0.296882122755050659 0.323189496994018555
1.08835577964782715 0.148333698511123657 0.487337172031402588
1.80673038959503174 -0.855425894260406494 0.105988666415214539
-0.477440893650054932 0.714224696159362793 0.444131255149841309
2.17064642906188965 -0.521680116653442383 0.295646786689758301
-0.549568772315979004 0.871724724769592285 0.418316781520843506
-0.0227861404418945312 -0.837147891521453857 0.319313734769821167
-0.54993438720703125 0.472576051950454712 0.173835903406143188
-0.288156270980834961 0.658156335353851318 0.42398032546043396
2.0194854736328125 -0.669171571731567383 0.230185985565185547
-0.379702091217041016 0.886685788631439209 0.260410308837890625
-0.579451441764831543 0.209172874689102173 0.179980456829071045
1.77189958095550537 -0.60541301965713501 0.513602375984191895
1.61652851104736328 -0.681574165821075439 0.366967380046844482
1.95438539981842041 -0.533503949642181396 0.503417372703552246
-0.189277946949005127 -1.12061417102813721 0.236258208751678467
2.01201844215393066 -0.810719013214111328 0.513569176197052002
-0.106263160705566406 -0.760885775089263916 0.238097742199897766
-0.335154622793197632 0.645203351974487305 0.289685636758804321
-0.291464120149612427 -1.02829217910766602 0.0642907023429870605
1.99685323238372803 -0.553121328353881836 0.372187614440917969
-0.261944770812988281 -1.19107544422149658 0.391560196876525879
-0.498102933168411255 -1.12860143184661865 0.484038442373275757
1.62635219097137451 -0.709077894687652588 0.210221707820892334
-0.646499097347259521 0.651057004928588867 0.333486258983612061
2.13957810401916504 -0.697018682956695557 0.195947945117950439
-0.517894089221954346 0.52487647533416748 0.491356641054153442
1.87868309020996094 -0.779134631156921387 0.417471051216125488
1.83279991149902344 -0.892799496650695801 0.318364202976226807
-0.488320082426071167 0.831661880016326904 0.317327380180358887
1.40792632102966309 0.178049638867378235 0.273488789796829224
-0.740181684494018555 0.600663304328918457 0.408753097057342529
-0.423003852367401123 -0.805122137069702148 0.301906853914260864
-0.437870323657989502 0.88915717601776123 0.619460821151733398
1.05615293979644775 0.249059021472930908 0.372937917709350586
1.94333040714263916 -0.397360444068908691 0.223099768161773682
-0.498960822820663452 -1.01281964778900146 0.115975946187973022
1.19894993305206299 -0.14360356330871582 0.439735174179077148
-0.458351075649261475 0.568857431411743164 0.228064239025115967
-0.585823297500610352 0.736579060554504395 0.494937211275100708
-0.403071582317352295 -0.904833197593688965 0.132839679718017578
-0.539722919464111328 0.611998260021209717 0.405988872051239014
-0.271039456129074097 0.803510010242462158 0.431168228387832642
1.98975896835327148 -0.896094381809234619 0.277645885944366455
1.97672295570373535 -0.699517130851745605 0.539124131202697754
-0.400445640087127686 0.49266517162322998 0.321747541427612305
-0.222854733467102051 -0.926118612289428711 0.155097350478172302
-0.403309613466262817 0.384747833013534546 0.10065285861492157
-0.159039691090583801 -0.91295093297958374 0.371668338775634766
1.72689378261566162 -0.705715775489807129 0.307419151067733765
-0.426033645868301392 -0.997709274291992188 0.276884138584136963
-0.124114617705345154 -0.928376197814941406 -0.0395624041557312012
-0.471685826778411865 0.737041950225830078 0.106813967227935791
1.8729557991027832 -0.452292144298553467 0.468713551759719849
-0.480212658643722534 0.707648754119873047 0.580472469329833984
-0.437462091445922852 0.607775688171386719 0.521522641181945801
1.82903110980987549 -0.547559559345245361 0.358774572610855103
-0.449586033821105957 -1.20124804973602295 0.282194584608078003
-0.0583690106868743896 -1.03097140789031982 0.288735955953598022
1.95456504821777344 -0.748228073120117188 0.120559796690940857
1.81840252876281738 -0.50946962833404541 0.555559217929840088
1.0720679759979248 0.354220330715179443 0.223517730832099915
-0.301080465316772461 -1.05047094821929932 0.246149271726608276
1.7971271276473999 -0.676171720027923584 0.407816171646118164
1.68865156173706055 -0.865595161914825439 0.598388254642486572
-0.26918676495552063 -1.03718864917755127 0.501252889633178711
1.11566674709320068 0.0467014238238334656 0.445601433515548706
-0.127041280269622803 -1.19360494613647461 0.322179347276687622
1.06995964050292969 0.437200367450714111 0.502364158630371094
-0.242533892393112183 -0.699626803398132324 0.267899930477142334
1.16812145709991455 0.240479737520217896 0.391054153442382812
1.7648087739944458 -0.39026305079460144 0.409457743167877197
-0.186554759740829468 -0.946911096572875977 0.0498880147933959961
-0.269543915987014771 -0.799963593482971191 0.214093595743179321
-0.171829193830490112 -0.986956357955932617 0.477237880229949951
-0.727335751056671143 0.521575570106506348 0.503852725028991699
2.15618109703063965 -0.419754952192306519 0.333867371082305908
1.14726710319519043 0.443714678287506104 0.307333171367645264
1.7184523344039917 -0.851417183876037598 0.477932989597320557
-0.557210922241210938 0.649518251419067383 0.19145578145980835
-0.225724905729293823 0.639654755592346191 0.551919221878051758
1.74799835681915283 -0.770343303680419922 0.61251753568649292
-0.46539798378944397 0.823002159595489502 0.464933544397354126
-0.476296782493591309 -1.12170207500457764 0.374317526817321777
2.08894729614257812 -0.610430598258972168 0.0313604176044464111
-0.399086415767669678 -0.999383628368377686 -0.0760322064161300659
1.20468592643737793 0.0170377232134342194 0.350123792886734009
1.2192075252532959 0.370721995830535889 0.266180545091629028
-0.479391664266586304 0.401382684707641602 0.206670776009559631
-0.41015934944152832 0.835518240928649902 0.110999494791030884
-0.494354575872421265 0.282697886228561401 0.451028287410736084
1.94595277309417725 -0.763291537761688232 0.224215835332870483
2.08939218521118164 -0.586102128028869629 0.27877393364906311
2.03766298294067383 -0.713373064994812012 0.399941861629486084
-0.356747627258300781 0.724916338920593262 0.161429330706596375
-0.390103340148925781 -1.18618094921112061 0.508179187774658203
-0.612746953964233398 0.341504663228988647 0.570637941360473633
-0.0751760303974151611 -0.932054281234741211 0.256116390228271484
1.93511998653411865 -0.592553853988647461 0.181097745895385742
-0.236503124237060547 -1.20815718173980713 0.207603603601455688
-0.661600112915039062 0.629275023937225342 0.533368468284606934
1.76281642913818359 -0.748768806457519531 0.489375561475753784
-0.413455456495285034 0.517823219299316406 0.476959645748138428
-0.0515931546688079834 -0.752054572105407715 0.369642317295074463
1.86470019817352295 -0.698500394821166992 0.679857969284057617
-0.590353727340698242 0.391325235366821289 0.241698294878005981
-0.715928077697753906 0.695174694061279297 0.270841062068939209
-0.670266926288604736 0.468073368072509766 0.370587587356567383
1.12216675281524658 0.243360206484794617 0.250677138566970825
1.92504394054412842 -0.531949460506439209 0.813103616237640381
1.74835550785064697 -0.660818338394165039 0.219356924295425415
-0.147582739591598511 -1.24342024326324463 0.237207889556884766
0.927844822406768799 0.322630703449249268 0.467368572950363159
-0.420868963003158569 0.415755212306976318 0.540061354637145996
1.83102047443389893 -0.677325069904327393 0.271086961030960083
2.00050544738769531 -0.944080114364624023 0.384677112102508545
-0.11438557505607605 -1.09024858474731445 0.344556212425231934
-0.63727492094039917 0.800593137741088867 0.221780970692634583
-0.381371974945068359 0.71381676197052002 0.422133386135101318
-0.530539035797119141 0.587589263916015625 0.107039257884025574
-0.310065925121307373 -0.965846419334411621 0.298049628734588623
1.99301064014434814 -0.560881495475769043 0.275928318500518799
-0.691540896892547607 0.524526298046112061 0.110580459237098694
-0.160403549671173096 -1.14830565452575684 0.148485362529754639
-0.428815782070159912 -0.946928501129150391 0.018091544508934021
-0.44054943323135376 0.909042894840240479 0.500352144241333008
-0.421045273542404175 0.781221747398376465 0.36657482385635376
-0.248133271932601929 -1.15107583999633789 0.480137407779693604
-0.304602324962615967 -0.818398535251617432 0.301149427890777588
-0.348944544792175293 -0.778758108615875244 0.115217775106430054
