ply
format ascii 1.0
element vertex 64
comment vertices
property float x
property float y
property float z
end_header
1.90480756759643555 -0.056447446346282959 1.74412107467651367
-2.72550249099731445 -0.171793967485427856 1.20293927192687988
-0.0123930126428604126 -1.35855674743652344 -1.19445276260375977
-0.589257180690765381 2.78528308868408203 1.28922677040100098
-0.385577559471130371 -1.1103661060333252 2.76087379455566406
-1.05198287963867188 0.987083673477172852 -0.775766551494598389
-0.231360882520675659 0.499161899089813232 1.23208248615264893
-0.993022680282592773 -1.13298928737640381 0.497553765773773193
1.18427467346191406 -0.0629811882972717285 -0.0260354280471801758
-1.82858681678771973 1.29605364799499512 1.93414592742919922
0.865511536598205566 1.79434764385223389 1.70850014686584473
-0.336594283580780029 1.16529393196105957 2.63450860977172852
0.562037467956542969 -1.03965342044830322 1.00243020057678223
-1.77834856510162354 -0.846367001533508301 -0.6920318603515625
-1.56786608695983887 0.571305632591247559 0.707703232765197754
-0.50028151273727417 1.6696021556854248 0.350056588649749756
0.0606268197298049927 0.0301044285297393799 -1.00316989421844482
-1.54358196258544922 -0.168441236019134521 1.89987015724182129
0.405501872301101685 0.0132898688316345215 2.70093035697937012
-0.756218135356903076 -0.583188533782958984 -1.94399750232696533
-0.580523490905761719 -0.00516837835311889648 0.141126632690429688
0.431446045637130737 2.42534923553466797 0.447173506021499634
-0.839341998100280762 0.0396087169647216797 2.84319376945495605
-0.534194469451904297 -0.607842624187469482 1.47893238067626953
-0.0207191705703735352 -0.96871793270111084 -0.0901347547769546509
0.741720914840698242 0.767332077026367188 0.713195741176605225
0.81306767463684082 0.623374640941619873 1.86655330657958984
-1.98994302749633789 -0.602812886238098145 0.528295516967773438
1.02583396434783936 -0.688707590103149414 1.92033755779266357
-0.226909816265106201 -1.58599448204040527 1.7693781852722168
-0.954779148101806641 -0.287281334400177002 -0.760796666145324707
-2.24727487564086914 1.25747060775756836 0.77815401554107666
-1.59095358848571777 0.361172080039978027 -0.281036019325256348
-0.262712210416793823 1.43375802040100098 1.37961125373840332
0.645601570606231689 -0.106682673096656799 1.07622706890106201
0.0402076840400695801 0.657898128032684326 -0.0370417535305023193
-1.1353837251663208 0.691578686237335205 1.87878823280334473
-0.256822735071182251 0.0798191428184509277 2.02320241928100586
-1.16869616508483887 -0.191253602504730225 0.872379958629608154
-0.981996059417724609 -1.15474033355712891 -0.610490560531616211
-0.609458684921264648 0.805803060531616211 0.497205644845962524
0.511544466018676758 -0.832584857940673828 2.57777261734008789
-0.139164924621582031 1.86567485332489014 2.09337258338928223
-1.91971802711486816 0.588865041732788086 1.49513936042785645
0.313041806221008301 -0.212748050689697266 -0.111715421080589294
-1.11962580680847168 1.77632486820220947 0.882642984390258789
-0.951159000396728516 -0.605598926544189453 2.24624466896057129
1.44457602500915527 0.887184023857116699 1.43450427055358887
0.239158987998962402 -0.531762540340423584 1.84582602977752686
-0.301526725292205811 -1.13755655288696289 0.90395665168762207
-0.126941531896591187 -0.193748116493225098 0.753731966018676758
1.21843075752258301 0.062321782112121582 2.23442840576171875
0.0733200609683990479 1.23279571533203125 0.704176664352416992
0.180762842297554016 2.03411626815795898 1.28514242172241211
-1.46395981311798096 -0.315707236528396606 -0.0320554487407207489
-1.86557912826538086 -0.345894962549209595 1.26807665824890137
-0.911168932914733887 0.00332375988364219666 1.58099079132080078
0.165883556008338928 0.833849310874938965 2.11129117012023926
0.309740722179412842 -0.7497367262840271 -0.694882869720458984
-0.800089657306671143 0.524173259735107422 -1.25396513938903809
0.673094749450683594 -0.743162751197814941 0.366578757762908936
0.372861564159393311 1.03050148487091064 1.29380130767822266
-0.552213072776794434 -1.40569484233856201 -0.0459343641996383667
-0.813826560974121094 0.972106456756591797 1.33899390697479248
